G04 #@! TF.FileFunction,Legend,Bot*
%FSLAX46Y46*%
G04 Gerber Fmt 4.6, Leading zero omitted, Abs format (unit mm)*
G04 Created by KiCad (PCBNEW 4.0.0-rc2-stable) date 3/3/2016 3:06:40 PM*
%MOMM*%
G01*
G04 APERTURE LIST*
%ADD10C,0.150000*%
%ADD11C,0.025400*%
G04 APERTURE END LIST*
D10*
D11*
G36*
X79880939Y-18808963D02*
X80403695Y-18859595D01*
X80740675Y-18892234D01*
X81077655Y-18924876D01*
X81600575Y-18975522D01*
X81750778Y-18990070D01*
X81988038Y-19063437D01*
X82703538Y-19284685D01*
X83419038Y-19505938D01*
X83656346Y-19579320D01*
X83872043Y-19695742D01*
X84847583Y-20222299D01*
X85335353Y-20485576D01*
X85388461Y-20514240D01*
X85575355Y-20668187D01*
X86138885Y-21132383D01*
X86702420Y-21596576D01*
X86889319Y-21750529D01*
X87043124Y-21937422D01*
X87506904Y-22500975D01*
X87970684Y-23064524D01*
X88124496Y-23251422D01*
X88240924Y-23467118D01*
X88591989Y-24117459D01*
X88943040Y-24767804D01*
X89059463Y-24983491D01*
X89151281Y-25280262D01*
X89354077Y-25935759D01*
X89575317Y-26650844D01*
X89648676Y-26887974D01*
X89663310Y-27038195D01*
X89714230Y-27561234D01*
X89747065Y-27898392D01*
X89779890Y-28235566D01*
X89830835Y-28758765D01*
X89845486Y-28909168D01*
X89829997Y-29088034D01*
X89776187Y-29709506D01*
X89741497Y-30110116D01*
X89706817Y-30510744D01*
X89652981Y-31132411D01*
X89637484Y-31311384D01*
X89591029Y-31483399D01*
X89429629Y-32080994D01*
X89325589Y-32466209D01*
X89221549Y-32851439D01*
X89060089Y-33449219D01*
X89013580Y-33621464D01*
X88942117Y-33783351D01*
X88694102Y-34345259D01*
X88534222Y-34707471D01*
X88374338Y-35069708D01*
X88126242Y-35631788D01*
X88054651Y-35793972D01*
X87964072Y-35949142D01*
X87650152Y-36486938D01*
X87447792Y-36833606D01*
X87245422Y-37180293D01*
X86931382Y-37718253D01*
X86840770Y-37873489D01*
X86733005Y-38018364D01*
X86359546Y-38520443D01*
X86118800Y-38844085D01*
X85878055Y-39167747D01*
X85504470Y-39669980D01*
X85396579Y-39815020D01*
X85273199Y-39953119D01*
X84845914Y-40431329D01*
X84570485Y-40739586D01*
X84295049Y-41047859D01*
X83867635Y-41526215D01*
X83744220Y-41664335D01*
X83599826Y-41797342D01*
X83041926Y-42311239D01*
X82711266Y-42615819D01*
X82338756Y-42958951D01*
X81987286Y-43282697D01*
X81635820Y-43606439D01*
X81263331Y-43949552D01*
X80932711Y-44254087D01*
X80375016Y-44767797D01*
X80230773Y-44900658D01*
X80079142Y-45010887D01*
X79475802Y-45449459D01*
X79124322Y-45704960D01*
X78720452Y-45998539D01*
X78349352Y-46268291D01*
X77965158Y-46547569D01*
X77580792Y-46826969D01*
X77209512Y-47096857D01*
X76805452Y-47390577D01*
X76453802Y-47646187D01*
X75850412Y-48084801D01*
X75698693Y-48195091D01*
X75528472Y-48293742D01*
X74851562Y-48686049D01*
X74457222Y-48914595D01*
X74004102Y-49177206D01*
X73587752Y-49418509D01*
X73156702Y-49668326D01*
X72725466Y-49918252D01*
X72308922Y-50159666D01*
X71855578Y-50422402D01*
X71461052Y-50651052D01*
X70784082Y-51043406D01*
X70619618Y-51138724D01*
X70453985Y-51043398D01*
X69772325Y-50651083D01*
X69375215Y-50422537D01*
X68918915Y-50159930D01*
X68499655Y-49918627D01*
X68065585Y-49668810D01*
X67631325Y-49418886D01*
X67211855Y-49177470D01*
X66755345Y-48914736D01*
X66358050Y-48686083D01*
X65676335Y-48293733D01*
X65504903Y-48195074D01*
X65352835Y-48084808D01*
X64748025Y-47646235D01*
X64395685Y-47390742D01*
X63990823Y-47097155D01*
X63618815Y-46827395D01*
X63233678Y-46548125D01*
X62848378Y-46268725D01*
X62476190Y-45998843D01*
X62071138Y-45705123D01*
X61718633Y-45449508D01*
X61113759Y-45010888D01*
X60961712Y-44900635D01*
X60815451Y-44767682D01*
X60250128Y-44253782D01*
X59915068Y-43949202D01*
X59537596Y-43606072D01*
X59181456Y-43282320D01*
X58825315Y-42958582D01*
X58447870Y-42615472D01*
X58112853Y-42310930D01*
X57547739Y-41797222D01*
X57401557Y-41664340D01*
X57280852Y-41526368D01*
X56862501Y-41048160D01*
X56592821Y-40739898D01*
X56323128Y-40431625D01*
X55904638Y-39953274D01*
X55783758Y-39815093D01*
X55676714Y-39670074D01*
X55306124Y-39167995D01*
X55067232Y-38844352D01*
X54828328Y-38520691D01*
X54457621Y-38018458D01*
X54350635Y-37873517D01*
X54260128Y-37718318D01*
X53946487Y-37180522D01*
X53744316Y-36833854D01*
X53542131Y-36487167D01*
X53228391Y-35949207D01*
X53137865Y-35793974D01*
X53066307Y-35631858D01*
X52818289Y-35069945D01*
X52658419Y-34707728D01*
X52498539Y-34345496D01*
X52250446Y-33783412D01*
X52178963Y-33621461D01*
X52132461Y-33449289D01*
X51971055Y-32851692D01*
X51867009Y-32466477D01*
X51762959Y-32081246D01*
X51601506Y-31483471D01*
X51555029Y-31311384D01*
X51539539Y-31132484D01*
X51485736Y-30511010D01*
X51451049Y-30110400D01*
X51416366Y-29709771D01*
X51362548Y-29088105D01*
X51347059Y-28909168D01*
X51361696Y-28758826D01*
X51412615Y-28235787D01*
X51445440Y-27898627D01*
X51478270Y-27561456D01*
X51529210Y-27038255D01*
X51543841Y-26887969D01*
X51617070Y-26650837D01*
X51837895Y-25935752D01*
X52040318Y-25280255D01*
X52131960Y-24983492D01*
X52160659Y-24930397D01*
X52424258Y-24442639D01*
X52599992Y-24117466D01*
X52951472Y-23467125D01*
X53068045Y-23251425D01*
X53105907Y-23205411D01*
X53453742Y-22782749D01*
X53685630Y-22500974D01*
X54149407Y-21937421D01*
X54303212Y-21750528D01*
X54490112Y-21596576D01*
X55053653Y-21132383D01*
X55335422Y-20900285D01*
X55758075Y-20552139D01*
X55804086Y-20514240D01*
X55857192Y-20485576D01*
X56344956Y-20222299D01*
X56670132Y-20046780D01*
X57320485Y-19695742D01*
X57536174Y-19579320D01*
X57773489Y-19505938D01*
X58488989Y-19284685D01*
X59204489Y-19063437D01*
X59441749Y-18990070D01*
X59591888Y-18975528D01*
X60114639Y-18924893D01*
X60451614Y-18892259D01*
X60788604Y-18859616D01*
X61311519Y-18808967D01*
X61461812Y-18794409D01*
X61693666Y-18815861D01*
X62206390Y-18863299D01*
X62765718Y-18915049D01*
X62950944Y-18932186D01*
X63127454Y-18983879D01*
X63660516Y-19139992D01*
X64193571Y-19296104D01*
X64370364Y-19347878D01*
X64535803Y-19424155D01*
X65034643Y-19654163D01*
X65533483Y-19884168D01*
X65698829Y-19960403D01*
X65849636Y-20062380D01*
X66304646Y-20370048D01*
X66759656Y-20677718D01*
X66910755Y-20779887D01*
X67051883Y-20899382D01*
X67476823Y-21259196D01*
X67901783Y-21619010D01*
X68042733Y-21738357D01*
X68197449Y-21912997D01*
X68539154Y-22298702D01*
X68880860Y-22684405D01*
X69035526Y-22858987D01*
X69152762Y-23041621D01*
X69559332Y-23674933D01*
X69821402Y-24083174D01*
X70083492Y-24491432D01*
X70490182Y-25124939D01*
X70607992Y-25308466D01*
X70611504Y-25312083D01*
X70616146Y-25314050D01*
X70621187Y-25314055D01*
X70625833Y-25312099D01*
X70629845Y-25307658D01*
X70736615Y-25110736D01*
X70971505Y-24677506D01*
X71206385Y-24244279D01*
X71312789Y-24048034D01*
X71417941Y-23899921D01*
X71734746Y-23453708D01*
X72051536Y-23007495D01*
X72156773Y-22859279D01*
X72279078Y-22719499D01*
X72647298Y-22298692D01*
X72984824Y-21912953D01*
X73137685Y-21738255D01*
X73274364Y-21618883D01*
X73686340Y-21259069D01*
X74098320Y-20899255D01*
X74234984Y-20779894D01*
X74390388Y-20677813D01*
X74858783Y-20370143D01*
X75327179Y-20062475D01*
X75482497Y-19960447D01*
X75649155Y-19884183D01*
X76151745Y-19654178D01*
X76612455Y-19443338D01*
X76821037Y-19347884D01*
X76997977Y-19296105D01*
X77531452Y-19139993D01*
X78064927Y-18983880D01*
X78241572Y-18932186D01*
X78426800Y-18915049D01*
X78986125Y-18863299D01*
X79545470Y-18811549D01*
X79730707Y-18794409D01*
X79880939Y-18808963D01*
X79880939Y-18808963D01*
G37*
X79880939Y-18808963D02*
X80403695Y-18859595D01*
X80740675Y-18892234D01*
X81077655Y-18924876D01*
X81600575Y-18975522D01*
X81750778Y-18990070D01*
X81988038Y-19063437D01*
X82703538Y-19284685D01*
X83419038Y-19505938D01*
X83656346Y-19579320D01*
X83872043Y-19695742D01*
X84847583Y-20222299D01*
X85335353Y-20485576D01*
X85388461Y-20514240D01*
X85575355Y-20668187D01*
X86138885Y-21132383D01*
X86702420Y-21596576D01*
X86889319Y-21750529D01*
X87043124Y-21937422D01*
X87506904Y-22500975D01*
X87970684Y-23064524D01*
X88124496Y-23251422D01*
X88240924Y-23467118D01*
X88591989Y-24117459D01*
X88943040Y-24767804D01*
X89059463Y-24983491D01*
X89151281Y-25280262D01*
X89354077Y-25935759D01*
X89575317Y-26650844D01*
X89648676Y-26887974D01*
X89663310Y-27038195D01*
X89714230Y-27561234D01*
X89747065Y-27898392D01*
X89779890Y-28235566D01*
X89830835Y-28758765D01*
X89845486Y-28909168D01*
X89829997Y-29088034D01*
X89776187Y-29709506D01*
X89741497Y-30110116D01*
X89706817Y-30510744D01*
X89652981Y-31132411D01*
X89637484Y-31311384D01*
X89591029Y-31483399D01*
X89429629Y-32080994D01*
X89325589Y-32466209D01*
X89221549Y-32851439D01*
X89060089Y-33449219D01*
X89013580Y-33621464D01*
X88942117Y-33783351D01*
X88694102Y-34345259D01*
X88534222Y-34707471D01*
X88374338Y-35069708D01*
X88126242Y-35631788D01*
X88054651Y-35793972D01*
X87964072Y-35949142D01*
X87650152Y-36486938D01*
X87447792Y-36833606D01*
X87245422Y-37180293D01*
X86931382Y-37718253D01*
X86840770Y-37873489D01*
X86733005Y-38018364D01*
X86359546Y-38520443D01*
X86118800Y-38844085D01*
X85878055Y-39167747D01*
X85504470Y-39669980D01*
X85396579Y-39815020D01*
X85273199Y-39953119D01*
X84845914Y-40431329D01*
X84570485Y-40739586D01*
X84295049Y-41047859D01*
X83867635Y-41526215D01*
X83744220Y-41664335D01*
X83599826Y-41797342D01*
X83041926Y-42311239D01*
X82711266Y-42615819D01*
X82338756Y-42958951D01*
X81987286Y-43282697D01*
X81635820Y-43606439D01*
X81263331Y-43949552D01*
X80932711Y-44254087D01*
X80375016Y-44767797D01*
X80230773Y-44900658D01*
X80079142Y-45010887D01*
X79475802Y-45449459D01*
X79124322Y-45704960D01*
X78720452Y-45998539D01*
X78349352Y-46268291D01*
X77965158Y-46547569D01*
X77580792Y-46826969D01*
X77209512Y-47096857D01*
X76805452Y-47390577D01*
X76453802Y-47646187D01*
X75850412Y-48084801D01*
X75698693Y-48195091D01*
X75528472Y-48293742D01*
X74851562Y-48686049D01*
X74457222Y-48914595D01*
X74004102Y-49177206D01*
X73587752Y-49418509D01*
X73156702Y-49668326D01*
X72725466Y-49918252D01*
X72308922Y-50159666D01*
X71855578Y-50422402D01*
X71461052Y-50651052D01*
X70784082Y-51043406D01*
X70619618Y-51138724D01*
X70453985Y-51043398D01*
X69772325Y-50651083D01*
X69375215Y-50422537D01*
X68918915Y-50159930D01*
X68499655Y-49918627D01*
X68065585Y-49668810D01*
X67631325Y-49418886D01*
X67211855Y-49177470D01*
X66755345Y-48914736D01*
X66358050Y-48686083D01*
X65676335Y-48293733D01*
X65504903Y-48195074D01*
X65352835Y-48084808D01*
X64748025Y-47646235D01*
X64395685Y-47390742D01*
X63990823Y-47097155D01*
X63618815Y-46827395D01*
X63233678Y-46548125D01*
X62848378Y-46268725D01*
X62476190Y-45998843D01*
X62071138Y-45705123D01*
X61718633Y-45449508D01*
X61113759Y-45010888D01*
X60961712Y-44900635D01*
X60815451Y-44767682D01*
X60250128Y-44253782D01*
X59915068Y-43949202D01*
X59537596Y-43606072D01*
X59181456Y-43282320D01*
X58825315Y-42958582D01*
X58447870Y-42615472D01*
X58112853Y-42310930D01*
X57547739Y-41797222D01*
X57401557Y-41664340D01*
X57280852Y-41526368D01*
X56862501Y-41048160D01*
X56592821Y-40739898D01*
X56323128Y-40431625D01*
X55904638Y-39953274D01*
X55783758Y-39815093D01*
X55676714Y-39670074D01*
X55306124Y-39167995D01*
X55067232Y-38844352D01*
X54828328Y-38520691D01*
X54457621Y-38018458D01*
X54350635Y-37873517D01*
X54260128Y-37718318D01*
X53946487Y-37180522D01*
X53744316Y-36833854D01*
X53542131Y-36487167D01*
X53228391Y-35949207D01*
X53137865Y-35793974D01*
X53066307Y-35631858D01*
X52818289Y-35069945D01*
X52658419Y-34707728D01*
X52498539Y-34345496D01*
X52250446Y-33783412D01*
X52178963Y-33621461D01*
X52132461Y-33449289D01*
X51971055Y-32851692D01*
X51867009Y-32466477D01*
X51762959Y-32081246D01*
X51601506Y-31483471D01*
X51555029Y-31311384D01*
X51539539Y-31132484D01*
X51485736Y-30511010D01*
X51451049Y-30110400D01*
X51416366Y-29709771D01*
X51362548Y-29088105D01*
X51347059Y-28909168D01*
X51361696Y-28758826D01*
X51412615Y-28235787D01*
X51445440Y-27898627D01*
X51478270Y-27561456D01*
X51529210Y-27038255D01*
X51543841Y-26887969D01*
X51617070Y-26650837D01*
X51837895Y-25935752D01*
X52040318Y-25280255D01*
X52131960Y-24983492D01*
X52160659Y-24930397D01*
X52424258Y-24442639D01*
X52599992Y-24117466D01*
X52951472Y-23467125D01*
X53068045Y-23251425D01*
X53105907Y-23205411D01*
X53453742Y-22782749D01*
X53685630Y-22500974D01*
X54149407Y-21937421D01*
X54303212Y-21750528D01*
X54490112Y-21596576D01*
X55053653Y-21132383D01*
X55335422Y-20900285D01*
X55758075Y-20552139D01*
X55804086Y-20514240D01*
X55857192Y-20485576D01*
X56344956Y-20222299D01*
X56670132Y-20046780D01*
X57320485Y-19695742D01*
X57536174Y-19579320D01*
X57773489Y-19505938D01*
X58488989Y-19284685D01*
X59204489Y-19063437D01*
X59441749Y-18990070D01*
X59591888Y-18975528D01*
X60114639Y-18924893D01*
X60451614Y-18892259D01*
X60788604Y-18859616D01*
X61311519Y-18808967D01*
X61461812Y-18794409D01*
X61693666Y-18815861D01*
X62206390Y-18863299D01*
X62765718Y-18915049D01*
X62950944Y-18932186D01*
X63127454Y-18983879D01*
X63660516Y-19139992D01*
X64193571Y-19296104D01*
X64370364Y-19347878D01*
X64535803Y-19424155D01*
X65034643Y-19654163D01*
X65533483Y-19884168D01*
X65698829Y-19960403D01*
X65849636Y-20062380D01*
X66304646Y-20370048D01*
X66759656Y-20677718D01*
X66910755Y-20779887D01*
X67051883Y-20899382D01*
X67476823Y-21259196D01*
X67901783Y-21619010D01*
X68042733Y-21738357D01*
X68197449Y-21912997D01*
X68539154Y-22298702D01*
X68880860Y-22684405D01*
X69035526Y-22858987D01*
X69152762Y-23041621D01*
X69559332Y-23674933D01*
X69821402Y-24083174D01*
X70083492Y-24491432D01*
X70490182Y-25124939D01*
X70607992Y-25308466D01*
X70611504Y-25312083D01*
X70616146Y-25314050D01*
X70621187Y-25314055D01*
X70625833Y-25312099D01*
X70629845Y-25307658D01*
X70736615Y-25110736D01*
X70971505Y-24677506D01*
X71206385Y-24244279D01*
X71312789Y-24048034D01*
X71417941Y-23899921D01*
X71734746Y-23453708D01*
X72051536Y-23007495D01*
X72156773Y-22859279D01*
X72279078Y-22719499D01*
X72647298Y-22298692D01*
X72984824Y-21912953D01*
X73137685Y-21738255D01*
X73274364Y-21618883D01*
X73686340Y-21259069D01*
X74098320Y-20899255D01*
X74234984Y-20779894D01*
X74390388Y-20677813D01*
X74858783Y-20370143D01*
X75327179Y-20062475D01*
X75482497Y-19960447D01*
X75649155Y-19884183D01*
X76151745Y-19654178D01*
X76612455Y-19443338D01*
X76821037Y-19347884D01*
X76997977Y-19296105D01*
X77531452Y-19139993D01*
X78064927Y-18983880D01*
X78241572Y-18932186D01*
X78426800Y-18915049D01*
X78986125Y-18863299D01*
X79545470Y-18811549D01*
X79730707Y-18794409D01*
X79880939Y-18808963D01*
M02*
