G04 #@! TF.FileFunction,Soldermask,Top*
%FSLAX46Y46*%
G04 Gerber Fmt 4.6, Leading zero omitted, Abs format (unit mm)*
G04 Created by KiCad (PCBNEW 4.0.0-rc2-stable) date 3/3/2016 3:06:40 PM*
%MOMM*%
G01*
G04 APERTURE LIST*
%ADD10C,0.150000*%
%ADD11R,4.000000X1.000000*%
%ADD12C,0.600000*%
G04 APERTURE END LIST*
D10*
G36*
X67278037Y-45090824D02*
X66221368Y-46548031D01*
X65816589Y-46254512D01*
X66873258Y-44797305D01*
X67278037Y-45090824D01*
X67278037Y-45090824D01*
G37*
G36*
X65813775Y-43720228D02*
X64463586Y-45582214D01*
X64204527Y-45394362D01*
X65554716Y-43532376D01*
X65813775Y-43720228D01*
X65813775Y-43720228D01*
G37*
G36*
X67020018Y-44594916D02*
X65669829Y-46456901D01*
X65022182Y-45987270D01*
X66372371Y-44125285D01*
X67020018Y-44594916D01*
X67020018Y-44594916D01*
G37*
G36*
X62244901Y-41264184D02*
X61034140Y-42596121D01*
X60664157Y-42259798D01*
X61874918Y-40927861D01*
X62244901Y-41264184D01*
X62244901Y-41264184D01*
G37*
G36*
X60940531Y-39740628D02*
X59393447Y-41442548D01*
X59156659Y-41227302D01*
X60703743Y-39525382D01*
X60940531Y-39740628D01*
X60940531Y-39740628D01*
G37*
G36*
X62043079Y-40742869D02*
X60495995Y-42444789D01*
X59904023Y-41906673D01*
X61451107Y-40204753D01*
X62043079Y-40742869D01*
X62043079Y-40742869D01*
G37*
G36*
X57999958Y-36833116D02*
X56551747Y-37902081D01*
X56254812Y-37499800D01*
X57703023Y-36430835D01*
X57999958Y-36833116D01*
X57999958Y-36833116D01*
G37*
G36*
X57019299Y-35083571D02*
X55168807Y-36449469D01*
X54978769Y-36192009D01*
X56829261Y-34826111D01*
X57019299Y-35083571D01*
X57019299Y-35083571D01*
G37*
G36*
X57904164Y-36282367D02*
X56053672Y-37648266D01*
X55578576Y-37004617D01*
X57429068Y-35638718D01*
X57904164Y-36282367D01*
X57904164Y-36282367D01*
G37*
G36*
X55440027Y-32065512D02*
X53702295Y-32534860D01*
X53571921Y-32052156D01*
X55309653Y-31582808D01*
X55440027Y-32065512D01*
X55440027Y-32065512D01*
G37*
G36*
X55162489Y-30079165D02*
X52942053Y-30678887D01*
X52858613Y-30369957D01*
X55079049Y-29770235D01*
X55162489Y-30079165D01*
X55162489Y-30079165D01*
G37*
G36*
X55551004Y-31517622D02*
X53330569Y-32117344D01*
X53121970Y-31345018D01*
X55342405Y-30745296D01*
X55551004Y-31517622D01*
X55551004Y-31517622D01*
G37*
G36*
X55115142Y-27368099D02*
X53395280Y-26836990D01*
X53542810Y-26359251D01*
X55262672Y-26890360D01*
X55115142Y-27368099D01*
X55115142Y-27368099D01*
G37*
G36*
X55941181Y-25540461D02*
X53743580Y-24861822D01*
X53837999Y-24556069D01*
X56035600Y-25234708D01*
X55941181Y-25540461D01*
X55941181Y-25540461D01*
G37*
G36*
X55501541Y-26964125D02*
X53303940Y-26285486D01*
X53539989Y-25521103D01*
X55737590Y-26199742D01*
X55501541Y-26964125D01*
X55501541Y-26964125D01*
G37*
G36*
X57183658Y-23808237D02*
X56328673Y-22224255D01*
X56768668Y-21986759D01*
X57623653Y-23570741D01*
X57183658Y-23808237D01*
X57183658Y-23808237D01*
G37*
G36*
X59053586Y-23083000D02*
X57961105Y-21059023D01*
X58242702Y-20907026D01*
X59335183Y-22931003D01*
X59053586Y-23083000D01*
X59053586Y-23083000D01*
G37*
G36*
X57742400Y-23790738D02*
X56649919Y-21766761D01*
X57353912Y-21386768D01*
X58446393Y-23410745D01*
X57742400Y-23790738D01*
X57742400Y-23790738D01*
G37*
G36*
X61024928Y-22071365D02*
X61530839Y-20343924D01*
X62010684Y-20484455D01*
X61504773Y-22211896D01*
X61024928Y-22071365D01*
X61024928Y-22071365D01*
G37*
G36*
X62864446Y-22870599D02*
X63510887Y-20663313D01*
X63817988Y-20753253D01*
X63171547Y-22960539D01*
X62864446Y-22870599D01*
X62864446Y-22870599D01*
G37*
G36*
X61434509Y-22451819D02*
X62080950Y-20244532D01*
X62848701Y-20469381D01*
X62202260Y-22676668D01*
X61434509Y-22451819D01*
X61434509Y-22451819D01*
G37*
G36*
X65364898Y-24075152D02*
X66712213Y-22881527D01*
X67043776Y-23255782D01*
X65696461Y-24449407D01*
X65364898Y-24075152D01*
X65364898Y-24075152D01*
G37*
G36*
X66497390Y-25730467D02*
X68218960Y-24205279D01*
X68431160Y-24444801D01*
X66709590Y-25969989D01*
X66497390Y-25730467D01*
X66497390Y-25730467D01*
G37*
G36*
X65509334Y-24615188D02*
X67230904Y-23090001D01*
X67761404Y-23688808D01*
X66039834Y-25213995D01*
X65509334Y-24615188D01*
X65509334Y-24615188D01*
G37*
G36*
X74564644Y-25504466D02*
X73210010Y-24319153D01*
X73539264Y-23942866D01*
X74893898Y-25128179D01*
X74564644Y-25504466D01*
X74564644Y-25504466D01*
G37*
G36*
X76063216Y-24171470D02*
X74332295Y-22656904D01*
X74543018Y-22416080D01*
X76273939Y-23930646D01*
X76063216Y-24171470D01*
X76063216Y-24171470D01*
G37*
G36*
X75082041Y-25292806D02*
X73351120Y-23778240D01*
X73877925Y-23176180D01*
X75608846Y-24690746D01*
X75082041Y-25292806D01*
X75082041Y-25292806D01*
G37*
G36*
X77609097Y-22559846D02*
X77443273Y-20767500D01*
X77941147Y-20721438D01*
X78106971Y-22513784D01*
X77609097Y-22559846D01*
X77609097Y-22559846D01*
G37*
G36*
X79613666Y-22625456D02*
X79401781Y-20335236D01*
X79720420Y-20305756D01*
X79932305Y-22595976D01*
X79613666Y-22625456D01*
X79613666Y-22625456D01*
G37*
G36*
X78130002Y-22762720D02*
X77918116Y-20472501D01*
X78714714Y-20398802D01*
X78926600Y-22689021D01*
X78130002Y-22762720D01*
X78130002Y-22762720D01*
G37*
G36*
X82310100Y-22891298D02*
X83165073Y-21307308D01*
X83605070Y-21544800D01*
X82750097Y-23128790D01*
X82310100Y-22891298D01*
X82310100Y-22891298D01*
G37*
G36*
X83942543Y-24056516D02*
X85035007Y-22032529D01*
X85316605Y-22184524D01*
X84224141Y-24208511D01*
X83942543Y-24056516D01*
X83942543Y-24056516D01*
G37*
G36*
X82631351Y-23348788D02*
X83723816Y-21324802D01*
X84427811Y-21704790D01*
X83335346Y-23728776D01*
X82631351Y-23348788D01*
X82631351Y-23348788D01*
G37*
G36*
X85508379Y-25529935D02*
X87227972Y-24997958D01*
X87375743Y-25475623D01*
X85656150Y-26007600D01*
X85508379Y-25529935D01*
X85508379Y-25529935D01*
G37*
G36*
X85857677Y-27504927D02*
X88054935Y-26825178D01*
X88149509Y-27130883D01*
X85952251Y-27810632D01*
X85857677Y-27504927D01*
X85857677Y-27504927D01*
G37*
G36*
X85417318Y-26081486D02*
X87614576Y-25401738D01*
X87851010Y-26166002D01*
X85653752Y-26845750D01*
X85417318Y-26081486D01*
X85417318Y-26081486D01*
G37*
G36*
X86246391Y-30236768D02*
X87984135Y-30706073D01*
X87853773Y-31188780D01*
X86116029Y-30719475D01*
X86246391Y-30236768D01*
X86246391Y-30236768D01*
G37*
G36*
X85486196Y-32092759D02*
X87706646Y-32692426D01*
X87623214Y-33001359D01*
X85402764Y-32401692D01*
X85486196Y-32092759D01*
X85486196Y-32092759D01*
G37*
G36*
X85874676Y-30654294D02*
X88095126Y-31253961D01*
X87886546Y-32026292D01*
X85666096Y-31426625D01*
X85874676Y-30654294D01*
X85874676Y-30654294D01*
G37*
G36*
X84318797Y-35309250D02*
X85763061Y-36383542D01*
X85464647Y-36784726D01*
X84020383Y-35710434D01*
X84318797Y-35309250D01*
X84318797Y-35309250D01*
G37*
G36*
X82930516Y-36756757D02*
X84775964Y-38129463D01*
X84584978Y-38386221D01*
X82739530Y-37013515D01*
X82930516Y-36756757D01*
X82930516Y-36756757D01*
G37*
G36*
X83819791Y-35561227D02*
X85665238Y-36933934D01*
X85187775Y-37575829D01*
X83342328Y-36203122D01*
X83819791Y-35561227D01*
X83819791Y-35561227D01*
G37*
G36*
X80249587Y-40051424D02*
X81469091Y-41375361D01*
X81101331Y-41714112D01*
X79881827Y-40390175D01*
X80249587Y-40051424D01*
X80249587Y-40051424D01*
G37*
G36*
X78616525Y-41215773D02*
X80174780Y-42907471D01*
X79939413Y-43124271D01*
X78381158Y-41432573D01*
X78616525Y-41215773D01*
X78616525Y-41215773D01*
G37*
G36*
X79712451Y-40206294D02*
X81270706Y-41897992D01*
X80682289Y-42439994D01*
X79124034Y-40748296D01*
X79712451Y-40206294D01*
X79712451Y-40206294D01*
G37*
G36*
X75294348Y-44095296D02*
X76352715Y-45551269D01*
X75948278Y-45845260D01*
X74889911Y-44389287D01*
X75294348Y-44095296D01*
X75294348Y-44095296D01*
G37*
G36*
X73537693Y-45063162D02*
X74890051Y-46923572D01*
X74631211Y-47111726D01*
X73278853Y-45251316D01*
X73537693Y-45063162D01*
X73537693Y-45063162D01*
G37*
G36*
X74742915Y-44187069D02*
X76095274Y-46047479D01*
X75448175Y-46517865D01*
X74095816Y-44657455D01*
X74742915Y-44187069D01*
X74742915Y-44187069D01*
G37*
G36*
X70719417Y-46688136D02*
X71949194Y-48002537D01*
X71584083Y-48344142D01*
X70354306Y-47029741D01*
X70719417Y-46688136D01*
X70719417Y-46688136D01*
G37*
G36*
X69095472Y-47865167D02*
X70666853Y-49544679D01*
X70433182Y-49763305D01*
X68861801Y-48083793D01*
X69095472Y-47865167D01*
X69095472Y-47865167D01*
G37*
G36*
X70183504Y-46847185D02*
X71754886Y-48526697D01*
X71170708Y-49073265D01*
X69599326Y-47393753D01*
X70183504Y-46847185D01*
X70183504Y-46847185D01*
G37*
G36*
X70767194Y-29515968D02*
X69460775Y-28277716D01*
X69804734Y-27914822D01*
X71111153Y-29153074D01*
X70767194Y-29515968D01*
X70767194Y-29515968D01*
G37*
G36*
X72317598Y-28243628D02*
X70648284Y-26661417D01*
X70868418Y-26429164D01*
X72537732Y-28011375D01*
X72317598Y-28243628D01*
X72317598Y-28243628D01*
G37*
G36*
X71292601Y-29325053D02*
X69623287Y-27742842D01*
X70173621Y-27162211D01*
X71842935Y-28744422D01*
X71292601Y-29325053D01*
X71292601Y-29325053D01*
G37*
D11*
X92246380Y-50192207D03*
X92246380Y-48192207D03*
X92246380Y-46192207D03*
D12*
X91246380Y-50192207D03*
X91246380Y-48192207D03*
X91246380Y-46192207D03*
D11*
X49020840Y-46192207D03*
X49020840Y-48192207D03*
X49020840Y-50192207D03*
D12*
X50020840Y-46192207D03*
X50020840Y-48192207D03*
X50020840Y-50192207D03*
M02*
