G04 #@! TF.FileFunction,Profile,NP*
%FSLAX46Y46*%
G04 Gerber Fmt 4.6, Leading zero omitted, Abs format (unit mm)*
G04 Created by KiCad (PCBNEW 4.0.0-rc2-stable) date 3/3/2016 3:06:40 PM*
%MOMM*%
G01*
G04 APERTURE LIST*
%ADD10C,0.150000*%
%ADD11C,0.100000*%
G04 APERTURE END LIST*
D10*
D11*
X70620000Y-51160000D02*
X70620000Y-51150000D01*
X70620000Y-51150000D02*
X46630000Y-51150000D01*
X46630000Y-51150000D02*
X46630000Y-45150000D01*
X46630000Y-45150000D02*
X61290000Y-45150000D01*
X61290000Y-45150000D02*
X60950000Y-44910000D01*
X60950000Y-44910000D02*
X57390000Y-41670000D01*
X57390000Y-41670000D02*
X55770000Y-39820000D01*
X55770000Y-39820000D02*
X54340000Y-37880000D01*
X54340000Y-37880000D02*
X53120000Y-35800000D01*
X53120000Y-35800000D02*
X52160000Y-33630000D01*
X52160000Y-33630000D02*
X51540000Y-31310000D01*
X51540000Y-31310000D02*
X51330000Y-28910000D01*
X51330000Y-28910000D02*
X51530000Y-26890000D01*
X51530000Y-26890000D02*
X52120000Y-24980000D01*
X52120000Y-24980000D02*
X53060000Y-23240000D01*
X53060000Y-23240000D02*
X54290000Y-21740000D01*
X54290000Y-21740000D02*
X55800000Y-20500000D01*
X55800000Y-20500000D02*
X57530000Y-19570000D01*
X57530000Y-19570000D02*
X59440000Y-18980000D01*
X59440000Y-18980000D02*
X61460000Y-18780000D01*
X61460000Y-18780000D02*
X62950000Y-18920000D01*
X62950000Y-18920000D02*
X64380000Y-19330000D01*
X64380000Y-19330000D02*
X65710000Y-19950000D01*
X65710000Y-19950000D02*
X66920000Y-20770000D01*
X66920000Y-20770000D02*
X68050000Y-21730000D01*
X68050000Y-21730000D02*
X69050000Y-22850000D01*
X69050000Y-22850000D02*
X70620000Y-25300000D01*
X70620000Y-25300000D02*
X71300000Y-24040000D01*
X71300000Y-24040000D02*
X72150000Y-22850000D01*
X72150000Y-22850000D02*
X73130000Y-21730000D01*
X73130000Y-21730000D02*
X74230000Y-20770000D01*
X74230000Y-20770000D02*
X75480000Y-19950000D01*
X75480000Y-19950000D02*
X76820000Y-19330000D01*
X76820000Y-19330000D02*
X78240000Y-18920000D01*
X78240000Y-18920000D02*
X79730000Y-18780000D01*
X79730000Y-18780000D02*
X81750000Y-18980000D01*
X81750000Y-18980000D02*
X83660000Y-19570000D01*
X83660000Y-19570000D02*
X85400000Y-20500000D01*
X85400000Y-20500000D02*
X86900000Y-21740000D01*
X86900000Y-21740000D02*
X88140000Y-23240000D01*
X88140000Y-23240000D02*
X89070000Y-24980000D01*
X89070000Y-24980000D02*
X89660000Y-26880000D01*
X89660000Y-26880000D02*
X89860000Y-28910000D01*
X89860000Y-28910000D02*
X89650000Y-31310000D01*
X89650000Y-31310000D02*
X89030000Y-33630000D01*
X89030000Y-33630000D02*
X88070000Y-35800000D01*
X88070000Y-35800000D02*
X86850000Y-37880000D01*
X86850000Y-37880000D02*
X85410000Y-39820000D01*
X85410000Y-39820000D02*
X83750000Y-41670000D01*
X83750000Y-41670000D02*
X80240000Y-44910000D01*
X80240000Y-44910000D02*
X79910000Y-45150000D01*
X79910000Y-45150000D02*
X94560000Y-45150000D01*
X94560000Y-45150000D02*
X94560000Y-51150000D01*
X94560000Y-51150000D02*
X70620000Y-51150000D01*
X70620000Y-51150000D02*
X70620000Y-51160000D01*
X70620000Y-51160000D02*
X70620000Y-51160000D01*
X70620000Y-51160000D02*
X70620000Y-51160000D01*
M02*
