G04 #@! TF.FileFunction,Soldermask,Bot*
%FSLAX46Y46*%
G04 Gerber Fmt 4.6, Leading zero omitted, Abs format (unit mm)*
G04 Created by KiCad (PCBNEW 4.0.0-rc2-stable) date 3/3/2016 3:06:40 PM*
%MOMM*%
G01*
G04 APERTURE LIST*
%ADD10C,0.150000*%
%ADD11R,4.000000X1.000000*%
%ADD12C,0.600000*%
%ADD13C,0.500000*%
G04 APERTURE END LIST*
D10*
D11*
X92246380Y-50192207D03*
X92246380Y-48192207D03*
X92246380Y-46192207D03*
D12*
X91246380Y-50192207D03*
X91246380Y-48192207D03*
X91246380Y-46192207D03*
D11*
X49020840Y-46192207D03*
X49020840Y-48192207D03*
X49020840Y-50192207D03*
D12*
X50020840Y-46192207D03*
X50020840Y-48192207D03*
X50020840Y-50192207D03*
D10*
G36*
X83070516Y-28686241D02*
X80808209Y-30656513D01*
X79100640Y-28695847D01*
X81362947Y-26725575D01*
X83070516Y-28686241D01*
X83070516Y-28686241D01*
G37*
G36*
X67261108Y-43117895D02*
X64998802Y-45088167D01*
X62634476Y-42373399D01*
X64896782Y-40403127D01*
X67261108Y-43117895D01*
X67261108Y-43117895D01*
G37*
D13*
X63514998Y-43993486D03*
D10*
G36*
X57129777Y-28722384D02*
X58970077Y-29505516D01*
X58672487Y-30204830D01*
X56832187Y-29421698D01*
X57129777Y-28722384D01*
X57129777Y-28722384D01*
G37*
G36*
X56632488Y-29890975D02*
X58472788Y-30674107D01*
X58175198Y-31373421D01*
X56334898Y-30590289D01*
X56632488Y-29890975D01*
X56632488Y-29890975D01*
G37*
G36*
X56135199Y-31059565D02*
X57975499Y-31842697D01*
X57677909Y-32542011D01*
X55837609Y-31758879D01*
X56135199Y-31059565D01*
X56135199Y-31059565D01*
G37*
G36*
X55637909Y-32228155D02*
X57478209Y-33011287D01*
X57180619Y-33710601D01*
X55340319Y-32927469D01*
X55637909Y-32228155D01*
X55637909Y-32228155D01*
G37*
G36*
X60074257Y-29975397D02*
X61914557Y-30758529D01*
X61616967Y-31457843D01*
X59776667Y-30674711D01*
X60074257Y-29975397D01*
X60074257Y-29975397D01*
G37*
G36*
X59576967Y-31143987D02*
X61417267Y-31927119D01*
X61119677Y-32626433D01*
X59279377Y-31843301D01*
X59576967Y-31143987D01*
X59576967Y-31143987D01*
G37*
G36*
X59079678Y-32312577D02*
X60919978Y-33095709D01*
X60622388Y-33795023D01*
X58782088Y-33011891D01*
X59079678Y-32312577D01*
X59079678Y-32312577D01*
G37*
G36*
X58578474Y-33490369D02*
X60418773Y-34273502D01*
X60129014Y-34954413D01*
X58288715Y-34171280D01*
X58578474Y-33490369D01*
X58578474Y-33490369D01*
G37*
G36*
X61857798Y-29359600D02*
X62409888Y-29594539D01*
X62057478Y-30422674D01*
X61505388Y-30187735D01*
X61857798Y-29359600D01*
X61857798Y-29359600D01*
G37*
G36*
X60477574Y-28772251D02*
X61029664Y-29007190D01*
X60677254Y-29835325D01*
X60125164Y-29600386D01*
X60477574Y-28772251D01*
X60477574Y-28772251D01*
G37*
G36*
X60967032Y-27622063D02*
X61519122Y-27857002D01*
X61166712Y-28685137D01*
X60614622Y-28450198D01*
X60967032Y-27622063D01*
X60967032Y-27622063D01*
G37*
G36*
X62347256Y-28209413D02*
X62899346Y-28444352D01*
X62546936Y-29272487D01*
X61994846Y-29037548D01*
X62347256Y-28209413D01*
X62347256Y-28209413D01*
G37*
G36*
X62836714Y-27059225D02*
X63388804Y-27294164D01*
X63036394Y-28122299D01*
X62484304Y-27887360D01*
X62836714Y-27059225D01*
X62836714Y-27059225D01*
G37*
G36*
X61456490Y-26471876D02*
X62008580Y-26706815D01*
X61656170Y-27534950D01*
X61104080Y-27300011D01*
X61456490Y-26471876D01*
X61456490Y-26471876D01*
G37*
G36*
X60453093Y-29468239D02*
X60637123Y-29546552D01*
X60284713Y-30374687D01*
X60100683Y-30296374D01*
X60453093Y-29468239D01*
X60453093Y-29468239D01*
G37*
M02*
