G04 #@! TF.FileFunction,Copper,L2,Bot,Signal*
%FSLAX46Y46*%
G04 Gerber Fmt 4.6, Leading zero omitted, Abs format (unit mm)*
G04 Created by KiCad (PCBNEW 4.0.0-rc2-stable) date 3/3/2016 3:06:40 PM*
%MOMM*%
G01*
G04 APERTURE LIST*
%ADD10C,0.150000*%
%ADD11C,0.500000*%
%ADD12R,4.000000X1.000000*%
%ADD13C,0.600000*%
%ADD14C,0.254000*%
%ADD15C,0.152400*%
G04 APERTURE END LIST*
D10*
D11*
X66004779Y-46761546D03*
X60795348Y-42784478D03*
X56280685Y-38040013D03*
X53399636Y-32564814D03*
X53123389Y-26700698D03*
X56230175Y-21936508D03*
X61663142Y-20070070D03*
X66969923Y-22720015D03*
X73017163Y-24083972D03*
X77465424Y-20464169D03*
X83351568Y-21067059D03*
X87529348Y-24957062D03*
X88260723Y-30832561D03*
X85973930Y-36602709D03*
X81635565Y-41629893D03*
X76488666Y-45823331D03*
X72117646Y-48255764D03*
X69277434Y-28035051D03*
D12*
X92246380Y-50192207D03*
X92246380Y-48192207D03*
X92246380Y-46192207D03*
D13*
X91246380Y-50192207D03*
X91246380Y-48192207D03*
X91246380Y-46192207D03*
D12*
X49020840Y-46192207D03*
X49020840Y-48192207D03*
X49020840Y-50192207D03*
D13*
X50020840Y-46192207D03*
X50020840Y-48192207D03*
X50020840Y-50192207D03*
D10*
G36*
X83070516Y-28686241D02*
X80808209Y-30656513D01*
X79100640Y-28695847D01*
X81362947Y-26725575D01*
X83070516Y-28686241D01*
X83070516Y-28686241D01*
G37*
G36*
X67261108Y-43117895D02*
X64998802Y-45088167D01*
X62634476Y-42373399D01*
X64896782Y-40403127D01*
X67261108Y-43117895D01*
X67261108Y-43117895D01*
G37*
D11*
X63514998Y-43993486D03*
D10*
G36*
X57129777Y-28722384D02*
X58970077Y-29505516D01*
X58672487Y-30204830D01*
X56832187Y-29421698D01*
X57129777Y-28722384D01*
X57129777Y-28722384D01*
G37*
G36*
X56632488Y-29890975D02*
X58472788Y-30674107D01*
X58175198Y-31373421D01*
X56334898Y-30590289D01*
X56632488Y-29890975D01*
X56632488Y-29890975D01*
G37*
G36*
X56135199Y-31059565D02*
X57975499Y-31842697D01*
X57677909Y-32542011D01*
X55837609Y-31758879D01*
X56135199Y-31059565D01*
X56135199Y-31059565D01*
G37*
G36*
X55637909Y-32228155D02*
X57478209Y-33011287D01*
X57180619Y-33710601D01*
X55340319Y-32927469D01*
X55637909Y-32228155D01*
X55637909Y-32228155D01*
G37*
G36*
X60074257Y-29975397D02*
X61914557Y-30758529D01*
X61616967Y-31457843D01*
X59776667Y-30674711D01*
X60074257Y-29975397D01*
X60074257Y-29975397D01*
G37*
G36*
X59576967Y-31143987D02*
X61417267Y-31927119D01*
X61119677Y-32626433D01*
X59279377Y-31843301D01*
X59576967Y-31143987D01*
X59576967Y-31143987D01*
G37*
G36*
X59079678Y-32312577D02*
X60919978Y-33095709D01*
X60622388Y-33795023D01*
X58782088Y-33011891D01*
X59079678Y-32312577D01*
X59079678Y-32312577D01*
G37*
G36*
X58578474Y-33490369D02*
X60418773Y-34273502D01*
X60129014Y-34954413D01*
X58288715Y-34171280D01*
X58578474Y-33490369D01*
X58578474Y-33490369D01*
G37*
G36*
X61857798Y-29359600D02*
X62409888Y-29594539D01*
X62057478Y-30422674D01*
X61505388Y-30187735D01*
X61857798Y-29359600D01*
X61857798Y-29359600D01*
G37*
G36*
X60477574Y-28772251D02*
X61029664Y-29007190D01*
X60677254Y-29835325D01*
X60125164Y-29600386D01*
X60477574Y-28772251D01*
X60477574Y-28772251D01*
G37*
G36*
X60967032Y-27622063D02*
X61519122Y-27857002D01*
X61166712Y-28685137D01*
X60614622Y-28450198D01*
X60967032Y-27622063D01*
X60967032Y-27622063D01*
G37*
G36*
X62347256Y-28209413D02*
X62899346Y-28444352D01*
X62546936Y-29272487D01*
X61994846Y-29037548D01*
X62347256Y-28209413D01*
X62347256Y-28209413D01*
G37*
G36*
X62836714Y-27059225D02*
X63388804Y-27294164D01*
X63036394Y-28122299D01*
X62484304Y-27887360D01*
X62836714Y-27059225D01*
X62836714Y-27059225D01*
G37*
G36*
X61456490Y-26471876D02*
X62008580Y-26706815D01*
X61656170Y-27534950D01*
X61104080Y-27300011D01*
X61456490Y-26471876D01*
X61456490Y-26471876D01*
G37*
G36*
X60453093Y-29468239D02*
X60637123Y-29546552D01*
X60284713Y-30374687D01*
X60100683Y-30296374D01*
X60453093Y-29468239D01*
X60453093Y-29468239D01*
G37*
G36*
X60422767Y-27879504D02*
X60606797Y-27957817D01*
X59118845Y-31454386D01*
X58934815Y-31376073D01*
X60422767Y-27879504D01*
X60422767Y-27879504D01*
G37*
G36*
X60537314Y-26461096D02*
X60721344Y-26539410D01*
X58176162Y-32520384D01*
X57992132Y-32442070D01*
X60537314Y-26461096D01*
X60537314Y-26461096D01*
G37*
G36*
X60514782Y-27918661D02*
X60882842Y-28075287D01*
X60804528Y-28259317D01*
X60436468Y-28102691D01*
X60514782Y-27918661D01*
X60514782Y-27918661D01*
G37*
G36*
X59105143Y-31231200D02*
X59473203Y-31387826D01*
X59394889Y-31571856D01*
X59026829Y-31415230D01*
X59105143Y-31231200D01*
X59105143Y-31231200D01*
G37*
G36*
X58208468Y-32316775D02*
X58944588Y-32630029D01*
X58866274Y-32814059D01*
X58130154Y-32500805D01*
X58208468Y-32316775D01*
X58208468Y-32316775D01*
G37*
G36*
X60675337Y-26519831D02*
X61411457Y-26833085D01*
X61333143Y-27017115D01*
X60597023Y-26703861D01*
X60675337Y-26519831D01*
X60675337Y-26519831D01*
G37*
G36*
X62727069Y-27827651D02*
X62911099Y-27905964D01*
X62127967Y-29746263D01*
X61943937Y-29667950D01*
X62727069Y-27827651D01*
X62727069Y-27827651D01*
G37*
D14*
X64950000Y-42750000D02*
X63520000Y-43990000D01*
X64950000Y-42750000D02*
X63520000Y-43990000D01*
X64950000Y-42750000D02*
X63520000Y-43990000D01*
X64950000Y-42750000D02*
X63520000Y-43990000D01*
X64950000Y-42750000D02*
X63520000Y-43990000D01*
X64950000Y-42750000D02*
X63520000Y-43990000D01*
X64950000Y-42750000D02*
X63520000Y-43990000D01*
X64950000Y-42750000D02*
X63520000Y-43990000D01*
X64950000Y-42750000D02*
X63520000Y-43990000D01*
X81090000Y-28690000D02*
X62430000Y-28790000D01*
X81090000Y-28690000D02*
X62430000Y-28790000D01*
X81090000Y-28690000D02*
X62430000Y-28790000D01*
X81090000Y-28690000D02*
X62430000Y-28790000D01*
X81090000Y-28690000D02*
X62430000Y-28790000D01*
X81090000Y-28690000D02*
X62430000Y-28790000D01*
X81090000Y-28690000D02*
X62430000Y-28790000D01*
X81090000Y-28690000D02*
X62430000Y-28790000D01*
X81090000Y-28690000D02*
X62430000Y-28790000D01*
D15*
G36*
X81694605Y-19254477D02*
X83552244Y-19828304D01*
X85244029Y-20732534D01*
X86702115Y-21937885D01*
X87907466Y-23395971D01*
X88811796Y-25087943D01*
X89385522Y-26935534D01*
X89580201Y-28911528D01*
X89374576Y-31261528D01*
X88766443Y-33537123D01*
X87821650Y-35672750D01*
X86617308Y-37726054D01*
X85193994Y-39643572D01*
X83551396Y-41474178D01*
X80062985Y-44694250D01*
X79746135Y-44924686D01*
X79731246Y-44940808D01*
X79713000Y-44953000D01*
X79694713Y-44980368D01*
X79672385Y-45004546D01*
X79664800Y-45025136D01*
X79652607Y-45043384D01*
X79646186Y-45075666D01*
X79634809Y-45106549D01*
X79635681Y-45128478D01*
X79631400Y-45150000D01*
X79637820Y-45182277D01*
X79639128Y-45215167D01*
X79648326Y-45235094D01*
X79652607Y-45256616D01*
X79670892Y-45283981D01*
X79684686Y-45313865D01*
X79700808Y-45328754D01*
X79713000Y-45347000D01*
X79740368Y-45365287D01*
X79764546Y-45387615D01*
X79785136Y-45395200D01*
X79803384Y-45407393D01*
X79835666Y-45413814D01*
X79866549Y-45425191D01*
X79888478Y-45424319D01*
X79910000Y-45428600D01*
X89723236Y-45428600D01*
X89662180Y-45576002D01*
X89662180Y-45868357D01*
X89808230Y-46014407D01*
X90378460Y-46014407D01*
X90346968Y-46130540D01*
X90377762Y-46370007D01*
X89808230Y-46370007D01*
X89662180Y-46516057D01*
X89662180Y-46808412D01*
X89751119Y-47023130D01*
X89915458Y-47187468D01*
X90130176Y-47276407D01*
X91922530Y-47276407D01*
X92068580Y-47130357D01*
X92068580Y-46538605D01*
X92145792Y-46253874D01*
X92112426Y-45994407D01*
X92424180Y-45994407D01*
X92424180Y-46014407D01*
X92444180Y-46014407D01*
X92444180Y-46370007D01*
X92424180Y-46370007D01*
X92424180Y-47130357D01*
X92570230Y-47276407D01*
X94281400Y-47276407D01*
X94281400Y-47466221D01*
X94246380Y-47459129D01*
X90246380Y-47459129D01*
X90161666Y-47475069D01*
X90083862Y-47525135D01*
X90031665Y-47601527D01*
X90013302Y-47692207D01*
X90013302Y-48692207D01*
X90029242Y-48776921D01*
X90079308Y-48854725D01*
X90155700Y-48906922D01*
X90246380Y-48925285D01*
X94246380Y-48925285D01*
X94281400Y-48918696D01*
X94281400Y-49108007D01*
X92570230Y-49108007D01*
X92424180Y-49254057D01*
X92424180Y-50014407D01*
X92444180Y-50014407D01*
X92444180Y-50370007D01*
X92424180Y-50370007D01*
X92424180Y-50390007D01*
X92108876Y-50390007D01*
X92145792Y-50253874D01*
X92100927Y-49904990D01*
X92068580Y-49826897D01*
X92068580Y-49254057D01*
X91922530Y-49108007D01*
X90130176Y-49108007D01*
X89915458Y-49196946D01*
X89751119Y-49361284D01*
X89662180Y-49576002D01*
X89662180Y-49868357D01*
X89808230Y-50014407D01*
X90378460Y-50014407D01*
X90346968Y-50130540D01*
X90377762Y-50370007D01*
X89808230Y-50370007D01*
X89662180Y-50516057D01*
X89662180Y-50808412D01*
X89688270Y-50871400D01*
X51578950Y-50871400D01*
X51605040Y-50808412D01*
X51605040Y-50516057D01*
X51458990Y-50370007D01*
X50888760Y-50370007D01*
X50920252Y-50253874D01*
X50889458Y-50014407D01*
X51458990Y-50014407D01*
X51605040Y-49868357D01*
X51605040Y-49576002D01*
X51516101Y-49361284D01*
X51351762Y-49196946D01*
X51137044Y-49108007D01*
X49344690Y-49108007D01*
X49198640Y-49254057D01*
X49198640Y-49845809D01*
X49121428Y-50130540D01*
X49154794Y-50390007D01*
X48843040Y-50390007D01*
X48843040Y-50370007D01*
X48823040Y-50370007D01*
X48823040Y-50014407D01*
X48843040Y-50014407D01*
X48843040Y-49254057D01*
X48696990Y-49108007D01*
X46908600Y-49108007D01*
X46908600Y-48892191D01*
X46930160Y-48906922D01*
X47020840Y-48925285D01*
X51020840Y-48925285D01*
X51105554Y-48909345D01*
X51183358Y-48859279D01*
X51235555Y-48782887D01*
X51253918Y-48692207D01*
X51253918Y-48483720D01*
X71298219Y-48483720D01*
X71447829Y-48779950D01*
X71699413Y-48996376D01*
X71835742Y-49058232D01*
X71959876Y-48952851D01*
X72219529Y-48952851D01*
X72345602Y-49075191D01*
X72641832Y-48925581D01*
X72858258Y-48673997D01*
X72920114Y-48537668D01*
X72806422Y-48403743D01*
X72238421Y-48384850D01*
X72219529Y-48952851D01*
X71959876Y-48952851D01*
X71969667Y-48944540D01*
X71988560Y-48376539D01*
X71420559Y-48357647D01*
X71298219Y-48483720D01*
X51253918Y-48483720D01*
X51253918Y-48134989D01*
X72246732Y-48134989D01*
X72814733Y-48153881D01*
X72937073Y-48027808D01*
X72787463Y-47731578D01*
X72535879Y-47515152D01*
X72399550Y-47453296D01*
X72265625Y-47566988D01*
X72246732Y-48134989D01*
X51253918Y-48134989D01*
X51253918Y-47973860D01*
X71315178Y-47973860D01*
X71428870Y-48107785D01*
X71996871Y-48126678D01*
X72015763Y-47558677D01*
X71889690Y-47436337D01*
X71593460Y-47585947D01*
X71377034Y-47837531D01*
X71315178Y-47973860D01*
X51253918Y-47973860D01*
X51253918Y-47692207D01*
X51237978Y-47607493D01*
X51187912Y-47529689D01*
X51111520Y-47477492D01*
X51020840Y-47459129D01*
X47020840Y-47459129D01*
X46936126Y-47475069D01*
X46908600Y-47492782D01*
X46908600Y-47276407D01*
X48696990Y-47276407D01*
X48843040Y-47130357D01*
X48843040Y-46370007D01*
X48823040Y-46370007D01*
X48823040Y-46014407D01*
X48843040Y-46014407D01*
X48843040Y-45994407D01*
X49158344Y-45994407D01*
X49121428Y-46130540D01*
X49166293Y-46479424D01*
X49198640Y-46557517D01*
X49198640Y-47130357D01*
X49344690Y-47276407D01*
X51137044Y-47276407D01*
X51351762Y-47187468D01*
X51398121Y-47141109D01*
X65243624Y-47141109D01*
X65446816Y-47403499D01*
X65734954Y-47568155D01*
X65880555Y-47602969D01*
X65990426Y-47465893D01*
X65901004Y-46904657D01*
X65339768Y-46994079D01*
X65243624Y-47141109D01*
X51398121Y-47141109D01*
X51516101Y-47023130D01*
X51581467Y-46865321D01*
X66147890Y-46865321D01*
X66237312Y-47426557D01*
X66384342Y-47522701D01*
X66646732Y-47319509D01*
X66811388Y-47031371D01*
X66846202Y-46885770D01*
X66709126Y-46775899D01*
X66147890Y-46865321D01*
X51581467Y-46865321D01*
X51605040Y-46808412D01*
X51605040Y-46637322D01*
X65163356Y-46637322D01*
X65300432Y-46747193D01*
X65861668Y-46657771D01*
X65772246Y-46096535D01*
X65712091Y-46057199D01*
X66019132Y-46057199D01*
X66108554Y-46618435D01*
X66669790Y-46529013D01*
X66765934Y-46381983D01*
X66562742Y-46119593D01*
X66274604Y-45954937D01*
X66247834Y-45948536D01*
X75647388Y-45948536D01*
X75759340Y-46260949D01*
X75982326Y-46506737D01*
X76109990Y-46584928D01*
X76197343Y-46527661D01*
X76503840Y-46527661D01*
X76613871Y-46664609D01*
X76926284Y-46552657D01*
X77172072Y-46329671D01*
X77250263Y-46202007D01*
X77153947Y-46055089D01*
X76592608Y-45966321D01*
X76503840Y-46527661D01*
X76197343Y-46527661D01*
X76256908Y-46488612D01*
X76345676Y-45927273D01*
X75784336Y-45838505D01*
X75647388Y-45948536D01*
X66247834Y-45948536D01*
X66129003Y-45920123D01*
X66019132Y-46057199D01*
X65712091Y-46057199D01*
X65625216Y-46000391D01*
X65362826Y-46203583D01*
X65198170Y-46491721D01*
X65163356Y-46637322D01*
X51605040Y-46637322D01*
X51605040Y-46516057D01*
X51458990Y-46370007D01*
X50888760Y-46370007D01*
X50920252Y-46253874D01*
X50889458Y-46014407D01*
X51458990Y-46014407D01*
X51605040Y-45868357D01*
X51605040Y-45719389D01*
X76631656Y-45719389D01*
X77192996Y-45808157D01*
X77329944Y-45698126D01*
X77217992Y-45385713D01*
X76995006Y-45139925D01*
X76867342Y-45061734D01*
X76720424Y-45158050D01*
X76631656Y-45719389D01*
X51605040Y-45719389D01*
X51605040Y-45576002D01*
X51550635Y-45444655D01*
X75727069Y-45444655D01*
X75823385Y-45591573D01*
X76384724Y-45680341D01*
X76473492Y-45119001D01*
X76363461Y-44982053D01*
X76051048Y-45094005D01*
X75805260Y-45316991D01*
X75727069Y-45444655D01*
X51550635Y-45444655D01*
X51543984Y-45428600D01*
X61290000Y-45428600D01*
X61313443Y-45423937D01*
X61337336Y-45424549D01*
X61366240Y-45413435D01*
X61396616Y-45407393D01*
X61416490Y-45394114D01*
X61438798Y-45385536D01*
X61461250Y-45364206D01*
X61487000Y-45347000D01*
X61500280Y-45327126D01*
X61517607Y-45310664D01*
X61530186Y-45282368D01*
X61547393Y-45256616D01*
X61552056Y-45233171D01*
X61561765Y-45211332D01*
X61562558Y-45180375D01*
X61568600Y-45150000D01*
X61563937Y-45126557D01*
X61564549Y-45102664D01*
X61553435Y-45073760D01*
X61547393Y-45043384D01*
X61534114Y-45023510D01*
X61525536Y-45001202D01*
X61504206Y-44978750D01*
X61487000Y-44953000D01*
X61467126Y-44939720D01*
X61450664Y-44922393D01*
X61124765Y-44692346D01*
X59350851Y-43077884D01*
X59997014Y-43077884D01*
X60170065Y-43361060D01*
X60438310Y-43556455D01*
X60579191Y-43607096D01*
X60703493Y-43482957D01*
X60676440Y-42915287D01*
X60108769Y-42942340D01*
X59997014Y-43077884D01*
X59350851Y-43077884D01*
X59159119Y-42903386D01*
X60926157Y-42903386D01*
X60953210Y-43471057D01*
X61088754Y-43582812D01*
X61371930Y-43409761D01*
X61567325Y-43141516D01*
X61617966Y-43000635D01*
X61493827Y-42876333D01*
X60926157Y-42903386D01*
X59159119Y-42903386D01*
X58790960Y-42568321D01*
X59972730Y-42568321D01*
X60096869Y-42692623D01*
X60664539Y-42665570D01*
X60637486Y-42097899D01*
X60623053Y-42085999D01*
X60887203Y-42085999D01*
X60914256Y-42653669D01*
X61481927Y-42626616D01*
X61593682Y-42491072D01*
X61510005Y-42354145D01*
X62402195Y-42354145D01*
X62413004Y-42446032D01*
X62458711Y-42526475D01*
X63346122Y-43545418D01*
X63244247Y-43587512D01*
X63109498Y-43722027D01*
X63036482Y-43897869D01*
X63036315Y-44088268D01*
X63109024Y-44264237D01*
X63243539Y-44398986D01*
X63419381Y-44472002D01*
X63609780Y-44472169D01*
X63785749Y-44399460D01*
X63920498Y-44264945D01*
X63937373Y-44224305D01*
X64823037Y-45241243D01*
X64890694Y-45294657D01*
X64979548Y-45320448D01*
X65071435Y-45309639D01*
X65151878Y-45263932D01*
X67414184Y-43293660D01*
X67467598Y-43226003D01*
X67493389Y-43137149D01*
X67482580Y-43045262D01*
X67436873Y-42964819D01*
X66467236Y-41851461D01*
X80814388Y-41851461D01*
X80961686Y-42148847D01*
X81211578Y-42367226D01*
X81347421Y-42430142D01*
X81469953Y-42327752D01*
X81732016Y-42327752D01*
X81857133Y-42451070D01*
X82154519Y-42303772D01*
X82372898Y-42053880D01*
X82435814Y-41918037D01*
X82323168Y-41783231D01*
X81755332Y-41759916D01*
X81732016Y-42327752D01*
X81469953Y-42327752D01*
X81482227Y-42317496D01*
X81505542Y-41749660D01*
X80937706Y-41726344D01*
X80814388Y-41851461D01*
X66467236Y-41851461D01*
X66169964Y-41510126D01*
X81765588Y-41510126D01*
X82333424Y-41533442D01*
X82456742Y-41408325D01*
X82309444Y-41110939D01*
X82059552Y-40892560D01*
X81923709Y-40829644D01*
X81788903Y-40942290D01*
X81765588Y-41510126D01*
X66169964Y-41510126D01*
X66023322Y-41341749D01*
X80835316Y-41341749D01*
X80947962Y-41476555D01*
X81515798Y-41499870D01*
X81539114Y-40932034D01*
X81413997Y-40808716D01*
X81116611Y-40956014D01*
X80898232Y-41205906D01*
X80835316Y-41341749D01*
X66023322Y-41341749D01*
X65072547Y-40250051D01*
X65004890Y-40196637D01*
X64916036Y-40170846D01*
X64824149Y-40181655D01*
X64743706Y-40227362D01*
X62481400Y-42197634D01*
X62427986Y-42265291D01*
X62402195Y-42354145D01*
X61510005Y-42354145D01*
X61420631Y-42207896D01*
X61152386Y-42012501D01*
X61011505Y-41961860D01*
X60887203Y-42085999D01*
X60623053Y-42085999D01*
X60501942Y-41986144D01*
X60218766Y-42159195D01*
X60023371Y-42427440D01*
X59972730Y-42568321D01*
X58790960Y-42568321D01*
X57589194Y-41474580D01*
X55987313Y-39645270D01*
X54900869Y-38171354D01*
X55440343Y-38171354D01*
X55554572Y-38482941D01*
X55779346Y-38727096D01*
X55907577Y-38804353D01*
X55997869Y-38744213D01*
X56300998Y-38744213D01*
X56412026Y-38880355D01*
X56723613Y-38766126D01*
X56967768Y-38541352D01*
X57045025Y-38413121D01*
X56947640Y-38266910D01*
X56385667Y-38182241D01*
X56300998Y-38744213D01*
X55997869Y-38744213D01*
X56053788Y-38706968D01*
X56138457Y-38144995D01*
X55576485Y-38060326D01*
X55440343Y-38171354D01*
X54900869Y-38171354D01*
X54726672Y-37935031D01*
X56422913Y-37935031D01*
X56984885Y-38019700D01*
X57121027Y-37908672D01*
X57006798Y-37597085D01*
X56782024Y-37352930D01*
X56653793Y-37275673D01*
X56507582Y-37373058D01*
X56422913Y-37935031D01*
X54726672Y-37935031D01*
X54572924Y-37726450D01*
X54537999Y-37666905D01*
X55516345Y-37666905D01*
X55613730Y-37813116D01*
X56175703Y-37897785D01*
X56260372Y-37335813D01*
X56149344Y-37199671D01*
X55837757Y-37313900D01*
X55593602Y-37538674D01*
X55516345Y-37666905D01*
X54537999Y-37666905D01*
X54130997Y-36972999D01*
X85208221Y-36972999D01*
X85408211Y-37237837D01*
X85694327Y-37405981D01*
X85839495Y-37442561D01*
X85951023Y-37306830D01*
X85868425Y-36744549D01*
X85306144Y-36827147D01*
X85208221Y-36972999D01*
X54130997Y-36972999D01*
X53975691Y-36708214D01*
X86115770Y-36708214D01*
X86198368Y-37270495D01*
X86344220Y-37368418D01*
X86609058Y-37168428D01*
X86777202Y-36882312D01*
X86813782Y-36737144D01*
X86678051Y-36625616D01*
X86115770Y-36708214D01*
X53975691Y-36708214D01*
X53834956Y-36468274D01*
X85134078Y-36468274D01*
X85269809Y-36579802D01*
X85832090Y-36497204D01*
X85749492Y-35934923D01*
X85695373Y-35898588D01*
X85996837Y-35898588D01*
X86079435Y-36460869D01*
X86641716Y-36378271D01*
X86739639Y-36232419D01*
X86539649Y-35967581D01*
X86253533Y-35799437D01*
X86108365Y-35762857D01*
X85996837Y-35898588D01*
X85695373Y-35898588D01*
X85603640Y-35837000D01*
X85338802Y-36036990D01*
X85170658Y-36323106D01*
X85134078Y-36468274D01*
X53834956Y-36468274D01*
X53368352Y-35672753D01*
X52536234Y-33791819D01*
X56252507Y-33791819D01*
X56329706Y-33983395D01*
X56844940Y-34202651D01*
X57058791Y-34293654D01*
X57291189Y-34295894D01*
X57506755Y-34209028D01*
X57552449Y-34164205D01*
X58055744Y-34164205D01*
X58071347Y-34255401D01*
X58121200Y-34333342D01*
X58197449Y-34385747D01*
X60037748Y-35168880D01*
X60121940Y-35187384D01*
X60213136Y-35171781D01*
X60291076Y-35121928D01*
X60343481Y-35045678D01*
X60633240Y-34364767D01*
X60651744Y-34280577D01*
X60636141Y-34189381D01*
X60586288Y-34111440D01*
X60510039Y-34059035D01*
X58669740Y-33275902D01*
X58585548Y-33257398D01*
X58494352Y-33273001D01*
X58416412Y-33322854D01*
X58364007Y-33399104D01*
X58074248Y-34080015D01*
X58055744Y-34164205D01*
X57552449Y-34164205D01*
X57672668Y-34046280D01*
X57740157Y-33887688D01*
X57662957Y-33696112D01*
X56503246Y-33202601D01*
X56252507Y-33791819D01*
X52536234Y-33791819D01*
X52423554Y-33537117D01*
X52341004Y-33228217D01*
X53162557Y-33228217D01*
X53216495Y-33395407D01*
X53548290Y-33402267D01*
X53857454Y-33281632D01*
X53976041Y-33190259D01*
X53942718Y-33038040D01*
X54755026Y-33038040D01*
X54841894Y-33253605D01*
X55004641Y-33419519D01*
X55218492Y-33510522D01*
X55733725Y-33729778D01*
X55925301Y-33652578D01*
X56176041Y-33063360D01*
X55734341Y-32875396D01*
X56642487Y-32875396D01*
X57802198Y-33368907D01*
X57993774Y-33291707D01*
X58061263Y-33133115D01*
X58062710Y-32982892D01*
X58169958Y-32877690D01*
X58208381Y-32787399D01*
X58563672Y-32938593D01*
X58549117Y-33004817D01*
X58564720Y-33096013D01*
X58614573Y-33173953D01*
X58690823Y-33226358D01*
X60531123Y-34009490D01*
X60615314Y-34027994D01*
X60706510Y-34012391D01*
X60741516Y-33990000D01*
X68793800Y-33990000D01*
X68793800Y-34160000D01*
X68793969Y-34165069D01*
X68803969Y-34315069D01*
X68806622Y-34330546D01*
X68876622Y-34580546D01*
X68885210Y-34600108D01*
X69015210Y-34810108D01*
X69027594Y-34825318D01*
X69217594Y-35005318D01*
X69233874Y-35017092D01*
X69363874Y-35087092D01*
X69400000Y-35096200D01*
X69540000Y-35096200D01*
X69554944Y-35094720D01*
X69604944Y-35084720D01*
X69623133Y-35078620D01*
X69647219Y-35060323D01*
X69662290Y-35034097D01*
X69682290Y-34974097D01*
X69685434Y-34939224D01*
X69675434Y-34869224D01*
X69663178Y-34837397D01*
X69641626Y-34816174D01*
X69420966Y-34672265D01*
X69217650Y-34431982D01*
X69164842Y-34273560D01*
X69156200Y-34195779D01*
X69156200Y-34064221D01*
X69173897Y-33904944D01*
X69462136Y-33424547D01*
X69738103Y-33099300D01*
X69754174Y-33067453D01*
X69794174Y-32897453D01*
X69796114Y-32876376D01*
X69786114Y-32666376D01*
X69781922Y-32644827D01*
X69718353Y-32463199D01*
X70033867Y-32463199D01*
X70083820Y-33652086D01*
X70093800Y-34420528D01*
X70093800Y-34530000D01*
X70095280Y-34544944D01*
X70105280Y-34594944D01*
X70117388Y-34623430D01*
X70139217Y-34644368D01*
X70167473Y-34655163D01*
X70227473Y-34665163D01*
X70240000Y-34666200D01*
X70310000Y-34666200D01*
X70322527Y-34665163D01*
X70382527Y-34655163D01*
X70413430Y-34642612D01*
X70434368Y-34620783D01*
X70445163Y-34592527D01*
X70455163Y-34532527D01*
X70456031Y-34514931D01*
X70416145Y-33916641D01*
X70408100Y-33546556D01*
X70560549Y-33565612D01*
X70573624Y-33566114D01*
X70708835Y-33559675D01*
X70733962Y-33944959D01*
X70734536Y-33950565D01*
X70804536Y-34450565D01*
X70812999Y-34476295D01*
X70832398Y-34499502D01*
X70882398Y-34539502D01*
X70900354Y-34550197D01*
X70930000Y-34556200D01*
X71000000Y-34556200D01*
X71024097Y-34552290D01*
X71084097Y-34532290D01*
X71105947Y-34520789D01*
X71125977Y-34498124D01*
X71135612Y-34469451D01*
X71145612Y-34389451D01*
X71145914Y-34373399D01*
X71025914Y-32993399D01*
X71025509Y-32989761D01*
X70993019Y-32750144D01*
X71104440Y-32750144D01*
X71105491Y-32775966D01*
X71135491Y-32915966D01*
X71154161Y-32951850D01*
X71414161Y-33231850D01*
X71435922Y-33248155D01*
X71638357Y-33349373D01*
X71674178Y-33707582D01*
X71678652Y-33726756D01*
X71701478Y-33787626D01*
X71674837Y-33947473D01*
X71673806Y-33960929D01*
X71683806Y-34780929D01*
X71684837Y-34792527D01*
X71694837Y-34852527D01*
X71707388Y-34883430D01*
X71729217Y-34904368D01*
X71757473Y-34915163D01*
X71817473Y-34925163D01*
X71830000Y-34926200D01*
X71930000Y-34926200D01*
X71954630Y-34922110D01*
X71980745Y-34906846D01*
X71998863Y-34882625D01*
X72006130Y-34853263D01*
X72036019Y-34155848D01*
X72065734Y-33888415D01*
X72064852Y-33865729D01*
X72053402Y-33837732D01*
X72047141Y-33828340D01*
X72054230Y-33820999D01*
X72065121Y-33792780D01*
X72064174Y-33762547D01*
X72026200Y-33601158D01*
X72026200Y-33090000D01*
X72024720Y-33075056D01*
X72016200Y-33032456D01*
X72016200Y-32990000D01*
X72010989Y-32962305D01*
X71994621Y-32936868D01*
X71979109Y-32926269D01*
X71990323Y-32916558D01*
X72003684Y-32889421D01*
X72005434Y-32859224D01*
X71965434Y-32579224D01*
X71953402Y-32547732D01*
X71793402Y-32307732D01*
X71772544Y-32288824D01*
X72123809Y-32288824D01*
X72129354Y-32318559D01*
X72318337Y-32786044D01*
X72534836Y-33455220D01*
X72553891Y-33674363D01*
X72573829Y-34392116D01*
X72574732Y-34401884D01*
X72634732Y-34781884D01*
X72639011Y-34797695D01*
X72655379Y-34823132D01*
X72680354Y-34840197D01*
X72710000Y-34846200D01*
X72820000Y-34846200D01*
X72862268Y-34833402D01*
X72922268Y-34793402D01*
X72938047Y-34779366D01*
X72952680Y-34752893D01*
X72955860Y-34722813D01*
X72934665Y-34499087D01*
X73224344Y-34499087D01*
X73233840Y-34527806D01*
X73273840Y-34597806D01*
X73305922Y-34628155D01*
X73505922Y-34728155D01*
X73548903Y-34735678D01*
X73718903Y-34715678D01*
X73738673Y-34710599D01*
X73763882Y-34693882D01*
X73953882Y-34503882D01*
X73968444Y-34483494D01*
X73976083Y-34454227D01*
X73986055Y-34274724D01*
X74016015Y-33845303D01*
X74016200Y-33840000D01*
X74016200Y-33534073D01*
X74294031Y-33534073D01*
X74297710Y-33564097D01*
X74365948Y-33768810D01*
X74474972Y-34383311D01*
X74481845Y-34404078D01*
X74581845Y-34604078D01*
X74604938Y-34631448D01*
X74904938Y-34851448D01*
X74942023Y-34865781D01*
X75132023Y-34885781D01*
X75146328Y-34885937D01*
X75266328Y-34875937D01*
X75282164Y-34872905D01*
X75308782Y-34858538D01*
X75488782Y-34708538D01*
X75507682Y-34685008D01*
X75657682Y-34395008D01*
X75664509Y-34375966D01*
X75754509Y-33955966D01*
X75755434Y-33950776D01*
X75795434Y-33670776D01*
X75796200Y-33660000D01*
X75796200Y-33630000D01*
X75795434Y-33619224D01*
X75745434Y-33269224D01*
X75744083Y-33262165D01*
X75614083Y-32722165D01*
X75605820Y-32701605D01*
X75399633Y-32348140D01*
X76914236Y-32348140D01*
X77044236Y-33558140D01*
X77044623Y-33561167D01*
X77204623Y-34641167D01*
X77206485Y-34650050D01*
X77296485Y-34980050D01*
X77304165Y-34998370D01*
X77324280Y-35020960D01*
X77364280Y-35050960D01*
X77395056Y-35064720D01*
X77490399Y-35083789D01*
X77515903Y-35092290D01*
X77544794Y-35096049D01*
X77574004Y-35088192D01*
X77597855Y-35069590D01*
X77701042Y-34949205D01*
X77739961Y-35040017D01*
X77764214Y-35070910D01*
X77791519Y-35083925D01*
X77831519Y-35093925D01*
X77850000Y-35096200D01*
X77920000Y-35096200D01*
X77948300Y-35090750D01*
X77998300Y-35070750D01*
X78013016Y-35062897D01*
X78034098Y-35041206D01*
X78124098Y-34901206D01*
X78134782Y-34874631D01*
X78224782Y-34414631D01*
X78226078Y-34404306D01*
X78256078Y-33874306D01*
X78256197Y-33869326D01*
X78246747Y-32801385D01*
X78653813Y-32801385D01*
X78657478Y-33002932D01*
X78663800Y-33350670D01*
X78663800Y-33630000D01*
X78664413Y-33639649D01*
X78724413Y-34109649D01*
X78727126Y-34122267D01*
X78837126Y-34482267D01*
X78847447Y-34503515D01*
X79007447Y-34733515D01*
X79026302Y-34752425D01*
X79126302Y-34822425D01*
X79140354Y-34830197D01*
X79170000Y-34836200D01*
X79270000Y-34836200D01*
X79279451Y-34835612D01*
X79359451Y-34825612D01*
X79399221Y-34808170D01*
X79529221Y-34698170D01*
X79548155Y-34674078D01*
X79598155Y-34574078D01*
X79606176Y-34538099D01*
X79599435Y-34508612D01*
X79589258Y-34494488D01*
X79618298Y-34485876D01*
X79640910Y-34465786D01*
X79653925Y-34438481D01*
X79661273Y-34409087D01*
X79934344Y-34409087D01*
X79943840Y-34437806D01*
X79983840Y-34507806D01*
X80015922Y-34538155D01*
X80215922Y-34638155D01*
X80258415Y-34645734D01*
X80438415Y-34625734D01*
X80460570Y-34619799D01*
X80485318Y-34602406D01*
X80665318Y-34412406D01*
X80676252Y-34397645D01*
X80685678Y-34368903D01*
X80705678Y-34198903D01*
X80706121Y-34193460D01*
X80726121Y-33753460D01*
X80726200Y-33750000D01*
X80726200Y-33457286D01*
X81003848Y-33457286D01*
X81008792Y-33487127D01*
X81086269Y-33690504D01*
X81195010Y-34293523D01*
X81201202Y-34312761D01*
X81301202Y-34522761D01*
X81323946Y-34550708D01*
X81613946Y-34770708D01*
X81656195Y-34786105D01*
X81856195Y-34796105D01*
X81866899Y-34795887D01*
X81976899Y-34785887D01*
X82015202Y-34771345D01*
X82205202Y-34631345D01*
X82228622Y-34603128D01*
X82368622Y-34313128D01*
X82374219Y-34297260D01*
X82474219Y-33867260D01*
X82475734Y-33858415D01*
X82505734Y-33588415D01*
X82506200Y-33580000D01*
X82506200Y-33540000D01*
X82505678Y-33531097D01*
X82465678Y-33191097D01*
X82463761Y-33180877D01*
X82323761Y-32640877D01*
X82316611Y-32622994D01*
X82116611Y-32262994D01*
X82092268Y-32236598D01*
X81822268Y-32056598D01*
X81784753Y-32043948D01*
X81624753Y-32033948D01*
X81605056Y-32035280D01*
X81555056Y-32045280D01*
X81523035Y-32059994D01*
X81503389Y-32082994D01*
X81453389Y-32172994D01*
X81444770Y-32197879D01*
X81445981Y-32228103D01*
X81458856Y-32255474D01*
X81481365Y-32275679D01*
X81808202Y-32467936D01*
X81941337Y-32645450D01*
X82094588Y-33124360D01*
X82113800Y-33412534D01*
X82113800Y-33545889D01*
X82074804Y-33906604D01*
X81989118Y-34249347D01*
X81915529Y-34363819D01*
X81898893Y-34373800D01*
X81747913Y-34373800D01*
X81654377Y-34294654D01*
X81515708Y-33924870D01*
X81506200Y-33658652D01*
X81506200Y-33619923D01*
X81615839Y-33501850D01*
X81630197Y-33479646D01*
X81636200Y-33450000D01*
X81636200Y-33420000D01*
X81634720Y-33405056D01*
X81624720Y-33355056D01*
X81610006Y-33323035D01*
X81587006Y-33303389D01*
X81497006Y-33253389D01*
X81460000Y-33243800D01*
X81210000Y-33243800D01*
X81169090Y-33255713D01*
X81059090Y-33325713D01*
X81040649Y-33342210D01*
X81026732Y-33369066D01*
X81006732Y-33439066D01*
X81003848Y-33457286D01*
X80726200Y-33457286D01*
X80726200Y-33260000D01*
X80726194Y-33259082D01*
X80716194Y-32429082D01*
X80712290Y-32405903D01*
X80692290Y-32345903D01*
X80683980Y-32328612D01*
X80662837Y-32306981D01*
X80634944Y-32295280D01*
X80584944Y-32285280D01*
X80570000Y-32283800D01*
X80530000Y-32283800D01*
X80511599Y-32286055D01*
X80484280Y-32299040D01*
X80444280Y-32329040D01*
X80425420Y-32349555D01*
X80414772Y-32377866D01*
X80364772Y-32687866D01*
X80363800Y-32700000D01*
X80363800Y-32980000D01*
X80363804Y-32980762D01*
X80373768Y-33977114D01*
X80350052Y-34253800D01*
X80324747Y-34253800D01*
X80089451Y-34224388D01*
X80067795Y-34224784D01*
X80039494Y-34235458D01*
X80017575Y-34256302D01*
X79947575Y-34356302D01*
X79936769Y-34378937D01*
X79934344Y-34409087D01*
X79661273Y-34409087D01*
X79733925Y-34118481D01*
X79735947Y-34106200D01*
X79775947Y-33616200D01*
X79776131Y-33606760D01*
X79756131Y-33136760D01*
X79753550Y-33120080D01*
X79623550Y-32640080D01*
X79612959Y-32617074D01*
X79462959Y-32397074D01*
X79442268Y-32376598D01*
X79352268Y-32316598D01*
X79310000Y-32303800D01*
X79070000Y-32303800D01*
X79047271Y-32307269D01*
X78887271Y-32357269D01*
X78850774Y-32382055D01*
X78680774Y-32592055D01*
X78671789Y-32606033D01*
X78663948Y-32635247D01*
X78653948Y-32795247D01*
X78653813Y-32801385D01*
X78246747Y-32801385D01*
X78246197Y-32739326D01*
X78245707Y-32731348D01*
X78205707Y-32381348D01*
X78200989Y-32362305D01*
X78184621Y-32336868D01*
X78159646Y-32319803D01*
X78130000Y-32313800D01*
X78030000Y-32313800D01*
X78008845Y-32316795D01*
X77982031Y-32330793D01*
X77962776Y-32354120D01*
X77954113Y-32383101D01*
X77944762Y-32485961D01*
X77926732Y-32549066D01*
X77923922Y-32574306D01*
X77953859Y-33103190D01*
X77963800Y-33461072D01*
X77963800Y-33529131D01*
X77953900Y-33954832D01*
X77917932Y-34274046D01*
X77915840Y-34252601D01*
X77914720Y-34245056D01*
X77824720Y-33795056D01*
X77811537Y-33765060D01*
X77789205Y-33744659D01*
X77739205Y-33714659D01*
X77700000Y-33703800D01*
X77670000Y-33703800D01*
X77645903Y-33707710D01*
X77585903Y-33727710D01*
X77556606Y-33745636D01*
X77539662Y-33770692D01*
X77489662Y-33890692D01*
X77484709Y-33908264D01*
X77486075Y-33938481D01*
X77496075Y-33978481D01*
X77501845Y-33994078D01*
X77521427Y-34033242D01*
X77497851Y-34213991D01*
X77435835Y-33582552D01*
X77435471Y-33579484D01*
X77265471Y-32359484D01*
X77255341Y-32330795D01*
X77195341Y-32230795D01*
X77184621Y-32216868D01*
X77159646Y-32199803D01*
X77130000Y-32193800D01*
X77060000Y-32193800D01*
X77035903Y-32197710D01*
X76975903Y-32217710D01*
X76958612Y-32226020D01*
X76936981Y-32247163D01*
X76925280Y-32275056D01*
X76915280Y-32325056D01*
X76914236Y-32348140D01*
X75399633Y-32348140D01*
X75395820Y-32341605D01*
X75373374Y-32317349D01*
X75113374Y-32137349D01*
X75074753Y-32123948D01*
X74914753Y-32113948D01*
X74885903Y-32117710D01*
X74825903Y-32137710D01*
X74803035Y-32149994D01*
X74783389Y-32172994D01*
X74733389Y-32262994D01*
X74724624Y-32288826D01*
X74726215Y-32319032D01*
X74739433Y-32346239D01*
X74762194Y-32366160D01*
X75097368Y-32557688D01*
X75221350Y-32734805D01*
X75384233Y-33213873D01*
X75393800Y-33491321D01*
X75393800Y-33626992D01*
X75364614Y-33996684D01*
X75269461Y-34339233D01*
X75204851Y-34444226D01*
X75188893Y-34453800D01*
X75027913Y-34453800D01*
X74934816Y-34375026D01*
X74805727Y-34015421D01*
X74796200Y-33748652D01*
X74796200Y-33709923D01*
X74905839Y-33591850D01*
X74920197Y-33569646D01*
X74926200Y-33540000D01*
X74926200Y-33500000D01*
X74920750Y-33471700D01*
X74900750Y-33421700D01*
X74892344Y-33406186D01*
X74870386Y-33385383D01*
X74790386Y-33335383D01*
X74750000Y-33323800D01*
X74570000Y-33323800D01*
X74560549Y-33324388D01*
X74480549Y-33334388D01*
X74446302Y-33347575D01*
X74346302Y-33417575D01*
X74332781Y-33429677D01*
X74317710Y-33455903D01*
X74297710Y-33515903D01*
X74294031Y-33534073D01*
X74016200Y-33534073D01*
X74016200Y-33340000D01*
X74016194Y-33339082D01*
X74006194Y-32509082D01*
X74000750Y-32481700D01*
X73980750Y-32431700D01*
X73963596Y-32405834D01*
X73938300Y-32389250D01*
X73888300Y-32369250D01*
X73871736Y-32364709D01*
X73841519Y-32366075D01*
X73801519Y-32376075D01*
X73791700Y-32379250D01*
X73741700Y-32399250D01*
X73724295Y-32409029D01*
X73704174Y-32431615D01*
X73694427Y-32460249D01*
X73654427Y-32770249D01*
X73653800Y-32780000D01*
X73653800Y-33070000D01*
X73653804Y-33070762D01*
X73663767Y-34067024D01*
X73640228Y-34333800D01*
X73614554Y-34333800D01*
X73369079Y-34304343D01*
X73339511Y-34306606D01*
X73312571Y-34320360D01*
X73293104Y-34343511D01*
X73233104Y-34453511D01*
X73226769Y-34468937D01*
X73224344Y-34499087D01*
X72934665Y-34499087D01*
X72865943Y-33773689D01*
X72838485Y-33389279D01*
X72863882Y-33363882D01*
X72882559Y-33333274D01*
X73052559Y-32803274D01*
X73054420Y-32796372D01*
X73164420Y-32296372D01*
X73166200Y-32280000D01*
X73166200Y-32210000D01*
X73155470Y-32171011D01*
X73135143Y-32148611D01*
X73107702Y-32135885D01*
X73077473Y-32134837D01*
X73017473Y-32144837D01*
X72995922Y-32151845D01*
X72935922Y-32181845D01*
X72914682Y-32197594D01*
X72898652Y-32223244D01*
X72748652Y-32623244D01*
X72746580Y-32629606D01*
X72695433Y-32813734D01*
X72621019Y-32622382D01*
X72619137Y-32617961D01*
X72429137Y-32207961D01*
X72408782Y-32181462D01*
X72348782Y-32131462D01*
X72330981Y-32120383D01*
X72301455Y-32113814D01*
X72271700Y-32119250D01*
X72221700Y-32139250D01*
X72206186Y-32147656D01*
X72185383Y-32169614D01*
X72135383Y-32249614D01*
X72123809Y-32288824D01*
X71772544Y-32288824D01*
X71765859Y-32282765D01*
X71615859Y-32202765D01*
X71580000Y-32193800D01*
X71420000Y-32193800D01*
X71404032Y-32195492D01*
X71376302Y-32207575D01*
X71276302Y-32277575D01*
X71254055Y-32301821D01*
X71144055Y-32491821D01*
X71134440Y-32520144D01*
X71120805Y-32624675D01*
X71104440Y-32750144D01*
X70993019Y-32750144D01*
X70945509Y-32399761D01*
X70941134Y-32382680D01*
X70924901Y-32357157D01*
X70900017Y-32339961D01*
X70830017Y-32309961D01*
X70800000Y-32303800D01*
X70770000Y-32303800D01*
X70729982Y-32315154D01*
X70707906Y-32335832D01*
X70695615Y-32363470D01*
X70655615Y-32543470D01*
X70653828Y-32562059D01*
X70663828Y-32932059D01*
X70664293Y-32938652D01*
X70694596Y-33203800D01*
X70532367Y-33203800D01*
X70415444Y-33164826D01*
X70404175Y-33150739D01*
X70385976Y-32914156D01*
X70385560Y-32910144D01*
X70325560Y-32450144D01*
X70320989Y-32432305D01*
X70304621Y-32406868D01*
X70279646Y-32389803D01*
X70250000Y-32383800D01*
X70110000Y-32383800D01*
X70079349Y-32390236D01*
X70054622Y-32407658D01*
X70038621Y-32433327D01*
X70033867Y-32463199D01*
X69718353Y-32463199D01*
X69711922Y-32444827D01*
X69695065Y-32417329D01*
X69475065Y-32187329D01*
X69453967Y-32171789D01*
X69424753Y-32163948D01*
X69264753Y-32153948D01*
X69260000Y-32153800D01*
X69220000Y-32153800D01*
X69185922Y-32161845D01*
X69145922Y-32181845D01*
X69119040Y-32204280D01*
X69059040Y-32284280D01*
X69049803Y-32300354D01*
X69043800Y-32330000D01*
X69043800Y-32400000D01*
X69049011Y-32427695D01*
X69065379Y-32453132D01*
X69090354Y-32470197D01*
X69120000Y-32476200D01*
X69272799Y-32476200D01*
X69353726Y-32542414D01*
X69456753Y-32688368D01*
X69463123Y-32739328D01*
X69447043Y-32851885D01*
X69190518Y-33231922D01*
X68945073Y-33487185D01*
X68928753Y-33512975D01*
X68818753Y-33802975D01*
X68814388Y-33820549D01*
X68794388Y-33980549D01*
X68793800Y-33990000D01*
X60741516Y-33990000D01*
X60784450Y-33962538D01*
X60836855Y-33886288D01*
X61134445Y-33186974D01*
X61152949Y-33102783D01*
X61137346Y-33011587D01*
X61087493Y-32933647D01*
X61011243Y-32881242D01*
X59170943Y-32098110D01*
X59086752Y-32079606D01*
X58995556Y-32095209D01*
X58917616Y-32145062D01*
X58865211Y-32221312D01*
X58821387Y-32324296D01*
X58560208Y-32213152D01*
X58829320Y-31580760D01*
X58843550Y-31590540D01*
X58935560Y-31629695D01*
X58935564Y-31629697D01*
X59089157Y-31695058D01*
X59064910Y-31752036D01*
X59046406Y-31836227D01*
X59062009Y-31927423D01*
X59111862Y-32005363D01*
X59188112Y-32057768D01*
X61028412Y-32840900D01*
X61112603Y-32859404D01*
X61203799Y-32843801D01*
X61281739Y-32793948D01*
X61334144Y-32717698D01*
X61631734Y-32018384D01*
X61650238Y-31934193D01*
X61634635Y-31842997D01*
X61584782Y-31765057D01*
X61508532Y-31712652D01*
X59668232Y-30929520D01*
X59601725Y-30914903D01*
X59629130Y-30850503D01*
X59685402Y-30889178D01*
X61525702Y-31672310D01*
X61609893Y-31690814D01*
X61701089Y-31675211D01*
X61779029Y-31625358D01*
X61831434Y-31549108D01*
X61870195Y-31458021D01*
X87684333Y-31458021D01*
X87967561Y-31630986D01*
X88295421Y-31682397D01*
X88443884Y-31663149D01*
X88497819Y-31495959D01*
X88214633Y-31003224D01*
X87721898Y-31286409D01*
X87684333Y-31458021D01*
X61870195Y-31458021D01*
X62129024Y-30849794D01*
X62147528Y-30765603D01*
X62131925Y-30674407D01*
X62113067Y-30644924D01*
X62141599Y-30640042D01*
X62219540Y-30590189D01*
X62271945Y-30513940D01*
X62624355Y-29685805D01*
X62642859Y-29601613D01*
X62627256Y-29510417D01*
X62615776Y-29492469D01*
X62631057Y-29489855D01*
X62708998Y-29440002D01*
X62761403Y-29363753D01*
X62855205Y-29143327D01*
X79105431Y-29056241D01*
X80632444Y-30809589D01*
X80700101Y-30863003D01*
X80788955Y-30888794D01*
X80880842Y-30877985D01*
X80899719Y-30867259D01*
X87410887Y-30867259D01*
X87430135Y-31015722D01*
X87597325Y-31069657D01*
X87929669Y-30878651D01*
X88431386Y-30878651D01*
X88714571Y-31371386D01*
X88886183Y-31408951D01*
X89059148Y-31125723D01*
X89110559Y-30797863D01*
X89091311Y-30649400D01*
X88924121Y-30595465D01*
X88431386Y-30878651D01*
X87929669Y-30878651D01*
X88090060Y-30786471D01*
X87806875Y-30293736D01*
X87635263Y-30256171D01*
X87462298Y-30539399D01*
X87410887Y-30867259D01*
X80899719Y-30867259D01*
X80961285Y-30832278D01*
X81722687Y-30169163D01*
X88023627Y-30169163D01*
X88306813Y-30661898D01*
X88799548Y-30378713D01*
X88837113Y-30207101D01*
X88553885Y-30034136D01*
X88226025Y-29982725D01*
X88077562Y-30001973D01*
X88023627Y-30169163D01*
X81722687Y-30169163D01*
X83223592Y-28862006D01*
X83277006Y-28794349D01*
X83302797Y-28705495D01*
X83291988Y-28613608D01*
X83246281Y-28533165D01*
X81538712Y-26572499D01*
X81471055Y-26519085D01*
X81382201Y-26493294D01*
X81290314Y-26504103D01*
X81209871Y-26549810D01*
X79148829Y-28344798D01*
X70047369Y-28393573D01*
X70095369Y-28268302D01*
X69973848Y-28141440D01*
X69644106Y-28150273D01*
X69543025Y-28049192D01*
X69436379Y-28155838D01*
X69405737Y-28156659D01*
X69406515Y-28185702D01*
X69291575Y-28300642D01*
X69388039Y-28397106D01*
X69165637Y-28398298D01*
X69263293Y-28300642D01*
X69156647Y-28193996D01*
X69155826Y-28163354D01*
X69126783Y-28164132D01*
X69011843Y-28049192D01*
X68890576Y-28170459D01*
X68587715Y-28178572D01*
X68473159Y-28311759D01*
X68525597Y-28401728D01*
X63128762Y-28430650D01*
X63116714Y-28360230D01*
X63105234Y-28342282D01*
X63120515Y-28339667D01*
X63198456Y-28289814D01*
X63250861Y-28213565D01*
X63426086Y-27801800D01*
X68459499Y-27801800D01*
X68581020Y-27928662D01*
X69149131Y-27913443D01*
X69133913Y-27345332D01*
X69126130Y-27338637D01*
X69383823Y-27338637D01*
X69399042Y-27906748D01*
X69967153Y-27891530D01*
X70081709Y-27758343D01*
X69914596Y-27471624D01*
X69650480Y-27270681D01*
X69510685Y-27217116D01*
X69383823Y-27338637D01*
X69126130Y-27338637D01*
X69000726Y-27230776D01*
X68714007Y-27397889D01*
X68513064Y-27662005D01*
X68459499Y-27801800D01*
X63426086Y-27801800D01*
X63603271Y-27385430D01*
X63621775Y-27301238D01*
X63606172Y-27210042D01*
X63556318Y-27132101D01*
X63480069Y-27079697D01*
X62927979Y-26844758D01*
X62843788Y-26826254D01*
X62752593Y-26841857D01*
X62674652Y-26891710D01*
X62622247Y-26967959D01*
X62269837Y-27796094D01*
X62251333Y-27880286D01*
X62266936Y-27971482D01*
X62278416Y-27989430D01*
X62263135Y-27992045D01*
X62185194Y-28041898D01*
X62132789Y-28118147D01*
X61780379Y-28946282D01*
X61761875Y-29030474D01*
X61777478Y-29121670D01*
X61788958Y-29139618D01*
X61773677Y-29142232D01*
X61695736Y-29192085D01*
X61643331Y-29268334D01*
X61290921Y-30096469D01*
X61272417Y-30180661D01*
X61281884Y-30235993D01*
X60797238Y-30029754D01*
X60839316Y-30002840D01*
X60891721Y-29926591D01*
X61244131Y-29098456D01*
X61262635Y-29014264D01*
X61247032Y-28923068D01*
X61235552Y-28905120D01*
X61250833Y-28902505D01*
X61328774Y-28852652D01*
X61381179Y-28776403D01*
X61733589Y-27948268D01*
X61752093Y-27864076D01*
X61736490Y-27772880D01*
X61725010Y-27754932D01*
X61740291Y-27752318D01*
X61818232Y-27702465D01*
X61870637Y-27626216D01*
X62223047Y-26798081D01*
X62241551Y-26713889D01*
X62225948Y-26622693D01*
X62176094Y-26544752D01*
X62099845Y-26492348D01*
X61547755Y-26257409D01*
X61463564Y-26238905D01*
X61372369Y-26254508D01*
X61294428Y-26304361D01*
X61242023Y-26380610D01*
X61196241Y-26488195D01*
X60766603Y-26305364D01*
X60766595Y-26305362D01*
X60628580Y-26246630D01*
X60544388Y-26228125D01*
X60453192Y-26243728D01*
X60375252Y-26293581D01*
X60322847Y-26369830D01*
X59214400Y-28974591D01*
X59091904Y-28922463D01*
X58576671Y-28703207D01*
X58385095Y-28780407D01*
X58134355Y-29369625D01*
X58152758Y-29377456D01*
X58013517Y-29704661D01*
X57995114Y-29696830D01*
X57757089Y-30256171D01*
X57637066Y-30538216D01*
X57655469Y-30546047D01*
X57516228Y-30873252D01*
X57497825Y-30865421D01*
X57302694Y-31323964D01*
X57139777Y-31706806D01*
X57158180Y-31714637D01*
X57018939Y-32041842D01*
X57000536Y-32034011D01*
X56893228Y-32286178D01*
X56893227Y-32286178D01*
X56642487Y-32875396D01*
X55734341Y-32875396D01*
X55016330Y-32569849D01*
X54824754Y-32647049D01*
X54757265Y-32805641D01*
X54755026Y-33038040D01*
X53942718Y-33038040D01*
X53938472Y-33018649D01*
X53445730Y-32735475D01*
X53162557Y-33228217D01*
X52341004Y-33228217D01*
X52203442Y-32713468D01*
X52562183Y-32713468D01*
X52682818Y-33022632D01*
X52774191Y-33141219D01*
X52945801Y-33103650D01*
X53228975Y-32610908D01*
X53068562Y-32518720D01*
X53570297Y-32518720D01*
X54063039Y-32801893D01*
X54230229Y-32747955D01*
X54237089Y-32416160D01*
X54116454Y-32106996D01*
X54073361Y-32051068D01*
X55078371Y-32051068D01*
X55155571Y-32242644D01*
X56315282Y-32736155D01*
X56422591Y-32483988D01*
X56673331Y-31894770D01*
X55513620Y-31401259D01*
X55322044Y-31478459D01*
X55254555Y-31637051D01*
X55253108Y-31787274D01*
X55145860Y-31892476D01*
X55078371Y-32051068D01*
X54073361Y-32051068D01*
X54025081Y-31988409D01*
X53853471Y-32025978D01*
X53570297Y-32518720D01*
X53068562Y-32518720D01*
X52736233Y-32327735D01*
X52569043Y-32381673D01*
X52562183Y-32713468D01*
X52203442Y-32713468D01*
X51996571Y-31939369D01*
X52823231Y-31939369D01*
X52860800Y-32110979D01*
X53353542Y-32394153D01*
X53636715Y-31901411D01*
X53582777Y-31734221D01*
X53250982Y-31727361D01*
X52941818Y-31847996D01*
X52823231Y-31939369D01*
X51996571Y-31939369D01*
X51815424Y-31261528D01*
X51782258Y-30882478D01*
X55575661Y-30882478D01*
X55652861Y-31074054D01*
X56812572Y-31567565D01*
X57063311Y-30978347D01*
X57170620Y-30726180D01*
X56010909Y-30232669D01*
X55819333Y-30309869D01*
X55751844Y-30468461D01*
X55750397Y-30618685D01*
X55643150Y-30723886D01*
X55575661Y-30882478D01*
X51782258Y-30882478D01*
X51680006Y-29713888D01*
X56072950Y-29713888D01*
X56150150Y-29905464D01*
X57309861Y-30398975D01*
X57560600Y-29809757D01*
X57667909Y-29557589D01*
X56508198Y-29064078D01*
X56316622Y-29141278D01*
X56249133Y-29299870D01*
X56247686Y-29450095D01*
X56140439Y-29555296D01*
X56072950Y-29713888D01*
X51680006Y-29713888D01*
X51609804Y-28911592D01*
X51646070Y-28545297D01*
X56570239Y-28545297D01*
X56647439Y-28736873D01*
X57807150Y-29230384D01*
X58057889Y-28641166D01*
X57980690Y-28449590D01*
X57465456Y-28230334D01*
X57251605Y-28139331D01*
X57019207Y-28137091D01*
X56803641Y-28223957D01*
X56637728Y-28386705D01*
X56570239Y-28545297D01*
X51646070Y-28545297D01*
X51768856Y-27305159D01*
X52525015Y-27305159D01*
X52801881Y-27488135D01*
X53127693Y-27551231D01*
X53276750Y-27537301D01*
X53336624Y-27372145D01*
X53071229Y-26869604D01*
X52568688Y-27135000D01*
X52525015Y-27305159D01*
X51768856Y-27305159D01*
X51804477Y-26945395D01*
X51878734Y-26705002D01*
X52272856Y-26705002D01*
X52286786Y-26854059D01*
X52451942Y-26913933D01*
X52756946Y-26752858D01*
X53292295Y-26752858D01*
X53557691Y-27255399D01*
X53727850Y-27299072D01*
X53910826Y-27022206D01*
X53973922Y-26696394D01*
X53959992Y-26547337D01*
X53794836Y-26487463D01*
X53292295Y-26752858D01*
X52756946Y-26752858D01*
X52954483Y-26648538D01*
X52689087Y-26145997D01*
X52518928Y-26102324D01*
X52335952Y-26379190D01*
X52272856Y-26705002D01*
X51878734Y-26705002D01*
X52087474Y-26029251D01*
X52910154Y-26029251D01*
X53175549Y-26531792D01*
X53678090Y-26266396D01*
X53721763Y-26096237D01*
X53444897Y-25913261D01*
X53119085Y-25850165D01*
X52970028Y-25864095D01*
X52910154Y-26029251D01*
X52087474Y-26029251D01*
X52211230Y-25628617D01*
X87316452Y-25628617D01*
X87376410Y-25793743D01*
X87708236Y-25788581D01*
X88012827Y-25656828D01*
X88128027Y-25561221D01*
X88084268Y-25391083D01*
X87581593Y-25125942D01*
X87316452Y-25628617D01*
X52211230Y-25628617D01*
X52378119Y-25088355D01*
X53292399Y-23395963D01*
X53678070Y-22925632D01*
X66144607Y-22925632D01*
X66286117Y-23225816D01*
X66531730Y-23448995D01*
X66666329Y-23514531D01*
X66784500Y-23419612D01*
X67052836Y-23419612D01*
X67175540Y-23545331D01*
X67475724Y-23403821D01*
X67698903Y-23158208D01*
X67764439Y-23023609D01*
X67654426Y-22886646D01*
X67087148Y-22852334D01*
X67052836Y-23419612D01*
X66784500Y-23419612D01*
X66803292Y-23404518D01*
X66837604Y-22837240D01*
X66270326Y-22802928D01*
X66144607Y-22925632D01*
X53678070Y-22925632D01*
X54479295Y-21948530D01*
X55379716Y-21948530D01*
X55449054Y-22273072D01*
X55637311Y-22546374D01*
X55753422Y-22640874D01*
X55762383Y-22636582D01*
X56151390Y-22636582D01*
X56242197Y-22786967D01*
X56566739Y-22717629D01*
X56733456Y-22602790D01*
X67102242Y-22602790D01*
X67669520Y-22637102D01*
X67795239Y-22514398D01*
X67653729Y-22214214D01*
X67408116Y-21991035D01*
X67273517Y-21925499D01*
X67136554Y-22035512D01*
X67102242Y-22602790D01*
X56733456Y-22602790D01*
X56840041Y-22529372D01*
X56931969Y-22416421D01*
X66175407Y-22416421D01*
X66285420Y-22553384D01*
X66852698Y-22587696D01*
X66887010Y-22020418D01*
X66764306Y-21894699D01*
X66464122Y-22036209D01*
X66240943Y-22281822D01*
X66175407Y-22416421D01*
X56931969Y-22416421D01*
X56934541Y-22413261D01*
X56858655Y-22254822D01*
X56314142Y-22092070D01*
X56151390Y-22636582D01*
X55762383Y-22636582D01*
X55911861Y-22564988D01*
X56074613Y-22020475D01*
X55530101Y-21857723D01*
X55379716Y-21948530D01*
X54479295Y-21948530D01*
X54488024Y-21937885D01*
X54591950Y-21852541D01*
X56385737Y-21852541D01*
X56930249Y-22015293D01*
X57080634Y-21924486D01*
X57011296Y-21599944D01*
X56823039Y-21326642D01*
X56706928Y-21232142D01*
X56548489Y-21308028D01*
X56385737Y-21852541D01*
X54591950Y-21852541D01*
X55070262Y-21459755D01*
X55525809Y-21459755D01*
X55601695Y-21618194D01*
X56146208Y-21780946D01*
X56308960Y-21236434D01*
X56218153Y-21086049D01*
X55893611Y-21155387D01*
X55620309Y-21343644D01*
X55525809Y-21459755D01*
X55070262Y-21459755D01*
X55955827Y-20732536D01*
X56047576Y-20683214D01*
X61073668Y-20683214D01*
X61353179Y-20862123D01*
X61679879Y-20920449D01*
X61828716Y-20904342D01*
X61886170Y-20738328D01*
X61613457Y-20239721D01*
X61114849Y-20512434D01*
X61073668Y-20683214D01*
X56047576Y-20683214D01*
X57157021Y-20086807D01*
X60812763Y-20086807D01*
X60828870Y-20235644D01*
X60994884Y-20293098D01*
X61311810Y-20119755D01*
X61832793Y-20119755D01*
X62105506Y-20618363D01*
X62276286Y-20659544D01*
X62455195Y-20380033D01*
X62513521Y-20053333D01*
X62497414Y-19904496D01*
X62331400Y-19847042D01*
X61832793Y-20119755D01*
X61311810Y-20119755D01*
X61493491Y-20020385D01*
X61220778Y-19521777D01*
X61049998Y-19480596D01*
X60871089Y-19760107D01*
X60812763Y-20086807D01*
X57157021Y-20086807D01*
X57638082Y-19828202D01*
X59018429Y-19401812D01*
X61440114Y-19401812D01*
X61712827Y-19900419D01*
X62211435Y-19627706D01*
X62252616Y-19456926D01*
X61973105Y-19278017D01*
X61646405Y-19219691D01*
X61497568Y-19235798D01*
X61440114Y-19401812D01*
X59018429Y-19401812D01*
X59495395Y-19254477D01*
X61460700Y-19059893D01*
X62898128Y-19194953D01*
X64282151Y-19591770D01*
X65572122Y-20193110D01*
X66751169Y-20992134D01*
X67854979Y-21929885D01*
X68827402Y-23018998D01*
X70385430Y-25450316D01*
X70396477Y-25461795D01*
X70403931Y-25475876D01*
X70433864Y-25500643D01*
X70460809Y-25528641D01*
X70475412Y-25535020D01*
X70487684Y-25545174D01*
X70524814Y-25556600D01*
X70560424Y-25572156D01*
X70576353Y-25572461D01*
X70591580Y-25577147D01*
X70630261Y-25573494D01*
X70669108Y-25574238D01*
X70683942Y-25568424D01*
X70699803Y-25566926D01*
X70734143Y-25548748D01*
X70770316Y-25534570D01*
X70781795Y-25523523D01*
X70795876Y-25516069D01*
X70820643Y-25486136D01*
X70848641Y-25459191D01*
X70855020Y-25444588D01*
X70865174Y-25432316D01*
X71426372Y-24392449D01*
X72224530Y-24392449D01*
X72402914Y-24672295D01*
X72674813Y-24862574D01*
X72816627Y-24910537D01*
X72938556Y-24784066D01*
X72900754Y-24217010D01*
X72333698Y-24254811D01*
X72224530Y-24392449D01*
X71426372Y-24392449D01*
X71530027Y-24200381D01*
X73150201Y-24200381D01*
X73188002Y-24767437D01*
X73325640Y-24876605D01*
X73439347Y-24804124D01*
X86692667Y-24804124D01*
X86697829Y-25135950D01*
X86829582Y-25440541D01*
X86925189Y-25555741D01*
X87095327Y-25511982D01*
X87360468Y-25009307D01*
X87162368Y-24904817D01*
X87698228Y-24904817D01*
X88200903Y-25169958D01*
X88366029Y-25110000D01*
X88360867Y-24778174D01*
X88229114Y-24473583D01*
X88133507Y-24358383D01*
X87963369Y-24402142D01*
X87698228Y-24904817D01*
X87162368Y-24904817D01*
X86857793Y-24744166D01*
X86692667Y-24804124D01*
X73439347Y-24804124D01*
X73605486Y-24698221D01*
X73795765Y-24426322D01*
X73820596Y-24352903D01*
X86930669Y-24352903D01*
X86974428Y-24523041D01*
X87477103Y-24788182D01*
X87742244Y-24285507D01*
X87682286Y-24120381D01*
X87350460Y-24125543D01*
X87045869Y-24257296D01*
X86930669Y-24352903D01*
X73820596Y-24352903D01*
X73843728Y-24284508D01*
X73717257Y-24162579D01*
X73150201Y-24200381D01*
X71530027Y-24200381D01*
X71536869Y-24187705D01*
X71754203Y-23883436D01*
X72190598Y-23883436D01*
X72317069Y-24005365D01*
X72884125Y-23967563D01*
X72846324Y-23400507D01*
X72825359Y-23383878D01*
X73095770Y-23383878D01*
X73133572Y-23950934D01*
X73700628Y-23913133D01*
X73809796Y-23775495D01*
X73631412Y-23495649D01*
X73359513Y-23305370D01*
X73217699Y-23257407D01*
X73095770Y-23383878D01*
X72825359Y-23383878D01*
X72708686Y-23291339D01*
X72428840Y-23469723D01*
X72238561Y-23741622D01*
X72190598Y-23883436D01*
X71754203Y-23883436D01*
X72368718Y-23023116D01*
X73327322Y-21927570D01*
X73767037Y-21543818D01*
X82647206Y-21543818D01*
X82883270Y-21777075D01*
X83190629Y-21902237D01*
X83339552Y-21917518D01*
X83430359Y-21767132D01*
X83267602Y-21222621D01*
X82723091Y-21385378D01*
X82647206Y-21543818D01*
X73767037Y-21543818D01*
X74301514Y-21077365D01*
X77118580Y-21077365D01*
X77143187Y-21251308D01*
X77468941Y-21314706D01*
X77794159Y-21248616D01*
X77926604Y-21178828D01*
X77925381Y-21151025D01*
X83507130Y-21151025D01*
X83669887Y-21695536D01*
X83828327Y-21771421D01*
X84061584Y-21535357D01*
X84186746Y-21227998D01*
X84202027Y-21079075D01*
X84051641Y-20988268D01*
X83507130Y-21151025D01*
X77925381Y-21151025D01*
X77921157Y-21055043D01*
X82501109Y-21055043D01*
X82651495Y-21145850D01*
X83196006Y-20983093D01*
X83033249Y-20438582D01*
X82883764Y-20366986D01*
X83272777Y-20366986D01*
X83435534Y-20911497D01*
X83980045Y-20748740D01*
X84055930Y-20590300D01*
X83819866Y-20357043D01*
X83512507Y-20231881D01*
X83363584Y-20216600D01*
X83272777Y-20366986D01*
X82883764Y-20366986D01*
X82874809Y-20362697D01*
X82641552Y-20598761D01*
X82516390Y-20906120D01*
X82501109Y-21055043D01*
X77921157Y-21055043D01*
X77918881Y-21003324D01*
X77481709Y-20640194D01*
X77118580Y-21077365D01*
X74301514Y-21077365D01*
X74398790Y-20992470D01*
X75198766Y-20467686D01*
X76614887Y-20467686D01*
X76680977Y-20792904D01*
X76750765Y-20925349D01*
X76926269Y-20917626D01*
X77289399Y-20480454D01*
X77250188Y-20447884D01*
X77641449Y-20447884D01*
X78078620Y-20811013D01*
X78252563Y-20786406D01*
X78315961Y-20460652D01*
X78249871Y-20135434D01*
X78180083Y-20002989D01*
X78004579Y-20010712D01*
X77641449Y-20447884D01*
X77250188Y-20447884D01*
X76852228Y-20117325D01*
X76678285Y-20141932D01*
X76614887Y-20467686D01*
X75198766Y-20467686D01*
X75615637Y-20194219D01*
X76576781Y-19749510D01*
X77004244Y-19749510D01*
X77011967Y-19925014D01*
X77449139Y-20288144D01*
X77812268Y-19850973D01*
X77787661Y-19677030D01*
X77461907Y-19613632D01*
X77136689Y-19679722D01*
X77004244Y-19749510D01*
X76576781Y-19749510D01*
X76917703Y-19591770D01*
X78292129Y-19194929D01*
X79729301Y-19059893D01*
X81694605Y-19254477D01*
X81694605Y-19254477D01*
G37*
X81694605Y-19254477D02*
X83552244Y-19828304D01*
X85244029Y-20732534D01*
X86702115Y-21937885D01*
X87907466Y-23395971D01*
X88811796Y-25087943D01*
X89385522Y-26935534D01*
X89580201Y-28911528D01*
X89374576Y-31261528D01*
X88766443Y-33537123D01*
X87821650Y-35672750D01*
X86617308Y-37726054D01*
X85193994Y-39643572D01*
X83551396Y-41474178D01*
X80062985Y-44694250D01*
X79746135Y-44924686D01*
X79731246Y-44940808D01*
X79713000Y-44953000D01*
X79694713Y-44980368D01*
X79672385Y-45004546D01*
X79664800Y-45025136D01*
X79652607Y-45043384D01*
X79646186Y-45075666D01*
X79634809Y-45106549D01*
X79635681Y-45128478D01*
X79631400Y-45150000D01*
X79637820Y-45182277D01*
X79639128Y-45215167D01*
X79648326Y-45235094D01*
X79652607Y-45256616D01*
X79670892Y-45283981D01*
X79684686Y-45313865D01*
X79700808Y-45328754D01*
X79713000Y-45347000D01*
X79740368Y-45365287D01*
X79764546Y-45387615D01*
X79785136Y-45395200D01*
X79803384Y-45407393D01*
X79835666Y-45413814D01*
X79866549Y-45425191D01*
X79888478Y-45424319D01*
X79910000Y-45428600D01*
X89723236Y-45428600D01*
X89662180Y-45576002D01*
X89662180Y-45868357D01*
X89808230Y-46014407D01*
X90378460Y-46014407D01*
X90346968Y-46130540D01*
X90377762Y-46370007D01*
X89808230Y-46370007D01*
X89662180Y-46516057D01*
X89662180Y-46808412D01*
X89751119Y-47023130D01*
X89915458Y-47187468D01*
X90130176Y-47276407D01*
X91922530Y-47276407D01*
X92068580Y-47130357D01*
X92068580Y-46538605D01*
X92145792Y-46253874D01*
X92112426Y-45994407D01*
X92424180Y-45994407D01*
X92424180Y-46014407D01*
X92444180Y-46014407D01*
X92444180Y-46370007D01*
X92424180Y-46370007D01*
X92424180Y-47130357D01*
X92570230Y-47276407D01*
X94281400Y-47276407D01*
X94281400Y-47466221D01*
X94246380Y-47459129D01*
X90246380Y-47459129D01*
X90161666Y-47475069D01*
X90083862Y-47525135D01*
X90031665Y-47601527D01*
X90013302Y-47692207D01*
X90013302Y-48692207D01*
X90029242Y-48776921D01*
X90079308Y-48854725D01*
X90155700Y-48906922D01*
X90246380Y-48925285D01*
X94246380Y-48925285D01*
X94281400Y-48918696D01*
X94281400Y-49108007D01*
X92570230Y-49108007D01*
X92424180Y-49254057D01*
X92424180Y-50014407D01*
X92444180Y-50014407D01*
X92444180Y-50370007D01*
X92424180Y-50370007D01*
X92424180Y-50390007D01*
X92108876Y-50390007D01*
X92145792Y-50253874D01*
X92100927Y-49904990D01*
X92068580Y-49826897D01*
X92068580Y-49254057D01*
X91922530Y-49108007D01*
X90130176Y-49108007D01*
X89915458Y-49196946D01*
X89751119Y-49361284D01*
X89662180Y-49576002D01*
X89662180Y-49868357D01*
X89808230Y-50014407D01*
X90378460Y-50014407D01*
X90346968Y-50130540D01*
X90377762Y-50370007D01*
X89808230Y-50370007D01*
X89662180Y-50516057D01*
X89662180Y-50808412D01*
X89688270Y-50871400D01*
X51578950Y-50871400D01*
X51605040Y-50808412D01*
X51605040Y-50516057D01*
X51458990Y-50370007D01*
X50888760Y-50370007D01*
X50920252Y-50253874D01*
X50889458Y-50014407D01*
X51458990Y-50014407D01*
X51605040Y-49868357D01*
X51605040Y-49576002D01*
X51516101Y-49361284D01*
X51351762Y-49196946D01*
X51137044Y-49108007D01*
X49344690Y-49108007D01*
X49198640Y-49254057D01*
X49198640Y-49845809D01*
X49121428Y-50130540D01*
X49154794Y-50390007D01*
X48843040Y-50390007D01*
X48843040Y-50370007D01*
X48823040Y-50370007D01*
X48823040Y-50014407D01*
X48843040Y-50014407D01*
X48843040Y-49254057D01*
X48696990Y-49108007D01*
X46908600Y-49108007D01*
X46908600Y-48892191D01*
X46930160Y-48906922D01*
X47020840Y-48925285D01*
X51020840Y-48925285D01*
X51105554Y-48909345D01*
X51183358Y-48859279D01*
X51235555Y-48782887D01*
X51253918Y-48692207D01*
X51253918Y-48483720D01*
X71298219Y-48483720D01*
X71447829Y-48779950D01*
X71699413Y-48996376D01*
X71835742Y-49058232D01*
X71959876Y-48952851D01*
X72219529Y-48952851D01*
X72345602Y-49075191D01*
X72641832Y-48925581D01*
X72858258Y-48673997D01*
X72920114Y-48537668D01*
X72806422Y-48403743D01*
X72238421Y-48384850D01*
X72219529Y-48952851D01*
X71959876Y-48952851D01*
X71969667Y-48944540D01*
X71988560Y-48376539D01*
X71420559Y-48357647D01*
X71298219Y-48483720D01*
X51253918Y-48483720D01*
X51253918Y-48134989D01*
X72246732Y-48134989D01*
X72814733Y-48153881D01*
X72937073Y-48027808D01*
X72787463Y-47731578D01*
X72535879Y-47515152D01*
X72399550Y-47453296D01*
X72265625Y-47566988D01*
X72246732Y-48134989D01*
X51253918Y-48134989D01*
X51253918Y-47973860D01*
X71315178Y-47973860D01*
X71428870Y-48107785D01*
X71996871Y-48126678D01*
X72015763Y-47558677D01*
X71889690Y-47436337D01*
X71593460Y-47585947D01*
X71377034Y-47837531D01*
X71315178Y-47973860D01*
X51253918Y-47973860D01*
X51253918Y-47692207D01*
X51237978Y-47607493D01*
X51187912Y-47529689D01*
X51111520Y-47477492D01*
X51020840Y-47459129D01*
X47020840Y-47459129D01*
X46936126Y-47475069D01*
X46908600Y-47492782D01*
X46908600Y-47276407D01*
X48696990Y-47276407D01*
X48843040Y-47130357D01*
X48843040Y-46370007D01*
X48823040Y-46370007D01*
X48823040Y-46014407D01*
X48843040Y-46014407D01*
X48843040Y-45994407D01*
X49158344Y-45994407D01*
X49121428Y-46130540D01*
X49166293Y-46479424D01*
X49198640Y-46557517D01*
X49198640Y-47130357D01*
X49344690Y-47276407D01*
X51137044Y-47276407D01*
X51351762Y-47187468D01*
X51398121Y-47141109D01*
X65243624Y-47141109D01*
X65446816Y-47403499D01*
X65734954Y-47568155D01*
X65880555Y-47602969D01*
X65990426Y-47465893D01*
X65901004Y-46904657D01*
X65339768Y-46994079D01*
X65243624Y-47141109D01*
X51398121Y-47141109D01*
X51516101Y-47023130D01*
X51581467Y-46865321D01*
X66147890Y-46865321D01*
X66237312Y-47426557D01*
X66384342Y-47522701D01*
X66646732Y-47319509D01*
X66811388Y-47031371D01*
X66846202Y-46885770D01*
X66709126Y-46775899D01*
X66147890Y-46865321D01*
X51581467Y-46865321D01*
X51605040Y-46808412D01*
X51605040Y-46637322D01*
X65163356Y-46637322D01*
X65300432Y-46747193D01*
X65861668Y-46657771D01*
X65772246Y-46096535D01*
X65712091Y-46057199D01*
X66019132Y-46057199D01*
X66108554Y-46618435D01*
X66669790Y-46529013D01*
X66765934Y-46381983D01*
X66562742Y-46119593D01*
X66274604Y-45954937D01*
X66247834Y-45948536D01*
X75647388Y-45948536D01*
X75759340Y-46260949D01*
X75982326Y-46506737D01*
X76109990Y-46584928D01*
X76197343Y-46527661D01*
X76503840Y-46527661D01*
X76613871Y-46664609D01*
X76926284Y-46552657D01*
X77172072Y-46329671D01*
X77250263Y-46202007D01*
X77153947Y-46055089D01*
X76592608Y-45966321D01*
X76503840Y-46527661D01*
X76197343Y-46527661D01*
X76256908Y-46488612D01*
X76345676Y-45927273D01*
X75784336Y-45838505D01*
X75647388Y-45948536D01*
X66247834Y-45948536D01*
X66129003Y-45920123D01*
X66019132Y-46057199D01*
X65712091Y-46057199D01*
X65625216Y-46000391D01*
X65362826Y-46203583D01*
X65198170Y-46491721D01*
X65163356Y-46637322D01*
X51605040Y-46637322D01*
X51605040Y-46516057D01*
X51458990Y-46370007D01*
X50888760Y-46370007D01*
X50920252Y-46253874D01*
X50889458Y-46014407D01*
X51458990Y-46014407D01*
X51605040Y-45868357D01*
X51605040Y-45719389D01*
X76631656Y-45719389D01*
X77192996Y-45808157D01*
X77329944Y-45698126D01*
X77217992Y-45385713D01*
X76995006Y-45139925D01*
X76867342Y-45061734D01*
X76720424Y-45158050D01*
X76631656Y-45719389D01*
X51605040Y-45719389D01*
X51605040Y-45576002D01*
X51550635Y-45444655D01*
X75727069Y-45444655D01*
X75823385Y-45591573D01*
X76384724Y-45680341D01*
X76473492Y-45119001D01*
X76363461Y-44982053D01*
X76051048Y-45094005D01*
X75805260Y-45316991D01*
X75727069Y-45444655D01*
X51550635Y-45444655D01*
X51543984Y-45428600D01*
X61290000Y-45428600D01*
X61313443Y-45423937D01*
X61337336Y-45424549D01*
X61366240Y-45413435D01*
X61396616Y-45407393D01*
X61416490Y-45394114D01*
X61438798Y-45385536D01*
X61461250Y-45364206D01*
X61487000Y-45347000D01*
X61500280Y-45327126D01*
X61517607Y-45310664D01*
X61530186Y-45282368D01*
X61547393Y-45256616D01*
X61552056Y-45233171D01*
X61561765Y-45211332D01*
X61562558Y-45180375D01*
X61568600Y-45150000D01*
X61563937Y-45126557D01*
X61564549Y-45102664D01*
X61553435Y-45073760D01*
X61547393Y-45043384D01*
X61534114Y-45023510D01*
X61525536Y-45001202D01*
X61504206Y-44978750D01*
X61487000Y-44953000D01*
X61467126Y-44939720D01*
X61450664Y-44922393D01*
X61124765Y-44692346D01*
X59350851Y-43077884D01*
X59997014Y-43077884D01*
X60170065Y-43361060D01*
X60438310Y-43556455D01*
X60579191Y-43607096D01*
X60703493Y-43482957D01*
X60676440Y-42915287D01*
X60108769Y-42942340D01*
X59997014Y-43077884D01*
X59350851Y-43077884D01*
X59159119Y-42903386D01*
X60926157Y-42903386D01*
X60953210Y-43471057D01*
X61088754Y-43582812D01*
X61371930Y-43409761D01*
X61567325Y-43141516D01*
X61617966Y-43000635D01*
X61493827Y-42876333D01*
X60926157Y-42903386D01*
X59159119Y-42903386D01*
X58790960Y-42568321D01*
X59972730Y-42568321D01*
X60096869Y-42692623D01*
X60664539Y-42665570D01*
X60637486Y-42097899D01*
X60623053Y-42085999D01*
X60887203Y-42085999D01*
X60914256Y-42653669D01*
X61481927Y-42626616D01*
X61593682Y-42491072D01*
X61510005Y-42354145D01*
X62402195Y-42354145D01*
X62413004Y-42446032D01*
X62458711Y-42526475D01*
X63346122Y-43545418D01*
X63244247Y-43587512D01*
X63109498Y-43722027D01*
X63036482Y-43897869D01*
X63036315Y-44088268D01*
X63109024Y-44264237D01*
X63243539Y-44398986D01*
X63419381Y-44472002D01*
X63609780Y-44472169D01*
X63785749Y-44399460D01*
X63920498Y-44264945D01*
X63937373Y-44224305D01*
X64823037Y-45241243D01*
X64890694Y-45294657D01*
X64979548Y-45320448D01*
X65071435Y-45309639D01*
X65151878Y-45263932D01*
X67414184Y-43293660D01*
X67467598Y-43226003D01*
X67493389Y-43137149D01*
X67482580Y-43045262D01*
X67436873Y-42964819D01*
X66467236Y-41851461D01*
X80814388Y-41851461D01*
X80961686Y-42148847D01*
X81211578Y-42367226D01*
X81347421Y-42430142D01*
X81469953Y-42327752D01*
X81732016Y-42327752D01*
X81857133Y-42451070D01*
X82154519Y-42303772D01*
X82372898Y-42053880D01*
X82435814Y-41918037D01*
X82323168Y-41783231D01*
X81755332Y-41759916D01*
X81732016Y-42327752D01*
X81469953Y-42327752D01*
X81482227Y-42317496D01*
X81505542Y-41749660D01*
X80937706Y-41726344D01*
X80814388Y-41851461D01*
X66467236Y-41851461D01*
X66169964Y-41510126D01*
X81765588Y-41510126D01*
X82333424Y-41533442D01*
X82456742Y-41408325D01*
X82309444Y-41110939D01*
X82059552Y-40892560D01*
X81923709Y-40829644D01*
X81788903Y-40942290D01*
X81765588Y-41510126D01*
X66169964Y-41510126D01*
X66023322Y-41341749D01*
X80835316Y-41341749D01*
X80947962Y-41476555D01*
X81515798Y-41499870D01*
X81539114Y-40932034D01*
X81413997Y-40808716D01*
X81116611Y-40956014D01*
X80898232Y-41205906D01*
X80835316Y-41341749D01*
X66023322Y-41341749D01*
X65072547Y-40250051D01*
X65004890Y-40196637D01*
X64916036Y-40170846D01*
X64824149Y-40181655D01*
X64743706Y-40227362D01*
X62481400Y-42197634D01*
X62427986Y-42265291D01*
X62402195Y-42354145D01*
X61510005Y-42354145D01*
X61420631Y-42207896D01*
X61152386Y-42012501D01*
X61011505Y-41961860D01*
X60887203Y-42085999D01*
X60623053Y-42085999D01*
X60501942Y-41986144D01*
X60218766Y-42159195D01*
X60023371Y-42427440D01*
X59972730Y-42568321D01*
X58790960Y-42568321D01*
X57589194Y-41474580D01*
X55987313Y-39645270D01*
X54900869Y-38171354D01*
X55440343Y-38171354D01*
X55554572Y-38482941D01*
X55779346Y-38727096D01*
X55907577Y-38804353D01*
X55997869Y-38744213D01*
X56300998Y-38744213D01*
X56412026Y-38880355D01*
X56723613Y-38766126D01*
X56967768Y-38541352D01*
X57045025Y-38413121D01*
X56947640Y-38266910D01*
X56385667Y-38182241D01*
X56300998Y-38744213D01*
X55997869Y-38744213D01*
X56053788Y-38706968D01*
X56138457Y-38144995D01*
X55576485Y-38060326D01*
X55440343Y-38171354D01*
X54900869Y-38171354D01*
X54726672Y-37935031D01*
X56422913Y-37935031D01*
X56984885Y-38019700D01*
X57121027Y-37908672D01*
X57006798Y-37597085D01*
X56782024Y-37352930D01*
X56653793Y-37275673D01*
X56507582Y-37373058D01*
X56422913Y-37935031D01*
X54726672Y-37935031D01*
X54572924Y-37726450D01*
X54537999Y-37666905D01*
X55516345Y-37666905D01*
X55613730Y-37813116D01*
X56175703Y-37897785D01*
X56260372Y-37335813D01*
X56149344Y-37199671D01*
X55837757Y-37313900D01*
X55593602Y-37538674D01*
X55516345Y-37666905D01*
X54537999Y-37666905D01*
X54130997Y-36972999D01*
X85208221Y-36972999D01*
X85408211Y-37237837D01*
X85694327Y-37405981D01*
X85839495Y-37442561D01*
X85951023Y-37306830D01*
X85868425Y-36744549D01*
X85306144Y-36827147D01*
X85208221Y-36972999D01*
X54130997Y-36972999D01*
X53975691Y-36708214D01*
X86115770Y-36708214D01*
X86198368Y-37270495D01*
X86344220Y-37368418D01*
X86609058Y-37168428D01*
X86777202Y-36882312D01*
X86813782Y-36737144D01*
X86678051Y-36625616D01*
X86115770Y-36708214D01*
X53975691Y-36708214D01*
X53834956Y-36468274D01*
X85134078Y-36468274D01*
X85269809Y-36579802D01*
X85832090Y-36497204D01*
X85749492Y-35934923D01*
X85695373Y-35898588D01*
X85996837Y-35898588D01*
X86079435Y-36460869D01*
X86641716Y-36378271D01*
X86739639Y-36232419D01*
X86539649Y-35967581D01*
X86253533Y-35799437D01*
X86108365Y-35762857D01*
X85996837Y-35898588D01*
X85695373Y-35898588D01*
X85603640Y-35837000D01*
X85338802Y-36036990D01*
X85170658Y-36323106D01*
X85134078Y-36468274D01*
X53834956Y-36468274D01*
X53368352Y-35672753D01*
X52536234Y-33791819D01*
X56252507Y-33791819D01*
X56329706Y-33983395D01*
X56844940Y-34202651D01*
X57058791Y-34293654D01*
X57291189Y-34295894D01*
X57506755Y-34209028D01*
X57552449Y-34164205D01*
X58055744Y-34164205D01*
X58071347Y-34255401D01*
X58121200Y-34333342D01*
X58197449Y-34385747D01*
X60037748Y-35168880D01*
X60121940Y-35187384D01*
X60213136Y-35171781D01*
X60291076Y-35121928D01*
X60343481Y-35045678D01*
X60633240Y-34364767D01*
X60651744Y-34280577D01*
X60636141Y-34189381D01*
X60586288Y-34111440D01*
X60510039Y-34059035D01*
X58669740Y-33275902D01*
X58585548Y-33257398D01*
X58494352Y-33273001D01*
X58416412Y-33322854D01*
X58364007Y-33399104D01*
X58074248Y-34080015D01*
X58055744Y-34164205D01*
X57552449Y-34164205D01*
X57672668Y-34046280D01*
X57740157Y-33887688D01*
X57662957Y-33696112D01*
X56503246Y-33202601D01*
X56252507Y-33791819D01*
X52536234Y-33791819D01*
X52423554Y-33537117D01*
X52341004Y-33228217D01*
X53162557Y-33228217D01*
X53216495Y-33395407D01*
X53548290Y-33402267D01*
X53857454Y-33281632D01*
X53976041Y-33190259D01*
X53942718Y-33038040D01*
X54755026Y-33038040D01*
X54841894Y-33253605D01*
X55004641Y-33419519D01*
X55218492Y-33510522D01*
X55733725Y-33729778D01*
X55925301Y-33652578D01*
X56176041Y-33063360D01*
X55734341Y-32875396D01*
X56642487Y-32875396D01*
X57802198Y-33368907D01*
X57993774Y-33291707D01*
X58061263Y-33133115D01*
X58062710Y-32982892D01*
X58169958Y-32877690D01*
X58208381Y-32787399D01*
X58563672Y-32938593D01*
X58549117Y-33004817D01*
X58564720Y-33096013D01*
X58614573Y-33173953D01*
X58690823Y-33226358D01*
X60531123Y-34009490D01*
X60615314Y-34027994D01*
X60706510Y-34012391D01*
X60741516Y-33990000D01*
X68793800Y-33990000D01*
X68793800Y-34160000D01*
X68793969Y-34165069D01*
X68803969Y-34315069D01*
X68806622Y-34330546D01*
X68876622Y-34580546D01*
X68885210Y-34600108D01*
X69015210Y-34810108D01*
X69027594Y-34825318D01*
X69217594Y-35005318D01*
X69233874Y-35017092D01*
X69363874Y-35087092D01*
X69400000Y-35096200D01*
X69540000Y-35096200D01*
X69554944Y-35094720D01*
X69604944Y-35084720D01*
X69623133Y-35078620D01*
X69647219Y-35060323D01*
X69662290Y-35034097D01*
X69682290Y-34974097D01*
X69685434Y-34939224D01*
X69675434Y-34869224D01*
X69663178Y-34837397D01*
X69641626Y-34816174D01*
X69420966Y-34672265D01*
X69217650Y-34431982D01*
X69164842Y-34273560D01*
X69156200Y-34195779D01*
X69156200Y-34064221D01*
X69173897Y-33904944D01*
X69462136Y-33424547D01*
X69738103Y-33099300D01*
X69754174Y-33067453D01*
X69794174Y-32897453D01*
X69796114Y-32876376D01*
X69786114Y-32666376D01*
X69781922Y-32644827D01*
X69718353Y-32463199D01*
X70033867Y-32463199D01*
X70083820Y-33652086D01*
X70093800Y-34420528D01*
X70093800Y-34530000D01*
X70095280Y-34544944D01*
X70105280Y-34594944D01*
X70117388Y-34623430D01*
X70139217Y-34644368D01*
X70167473Y-34655163D01*
X70227473Y-34665163D01*
X70240000Y-34666200D01*
X70310000Y-34666200D01*
X70322527Y-34665163D01*
X70382527Y-34655163D01*
X70413430Y-34642612D01*
X70434368Y-34620783D01*
X70445163Y-34592527D01*
X70455163Y-34532527D01*
X70456031Y-34514931D01*
X70416145Y-33916641D01*
X70408100Y-33546556D01*
X70560549Y-33565612D01*
X70573624Y-33566114D01*
X70708835Y-33559675D01*
X70733962Y-33944959D01*
X70734536Y-33950565D01*
X70804536Y-34450565D01*
X70812999Y-34476295D01*
X70832398Y-34499502D01*
X70882398Y-34539502D01*
X70900354Y-34550197D01*
X70930000Y-34556200D01*
X71000000Y-34556200D01*
X71024097Y-34552290D01*
X71084097Y-34532290D01*
X71105947Y-34520789D01*
X71125977Y-34498124D01*
X71135612Y-34469451D01*
X71145612Y-34389451D01*
X71145914Y-34373399D01*
X71025914Y-32993399D01*
X71025509Y-32989761D01*
X70993019Y-32750144D01*
X71104440Y-32750144D01*
X71105491Y-32775966D01*
X71135491Y-32915966D01*
X71154161Y-32951850D01*
X71414161Y-33231850D01*
X71435922Y-33248155D01*
X71638357Y-33349373D01*
X71674178Y-33707582D01*
X71678652Y-33726756D01*
X71701478Y-33787626D01*
X71674837Y-33947473D01*
X71673806Y-33960929D01*
X71683806Y-34780929D01*
X71684837Y-34792527D01*
X71694837Y-34852527D01*
X71707388Y-34883430D01*
X71729217Y-34904368D01*
X71757473Y-34915163D01*
X71817473Y-34925163D01*
X71830000Y-34926200D01*
X71930000Y-34926200D01*
X71954630Y-34922110D01*
X71980745Y-34906846D01*
X71998863Y-34882625D01*
X72006130Y-34853263D01*
X72036019Y-34155848D01*
X72065734Y-33888415D01*
X72064852Y-33865729D01*
X72053402Y-33837732D01*
X72047141Y-33828340D01*
X72054230Y-33820999D01*
X72065121Y-33792780D01*
X72064174Y-33762547D01*
X72026200Y-33601158D01*
X72026200Y-33090000D01*
X72024720Y-33075056D01*
X72016200Y-33032456D01*
X72016200Y-32990000D01*
X72010989Y-32962305D01*
X71994621Y-32936868D01*
X71979109Y-32926269D01*
X71990323Y-32916558D01*
X72003684Y-32889421D01*
X72005434Y-32859224D01*
X71965434Y-32579224D01*
X71953402Y-32547732D01*
X71793402Y-32307732D01*
X71772544Y-32288824D01*
X72123809Y-32288824D01*
X72129354Y-32318559D01*
X72318337Y-32786044D01*
X72534836Y-33455220D01*
X72553891Y-33674363D01*
X72573829Y-34392116D01*
X72574732Y-34401884D01*
X72634732Y-34781884D01*
X72639011Y-34797695D01*
X72655379Y-34823132D01*
X72680354Y-34840197D01*
X72710000Y-34846200D01*
X72820000Y-34846200D01*
X72862268Y-34833402D01*
X72922268Y-34793402D01*
X72938047Y-34779366D01*
X72952680Y-34752893D01*
X72955860Y-34722813D01*
X72934665Y-34499087D01*
X73224344Y-34499087D01*
X73233840Y-34527806D01*
X73273840Y-34597806D01*
X73305922Y-34628155D01*
X73505922Y-34728155D01*
X73548903Y-34735678D01*
X73718903Y-34715678D01*
X73738673Y-34710599D01*
X73763882Y-34693882D01*
X73953882Y-34503882D01*
X73968444Y-34483494D01*
X73976083Y-34454227D01*
X73986055Y-34274724D01*
X74016015Y-33845303D01*
X74016200Y-33840000D01*
X74016200Y-33534073D01*
X74294031Y-33534073D01*
X74297710Y-33564097D01*
X74365948Y-33768810D01*
X74474972Y-34383311D01*
X74481845Y-34404078D01*
X74581845Y-34604078D01*
X74604938Y-34631448D01*
X74904938Y-34851448D01*
X74942023Y-34865781D01*
X75132023Y-34885781D01*
X75146328Y-34885937D01*
X75266328Y-34875937D01*
X75282164Y-34872905D01*
X75308782Y-34858538D01*
X75488782Y-34708538D01*
X75507682Y-34685008D01*
X75657682Y-34395008D01*
X75664509Y-34375966D01*
X75754509Y-33955966D01*
X75755434Y-33950776D01*
X75795434Y-33670776D01*
X75796200Y-33660000D01*
X75796200Y-33630000D01*
X75795434Y-33619224D01*
X75745434Y-33269224D01*
X75744083Y-33262165D01*
X75614083Y-32722165D01*
X75605820Y-32701605D01*
X75399633Y-32348140D01*
X76914236Y-32348140D01*
X77044236Y-33558140D01*
X77044623Y-33561167D01*
X77204623Y-34641167D01*
X77206485Y-34650050D01*
X77296485Y-34980050D01*
X77304165Y-34998370D01*
X77324280Y-35020960D01*
X77364280Y-35050960D01*
X77395056Y-35064720D01*
X77490399Y-35083789D01*
X77515903Y-35092290D01*
X77544794Y-35096049D01*
X77574004Y-35088192D01*
X77597855Y-35069590D01*
X77701042Y-34949205D01*
X77739961Y-35040017D01*
X77764214Y-35070910D01*
X77791519Y-35083925D01*
X77831519Y-35093925D01*
X77850000Y-35096200D01*
X77920000Y-35096200D01*
X77948300Y-35090750D01*
X77998300Y-35070750D01*
X78013016Y-35062897D01*
X78034098Y-35041206D01*
X78124098Y-34901206D01*
X78134782Y-34874631D01*
X78224782Y-34414631D01*
X78226078Y-34404306D01*
X78256078Y-33874306D01*
X78256197Y-33869326D01*
X78246747Y-32801385D01*
X78653813Y-32801385D01*
X78657478Y-33002932D01*
X78663800Y-33350670D01*
X78663800Y-33630000D01*
X78664413Y-33639649D01*
X78724413Y-34109649D01*
X78727126Y-34122267D01*
X78837126Y-34482267D01*
X78847447Y-34503515D01*
X79007447Y-34733515D01*
X79026302Y-34752425D01*
X79126302Y-34822425D01*
X79140354Y-34830197D01*
X79170000Y-34836200D01*
X79270000Y-34836200D01*
X79279451Y-34835612D01*
X79359451Y-34825612D01*
X79399221Y-34808170D01*
X79529221Y-34698170D01*
X79548155Y-34674078D01*
X79598155Y-34574078D01*
X79606176Y-34538099D01*
X79599435Y-34508612D01*
X79589258Y-34494488D01*
X79618298Y-34485876D01*
X79640910Y-34465786D01*
X79653925Y-34438481D01*
X79661273Y-34409087D01*
X79934344Y-34409087D01*
X79943840Y-34437806D01*
X79983840Y-34507806D01*
X80015922Y-34538155D01*
X80215922Y-34638155D01*
X80258415Y-34645734D01*
X80438415Y-34625734D01*
X80460570Y-34619799D01*
X80485318Y-34602406D01*
X80665318Y-34412406D01*
X80676252Y-34397645D01*
X80685678Y-34368903D01*
X80705678Y-34198903D01*
X80706121Y-34193460D01*
X80726121Y-33753460D01*
X80726200Y-33750000D01*
X80726200Y-33457286D01*
X81003848Y-33457286D01*
X81008792Y-33487127D01*
X81086269Y-33690504D01*
X81195010Y-34293523D01*
X81201202Y-34312761D01*
X81301202Y-34522761D01*
X81323946Y-34550708D01*
X81613946Y-34770708D01*
X81656195Y-34786105D01*
X81856195Y-34796105D01*
X81866899Y-34795887D01*
X81976899Y-34785887D01*
X82015202Y-34771345D01*
X82205202Y-34631345D01*
X82228622Y-34603128D01*
X82368622Y-34313128D01*
X82374219Y-34297260D01*
X82474219Y-33867260D01*
X82475734Y-33858415D01*
X82505734Y-33588415D01*
X82506200Y-33580000D01*
X82506200Y-33540000D01*
X82505678Y-33531097D01*
X82465678Y-33191097D01*
X82463761Y-33180877D01*
X82323761Y-32640877D01*
X82316611Y-32622994D01*
X82116611Y-32262994D01*
X82092268Y-32236598D01*
X81822268Y-32056598D01*
X81784753Y-32043948D01*
X81624753Y-32033948D01*
X81605056Y-32035280D01*
X81555056Y-32045280D01*
X81523035Y-32059994D01*
X81503389Y-32082994D01*
X81453389Y-32172994D01*
X81444770Y-32197879D01*
X81445981Y-32228103D01*
X81458856Y-32255474D01*
X81481365Y-32275679D01*
X81808202Y-32467936D01*
X81941337Y-32645450D01*
X82094588Y-33124360D01*
X82113800Y-33412534D01*
X82113800Y-33545889D01*
X82074804Y-33906604D01*
X81989118Y-34249347D01*
X81915529Y-34363819D01*
X81898893Y-34373800D01*
X81747913Y-34373800D01*
X81654377Y-34294654D01*
X81515708Y-33924870D01*
X81506200Y-33658652D01*
X81506200Y-33619923D01*
X81615839Y-33501850D01*
X81630197Y-33479646D01*
X81636200Y-33450000D01*
X81636200Y-33420000D01*
X81634720Y-33405056D01*
X81624720Y-33355056D01*
X81610006Y-33323035D01*
X81587006Y-33303389D01*
X81497006Y-33253389D01*
X81460000Y-33243800D01*
X81210000Y-33243800D01*
X81169090Y-33255713D01*
X81059090Y-33325713D01*
X81040649Y-33342210D01*
X81026732Y-33369066D01*
X81006732Y-33439066D01*
X81003848Y-33457286D01*
X80726200Y-33457286D01*
X80726200Y-33260000D01*
X80726194Y-33259082D01*
X80716194Y-32429082D01*
X80712290Y-32405903D01*
X80692290Y-32345903D01*
X80683980Y-32328612D01*
X80662837Y-32306981D01*
X80634944Y-32295280D01*
X80584944Y-32285280D01*
X80570000Y-32283800D01*
X80530000Y-32283800D01*
X80511599Y-32286055D01*
X80484280Y-32299040D01*
X80444280Y-32329040D01*
X80425420Y-32349555D01*
X80414772Y-32377866D01*
X80364772Y-32687866D01*
X80363800Y-32700000D01*
X80363800Y-32980000D01*
X80363804Y-32980762D01*
X80373768Y-33977114D01*
X80350052Y-34253800D01*
X80324747Y-34253800D01*
X80089451Y-34224388D01*
X80067795Y-34224784D01*
X80039494Y-34235458D01*
X80017575Y-34256302D01*
X79947575Y-34356302D01*
X79936769Y-34378937D01*
X79934344Y-34409087D01*
X79661273Y-34409087D01*
X79733925Y-34118481D01*
X79735947Y-34106200D01*
X79775947Y-33616200D01*
X79776131Y-33606760D01*
X79756131Y-33136760D01*
X79753550Y-33120080D01*
X79623550Y-32640080D01*
X79612959Y-32617074D01*
X79462959Y-32397074D01*
X79442268Y-32376598D01*
X79352268Y-32316598D01*
X79310000Y-32303800D01*
X79070000Y-32303800D01*
X79047271Y-32307269D01*
X78887271Y-32357269D01*
X78850774Y-32382055D01*
X78680774Y-32592055D01*
X78671789Y-32606033D01*
X78663948Y-32635247D01*
X78653948Y-32795247D01*
X78653813Y-32801385D01*
X78246747Y-32801385D01*
X78246197Y-32739326D01*
X78245707Y-32731348D01*
X78205707Y-32381348D01*
X78200989Y-32362305D01*
X78184621Y-32336868D01*
X78159646Y-32319803D01*
X78130000Y-32313800D01*
X78030000Y-32313800D01*
X78008845Y-32316795D01*
X77982031Y-32330793D01*
X77962776Y-32354120D01*
X77954113Y-32383101D01*
X77944762Y-32485961D01*
X77926732Y-32549066D01*
X77923922Y-32574306D01*
X77953859Y-33103190D01*
X77963800Y-33461072D01*
X77963800Y-33529131D01*
X77953900Y-33954832D01*
X77917932Y-34274046D01*
X77915840Y-34252601D01*
X77914720Y-34245056D01*
X77824720Y-33795056D01*
X77811537Y-33765060D01*
X77789205Y-33744659D01*
X77739205Y-33714659D01*
X77700000Y-33703800D01*
X77670000Y-33703800D01*
X77645903Y-33707710D01*
X77585903Y-33727710D01*
X77556606Y-33745636D01*
X77539662Y-33770692D01*
X77489662Y-33890692D01*
X77484709Y-33908264D01*
X77486075Y-33938481D01*
X77496075Y-33978481D01*
X77501845Y-33994078D01*
X77521427Y-34033242D01*
X77497851Y-34213991D01*
X77435835Y-33582552D01*
X77435471Y-33579484D01*
X77265471Y-32359484D01*
X77255341Y-32330795D01*
X77195341Y-32230795D01*
X77184621Y-32216868D01*
X77159646Y-32199803D01*
X77130000Y-32193800D01*
X77060000Y-32193800D01*
X77035903Y-32197710D01*
X76975903Y-32217710D01*
X76958612Y-32226020D01*
X76936981Y-32247163D01*
X76925280Y-32275056D01*
X76915280Y-32325056D01*
X76914236Y-32348140D01*
X75399633Y-32348140D01*
X75395820Y-32341605D01*
X75373374Y-32317349D01*
X75113374Y-32137349D01*
X75074753Y-32123948D01*
X74914753Y-32113948D01*
X74885903Y-32117710D01*
X74825903Y-32137710D01*
X74803035Y-32149994D01*
X74783389Y-32172994D01*
X74733389Y-32262994D01*
X74724624Y-32288826D01*
X74726215Y-32319032D01*
X74739433Y-32346239D01*
X74762194Y-32366160D01*
X75097368Y-32557688D01*
X75221350Y-32734805D01*
X75384233Y-33213873D01*
X75393800Y-33491321D01*
X75393800Y-33626992D01*
X75364614Y-33996684D01*
X75269461Y-34339233D01*
X75204851Y-34444226D01*
X75188893Y-34453800D01*
X75027913Y-34453800D01*
X74934816Y-34375026D01*
X74805727Y-34015421D01*
X74796200Y-33748652D01*
X74796200Y-33709923D01*
X74905839Y-33591850D01*
X74920197Y-33569646D01*
X74926200Y-33540000D01*
X74926200Y-33500000D01*
X74920750Y-33471700D01*
X74900750Y-33421700D01*
X74892344Y-33406186D01*
X74870386Y-33385383D01*
X74790386Y-33335383D01*
X74750000Y-33323800D01*
X74570000Y-33323800D01*
X74560549Y-33324388D01*
X74480549Y-33334388D01*
X74446302Y-33347575D01*
X74346302Y-33417575D01*
X74332781Y-33429677D01*
X74317710Y-33455903D01*
X74297710Y-33515903D01*
X74294031Y-33534073D01*
X74016200Y-33534073D01*
X74016200Y-33340000D01*
X74016194Y-33339082D01*
X74006194Y-32509082D01*
X74000750Y-32481700D01*
X73980750Y-32431700D01*
X73963596Y-32405834D01*
X73938300Y-32389250D01*
X73888300Y-32369250D01*
X73871736Y-32364709D01*
X73841519Y-32366075D01*
X73801519Y-32376075D01*
X73791700Y-32379250D01*
X73741700Y-32399250D01*
X73724295Y-32409029D01*
X73704174Y-32431615D01*
X73694427Y-32460249D01*
X73654427Y-32770249D01*
X73653800Y-32780000D01*
X73653800Y-33070000D01*
X73653804Y-33070762D01*
X73663767Y-34067024D01*
X73640228Y-34333800D01*
X73614554Y-34333800D01*
X73369079Y-34304343D01*
X73339511Y-34306606D01*
X73312571Y-34320360D01*
X73293104Y-34343511D01*
X73233104Y-34453511D01*
X73226769Y-34468937D01*
X73224344Y-34499087D01*
X72934665Y-34499087D01*
X72865943Y-33773689D01*
X72838485Y-33389279D01*
X72863882Y-33363882D01*
X72882559Y-33333274D01*
X73052559Y-32803274D01*
X73054420Y-32796372D01*
X73164420Y-32296372D01*
X73166200Y-32280000D01*
X73166200Y-32210000D01*
X73155470Y-32171011D01*
X73135143Y-32148611D01*
X73107702Y-32135885D01*
X73077473Y-32134837D01*
X73017473Y-32144837D01*
X72995922Y-32151845D01*
X72935922Y-32181845D01*
X72914682Y-32197594D01*
X72898652Y-32223244D01*
X72748652Y-32623244D01*
X72746580Y-32629606D01*
X72695433Y-32813734D01*
X72621019Y-32622382D01*
X72619137Y-32617961D01*
X72429137Y-32207961D01*
X72408782Y-32181462D01*
X72348782Y-32131462D01*
X72330981Y-32120383D01*
X72301455Y-32113814D01*
X72271700Y-32119250D01*
X72221700Y-32139250D01*
X72206186Y-32147656D01*
X72185383Y-32169614D01*
X72135383Y-32249614D01*
X72123809Y-32288824D01*
X71772544Y-32288824D01*
X71765859Y-32282765D01*
X71615859Y-32202765D01*
X71580000Y-32193800D01*
X71420000Y-32193800D01*
X71404032Y-32195492D01*
X71376302Y-32207575D01*
X71276302Y-32277575D01*
X71254055Y-32301821D01*
X71144055Y-32491821D01*
X71134440Y-32520144D01*
X71120805Y-32624675D01*
X71104440Y-32750144D01*
X70993019Y-32750144D01*
X70945509Y-32399761D01*
X70941134Y-32382680D01*
X70924901Y-32357157D01*
X70900017Y-32339961D01*
X70830017Y-32309961D01*
X70800000Y-32303800D01*
X70770000Y-32303800D01*
X70729982Y-32315154D01*
X70707906Y-32335832D01*
X70695615Y-32363470D01*
X70655615Y-32543470D01*
X70653828Y-32562059D01*
X70663828Y-32932059D01*
X70664293Y-32938652D01*
X70694596Y-33203800D01*
X70532367Y-33203800D01*
X70415444Y-33164826D01*
X70404175Y-33150739D01*
X70385976Y-32914156D01*
X70385560Y-32910144D01*
X70325560Y-32450144D01*
X70320989Y-32432305D01*
X70304621Y-32406868D01*
X70279646Y-32389803D01*
X70250000Y-32383800D01*
X70110000Y-32383800D01*
X70079349Y-32390236D01*
X70054622Y-32407658D01*
X70038621Y-32433327D01*
X70033867Y-32463199D01*
X69718353Y-32463199D01*
X69711922Y-32444827D01*
X69695065Y-32417329D01*
X69475065Y-32187329D01*
X69453967Y-32171789D01*
X69424753Y-32163948D01*
X69264753Y-32153948D01*
X69260000Y-32153800D01*
X69220000Y-32153800D01*
X69185922Y-32161845D01*
X69145922Y-32181845D01*
X69119040Y-32204280D01*
X69059040Y-32284280D01*
X69049803Y-32300354D01*
X69043800Y-32330000D01*
X69043800Y-32400000D01*
X69049011Y-32427695D01*
X69065379Y-32453132D01*
X69090354Y-32470197D01*
X69120000Y-32476200D01*
X69272799Y-32476200D01*
X69353726Y-32542414D01*
X69456753Y-32688368D01*
X69463123Y-32739328D01*
X69447043Y-32851885D01*
X69190518Y-33231922D01*
X68945073Y-33487185D01*
X68928753Y-33512975D01*
X68818753Y-33802975D01*
X68814388Y-33820549D01*
X68794388Y-33980549D01*
X68793800Y-33990000D01*
X60741516Y-33990000D01*
X60784450Y-33962538D01*
X60836855Y-33886288D01*
X61134445Y-33186974D01*
X61152949Y-33102783D01*
X61137346Y-33011587D01*
X61087493Y-32933647D01*
X61011243Y-32881242D01*
X59170943Y-32098110D01*
X59086752Y-32079606D01*
X58995556Y-32095209D01*
X58917616Y-32145062D01*
X58865211Y-32221312D01*
X58821387Y-32324296D01*
X58560208Y-32213152D01*
X58829320Y-31580760D01*
X58843550Y-31590540D01*
X58935560Y-31629695D01*
X58935564Y-31629697D01*
X59089157Y-31695058D01*
X59064910Y-31752036D01*
X59046406Y-31836227D01*
X59062009Y-31927423D01*
X59111862Y-32005363D01*
X59188112Y-32057768D01*
X61028412Y-32840900D01*
X61112603Y-32859404D01*
X61203799Y-32843801D01*
X61281739Y-32793948D01*
X61334144Y-32717698D01*
X61631734Y-32018384D01*
X61650238Y-31934193D01*
X61634635Y-31842997D01*
X61584782Y-31765057D01*
X61508532Y-31712652D01*
X59668232Y-30929520D01*
X59601725Y-30914903D01*
X59629130Y-30850503D01*
X59685402Y-30889178D01*
X61525702Y-31672310D01*
X61609893Y-31690814D01*
X61701089Y-31675211D01*
X61779029Y-31625358D01*
X61831434Y-31549108D01*
X61870195Y-31458021D01*
X87684333Y-31458021D01*
X87967561Y-31630986D01*
X88295421Y-31682397D01*
X88443884Y-31663149D01*
X88497819Y-31495959D01*
X88214633Y-31003224D01*
X87721898Y-31286409D01*
X87684333Y-31458021D01*
X61870195Y-31458021D01*
X62129024Y-30849794D01*
X62147528Y-30765603D01*
X62131925Y-30674407D01*
X62113067Y-30644924D01*
X62141599Y-30640042D01*
X62219540Y-30590189D01*
X62271945Y-30513940D01*
X62624355Y-29685805D01*
X62642859Y-29601613D01*
X62627256Y-29510417D01*
X62615776Y-29492469D01*
X62631057Y-29489855D01*
X62708998Y-29440002D01*
X62761403Y-29363753D01*
X62855205Y-29143327D01*
X79105431Y-29056241D01*
X80632444Y-30809589D01*
X80700101Y-30863003D01*
X80788955Y-30888794D01*
X80880842Y-30877985D01*
X80899719Y-30867259D01*
X87410887Y-30867259D01*
X87430135Y-31015722D01*
X87597325Y-31069657D01*
X87929669Y-30878651D01*
X88431386Y-30878651D01*
X88714571Y-31371386D01*
X88886183Y-31408951D01*
X89059148Y-31125723D01*
X89110559Y-30797863D01*
X89091311Y-30649400D01*
X88924121Y-30595465D01*
X88431386Y-30878651D01*
X87929669Y-30878651D01*
X88090060Y-30786471D01*
X87806875Y-30293736D01*
X87635263Y-30256171D01*
X87462298Y-30539399D01*
X87410887Y-30867259D01*
X80899719Y-30867259D01*
X80961285Y-30832278D01*
X81722687Y-30169163D01*
X88023627Y-30169163D01*
X88306813Y-30661898D01*
X88799548Y-30378713D01*
X88837113Y-30207101D01*
X88553885Y-30034136D01*
X88226025Y-29982725D01*
X88077562Y-30001973D01*
X88023627Y-30169163D01*
X81722687Y-30169163D01*
X83223592Y-28862006D01*
X83277006Y-28794349D01*
X83302797Y-28705495D01*
X83291988Y-28613608D01*
X83246281Y-28533165D01*
X81538712Y-26572499D01*
X81471055Y-26519085D01*
X81382201Y-26493294D01*
X81290314Y-26504103D01*
X81209871Y-26549810D01*
X79148829Y-28344798D01*
X70047369Y-28393573D01*
X70095369Y-28268302D01*
X69973848Y-28141440D01*
X69644106Y-28150273D01*
X69543025Y-28049192D01*
X69436379Y-28155838D01*
X69405737Y-28156659D01*
X69406515Y-28185702D01*
X69291575Y-28300642D01*
X69388039Y-28397106D01*
X69165637Y-28398298D01*
X69263293Y-28300642D01*
X69156647Y-28193996D01*
X69155826Y-28163354D01*
X69126783Y-28164132D01*
X69011843Y-28049192D01*
X68890576Y-28170459D01*
X68587715Y-28178572D01*
X68473159Y-28311759D01*
X68525597Y-28401728D01*
X63128762Y-28430650D01*
X63116714Y-28360230D01*
X63105234Y-28342282D01*
X63120515Y-28339667D01*
X63198456Y-28289814D01*
X63250861Y-28213565D01*
X63426086Y-27801800D01*
X68459499Y-27801800D01*
X68581020Y-27928662D01*
X69149131Y-27913443D01*
X69133913Y-27345332D01*
X69126130Y-27338637D01*
X69383823Y-27338637D01*
X69399042Y-27906748D01*
X69967153Y-27891530D01*
X70081709Y-27758343D01*
X69914596Y-27471624D01*
X69650480Y-27270681D01*
X69510685Y-27217116D01*
X69383823Y-27338637D01*
X69126130Y-27338637D01*
X69000726Y-27230776D01*
X68714007Y-27397889D01*
X68513064Y-27662005D01*
X68459499Y-27801800D01*
X63426086Y-27801800D01*
X63603271Y-27385430D01*
X63621775Y-27301238D01*
X63606172Y-27210042D01*
X63556318Y-27132101D01*
X63480069Y-27079697D01*
X62927979Y-26844758D01*
X62843788Y-26826254D01*
X62752593Y-26841857D01*
X62674652Y-26891710D01*
X62622247Y-26967959D01*
X62269837Y-27796094D01*
X62251333Y-27880286D01*
X62266936Y-27971482D01*
X62278416Y-27989430D01*
X62263135Y-27992045D01*
X62185194Y-28041898D01*
X62132789Y-28118147D01*
X61780379Y-28946282D01*
X61761875Y-29030474D01*
X61777478Y-29121670D01*
X61788958Y-29139618D01*
X61773677Y-29142232D01*
X61695736Y-29192085D01*
X61643331Y-29268334D01*
X61290921Y-30096469D01*
X61272417Y-30180661D01*
X61281884Y-30235993D01*
X60797238Y-30029754D01*
X60839316Y-30002840D01*
X60891721Y-29926591D01*
X61244131Y-29098456D01*
X61262635Y-29014264D01*
X61247032Y-28923068D01*
X61235552Y-28905120D01*
X61250833Y-28902505D01*
X61328774Y-28852652D01*
X61381179Y-28776403D01*
X61733589Y-27948268D01*
X61752093Y-27864076D01*
X61736490Y-27772880D01*
X61725010Y-27754932D01*
X61740291Y-27752318D01*
X61818232Y-27702465D01*
X61870637Y-27626216D01*
X62223047Y-26798081D01*
X62241551Y-26713889D01*
X62225948Y-26622693D01*
X62176094Y-26544752D01*
X62099845Y-26492348D01*
X61547755Y-26257409D01*
X61463564Y-26238905D01*
X61372369Y-26254508D01*
X61294428Y-26304361D01*
X61242023Y-26380610D01*
X61196241Y-26488195D01*
X60766603Y-26305364D01*
X60766595Y-26305362D01*
X60628580Y-26246630D01*
X60544388Y-26228125D01*
X60453192Y-26243728D01*
X60375252Y-26293581D01*
X60322847Y-26369830D01*
X59214400Y-28974591D01*
X59091904Y-28922463D01*
X58576671Y-28703207D01*
X58385095Y-28780407D01*
X58134355Y-29369625D01*
X58152758Y-29377456D01*
X58013517Y-29704661D01*
X57995114Y-29696830D01*
X57757089Y-30256171D01*
X57637066Y-30538216D01*
X57655469Y-30546047D01*
X57516228Y-30873252D01*
X57497825Y-30865421D01*
X57302694Y-31323964D01*
X57139777Y-31706806D01*
X57158180Y-31714637D01*
X57018939Y-32041842D01*
X57000536Y-32034011D01*
X56893228Y-32286178D01*
X56893227Y-32286178D01*
X56642487Y-32875396D01*
X55734341Y-32875396D01*
X55016330Y-32569849D01*
X54824754Y-32647049D01*
X54757265Y-32805641D01*
X54755026Y-33038040D01*
X53942718Y-33038040D01*
X53938472Y-33018649D01*
X53445730Y-32735475D01*
X53162557Y-33228217D01*
X52341004Y-33228217D01*
X52203442Y-32713468D01*
X52562183Y-32713468D01*
X52682818Y-33022632D01*
X52774191Y-33141219D01*
X52945801Y-33103650D01*
X53228975Y-32610908D01*
X53068562Y-32518720D01*
X53570297Y-32518720D01*
X54063039Y-32801893D01*
X54230229Y-32747955D01*
X54237089Y-32416160D01*
X54116454Y-32106996D01*
X54073361Y-32051068D01*
X55078371Y-32051068D01*
X55155571Y-32242644D01*
X56315282Y-32736155D01*
X56422591Y-32483988D01*
X56673331Y-31894770D01*
X55513620Y-31401259D01*
X55322044Y-31478459D01*
X55254555Y-31637051D01*
X55253108Y-31787274D01*
X55145860Y-31892476D01*
X55078371Y-32051068D01*
X54073361Y-32051068D01*
X54025081Y-31988409D01*
X53853471Y-32025978D01*
X53570297Y-32518720D01*
X53068562Y-32518720D01*
X52736233Y-32327735D01*
X52569043Y-32381673D01*
X52562183Y-32713468D01*
X52203442Y-32713468D01*
X51996571Y-31939369D01*
X52823231Y-31939369D01*
X52860800Y-32110979D01*
X53353542Y-32394153D01*
X53636715Y-31901411D01*
X53582777Y-31734221D01*
X53250982Y-31727361D01*
X52941818Y-31847996D01*
X52823231Y-31939369D01*
X51996571Y-31939369D01*
X51815424Y-31261528D01*
X51782258Y-30882478D01*
X55575661Y-30882478D01*
X55652861Y-31074054D01*
X56812572Y-31567565D01*
X57063311Y-30978347D01*
X57170620Y-30726180D01*
X56010909Y-30232669D01*
X55819333Y-30309869D01*
X55751844Y-30468461D01*
X55750397Y-30618685D01*
X55643150Y-30723886D01*
X55575661Y-30882478D01*
X51782258Y-30882478D01*
X51680006Y-29713888D01*
X56072950Y-29713888D01*
X56150150Y-29905464D01*
X57309861Y-30398975D01*
X57560600Y-29809757D01*
X57667909Y-29557589D01*
X56508198Y-29064078D01*
X56316622Y-29141278D01*
X56249133Y-29299870D01*
X56247686Y-29450095D01*
X56140439Y-29555296D01*
X56072950Y-29713888D01*
X51680006Y-29713888D01*
X51609804Y-28911592D01*
X51646070Y-28545297D01*
X56570239Y-28545297D01*
X56647439Y-28736873D01*
X57807150Y-29230384D01*
X58057889Y-28641166D01*
X57980690Y-28449590D01*
X57465456Y-28230334D01*
X57251605Y-28139331D01*
X57019207Y-28137091D01*
X56803641Y-28223957D01*
X56637728Y-28386705D01*
X56570239Y-28545297D01*
X51646070Y-28545297D01*
X51768856Y-27305159D01*
X52525015Y-27305159D01*
X52801881Y-27488135D01*
X53127693Y-27551231D01*
X53276750Y-27537301D01*
X53336624Y-27372145D01*
X53071229Y-26869604D01*
X52568688Y-27135000D01*
X52525015Y-27305159D01*
X51768856Y-27305159D01*
X51804477Y-26945395D01*
X51878734Y-26705002D01*
X52272856Y-26705002D01*
X52286786Y-26854059D01*
X52451942Y-26913933D01*
X52756946Y-26752858D01*
X53292295Y-26752858D01*
X53557691Y-27255399D01*
X53727850Y-27299072D01*
X53910826Y-27022206D01*
X53973922Y-26696394D01*
X53959992Y-26547337D01*
X53794836Y-26487463D01*
X53292295Y-26752858D01*
X52756946Y-26752858D01*
X52954483Y-26648538D01*
X52689087Y-26145997D01*
X52518928Y-26102324D01*
X52335952Y-26379190D01*
X52272856Y-26705002D01*
X51878734Y-26705002D01*
X52087474Y-26029251D01*
X52910154Y-26029251D01*
X53175549Y-26531792D01*
X53678090Y-26266396D01*
X53721763Y-26096237D01*
X53444897Y-25913261D01*
X53119085Y-25850165D01*
X52970028Y-25864095D01*
X52910154Y-26029251D01*
X52087474Y-26029251D01*
X52211230Y-25628617D01*
X87316452Y-25628617D01*
X87376410Y-25793743D01*
X87708236Y-25788581D01*
X88012827Y-25656828D01*
X88128027Y-25561221D01*
X88084268Y-25391083D01*
X87581593Y-25125942D01*
X87316452Y-25628617D01*
X52211230Y-25628617D01*
X52378119Y-25088355D01*
X53292399Y-23395963D01*
X53678070Y-22925632D01*
X66144607Y-22925632D01*
X66286117Y-23225816D01*
X66531730Y-23448995D01*
X66666329Y-23514531D01*
X66784500Y-23419612D01*
X67052836Y-23419612D01*
X67175540Y-23545331D01*
X67475724Y-23403821D01*
X67698903Y-23158208D01*
X67764439Y-23023609D01*
X67654426Y-22886646D01*
X67087148Y-22852334D01*
X67052836Y-23419612D01*
X66784500Y-23419612D01*
X66803292Y-23404518D01*
X66837604Y-22837240D01*
X66270326Y-22802928D01*
X66144607Y-22925632D01*
X53678070Y-22925632D01*
X54479295Y-21948530D01*
X55379716Y-21948530D01*
X55449054Y-22273072D01*
X55637311Y-22546374D01*
X55753422Y-22640874D01*
X55762383Y-22636582D01*
X56151390Y-22636582D01*
X56242197Y-22786967D01*
X56566739Y-22717629D01*
X56733456Y-22602790D01*
X67102242Y-22602790D01*
X67669520Y-22637102D01*
X67795239Y-22514398D01*
X67653729Y-22214214D01*
X67408116Y-21991035D01*
X67273517Y-21925499D01*
X67136554Y-22035512D01*
X67102242Y-22602790D01*
X56733456Y-22602790D01*
X56840041Y-22529372D01*
X56931969Y-22416421D01*
X66175407Y-22416421D01*
X66285420Y-22553384D01*
X66852698Y-22587696D01*
X66887010Y-22020418D01*
X66764306Y-21894699D01*
X66464122Y-22036209D01*
X66240943Y-22281822D01*
X66175407Y-22416421D01*
X56931969Y-22416421D01*
X56934541Y-22413261D01*
X56858655Y-22254822D01*
X56314142Y-22092070D01*
X56151390Y-22636582D01*
X55762383Y-22636582D01*
X55911861Y-22564988D01*
X56074613Y-22020475D01*
X55530101Y-21857723D01*
X55379716Y-21948530D01*
X54479295Y-21948530D01*
X54488024Y-21937885D01*
X54591950Y-21852541D01*
X56385737Y-21852541D01*
X56930249Y-22015293D01*
X57080634Y-21924486D01*
X57011296Y-21599944D01*
X56823039Y-21326642D01*
X56706928Y-21232142D01*
X56548489Y-21308028D01*
X56385737Y-21852541D01*
X54591950Y-21852541D01*
X55070262Y-21459755D01*
X55525809Y-21459755D01*
X55601695Y-21618194D01*
X56146208Y-21780946D01*
X56308960Y-21236434D01*
X56218153Y-21086049D01*
X55893611Y-21155387D01*
X55620309Y-21343644D01*
X55525809Y-21459755D01*
X55070262Y-21459755D01*
X55955827Y-20732536D01*
X56047576Y-20683214D01*
X61073668Y-20683214D01*
X61353179Y-20862123D01*
X61679879Y-20920449D01*
X61828716Y-20904342D01*
X61886170Y-20738328D01*
X61613457Y-20239721D01*
X61114849Y-20512434D01*
X61073668Y-20683214D01*
X56047576Y-20683214D01*
X57157021Y-20086807D01*
X60812763Y-20086807D01*
X60828870Y-20235644D01*
X60994884Y-20293098D01*
X61311810Y-20119755D01*
X61832793Y-20119755D01*
X62105506Y-20618363D01*
X62276286Y-20659544D01*
X62455195Y-20380033D01*
X62513521Y-20053333D01*
X62497414Y-19904496D01*
X62331400Y-19847042D01*
X61832793Y-20119755D01*
X61311810Y-20119755D01*
X61493491Y-20020385D01*
X61220778Y-19521777D01*
X61049998Y-19480596D01*
X60871089Y-19760107D01*
X60812763Y-20086807D01*
X57157021Y-20086807D01*
X57638082Y-19828202D01*
X59018429Y-19401812D01*
X61440114Y-19401812D01*
X61712827Y-19900419D01*
X62211435Y-19627706D01*
X62252616Y-19456926D01*
X61973105Y-19278017D01*
X61646405Y-19219691D01*
X61497568Y-19235798D01*
X61440114Y-19401812D01*
X59018429Y-19401812D01*
X59495395Y-19254477D01*
X61460700Y-19059893D01*
X62898128Y-19194953D01*
X64282151Y-19591770D01*
X65572122Y-20193110D01*
X66751169Y-20992134D01*
X67854979Y-21929885D01*
X68827402Y-23018998D01*
X70385430Y-25450316D01*
X70396477Y-25461795D01*
X70403931Y-25475876D01*
X70433864Y-25500643D01*
X70460809Y-25528641D01*
X70475412Y-25535020D01*
X70487684Y-25545174D01*
X70524814Y-25556600D01*
X70560424Y-25572156D01*
X70576353Y-25572461D01*
X70591580Y-25577147D01*
X70630261Y-25573494D01*
X70669108Y-25574238D01*
X70683942Y-25568424D01*
X70699803Y-25566926D01*
X70734143Y-25548748D01*
X70770316Y-25534570D01*
X70781795Y-25523523D01*
X70795876Y-25516069D01*
X70820643Y-25486136D01*
X70848641Y-25459191D01*
X70855020Y-25444588D01*
X70865174Y-25432316D01*
X71426372Y-24392449D01*
X72224530Y-24392449D01*
X72402914Y-24672295D01*
X72674813Y-24862574D01*
X72816627Y-24910537D01*
X72938556Y-24784066D01*
X72900754Y-24217010D01*
X72333698Y-24254811D01*
X72224530Y-24392449D01*
X71426372Y-24392449D01*
X71530027Y-24200381D01*
X73150201Y-24200381D01*
X73188002Y-24767437D01*
X73325640Y-24876605D01*
X73439347Y-24804124D01*
X86692667Y-24804124D01*
X86697829Y-25135950D01*
X86829582Y-25440541D01*
X86925189Y-25555741D01*
X87095327Y-25511982D01*
X87360468Y-25009307D01*
X87162368Y-24904817D01*
X87698228Y-24904817D01*
X88200903Y-25169958D01*
X88366029Y-25110000D01*
X88360867Y-24778174D01*
X88229114Y-24473583D01*
X88133507Y-24358383D01*
X87963369Y-24402142D01*
X87698228Y-24904817D01*
X87162368Y-24904817D01*
X86857793Y-24744166D01*
X86692667Y-24804124D01*
X73439347Y-24804124D01*
X73605486Y-24698221D01*
X73795765Y-24426322D01*
X73820596Y-24352903D01*
X86930669Y-24352903D01*
X86974428Y-24523041D01*
X87477103Y-24788182D01*
X87742244Y-24285507D01*
X87682286Y-24120381D01*
X87350460Y-24125543D01*
X87045869Y-24257296D01*
X86930669Y-24352903D01*
X73820596Y-24352903D01*
X73843728Y-24284508D01*
X73717257Y-24162579D01*
X73150201Y-24200381D01*
X71530027Y-24200381D01*
X71536869Y-24187705D01*
X71754203Y-23883436D01*
X72190598Y-23883436D01*
X72317069Y-24005365D01*
X72884125Y-23967563D01*
X72846324Y-23400507D01*
X72825359Y-23383878D01*
X73095770Y-23383878D01*
X73133572Y-23950934D01*
X73700628Y-23913133D01*
X73809796Y-23775495D01*
X73631412Y-23495649D01*
X73359513Y-23305370D01*
X73217699Y-23257407D01*
X73095770Y-23383878D01*
X72825359Y-23383878D01*
X72708686Y-23291339D01*
X72428840Y-23469723D01*
X72238561Y-23741622D01*
X72190598Y-23883436D01*
X71754203Y-23883436D01*
X72368718Y-23023116D01*
X73327322Y-21927570D01*
X73767037Y-21543818D01*
X82647206Y-21543818D01*
X82883270Y-21777075D01*
X83190629Y-21902237D01*
X83339552Y-21917518D01*
X83430359Y-21767132D01*
X83267602Y-21222621D01*
X82723091Y-21385378D01*
X82647206Y-21543818D01*
X73767037Y-21543818D01*
X74301514Y-21077365D01*
X77118580Y-21077365D01*
X77143187Y-21251308D01*
X77468941Y-21314706D01*
X77794159Y-21248616D01*
X77926604Y-21178828D01*
X77925381Y-21151025D01*
X83507130Y-21151025D01*
X83669887Y-21695536D01*
X83828327Y-21771421D01*
X84061584Y-21535357D01*
X84186746Y-21227998D01*
X84202027Y-21079075D01*
X84051641Y-20988268D01*
X83507130Y-21151025D01*
X77925381Y-21151025D01*
X77921157Y-21055043D01*
X82501109Y-21055043D01*
X82651495Y-21145850D01*
X83196006Y-20983093D01*
X83033249Y-20438582D01*
X82883764Y-20366986D01*
X83272777Y-20366986D01*
X83435534Y-20911497D01*
X83980045Y-20748740D01*
X84055930Y-20590300D01*
X83819866Y-20357043D01*
X83512507Y-20231881D01*
X83363584Y-20216600D01*
X83272777Y-20366986D01*
X82883764Y-20366986D01*
X82874809Y-20362697D01*
X82641552Y-20598761D01*
X82516390Y-20906120D01*
X82501109Y-21055043D01*
X77921157Y-21055043D01*
X77918881Y-21003324D01*
X77481709Y-20640194D01*
X77118580Y-21077365D01*
X74301514Y-21077365D01*
X74398790Y-20992470D01*
X75198766Y-20467686D01*
X76614887Y-20467686D01*
X76680977Y-20792904D01*
X76750765Y-20925349D01*
X76926269Y-20917626D01*
X77289399Y-20480454D01*
X77250188Y-20447884D01*
X77641449Y-20447884D01*
X78078620Y-20811013D01*
X78252563Y-20786406D01*
X78315961Y-20460652D01*
X78249871Y-20135434D01*
X78180083Y-20002989D01*
X78004579Y-20010712D01*
X77641449Y-20447884D01*
X77250188Y-20447884D01*
X76852228Y-20117325D01*
X76678285Y-20141932D01*
X76614887Y-20467686D01*
X75198766Y-20467686D01*
X75615637Y-20194219D01*
X76576781Y-19749510D01*
X77004244Y-19749510D01*
X77011967Y-19925014D01*
X77449139Y-20288144D01*
X77812268Y-19850973D01*
X77787661Y-19677030D01*
X77461907Y-19613632D01*
X77136689Y-19679722D01*
X77004244Y-19749510D01*
X76576781Y-19749510D01*
X76917703Y-19591770D01*
X78292129Y-19194929D01*
X79729301Y-19059893D01*
X81694605Y-19254477D01*
G36*
X50266772Y-50158407D02*
X50232972Y-50192207D01*
X50266772Y-50226007D01*
X50122772Y-50370007D01*
X49918908Y-50370007D01*
X49774908Y-50226007D01*
X49808708Y-50192207D01*
X49774908Y-50158407D01*
X49918908Y-50014407D01*
X50122772Y-50014407D01*
X50266772Y-50158407D01*
X50266772Y-50158407D01*
G37*
X50266772Y-50158407D02*
X50232972Y-50192207D01*
X50266772Y-50226007D01*
X50122772Y-50370007D01*
X49918908Y-50370007D01*
X49774908Y-50226007D01*
X49808708Y-50192207D01*
X49774908Y-50158407D01*
X49918908Y-50014407D01*
X50122772Y-50014407D01*
X50266772Y-50158407D01*
G36*
X91492312Y-50158407D02*
X91458512Y-50192207D01*
X91492312Y-50226007D01*
X91348312Y-50370007D01*
X91144448Y-50370007D01*
X91000448Y-50226007D01*
X91034248Y-50192207D01*
X91000448Y-50158407D01*
X91144448Y-50014407D01*
X91348312Y-50014407D01*
X91492312Y-50158407D01*
X91492312Y-50158407D01*
G37*
X91492312Y-50158407D02*
X91458512Y-50192207D01*
X91492312Y-50226007D01*
X91348312Y-50370007D01*
X91144448Y-50370007D01*
X91000448Y-50226007D01*
X91034248Y-50192207D01*
X91000448Y-50158407D01*
X91144448Y-50014407D01*
X91348312Y-50014407D01*
X91492312Y-50158407D01*
G36*
X50266772Y-46158407D02*
X50232972Y-46192207D01*
X50266772Y-46226007D01*
X50122772Y-46370007D01*
X49918908Y-46370007D01*
X49774908Y-46226007D01*
X49808708Y-46192207D01*
X49774908Y-46158407D01*
X49918908Y-46014407D01*
X50122772Y-46014407D01*
X50266772Y-46158407D01*
X50266772Y-46158407D01*
G37*
X50266772Y-46158407D02*
X50232972Y-46192207D01*
X50266772Y-46226007D01*
X50122772Y-46370007D01*
X49918908Y-46370007D01*
X49774908Y-46226007D01*
X49808708Y-46192207D01*
X49774908Y-46158407D01*
X49918908Y-46014407D01*
X50122772Y-46014407D01*
X50266772Y-46158407D01*
G36*
X91492312Y-46158407D02*
X91458512Y-46192207D01*
X91492312Y-46226007D01*
X91348312Y-46370007D01*
X91144448Y-46370007D01*
X91000448Y-46226007D01*
X91034248Y-46192207D01*
X91000448Y-46158407D01*
X91144448Y-46014407D01*
X91348312Y-46014407D01*
X91492312Y-46158407D01*
X91492312Y-46158407D01*
G37*
X91492312Y-46158407D02*
X91458512Y-46192207D01*
X91492312Y-46226007D01*
X91348312Y-46370007D01*
X91144448Y-46370007D01*
X91000448Y-46226007D01*
X91034248Y-46192207D01*
X91000448Y-46158407D01*
X91144448Y-46014407D01*
X91348312Y-46014407D01*
X91492312Y-46158407D01*
M02*
