M48
;DRILL file {KiCad 4.0.0-rc2-stable} date 3/3/2016 3:06:49 PM
;FORMAT={-:-/ absolute / inch / decimal}
FMAT,2
INCH,TZ
T1C0.012
T2C0.016
%
G90
G05
M72
T1
X2.0915Y-1.0512G85X2.0915Y-1.0512
G05
X2.1023Y-1.2821G85X2.1023Y-1.2821
G05
X2.2138Y-0.8636G85X2.2138Y-0.8636
G05
X2.2158Y-1.4976G85X2.2158Y-1.4976
G05
X2.3935Y-1.6844G85X2.3935Y-1.6844
G05
X2.4277Y-0.7902G85X2.4277Y-0.7902
G05
X2.5006Y-1.732G85X2.5006Y-1.732
G05
X2.5986Y-1.841G85X2.5986Y-1.841
G05
X2.6366Y-0.8945G85X2.6366Y-0.8945
G05
X2.7275Y-1.1037G85X2.7275Y-1.1037
G05
X2.8393Y-1.8998G85X2.8393Y-1.8998
G05
X2.8747Y-0.9482G85X2.8747Y-0.9482
G05
X3.0114Y-1.8041G85X3.0114Y-1.8041
G05
X3.0498Y-0.8057G85X3.0498Y-0.8057
G05
X3.214Y-1.639G85X3.214Y-1.639
G05
X3.2816Y-0.8294G85X3.2816Y-0.8294
G05
X3.3848Y-1.4411G85X3.3848Y-1.4411
G05
X3.446Y-0.9826G85X3.446Y-0.9826
G05
X3.4748Y-1.2139G85X3.4748Y-1.2139
G05
T2
X1.9693Y-1.8186G85X1.9693Y-1.8186
G05
X1.9693Y-1.8973G85X1.9693Y-1.8973
G05
X1.9693Y-1.9761G85X1.9693Y-1.9761
G05
X3.5924Y-1.8186G85X3.5924Y-1.8186
G05
X3.5924Y-1.8973G85X3.5924Y-1.8973
G05
X3.5924Y-1.9761G85X3.5924Y-1.9761
G05
T0
M30
