G04 #@! TF.FileFunction,Legend,Top*
%FSLAX46Y46*%
G04 Gerber Fmt 4.6, Leading zero omitted, Abs format (unit mm)*
G04 Created by KiCad (PCBNEW 4.0.0-rc2-stable) date 3/3/2016 3:46:15 PM*
%MOMM*%
G01*
G04 APERTURE LIST*
%ADD10C,0.150000*%
%ADD11C,0.025400*%
G04 APERTURE END LIST*
D10*
D11*
G36*
X70735462Y-34625938D02*
X70739695Y-34628676D01*
X70744660Y-34629552D01*
X70749574Y-34628427D01*
X70753663Y-34625479D01*
X70756284Y-34621173D01*
X70757040Y-34616857D01*
X70757829Y-18737554D01*
X79208890Y-18737554D01*
X79208890Y-51187614D01*
X76263715Y-51187614D01*
X59912513Y-35207920D01*
X59908280Y-35205182D01*
X59903316Y-35204307D01*
X59898402Y-35205432D01*
X59894312Y-35208381D01*
X59891693Y-35212688D01*
X59890937Y-35217002D01*
X59890133Y-51140860D01*
X51346670Y-51140860D01*
X51346670Y-18598405D01*
X54339717Y-18598405D01*
X70735462Y-34625938D01*
X70735462Y-34625938D01*
G37*
X70735462Y-34625938D02*
X70739695Y-34628676D01*
X70744660Y-34629552D01*
X70749574Y-34628427D01*
X70753663Y-34625479D01*
X70756284Y-34621173D01*
X70757040Y-34616857D01*
X70757829Y-18737554D01*
X79208890Y-18737554D01*
X79208890Y-51187614D01*
X76263715Y-51187614D01*
X59912513Y-35207920D01*
X59908280Y-35205182D01*
X59903316Y-35204307D01*
X59898402Y-35205432D01*
X59894312Y-35208381D01*
X59891693Y-35212688D01*
X59890937Y-35217002D01*
X59890133Y-51140860D01*
X51346670Y-51140860D01*
X51346670Y-18598405D01*
X54339717Y-18598405D01*
X70735462Y-34625938D01*
M02*
