G04 #@! TF.FileFunction,Profile,NP*
%FSLAX46Y46*%
G04 Gerber Fmt 4.6, Leading zero omitted, Abs format (unit mm)*
G04 Created by KiCad (PCBNEW 4.0.0-rc2-stable) date 3/3/2016 3:47:34 PM*
%MOMM*%
G01*
G04 APERTURE LIST*
%ADD10C,0.150000*%
%ADD11C,0.100000*%
G04 APERTURE END LIST*
D10*
D11*
X64310000Y-51620000D02*
X61870000Y-51460000D01*
X61870000Y-51460000D02*
X60390000Y-51150000D01*
X60390000Y-51150000D02*
X46630000Y-51150000D01*
X46630000Y-51150000D02*
X46630000Y-45150000D01*
X46630000Y-45150000D02*
X52170000Y-45150000D01*
X52170000Y-45150000D02*
X51570000Y-43610000D01*
X51570000Y-43610000D02*
X51330000Y-41100000D01*
X51330000Y-41100000D02*
X51330000Y-41100000D01*
X51330000Y-41100000D02*
X59350000Y-41100000D01*
X59350000Y-41100000D02*
X59460000Y-41840000D01*
X59460000Y-41840000D02*
X59790000Y-42470000D01*
X59790000Y-42470000D02*
X60970000Y-43440000D01*
X60970000Y-43440000D02*
X62640000Y-44020000D01*
X62640000Y-44020000D02*
X64540000Y-44200000D01*
X64540000Y-44200000D02*
X66370000Y-44020000D01*
X66370000Y-44020000D02*
X67970000Y-43460000D01*
X67970000Y-43460000D02*
X69080000Y-42560000D01*
X69080000Y-42560000D02*
X69390000Y-41990000D01*
X69390000Y-41990000D02*
X69490000Y-41330000D01*
X69490000Y-41330000D02*
X69380000Y-40550000D01*
X69380000Y-40550000D02*
X69030000Y-39970000D01*
X69030000Y-39970000D02*
X68480000Y-39530000D01*
X68480000Y-39530000D02*
X67760000Y-39200000D01*
X67760000Y-39200000D02*
X65860000Y-38830000D01*
X65860000Y-38830000D02*
X63560000Y-38650000D01*
X63560000Y-38650000D02*
X61050000Y-38360000D01*
X61050000Y-38360000D02*
X58770000Y-37860000D01*
X58770000Y-37860000D02*
X56770000Y-37120000D01*
X56770000Y-37120000D02*
X55090000Y-36100000D01*
X55090000Y-36100000D02*
X53720000Y-34780000D01*
X53720000Y-34780000D02*
X52700000Y-33130000D01*
X52700000Y-33130000D02*
X52040000Y-31120000D01*
X52040000Y-31120000D02*
X51800000Y-28690000D01*
X51800000Y-28690000D02*
X52020000Y-26220000D01*
X52020000Y-26220000D02*
X52790000Y-24100000D01*
X52790000Y-24100000D02*
X54010000Y-22310000D01*
X54010000Y-22310000D02*
X55570000Y-20850000D01*
X55570000Y-20850000D02*
X57440000Y-19720000D01*
X57440000Y-19720000D02*
X59560000Y-18910000D01*
X59560000Y-18910000D02*
X61820000Y-18420000D01*
X61820000Y-18420000D02*
X64120000Y-18260000D01*
X64120000Y-18260000D02*
X66450000Y-18420000D01*
X66450000Y-18420000D02*
X68730000Y-18910000D01*
X68730000Y-18910000D02*
X70860000Y-19720000D01*
X70860000Y-19720000D02*
X72740000Y-20850000D01*
X72740000Y-20850000D02*
X74320000Y-22310000D01*
X74320000Y-22310000D02*
X75540000Y-24100000D01*
X75540000Y-24100000D02*
X76310000Y-26220000D01*
X76310000Y-26220000D02*
X76540000Y-28690000D01*
X76540000Y-28690000D02*
X76540000Y-28690000D01*
X76540000Y-28690000D02*
X68660000Y-28690000D01*
X68660000Y-28690000D02*
X68570000Y-27950000D01*
X68570000Y-27950000D02*
X68290000Y-27320000D01*
X68290000Y-27320000D02*
X67320000Y-26350000D01*
X67320000Y-26350000D02*
X65950000Y-25770000D01*
X65950000Y-25770000D02*
X64350000Y-25580000D01*
X64350000Y-25580000D02*
X62680000Y-25770000D01*
X62680000Y-25770000D02*
X61200000Y-26320000D01*
X61200000Y-26320000D02*
X60140000Y-27270000D01*
X60140000Y-27270000D02*
X59810000Y-27890000D01*
X59810000Y-27890000D02*
X59670000Y-28590000D01*
X59670000Y-28590000D02*
X59700000Y-29430000D01*
X59700000Y-29430000D02*
X59980000Y-30100000D01*
X59980000Y-30100000D02*
X60450000Y-30620000D01*
X60450000Y-30620000D02*
X61090000Y-31020000D01*
X61090000Y-31020000D02*
X62780000Y-31560000D01*
X62780000Y-31560000D02*
X64820000Y-31880000D01*
X64820000Y-31880000D02*
X69520000Y-32530000D01*
X69520000Y-32530000D02*
X71680000Y-33040000D01*
X71680000Y-33040000D02*
X73590000Y-33850000D01*
X73590000Y-33850000D02*
X75210000Y-35000000D01*
X75210000Y-35000000D02*
X76470000Y-36560000D01*
X76470000Y-36560000D02*
X76950000Y-37520000D01*
X76950000Y-37520000D02*
X77280000Y-38650000D01*
X77280000Y-38650000D02*
X77560000Y-41380000D01*
X77560000Y-41380000D02*
X77270000Y-43770000D01*
X77270000Y-43770000D02*
X76710000Y-45150000D01*
X76710000Y-45150000D02*
X82260000Y-45150000D01*
X82260000Y-45150000D02*
X82260000Y-51150000D01*
X82260000Y-51150000D02*
X68270000Y-51150000D01*
X68270000Y-51150000D02*
X66770000Y-51460000D01*
X66770000Y-51460000D02*
X64310000Y-51620000D01*
X64310000Y-51620000D02*
X64310000Y-51620000D01*
X64310000Y-51620000D02*
X64310000Y-51620000D01*
M02*
