G04 #@! TF.FileFunction,Profile,NP*
%FSLAX46Y46*%
G04 Gerber Fmt 4.6, Leading zero omitted, Abs format (unit mm)*
G04 Created by KiCad (PCBNEW 4.0.0-rc2-stable) date 3/3/2016 3:45:24 PM*
%MOMM*%
G01*
G04 APERTURE LIST*
%ADD10C,0.150000*%
%ADD11C,0.100000*%
G04 APERTURE END LIST*
D10*
D11*
X80520000Y-51160000D02*
X70930000Y-51160000D01*
X70930000Y-51160000D02*
X67410000Y-44880000D01*
X67410000Y-44880000D02*
X63840000Y-38690000D01*
X63840000Y-38690000D02*
X61900000Y-38760000D01*
X61900000Y-38760000D02*
X59770000Y-38790000D01*
X59770000Y-38790000D02*
X59770000Y-51150000D01*
X59770000Y-51150000D02*
X59760000Y-51160000D01*
X59760000Y-51160000D02*
X51330000Y-51160000D01*
X51330000Y-51160000D02*
X51330000Y-51150000D01*
X51330000Y-51150000D02*
X46630000Y-51150000D01*
X46630000Y-51150000D02*
X46630000Y-45150000D01*
X46630000Y-45150000D02*
X51330000Y-45150000D01*
X51330000Y-45150000D02*
X51330000Y-18720000D01*
X51330000Y-18720000D02*
X51330000Y-18720000D01*
X51330000Y-18720000D02*
X59760000Y-18720000D01*
X59760000Y-18720000D02*
X59770000Y-18720000D01*
X59770000Y-18720000D02*
X59770000Y-31280000D01*
X59770000Y-31280000D02*
X60920000Y-31300000D01*
X60920000Y-31300000D02*
X62220000Y-31300000D01*
X62220000Y-31300000D02*
X63490000Y-31160000D01*
X63490000Y-31160000D02*
X64540000Y-30820000D01*
X64540000Y-30820000D02*
X65540000Y-29990000D01*
X65540000Y-29990000D02*
X66230000Y-28710000D01*
X66230000Y-28710000D02*
X67410000Y-24380000D01*
X67410000Y-24380000D02*
X67890000Y-22950000D01*
X67890000Y-22950000D02*
X68590000Y-21620000D01*
X68590000Y-21620000D02*
X69550000Y-20450000D01*
X69550000Y-20450000D02*
X70810000Y-19510000D01*
X70810000Y-19510000D02*
X72380000Y-18830000D01*
X72380000Y-18830000D02*
X74270000Y-18450000D01*
X74270000Y-18450000D02*
X76510000Y-18430000D01*
X76510000Y-18430000D02*
X79180000Y-18860000D01*
X79180000Y-18860000D02*
X79180000Y-24520000D01*
X79180000Y-24520000D02*
X77780000Y-24560000D01*
X77780000Y-24560000D02*
X76630000Y-24860000D01*
X76630000Y-24860000D02*
X75760000Y-25560000D01*
X75760000Y-25560000D02*
X75190000Y-26790000D01*
X75190000Y-26790000D02*
X74400000Y-29500000D01*
X74400000Y-29500000D02*
X73500000Y-31810000D01*
X73500000Y-31810000D02*
X72450000Y-33750000D01*
X72450000Y-33750000D02*
X71210000Y-35360000D01*
X71210000Y-35360000D02*
X75860000Y-42700000D01*
X75860000Y-42700000D02*
X77440000Y-45150000D01*
X77440000Y-45150000D02*
X85220000Y-45150000D01*
X85220000Y-45150000D02*
X85220000Y-51150000D01*
X85220000Y-51150000D02*
X80520000Y-51150000D01*
X80520000Y-51150000D02*
X80520000Y-51160000D01*
X80520000Y-51160000D02*
X80520000Y-51160000D01*
X80520000Y-51160000D02*
X80520000Y-51160000D01*
M02*
