G04 #@! TF.FileFunction,Legend,Bot*
%FSLAX46Y46*%
G04 Gerber Fmt 4.6, Leading zero omitted, Abs format (unit mm)*
G04 Created by KiCad (PCBNEW 4.0.0-rc2-stable) date 3/3/2016 3:45:24 PM*
%MOMM*%
G01*
G04 APERTURE LIST*
%ADD10C,0.150000*%
%ADD11C,0.025400*%
G04 APERTURE END LIST*
D10*
D11*
G36*
X79162685Y-18874672D02*
X79162685Y-24501563D01*
X77775623Y-24541210D01*
X77772699Y-24541638D01*
X76625749Y-24848989D01*
X76621071Y-24851364D01*
X75751175Y-25551813D01*
X75747622Y-25556354D01*
X75179568Y-26779155D01*
X75178895Y-26780947D01*
X74386304Y-29495863D01*
X73488432Y-31805571D01*
X72441766Y-33744344D01*
X71196709Y-35347664D01*
X71194469Y-35352180D01*
X71194162Y-35357212D01*
X71196014Y-35362253D01*
X75851714Y-42706750D01*
X75851754Y-42706813D01*
X80506390Y-49954177D01*
X80506390Y-51140860D01*
X70937423Y-51140860D01*
X67421217Y-44870143D01*
X67421142Y-44870010D01*
X63854182Y-38684612D01*
X63850847Y-38680831D01*
X63846303Y-38678646D01*
X63842726Y-38678264D01*
X61895822Y-38747858D01*
X59764094Y-38771206D01*
X59759164Y-38772260D01*
X59755033Y-38775150D01*
X59752352Y-38779419D01*
X59751533Y-38783904D01*
X59750385Y-51140860D01*
X51347200Y-51140860D01*
X51347200Y-18737554D01*
X59750384Y-18737554D01*
X59750384Y-31279303D01*
X59751385Y-31284244D01*
X59754229Y-31288406D01*
X59758468Y-31291134D01*
X59762816Y-31292000D01*
X60922866Y-31316499D01*
X60923134Y-31316502D01*
X62220135Y-31316502D01*
X62221513Y-31316427D01*
X63496365Y-31177281D01*
X63499007Y-31176703D01*
X64540150Y-30829300D01*
X64544216Y-30827046D01*
X65547622Y-29998599D01*
X65550719Y-29994826D01*
X66240118Y-28714173D01*
X66241188Y-28711494D01*
X67422387Y-24379900D01*
X67902847Y-22951874D01*
X68601909Y-21627083D01*
X69561859Y-20464968D01*
X70821709Y-19523962D01*
X72388578Y-18841635D01*
X74267192Y-18460346D01*
X76512508Y-18448112D01*
X79162685Y-18874672D01*
X79162685Y-18874672D01*
G37*
X79162685Y-18874672D02*
X79162685Y-24501563D01*
X77775623Y-24541210D01*
X77772699Y-24541638D01*
X76625749Y-24848989D01*
X76621071Y-24851364D01*
X75751175Y-25551813D01*
X75747622Y-25556354D01*
X75179568Y-26779155D01*
X75178895Y-26780947D01*
X74386304Y-29495863D01*
X73488432Y-31805571D01*
X72441766Y-33744344D01*
X71196709Y-35347664D01*
X71194469Y-35352180D01*
X71194162Y-35357212D01*
X71196014Y-35362253D01*
X75851714Y-42706750D01*
X75851754Y-42706813D01*
X80506390Y-49954177D01*
X80506390Y-51140860D01*
X70937423Y-51140860D01*
X67421217Y-44870143D01*
X67421142Y-44870010D01*
X63854182Y-38684612D01*
X63850847Y-38680831D01*
X63846303Y-38678646D01*
X63842726Y-38678264D01*
X61895822Y-38747858D01*
X59764094Y-38771206D01*
X59759164Y-38772260D01*
X59755033Y-38775150D01*
X59752352Y-38779419D01*
X59751533Y-38783904D01*
X59750385Y-51140860D01*
X51347200Y-51140860D01*
X51347200Y-18737554D01*
X59750384Y-18737554D01*
X59750384Y-31279303D01*
X59751385Y-31284244D01*
X59754229Y-31288406D01*
X59758468Y-31291134D01*
X59762816Y-31292000D01*
X60922866Y-31316499D01*
X60923134Y-31316502D01*
X62220135Y-31316502D01*
X62221513Y-31316427D01*
X63496365Y-31177281D01*
X63499007Y-31176703D01*
X64540150Y-30829300D01*
X64544216Y-30827046D01*
X65547622Y-29998599D01*
X65550719Y-29994826D01*
X66240118Y-28714173D01*
X66241188Y-28711494D01*
X67422387Y-24379900D01*
X67902847Y-22951874D01*
X68601909Y-21627083D01*
X69561859Y-20464968D01*
X70821709Y-19523962D01*
X72388578Y-18841635D01*
X74267192Y-18460346D01*
X76512508Y-18448112D01*
X79162685Y-18874672D01*
M02*
