G04 #@! TF.FileFunction,Copper,L2,Bot,Signal*
%FSLAX46Y46*%
G04 Gerber Fmt 4.6, Leading zero omitted, Abs format (unit mm)*
G04 Created by KiCad (PCBNEW 4.0.0-rc2-stable) date 3/3/2016 3:46:29 PM*
%MOMM*%
G01*
G04 APERTURE LIST*
%ADD10C,0.150000*%
%ADD11C,0.500000*%
%ADD12R,4.000000X1.000000*%
%ADD13C,0.600000*%
%ADD14C,0.254000*%
%ADD15C,0.152400*%
G04 APERTURE END LIST*
D10*
D11*
X73838509Y-45208108D03*
X78094242Y-41126732D03*
X79364714Y-34933808D03*
X78193888Y-29058721D03*
X73938524Y-24638914D03*
X68085186Y-23115231D03*
X62140930Y-24649309D03*
X57882758Y-28785849D03*
X56603748Y-34852532D03*
X57778674Y-40840513D03*
X62030100Y-45214738D03*
X67892232Y-46716361D03*
D12*
X86986290Y-50192200D03*
X86986290Y-48192200D03*
X86986290Y-46192200D03*
D13*
X85986290Y-50192200D03*
X85986290Y-48192200D03*
X85986290Y-46192200D03*
D12*
X49020840Y-46192200D03*
X49020840Y-48192200D03*
X49020840Y-50192200D03*
D13*
X50020840Y-46192200D03*
X50020840Y-48192200D03*
X50020840Y-50192200D03*
D10*
G36*
X79355296Y-38320276D02*
X76444009Y-37596115D01*
X77071616Y-35073000D01*
X79982903Y-35797161D01*
X79355296Y-38320276D01*
X79355296Y-38320276D01*
G37*
G36*
X58467424Y-33639808D02*
X55556137Y-32915646D01*
X56425130Y-29422102D01*
X59336417Y-30146264D01*
X58467424Y-33639808D01*
X58467424Y-33639808D01*
G37*
D11*
X55602462Y-31072320D03*
D10*
G36*
X78300495Y-50788689D02*
X78292904Y-48788704D01*
X79052899Y-48785819D01*
X79060490Y-50785804D01*
X78300495Y-50788689D01*
X78300495Y-50788689D01*
G37*
G36*
X79570485Y-50783869D02*
X79562894Y-48783884D01*
X80322889Y-48780999D01*
X80330480Y-50780984D01*
X79570485Y-50783869D01*
X79570485Y-50783869D01*
G37*
G36*
X80840476Y-50779048D02*
X80832885Y-48779063D01*
X81592880Y-48776178D01*
X81600471Y-50776163D01*
X80840476Y-50779048D01*
X80840476Y-50779048D01*
G37*
G36*
X82110467Y-50774228D02*
X82102876Y-48774243D01*
X82862871Y-48771358D01*
X82870462Y-50771343D01*
X82110467Y-50774228D01*
X82110467Y-50774228D01*
G37*
G36*
X78288349Y-47588712D02*
X78280758Y-45588727D01*
X79040753Y-45585842D01*
X79048344Y-47585827D01*
X78288349Y-47588712D01*
X78288349Y-47588712D01*
G37*
G36*
X79558340Y-47583892D02*
X79550749Y-45583907D01*
X80310744Y-45581022D01*
X80318335Y-47581007D01*
X79558340Y-47583892D01*
X79558340Y-47583892D01*
G37*
G36*
X80828331Y-47579071D02*
X80820740Y-45579086D01*
X81580735Y-45576201D01*
X81588326Y-47576186D01*
X80828331Y-47579071D01*
X80828331Y-47579071D01*
G37*
G36*
X82108321Y-47574213D02*
X82100730Y-45574228D01*
X82840725Y-45571419D01*
X82848316Y-47571404D01*
X82108321Y-47574213D01*
X82108321Y-47574213D01*
G37*
G36*
X77018045Y-46193524D02*
X77015768Y-45593528D01*
X77915761Y-45590112D01*
X77918038Y-46190108D01*
X77018045Y-46193524D01*
X77018045Y-46193524D01*
G37*
G36*
X77023738Y-47693513D02*
X77021461Y-47093517D01*
X77921454Y-47090101D01*
X77923731Y-47690097D01*
X77023738Y-47693513D01*
X77023738Y-47693513D01*
G37*
G36*
X75773747Y-47698257D02*
X75771470Y-47098261D01*
X76671463Y-47094845D01*
X76673740Y-47694841D01*
X75773747Y-47698257D01*
X75773747Y-47698257D01*
G37*
G36*
X75768054Y-46198268D02*
X75765777Y-45598272D01*
X76665770Y-45594856D01*
X76668047Y-46194852D01*
X75768054Y-46198268D01*
X75768054Y-46198268D01*
G37*
G36*
X74518063Y-46203013D02*
X74515786Y-45603017D01*
X75415779Y-45599601D01*
X75418056Y-46199597D01*
X74518063Y-46203013D01*
X74518063Y-46203013D01*
G37*
G36*
X74523756Y-47703002D02*
X74521479Y-47103006D01*
X75421472Y-47099590D01*
X75423749Y-47699586D01*
X74523756Y-47703002D01*
X74523756Y-47703002D01*
G37*
G36*
X77672784Y-47441047D02*
X77672025Y-47241049D01*
X78572018Y-47237633D01*
X78572777Y-47437631D01*
X77672784Y-47441047D01*
X77672784Y-47441047D01*
G37*
G36*
X76225262Y-48096547D02*
X76224503Y-47896548D01*
X80024476Y-47882125D01*
X80025235Y-48082124D01*
X76225262Y-48096547D01*
X76225262Y-48096547D01*
G37*
G36*
X74876980Y-48551667D02*
X74876221Y-48351668D01*
X81376174Y-48326997D01*
X81376933Y-48526996D01*
X74876980Y-48551667D01*
X74876980Y-48551667D01*
G37*
G36*
X76224882Y-47996547D02*
X76223364Y-47596550D01*
X76423362Y-47595791D01*
X76424880Y-47995788D01*
X76224882Y-47996547D01*
X76224882Y-47996547D01*
G37*
G36*
X79824856Y-47982883D02*
X79823338Y-47582886D01*
X80023336Y-47582127D01*
X80024854Y-47982124D01*
X79824856Y-47982883D01*
X79824856Y-47982883D01*
G37*
G36*
X81176365Y-48377757D02*
X81173328Y-47577762D01*
X81373327Y-47577003D01*
X81376364Y-48376998D01*
X81176365Y-48377757D01*
X81176365Y-48377757D01*
G37*
G36*
X74876410Y-48401669D02*
X74873373Y-47601674D01*
X75073372Y-47600915D01*
X75076409Y-48400910D01*
X74876410Y-48401669D01*
X74876410Y-48401669D01*
G37*
G36*
X75267298Y-46000167D02*
X75266539Y-45800168D01*
X77266524Y-45792577D01*
X77267283Y-45992576D01*
X75267298Y-46000167D01*
X75267298Y-46000167D01*
G37*
D14*
X57450000Y-31530000D02*
X55600000Y-31070000D01*
X57450000Y-31530000D02*
X55600000Y-31070000D01*
X57450000Y-31530000D02*
X55600000Y-31070000D01*
X57450000Y-31530000D02*
X55600000Y-31070000D01*
X57450000Y-31530000D02*
X55600000Y-31070000D01*
X57450000Y-31530000D02*
X55600000Y-31070000D01*
X57450000Y-31530000D02*
X55600000Y-31070000D01*
X57450000Y-31530000D02*
X55600000Y-31070000D01*
X57450000Y-31530000D02*
X55600000Y-31070000D01*
X78210000Y-36700000D02*
X76270000Y-45900000D01*
X78210000Y-36700000D02*
X76270000Y-45900000D01*
X78210000Y-36700000D02*
X76270000Y-45900000D01*
X78210000Y-36700000D02*
X76270000Y-45900000D01*
X78210000Y-36700000D02*
X76270000Y-45900000D01*
X78210000Y-36700000D02*
X76270000Y-45900000D01*
X78210000Y-36700000D02*
X76270000Y-45900000D01*
X78210000Y-36700000D02*
X76270000Y-45900000D01*
X78210000Y-36700000D02*
X76270000Y-45900000D01*
D15*
G36*
X71081981Y-18805452D02*
X74034116Y-19582848D01*
X76796601Y-20890359D01*
X79248980Y-22692710D01*
X80342778Y-23766977D01*
X81309044Y-24977249D01*
X82937081Y-27809046D01*
X83533805Y-29403570D01*
X83976158Y-31133661D01*
X84232248Y-32995241D01*
X84321126Y-34990065D01*
X84232268Y-37004198D01*
X83966285Y-38875925D01*
X83524109Y-40615153D01*
X82907949Y-42209345D01*
X81288795Y-45010580D01*
X81282857Y-45028044D01*
X81272607Y-45043384D01*
X81265511Y-45079059D01*
X81253801Y-45113498D01*
X81254999Y-45131909D01*
X81251400Y-45150000D01*
X81258496Y-45185673D01*
X81260857Y-45221973D01*
X81269008Y-45238522D01*
X81272607Y-45256616D01*
X81292815Y-45286860D01*
X81308887Y-45319491D01*
X81322751Y-45331662D01*
X81331042Y-45344069D01*
X80819855Y-45346010D01*
X80735203Y-45362271D01*
X80657589Y-45412632D01*
X80605683Y-45489221D01*
X80587664Y-45579971D01*
X80595255Y-47579956D01*
X80611516Y-47664609D01*
X80661877Y-47742223D01*
X80738466Y-47794128D01*
X80829216Y-47812147D01*
X80941137Y-47811722D01*
X80942214Y-48095565D01*
X80254949Y-48098173D01*
X80258311Y-48081239D01*
X80257552Y-47881240D01*
X80257550Y-47881232D01*
X80257297Y-47814318D01*
X80319220Y-47814083D01*
X80403872Y-47797822D01*
X80481486Y-47747461D01*
X80533392Y-47670872D01*
X80551411Y-47580122D01*
X80543820Y-45580137D01*
X80527559Y-45495484D01*
X80477198Y-45417870D01*
X80400609Y-45365965D01*
X80309859Y-45347946D01*
X79549864Y-45350831D01*
X79465212Y-45367092D01*
X79387598Y-45417453D01*
X79335692Y-45494042D01*
X79317673Y-45584792D01*
X79325264Y-47584777D01*
X79338110Y-47651651D01*
X79268122Y-47651916D01*
X79281420Y-47584942D01*
X79273829Y-45584957D01*
X79257568Y-45500304D01*
X79207207Y-45422690D01*
X79130618Y-45370785D01*
X79039868Y-45352766D01*
X78279873Y-45355651D01*
X78195221Y-45371912D01*
X78117607Y-45422273D01*
X78097972Y-45451245D01*
X78082215Y-45426961D01*
X78005626Y-45375055D01*
X77914876Y-45357036D01*
X77014883Y-45360452D01*
X76930231Y-45376713D01*
X76852617Y-45427074D01*
X76840664Y-45444712D01*
X76832224Y-45431705D01*
X76755635Y-45379799D01*
X76743618Y-45377413D01*
X77509964Y-41743192D01*
X77619598Y-41852826D01*
X77643146Y-41829278D01*
X77751026Y-41904953D01*
X78074964Y-41977057D01*
X78224349Y-41967266D01*
X78288780Y-41803833D01*
X78037419Y-41294127D01*
X78000240Y-41312462D01*
X77871333Y-41183555D01*
X78261637Y-41183555D01*
X78512998Y-41693260D01*
X78681881Y-41741635D01*
X78872463Y-41469948D01*
X78944567Y-41146010D01*
X78934776Y-40996625D01*
X78771343Y-40932194D01*
X78261637Y-41183555D01*
X77871333Y-41183555D01*
X77828651Y-41140873D01*
X77585756Y-41383768D01*
X77620034Y-41221214D01*
X77926847Y-41069909D01*
X77908512Y-41032730D01*
X78080101Y-40861141D01*
X77762859Y-40543899D01*
X77782737Y-40449631D01*
X77899704Y-40449631D01*
X78151065Y-40959337D01*
X78660770Y-40707976D01*
X78709145Y-40539093D01*
X78437458Y-40348511D01*
X78113520Y-40276407D01*
X77964135Y-40286198D01*
X77899704Y-40449631D01*
X77782737Y-40449631D01*
X78239626Y-38282942D01*
X79299034Y-38546462D01*
X79385090Y-38551442D01*
X79472680Y-38521638D01*
X79541772Y-38460104D01*
X79581482Y-38376538D01*
X80209089Y-35853423D01*
X80214069Y-35767366D01*
X80184264Y-35679777D01*
X80122731Y-35610685D01*
X80039165Y-35570975D01*
X79798483Y-35511107D01*
X79798313Y-35489058D01*
X79374603Y-35110308D01*
X79321211Y-35170037D01*
X79144157Y-34992983D01*
X79188214Y-34943697D01*
X79166089Y-34923919D01*
X79541214Y-34923919D01*
X79964924Y-35302669D01*
X80139645Y-35284388D01*
X80214819Y-34961148D01*
X80160570Y-34633746D01*
X80095633Y-34498858D01*
X79919964Y-34500209D01*
X79541214Y-34923919D01*
X79166089Y-34923919D01*
X78764504Y-34564947D01*
X78589783Y-34583228D01*
X78514609Y-34906468D01*
X78563911Y-35204017D01*
X77127878Y-34846814D01*
X77041822Y-34841834D01*
X76954232Y-34871638D01*
X76885140Y-34933172D01*
X76845430Y-35016738D01*
X76217823Y-37539853D01*
X76212843Y-37625910D01*
X76242648Y-37713499D01*
X76304181Y-37782591D01*
X76387747Y-37822301D01*
X77549010Y-38111157D01*
X76019558Y-45364229D01*
X75764892Y-45365196D01*
X75680240Y-45381457D01*
X75602626Y-45431818D01*
X75590672Y-45449456D01*
X75582233Y-45436450D01*
X75505644Y-45384544D01*
X75414894Y-45366525D01*
X74514901Y-45369941D01*
X74430249Y-45386202D01*
X74352635Y-45436563D01*
X74338812Y-45456961D01*
X74104100Y-45222249D01*
X73959452Y-45366897D01*
X73929737Y-45359526D01*
X73917503Y-45408846D01*
X73852650Y-45473699D01*
X73891723Y-45512772D01*
X73792909Y-45911124D01*
X73890724Y-46057047D01*
X74211625Y-45972444D01*
X74283900Y-45917446D01*
X74284987Y-46203898D01*
X74301248Y-46288550D01*
X74351609Y-46366164D01*
X74428198Y-46418070D01*
X74518948Y-46436089D01*
X75418941Y-46432673D01*
X75503593Y-46416412D01*
X75581207Y-46366051D01*
X75593161Y-46348413D01*
X75601600Y-46361419D01*
X75678189Y-46413325D01*
X75768939Y-46431344D01*
X76668932Y-46427928D01*
X76753584Y-46411667D01*
X76831198Y-46361306D01*
X76843151Y-46343668D01*
X76851591Y-46356675D01*
X76928180Y-46408581D01*
X77018930Y-46426600D01*
X77918923Y-46423184D01*
X78003575Y-46406923D01*
X78050668Y-46376366D01*
X78052667Y-46903067D01*
X78011319Y-46875044D01*
X77920569Y-46857025D01*
X77020576Y-46860441D01*
X76935924Y-46876702D01*
X76858310Y-46927063D01*
X76846357Y-46944701D01*
X76837917Y-46931694D01*
X76761328Y-46879788D01*
X76670578Y-46861769D01*
X75770585Y-46865185D01*
X75685933Y-46881446D01*
X75608319Y-46931807D01*
X75596365Y-46949445D01*
X75587926Y-46936439D01*
X75511337Y-46884533D01*
X75420587Y-46866514D01*
X74520594Y-46869930D01*
X74435942Y-46886191D01*
X74358328Y-46936552D01*
X74306422Y-47013141D01*
X74288403Y-47103891D01*
X74290035Y-47533813D01*
X74245188Y-47765520D01*
X74243800Y-47780000D01*
X74243800Y-49066645D01*
X74220228Y-49333800D01*
X74194554Y-49333800D01*
X73949079Y-49304343D01*
X73922542Y-49305827D01*
X73895060Y-49318463D01*
X73874659Y-49340795D01*
X73814659Y-49440795D01*
X73806769Y-49458937D01*
X73804344Y-49489087D01*
X73813840Y-49517806D01*
X73853840Y-49587806D01*
X73885922Y-49618155D01*
X74085922Y-49718155D01*
X74124475Y-49726069D01*
X74294475Y-49716069D01*
X74318673Y-49710599D01*
X74343882Y-49693882D01*
X74533882Y-49503882D01*
X74548444Y-49483494D01*
X74556083Y-49454227D01*
X74566055Y-49274724D01*
X74596015Y-48845303D01*
X74596185Y-48841524D01*
X74606185Y-48341524D01*
X74606200Y-48340000D01*
X74606200Y-47935768D01*
X74641561Y-47935634D01*
X74643334Y-48402554D01*
X74643335Y-48402558D01*
X74643904Y-48552552D01*
X74660165Y-48637204D01*
X74710526Y-48714818D01*
X74787115Y-48766724D01*
X74877865Y-48784743D01*
X74956757Y-48784444D01*
X75054772Y-49392134D01*
X75061845Y-49414078D01*
X75161845Y-49614078D01*
X75184938Y-49641448D01*
X75484938Y-49861448D01*
X75522023Y-49875781D01*
X75712023Y-49895781D01*
X75726899Y-49895887D01*
X75836899Y-49885887D01*
X75875202Y-49871345D01*
X76065202Y-49731345D01*
X76087682Y-49705008D01*
X76237682Y-49415008D01*
X76244128Y-49397649D01*
X76344128Y-48977649D01*
X76345766Y-48968118D01*
X76366019Y-48779095D01*
X77708644Y-48773999D01*
X77709149Y-48907125D01*
X77711275Y-49467066D01*
X77857878Y-49612561D01*
X78498223Y-49610130D01*
X78498147Y-49590130D01*
X78853745Y-49588781D01*
X78853821Y-49608780D01*
X79127867Y-49607740D01*
X79127868Y-49607741D01*
X79768213Y-49605310D01*
X79768137Y-49585310D01*
X80123735Y-49583961D01*
X80123811Y-49603960D01*
X80764156Y-49601530D01*
X80764157Y-49601529D01*
X81038204Y-49600489D01*
X81038128Y-49580489D01*
X81393726Y-49579140D01*
X81393802Y-49599139D01*
X81667849Y-49598099D01*
X81667850Y-49598100D01*
X82308195Y-49595669D01*
X82303412Y-48335328D01*
X82302053Y-48333979D01*
X82659009Y-48333979D01*
X82663793Y-49594319D01*
X83304138Y-49591889D01*
X83449633Y-49445286D01*
X83447508Y-48885345D01*
X83446625Y-48652937D01*
X83356872Y-48438558D01*
X83191912Y-48274844D01*
X82976858Y-48186721D01*
X82804504Y-48187375D01*
X82659009Y-48333979D01*
X82302053Y-48333979D01*
X82156808Y-48189834D01*
X81984455Y-48190488D01*
X81845880Y-48248505D01*
X81706867Y-48191541D01*
X81608741Y-48191913D01*
X81607275Y-47805792D01*
X81673863Y-47793001D01*
X81751477Y-47742640D01*
X81803383Y-47666051D01*
X81821402Y-47575301D01*
X81813811Y-45575316D01*
X81797550Y-45490663D01*
X81757279Y-45428600D01*
X81923465Y-45428600D01*
X81885673Y-45484363D01*
X81867654Y-45575113D01*
X81875245Y-47575098D01*
X81891506Y-47659751D01*
X81941867Y-47737365D01*
X82018456Y-47789270D01*
X82109206Y-47807289D01*
X82849201Y-47804480D01*
X82933853Y-47788219D01*
X83011467Y-47737858D01*
X83063373Y-47661269D01*
X83081392Y-47570519D01*
X83073801Y-45570534D01*
X83057540Y-45485881D01*
X83020372Y-45428600D01*
X84463143Y-45428600D01*
X84402090Y-45575995D01*
X84402090Y-45868350D01*
X84548140Y-46014400D01*
X85118370Y-46014400D01*
X85086878Y-46130533D01*
X85117672Y-46370000D01*
X84548140Y-46370000D01*
X84402090Y-46516050D01*
X84402090Y-46808405D01*
X84491029Y-47023123D01*
X84655368Y-47187461D01*
X84870086Y-47276400D01*
X86662440Y-47276400D01*
X86808490Y-47130350D01*
X86808490Y-46538598D01*
X86885702Y-46253867D01*
X86852336Y-45994400D01*
X87164090Y-45994400D01*
X87164090Y-46014400D01*
X87184090Y-46014400D01*
X87184090Y-46370000D01*
X87164090Y-46370000D01*
X87164090Y-47130350D01*
X87310140Y-47276400D01*
X89021400Y-47276400D01*
X89021400Y-47466232D01*
X88986290Y-47459122D01*
X84986290Y-47459122D01*
X84901576Y-47475062D01*
X84823772Y-47525128D01*
X84771575Y-47601520D01*
X84753212Y-47692200D01*
X84753212Y-48692200D01*
X84769152Y-48776914D01*
X84819218Y-48854718D01*
X84895610Y-48906915D01*
X84986290Y-48925278D01*
X88986290Y-48925278D01*
X89021400Y-48918672D01*
X89021400Y-49108000D01*
X87310140Y-49108000D01*
X87164090Y-49254050D01*
X87164090Y-50014400D01*
X87184090Y-50014400D01*
X87184090Y-50370000D01*
X87164090Y-50370000D01*
X87164090Y-50390000D01*
X86848786Y-50390000D01*
X86885702Y-50253867D01*
X86840837Y-49904983D01*
X86808490Y-49826890D01*
X86808490Y-49254050D01*
X86662440Y-49108000D01*
X84870086Y-49108000D01*
X84655368Y-49196939D01*
X84491029Y-49361277D01*
X84402090Y-49575995D01*
X84402090Y-49868350D01*
X84548140Y-50014400D01*
X85118370Y-50014400D01*
X85086878Y-50130533D01*
X85117672Y-50370000D01*
X84548140Y-50370000D01*
X84402090Y-50516050D01*
X84402090Y-50808405D01*
X84428183Y-50871400D01*
X83455046Y-50871400D01*
X83454217Y-50652922D01*
X83452091Y-50092981D01*
X83305488Y-49947486D01*
X82665143Y-49949917D01*
X82665219Y-49969917D01*
X82309621Y-49971266D01*
X82309545Y-49951267D01*
X82035498Y-49952307D01*
X82035497Y-49952306D01*
X81395152Y-49954737D01*
X81395228Y-49974737D01*
X81039630Y-49976086D01*
X81039554Y-49956087D01*
X80399209Y-49958517D01*
X80399208Y-49958518D01*
X80125161Y-49959558D01*
X80125237Y-49979558D01*
X79769639Y-49980907D01*
X79769563Y-49960908D01*
X79495517Y-49961948D01*
X79495516Y-49961947D01*
X78855171Y-49964378D01*
X78855247Y-49984378D01*
X78499649Y-49985727D01*
X78499573Y-49965728D01*
X77859228Y-49968158D01*
X77713733Y-50114761D01*
X77715858Y-50674702D01*
X77716605Y-50871400D01*
X71920000Y-50871400D01*
X71884624Y-50878437D01*
X71848619Y-50880699D01*
X71042669Y-51094325D01*
X68009888Y-51340493D01*
X64947228Y-51094298D01*
X64141381Y-50880700D01*
X64105381Y-50878438D01*
X64070000Y-50871400D01*
X51578947Y-50871400D01*
X51605040Y-50808405D01*
X51605040Y-50516050D01*
X51458990Y-50370000D01*
X50888760Y-50370000D01*
X50920252Y-50253867D01*
X50889458Y-50014400D01*
X51458990Y-50014400D01*
X51605040Y-49868350D01*
X51605040Y-49575995D01*
X51516101Y-49361277D01*
X51351762Y-49196939D01*
X51137044Y-49108000D01*
X49344690Y-49108000D01*
X49198640Y-49254050D01*
X49198640Y-49845802D01*
X49121428Y-50130533D01*
X49154794Y-50390000D01*
X48843040Y-50390000D01*
X48843040Y-50370000D01*
X48823040Y-50370000D01*
X48823040Y-50014400D01*
X48843040Y-50014400D01*
X48843040Y-49254050D01*
X48696990Y-49108000D01*
X46908600Y-49108000D01*
X46908600Y-48950000D01*
X62663800Y-48950000D01*
X62663800Y-49120000D01*
X62663994Y-49125429D01*
X62673994Y-49265429D01*
X62675751Y-49277134D01*
X62735751Y-49537134D01*
X62745210Y-49560108D01*
X62875210Y-49770108D01*
X62889025Y-49786639D01*
X63089025Y-49966639D01*
X63101605Y-49975820D01*
X63221605Y-50045820D01*
X63260000Y-50056200D01*
X63400000Y-50056200D01*
X63412527Y-50055163D01*
X63472527Y-50045163D01*
X63503430Y-50032612D01*
X63524368Y-50010783D01*
X63535163Y-49982527D01*
X63545163Y-49922527D01*
X63546200Y-49910000D01*
X63546200Y-49850000D01*
X63533605Y-49808038D01*
X63512268Y-49786598D01*
X63281960Y-49633059D01*
X63086725Y-49391339D01*
X63026200Y-49235705D01*
X63026200Y-49024221D01*
X63043833Y-48865524D01*
X63341115Y-48386037D01*
X63626463Y-48071170D01*
X63645163Y-48032527D01*
X63675163Y-47852527D01*
X63676200Y-47840000D01*
X63676200Y-47640000D01*
X63672290Y-47615903D01*
X63610957Y-47431904D01*
X63923824Y-47431904D01*
X63953811Y-48631394D01*
X63963800Y-49400528D01*
X63963800Y-49500000D01*
X63964837Y-49512527D01*
X63974837Y-49572527D01*
X63987388Y-49603430D01*
X64009217Y-49624368D01*
X64037473Y-49635163D01*
X64097473Y-49645163D01*
X64110000Y-49646200D01*
X64180000Y-49646200D01*
X64194944Y-49644720D01*
X64244944Y-49634720D01*
X64273430Y-49622612D01*
X64294368Y-49600783D01*
X64305163Y-49572527D01*
X64315163Y-49512527D01*
X64316158Y-49497461D01*
X64296173Y-48897915D01*
X64288059Y-48516551D01*
X64440549Y-48535612D01*
X64450000Y-48536200D01*
X64587041Y-48536200D01*
X64603872Y-48923310D01*
X64604536Y-48930565D01*
X64674536Y-49430565D01*
X64682999Y-49456295D01*
X64702398Y-49479502D01*
X64752398Y-49519502D01*
X64770354Y-49530197D01*
X64800000Y-49536200D01*
X64870000Y-49536200D01*
X64884944Y-49534720D01*
X64934944Y-49524720D01*
X64966775Y-49510154D01*
X64986493Y-49487217D01*
X64995734Y-49458415D01*
X65005734Y-49368415D01*
X65005998Y-49354453D01*
X64905998Y-47984453D01*
X64905687Y-47981170D01*
X64878726Y-47750071D01*
X64994468Y-47750071D01*
X65014468Y-47900071D01*
X65018872Y-47917337D01*
X65035112Y-47942855D01*
X65295112Y-48212855D01*
X65313707Y-48227002D01*
X65517125Y-48337187D01*
X65544013Y-48695699D01*
X65551845Y-48724078D01*
X65579746Y-48779880D01*
X65545615Y-48933470D01*
X65543800Y-48950000D01*
X65543800Y-49770000D01*
X65544837Y-49782527D01*
X65554837Y-49842527D01*
X65567388Y-49873430D01*
X65589217Y-49894368D01*
X65617473Y-49905163D01*
X65677473Y-49915163D01*
X65690000Y-49916200D01*
X65800000Y-49916200D01*
X65824630Y-49912110D01*
X65850745Y-49896846D01*
X65868863Y-49872625D01*
X65876130Y-49843263D01*
X65906012Y-49146011D01*
X65935698Y-48888734D01*
X65930039Y-48849983D01*
X65916832Y-48819166D01*
X65921816Y-48814556D01*
X65934280Y-48786996D01*
X65935041Y-48756758D01*
X65906200Y-48593326D01*
X65906200Y-48030000D01*
X65904720Y-48015056D01*
X65894720Y-47965056D01*
X65874621Y-47926868D01*
X65864900Y-47920226D01*
X65881906Y-47904430D01*
X65894315Y-47876845D01*
X65895013Y-47846605D01*
X65845013Y-47566605D01*
X65834617Y-47539614D01*
X65684617Y-47299614D01*
X65673675Y-47289398D01*
X66013802Y-47289398D01*
X66019571Y-47319090D01*
X66208168Y-47775694D01*
X66414291Y-48452955D01*
X66423845Y-48672684D01*
X66443829Y-49392116D01*
X66444732Y-49401884D01*
X66504732Y-49781884D01*
X66509011Y-49797695D01*
X66525379Y-49823132D01*
X66550354Y-49840197D01*
X66580000Y-49846200D01*
X66680000Y-49846200D01*
X66710017Y-49840039D01*
X66780017Y-49810039D01*
X66807998Y-49789423D01*
X66822657Y-49762964D01*
X66825867Y-49732887D01*
X66803949Y-49499087D01*
X67084344Y-49499087D01*
X67093840Y-49527806D01*
X67133840Y-49597806D01*
X67163278Y-49626768D01*
X67363278Y-49736768D01*
X67378287Y-49743041D01*
X67408415Y-49745734D01*
X67588415Y-49725734D01*
X67608673Y-49720599D01*
X67633882Y-49703882D01*
X67823882Y-49513882D01*
X67838335Y-49493717D01*
X67846069Y-49464475D01*
X67856055Y-49294718D01*
X67886023Y-48855183D01*
X67886200Y-48850000D01*
X67886200Y-48554073D01*
X68174031Y-48554073D01*
X68177710Y-48584097D01*
X68245756Y-48788235D01*
X68344772Y-49402134D01*
X68351845Y-49424078D01*
X68451845Y-49624078D01*
X68472650Y-49649703D01*
X68762650Y-49879703D01*
X68802418Y-49895822D01*
X69002418Y-49915822D01*
X69023631Y-49914971D01*
X69133631Y-49894971D01*
X69165202Y-49881345D01*
X69355202Y-49741345D01*
X69378155Y-49714078D01*
X69518155Y-49434078D01*
X69523823Y-49418885D01*
X69633823Y-48988885D01*
X69635734Y-48978415D01*
X69665734Y-48708415D01*
X69666200Y-48700000D01*
X69666200Y-48660000D01*
X69665707Y-48651348D01*
X69625707Y-48301348D01*
X69624083Y-48292165D01*
X69494083Y-47752165D01*
X69486611Y-47732994D01*
X69294648Y-47387459D01*
X70804166Y-47387459D01*
X70924166Y-48607459D01*
X70924524Y-48610483D01*
X71074524Y-49690483D01*
X71075945Y-49697953D01*
X71155945Y-50027953D01*
X71164165Y-50048370D01*
X71184280Y-50070960D01*
X71224280Y-50100960D01*
X71248104Y-50112986D01*
X71348104Y-50142986D01*
X71370000Y-50146200D01*
X71400000Y-50146200D01*
X71434004Y-50138192D01*
X71457855Y-50119590D01*
X71565511Y-49993991D01*
X71598239Y-50085629D01*
X71606020Y-50101388D01*
X71627163Y-50123019D01*
X71655056Y-50134720D01*
X71705056Y-50144720D01*
X71720000Y-50146200D01*
X71780000Y-50146200D01*
X71794944Y-50144720D01*
X71844944Y-50134720D01*
X71873016Y-50122897D01*
X71894098Y-50101206D01*
X71984098Y-49961206D01*
X71994532Y-49935858D01*
X72094532Y-49465858D01*
X72095976Y-49455844D01*
X72135976Y-48935844D01*
X72136200Y-48930000D01*
X72136200Y-47860000D01*
X72533800Y-47860000D01*
X72533800Y-48410000D01*
X72533845Y-48412626D01*
X72543845Y-48702626D01*
X72544228Y-48708061D01*
X72594228Y-49178061D01*
X72596732Y-49190934D01*
X72696732Y-49540934D01*
X72706598Y-49562268D01*
X72866598Y-49802268D01*
X72886302Y-49822425D01*
X72986302Y-49892425D01*
X73000354Y-49900197D01*
X73030000Y-49906200D01*
X73130000Y-49906200D01*
X73139451Y-49905612D01*
X73219451Y-49895612D01*
X73259221Y-49878170D01*
X73389221Y-49768170D01*
X73406611Y-49747006D01*
X73456611Y-49657006D01*
X73466171Y-49622105D01*
X73460989Y-49592305D01*
X73450532Y-49576054D01*
X73488768Y-49565601D01*
X73511236Y-49545350D01*
X73524055Y-49517953D01*
X73604055Y-49187953D01*
X73605790Y-49177895D01*
X73655790Y-48697895D01*
X73656131Y-48686760D01*
X73636131Y-48216760D01*
X73633652Y-48200460D01*
X73503652Y-47710460D01*
X73493402Y-47687732D01*
X73353402Y-47477732D01*
X73336782Y-47459851D01*
X73246782Y-47389851D01*
X73229646Y-47379803D01*
X73200000Y-47373800D01*
X72960000Y-47373800D01*
X72937271Y-47377269D01*
X72777271Y-47427269D01*
X72740774Y-47452055D01*
X72570774Y-47662055D01*
X72554468Y-47699929D01*
X72534468Y-47849929D01*
X72533800Y-47860000D01*
X72136200Y-47860000D01*
X72136200Y-47790000D01*
X72135678Y-47781097D01*
X72095678Y-47441097D01*
X72090989Y-47422305D01*
X72074621Y-47396868D01*
X72049646Y-47379803D01*
X72020000Y-47373800D01*
X71920000Y-47373800D01*
X71898845Y-47376795D01*
X71872031Y-47390793D01*
X71852776Y-47414120D01*
X71844113Y-47443101D01*
X71835415Y-47538783D01*
X71811845Y-47585922D01*
X71803917Y-47624227D01*
X71833858Y-48163170D01*
X71843800Y-48521072D01*
X71843800Y-48588223D01*
X71823998Y-49013959D01*
X71787932Y-49334046D01*
X71785840Y-49312601D01*
X71784720Y-49305056D01*
X71694720Y-48855056D01*
X71687001Y-48833705D01*
X71667602Y-48810498D01*
X71617602Y-48770498D01*
X71599646Y-48759803D01*
X71570000Y-48753800D01*
X71540000Y-48753800D01*
X71511700Y-48759250D01*
X71461700Y-48779250D01*
X71436606Y-48795636D01*
X71419662Y-48820692D01*
X71369662Y-48940692D01*
X71363800Y-48970000D01*
X71363800Y-49010000D01*
X71371845Y-49044078D01*
X71391162Y-49082712D01*
X71366655Y-49251809D01*
X71305835Y-48632552D01*
X71305630Y-48630701D01*
X71155630Y-47410701D01*
X71146896Y-47383511D01*
X71086896Y-47273511D01*
X71074621Y-47256868D01*
X71049646Y-47239803D01*
X71020000Y-47233800D01*
X70950000Y-47233800D01*
X70925903Y-47237710D01*
X70865903Y-47257710D01*
X70848612Y-47266020D01*
X70826981Y-47287163D01*
X70815280Y-47315056D01*
X70805280Y-47365056D01*
X70804166Y-47387459D01*
X69294648Y-47387459D01*
X69286611Y-47372994D01*
X69263374Y-47347349D01*
X69003374Y-47167349D01*
X68964753Y-47153948D01*
X68804753Y-47143948D01*
X68785056Y-47145280D01*
X68735056Y-47155280D01*
X68708038Y-47166395D01*
X68686598Y-47187732D01*
X68626598Y-47277732D01*
X68614878Y-47307225D01*
X68615827Y-47337458D01*
X68628463Y-47364940D01*
X68650795Y-47385341D01*
X68986881Y-47586993D01*
X69110947Y-47764229D01*
X69264209Y-48243173D01*
X69273800Y-48521321D01*
X69273800Y-48656004D01*
X69234913Y-49025434D01*
X69139265Y-49360200D01*
X69073720Y-49474904D01*
X69058893Y-49483800D01*
X68897913Y-49483800D01*
X68805065Y-49405237D01*
X68675739Y-49035731D01*
X68666200Y-48768652D01*
X68666200Y-48731564D01*
X68783882Y-48613882D01*
X68800197Y-48589646D01*
X68806200Y-48560000D01*
X68806200Y-48520000D01*
X68798155Y-48485922D01*
X68778155Y-48445922D01*
X68755720Y-48419040D01*
X68675720Y-48359040D01*
X68659646Y-48349803D01*
X68630000Y-48343800D01*
X68450000Y-48343800D01*
X68440549Y-48344388D01*
X68360549Y-48354388D01*
X68326302Y-48367575D01*
X68226302Y-48437575D01*
X68212781Y-48449677D01*
X68197710Y-48475903D01*
X68177710Y-48535903D01*
X68174031Y-48554073D01*
X67886200Y-48554073D01*
X67886200Y-47562963D01*
X68192442Y-47512162D01*
X68327318Y-47447199D01*
X68325935Y-47271530D01*
X67902154Y-46892859D01*
X67523483Y-47316640D01*
X67541796Y-47491357D01*
X67579567Y-47500134D01*
X67534772Y-47777866D01*
X67533800Y-47790000D01*
X67533800Y-49075534D01*
X67502239Y-49343800D01*
X67474747Y-49343800D01*
X67239451Y-49314388D01*
X67217795Y-49314784D01*
X67189494Y-49325458D01*
X67167575Y-49346302D01*
X67097575Y-49446302D01*
X67086769Y-49468937D01*
X67084344Y-49499087D01*
X66803949Y-49499087D01*
X66736031Y-48774640D01*
X66717717Y-48390047D01*
X66743882Y-48363882D01*
X66762559Y-48333274D01*
X66932559Y-47803274D01*
X66934013Y-47798126D01*
X67054013Y-47308126D01*
X67056200Y-47290000D01*
X67056200Y-47220000D01*
X67050989Y-47192305D01*
X67034621Y-47166868D01*
X67009646Y-47149803D01*
X66980000Y-47143800D01*
X66920000Y-47143800D01*
X66885922Y-47151845D01*
X66825922Y-47181845D01*
X66804682Y-47197594D01*
X66788652Y-47223244D01*
X66638652Y-47623244D01*
X66636580Y-47629606D01*
X66583133Y-47822016D01*
X66511670Y-47624119D01*
X66509137Y-47617961D01*
X66319137Y-47207961D01*
X66298782Y-47181462D01*
X66238782Y-47131462D01*
X66205304Y-47115353D01*
X66175056Y-47115280D01*
X66125056Y-47125280D01*
X66093035Y-47139994D01*
X66073389Y-47162994D01*
X66023389Y-47252994D01*
X66013802Y-47289398D01*
X65673675Y-47289398D01*
X65655859Y-47272765D01*
X65505859Y-47192765D01*
X65470000Y-47183800D01*
X65310000Y-47183800D01*
X65270795Y-47194659D01*
X65170795Y-47254659D01*
X65143232Y-47283278D01*
X65033232Y-47483278D01*
X65024499Y-47509704D01*
X65010184Y-47614675D01*
X64994499Y-47729704D01*
X64994468Y-47750071D01*
X64878726Y-47750071D01*
X64835687Y-47381170D01*
X64831134Y-47362680D01*
X64814901Y-47337157D01*
X64790017Y-47319961D01*
X64720017Y-47289961D01*
X64690000Y-47283800D01*
X64660000Y-47283800D01*
X64620791Y-47294662D01*
X64598460Y-47315064D01*
X64585826Y-47342547D01*
X64545826Y-47512547D01*
X64543800Y-47530000D01*
X64543800Y-47910000D01*
X64544293Y-47918652D01*
X64574596Y-48183800D01*
X64523172Y-48183800D01*
X64415432Y-48174822D01*
X64295444Y-48134826D01*
X64285180Y-48121995D01*
X64276144Y-47887071D01*
X64275560Y-47880144D01*
X64215560Y-47420144D01*
X64210989Y-47402305D01*
X64194621Y-47376868D01*
X64169646Y-47359803D01*
X64140000Y-47353800D01*
X64000000Y-47353800D01*
X63970539Y-47359726D01*
X63945519Y-47376724D01*
X63929084Y-47402118D01*
X63923824Y-47431904D01*
X63610957Y-47431904D01*
X63602290Y-47405903D01*
X63583882Y-47376118D01*
X63363882Y-47156118D01*
X63348124Y-47144023D01*
X63319451Y-47134388D01*
X63159451Y-47114388D01*
X63150000Y-47113800D01*
X63120000Y-47113800D01*
X63091700Y-47119250D01*
X63041700Y-47139250D01*
X63028038Y-47146395D01*
X63006598Y-47167732D01*
X62946598Y-47257732D01*
X62933800Y-47300000D01*
X62933800Y-47360000D01*
X62939011Y-47387695D01*
X62955379Y-47413132D01*
X62980354Y-47430197D01*
X63010000Y-47436200D01*
X63162799Y-47436200D01*
X63243726Y-47502414D01*
X63346433Y-47647914D01*
X63352832Y-47705513D01*
X63328930Y-47809089D01*
X63070518Y-48191922D01*
X62825073Y-48447185D01*
X62809590Y-48470865D01*
X62689590Y-48760865D01*
X62684388Y-48780549D01*
X62664388Y-48940549D01*
X62663800Y-48950000D01*
X46908600Y-48950000D01*
X46908600Y-48892184D01*
X46930160Y-48906915D01*
X47020840Y-48925278D01*
X51020840Y-48925278D01*
X51105554Y-48909338D01*
X51183358Y-48859272D01*
X51235555Y-48782880D01*
X51253918Y-48692200D01*
X51253918Y-47692200D01*
X51237978Y-47607486D01*
X51187912Y-47529682D01*
X51111520Y-47477485D01*
X51020840Y-47459122D01*
X47020840Y-47459122D01*
X46936126Y-47475062D01*
X46908600Y-47492775D01*
X46908600Y-47276400D01*
X48696990Y-47276400D01*
X48843040Y-47130350D01*
X48843040Y-46370000D01*
X48823040Y-46370000D01*
X48823040Y-46014400D01*
X48843040Y-46014400D01*
X48843040Y-45994400D01*
X49158344Y-45994400D01*
X49121428Y-46130533D01*
X49166293Y-46479417D01*
X49198640Y-46557510D01*
X49198640Y-47130350D01*
X49344690Y-47276400D01*
X51137044Y-47276400D01*
X51351762Y-47187461D01*
X51516101Y-47023123D01*
X51605040Y-46808405D01*
X51605040Y-46689179D01*
X67042122Y-46689179D01*
X67096431Y-47016571D01*
X67161394Y-47151447D01*
X67337063Y-47150064D01*
X67715734Y-46726283D01*
X67693527Y-46706439D01*
X68068730Y-46706439D01*
X68492511Y-47085110D01*
X68667228Y-47066797D01*
X68742342Y-46743543D01*
X68688033Y-46416151D01*
X68623070Y-46281275D01*
X68447401Y-46282658D01*
X68068730Y-46706439D01*
X67693527Y-46706439D01*
X67291953Y-46347612D01*
X67117236Y-46365925D01*
X67042122Y-46689179D01*
X51605040Y-46689179D01*
X51605040Y-46516050D01*
X51458990Y-46370000D01*
X50888760Y-46370000D01*
X50920252Y-46253867D01*
X50889458Y-46014400D01*
X51458990Y-46014400D01*
X51605040Y-45868350D01*
X51605040Y-45747163D01*
X61366814Y-45747163D01*
X61621054Y-45960464D01*
X61937567Y-46060233D01*
X62087241Y-46063360D01*
X62125986Y-45985523D01*
X67457146Y-45985523D01*
X67458529Y-46161192D01*
X67882310Y-46539863D01*
X68260981Y-46116082D01*
X68242668Y-45941365D01*
X67919414Y-45866251D01*
X67592022Y-45920560D01*
X67457146Y-45985523D01*
X62125986Y-45985523D01*
X62165525Y-45906092D01*
X61959054Y-45376610D01*
X61429571Y-45583080D01*
X61366814Y-45747163D01*
X51605040Y-45747163D01*
X51605040Y-45575995D01*
X51543987Y-45428600D01*
X54410000Y-45428600D01*
X54428454Y-45424929D01*
X54447235Y-45426101D01*
X54481300Y-45414418D01*
X54516616Y-45407393D01*
X54532260Y-45396940D01*
X54550060Y-45390835D01*
X54577061Y-45367004D01*
X54607000Y-45347000D01*
X54617453Y-45331356D01*
X54631562Y-45318904D01*
X54647388Y-45286556D01*
X54657194Y-45271879D01*
X61181478Y-45271879D01*
X61338746Y-45350163D01*
X61503841Y-45285784D01*
X62191972Y-45285784D01*
X62398442Y-45815267D01*
X62562525Y-45878024D01*
X62775826Y-45623784D01*
X62875595Y-45307271D01*
X62876575Y-45260323D01*
X72989570Y-45260323D01*
X73074173Y-45581224D01*
X73275140Y-45845321D01*
X73395588Y-45934225D01*
X73550263Y-45850934D01*
X73687091Y-45299336D01*
X73135493Y-45162508D01*
X72989570Y-45260323D01*
X62876575Y-45260323D01*
X62878722Y-45157597D01*
X62796924Y-45116880D01*
X73989927Y-45116880D01*
X74541525Y-45253708D01*
X74687448Y-45155893D01*
X74602845Y-44834992D01*
X74401878Y-44570895D01*
X74281430Y-44481991D01*
X74126755Y-44565282D01*
X73989927Y-45116880D01*
X62796924Y-45116880D01*
X62721454Y-45079313D01*
X62191972Y-45285784D01*
X61503841Y-45285784D01*
X61868228Y-45143692D01*
X61661758Y-44614209D01*
X61497675Y-44551452D01*
X61284374Y-44805692D01*
X61184605Y-45122205D01*
X61181478Y-45271879D01*
X54657194Y-45271879D01*
X54667393Y-45256616D01*
X54671064Y-45238161D01*
X54679333Y-45221259D01*
X54681575Y-45185317D01*
X54688600Y-45150000D01*
X54684929Y-45131546D01*
X54686101Y-45112765D01*
X54674418Y-45078700D01*
X54667393Y-45043384D01*
X54656940Y-45027740D01*
X54650835Y-45009940D01*
X54367874Y-44523384D01*
X61894675Y-44523384D01*
X62101146Y-45052866D01*
X62630629Y-44846396D01*
X62661689Y-44765187D01*
X73112392Y-44765187D01*
X73195683Y-44919862D01*
X73747281Y-45056690D01*
X73884109Y-44505092D01*
X73786294Y-44359169D01*
X73465393Y-44443772D01*
X73201296Y-44644739D01*
X73112392Y-44765187D01*
X62661689Y-44765187D01*
X62693386Y-44682313D01*
X62439146Y-44469012D01*
X62122633Y-44369243D01*
X61972959Y-44366116D01*
X61894675Y-44523384D01*
X54367874Y-44523384D01*
X53021919Y-42209001D01*
X52542467Y-40968512D01*
X56937817Y-40968512D01*
X57050806Y-41280551D01*
X57274607Y-41525598D01*
X57402530Y-41603363D01*
X57491235Y-41544788D01*
X57796187Y-41544788D01*
X57906673Y-41681370D01*
X58218712Y-41568381D01*
X58463759Y-41344580D01*
X58541524Y-41216657D01*
X58444721Y-41070060D01*
X57883090Y-40983157D01*
X57796187Y-41544788D01*
X57491235Y-41544788D01*
X57549127Y-41506560D01*
X57636030Y-40944929D01*
X57074399Y-40858026D01*
X56937817Y-40968512D01*
X52542467Y-40968512D01*
X52452638Y-40736097D01*
X57921318Y-40736097D01*
X58482949Y-40823000D01*
X58619531Y-40712514D01*
X58506542Y-40400475D01*
X58282741Y-40155428D01*
X58154818Y-40077663D01*
X58008221Y-40174466D01*
X57921318Y-40736097D01*
X52452638Y-40736097D01*
X52405891Y-40615151D01*
X52367557Y-40464369D01*
X57015824Y-40464369D01*
X57112627Y-40610966D01*
X57674258Y-40697869D01*
X57761161Y-40136238D01*
X57650675Y-39999656D01*
X57338636Y-40112645D01*
X57093589Y-40336446D01*
X57015824Y-40464369D01*
X52367557Y-40464369D01*
X51963715Y-38875925D01*
X51697732Y-37004197D01*
X51629287Y-35452754D01*
X56234907Y-35452754D01*
X56253193Y-35627475D01*
X56576435Y-35702638D01*
X56903835Y-35648379D01*
X57038722Y-35583437D01*
X57037365Y-35407768D01*
X56613643Y-35029032D01*
X56234907Y-35452754D01*
X51629287Y-35452754D01*
X51608870Y-34989974D01*
X51616103Y-34825219D01*
X55753642Y-34825219D01*
X55807901Y-35152619D01*
X55872843Y-35287506D01*
X56048512Y-35286149D01*
X56427248Y-34862427D01*
X56405108Y-34842637D01*
X56780248Y-34842637D01*
X57203970Y-35221373D01*
X57378691Y-35203087D01*
X57422833Y-35013250D01*
X59582372Y-35013250D01*
X59752372Y-37043250D01*
X59760175Y-37070398D01*
X59762697Y-37098530D01*
X60282697Y-38868530D01*
X60296460Y-38894831D01*
X60305291Y-38923175D01*
X61105291Y-40393175D01*
X61123656Y-40415213D01*
X61137592Y-40440279D01*
X62147592Y-41630279D01*
X62171012Y-41648860D01*
X62190764Y-41671308D01*
X63380764Y-42581308D01*
X63405976Y-42593689D01*
X63428364Y-42610644D01*
X64788364Y-43270644D01*
X64811374Y-43276654D01*
X64832488Y-43287600D01*
X66282489Y-43707600D01*
X66306686Y-43709676D01*
X66329854Y-43716964D01*
X67799854Y-43876964D01*
X67823224Y-43874904D01*
X67846467Y-43878113D01*
X69366467Y-43788113D01*
X69390987Y-43781708D01*
X69416305Y-43780595D01*
X70926304Y-43410595D01*
X70950247Y-43399421D01*
X70975957Y-43393322D01*
X72395957Y-42743322D01*
X72419189Y-42726539D01*
X72445143Y-42714379D01*
X73695143Y-41794379D01*
X73716807Y-41770651D01*
X73742019Y-41750737D01*
X74782019Y-40530737D01*
X74795684Y-40506282D01*
X74813770Y-40484886D01*
X75643770Y-38984886D01*
X75652724Y-38956842D01*
X75666602Y-38930879D01*
X76206602Y-37150879D01*
X76209452Y-37121944D01*
X76217563Y-37094020D01*
X76397563Y-35014020D01*
X76394939Y-34990266D01*
X76397609Y-34966520D01*
X76333024Y-34202889D01*
X78929764Y-34202889D01*
X78931115Y-34378558D01*
X79354825Y-34757308D01*
X79733575Y-34333598D01*
X79715294Y-34158877D01*
X79392054Y-34083703D01*
X79064652Y-34137952D01*
X78929764Y-34202889D01*
X76333024Y-34202889D01*
X76227609Y-32956521D01*
X76219696Y-32929079D01*
X76217059Y-32900645D01*
X75697059Y-31150645D01*
X75683596Y-31125108D01*
X75675086Y-31097521D01*
X74875086Y-29617521D01*
X74856900Y-29595571D01*
X74843151Y-29570599D01*
X74517376Y-29183539D01*
X77352553Y-29183539D01*
X77464361Y-29496003D01*
X77687234Y-29741895D01*
X77814862Y-29820143D01*
X77902027Y-29763058D01*
X78208738Y-29763058D01*
X78318706Y-29900056D01*
X78631170Y-29788248D01*
X78877062Y-29565375D01*
X78955310Y-29437747D01*
X78859063Y-29290784D01*
X78297764Y-29201759D01*
X78208738Y-29763058D01*
X77902027Y-29763058D01*
X77961825Y-29723896D01*
X78050850Y-29162597D01*
X77489551Y-29073571D01*
X77352553Y-29183539D01*
X74517376Y-29183539D01*
X74324892Y-28954845D01*
X78336926Y-28954845D01*
X78898225Y-29043871D01*
X79035223Y-28933903D01*
X78923415Y-28621439D01*
X78700542Y-28375547D01*
X78572914Y-28297299D01*
X78425951Y-28393546D01*
X78336926Y-28954845D01*
X74324892Y-28954845D01*
X74093307Y-28679695D01*
X77432466Y-28679695D01*
X77528713Y-28826658D01*
X78090012Y-28915683D01*
X78179038Y-28354384D01*
X78069070Y-28217386D01*
X77756606Y-28329194D01*
X77510714Y-28552067D01*
X77432466Y-28679695D01*
X74093307Y-28679695D01*
X73833150Y-28370598D01*
X73811049Y-28352915D01*
X73792692Y-28331379D01*
X72602692Y-27391379D01*
X72577924Y-27378728D01*
X72556053Y-27361548D01*
X71196053Y-26671548D01*
X71171642Y-26664709D01*
X71149209Y-26652897D01*
X69699210Y-26222897D01*
X69675075Y-26220672D01*
X69652005Y-26213244D01*
X68182006Y-26043245D01*
X68156794Y-26045297D01*
X68131711Y-26042001D01*
X66611711Y-26142001D01*
X66586446Y-26148777D01*
X66560330Y-26150252D01*
X65050330Y-26540252D01*
X65027355Y-26551325D01*
X65002574Y-26557356D01*
X63582574Y-27217356D01*
X63558940Y-27234640D01*
X63532555Y-27247334D01*
X62282555Y-28187334D01*
X62262889Y-28209324D01*
X62239580Y-28227404D01*
X61189580Y-29437404D01*
X61174750Y-29463404D01*
X61155543Y-29486363D01*
X60335543Y-30986363D01*
X60326879Y-31013986D01*
X60313273Y-31039535D01*
X59773273Y-32829535D01*
X59770488Y-32858261D01*
X59762437Y-32885980D01*
X59582437Y-34965980D01*
X59585049Y-34989622D01*
X59582372Y-35013250D01*
X57422833Y-35013250D01*
X57453854Y-34879845D01*
X57399595Y-34552445D01*
X57334653Y-34417558D01*
X57158984Y-34418915D01*
X56780248Y-34842637D01*
X56405108Y-34842637D01*
X56003526Y-34483691D01*
X55828805Y-34501977D01*
X55753642Y-34825219D01*
X51616103Y-34825219D01*
X51646992Y-34121627D01*
X56168774Y-34121627D01*
X56170131Y-34297296D01*
X56593853Y-34676032D01*
X56972589Y-34252310D01*
X56954303Y-34077589D01*
X56631061Y-34002426D01*
X56303661Y-34056685D01*
X56168774Y-34121627D01*
X51646992Y-34121627D01*
X51697737Y-32965770D01*
X51953337Y-31167102D01*
X55123779Y-31167102D01*
X55196488Y-31343071D01*
X55331003Y-31477820D01*
X55506845Y-31550836D01*
X55655410Y-31550966D01*
X55329951Y-32859384D01*
X55324971Y-32945440D01*
X55354775Y-33033030D01*
X55416309Y-33102122D01*
X55499875Y-33141832D01*
X58411162Y-33865994D01*
X58497219Y-33870974D01*
X58584808Y-33841169D01*
X58653900Y-33779636D01*
X58693610Y-33696070D01*
X59562603Y-30202526D01*
X59567583Y-30116470D01*
X59537779Y-30028880D01*
X59476245Y-29959788D01*
X59392679Y-29920078D01*
X58032508Y-29581745D01*
X58079173Y-29462408D01*
X57826400Y-28953401D01*
X57317393Y-29206174D01*
X57269487Y-29375191D01*
X57306843Y-29401241D01*
X56481392Y-29195916D01*
X56395335Y-29190936D01*
X56307746Y-29220741D01*
X56238654Y-29282274D01*
X56198944Y-29365840D01*
X55875053Y-30667954D01*
X55873921Y-30666820D01*
X55698079Y-30593804D01*
X55507680Y-30593637D01*
X55331711Y-30666346D01*
X55196962Y-30800861D01*
X55123946Y-30976703D01*
X55123779Y-31167102D01*
X51953337Y-31167102D01*
X51963741Y-31093889D01*
X52406029Y-29344396D01*
X52627092Y-28768929D01*
X57032383Y-28768929D01*
X57042588Y-28918286D01*
X57206199Y-28982264D01*
X57488230Y-28842207D01*
X58050310Y-28842207D01*
X58303083Y-29351214D01*
X58472100Y-29399120D01*
X58661928Y-29126906D01*
X58733133Y-28802769D01*
X58722928Y-28653412D01*
X58559317Y-28589434D01*
X58050310Y-28842207D01*
X57488230Y-28842207D01*
X57715206Y-28729491D01*
X57462433Y-28220484D01*
X57293416Y-28172578D01*
X57103588Y-28444792D01*
X57032383Y-28768929D01*
X52627092Y-28768929D01*
X52880490Y-28109290D01*
X57686343Y-28109290D01*
X57939116Y-28618297D01*
X58448123Y-28365524D01*
X58496029Y-28196507D01*
X58223815Y-28006679D01*
X57899678Y-27935474D01*
X57750321Y-27945679D01*
X57686343Y-28109290D01*
X52880490Y-28109290D01*
X53022202Y-27740390D01*
X54670418Y-24888087D01*
X54816565Y-24706864D01*
X61292336Y-24706864D01*
X61378956Y-25027226D01*
X61581581Y-25290053D01*
X61702586Y-25378198D01*
X61749417Y-25352598D01*
X62099754Y-25352598D01*
X62198485Y-25497903D01*
X62518847Y-25411283D01*
X62781674Y-25208658D01*
X62811707Y-25167428D01*
X73272117Y-25167428D01*
X73525098Y-25382220D01*
X73841019Y-25483850D01*
X73990671Y-25487858D01*
X74069879Y-25331053D01*
X73866527Y-24800365D01*
X73335839Y-25003717D01*
X73272117Y-25167428D01*
X62811707Y-25167428D01*
X62869819Y-25087653D01*
X62785556Y-24933505D01*
X62233109Y-24800150D01*
X62099754Y-25352598D01*
X61749417Y-25352598D01*
X61856734Y-25293935D01*
X61990089Y-24741488D01*
X61781186Y-24691061D01*
X73089580Y-24691061D01*
X73246385Y-24770269D01*
X73401291Y-24710911D01*
X74099975Y-24710911D01*
X74303327Y-25241599D01*
X74467038Y-25305321D01*
X74681830Y-25052340D01*
X74783460Y-24736419D01*
X74787468Y-24586767D01*
X74630663Y-24507559D01*
X74099975Y-24710911D01*
X73401291Y-24710911D01*
X73777073Y-24566917D01*
X73573721Y-24036229D01*
X73410010Y-23972507D01*
X73195218Y-24225488D01*
X73093588Y-24541409D01*
X73089580Y-24691061D01*
X61781186Y-24691061D01*
X61437641Y-24608133D01*
X61292336Y-24706864D01*
X54816565Y-24706864D01*
X54937318Y-24557130D01*
X62291771Y-24557130D01*
X62844219Y-24690485D01*
X62989524Y-24591754D01*
X62902904Y-24271392D01*
X62700279Y-24008565D01*
X62579274Y-23920420D01*
X62425126Y-24004683D01*
X62291771Y-24557130D01*
X54937318Y-24557130D01*
X55216483Y-24210965D01*
X61412041Y-24210965D01*
X61496304Y-24365113D01*
X62048751Y-24498468D01*
X62182106Y-23946020D01*
X62083375Y-23800715D01*
X61763013Y-23887335D01*
X61500186Y-24089960D01*
X61412041Y-24210965D01*
X55216483Y-24210965D01*
X55615839Y-23715764D01*
X67716851Y-23715764D01*
X67735285Y-23890469D01*
X68058590Y-23965359D01*
X68170143Y-23946775D01*
X73807169Y-23946775D01*
X74010521Y-24477463D01*
X74541209Y-24274111D01*
X74604931Y-24110400D01*
X74351950Y-23895608D01*
X74036029Y-23793978D01*
X73886377Y-23789970D01*
X73807169Y-23946775D01*
X68170143Y-23946775D01*
X68385944Y-23910824D01*
X68520776Y-23845769D01*
X68519271Y-23670101D01*
X68095230Y-23291722D01*
X67716851Y-23715764D01*
X55615839Y-23715764D01*
X55646742Y-23677445D01*
X56246161Y-23088635D01*
X67235058Y-23088635D01*
X67289593Y-23415989D01*
X67354648Y-23550821D01*
X67530316Y-23549316D01*
X67908695Y-23125275D01*
X67886183Y-23105187D01*
X68261677Y-23105187D01*
X68685719Y-23483566D01*
X68860424Y-23465132D01*
X68935314Y-23141827D01*
X68880779Y-22814473D01*
X68815724Y-22679641D01*
X68640056Y-22681146D01*
X68261677Y-23105187D01*
X67886183Y-23105187D01*
X67484653Y-22746896D01*
X67309948Y-22765330D01*
X67235058Y-23088635D01*
X56246161Y-23088635D01*
X56749937Y-22593776D01*
X57041035Y-22384693D01*
X67649596Y-22384693D01*
X67651101Y-22560361D01*
X68075142Y-22938740D01*
X68453521Y-22514698D01*
X68435087Y-22339993D01*
X68111782Y-22265103D01*
X67784428Y-22319638D01*
X67649596Y-22384693D01*
X57041035Y-22384693D01*
X59230377Y-20812190D01*
X62012825Y-19543866D01*
X64995795Y-18785817D01*
X68058947Y-18539583D01*
X71081981Y-18805452D01*
X71081981Y-18805452D01*
G37*
X71081981Y-18805452D02*
X74034116Y-19582848D01*
X76796601Y-20890359D01*
X79248980Y-22692710D01*
X80342778Y-23766977D01*
X81309044Y-24977249D01*
X82937081Y-27809046D01*
X83533805Y-29403570D01*
X83976158Y-31133661D01*
X84232248Y-32995241D01*
X84321126Y-34990065D01*
X84232268Y-37004198D01*
X83966285Y-38875925D01*
X83524109Y-40615153D01*
X82907949Y-42209345D01*
X81288795Y-45010580D01*
X81282857Y-45028044D01*
X81272607Y-45043384D01*
X81265511Y-45079059D01*
X81253801Y-45113498D01*
X81254999Y-45131909D01*
X81251400Y-45150000D01*
X81258496Y-45185673D01*
X81260857Y-45221973D01*
X81269008Y-45238522D01*
X81272607Y-45256616D01*
X81292815Y-45286860D01*
X81308887Y-45319491D01*
X81322751Y-45331662D01*
X81331042Y-45344069D01*
X80819855Y-45346010D01*
X80735203Y-45362271D01*
X80657589Y-45412632D01*
X80605683Y-45489221D01*
X80587664Y-45579971D01*
X80595255Y-47579956D01*
X80611516Y-47664609D01*
X80661877Y-47742223D01*
X80738466Y-47794128D01*
X80829216Y-47812147D01*
X80941137Y-47811722D01*
X80942214Y-48095565D01*
X80254949Y-48098173D01*
X80258311Y-48081239D01*
X80257552Y-47881240D01*
X80257550Y-47881232D01*
X80257297Y-47814318D01*
X80319220Y-47814083D01*
X80403872Y-47797822D01*
X80481486Y-47747461D01*
X80533392Y-47670872D01*
X80551411Y-47580122D01*
X80543820Y-45580137D01*
X80527559Y-45495484D01*
X80477198Y-45417870D01*
X80400609Y-45365965D01*
X80309859Y-45347946D01*
X79549864Y-45350831D01*
X79465212Y-45367092D01*
X79387598Y-45417453D01*
X79335692Y-45494042D01*
X79317673Y-45584792D01*
X79325264Y-47584777D01*
X79338110Y-47651651D01*
X79268122Y-47651916D01*
X79281420Y-47584942D01*
X79273829Y-45584957D01*
X79257568Y-45500304D01*
X79207207Y-45422690D01*
X79130618Y-45370785D01*
X79039868Y-45352766D01*
X78279873Y-45355651D01*
X78195221Y-45371912D01*
X78117607Y-45422273D01*
X78097972Y-45451245D01*
X78082215Y-45426961D01*
X78005626Y-45375055D01*
X77914876Y-45357036D01*
X77014883Y-45360452D01*
X76930231Y-45376713D01*
X76852617Y-45427074D01*
X76840664Y-45444712D01*
X76832224Y-45431705D01*
X76755635Y-45379799D01*
X76743618Y-45377413D01*
X77509964Y-41743192D01*
X77619598Y-41852826D01*
X77643146Y-41829278D01*
X77751026Y-41904953D01*
X78074964Y-41977057D01*
X78224349Y-41967266D01*
X78288780Y-41803833D01*
X78037419Y-41294127D01*
X78000240Y-41312462D01*
X77871333Y-41183555D01*
X78261637Y-41183555D01*
X78512998Y-41693260D01*
X78681881Y-41741635D01*
X78872463Y-41469948D01*
X78944567Y-41146010D01*
X78934776Y-40996625D01*
X78771343Y-40932194D01*
X78261637Y-41183555D01*
X77871333Y-41183555D01*
X77828651Y-41140873D01*
X77585756Y-41383768D01*
X77620034Y-41221214D01*
X77926847Y-41069909D01*
X77908512Y-41032730D01*
X78080101Y-40861141D01*
X77762859Y-40543899D01*
X77782737Y-40449631D01*
X77899704Y-40449631D01*
X78151065Y-40959337D01*
X78660770Y-40707976D01*
X78709145Y-40539093D01*
X78437458Y-40348511D01*
X78113520Y-40276407D01*
X77964135Y-40286198D01*
X77899704Y-40449631D01*
X77782737Y-40449631D01*
X78239626Y-38282942D01*
X79299034Y-38546462D01*
X79385090Y-38551442D01*
X79472680Y-38521638D01*
X79541772Y-38460104D01*
X79581482Y-38376538D01*
X80209089Y-35853423D01*
X80214069Y-35767366D01*
X80184264Y-35679777D01*
X80122731Y-35610685D01*
X80039165Y-35570975D01*
X79798483Y-35511107D01*
X79798313Y-35489058D01*
X79374603Y-35110308D01*
X79321211Y-35170037D01*
X79144157Y-34992983D01*
X79188214Y-34943697D01*
X79166089Y-34923919D01*
X79541214Y-34923919D01*
X79964924Y-35302669D01*
X80139645Y-35284388D01*
X80214819Y-34961148D01*
X80160570Y-34633746D01*
X80095633Y-34498858D01*
X79919964Y-34500209D01*
X79541214Y-34923919D01*
X79166089Y-34923919D01*
X78764504Y-34564947D01*
X78589783Y-34583228D01*
X78514609Y-34906468D01*
X78563911Y-35204017D01*
X77127878Y-34846814D01*
X77041822Y-34841834D01*
X76954232Y-34871638D01*
X76885140Y-34933172D01*
X76845430Y-35016738D01*
X76217823Y-37539853D01*
X76212843Y-37625910D01*
X76242648Y-37713499D01*
X76304181Y-37782591D01*
X76387747Y-37822301D01*
X77549010Y-38111157D01*
X76019558Y-45364229D01*
X75764892Y-45365196D01*
X75680240Y-45381457D01*
X75602626Y-45431818D01*
X75590672Y-45449456D01*
X75582233Y-45436450D01*
X75505644Y-45384544D01*
X75414894Y-45366525D01*
X74514901Y-45369941D01*
X74430249Y-45386202D01*
X74352635Y-45436563D01*
X74338812Y-45456961D01*
X74104100Y-45222249D01*
X73959452Y-45366897D01*
X73929737Y-45359526D01*
X73917503Y-45408846D01*
X73852650Y-45473699D01*
X73891723Y-45512772D01*
X73792909Y-45911124D01*
X73890724Y-46057047D01*
X74211625Y-45972444D01*
X74283900Y-45917446D01*
X74284987Y-46203898D01*
X74301248Y-46288550D01*
X74351609Y-46366164D01*
X74428198Y-46418070D01*
X74518948Y-46436089D01*
X75418941Y-46432673D01*
X75503593Y-46416412D01*
X75581207Y-46366051D01*
X75593161Y-46348413D01*
X75601600Y-46361419D01*
X75678189Y-46413325D01*
X75768939Y-46431344D01*
X76668932Y-46427928D01*
X76753584Y-46411667D01*
X76831198Y-46361306D01*
X76843151Y-46343668D01*
X76851591Y-46356675D01*
X76928180Y-46408581D01*
X77018930Y-46426600D01*
X77918923Y-46423184D01*
X78003575Y-46406923D01*
X78050668Y-46376366D01*
X78052667Y-46903067D01*
X78011319Y-46875044D01*
X77920569Y-46857025D01*
X77020576Y-46860441D01*
X76935924Y-46876702D01*
X76858310Y-46927063D01*
X76846357Y-46944701D01*
X76837917Y-46931694D01*
X76761328Y-46879788D01*
X76670578Y-46861769D01*
X75770585Y-46865185D01*
X75685933Y-46881446D01*
X75608319Y-46931807D01*
X75596365Y-46949445D01*
X75587926Y-46936439D01*
X75511337Y-46884533D01*
X75420587Y-46866514D01*
X74520594Y-46869930D01*
X74435942Y-46886191D01*
X74358328Y-46936552D01*
X74306422Y-47013141D01*
X74288403Y-47103891D01*
X74290035Y-47533813D01*
X74245188Y-47765520D01*
X74243800Y-47780000D01*
X74243800Y-49066645D01*
X74220228Y-49333800D01*
X74194554Y-49333800D01*
X73949079Y-49304343D01*
X73922542Y-49305827D01*
X73895060Y-49318463D01*
X73874659Y-49340795D01*
X73814659Y-49440795D01*
X73806769Y-49458937D01*
X73804344Y-49489087D01*
X73813840Y-49517806D01*
X73853840Y-49587806D01*
X73885922Y-49618155D01*
X74085922Y-49718155D01*
X74124475Y-49726069D01*
X74294475Y-49716069D01*
X74318673Y-49710599D01*
X74343882Y-49693882D01*
X74533882Y-49503882D01*
X74548444Y-49483494D01*
X74556083Y-49454227D01*
X74566055Y-49274724D01*
X74596015Y-48845303D01*
X74596185Y-48841524D01*
X74606185Y-48341524D01*
X74606200Y-48340000D01*
X74606200Y-47935768D01*
X74641561Y-47935634D01*
X74643334Y-48402554D01*
X74643335Y-48402558D01*
X74643904Y-48552552D01*
X74660165Y-48637204D01*
X74710526Y-48714818D01*
X74787115Y-48766724D01*
X74877865Y-48784743D01*
X74956757Y-48784444D01*
X75054772Y-49392134D01*
X75061845Y-49414078D01*
X75161845Y-49614078D01*
X75184938Y-49641448D01*
X75484938Y-49861448D01*
X75522023Y-49875781D01*
X75712023Y-49895781D01*
X75726899Y-49895887D01*
X75836899Y-49885887D01*
X75875202Y-49871345D01*
X76065202Y-49731345D01*
X76087682Y-49705008D01*
X76237682Y-49415008D01*
X76244128Y-49397649D01*
X76344128Y-48977649D01*
X76345766Y-48968118D01*
X76366019Y-48779095D01*
X77708644Y-48773999D01*
X77709149Y-48907125D01*
X77711275Y-49467066D01*
X77857878Y-49612561D01*
X78498223Y-49610130D01*
X78498147Y-49590130D01*
X78853745Y-49588781D01*
X78853821Y-49608780D01*
X79127867Y-49607740D01*
X79127868Y-49607741D01*
X79768213Y-49605310D01*
X79768137Y-49585310D01*
X80123735Y-49583961D01*
X80123811Y-49603960D01*
X80764156Y-49601530D01*
X80764157Y-49601529D01*
X81038204Y-49600489D01*
X81038128Y-49580489D01*
X81393726Y-49579140D01*
X81393802Y-49599139D01*
X81667849Y-49598099D01*
X81667850Y-49598100D01*
X82308195Y-49595669D01*
X82303412Y-48335328D01*
X82302053Y-48333979D01*
X82659009Y-48333979D01*
X82663793Y-49594319D01*
X83304138Y-49591889D01*
X83449633Y-49445286D01*
X83447508Y-48885345D01*
X83446625Y-48652937D01*
X83356872Y-48438558D01*
X83191912Y-48274844D01*
X82976858Y-48186721D01*
X82804504Y-48187375D01*
X82659009Y-48333979D01*
X82302053Y-48333979D01*
X82156808Y-48189834D01*
X81984455Y-48190488D01*
X81845880Y-48248505D01*
X81706867Y-48191541D01*
X81608741Y-48191913D01*
X81607275Y-47805792D01*
X81673863Y-47793001D01*
X81751477Y-47742640D01*
X81803383Y-47666051D01*
X81821402Y-47575301D01*
X81813811Y-45575316D01*
X81797550Y-45490663D01*
X81757279Y-45428600D01*
X81923465Y-45428600D01*
X81885673Y-45484363D01*
X81867654Y-45575113D01*
X81875245Y-47575098D01*
X81891506Y-47659751D01*
X81941867Y-47737365D01*
X82018456Y-47789270D01*
X82109206Y-47807289D01*
X82849201Y-47804480D01*
X82933853Y-47788219D01*
X83011467Y-47737858D01*
X83063373Y-47661269D01*
X83081392Y-47570519D01*
X83073801Y-45570534D01*
X83057540Y-45485881D01*
X83020372Y-45428600D01*
X84463143Y-45428600D01*
X84402090Y-45575995D01*
X84402090Y-45868350D01*
X84548140Y-46014400D01*
X85118370Y-46014400D01*
X85086878Y-46130533D01*
X85117672Y-46370000D01*
X84548140Y-46370000D01*
X84402090Y-46516050D01*
X84402090Y-46808405D01*
X84491029Y-47023123D01*
X84655368Y-47187461D01*
X84870086Y-47276400D01*
X86662440Y-47276400D01*
X86808490Y-47130350D01*
X86808490Y-46538598D01*
X86885702Y-46253867D01*
X86852336Y-45994400D01*
X87164090Y-45994400D01*
X87164090Y-46014400D01*
X87184090Y-46014400D01*
X87184090Y-46370000D01*
X87164090Y-46370000D01*
X87164090Y-47130350D01*
X87310140Y-47276400D01*
X89021400Y-47276400D01*
X89021400Y-47466232D01*
X88986290Y-47459122D01*
X84986290Y-47459122D01*
X84901576Y-47475062D01*
X84823772Y-47525128D01*
X84771575Y-47601520D01*
X84753212Y-47692200D01*
X84753212Y-48692200D01*
X84769152Y-48776914D01*
X84819218Y-48854718D01*
X84895610Y-48906915D01*
X84986290Y-48925278D01*
X88986290Y-48925278D01*
X89021400Y-48918672D01*
X89021400Y-49108000D01*
X87310140Y-49108000D01*
X87164090Y-49254050D01*
X87164090Y-50014400D01*
X87184090Y-50014400D01*
X87184090Y-50370000D01*
X87164090Y-50370000D01*
X87164090Y-50390000D01*
X86848786Y-50390000D01*
X86885702Y-50253867D01*
X86840837Y-49904983D01*
X86808490Y-49826890D01*
X86808490Y-49254050D01*
X86662440Y-49108000D01*
X84870086Y-49108000D01*
X84655368Y-49196939D01*
X84491029Y-49361277D01*
X84402090Y-49575995D01*
X84402090Y-49868350D01*
X84548140Y-50014400D01*
X85118370Y-50014400D01*
X85086878Y-50130533D01*
X85117672Y-50370000D01*
X84548140Y-50370000D01*
X84402090Y-50516050D01*
X84402090Y-50808405D01*
X84428183Y-50871400D01*
X83455046Y-50871400D01*
X83454217Y-50652922D01*
X83452091Y-50092981D01*
X83305488Y-49947486D01*
X82665143Y-49949917D01*
X82665219Y-49969917D01*
X82309621Y-49971266D01*
X82309545Y-49951267D01*
X82035498Y-49952307D01*
X82035497Y-49952306D01*
X81395152Y-49954737D01*
X81395228Y-49974737D01*
X81039630Y-49976086D01*
X81039554Y-49956087D01*
X80399209Y-49958517D01*
X80399208Y-49958518D01*
X80125161Y-49959558D01*
X80125237Y-49979558D01*
X79769639Y-49980907D01*
X79769563Y-49960908D01*
X79495517Y-49961948D01*
X79495516Y-49961947D01*
X78855171Y-49964378D01*
X78855247Y-49984378D01*
X78499649Y-49985727D01*
X78499573Y-49965728D01*
X77859228Y-49968158D01*
X77713733Y-50114761D01*
X77715858Y-50674702D01*
X77716605Y-50871400D01*
X71920000Y-50871400D01*
X71884624Y-50878437D01*
X71848619Y-50880699D01*
X71042669Y-51094325D01*
X68009888Y-51340493D01*
X64947228Y-51094298D01*
X64141381Y-50880700D01*
X64105381Y-50878438D01*
X64070000Y-50871400D01*
X51578947Y-50871400D01*
X51605040Y-50808405D01*
X51605040Y-50516050D01*
X51458990Y-50370000D01*
X50888760Y-50370000D01*
X50920252Y-50253867D01*
X50889458Y-50014400D01*
X51458990Y-50014400D01*
X51605040Y-49868350D01*
X51605040Y-49575995D01*
X51516101Y-49361277D01*
X51351762Y-49196939D01*
X51137044Y-49108000D01*
X49344690Y-49108000D01*
X49198640Y-49254050D01*
X49198640Y-49845802D01*
X49121428Y-50130533D01*
X49154794Y-50390000D01*
X48843040Y-50390000D01*
X48843040Y-50370000D01*
X48823040Y-50370000D01*
X48823040Y-50014400D01*
X48843040Y-50014400D01*
X48843040Y-49254050D01*
X48696990Y-49108000D01*
X46908600Y-49108000D01*
X46908600Y-48950000D01*
X62663800Y-48950000D01*
X62663800Y-49120000D01*
X62663994Y-49125429D01*
X62673994Y-49265429D01*
X62675751Y-49277134D01*
X62735751Y-49537134D01*
X62745210Y-49560108D01*
X62875210Y-49770108D01*
X62889025Y-49786639D01*
X63089025Y-49966639D01*
X63101605Y-49975820D01*
X63221605Y-50045820D01*
X63260000Y-50056200D01*
X63400000Y-50056200D01*
X63412527Y-50055163D01*
X63472527Y-50045163D01*
X63503430Y-50032612D01*
X63524368Y-50010783D01*
X63535163Y-49982527D01*
X63545163Y-49922527D01*
X63546200Y-49910000D01*
X63546200Y-49850000D01*
X63533605Y-49808038D01*
X63512268Y-49786598D01*
X63281960Y-49633059D01*
X63086725Y-49391339D01*
X63026200Y-49235705D01*
X63026200Y-49024221D01*
X63043833Y-48865524D01*
X63341115Y-48386037D01*
X63626463Y-48071170D01*
X63645163Y-48032527D01*
X63675163Y-47852527D01*
X63676200Y-47840000D01*
X63676200Y-47640000D01*
X63672290Y-47615903D01*
X63610957Y-47431904D01*
X63923824Y-47431904D01*
X63953811Y-48631394D01*
X63963800Y-49400528D01*
X63963800Y-49500000D01*
X63964837Y-49512527D01*
X63974837Y-49572527D01*
X63987388Y-49603430D01*
X64009217Y-49624368D01*
X64037473Y-49635163D01*
X64097473Y-49645163D01*
X64110000Y-49646200D01*
X64180000Y-49646200D01*
X64194944Y-49644720D01*
X64244944Y-49634720D01*
X64273430Y-49622612D01*
X64294368Y-49600783D01*
X64305163Y-49572527D01*
X64315163Y-49512527D01*
X64316158Y-49497461D01*
X64296173Y-48897915D01*
X64288059Y-48516551D01*
X64440549Y-48535612D01*
X64450000Y-48536200D01*
X64587041Y-48536200D01*
X64603872Y-48923310D01*
X64604536Y-48930565D01*
X64674536Y-49430565D01*
X64682999Y-49456295D01*
X64702398Y-49479502D01*
X64752398Y-49519502D01*
X64770354Y-49530197D01*
X64800000Y-49536200D01*
X64870000Y-49536200D01*
X64884944Y-49534720D01*
X64934944Y-49524720D01*
X64966775Y-49510154D01*
X64986493Y-49487217D01*
X64995734Y-49458415D01*
X65005734Y-49368415D01*
X65005998Y-49354453D01*
X64905998Y-47984453D01*
X64905687Y-47981170D01*
X64878726Y-47750071D01*
X64994468Y-47750071D01*
X65014468Y-47900071D01*
X65018872Y-47917337D01*
X65035112Y-47942855D01*
X65295112Y-48212855D01*
X65313707Y-48227002D01*
X65517125Y-48337187D01*
X65544013Y-48695699D01*
X65551845Y-48724078D01*
X65579746Y-48779880D01*
X65545615Y-48933470D01*
X65543800Y-48950000D01*
X65543800Y-49770000D01*
X65544837Y-49782527D01*
X65554837Y-49842527D01*
X65567388Y-49873430D01*
X65589217Y-49894368D01*
X65617473Y-49905163D01*
X65677473Y-49915163D01*
X65690000Y-49916200D01*
X65800000Y-49916200D01*
X65824630Y-49912110D01*
X65850745Y-49896846D01*
X65868863Y-49872625D01*
X65876130Y-49843263D01*
X65906012Y-49146011D01*
X65935698Y-48888734D01*
X65930039Y-48849983D01*
X65916832Y-48819166D01*
X65921816Y-48814556D01*
X65934280Y-48786996D01*
X65935041Y-48756758D01*
X65906200Y-48593326D01*
X65906200Y-48030000D01*
X65904720Y-48015056D01*
X65894720Y-47965056D01*
X65874621Y-47926868D01*
X65864900Y-47920226D01*
X65881906Y-47904430D01*
X65894315Y-47876845D01*
X65895013Y-47846605D01*
X65845013Y-47566605D01*
X65834617Y-47539614D01*
X65684617Y-47299614D01*
X65673675Y-47289398D01*
X66013802Y-47289398D01*
X66019571Y-47319090D01*
X66208168Y-47775694D01*
X66414291Y-48452955D01*
X66423845Y-48672684D01*
X66443829Y-49392116D01*
X66444732Y-49401884D01*
X66504732Y-49781884D01*
X66509011Y-49797695D01*
X66525379Y-49823132D01*
X66550354Y-49840197D01*
X66580000Y-49846200D01*
X66680000Y-49846200D01*
X66710017Y-49840039D01*
X66780017Y-49810039D01*
X66807998Y-49789423D01*
X66822657Y-49762964D01*
X66825867Y-49732887D01*
X66803949Y-49499087D01*
X67084344Y-49499087D01*
X67093840Y-49527806D01*
X67133840Y-49597806D01*
X67163278Y-49626768D01*
X67363278Y-49736768D01*
X67378287Y-49743041D01*
X67408415Y-49745734D01*
X67588415Y-49725734D01*
X67608673Y-49720599D01*
X67633882Y-49703882D01*
X67823882Y-49513882D01*
X67838335Y-49493717D01*
X67846069Y-49464475D01*
X67856055Y-49294718D01*
X67886023Y-48855183D01*
X67886200Y-48850000D01*
X67886200Y-48554073D01*
X68174031Y-48554073D01*
X68177710Y-48584097D01*
X68245756Y-48788235D01*
X68344772Y-49402134D01*
X68351845Y-49424078D01*
X68451845Y-49624078D01*
X68472650Y-49649703D01*
X68762650Y-49879703D01*
X68802418Y-49895822D01*
X69002418Y-49915822D01*
X69023631Y-49914971D01*
X69133631Y-49894971D01*
X69165202Y-49881345D01*
X69355202Y-49741345D01*
X69378155Y-49714078D01*
X69518155Y-49434078D01*
X69523823Y-49418885D01*
X69633823Y-48988885D01*
X69635734Y-48978415D01*
X69665734Y-48708415D01*
X69666200Y-48700000D01*
X69666200Y-48660000D01*
X69665707Y-48651348D01*
X69625707Y-48301348D01*
X69624083Y-48292165D01*
X69494083Y-47752165D01*
X69486611Y-47732994D01*
X69294648Y-47387459D01*
X70804166Y-47387459D01*
X70924166Y-48607459D01*
X70924524Y-48610483D01*
X71074524Y-49690483D01*
X71075945Y-49697953D01*
X71155945Y-50027953D01*
X71164165Y-50048370D01*
X71184280Y-50070960D01*
X71224280Y-50100960D01*
X71248104Y-50112986D01*
X71348104Y-50142986D01*
X71370000Y-50146200D01*
X71400000Y-50146200D01*
X71434004Y-50138192D01*
X71457855Y-50119590D01*
X71565511Y-49993991D01*
X71598239Y-50085629D01*
X71606020Y-50101388D01*
X71627163Y-50123019D01*
X71655056Y-50134720D01*
X71705056Y-50144720D01*
X71720000Y-50146200D01*
X71780000Y-50146200D01*
X71794944Y-50144720D01*
X71844944Y-50134720D01*
X71873016Y-50122897D01*
X71894098Y-50101206D01*
X71984098Y-49961206D01*
X71994532Y-49935858D01*
X72094532Y-49465858D01*
X72095976Y-49455844D01*
X72135976Y-48935844D01*
X72136200Y-48930000D01*
X72136200Y-47860000D01*
X72533800Y-47860000D01*
X72533800Y-48410000D01*
X72533845Y-48412626D01*
X72543845Y-48702626D01*
X72544228Y-48708061D01*
X72594228Y-49178061D01*
X72596732Y-49190934D01*
X72696732Y-49540934D01*
X72706598Y-49562268D01*
X72866598Y-49802268D01*
X72886302Y-49822425D01*
X72986302Y-49892425D01*
X73000354Y-49900197D01*
X73030000Y-49906200D01*
X73130000Y-49906200D01*
X73139451Y-49905612D01*
X73219451Y-49895612D01*
X73259221Y-49878170D01*
X73389221Y-49768170D01*
X73406611Y-49747006D01*
X73456611Y-49657006D01*
X73466171Y-49622105D01*
X73460989Y-49592305D01*
X73450532Y-49576054D01*
X73488768Y-49565601D01*
X73511236Y-49545350D01*
X73524055Y-49517953D01*
X73604055Y-49187953D01*
X73605790Y-49177895D01*
X73655790Y-48697895D01*
X73656131Y-48686760D01*
X73636131Y-48216760D01*
X73633652Y-48200460D01*
X73503652Y-47710460D01*
X73493402Y-47687732D01*
X73353402Y-47477732D01*
X73336782Y-47459851D01*
X73246782Y-47389851D01*
X73229646Y-47379803D01*
X73200000Y-47373800D01*
X72960000Y-47373800D01*
X72937271Y-47377269D01*
X72777271Y-47427269D01*
X72740774Y-47452055D01*
X72570774Y-47662055D01*
X72554468Y-47699929D01*
X72534468Y-47849929D01*
X72533800Y-47860000D01*
X72136200Y-47860000D01*
X72136200Y-47790000D01*
X72135678Y-47781097D01*
X72095678Y-47441097D01*
X72090989Y-47422305D01*
X72074621Y-47396868D01*
X72049646Y-47379803D01*
X72020000Y-47373800D01*
X71920000Y-47373800D01*
X71898845Y-47376795D01*
X71872031Y-47390793D01*
X71852776Y-47414120D01*
X71844113Y-47443101D01*
X71835415Y-47538783D01*
X71811845Y-47585922D01*
X71803917Y-47624227D01*
X71833858Y-48163170D01*
X71843800Y-48521072D01*
X71843800Y-48588223D01*
X71823998Y-49013959D01*
X71787932Y-49334046D01*
X71785840Y-49312601D01*
X71784720Y-49305056D01*
X71694720Y-48855056D01*
X71687001Y-48833705D01*
X71667602Y-48810498D01*
X71617602Y-48770498D01*
X71599646Y-48759803D01*
X71570000Y-48753800D01*
X71540000Y-48753800D01*
X71511700Y-48759250D01*
X71461700Y-48779250D01*
X71436606Y-48795636D01*
X71419662Y-48820692D01*
X71369662Y-48940692D01*
X71363800Y-48970000D01*
X71363800Y-49010000D01*
X71371845Y-49044078D01*
X71391162Y-49082712D01*
X71366655Y-49251809D01*
X71305835Y-48632552D01*
X71305630Y-48630701D01*
X71155630Y-47410701D01*
X71146896Y-47383511D01*
X71086896Y-47273511D01*
X71074621Y-47256868D01*
X71049646Y-47239803D01*
X71020000Y-47233800D01*
X70950000Y-47233800D01*
X70925903Y-47237710D01*
X70865903Y-47257710D01*
X70848612Y-47266020D01*
X70826981Y-47287163D01*
X70815280Y-47315056D01*
X70805280Y-47365056D01*
X70804166Y-47387459D01*
X69294648Y-47387459D01*
X69286611Y-47372994D01*
X69263374Y-47347349D01*
X69003374Y-47167349D01*
X68964753Y-47153948D01*
X68804753Y-47143948D01*
X68785056Y-47145280D01*
X68735056Y-47155280D01*
X68708038Y-47166395D01*
X68686598Y-47187732D01*
X68626598Y-47277732D01*
X68614878Y-47307225D01*
X68615827Y-47337458D01*
X68628463Y-47364940D01*
X68650795Y-47385341D01*
X68986881Y-47586993D01*
X69110947Y-47764229D01*
X69264209Y-48243173D01*
X69273800Y-48521321D01*
X69273800Y-48656004D01*
X69234913Y-49025434D01*
X69139265Y-49360200D01*
X69073720Y-49474904D01*
X69058893Y-49483800D01*
X68897913Y-49483800D01*
X68805065Y-49405237D01*
X68675739Y-49035731D01*
X68666200Y-48768652D01*
X68666200Y-48731564D01*
X68783882Y-48613882D01*
X68800197Y-48589646D01*
X68806200Y-48560000D01*
X68806200Y-48520000D01*
X68798155Y-48485922D01*
X68778155Y-48445922D01*
X68755720Y-48419040D01*
X68675720Y-48359040D01*
X68659646Y-48349803D01*
X68630000Y-48343800D01*
X68450000Y-48343800D01*
X68440549Y-48344388D01*
X68360549Y-48354388D01*
X68326302Y-48367575D01*
X68226302Y-48437575D01*
X68212781Y-48449677D01*
X68197710Y-48475903D01*
X68177710Y-48535903D01*
X68174031Y-48554073D01*
X67886200Y-48554073D01*
X67886200Y-47562963D01*
X68192442Y-47512162D01*
X68327318Y-47447199D01*
X68325935Y-47271530D01*
X67902154Y-46892859D01*
X67523483Y-47316640D01*
X67541796Y-47491357D01*
X67579567Y-47500134D01*
X67534772Y-47777866D01*
X67533800Y-47790000D01*
X67533800Y-49075534D01*
X67502239Y-49343800D01*
X67474747Y-49343800D01*
X67239451Y-49314388D01*
X67217795Y-49314784D01*
X67189494Y-49325458D01*
X67167575Y-49346302D01*
X67097575Y-49446302D01*
X67086769Y-49468937D01*
X67084344Y-49499087D01*
X66803949Y-49499087D01*
X66736031Y-48774640D01*
X66717717Y-48390047D01*
X66743882Y-48363882D01*
X66762559Y-48333274D01*
X66932559Y-47803274D01*
X66934013Y-47798126D01*
X67054013Y-47308126D01*
X67056200Y-47290000D01*
X67056200Y-47220000D01*
X67050989Y-47192305D01*
X67034621Y-47166868D01*
X67009646Y-47149803D01*
X66980000Y-47143800D01*
X66920000Y-47143800D01*
X66885922Y-47151845D01*
X66825922Y-47181845D01*
X66804682Y-47197594D01*
X66788652Y-47223244D01*
X66638652Y-47623244D01*
X66636580Y-47629606D01*
X66583133Y-47822016D01*
X66511670Y-47624119D01*
X66509137Y-47617961D01*
X66319137Y-47207961D01*
X66298782Y-47181462D01*
X66238782Y-47131462D01*
X66205304Y-47115353D01*
X66175056Y-47115280D01*
X66125056Y-47125280D01*
X66093035Y-47139994D01*
X66073389Y-47162994D01*
X66023389Y-47252994D01*
X66013802Y-47289398D01*
X65673675Y-47289398D01*
X65655859Y-47272765D01*
X65505859Y-47192765D01*
X65470000Y-47183800D01*
X65310000Y-47183800D01*
X65270795Y-47194659D01*
X65170795Y-47254659D01*
X65143232Y-47283278D01*
X65033232Y-47483278D01*
X65024499Y-47509704D01*
X65010184Y-47614675D01*
X64994499Y-47729704D01*
X64994468Y-47750071D01*
X64878726Y-47750071D01*
X64835687Y-47381170D01*
X64831134Y-47362680D01*
X64814901Y-47337157D01*
X64790017Y-47319961D01*
X64720017Y-47289961D01*
X64690000Y-47283800D01*
X64660000Y-47283800D01*
X64620791Y-47294662D01*
X64598460Y-47315064D01*
X64585826Y-47342547D01*
X64545826Y-47512547D01*
X64543800Y-47530000D01*
X64543800Y-47910000D01*
X64544293Y-47918652D01*
X64574596Y-48183800D01*
X64523172Y-48183800D01*
X64415432Y-48174822D01*
X64295444Y-48134826D01*
X64285180Y-48121995D01*
X64276144Y-47887071D01*
X64275560Y-47880144D01*
X64215560Y-47420144D01*
X64210989Y-47402305D01*
X64194621Y-47376868D01*
X64169646Y-47359803D01*
X64140000Y-47353800D01*
X64000000Y-47353800D01*
X63970539Y-47359726D01*
X63945519Y-47376724D01*
X63929084Y-47402118D01*
X63923824Y-47431904D01*
X63610957Y-47431904D01*
X63602290Y-47405903D01*
X63583882Y-47376118D01*
X63363882Y-47156118D01*
X63348124Y-47144023D01*
X63319451Y-47134388D01*
X63159451Y-47114388D01*
X63150000Y-47113800D01*
X63120000Y-47113800D01*
X63091700Y-47119250D01*
X63041700Y-47139250D01*
X63028038Y-47146395D01*
X63006598Y-47167732D01*
X62946598Y-47257732D01*
X62933800Y-47300000D01*
X62933800Y-47360000D01*
X62939011Y-47387695D01*
X62955379Y-47413132D01*
X62980354Y-47430197D01*
X63010000Y-47436200D01*
X63162799Y-47436200D01*
X63243726Y-47502414D01*
X63346433Y-47647914D01*
X63352832Y-47705513D01*
X63328930Y-47809089D01*
X63070518Y-48191922D01*
X62825073Y-48447185D01*
X62809590Y-48470865D01*
X62689590Y-48760865D01*
X62684388Y-48780549D01*
X62664388Y-48940549D01*
X62663800Y-48950000D01*
X46908600Y-48950000D01*
X46908600Y-48892184D01*
X46930160Y-48906915D01*
X47020840Y-48925278D01*
X51020840Y-48925278D01*
X51105554Y-48909338D01*
X51183358Y-48859272D01*
X51235555Y-48782880D01*
X51253918Y-48692200D01*
X51253918Y-47692200D01*
X51237978Y-47607486D01*
X51187912Y-47529682D01*
X51111520Y-47477485D01*
X51020840Y-47459122D01*
X47020840Y-47459122D01*
X46936126Y-47475062D01*
X46908600Y-47492775D01*
X46908600Y-47276400D01*
X48696990Y-47276400D01*
X48843040Y-47130350D01*
X48843040Y-46370000D01*
X48823040Y-46370000D01*
X48823040Y-46014400D01*
X48843040Y-46014400D01*
X48843040Y-45994400D01*
X49158344Y-45994400D01*
X49121428Y-46130533D01*
X49166293Y-46479417D01*
X49198640Y-46557510D01*
X49198640Y-47130350D01*
X49344690Y-47276400D01*
X51137044Y-47276400D01*
X51351762Y-47187461D01*
X51516101Y-47023123D01*
X51605040Y-46808405D01*
X51605040Y-46689179D01*
X67042122Y-46689179D01*
X67096431Y-47016571D01*
X67161394Y-47151447D01*
X67337063Y-47150064D01*
X67715734Y-46726283D01*
X67693527Y-46706439D01*
X68068730Y-46706439D01*
X68492511Y-47085110D01*
X68667228Y-47066797D01*
X68742342Y-46743543D01*
X68688033Y-46416151D01*
X68623070Y-46281275D01*
X68447401Y-46282658D01*
X68068730Y-46706439D01*
X67693527Y-46706439D01*
X67291953Y-46347612D01*
X67117236Y-46365925D01*
X67042122Y-46689179D01*
X51605040Y-46689179D01*
X51605040Y-46516050D01*
X51458990Y-46370000D01*
X50888760Y-46370000D01*
X50920252Y-46253867D01*
X50889458Y-46014400D01*
X51458990Y-46014400D01*
X51605040Y-45868350D01*
X51605040Y-45747163D01*
X61366814Y-45747163D01*
X61621054Y-45960464D01*
X61937567Y-46060233D01*
X62087241Y-46063360D01*
X62125986Y-45985523D01*
X67457146Y-45985523D01*
X67458529Y-46161192D01*
X67882310Y-46539863D01*
X68260981Y-46116082D01*
X68242668Y-45941365D01*
X67919414Y-45866251D01*
X67592022Y-45920560D01*
X67457146Y-45985523D01*
X62125986Y-45985523D01*
X62165525Y-45906092D01*
X61959054Y-45376610D01*
X61429571Y-45583080D01*
X61366814Y-45747163D01*
X51605040Y-45747163D01*
X51605040Y-45575995D01*
X51543987Y-45428600D01*
X54410000Y-45428600D01*
X54428454Y-45424929D01*
X54447235Y-45426101D01*
X54481300Y-45414418D01*
X54516616Y-45407393D01*
X54532260Y-45396940D01*
X54550060Y-45390835D01*
X54577061Y-45367004D01*
X54607000Y-45347000D01*
X54617453Y-45331356D01*
X54631562Y-45318904D01*
X54647388Y-45286556D01*
X54657194Y-45271879D01*
X61181478Y-45271879D01*
X61338746Y-45350163D01*
X61503841Y-45285784D01*
X62191972Y-45285784D01*
X62398442Y-45815267D01*
X62562525Y-45878024D01*
X62775826Y-45623784D01*
X62875595Y-45307271D01*
X62876575Y-45260323D01*
X72989570Y-45260323D01*
X73074173Y-45581224D01*
X73275140Y-45845321D01*
X73395588Y-45934225D01*
X73550263Y-45850934D01*
X73687091Y-45299336D01*
X73135493Y-45162508D01*
X72989570Y-45260323D01*
X62876575Y-45260323D01*
X62878722Y-45157597D01*
X62796924Y-45116880D01*
X73989927Y-45116880D01*
X74541525Y-45253708D01*
X74687448Y-45155893D01*
X74602845Y-44834992D01*
X74401878Y-44570895D01*
X74281430Y-44481991D01*
X74126755Y-44565282D01*
X73989927Y-45116880D01*
X62796924Y-45116880D01*
X62721454Y-45079313D01*
X62191972Y-45285784D01*
X61503841Y-45285784D01*
X61868228Y-45143692D01*
X61661758Y-44614209D01*
X61497675Y-44551452D01*
X61284374Y-44805692D01*
X61184605Y-45122205D01*
X61181478Y-45271879D01*
X54657194Y-45271879D01*
X54667393Y-45256616D01*
X54671064Y-45238161D01*
X54679333Y-45221259D01*
X54681575Y-45185317D01*
X54688600Y-45150000D01*
X54684929Y-45131546D01*
X54686101Y-45112765D01*
X54674418Y-45078700D01*
X54667393Y-45043384D01*
X54656940Y-45027740D01*
X54650835Y-45009940D01*
X54367874Y-44523384D01*
X61894675Y-44523384D01*
X62101146Y-45052866D01*
X62630629Y-44846396D01*
X62661689Y-44765187D01*
X73112392Y-44765187D01*
X73195683Y-44919862D01*
X73747281Y-45056690D01*
X73884109Y-44505092D01*
X73786294Y-44359169D01*
X73465393Y-44443772D01*
X73201296Y-44644739D01*
X73112392Y-44765187D01*
X62661689Y-44765187D01*
X62693386Y-44682313D01*
X62439146Y-44469012D01*
X62122633Y-44369243D01*
X61972959Y-44366116D01*
X61894675Y-44523384D01*
X54367874Y-44523384D01*
X53021919Y-42209001D01*
X52542467Y-40968512D01*
X56937817Y-40968512D01*
X57050806Y-41280551D01*
X57274607Y-41525598D01*
X57402530Y-41603363D01*
X57491235Y-41544788D01*
X57796187Y-41544788D01*
X57906673Y-41681370D01*
X58218712Y-41568381D01*
X58463759Y-41344580D01*
X58541524Y-41216657D01*
X58444721Y-41070060D01*
X57883090Y-40983157D01*
X57796187Y-41544788D01*
X57491235Y-41544788D01*
X57549127Y-41506560D01*
X57636030Y-40944929D01*
X57074399Y-40858026D01*
X56937817Y-40968512D01*
X52542467Y-40968512D01*
X52452638Y-40736097D01*
X57921318Y-40736097D01*
X58482949Y-40823000D01*
X58619531Y-40712514D01*
X58506542Y-40400475D01*
X58282741Y-40155428D01*
X58154818Y-40077663D01*
X58008221Y-40174466D01*
X57921318Y-40736097D01*
X52452638Y-40736097D01*
X52405891Y-40615151D01*
X52367557Y-40464369D01*
X57015824Y-40464369D01*
X57112627Y-40610966D01*
X57674258Y-40697869D01*
X57761161Y-40136238D01*
X57650675Y-39999656D01*
X57338636Y-40112645D01*
X57093589Y-40336446D01*
X57015824Y-40464369D01*
X52367557Y-40464369D01*
X51963715Y-38875925D01*
X51697732Y-37004197D01*
X51629287Y-35452754D01*
X56234907Y-35452754D01*
X56253193Y-35627475D01*
X56576435Y-35702638D01*
X56903835Y-35648379D01*
X57038722Y-35583437D01*
X57037365Y-35407768D01*
X56613643Y-35029032D01*
X56234907Y-35452754D01*
X51629287Y-35452754D01*
X51608870Y-34989974D01*
X51616103Y-34825219D01*
X55753642Y-34825219D01*
X55807901Y-35152619D01*
X55872843Y-35287506D01*
X56048512Y-35286149D01*
X56427248Y-34862427D01*
X56405108Y-34842637D01*
X56780248Y-34842637D01*
X57203970Y-35221373D01*
X57378691Y-35203087D01*
X57422833Y-35013250D01*
X59582372Y-35013250D01*
X59752372Y-37043250D01*
X59760175Y-37070398D01*
X59762697Y-37098530D01*
X60282697Y-38868530D01*
X60296460Y-38894831D01*
X60305291Y-38923175D01*
X61105291Y-40393175D01*
X61123656Y-40415213D01*
X61137592Y-40440279D01*
X62147592Y-41630279D01*
X62171012Y-41648860D01*
X62190764Y-41671308D01*
X63380764Y-42581308D01*
X63405976Y-42593689D01*
X63428364Y-42610644D01*
X64788364Y-43270644D01*
X64811374Y-43276654D01*
X64832488Y-43287600D01*
X66282489Y-43707600D01*
X66306686Y-43709676D01*
X66329854Y-43716964D01*
X67799854Y-43876964D01*
X67823224Y-43874904D01*
X67846467Y-43878113D01*
X69366467Y-43788113D01*
X69390987Y-43781708D01*
X69416305Y-43780595D01*
X70926304Y-43410595D01*
X70950247Y-43399421D01*
X70975957Y-43393322D01*
X72395957Y-42743322D01*
X72419189Y-42726539D01*
X72445143Y-42714379D01*
X73695143Y-41794379D01*
X73716807Y-41770651D01*
X73742019Y-41750737D01*
X74782019Y-40530737D01*
X74795684Y-40506282D01*
X74813770Y-40484886D01*
X75643770Y-38984886D01*
X75652724Y-38956842D01*
X75666602Y-38930879D01*
X76206602Y-37150879D01*
X76209452Y-37121944D01*
X76217563Y-37094020D01*
X76397563Y-35014020D01*
X76394939Y-34990266D01*
X76397609Y-34966520D01*
X76333024Y-34202889D01*
X78929764Y-34202889D01*
X78931115Y-34378558D01*
X79354825Y-34757308D01*
X79733575Y-34333598D01*
X79715294Y-34158877D01*
X79392054Y-34083703D01*
X79064652Y-34137952D01*
X78929764Y-34202889D01*
X76333024Y-34202889D01*
X76227609Y-32956521D01*
X76219696Y-32929079D01*
X76217059Y-32900645D01*
X75697059Y-31150645D01*
X75683596Y-31125108D01*
X75675086Y-31097521D01*
X74875086Y-29617521D01*
X74856900Y-29595571D01*
X74843151Y-29570599D01*
X74517376Y-29183539D01*
X77352553Y-29183539D01*
X77464361Y-29496003D01*
X77687234Y-29741895D01*
X77814862Y-29820143D01*
X77902027Y-29763058D01*
X78208738Y-29763058D01*
X78318706Y-29900056D01*
X78631170Y-29788248D01*
X78877062Y-29565375D01*
X78955310Y-29437747D01*
X78859063Y-29290784D01*
X78297764Y-29201759D01*
X78208738Y-29763058D01*
X77902027Y-29763058D01*
X77961825Y-29723896D01*
X78050850Y-29162597D01*
X77489551Y-29073571D01*
X77352553Y-29183539D01*
X74517376Y-29183539D01*
X74324892Y-28954845D01*
X78336926Y-28954845D01*
X78898225Y-29043871D01*
X79035223Y-28933903D01*
X78923415Y-28621439D01*
X78700542Y-28375547D01*
X78572914Y-28297299D01*
X78425951Y-28393546D01*
X78336926Y-28954845D01*
X74324892Y-28954845D01*
X74093307Y-28679695D01*
X77432466Y-28679695D01*
X77528713Y-28826658D01*
X78090012Y-28915683D01*
X78179038Y-28354384D01*
X78069070Y-28217386D01*
X77756606Y-28329194D01*
X77510714Y-28552067D01*
X77432466Y-28679695D01*
X74093307Y-28679695D01*
X73833150Y-28370598D01*
X73811049Y-28352915D01*
X73792692Y-28331379D01*
X72602692Y-27391379D01*
X72577924Y-27378728D01*
X72556053Y-27361548D01*
X71196053Y-26671548D01*
X71171642Y-26664709D01*
X71149209Y-26652897D01*
X69699210Y-26222897D01*
X69675075Y-26220672D01*
X69652005Y-26213244D01*
X68182006Y-26043245D01*
X68156794Y-26045297D01*
X68131711Y-26042001D01*
X66611711Y-26142001D01*
X66586446Y-26148777D01*
X66560330Y-26150252D01*
X65050330Y-26540252D01*
X65027355Y-26551325D01*
X65002574Y-26557356D01*
X63582574Y-27217356D01*
X63558940Y-27234640D01*
X63532555Y-27247334D01*
X62282555Y-28187334D01*
X62262889Y-28209324D01*
X62239580Y-28227404D01*
X61189580Y-29437404D01*
X61174750Y-29463404D01*
X61155543Y-29486363D01*
X60335543Y-30986363D01*
X60326879Y-31013986D01*
X60313273Y-31039535D01*
X59773273Y-32829535D01*
X59770488Y-32858261D01*
X59762437Y-32885980D01*
X59582437Y-34965980D01*
X59585049Y-34989622D01*
X59582372Y-35013250D01*
X57422833Y-35013250D01*
X57453854Y-34879845D01*
X57399595Y-34552445D01*
X57334653Y-34417558D01*
X57158984Y-34418915D01*
X56780248Y-34842637D01*
X56405108Y-34842637D01*
X56003526Y-34483691D01*
X55828805Y-34501977D01*
X55753642Y-34825219D01*
X51616103Y-34825219D01*
X51646992Y-34121627D01*
X56168774Y-34121627D01*
X56170131Y-34297296D01*
X56593853Y-34676032D01*
X56972589Y-34252310D01*
X56954303Y-34077589D01*
X56631061Y-34002426D01*
X56303661Y-34056685D01*
X56168774Y-34121627D01*
X51646992Y-34121627D01*
X51697737Y-32965770D01*
X51953337Y-31167102D01*
X55123779Y-31167102D01*
X55196488Y-31343071D01*
X55331003Y-31477820D01*
X55506845Y-31550836D01*
X55655410Y-31550966D01*
X55329951Y-32859384D01*
X55324971Y-32945440D01*
X55354775Y-33033030D01*
X55416309Y-33102122D01*
X55499875Y-33141832D01*
X58411162Y-33865994D01*
X58497219Y-33870974D01*
X58584808Y-33841169D01*
X58653900Y-33779636D01*
X58693610Y-33696070D01*
X59562603Y-30202526D01*
X59567583Y-30116470D01*
X59537779Y-30028880D01*
X59476245Y-29959788D01*
X59392679Y-29920078D01*
X58032508Y-29581745D01*
X58079173Y-29462408D01*
X57826400Y-28953401D01*
X57317393Y-29206174D01*
X57269487Y-29375191D01*
X57306843Y-29401241D01*
X56481392Y-29195916D01*
X56395335Y-29190936D01*
X56307746Y-29220741D01*
X56238654Y-29282274D01*
X56198944Y-29365840D01*
X55875053Y-30667954D01*
X55873921Y-30666820D01*
X55698079Y-30593804D01*
X55507680Y-30593637D01*
X55331711Y-30666346D01*
X55196962Y-30800861D01*
X55123946Y-30976703D01*
X55123779Y-31167102D01*
X51953337Y-31167102D01*
X51963741Y-31093889D01*
X52406029Y-29344396D01*
X52627092Y-28768929D01*
X57032383Y-28768929D01*
X57042588Y-28918286D01*
X57206199Y-28982264D01*
X57488230Y-28842207D01*
X58050310Y-28842207D01*
X58303083Y-29351214D01*
X58472100Y-29399120D01*
X58661928Y-29126906D01*
X58733133Y-28802769D01*
X58722928Y-28653412D01*
X58559317Y-28589434D01*
X58050310Y-28842207D01*
X57488230Y-28842207D01*
X57715206Y-28729491D01*
X57462433Y-28220484D01*
X57293416Y-28172578D01*
X57103588Y-28444792D01*
X57032383Y-28768929D01*
X52627092Y-28768929D01*
X52880490Y-28109290D01*
X57686343Y-28109290D01*
X57939116Y-28618297D01*
X58448123Y-28365524D01*
X58496029Y-28196507D01*
X58223815Y-28006679D01*
X57899678Y-27935474D01*
X57750321Y-27945679D01*
X57686343Y-28109290D01*
X52880490Y-28109290D01*
X53022202Y-27740390D01*
X54670418Y-24888087D01*
X54816565Y-24706864D01*
X61292336Y-24706864D01*
X61378956Y-25027226D01*
X61581581Y-25290053D01*
X61702586Y-25378198D01*
X61749417Y-25352598D01*
X62099754Y-25352598D01*
X62198485Y-25497903D01*
X62518847Y-25411283D01*
X62781674Y-25208658D01*
X62811707Y-25167428D01*
X73272117Y-25167428D01*
X73525098Y-25382220D01*
X73841019Y-25483850D01*
X73990671Y-25487858D01*
X74069879Y-25331053D01*
X73866527Y-24800365D01*
X73335839Y-25003717D01*
X73272117Y-25167428D01*
X62811707Y-25167428D01*
X62869819Y-25087653D01*
X62785556Y-24933505D01*
X62233109Y-24800150D01*
X62099754Y-25352598D01*
X61749417Y-25352598D01*
X61856734Y-25293935D01*
X61990089Y-24741488D01*
X61781186Y-24691061D01*
X73089580Y-24691061D01*
X73246385Y-24770269D01*
X73401291Y-24710911D01*
X74099975Y-24710911D01*
X74303327Y-25241599D01*
X74467038Y-25305321D01*
X74681830Y-25052340D01*
X74783460Y-24736419D01*
X74787468Y-24586767D01*
X74630663Y-24507559D01*
X74099975Y-24710911D01*
X73401291Y-24710911D01*
X73777073Y-24566917D01*
X73573721Y-24036229D01*
X73410010Y-23972507D01*
X73195218Y-24225488D01*
X73093588Y-24541409D01*
X73089580Y-24691061D01*
X61781186Y-24691061D01*
X61437641Y-24608133D01*
X61292336Y-24706864D01*
X54816565Y-24706864D01*
X54937318Y-24557130D01*
X62291771Y-24557130D01*
X62844219Y-24690485D01*
X62989524Y-24591754D01*
X62902904Y-24271392D01*
X62700279Y-24008565D01*
X62579274Y-23920420D01*
X62425126Y-24004683D01*
X62291771Y-24557130D01*
X54937318Y-24557130D01*
X55216483Y-24210965D01*
X61412041Y-24210965D01*
X61496304Y-24365113D01*
X62048751Y-24498468D01*
X62182106Y-23946020D01*
X62083375Y-23800715D01*
X61763013Y-23887335D01*
X61500186Y-24089960D01*
X61412041Y-24210965D01*
X55216483Y-24210965D01*
X55615839Y-23715764D01*
X67716851Y-23715764D01*
X67735285Y-23890469D01*
X68058590Y-23965359D01*
X68170143Y-23946775D01*
X73807169Y-23946775D01*
X74010521Y-24477463D01*
X74541209Y-24274111D01*
X74604931Y-24110400D01*
X74351950Y-23895608D01*
X74036029Y-23793978D01*
X73886377Y-23789970D01*
X73807169Y-23946775D01*
X68170143Y-23946775D01*
X68385944Y-23910824D01*
X68520776Y-23845769D01*
X68519271Y-23670101D01*
X68095230Y-23291722D01*
X67716851Y-23715764D01*
X55615839Y-23715764D01*
X55646742Y-23677445D01*
X56246161Y-23088635D01*
X67235058Y-23088635D01*
X67289593Y-23415989D01*
X67354648Y-23550821D01*
X67530316Y-23549316D01*
X67908695Y-23125275D01*
X67886183Y-23105187D01*
X68261677Y-23105187D01*
X68685719Y-23483566D01*
X68860424Y-23465132D01*
X68935314Y-23141827D01*
X68880779Y-22814473D01*
X68815724Y-22679641D01*
X68640056Y-22681146D01*
X68261677Y-23105187D01*
X67886183Y-23105187D01*
X67484653Y-22746896D01*
X67309948Y-22765330D01*
X67235058Y-23088635D01*
X56246161Y-23088635D01*
X56749937Y-22593776D01*
X57041035Y-22384693D01*
X67649596Y-22384693D01*
X67651101Y-22560361D01*
X68075142Y-22938740D01*
X68453521Y-22514698D01*
X68435087Y-22339993D01*
X68111782Y-22265103D01*
X67784428Y-22319638D01*
X67649596Y-22384693D01*
X57041035Y-22384693D01*
X59230377Y-20812190D01*
X62012825Y-19543866D01*
X64995795Y-18785817D01*
X68058947Y-18539583D01*
X71081981Y-18805452D01*
G36*
X50266772Y-50158400D02*
X50232972Y-50192200D01*
X50266772Y-50226000D01*
X50122772Y-50370000D01*
X49918908Y-50370000D01*
X49774908Y-50226000D01*
X49808708Y-50192200D01*
X49774908Y-50158400D01*
X49918908Y-50014400D01*
X50122772Y-50014400D01*
X50266772Y-50158400D01*
X50266772Y-50158400D01*
G37*
X50266772Y-50158400D02*
X50232972Y-50192200D01*
X50266772Y-50226000D01*
X50122772Y-50370000D01*
X49918908Y-50370000D01*
X49774908Y-50226000D01*
X49808708Y-50192200D01*
X49774908Y-50158400D01*
X49918908Y-50014400D01*
X50122772Y-50014400D01*
X50266772Y-50158400D01*
G36*
X86232222Y-50158400D02*
X86198422Y-50192200D01*
X86232222Y-50226000D01*
X86088222Y-50370000D01*
X85884358Y-50370000D01*
X85740358Y-50226000D01*
X85774158Y-50192200D01*
X85740358Y-50158400D01*
X85884358Y-50014400D01*
X86088222Y-50014400D01*
X86232222Y-50158400D01*
X86232222Y-50158400D01*
G37*
X86232222Y-50158400D02*
X86198422Y-50192200D01*
X86232222Y-50226000D01*
X86088222Y-50370000D01*
X85884358Y-50370000D01*
X85740358Y-50226000D01*
X85774158Y-50192200D01*
X85740358Y-50158400D01*
X85884358Y-50014400D01*
X86088222Y-50014400D01*
X86232222Y-50158400D01*
G36*
X86232222Y-46158400D02*
X86198422Y-46192200D01*
X86232222Y-46226000D01*
X86088222Y-46370000D01*
X85884358Y-46370000D01*
X85740358Y-46226000D01*
X85774158Y-46192200D01*
X85740358Y-46158400D01*
X85884358Y-46014400D01*
X86088222Y-46014400D01*
X86232222Y-46158400D01*
X86232222Y-46158400D01*
G37*
X86232222Y-46158400D02*
X86198422Y-46192200D01*
X86232222Y-46226000D01*
X86088222Y-46370000D01*
X85884358Y-46370000D01*
X85740358Y-46226000D01*
X85774158Y-46192200D01*
X85740358Y-46158400D01*
X85884358Y-46014400D01*
X86088222Y-46014400D01*
X86232222Y-46158400D01*
G36*
X50266772Y-46158400D02*
X50232972Y-46192200D01*
X50266772Y-46226000D01*
X50122772Y-46370000D01*
X49918908Y-46370000D01*
X49774908Y-46226000D01*
X49808708Y-46192200D01*
X49774908Y-46158400D01*
X49918908Y-46014400D01*
X50122772Y-46014400D01*
X50266772Y-46158400D01*
X50266772Y-46158400D01*
G37*
X50266772Y-46158400D02*
X50232972Y-46192200D01*
X50266772Y-46226000D01*
X50122772Y-46370000D01*
X49918908Y-46370000D01*
X49774908Y-46226000D01*
X49808708Y-46192200D01*
X49774908Y-46158400D01*
X49918908Y-46014400D01*
X50122772Y-46014400D01*
X50266772Y-46158400D01*
M02*
