G04 #@! TF.FileFunction,Soldermask,Top*
%FSLAX46Y46*%
G04 Gerber Fmt 4.6, Leading zero omitted, Abs format (unit mm)*
G04 Created by KiCad (PCBNEW 4.0.0-rc2-stable) date 3/3/2016 3:46:29 PM*
%MOMM*%
G01*
G04 APERTURE LIST*
%ADD10C,0.150000*%
%ADD11R,4.000000X1.000000*%
%ADD12C,0.600000*%
G04 APERTURE END LIST*
D10*
G36*
X74879413Y-47032668D02*
X73950500Y-45490877D01*
X74378775Y-45232846D01*
X75307688Y-46774637D01*
X74879413Y-47032668D01*
X74879413Y-47032668D01*
G37*
G36*
X76712965Y-46219840D02*
X75526021Y-44249774D01*
X75800117Y-44084634D01*
X76987061Y-46054700D01*
X76712965Y-46219840D01*
X76712965Y-46219840D01*
G37*
G36*
X75436704Y-46988774D02*
X74249759Y-45018708D01*
X74935000Y-44605858D01*
X76121945Y-46575924D01*
X75436704Y-46988774D01*
X75436704Y-46988774D01*
G37*
G36*
X80066724Y-41849097D02*
X78362249Y-41270510D01*
X78522968Y-40797045D01*
X80227443Y-41375632D01*
X80066724Y-41849097D01*
X80066724Y-41849097D01*
G37*
G36*
X80943118Y-40045064D02*
X78765177Y-39305758D01*
X78868036Y-39002740D01*
X81045977Y-39742046D01*
X80943118Y-40045064D01*
X80943118Y-40045064D01*
G37*
G36*
X80464177Y-41455991D02*
X78286236Y-40716685D01*
X78543385Y-39959141D01*
X80721326Y-40698447D01*
X80464177Y-41455991D01*
X80464177Y-41455991D01*
G37*
G36*
X81464222Y-34866255D02*
X79667040Y-34966948D01*
X79639070Y-34467731D01*
X81436252Y-34367038D01*
X81464222Y-34866255D01*
X81464222Y-34866255D01*
G37*
G36*
X81602509Y-32865386D02*
X79306110Y-32994049D01*
X79288209Y-32674550D01*
X81584608Y-32545887D01*
X81602509Y-32865386D01*
X81602509Y-32865386D01*
G37*
G36*
X81685860Y-34353053D02*
X79389462Y-34481716D01*
X79344710Y-33682969D01*
X81641108Y-33554306D01*
X81685860Y-34353053D01*
X81685860Y-34353053D01*
G37*
G36*
X79922471Y-27865197D02*
X78466012Y-28922895D01*
X78172207Y-28518323D01*
X79628666Y-27460625D01*
X79922471Y-27865197D01*
X79922471Y-27865197D01*
G37*
G36*
X78955413Y-26108097D02*
X77094382Y-27459601D01*
X76906347Y-27200675D01*
X78767378Y-25849171D01*
X78955413Y-26108097D01*
X78955413Y-26108097D01*
G37*
G36*
X79830953Y-27313722D02*
X77969921Y-28665225D01*
X77499833Y-28017910D01*
X79360865Y-26666407D01*
X79830953Y-27313722D01*
X79830953Y-27313722D01*
G37*
G36*
X74839469Y-22741338D02*
X74106371Y-24385287D01*
X73649719Y-24181648D01*
X74382817Y-22537699D01*
X74839469Y-22741338D01*
X74839469Y-22741338D01*
G37*
G36*
X73123812Y-21702532D02*
X72187076Y-23803133D01*
X71894818Y-23672804D01*
X72831554Y-21572203D01*
X73123812Y-21702532D01*
X73123812Y-21702532D01*
G37*
G36*
X74484636Y-22309373D02*
X73547900Y-24409974D01*
X72817256Y-24084153D01*
X73753992Y-21983552D01*
X74484636Y-22309373D01*
X74484636Y-22309373D01*
G37*
G36*
X68015794Y-21015783D02*
X68118060Y-22812876D01*
X67618868Y-22841283D01*
X67516602Y-21044190D01*
X68015794Y-21015783D01*
X68015794Y-21015783D01*
G37*
G36*
X66014805Y-20879248D02*
X66145479Y-23175533D01*
X65825995Y-23193714D01*
X65695321Y-20897429D01*
X66014805Y-20879248D01*
X66014805Y-20879248D01*
G37*
G36*
X67502398Y-20794594D02*
X67633072Y-23090879D01*
X66834364Y-23136330D01*
X66703690Y-20840045D01*
X67502398Y-20794594D01*
X67502398Y-20794594D01*
G37*
G36*
X61088566Y-22831334D02*
X62027161Y-24367251D01*
X61600518Y-24627972D01*
X60661923Y-23092055D01*
X61088566Y-22831334D01*
X61088566Y-22831334D01*
G37*
G36*
X59260165Y-23655681D02*
X60459481Y-25618241D01*
X60186429Y-25785103D01*
X58987113Y-23822543D01*
X59260165Y-23655681D01*
X59260165Y-23655681D01*
G37*
G36*
X60531563Y-22878733D02*
X61730879Y-24841293D01*
X61048249Y-25258447D01*
X59848933Y-23295887D01*
X60531563Y-22878733D01*
X60531563Y-22878733D01*
G37*
G36*
X55908279Y-28068956D02*
X57614352Y-28642815D01*
X57454947Y-29116724D01*
X55748874Y-28542865D01*
X55908279Y-28068956D01*
X55908279Y-28068956D01*
G37*
G36*
X55036892Y-29875413D02*
X57216875Y-30608677D01*
X57114856Y-30911979D01*
X54934873Y-30178715D01*
X55036892Y-29875413D01*
X55036892Y-29875413D01*
G37*
G36*
X55511920Y-28463163D02*
X57691902Y-29196426D01*
X57436854Y-29954681D01*
X55256872Y-29221418D01*
X55511920Y-28463163D01*
X55511920Y-28463163D01*
G37*
G36*
X54504242Y-34920154D02*
X56301420Y-34819402D01*
X56329406Y-35318618D01*
X54532228Y-35419370D01*
X54504242Y-34920154D01*
X54504242Y-34920154D01*
G37*
G36*
X54366020Y-36921027D02*
X56662414Y-36792289D01*
X56680326Y-37111787D01*
X54383932Y-37240525D01*
X54366020Y-36921027D01*
X54366020Y-36921027D01*
G37*
G36*
X54282621Y-35433363D02*
X56579015Y-35304625D01*
X56623793Y-36103371D01*
X54327399Y-36232109D01*
X54282621Y-35433363D01*
X54282621Y-35433363D01*
G37*
G36*
X56054616Y-42040565D02*
X57507066Y-40977367D01*
X57802398Y-41380825D01*
X56349948Y-42444023D01*
X56054616Y-42040565D01*
X56054616Y-42040565D01*
G37*
G36*
X57028310Y-43793996D02*
X58884219Y-42435465D01*
X59073232Y-42693678D01*
X57217323Y-44052209D01*
X57028310Y-43793996D01*
X57028310Y-43793996D01*
G37*
G36*
X56148220Y-42591690D02*
X58004128Y-41233159D01*
X58476660Y-41878692D01*
X56620752Y-43237223D01*
X56148220Y-42591690D01*
X56148220Y-42591690D01*
G37*
G36*
X61140332Y-47117581D02*
X61863746Y-45469348D01*
X62321588Y-45670297D01*
X61598174Y-47318530D01*
X61140332Y-47117581D01*
X61140332Y-47117581D01*
G37*
G36*
X62862071Y-48146277D02*
X63786434Y-46040202D01*
X64079453Y-46168809D01*
X63155090Y-48274884D01*
X62862071Y-48146277D01*
X62862071Y-48146277D01*
G37*
G36*
X61497701Y-47547451D02*
X62422063Y-45441376D01*
X63154611Y-45762893D01*
X62230249Y-47868968D01*
X61497701Y-47547451D01*
X61497701Y-47547451D01*
G37*
G36*
X67960177Y-48815857D02*
X67859149Y-47018694D01*
X68358361Y-46990631D01*
X68459389Y-48787794D01*
X67960177Y-48815857D01*
X67960177Y-48815857D01*
G37*
G36*
X69961071Y-48953771D02*
X69831981Y-46657397D01*
X70151477Y-46639437D01*
X70280567Y-48935811D01*
X69961071Y-48953771D01*
X69961071Y-48953771D01*
G37*
G36*
X68473420Y-49037400D02*
X68344329Y-46741025D01*
X69143068Y-46696124D01*
X69272159Y-48992499D01*
X68473420Y-49037400D01*
X68473420Y-49037400D01*
G37*
D11*
X86986290Y-50192200D03*
X86986290Y-48192200D03*
X86986290Y-46192200D03*
D12*
X85986290Y-50192200D03*
X85986290Y-48192200D03*
X85986290Y-46192200D03*
D11*
X49020840Y-46192200D03*
X49020840Y-48192200D03*
X49020840Y-50192200D03*
D12*
X50020840Y-46192200D03*
X50020840Y-48192200D03*
X50020840Y-50192200D03*
M02*
