M48
;DRILL file {KiCad 4.0.0-rc2-stable} date 3/3/2016 3:48:49 PM
;FORMAT={-:-/ absolute / inch / decimal}
FMAT,2
INCH,TZ
T1C0.012
T2C0.016
%
G90
G05
M72
T1
X2.2524Y-0.8497G85X2.2524Y-0.8497
G05
X2.334Y-1.0791G85X2.334Y-1.0791
G05
X2.4155Y-1.3085G85X2.4155Y-1.3085
G05
X2.4424Y-1.7006G85X2.4424Y-1.7006
G05
X2.4971Y-1.5379G85X2.4971Y-1.5379
G05
X2.5368Y-1.8421G85X2.5368Y-1.8421
G05
X2.631Y-1.5893G85X2.631Y-1.5893
G05
X2.7252Y-1.3364G85X2.7252Y-1.3364
G05
X2.9074Y-1.0144G85X2.9074Y-1.0144
G05
X3.0044Y-1.2673G85X3.0044Y-1.2673
G05
X3.1015Y-1.5202G85X3.1015Y-1.5202
G05
X3.1985Y-1.773G85X3.1985Y-1.773
G05
X3.337Y-1.5659G85X3.337Y-1.5659
G05
X3.4139Y-1.3353G85X3.4139Y-1.3353
G05
X3.4907Y-1.1047G85X3.4907Y-1.1047
G05
X3.5676Y-0.8741G85X3.5676Y-0.8741
G05
T2
X1.9693Y-1.8186G85X1.9693Y-1.8186
G05
X1.9693Y-1.8973G85X1.9693Y-1.8973
G05
X1.9693Y-1.9761G85X1.9693Y-1.9761
G05
X3.7884Y-1.8186G85X3.7884Y-1.8186
G05
X3.7884Y-1.8973G85X3.7884Y-1.8973
G05
X3.7884Y-1.9761G85X3.7884Y-1.9761
G05
T0
M30
