G04 #@! TF.FileFunction,Soldermask,Top*
%FSLAX46Y46*%
G04 Gerber Fmt 4.6, Leading zero omitted, Abs format (unit mm)*
G04 Created by KiCad (PCBNEW 4.0.0-rc2-stable) date 3/3/2016 3:48:12 PM*
%MOMM*%
G01*
G04 APERTURE LIST*
%ADD10C,0.150000*%
%ADD11R,1.800000X0.500000*%
%ADD12R,2.300000X0.320000*%
%ADD13R,2.300000X0.800000*%
%ADD14R,4.000000X1.000000*%
%ADD15C,0.600000*%
G04 APERTURE END LIST*
D10*
D11*
X54821617Y-22721893D03*
D12*
X54821617Y-24621893D03*
D13*
X54821617Y-23371893D03*
D11*
X54821617Y-29431410D03*
D12*
X54821617Y-31331410D03*
D13*
X54821617Y-30081410D03*
D11*
X54821617Y-36140924D03*
D12*
X54821617Y-38040924D03*
D13*
X54821617Y-36790924D03*
D10*
G36*
X54376499Y-42896259D02*
X56063188Y-42267704D01*
X56237787Y-42736229D01*
X54551098Y-43364784D01*
X54376499Y-42896259D01*
X54376499Y-42896259D01*
G37*
G36*
X54837139Y-44848285D02*
X56992352Y-44045133D01*
X57104095Y-44344989D01*
X54948882Y-45148141D01*
X54837139Y-44848285D01*
X54837139Y-44848285D01*
G37*
G36*
X54316835Y-43452083D02*
X56472049Y-42648930D01*
X56751407Y-43398569D01*
X54596193Y-44201722D01*
X54316835Y-43452083D01*
X54316835Y-43452083D01*
G37*
G36*
X59517080Y-48378839D02*
X59934861Y-46627994D01*
X60421206Y-46744045D01*
X60003425Y-48494890D01*
X59517080Y-48378839D01*
X59517080Y-48378839D01*
G37*
G36*
X61394712Y-49083892D02*
X61928543Y-46846701D01*
X62239804Y-46920974D01*
X61705973Y-49158165D01*
X61394712Y-49083892D01*
X61394712Y-49083892D01*
G37*
G36*
X59945401Y-48738062D02*
X60479232Y-46500871D01*
X61257385Y-46686552D01*
X60723554Y-48923743D01*
X59945401Y-48738062D01*
X59945401Y-48738062D01*
G37*
G36*
X66630357Y-48872197D02*
X66214535Y-47120885D01*
X66701011Y-47005379D01*
X67116833Y-48756691D01*
X66630357Y-48872197D01*
X66630357Y-48872197D01*
G37*
G36*
X68624283Y-48655720D02*
X68092955Y-46417934D01*
X68404299Y-46344010D01*
X68935627Y-48581796D01*
X68624283Y-48655720D01*
X68624283Y-48655720D01*
G37*
G36*
X67174586Y-48999928D02*
X66643257Y-46762142D01*
X67421618Y-46577332D01*
X67952947Y-48815118D01*
X67174586Y-48999928D01*
X67174586Y-48999928D01*
G37*
G36*
X72729226Y-45116742D02*
X71232348Y-44117064D01*
X71510036Y-43701264D01*
X73006914Y-44700942D01*
X72729226Y-45116742D01*
X72729226Y-45116742D01*
G37*
G36*
X74042325Y-43600704D02*
X72129648Y-42323338D01*
X72307369Y-42057226D01*
X74220046Y-43334592D01*
X74042325Y-43600704D01*
X74042325Y-43600704D01*
G37*
G36*
X73214814Y-44839787D02*
X71302137Y-43562420D01*
X71746438Y-42897141D01*
X73659115Y-44174508D01*
X73214814Y-44839787D01*
X73214814Y-44839787D01*
G37*
D11*
X73419270Y-37940924D03*
D12*
X73419270Y-36040924D03*
D13*
X73419270Y-37290924D03*
D11*
X73419270Y-31231406D03*
D12*
X73419270Y-29331406D03*
D13*
X73419270Y-30581406D03*
D11*
X73419270Y-24521891D03*
D12*
X73419270Y-22621891D03*
D13*
X73419270Y-23871891D03*
D14*
X79309200Y-50206340D03*
X79309200Y-48206340D03*
X79309200Y-46206340D03*
D15*
X78309200Y-50206340D03*
X78309200Y-48206340D03*
X78309200Y-46206340D03*
D14*
X49034782Y-46206340D03*
X49034782Y-48206340D03*
X49034782Y-50206340D03*
D15*
X50034782Y-46206340D03*
X50034782Y-48206340D03*
X50034782Y-50206340D03*
M02*
