G04 #@! TF.FileFunction,Soldermask,Top*
%FSLAX46Y46*%
G04 Gerber Fmt 4.6, Leading zero omitted, Abs format (unit mm)*
G04 Created by KiCad (PCBNEW 4.0.0-rc2-stable) date 3/3/2016 3:43:09 PM*
%MOMM*%
G01*
G04 APERTURE LIST*
%ADD10C,0.150000*%
%ADD11R,0.500000X1.800000*%
%ADD12R,0.320000X2.300000*%
%ADD13R,0.800000X2.300000*%
%ADD14R,1.800000X0.500000*%
%ADD15R,2.300000X0.320000*%
%ADD16R,2.300000X0.800000*%
%ADD17R,4.000000X1.000000*%
%ADD18C,0.600000*%
G04 APERTURE END LIST*
D10*
D11*
X60544450Y-47680200D03*
D12*
X62444450Y-47680200D03*
D13*
X61194450Y-47680200D03*
D10*
G36*
X67036448Y-48218385D02*
X66415182Y-46528999D01*
X66884456Y-46356425D01*
X67505722Y-48045811D01*
X67036448Y-48218385D01*
X67036448Y-48218385D01*
G37*
G36*
X68990446Y-47766178D02*
X68196605Y-45607517D01*
X68496940Y-45497070D01*
X69290781Y-47655731D01*
X68990446Y-47766178D01*
X68990446Y-47766178D01*
G37*
G36*
X67592009Y-48280449D02*
X66798168Y-46121788D01*
X67549007Y-45845669D01*
X68342848Y-48004330D01*
X67592009Y-48280449D01*
X67592009Y-48280449D01*
G37*
G36*
X72781910Y-44868269D02*
X71338068Y-43793412D01*
X71636640Y-43392345D01*
X73080482Y-44467202D01*
X72781910Y-44868269D01*
X72781910Y-44868269D01*
G37*
G36*
X74170759Y-43421307D02*
X72325849Y-42047878D01*
X72516935Y-41791195D01*
X74361845Y-43164624D01*
X74170759Y-43421307D01*
X74170759Y-43421307D01*
G37*
G36*
X73281016Y-44616488D02*
X71436106Y-43243059D01*
X71913820Y-42601352D01*
X73758730Y-43974781D01*
X73281016Y-44616488D01*
X73281016Y-44616488D01*
G37*
G36*
X75989503Y-39050991D02*
X74212417Y-38764698D01*
X74291943Y-38271063D01*
X76069029Y-38557356D01*
X75989503Y-39050991D01*
X75989503Y-39050991D01*
G37*
G36*
X76552834Y-37126087D02*
X74282113Y-36760267D01*
X74333010Y-36444341D01*
X76603731Y-36810161D01*
X76552834Y-37126087D01*
X76552834Y-37126087D01*
G37*
G36*
X76315847Y-38597120D02*
X74045125Y-38231300D01*
X74172367Y-37441484D01*
X76443089Y-37807304D01*
X76315847Y-38597120D01*
X76315847Y-38597120D01*
G37*
G36*
X76356840Y-32458999D02*
X74622804Y-32941825D01*
X74488686Y-32460149D01*
X76222722Y-31977323D01*
X76356840Y-32458999D01*
X76356840Y-32458999D01*
G37*
G36*
X76063887Y-30474867D02*
X73848175Y-31091812D01*
X73762339Y-30783539D01*
X75978051Y-30166594D01*
X76063887Y-30474867D01*
X76063887Y-30474867D01*
G37*
G36*
X76463560Y-31910263D02*
X74247848Y-32527207D01*
X74033258Y-31756525D01*
X76248970Y-31139581D01*
X76463560Y-31910263D01*
X76463560Y-31910263D01*
G37*
G36*
X73867207Y-26265397D02*
X72577878Y-27521434D01*
X72228979Y-27163287D01*
X73518308Y-25907250D01*
X73867207Y-26265397D01*
X73867207Y-26265397D01*
G37*
G36*
X72657662Y-24665522D02*
X71010185Y-26270458D01*
X70786890Y-26041244D01*
X72434367Y-24436308D01*
X72657662Y-24665522D01*
X72657662Y-24665522D01*
G37*
G36*
X73697382Y-25732801D02*
X72049905Y-27337737D01*
X71491666Y-26764701D01*
X73139143Y-25159765D01*
X73697382Y-25732801D01*
X73697382Y-25732801D01*
G37*
G36*
X68716334Y-22276946D02*
X68096102Y-23966713D01*
X67626722Y-23794426D01*
X68246954Y-22104659D01*
X68716334Y-22276946D01*
X68716334Y-22276946D01*
G37*
G36*
X66934347Y-21356555D02*
X66141828Y-23515702D01*
X65841425Y-23405439D01*
X66633944Y-21246292D01*
X66934347Y-21356555D01*
X66934347Y-21356555D01*
G37*
G36*
X68333098Y-21869969D02*
X67540579Y-24029116D01*
X66789572Y-23753457D01*
X67582091Y-21594310D01*
X68333098Y-21869969D01*
X68333098Y-21869969D01*
G37*
G36*
X62256612Y-21297148D02*
X62256600Y-23097148D01*
X61756600Y-23097144D01*
X61756612Y-21297144D01*
X62256612Y-21297148D01*
X62256612Y-21297148D01*
G37*
G36*
X60266613Y-21047135D02*
X60266599Y-23347135D01*
X59946599Y-23347133D01*
X59946613Y-21047133D01*
X60266613Y-21047135D01*
X60266613Y-21047135D01*
G37*
G36*
X61756613Y-21047145D02*
X61756599Y-23347145D01*
X60956599Y-23347139D01*
X60956613Y-21047139D01*
X61756613Y-21047145D01*
X61756613Y-21047145D01*
G37*
D14*
X55361446Y-21801164D03*
D15*
X55361446Y-23701164D03*
D16*
X55361446Y-22451164D03*
D14*
X55361446Y-28003728D03*
D15*
X55361446Y-29903728D03*
D16*
X55361446Y-28653728D03*
D14*
X55361446Y-34206285D03*
D15*
X55361446Y-36106285D03*
D16*
X55361446Y-34856285D03*
D14*
X55361446Y-40408850D03*
D15*
X55361446Y-42308850D03*
D16*
X55361446Y-41058850D03*
D14*
X55361446Y-46611410D03*
D15*
X55361446Y-48511410D03*
D16*
X55361446Y-47261410D03*
D17*
X81795990Y-50192207D03*
X81795990Y-48192207D03*
X81795990Y-46192207D03*
D18*
X80795990Y-50192207D03*
X80795990Y-48192207D03*
X80795990Y-46192207D03*
D17*
X49020844Y-46192207D03*
X49020844Y-48192207D03*
X49020844Y-50192207D03*
D18*
X50020844Y-46192207D03*
X50020844Y-48192207D03*
X50020844Y-50192207D03*
M02*
