G04 #@! TF.FileFunction,Profile,NP*
%FSLAX46Y46*%
G04 Gerber Fmt 4.6, Leading zero omitted, Abs format (unit mm)*
G04 Created by KiCad (PCBNEW 4.0.0-rc2-stable) date 3/3/2016 3:46:00 PM*
%MOMM*%
G01*
G04 APERTURE LIST*
%ADD10C,0.150000*%
%ADD11C,0.100000*%
G04 APERTURE END LIST*
D10*
D11*
X82980000Y-51160000D02*
X74500000Y-51160000D01*
X74500000Y-51160000D02*
X74500000Y-51150000D01*
X74500000Y-51150000D02*
X74500000Y-36700000D01*
X74500000Y-36700000D02*
X67590000Y-43930000D01*
X67590000Y-43930000D02*
X66670000Y-43930000D01*
X66670000Y-43930000D02*
X59810000Y-36700000D01*
X59810000Y-36700000D02*
X59810000Y-51150000D01*
X59810000Y-51150000D02*
X59810000Y-51160000D01*
X59810000Y-51160000D02*
X51330000Y-51160000D01*
X51330000Y-51160000D02*
X51330000Y-51150000D01*
X51330000Y-51150000D02*
X46630000Y-51150000D01*
X46630000Y-51150000D02*
X46630000Y-45150000D01*
X46630000Y-45150000D02*
X51330000Y-45150000D01*
X51330000Y-45150000D02*
X51330000Y-18630000D01*
X51330000Y-18630000D02*
X51330000Y-18630000D01*
X51330000Y-18630000D02*
X54390000Y-18630000D01*
X54390000Y-18630000D02*
X67090000Y-32710000D01*
X67090000Y-32710000D02*
X80010000Y-18630000D01*
X80010000Y-18630000D02*
X82980000Y-18630000D01*
X82980000Y-18630000D02*
X82980000Y-18630000D01*
X82980000Y-18630000D02*
X82980000Y-45150000D01*
X82980000Y-45150000D02*
X87680000Y-45150000D01*
X87680000Y-45150000D02*
X87680000Y-51150000D01*
X87680000Y-51150000D02*
X82980000Y-51150000D01*
X82980000Y-51150000D02*
X82980000Y-51160000D01*
X82980000Y-51160000D02*
X82980000Y-51160000D01*
X82980000Y-51160000D02*
X82980000Y-51160000D01*
M02*
