G04 #@! TF.FileFunction,Profile,NP*
%FSLAX46Y46*%
G04 Gerber Fmt 4.6, Leading zero omitted, Abs format (unit mm)*
G04 Created by KiCad (PCBNEW 4.0.0-rc2-stable) date 3/3/2016 3:07:13 PM*
%MOMM*%
G01*
G04 APERTURE LIST*
%ADD10C,0.150000*%
%ADD11C,0.100000*%
G04 APERTURE END LIST*
D10*
D11*
X84130000Y-51160000D02*
X76030000Y-51160000D01*
X76030000Y-51160000D02*
X74130000Y-47080000D01*
X74130000Y-47080000D02*
X61340000Y-47080000D01*
X61340000Y-47080000D02*
X59440000Y-51160000D01*
X59440000Y-51160000D02*
X51330000Y-51160000D01*
X51330000Y-51160000D02*
X51330000Y-51150000D01*
X51330000Y-51150000D02*
X46630000Y-51150000D01*
X46630000Y-51150000D02*
X46630000Y-45150000D01*
X46630000Y-45150000D02*
X53540000Y-45150000D01*
X53540000Y-45150000D02*
X65930000Y-18310000D01*
X65930000Y-18310000D02*
X69490000Y-18310000D01*
X69490000Y-18310000D02*
X81920000Y-45150000D01*
X81920000Y-45150000D02*
X88830000Y-45150000D01*
X88830000Y-45150000D02*
X88830000Y-51150000D01*
X88830000Y-51150000D02*
X84140000Y-51150000D01*
X84140000Y-51150000D02*
X84130000Y-51160000D01*
X84130000Y-51160000D02*
X84130000Y-51160000D01*
X84130000Y-51160000D02*
X84130000Y-51160000D01*
X67690000Y-32160000D02*
X64350000Y-39620000D01*
X64350000Y-39620000D02*
X71120000Y-39620000D01*
X71120000Y-39620000D02*
X67690000Y-32160000D01*
X67690000Y-32160000D02*
X67690000Y-32160000D01*
X67690000Y-32160000D02*
X67690000Y-32160000D01*
M02*
