G04 #@! TF.FileFunction,Soldermask,Top*
%FSLAX46Y46*%
G04 Gerber Fmt 4.6, Leading zero omitted, Abs format (unit mm)*
G04 Created by KiCad (PCBNEW 4.0.0-rc2-stable) date 3/3/2016 3:47:34 PM*
%MOMM*%
G01*
G04 APERTURE LIST*
%ADD10C,0.150000*%
%ADD11R,4.000000X1.000000*%
%ADD12C,0.600000*%
G04 APERTURE END LIST*
D10*
G36*
X55044068Y-44379281D02*
X56526152Y-43357798D01*
X56809898Y-43769487D01*
X55327814Y-44790970D01*
X55044068Y-44379281D01*
X55044068Y-44379281D01*
G37*
G36*
X55967531Y-46159679D02*
X57861304Y-44854451D01*
X58042901Y-45117933D01*
X56149128Y-46423161D01*
X55967531Y-46159679D01*
X55967531Y-46159679D01*
G37*
G36*
X55121969Y-44932843D02*
X57015743Y-43627615D01*
X57469735Y-44286319D01*
X55575961Y-45591547D01*
X55121969Y-44932843D01*
X55121969Y-44932843D01*
G37*
G36*
X60666661Y-48644401D02*
X61135957Y-46906655D01*
X61618665Y-47037015D01*
X61149369Y-48774761D01*
X60666661Y-48644401D01*
X60666661Y-48644401D01*
G37*
G36*
X62522656Y-49404587D02*
X63122312Y-47184134D01*
X63431244Y-47267565D01*
X62831588Y-49488018D01*
X62522656Y-49404587D01*
X62522656Y-49404587D01*
G37*
G36*
X61084188Y-49016115D02*
X61683844Y-46795661D01*
X62456176Y-47004237D01*
X61856520Y-49224691D01*
X61084188Y-49016115D01*
X61084188Y-49016115D01*
G37*
G36*
X67968090Y-48723692D02*
X67302479Y-47051280D01*
X67767038Y-46866388D01*
X68432649Y-48538800D01*
X67968090Y-48723692D01*
X67968090Y-48723692D01*
G37*
G36*
X69909481Y-48220101D02*
X69058977Y-46083130D01*
X69356295Y-45964799D01*
X70206799Y-48101770D01*
X69909481Y-48220101D01*
X69909481Y-48220101D01*
G37*
G36*
X68525096Y-48771079D02*
X67674592Y-46634108D01*
X68417886Y-46338281D01*
X69268390Y-48475252D01*
X68525096Y-48771079D01*
X68525096Y-48771079D01*
G37*
G36*
X74159840Y-44422181D02*
X72379587Y-44156286D01*
X72453446Y-43661771D01*
X74233699Y-43927666D01*
X74159840Y-44422181D01*
X74159840Y-44422181D01*
G37*
G36*
X74701058Y-42490943D02*
X72426290Y-42151188D01*
X72473560Y-41834699D01*
X74748328Y-42174454D01*
X74701058Y-42490943D01*
X74701058Y-42490943D01*
G37*
G36*
X74480956Y-43964596D02*
X72206189Y-43624842D01*
X72324364Y-42833618D01*
X74599131Y-43173372D01*
X74480956Y-43964596D01*
X74480956Y-43964596D01*
G37*
G36*
X73513507Y-37306246D02*
X72156658Y-38489022D01*
X71828109Y-38112120D01*
X73184958Y-36929344D01*
X73513507Y-37306246D01*
X73513507Y-37306246D01*
G37*
G36*
X72394334Y-35641900D02*
X70660581Y-37153224D01*
X70450310Y-36912006D01*
X72184063Y-35400682D01*
X72394334Y-35641900D01*
X72394334Y-35641900D01*
G37*
G36*
X73373409Y-36765069D02*
X71639657Y-38276394D01*
X71113979Y-37673349D01*
X72847731Y-36162024D01*
X73373409Y-36765069D01*
X73373409Y-36765069D01*
G37*
G36*
X67093001Y-34314416D02*
X66912161Y-36105309D01*
X66414691Y-36055076D01*
X66595531Y-34264183D01*
X67093001Y-34314416D01*
X67093001Y-34314416D01*
G37*
G36*
X65138187Y-33865753D02*
X64907114Y-36154116D01*
X64588733Y-36121967D01*
X64819806Y-33833604D01*
X65138187Y-33865753D01*
X65138187Y-33865753D01*
G37*
G36*
X66620647Y-34015448D02*
X66389575Y-36303811D01*
X65593623Y-36223438D01*
X65824695Y-33935075D01*
X66620647Y-34015448D01*
X66620647Y-34015448D01*
G37*
G36*
X60783675Y-33701762D02*
X60047929Y-35344528D01*
X59591605Y-35140154D01*
X60327351Y-33497388D01*
X60783675Y-33701762D01*
X60783675Y-33701762D01*
G37*
G36*
X59069693Y-32660192D02*
X58129574Y-34759281D01*
X57837527Y-34628482D01*
X58777646Y-32529393D01*
X59069693Y-32660192D01*
X59069693Y-32660192D01*
G37*
G36*
X60429538Y-33269227D02*
X59489418Y-35368316D01*
X58759300Y-35041317D01*
X59699420Y-32942228D01*
X60429538Y-33269227D01*
X60429538Y-33269227D01*
G37*
G36*
X57032345Y-29923527D02*
X55239916Y-30088440D01*
X55194107Y-29590543D01*
X56986536Y-29425630D01*
X57032345Y-29923527D01*
X57032345Y-29923527D01*
G37*
G36*
X57098974Y-27918992D02*
X54808648Y-28129714D01*
X54779330Y-27811060D01*
X57069656Y-27600338D01*
X57098974Y-27918992D01*
X57098974Y-27918992D01*
G37*
G36*
X57235486Y-29402726D02*
X54945159Y-29613448D01*
X54871864Y-28816812D01*
X57162191Y-28606090D01*
X57235486Y-29402726D01*
X57235486Y-29402726D01*
G37*
G36*
X58572312Y-24670935D02*
X57838987Y-23027088D01*
X58295612Y-22823387D01*
X59028937Y-24467234D01*
X58572312Y-24670935D01*
X58572312Y-24670935D01*
G37*
G36*
X60491528Y-24088516D02*
X59554502Y-21988045D01*
X59846742Y-21857676D01*
X60783768Y-23958147D01*
X60491528Y-24088516D01*
X60491528Y-24088516D01*
G37*
G36*
X59130788Y-24695547D02*
X58193761Y-22595075D01*
X58924360Y-22269153D01*
X59861387Y-24369625D01*
X59130788Y-24695547D01*
X59130788Y-24695547D01*
G37*
G36*
X64556999Y-23084618D02*
X64700234Y-21290326D01*
X65198649Y-21330114D01*
X65055414Y-23124406D01*
X64556999Y-23084618D01*
X64556999Y-23084618D01*
G37*
G36*
X66520795Y-23492180D02*
X66703818Y-21199474D01*
X67022803Y-21224938D01*
X66839780Y-23517644D01*
X66520795Y-23492180D01*
X66520795Y-23492180D01*
G37*
G36*
X65035520Y-23373613D02*
X65218543Y-21080907D01*
X66016006Y-21144567D01*
X65832983Y-23437273D01*
X65035520Y-23373613D01*
X65035520Y-23373613D01*
G37*
G36*
X69997174Y-25240285D02*
X71403337Y-24116584D01*
X71715476Y-24507185D01*
X70309313Y-25630886D01*
X69997174Y-25240285D01*
X69997174Y-25240285D01*
G37*
G36*
X71044186Y-26950947D02*
X72840951Y-25515107D01*
X73040720Y-25765091D01*
X71243955Y-27200931D01*
X71044186Y-26950947D01*
X71044186Y-26950947D01*
G37*
G36*
X70114011Y-25786955D02*
X71910776Y-24351115D01*
X72410199Y-24976077D01*
X70613434Y-26411917D01*
X70114011Y-25786955D01*
X70114011Y-25786955D01*
G37*
D11*
X79943790Y-50192200D03*
X79943790Y-48192200D03*
X79943790Y-46192200D03*
D12*
X78943790Y-50192200D03*
X78943790Y-48192200D03*
X78943790Y-46192200D03*
D11*
X49020840Y-46192200D03*
X49020840Y-48192200D03*
X49020840Y-50192200D03*
D12*
X50020840Y-46192200D03*
X50020840Y-48192200D03*
X50020840Y-50192200D03*
M02*
