G04 #@! TF.FileFunction,Copper,L2,Bot,Signal*
%FSLAX46Y46*%
G04 Gerber Fmt 4.6, Leading zero omitted, Abs format (unit mm)*
G04 Created by KiCad (PCBNEW 4.0.0-rc2-stable) date 3/3/2016 4:04:38 PM*
%MOMM*%
G01*
G04 APERTURE LIST*
%ADD10C,0.150000*%
%ADD11C,0.500000*%
%ADD12R,4.000000X1.000000*%
%ADD13C,0.600000*%
%ADD14R,2.000000X0.760000*%
%ADD15R,2.000000X0.740000*%
%ADD16R,0.600000X0.900000*%
%ADD17R,0.200000X0.900000*%
%ADD18R,0.200000X3.800000*%
%ADD19R,0.200000X6.500000*%
%ADD20R,0.400000X0.200000*%
%ADD21R,0.800000X0.200000*%
%ADD22R,0.200000X2.000000*%
%ADD23C,0.254000*%
%ADD24C,0.152400*%
G04 APERTURE END LIST*
D10*
D11*
X56469380Y-21395544D03*
X56469380Y-27731009D03*
X56469380Y-34066473D03*
X56469380Y-40401938D03*
X56469380Y-46737402D03*
X73114330Y-48937402D03*
X73114330Y-42601938D03*
X73114330Y-36266473D03*
X73114330Y-29931009D03*
X73114330Y-23595544D03*
X68925745Y-35258006D03*
X62569086Y-35258006D03*
D12*
X80684685Y-50192207D03*
X80684685Y-48192207D03*
X80684685Y-46192207D03*
D13*
X79684685Y-50192207D03*
X79684685Y-48192207D03*
X79684685Y-46192207D03*
D12*
X49020840Y-46192207D03*
X49020840Y-48192207D03*
X49020840Y-50192207D03*
D13*
X50020840Y-46192207D03*
X50020840Y-48192207D03*
X50020840Y-50192207D03*
D10*
G36*
X75107327Y-28330830D02*
X72366690Y-29551040D01*
X71309175Y-27175822D01*
X74049812Y-25955612D01*
X75107327Y-28330830D01*
X75107327Y-28330830D01*
G37*
G36*
X55760823Y-37491767D02*
X53020187Y-38711977D01*
X51555935Y-35423213D01*
X54296571Y-34203003D01*
X55760823Y-37491767D01*
X55760823Y-37491767D01*
G37*
D11*
X51922642Y-37230289D03*
D14*
X72342380Y-44290946D03*
X72342380Y-45560946D03*
X72342380Y-46830946D03*
X72342380Y-48100946D03*
X75542380Y-44290946D03*
X75542380Y-45560946D03*
X75542380Y-46830946D03*
D15*
X75542380Y-48100946D03*
D16*
X76242380Y-43095946D03*
X74742380Y-43095946D03*
X74742380Y-41845946D03*
X76242380Y-41845946D03*
X76242380Y-40595946D03*
X74742380Y-40595946D03*
D17*
X74792380Y-43745946D03*
D18*
X74142380Y-43745946D03*
D19*
X73692380Y-43745946D03*
D20*
X74342380Y-41945946D03*
X74342380Y-45545946D03*
D21*
X74142380Y-46895946D03*
X74142380Y-40595946D03*
D22*
X76242380Y-41895946D03*
D23*
X53660000Y-36460000D02*
X51920000Y-37230000D01*
X53660000Y-36460000D02*
X51920000Y-37230000D01*
X53660000Y-36460000D02*
X51920000Y-37230000D01*
X53660000Y-36460000D02*
X51920000Y-37230000D01*
X53660000Y-36460000D02*
X51920000Y-37230000D01*
X53660000Y-36460000D02*
X51920000Y-37230000D01*
X53660000Y-36460000D02*
X51920000Y-37230000D01*
X53660000Y-36460000D02*
X51920000Y-37230000D01*
X53660000Y-36460000D02*
X51920000Y-37230000D01*
X73210000Y-27750000D02*
X76240000Y-41900000D01*
X73210000Y-27750000D02*
X76240000Y-41900000D01*
X73210000Y-27750000D02*
X76240000Y-41900000D01*
X73210000Y-27750000D02*
X76240000Y-41900000D01*
X73210000Y-27750000D02*
X76240000Y-41900000D01*
X73210000Y-27750000D02*
X76240000Y-41900000D01*
X73210000Y-27750000D02*
X76240000Y-41900000D01*
X73210000Y-27750000D02*
X76240000Y-41900000D01*
X73210000Y-27750000D02*
X76240000Y-41900000D01*
D24*
G36*
X59531400Y-30490000D02*
X59552607Y-30596616D01*
X59613000Y-30687000D01*
X59703384Y-30747393D01*
X59810000Y-30768600D01*
X69820000Y-30768600D01*
X69926616Y-30747393D01*
X70017000Y-30687000D01*
X70077393Y-30596616D01*
X70098600Y-30490000D01*
X70098600Y-27180314D01*
X71076140Y-27180314D01*
X71096248Y-27270623D01*
X72153763Y-29645841D01*
X72202781Y-29716748D01*
X72280164Y-29767462D01*
X72292369Y-29769690D01*
X72267086Y-29856156D01*
X72302934Y-30186080D01*
X72360224Y-30324390D01*
X72535694Y-30332868D01*
X72937553Y-29931009D01*
X72886076Y-29879532D01*
X73062853Y-29702755D01*
X73114330Y-29754232D01*
X73165808Y-29702755D01*
X73291380Y-29828327D01*
X73309442Y-29912674D01*
X73291107Y-29931009D01*
X73319433Y-29959335D01*
X73327599Y-29997472D01*
X73165808Y-30159264D01*
X73114330Y-30107786D01*
X72712471Y-30509645D01*
X72720949Y-30685115D01*
X73039477Y-30778253D01*
X73369401Y-30742405D01*
X73477525Y-30697618D01*
X75743899Y-41281508D01*
X75727665Y-41305266D01*
X75709302Y-41395946D01*
X75709302Y-42295946D01*
X75725242Y-42380660D01*
X75775308Y-42458464D01*
X75792900Y-42470484D01*
X75779862Y-42478874D01*
X75727665Y-42555266D01*
X75709302Y-42645946D01*
X75709302Y-43545946D01*
X75725242Y-43630660D01*
X75755620Y-43677868D01*
X75228915Y-43677868D01*
X75257095Y-43636626D01*
X75275458Y-43545946D01*
X75275458Y-42645946D01*
X75259518Y-42561232D01*
X75209452Y-42483428D01*
X75191860Y-42471408D01*
X75204898Y-42463018D01*
X75257095Y-42386626D01*
X75275458Y-42295946D01*
X75275458Y-41395946D01*
X75259518Y-41311232D01*
X75209452Y-41233428D01*
X75191860Y-41221408D01*
X75204898Y-41213018D01*
X75257095Y-41136626D01*
X75275458Y-41045946D01*
X75275458Y-40145946D01*
X75259518Y-40061232D01*
X75209452Y-39983428D01*
X75133060Y-39931231D01*
X75042380Y-39912868D01*
X74442380Y-39912868D01*
X74357666Y-39928808D01*
X74279862Y-39978874D01*
X74227665Y-40055266D01*
X74209302Y-40145946D01*
X74209302Y-40262868D01*
X73592380Y-40262868D01*
X73507666Y-40278808D01*
X73429862Y-40328874D01*
X73377665Y-40405266D01*
X73359302Y-40495946D01*
X73359302Y-41804437D01*
X73189183Y-41754694D01*
X72859259Y-41790542D01*
X72720949Y-41847832D01*
X72712471Y-42023302D01*
X73114330Y-42425161D01*
X73165808Y-42373684D01*
X73342585Y-42550461D01*
X73291107Y-42601938D01*
X73342585Y-42653416D01*
X73165808Y-42830193D01*
X73114330Y-42778715D01*
X72712471Y-43180574D01*
X72719533Y-43326746D01*
X72666230Y-43326746D01*
X72520180Y-43472796D01*
X72520180Y-44113146D01*
X72540180Y-44113146D01*
X72540180Y-44468746D01*
X72520180Y-44468746D01*
X72520180Y-45383146D01*
X72540180Y-45383146D01*
X72540180Y-45738746D01*
X72520180Y-45738746D01*
X72520180Y-46653146D01*
X72540180Y-46653146D01*
X72540180Y-47008746D01*
X72520180Y-47008746D01*
X72520180Y-47923146D01*
X73780530Y-47923146D01*
X73926580Y-47777096D01*
X73926580Y-47730946D01*
X74309302Y-47730946D01*
X74309302Y-48470946D01*
X74325242Y-48555660D01*
X74375308Y-48633464D01*
X74451700Y-48685661D01*
X74542380Y-48704024D01*
X76542380Y-48704024D01*
X76627094Y-48688084D01*
X76704898Y-48638018D01*
X76757095Y-48561626D01*
X76775458Y-48470946D01*
X76775458Y-47730946D01*
X76759518Y-47646232D01*
X76709452Y-47568428D01*
X76633060Y-47516231D01*
X76542380Y-47497868D01*
X74542380Y-47497868D01*
X74457666Y-47513808D01*
X74379862Y-47563874D01*
X74327665Y-47640266D01*
X74309302Y-47730946D01*
X73926580Y-47730946D01*
X73926580Y-47604741D01*
X73869089Y-47465946D01*
X73926580Y-47327151D01*
X73926580Y-47229024D01*
X74312704Y-47229024D01*
X74325242Y-47295660D01*
X74375308Y-47373464D01*
X74451700Y-47425661D01*
X74542380Y-47444024D01*
X76542380Y-47444024D01*
X76627094Y-47428084D01*
X76704898Y-47378018D01*
X76757095Y-47301626D01*
X76775458Y-47210946D01*
X76775458Y-46450946D01*
X76759518Y-46366232D01*
X76709452Y-46288428D01*
X76633060Y-46236231D01*
X76542380Y-46217868D01*
X74542380Y-46217868D01*
X74457666Y-46233808D01*
X74379862Y-46283874D01*
X74327665Y-46360266D01*
X74309302Y-46450946D01*
X74309302Y-46562868D01*
X74025458Y-46562868D01*
X74025458Y-45875597D01*
X74042380Y-45879024D01*
X74309302Y-45879024D01*
X74309302Y-45940946D01*
X74325242Y-46025660D01*
X74375308Y-46103464D01*
X74451700Y-46155661D01*
X74542380Y-46174024D01*
X76542380Y-46174024D01*
X76627094Y-46158084D01*
X76704898Y-46108018D01*
X76757095Y-46031626D01*
X76775458Y-45940946D01*
X76775458Y-45180946D01*
X76759518Y-45096232D01*
X76709452Y-45018428D01*
X76633060Y-44966231D01*
X76542380Y-44947868D01*
X74542380Y-44947868D01*
X74475458Y-44960460D01*
X74475458Y-44890472D01*
X74542380Y-44904024D01*
X76542380Y-44904024D01*
X76627094Y-44888084D01*
X76704898Y-44838018D01*
X76757095Y-44761626D01*
X76775458Y-44670946D01*
X76775458Y-43910946D01*
X76759518Y-43826232D01*
X76709452Y-43748428D01*
X76680554Y-43728683D01*
X76704898Y-43713018D01*
X76757095Y-43636626D01*
X76775458Y-43545946D01*
X76775458Y-42645946D01*
X76759518Y-42561232D01*
X76709452Y-42483428D01*
X76691860Y-42471408D01*
X76704898Y-42463018D01*
X76757095Y-42386626D01*
X76775458Y-42295946D01*
X76775458Y-41395946D01*
X76759518Y-41311232D01*
X76709452Y-41233428D01*
X76691860Y-41221408D01*
X76704898Y-41213018D01*
X76757095Y-41136626D01*
X76775458Y-41045946D01*
X76775458Y-40145946D01*
X76759518Y-40061232D01*
X76709452Y-39983428D01*
X76633060Y-39931231D01*
X76542380Y-39912868D01*
X76178148Y-39912868D01*
X73870580Y-29136600D01*
X75202128Y-28543757D01*
X75273035Y-28494739D01*
X75323749Y-28417356D01*
X75340362Y-28326338D01*
X75320254Y-28236029D01*
X74262739Y-25860811D01*
X74213721Y-25789904D01*
X74136338Y-25739190D01*
X74045320Y-25722577D01*
X73955011Y-25742685D01*
X71214374Y-26962895D01*
X71143467Y-27011913D01*
X71092753Y-27089296D01*
X71076140Y-27180314D01*
X70098600Y-27180314D01*
X70098600Y-24174180D01*
X72712471Y-24174180D01*
X72720949Y-24349650D01*
X73039477Y-24442788D01*
X73369401Y-24406940D01*
X73507711Y-24349650D01*
X73516189Y-24174180D01*
X73114330Y-23772321D01*
X72712471Y-24174180D01*
X70098600Y-24174180D01*
X70098600Y-23520691D01*
X72267086Y-23520691D01*
X72302934Y-23850615D01*
X72360224Y-23988925D01*
X72535694Y-23997403D01*
X72937553Y-23595544D01*
X73291107Y-23595544D01*
X73692966Y-23997403D01*
X73868436Y-23988925D01*
X73961574Y-23670397D01*
X73925726Y-23340473D01*
X73868436Y-23202163D01*
X73692966Y-23193685D01*
X73291107Y-23595544D01*
X72937553Y-23595544D01*
X72535694Y-23193685D01*
X72360224Y-23202163D01*
X72267086Y-23520691D01*
X70098600Y-23520691D01*
X70098600Y-23016908D01*
X72712471Y-23016908D01*
X73114330Y-23418767D01*
X73516189Y-23016908D01*
X73507711Y-22841438D01*
X73189183Y-22748300D01*
X72859259Y-22784148D01*
X72720949Y-22841438D01*
X72712471Y-23016908D01*
X70098600Y-23016908D01*
X70098600Y-18998600D01*
X78021400Y-18998600D01*
X78021400Y-45150000D01*
X78042607Y-45256616D01*
X78103000Y-45347000D01*
X78175324Y-45395325D01*
X78100485Y-45576002D01*
X78100485Y-45868357D01*
X78246535Y-46014407D01*
X78816765Y-46014407D01*
X78785273Y-46130540D01*
X78816067Y-46370007D01*
X78246535Y-46370007D01*
X78100485Y-46516057D01*
X78100485Y-46808412D01*
X78189424Y-47023130D01*
X78353763Y-47187468D01*
X78568481Y-47276407D01*
X80360835Y-47276407D01*
X80506885Y-47130357D01*
X80506885Y-46538605D01*
X80584097Y-46253874D01*
X80550731Y-45994407D01*
X80862485Y-45994407D01*
X80862485Y-46014407D01*
X80882485Y-46014407D01*
X80882485Y-46370007D01*
X80862485Y-46370007D01*
X80862485Y-47130357D01*
X81008535Y-47276407D01*
X82721400Y-47276407D01*
X82721400Y-47466564D01*
X82684685Y-47459129D01*
X78684685Y-47459129D01*
X78599971Y-47475069D01*
X78522167Y-47525135D01*
X78469970Y-47601527D01*
X78451607Y-47692207D01*
X78451607Y-48692207D01*
X78467547Y-48776921D01*
X78517613Y-48854725D01*
X78594005Y-48906922D01*
X78684685Y-48925285D01*
X82684685Y-48925285D01*
X82721400Y-48918377D01*
X82721400Y-49108007D01*
X81008535Y-49108007D01*
X80862485Y-49254057D01*
X80862485Y-50014407D01*
X80882485Y-50014407D01*
X80882485Y-50370007D01*
X80862485Y-50370007D01*
X80862485Y-50390007D01*
X80547181Y-50390007D01*
X80584097Y-50253874D01*
X80539232Y-49904990D01*
X80506885Y-49826897D01*
X80506885Y-49254057D01*
X80360835Y-49108007D01*
X78568481Y-49108007D01*
X78353763Y-49196946D01*
X78189424Y-49361284D01*
X78100485Y-49576002D01*
X78100485Y-49868357D01*
X78246535Y-50014407D01*
X78816765Y-50014407D01*
X78785273Y-50130540D01*
X78816067Y-50370007D01*
X78246535Y-50370007D01*
X78100485Y-50516057D01*
X78100485Y-50808412D01*
X78130718Y-50881400D01*
X70098600Y-50881400D01*
X70098600Y-49516038D01*
X72712471Y-49516038D01*
X72720949Y-49691508D01*
X73039477Y-49784646D01*
X73369401Y-49748798D01*
X73507711Y-49691508D01*
X73516189Y-49516038D01*
X73114330Y-49114179D01*
X72712471Y-49516038D01*
X70098600Y-49516038D01*
X70098600Y-48424796D01*
X70758180Y-48424796D01*
X70758180Y-48597151D01*
X70847119Y-48811869D01*
X71011458Y-48976207D01*
X71226176Y-49065146D01*
X72018530Y-49065146D01*
X72164578Y-48919098D01*
X72164578Y-49065146D01*
X72289099Y-49065146D01*
X72302934Y-49192473D01*
X72360224Y-49330783D01*
X72535694Y-49339261D01*
X72809809Y-49065146D01*
X73418851Y-49065146D01*
X73692966Y-49339261D01*
X73868436Y-49330783D01*
X73961574Y-49012255D01*
X73925726Y-48682331D01*
X73908512Y-48640772D01*
X73926580Y-48597151D01*
X73926580Y-48424796D01*
X73780530Y-48278746D01*
X73656412Y-48278746D01*
X73588974Y-48211308D01*
X73521536Y-48278746D01*
X73512323Y-48278746D01*
X73507711Y-48183296D01*
X73189183Y-48090158D01*
X72859259Y-48126006D01*
X72720949Y-48183296D01*
X72716337Y-48278746D01*
X72520180Y-48278746D01*
X72520180Y-48298746D01*
X72164580Y-48298746D01*
X72164580Y-48278746D01*
X70904230Y-48278746D01*
X70758180Y-48424796D01*
X70098600Y-48424796D01*
X70098600Y-47154796D01*
X70758180Y-47154796D01*
X70758180Y-47327151D01*
X70815671Y-47465946D01*
X70758180Y-47604741D01*
X70758180Y-47777096D01*
X70904230Y-47923146D01*
X72164580Y-47923146D01*
X72164580Y-47008746D01*
X70904230Y-47008746D01*
X70758180Y-47154796D01*
X70098600Y-47154796D01*
X70098600Y-45884796D01*
X70758180Y-45884796D01*
X70758180Y-46057151D01*
X70815671Y-46195946D01*
X70758180Y-46334741D01*
X70758180Y-46507096D01*
X70904230Y-46653146D01*
X72164580Y-46653146D01*
X72164580Y-45738746D01*
X70904230Y-45738746D01*
X70758180Y-45884796D01*
X70098600Y-45884796D01*
X70098600Y-44614796D01*
X70758180Y-44614796D01*
X70758180Y-44787151D01*
X70815671Y-44925946D01*
X70758180Y-45064741D01*
X70758180Y-45237096D01*
X70904230Y-45383146D01*
X72164580Y-45383146D01*
X72164580Y-44468746D01*
X70904230Y-44468746D01*
X70758180Y-44614796D01*
X70098600Y-44614796D01*
X70098600Y-43794741D01*
X70758180Y-43794741D01*
X70758180Y-43967096D01*
X70904230Y-44113146D01*
X72164580Y-44113146D01*
X72164580Y-43472796D01*
X72018530Y-43326746D01*
X71226176Y-43326746D01*
X71011458Y-43415685D01*
X70847119Y-43580023D01*
X70758180Y-43794741D01*
X70098600Y-43794741D01*
X70098600Y-42527085D01*
X72267086Y-42527085D01*
X72302934Y-42857009D01*
X72360224Y-42995319D01*
X72535694Y-43003797D01*
X72937553Y-42601938D01*
X72535694Y-42200079D01*
X72360224Y-42208557D01*
X72267086Y-42527085D01*
X70098600Y-42527085D01*
X70098600Y-38140000D01*
X70077393Y-38033384D01*
X70017000Y-37943000D01*
X69926616Y-37882607D01*
X69820000Y-37861400D01*
X59810000Y-37861400D01*
X59703384Y-37882607D01*
X59613000Y-37943000D01*
X59552607Y-38033384D01*
X59531400Y-38140000D01*
X59531400Y-50881400D01*
X51574807Y-50881400D01*
X51605040Y-50808412D01*
X51605040Y-50516057D01*
X51458990Y-50370007D01*
X50888760Y-50370007D01*
X50920252Y-50253874D01*
X50889458Y-50014407D01*
X51458990Y-50014407D01*
X51605040Y-49868357D01*
X51605040Y-49576002D01*
X51516101Y-49361284D01*
X51351762Y-49196946D01*
X51137044Y-49108007D01*
X49344690Y-49108007D01*
X49198640Y-49254057D01*
X49198640Y-49845809D01*
X49121428Y-50130540D01*
X49154794Y-50390007D01*
X48843040Y-50390007D01*
X48843040Y-50370007D01*
X48823040Y-50370007D01*
X48823040Y-50014407D01*
X48843040Y-50014407D01*
X48843040Y-49254057D01*
X48696990Y-49108007D01*
X46908600Y-49108007D01*
X46908600Y-48892191D01*
X46930160Y-48906922D01*
X47020840Y-48925285D01*
X51020840Y-48925285D01*
X51105554Y-48909345D01*
X51183358Y-48859279D01*
X51235555Y-48782887D01*
X51253918Y-48692207D01*
X51253918Y-47692207D01*
X51237978Y-47607493D01*
X51187912Y-47529689D01*
X51111520Y-47477492D01*
X51020840Y-47459129D01*
X47020840Y-47459129D01*
X46936126Y-47475069D01*
X46908600Y-47492782D01*
X46908600Y-47316038D01*
X56067521Y-47316038D01*
X56075999Y-47491508D01*
X56394527Y-47584646D01*
X56724451Y-47548798D01*
X56862761Y-47491508D01*
X56871239Y-47316038D01*
X56469380Y-46914179D01*
X56067521Y-47316038D01*
X46908600Y-47316038D01*
X46908600Y-47276407D01*
X48696990Y-47276407D01*
X48843040Y-47130357D01*
X48843040Y-46370007D01*
X48823040Y-46370007D01*
X48823040Y-46014407D01*
X48843040Y-46014407D01*
X48843040Y-45994407D01*
X49158344Y-45994407D01*
X49121428Y-46130540D01*
X49166293Y-46479424D01*
X49198640Y-46557517D01*
X49198640Y-47130357D01*
X49344690Y-47276407D01*
X51137044Y-47276407D01*
X51351762Y-47187468D01*
X51516101Y-47023130D01*
X51605040Y-46808412D01*
X51605040Y-46662549D01*
X55622136Y-46662549D01*
X55657984Y-46992473D01*
X55715274Y-47130783D01*
X55890744Y-47139261D01*
X56292603Y-46737402D01*
X56646157Y-46737402D01*
X57048016Y-47139261D01*
X57223486Y-47130783D01*
X57316624Y-46812255D01*
X57280776Y-46482331D01*
X57223486Y-46344021D01*
X57048016Y-46335543D01*
X56646157Y-46737402D01*
X56292603Y-46737402D01*
X55890744Y-46335543D01*
X55715274Y-46344021D01*
X55622136Y-46662549D01*
X51605040Y-46662549D01*
X51605040Y-46516057D01*
X51458990Y-46370007D01*
X50888760Y-46370007D01*
X50920252Y-46253874D01*
X50908022Y-46158766D01*
X56067521Y-46158766D01*
X56469380Y-46560625D01*
X56871239Y-46158766D01*
X56862761Y-45983296D01*
X56544233Y-45890158D01*
X56214309Y-45926006D01*
X56075999Y-45983296D01*
X56067521Y-46158766D01*
X50908022Y-46158766D01*
X50889458Y-46014407D01*
X51458990Y-46014407D01*
X51605040Y-45868357D01*
X51605040Y-45576002D01*
X51516101Y-45361284D01*
X51511904Y-45357087D01*
X51527000Y-45347000D01*
X51587393Y-45256616D01*
X51608600Y-45150000D01*
X51608600Y-40980574D01*
X56067521Y-40980574D01*
X56075999Y-41156044D01*
X56394527Y-41249182D01*
X56724451Y-41213334D01*
X56862761Y-41156044D01*
X56871239Y-40980574D01*
X56469380Y-40578715D01*
X56067521Y-40980574D01*
X51608600Y-40980574D01*
X51608600Y-40327085D01*
X55622136Y-40327085D01*
X55657984Y-40657009D01*
X55715274Y-40795319D01*
X55890744Y-40803797D01*
X56292603Y-40401938D01*
X56646157Y-40401938D01*
X57048016Y-40803797D01*
X57223486Y-40795319D01*
X57316624Y-40476791D01*
X57280776Y-40146867D01*
X57223486Y-40008557D01*
X57048016Y-40000079D01*
X56646157Y-40401938D01*
X56292603Y-40401938D01*
X55890744Y-40000079D01*
X55715274Y-40008557D01*
X55622136Y-40327085D01*
X51608600Y-40327085D01*
X51608600Y-39823302D01*
X56067521Y-39823302D01*
X56469380Y-40225161D01*
X56871239Y-39823302D01*
X56862761Y-39647832D01*
X56544233Y-39554694D01*
X56214309Y-39590542D01*
X56075999Y-39647832D01*
X56067521Y-39823302D01*
X51608600Y-39823302D01*
X51608600Y-37593132D01*
X51651183Y-37635789D01*
X51827025Y-37708805D01*
X52017424Y-37708972D01*
X52193393Y-37636263D01*
X52257583Y-37572184D01*
X52807260Y-38806778D01*
X52856278Y-38877685D01*
X52933661Y-38928399D01*
X53024679Y-38945012D01*
X53114988Y-38924904D01*
X55855624Y-37704694D01*
X55926531Y-37655676D01*
X55977245Y-37578293D01*
X55993858Y-37487275D01*
X55973750Y-37396966D01*
X55728049Y-36845109D01*
X72712471Y-36845109D01*
X72720949Y-37020579D01*
X73039477Y-37113717D01*
X73369401Y-37077869D01*
X73507711Y-37020579D01*
X73516189Y-36845109D01*
X73114330Y-36443250D01*
X72712471Y-36845109D01*
X55728049Y-36845109D01*
X55437097Y-36191620D01*
X72267086Y-36191620D01*
X72302934Y-36521544D01*
X72360224Y-36659854D01*
X72535694Y-36668332D01*
X72937553Y-36266473D01*
X73291107Y-36266473D01*
X73692966Y-36668332D01*
X73868436Y-36659854D01*
X73961574Y-36341326D01*
X73925726Y-36011402D01*
X73868436Y-35873092D01*
X73692966Y-35864614D01*
X73291107Y-36266473D01*
X72937553Y-36266473D01*
X72535694Y-35864614D01*
X72360224Y-35873092D01*
X72267086Y-36191620D01*
X55437097Y-36191620D01*
X55279050Y-35836642D01*
X62167227Y-35836642D01*
X62175705Y-36012112D01*
X62494233Y-36105250D01*
X62824157Y-36069402D01*
X62962467Y-36012112D01*
X62970945Y-35836642D01*
X68523886Y-35836642D01*
X68532364Y-36012112D01*
X68850892Y-36105250D01*
X69180816Y-36069402D01*
X69319126Y-36012112D01*
X69327604Y-35836642D01*
X69178799Y-35687837D01*
X72712471Y-35687837D01*
X73114330Y-36089696D01*
X73516189Y-35687837D01*
X73507711Y-35512367D01*
X73189183Y-35419229D01*
X72859259Y-35455077D01*
X72720949Y-35512367D01*
X72712471Y-35687837D01*
X69178799Y-35687837D01*
X68925745Y-35434783D01*
X68523886Y-35836642D01*
X62970945Y-35836642D01*
X62569086Y-35434783D01*
X62167227Y-35836642D01*
X55279050Y-35836642D01*
X54988098Y-35183153D01*
X61721842Y-35183153D01*
X61757690Y-35513077D01*
X61814980Y-35651387D01*
X61990450Y-35659865D01*
X62392309Y-35258006D01*
X62745863Y-35258006D01*
X63147722Y-35659865D01*
X63323192Y-35651387D01*
X63416330Y-35332859D01*
X63400064Y-35183153D01*
X68078501Y-35183153D01*
X68114349Y-35513077D01*
X68171639Y-35651387D01*
X68347109Y-35659865D01*
X68748968Y-35258006D01*
X69102522Y-35258006D01*
X69504381Y-35659865D01*
X69679851Y-35651387D01*
X69772989Y-35332859D01*
X69737141Y-35002935D01*
X69679851Y-34864625D01*
X69504381Y-34856147D01*
X69102522Y-35258006D01*
X68748968Y-35258006D01*
X68347109Y-34856147D01*
X68171639Y-34864625D01*
X68078501Y-35183153D01*
X63400064Y-35183153D01*
X63380482Y-35002935D01*
X63323192Y-34864625D01*
X63147722Y-34856147D01*
X62745863Y-35258006D01*
X62392309Y-35258006D01*
X61990450Y-34856147D01*
X61814980Y-34864625D01*
X61721842Y-35183153D01*
X54988098Y-35183153D01*
X54748545Y-34645109D01*
X56067521Y-34645109D01*
X56075999Y-34820579D01*
X56394527Y-34913717D01*
X56724451Y-34877869D01*
X56862761Y-34820579D01*
X56869583Y-34679370D01*
X62167227Y-34679370D01*
X62569086Y-35081229D01*
X62970945Y-34679370D01*
X68523886Y-34679370D01*
X68925745Y-35081229D01*
X69327604Y-34679370D01*
X69319126Y-34503900D01*
X69000598Y-34410762D01*
X68670674Y-34446610D01*
X68532364Y-34503900D01*
X68523886Y-34679370D01*
X62970945Y-34679370D01*
X62962467Y-34503900D01*
X62643939Y-34410762D01*
X62314015Y-34446610D01*
X62175705Y-34503900D01*
X62167227Y-34679370D01*
X56869583Y-34679370D01*
X56871239Y-34645109D01*
X56469380Y-34243250D01*
X56067521Y-34645109D01*
X54748545Y-34645109D01*
X54509498Y-34108202D01*
X54460480Y-34037295D01*
X54390786Y-33991620D01*
X55622136Y-33991620D01*
X55657984Y-34321544D01*
X55715274Y-34459854D01*
X55890744Y-34468332D01*
X56292603Y-34066473D01*
X56646157Y-34066473D01*
X57048016Y-34468332D01*
X57223486Y-34459854D01*
X57316624Y-34141326D01*
X57280776Y-33811402D01*
X57223486Y-33673092D01*
X57048016Y-33664614D01*
X56646157Y-34066473D01*
X56292603Y-34066473D01*
X55890744Y-33664614D01*
X55715274Y-33673092D01*
X55622136Y-33991620D01*
X54390786Y-33991620D01*
X54383097Y-33986581D01*
X54292079Y-33969968D01*
X54201770Y-33990076D01*
X51608600Y-35144630D01*
X51608600Y-33496899D01*
X51894113Y-33496899D01*
X51904113Y-33606899D01*
X51918655Y-33645202D01*
X52058655Y-33835202D01*
X52084992Y-33857682D01*
X52374992Y-34007682D01*
X52392351Y-34014128D01*
X52812351Y-34114128D01*
X52821882Y-34115766D01*
X53101882Y-34145766D01*
X53110000Y-34146200D01*
X53140000Y-34146200D01*
X53146508Y-34145922D01*
X53496508Y-34115922D01*
X53507835Y-34114083D01*
X54047835Y-33984083D01*
X54067006Y-33976611D01*
X54427006Y-33776611D01*
X54453402Y-33752268D01*
X54629689Y-33487837D01*
X56067521Y-33487837D01*
X56469380Y-33889696D01*
X56871239Y-33487837D01*
X56862761Y-33312367D01*
X56544233Y-33219229D01*
X56214309Y-33255077D01*
X56075999Y-33312367D01*
X56067521Y-33487837D01*
X54629689Y-33487837D01*
X54633402Y-33482268D01*
X54645612Y-33449451D01*
X54665612Y-33289451D01*
X54660750Y-33251700D01*
X54640750Y-33201700D01*
X54632344Y-33186186D01*
X54610386Y-33165383D01*
X54530386Y-33115383D01*
X54503741Y-33105049D01*
X54473498Y-33105608D01*
X54445856Y-33117889D01*
X54425169Y-33139957D01*
X54223426Y-33466588D01*
X54045771Y-33590947D01*
X53566870Y-33744195D01*
X53278721Y-33753800D01*
X53144111Y-33753800D01*
X52784384Y-33714911D01*
X52440767Y-33619461D01*
X52335774Y-33554851D01*
X52326200Y-33538893D01*
X52326200Y-33377913D01*
X52404367Y-33285533D01*
X52764910Y-33165352D01*
X53042619Y-33146200D01*
X53076772Y-33146200D01*
X53184161Y-33261850D01*
X53210354Y-33280197D01*
X53240000Y-33286200D01*
X53280000Y-33286200D01*
X53308300Y-33280750D01*
X53358300Y-33260750D01*
X53373814Y-33252344D01*
X53394617Y-33230386D01*
X53444617Y-33150386D01*
X53456200Y-33110000D01*
X53456200Y-32860000D01*
X53444287Y-32819090D01*
X53374287Y-32709090D01*
X53357790Y-32690649D01*
X53330934Y-32676732D01*
X53260934Y-32656732D01*
X53245927Y-32654031D01*
X53215903Y-32657710D01*
X53011667Y-32725789D01*
X52407673Y-32824804D01*
X52387239Y-32831202D01*
X52177239Y-32931202D01*
X52149292Y-32953946D01*
X51929292Y-33243946D01*
X51914178Y-33282418D01*
X51894178Y-33482418D01*
X51894113Y-33496899D01*
X51608600Y-33496899D01*
X51608600Y-31898903D01*
X52064322Y-31898903D01*
X52084322Y-32068903D01*
X52089401Y-32088673D01*
X52106118Y-32113882D01*
X52296118Y-32303882D01*
X52316283Y-32318335D01*
X52345525Y-32326069D01*
X52515181Y-32336049D01*
X52944697Y-32366015D01*
X52948476Y-32366185D01*
X53448476Y-32376185D01*
X53450000Y-32376200D01*
X54280000Y-32376200D01*
X54304097Y-32372290D01*
X54364097Y-32352290D01*
X54381388Y-32343980D01*
X54403019Y-32322837D01*
X54414720Y-32294944D01*
X54424720Y-32244944D01*
X54426200Y-32230000D01*
X54426200Y-32190000D01*
X54423945Y-32171599D01*
X54410960Y-32144280D01*
X54380960Y-32104280D01*
X54360445Y-32085420D01*
X54332134Y-32074772D01*
X54022134Y-32024772D01*
X54012720Y-32023849D01*
X53732720Y-32013849D01*
X53730000Y-32013800D01*
X52733265Y-32013800D01*
X52456200Y-31990052D01*
X52456200Y-31956305D01*
X52495163Y-31722527D01*
X52494607Y-31694499D01*
X52482698Y-31666694D01*
X52460910Y-31645713D01*
X52350910Y-31575713D01*
X52331063Y-31566769D01*
X52300913Y-31564344D01*
X52272194Y-31573840D01*
X52202194Y-31613840D01*
X52189368Y-31623054D01*
X52171202Y-31647239D01*
X52071202Y-31857239D01*
X52064322Y-31898903D01*
X51608600Y-31898903D01*
X51608600Y-30800000D01*
X51893800Y-30800000D01*
X51893800Y-30900000D01*
X51894193Y-30906305D01*
X51894388Y-30909451D01*
X51904388Y-30989451D01*
X51919602Y-31026460D01*
X52019602Y-31156460D01*
X52045922Y-31178155D01*
X52145922Y-31228155D01*
X52177895Y-31236171D01*
X52207695Y-31230989D01*
X52226120Y-31219133D01*
X52233034Y-31246359D01*
X52252456Y-31269548D01*
X52279369Y-31283354D01*
X52599369Y-31373354D01*
X52612265Y-31375806D01*
X53102265Y-31425806D01*
X53113240Y-31426131D01*
X53583240Y-31406131D01*
X53599920Y-31403550D01*
X54079920Y-31273550D01*
X54100910Y-31264287D01*
X54320910Y-31124287D01*
X54340149Y-31106782D01*
X54410149Y-31016782D01*
X54420197Y-30999646D01*
X54426200Y-30970000D01*
X54426200Y-30730000D01*
X54422731Y-30707271D01*
X54372731Y-30547271D01*
X54347945Y-30510774D01*
X54137945Y-30340774D01*
X54099451Y-30324388D01*
X53939451Y-30304388D01*
X53930000Y-30303800D01*
X53380000Y-30303800D01*
X53377280Y-30303849D01*
X53097280Y-30313849D01*
X53091939Y-30314228D01*
X52621939Y-30364228D01*
X52609606Y-30366580D01*
X52249606Y-30466580D01*
X52226485Y-30477447D01*
X51996485Y-30637447D01*
X51977575Y-30656302D01*
X51907575Y-30756302D01*
X51899803Y-30770354D01*
X51893800Y-30800000D01*
X51608600Y-30800000D01*
X51608600Y-29140000D01*
X51653800Y-29140000D01*
X51653800Y-29170000D01*
X51661808Y-29204004D01*
X51680410Y-29227855D01*
X51797774Y-29328452D01*
X51714371Y-29358239D01*
X51698612Y-29366020D01*
X51676981Y-29387163D01*
X51665280Y-29415056D01*
X51655280Y-29465056D01*
X51653800Y-29480000D01*
X51653800Y-29550000D01*
X51655280Y-29564944D01*
X51665280Y-29614944D01*
X51677103Y-29643016D01*
X51698794Y-29664098D01*
X51838794Y-29754098D01*
X51863813Y-29764461D01*
X52323813Y-29864461D01*
X52334265Y-29865984D01*
X52864265Y-29905984D01*
X52870000Y-29906200D01*
X54000000Y-29906200D01*
X54008652Y-29905707D01*
X54358652Y-29865707D01*
X54377695Y-29860989D01*
X54403132Y-29844621D01*
X54420197Y-29819646D01*
X54426200Y-29790000D01*
X54426200Y-29690000D01*
X54423205Y-29668845D01*
X54409207Y-29642031D01*
X54385880Y-29622776D01*
X54356899Y-29614113D01*
X54261217Y-29605415D01*
X54214078Y-29581845D01*
X54175773Y-29573917D01*
X53636830Y-29603858D01*
X53278928Y-29613800D01*
X53211777Y-29613800D01*
X52786567Y-29594023D01*
X52486239Y-29555953D01*
X52487399Y-29555840D01*
X52494944Y-29554720D01*
X52944944Y-29464720D01*
X52966295Y-29457001D01*
X52989502Y-29437602D01*
X53029502Y-29387602D01*
X53040197Y-29369646D01*
X53046200Y-29340000D01*
X53046200Y-29310000D01*
X53040750Y-29281700D01*
X53020750Y-29231700D01*
X53007909Y-29210472D01*
X52984078Y-29191845D01*
X52864078Y-29131845D01*
X52841736Y-29124709D01*
X52811519Y-29126075D01*
X52771519Y-29136075D01*
X52755922Y-29141845D01*
X52717288Y-29161162D01*
X52524597Y-29133236D01*
X53166777Y-29075898D01*
X53169299Y-29075630D01*
X54389299Y-28925630D01*
X54416489Y-28916896D01*
X54526489Y-28856896D01*
X54543132Y-28844621D01*
X54560197Y-28819646D01*
X54566200Y-28790000D01*
X54566200Y-28720000D01*
X54560750Y-28691700D01*
X54540750Y-28641700D01*
X54523596Y-28615834D01*
X54498300Y-28599250D01*
X54448300Y-28579250D01*
X54412541Y-28574166D01*
X53192541Y-28694166D01*
X53189517Y-28694524D01*
X52109517Y-28844524D01*
X52102047Y-28845945D01*
X51772047Y-28925945D01*
X51736118Y-28946118D01*
X51706118Y-28976118D01*
X51686485Y-29009950D01*
X51656485Y-29119950D01*
X51653800Y-29140000D01*
X51608600Y-29140000D01*
X51608600Y-28309645D01*
X56067521Y-28309645D01*
X56075999Y-28485115D01*
X56394527Y-28578253D01*
X56724451Y-28542405D01*
X56862761Y-28485115D01*
X56871239Y-28309645D01*
X56469380Y-27907786D01*
X56067521Y-28309645D01*
X51608600Y-28309645D01*
X51608600Y-27656156D01*
X55622136Y-27656156D01*
X55657984Y-27986080D01*
X55715274Y-28124390D01*
X55890744Y-28132868D01*
X56292603Y-27731009D01*
X56646157Y-27731009D01*
X57048016Y-28132868D01*
X57223486Y-28124390D01*
X57316624Y-27805862D01*
X57280776Y-27475938D01*
X57223486Y-27337628D01*
X57048016Y-27329150D01*
X56646157Y-27731009D01*
X56292603Y-27731009D01*
X55890744Y-27329150D01*
X55715274Y-27337628D01*
X55622136Y-27656156D01*
X51608600Y-27656156D01*
X51608600Y-26776328D01*
X51894063Y-26776328D01*
X51904063Y-26896328D01*
X51919851Y-26936782D01*
X52059851Y-27116782D01*
X52084992Y-27137682D01*
X52374992Y-27287682D01*
X52390694Y-27293714D01*
X52810694Y-27403714D01*
X52821882Y-27405766D01*
X53101882Y-27435766D01*
X53110000Y-27436200D01*
X53140000Y-27436200D01*
X53148652Y-27435707D01*
X53498652Y-27395707D01*
X53507835Y-27394083D01*
X54047835Y-27264083D01*
X54067006Y-27256611D01*
X54254634Y-27152373D01*
X56067521Y-27152373D01*
X56469380Y-27554232D01*
X56871239Y-27152373D01*
X56862761Y-26976903D01*
X56544233Y-26883765D01*
X56214309Y-26919613D01*
X56075999Y-26976903D01*
X56067521Y-27152373D01*
X54254634Y-27152373D01*
X54427006Y-27056611D01*
X54452651Y-27033374D01*
X54632651Y-26773374D01*
X54645612Y-26739451D01*
X54665612Y-26579451D01*
X54660750Y-26541700D01*
X54640750Y-26491700D01*
X54615720Y-26459040D01*
X54535720Y-26399040D01*
X54502775Y-26384878D01*
X54472542Y-26385827D01*
X54445060Y-26398463D01*
X54424659Y-26420795D01*
X54223007Y-26756881D01*
X54045771Y-26880947D01*
X53566870Y-27034195D01*
X53278721Y-27043800D01*
X53144111Y-27043800D01*
X52784384Y-27004911D01*
X52442794Y-26910024D01*
X52336886Y-26836704D01*
X52326200Y-26818893D01*
X52326200Y-26667913D01*
X52404974Y-26574816D01*
X52764531Y-26445744D01*
X53041321Y-26436200D01*
X53076772Y-26436200D01*
X53184161Y-26551850D01*
X53210354Y-26570197D01*
X53240000Y-26576200D01*
X53280000Y-26576200D01*
X53308300Y-26570750D01*
X53358300Y-26550750D01*
X53376965Y-26540006D01*
X53396611Y-26517006D01*
X53446611Y-26427006D01*
X53456200Y-26390000D01*
X53456200Y-26140000D01*
X53454508Y-26124032D01*
X53442425Y-26096302D01*
X53372425Y-25996302D01*
X53357790Y-25980649D01*
X53330934Y-25966732D01*
X53260934Y-25946732D01*
X53245927Y-25944031D01*
X53215903Y-25947710D01*
X53011667Y-26015789D01*
X52407673Y-26114804D01*
X52387239Y-26121202D01*
X52177239Y-26221202D01*
X52149292Y-26243946D01*
X51929292Y-26533946D01*
X51914219Y-26572023D01*
X51894219Y-26762023D01*
X51894063Y-26776328D01*
X51608600Y-26776328D01*
X51608600Y-25178903D01*
X52064322Y-25178903D01*
X52084322Y-25348903D01*
X52089401Y-25368673D01*
X52106118Y-25393882D01*
X52296118Y-25583882D01*
X52312355Y-25596252D01*
X52341097Y-25605678D01*
X52511097Y-25625678D01*
X52514697Y-25626015D01*
X52944697Y-25656015D01*
X52950000Y-25656200D01*
X54280000Y-25656200D01*
X54292527Y-25655163D01*
X54352527Y-25645163D01*
X54381388Y-25633980D01*
X54403019Y-25612837D01*
X54414720Y-25584944D01*
X54424720Y-25534944D01*
X54426200Y-25520000D01*
X54426200Y-25480000D01*
X54415341Y-25440795D01*
X54385341Y-25390795D01*
X54360445Y-25365420D01*
X54332134Y-25354772D01*
X54022134Y-25304772D01*
X54010000Y-25303800D01*
X52734338Y-25303800D01*
X52456200Y-25272013D01*
X52456200Y-25246305D01*
X52495163Y-25012527D01*
X52494607Y-24984499D01*
X52482698Y-24956694D01*
X52460910Y-24935713D01*
X52350910Y-24865713D01*
X52331063Y-24856769D01*
X52300913Y-24854344D01*
X52272194Y-24863840D01*
X52202194Y-24903840D01*
X52171845Y-24935922D01*
X52071845Y-25135922D01*
X52064322Y-25178903D01*
X51608600Y-25178903D01*
X51608600Y-24340000D01*
X51963800Y-24340000D01*
X51963800Y-24450000D01*
X51971845Y-24484078D01*
X52001845Y-24544078D01*
X52019980Y-24567485D01*
X52046286Y-24582416D01*
X52076328Y-24585937D01*
X53034977Y-24506050D01*
X53419953Y-24487717D01*
X53446118Y-24513882D01*
X53476726Y-24532559D01*
X54006726Y-24702559D01*
X54010460Y-24703652D01*
X54500460Y-24833652D01*
X54520000Y-24836200D01*
X54590000Y-24836200D01*
X54617695Y-24830989D01*
X54643132Y-24814621D01*
X54660197Y-24789646D01*
X54666200Y-24760000D01*
X54666200Y-24690000D01*
X54655341Y-24650795D01*
X54625341Y-24600795D01*
X54613596Y-24585834D01*
X54588300Y-24569250D01*
X54188300Y-24409250D01*
X54180394Y-24406580D01*
X53987984Y-24353133D01*
X54185881Y-24281670D01*
X54192039Y-24279137D01*
X54602039Y-24089137D01*
X54628538Y-24068782D01*
X54678538Y-24008782D01*
X54694647Y-23975304D01*
X54694720Y-23945056D01*
X54684720Y-23895056D01*
X54670006Y-23863035D01*
X54647006Y-23843389D01*
X54557006Y-23793389D01*
X54520602Y-23783802D01*
X54490910Y-23789571D01*
X54034306Y-23978168D01*
X53357045Y-24184291D01*
X53137316Y-24193845D01*
X52417884Y-24213829D01*
X52410059Y-24214451D01*
X52030059Y-24264451D01*
X52012305Y-24269011D01*
X51986868Y-24285379D01*
X51969803Y-24310354D01*
X51963800Y-24340000D01*
X51608600Y-24340000D01*
X51608600Y-23460000D01*
X51893800Y-23460000D01*
X51893800Y-23560000D01*
X51897547Y-23583600D01*
X51912437Y-23609929D01*
X51936398Y-23628391D01*
X51965653Y-23636076D01*
X52663452Y-23675950D01*
X52921266Y-23705698D01*
X52960017Y-23700039D01*
X52990834Y-23686832D01*
X52995444Y-23691816D01*
X53023004Y-23704280D01*
X53053242Y-23705041D01*
X53216674Y-23676200D01*
X53780000Y-23676200D01*
X53794944Y-23674720D01*
X53844944Y-23664720D01*
X53883132Y-23644621D01*
X53889912Y-23634698D01*
X53903442Y-23650323D01*
X53930579Y-23663684D01*
X53960776Y-23665434D01*
X54240776Y-23625434D01*
X54272268Y-23613402D01*
X54512268Y-23453402D01*
X54537235Y-23425859D01*
X54617235Y-23275859D01*
X54625734Y-23248415D01*
X54635734Y-23158415D01*
X54635163Y-23137473D01*
X54625163Y-23077473D01*
X54616896Y-23053511D01*
X54556896Y-22943511D01*
X54526722Y-22913232D01*
X54326722Y-22803232D01*
X54300296Y-22794499D01*
X54080296Y-22764499D01*
X54059929Y-22764468D01*
X53909929Y-22784468D01*
X53892663Y-22788872D01*
X53867145Y-22805112D01*
X53597145Y-23065112D01*
X53582998Y-23083707D01*
X53472813Y-23287125D01*
X53363971Y-23295288D01*
X53114301Y-23314013D01*
X53085922Y-23321845D01*
X53030598Y-23349507D01*
X52887453Y-23315826D01*
X52870000Y-23313800D01*
X52040000Y-23313800D01*
X52027473Y-23314837D01*
X51967473Y-23324837D01*
X51936570Y-23337388D01*
X51915632Y-23359217D01*
X51904837Y-23387473D01*
X51894837Y-23447473D01*
X51893800Y-23460000D01*
X51608600Y-23460000D01*
X51608600Y-21870000D01*
X52173800Y-21870000D01*
X52173800Y-21940000D01*
X52174837Y-21952527D01*
X52184837Y-22012527D01*
X52196020Y-22041388D01*
X52217163Y-22063019D01*
X52245056Y-22074720D01*
X52295056Y-22084720D01*
X52313743Y-22086108D01*
X52921872Y-22056200D01*
X53293682Y-22056200D01*
X53274388Y-22210549D01*
X53273800Y-22220000D01*
X53273800Y-22357041D01*
X52886690Y-22373872D01*
X52879435Y-22374536D01*
X52379435Y-22444536D01*
X52361327Y-22449401D01*
X52336118Y-22466118D01*
X52296118Y-22506118D01*
X52279803Y-22530354D01*
X52273800Y-22560000D01*
X52273800Y-22630000D01*
X52277710Y-22654097D01*
X52297710Y-22714097D01*
X52309211Y-22735947D01*
X52331876Y-22755977D01*
X52360549Y-22765612D01*
X52440549Y-22775612D01*
X52455507Y-22776001D01*
X53835507Y-22676001D01*
X53838978Y-22675669D01*
X54428978Y-22605669D01*
X54447320Y-22601134D01*
X54472843Y-22584901D01*
X54490039Y-22560017D01*
X54520039Y-22490017D01*
X54526200Y-22460000D01*
X54526200Y-22430000D01*
X54515338Y-22390791D01*
X54494936Y-22368460D01*
X54467453Y-22355826D01*
X54297453Y-22315826D01*
X54280000Y-22313800D01*
X53900000Y-22313800D01*
X53891348Y-22314293D01*
X53626200Y-22344596D01*
X53626200Y-22293172D01*
X53635178Y-22185432D01*
X53675174Y-22065444D01*
X53688005Y-22055180D01*
X53922929Y-22046144D01*
X53929856Y-22045560D01*
X54389856Y-21985560D01*
X54407695Y-21980989D01*
X54418276Y-21974180D01*
X56067521Y-21974180D01*
X56075999Y-22149650D01*
X56394527Y-22242788D01*
X56724451Y-22206940D01*
X56862761Y-22149650D01*
X56871239Y-21974180D01*
X56469380Y-21572321D01*
X56067521Y-21974180D01*
X54418276Y-21974180D01*
X54433132Y-21964621D01*
X54450197Y-21939646D01*
X54456200Y-21910000D01*
X54456200Y-21770000D01*
X54450268Y-21740524D01*
X54433264Y-21715508D01*
X54407868Y-21699079D01*
X54378080Y-21693824D01*
X53188564Y-21723812D01*
X52419472Y-21733800D01*
X52310000Y-21733800D01*
X52295056Y-21735280D01*
X52245056Y-21745280D01*
X52218612Y-21756020D01*
X52196981Y-21777163D01*
X52185280Y-21805056D01*
X52175280Y-21855056D01*
X52173800Y-21870000D01*
X51608600Y-21870000D01*
X51608600Y-21030000D01*
X51753800Y-21030000D01*
X51753800Y-21160000D01*
X51754837Y-21172527D01*
X51764837Y-21232527D01*
X51777388Y-21263430D01*
X51799217Y-21284368D01*
X51827473Y-21295163D01*
X51887473Y-21305163D01*
X51900000Y-21306200D01*
X51970000Y-21306200D01*
X52012603Y-21293178D01*
X52033826Y-21271626D01*
X52177249Y-21051711D01*
X52418661Y-20856725D01*
X52574295Y-20796200D01*
X52795534Y-20796200D01*
X52944256Y-20813697D01*
X53424461Y-21111423D01*
X53749699Y-21397239D01*
X53786758Y-21415041D01*
X53956758Y-21445041D01*
X53970000Y-21446200D01*
X54180000Y-21446200D01*
X54205173Y-21441922D01*
X54405173Y-21371922D01*
X54432671Y-21355065D01*
X54468607Y-21320691D01*
X55622136Y-21320691D01*
X55657984Y-21650615D01*
X55715274Y-21788925D01*
X55890744Y-21797403D01*
X56292603Y-21395544D01*
X56646157Y-21395544D01*
X57048016Y-21797403D01*
X57223486Y-21788925D01*
X57316624Y-21470397D01*
X57280776Y-21140473D01*
X57223486Y-21002163D01*
X57048016Y-20993685D01*
X56646157Y-21395544D01*
X56292603Y-21395544D01*
X55890744Y-20993685D01*
X55715274Y-21002163D01*
X55622136Y-21320691D01*
X54468607Y-21320691D01*
X54662671Y-21135065D01*
X54678211Y-21113967D01*
X54686052Y-21084753D01*
X54696052Y-20924753D01*
X54696200Y-20920000D01*
X54696200Y-20890000D01*
X54694720Y-20875056D01*
X54684720Y-20825056D01*
X54680976Y-20816908D01*
X56067521Y-20816908D01*
X56469380Y-21218767D01*
X56871239Y-20816908D01*
X56862761Y-20641438D01*
X56544233Y-20548300D01*
X56214309Y-20584148D01*
X56075999Y-20641438D01*
X56067521Y-20816908D01*
X54680976Y-20816908D01*
X54670006Y-20793035D01*
X54647006Y-20773389D01*
X54557006Y-20723389D01*
X54520000Y-20713800D01*
X54450000Y-20713800D01*
X54422305Y-20719011D01*
X54396868Y-20735379D01*
X54379803Y-20760354D01*
X54373800Y-20790000D01*
X54373800Y-20932799D01*
X54307586Y-21013726D01*
X54161632Y-21116753D01*
X54110672Y-21123123D01*
X53999267Y-21107208D01*
X53628296Y-20840869D01*
X53361771Y-20594087D01*
X53340017Y-20579961D01*
X53060017Y-20459961D01*
X53039451Y-20454388D01*
X52879451Y-20434388D01*
X52870000Y-20433800D01*
X52550000Y-20433800D01*
X52529454Y-20436622D01*
X52279454Y-20506622D01*
X52261235Y-20514397D01*
X52041235Y-20644397D01*
X52024682Y-20657594D01*
X51844682Y-20847594D01*
X51832908Y-20863874D01*
X51762908Y-20993874D01*
X51753800Y-21030000D01*
X51608600Y-21030000D01*
X51608600Y-18998600D01*
X59531400Y-18998600D01*
X59531400Y-30490000D01*
X59531400Y-30490000D01*
G37*
X59531400Y-30490000D02*
X59552607Y-30596616D01*
X59613000Y-30687000D01*
X59703384Y-30747393D01*
X59810000Y-30768600D01*
X69820000Y-30768600D01*
X69926616Y-30747393D01*
X70017000Y-30687000D01*
X70077393Y-30596616D01*
X70098600Y-30490000D01*
X70098600Y-27180314D01*
X71076140Y-27180314D01*
X71096248Y-27270623D01*
X72153763Y-29645841D01*
X72202781Y-29716748D01*
X72280164Y-29767462D01*
X72292369Y-29769690D01*
X72267086Y-29856156D01*
X72302934Y-30186080D01*
X72360224Y-30324390D01*
X72535694Y-30332868D01*
X72937553Y-29931009D01*
X72886076Y-29879532D01*
X73062853Y-29702755D01*
X73114330Y-29754232D01*
X73165808Y-29702755D01*
X73291380Y-29828327D01*
X73309442Y-29912674D01*
X73291107Y-29931009D01*
X73319433Y-29959335D01*
X73327599Y-29997472D01*
X73165808Y-30159264D01*
X73114330Y-30107786D01*
X72712471Y-30509645D01*
X72720949Y-30685115D01*
X73039477Y-30778253D01*
X73369401Y-30742405D01*
X73477525Y-30697618D01*
X75743899Y-41281508D01*
X75727665Y-41305266D01*
X75709302Y-41395946D01*
X75709302Y-42295946D01*
X75725242Y-42380660D01*
X75775308Y-42458464D01*
X75792900Y-42470484D01*
X75779862Y-42478874D01*
X75727665Y-42555266D01*
X75709302Y-42645946D01*
X75709302Y-43545946D01*
X75725242Y-43630660D01*
X75755620Y-43677868D01*
X75228915Y-43677868D01*
X75257095Y-43636626D01*
X75275458Y-43545946D01*
X75275458Y-42645946D01*
X75259518Y-42561232D01*
X75209452Y-42483428D01*
X75191860Y-42471408D01*
X75204898Y-42463018D01*
X75257095Y-42386626D01*
X75275458Y-42295946D01*
X75275458Y-41395946D01*
X75259518Y-41311232D01*
X75209452Y-41233428D01*
X75191860Y-41221408D01*
X75204898Y-41213018D01*
X75257095Y-41136626D01*
X75275458Y-41045946D01*
X75275458Y-40145946D01*
X75259518Y-40061232D01*
X75209452Y-39983428D01*
X75133060Y-39931231D01*
X75042380Y-39912868D01*
X74442380Y-39912868D01*
X74357666Y-39928808D01*
X74279862Y-39978874D01*
X74227665Y-40055266D01*
X74209302Y-40145946D01*
X74209302Y-40262868D01*
X73592380Y-40262868D01*
X73507666Y-40278808D01*
X73429862Y-40328874D01*
X73377665Y-40405266D01*
X73359302Y-40495946D01*
X73359302Y-41804437D01*
X73189183Y-41754694D01*
X72859259Y-41790542D01*
X72720949Y-41847832D01*
X72712471Y-42023302D01*
X73114330Y-42425161D01*
X73165808Y-42373684D01*
X73342585Y-42550461D01*
X73291107Y-42601938D01*
X73342585Y-42653416D01*
X73165808Y-42830193D01*
X73114330Y-42778715D01*
X72712471Y-43180574D01*
X72719533Y-43326746D01*
X72666230Y-43326746D01*
X72520180Y-43472796D01*
X72520180Y-44113146D01*
X72540180Y-44113146D01*
X72540180Y-44468746D01*
X72520180Y-44468746D01*
X72520180Y-45383146D01*
X72540180Y-45383146D01*
X72540180Y-45738746D01*
X72520180Y-45738746D01*
X72520180Y-46653146D01*
X72540180Y-46653146D01*
X72540180Y-47008746D01*
X72520180Y-47008746D01*
X72520180Y-47923146D01*
X73780530Y-47923146D01*
X73926580Y-47777096D01*
X73926580Y-47730946D01*
X74309302Y-47730946D01*
X74309302Y-48470946D01*
X74325242Y-48555660D01*
X74375308Y-48633464D01*
X74451700Y-48685661D01*
X74542380Y-48704024D01*
X76542380Y-48704024D01*
X76627094Y-48688084D01*
X76704898Y-48638018D01*
X76757095Y-48561626D01*
X76775458Y-48470946D01*
X76775458Y-47730946D01*
X76759518Y-47646232D01*
X76709452Y-47568428D01*
X76633060Y-47516231D01*
X76542380Y-47497868D01*
X74542380Y-47497868D01*
X74457666Y-47513808D01*
X74379862Y-47563874D01*
X74327665Y-47640266D01*
X74309302Y-47730946D01*
X73926580Y-47730946D01*
X73926580Y-47604741D01*
X73869089Y-47465946D01*
X73926580Y-47327151D01*
X73926580Y-47229024D01*
X74312704Y-47229024D01*
X74325242Y-47295660D01*
X74375308Y-47373464D01*
X74451700Y-47425661D01*
X74542380Y-47444024D01*
X76542380Y-47444024D01*
X76627094Y-47428084D01*
X76704898Y-47378018D01*
X76757095Y-47301626D01*
X76775458Y-47210946D01*
X76775458Y-46450946D01*
X76759518Y-46366232D01*
X76709452Y-46288428D01*
X76633060Y-46236231D01*
X76542380Y-46217868D01*
X74542380Y-46217868D01*
X74457666Y-46233808D01*
X74379862Y-46283874D01*
X74327665Y-46360266D01*
X74309302Y-46450946D01*
X74309302Y-46562868D01*
X74025458Y-46562868D01*
X74025458Y-45875597D01*
X74042380Y-45879024D01*
X74309302Y-45879024D01*
X74309302Y-45940946D01*
X74325242Y-46025660D01*
X74375308Y-46103464D01*
X74451700Y-46155661D01*
X74542380Y-46174024D01*
X76542380Y-46174024D01*
X76627094Y-46158084D01*
X76704898Y-46108018D01*
X76757095Y-46031626D01*
X76775458Y-45940946D01*
X76775458Y-45180946D01*
X76759518Y-45096232D01*
X76709452Y-45018428D01*
X76633060Y-44966231D01*
X76542380Y-44947868D01*
X74542380Y-44947868D01*
X74475458Y-44960460D01*
X74475458Y-44890472D01*
X74542380Y-44904024D01*
X76542380Y-44904024D01*
X76627094Y-44888084D01*
X76704898Y-44838018D01*
X76757095Y-44761626D01*
X76775458Y-44670946D01*
X76775458Y-43910946D01*
X76759518Y-43826232D01*
X76709452Y-43748428D01*
X76680554Y-43728683D01*
X76704898Y-43713018D01*
X76757095Y-43636626D01*
X76775458Y-43545946D01*
X76775458Y-42645946D01*
X76759518Y-42561232D01*
X76709452Y-42483428D01*
X76691860Y-42471408D01*
X76704898Y-42463018D01*
X76757095Y-42386626D01*
X76775458Y-42295946D01*
X76775458Y-41395946D01*
X76759518Y-41311232D01*
X76709452Y-41233428D01*
X76691860Y-41221408D01*
X76704898Y-41213018D01*
X76757095Y-41136626D01*
X76775458Y-41045946D01*
X76775458Y-40145946D01*
X76759518Y-40061232D01*
X76709452Y-39983428D01*
X76633060Y-39931231D01*
X76542380Y-39912868D01*
X76178148Y-39912868D01*
X73870580Y-29136600D01*
X75202128Y-28543757D01*
X75273035Y-28494739D01*
X75323749Y-28417356D01*
X75340362Y-28326338D01*
X75320254Y-28236029D01*
X74262739Y-25860811D01*
X74213721Y-25789904D01*
X74136338Y-25739190D01*
X74045320Y-25722577D01*
X73955011Y-25742685D01*
X71214374Y-26962895D01*
X71143467Y-27011913D01*
X71092753Y-27089296D01*
X71076140Y-27180314D01*
X70098600Y-27180314D01*
X70098600Y-24174180D01*
X72712471Y-24174180D01*
X72720949Y-24349650D01*
X73039477Y-24442788D01*
X73369401Y-24406940D01*
X73507711Y-24349650D01*
X73516189Y-24174180D01*
X73114330Y-23772321D01*
X72712471Y-24174180D01*
X70098600Y-24174180D01*
X70098600Y-23520691D01*
X72267086Y-23520691D01*
X72302934Y-23850615D01*
X72360224Y-23988925D01*
X72535694Y-23997403D01*
X72937553Y-23595544D01*
X73291107Y-23595544D01*
X73692966Y-23997403D01*
X73868436Y-23988925D01*
X73961574Y-23670397D01*
X73925726Y-23340473D01*
X73868436Y-23202163D01*
X73692966Y-23193685D01*
X73291107Y-23595544D01*
X72937553Y-23595544D01*
X72535694Y-23193685D01*
X72360224Y-23202163D01*
X72267086Y-23520691D01*
X70098600Y-23520691D01*
X70098600Y-23016908D01*
X72712471Y-23016908D01*
X73114330Y-23418767D01*
X73516189Y-23016908D01*
X73507711Y-22841438D01*
X73189183Y-22748300D01*
X72859259Y-22784148D01*
X72720949Y-22841438D01*
X72712471Y-23016908D01*
X70098600Y-23016908D01*
X70098600Y-18998600D01*
X78021400Y-18998600D01*
X78021400Y-45150000D01*
X78042607Y-45256616D01*
X78103000Y-45347000D01*
X78175324Y-45395325D01*
X78100485Y-45576002D01*
X78100485Y-45868357D01*
X78246535Y-46014407D01*
X78816765Y-46014407D01*
X78785273Y-46130540D01*
X78816067Y-46370007D01*
X78246535Y-46370007D01*
X78100485Y-46516057D01*
X78100485Y-46808412D01*
X78189424Y-47023130D01*
X78353763Y-47187468D01*
X78568481Y-47276407D01*
X80360835Y-47276407D01*
X80506885Y-47130357D01*
X80506885Y-46538605D01*
X80584097Y-46253874D01*
X80550731Y-45994407D01*
X80862485Y-45994407D01*
X80862485Y-46014407D01*
X80882485Y-46014407D01*
X80882485Y-46370007D01*
X80862485Y-46370007D01*
X80862485Y-47130357D01*
X81008535Y-47276407D01*
X82721400Y-47276407D01*
X82721400Y-47466564D01*
X82684685Y-47459129D01*
X78684685Y-47459129D01*
X78599971Y-47475069D01*
X78522167Y-47525135D01*
X78469970Y-47601527D01*
X78451607Y-47692207D01*
X78451607Y-48692207D01*
X78467547Y-48776921D01*
X78517613Y-48854725D01*
X78594005Y-48906922D01*
X78684685Y-48925285D01*
X82684685Y-48925285D01*
X82721400Y-48918377D01*
X82721400Y-49108007D01*
X81008535Y-49108007D01*
X80862485Y-49254057D01*
X80862485Y-50014407D01*
X80882485Y-50014407D01*
X80882485Y-50370007D01*
X80862485Y-50370007D01*
X80862485Y-50390007D01*
X80547181Y-50390007D01*
X80584097Y-50253874D01*
X80539232Y-49904990D01*
X80506885Y-49826897D01*
X80506885Y-49254057D01*
X80360835Y-49108007D01*
X78568481Y-49108007D01*
X78353763Y-49196946D01*
X78189424Y-49361284D01*
X78100485Y-49576002D01*
X78100485Y-49868357D01*
X78246535Y-50014407D01*
X78816765Y-50014407D01*
X78785273Y-50130540D01*
X78816067Y-50370007D01*
X78246535Y-50370007D01*
X78100485Y-50516057D01*
X78100485Y-50808412D01*
X78130718Y-50881400D01*
X70098600Y-50881400D01*
X70098600Y-49516038D01*
X72712471Y-49516038D01*
X72720949Y-49691508D01*
X73039477Y-49784646D01*
X73369401Y-49748798D01*
X73507711Y-49691508D01*
X73516189Y-49516038D01*
X73114330Y-49114179D01*
X72712471Y-49516038D01*
X70098600Y-49516038D01*
X70098600Y-48424796D01*
X70758180Y-48424796D01*
X70758180Y-48597151D01*
X70847119Y-48811869D01*
X71011458Y-48976207D01*
X71226176Y-49065146D01*
X72018530Y-49065146D01*
X72164578Y-48919098D01*
X72164578Y-49065146D01*
X72289099Y-49065146D01*
X72302934Y-49192473D01*
X72360224Y-49330783D01*
X72535694Y-49339261D01*
X72809809Y-49065146D01*
X73418851Y-49065146D01*
X73692966Y-49339261D01*
X73868436Y-49330783D01*
X73961574Y-49012255D01*
X73925726Y-48682331D01*
X73908512Y-48640772D01*
X73926580Y-48597151D01*
X73926580Y-48424796D01*
X73780530Y-48278746D01*
X73656412Y-48278746D01*
X73588974Y-48211308D01*
X73521536Y-48278746D01*
X73512323Y-48278746D01*
X73507711Y-48183296D01*
X73189183Y-48090158D01*
X72859259Y-48126006D01*
X72720949Y-48183296D01*
X72716337Y-48278746D01*
X72520180Y-48278746D01*
X72520180Y-48298746D01*
X72164580Y-48298746D01*
X72164580Y-48278746D01*
X70904230Y-48278746D01*
X70758180Y-48424796D01*
X70098600Y-48424796D01*
X70098600Y-47154796D01*
X70758180Y-47154796D01*
X70758180Y-47327151D01*
X70815671Y-47465946D01*
X70758180Y-47604741D01*
X70758180Y-47777096D01*
X70904230Y-47923146D01*
X72164580Y-47923146D01*
X72164580Y-47008746D01*
X70904230Y-47008746D01*
X70758180Y-47154796D01*
X70098600Y-47154796D01*
X70098600Y-45884796D01*
X70758180Y-45884796D01*
X70758180Y-46057151D01*
X70815671Y-46195946D01*
X70758180Y-46334741D01*
X70758180Y-46507096D01*
X70904230Y-46653146D01*
X72164580Y-46653146D01*
X72164580Y-45738746D01*
X70904230Y-45738746D01*
X70758180Y-45884796D01*
X70098600Y-45884796D01*
X70098600Y-44614796D01*
X70758180Y-44614796D01*
X70758180Y-44787151D01*
X70815671Y-44925946D01*
X70758180Y-45064741D01*
X70758180Y-45237096D01*
X70904230Y-45383146D01*
X72164580Y-45383146D01*
X72164580Y-44468746D01*
X70904230Y-44468746D01*
X70758180Y-44614796D01*
X70098600Y-44614796D01*
X70098600Y-43794741D01*
X70758180Y-43794741D01*
X70758180Y-43967096D01*
X70904230Y-44113146D01*
X72164580Y-44113146D01*
X72164580Y-43472796D01*
X72018530Y-43326746D01*
X71226176Y-43326746D01*
X71011458Y-43415685D01*
X70847119Y-43580023D01*
X70758180Y-43794741D01*
X70098600Y-43794741D01*
X70098600Y-42527085D01*
X72267086Y-42527085D01*
X72302934Y-42857009D01*
X72360224Y-42995319D01*
X72535694Y-43003797D01*
X72937553Y-42601938D01*
X72535694Y-42200079D01*
X72360224Y-42208557D01*
X72267086Y-42527085D01*
X70098600Y-42527085D01*
X70098600Y-38140000D01*
X70077393Y-38033384D01*
X70017000Y-37943000D01*
X69926616Y-37882607D01*
X69820000Y-37861400D01*
X59810000Y-37861400D01*
X59703384Y-37882607D01*
X59613000Y-37943000D01*
X59552607Y-38033384D01*
X59531400Y-38140000D01*
X59531400Y-50881400D01*
X51574807Y-50881400D01*
X51605040Y-50808412D01*
X51605040Y-50516057D01*
X51458990Y-50370007D01*
X50888760Y-50370007D01*
X50920252Y-50253874D01*
X50889458Y-50014407D01*
X51458990Y-50014407D01*
X51605040Y-49868357D01*
X51605040Y-49576002D01*
X51516101Y-49361284D01*
X51351762Y-49196946D01*
X51137044Y-49108007D01*
X49344690Y-49108007D01*
X49198640Y-49254057D01*
X49198640Y-49845809D01*
X49121428Y-50130540D01*
X49154794Y-50390007D01*
X48843040Y-50390007D01*
X48843040Y-50370007D01*
X48823040Y-50370007D01*
X48823040Y-50014407D01*
X48843040Y-50014407D01*
X48843040Y-49254057D01*
X48696990Y-49108007D01*
X46908600Y-49108007D01*
X46908600Y-48892191D01*
X46930160Y-48906922D01*
X47020840Y-48925285D01*
X51020840Y-48925285D01*
X51105554Y-48909345D01*
X51183358Y-48859279D01*
X51235555Y-48782887D01*
X51253918Y-48692207D01*
X51253918Y-47692207D01*
X51237978Y-47607493D01*
X51187912Y-47529689D01*
X51111520Y-47477492D01*
X51020840Y-47459129D01*
X47020840Y-47459129D01*
X46936126Y-47475069D01*
X46908600Y-47492782D01*
X46908600Y-47316038D01*
X56067521Y-47316038D01*
X56075999Y-47491508D01*
X56394527Y-47584646D01*
X56724451Y-47548798D01*
X56862761Y-47491508D01*
X56871239Y-47316038D01*
X56469380Y-46914179D01*
X56067521Y-47316038D01*
X46908600Y-47316038D01*
X46908600Y-47276407D01*
X48696990Y-47276407D01*
X48843040Y-47130357D01*
X48843040Y-46370007D01*
X48823040Y-46370007D01*
X48823040Y-46014407D01*
X48843040Y-46014407D01*
X48843040Y-45994407D01*
X49158344Y-45994407D01*
X49121428Y-46130540D01*
X49166293Y-46479424D01*
X49198640Y-46557517D01*
X49198640Y-47130357D01*
X49344690Y-47276407D01*
X51137044Y-47276407D01*
X51351762Y-47187468D01*
X51516101Y-47023130D01*
X51605040Y-46808412D01*
X51605040Y-46662549D01*
X55622136Y-46662549D01*
X55657984Y-46992473D01*
X55715274Y-47130783D01*
X55890744Y-47139261D01*
X56292603Y-46737402D01*
X56646157Y-46737402D01*
X57048016Y-47139261D01*
X57223486Y-47130783D01*
X57316624Y-46812255D01*
X57280776Y-46482331D01*
X57223486Y-46344021D01*
X57048016Y-46335543D01*
X56646157Y-46737402D01*
X56292603Y-46737402D01*
X55890744Y-46335543D01*
X55715274Y-46344021D01*
X55622136Y-46662549D01*
X51605040Y-46662549D01*
X51605040Y-46516057D01*
X51458990Y-46370007D01*
X50888760Y-46370007D01*
X50920252Y-46253874D01*
X50908022Y-46158766D01*
X56067521Y-46158766D01*
X56469380Y-46560625D01*
X56871239Y-46158766D01*
X56862761Y-45983296D01*
X56544233Y-45890158D01*
X56214309Y-45926006D01*
X56075999Y-45983296D01*
X56067521Y-46158766D01*
X50908022Y-46158766D01*
X50889458Y-46014407D01*
X51458990Y-46014407D01*
X51605040Y-45868357D01*
X51605040Y-45576002D01*
X51516101Y-45361284D01*
X51511904Y-45357087D01*
X51527000Y-45347000D01*
X51587393Y-45256616D01*
X51608600Y-45150000D01*
X51608600Y-40980574D01*
X56067521Y-40980574D01*
X56075999Y-41156044D01*
X56394527Y-41249182D01*
X56724451Y-41213334D01*
X56862761Y-41156044D01*
X56871239Y-40980574D01*
X56469380Y-40578715D01*
X56067521Y-40980574D01*
X51608600Y-40980574D01*
X51608600Y-40327085D01*
X55622136Y-40327085D01*
X55657984Y-40657009D01*
X55715274Y-40795319D01*
X55890744Y-40803797D01*
X56292603Y-40401938D01*
X56646157Y-40401938D01*
X57048016Y-40803797D01*
X57223486Y-40795319D01*
X57316624Y-40476791D01*
X57280776Y-40146867D01*
X57223486Y-40008557D01*
X57048016Y-40000079D01*
X56646157Y-40401938D01*
X56292603Y-40401938D01*
X55890744Y-40000079D01*
X55715274Y-40008557D01*
X55622136Y-40327085D01*
X51608600Y-40327085D01*
X51608600Y-39823302D01*
X56067521Y-39823302D01*
X56469380Y-40225161D01*
X56871239Y-39823302D01*
X56862761Y-39647832D01*
X56544233Y-39554694D01*
X56214309Y-39590542D01*
X56075999Y-39647832D01*
X56067521Y-39823302D01*
X51608600Y-39823302D01*
X51608600Y-37593132D01*
X51651183Y-37635789D01*
X51827025Y-37708805D01*
X52017424Y-37708972D01*
X52193393Y-37636263D01*
X52257583Y-37572184D01*
X52807260Y-38806778D01*
X52856278Y-38877685D01*
X52933661Y-38928399D01*
X53024679Y-38945012D01*
X53114988Y-38924904D01*
X55855624Y-37704694D01*
X55926531Y-37655676D01*
X55977245Y-37578293D01*
X55993858Y-37487275D01*
X55973750Y-37396966D01*
X55728049Y-36845109D01*
X72712471Y-36845109D01*
X72720949Y-37020579D01*
X73039477Y-37113717D01*
X73369401Y-37077869D01*
X73507711Y-37020579D01*
X73516189Y-36845109D01*
X73114330Y-36443250D01*
X72712471Y-36845109D01*
X55728049Y-36845109D01*
X55437097Y-36191620D01*
X72267086Y-36191620D01*
X72302934Y-36521544D01*
X72360224Y-36659854D01*
X72535694Y-36668332D01*
X72937553Y-36266473D01*
X73291107Y-36266473D01*
X73692966Y-36668332D01*
X73868436Y-36659854D01*
X73961574Y-36341326D01*
X73925726Y-36011402D01*
X73868436Y-35873092D01*
X73692966Y-35864614D01*
X73291107Y-36266473D01*
X72937553Y-36266473D01*
X72535694Y-35864614D01*
X72360224Y-35873092D01*
X72267086Y-36191620D01*
X55437097Y-36191620D01*
X55279050Y-35836642D01*
X62167227Y-35836642D01*
X62175705Y-36012112D01*
X62494233Y-36105250D01*
X62824157Y-36069402D01*
X62962467Y-36012112D01*
X62970945Y-35836642D01*
X68523886Y-35836642D01*
X68532364Y-36012112D01*
X68850892Y-36105250D01*
X69180816Y-36069402D01*
X69319126Y-36012112D01*
X69327604Y-35836642D01*
X69178799Y-35687837D01*
X72712471Y-35687837D01*
X73114330Y-36089696D01*
X73516189Y-35687837D01*
X73507711Y-35512367D01*
X73189183Y-35419229D01*
X72859259Y-35455077D01*
X72720949Y-35512367D01*
X72712471Y-35687837D01*
X69178799Y-35687837D01*
X68925745Y-35434783D01*
X68523886Y-35836642D01*
X62970945Y-35836642D01*
X62569086Y-35434783D01*
X62167227Y-35836642D01*
X55279050Y-35836642D01*
X54988098Y-35183153D01*
X61721842Y-35183153D01*
X61757690Y-35513077D01*
X61814980Y-35651387D01*
X61990450Y-35659865D01*
X62392309Y-35258006D01*
X62745863Y-35258006D01*
X63147722Y-35659865D01*
X63323192Y-35651387D01*
X63416330Y-35332859D01*
X63400064Y-35183153D01*
X68078501Y-35183153D01*
X68114349Y-35513077D01*
X68171639Y-35651387D01*
X68347109Y-35659865D01*
X68748968Y-35258006D01*
X69102522Y-35258006D01*
X69504381Y-35659865D01*
X69679851Y-35651387D01*
X69772989Y-35332859D01*
X69737141Y-35002935D01*
X69679851Y-34864625D01*
X69504381Y-34856147D01*
X69102522Y-35258006D01*
X68748968Y-35258006D01*
X68347109Y-34856147D01*
X68171639Y-34864625D01*
X68078501Y-35183153D01*
X63400064Y-35183153D01*
X63380482Y-35002935D01*
X63323192Y-34864625D01*
X63147722Y-34856147D01*
X62745863Y-35258006D01*
X62392309Y-35258006D01*
X61990450Y-34856147D01*
X61814980Y-34864625D01*
X61721842Y-35183153D01*
X54988098Y-35183153D01*
X54748545Y-34645109D01*
X56067521Y-34645109D01*
X56075999Y-34820579D01*
X56394527Y-34913717D01*
X56724451Y-34877869D01*
X56862761Y-34820579D01*
X56869583Y-34679370D01*
X62167227Y-34679370D01*
X62569086Y-35081229D01*
X62970945Y-34679370D01*
X68523886Y-34679370D01*
X68925745Y-35081229D01*
X69327604Y-34679370D01*
X69319126Y-34503900D01*
X69000598Y-34410762D01*
X68670674Y-34446610D01*
X68532364Y-34503900D01*
X68523886Y-34679370D01*
X62970945Y-34679370D01*
X62962467Y-34503900D01*
X62643939Y-34410762D01*
X62314015Y-34446610D01*
X62175705Y-34503900D01*
X62167227Y-34679370D01*
X56869583Y-34679370D01*
X56871239Y-34645109D01*
X56469380Y-34243250D01*
X56067521Y-34645109D01*
X54748545Y-34645109D01*
X54509498Y-34108202D01*
X54460480Y-34037295D01*
X54390786Y-33991620D01*
X55622136Y-33991620D01*
X55657984Y-34321544D01*
X55715274Y-34459854D01*
X55890744Y-34468332D01*
X56292603Y-34066473D01*
X56646157Y-34066473D01*
X57048016Y-34468332D01*
X57223486Y-34459854D01*
X57316624Y-34141326D01*
X57280776Y-33811402D01*
X57223486Y-33673092D01*
X57048016Y-33664614D01*
X56646157Y-34066473D01*
X56292603Y-34066473D01*
X55890744Y-33664614D01*
X55715274Y-33673092D01*
X55622136Y-33991620D01*
X54390786Y-33991620D01*
X54383097Y-33986581D01*
X54292079Y-33969968D01*
X54201770Y-33990076D01*
X51608600Y-35144630D01*
X51608600Y-33496899D01*
X51894113Y-33496899D01*
X51904113Y-33606899D01*
X51918655Y-33645202D01*
X52058655Y-33835202D01*
X52084992Y-33857682D01*
X52374992Y-34007682D01*
X52392351Y-34014128D01*
X52812351Y-34114128D01*
X52821882Y-34115766D01*
X53101882Y-34145766D01*
X53110000Y-34146200D01*
X53140000Y-34146200D01*
X53146508Y-34145922D01*
X53496508Y-34115922D01*
X53507835Y-34114083D01*
X54047835Y-33984083D01*
X54067006Y-33976611D01*
X54427006Y-33776611D01*
X54453402Y-33752268D01*
X54629689Y-33487837D01*
X56067521Y-33487837D01*
X56469380Y-33889696D01*
X56871239Y-33487837D01*
X56862761Y-33312367D01*
X56544233Y-33219229D01*
X56214309Y-33255077D01*
X56075999Y-33312367D01*
X56067521Y-33487837D01*
X54629689Y-33487837D01*
X54633402Y-33482268D01*
X54645612Y-33449451D01*
X54665612Y-33289451D01*
X54660750Y-33251700D01*
X54640750Y-33201700D01*
X54632344Y-33186186D01*
X54610386Y-33165383D01*
X54530386Y-33115383D01*
X54503741Y-33105049D01*
X54473498Y-33105608D01*
X54445856Y-33117889D01*
X54425169Y-33139957D01*
X54223426Y-33466588D01*
X54045771Y-33590947D01*
X53566870Y-33744195D01*
X53278721Y-33753800D01*
X53144111Y-33753800D01*
X52784384Y-33714911D01*
X52440767Y-33619461D01*
X52335774Y-33554851D01*
X52326200Y-33538893D01*
X52326200Y-33377913D01*
X52404367Y-33285533D01*
X52764910Y-33165352D01*
X53042619Y-33146200D01*
X53076772Y-33146200D01*
X53184161Y-33261850D01*
X53210354Y-33280197D01*
X53240000Y-33286200D01*
X53280000Y-33286200D01*
X53308300Y-33280750D01*
X53358300Y-33260750D01*
X53373814Y-33252344D01*
X53394617Y-33230386D01*
X53444617Y-33150386D01*
X53456200Y-33110000D01*
X53456200Y-32860000D01*
X53444287Y-32819090D01*
X53374287Y-32709090D01*
X53357790Y-32690649D01*
X53330934Y-32676732D01*
X53260934Y-32656732D01*
X53245927Y-32654031D01*
X53215903Y-32657710D01*
X53011667Y-32725789D01*
X52407673Y-32824804D01*
X52387239Y-32831202D01*
X52177239Y-32931202D01*
X52149292Y-32953946D01*
X51929292Y-33243946D01*
X51914178Y-33282418D01*
X51894178Y-33482418D01*
X51894113Y-33496899D01*
X51608600Y-33496899D01*
X51608600Y-31898903D01*
X52064322Y-31898903D01*
X52084322Y-32068903D01*
X52089401Y-32088673D01*
X52106118Y-32113882D01*
X52296118Y-32303882D01*
X52316283Y-32318335D01*
X52345525Y-32326069D01*
X52515181Y-32336049D01*
X52944697Y-32366015D01*
X52948476Y-32366185D01*
X53448476Y-32376185D01*
X53450000Y-32376200D01*
X54280000Y-32376200D01*
X54304097Y-32372290D01*
X54364097Y-32352290D01*
X54381388Y-32343980D01*
X54403019Y-32322837D01*
X54414720Y-32294944D01*
X54424720Y-32244944D01*
X54426200Y-32230000D01*
X54426200Y-32190000D01*
X54423945Y-32171599D01*
X54410960Y-32144280D01*
X54380960Y-32104280D01*
X54360445Y-32085420D01*
X54332134Y-32074772D01*
X54022134Y-32024772D01*
X54012720Y-32023849D01*
X53732720Y-32013849D01*
X53730000Y-32013800D01*
X52733265Y-32013800D01*
X52456200Y-31990052D01*
X52456200Y-31956305D01*
X52495163Y-31722527D01*
X52494607Y-31694499D01*
X52482698Y-31666694D01*
X52460910Y-31645713D01*
X52350910Y-31575713D01*
X52331063Y-31566769D01*
X52300913Y-31564344D01*
X52272194Y-31573840D01*
X52202194Y-31613840D01*
X52189368Y-31623054D01*
X52171202Y-31647239D01*
X52071202Y-31857239D01*
X52064322Y-31898903D01*
X51608600Y-31898903D01*
X51608600Y-30800000D01*
X51893800Y-30800000D01*
X51893800Y-30900000D01*
X51894193Y-30906305D01*
X51894388Y-30909451D01*
X51904388Y-30989451D01*
X51919602Y-31026460D01*
X52019602Y-31156460D01*
X52045922Y-31178155D01*
X52145922Y-31228155D01*
X52177895Y-31236171D01*
X52207695Y-31230989D01*
X52226120Y-31219133D01*
X52233034Y-31246359D01*
X52252456Y-31269548D01*
X52279369Y-31283354D01*
X52599369Y-31373354D01*
X52612265Y-31375806D01*
X53102265Y-31425806D01*
X53113240Y-31426131D01*
X53583240Y-31406131D01*
X53599920Y-31403550D01*
X54079920Y-31273550D01*
X54100910Y-31264287D01*
X54320910Y-31124287D01*
X54340149Y-31106782D01*
X54410149Y-31016782D01*
X54420197Y-30999646D01*
X54426200Y-30970000D01*
X54426200Y-30730000D01*
X54422731Y-30707271D01*
X54372731Y-30547271D01*
X54347945Y-30510774D01*
X54137945Y-30340774D01*
X54099451Y-30324388D01*
X53939451Y-30304388D01*
X53930000Y-30303800D01*
X53380000Y-30303800D01*
X53377280Y-30303849D01*
X53097280Y-30313849D01*
X53091939Y-30314228D01*
X52621939Y-30364228D01*
X52609606Y-30366580D01*
X52249606Y-30466580D01*
X52226485Y-30477447D01*
X51996485Y-30637447D01*
X51977575Y-30656302D01*
X51907575Y-30756302D01*
X51899803Y-30770354D01*
X51893800Y-30800000D01*
X51608600Y-30800000D01*
X51608600Y-29140000D01*
X51653800Y-29140000D01*
X51653800Y-29170000D01*
X51661808Y-29204004D01*
X51680410Y-29227855D01*
X51797774Y-29328452D01*
X51714371Y-29358239D01*
X51698612Y-29366020D01*
X51676981Y-29387163D01*
X51665280Y-29415056D01*
X51655280Y-29465056D01*
X51653800Y-29480000D01*
X51653800Y-29550000D01*
X51655280Y-29564944D01*
X51665280Y-29614944D01*
X51677103Y-29643016D01*
X51698794Y-29664098D01*
X51838794Y-29754098D01*
X51863813Y-29764461D01*
X52323813Y-29864461D01*
X52334265Y-29865984D01*
X52864265Y-29905984D01*
X52870000Y-29906200D01*
X54000000Y-29906200D01*
X54008652Y-29905707D01*
X54358652Y-29865707D01*
X54377695Y-29860989D01*
X54403132Y-29844621D01*
X54420197Y-29819646D01*
X54426200Y-29790000D01*
X54426200Y-29690000D01*
X54423205Y-29668845D01*
X54409207Y-29642031D01*
X54385880Y-29622776D01*
X54356899Y-29614113D01*
X54261217Y-29605415D01*
X54214078Y-29581845D01*
X54175773Y-29573917D01*
X53636830Y-29603858D01*
X53278928Y-29613800D01*
X53211777Y-29613800D01*
X52786567Y-29594023D01*
X52486239Y-29555953D01*
X52487399Y-29555840D01*
X52494944Y-29554720D01*
X52944944Y-29464720D01*
X52966295Y-29457001D01*
X52989502Y-29437602D01*
X53029502Y-29387602D01*
X53040197Y-29369646D01*
X53046200Y-29340000D01*
X53046200Y-29310000D01*
X53040750Y-29281700D01*
X53020750Y-29231700D01*
X53007909Y-29210472D01*
X52984078Y-29191845D01*
X52864078Y-29131845D01*
X52841736Y-29124709D01*
X52811519Y-29126075D01*
X52771519Y-29136075D01*
X52755922Y-29141845D01*
X52717288Y-29161162D01*
X52524597Y-29133236D01*
X53166777Y-29075898D01*
X53169299Y-29075630D01*
X54389299Y-28925630D01*
X54416489Y-28916896D01*
X54526489Y-28856896D01*
X54543132Y-28844621D01*
X54560197Y-28819646D01*
X54566200Y-28790000D01*
X54566200Y-28720000D01*
X54560750Y-28691700D01*
X54540750Y-28641700D01*
X54523596Y-28615834D01*
X54498300Y-28599250D01*
X54448300Y-28579250D01*
X54412541Y-28574166D01*
X53192541Y-28694166D01*
X53189517Y-28694524D01*
X52109517Y-28844524D01*
X52102047Y-28845945D01*
X51772047Y-28925945D01*
X51736118Y-28946118D01*
X51706118Y-28976118D01*
X51686485Y-29009950D01*
X51656485Y-29119950D01*
X51653800Y-29140000D01*
X51608600Y-29140000D01*
X51608600Y-28309645D01*
X56067521Y-28309645D01*
X56075999Y-28485115D01*
X56394527Y-28578253D01*
X56724451Y-28542405D01*
X56862761Y-28485115D01*
X56871239Y-28309645D01*
X56469380Y-27907786D01*
X56067521Y-28309645D01*
X51608600Y-28309645D01*
X51608600Y-27656156D01*
X55622136Y-27656156D01*
X55657984Y-27986080D01*
X55715274Y-28124390D01*
X55890744Y-28132868D01*
X56292603Y-27731009D01*
X56646157Y-27731009D01*
X57048016Y-28132868D01*
X57223486Y-28124390D01*
X57316624Y-27805862D01*
X57280776Y-27475938D01*
X57223486Y-27337628D01*
X57048016Y-27329150D01*
X56646157Y-27731009D01*
X56292603Y-27731009D01*
X55890744Y-27329150D01*
X55715274Y-27337628D01*
X55622136Y-27656156D01*
X51608600Y-27656156D01*
X51608600Y-26776328D01*
X51894063Y-26776328D01*
X51904063Y-26896328D01*
X51919851Y-26936782D01*
X52059851Y-27116782D01*
X52084992Y-27137682D01*
X52374992Y-27287682D01*
X52390694Y-27293714D01*
X52810694Y-27403714D01*
X52821882Y-27405766D01*
X53101882Y-27435766D01*
X53110000Y-27436200D01*
X53140000Y-27436200D01*
X53148652Y-27435707D01*
X53498652Y-27395707D01*
X53507835Y-27394083D01*
X54047835Y-27264083D01*
X54067006Y-27256611D01*
X54254634Y-27152373D01*
X56067521Y-27152373D01*
X56469380Y-27554232D01*
X56871239Y-27152373D01*
X56862761Y-26976903D01*
X56544233Y-26883765D01*
X56214309Y-26919613D01*
X56075999Y-26976903D01*
X56067521Y-27152373D01*
X54254634Y-27152373D01*
X54427006Y-27056611D01*
X54452651Y-27033374D01*
X54632651Y-26773374D01*
X54645612Y-26739451D01*
X54665612Y-26579451D01*
X54660750Y-26541700D01*
X54640750Y-26491700D01*
X54615720Y-26459040D01*
X54535720Y-26399040D01*
X54502775Y-26384878D01*
X54472542Y-26385827D01*
X54445060Y-26398463D01*
X54424659Y-26420795D01*
X54223007Y-26756881D01*
X54045771Y-26880947D01*
X53566870Y-27034195D01*
X53278721Y-27043800D01*
X53144111Y-27043800D01*
X52784384Y-27004911D01*
X52442794Y-26910024D01*
X52336886Y-26836704D01*
X52326200Y-26818893D01*
X52326200Y-26667913D01*
X52404974Y-26574816D01*
X52764531Y-26445744D01*
X53041321Y-26436200D01*
X53076772Y-26436200D01*
X53184161Y-26551850D01*
X53210354Y-26570197D01*
X53240000Y-26576200D01*
X53280000Y-26576200D01*
X53308300Y-26570750D01*
X53358300Y-26550750D01*
X53376965Y-26540006D01*
X53396611Y-26517006D01*
X53446611Y-26427006D01*
X53456200Y-26390000D01*
X53456200Y-26140000D01*
X53454508Y-26124032D01*
X53442425Y-26096302D01*
X53372425Y-25996302D01*
X53357790Y-25980649D01*
X53330934Y-25966732D01*
X53260934Y-25946732D01*
X53245927Y-25944031D01*
X53215903Y-25947710D01*
X53011667Y-26015789D01*
X52407673Y-26114804D01*
X52387239Y-26121202D01*
X52177239Y-26221202D01*
X52149292Y-26243946D01*
X51929292Y-26533946D01*
X51914219Y-26572023D01*
X51894219Y-26762023D01*
X51894063Y-26776328D01*
X51608600Y-26776328D01*
X51608600Y-25178903D01*
X52064322Y-25178903D01*
X52084322Y-25348903D01*
X52089401Y-25368673D01*
X52106118Y-25393882D01*
X52296118Y-25583882D01*
X52312355Y-25596252D01*
X52341097Y-25605678D01*
X52511097Y-25625678D01*
X52514697Y-25626015D01*
X52944697Y-25656015D01*
X52950000Y-25656200D01*
X54280000Y-25656200D01*
X54292527Y-25655163D01*
X54352527Y-25645163D01*
X54381388Y-25633980D01*
X54403019Y-25612837D01*
X54414720Y-25584944D01*
X54424720Y-25534944D01*
X54426200Y-25520000D01*
X54426200Y-25480000D01*
X54415341Y-25440795D01*
X54385341Y-25390795D01*
X54360445Y-25365420D01*
X54332134Y-25354772D01*
X54022134Y-25304772D01*
X54010000Y-25303800D01*
X52734338Y-25303800D01*
X52456200Y-25272013D01*
X52456200Y-25246305D01*
X52495163Y-25012527D01*
X52494607Y-24984499D01*
X52482698Y-24956694D01*
X52460910Y-24935713D01*
X52350910Y-24865713D01*
X52331063Y-24856769D01*
X52300913Y-24854344D01*
X52272194Y-24863840D01*
X52202194Y-24903840D01*
X52171845Y-24935922D01*
X52071845Y-25135922D01*
X52064322Y-25178903D01*
X51608600Y-25178903D01*
X51608600Y-24340000D01*
X51963800Y-24340000D01*
X51963800Y-24450000D01*
X51971845Y-24484078D01*
X52001845Y-24544078D01*
X52019980Y-24567485D01*
X52046286Y-24582416D01*
X52076328Y-24585937D01*
X53034977Y-24506050D01*
X53419953Y-24487717D01*
X53446118Y-24513882D01*
X53476726Y-24532559D01*
X54006726Y-24702559D01*
X54010460Y-24703652D01*
X54500460Y-24833652D01*
X54520000Y-24836200D01*
X54590000Y-24836200D01*
X54617695Y-24830989D01*
X54643132Y-24814621D01*
X54660197Y-24789646D01*
X54666200Y-24760000D01*
X54666200Y-24690000D01*
X54655341Y-24650795D01*
X54625341Y-24600795D01*
X54613596Y-24585834D01*
X54588300Y-24569250D01*
X54188300Y-24409250D01*
X54180394Y-24406580D01*
X53987984Y-24353133D01*
X54185881Y-24281670D01*
X54192039Y-24279137D01*
X54602039Y-24089137D01*
X54628538Y-24068782D01*
X54678538Y-24008782D01*
X54694647Y-23975304D01*
X54694720Y-23945056D01*
X54684720Y-23895056D01*
X54670006Y-23863035D01*
X54647006Y-23843389D01*
X54557006Y-23793389D01*
X54520602Y-23783802D01*
X54490910Y-23789571D01*
X54034306Y-23978168D01*
X53357045Y-24184291D01*
X53137316Y-24193845D01*
X52417884Y-24213829D01*
X52410059Y-24214451D01*
X52030059Y-24264451D01*
X52012305Y-24269011D01*
X51986868Y-24285379D01*
X51969803Y-24310354D01*
X51963800Y-24340000D01*
X51608600Y-24340000D01*
X51608600Y-23460000D01*
X51893800Y-23460000D01*
X51893800Y-23560000D01*
X51897547Y-23583600D01*
X51912437Y-23609929D01*
X51936398Y-23628391D01*
X51965653Y-23636076D01*
X52663452Y-23675950D01*
X52921266Y-23705698D01*
X52960017Y-23700039D01*
X52990834Y-23686832D01*
X52995444Y-23691816D01*
X53023004Y-23704280D01*
X53053242Y-23705041D01*
X53216674Y-23676200D01*
X53780000Y-23676200D01*
X53794944Y-23674720D01*
X53844944Y-23664720D01*
X53883132Y-23644621D01*
X53889912Y-23634698D01*
X53903442Y-23650323D01*
X53930579Y-23663684D01*
X53960776Y-23665434D01*
X54240776Y-23625434D01*
X54272268Y-23613402D01*
X54512268Y-23453402D01*
X54537235Y-23425859D01*
X54617235Y-23275859D01*
X54625734Y-23248415D01*
X54635734Y-23158415D01*
X54635163Y-23137473D01*
X54625163Y-23077473D01*
X54616896Y-23053511D01*
X54556896Y-22943511D01*
X54526722Y-22913232D01*
X54326722Y-22803232D01*
X54300296Y-22794499D01*
X54080296Y-22764499D01*
X54059929Y-22764468D01*
X53909929Y-22784468D01*
X53892663Y-22788872D01*
X53867145Y-22805112D01*
X53597145Y-23065112D01*
X53582998Y-23083707D01*
X53472813Y-23287125D01*
X53363971Y-23295288D01*
X53114301Y-23314013D01*
X53085922Y-23321845D01*
X53030598Y-23349507D01*
X52887453Y-23315826D01*
X52870000Y-23313800D01*
X52040000Y-23313800D01*
X52027473Y-23314837D01*
X51967473Y-23324837D01*
X51936570Y-23337388D01*
X51915632Y-23359217D01*
X51904837Y-23387473D01*
X51894837Y-23447473D01*
X51893800Y-23460000D01*
X51608600Y-23460000D01*
X51608600Y-21870000D01*
X52173800Y-21870000D01*
X52173800Y-21940000D01*
X52174837Y-21952527D01*
X52184837Y-22012527D01*
X52196020Y-22041388D01*
X52217163Y-22063019D01*
X52245056Y-22074720D01*
X52295056Y-22084720D01*
X52313743Y-22086108D01*
X52921872Y-22056200D01*
X53293682Y-22056200D01*
X53274388Y-22210549D01*
X53273800Y-22220000D01*
X53273800Y-22357041D01*
X52886690Y-22373872D01*
X52879435Y-22374536D01*
X52379435Y-22444536D01*
X52361327Y-22449401D01*
X52336118Y-22466118D01*
X52296118Y-22506118D01*
X52279803Y-22530354D01*
X52273800Y-22560000D01*
X52273800Y-22630000D01*
X52277710Y-22654097D01*
X52297710Y-22714097D01*
X52309211Y-22735947D01*
X52331876Y-22755977D01*
X52360549Y-22765612D01*
X52440549Y-22775612D01*
X52455507Y-22776001D01*
X53835507Y-22676001D01*
X53838978Y-22675669D01*
X54428978Y-22605669D01*
X54447320Y-22601134D01*
X54472843Y-22584901D01*
X54490039Y-22560017D01*
X54520039Y-22490017D01*
X54526200Y-22460000D01*
X54526200Y-22430000D01*
X54515338Y-22390791D01*
X54494936Y-22368460D01*
X54467453Y-22355826D01*
X54297453Y-22315826D01*
X54280000Y-22313800D01*
X53900000Y-22313800D01*
X53891348Y-22314293D01*
X53626200Y-22344596D01*
X53626200Y-22293172D01*
X53635178Y-22185432D01*
X53675174Y-22065444D01*
X53688005Y-22055180D01*
X53922929Y-22046144D01*
X53929856Y-22045560D01*
X54389856Y-21985560D01*
X54407695Y-21980989D01*
X54418276Y-21974180D01*
X56067521Y-21974180D01*
X56075999Y-22149650D01*
X56394527Y-22242788D01*
X56724451Y-22206940D01*
X56862761Y-22149650D01*
X56871239Y-21974180D01*
X56469380Y-21572321D01*
X56067521Y-21974180D01*
X54418276Y-21974180D01*
X54433132Y-21964621D01*
X54450197Y-21939646D01*
X54456200Y-21910000D01*
X54456200Y-21770000D01*
X54450268Y-21740524D01*
X54433264Y-21715508D01*
X54407868Y-21699079D01*
X54378080Y-21693824D01*
X53188564Y-21723812D01*
X52419472Y-21733800D01*
X52310000Y-21733800D01*
X52295056Y-21735280D01*
X52245056Y-21745280D01*
X52218612Y-21756020D01*
X52196981Y-21777163D01*
X52185280Y-21805056D01*
X52175280Y-21855056D01*
X52173800Y-21870000D01*
X51608600Y-21870000D01*
X51608600Y-21030000D01*
X51753800Y-21030000D01*
X51753800Y-21160000D01*
X51754837Y-21172527D01*
X51764837Y-21232527D01*
X51777388Y-21263430D01*
X51799217Y-21284368D01*
X51827473Y-21295163D01*
X51887473Y-21305163D01*
X51900000Y-21306200D01*
X51970000Y-21306200D01*
X52012603Y-21293178D01*
X52033826Y-21271626D01*
X52177249Y-21051711D01*
X52418661Y-20856725D01*
X52574295Y-20796200D01*
X52795534Y-20796200D01*
X52944256Y-20813697D01*
X53424461Y-21111423D01*
X53749699Y-21397239D01*
X53786758Y-21415041D01*
X53956758Y-21445041D01*
X53970000Y-21446200D01*
X54180000Y-21446200D01*
X54205173Y-21441922D01*
X54405173Y-21371922D01*
X54432671Y-21355065D01*
X54468607Y-21320691D01*
X55622136Y-21320691D01*
X55657984Y-21650615D01*
X55715274Y-21788925D01*
X55890744Y-21797403D01*
X56292603Y-21395544D01*
X56646157Y-21395544D01*
X57048016Y-21797403D01*
X57223486Y-21788925D01*
X57316624Y-21470397D01*
X57280776Y-21140473D01*
X57223486Y-21002163D01*
X57048016Y-20993685D01*
X56646157Y-21395544D01*
X56292603Y-21395544D01*
X55890744Y-20993685D01*
X55715274Y-21002163D01*
X55622136Y-21320691D01*
X54468607Y-21320691D01*
X54662671Y-21135065D01*
X54678211Y-21113967D01*
X54686052Y-21084753D01*
X54696052Y-20924753D01*
X54696200Y-20920000D01*
X54696200Y-20890000D01*
X54694720Y-20875056D01*
X54684720Y-20825056D01*
X54680976Y-20816908D01*
X56067521Y-20816908D01*
X56469380Y-21218767D01*
X56871239Y-20816908D01*
X56862761Y-20641438D01*
X56544233Y-20548300D01*
X56214309Y-20584148D01*
X56075999Y-20641438D01*
X56067521Y-20816908D01*
X54680976Y-20816908D01*
X54670006Y-20793035D01*
X54647006Y-20773389D01*
X54557006Y-20723389D01*
X54520000Y-20713800D01*
X54450000Y-20713800D01*
X54422305Y-20719011D01*
X54396868Y-20735379D01*
X54379803Y-20760354D01*
X54373800Y-20790000D01*
X54373800Y-20932799D01*
X54307586Y-21013726D01*
X54161632Y-21116753D01*
X54110672Y-21123123D01*
X53999267Y-21107208D01*
X53628296Y-20840869D01*
X53361771Y-20594087D01*
X53340017Y-20579961D01*
X53060017Y-20459961D01*
X53039451Y-20454388D01*
X52879451Y-20434388D01*
X52870000Y-20433800D01*
X52550000Y-20433800D01*
X52529454Y-20436622D01*
X52279454Y-20506622D01*
X52261235Y-20514397D01*
X52041235Y-20644397D01*
X52024682Y-20657594D01*
X51844682Y-20847594D01*
X51832908Y-20863874D01*
X51762908Y-20993874D01*
X51753800Y-21030000D01*
X51608600Y-21030000D01*
X51608600Y-18998600D01*
X59531400Y-18998600D01*
X59531400Y-30490000D01*
G36*
X79930617Y-50158407D02*
X79896817Y-50192207D01*
X79930617Y-50226007D01*
X79786617Y-50370007D01*
X79582753Y-50370007D01*
X79438753Y-50226007D01*
X79472553Y-50192207D01*
X79438753Y-50158407D01*
X79582753Y-50014407D01*
X79786617Y-50014407D01*
X79930617Y-50158407D01*
X79930617Y-50158407D01*
G37*
X79930617Y-50158407D02*
X79896817Y-50192207D01*
X79930617Y-50226007D01*
X79786617Y-50370007D01*
X79582753Y-50370007D01*
X79438753Y-50226007D01*
X79472553Y-50192207D01*
X79438753Y-50158407D01*
X79582753Y-50014407D01*
X79786617Y-50014407D01*
X79930617Y-50158407D01*
G36*
X50266772Y-50158407D02*
X50232972Y-50192207D01*
X50266772Y-50226007D01*
X50122772Y-50370007D01*
X49918908Y-50370007D01*
X49774908Y-50226007D01*
X49808708Y-50192207D01*
X49774908Y-50158407D01*
X49918908Y-50014407D01*
X50122772Y-50014407D01*
X50266772Y-50158407D01*
X50266772Y-50158407D01*
G37*
X50266772Y-50158407D02*
X50232972Y-50192207D01*
X50266772Y-50226007D01*
X50122772Y-50370007D01*
X49918908Y-50370007D01*
X49774908Y-50226007D01*
X49808708Y-50192207D01*
X49774908Y-50158407D01*
X49918908Y-50014407D01*
X50122772Y-50014407D01*
X50266772Y-50158407D01*
G36*
X79930617Y-46158407D02*
X79896817Y-46192207D01*
X79930617Y-46226007D01*
X79786617Y-46370007D01*
X79582753Y-46370007D01*
X79438753Y-46226007D01*
X79472553Y-46192207D01*
X79438753Y-46158407D01*
X79582753Y-46014407D01*
X79786617Y-46014407D01*
X79930617Y-46158407D01*
X79930617Y-46158407D01*
G37*
X79930617Y-46158407D02*
X79896817Y-46192207D01*
X79930617Y-46226007D01*
X79786617Y-46370007D01*
X79582753Y-46370007D01*
X79438753Y-46226007D01*
X79472553Y-46192207D01*
X79438753Y-46158407D01*
X79582753Y-46014407D01*
X79786617Y-46014407D01*
X79930617Y-46158407D01*
G36*
X50266772Y-46158407D02*
X50232972Y-46192207D01*
X50266772Y-46226007D01*
X50122772Y-46370007D01*
X49918908Y-46370007D01*
X49774908Y-46226007D01*
X49808708Y-46192207D01*
X49774908Y-46158407D01*
X49918908Y-46014407D01*
X50122772Y-46014407D01*
X50266772Y-46158407D01*
X50266772Y-46158407D01*
G37*
X50266772Y-46158407D02*
X50232972Y-46192207D01*
X50266772Y-46226007D01*
X50122772Y-46370007D01*
X49918908Y-46370007D01*
X49774908Y-46226007D01*
X49808708Y-46192207D01*
X49774908Y-46158407D01*
X49918908Y-46014407D01*
X50122772Y-46014407D01*
X50266772Y-46158407D01*
M02*
