M48
;DRILL file {KiCad 4.0.0-rc2-stable} date 3/3/2016 3:42:16 PM
;FORMAT={-:-/ absolute / inch / decimal}
FMAT,2
INCH,TZ
T1C0.012
T2C0.016
%
G90
G05
M72
T1
X2.127Y-1.1275G85X2.127Y-1.1275
G05
X2.127Y-1.3836G85X2.127Y-1.3836
G05
X2.127Y-1.6398G85X2.127Y-1.6398
G05
X2.127Y-1.896G85X2.127Y-1.896
G05
X2.1772Y-0.8267G85X2.1772Y-0.8267
G05
X2.4082Y-1.3192G85X2.4082Y-1.3192
G05
X2.4352Y-0.8267G85X2.4352Y-0.8267
G05
X2.54Y-1.8175G85X2.54Y-1.8175
G05
X2.7176Y-0.8676G85X2.7176Y-0.8676
G05
X2.7201Y-1.3904G85X2.7201Y-1.3904
G05
X2.7574Y-1.7452G85X2.7574Y-1.7452
G05
X2.7901Y-1.5408G85X2.7901Y-1.5408
G05
X2.8607Y-1.1273G85X2.8607Y-1.1273
G05
X2.9024Y-1.6677G85X2.9024Y-1.6677
G05
T2
X1.9693Y-1.8186G85X1.9693Y-1.8186
G05
X1.9693Y-1.8973G85X1.9693Y-1.8973
G05
X1.9693Y-1.9761G85X1.9693Y-1.9761
G05
X3.0715Y-1.8186G85X3.0715Y-1.8186
G05
X3.0715Y-1.8973G85X3.0715Y-1.8973
G05
X3.0715Y-1.9761G85X3.0715Y-1.9761
G05
T0
M30
