G04 #@! TF.FileFunction,Copper,L1,Top,Signal*
%FSLAX46Y46*%
G04 Gerber Fmt 4.6, Leading zero omitted, Abs format (unit mm)*
G04 Created by KiCad (PCBNEW 4.0.0-rc2-stable) date 3/3/2016 3:46:00 PM*
%MOMM*%
G01*
G04 APERTURE LIST*
%ADD10C,0.150000*%
%ADD11C,0.500000*%
%ADD12R,0.500000X1.800000*%
%ADD13R,0.320000X2.300000*%
%ADD14R,0.800000X2.300000*%
%ADD15R,4.000000X1.000000*%
%ADD16C,0.600000*%
%ADD17C,0.254000*%
%ADD18C,0.152400*%
G04 APERTURE END LIST*
D10*
G36*
X68521966Y-35854334D02*
X69766660Y-34554050D01*
X70127850Y-34899798D01*
X68883156Y-36200082D01*
X68521966Y-35854334D01*
X68521966Y-35854334D01*
G37*
G36*
X69786629Y-37411007D02*
X71377070Y-35749532D01*
X71608231Y-35970811D01*
X70017790Y-37632286D01*
X69786629Y-37411007D01*
X69786629Y-37411007D01*
G37*
G36*
X68710282Y-36380678D02*
X70300724Y-34719203D01*
X70878628Y-35272400D01*
X69288186Y-36933875D01*
X68710282Y-36380678D01*
X68710282Y-36380678D01*
G37*
D11*
X70010227Y-34371911D03*
D10*
G36*
X72913206Y-31266983D02*
X74157900Y-29966699D01*
X74519090Y-30312447D01*
X73274396Y-31612731D01*
X72913206Y-31266983D01*
X72913206Y-31266983D01*
G37*
G36*
X74177869Y-32823656D02*
X75768310Y-31162181D01*
X75999471Y-31383460D01*
X74409030Y-33044935D01*
X74177869Y-32823656D01*
X74177869Y-32823656D01*
G37*
G36*
X73101522Y-31793327D02*
X74691964Y-30131852D01*
X75269868Y-30685049D01*
X73679426Y-32346524D01*
X73101522Y-31793327D01*
X73101522Y-31793327D01*
G37*
D11*
X74401467Y-29784560D03*
D12*
X79426390Y-27400429D03*
D13*
X77526390Y-27400429D03*
D14*
X78776390Y-27400429D03*
D11*
X79626390Y-28600429D03*
D12*
X79426390Y-33751694D03*
D13*
X77526390Y-33751694D03*
D14*
X78776390Y-33751694D03*
D11*
X79626390Y-34951694D03*
D12*
X79426390Y-40102962D03*
D13*
X77526390Y-40102962D03*
D14*
X78776390Y-40102962D03*
D11*
X79626390Y-41302962D03*
D12*
X79426390Y-46454224D03*
D13*
X77526390Y-46454224D03*
D14*
X78776390Y-46454224D03*
D11*
X79626390Y-47654224D03*
D12*
X54927785Y-46119957D03*
D13*
X56827785Y-46119957D03*
D14*
X55577785Y-46119957D03*
D11*
X54727785Y-44919957D03*
D12*
X54927785Y-39768703D03*
D13*
X56827785Y-39768703D03*
D14*
X55577785Y-39768703D03*
D11*
X54727785Y-38568703D03*
D12*
X54927785Y-33417458D03*
D13*
X56827785Y-33417458D03*
D14*
X55577785Y-33417458D03*
D11*
X54727785Y-32217458D03*
D12*
X54927785Y-27066206D03*
D13*
X56827785Y-27066206D03*
D14*
X55577785Y-27066206D03*
D11*
X54727785Y-25866206D03*
D10*
G36*
X60412667Y-30256711D02*
X61646816Y-31567008D01*
X61282845Y-31909827D01*
X60048696Y-30599530D01*
X60412667Y-30256711D01*
X60412667Y-30256711D01*
G37*
G36*
X58792653Y-31439146D02*
X60369621Y-33113414D01*
X60136679Y-33332818D01*
X58559711Y-31658550D01*
X58792653Y-31439146D01*
X58792653Y-31439146D01*
G37*
G36*
X59877287Y-30417545D02*
X61454255Y-32091812D01*
X60871901Y-32640323D01*
X59294933Y-30966056D01*
X59877287Y-30417545D01*
X59877287Y-30417545D01*
G37*
D11*
X61816111Y-31819673D03*
D10*
G36*
X64777493Y-34890851D02*
X66011642Y-36201148D01*
X65647671Y-36543967D01*
X64413522Y-35233670D01*
X64777493Y-34890851D01*
X64777493Y-34890851D01*
G37*
G36*
X63157479Y-36073286D02*
X64734447Y-37747554D01*
X64501505Y-37966958D01*
X62924537Y-36292690D01*
X63157479Y-36073286D01*
X63157479Y-36073286D01*
G37*
G36*
X64242113Y-35051685D02*
X65819081Y-36725952D01*
X65236727Y-37274463D01*
X63659759Y-35600196D01*
X64242113Y-35051685D01*
X64242113Y-35051685D01*
G37*
D11*
X66180937Y-36453813D03*
D15*
X49020844Y-46192207D03*
X49020844Y-48192207D03*
X49020844Y-50192207D03*
D16*
X50020844Y-46192207D03*
X50020844Y-48192207D03*
X50020844Y-50192207D03*
D15*
X85363190Y-50192207D03*
X85363190Y-48192207D03*
X85363190Y-46192207D03*
D16*
X84363190Y-50192207D03*
X84363190Y-48192207D03*
X84363190Y-46192207D03*
D11*
X80730253Y-32389042D03*
D17*
X69320000Y-35380000D02*
X69790000Y-35830000D01*
X69320000Y-35380000D02*
X69790000Y-35830000D01*
X69320000Y-35380000D02*
X69790000Y-35830000D01*
X69320000Y-35380000D02*
X69790000Y-35830000D01*
X69320000Y-35380000D02*
X69790000Y-35830000D01*
X69320000Y-35380000D02*
X69790000Y-35830000D01*
X69320000Y-35380000D02*
X69790000Y-35830000D01*
X69320000Y-35380000D02*
X69790000Y-35830000D01*
X69320000Y-35380000D02*
X69790000Y-35830000D01*
X69790000Y-35830000D02*
X70010000Y-34370000D01*
X69790000Y-35830000D02*
X70010000Y-34370000D01*
X69790000Y-35830000D02*
X70010000Y-34370000D01*
X69790000Y-35830000D02*
X70010000Y-34370000D01*
X69790000Y-35830000D02*
X70010000Y-34370000D01*
X69790000Y-35830000D02*
X70010000Y-34370000D01*
X69790000Y-35830000D02*
X70010000Y-34370000D01*
X69790000Y-35830000D02*
X70010000Y-34370000D01*
X69790000Y-35830000D02*
X70010000Y-34370000D01*
X73720000Y-30790000D02*
X74190000Y-31240000D01*
X73720000Y-30790000D02*
X74190000Y-31240000D01*
X73720000Y-30790000D02*
X74190000Y-31240000D01*
X73720000Y-30790000D02*
X74190000Y-31240000D01*
X73720000Y-30790000D02*
X74190000Y-31240000D01*
X73720000Y-30790000D02*
X74190000Y-31240000D01*
X73720000Y-30790000D02*
X74190000Y-31240000D01*
X73720000Y-30790000D02*
X74190000Y-31240000D01*
X73720000Y-30790000D02*
X74190000Y-31240000D01*
X74190000Y-31240000D02*
X74400000Y-29780000D01*
X74190000Y-31240000D02*
X74400000Y-29780000D01*
X74190000Y-31240000D02*
X74400000Y-29780000D01*
X74190000Y-31240000D02*
X74400000Y-29780000D01*
X74190000Y-31240000D02*
X74400000Y-29780000D01*
X74190000Y-31240000D02*
X74400000Y-29780000D01*
X74190000Y-31240000D02*
X74400000Y-29780000D01*
X74190000Y-31240000D02*
X74400000Y-29780000D01*
X74190000Y-31240000D02*
X74400000Y-29780000D01*
X79430000Y-27400000D02*
X78780000Y-27400000D01*
X79430000Y-27400000D02*
X78780000Y-27400000D01*
X79430000Y-27400000D02*
X78780000Y-27400000D01*
X79430000Y-27400000D02*
X78780000Y-27400000D01*
X79430000Y-27400000D02*
X78780000Y-27400000D01*
X79430000Y-27400000D02*
X78780000Y-27400000D01*
X79430000Y-27400000D02*
X78780000Y-27400000D01*
X79430000Y-27400000D02*
X78780000Y-27400000D01*
X79430000Y-27400000D02*
X78780000Y-27400000D01*
X78780000Y-27400000D02*
X79630000Y-28600000D01*
X78780000Y-27400000D02*
X79630000Y-28600000D01*
X78780000Y-27400000D02*
X79630000Y-28600000D01*
X78780000Y-27400000D02*
X79630000Y-28600000D01*
X78780000Y-27400000D02*
X79630000Y-28600000D01*
X78780000Y-27400000D02*
X79630000Y-28600000D01*
X78780000Y-27400000D02*
X79630000Y-28600000D01*
X78780000Y-27400000D02*
X79630000Y-28600000D01*
X78780000Y-27400000D02*
X79630000Y-28600000D01*
X79430000Y-33750000D02*
X78780000Y-33750000D01*
X79430000Y-33750000D02*
X78780000Y-33750000D01*
X79430000Y-33750000D02*
X78780000Y-33750000D01*
X79430000Y-33750000D02*
X78780000Y-33750000D01*
X79430000Y-33750000D02*
X78780000Y-33750000D01*
X79430000Y-33750000D02*
X78780000Y-33750000D01*
X79430000Y-33750000D02*
X78780000Y-33750000D01*
X79430000Y-33750000D02*
X78780000Y-33750000D01*
X79430000Y-33750000D02*
X78780000Y-33750000D01*
X78780000Y-33750000D02*
X79630000Y-34950000D01*
X78780000Y-33750000D02*
X79630000Y-34950000D01*
X78780000Y-33750000D02*
X79630000Y-34950000D01*
X78780000Y-33750000D02*
X79630000Y-34950000D01*
X78780000Y-33750000D02*
X79630000Y-34950000D01*
X78780000Y-33750000D02*
X79630000Y-34950000D01*
X78780000Y-33750000D02*
X79630000Y-34950000D01*
X78780000Y-33750000D02*
X79630000Y-34950000D01*
X78780000Y-33750000D02*
X79630000Y-34950000D01*
X79430000Y-40100000D02*
X78780000Y-40100000D01*
X79430000Y-40100000D02*
X78780000Y-40100000D01*
X79430000Y-40100000D02*
X78780000Y-40100000D01*
X79430000Y-40100000D02*
X78780000Y-40100000D01*
X79430000Y-40100000D02*
X78780000Y-40100000D01*
X79430000Y-40100000D02*
X78780000Y-40100000D01*
X79430000Y-40100000D02*
X78780000Y-40100000D01*
X79430000Y-40100000D02*
X78780000Y-40100000D01*
X79430000Y-40100000D02*
X78780000Y-40100000D01*
X78780000Y-40100000D02*
X79630000Y-41300000D01*
X78780000Y-40100000D02*
X79630000Y-41300000D01*
X78780000Y-40100000D02*
X79630000Y-41300000D01*
X78780000Y-40100000D02*
X79630000Y-41300000D01*
X78780000Y-40100000D02*
X79630000Y-41300000D01*
X78780000Y-40100000D02*
X79630000Y-41300000D01*
X78780000Y-40100000D02*
X79630000Y-41300000D01*
X78780000Y-40100000D02*
X79630000Y-41300000D01*
X78780000Y-40100000D02*
X79630000Y-41300000D01*
X79430000Y-46450000D02*
X78780000Y-46450000D01*
X79430000Y-46450000D02*
X78780000Y-46450000D01*
X79430000Y-46450000D02*
X78780000Y-46450000D01*
X79430000Y-46450000D02*
X78780000Y-46450000D01*
X79430000Y-46450000D02*
X78780000Y-46450000D01*
X79430000Y-46450000D02*
X78780000Y-46450000D01*
X79430000Y-46450000D02*
X78780000Y-46450000D01*
X79430000Y-46450000D02*
X78780000Y-46450000D01*
X79430000Y-46450000D02*
X78780000Y-46450000D01*
X78780000Y-46450000D02*
X79630000Y-47650000D01*
X78780000Y-46450000D02*
X79630000Y-47650000D01*
X78780000Y-46450000D02*
X79630000Y-47650000D01*
X78780000Y-46450000D02*
X79630000Y-47650000D01*
X78780000Y-46450000D02*
X79630000Y-47650000D01*
X78780000Y-46450000D02*
X79630000Y-47650000D01*
X78780000Y-46450000D02*
X79630000Y-47650000D01*
X78780000Y-46450000D02*
X79630000Y-47650000D01*
X78780000Y-46450000D02*
X79630000Y-47650000D01*
X54930000Y-46120000D02*
X55580000Y-46120000D01*
X54930000Y-46120000D02*
X55580000Y-46120000D01*
X54930000Y-46120000D02*
X55580000Y-46120000D01*
X54930000Y-46120000D02*
X55580000Y-46120000D01*
X54930000Y-46120000D02*
X55580000Y-46120000D01*
X54930000Y-46120000D02*
X55580000Y-46120000D01*
X54930000Y-46120000D02*
X55580000Y-46120000D01*
X54930000Y-46120000D02*
X55580000Y-46120000D01*
X54930000Y-46120000D02*
X55580000Y-46120000D01*
X55580000Y-46120000D02*
X54730000Y-44920000D01*
X55580000Y-46120000D02*
X54730000Y-44920000D01*
X55580000Y-46120000D02*
X54730000Y-44920000D01*
X55580000Y-46120000D02*
X54730000Y-44920000D01*
X55580000Y-46120000D02*
X54730000Y-44920000D01*
X55580000Y-46120000D02*
X54730000Y-44920000D01*
X55580000Y-46120000D02*
X54730000Y-44920000D01*
X55580000Y-46120000D02*
X54730000Y-44920000D01*
X55580000Y-46120000D02*
X54730000Y-44920000D01*
X54930000Y-39770000D02*
X55580000Y-39770000D01*
X54930000Y-39770000D02*
X55580000Y-39770000D01*
X54930000Y-39770000D02*
X55580000Y-39770000D01*
X54930000Y-39770000D02*
X55580000Y-39770000D01*
X54930000Y-39770000D02*
X55580000Y-39770000D01*
X54930000Y-39770000D02*
X55580000Y-39770000D01*
X54930000Y-39770000D02*
X55580000Y-39770000D01*
X54930000Y-39770000D02*
X55580000Y-39770000D01*
X54930000Y-39770000D02*
X55580000Y-39770000D01*
X55580000Y-39770000D02*
X54730000Y-38570000D01*
X55580000Y-39770000D02*
X54730000Y-38570000D01*
X55580000Y-39770000D02*
X54730000Y-38570000D01*
X55580000Y-39770000D02*
X54730000Y-38570000D01*
X55580000Y-39770000D02*
X54730000Y-38570000D01*
X55580000Y-39770000D02*
X54730000Y-38570000D01*
X55580000Y-39770000D02*
X54730000Y-38570000D01*
X55580000Y-39770000D02*
X54730000Y-38570000D01*
X55580000Y-39770000D02*
X54730000Y-38570000D01*
X54930000Y-33420000D02*
X55580000Y-33420000D01*
X54930000Y-33420000D02*
X55580000Y-33420000D01*
X54930000Y-33420000D02*
X55580000Y-33420000D01*
X54930000Y-33420000D02*
X55580000Y-33420000D01*
X54930000Y-33420000D02*
X55580000Y-33420000D01*
X54930000Y-33420000D02*
X55580000Y-33420000D01*
X54930000Y-33420000D02*
X55580000Y-33420000D01*
X54930000Y-33420000D02*
X55580000Y-33420000D01*
X54930000Y-33420000D02*
X55580000Y-33420000D01*
X55580000Y-33420000D02*
X54730000Y-32220000D01*
X55580000Y-33420000D02*
X54730000Y-32220000D01*
X55580000Y-33420000D02*
X54730000Y-32220000D01*
X55580000Y-33420000D02*
X54730000Y-32220000D01*
X55580000Y-33420000D02*
X54730000Y-32220000D01*
X55580000Y-33420000D02*
X54730000Y-32220000D01*
X55580000Y-33420000D02*
X54730000Y-32220000D01*
X55580000Y-33420000D02*
X54730000Y-32220000D01*
X55580000Y-33420000D02*
X54730000Y-32220000D01*
X54930000Y-27070000D02*
X55580000Y-27070000D01*
X54930000Y-27070000D02*
X55580000Y-27070000D01*
X54930000Y-27070000D02*
X55580000Y-27070000D01*
X54930000Y-27070000D02*
X55580000Y-27070000D01*
X54930000Y-27070000D02*
X55580000Y-27070000D01*
X54930000Y-27070000D02*
X55580000Y-27070000D01*
X54930000Y-27070000D02*
X55580000Y-27070000D01*
X54930000Y-27070000D02*
X55580000Y-27070000D01*
X54930000Y-27070000D02*
X55580000Y-27070000D01*
X55580000Y-27070000D02*
X54730000Y-25870000D01*
X55580000Y-27070000D02*
X54730000Y-25870000D01*
X55580000Y-27070000D02*
X54730000Y-25870000D01*
X55580000Y-27070000D02*
X54730000Y-25870000D01*
X55580000Y-27070000D02*
X54730000Y-25870000D01*
X55580000Y-27070000D02*
X54730000Y-25870000D01*
X55580000Y-27070000D02*
X54730000Y-25870000D01*
X55580000Y-27070000D02*
X54730000Y-25870000D01*
X55580000Y-27070000D02*
X54730000Y-25870000D01*
X60850000Y-31080000D02*
X60370000Y-31530000D01*
X60850000Y-31080000D02*
X60370000Y-31530000D01*
X60850000Y-31080000D02*
X60370000Y-31530000D01*
X60850000Y-31080000D02*
X60370000Y-31530000D01*
X60850000Y-31080000D02*
X60370000Y-31530000D01*
X60850000Y-31080000D02*
X60370000Y-31530000D01*
X60850000Y-31080000D02*
X60370000Y-31530000D01*
X60850000Y-31080000D02*
X60370000Y-31530000D01*
X60850000Y-31080000D02*
X60370000Y-31530000D01*
X60370000Y-31530000D02*
X61820000Y-31820000D01*
X60370000Y-31530000D02*
X61820000Y-31820000D01*
X60370000Y-31530000D02*
X61820000Y-31820000D01*
X60370000Y-31530000D02*
X61820000Y-31820000D01*
X60370000Y-31530000D02*
X61820000Y-31820000D01*
X60370000Y-31530000D02*
X61820000Y-31820000D01*
X60370000Y-31530000D02*
X61820000Y-31820000D01*
X60370000Y-31530000D02*
X61820000Y-31820000D01*
X60370000Y-31530000D02*
X61820000Y-31820000D01*
X65210000Y-35720000D02*
X64740000Y-36160000D01*
X65210000Y-35720000D02*
X64740000Y-36160000D01*
X65210000Y-35720000D02*
X64740000Y-36160000D01*
X65210000Y-35720000D02*
X64740000Y-36160000D01*
X65210000Y-35720000D02*
X64740000Y-36160000D01*
X65210000Y-35720000D02*
X64740000Y-36160000D01*
X65210000Y-35720000D02*
X64740000Y-36160000D01*
X65210000Y-35720000D02*
X64740000Y-36160000D01*
X65210000Y-35720000D02*
X64740000Y-36160000D01*
X64740000Y-36160000D02*
X66180000Y-36450000D01*
X64740000Y-36160000D02*
X66180000Y-36450000D01*
X64740000Y-36160000D02*
X66180000Y-36450000D01*
X64740000Y-36160000D02*
X66180000Y-36450000D01*
X64740000Y-36160000D02*
X66180000Y-36450000D01*
X64740000Y-36160000D02*
X66180000Y-36450000D01*
X64740000Y-36160000D02*
X66180000Y-36450000D01*
X64740000Y-36160000D02*
X66180000Y-36450000D01*
X64740000Y-36160000D02*
X66180000Y-36450000D01*
D18*
G36*
X66883123Y-32896601D02*
X66893785Y-32904548D01*
X66901638Y-32915274D01*
X66937051Y-32936797D01*
X66970280Y-32961565D01*
X66983169Y-32964826D01*
X66994531Y-32971732D01*
X67035485Y-32978065D01*
X67075662Y-32988231D01*
X67088820Y-32986312D01*
X67101958Y-32988343D01*
X67142217Y-32978522D01*
X67183228Y-32972539D01*
X67194648Y-32965731D01*
X67207565Y-32962580D01*
X67241001Y-32938099D01*
X67276601Y-32916877D01*
X67284548Y-32906215D01*
X67295274Y-32898362D01*
X68790533Y-31268853D01*
X72680136Y-31268853D01*
X72699226Y-31359384D01*
X72752033Y-31435354D01*
X72944853Y-31619930D01*
X72933151Y-31632154D01*
X72886086Y-31704373D01*
X72868452Y-31795197D01*
X72887542Y-31885727D01*
X72940349Y-31961698D01*
X73518253Y-32514895D01*
X73590472Y-32561960D01*
X73648440Y-32573215D01*
X73591271Y-32720236D01*
X73596345Y-32952590D01*
X73689952Y-33165315D01*
X73726183Y-33199997D01*
X73932680Y-33195486D01*
X74907932Y-32176677D01*
X74850141Y-32121357D01*
X74937172Y-32030439D01*
X75269408Y-32030439D01*
X75643710Y-32388737D01*
X75850206Y-32384227D01*
X76341131Y-31871376D01*
X76390723Y-31819569D01*
X80315510Y-31819569D01*
X80726286Y-32212310D01*
X81119027Y-31801534D01*
X81106613Y-31626298D01*
X80786075Y-31540332D01*
X80457038Y-31583574D01*
X80320049Y-31643953D01*
X80315510Y-31819569D01*
X76390723Y-31819569D01*
X76501841Y-31703489D01*
X76586069Y-31486880D01*
X76580995Y-31254526D01*
X76487388Y-31041801D01*
X76451157Y-31007119D01*
X76244660Y-31011630D01*
X75269408Y-32030439D01*
X74937172Y-32030439D01*
X75096038Y-31864479D01*
X75153828Y-31919799D01*
X76129079Y-30900990D01*
X76124569Y-30694494D01*
X76088338Y-30659812D01*
X75871729Y-30575583D01*
X75639374Y-30580659D01*
X75494740Y-30644304D01*
X75483848Y-30592649D01*
X75431041Y-30516678D01*
X74853137Y-29963481D01*
X74847042Y-29959509D01*
X74879983Y-29880177D01*
X74880150Y-29689778D01*
X74807441Y-29513809D01*
X74672926Y-29379060D01*
X74497084Y-29306044D01*
X74306685Y-29305877D01*
X74130716Y-29378586D01*
X73995967Y-29513101D01*
X73922951Y-29688943D01*
X73922788Y-29875248D01*
X72744835Y-31105810D01*
X72697770Y-31178029D01*
X72680136Y-31268853D01*
X68790533Y-31268853D01*
X72043082Y-27724279D01*
X76782190Y-27724279D01*
X76782190Y-28666633D01*
X76871129Y-28881351D01*
X77035467Y-29045690D01*
X77250185Y-29134629D01*
X77300340Y-29134629D01*
X77446390Y-28988579D01*
X77446390Y-27578229D01*
X76928240Y-27578229D01*
X76782190Y-27724279D01*
X72043082Y-27724279D01*
X73502137Y-26134225D01*
X76782190Y-26134225D01*
X76782190Y-27076579D01*
X76928240Y-27222629D01*
X77446390Y-27222629D01*
X77446390Y-25812279D01*
X77606390Y-25812279D01*
X77606390Y-27222629D01*
X77686390Y-27222629D01*
X77686390Y-27578229D01*
X77606390Y-27578229D01*
X77606390Y-28988579D01*
X77752440Y-29134629D01*
X77802595Y-29134629D01*
X78017313Y-29045690D01*
X78181651Y-28881351D01*
X78242122Y-28735361D01*
X78285710Y-28765144D01*
X78376390Y-28783507D01*
X79176390Y-28783507D01*
X79183628Y-28782145D01*
X79220416Y-28871180D01*
X79354931Y-29005929D01*
X79530773Y-29078945D01*
X79721172Y-29079112D01*
X79897141Y-29006403D01*
X80031890Y-28871888D01*
X80104906Y-28696046D01*
X80105073Y-28505647D01*
X80032364Y-28329678D01*
X79909468Y-28206568D01*
X79909468Y-26500429D01*
X79893528Y-26415715D01*
X79843462Y-26337911D01*
X79767070Y-26285714D01*
X79676390Y-26267351D01*
X79409468Y-26267351D01*
X79409468Y-26250429D01*
X79393528Y-26165715D01*
X79343462Y-26087911D01*
X79267070Y-26035714D01*
X79176390Y-26017351D01*
X78376390Y-26017351D01*
X78291676Y-26033291D01*
X78242018Y-26065246D01*
X78181651Y-25919507D01*
X78017313Y-25755168D01*
X77802595Y-25666229D01*
X77752440Y-25666229D01*
X77606390Y-25812279D01*
X77446390Y-25812279D01*
X77300340Y-25666229D01*
X77250185Y-25666229D01*
X77035467Y-25755168D01*
X76871129Y-25919507D01*
X76782190Y-26134225D01*
X73502137Y-26134225D01*
X80132471Y-18908600D01*
X82701400Y-18908600D01*
X82701400Y-45150000D01*
X82722607Y-45256616D01*
X82783000Y-45347000D01*
X82873384Y-45407393D01*
X82980000Y-45428600D01*
X87401400Y-45428600D01*
X87401400Y-45466867D01*
X87363190Y-45459129D01*
X83363190Y-45459129D01*
X83278476Y-45475069D01*
X83200672Y-45525135D01*
X83148475Y-45601527D01*
X83130112Y-45692207D01*
X83130112Y-46692207D01*
X83146052Y-46776921D01*
X83196118Y-46854725D01*
X83272510Y-46906922D01*
X83363190Y-46925285D01*
X87363190Y-46925285D01*
X87401400Y-46918095D01*
X87401400Y-47108007D01*
X85687040Y-47108007D01*
X85540990Y-47254057D01*
X85540990Y-48014407D01*
X85560990Y-48014407D01*
X85560990Y-48370007D01*
X85540990Y-48370007D01*
X85540990Y-49130357D01*
X85687040Y-49276407D01*
X87401400Y-49276407D01*
X87401400Y-49466867D01*
X87363190Y-49459129D01*
X83363190Y-49459129D01*
X83278476Y-49475069D01*
X83200672Y-49525135D01*
X83148475Y-49601527D01*
X83130112Y-49692207D01*
X83130112Y-50692207D01*
X83146052Y-50776921D01*
X83196118Y-50854725D01*
X83220522Y-50871400D01*
X82980000Y-50871400D01*
X82929726Y-50881400D01*
X74778600Y-50881400D01*
X74778600Y-46778074D01*
X76782190Y-46778074D01*
X76782190Y-47720428D01*
X76871129Y-47935146D01*
X77035467Y-48099485D01*
X77250185Y-48188424D01*
X77300340Y-48188424D01*
X77446390Y-48042374D01*
X77446390Y-46632024D01*
X76928240Y-46632024D01*
X76782190Y-46778074D01*
X74778600Y-46778074D01*
X74778600Y-45188020D01*
X76782190Y-45188020D01*
X76782190Y-46130374D01*
X76928240Y-46276424D01*
X77446390Y-46276424D01*
X77446390Y-44866074D01*
X77606390Y-44866074D01*
X77606390Y-46276424D01*
X77686390Y-46276424D01*
X77686390Y-46632024D01*
X77606390Y-46632024D01*
X77606390Y-48042374D01*
X77752440Y-48188424D01*
X77802595Y-48188424D01*
X78017313Y-48099485D01*
X78181651Y-47935146D01*
X78242122Y-47789156D01*
X78285710Y-47818939D01*
X78376390Y-47837302D01*
X79176390Y-47837302D01*
X79183628Y-47835940D01*
X79220416Y-47924975D01*
X79354931Y-48059724D01*
X79530773Y-48132740D01*
X79721172Y-48132907D01*
X79897141Y-48060198D01*
X80031890Y-47925683D01*
X80104906Y-47749841D01*
X80105058Y-47576002D01*
X82778990Y-47576002D01*
X82778990Y-47868357D01*
X82925040Y-48014407D01*
X83495270Y-48014407D01*
X83463778Y-48130540D01*
X83494572Y-48370007D01*
X82925040Y-48370007D01*
X82778990Y-48516057D01*
X82778990Y-48808412D01*
X82867929Y-49023130D01*
X83032268Y-49187468D01*
X83246986Y-49276407D01*
X85039340Y-49276407D01*
X85185390Y-49130357D01*
X85185390Y-48538605D01*
X85262602Y-48253874D01*
X85217737Y-47904990D01*
X85185390Y-47826897D01*
X85185390Y-47254057D01*
X85039340Y-47108007D01*
X83246986Y-47108007D01*
X83032268Y-47196946D01*
X82867929Y-47361284D01*
X82778990Y-47576002D01*
X80105058Y-47576002D01*
X80105073Y-47559442D01*
X80032364Y-47383473D01*
X79909468Y-47260363D01*
X79909468Y-45554224D01*
X79893528Y-45469510D01*
X79843462Y-45391706D01*
X79767070Y-45339509D01*
X79676390Y-45321146D01*
X79409468Y-45321146D01*
X79409468Y-45304224D01*
X79393528Y-45219510D01*
X79343462Y-45141706D01*
X79267070Y-45089509D01*
X79176390Y-45071146D01*
X78376390Y-45071146D01*
X78291676Y-45087086D01*
X78242018Y-45119041D01*
X78181651Y-44973302D01*
X78017313Y-44808963D01*
X77802595Y-44720024D01*
X77752440Y-44720024D01*
X77606390Y-44866074D01*
X77446390Y-44866074D01*
X77300340Y-44720024D01*
X77250185Y-44720024D01*
X77035467Y-44808963D01*
X76871129Y-44973302D01*
X76782190Y-45188020D01*
X74778600Y-45188020D01*
X74778600Y-40426812D01*
X76782190Y-40426812D01*
X76782190Y-41369166D01*
X76871129Y-41583884D01*
X77035467Y-41748223D01*
X77250185Y-41837162D01*
X77300340Y-41837162D01*
X77446390Y-41691112D01*
X77446390Y-40280762D01*
X76928240Y-40280762D01*
X76782190Y-40426812D01*
X74778600Y-40426812D01*
X74778600Y-38836758D01*
X76782190Y-38836758D01*
X76782190Y-39779112D01*
X76928240Y-39925162D01*
X77446390Y-39925162D01*
X77446390Y-38514812D01*
X77606390Y-38514812D01*
X77606390Y-39925162D01*
X77686390Y-39925162D01*
X77686390Y-40280762D01*
X77606390Y-40280762D01*
X77606390Y-41691112D01*
X77752440Y-41837162D01*
X77802595Y-41837162D01*
X78017313Y-41748223D01*
X78181651Y-41583884D01*
X78242122Y-41437894D01*
X78285710Y-41467677D01*
X78376390Y-41486040D01*
X79176390Y-41486040D01*
X79183628Y-41484678D01*
X79220416Y-41573713D01*
X79354931Y-41708462D01*
X79530773Y-41781478D01*
X79721172Y-41781645D01*
X79897141Y-41708936D01*
X80031890Y-41574421D01*
X80104906Y-41398579D01*
X80105073Y-41208180D01*
X80032364Y-41032211D01*
X79909468Y-40909101D01*
X79909468Y-39202962D01*
X79893528Y-39118248D01*
X79843462Y-39040444D01*
X79767070Y-38988247D01*
X79676390Y-38969884D01*
X79409468Y-38969884D01*
X79409468Y-38952962D01*
X79393528Y-38868248D01*
X79343462Y-38790444D01*
X79267070Y-38738247D01*
X79176390Y-38719884D01*
X78376390Y-38719884D01*
X78291676Y-38735824D01*
X78242018Y-38767779D01*
X78181651Y-38622040D01*
X78017313Y-38457701D01*
X77802595Y-38368762D01*
X77752440Y-38368762D01*
X77606390Y-38514812D01*
X77446390Y-38514812D01*
X77300340Y-38368762D01*
X77250185Y-38368762D01*
X77035467Y-38457701D01*
X76871129Y-38622040D01*
X76782190Y-38836758D01*
X74778600Y-38836758D01*
X74778600Y-36700000D01*
X74777975Y-36696856D01*
X74778529Y-36693697D01*
X74767392Y-36643655D01*
X74757393Y-36593384D01*
X74755612Y-36590718D01*
X74754915Y-36587588D01*
X74725482Y-36545626D01*
X74697000Y-36503000D01*
X74694333Y-36501218D01*
X74692492Y-36498593D01*
X74649229Y-36471080D01*
X74606616Y-36442607D01*
X74603472Y-36441982D01*
X74600765Y-36440260D01*
X74550253Y-36431396D01*
X74500000Y-36421400D01*
X74496856Y-36422025D01*
X74493697Y-36421471D01*
X74443655Y-36432608D01*
X74393384Y-36442607D01*
X74390718Y-36444388D01*
X74387588Y-36445085D01*
X74345626Y-36474518D01*
X74303000Y-36503000D01*
X74301218Y-36505667D01*
X74298593Y-36507508D01*
X67470890Y-43651400D01*
X66789708Y-43651400D01*
X61205610Y-37766118D01*
X63509801Y-37766118D01*
X63996567Y-38282917D01*
X64155915Y-38452098D01*
X64367877Y-38547420D01*
X64600182Y-38554373D01*
X64817465Y-38471896D01*
X64853975Y-38437508D01*
X64860153Y-38231055D01*
X63893163Y-37204401D01*
X63515980Y-37559665D01*
X63509801Y-37766118D01*
X61205610Y-37766118D01*
X60012103Y-36508239D01*
X60009066Y-36506093D01*
X60007000Y-36503000D01*
X59964786Y-36474794D01*
X59923335Y-36445494D01*
X59919708Y-36444673D01*
X59916616Y-36442607D01*
X59866827Y-36432704D01*
X59817313Y-36421496D01*
X59813648Y-36422126D01*
X59810000Y-36421400D01*
X59760210Y-36431304D01*
X59710178Y-36439897D01*
X59707033Y-36441881D01*
X59703384Y-36442607D01*
X59661165Y-36470817D01*
X59618239Y-36497897D01*
X59616093Y-36500934D01*
X59613000Y-36503000D01*
X59584794Y-36545214D01*
X59555494Y-36586665D01*
X59554673Y-36590292D01*
X59552607Y-36593384D01*
X59542704Y-36643173D01*
X59531496Y-36692687D01*
X59532126Y-36696352D01*
X59531400Y-36700000D01*
X59531400Y-50881400D01*
X51380274Y-50881400D01*
X51330000Y-50871400D01*
X51164526Y-50871400D01*
X51183362Y-50859279D01*
X51235559Y-50782887D01*
X51253922Y-50692207D01*
X51253922Y-49692207D01*
X51237982Y-49607493D01*
X51187916Y-49529689D01*
X51111524Y-49477492D01*
X51020844Y-49459129D01*
X47020844Y-49459129D01*
X46936130Y-49475069D01*
X46908600Y-49492784D01*
X46908600Y-49276407D01*
X48696994Y-49276407D01*
X48843044Y-49130357D01*
X48843044Y-48370007D01*
X48823044Y-48370007D01*
X48823044Y-48130540D01*
X49121432Y-48130540D01*
X49166297Y-48479424D01*
X49198644Y-48557517D01*
X49198644Y-49130357D01*
X49344694Y-49276407D01*
X51137048Y-49276407D01*
X51351766Y-49187468D01*
X51516105Y-49023130D01*
X51605044Y-48808412D01*
X51605044Y-48516057D01*
X51458994Y-48370007D01*
X50888764Y-48370007D01*
X50920256Y-48253874D01*
X50889462Y-48014407D01*
X51458994Y-48014407D01*
X51605044Y-47868357D01*
X51605044Y-47576002D01*
X51516105Y-47361284D01*
X51351766Y-47196946D01*
X51137048Y-47108007D01*
X49344694Y-47108007D01*
X49198644Y-47254057D01*
X49198644Y-47845809D01*
X49121432Y-48130540D01*
X48823044Y-48130540D01*
X48823044Y-48014407D01*
X48843044Y-48014407D01*
X48843044Y-47254057D01*
X48696994Y-47108007D01*
X46908600Y-47108007D01*
X46908600Y-46892188D01*
X46930164Y-46906922D01*
X47020844Y-46925285D01*
X51020844Y-46925285D01*
X51105558Y-46909345D01*
X51183362Y-46859279D01*
X51235559Y-46782887D01*
X51253922Y-46692207D01*
X51253922Y-45692207D01*
X51237982Y-45607493D01*
X51187916Y-45529689D01*
X51111524Y-45477492D01*
X51020844Y-45459129D01*
X47020844Y-45459129D01*
X46936130Y-45475069D01*
X46908600Y-45492784D01*
X46908600Y-45428600D01*
X51330000Y-45428600D01*
X51436616Y-45407393D01*
X51527000Y-45347000D01*
X51587393Y-45256616D01*
X51608600Y-45150000D01*
X51608600Y-45014739D01*
X54249102Y-45014739D01*
X54321811Y-45190708D01*
X54444707Y-45313818D01*
X54444707Y-47019957D01*
X54460647Y-47104671D01*
X54510713Y-47182475D01*
X54587105Y-47234672D01*
X54677785Y-47253035D01*
X54944707Y-47253035D01*
X54944707Y-47269957D01*
X54960647Y-47354671D01*
X55010713Y-47432475D01*
X55087105Y-47484672D01*
X55177785Y-47503035D01*
X55977785Y-47503035D01*
X56062499Y-47487095D01*
X56112157Y-47455140D01*
X56172524Y-47600879D01*
X56336862Y-47765218D01*
X56551580Y-47854157D01*
X56601735Y-47854157D01*
X56747785Y-47708107D01*
X56747785Y-46297757D01*
X56907785Y-46297757D01*
X56907785Y-47708107D01*
X57053835Y-47854157D01*
X57103990Y-47854157D01*
X57318708Y-47765218D01*
X57483046Y-47600879D01*
X57571985Y-47386161D01*
X57571985Y-46443807D01*
X57425935Y-46297757D01*
X56907785Y-46297757D01*
X56747785Y-46297757D01*
X56667785Y-46297757D01*
X56667785Y-45942157D01*
X56747785Y-45942157D01*
X56747785Y-44531807D01*
X56907785Y-44531807D01*
X56907785Y-45942157D01*
X57425935Y-45942157D01*
X57571985Y-45796107D01*
X57571985Y-44853753D01*
X57483046Y-44639035D01*
X57318708Y-44474696D01*
X57103990Y-44385757D01*
X57053835Y-44385757D01*
X56907785Y-44531807D01*
X56747785Y-44531807D01*
X56601735Y-44385757D01*
X56551580Y-44385757D01*
X56336862Y-44474696D01*
X56172524Y-44639035D01*
X56112053Y-44785025D01*
X56068465Y-44755242D01*
X55977785Y-44736879D01*
X55177785Y-44736879D01*
X55170547Y-44738241D01*
X55133759Y-44649206D01*
X54999244Y-44514457D01*
X54823402Y-44441441D01*
X54633003Y-44441274D01*
X54457034Y-44513983D01*
X54322285Y-44648498D01*
X54249269Y-44824340D01*
X54249102Y-45014739D01*
X51608600Y-45014739D01*
X51608600Y-38663485D01*
X54249102Y-38663485D01*
X54321811Y-38839454D01*
X54444707Y-38962564D01*
X54444707Y-40668703D01*
X54460647Y-40753417D01*
X54510713Y-40831221D01*
X54587105Y-40883418D01*
X54677785Y-40901781D01*
X54944707Y-40901781D01*
X54944707Y-40918703D01*
X54960647Y-41003417D01*
X55010713Y-41081221D01*
X55087105Y-41133418D01*
X55177785Y-41151781D01*
X55977785Y-41151781D01*
X56062499Y-41135841D01*
X56112157Y-41103886D01*
X56172524Y-41249625D01*
X56336862Y-41413964D01*
X56551580Y-41502903D01*
X56601735Y-41502903D01*
X56747785Y-41356853D01*
X56747785Y-39946503D01*
X56907785Y-39946503D01*
X56907785Y-41356853D01*
X57053835Y-41502903D01*
X57103990Y-41502903D01*
X57318708Y-41413964D01*
X57483046Y-41249625D01*
X57571985Y-41034907D01*
X57571985Y-40092553D01*
X57425935Y-39946503D01*
X56907785Y-39946503D01*
X56747785Y-39946503D01*
X56667785Y-39946503D01*
X56667785Y-39590903D01*
X56747785Y-39590903D01*
X56747785Y-38180553D01*
X56907785Y-38180553D01*
X56907785Y-39590903D01*
X57425935Y-39590903D01*
X57571985Y-39444853D01*
X57571985Y-38502499D01*
X57483046Y-38287781D01*
X57318708Y-38123442D01*
X57103990Y-38034503D01*
X57053835Y-38034503D01*
X56907785Y-38180553D01*
X56747785Y-38180553D01*
X56601735Y-38034503D01*
X56551580Y-38034503D01*
X56336862Y-38123442D01*
X56172524Y-38287781D01*
X56112053Y-38433771D01*
X56068465Y-38403988D01*
X55977785Y-38385625D01*
X55177785Y-38385625D01*
X55170547Y-38386987D01*
X55133759Y-38297952D01*
X54999244Y-38163203D01*
X54823402Y-38090187D01*
X54633003Y-38090020D01*
X54457034Y-38162729D01*
X54322285Y-38297244D01*
X54249269Y-38473086D01*
X54249102Y-38663485D01*
X51608600Y-38663485D01*
X51608600Y-36391368D01*
X62337123Y-36391368D01*
X62419599Y-36608651D01*
X62578948Y-36777831D01*
X63065713Y-37294630D01*
X63272167Y-37300808D01*
X63649350Y-36945545D01*
X62682360Y-35918891D01*
X62475907Y-35912713D01*
X62439397Y-35947101D01*
X62344074Y-36159062D01*
X62337123Y-36391368D01*
X51608600Y-36391368D01*
X51608600Y-35809189D01*
X62798831Y-35809189D01*
X63765821Y-36835843D01*
X63824057Y-36780992D01*
X64067870Y-37039848D01*
X64009634Y-37094699D01*
X64976624Y-38121353D01*
X65183077Y-38127531D01*
X65219587Y-38093143D01*
X65309380Y-37893477D01*
X69657021Y-37893477D01*
X69661531Y-38099973D01*
X69697762Y-38134655D01*
X69914371Y-38218884D01*
X70146726Y-38213808D01*
X70359450Y-38120201D01*
X70520160Y-37952313D01*
X71011084Y-37439463D01*
X71006574Y-37232967D01*
X70632272Y-36874668D01*
X69657021Y-37893477D01*
X65309380Y-37893477D01*
X65314910Y-37881182D01*
X65321861Y-37648876D01*
X65265785Y-37501143D01*
X65317934Y-37492937D01*
X65396534Y-37444130D01*
X65978888Y-36895619D01*
X65983072Y-36889872D01*
X66085320Y-36932329D01*
X66275719Y-36932496D01*
X66451688Y-36859787D01*
X66586437Y-36725272D01*
X66659453Y-36549430D01*
X66659620Y-36359031D01*
X66586911Y-36183062D01*
X66452396Y-36048313D01*
X66276554Y-35975297D01*
X66118973Y-35975159D01*
X66006932Y-35856204D01*
X68288896Y-35856204D01*
X68307986Y-35946735D01*
X68360793Y-36022705D01*
X68553613Y-36207281D01*
X68541911Y-36219505D01*
X68494846Y-36291724D01*
X68477212Y-36382548D01*
X68496302Y-36473078D01*
X68549109Y-36549049D01*
X69127013Y-37102246D01*
X69199232Y-37149311D01*
X69257200Y-37160566D01*
X69200031Y-37307587D01*
X69205105Y-37539941D01*
X69298712Y-37752666D01*
X69334943Y-37787348D01*
X69541440Y-37782837D01*
X70516692Y-36764028D01*
X70458901Y-36708708D01*
X70545932Y-36617790D01*
X70878168Y-36617790D01*
X71252470Y-36976088D01*
X71458966Y-36971578D01*
X71949891Y-36458727D01*
X72110601Y-36290840D01*
X72194829Y-36074231D01*
X72189755Y-35841877D01*
X72096148Y-35629152D01*
X72059917Y-35594470D01*
X71853420Y-35598981D01*
X70878168Y-36617790D01*
X70545932Y-36617790D01*
X70704798Y-36451830D01*
X70762588Y-36507150D01*
X71737839Y-35488341D01*
X71733329Y-35281845D01*
X71697098Y-35247163D01*
X71480489Y-35162934D01*
X71248134Y-35168010D01*
X71103500Y-35231655D01*
X71092608Y-35180000D01*
X71039801Y-35104029D01*
X70461897Y-34550832D01*
X70455802Y-34546860D01*
X70488743Y-34467528D01*
X70488910Y-34277129D01*
X70416201Y-34101160D01*
X70390630Y-34075544D01*
X76782190Y-34075544D01*
X76782190Y-35017898D01*
X76871129Y-35232616D01*
X77035467Y-35396955D01*
X77250185Y-35485894D01*
X77300340Y-35485894D01*
X77446390Y-35339844D01*
X77446390Y-33929494D01*
X76928240Y-33929494D01*
X76782190Y-34075544D01*
X70390630Y-34075544D01*
X70281686Y-33966411D01*
X70105844Y-33893395D01*
X69915445Y-33893228D01*
X69739476Y-33965937D01*
X69604727Y-34100452D01*
X69531711Y-34276294D01*
X69531548Y-34462599D01*
X68353595Y-35693161D01*
X68306530Y-35765380D01*
X68288896Y-35856204D01*
X66006932Y-35856204D01*
X64947160Y-34731044D01*
X64877474Y-34680306D01*
X64787683Y-34657996D01*
X64696286Y-34672377D01*
X64617686Y-34721184D01*
X64423382Y-34904196D01*
X64411780Y-34891878D01*
X64342094Y-34841140D01*
X64252303Y-34818830D01*
X64160906Y-34833211D01*
X64082306Y-34882018D01*
X63499952Y-35430529D01*
X63449214Y-35500215D01*
X63434975Y-35557523D01*
X63291107Y-35492824D01*
X63058802Y-35485871D01*
X62841519Y-35568348D01*
X62805009Y-35602736D01*
X62798831Y-35809189D01*
X51608600Y-35809189D01*
X51608600Y-32312240D01*
X54249102Y-32312240D01*
X54321811Y-32488209D01*
X54444707Y-32611319D01*
X54444707Y-34317458D01*
X54460647Y-34402172D01*
X54510713Y-34479976D01*
X54587105Y-34532173D01*
X54677785Y-34550536D01*
X54944707Y-34550536D01*
X54944707Y-34567458D01*
X54960647Y-34652172D01*
X55010713Y-34729976D01*
X55087105Y-34782173D01*
X55177785Y-34800536D01*
X55977785Y-34800536D01*
X56062499Y-34784596D01*
X56112157Y-34752641D01*
X56172524Y-34898380D01*
X56336862Y-35062719D01*
X56551580Y-35151658D01*
X56601735Y-35151658D01*
X56747785Y-35005608D01*
X56747785Y-33595258D01*
X56907785Y-33595258D01*
X56907785Y-35005608D01*
X57053835Y-35151658D01*
X57103990Y-35151658D01*
X57318708Y-35062719D01*
X57483046Y-34898380D01*
X57571985Y-34683662D01*
X57571985Y-33741308D01*
X57425935Y-33595258D01*
X56907785Y-33595258D01*
X56747785Y-33595258D01*
X56667785Y-33595258D01*
X56667785Y-33239658D01*
X56747785Y-33239658D01*
X56747785Y-31829308D01*
X56907785Y-31829308D01*
X56907785Y-33239658D01*
X57425935Y-33239658D01*
X57533615Y-33131978D01*
X59144975Y-33131978D01*
X59631741Y-33648777D01*
X59791089Y-33817958D01*
X60003051Y-33913280D01*
X60235356Y-33920233D01*
X60452639Y-33837756D01*
X60489149Y-33803368D01*
X60495327Y-33596915D01*
X59528337Y-32570261D01*
X59151154Y-32925525D01*
X59144975Y-33131978D01*
X57533615Y-33131978D01*
X57571985Y-33093608D01*
X57571985Y-32151254D01*
X57483046Y-31936536D01*
X57318708Y-31772197D01*
X57282570Y-31757228D01*
X57972297Y-31757228D01*
X58054773Y-31974511D01*
X58214122Y-32143691D01*
X58700887Y-32660490D01*
X58907341Y-32666668D01*
X59284524Y-32311405D01*
X58317534Y-31284751D01*
X58111081Y-31278573D01*
X58074571Y-31312961D01*
X57979248Y-31524922D01*
X57972297Y-31757228D01*
X57282570Y-31757228D01*
X57103990Y-31683258D01*
X57053835Y-31683258D01*
X56907785Y-31829308D01*
X56747785Y-31829308D01*
X56601735Y-31683258D01*
X56551580Y-31683258D01*
X56336862Y-31772197D01*
X56172524Y-31936536D01*
X56112053Y-32082526D01*
X56068465Y-32052743D01*
X55977785Y-32034380D01*
X55177785Y-32034380D01*
X55170547Y-32035742D01*
X55133759Y-31946707D01*
X54999244Y-31811958D01*
X54823402Y-31738942D01*
X54633003Y-31738775D01*
X54457034Y-31811484D01*
X54322285Y-31945999D01*
X54249269Y-32121841D01*
X54249102Y-32312240D01*
X51608600Y-32312240D01*
X51608600Y-31175049D01*
X58434005Y-31175049D01*
X59400995Y-32201703D01*
X59459231Y-32146852D01*
X59703044Y-32405708D01*
X59644808Y-32460559D01*
X60611798Y-33487213D01*
X60818251Y-33493391D01*
X60854761Y-33459003D01*
X60923512Y-33306126D01*
X74048261Y-33306126D01*
X74052771Y-33512622D01*
X74089002Y-33547304D01*
X74305611Y-33631533D01*
X74537966Y-33626457D01*
X74750690Y-33532850D01*
X74911400Y-33364962D01*
X75402324Y-32852112D01*
X75397814Y-32645616D01*
X75230537Y-32485490D01*
X76782190Y-32485490D01*
X76782190Y-33427844D01*
X76928240Y-33573894D01*
X77446390Y-33573894D01*
X77446390Y-32163544D01*
X77606390Y-32163544D01*
X77606390Y-33573894D01*
X77686390Y-33573894D01*
X77686390Y-33929494D01*
X77606390Y-33929494D01*
X77606390Y-35339844D01*
X77752440Y-35485894D01*
X77802595Y-35485894D01*
X78017313Y-35396955D01*
X78181651Y-35232616D01*
X78242122Y-35086626D01*
X78285710Y-35116409D01*
X78376390Y-35134772D01*
X79176390Y-35134772D01*
X79183628Y-35133410D01*
X79220416Y-35222445D01*
X79354931Y-35357194D01*
X79530773Y-35430210D01*
X79721172Y-35430377D01*
X79897141Y-35357668D01*
X80031890Y-35223153D01*
X80104906Y-35047311D01*
X80105073Y-34856912D01*
X80032364Y-34680943D01*
X79909468Y-34557833D01*
X79909468Y-32976550D01*
X80341479Y-32976550D01*
X80353893Y-33151786D01*
X80674431Y-33237752D01*
X81003468Y-33194510D01*
X81140457Y-33134131D01*
X81144996Y-32958515D01*
X80734220Y-32565774D01*
X80341479Y-32976550D01*
X79909468Y-32976550D01*
X79909468Y-32851694D01*
X79893528Y-32766980D01*
X79843462Y-32689176D01*
X79767070Y-32636979D01*
X79676390Y-32618616D01*
X79409468Y-32618616D01*
X79409468Y-32601694D01*
X79393528Y-32516980D01*
X79343462Y-32439176D01*
X79267070Y-32386979D01*
X79176390Y-32368616D01*
X78376390Y-32368616D01*
X78291676Y-32384556D01*
X78242018Y-32416511D01*
X78207518Y-32333220D01*
X79881543Y-32333220D01*
X79924785Y-32662257D01*
X79985164Y-32799246D01*
X80160780Y-32803785D01*
X80553521Y-32393009D01*
X80545223Y-32385075D01*
X80906985Y-32385075D01*
X81317761Y-32777816D01*
X81492997Y-32765402D01*
X81578963Y-32444864D01*
X81535721Y-32115827D01*
X81475342Y-31978838D01*
X81299726Y-31974299D01*
X80906985Y-32385075D01*
X80545223Y-32385075D01*
X80142745Y-32000268D01*
X79967509Y-32012682D01*
X79881543Y-32333220D01*
X78207518Y-32333220D01*
X78181651Y-32270772D01*
X78017313Y-32106433D01*
X77802595Y-32017494D01*
X77752440Y-32017494D01*
X77606390Y-32163544D01*
X77446390Y-32163544D01*
X77300340Y-32017494D01*
X77250185Y-32017494D01*
X77035467Y-32106433D01*
X76871129Y-32270772D01*
X76782190Y-32485490D01*
X75230537Y-32485490D01*
X75023512Y-32287317D01*
X74048261Y-33306126D01*
X60923512Y-33306126D01*
X60950084Y-33247042D01*
X60957035Y-33014736D01*
X60900959Y-32867003D01*
X60953108Y-32858797D01*
X61031708Y-32809990D01*
X61614062Y-32261479D01*
X61618246Y-32255732D01*
X61720494Y-32298189D01*
X61910893Y-32298356D01*
X62086862Y-32225647D01*
X62221611Y-32091132D01*
X62294627Y-31915290D01*
X62294794Y-31724891D01*
X62222085Y-31548922D01*
X62087570Y-31414173D01*
X61911728Y-31341157D01*
X61754147Y-31341019D01*
X60582334Y-30096904D01*
X60512648Y-30046166D01*
X60422857Y-30023856D01*
X60331460Y-30038237D01*
X60252860Y-30087044D01*
X60058556Y-30270056D01*
X60046954Y-30257738D01*
X59977268Y-30207000D01*
X59887477Y-30184690D01*
X59796080Y-30199071D01*
X59717480Y-30247878D01*
X59135126Y-30796389D01*
X59084388Y-30866075D01*
X59070149Y-30923383D01*
X58926281Y-30858684D01*
X58693976Y-30851731D01*
X58476693Y-30934208D01*
X58440183Y-30968596D01*
X58434005Y-31175049D01*
X51608600Y-31175049D01*
X51608600Y-25960988D01*
X54249102Y-25960988D01*
X54321811Y-26136957D01*
X54444707Y-26260067D01*
X54444707Y-27966206D01*
X54460647Y-28050920D01*
X54510713Y-28128724D01*
X54587105Y-28180921D01*
X54677785Y-28199284D01*
X54944707Y-28199284D01*
X54944707Y-28216206D01*
X54960647Y-28300920D01*
X55010713Y-28378724D01*
X55087105Y-28430921D01*
X55177785Y-28449284D01*
X55977785Y-28449284D01*
X56062499Y-28433344D01*
X56112157Y-28401389D01*
X56172524Y-28547128D01*
X56336862Y-28711467D01*
X56551580Y-28800406D01*
X56601735Y-28800406D01*
X56747785Y-28654356D01*
X56747785Y-27244006D01*
X56907785Y-27244006D01*
X56907785Y-28654356D01*
X57053835Y-28800406D01*
X57103990Y-28800406D01*
X57318708Y-28711467D01*
X57483046Y-28547128D01*
X57571985Y-28332410D01*
X57571985Y-27390056D01*
X57425935Y-27244006D01*
X56907785Y-27244006D01*
X56747785Y-27244006D01*
X56667785Y-27244006D01*
X56667785Y-26888406D01*
X56747785Y-26888406D01*
X56747785Y-25478056D01*
X56907785Y-25478056D01*
X56907785Y-26888406D01*
X57425935Y-26888406D01*
X57571985Y-26742356D01*
X57571985Y-25800002D01*
X57483046Y-25585284D01*
X57318708Y-25420945D01*
X57103990Y-25332006D01*
X57053835Y-25332006D01*
X56907785Y-25478056D01*
X56747785Y-25478056D01*
X56601735Y-25332006D01*
X56551580Y-25332006D01*
X56336862Y-25420945D01*
X56172524Y-25585284D01*
X56112053Y-25731274D01*
X56068465Y-25701491D01*
X55977785Y-25683128D01*
X55177785Y-25683128D01*
X55170547Y-25684490D01*
X55133759Y-25595455D01*
X54999244Y-25460706D01*
X54823402Y-25387690D01*
X54633003Y-25387523D01*
X54457034Y-25460232D01*
X54322285Y-25594747D01*
X54249269Y-25770589D01*
X54249102Y-25960988D01*
X51608600Y-25960988D01*
X51608600Y-18908600D01*
X54266105Y-18908600D01*
X66883123Y-32896601D01*
X66883123Y-32896601D01*
G37*
X66883123Y-32896601D02*
X66893785Y-32904548D01*
X66901638Y-32915274D01*
X66937051Y-32936797D01*
X66970280Y-32961565D01*
X66983169Y-32964826D01*
X66994531Y-32971732D01*
X67035485Y-32978065D01*
X67075662Y-32988231D01*
X67088820Y-32986312D01*
X67101958Y-32988343D01*
X67142217Y-32978522D01*
X67183228Y-32972539D01*
X67194648Y-32965731D01*
X67207565Y-32962580D01*
X67241001Y-32938099D01*
X67276601Y-32916877D01*
X67284548Y-32906215D01*
X67295274Y-32898362D01*
X68790533Y-31268853D01*
X72680136Y-31268853D01*
X72699226Y-31359384D01*
X72752033Y-31435354D01*
X72944853Y-31619930D01*
X72933151Y-31632154D01*
X72886086Y-31704373D01*
X72868452Y-31795197D01*
X72887542Y-31885727D01*
X72940349Y-31961698D01*
X73518253Y-32514895D01*
X73590472Y-32561960D01*
X73648440Y-32573215D01*
X73591271Y-32720236D01*
X73596345Y-32952590D01*
X73689952Y-33165315D01*
X73726183Y-33199997D01*
X73932680Y-33195486D01*
X74907932Y-32176677D01*
X74850141Y-32121357D01*
X74937172Y-32030439D01*
X75269408Y-32030439D01*
X75643710Y-32388737D01*
X75850206Y-32384227D01*
X76341131Y-31871376D01*
X76390723Y-31819569D01*
X80315510Y-31819569D01*
X80726286Y-32212310D01*
X81119027Y-31801534D01*
X81106613Y-31626298D01*
X80786075Y-31540332D01*
X80457038Y-31583574D01*
X80320049Y-31643953D01*
X80315510Y-31819569D01*
X76390723Y-31819569D01*
X76501841Y-31703489D01*
X76586069Y-31486880D01*
X76580995Y-31254526D01*
X76487388Y-31041801D01*
X76451157Y-31007119D01*
X76244660Y-31011630D01*
X75269408Y-32030439D01*
X74937172Y-32030439D01*
X75096038Y-31864479D01*
X75153828Y-31919799D01*
X76129079Y-30900990D01*
X76124569Y-30694494D01*
X76088338Y-30659812D01*
X75871729Y-30575583D01*
X75639374Y-30580659D01*
X75494740Y-30644304D01*
X75483848Y-30592649D01*
X75431041Y-30516678D01*
X74853137Y-29963481D01*
X74847042Y-29959509D01*
X74879983Y-29880177D01*
X74880150Y-29689778D01*
X74807441Y-29513809D01*
X74672926Y-29379060D01*
X74497084Y-29306044D01*
X74306685Y-29305877D01*
X74130716Y-29378586D01*
X73995967Y-29513101D01*
X73922951Y-29688943D01*
X73922788Y-29875248D01*
X72744835Y-31105810D01*
X72697770Y-31178029D01*
X72680136Y-31268853D01*
X68790533Y-31268853D01*
X72043082Y-27724279D01*
X76782190Y-27724279D01*
X76782190Y-28666633D01*
X76871129Y-28881351D01*
X77035467Y-29045690D01*
X77250185Y-29134629D01*
X77300340Y-29134629D01*
X77446390Y-28988579D01*
X77446390Y-27578229D01*
X76928240Y-27578229D01*
X76782190Y-27724279D01*
X72043082Y-27724279D01*
X73502137Y-26134225D01*
X76782190Y-26134225D01*
X76782190Y-27076579D01*
X76928240Y-27222629D01*
X77446390Y-27222629D01*
X77446390Y-25812279D01*
X77606390Y-25812279D01*
X77606390Y-27222629D01*
X77686390Y-27222629D01*
X77686390Y-27578229D01*
X77606390Y-27578229D01*
X77606390Y-28988579D01*
X77752440Y-29134629D01*
X77802595Y-29134629D01*
X78017313Y-29045690D01*
X78181651Y-28881351D01*
X78242122Y-28735361D01*
X78285710Y-28765144D01*
X78376390Y-28783507D01*
X79176390Y-28783507D01*
X79183628Y-28782145D01*
X79220416Y-28871180D01*
X79354931Y-29005929D01*
X79530773Y-29078945D01*
X79721172Y-29079112D01*
X79897141Y-29006403D01*
X80031890Y-28871888D01*
X80104906Y-28696046D01*
X80105073Y-28505647D01*
X80032364Y-28329678D01*
X79909468Y-28206568D01*
X79909468Y-26500429D01*
X79893528Y-26415715D01*
X79843462Y-26337911D01*
X79767070Y-26285714D01*
X79676390Y-26267351D01*
X79409468Y-26267351D01*
X79409468Y-26250429D01*
X79393528Y-26165715D01*
X79343462Y-26087911D01*
X79267070Y-26035714D01*
X79176390Y-26017351D01*
X78376390Y-26017351D01*
X78291676Y-26033291D01*
X78242018Y-26065246D01*
X78181651Y-25919507D01*
X78017313Y-25755168D01*
X77802595Y-25666229D01*
X77752440Y-25666229D01*
X77606390Y-25812279D01*
X77446390Y-25812279D01*
X77300340Y-25666229D01*
X77250185Y-25666229D01*
X77035467Y-25755168D01*
X76871129Y-25919507D01*
X76782190Y-26134225D01*
X73502137Y-26134225D01*
X80132471Y-18908600D01*
X82701400Y-18908600D01*
X82701400Y-45150000D01*
X82722607Y-45256616D01*
X82783000Y-45347000D01*
X82873384Y-45407393D01*
X82980000Y-45428600D01*
X87401400Y-45428600D01*
X87401400Y-45466867D01*
X87363190Y-45459129D01*
X83363190Y-45459129D01*
X83278476Y-45475069D01*
X83200672Y-45525135D01*
X83148475Y-45601527D01*
X83130112Y-45692207D01*
X83130112Y-46692207D01*
X83146052Y-46776921D01*
X83196118Y-46854725D01*
X83272510Y-46906922D01*
X83363190Y-46925285D01*
X87363190Y-46925285D01*
X87401400Y-46918095D01*
X87401400Y-47108007D01*
X85687040Y-47108007D01*
X85540990Y-47254057D01*
X85540990Y-48014407D01*
X85560990Y-48014407D01*
X85560990Y-48370007D01*
X85540990Y-48370007D01*
X85540990Y-49130357D01*
X85687040Y-49276407D01*
X87401400Y-49276407D01*
X87401400Y-49466867D01*
X87363190Y-49459129D01*
X83363190Y-49459129D01*
X83278476Y-49475069D01*
X83200672Y-49525135D01*
X83148475Y-49601527D01*
X83130112Y-49692207D01*
X83130112Y-50692207D01*
X83146052Y-50776921D01*
X83196118Y-50854725D01*
X83220522Y-50871400D01*
X82980000Y-50871400D01*
X82929726Y-50881400D01*
X74778600Y-50881400D01*
X74778600Y-46778074D01*
X76782190Y-46778074D01*
X76782190Y-47720428D01*
X76871129Y-47935146D01*
X77035467Y-48099485D01*
X77250185Y-48188424D01*
X77300340Y-48188424D01*
X77446390Y-48042374D01*
X77446390Y-46632024D01*
X76928240Y-46632024D01*
X76782190Y-46778074D01*
X74778600Y-46778074D01*
X74778600Y-45188020D01*
X76782190Y-45188020D01*
X76782190Y-46130374D01*
X76928240Y-46276424D01*
X77446390Y-46276424D01*
X77446390Y-44866074D01*
X77606390Y-44866074D01*
X77606390Y-46276424D01*
X77686390Y-46276424D01*
X77686390Y-46632024D01*
X77606390Y-46632024D01*
X77606390Y-48042374D01*
X77752440Y-48188424D01*
X77802595Y-48188424D01*
X78017313Y-48099485D01*
X78181651Y-47935146D01*
X78242122Y-47789156D01*
X78285710Y-47818939D01*
X78376390Y-47837302D01*
X79176390Y-47837302D01*
X79183628Y-47835940D01*
X79220416Y-47924975D01*
X79354931Y-48059724D01*
X79530773Y-48132740D01*
X79721172Y-48132907D01*
X79897141Y-48060198D01*
X80031890Y-47925683D01*
X80104906Y-47749841D01*
X80105058Y-47576002D01*
X82778990Y-47576002D01*
X82778990Y-47868357D01*
X82925040Y-48014407D01*
X83495270Y-48014407D01*
X83463778Y-48130540D01*
X83494572Y-48370007D01*
X82925040Y-48370007D01*
X82778990Y-48516057D01*
X82778990Y-48808412D01*
X82867929Y-49023130D01*
X83032268Y-49187468D01*
X83246986Y-49276407D01*
X85039340Y-49276407D01*
X85185390Y-49130357D01*
X85185390Y-48538605D01*
X85262602Y-48253874D01*
X85217737Y-47904990D01*
X85185390Y-47826897D01*
X85185390Y-47254057D01*
X85039340Y-47108007D01*
X83246986Y-47108007D01*
X83032268Y-47196946D01*
X82867929Y-47361284D01*
X82778990Y-47576002D01*
X80105058Y-47576002D01*
X80105073Y-47559442D01*
X80032364Y-47383473D01*
X79909468Y-47260363D01*
X79909468Y-45554224D01*
X79893528Y-45469510D01*
X79843462Y-45391706D01*
X79767070Y-45339509D01*
X79676390Y-45321146D01*
X79409468Y-45321146D01*
X79409468Y-45304224D01*
X79393528Y-45219510D01*
X79343462Y-45141706D01*
X79267070Y-45089509D01*
X79176390Y-45071146D01*
X78376390Y-45071146D01*
X78291676Y-45087086D01*
X78242018Y-45119041D01*
X78181651Y-44973302D01*
X78017313Y-44808963D01*
X77802595Y-44720024D01*
X77752440Y-44720024D01*
X77606390Y-44866074D01*
X77446390Y-44866074D01*
X77300340Y-44720024D01*
X77250185Y-44720024D01*
X77035467Y-44808963D01*
X76871129Y-44973302D01*
X76782190Y-45188020D01*
X74778600Y-45188020D01*
X74778600Y-40426812D01*
X76782190Y-40426812D01*
X76782190Y-41369166D01*
X76871129Y-41583884D01*
X77035467Y-41748223D01*
X77250185Y-41837162D01*
X77300340Y-41837162D01*
X77446390Y-41691112D01*
X77446390Y-40280762D01*
X76928240Y-40280762D01*
X76782190Y-40426812D01*
X74778600Y-40426812D01*
X74778600Y-38836758D01*
X76782190Y-38836758D01*
X76782190Y-39779112D01*
X76928240Y-39925162D01*
X77446390Y-39925162D01*
X77446390Y-38514812D01*
X77606390Y-38514812D01*
X77606390Y-39925162D01*
X77686390Y-39925162D01*
X77686390Y-40280762D01*
X77606390Y-40280762D01*
X77606390Y-41691112D01*
X77752440Y-41837162D01*
X77802595Y-41837162D01*
X78017313Y-41748223D01*
X78181651Y-41583884D01*
X78242122Y-41437894D01*
X78285710Y-41467677D01*
X78376390Y-41486040D01*
X79176390Y-41486040D01*
X79183628Y-41484678D01*
X79220416Y-41573713D01*
X79354931Y-41708462D01*
X79530773Y-41781478D01*
X79721172Y-41781645D01*
X79897141Y-41708936D01*
X80031890Y-41574421D01*
X80104906Y-41398579D01*
X80105073Y-41208180D01*
X80032364Y-41032211D01*
X79909468Y-40909101D01*
X79909468Y-39202962D01*
X79893528Y-39118248D01*
X79843462Y-39040444D01*
X79767070Y-38988247D01*
X79676390Y-38969884D01*
X79409468Y-38969884D01*
X79409468Y-38952962D01*
X79393528Y-38868248D01*
X79343462Y-38790444D01*
X79267070Y-38738247D01*
X79176390Y-38719884D01*
X78376390Y-38719884D01*
X78291676Y-38735824D01*
X78242018Y-38767779D01*
X78181651Y-38622040D01*
X78017313Y-38457701D01*
X77802595Y-38368762D01*
X77752440Y-38368762D01*
X77606390Y-38514812D01*
X77446390Y-38514812D01*
X77300340Y-38368762D01*
X77250185Y-38368762D01*
X77035467Y-38457701D01*
X76871129Y-38622040D01*
X76782190Y-38836758D01*
X74778600Y-38836758D01*
X74778600Y-36700000D01*
X74777975Y-36696856D01*
X74778529Y-36693697D01*
X74767392Y-36643655D01*
X74757393Y-36593384D01*
X74755612Y-36590718D01*
X74754915Y-36587588D01*
X74725482Y-36545626D01*
X74697000Y-36503000D01*
X74694333Y-36501218D01*
X74692492Y-36498593D01*
X74649229Y-36471080D01*
X74606616Y-36442607D01*
X74603472Y-36441982D01*
X74600765Y-36440260D01*
X74550253Y-36431396D01*
X74500000Y-36421400D01*
X74496856Y-36422025D01*
X74493697Y-36421471D01*
X74443655Y-36432608D01*
X74393384Y-36442607D01*
X74390718Y-36444388D01*
X74387588Y-36445085D01*
X74345626Y-36474518D01*
X74303000Y-36503000D01*
X74301218Y-36505667D01*
X74298593Y-36507508D01*
X67470890Y-43651400D01*
X66789708Y-43651400D01*
X61205610Y-37766118D01*
X63509801Y-37766118D01*
X63996567Y-38282917D01*
X64155915Y-38452098D01*
X64367877Y-38547420D01*
X64600182Y-38554373D01*
X64817465Y-38471896D01*
X64853975Y-38437508D01*
X64860153Y-38231055D01*
X63893163Y-37204401D01*
X63515980Y-37559665D01*
X63509801Y-37766118D01*
X61205610Y-37766118D01*
X60012103Y-36508239D01*
X60009066Y-36506093D01*
X60007000Y-36503000D01*
X59964786Y-36474794D01*
X59923335Y-36445494D01*
X59919708Y-36444673D01*
X59916616Y-36442607D01*
X59866827Y-36432704D01*
X59817313Y-36421496D01*
X59813648Y-36422126D01*
X59810000Y-36421400D01*
X59760210Y-36431304D01*
X59710178Y-36439897D01*
X59707033Y-36441881D01*
X59703384Y-36442607D01*
X59661165Y-36470817D01*
X59618239Y-36497897D01*
X59616093Y-36500934D01*
X59613000Y-36503000D01*
X59584794Y-36545214D01*
X59555494Y-36586665D01*
X59554673Y-36590292D01*
X59552607Y-36593384D01*
X59542704Y-36643173D01*
X59531496Y-36692687D01*
X59532126Y-36696352D01*
X59531400Y-36700000D01*
X59531400Y-50881400D01*
X51380274Y-50881400D01*
X51330000Y-50871400D01*
X51164526Y-50871400D01*
X51183362Y-50859279D01*
X51235559Y-50782887D01*
X51253922Y-50692207D01*
X51253922Y-49692207D01*
X51237982Y-49607493D01*
X51187916Y-49529689D01*
X51111524Y-49477492D01*
X51020844Y-49459129D01*
X47020844Y-49459129D01*
X46936130Y-49475069D01*
X46908600Y-49492784D01*
X46908600Y-49276407D01*
X48696994Y-49276407D01*
X48843044Y-49130357D01*
X48843044Y-48370007D01*
X48823044Y-48370007D01*
X48823044Y-48130540D01*
X49121432Y-48130540D01*
X49166297Y-48479424D01*
X49198644Y-48557517D01*
X49198644Y-49130357D01*
X49344694Y-49276407D01*
X51137048Y-49276407D01*
X51351766Y-49187468D01*
X51516105Y-49023130D01*
X51605044Y-48808412D01*
X51605044Y-48516057D01*
X51458994Y-48370007D01*
X50888764Y-48370007D01*
X50920256Y-48253874D01*
X50889462Y-48014407D01*
X51458994Y-48014407D01*
X51605044Y-47868357D01*
X51605044Y-47576002D01*
X51516105Y-47361284D01*
X51351766Y-47196946D01*
X51137048Y-47108007D01*
X49344694Y-47108007D01*
X49198644Y-47254057D01*
X49198644Y-47845809D01*
X49121432Y-48130540D01*
X48823044Y-48130540D01*
X48823044Y-48014407D01*
X48843044Y-48014407D01*
X48843044Y-47254057D01*
X48696994Y-47108007D01*
X46908600Y-47108007D01*
X46908600Y-46892188D01*
X46930164Y-46906922D01*
X47020844Y-46925285D01*
X51020844Y-46925285D01*
X51105558Y-46909345D01*
X51183362Y-46859279D01*
X51235559Y-46782887D01*
X51253922Y-46692207D01*
X51253922Y-45692207D01*
X51237982Y-45607493D01*
X51187916Y-45529689D01*
X51111524Y-45477492D01*
X51020844Y-45459129D01*
X47020844Y-45459129D01*
X46936130Y-45475069D01*
X46908600Y-45492784D01*
X46908600Y-45428600D01*
X51330000Y-45428600D01*
X51436616Y-45407393D01*
X51527000Y-45347000D01*
X51587393Y-45256616D01*
X51608600Y-45150000D01*
X51608600Y-45014739D01*
X54249102Y-45014739D01*
X54321811Y-45190708D01*
X54444707Y-45313818D01*
X54444707Y-47019957D01*
X54460647Y-47104671D01*
X54510713Y-47182475D01*
X54587105Y-47234672D01*
X54677785Y-47253035D01*
X54944707Y-47253035D01*
X54944707Y-47269957D01*
X54960647Y-47354671D01*
X55010713Y-47432475D01*
X55087105Y-47484672D01*
X55177785Y-47503035D01*
X55977785Y-47503035D01*
X56062499Y-47487095D01*
X56112157Y-47455140D01*
X56172524Y-47600879D01*
X56336862Y-47765218D01*
X56551580Y-47854157D01*
X56601735Y-47854157D01*
X56747785Y-47708107D01*
X56747785Y-46297757D01*
X56907785Y-46297757D01*
X56907785Y-47708107D01*
X57053835Y-47854157D01*
X57103990Y-47854157D01*
X57318708Y-47765218D01*
X57483046Y-47600879D01*
X57571985Y-47386161D01*
X57571985Y-46443807D01*
X57425935Y-46297757D01*
X56907785Y-46297757D01*
X56747785Y-46297757D01*
X56667785Y-46297757D01*
X56667785Y-45942157D01*
X56747785Y-45942157D01*
X56747785Y-44531807D01*
X56907785Y-44531807D01*
X56907785Y-45942157D01*
X57425935Y-45942157D01*
X57571985Y-45796107D01*
X57571985Y-44853753D01*
X57483046Y-44639035D01*
X57318708Y-44474696D01*
X57103990Y-44385757D01*
X57053835Y-44385757D01*
X56907785Y-44531807D01*
X56747785Y-44531807D01*
X56601735Y-44385757D01*
X56551580Y-44385757D01*
X56336862Y-44474696D01*
X56172524Y-44639035D01*
X56112053Y-44785025D01*
X56068465Y-44755242D01*
X55977785Y-44736879D01*
X55177785Y-44736879D01*
X55170547Y-44738241D01*
X55133759Y-44649206D01*
X54999244Y-44514457D01*
X54823402Y-44441441D01*
X54633003Y-44441274D01*
X54457034Y-44513983D01*
X54322285Y-44648498D01*
X54249269Y-44824340D01*
X54249102Y-45014739D01*
X51608600Y-45014739D01*
X51608600Y-38663485D01*
X54249102Y-38663485D01*
X54321811Y-38839454D01*
X54444707Y-38962564D01*
X54444707Y-40668703D01*
X54460647Y-40753417D01*
X54510713Y-40831221D01*
X54587105Y-40883418D01*
X54677785Y-40901781D01*
X54944707Y-40901781D01*
X54944707Y-40918703D01*
X54960647Y-41003417D01*
X55010713Y-41081221D01*
X55087105Y-41133418D01*
X55177785Y-41151781D01*
X55977785Y-41151781D01*
X56062499Y-41135841D01*
X56112157Y-41103886D01*
X56172524Y-41249625D01*
X56336862Y-41413964D01*
X56551580Y-41502903D01*
X56601735Y-41502903D01*
X56747785Y-41356853D01*
X56747785Y-39946503D01*
X56907785Y-39946503D01*
X56907785Y-41356853D01*
X57053835Y-41502903D01*
X57103990Y-41502903D01*
X57318708Y-41413964D01*
X57483046Y-41249625D01*
X57571985Y-41034907D01*
X57571985Y-40092553D01*
X57425935Y-39946503D01*
X56907785Y-39946503D01*
X56747785Y-39946503D01*
X56667785Y-39946503D01*
X56667785Y-39590903D01*
X56747785Y-39590903D01*
X56747785Y-38180553D01*
X56907785Y-38180553D01*
X56907785Y-39590903D01*
X57425935Y-39590903D01*
X57571985Y-39444853D01*
X57571985Y-38502499D01*
X57483046Y-38287781D01*
X57318708Y-38123442D01*
X57103990Y-38034503D01*
X57053835Y-38034503D01*
X56907785Y-38180553D01*
X56747785Y-38180553D01*
X56601735Y-38034503D01*
X56551580Y-38034503D01*
X56336862Y-38123442D01*
X56172524Y-38287781D01*
X56112053Y-38433771D01*
X56068465Y-38403988D01*
X55977785Y-38385625D01*
X55177785Y-38385625D01*
X55170547Y-38386987D01*
X55133759Y-38297952D01*
X54999244Y-38163203D01*
X54823402Y-38090187D01*
X54633003Y-38090020D01*
X54457034Y-38162729D01*
X54322285Y-38297244D01*
X54249269Y-38473086D01*
X54249102Y-38663485D01*
X51608600Y-38663485D01*
X51608600Y-36391368D01*
X62337123Y-36391368D01*
X62419599Y-36608651D01*
X62578948Y-36777831D01*
X63065713Y-37294630D01*
X63272167Y-37300808D01*
X63649350Y-36945545D01*
X62682360Y-35918891D01*
X62475907Y-35912713D01*
X62439397Y-35947101D01*
X62344074Y-36159062D01*
X62337123Y-36391368D01*
X51608600Y-36391368D01*
X51608600Y-35809189D01*
X62798831Y-35809189D01*
X63765821Y-36835843D01*
X63824057Y-36780992D01*
X64067870Y-37039848D01*
X64009634Y-37094699D01*
X64976624Y-38121353D01*
X65183077Y-38127531D01*
X65219587Y-38093143D01*
X65309380Y-37893477D01*
X69657021Y-37893477D01*
X69661531Y-38099973D01*
X69697762Y-38134655D01*
X69914371Y-38218884D01*
X70146726Y-38213808D01*
X70359450Y-38120201D01*
X70520160Y-37952313D01*
X71011084Y-37439463D01*
X71006574Y-37232967D01*
X70632272Y-36874668D01*
X69657021Y-37893477D01*
X65309380Y-37893477D01*
X65314910Y-37881182D01*
X65321861Y-37648876D01*
X65265785Y-37501143D01*
X65317934Y-37492937D01*
X65396534Y-37444130D01*
X65978888Y-36895619D01*
X65983072Y-36889872D01*
X66085320Y-36932329D01*
X66275719Y-36932496D01*
X66451688Y-36859787D01*
X66586437Y-36725272D01*
X66659453Y-36549430D01*
X66659620Y-36359031D01*
X66586911Y-36183062D01*
X66452396Y-36048313D01*
X66276554Y-35975297D01*
X66118973Y-35975159D01*
X66006932Y-35856204D01*
X68288896Y-35856204D01*
X68307986Y-35946735D01*
X68360793Y-36022705D01*
X68553613Y-36207281D01*
X68541911Y-36219505D01*
X68494846Y-36291724D01*
X68477212Y-36382548D01*
X68496302Y-36473078D01*
X68549109Y-36549049D01*
X69127013Y-37102246D01*
X69199232Y-37149311D01*
X69257200Y-37160566D01*
X69200031Y-37307587D01*
X69205105Y-37539941D01*
X69298712Y-37752666D01*
X69334943Y-37787348D01*
X69541440Y-37782837D01*
X70516692Y-36764028D01*
X70458901Y-36708708D01*
X70545932Y-36617790D01*
X70878168Y-36617790D01*
X71252470Y-36976088D01*
X71458966Y-36971578D01*
X71949891Y-36458727D01*
X72110601Y-36290840D01*
X72194829Y-36074231D01*
X72189755Y-35841877D01*
X72096148Y-35629152D01*
X72059917Y-35594470D01*
X71853420Y-35598981D01*
X70878168Y-36617790D01*
X70545932Y-36617790D01*
X70704798Y-36451830D01*
X70762588Y-36507150D01*
X71737839Y-35488341D01*
X71733329Y-35281845D01*
X71697098Y-35247163D01*
X71480489Y-35162934D01*
X71248134Y-35168010D01*
X71103500Y-35231655D01*
X71092608Y-35180000D01*
X71039801Y-35104029D01*
X70461897Y-34550832D01*
X70455802Y-34546860D01*
X70488743Y-34467528D01*
X70488910Y-34277129D01*
X70416201Y-34101160D01*
X70390630Y-34075544D01*
X76782190Y-34075544D01*
X76782190Y-35017898D01*
X76871129Y-35232616D01*
X77035467Y-35396955D01*
X77250185Y-35485894D01*
X77300340Y-35485894D01*
X77446390Y-35339844D01*
X77446390Y-33929494D01*
X76928240Y-33929494D01*
X76782190Y-34075544D01*
X70390630Y-34075544D01*
X70281686Y-33966411D01*
X70105844Y-33893395D01*
X69915445Y-33893228D01*
X69739476Y-33965937D01*
X69604727Y-34100452D01*
X69531711Y-34276294D01*
X69531548Y-34462599D01*
X68353595Y-35693161D01*
X68306530Y-35765380D01*
X68288896Y-35856204D01*
X66006932Y-35856204D01*
X64947160Y-34731044D01*
X64877474Y-34680306D01*
X64787683Y-34657996D01*
X64696286Y-34672377D01*
X64617686Y-34721184D01*
X64423382Y-34904196D01*
X64411780Y-34891878D01*
X64342094Y-34841140D01*
X64252303Y-34818830D01*
X64160906Y-34833211D01*
X64082306Y-34882018D01*
X63499952Y-35430529D01*
X63449214Y-35500215D01*
X63434975Y-35557523D01*
X63291107Y-35492824D01*
X63058802Y-35485871D01*
X62841519Y-35568348D01*
X62805009Y-35602736D01*
X62798831Y-35809189D01*
X51608600Y-35809189D01*
X51608600Y-32312240D01*
X54249102Y-32312240D01*
X54321811Y-32488209D01*
X54444707Y-32611319D01*
X54444707Y-34317458D01*
X54460647Y-34402172D01*
X54510713Y-34479976D01*
X54587105Y-34532173D01*
X54677785Y-34550536D01*
X54944707Y-34550536D01*
X54944707Y-34567458D01*
X54960647Y-34652172D01*
X55010713Y-34729976D01*
X55087105Y-34782173D01*
X55177785Y-34800536D01*
X55977785Y-34800536D01*
X56062499Y-34784596D01*
X56112157Y-34752641D01*
X56172524Y-34898380D01*
X56336862Y-35062719D01*
X56551580Y-35151658D01*
X56601735Y-35151658D01*
X56747785Y-35005608D01*
X56747785Y-33595258D01*
X56907785Y-33595258D01*
X56907785Y-35005608D01*
X57053835Y-35151658D01*
X57103990Y-35151658D01*
X57318708Y-35062719D01*
X57483046Y-34898380D01*
X57571985Y-34683662D01*
X57571985Y-33741308D01*
X57425935Y-33595258D01*
X56907785Y-33595258D01*
X56747785Y-33595258D01*
X56667785Y-33595258D01*
X56667785Y-33239658D01*
X56747785Y-33239658D01*
X56747785Y-31829308D01*
X56907785Y-31829308D01*
X56907785Y-33239658D01*
X57425935Y-33239658D01*
X57533615Y-33131978D01*
X59144975Y-33131978D01*
X59631741Y-33648777D01*
X59791089Y-33817958D01*
X60003051Y-33913280D01*
X60235356Y-33920233D01*
X60452639Y-33837756D01*
X60489149Y-33803368D01*
X60495327Y-33596915D01*
X59528337Y-32570261D01*
X59151154Y-32925525D01*
X59144975Y-33131978D01*
X57533615Y-33131978D01*
X57571985Y-33093608D01*
X57571985Y-32151254D01*
X57483046Y-31936536D01*
X57318708Y-31772197D01*
X57282570Y-31757228D01*
X57972297Y-31757228D01*
X58054773Y-31974511D01*
X58214122Y-32143691D01*
X58700887Y-32660490D01*
X58907341Y-32666668D01*
X59284524Y-32311405D01*
X58317534Y-31284751D01*
X58111081Y-31278573D01*
X58074571Y-31312961D01*
X57979248Y-31524922D01*
X57972297Y-31757228D01*
X57282570Y-31757228D01*
X57103990Y-31683258D01*
X57053835Y-31683258D01*
X56907785Y-31829308D01*
X56747785Y-31829308D01*
X56601735Y-31683258D01*
X56551580Y-31683258D01*
X56336862Y-31772197D01*
X56172524Y-31936536D01*
X56112053Y-32082526D01*
X56068465Y-32052743D01*
X55977785Y-32034380D01*
X55177785Y-32034380D01*
X55170547Y-32035742D01*
X55133759Y-31946707D01*
X54999244Y-31811958D01*
X54823402Y-31738942D01*
X54633003Y-31738775D01*
X54457034Y-31811484D01*
X54322285Y-31945999D01*
X54249269Y-32121841D01*
X54249102Y-32312240D01*
X51608600Y-32312240D01*
X51608600Y-31175049D01*
X58434005Y-31175049D01*
X59400995Y-32201703D01*
X59459231Y-32146852D01*
X59703044Y-32405708D01*
X59644808Y-32460559D01*
X60611798Y-33487213D01*
X60818251Y-33493391D01*
X60854761Y-33459003D01*
X60923512Y-33306126D01*
X74048261Y-33306126D01*
X74052771Y-33512622D01*
X74089002Y-33547304D01*
X74305611Y-33631533D01*
X74537966Y-33626457D01*
X74750690Y-33532850D01*
X74911400Y-33364962D01*
X75402324Y-32852112D01*
X75397814Y-32645616D01*
X75230537Y-32485490D01*
X76782190Y-32485490D01*
X76782190Y-33427844D01*
X76928240Y-33573894D01*
X77446390Y-33573894D01*
X77446390Y-32163544D01*
X77606390Y-32163544D01*
X77606390Y-33573894D01*
X77686390Y-33573894D01*
X77686390Y-33929494D01*
X77606390Y-33929494D01*
X77606390Y-35339844D01*
X77752440Y-35485894D01*
X77802595Y-35485894D01*
X78017313Y-35396955D01*
X78181651Y-35232616D01*
X78242122Y-35086626D01*
X78285710Y-35116409D01*
X78376390Y-35134772D01*
X79176390Y-35134772D01*
X79183628Y-35133410D01*
X79220416Y-35222445D01*
X79354931Y-35357194D01*
X79530773Y-35430210D01*
X79721172Y-35430377D01*
X79897141Y-35357668D01*
X80031890Y-35223153D01*
X80104906Y-35047311D01*
X80105073Y-34856912D01*
X80032364Y-34680943D01*
X79909468Y-34557833D01*
X79909468Y-32976550D01*
X80341479Y-32976550D01*
X80353893Y-33151786D01*
X80674431Y-33237752D01*
X81003468Y-33194510D01*
X81140457Y-33134131D01*
X81144996Y-32958515D01*
X80734220Y-32565774D01*
X80341479Y-32976550D01*
X79909468Y-32976550D01*
X79909468Y-32851694D01*
X79893528Y-32766980D01*
X79843462Y-32689176D01*
X79767070Y-32636979D01*
X79676390Y-32618616D01*
X79409468Y-32618616D01*
X79409468Y-32601694D01*
X79393528Y-32516980D01*
X79343462Y-32439176D01*
X79267070Y-32386979D01*
X79176390Y-32368616D01*
X78376390Y-32368616D01*
X78291676Y-32384556D01*
X78242018Y-32416511D01*
X78207518Y-32333220D01*
X79881543Y-32333220D01*
X79924785Y-32662257D01*
X79985164Y-32799246D01*
X80160780Y-32803785D01*
X80553521Y-32393009D01*
X80545223Y-32385075D01*
X80906985Y-32385075D01*
X81317761Y-32777816D01*
X81492997Y-32765402D01*
X81578963Y-32444864D01*
X81535721Y-32115827D01*
X81475342Y-31978838D01*
X81299726Y-31974299D01*
X80906985Y-32385075D01*
X80545223Y-32385075D01*
X80142745Y-32000268D01*
X79967509Y-32012682D01*
X79881543Y-32333220D01*
X78207518Y-32333220D01*
X78181651Y-32270772D01*
X78017313Y-32106433D01*
X77802595Y-32017494D01*
X77752440Y-32017494D01*
X77606390Y-32163544D01*
X77446390Y-32163544D01*
X77300340Y-32017494D01*
X77250185Y-32017494D01*
X77035467Y-32106433D01*
X76871129Y-32270772D01*
X76782190Y-32485490D01*
X75230537Y-32485490D01*
X75023512Y-32287317D01*
X74048261Y-33306126D01*
X60923512Y-33306126D01*
X60950084Y-33247042D01*
X60957035Y-33014736D01*
X60900959Y-32867003D01*
X60953108Y-32858797D01*
X61031708Y-32809990D01*
X61614062Y-32261479D01*
X61618246Y-32255732D01*
X61720494Y-32298189D01*
X61910893Y-32298356D01*
X62086862Y-32225647D01*
X62221611Y-32091132D01*
X62294627Y-31915290D01*
X62294794Y-31724891D01*
X62222085Y-31548922D01*
X62087570Y-31414173D01*
X61911728Y-31341157D01*
X61754147Y-31341019D01*
X60582334Y-30096904D01*
X60512648Y-30046166D01*
X60422857Y-30023856D01*
X60331460Y-30038237D01*
X60252860Y-30087044D01*
X60058556Y-30270056D01*
X60046954Y-30257738D01*
X59977268Y-30207000D01*
X59887477Y-30184690D01*
X59796080Y-30199071D01*
X59717480Y-30247878D01*
X59135126Y-30796389D01*
X59084388Y-30866075D01*
X59070149Y-30923383D01*
X58926281Y-30858684D01*
X58693976Y-30851731D01*
X58476693Y-30934208D01*
X58440183Y-30968596D01*
X58434005Y-31175049D01*
X51608600Y-31175049D01*
X51608600Y-25960988D01*
X54249102Y-25960988D01*
X54321811Y-26136957D01*
X54444707Y-26260067D01*
X54444707Y-27966206D01*
X54460647Y-28050920D01*
X54510713Y-28128724D01*
X54587105Y-28180921D01*
X54677785Y-28199284D01*
X54944707Y-28199284D01*
X54944707Y-28216206D01*
X54960647Y-28300920D01*
X55010713Y-28378724D01*
X55087105Y-28430921D01*
X55177785Y-28449284D01*
X55977785Y-28449284D01*
X56062499Y-28433344D01*
X56112157Y-28401389D01*
X56172524Y-28547128D01*
X56336862Y-28711467D01*
X56551580Y-28800406D01*
X56601735Y-28800406D01*
X56747785Y-28654356D01*
X56747785Y-27244006D01*
X56907785Y-27244006D01*
X56907785Y-28654356D01*
X57053835Y-28800406D01*
X57103990Y-28800406D01*
X57318708Y-28711467D01*
X57483046Y-28547128D01*
X57571985Y-28332410D01*
X57571985Y-27390056D01*
X57425935Y-27244006D01*
X56907785Y-27244006D01*
X56747785Y-27244006D01*
X56667785Y-27244006D01*
X56667785Y-26888406D01*
X56747785Y-26888406D01*
X56747785Y-25478056D01*
X56907785Y-25478056D01*
X56907785Y-26888406D01*
X57425935Y-26888406D01*
X57571985Y-26742356D01*
X57571985Y-25800002D01*
X57483046Y-25585284D01*
X57318708Y-25420945D01*
X57103990Y-25332006D01*
X57053835Y-25332006D01*
X56907785Y-25478056D01*
X56747785Y-25478056D01*
X56601735Y-25332006D01*
X56551580Y-25332006D01*
X56336862Y-25420945D01*
X56172524Y-25585284D01*
X56112053Y-25731274D01*
X56068465Y-25701491D01*
X55977785Y-25683128D01*
X55177785Y-25683128D01*
X55170547Y-25684490D01*
X55133759Y-25595455D01*
X54999244Y-25460706D01*
X54823402Y-25387690D01*
X54633003Y-25387523D01*
X54457034Y-25460232D01*
X54322285Y-25594747D01*
X54249269Y-25770589D01*
X54249102Y-25960988D01*
X51608600Y-25960988D01*
X51608600Y-18908600D01*
X54266105Y-18908600D01*
X66883123Y-32896601D01*
G36*
X84609122Y-48158407D02*
X84575322Y-48192207D01*
X84609122Y-48226007D01*
X84465122Y-48370007D01*
X84261258Y-48370007D01*
X84117258Y-48226007D01*
X84151058Y-48192207D01*
X84117258Y-48158407D01*
X84261258Y-48014407D01*
X84465122Y-48014407D01*
X84609122Y-48158407D01*
X84609122Y-48158407D01*
G37*
X84609122Y-48158407D02*
X84575322Y-48192207D01*
X84609122Y-48226007D01*
X84465122Y-48370007D01*
X84261258Y-48370007D01*
X84117258Y-48226007D01*
X84151058Y-48192207D01*
X84117258Y-48158407D01*
X84261258Y-48014407D01*
X84465122Y-48014407D01*
X84609122Y-48158407D01*
G36*
X50266776Y-48158407D02*
X50232976Y-48192207D01*
X50266776Y-48226007D01*
X50122776Y-48370007D01*
X49918912Y-48370007D01*
X49774912Y-48226007D01*
X49808712Y-48192207D01*
X49774912Y-48158407D01*
X49918912Y-48014407D01*
X50122776Y-48014407D01*
X50266776Y-48158407D01*
X50266776Y-48158407D01*
G37*
X50266776Y-48158407D02*
X50232976Y-48192207D01*
X50266776Y-48226007D01*
X50122776Y-48370007D01*
X49918912Y-48370007D01*
X49774912Y-48226007D01*
X49808712Y-48192207D01*
X49774912Y-48158407D01*
X49918912Y-48014407D01*
X50122776Y-48014407D01*
X50266776Y-48158407D01*
M02*
