G04 #@! TF.FileFunction,Soldermask,Top*
%FSLAX46Y46*%
G04 Gerber Fmt 4.6, Leading zero omitted, Abs format (unit mm)*
G04 Created by KiCad (PCBNEW 4.0.0-rc2-stable) date 3/3/2016 3:48:47 PM*
%MOMM*%
G01*
G04 APERTURE LIST*
%ADD10C,0.150000*%
%ADD11R,4.000000X1.000000*%
%ADD12C,0.600000*%
G04 APERTURE END LIST*
D10*
G36*
X66384880Y-47570085D02*
X64698093Y-46941795D01*
X64872618Y-46473243D01*
X66559405Y-47101533D01*
X66384880Y-47570085D01*
X66384880Y-47570085D01*
G37*
G36*
X67313766Y-45792510D02*
X65158426Y-44989695D01*
X65270122Y-44689822D01*
X67425462Y-45492637D01*
X67313766Y-45792510D01*
X67313766Y-45792510D01*
G37*
G36*
X66793681Y-47188795D02*
X64638341Y-46385980D01*
X64917581Y-45636297D01*
X67072921Y-46439112D01*
X66793681Y-47188795D01*
X66793681Y-47188795D01*
G37*
G36*
X68777226Y-41147278D02*
X67090439Y-40518988D01*
X67264964Y-40050436D01*
X68951751Y-40678726D01*
X68777226Y-41147278D01*
X68777226Y-41147278D01*
G37*
G36*
X69706112Y-39369703D02*
X67550772Y-38566888D01*
X67662468Y-38267015D01*
X69817808Y-39069830D01*
X69706112Y-39369703D01*
X69706112Y-39369703D01*
G37*
G36*
X69186027Y-40765988D02*
X67030687Y-39963173D01*
X67309927Y-39213490D01*
X69465267Y-40016305D01*
X69186027Y-40765988D01*
X69186027Y-40765988D01*
G37*
G36*
X71169576Y-34724472D02*
X69482789Y-34096182D01*
X69657314Y-33627630D01*
X71344101Y-34255920D01*
X71169576Y-34724472D01*
X71169576Y-34724472D01*
G37*
G36*
X72098462Y-32946897D02*
X69943122Y-32144082D01*
X70054818Y-31844209D01*
X72210158Y-32647024D01*
X72098462Y-32946897D01*
X72098462Y-32946897D01*
G37*
G36*
X71578377Y-34343182D02*
X69423037Y-33540367D01*
X69702277Y-32790684D01*
X71857617Y-33593499D01*
X71578377Y-34343182D01*
X71578377Y-34343182D01*
G37*
G36*
X71869463Y-26471898D02*
X73549998Y-25827069D01*
X73729117Y-26293884D01*
X72048582Y-26938713D01*
X71869463Y-26471898D01*
X71869463Y-26471898D01*
G37*
G36*
X72348949Y-28419381D02*
X74496299Y-27595433D01*
X74610935Y-27894195D01*
X72463585Y-28718143D01*
X72348949Y-28419381D01*
X72348949Y-28419381D01*
G37*
G36*
X71815174Y-27028272D02*
X73962524Y-26204324D01*
X74249114Y-26951228D01*
X72101764Y-27775176D01*
X71815174Y-27028272D01*
X71815174Y-27028272D01*
G37*
G36*
X74333929Y-32894706D02*
X76014464Y-32249877D01*
X76193583Y-32716692D01*
X74513048Y-33361521D01*
X74333929Y-32894706D01*
X74333929Y-32894706D01*
G37*
G36*
X74813415Y-34842189D02*
X76960765Y-34018241D01*
X77075401Y-34317003D01*
X74928051Y-35140951D01*
X74813415Y-34842189D01*
X74813415Y-34842189D01*
G37*
G36*
X74279640Y-33451080D02*
X76426990Y-32627132D01*
X76713580Y-33374036D01*
X74566230Y-34197984D01*
X74279640Y-33451080D01*
X74279640Y-33451080D01*
G37*
G36*
X76798379Y-39317510D02*
X78478914Y-38672681D01*
X78658033Y-39139496D01*
X76977498Y-39784325D01*
X76798379Y-39317510D01*
X76798379Y-39317510D01*
G37*
G36*
X77277865Y-41264993D02*
X79425215Y-40441045D01*
X79539851Y-40739807D01*
X77392501Y-41563755D01*
X77277865Y-41264993D01*
X77277865Y-41264993D01*
G37*
G36*
X76744090Y-39873884D02*
X78891440Y-39049936D01*
X79178030Y-39796840D01*
X77030680Y-40620788D01*
X76744090Y-39873884D01*
X76744090Y-39873884D01*
G37*
G36*
X79262835Y-45740317D02*
X80943370Y-45095488D01*
X81122489Y-45562303D01*
X79441954Y-46207132D01*
X79262835Y-45740317D01*
X79262835Y-45740317D01*
G37*
G36*
X79742321Y-47687800D02*
X81889671Y-46863852D01*
X82004307Y-47162614D01*
X79856957Y-47986562D01*
X79742321Y-47687800D01*
X79742321Y-47687800D01*
G37*
G36*
X79208546Y-46296691D02*
X81355896Y-45472743D01*
X81642486Y-46219647D01*
X79495136Y-47043595D01*
X79208546Y-46296691D01*
X79208546Y-46296691D01*
G37*
G36*
X55215457Y-22239947D02*
X56911429Y-21636888D01*
X57078945Y-22107991D01*
X55382973Y-22711050D01*
X55215457Y-22239947D01*
X55215457Y-22239947D01*
G37*
G36*
X55646619Y-24198696D02*
X57813694Y-23428122D01*
X57920905Y-23729628D01*
X55753830Y-24500202D01*
X55646619Y-24198696D01*
X55646619Y-24198696D01*
G37*
G36*
X55147421Y-22794808D02*
X57314497Y-22024233D01*
X57582523Y-22777998D01*
X55415447Y-23548573D01*
X55147421Y-22794808D01*
X55147421Y-22794808D01*
G37*
G36*
X57287292Y-28066541D02*
X58983264Y-27463482D01*
X59150780Y-27934585D01*
X57454808Y-28537644D01*
X57287292Y-28066541D01*
X57287292Y-28066541D01*
G37*
G36*
X57718454Y-30025290D02*
X59885529Y-29254716D01*
X59992740Y-29556222D01*
X57825665Y-30326796D01*
X57718454Y-30025290D01*
X57718454Y-30025290D01*
G37*
G36*
X57219256Y-28621402D02*
X59386332Y-27850827D01*
X59654358Y-28604592D01*
X57487282Y-29375167D01*
X57219256Y-28621402D01*
X57219256Y-28621402D01*
G37*
G36*
X59359130Y-33893140D02*
X61055102Y-33290081D01*
X61222618Y-33761184D01*
X59526646Y-34364243D01*
X59359130Y-33893140D01*
X59359130Y-33893140D01*
G37*
G36*
X59790292Y-35851889D02*
X61957367Y-35081315D01*
X62064578Y-35382821D01*
X59897503Y-36153395D01*
X59790292Y-35851889D01*
X59790292Y-35851889D01*
G37*
G36*
X59291094Y-34448001D02*
X61458170Y-33677426D01*
X61726196Y-34431191D01*
X59559120Y-35201766D01*
X59291094Y-34448001D01*
X59291094Y-34448001D01*
G37*
G36*
X61430965Y-39719732D02*
X63126937Y-39116673D01*
X63294453Y-39587776D01*
X61598481Y-40190835D01*
X61430965Y-39719732D01*
X61430965Y-39719732D01*
G37*
G36*
X61862127Y-41678481D02*
X64029202Y-40907907D01*
X64136413Y-41209413D01*
X61969338Y-41979987D01*
X61862127Y-41678481D01*
X61862127Y-41678481D01*
G37*
G36*
X61362929Y-40274593D02*
X63530005Y-39504018D01*
X63798031Y-40257783D01*
X61630955Y-41028358D01*
X61362929Y-40274593D01*
X61362929Y-40274593D01*
G37*
G36*
X88641250Y-21489720D02*
X90348862Y-22058983D01*
X90190734Y-22533320D01*
X88483122Y-21964057D01*
X88641250Y-21489720D01*
X88641250Y-21489720D01*
G37*
G36*
X87774729Y-23298515D02*
X89956678Y-24025907D01*
X89855475Y-24329483D01*
X87673526Y-23602091D01*
X87774729Y-23298515D01*
X87774729Y-23298515D01*
G37*
G36*
X88245953Y-21884993D02*
X90427901Y-22612385D01*
X90174895Y-23371323D01*
X87992947Y-22643931D01*
X88245953Y-21884993D01*
X88245953Y-21884993D01*
G37*
G36*
X86688410Y-27347628D02*
X88396022Y-27916891D01*
X88237894Y-28391228D01*
X86530282Y-27821965D01*
X86688410Y-27347628D01*
X86688410Y-27347628D01*
G37*
G36*
X85821889Y-29156423D02*
X88003838Y-29883815D01*
X87902635Y-30187391D01*
X85720686Y-29459999D01*
X85821889Y-29156423D01*
X85821889Y-29156423D01*
G37*
G36*
X86293113Y-27742901D02*
X88475061Y-28470293D01*
X88222055Y-29229231D01*
X86040107Y-28501839D01*
X86293113Y-27742901D01*
X86293113Y-27742901D01*
G37*
G36*
X84735570Y-33205536D02*
X86443182Y-33774799D01*
X86285054Y-34249136D01*
X84577442Y-33679873D01*
X84735570Y-33205536D01*
X84735570Y-33205536D01*
G37*
G36*
X83869049Y-35014331D02*
X86050998Y-35741723D01*
X85949795Y-36045299D01*
X83767846Y-35317907D01*
X83869049Y-35014331D01*
X83869049Y-35014331D01*
G37*
G36*
X84340273Y-33600809D02*
X86522221Y-34328201D01*
X86269215Y-35087139D01*
X84087267Y-34359747D01*
X84340273Y-33600809D01*
X84340273Y-33600809D01*
G37*
G36*
X82782730Y-39063444D02*
X84490342Y-39632707D01*
X84332214Y-40107044D01*
X82624602Y-39537781D01*
X82782730Y-39063444D01*
X82782730Y-39063444D01*
G37*
G36*
X81916209Y-40872239D02*
X84098158Y-41599631D01*
X83996955Y-41903207D01*
X81815006Y-41175815D01*
X81916209Y-40872239D01*
X81916209Y-40872239D01*
G37*
G36*
X82387433Y-39458717D02*
X84569381Y-40186109D01*
X84316375Y-40945047D01*
X82134427Y-40217655D01*
X82387433Y-39458717D01*
X82387433Y-39458717D01*
G37*
D11*
X49020844Y-46192207D03*
X49020844Y-48192207D03*
X49020844Y-50192207D03*
D12*
X50020844Y-46192207D03*
X50020844Y-48192207D03*
X50020844Y-50192207D03*
D11*
X97224144Y-50192207D03*
X97224144Y-48192207D03*
X97224144Y-46192207D03*
D12*
X96224144Y-50192207D03*
X96224144Y-48192207D03*
X96224144Y-46192207D03*
M02*
