G04 #@! TF.FileFunction,Profile,NP*
%FSLAX46Y46*%
G04 Gerber Fmt 4.6, Leading zero omitted, Abs format (unit mm)*
G04 Created by KiCad (PCBNEW 4.0.0-rc2-stable) date 3/3/2016 4:04:38 PM*
%MOMM*%
G01*
G04 APERTURE LIST*
%ADD10C,0.150000*%
%ADD11C,0.100000*%
G04 APERTURE END LIST*
D10*
D11*
X78300000Y-51160000D02*
X69820000Y-51160000D01*
X69820000Y-51160000D02*
X69820000Y-51150000D01*
X69820000Y-51150000D02*
X69820000Y-38140000D01*
X69820000Y-38140000D02*
X59810000Y-38140000D01*
X59810000Y-38140000D02*
X59810000Y-51150000D01*
X59810000Y-51150000D02*
X59810000Y-51160000D01*
X59810000Y-51160000D02*
X51330000Y-51160000D01*
X51330000Y-51160000D02*
X51330000Y-51150000D01*
X51330000Y-51150000D02*
X46630000Y-51150000D01*
X46630000Y-51150000D02*
X46630000Y-45150000D01*
X46630000Y-45150000D02*
X51330000Y-45150000D01*
X51330000Y-45150000D02*
X51330000Y-18720000D01*
X51330000Y-18720000D02*
X51330000Y-18720000D01*
X51330000Y-18720000D02*
X59810000Y-18720000D01*
X59810000Y-18720000D02*
X59810000Y-18720000D01*
X59810000Y-18720000D02*
X59810000Y-30490000D01*
X59810000Y-30490000D02*
X69820000Y-30490000D01*
X69820000Y-30490000D02*
X69820000Y-18720000D01*
X69820000Y-18720000D02*
X69820000Y-18720000D01*
X69820000Y-18720000D02*
X78300000Y-18720000D01*
X78300000Y-18720000D02*
X78300000Y-18720000D01*
X78300000Y-18720000D02*
X78300000Y-45150000D01*
X78300000Y-45150000D02*
X83000000Y-45150000D01*
X83000000Y-45150000D02*
X83000000Y-51150000D01*
X83000000Y-51150000D02*
X78300000Y-51150000D01*
X78300000Y-51150000D02*
X78300000Y-51160000D01*
X78300000Y-51160000D02*
X78300000Y-51160000D01*
X78300000Y-51160000D02*
X78300000Y-51160000D01*
M02*
