G04 #@! TF.FileFunction,Profile,NP*
%FSLAX46Y46*%
G04 Gerber Fmt 4.6, Leading zero omitted, Abs format (unit mm)*
G04 Created by KiCad (PCBNEW 4.0.0-rc2-stable) date 3/3/2016 3:48:12 PM*
%MOMM*%
G01*
G04 APERTURE LIST*
%ADD10C,0.150000*%
%ADD11C,0.100000*%
G04 APERTURE END LIST*
D10*
D11*
X64120000Y-51490000D02*
X61690000Y-51310000D01*
X61690000Y-51310000D02*
X60570000Y-51030000D01*
X60570000Y-51030000D02*
X46760000Y-51030000D01*
X46760000Y-51030000D02*
X46760000Y-45280000D01*
X46760000Y-45280000D02*
X52640000Y-45280000D01*
X52640000Y-45280000D02*
X52510000Y-45080000D01*
X52510000Y-45080000D02*
X51720000Y-42870000D01*
X51720000Y-42870000D02*
X51460000Y-40350000D01*
X51460000Y-40350000D02*
X51460000Y-18850000D01*
X51460000Y-18850000D02*
X59040000Y-18850000D01*
X59040000Y-18850000D02*
X59040000Y-40230000D01*
X59040000Y-40230000D02*
X59150000Y-41170000D01*
X59150000Y-41170000D02*
X59490000Y-42000000D01*
X59490000Y-42000000D02*
X60010000Y-42700000D01*
X60010000Y-42700000D02*
X60670000Y-43270000D01*
X60670000Y-43270000D02*
X62280000Y-44020000D01*
X62280000Y-44020000D02*
X64120000Y-44280000D01*
X64120000Y-44280000D02*
X65920000Y-44020000D01*
X65920000Y-44020000D02*
X67520000Y-43270000D01*
X67520000Y-43270000D02*
X68180000Y-42700000D01*
X68180000Y-42700000D02*
X68700000Y-42000000D01*
X68700000Y-42000000D02*
X69040000Y-41170000D01*
X69040000Y-41170000D02*
X69150000Y-40230000D01*
X69150000Y-40230000D02*
X69150000Y-18850000D01*
X69150000Y-18850000D02*
X76780000Y-18850000D01*
X76780000Y-18850000D02*
X76780000Y-40350000D01*
X76780000Y-40350000D02*
X76520000Y-42870000D01*
X76520000Y-42870000D02*
X75730000Y-45080000D01*
X75730000Y-45080000D02*
X75600000Y-45280000D01*
X75600000Y-45280000D02*
X81480000Y-45280000D01*
X81480000Y-45280000D02*
X81480000Y-51030000D01*
X81480000Y-51030000D02*
X67690000Y-51030000D01*
X67690000Y-51030000D02*
X66550000Y-51310000D01*
X66550000Y-51310000D02*
X64120000Y-51490000D01*
X64120000Y-51490000D02*
X64120000Y-51490000D01*
X64120000Y-51490000D02*
X64120000Y-51490000D01*
M02*
