G04 #@! TF.FileFunction,Profile,NP*
%FSLAX46Y46*%
G04 Gerber Fmt 4.6, Leading zero omitted, Abs format (unit mm)*
G04 Created by KiCad (PCBNEW 4.0.0-rc2-stable) date 3/3/2016 3:44:06 PM*
%MOMM*%
G01*
G04 APERTURE LIST*
%ADD10C,0.150000*%
%ADD11C,0.100000*%
G04 APERTURE END LIST*
D10*
D11*
X67970000Y-51530000D02*
X64930000Y-51270000D01*
X64930000Y-51270000D02*
X64500000Y-51150000D01*
X64500000Y-51150000D02*
X46630000Y-51150000D01*
X46630000Y-51150000D02*
X46630000Y-45150000D01*
X46630000Y-45150000D02*
X54520000Y-45150000D01*
X54520000Y-45150000D02*
X54440000Y-45060000D01*
X54440000Y-45060000D02*
X52770000Y-42210000D01*
X52770000Y-42210000D02*
X52140000Y-40590000D01*
X52140000Y-40590000D02*
X51690000Y-38840000D01*
X51690000Y-38840000D02*
X51420000Y-36960000D01*
X51420000Y-36960000D02*
X51330000Y-34940000D01*
X51330000Y-34940000D02*
X51420000Y-32920000D01*
X51420000Y-32920000D02*
X51690000Y-31040000D01*
X51690000Y-31040000D02*
X52140000Y-29280000D01*
X52140000Y-29280000D02*
X52770000Y-27670000D01*
X52770000Y-27670000D02*
X54440000Y-24820000D01*
X54440000Y-24820000D02*
X55440000Y-23580000D01*
X55440000Y-23580000D02*
X56570000Y-22480000D01*
X56570000Y-22480000D02*
X59090000Y-20650000D01*
X59090000Y-20650000D02*
X61920000Y-19350000D01*
X61920000Y-19350000D02*
X64920000Y-18570000D01*
X64920000Y-18570000D02*
X67970000Y-18310000D01*
X67970000Y-18310000D02*
X70410000Y-18470000D01*
X70410000Y-18470000D02*
X72830000Y-18980000D01*
X72830000Y-18980000D02*
X75150000Y-19830000D01*
X75150000Y-19830000D02*
X77280000Y-21040000D01*
X77280000Y-21040000D02*
X79180000Y-22630000D01*
X79180000Y-22630000D02*
X80800000Y-24610000D01*
X80800000Y-24610000D02*
X82060000Y-26990000D01*
X82060000Y-26990000D02*
X82880000Y-29800000D01*
X82880000Y-29800000D02*
X82880000Y-29800000D01*
X82880000Y-29800000D02*
X74730000Y-29800000D01*
X74730000Y-29800000D02*
X73560000Y-28010000D01*
X73560000Y-28010000D02*
X72090000Y-26810000D01*
X72090000Y-26810000D02*
X70250000Y-26130000D01*
X70250000Y-26130000D02*
X67970000Y-25910000D01*
X67970000Y-25910000D02*
X66130000Y-26080000D01*
X66130000Y-26080000D02*
X64510000Y-26620000D01*
X64510000Y-26620000D02*
X63130000Y-27470000D01*
X63130000Y-27470000D02*
X61990000Y-28570000D01*
X61990000Y-28570000D02*
X61090000Y-29900000D01*
X61090000Y-29900000D02*
X60440000Y-31440000D01*
X60440000Y-31440000D02*
X60040000Y-33140000D01*
X60040000Y-33140000D02*
X59910000Y-34940000D01*
X59910000Y-34940000D02*
X60050000Y-36870000D01*
X60050000Y-36870000D02*
X60480000Y-38600000D01*
X60480000Y-38600000D02*
X61180000Y-40110000D01*
X61180000Y-40110000D02*
X62110000Y-41400000D01*
X62110000Y-41400000D02*
X63260000Y-42440000D01*
X63260000Y-42440000D02*
X64630000Y-43210000D01*
X64630000Y-43210000D02*
X66210000Y-43680000D01*
X66210000Y-43680000D02*
X67970000Y-43830000D01*
X67970000Y-43830000D02*
X70260000Y-43630000D01*
X70260000Y-43630000D02*
X72140000Y-43000000D01*
X72140000Y-43000000D02*
X72930000Y-42490000D01*
X72930000Y-42490000D02*
X73660000Y-41800000D01*
X73660000Y-41800000D02*
X74910000Y-39850000D01*
X74910000Y-39850000D02*
X68010000Y-39850000D01*
X68010000Y-39850000D02*
X68010000Y-39850000D01*
X68010000Y-39850000D02*
X68010000Y-32670000D01*
X68010000Y-32670000D02*
X68010000Y-32670000D01*
X68010000Y-32670000D02*
X83350000Y-32670000D01*
X83350000Y-32670000D02*
X83350000Y-32670000D01*
X83350000Y-32670000D02*
X83370000Y-37490000D01*
X83370000Y-37490000D02*
X83080000Y-39820000D01*
X83080000Y-39820000D02*
X82420000Y-42170000D01*
X82420000Y-42170000D02*
X81380000Y-44520000D01*
X81380000Y-44520000D02*
X80940000Y-45150000D01*
X80940000Y-45150000D02*
X88070000Y-45150000D01*
X88070000Y-45150000D02*
X88070000Y-51150000D01*
X88070000Y-51150000D02*
X71610000Y-51150000D01*
X71610000Y-51150000D02*
X70190000Y-51400000D01*
X70190000Y-51400000D02*
X67970000Y-51530000D01*
X67970000Y-51530000D02*
X67970000Y-51530000D01*
X67970000Y-51530000D02*
X67970000Y-51530000D01*
M02*
