G04 #@! TF.FileFunction,Soldermask,Bot*
%FSLAX46Y46*%
G04 Gerber Fmt 4.6, Leading zero omitted, Abs format (unit mm)*
G04 Created by KiCad (PCBNEW 4.0.0-rc2-stable) date 3/3/2016 3:49:23 PM*
%MOMM*%
G01*
G04 APERTURE LIST*
%ADD10C,0.150000*%
%ADD11R,4.000000X1.000000*%
%ADD12C,0.600000*%
%ADD13C,0.500000*%
%ADD14R,0.760000X2.000000*%
%ADD15R,0.740000X2.000000*%
%ADD16R,0.900000X0.600000*%
%ADD17R,0.900000X0.200000*%
G04 APERTURE END LIST*
D10*
D11*
X83742890Y-50192207D03*
X83742890Y-48192207D03*
X83742890Y-46192207D03*
D12*
X82742890Y-50192207D03*
X82742890Y-48192207D03*
X82742890Y-46192207D03*
D11*
X49020840Y-46192207D03*
X49020840Y-48192207D03*
X49020840Y-50192207D03*
D12*
X50020840Y-46192207D03*
X50020840Y-48192207D03*
X50020840Y-50192207D03*
D10*
G36*
X66929919Y-43932891D02*
X65767342Y-41167314D01*
X68164175Y-40159747D01*
X69326752Y-42925324D01*
X66929919Y-43932891D01*
X66929919Y-43932891D01*
G37*
G36*
X58175942Y-24398871D02*
X57013366Y-21633295D01*
X60332058Y-20238203D01*
X61494634Y-23003779D01*
X58175942Y-24398871D01*
X58175942Y-24398871D01*
G37*
D13*
X58517702Y-20567005D03*
D14*
X72531050Y-49652030D03*
X73801050Y-49652030D03*
X75071050Y-49652030D03*
X76341050Y-49652030D03*
X72531050Y-46452030D03*
X73801050Y-46452030D03*
X75071050Y-46452030D03*
D15*
X76341050Y-46452030D03*
D16*
X71336050Y-45752030D03*
X71336050Y-47252030D03*
X70086050Y-47252030D03*
X70086050Y-45752030D03*
X68836050Y-45752030D03*
X68836050Y-47252030D03*
D17*
X71986050Y-47202030D03*
M02*
