G04 #@! TF.FileFunction,Profile,NP*
%FSLAX46Y46*%
G04 Gerber Fmt 4.6, Leading zero omitted, Abs format (unit mm)*
G04 Created by KiCad (PCBNEW 4.0.0-rc2-stable) date 3/3/2016 3:42:14 PM*
%MOMM*%
G01*
G04 APERTURE LIST*
%ADD10C,0.150000*%
%ADD11C,0.100000*%
G04 APERTURE END LIST*
D10*
D11*
X66530000Y-51160000D02*
X51330000Y-51160000D01*
X51330000Y-51160000D02*
X51330000Y-51150000D01*
X51330000Y-51150000D02*
X46630000Y-51150000D01*
X46630000Y-51150000D02*
X46630000Y-45150000D01*
X46630000Y-45150000D02*
X51330000Y-45150000D01*
X51330000Y-45150000D02*
X51330000Y-18720000D01*
X51330000Y-18720000D02*
X51330000Y-18720000D01*
X51330000Y-18720000D02*
X65180000Y-18720000D01*
X65180000Y-18720000D02*
X67210000Y-18910000D01*
X67210000Y-18910000D02*
X69120000Y-19490000D01*
X69120000Y-19490000D02*
X70860000Y-20400000D01*
X70860000Y-20400000D02*
X72340000Y-21600000D01*
X72340000Y-21600000D02*
X73570000Y-23060000D01*
X73570000Y-23060000D02*
X74500000Y-24770000D01*
X74500000Y-24770000D02*
X75090000Y-26660000D01*
X75090000Y-26660000D02*
X75290000Y-28690000D01*
X75290000Y-28690000D02*
X75120000Y-30190000D01*
X75120000Y-30190000D02*
X74610000Y-31740000D01*
X74610000Y-31740000D02*
X73810000Y-33170000D01*
X73810000Y-33170000D02*
X72740000Y-34290000D01*
X72740000Y-34290000D02*
X74470000Y-35480000D01*
X74470000Y-35480000D02*
X75680000Y-37000000D01*
X75680000Y-37000000D02*
X76390000Y-38820000D01*
X76390000Y-38820000D02*
X76630000Y-40920000D01*
X76630000Y-40920000D02*
X76470000Y-42980000D01*
X76470000Y-42980000D02*
X75980000Y-44900000D01*
X75980000Y-44900000D02*
X75860000Y-45150000D01*
X75860000Y-45150000D02*
X81330000Y-45150000D01*
X81330000Y-45150000D02*
X81330000Y-51150000D01*
X81330000Y-51150000D02*
X66540000Y-51150000D01*
X66540000Y-51150000D02*
X66530000Y-51160000D01*
X66530000Y-51160000D02*
X66530000Y-51160000D01*
X66530000Y-51160000D02*
X66530000Y-51160000D01*
X67070000Y-43580000D02*
X67850000Y-42960000D01*
X67850000Y-42960000D02*
X68310000Y-42080000D01*
X68310000Y-42080000D02*
X68450000Y-41120000D01*
X68450000Y-41120000D02*
X68280000Y-40170000D01*
X68280000Y-40170000D02*
X67800000Y-39290000D01*
X67800000Y-39290000D02*
X67020000Y-38670000D01*
X67020000Y-38670000D02*
X65930000Y-38460000D01*
X65930000Y-38460000D02*
X59350000Y-38460000D01*
X59350000Y-38460000D02*
X59350000Y-38460000D01*
X59350000Y-38460000D02*
X59350000Y-43790000D01*
X59350000Y-43790000D02*
X59350000Y-43790000D01*
X59350000Y-43790000D02*
X65970000Y-43790000D01*
X65970000Y-43790000D02*
X67070000Y-43580000D01*
X67070000Y-43580000D02*
X67070000Y-43580000D01*
X67070000Y-43580000D02*
X67070000Y-43580000D01*
X65670000Y-31080000D02*
X66440000Y-30470000D01*
X66440000Y-30470000D02*
X66890000Y-29620000D01*
X66890000Y-29620000D02*
X67040000Y-28710000D01*
X67040000Y-28710000D02*
X66880000Y-27790000D01*
X66880000Y-27790000D02*
X66410000Y-26950000D01*
X66410000Y-26950000D02*
X65630000Y-26340000D01*
X65630000Y-26340000D02*
X64540000Y-26130000D01*
X64540000Y-26130000D02*
X59350000Y-26130000D01*
X59350000Y-26130000D02*
X59350000Y-26140000D01*
X59350000Y-26140000D02*
X59350000Y-31280000D01*
X59350000Y-31280000D02*
X59350000Y-31280000D01*
X59350000Y-31280000D02*
X64580000Y-31280000D01*
X64580000Y-31280000D02*
X65670000Y-31080000D01*
X65670000Y-31080000D02*
X65670000Y-31080000D01*
X65670000Y-31080000D02*
X65670000Y-31080000D01*
M02*
