M48
;DRILL file {KiCad 4.0.0-rc2-stable} date 3/3/2016 3:47:04 PM
;FORMAT={-:-/ absolute / inch / decimal}
FMAT,2
INCH,TZ
T1C0.012
T2C0.016
%
G90
G05
M72
T1
X2.2406Y-1.4077G85X2.2406Y-1.4077
G05
X2.2828Y-1.174G85X2.2828Y-1.174
G05
X2.3085Y-1.6285G85X2.3085Y-1.6285
G05
X2.4283Y-0.9959G85X2.4283Y-0.9959
G05
X2.4797Y-1.7949G85X2.4797Y-1.7949
G05
X2.6469Y-0.9247G85X2.6469Y-0.9247
G05
X2.7148Y-1.8332G85X2.7148Y-1.8332
G05
X2.8756Y-0.9651G85X2.8756Y-0.9651
G05
X2.9262Y-1.7577G85X2.9262Y-1.7577
G05
X3.0467Y-1.1311G85X3.0467Y-1.1311
G05
X3.0724Y-1.579G85X3.0724Y-1.579
G05
X3.1148Y-1.3467G85X3.1148Y-1.3467
G05
X3.1306Y-1.94G85X3.1306Y-1.94
G05
X3.1903Y-1.2328G85X3.1903Y-1.2328
G05
T2
X1.9693Y-1.8186G85X1.9693Y-1.8186
G05
X1.9693Y-1.8973G85X1.9693Y-1.8973
G05
X1.9693Y-1.9761G85X1.9693Y-1.9761
G05
X3.4138Y-1.8183G85X3.4138Y-1.8183
G05
X3.4138Y-1.897G85X3.4138Y-1.897
G05
X3.4138Y-1.9758G85X3.4138Y-1.9758
G05
T0
M30
