G04 #@! TF.FileFunction,Profile,NP*
%FSLAX46Y46*%
G04 Gerber Fmt 4.6, Leading zero omitted, Abs format (unit mm)*
G04 Created by KiCad (PCBNEW 4.0.0-rc2-stable) date 3/3/2016 3:44:55 PM*
%MOMM*%
G01*
G04 APERTURE LIST*
%ADD10C,0.150000*%
%ADD11C,0.100000*%
G04 APERTURE END LIST*
D10*
D11*
X67730000Y-51030000D02*
X51390000Y-51030000D01*
X51390000Y-51030000D02*
X51380000Y-51030000D01*
X51380000Y-51030000D02*
X46760000Y-51030000D01*
X46760000Y-51030000D02*
X46760000Y-45280000D01*
X46760000Y-45280000D02*
X51460000Y-45280000D01*
X51460000Y-45280000D02*
X51460000Y-44000000D01*
X51460000Y-44000000D02*
X55580000Y-44000000D01*
X55580000Y-44000000D02*
X55580000Y-25830000D01*
X55580000Y-25830000D02*
X51780000Y-25830000D01*
X51780000Y-25830000D02*
X51780000Y-18850000D01*
X51780000Y-18850000D02*
X67330000Y-18850000D01*
X67330000Y-18850000D02*
X67330000Y-25830000D01*
X67330000Y-25830000D02*
X63530000Y-25830000D01*
X63530000Y-25830000D02*
X63530000Y-44000000D01*
X63530000Y-44000000D02*
X67660000Y-44000000D01*
X67660000Y-44000000D02*
X67660000Y-45280000D01*
X67660000Y-45280000D02*
X72360000Y-45280000D01*
X72360000Y-45280000D02*
X72360000Y-51030000D01*
X72360000Y-51030000D02*
X67730000Y-51030000D01*
X67730000Y-51030000D02*
X67730000Y-51030000D01*
X67730000Y-51030000D02*
X67730000Y-51030000D01*
X67730000Y-51030000D02*
X67730000Y-51030000D01*
M02*
