G04 #@! TF.FileFunction,Copper,L2,Bot,Signal*
%FSLAX46Y46*%
G04 Gerber Fmt 4.6, Leading zero omitted, Abs format (unit mm)*
G04 Created by KiCad (PCBNEW 4.0.0-rc2-stable) date 3/3/2016 3:48:47 PM*
%MOMM*%
G01*
G04 APERTURE LIST*
%ADD10C,0.150000*%
%ADD11C,0.500000*%
%ADD12R,4.000000X1.000000*%
%ADD13C,0.600000*%
%ADD14C,0.254000*%
%ADD15C,0.152400*%
G04 APERTURE END LIST*
D10*
D11*
X64434414Y-46790225D03*
X66826760Y-40367418D03*
X69219110Y-33944612D03*
X73847998Y-25766279D03*
X76312464Y-32189087D03*
X78776914Y-38611891D03*
X81241370Y-45034698D03*
X57210842Y-21583489D03*
X59282677Y-27410083D03*
X61354515Y-33236682D03*
X63426350Y-39063274D03*
X90617651Y-22201294D03*
X88664811Y-28059202D03*
X86711971Y-33917110D03*
X84759131Y-39775018D03*
D12*
X49020844Y-46192207D03*
X49020844Y-48192207D03*
X49020844Y-50192207D03*
D13*
X50020844Y-46192207D03*
X50020844Y-48192207D03*
X50020844Y-50192207D03*
D12*
X97224144Y-50192207D03*
X97224144Y-48192207D03*
X97224144Y-46192207D03*
D13*
X96224144Y-50192207D03*
X96224144Y-48192207D03*
X96224144Y-46192207D03*
D10*
G36*
X85959309Y-36529090D02*
X83115516Y-37484517D01*
X82287479Y-35019896D01*
X85131272Y-34064469D01*
X85959309Y-36529090D01*
X85959309Y-36529090D01*
G37*
G36*
X65832823Y-43818436D02*
X62989030Y-44773863D01*
X61842517Y-41361312D01*
X64686310Y-40405885D01*
X65832823Y-43818436D01*
X65832823Y-43818436D01*
G37*
D11*
X62036601Y-43194978D03*
D10*
G36*
X90308306Y-27381503D02*
X88308364Y-27366257D01*
X88314158Y-26606279D01*
X90314100Y-26621525D01*
X90308306Y-27381503D01*
X90308306Y-27381503D01*
G37*
G36*
X90317987Y-26111540D02*
X88318045Y-26096294D01*
X88323839Y-25336316D01*
X90323781Y-25351562D01*
X90317987Y-26111540D01*
X90317987Y-26111540D01*
G37*
G36*
X90327668Y-24841577D02*
X88327726Y-24826331D01*
X88333520Y-24066353D01*
X90333462Y-24081599D01*
X90327668Y-24841577D01*
X90327668Y-24841577D01*
G37*
G36*
X90337349Y-23571614D02*
X88337407Y-23556368D01*
X88343201Y-22796390D01*
X90343143Y-22811636D01*
X90337349Y-23571614D01*
X90337349Y-23571614D01*
G37*
G36*
X87108399Y-27357110D02*
X85108457Y-27341864D01*
X85114251Y-26581886D01*
X87114193Y-26597132D01*
X87108399Y-27357110D01*
X87108399Y-27357110D01*
G37*
G36*
X87118080Y-26087147D02*
X85118138Y-26071901D01*
X85123932Y-25311923D01*
X87123874Y-25327169D01*
X87118080Y-26087147D01*
X87118080Y-26087147D01*
G37*
G36*
X87127761Y-24817184D02*
X85127819Y-24801938D01*
X85133613Y-24041960D01*
X87133555Y-24057206D01*
X87127761Y-24817184D01*
X87127761Y-24817184D01*
G37*
G36*
X87137519Y-23537221D02*
X85137577Y-23521976D01*
X85143217Y-22781997D01*
X87143159Y-22797242D01*
X87137519Y-23537221D01*
X87137519Y-23537221D01*
G37*
G36*
X85698798Y-28611402D02*
X85098816Y-28606828D01*
X85105676Y-27706854D01*
X85705658Y-27711428D01*
X85698798Y-28611402D01*
X85698798Y-28611402D01*
G37*
G36*
X87198754Y-28622836D02*
X86598772Y-28618262D01*
X86605632Y-27718288D01*
X87205614Y-27722862D01*
X87198754Y-28622836D01*
X87198754Y-28622836D01*
G37*
G36*
X87189226Y-29872799D02*
X86589244Y-29868225D01*
X86596104Y-28968251D01*
X87196086Y-28972825D01*
X87189226Y-29872799D01*
X87189226Y-29872799D01*
G37*
G36*
X85689269Y-29861366D02*
X85089287Y-29856792D01*
X85096147Y-28956818D01*
X85696129Y-28961392D01*
X85689269Y-29861366D01*
X85689269Y-29861366D01*
G37*
G36*
X85679741Y-31111329D02*
X85079759Y-31106755D01*
X85086619Y-30206781D01*
X85686601Y-30211355D01*
X85679741Y-31111329D01*
X85679741Y-31111329D01*
G37*
G36*
X87179697Y-31122763D02*
X86579715Y-31118189D01*
X86586575Y-30218215D01*
X87186557Y-30222789D01*
X87179697Y-31122763D01*
X87179697Y-31122763D01*
G37*
G36*
X86953716Y-27970949D02*
X86753722Y-27969425D01*
X86760582Y-27069451D01*
X86960576Y-27070975D01*
X86953716Y-27970949D01*
X86953716Y-27970949D01*
G37*
G36*
X87592644Y-29425861D02*
X87392650Y-29424337D01*
X87421616Y-25624447D01*
X87621610Y-25625971D01*
X87592644Y-29425861D01*
X87592644Y-29425861D01*
G37*
G36*
X88032340Y-30779252D02*
X87832346Y-30777727D01*
X87881894Y-24277916D01*
X88081888Y-24279441D01*
X88032340Y-30779252D01*
X88032340Y-30779252D01*
G37*
G36*
X87492647Y-29425099D02*
X87092659Y-29422050D01*
X87094183Y-29222055D01*
X87494171Y-29225104D01*
X87492647Y-29425099D01*
X87492647Y-29425099D01*
G37*
G36*
X87520089Y-25825204D02*
X87120101Y-25822155D01*
X87121625Y-25622160D01*
X87521613Y-25625209D01*
X87520089Y-25825204D01*
X87520089Y-25825204D01*
G37*
G36*
X87930368Y-24478292D02*
X87130391Y-24472194D01*
X87131916Y-24272200D01*
X87931893Y-24278298D01*
X87930368Y-24478292D01*
X87930368Y-24478292D01*
G37*
G36*
X87882345Y-30778109D02*
X87082368Y-30772011D01*
X87083893Y-30572017D01*
X87883870Y-30578115D01*
X87882345Y-30778109D01*
X87882345Y-30778109D01*
G37*
G36*
X85485463Y-30359826D02*
X85285469Y-30358302D01*
X85300715Y-28358360D01*
X85500709Y-28359884D01*
X85485463Y-30359826D01*
X85485463Y-30359826D01*
G37*
D14*
X63840000Y-42590000D02*
X62040000Y-43190000D01*
X63840000Y-42590000D02*
X62040000Y-43190000D01*
X63840000Y-42590000D02*
X62040000Y-43190000D01*
X63840000Y-42590000D02*
X62040000Y-43190000D01*
X63840000Y-42590000D02*
X62040000Y-43190000D01*
X63840000Y-42590000D02*
X62040000Y-43190000D01*
X63840000Y-42590000D02*
X62040000Y-43190000D01*
X63840000Y-42590000D02*
X62040000Y-43190000D01*
X63840000Y-42590000D02*
X62040000Y-43190000D01*
X84120000Y-35770000D02*
X85390000Y-29360000D01*
X84120000Y-35770000D02*
X85390000Y-29360000D01*
X84120000Y-35770000D02*
X85390000Y-29360000D01*
X84120000Y-35770000D02*
X85390000Y-29360000D01*
X84120000Y-35770000D02*
X85390000Y-29360000D01*
X84120000Y-35770000D02*
X85390000Y-29360000D01*
X84120000Y-35770000D02*
X85390000Y-29360000D01*
X84120000Y-35770000D02*
X85390000Y-29360000D01*
X84120000Y-35770000D02*
X85390000Y-29360000D01*
D15*
G36*
X63022907Y-27650087D02*
X65430041Y-37088846D01*
X65438693Y-37106940D01*
X65442607Y-37126616D01*
X65461932Y-37155537D01*
X65476936Y-37186915D01*
X65491856Y-37200322D01*
X65503000Y-37217000D01*
X65531922Y-37236325D01*
X65557792Y-37259572D01*
X65576705Y-37266248D01*
X65593384Y-37277393D01*
X65627502Y-37284179D01*
X65660297Y-37295756D01*
X65680325Y-37294686D01*
X65700000Y-37298600D01*
X65830000Y-37298600D01*
X65842404Y-37296133D01*
X65854980Y-37297478D01*
X65895347Y-37285602D01*
X65936616Y-37277393D01*
X65947132Y-37270366D01*
X65959264Y-37266797D01*
X65992014Y-37240377D01*
X66027000Y-37217000D01*
X66034025Y-37206486D01*
X66043870Y-37198544D01*
X66064016Y-37161602D01*
X66087393Y-37126616D01*
X66089861Y-37114210D01*
X66095915Y-37103108D01*
X66246903Y-36620000D01*
X69723800Y-36620000D01*
X69723800Y-36670000D01*
X69726055Y-36688401D01*
X69739040Y-36715720D01*
X69799040Y-36795720D01*
X69821110Y-36815528D01*
X69849668Y-36825496D01*
X69879854Y-36823568D01*
X69906912Y-36810047D01*
X70214168Y-36570003D01*
X70427209Y-36516743D01*
X70925922Y-36545515D01*
X71194651Y-36631892D01*
X71320061Y-36680127D01*
X71650883Y-36835808D01*
X71936205Y-37045044D01*
X72017973Y-37151342D01*
X72021210Y-37170763D01*
X71960269Y-37315497D01*
X71851802Y-37373346D01*
X71463250Y-37364094D01*
X71175981Y-37268338D01*
X71109632Y-37119052D01*
X71090323Y-37092781D01*
X71064097Y-37077710D01*
X71034097Y-37067710D01*
X71010000Y-37063800D01*
X70950000Y-37063800D01*
X70931599Y-37066055D01*
X70904280Y-37079040D01*
X70824280Y-37139040D01*
X70798652Y-37173244D01*
X70738652Y-37333244D01*
X70736075Y-37341519D01*
X70716075Y-37421519D01*
X70716075Y-37458481D01*
X70746075Y-37578481D01*
X70752999Y-37596295D01*
X70772398Y-37619502D01*
X70822398Y-37659502D01*
X70837197Y-37668778D01*
X70866540Y-37676121D01*
X71080977Y-37685868D01*
X71695520Y-37804812D01*
X71716899Y-37805887D01*
X71936899Y-37785887D01*
X71970386Y-37774617D01*
X72290386Y-37574617D01*
X72318947Y-37542446D01*
X72398947Y-37372446D01*
X72403515Y-37360050D01*
X72433515Y-37250050D01*
X72432899Y-37207813D01*
X72362899Y-36977813D01*
X72346273Y-36948621D01*
X72136273Y-36718621D01*
X72122661Y-36706862D01*
X71752661Y-36456862D01*
X71746293Y-36452998D01*
X71506293Y-36322998D01*
X71494097Y-36317710D01*
X71464097Y-36307710D01*
X71459499Y-36306337D01*
X71119499Y-36216337D01*
X71108118Y-36214234D01*
X70548118Y-36154234D01*
X70530549Y-36154388D01*
X70130549Y-36204388D01*
X70096147Y-36217683D01*
X69826147Y-36407683D01*
X69800949Y-36437776D01*
X69730949Y-36587776D01*
X69723800Y-36620000D01*
X66246903Y-36620000D01*
X66905109Y-34513978D01*
X68587250Y-34513978D01*
X68853235Y-34712440D01*
X69174920Y-34794007D01*
X69324528Y-34788598D01*
X69393721Y-34627123D01*
X69157406Y-34110270D01*
X68640553Y-34346585D01*
X68587250Y-34513978D01*
X66905109Y-34513978D01*
X67096867Y-33900422D01*
X68369715Y-33900422D01*
X68375124Y-34050030D01*
X68536599Y-34119223D01*
X68783541Y-34006316D01*
X69384768Y-34006316D01*
X69621083Y-34523169D01*
X69788476Y-34576472D01*
X69986938Y-34310487D01*
X70068505Y-33988802D01*
X70063096Y-33839194D01*
X69901621Y-33770001D01*
X69384768Y-34006316D01*
X68783541Y-34006316D01*
X69053452Y-33882908D01*
X68817137Y-33366055D01*
X68649744Y-33312752D01*
X68451282Y-33578737D01*
X68369715Y-33900422D01*
X67096867Y-33900422D01*
X67296364Y-33262101D01*
X69044499Y-33262101D01*
X69280814Y-33778954D01*
X69797667Y-33542639D01*
X69850970Y-33375246D01*
X69584985Y-33176784D01*
X69263300Y-33095217D01*
X69113692Y-33100626D01*
X69044499Y-33262101D01*
X67296364Y-33262101D01*
X67417883Y-32873281D01*
X76144565Y-32873281D01*
X76215341Y-33034067D01*
X76546094Y-33006915D01*
X76841279Y-32855254D01*
X76949886Y-32752219D01*
X76894942Y-32585358D01*
X76375792Y-32354131D01*
X76144565Y-32873281D01*
X67417883Y-32873281D01*
X67662072Y-32091964D01*
X75467484Y-32091964D01*
X75494636Y-32422717D01*
X75646297Y-32717902D01*
X75749332Y-32826509D01*
X75916193Y-32771565D01*
X76147420Y-32252415D01*
X75863053Y-32125759D01*
X76477508Y-32125759D01*
X76996658Y-32356986D01*
X77157444Y-32286210D01*
X77130292Y-31955457D01*
X76978631Y-31660272D01*
X76875596Y-31551665D01*
X76708735Y-31606609D01*
X76477508Y-32125759D01*
X75863053Y-32125759D01*
X75628270Y-32021188D01*
X75467484Y-32091964D01*
X67662072Y-32091964D01*
X67807716Y-31625955D01*
X75675042Y-31625955D01*
X75729986Y-31792816D01*
X76249136Y-32024043D01*
X76480363Y-31504893D01*
X76409587Y-31344107D01*
X76078834Y-31371259D01*
X75783649Y-31522920D01*
X75675042Y-31625955D01*
X67807716Y-31625955D01*
X69425237Y-26450473D01*
X73680099Y-26450473D01*
X73750875Y-26611259D01*
X74081628Y-26584107D01*
X74376813Y-26432446D01*
X74485420Y-26329411D01*
X74430476Y-26162550D01*
X73911326Y-25931323D01*
X73680099Y-26450473D01*
X69425237Y-26450473D01*
X69669427Y-25669156D01*
X73003018Y-25669156D01*
X73030170Y-25999909D01*
X73181831Y-26295094D01*
X73284866Y-26403701D01*
X73451727Y-26348757D01*
X73682954Y-25829607D01*
X73398587Y-25702951D01*
X74013042Y-25702951D01*
X74532192Y-25934178D01*
X74692978Y-25863402D01*
X74665826Y-25532649D01*
X74514165Y-25237464D01*
X74411130Y-25128857D01*
X74244269Y-25183801D01*
X74013042Y-25702951D01*
X73398587Y-25702951D01*
X73163804Y-25598380D01*
X73003018Y-25669156D01*
X69669427Y-25669156D01*
X69815071Y-25203147D01*
X73210576Y-25203147D01*
X73265520Y-25370008D01*
X73784670Y-25601235D01*
X74015897Y-25082085D01*
X73945121Y-24921299D01*
X73614368Y-24948451D01*
X73319183Y-25100112D01*
X73210576Y-25203147D01*
X69815071Y-25203147D01*
X71594818Y-19508600D01*
X74528230Y-19508600D01*
X80305298Y-37106895D01*
X80310529Y-37116170D01*
X80312607Y-37126616D01*
X80337069Y-37163226D01*
X80358700Y-37201578D01*
X80367084Y-37208146D01*
X80373000Y-37217000D01*
X80409607Y-37241460D01*
X80444271Y-37268617D01*
X80454530Y-37271477D01*
X80463384Y-37277393D01*
X80506562Y-37285982D01*
X80548983Y-37297807D01*
X80559557Y-37296523D01*
X80570000Y-37298600D01*
X80710000Y-37298600D01*
X80733477Y-37293930D01*
X80757411Y-37294537D01*
X80786280Y-37283427D01*
X80816616Y-37277393D01*
X80836522Y-37264092D01*
X80858862Y-37255495D01*
X80881281Y-37234185D01*
X80907000Y-37217000D01*
X80920299Y-37197097D01*
X80937651Y-37180603D01*
X80950209Y-37152334D01*
X80967393Y-37126616D01*
X80972063Y-37103137D01*
X80981782Y-37081259D01*
X81450368Y-35002319D01*
X82055065Y-35002319D01*
X82066537Y-35094126D01*
X82894574Y-37558747D01*
X82936663Y-37633973D01*
X83008901Y-37691782D01*
X83097939Y-37716931D01*
X83189746Y-37705459D01*
X86033539Y-36750032D01*
X86108765Y-36707943D01*
X86166574Y-36635705D01*
X86191723Y-36546667D01*
X86180251Y-36454860D01*
X85526200Y-34508101D01*
X86100289Y-34508101D01*
X86373013Y-34697195D01*
X86697340Y-34767528D01*
X86846670Y-34756920D01*
X86910206Y-34593138D01*
X86656064Y-34084813D01*
X86147740Y-34338956D01*
X86100289Y-34508101D01*
X85526200Y-34508101D01*
X85352214Y-33990239D01*
X85310125Y-33915013D01*
X85294463Y-33902479D01*
X85861553Y-33902479D01*
X85872161Y-34051809D01*
X86035943Y-34115345D01*
X86320621Y-33973017D01*
X86879674Y-33973017D01*
X87133817Y-34481341D01*
X87302962Y-34528792D01*
X87492056Y-34256068D01*
X87562389Y-33931741D01*
X87551781Y-33782411D01*
X87387999Y-33718875D01*
X86879674Y-33973017D01*
X86320621Y-33973017D01*
X86544268Y-33861203D01*
X86290125Y-33352879D01*
X86120980Y-33305428D01*
X85931886Y-33578152D01*
X85861553Y-33902479D01*
X85294463Y-33902479D01*
X85237887Y-33857204D01*
X85148849Y-33832055D01*
X85057042Y-33843527D01*
X84850449Y-33912936D01*
X84983561Y-33241082D01*
X86513736Y-33241082D01*
X86767878Y-33749407D01*
X87276202Y-33495264D01*
X87323653Y-33326119D01*
X87050929Y-33137025D01*
X86726602Y-33066692D01*
X86577272Y-33077300D01*
X86513736Y-33241082D01*
X84983561Y-33241082D01*
X85359828Y-31341975D01*
X85677964Y-31344400D01*
X85762797Y-31329106D01*
X85840981Y-31279635D01*
X85893758Y-31203643D01*
X85912812Y-31113106D01*
X85919672Y-30213132D01*
X85904378Y-30128299D01*
X85854907Y-30050115D01*
X85837408Y-30037962D01*
X85850509Y-30029672D01*
X85903286Y-29953680D01*
X85922340Y-29863143D01*
X85929200Y-28963169D01*
X85913906Y-28878336D01*
X85864435Y-28800152D01*
X85846936Y-28787998D01*
X85860038Y-28779708D01*
X85912815Y-28703716D01*
X85931869Y-28613179D01*
X85938729Y-27713205D01*
X85923435Y-27628372D01*
X85893418Y-27580932D01*
X86420108Y-27584948D01*
X86391615Y-27625974D01*
X86372561Y-27716511D01*
X86365701Y-28616485D01*
X86380995Y-28701318D01*
X86430466Y-28779502D01*
X86447965Y-28791655D01*
X86434864Y-28799945D01*
X86382087Y-28875937D01*
X86363033Y-28966474D01*
X86356173Y-29866448D01*
X86371467Y-29951281D01*
X86420938Y-30029465D01*
X86438437Y-30041619D01*
X86425335Y-30049909D01*
X86372558Y-30125901D01*
X86353504Y-30216438D01*
X86346644Y-31116412D01*
X86361938Y-31201245D01*
X86411409Y-31279429D01*
X86487400Y-31332206D01*
X86577938Y-31351260D01*
X87177920Y-31355834D01*
X87262753Y-31340540D01*
X87340937Y-31291069D01*
X87393714Y-31215077D01*
X87412768Y-31124540D01*
X87413659Y-31007621D01*
X87880568Y-31011180D01*
X87880572Y-31011179D01*
X88030563Y-31012323D01*
X88115396Y-30997029D01*
X88193580Y-30947558D01*
X88246357Y-30871566D01*
X88265411Y-30781029D01*
X88280453Y-28807809D01*
X88325853Y-28839287D01*
X88650180Y-28909620D01*
X88799510Y-28899012D01*
X88863046Y-28735230D01*
X88608904Y-28226905D01*
X88571488Y-28245611D01*
X88399220Y-28073343D01*
X88285182Y-28187381D01*
X88285780Y-28108950D01*
X88497108Y-28003295D01*
X88478402Y-27965879D01*
X88492404Y-27951877D01*
X88980042Y-27955594D01*
X89127198Y-27810665D01*
X89126085Y-27956708D01*
X89148992Y-27956883D01*
X88832514Y-28115109D01*
X89086657Y-28623433D01*
X89255802Y-28670884D01*
X89444896Y-28398160D01*
X89515229Y-28073833D01*
X89504621Y-27924503D01*
X89482012Y-27915732D01*
X89482792Y-27813375D01*
X89627723Y-27960532D01*
X90187652Y-27964800D01*
X90420054Y-27966571D01*
X90635444Y-27879272D01*
X90801030Y-27716191D01*
X90891604Y-27502157D01*
X90892917Y-27329807D01*
X90747985Y-27182648D01*
X89487672Y-27173041D01*
X89487520Y-27193041D01*
X89131930Y-27190330D01*
X89132082Y-27170331D01*
X89112082Y-27170179D01*
X89114771Y-26817451D01*
X89490382Y-26817451D01*
X90750696Y-26827059D01*
X90897855Y-26682126D01*
X90899168Y-26509776D01*
X90842737Y-26370547D01*
X90901285Y-26232194D01*
X90902598Y-26059844D01*
X90757666Y-25912685D01*
X89497353Y-25903078D01*
X89495264Y-26177119D01*
X89495263Y-26177120D01*
X89490382Y-26817451D01*
X89114771Y-26817451D01*
X89114793Y-26814589D01*
X89134792Y-26814741D01*
X89136881Y-26540700D01*
X89136882Y-26540699D01*
X89141763Y-25900368D01*
X89121763Y-25900216D01*
X89124452Y-25547488D01*
X89500063Y-25547488D01*
X90760377Y-25557096D01*
X90907536Y-25412163D01*
X90908849Y-25239813D01*
X90852418Y-25100584D01*
X90910966Y-24962231D01*
X90912279Y-24789881D01*
X90767347Y-24642722D01*
X89507034Y-24633115D01*
X89504945Y-24907156D01*
X89504944Y-24907157D01*
X89500063Y-25547488D01*
X89124452Y-25547488D01*
X89124474Y-25544626D01*
X89144473Y-25544778D01*
X89146562Y-25270737D01*
X89146563Y-25270736D01*
X89151444Y-24630405D01*
X89131444Y-24630253D01*
X89134133Y-24277525D01*
X89509744Y-24277525D01*
X90770058Y-24287133D01*
X90917217Y-24142200D01*
X90918530Y-23969850D01*
X90862099Y-23830621D01*
X90920647Y-23692268D01*
X90921960Y-23519918D01*
X90777028Y-23372759D01*
X89516715Y-23363152D01*
X89514626Y-23637193D01*
X89514625Y-23637194D01*
X89509744Y-24277525D01*
X89134133Y-24277525D01*
X89134155Y-24274663D01*
X89154154Y-24274815D01*
X89156243Y-24000774D01*
X89156244Y-24000773D01*
X89161125Y-23360442D01*
X87900811Y-23350834D01*
X87753652Y-23495767D01*
X87752339Y-23668117D01*
X87808770Y-23807346D01*
X87750222Y-23945699D01*
X87749474Y-24043823D01*
X87363362Y-24040880D01*
X87351332Y-23974150D01*
X87301861Y-23895966D01*
X87225870Y-23843189D01*
X87135332Y-23824135D01*
X85135390Y-23808889D01*
X85050557Y-23824182D01*
X84972373Y-23873654D01*
X84919596Y-23949645D01*
X84900542Y-24040183D01*
X84894748Y-24800161D01*
X84910042Y-24884994D01*
X84959513Y-24963178D01*
X85035504Y-25015955D01*
X85126042Y-25035009D01*
X87125984Y-25050255D01*
X87210817Y-25034962D01*
X87289001Y-24985490D01*
X87341778Y-24909499D01*
X87360832Y-24818961D01*
X87361685Y-24707042D01*
X87645522Y-24709205D01*
X87640283Y-25396456D01*
X87623386Y-25392900D01*
X87523390Y-25392138D01*
X87356473Y-25390866D01*
X87356945Y-25328946D01*
X87341651Y-25244113D01*
X87292180Y-25165929D01*
X87216189Y-25113152D01*
X87125651Y-25094098D01*
X85125709Y-25078852D01*
X85040876Y-25094145D01*
X84962692Y-25143617D01*
X84909915Y-25219608D01*
X84890861Y-25310146D01*
X84885067Y-26070124D01*
X84900361Y-26154957D01*
X84949832Y-26233141D01*
X85025823Y-26285918D01*
X85116361Y-26304972D01*
X87116303Y-26320218D01*
X87183320Y-26308137D01*
X87182786Y-26378123D01*
X87115970Y-26364061D01*
X85116028Y-26348815D01*
X85031195Y-26364108D01*
X84953011Y-26413580D01*
X84900234Y-26489571D01*
X84881180Y-26580109D01*
X84875386Y-27340087D01*
X84890680Y-27424920D01*
X84940151Y-27503104D01*
X84968898Y-27523069D01*
X84944436Y-27538548D01*
X84891659Y-27614540D01*
X84872605Y-27705077D01*
X84865745Y-28605051D01*
X84881039Y-28689884D01*
X84930510Y-28768068D01*
X84948009Y-28780222D01*
X84934907Y-28788512D01*
X84882130Y-28864504D01*
X84863076Y-28955041D01*
X84856216Y-29855015D01*
X84871510Y-29939848D01*
X84902804Y-29989305D01*
X84880163Y-30103580D01*
X84872602Y-30114467D01*
X84853548Y-30205004D01*
X84853287Y-30239230D01*
X84073721Y-34173893D01*
X82213249Y-34798954D01*
X82138023Y-34841043D01*
X82080214Y-34913281D01*
X82055065Y-35002319D01*
X81450368Y-35002319D01*
X83108404Y-27646248D01*
X84530374Y-23520200D01*
X84904506Y-23520200D01*
X84919800Y-23605032D01*
X84969271Y-23683216D01*
X85045263Y-23735993D01*
X85135800Y-23755047D01*
X87135742Y-23770292D01*
X87220576Y-23754998D01*
X87298759Y-23705527D01*
X87351536Y-23629535D01*
X87370590Y-23538997D01*
X87374640Y-23007562D01*
X89519425Y-23007562D01*
X90431494Y-23014515D01*
X90603020Y-23051712D01*
X90752350Y-23041104D01*
X90761688Y-23017032D01*
X90779739Y-23017170D01*
X90926898Y-22872237D01*
X90928211Y-22699887D01*
X90840912Y-22484498D01*
X90677830Y-22318912D01*
X90532002Y-22257201D01*
X90785354Y-22257201D01*
X91039497Y-22765525D01*
X91208642Y-22812976D01*
X91397736Y-22540252D01*
X91468069Y-22215925D01*
X91457461Y-22066595D01*
X91293679Y-22003059D01*
X90785354Y-22257201D01*
X90532002Y-22257201D01*
X90463796Y-22228338D01*
X90364204Y-22227579D01*
X90352060Y-22215435D01*
X90340099Y-22227396D01*
X90286731Y-22226989D01*
X90449948Y-22145387D01*
X90195805Y-21637063D01*
X90026660Y-21589612D01*
X89837566Y-21862336D01*
X89767233Y-22186663D01*
X89769818Y-22223049D01*
X89671465Y-22222299D01*
X89524306Y-22367231D01*
X89519425Y-23007562D01*
X87374640Y-23007562D01*
X87375856Y-22848086D01*
X87758590Y-22848086D01*
X87903522Y-22995245D01*
X89163835Y-23004852D01*
X89168717Y-22364520D01*
X89023784Y-22217361D01*
X88463855Y-22213093D01*
X88231453Y-22211322D01*
X88016063Y-22298621D01*
X87850477Y-22461702D01*
X87759903Y-22675736D01*
X87758590Y-22848086D01*
X87375856Y-22848086D01*
X87376230Y-22799018D01*
X87360936Y-22714186D01*
X87311465Y-22636002D01*
X87235473Y-22583225D01*
X87144936Y-22564171D01*
X85144994Y-22548926D01*
X85060160Y-22564220D01*
X84981977Y-22613691D01*
X84929200Y-22689683D01*
X84910146Y-22780221D01*
X84904506Y-23520200D01*
X84530374Y-23520200D01*
X85217893Y-21525266D01*
X90419416Y-21525266D01*
X90673558Y-22033591D01*
X91181882Y-21779448D01*
X91229333Y-21610303D01*
X90956609Y-21421209D01*
X90632282Y-21350876D01*
X90482952Y-21361484D01*
X90419416Y-21525266D01*
X85217893Y-21525266D01*
X86088666Y-18998600D01*
X94561400Y-18998600D01*
X94561400Y-19970254D01*
X85308617Y-45053580D01*
X85300957Y-45101955D01*
X85291400Y-45150000D01*
X85292485Y-45155454D01*
X85291615Y-45160947D01*
X85303051Y-45208576D01*
X85312607Y-45256616D01*
X85315697Y-45261240D01*
X85316995Y-45266647D01*
X85345792Y-45306280D01*
X85373000Y-45347000D01*
X85377622Y-45350088D01*
X85380892Y-45354589D01*
X85422663Y-45380184D01*
X85463384Y-45407393D01*
X85468839Y-45408478D01*
X85473580Y-45411383D01*
X85521955Y-45419043D01*
X85570000Y-45428600D01*
X94701000Y-45428600D01*
X94639944Y-45576002D01*
X94639944Y-45868357D01*
X94785994Y-46014407D01*
X95356224Y-46014407D01*
X95324732Y-46130540D01*
X95355526Y-46370007D01*
X94785994Y-46370007D01*
X94639944Y-46516057D01*
X94639944Y-46808412D01*
X94728883Y-47023130D01*
X94893222Y-47187468D01*
X95107940Y-47276407D01*
X96900294Y-47276407D01*
X97046344Y-47130357D01*
X97046344Y-46538605D01*
X97123556Y-46253874D01*
X97090190Y-45994407D01*
X97401944Y-45994407D01*
X97401944Y-46014407D01*
X97421944Y-46014407D01*
X97421944Y-46370007D01*
X97401944Y-46370007D01*
X97401944Y-47130357D01*
X97547994Y-47276407D01*
X99261400Y-47276407D01*
X99261400Y-47466673D01*
X99224144Y-47459129D01*
X95224144Y-47459129D01*
X95139430Y-47475069D01*
X95061626Y-47525135D01*
X95009429Y-47601527D01*
X94991066Y-47692207D01*
X94991066Y-48692207D01*
X95007006Y-48776921D01*
X95057072Y-48854725D01*
X95133464Y-48906922D01*
X95224144Y-48925285D01*
X99224144Y-48925285D01*
X99261400Y-48918275D01*
X99261400Y-49108007D01*
X97547994Y-49108007D01*
X97401944Y-49254057D01*
X97401944Y-50014407D01*
X97421944Y-50014407D01*
X97421944Y-50370007D01*
X97401944Y-50370007D01*
X97401944Y-50390007D01*
X97086640Y-50390007D01*
X97123556Y-50253874D01*
X97078691Y-49904990D01*
X97046344Y-49826897D01*
X97046344Y-49254057D01*
X96900294Y-49108007D01*
X95107940Y-49108007D01*
X94893222Y-49196946D01*
X94728883Y-49361284D01*
X94639944Y-49576002D01*
X94639944Y-49868357D01*
X94785994Y-50014407D01*
X95356224Y-50014407D01*
X95324732Y-50130540D01*
X95355526Y-50370007D01*
X94785994Y-50370007D01*
X94639944Y-50516057D01*
X94639944Y-50808412D01*
X94666034Y-50871400D01*
X83704955Y-50871400D01*
X83697393Y-50833384D01*
X83694197Y-50828601D01*
X83692847Y-50823011D01*
X83664109Y-50783571D01*
X83637000Y-50743000D01*
X83632219Y-50739805D01*
X83628831Y-50735156D01*
X83587193Y-50709720D01*
X83546616Y-50682607D01*
X83540973Y-50681485D01*
X83536066Y-50678487D01*
X83487866Y-50670921D01*
X83440000Y-50661400D01*
X83434359Y-50662522D01*
X83428676Y-50661630D01*
X83381241Y-50673088D01*
X83333384Y-50682607D01*
X83328601Y-50685803D01*
X83323011Y-50687153D01*
X83283571Y-50715891D01*
X83243000Y-50743000D01*
X83239805Y-50747781D01*
X83235156Y-50751169D01*
X83209715Y-50792815D01*
X83182607Y-50833384D01*
X83181485Y-50839025D01*
X83178486Y-50843934D01*
X83065540Y-51151400D01*
X79089430Y-51151400D01*
X76941439Y-45718892D01*
X81073471Y-45718892D01*
X81144247Y-45879678D01*
X81475000Y-45852526D01*
X81770185Y-45700865D01*
X81878792Y-45597830D01*
X81823848Y-45430969D01*
X81304698Y-45199742D01*
X81073471Y-45718892D01*
X76941439Y-45718892D01*
X76632509Y-44937575D01*
X80396390Y-44937575D01*
X80423542Y-45268328D01*
X80575203Y-45563513D01*
X80678238Y-45672120D01*
X80845099Y-45617176D01*
X81076326Y-45098026D01*
X80791959Y-44971370D01*
X81406414Y-44971370D01*
X81925564Y-45202597D01*
X82086350Y-45131821D01*
X82059198Y-44801068D01*
X81907537Y-44505883D01*
X81804502Y-44397276D01*
X81637641Y-44452220D01*
X81406414Y-44971370D01*
X80791959Y-44971370D01*
X80557176Y-44866799D01*
X80396390Y-44937575D01*
X76632509Y-44937575D01*
X76448251Y-44471566D01*
X80603948Y-44471566D01*
X80658892Y-44638427D01*
X81178042Y-44869654D01*
X81409269Y-44350504D01*
X81338493Y-44189718D01*
X81007740Y-44216870D01*
X80712555Y-44368531D01*
X80603948Y-44471566D01*
X76448251Y-44471566D01*
X74824931Y-40366009D01*
X84147449Y-40366009D01*
X84420173Y-40555103D01*
X84744500Y-40625436D01*
X84893830Y-40614828D01*
X84957366Y-40451046D01*
X84703224Y-39942721D01*
X84194900Y-40196864D01*
X84147449Y-40366009D01*
X74824931Y-40366009D01*
X74585470Y-39760387D01*
X83908713Y-39760387D01*
X83919321Y-39909717D01*
X84083103Y-39973253D01*
X84367781Y-39830925D01*
X84926834Y-39830925D01*
X85180977Y-40339249D01*
X85350122Y-40386700D01*
X85539216Y-40113976D01*
X85609549Y-39789649D01*
X85598941Y-39640319D01*
X85435159Y-39576783D01*
X84926834Y-39830925D01*
X84367781Y-39830925D01*
X84591428Y-39719111D01*
X84337285Y-39210787D01*
X84168140Y-39163336D01*
X83979046Y-39436060D01*
X83908713Y-39760387D01*
X74585470Y-39760387D01*
X74401886Y-39296085D01*
X78609015Y-39296085D01*
X78679791Y-39456871D01*
X79010544Y-39429719D01*
X79305729Y-39278058D01*
X79414336Y-39175023D01*
X79389300Y-39098990D01*
X84560896Y-39098990D01*
X84815038Y-39607315D01*
X85323362Y-39353172D01*
X85370813Y-39184027D01*
X85098089Y-38994933D01*
X84773762Y-38924600D01*
X84624432Y-38935208D01*
X84560896Y-39098990D01*
X79389300Y-39098990D01*
X79359392Y-39008162D01*
X78840242Y-38776935D01*
X78609015Y-39296085D01*
X74401886Y-39296085D01*
X74092956Y-38514768D01*
X77931934Y-38514768D01*
X77959086Y-38845521D01*
X78110747Y-39140706D01*
X78213782Y-39249313D01*
X78380643Y-39194369D01*
X78611870Y-38675219D01*
X78327503Y-38548563D01*
X78941958Y-38548563D01*
X79461108Y-38779790D01*
X79621894Y-38709014D01*
X79594742Y-38378261D01*
X79443081Y-38083076D01*
X79340046Y-37974469D01*
X79173185Y-38029413D01*
X78941958Y-38548563D01*
X78327503Y-38548563D01*
X78092720Y-38443992D01*
X77931934Y-38514768D01*
X74092956Y-38514768D01*
X73908698Y-38048759D01*
X78139492Y-38048759D01*
X78194436Y-38215620D01*
X78713586Y-38446847D01*
X78944813Y-37927697D01*
X78874037Y-37766911D01*
X78543284Y-37794063D01*
X78248099Y-37945724D01*
X78139492Y-38048759D01*
X73908698Y-38048759D01*
X73319083Y-36557560D01*
X73317840Y-36555634D01*
X73317393Y-36553384D01*
X73288420Y-36510023D01*
X73260159Y-36466210D01*
X73258273Y-36464905D01*
X73257000Y-36463000D01*
X73213658Y-36434039D01*
X73170763Y-36404364D01*
X73168522Y-36403880D01*
X73166616Y-36402607D01*
X73115492Y-36392438D01*
X73064504Y-36381436D01*
X73062247Y-36381847D01*
X73060000Y-36381400D01*
X72970000Y-36381400D01*
X72964312Y-36382531D01*
X72958582Y-36381634D01*
X72911201Y-36393096D01*
X72863384Y-36402607D01*
X72858561Y-36405830D01*
X72852925Y-36407193D01*
X72813537Y-36435914D01*
X72773000Y-36463000D01*
X72769778Y-36467822D01*
X72765092Y-36471239D01*
X72739695Y-36512844D01*
X72712607Y-36553384D01*
X72711475Y-36559074D01*
X72708454Y-36564023D01*
X71130094Y-40865200D01*
X70730386Y-40615383D01*
X70721749Y-40610729D01*
X70241749Y-40390729D01*
X70236903Y-40388707D01*
X69176903Y-39988707D01*
X69169499Y-39986337D01*
X68829499Y-39896337D01*
X68810650Y-39893803D01*
X68780954Y-39899553D01*
X68755834Y-39916404D01*
X68739250Y-39941700D01*
X68699250Y-40041700D01*
X68693803Y-40069350D01*
X68699553Y-40099046D01*
X68716404Y-40124166D01*
X68741700Y-40140750D01*
X68827177Y-40174941D01*
X68866118Y-40213882D01*
X68897591Y-40232830D01*
X69416091Y-40392368D01*
X69754639Y-40511856D01*
X69755903Y-40512290D01*
X69813013Y-40531327D01*
X70207369Y-40698928D01*
X70506369Y-40855547D01*
X70468481Y-40846075D01*
X70463338Y-40844976D01*
X70013338Y-40764976D01*
X69989305Y-40764554D01*
X69960795Y-40774659D01*
X69910795Y-40804659D01*
X69892781Y-40819677D01*
X69877710Y-40845903D01*
X69867710Y-40875903D01*
X69863800Y-40900000D01*
X69863800Y-40960000D01*
X69869401Y-40988673D01*
X69886118Y-41013882D01*
X69976118Y-41103882D01*
X70011519Y-41123925D01*
X70051519Y-41133925D01*
X70080776Y-41135434D01*
X70125342Y-41129067D01*
X70276779Y-41213475D01*
X69670221Y-41046532D01*
X69667315Y-41045793D01*
X68467315Y-40765793D01*
X68437473Y-40764837D01*
X68317473Y-40784837D01*
X68296867Y-40791380D01*
X68272781Y-40809677D01*
X68257710Y-40835903D01*
X68237710Y-40895903D01*
X68233800Y-40920000D01*
X68233800Y-40980000D01*
X68244165Y-41018370D01*
X68264280Y-41040960D01*
X68304280Y-41070960D01*
X68330056Y-41083544D01*
X69510056Y-41403544D01*
X69513173Y-41404319D01*
X70573173Y-41644319D01*
X70581097Y-41645678D01*
X70832822Y-41675293D01*
X68212017Y-48817228D01*
X68209205Y-48814659D01*
X68159205Y-48784659D01*
X68150017Y-48779961D01*
X68080017Y-48749961D01*
X68060733Y-48744560D01*
X68030537Y-48746328D01*
X68003408Y-48759704D01*
X67793348Y-48922023D01*
X67499227Y-49023127D01*
X67334309Y-49014447D01*
X67254097Y-48987710D01*
X67252409Y-48987170D01*
X67130230Y-48949576D01*
X66990627Y-48871050D01*
X66644236Y-48428439D01*
X66447431Y-48054510D01*
X66422268Y-48026598D01*
X66272268Y-47926598D01*
X66255173Y-47918078D01*
X66055173Y-47848078D01*
X66033624Y-47843886D01*
X65823624Y-47833886D01*
X65786872Y-47841378D01*
X65496872Y-47981378D01*
X65480472Y-47992091D01*
X65461845Y-48015922D01*
X65391845Y-48155922D01*
X65387710Y-48165903D01*
X65377710Y-48195903D01*
X65375280Y-48205056D01*
X65365280Y-48255056D01*
X65367650Y-48293914D01*
X65382654Y-48320178D01*
X65452654Y-48400178D01*
X65485903Y-48422290D01*
X65545903Y-48442290D01*
X65571006Y-48446193D01*
X65600570Y-48439799D01*
X65625318Y-48422406D01*
X65641348Y-48396756D01*
X65691824Y-48262153D01*
X65778638Y-48211512D01*
X65959559Y-48168435D01*
X66010985Y-48181291D01*
X66106984Y-48237291D01*
X66364000Y-48608537D01*
X66521434Y-48933244D01*
X66538621Y-48956273D01*
X66768621Y-49166273D01*
X66782194Y-49176160D01*
X66922194Y-49256160D01*
X66933244Y-49261348D01*
X67093244Y-49321348D01*
X67099066Y-49323268D01*
X67239066Y-49363268D01*
X67251266Y-49365698D01*
X67511266Y-49395698D01*
X67535541Y-49394598D01*
X67775541Y-49344598D01*
X67794078Y-49338155D01*
X68034078Y-49218155D01*
X68048253Y-49208976D01*
X68076846Y-49185582D01*
X67355469Y-51151400D01*
X63062461Y-51151400D01*
X62990571Y-50961406D01*
X62988249Y-50957686D01*
X62987393Y-50953384D01*
X62959550Y-50911715D01*
X62933006Y-50869194D01*
X62929435Y-50866645D01*
X62927000Y-50863000D01*
X62885332Y-50835158D01*
X62844535Y-50806032D01*
X62840263Y-50805044D01*
X62836616Y-50802607D01*
X62787465Y-50792830D01*
X62738627Y-50781533D01*
X62734300Y-50782255D01*
X62730000Y-50781400D01*
X62680850Y-50791176D01*
X62631406Y-50799429D01*
X62627686Y-50801751D01*
X62623384Y-50802607D01*
X62581715Y-50830450D01*
X62539194Y-50856994D01*
X62536645Y-50860565D01*
X62533000Y-50863000D01*
X62527387Y-50871400D01*
X51578954Y-50871400D01*
X51605044Y-50808412D01*
X51605044Y-50516057D01*
X51458994Y-50370007D01*
X50888764Y-50370007D01*
X50920256Y-50253874D01*
X50889462Y-50014407D01*
X51458994Y-50014407D01*
X51605044Y-49868357D01*
X51605044Y-49576002D01*
X51516105Y-49361284D01*
X51351766Y-49196946D01*
X51137048Y-49108007D01*
X49344694Y-49108007D01*
X49198644Y-49254057D01*
X49198644Y-49845809D01*
X49121432Y-50130540D01*
X49154798Y-50390007D01*
X48843044Y-50390007D01*
X48843044Y-50370007D01*
X48823044Y-50370007D01*
X48823044Y-50014407D01*
X48843044Y-50014407D01*
X48843044Y-49254057D01*
X48696994Y-49108007D01*
X46908600Y-49108007D01*
X46908600Y-48892188D01*
X46930164Y-48906922D01*
X47020844Y-48925285D01*
X51020844Y-48925285D01*
X51105558Y-48909345D01*
X51183362Y-48859279D01*
X51235559Y-48782887D01*
X51253922Y-48692207D01*
X51253922Y-47692207D01*
X51237982Y-47607493D01*
X51187916Y-47529689D01*
X51111524Y-47477492D01*
X51020844Y-47459129D01*
X47020844Y-47459129D01*
X46936130Y-47475069D01*
X46908600Y-47492784D01*
X46908600Y-47359591D01*
X63802554Y-47359591D01*
X64068539Y-47558053D01*
X64390224Y-47639620D01*
X64539832Y-47634211D01*
X64604359Y-47483624D01*
X65903886Y-47483624D01*
X65911293Y-47512951D01*
X65929526Y-47537086D01*
X65955712Y-47552225D01*
X67084459Y-47931804D01*
X67803244Y-48201348D01*
X67808104Y-48202986D01*
X67908104Y-48232986D01*
X67917473Y-48235163D01*
X67977473Y-48245163D01*
X68007458Y-48244173D01*
X68034940Y-48231537D01*
X68055341Y-48209205D01*
X68085341Y-48159205D01*
X68092290Y-48144097D01*
X68112290Y-48084097D01*
X68115163Y-48072527D01*
X68125163Y-48012527D01*
X68124173Y-47982542D01*
X68111537Y-47955060D01*
X68089205Y-47934659D01*
X68039205Y-47904659D01*
X68022946Y-47897337D01*
X67454502Y-47717828D01*
X67097933Y-47588167D01*
X67167500Y-47455357D01*
X67170750Y-47448300D01*
X67224252Y-47314544D01*
X67586410Y-47432456D01*
X67593628Y-47434420D01*
X68093628Y-47544420D01*
X68120695Y-47545446D01*
X68149205Y-47535341D01*
X68199205Y-47505341D01*
X68228155Y-47474078D01*
X68258155Y-47414078D01*
X68266200Y-47380000D01*
X68266200Y-47320000D01*
X68262616Y-47296904D01*
X68247909Y-47270472D01*
X68224078Y-47251845D01*
X68144078Y-47211845D01*
X68131591Y-47206923D01*
X66811591Y-46816923D01*
X66807880Y-46815927D01*
X66227880Y-46675927D01*
X66211053Y-46673807D01*
X66181327Y-46679401D01*
X66156118Y-46696118D01*
X66106118Y-46746118D01*
X66091845Y-46765922D01*
X66071845Y-46805922D01*
X66064878Y-46827225D01*
X66065827Y-46857458D01*
X66078463Y-46884940D01*
X66100795Y-46905341D01*
X66250795Y-46995341D01*
X66264119Y-47001670D01*
X66624119Y-47131670D01*
X66629950Y-47133515D01*
X66884026Y-47202808D01*
X66868609Y-47252914D01*
X66824882Y-47349114D01*
X66745340Y-47444564D01*
X66729517Y-47449839D01*
X66503224Y-47377425D01*
X66498094Y-47375979D01*
X66048094Y-47265979D01*
X66027794Y-47263832D01*
X65998334Y-47270691D01*
X65973864Y-47288471D01*
X65958239Y-47314371D01*
X65908239Y-47454371D01*
X65903886Y-47483624D01*
X64604359Y-47483624D01*
X64609025Y-47472736D01*
X64372710Y-46955883D01*
X63855857Y-47192198D01*
X63802554Y-47359591D01*
X46908600Y-47359591D01*
X46908600Y-47276407D01*
X48696994Y-47276407D01*
X48843044Y-47130357D01*
X48843044Y-46370007D01*
X48823044Y-46370007D01*
X48823044Y-46014407D01*
X48843044Y-46014407D01*
X48843044Y-45994407D01*
X49158348Y-45994407D01*
X49121432Y-46130540D01*
X49166297Y-46479424D01*
X49198644Y-46557517D01*
X49198644Y-47130357D01*
X49344694Y-47276407D01*
X51137048Y-47276407D01*
X51351766Y-47187468D01*
X51516105Y-47023130D01*
X51605044Y-46808412D01*
X51605044Y-46746035D01*
X63585019Y-46746035D01*
X63590428Y-46895643D01*
X63751903Y-46964836D01*
X63998845Y-46851929D01*
X64600072Y-46851929D01*
X64836387Y-47368782D01*
X65003780Y-47422085D01*
X65202242Y-47156100D01*
X65283809Y-46834415D01*
X65278400Y-46684807D01*
X65116925Y-46615614D01*
X64600072Y-46851929D01*
X63998845Y-46851929D01*
X64268756Y-46728521D01*
X64032441Y-46211668D01*
X63865048Y-46158365D01*
X63666586Y-46424350D01*
X63585019Y-46746035D01*
X51605044Y-46746035D01*
X51605044Y-46516057D01*
X51458994Y-46370007D01*
X50888764Y-46370007D01*
X50920256Y-46253874D01*
X50901461Y-46107714D01*
X64259803Y-46107714D01*
X64496118Y-46624567D01*
X65012971Y-46388252D01*
X65066274Y-46220859D01*
X65028303Y-46192527D01*
X66204837Y-46192527D01*
X66224837Y-46312527D01*
X66242862Y-46350416D01*
X66392862Y-46520416D01*
X66411821Y-46535945D01*
X66601821Y-46645945D01*
X66625056Y-46654720D01*
X66775056Y-46684720D01*
X66818300Y-46680750D01*
X67168300Y-46540750D01*
X67190975Y-46526639D01*
X67359748Y-46374743D01*
X67709315Y-46473339D01*
X67738415Y-46475734D01*
X67800828Y-46468799D01*
X67927732Y-46553402D01*
X67943143Y-46561310D01*
X68713143Y-46851310D01*
X68727473Y-46855163D01*
X68787473Y-46865163D01*
X68817458Y-46864173D01*
X68844940Y-46851537D01*
X68865341Y-46829205D01*
X68895341Y-46779205D01*
X68900750Y-46768300D01*
X68940750Y-46668300D01*
X68946138Y-46643080D01*
X68941338Y-46613216D01*
X68925297Y-46587572D01*
X68900542Y-46570189D01*
X68262334Y-46290973D01*
X68024078Y-46171845D01*
X67980549Y-46164388D01*
X67957234Y-46167302D01*
X67952612Y-46156570D01*
X67930783Y-46135632D01*
X67902527Y-46124837D01*
X67729827Y-46096054D01*
X67257540Y-45918946D01*
X67208300Y-45899250D01*
X67194944Y-45895280D01*
X67144944Y-45885280D01*
X67128232Y-45883821D01*
X67098733Y-45890510D01*
X67090950Y-45896097D01*
X67083110Y-45877297D01*
X67061524Y-45856108D01*
X67033395Y-45844987D01*
X66753395Y-45794987D01*
X66726605Y-45794987D01*
X66446605Y-45844987D01*
X66431327Y-45849401D01*
X66406118Y-45866118D01*
X66286118Y-45986118D01*
X66271845Y-46005922D01*
X66231845Y-46085922D01*
X66227710Y-46095903D01*
X66207710Y-46155903D01*
X66205555Y-46183369D01*
X66204837Y-46192527D01*
X65028303Y-46192527D01*
X64800289Y-46022397D01*
X64478604Y-45940830D01*
X64328996Y-45946239D01*
X64259803Y-46107714D01*
X50901461Y-46107714D01*
X50889462Y-46014407D01*
X51458994Y-46014407D01*
X51605044Y-45868357D01*
X51605044Y-45576002D01*
X51543988Y-45428600D01*
X60560000Y-45428600D01*
X60607862Y-45419080D01*
X60656053Y-45411518D01*
X60660966Y-45408517D01*
X60666616Y-45407393D01*
X60707194Y-45380279D01*
X60748820Y-45354853D01*
X60752211Y-45350200D01*
X60757000Y-45347000D01*
X60761677Y-45340000D01*
X66443800Y-45340000D01*
X66443800Y-45390000D01*
X66446055Y-45408401D01*
X66459040Y-45435720D01*
X66519040Y-45515720D01*
X66553183Y-45541325D01*
X66583046Y-45546139D01*
X67078878Y-45526306D01*
X67787212Y-45575496D01*
X67997264Y-45632782D01*
X68674639Y-45871856D01*
X68684302Y-45874565D01*
X69064302Y-45954565D01*
X69083826Y-45956104D01*
X69113133Y-45948620D01*
X69137219Y-45930323D01*
X69152290Y-45904097D01*
X69182290Y-45814097D01*
X69185612Y-45780549D01*
X69175612Y-45700549D01*
X69166541Y-45672869D01*
X69146853Y-45649906D01*
X69119782Y-45636412D01*
X68192502Y-45387143D01*
X67830466Y-45260430D01*
X67822290Y-45235903D01*
X67796592Y-45199704D01*
X67356592Y-44859704D01*
X67353296Y-44857295D01*
X66933296Y-44567295D01*
X66914097Y-44557710D01*
X66854097Y-44537710D01*
X66836976Y-44534120D01*
X66806904Y-44537384D01*
X66780472Y-44552091D01*
X66761845Y-44575922D01*
X66731845Y-44635922D01*
X66724031Y-44664073D01*
X66727710Y-44694097D01*
X66747710Y-44754097D01*
X66768924Y-44786548D01*
X67078924Y-45066548D01*
X67084596Y-45071196D01*
X67249845Y-45193800D01*
X67040000Y-45193800D01*
X67034931Y-45193969D01*
X66584931Y-45223969D01*
X66552194Y-45233840D01*
X66482194Y-45273840D01*
X66466868Y-45285379D01*
X66449803Y-45310354D01*
X66443800Y-45340000D01*
X60761677Y-45340000D01*
X60784114Y-45306421D01*
X60812841Y-45267001D01*
X60814193Y-45261405D01*
X60817393Y-45256616D01*
X60826913Y-45208754D01*
X60838369Y-45161337D01*
X60837476Y-45155649D01*
X60838600Y-45150000D01*
X60829080Y-45102140D01*
X60821518Y-45053947D01*
X60173550Y-43289760D01*
X61557918Y-43289760D01*
X61630627Y-43465729D01*
X61765142Y-43600478D01*
X61940984Y-43673494D01*
X62131383Y-43673661D01*
X62307352Y-43600952D01*
X62338605Y-43569753D01*
X62768088Y-44848093D01*
X62810177Y-44923319D01*
X62882415Y-44981128D01*
X62971453Y-45006277D01*
X63063260Y-44994805D01*
X65907053Y-44039378D01*
X65959559Y-44010000D01*
X67233800Y-44010000D01*
X67233800Y-44060000D01*
X67236215Y-44079032D01*
X67249433Y-44106239D01*
X67272194Y-44126160D01*
X67552194Y-44286160D01*
X67562646Y-44291121D01*
X67822646Y-44391121D01*
X67823411Y-44391411D01*
X68759121Y-44739814D01*
X69001172Y-44864743D01*
X68991072Y-44887468D01*
X68881845Y-45105922D01*
X68875150Y-45125722D01*
X68875492Y-45155968D01*
X68887575Y-45183698D01*
X68957575Y-45283698D01*
X68979896Y-45304793D01*
X69008264Y-45315291D01*
X69038481Y-45313925D01*
X69118481Y-45293925D01*
X69150416Y-45277138D01*
X69320416Y-45127138D01*
X69331540Y-45114936D01*
X69344174Y-45087453D01*
X69384174Y-44917453D01*
X69386165Y-44897702D01*
X69379271Y-44868251D01*
X69269271Y-44628251D01*
X69257909Y-44610472D01*
X69234078Y-44591845D01*
X69074078Y-44511845D01*
X69070448Y-44510148D01*
X68680448Y-44340148D01*
X68677253Y-44338840D01*
X68207253Y-44158840D01*
X68206857Y-44158690D01*
X67436857Y-43868690D01*
X67422527Y-43864837D01*
X67362527Y-43854837D01*
X67332542Y-43855827D01*
X67305060Y-43868463D01*
X67284659Y-43890795D01*
X67254659Y-43940795D01*
X67247710Y-43955903D01*
X67237710Y-43985903D01*
X67233800Y-44010000D01*
X65959559Y-44010000D01*
X65982279Y-43997288D01*
X66040088Y-43925051D01*
X66065237Y-43836013D01*
X66053765Y-43744206D01*
X65773498Y-42910000D01*
X67383800Y-42910000D01*
X67383800Y-42960000D01*
X67386055Y-42978401D01*
X67399040Y-43005720D01*
X67459040Y-43085720D01*
X67481110Y-43105528D01*
X67509668Y-43115496D01*
X67539854Y-43113568D01*
X67566912Y-43100047D01*
X67874489Y-42859753D01*
X68077648Y-42806755D01*
X68585959Y-42835527D01*
X68854651Y-42921892D01*
X68978783Y-42969635D01*
X69301045Y-43135649D01*
X69595462Y-43335093D01*
X69667641Y-43439351D01*
X69671517Y-43462606D01*
X69618531Y-43606423D01*
X69511802Y-43663346D01*
X69123250Y-43654094D01*
X68835981Y-43558338D01*
X68769632Y-43409052D01*
X68745786Y-43379090D01*
X68718481Y-43366075D01*
X68678481Y-43356075D01*
X68660000Y-43353800D01*
X68610000Y-43353800D01*
X68591599Y-43356055D01*
X68564280Y-43369040D01*
X68484280Y-43429040D01*
X68458652Y-43463244D01*
X68398652Y-43623244D01*
X68396075Y-43631519D01*
X68376075Y-43711519D01*
X68376075Y-43748481D01*
X68406075Y-43868481D01*
X68412999Y-43886295D01*
X68432398Y-43909502D01*
X68482398Y-43949502D01*
X68497197Y-43958778D01*
X68526540Y-43966121D01*
X68740863Y-43975863D01*
X69345292Y-44094767D01*
X69366601Y-44095914D01*
X69596601Y-44075914D01*
X69629819Y-44064968D01*
X69939819Y-43874968D01*
X69968155Y-43844078D01*
X70058155Y-43664078D01*
X70063515Y-43650050D01*
X70093515Y-43540050D01*
X70092899Y-43497813D01*
X70022899Y-43267813D01*
X70005065Y-43237329D01*
X69785065Y-43007329D01*
X69773464Y-42997412D01*
X69413464Y-42747412D01*
X69406293Y-42742998D01*
X69166293Y-42612998D01*
X69148481Y-42606075D01*
X69109269Y-42596272D01*
X68780050Y-42506485D01*
X68768118Y-42504234D01*
X68208118Y-42444234D01*
X68188966Y-42444603D01*
X67778966Y-42504603D01*
X67746626Y-42517349D01*
X67486626Y-42697349D01*
X67460949Y-42727776D01*
X67390949Y-42877776D01*
X67383800Y-42910000D01*
X65773498Y-42910000D01*
X65110557Y-40936784D01*
X66194900Y-40936784D01*
X66460885Y-41135246D01*
X66782570Y-41216813D01*
X66932178Y-41211404D01*
X67001371Y-41049929D01*
X66765056Y-40533076D01*
X66248203Y-40769391D01*
X66194900Y-40936784D01*
X65110557Y-40936784D01*
X64907252Y-40331655D01*
X64902538Y-40323228D01*
X65977365Y-40323228D01*
X65982774Y-40472836D01*
X66144249Y-40542029D01*
X66391191Y-40429122D01*
X66992418Y-40429122D01*
X67228733Y-40945975D01*
X67396126Y-40999278D01*
X67594588Y-40733293D01*
X67676155Y-40411608D01*
X67670746Y-40262000D01*
X67509271Y-40192807D01*
X66992418Y-40429122D01*
X66391191Y-40429122D01*
X66661102Y-40305714D01*
X66424787Y-39788861D01*
X66257394Y-39735558D01*
X66058932Y-40001543D01*
X65977365Y-40323228D01*
X64902538Y-40323228D01*
X64865163Y-40256429D01*
X64792925Y-40198620D01*
X64703887Y-40173471D01*
X64612080Y-40184943D01*
X61768287Y-41140370D01*
X61693061Y-41182460D01*
X61635252Y-41254697D01*
X61610103Y-41343735D01*
X61621575Y-41435542D01*
X62051901Y-42716392D01*
X61941819Y-42716295D01*
X61765850Y-42789004D01*
X61631101Y-42923519D01*
X61558085Y-43099361D01*
X61557918Y-43289760D01*
X60173550Y-43289760D01*
X58870900Y-39743105D01*
X63241577Y-39743105D01*
X63308354Y-39905593D01*
X63639677Y-39886631D01*
X63938524Y-39742319D01*
X64002119Y-39684907D01*
X66652149Y-39684907D01*
X66888464Y-40201760D01*
X67405317Y-39965445D01*
X67458620Y-39798052D01*
X67192635Y-39599590D01*
X66870950Y-39518023D01*
X66721342Y-39523432D01*
X66652149Y-39684907D01*
X64002119Y-39684907D01*
X64049646Y-39642002D01*
X63998846Y-39473833D01*
X63539619Y-39255525D01*
X69053931Y-39255525D01*
X69063663Y-39297495D01*
X69193663Y-39527495D01*
X69203450Y-39541074D01*
X69227776Y-39559051D01*
X69377776Y-39629051D01*
X69383398Y-39631406D01*
X69893398Y-39821406D01*
X69893535Y-39821456D01*
X70163535Y-39921456D01*
X70172278Y-39924111D01*
X70632278Y-40034111D01*
X70643842Y-40035951D01*
X71013842Y-40065951D01*
X71036530Y-40064385D01*
X71306530Y-40004385D01*
X71333698Y-39992425D01*
X71433698Y-39922425D01*
X71460750Y-39888300D01*
X71500750Y-39788300D01*
X71503268Y-39780934D01*
X71523268Y-39710934D01*
X71526136Y-39693111D01*
X71521348Y-39663244D01*
X71461348Y-39503244D01*
X71450149Y-39483218D01*
X71380149Y-39393218D01*
X71346084Y-39368404D01*
X71316174Y-39363896D01*
X71302621Y-39367357D01*
X71305246Y-39337982D01*
X71294642Y-39309654D01*
X71273853Y-39287683D01*
X71003853Y-39097683D01*
X70992822Y-39091231D01*
X70552822Y-38881231D01*
X70544097Y-38877710D01*
X70094097Y-38727710D01*
X70077582Y-38724178D01*
X69577582Y-38674178D01*
X69552217Y-38675904D01*
X69302217Y-38735904D01*
X69280795Y-38744659D01*
X69180795Y-38804659D01*
X69164161Y-38818150D01*
X69148388Y-38843959D01*
X69069477Y-39060963D01*
X69068388Y-39063959D01*
X69063931Y-39085525D01*
X69053931Y-39255525D01*
X63539619Y-39255525D01*
X63485576Y-39229834D01*
X63241577Y-39743105D01*
X58870900Y-39743105D01*
X58577866Y-38945278D01*
X62584031Y-38945278D01*
X62602993Y-39276601D01*
X62747305Y-39575448D01*
X62847622Y-39686570D01*
X63015791Y-39635770D01*
X63259790Y-39122500D01*
X63010617Y-39004048D01*
X63592910Y-39004048D01*
X64106181Y-39248047D01*
X64268669Y-39181270D01*
X64249707Y-38849947D01*
X64105395Y-38551100D01*
X64005078Y-38439978D01*
X63836909Y-38490778D01*
X63592910Y-39004048D01*
X63010617Y-39004048D01*
X62746519Y-38878501D01*
X62584031Y-38945278D01*
X58577866Y-38945278D01*
X58408644Y-38484546D01*
X62803054Y-38484546D01*
X62853854Y-38652715D01*
X63367124Y-38896714D01*
X63611123Y-38383443D01*
X63544346Y-38220955D01*
X63213023Y-38239917D01*
X62914176Y-38384229D01*
X62803054Y-38484546D01*
X58408644Y-38484546D01*
X58133323Y-37734944D01*
X69575280Y-37734944D01*
X69585280Y-37784944D01*
X69598709Y-37815276D01*
X69621153Y-37835554D01*
X69891153Y-37995554D01*
X69903535Y-38001456D01*
X70173160Y-38101317D01*
X71099928Y-38450100D01*
X71348353Y-38570306D01*
X71339299Y-38600486D01*
X71223104Y-38813511D01*
X71215150Y-38835722D01*
X71215492Y-38865968D01*
X71227575Y-38893698D01*
X71297575Y-38993698D01*
X71319896Y-39014793D01*
X71348264Y-39025291D01*
X71378481Y-39023925D01*
X71458481Y-39003925D01*
X71490416Y-38987138D01*
X71660416Y-38837138D01*
X71683104Y-38801501D01*
X71733104Y-38631501D01*
X71736044Y-38605123D01*
X71728155Y-38575922D01*
X71608155Y-38335922D01*
X71599192Y-38322013D01*
X71575859Y-38302765D01*
X71425859Y-38222765D01*
X71421270Y-38220512D01*
X71021270Y-38040512D01*
X71016415Y-38038525D01*
X70556415Y-37868525D01*
X69776555Y-37578577D01*
X69762527Y-37574837D01*
X69702527Y-37564837D01*
X69672542Y-37565827D01*
X69645060Y-37578463D01*
X69624659Y-37600795D01*
X69594659Y-37650795D01*
X69587710Y-37665903D01*
X69577710Y-37695903D01*
X69575280Y-37734944D01*
X58133323Y-37734944D01*
X56730850Y-33916513D01*
X61169742Y-33916513D01*
X61236519Y-34079001D01*
X61567842Y-34060039D01*
X61866689Y-33915727D01*
X61977811Y-33815410D01*
X61927011Y-33647241D01*
X61413741Y-33403242D01*
X61169742Y-33916513D01*
X56730850Y-33916513D01*
X56437816Y-33118686D01*
X60512196Y-33118686D01*
X60531158Y-33450009D01*
X60675470Y-33748856D01*
X60775787Y-33859978D01*
X60943956Y-33809178D01*
X61187955Y-33295908D01*
X60938782Y-33177456D01*
X61521075Y-33177456D01*
X62034346Y-33421455D01*
X62196834Y-33354678D01*
X62177872Y-33023355D01*
X62033560Y-32724508D01*
X61933243Y-32613386D01*
X61765074Y-32664186D01*
X61521075Y-33177456D01*
X60938782Y-33177456D01*
X60674684Y-33051909D01*
X60512196Y-33118686D01*
X56437816Y-33118686D01*
X56268594Y-32657954D01*
X60731219Y-32657954D01*
X60782019Y-32826123D01*
X61295289Y-33070122D01*
X61539288Y-32556851D01*
X61472511Y-32394363D01*
X61141188Y-32413325D01*
X60842341Y-32557637D01*
X60731219Y-32657954D01*
X56268594Y-32657954D01*
X54590798Y-28089914D01*
X59097904Y-28089914D01*
X59164681Y-28252402D01*
X59496004Y-28233440D01*
X59794851Y-28089128D01*
X59905973Y-27988811D01*
X59855173Y-27820642D01*
X59341903Y-27576643D01*
X59097904Y-28089914D01*
X54590798Y-28089914D01*
X54297764Y-27292087D01*
X58440358Y-27292087D01*
X58459320Y-27623410D01*
X58603632Y-27922257D01*
X58703949Y-28033379D01*
X58872118Y-27982579D01*
X59116117Y-27469309D01*
X58866944Y-27350857D01*
X59449237Y-27350857D01*
X59962508Y-27594856D01*
X60124996Y-27528079D01*
X60106034Y-27196756D01*
X59961722Y-26897909D01*
X59861405Y-26786787D01*
X59693236Y-26837587D01*
X59449237Y-27350857D01*
X58866944Y-27350857D01*
X58602846Y-27225310D01*
X58440358Y-27292087D01*
X54297764Y-27292087D01*
X54128542Y-26831355D01*
X58659381Y-26831355D01*
X58710181Y-26999524D01*
X59223451Y-27243523D01*
X59467450Y-26730252D01*
X59400673Y-26567764D01*
X59069350Y-26586726D01*
X58770503Y-26731038D01*
X58659381Y-26831355D01*
X54128542Y-26831355D01*
X52450747Y-22263320D01*
X57026069Y-22263320D01*
X57092846Y-22425808D01*
X57424169Y-22406846D01*
X57723016Y-22262534D01*
X57834138Y-22162217D01*
X57783338Y-21994048D01*
X57270068Y-21750049D01*
X57026069Y-22263320D01*
X52450747Y-22263320D01*
X52157713Y-21465493D01*
X56368523Y-21465493D01*
X56387485Y-21796816D01*
X56531797Y-22095663D01*
X56632114Y-22206785D01*
X56800283Y-22155985D01*
X57044282Y-21642715D01*
X56795109Y-21524263D01*
X57377402Y-21524263D01*
X57890673Y-21768262D01*
X58053161Y-21701485D01*
X58034199Y-21370162D01*
X57889887Y-21071315D01*
X57789570Y-20960193D01*
X57621401Y-21010993D01*
X57377402Y-21524263D01*
X56795109Y-21524263D01*
X56531011Y-21398716D01*
X56368523Y-21465493D01*
X52157713Y-21465493D01*
X51988491Y-21004761D01*
X56587546Y-21004761D01*
X56638346Y-21172930D01*
X57151616Y-21416929D01*
X57395615Y-20903658D01*
X57328838Y-20741170D01*
X56997515Y-20760132D01*
X56698668Y-20904444D01*
X56587546Y-21004761D01*
X51988491Y-21004761D01*
X51608600Y-19970455D01*
X51608600Y-18998600D01*
X60031546Y-18998600D01*
X63022907Y-27650087D01*
X63022907Y-27650087D01*
G37*
X63022907Y-27650087D02*
X65430041Y-37088846D01*
X65438693Y-37106940D01*
X65442607Y-37126616D01*
X65461932Y-37155537D01*
X65476936Y-37186915D01*
X65491856Y-37200322D01*
X65503000Y-37217000D01*
X65531922Y-37236325D01*
X65557792Y-37259572D01*
X65576705Y-37266248D01*
X65593384Y-37277393D01*
X65627502Y-37284179D01*
X65660297Y-37295756D01*
X65680325Y-37294686D01*
X65700000Y-37298600D01*
X65830000Y-37298600D01*
X65842404Y-37296133D01*
X65854980Y-37297478D01*
X65895347Y-37285602D01*
X65936616Y-37277393D01*
X65947132Y-37270366D01*
X65959264Y-37266797D01*
X65992014Y-37240377D01*
X66027000Y-37217000D01*
X66034025Y-37206486D01*
X66043870Y-37198544D01*
X66064016Y-37161602D01*
X66087393Y-37126616D01*
X66089861Y-37114210D01*
X66095915Y-37103108D01*
X66246903Y-36620000D01*
X69723800Y-36620000D01*
X69723800Y-36670000D01*
X69726055Y-36688401D01*
X69739040Y-36715720D01*
X69799040Y-36795720D01*
X69821110Y-36815528D01*
X69849668Y-36825496D01*
X69879854Y-36823568D01*
X69906912Y-36810047D01*
X70214168Y-36570003D01*
X70427209Y-36516743D01*
X70925922Y-36545515D01*
X71194651Y-36631892D01*
X71320061Y-36680127D01*
X71650883Y-36835808D01*
X71936205Y-37045044D01*
X72017973Y-37151342D01*
X72021210Y-37170763D01*
X71960269Y-37315497D01*
X71851802Y-37373346D01*
X71463250Y-37364094D01*
X71175981Y-37268338D01*
X71109632Y-37119052D01*
X71090323Y-37092781D01*
X71064097Y-37077710D01*
X71034097Y-37067710D01*
X71010000Y-37063800D01*
X70950000Y-37063800D01*
X70931599Y-37066055D01*
X70904280Y-37079040D01*
X70824280Y-37139040D01*
X70798652Y-37173244D01*
X70738652Y-37333244D01*
X70736075Y-37341519D01*
X70716075Y-37421519D01*
X70716075Y-37458481D01*
X70746075Y-37578481D01*
X70752999Y-37596295D01*
X70772398Y-37619502D01*
X70822398Y-37659502D01*
X70837197Y-37668778D01*
X70866540Y-37676121D01*
X71080977Y-37685868D01*
X71695520Y-37804812D01*
X71716899Y-37805887D01*
X71936899Y-37785887D01*
X71970386Y-37774617D01*
X72290386Y-37574617D01*
X72318947Y-37542446D01*
X72398947Y-37372446D01*
X72403515Y-37360050D01*
X72433515Y-37250050D01*
X72432899Y-37207813D01*
X72362899Y-36977813D01*
X72346273Y-36948621D01*
X72136273Y-36718621D01*
X72122661Y-36706862D01*
X71752661Y-36456862D01*
X71746293Y-36452998D01*
X71506293Y-36322998D01*
X71494097Y-36317710D01*
X71464097Y-36307710D01*
X71459499Y-36306337D01*
X71119499Y-36216337D01*
X71108118Y-36214234D01*
X70548118Y-36154234D01*
X70530549Y-36154388D01*
X70130549Y-36204388D01*
X70096147Y-36217683D01*
X69826147Y-36407683D01*
X69800949Y-36437776D01*
X69730949Y-36587776D01*
X69723800Y-36620000D01*
X66246903Y-36620000D01*
X66905109Y-34513978D01*
X68587250Y-34513978D01*
X68853235Y-34712440D01*
X69174920Y-34794007D01*
X69324528Y-34788598D01*
X69393721Y-34627123D01*
X69157406Y-34110270D01*
X68640553Y-34346585D01*
X68587250Y-34513978D01*
X66905109Y-34513978D01*
X67096867Y-33900422D01*
X68369715Y-33900422D01*
X68375124Y-34050030D01*
X68536599Y-34119223D01*
X68783541Y-34006316D01*
X69384768Y-34006316D01*
X69621083Y-34523169D01*
X69788476Y-34576472D01*
X69986938Y-34310487D01*
X70068505Y-33988802D01*
X70063096Y-33839194D01*
X69901621Y-33770001D01*
X69384768Y-34006316D01*
X68783541Y-34006316D01*
X69053452Y-33882908D01*
X68817137Y-33366055D01*
X68649744Y-33312752D01*
X68451282Y-33578737D01*
X68369715Y-33900422D01*
X67096867Y-33900422D01*
X67296364Y-33262101D01*
X69044499Y-33262101D01*
X69280814Y-33778954D01*
X69797667Y-33542639D01*
X69850970Y-33375246D01*
X69584985Y-33176784D01*
X69263300Y-33095217D01*
X69113692Y-33100626D01*
X69044499Y-33262101D01*
X67296364Y-33262101D01*
X67417883Y-32873281D01*
X76144565Y-32873281D01*
X76215341Y-33034067D01*
X76546094Y-33006915D01*
X76841279Y-32855254D01*
X76949886Y-32752219D01*
X76894942Y-32585358D01*
X76375792Y-32354131D01*
X76144565Y-32873281D01*
X67417883Y-32873281D01*
X67662072Y-32091964D01*
X75467484Y-32091964D01*
X75494636Y-32422717D01*
X75646297Y-32717902D01*
X75749332Y-32826509D01*
X75916193Y-32771565D01*
X76147420Y-32252415D01*
X75863053Y-32125759D01*
X76477508Y-32125759D01*
X76996658Y-32356986D01*
X77157444Y-32286210D01*
X77130292Y-31955457D01*
X76978631Y-31660272D01*
X76875596Y-31551665D01*
X76708735Y-31606609D01*
X76477508Y-32125759D01*
X75863053Y-32125759D01*
X75628270Y-32021188D01*
X75467484Y-32091964D01*
X67662072Y-32091964D01*
X67807716Y-31625955D01*
X75675042Y-31625955D01*
X75729986Y-31792816D01*
X76249136Y-32024043D01*
X76480363Y-31504893D01*
X76409587Y-31344107D01*
X76078834Y-31371259D01*
X75783649Y-31522920D01*
X75675042Y-31625955D01*
X67807716Y-31625955D01*
X69425237Y-26450473D01*
X73680099Y-26450473D01*
X73750875Y-26611259D01*
X74081628Y-26584107D01*
X74376813Y-26432446D01*
X74485420Y-26329411D01*
X74430476Y-26162550D01*
X73911326Y-25931323D01*
X73680099Y-26450473D01*
X69425237Y-26450473D01*
X69669427Y-25669156D01*
X73003018Y-25669156D01*
X73030170Y-25999909D01*
X73181831Y-26295094D01*
X73284866Y-26403701D01*
X73451727Y-26348757D01*
X73682954Y-25829607D01*
X73398587Y-25702951D01*
X74013042Y-25702951D01*
X74532192Y-25934178D01*
X74692978Y-25863402D01*
X74665826Y-25532649D01*
X74514165Y-25237464D01*
X74411130Y-25128857D01*
X74244269Y-25183801D01*
X74013042Y-25702951D01*
X73398587Y-25702951D01*
X73163804Y-25598380D01*
X73003018Y-25669156D01*
X69669427Y-25669156D01*
X69815071Y-25203147D01*
X73210576Y-25203147D01*
X73265520Y-25370008D01*
X73784670Y-25601235D01*
X74015897Y-25082085D01*
X73945121Y-24921299D01*
X73614368Y-24948451D01*
X73319183Y-25100112D01*
X73210576Y-25203147D01*
X69815071Y-25203147D01*
X71594818Y-19508600D01*
X74528230Y-19508600D01*
X80305298Y-37106895D01*
X80310529Y-37116170D01*
X80312607Y-37126616D01*
X80337069Y-37163226D01*
X80358700Y-37201578D01*
X80367084Y-37208146D01*
X80373000Y-37217000D01*
X80409607Y-37241460D01*
X80444271Y-37268617D01*
X80454530Y-37271477D01*
X80463384Y-37277393D01*
X80506562Y-37285982D01*
X80548983Y-37297807D01*
X80559557Y-37296523D01*
X80570000Y-37298600D01*
X80710000Y-37298600D01*
X80733477Y-37293930D01*
X80757411Y-37294537D01*
X80786280Y-37283427D01*
X80816616Y-37277393D01*
X80836522Y-37264092D01*
X80858862Y-37255495D01*
X80881281Y-37234185D01*
X80907000Y-37217000D01*
X80920299Y-37197097D01*
X80937651Y-37180603D01*
X80950209Y-37152334D01*
X80967393Y-37126616D01*
X80972063Y-37103137D01*
X80981782Y-37081259D01*
X81450368Y-35002319D01*
X82055065Y-35002319D01*
X82066537Y-35094126D01*
X82894574Y-37558747D01*
X82936663Y-37633973D01*
X83008901Y-37691782D01*
X83097939Y-37716931D01*
X83189746Y-37705459D01*
X86033539Y-36750032D01*
X86108765Y-36707943D01*
X86166574Y-36635705D01*
X86191723Y-36546667D01*
X86180251Y-36454860D01*
X85526200Y-34508101D01*
X86100289Y-34508101D01*
X86373013Y-34697195D01*
X86697340Y-34767528D01*
X86846670Y-34756920D01*
X86910206Y-34593138D01*
X86656064Y-34084813D01*
X86147740Y-34338956D01*
X86100289Y-34508101D01*
X85526200Y-34508101D01*
X85352214Y-33990239D01*
X85310125Y-33915013D01*
X85294463Y-33902479D01*
X85861553Y-33902479D01*
X85872161Y-34051809D01*
X86035943Y-34115345D01*
X86320621Y-33973017D01*
X86879674Y-33973017D01*
X87133817Y-34481341D01*
X87302962Y-34528792D01*
X87492056Y-34256068D01*
X87562389Y-33931741D01*
X87551781Y-33782411D01*
X87387999Y-33718875D01*
X86879674Y-33973017D01*
X86320621Y-33973017D01*
X86544268Y-33861203D01*
X86290125Y-33352879D01*
X86120980Y-33305428D01*
X85931886Y-33578152D01*
X85861553Y-33902479D01*
X85294463Y-33902479D01*
X85237887Y-33857204D01*
X85148849Y-33832055D01*
X85057042Y-33843527D01*
X84850449Y-33912936D01*
X84983561Y-33241082D01*
X86513736Y-33241082D01*
X86767878Y-33749407D01*
X87276202Y-33495264D01*
X87323653Y-33326119D01*
X87050929Y-33137025D01*
X86726602Y-33066692D01*
X86577272Y-33077300D01*
X86513736Y-33241082D01*
X84983561Y-33241082D01*
X85359828Y-31341975D01*
X85677964Y-31344400D01*
X85762797Y-31329106D01*
X85840981Y-31279635D01*
X85893758Y-31203643D01*
X85912812Y-31113106D01*
X85919672Y-30213132D01*
X85904378Y-30128299D01*
X85854907Y-30050115D01*
X85837408Y-30037962D01*
X85850509Y-30029672D01*
X85903286Y-29953680D01*
X85922340Y-29863143D01*
X85929200Y-28963169D01*
X85913906Y-28878336D01*
X85864435Y-28800152D01*
X85846936Y-28787998D01*
X85860038Y-28779708D01*
X85912815Y-28703716D01*
X85931869Y-28613179D01*
X85938729Y-27713205D01*
X85923435Y-27628372D01*
X85893418Y-27580932D01*
X86420108Y-27584948D01*
X86391615Y-27625974D01*
X86372561Y-27716511D01*
X86365701Y-28616485D01*
X86380995Y-28701318D01*
X86430466Y-28779502D01*
X86447965Y-28791655D01*
X86434864Y-28799945D01*
X86382087Y-28875937D01*
X86363033Y-28966474D01*
X86356173Y-29866448D01*
X86371467Y-29951281D01*
X86420938Y-30029465D01*
X86438437Y-30041619D01*
X86425335Y-30049909D01*
X86372558Y-30125901D01*
X86353504Y-30216438D01*
X86346644Y-31116412D01*
X86361938Y-31201245D01*
X86411409Y-31279429D01*
X86487400Y-31332206D01*
X86577938Y-31351260D01*
X87177920Y-31355834D01*
X87262753Y-31340540D01*
X87340937Y-31291069D01*
X87393714Y-31215077D01*
X87412768Y-31124540D01*
X87413659Y-31007621D01*
X87880568Y-31011180D01*
X87880572Y-31011179D01*
X88030563Y-31012323D01*
X88115396Y-30997029D01*
X88193580Y-30947558D01*
X88246357Y-30871566D01*
X88265411Y-30781029D01*
X88280453Y-28807809D01*
X88325853Y-28839287D01*
X88650180Y-28909620D01*
X88799510Y-28899012D01*
X88863046Y-28735230D01*
X88608904Y-28226905D01*
X88571488Y-28245611D01*
X88399220Y-28073343D01*
X88285182Y-28187381D01*
X88285780Y-28108950D01*
X88497108Y-28003295D01*
X88478402Y-27965879D01*
X88492404Y-27951877D01*
X88980042Y-27955594D01*
X89127198Y-27810665D01*
X89126085Y-27956708D01*
X89148992Y-27956883D01*
X88832514Y-28115109D01*
X89086657Y-28623433D01*
X89255802Y-28670884D01*
X89444896Y-28398160D01*
X89515229Y-28073833D01*
X89504621Y-27924503D01*
X89482012Y-27915732D01*
X89482792Y-27813375D01*
X89627723Y-27960532D01*
X90187652Y-27964800D01*
X90420054Y-27966571D01*
X90635444Y-27879272D01*
X90801030Y-27716191D01*
X90891604Y-27502157D01*
X90892917Y-27329807D01*
X90747985Y-27182648D01*
X89487672Y-27173041D01*
X89487520Y-27193041D01*
X89131930Y-27190330D01*
X89132082Y-27170331D01*
X89112082Y-27170179D01*
X89114771Y-26817451D01*
X89490382Y-26817451D01*
X90750696Y-26827059D01*
X90897855Y-26682126D01*
X90899168Y-26509776D01*
X90842737Y-26370547D01*
X90901285Y-26232194D01*
X90902598Y-26059844D01*
X90757666Y-25912685D01*
X89497353Y-25903078D01*
X89495264Y-26177119D01*
X89495263Y-26177120D01*
X89490382Y-26817451D01*
X89114771Y-26817451D01*
X89114793Y-26814589D01*
X89134792Y-26814741D01*
X89136881Y-26540700D01*
X89136882Y-26540699D01*
X89141763Y-25900368D01*
X89121763Y-25900216D01*
X89124452Y-25547488D01*
X89500063Y-25547488D01*
X90760377Y-25557096D01*
X90907536Y-25412163D01*
X90908849Y-25239813D01*
X90852418Y-25100584D01*
X90910966Y-24962231D01*
X90912279Y-24789881D01*
X90767347Y-24642722D01*
X89507034Y-24633115D01*
X89504945Y-24907156D01*
X89504944Y-24907157D01*
X89500063Y-25547488D01*
X89124452Y-25547488D01*
X89124474Y-25544626D01*
X89144473Y-25544778D01*
X89146562Y-25270737D01*
X89146563Y-25270736D01*
X89151444Y-24630405D01*
X89131444Y-24630253D01*
X89134133Y-24277525D01*
X89509744Y-24277525D01*
X90770058Y-24287133D01*
X90917217Y-24142200D01*
X90918530Y-23969850D01*
X90862099Y-23830621D01*
X90920647Y-23692268D01*
X90921960Y-23519918D01*
X90777028Y-23372759D01*
X89516715Y-23363152D01*
X89514626Y-23637193D01*
X89514625Y-23637194D01*
X89509744Y-24277525D01*
X89134133Y-24277525D01*
X89134155Y-24274663D01*
X89154154Y-24274815D01*
X89156243Y-24000774D01*
X89156244Y-24000773D01*
X89161125Y-23360442D01*
X87900811Y-23350834D01*
X87753652Y-23495767D01*
X87752339Y-23668117D01*
X87808770Y-23807346D01*
X87750222Y-23945699D01*
X87749474Y-24043823D01*
X87363362Y-24040880D01*
X87351332Y-23974150D01*
X87301861Y-23895966D01*
X87225870Y-23843189D01*
X87135332Y-23824135D01*
X85135390Y-23808889D01*
X85050557Y-23824182D01*
X84972373Y-23873654D01*
X84919596Y-23949645D01*
X84900542Y-24040183D01*
X84894748Y-24800161D01*
X84910042Y-24884994D01*
X84959513Y-24963178D01*
X85035504Y-25015955D01*
X85126042Y-25035009D01*
X87125984Y-25050255D01*
X87210817Y-25034962D01*
X87289001Y-24985490D01*
X87341778Y-24909499D01*
X87360832Y-24818961D01*
X87361685Y-24707042D01*
X87645522Y-24709205D01*
X87640283Y-25396456D01*
X87623386Y-25392900D01*
X87523390Y-25392138D01*
X87356473Y-25390866D01*
X87356945Y-25328946D01*
X87341651Y-25244113D01*
X87292180Y-25165929D01*
X87216189Y-25113152D01*
X87125651Y-25094098D01*
X85125709Y-25078852D01*
X85040876Y-25094145D01*
X84962692Y-25143617D01*
X84909915Y-25219608D01*
X84890861Y-25310146D01*
X84885067Y-26070124D01*
X84900361Y-26154957D01*
X84949832Y-26233141D01*
X85025823Y-26285918D01*
X85116361Y-26304972D01*
X87116303Y-26320218D01*
X87183320Y-26308137D01*
X87182786Y-26378123D01*
X87115970Y-26364061D01*
X85116028Y-26348815D01*
X85031195Y-26364108D01*
X84953011Y-26413580D01*
X84900234Y-26489571D01*
X84881180Y-26580109D01*
X84875386Y-27340087D01*
X84890680Y-27424920D01*
X84940151Y-27503104D01*
X84968898Y-27523069D01*
X84944436Y-27538548D01*
X84891659Y-27614540D01*
X84872605Y-27705077D01*
X84865745Y-28605051D01*
X84881039Y-28689884D01*
X84930510Y-28768068D01*
X84948009Y-28780222D01*
X84934907Y-28788512D01*
X84882130Y-28864504D01*
X84863076Y-28955041D01*
X84856216Y-29855015D01*
X84871510Y-29939848D01*
X84902804Y-29989305D01*
X84880163Y-30103580D01*
X84872602Y-30114467D01*
X84853548Y-30205004D01*
X84853287Y-30239230D01*
X84073721Y-34173893D01*
X82213249Y-34798954D01*
X82138023Y-34841043D01*
X82080214Y-34913281D01*
X82055065Y-35002319D01*
X81450368Y-35002319D01*
X83108404Y-27646248D01*
X84530374Y-23520200D01*
X84904506Y-23520200D01*
X84919800Y-23605032D01*
X84969271Y-23683216D01*
X85045263Y-23735993D01*
X85135800Y-23755047D01*
X87135742Y-23770292D01*
X87220576Y-23754998D01*
X87298759Y-23705527D01*
X87351536Y-23629535D01*
X87370590Y-23538997D01*
X87374640Y-23007562D01*
X89519425Y-23007562D01*
X90431494Y-23014515D01*
X90603020Y-23051712D01*
X90752350Y-23041104D01*
X90761688Y-23017032D01*
X90779739Y-23017170D01*
X90926898Y-22872237D01*
X90928211Y-22699887D01*
X90840912Y-22484498D01*
X90677830Y-22318912D01*
X90532002Y-22257201D01*
X90785354Y-22257201D01*
X91039497Y-22765525D01*
X91208642Y-22812976D01*
X91397736Y-22540252D01*
X91468069Y-22215925D01*
X91457461Y-22066595D01*
X91293679Y-22003059D01*
X90785354Y-22257201D01*
X90532002Y-22257201D01*
X90463796Y-22228338D01*
X90364204Y-22227579D01*
X90352060Y-22215435D01*
X90340099Y-22227396D01*
X90286731Y-22226989D01*
X90449948Y-22145387D01*
X90195805Y-21637063D01*
X90026660Y-21589612D01*
X89837566Y-21862336D01*
X89767233Y-22186663D01*
X89769818Y-22223049D01*
X89671465Y-22222299D01*
X89524306Y-22367231D01*
X89519425Y-23007562D01*
X87374640Y-23007562D01*
X87375856Y-22848086D01*
X87758590Y-22848086D01*
X87903522Y-22995245D01*
X89163835Y-23004852D01*
X89168717Y-22364520D01*
X89023784Y-22217361D01*
X88463855Y-22213093D01*
X88231453Y-22211322D01*
X88016063Y-22298621D01*
X87850477Y-22461702D01*
X87759903Y-22675736D01*
X87758590Y-22848086D01*
X87375856Y-22848086D01*
X87376230Y-22799018D01*
X87360936Y-22714186D01*
X87311465Y-22636002D01*
X87235473Y-22583225D01*
X87144936Y-22564171D01*
X85144994Y-22548926D01*
X85060160Y-22564220D01*
X84981977Y-22613691D01*
X84929200Y-22689683D01*
X84910146Y-22780221D01*
X84904506Y-23520200D01*
X84530374Y-23520200D01*
X85217893Y-21525266D01*
X90419416Y-21525266D01*
X90673558Y-22033591D01*
X91181882Y-21779448D01*
X91229333Y-21610303D01*
X90956609Y-21421209D01*
X90632282Y-21350876D01*
X90482952Y-21361484D01*
X90419416Y-21525266D01*
X85217893Y-21525266D01*
X86088666Y-18998600D01*
X94561400Y-18998600D01*
X94561400Y-19970254D01*
X85308617Y-45053580D01*
X85300957Y-45101955D01*
X85291400Y-45150000D01*
X85292485Y-45155454D01*
X85291615Y-45160947D01*
X85303051Y-45208576D01*
X85312607Y-45256616D01*
X85315697Y-45261240D01*
X85316995Y-45266647D01*
X85345792Y-45306280D01*
X85373000Y-45347000D01*
X85377622Y-45350088D01*
X85380892Y-45354589D01*
X85422663Y-45380184D01*
X85463384Y-45407393D01*
X85468839Y-45408478D01*
X85473580Y-45411383D01*
X85521955Y-45419043D01*
X85570000Y-45428600D01*
X94701000Y-45428600D01*
X94639944Y-45576002D01*
X94639944Y-45868357D01*
X94785994Y-46014407D01*
X95356224Y-46014407D01*
X95324732Y-46130540D01*
X95355526Y-46370007D01*
X94785994Y-46370007D01*
X94639944Y-46516057D01*
X94639944Y-46808412D01*
X94728883Y-47023130D01*
X94893222Y-47187468D01*
X95107940Y-47276407D01*
X96900294Y-47276407D01*
X97046344Y-47130357D01*
X97046344Y-46538605D01*
X97123556Y-46253874D01*
X97090190Y-45994407D01*
X97401944Y-45994407D01*
X97401944Y-46014407D01*
X97421944Y-46014407D01*
X97421944Y-46370007D01*
X97401944Y-46370007D01*
X97401944Y-47130357D01*
X97547994Y-47276407D01*
X99261400Y-47276407D01*
X99261400Y-47466673D01*
X99224144Y-47459129D01*
X95224144Y-47459129D01*
X95139430Y-47475069D01*
X95061626Y-47525135D01*
X95009429Y-47601527D01*
X94991066Y-47692207D01*
X94991066Y-48692207D01*
X95007006Y-48776921D01*
X95057072Y-48854725D01*
X95133464Y-48906922D01*
X95224144Y-48925285D01*
X99224144Y-48925285D01*
X99261400Y-48918275D01*
X99261400Y-49108007D01*
X97547994Y-49108007D01*
X97401944Y-49254057D01*
X97401944Y-50014407D01*
X97421944Y-50014407D01*
X97421944Y-50370007D01*
X97401944Y-50370007D01*
X97401944Y-50390007D01*
X97086640Y-50390007D01*
X97123556Y-50253874D01*
X97078691Y-49904990D01*
X97046344Y-49826897D01*
X97046344Y-49254057D01*
X96900294Y-49108007D01*
X95107940Y-49108007D01*
X94893222Y-49196946D01*
X94728883Y-49361284D01*
X94639944Y-49576002D01*
X94639944Y-49868357D01*
X94785994Y-50014407D01*
X95356224Y-50014407D01*
X95324732Y-50130540D01*
X95355526Y-50370007D01*
X94785994Y-50370007D01*
X94639944Y-50516057D01*
X94639944Y-50808412D01*
X94666034Y-50871400D01*
X83704955Y-50871400D01*
X83697393Y-50833384D01*
X83694197Y-50828601D01*
X83692847Y-50823011D01*
X83664109Y-50783571D01*
X83637000Y-50743000D01*
X83632219Y-50739805D01*
X83628831Y-50735156D01*
X83587193Y-50709720D01*
X83546616Y-50682607D01*
X83540973Y-50681485D01*
X83536066Y-50678487D01*
X83487866Y-50670921D01*
X83440000Y-50661400D01*
X83434359Y-50662522D01*
X83428676Y-50661630D01*
X83381241Y-50673088D01*
X83333384Y-50682607D01*
X83328601Y-50685803D01*
X83323011Y-50687153D01*
X83283571Y-50715891D01*
X83243000Y-50743000D01*
X83239805Y-50747781D01*
X83235156Y-50751169D01*
X83209715Y-50792815D01*
X83182607Y-50833384D01*
X83181485Y-50839025D01*
X83178486Y-50843934D01*
X83065540Y-51151400D01*
X79089430Y-51151400D01*
X76941439Y-45718892D01*
X81073471Y-45718892D01*
X81144247Y-45879678D01*
X81475000Y-45852526D01*
X81770185Y-45700865D01*
X81878792Y-45597830D01*
X81823848Y-45430969D01*
X81304698Y-45199742D01*
X81073471Y-45718892D01*
X76941439Y-45718892D01*
X76632509Y-44937575D01*
X80396390Y-44937575D01*
X80423542Y-45268328D01*
X80575203Y-45563513D01*
X80678238Y-45672120D01*
X80845099Y-45617176D01*
X81076326Y-45098026D01*
X80791959Y-44971370D01*
X81406414Y-44971370D01*
X81925564Y-45202597D01*
X82086350Y-45131821D01*
X82059198Y-44801068D01*
X81907537Y-44505883D01*
X81804502Y-44397276D01*
X81637641Y-44452220D01*
X81406414Y-44971370D01*
X80791959Y-44971370D01*
X80557176Y-44866799D01*
X80396390Y-44937575D01*
X76632509Y-44937575D01*
X76448251Y-44471566D01*
X80603948Y-44471566D01*
X80658892Y-44638427D01*
X81178042Y-44869654D01*
X81409269Y-44350504D01*
X81338493Y-44189718D01*
X81007740Y-44216870D01*
X80712555Y-44368531D01*
X80603948Y-44471566D01*
X76448251Y-44471566D01*
X74824931Y-40366009D01*
X84147449Y-40366009D01*
X84420173Y-40555103D01*
X84744500Y-40625436D01*
X84893830Y-40614828D01*
X84957366Y-40451046D01*
X84703224Y-39942721D01*
X84194900Y-40196864D01*
X84147449Y-40366009D01*
X74824931Y-40366009D01*
X74585470Y-39760387D01*
X83908713Y-39760387D01*
X83919321Y-39909717D01*
X84083103Y-39973253D01*
X84367781Y-39830925D01*
X84926834Y-39830925D01*
X85180977Y-40339249D01*
X85350122Y-40386700D01*
X85539216Y-40113976D01*
X85609549Y-39789649D01*
X85598941Y-39640319D01*
X85435159Y-39576783D01*
X84926834Y-39830925D01*
X84367781Y-39830925D01*
X84591428Y-39719111D01*
X84337285Y-39210787D01*
X84168140Y-39163336D01*
X83979046Y-39436060D01*
X83908713Y-39760387D01*
X74585470Y-39760387D01*
X74401886Y-39296085D01*
X78609015Y-39296085D01*
X78679791Y-39456871D01*
X79010544Y-39429719D01*
X79305729Y-39278058D01*
X79414336Y-39175023D01*
X79389300Y-39098990D01*
X84560896Y-39098990D01*
X84815038Y-39607315D01*
X85323362Y-39353172D01*
X85370813Y-39184027D01*
X85098089Y-38994933D01*
X84773762Y-38924600D01*
X84624432Y-38935208D01*
X84560896Y-39098990D01*
X79389300Y-39098990D01*
X79359392Y-39008162D01*
X78840242Y-38776935D01*
X78609015Y-39296085D01*
X74401886Y-39296085D01*
X74092956Y-38514768D01*
X77931934Y-38514768D01*
X77959086Y-38845521D01*
X78110747Y-39140706D01*
X78213782Y-39249313D01*
X78380643Y-39194369D01*
X78611870Y-38675219D01*
X78327503Y-38548563D01*
X78941958Y-38548563D01*
X79461108Y-38779790D01*
X79621894Y-38709014D01*
X79594742Y-38378261D01*
X79443081Y-38083076D01*
X79340046Y-37974469D01*
X79173185Y-38029413D01*
X78941958Y-38548563D01*
X78327503Y-38548563D01*
X78092720Y-38443992D01*
X77931934Y-38514768D01*
X74092956Y-38514768D01*
X73908698Y-38048759D01*
X78139492Y-38048759D01*
X78194436Y-38215620D01*
X78713586Y-38446847D01*
X78944813Y-37927697D01*
X78874037Y-37766911D01*
X78543284Y-37794063D01*
X78248099Y-37945724D01*
X78139492Y-38048759D01*
X73908698Y-38048759D01*
X73319083Y-36557560D01*
X73317840Y-36555634D01*
X73317393Y-36553384D01*
X73288420Y-36510023D01*
X73260159Y-36466210D01*
X73258273Y-36464905D01*
X73257000Y-36463000D01*
X73213658Y-36434039D01*
X73170763Y-36404364D01*
X73168522Y-36403880D01*
X73166616Y-36402607D01*
X73115492Y-36392438D01*
X73064504Y-36381436D01*
X73062247Y-36381847D01*
X73060000Y-36381400D01*
X72970000Y-36381400D01*
X72964312Y-36382531D01*
X72958582Y-36381634D01*
X72911201Y-36393096D01*
X72863384Y-36402607D01*
X72858561Y-36405830D01*
X72852925Y-36407193D01*
X72813537Y-36435914D01*
X72773000Y-36463000D01*
X72769778Y-36467822D01*
X72765092Y-36471239D01*
X72739695Y-36512844D01*
X72712607Y-36553384D01*
X72711475Y-36559074D01*
X72708454Y-36564023D01*
X71130094Y-40865200D01*
X70730386Y-40615383D01*
X70721749Y-40610729D01*
X70241749Y-40390729D01*
X70236903Y-40388707D01*
X69176903Y-39988707D01*
X69169499Y-39986337D01*
X68829499Y-39896337D01*
X68810650Y-39893803D01*
X68780954Y-39899553D01*
X68755834Y-39916404D01*
X68739250Y-39941700D01*
X68699250Y-40041700D01*
X68693803Y-40069350D01*
X68699553Y-40099046D01*
X68716404Y-40124166D01*
X68741700Y-40140750D01*
X68827177Y-40174941D01*
X68866118Y-40213882D01*
X68897591Y-40232830D01*
X69416091Y-40392368D01*
X69754639Y-40511856D01*
X69755903Y-40512290D01*
X69813013Y-40531327D01*
X70207369Y-40698928D01*
X70506369Y-40855547D01*
X70468481Y-40846075D01*
X70463338Y-40844976D01*
X70013338Y-40764976D01*
X69989305Y-40764554D01*
X69960795Y-40774659D01*
X69910795Y-40804659D01*
X69892781Y-40819677D01*
X69877710Y-40845903D01*
X69867710Y-40875903D01*
X69863800Y-40900000D01*
X69863800Y-40960000D01*
X69869401Y-40988673D01*
X69886118Y-41013882D01*
X69976118Y-41103882D01*
X70011519Y-41123925D01*
X70051519Y-41133925D01*
X70080776Y-41135434D01*
X70125342Y-41129067D01*
X70276779Y-41213475D01*
X69670221Y-41046532D01*
X69667315Y-41045793D01*
X68467315Y-40765793D01*
X68437473Y-40764837D01*
X68317473Y-40784837D01*
X68296867Y-40791380D01*
X68272781Y-40809677D01*
X68257710Y-40835903D01*
X68237710Y-40895903D01*
X68233800Y-40920000D01*
X68233800Y-40980000D01*
X68244165Y-41018370D01*
X68264280Y-41040960D01*
X68304280Y-41070960D01*
X68330056Y-41083544D01*
X69510056Y-41403544D01*
X69513173Y-41404319D01*
X70573173Y-41644319D01*
X70581097Y-41645678D01*
X70832822Y-41675293D01*
X68212017Y-48817228D01*
X68209205Y-48814659D01*
X68159205Y-48784659D01*
X68150017Y-48779961D01*
X68080017Y-48749961D01*
X68060733Y-48744560D01*
X68030537Y-48746328D01*
X68003408Y-48759704D01*
X67793348Y-48922023D01*
X67499227Y-49023127D01*
X67334309Y-49014447D01*
X67254097Y-48987710D01*
X67252409Y-48987170D01*
X67130230Y-48949576D01*
X66990627Y-48871050D01*
X66644236Y-48428439D01*
X66447431Y-48054510D01*
X66422268Y-48026598D01*
X66272268Y-47926598D01*
X66255173Y-47918078D01*
X66055173Y-47848078D01*
X66033624Y-47843886D01*
X65823624Y-47833886D01*
X65786872Y-47841378D01*
X65496872Y-47981378D01*
X65480472Y-47992091D01*
X65461845Y-48015922D01*
X65391845Y-48155922D01*
X65387710Y-48165903D01*
X65377710Y-48195903D01*
X65375280Y-48205056D01*
X65365280Y-48255056D01*
X65367650Y-48293914D01*
X65382654Y-48320178D01*
X65452654Y-48400178D01*
X65485903Y-48422290D01*
X65545903Y-48442290D01*
X65571006Y-48446193D01*
X65600570Y-48439799D01*
X65625318Y-48422406D01*
X65641348Y-48396756D01*
X65691824Y-48262153D01*
X65778638Y-48211512D01*
X65959559Y-48168435D01*
X66010985Y-48181291D01*
X66106984Y-48237291D01*
X66364000Y-48608537D01*
X66521434Y-48933244D01*
X66538621Y-48956273D01*
X66768621Y-49166273D01*
X66782194Y-49176160D01*
X66922194Y-49256160D01*
X66933244Y-49261348D01*
X67093244Y-49321348D01*
X67099066Y-49323268D01*
X67239066Y-49363268D01*
X67251266Y-49365698D01*
X67511266Y-49395698D01*
X67535541Y-49394598D01*
X67775541Y-49344598D01*
X67794078Y-49338155D01*
X68034078Y-49218155D01*
X68048253Y-49208976D01*
X68076846Y-49185582D01*
X67355469Y-51151400D01*
X63062461Y-51151400D01*
X62990571Y-50961406D01*
X62988249Y-50957686D01*
X62987393Y-50953384D01*
X62959550Y-50911715D01*
X62933006Y-50869194D01*
X62929435Y-50866645D01*
X62927000Y-50863000D01*
X62885332Y-50835158D01*
X62844535Y-50806032D01*
X62840263Y-50805044D01*
X62836616Y-50802607D01*
X62787465Y-50792830D01*
X62738627Y-50781533D01*
X62734300Y-50782255D01*
X62730000Y-50781400D01*
X62680850Y-50791176D01*
X62631406Y-50799429D01*
X62627686Y-50801751D01*
X62623384Y-50802607D01*
X62581715Y-50830450D01*
X62539194Y-50856994D01*
X62536645Y-50860565D01*
X62533000Y-50863000D01*
X62527387Y-50871400D01*
X51578954Y-50871400D01*
X51605044Y-50808412D01*
X51605044Y-50516057D01*
X51458994Y-50370007D01*
X50888764Y-50370007D01*
X50920256Y-50253874D01*
X50889462Y-50014407D01*
X51458994Y-50014407D01*
X51605044Y-49868357D01*
X51605044Y-49576002D01*
X51516105Y-49361284D01*
X51351766Y-49196946D01*
X51137048Y-49108007D01*
X49344694Y-49108007D01*
X49198644Y-49254057D01*
X49198644Y-49845809D01*
X49121432Y-50130540D01*
X49154798Y-50390007D01*
X48843044Y-50390007D01*
X48843044Y-50370007D01*
X48823044Y-50370007D01*
X48823044Y-50014407D01*
X48843044Y-50014407D01*
X48843044Y-49254057D01*
X48696994Y-49108007D01*
X46908600Y-49108007D01*
X46908600Y-48892188D01*
X46930164Y-48906922D01*
X47020844Y-48925285D01*
X51020844Y-48925285D01*
X51105558Y-48909345D01*
X51183362Y-48859279D01*
X51235559Y-48782887D01*
X51253922Y-48692207D01*
X51253922Y-47692207D01*
X51237982Y-47607493D01*
X51187916Y-47529689D01*
X51111524Y-47477492D01*
X51020844Y-47459129D01*
X47020844Y-47459129D01*
X46936130Y-47475069D01*
X46908600Y-47492784D01*
X46908600Y-47359591D01*
X63802554Y-47359591D01*
X64068539Y-47558053D01*
X64390224Y-47639620D01*
X64539832Y-47634211D01*
X64604359Y-47483624D01*
X65903886Y-47483624D01*
X65911293Y-47512951D01*
X65929526Y-47537086D01*
X65955712Y-47552225D01*
X67084459Y-47931804D01*
X67803244Y-48201348D01*
X67808104Y-48202986D01*
X67908104Y-48232986D01*
X67917473Y-48235163D01*
X67977473Y-48245163D01*
X68007458Y-48244173D01*
X68034940Y-48231537D01*
X68055341Y-48209205D01*
X68085341Y-48159205D01*
X68092290Y-48144097D01*
X68112290Y-48084097D01*
X68115163Y-48072527D01*
X68125163Y-48012527D01*
X68124173Y-47982542D01*
X68111537Y-47955060D01*
X68089205Y-47934659D01*
X68039205Y-47904659D01*
X68022946Y-47897337D01*
X67454502Y-47717828D01*
X67097933Y-47588167D01*
X67167500Y-47455357D01*
X67170750Y-47448300D01*
X67224252Y-47314544D01*
X67586410Y-47432456D01*
X67593628Y-47434420D01*
X68093628Y-47544420D01*
X68120695Y-47545446D01*
X68149205Y-47535341D01*
X68199205Y-47505341D01*
X68228155Y-47474078D01*
X68258155Y-47414078D01*
X68266200Y-47380000D01*
X68266200Y-47320000D01*
X68262616Y-47296904D01*
X68247909Y-47270472D01*
X68224078Y-47251845D01*
X68144078Y-47211845D01*
X68131591Y-47206923D01*
X66811591Y-46816923D01*
X66807880Y-46815927D01*
X66227880Y-46675927D01*
X66211053Y-46673807D01*
X66181327Y-46679401D01*
X66156118Y-46696118D01*
X66106118Y-46746118D01*
X66091845Y-46765922D01*
X66071845Y-46805922D01*
X66064878Y-46827225D01*
X66065827Y-46857458D01*
X66078463Y-46884940D01*
X66100795Y-46905341D01*
X66250795Y-46995341D01*
X66264119Y-47001670D01*
X66624119Y-47131670D01*
X66629950Y-47133515D01*
X66884026Y-47202808D01*
X66868609Y-47252914D01*
X66824882Y-47349114D01*
X66745340Y-47444564D01*
X66729517Y-47449839D01*
X66503224Y-47377425D01*
X66498094Y-47375979D01*
X66048094Y-47265979D01*
X66027794Y-47263832D01*
X65998334Y-47270691D01*
X65973864Y-47288471D01*
X65958239Y-47314371D01*
X65908239Y-47454371D01*
X65903886Y-47483624D01*
X64604359Y-47483624D01*
X64609025Y-47472736D01*
X64372710Y-46955883D01*
X63855857Y-47192198D01*
X63802554Y-47359591D01*
X46908600Y-47359591D01*
X46908600Y-47276407D01*
X48696994Y-47276407D01*
X48843044Y-47130357D01*
X48843044Y-46370007D01*
X48823044Y-46370007D01*
X48823044Y-46014407D01*
X48843044Y-46014407D01*
X48843044Y-45994407D01*
X49158348Y-45994407D01*
X49121432Y-46130540D01*
X49166297Y-46479424D01*
X49198644Y-46557517D01*
X49198644Y-47130357D01*
X49344694Y-47276407D01*
X51137048Y-47276407D01*
X51351766Y-47187468D01*
X51516105Y-47023130D01*
X51605044Y-46808412D01*
X51605044Y-46746035D01*
X63585019Y-46746035D01*
X63590428Y-46895643D01*
X63751903Y-46964836D01*
X63998845Y-46851929D01*
X64600072Y-46851929D01*
X64836387Y-47368782D01*
X65003780Y-47422085D01*
X65202242Y-47156100D01*
X65283809Y-46834415D01*
X65278400Y-46684807D01*
X65116925Y-46615614D01*
X64600072Y-46851929D01*
X63998845Y-46851929D01*
X64268756Y-46728521D01*
X64032441Y-46211668D01*
X63865048Y-46158365D01*
X63666586Y-46424350D01*
X63585019Y-46746035D01*
X51605044Y-46746035D01*
X51605044Y-46516057D01*
X51458994Y-46370007D01*
X50888764Y-46370007D01*
X50920256Y-46253874D01*
X50901461Y-46107714D01*
X64259803Y-46107714D01*
X64496118Y-46624567D01*
X65012971Y-46388252D01*
X65066274Y-46220859D01*
X65028303Y-46192527D01*
X66204837Y-46192527D01*
X66224837Y-46312527D01*
X66242862Y-46350416D01*
X66392862Y-46520416D01*
X66411821Y-46535945D01*
X66601821Y-46645945D01*
X66625056Y-46654720D01*
X66775056Y-46684720D01*
X66818300Y-46680750D01*
X67168300Y-46540750D01*
X67190975Y-46526639D01*
X67359748Y-46374743D01*
X67709315Y-46473339D01*
X67738415Y-46475734D01*
X67800828Y-46468799D01*
X67927732Y-46553402D01*
X67943143Y-46561310D01*
X68713143Y-46851310D01*
X68727473Y-46855163D01*
X68787473Y-46865163D01*
X68817458Y-46864173D01*
X68844940Y-46851537D01*
X68865341Y-46829205D01*
X68895341Y-46779205D01*
X68900750Y-46768300D01*
X68940750Y-46668300D01*
X68946138Y-46643080D01*
X68941338Y-46613216D01*
X68925297Y-46587572D01*
X68900542Y-46570189D01*
X68262334Y-46290973D01*
X68024078Y-46171845D01*
X67980549Y-46164388D01*
X67957234Y-46167302D01*
X67952612Y-46156570D01*
X67930783Y-46135632D01*
X67902527Y-46124837D01*
X67729827Y-46096054D01*
X67257540Y-45918946D01*
X67208300Y-45899250D01*
X67194944Y-45895280D01*
X67144944Y-45885280D01*
X67128232Y-45883821D01*
X67098733Y-45890510D01*
X67090950Y-45896097D01*
X67083110Y-45877297D01*
X67061524Y-45856108D01*
X67033395Y-45844987D01*
X66753395Y-45794987D01*
X66726605Y-45794987D01*
X66446605Y-45844987D01*
X66431327Y-45849401D01*
X66406118Y-45866118D01*
X66286118Y-45986118D01*
X66271845Y-46005922D01*
X66231845Y-46085922D01*
X66227710Y-46095903D01*
X66207710Y-46155903D01*
X66205555Y-46183369D01*
X66204837Y-46192527D01*
X65028303Y-46192527D01*
X64800289Y-46022397D01*
X64478604Y-45940830D01*
X64328996Y-45946239D01*
X64259803Y-46107714D01*
X50901461Y-46107714D01*
X50889462Y-46014407D01*
X51458994Y-46014407D01*
X51605044Y-45868357D01*
X51605044Y-45576002D01*
X51543988Y-45428600D01*
X60560000Y-45428600D01*
X60607862Y-45419080D01*
X60656053Y-45411518D01*
X60660966Y-45408517D01*
X60666616Y-45407393D01*
X60707194Y-45380279D01*
X60748820Y-45354853D01*
X60752211Y-45350200D01*
X60757000Y-45347000D01*
X60761677Y-45340000D01*
X66443800Y-45340000D01*
X66443800Y-45390000D01*
X66446055Y-45408401D01*
X66459040Y-45435720D01*
X66519040Y-45515720D01*
X66553183Y-45541325D01*
X66583046Y-45546139D01*
X67078878Y-45526306D01*
X67787212Y-45575496D01*
X67997264Y-45632782D01*
X68674639Y-45871856D01*
X68684302Y-45874565D01*
X69064302Y-45954565D01*
X69083826Y-45956104D01*
X69113133Y-45948620D01*
X69137219Y-45930323D01*
X69152290Y-45904097D01*
X69182290Y-45814097D01*
X69185612Y-45780549D01*
X69175612Y-45700549D01*
X69166541Y-45672869D01*
X69146853Y-45649906D01*
X69119782Y-45636412D01*
X68192502Y-45387143D01*
X67830466Y-45260430D01*
X67822290Y-45235903D01*
X67796592Y-45199704D01*
X67356592Y-44859704D01*
X67353296Y-44857295D01*
X66933296Y-44567295D01*
X66914097Y-44557710D01*
X66854097Y-44537710D01*
X66836976Y-44534120D01*
X66806904Y-44537384D01*
X66780472Y-44552091D01*
X66761845Y-44575922D01*
X66731845Y-44635922D01*
X66724031Y-44664073D01*
X66727710Y-44694097D01*
X66747710Y-44754097D01*
X66768924Y-44786548D01*
X67078924Y-45066548D01*
X67084596Y-45071196D01*
X67249845Y-45193800D01*
X67040000Y-45193800D01*
X67034931Y-45193969D01*
X66584931Y-45223969D01*
X66552194Y-45233840D01*
X66482194Y-45273840D01*
X66466868Y-45285379D01*
X66449803Y-45310354D01*
X66443800Y-45340000D01*
X60761677Y-45340000D01*
X60784114Y-45306421D01*
X60812841Y-45267001D01*
X60814193Y-45261405D01*
X60817393Y-45256616D01*
X60826913Y-45208754D01*
X60838369Y-45161337D01*
X60837476Y-45155649D01*
X60838600Y-45150000D01*
X60829080Y-45102140D01*
X60821518Y-45053947D01*
X60173550Y-43289760D01*
X61557918Y-43289760D01*
X61630627Y-43465729D01*
X61765142Y-43600478D01*
X61940984Y-43673494D01*
X62131383Y-43673661D01*
X62307352Y-43600952D01*
X62338605Y-43569753D01*
X62768088Y-44848093D01*
X62810177Y-44923319D01*
X62882415Y-44981128D01*
X62971453Y-45006277D01*
X63063260Y-44994805D01*
X65907053Y-44039378D01*
X65959559Y-44010000D01*
X67233800Y-44010000D01*
X67233800Y-44060000D01*
X67236215Y-44079032D01*
X67249433Y-44106239D01*
X67272194Y-44126160D01*
X67552194Y-44286160D01*
X67562646Y-44291121D01*
X67822646Y-44391121D01*
X67823411Y-44391411D01*
X68759121Y-44739814D01*
X69001172Y-44864743D01*
X68991072Y-44887468D01*
X68881845Y-45105922D01*
X68875150Y-45125722D01*
X68875492Y-45155968D01*
X68887575Y-45183698D01*
X68957575Y-45283698D01*
X68979896Y-45304793D01*
X69008264Y-45315291D01*
X69038481Y-45313925D01*
X69118481Y-45293925D01*
X69150416Y-45277138D01*
X69320416Y-45127138D01*
X69331540Y-45114936D01*
X69344174Y-45087453D01*
X69384174Y-44917453D01*
X69386165Y-44897702D01*
X69379271Y-44868251D01*
X69269271Y-44628251D01*
X69257909Y-44610472D01*
X69234078Y-44591845D01*
X69074078Y-44511845D01*
X69070448Y-44510148D01*
X68680448Y-44340148D01*
X68677253Y-44338840D01*
X68207253Y-44158840D01*
X68206857Y-44158690D01*
X67436857Y-43868690D01*
X67422527Y-43864837D01*
X67362527Y-43854837D01*
X67332542Y-43855827D01*
X67305060Y-43868463D01*
X67284659Y-43890795D01*
X67254659Y-43940795D01*
X67247710Y-43955903D01*
X67237710Y-43985903D01*
X67233800Y-44010000D01*
X65959559Y-44010000D01*
X65982279Y-43997288D01*
X66040088Y-43925051D01*
X66065237Y-43836013D01*
X66053765Y-43744206D01*
X65773498Y-42910000D01*
X67383800Y-42910000D01*
X67383800Y-42960000D01*
X67386055Y-42978401D01*
X67399040Y-43005720D01*
X67459040Y-43085720D01*
X67481110Y-43105528D01*
X67509668Y-43115496D01*
X67539854Y-43113568D01*
X67566912Y-43100047D01*
X67874489Y-42859753D01*
X68077648Y-42806755D01*
X68585959Y-42835527D01*
X68854651Y-42921892D01*
X68978783Y-42969635D01*
X69301045Y-43135649D01*
X69595462Y-43335093D01*
X69667641Y-43439351D01*
X69671517Y-43462606D01*
X69618531Y-43606423D01*
X69511802Y-43663346D01*
X69123250Y-43654094D01*
X68835981Y-43558338D01*
X68769632Y-43409052D01*
X68745786Y-43379090D01*
X68718481Y-43366075D01*
X68678481Y-43356075D01*
X68660000Y-43353800D01*
X68610000Y-43353800D01*
X68591599Y-43356055D01*
X68564280Y-43369040D01*
X68484280Y-43429040D01*
X68458652Y-43463244D01*
X68398652Y-43623244D01*
X68396075Y-43631519D01*
X68376075Y-43711519D01*
X68376075Y-43748481D01*
X68406075Y-43868481D01*
X68412999Y-43886295D01*
X68432398Y-43909502D01*
X68482398Y-43949502D01*
X68497197Y-43958778D01*
X68526540Y-43966121D01*
X68740863Y-43975863D01*
X69345292Y-44094767D01*
X69366601Y-44095914D01*
X69596601Y-44075914D01*
X69629819Y-44064968D01*
X69939819Y-43874968D01*
X69968155Y-43844078D01*
X70058155Y-43664078D01*
X70063515Y-43650050D01*
X70093515Y-43540050D01*
X70092899Y-43497813D01*
X70022899Y-43267813D01*
X70005065Y-43237329D01*
X69785065Y-43007329D01*
X69773464Y-42997412D01*
X69413464Y-42747412D01*
X69406293Y-42742998D01*
X69166293Y-42612998D01*
X69148481Y-42606075D01*
X69109269Y-42596272D01*
X68780050Y-42506485D01*
X68768118Y-42504234D01*
X68208118Y-42444234D01*
X68188966Y-42444603D01*
X67778966Y-42504603D01*
X67746626Y-42517349D01*
X67486626Y-42697349D01*
X67460949Y-42727776D01*
X67390949Y-42877776D01*
X67383800Y-42910000D01*
X65773498Y-42910000D01*
X65110557Y-40936784D01*
X66194900Y-40936784D01*
X66460885Y-41135246D01*
X66782570Y-41216813D01*
X66932178Y-41211404D01*
X67001371Y-41049929D01*
X66765056Y-40533076D01*
X66248203Y-40769391D01*
X66194900Y-40936784D01*
X65110557Y-40936784D01*
X64907252Y-40331655D01*
X64902538Y-40323228D01*
X65977365Y-40323228D01*
X65982774Y-40472836D01*
X66144249Y-40542029D01*
X66391191Y-40429122D01*
X66992418Y-40429122D01*
X67228733Y-40945975D01*
X67396126Y-40999278D01*
X67594588Y-40733293D01*
X67676155Y-40411608D01*
X67670746Y-40262000D01*
X67509271Y-40192807D01*
X66992418Y-40429122D01*
X66391191Y-40429122D01*
X66661102Y-40305714D01*
X66424787Y-39788861D01*
X66257394Y-39735558D01*
X66058932Y-40001543D01*
X65977365Y-40323228D01*
X64902538Y-40323228D01*
X64865163Y-40256429D01*
X64792925Y-40198620D01*
X64703887Y-40173471D01*
X64612080Y-40184943D01*
X61768287Y-41140370D01*
X61693061Y-41182460D01*
X61635252Y-41254697D01*
X61610103Y-41343735D01*
X61621575Y-41435542D01*
X62051901Y-42716392D01*
X61941819Y-42716295D01*
X61765850Y-42789004D01*
X61631101Y-42923519D01*
X61558085Y-43099361D01*
X61557918Y-43289760D01*
X60173550Y-43289760D01*
X58870900Y-39743105D01*
X63241577Y-39743105D01*
X63308354Y-39905593D01*
X63639677Y-39886631D01*
X63938524Y-39742319D01*
X64002119Y-39684907D01*
X66652149Y-39684907D01*
X66888464Y-40201760D01*
X67405317Y-39965445D01*
X67458620Y-39798052D01*
X67192635Y-39599590D01*
X66870950Y-39518023D01*
X66721342Y-39523432D01*
X66652149Y-39684907D01*
X64002119Y-39684907D01*
X64049646Y-39642002D01*
X63998846Y-39473833D01*
X63539619Y-39255525D01*
X69053931Y-39255525D01*
X69063663Y-39297495D01*
X69193663Y-39527495D01*
X69203450Y-39541074D01*
X69227776Y-39559051D01*
X69377776Y-39629051D01*
X69383398Y-39631406D01*
X69893398Y-39821406D01*
X69893535Y-39821456D01*
X70163535Y-39921456D01*
X70172278Y-39924111D01*
X70632278Y-40034111D01*
X70643842Y-40035951D01*
X71013842Y-40065951D01*
X71036530Y-40064385D01*
X71306530Y-40004385D01*
X71333698Y-39992425D01*
X71433698Y-39922425D01*
X71460750Y-39888300D01*
X71500750Y-39788300D01*
X71503268Y-39780934D01*
X71523268Y-39710934D01*
X71526136Y-39693111D01*
X71521348Y-39663244D01*
X71461348Y-39503244D01*
X71450149Y-39483218D01*
X71380149Y-39393218D01*
X71346084Y-39368404D01*
X71316174Y-39363896D01*
X71302621Y-39367357D01*
X71305246Y-39337982D01*
X71294642Y-39309654D01*
X71273853Y-39287683D01*
X71003853Y-39097683D01*
X70992822Y-39091231D01*
X70552822Y-38881231D01*
X70544097Y-38877710D01*
X70094097Y-38727710D01*
X70077582Y-38724178D01*
X69577582Y-38674178D01*
X69552217Y-38675904D01*
X69302217Y-38735904D01*
X69280795Y-38744659D01*
X69180795Y-38804659D01*
X69164161Y-38818150D01*
X69148388Y-38843959D01*
X69069477Y-39060963D01*
X69068388Y-39063959D01*
X69063931Y-39085525D01*
X69053931Y-39255525D01*
X63539619Y-39255525D01*
X63485576Y-39229834D01*
X63241577Y-39743105D01*
X58870900Y-39743105D01*
X58577866Y-38945278D01*
X62584031Y-38945278D01*
X62602993Y-39276601D01*
X62747305Y-39575448D01*
X62847622Y-39686570D01*
X63015791Y-39635770D01*
X63259790Y-39122500D01*
X63010617Y-39004048D01*
X63592910Y-39004048D01*
X64106181Y-39248047D01*
X64268669Y-39181270D01*
X64249707Y-38849947D01*
X64105395Y-38551100D01*
X64005078Y-38439978D01*
X63836909Y-38490778D01*
X63592910Y-39004048D01*
X63010617Y-39004048D01*
X62746519Y-38878501D01*
X62584031Y-38945278D01*
X58577866Y-38945278D01*
X58408644Y-38484546D01*
X62803054Y-38484546D01*
X62853854Y-38652715D01*
X63367124Y-38896714D01*
X63611123Y-38383443D01*
X63544346Y-38220955D01*
X63213023Y-38239917D01*
X62914176Y-38384229D01*
X62803054Y-38484546D01*
X58408644Y-38484546D01*
X58133323Y-37734944D01*
X69575280Y-37734944D01*
X69585280Y-37784944D01*
X69598709Y-37815276D01*
X69621153Y-37835554D01*
X69891153Y-37995554D01*
X69903535Y-38001456D01*
X70173160Y-38101317D01*
X71099928Y-38450100D01*
X71348353Y-38570306D01*
X71339299Y-38600486D01*
X71223104Y-38813511D01*
X71215150Y-38835722D01*
X71215492Y-38865968D01*
X71227575Y-38893698D01*
X71297575Y-38993698D01*
X71319896Y-39014793D01*
X71348264Y-39025291D01*
X71378481Y-39023925D01*
X71458481Y-39003925D01*
X71490416Y-38987138D01*
X71660416Y-38837138D01*
X71683104Y-38801501D01*
X71733104Y-38631501D01*
X71736044Y-38605123D01*
X71728155Y-38575922D01*
X71608155Y-38335922D01*
X71599192Y-38322013D01*
X71575859Y-38302765D01*
X71425859Y-38222765D01*
X71421270Y-38220512D01*
X71021270Y-38040512D01*
X71016415Y-38038525D01*
X70556415Y-37868525D01*
X69776555Y-37578577D01*
X69762527Y-37574837D01*
X69702527Y-37564837D01*
X69672542Y-37565827D01*
X69645060Y-37578463D01*
X69624659Y-37600795D01*
X69594659Y-37650795D01*
X69587710Y-37665903D01*
X69577710Y-37695903D01*
X69575280Y-37734944D01*
X58133323Y-37734944D01*
X56730850Y-33916513D01*
X61169742Y-33916513D01*
X61236519Y-34079001D01*
X61567842Y-34060039D01*
X61866689Y-33915727D01*
X61977811Y-33815410D01*
X61927011Y-33647241D01*
X61413741Y-33403242D01*
X61169742Y-33916513D01*
X56730850Y-33916513D01*
X56437816Y-33118686D01*
X60512196Y-33118686D01*
X60531158Y-33450009D01*
X60675470Y-33748856D01*
X60775787Y-33859978D01*
X60943956Y-33809178D01*
X61187955Y-33295908D01*
X60938782Y-33177456D01*
X61521075Y-33177456D01*
X62034346Y-33421455D01*
X62196834Y-33354678D01*
X62177872Y-33023355D01*
X62033560Y-32724508D01*
X61933243Y-32613386D01*
X61765074Y-32664186D01*
X61521075Y-33177456D01*
X60938782Y-33177456D01*
X60674684Y-33051909D01*
X60512196Y-33118686D01*
X56437816Y-33118686D01*
X56268594Y-32657954D01*
X60731219Y-32657954D01*
X60782019Y-32826123D01*
X61295289Y-33070122D01*
X61539288Y-32556851D01*
X61472511Y-32394363D01*
X61141188Y-32413325D01*
X60842341Y-32557637D01*
X60731219Y-32657954D01*
X56268594Y-32657954D01*
X54590798Y-28089914D01*
X59097904Y-28089914D01*
X59164681Y-28252402D01*
X59496004Y-28233440D01*
X59794851Y-28089128D01*
X59905973Y-27988811D01*
X59855173Y-27820642D01*
X59341903Y-27576643D01*
X59097904Y-28089914D01*
X54590798Y-28089914D01*
X54297764Y-27292087D01*
X58440358Y-27292087D01*
X58459320Y-27623410D01*
X58603632Y-27922257D01*
X58703949Y-28033379D01*
X58872118Y-27982579D01*
X59116117Y-27469309D01*
X58866944Y-27350857D01*
X59449237Y-27350857D01*
X59962508Y-27594856D01*
X60124996Y-27528079D01*
X60106034Y-27196756D01*
X59961722Y-26897909D01*
X59861405Y-26786787D01*
X59693236Y-26837587D01*
X59449237Y-27350857D01*
X58866944Y-27350857D01*
X58602846Y-27225310D01*
X58440358Y-27292087D01*
X54297764Y-27292087D01*
X54128542Y-26831355D01*
X58659381Y-26831355D01*
X58710181Y-26999524D01*
X59223451Y-27243523D01*
X59467450Y-26730252D01*
X59400673Y-26567764D01*
X59069350Y-26586726D01*
X58770503Y-26731038D01*
X58659381Y-26831355D01*
X54128542Y-26831355D01*
X52450747Y-22263320D01*
X57026069Y-22263320D01*
X57092846Y-22425808D01*
X57424169Y-22406846D01*
X57723016Y-22262534D01*
X57834138Y-22162217D01*
X57783338Y-21994048D01*
X57270068Y-21750049D01*
X57026069Y-22263320D01*
X52450747Y-22263320D01*
X52157713Y-21465493D01*
X56368523Y-21465493D01*
X56387485Y-21796816D01*
X56531797Y-22095663D01*
X56632114Y-22206785D01*
X56800283Y-22155985D01*
X57044282Y-21642715D01*
X56795109Y-21524263D01*
X57377402Y-21524263D01*
X57890673Y-21768262D01*
X58053161Y-21701485D01*
X58034199Y-21370162D01*
X57889887Y-21071315D01*
X57789570Y-20960193D01*
X57621401Y-21010993D01*
X57377402Y-21524263D01*
X56795109Y-21524263D01*
X56531011Y-21398716D01*
X56368523Y-21465493D01*
X52157713Y-21465493D01*
X51988491Y-21004761D01*
X56587546Y-21004761D01*
X56638346Y-21172930D01*
X57151616Y-21416929D01*
X57395615Y-20903658D01*
X57328838Y-20741170D01*
X56997515Y-20760132D01*
X56698668Y-20904444D01*
X56587546Y-21004761D01*
X51988491Y-21004761D01*
X51608600Y-19970455D01*
X51608600Y-18998600D01*
X60031546Y-18998600D01*
X63022907Y-27650087D01*
G36*
X50266776Y-50158407D02*
X50232976Y-50192207D01*
X50266776Y-50226007D01*
X50122776Y-50370007D01*
X49918912Y-50370007D01*
X49774912Y-50226007D01*
X49808712Y-50192207D01*
X49774912Y-50158407D01*
X49918912Y-50014407D01*
X50122776Y-50014407D01*
X50266776Y-50158407D01*
X50266776Y-50158407D01*
G37*
X50266776Y-50158407D02*
X50232976Y-50192207D01*
X50266776Y-50226007D01*
X50122776Y-50370007D01*
X49918912Y-50370007D01*
X49774912Y-50226007D01*
X49808712Y-50192207D01*
X49774912Y-50158407D01*
X49918912Y-50014407D01*
X50122776Y-50014407D01*
X50266776Y-50158407D01*
G36*
X96470076Y-50158407D02*
X96436276Y-50192207D01*
X96470076Y-50226007D01*
X96326076Y-50370007D01*
X96122212Y-50370007D01*
X95978212Y-50226007D01*
X96012012Y-50192207D01*
X95978212Y-50158407D01*
X96122212Y-50014407D01*
X96326076Y-50014407D01*
X96470076Y-50158407D01*
X96470076Y-50158407D01*
G37*
X96470076Y-50158407D02*
X96436276Y-50192207D01*
X96470076Y-50226007D01*
X96326076Y-50370007D01*
X96122212Y-50370007D01*
X95978212Y-50226007D01*
X96012012Y-50192207D01*
X95978212Y-50158407D01*
X96122212Y-50014407D01*
X96326076Y-50014407D01*
X96470076Y-50158407D01*
G36*
X96470076Y-46158407D02*
X96436276Y-46192207D01*
X96470076Y-46226007D01*
X96326076Y-46370007D01*
X96122212Y-46370007D01*
X95978212Y-46226007D01*
X96012012Y-46192207D01*
X95978212Y-46158407D01*
X96122212Y-46014407D01*
X96326076Y-46014407D01*
X96470076Y-46158407D01*
X96470076Y-46158407D01*
G37*
X96470076Y-46158407D02*
X96436276Y-46192207D01*
X96470076Y-46226007D01*
X96326076Y-46370007D01*
X96122212Y-46370007D01*
X95978212Y-46226007D01*
X96012012Y-46192207D01*
X95978212Y-46158407D01*
X96122212Y-46014407D01*
X96326076Y-46014407D01*
X96470076Y-46158407D01*
G36*
X50266776Y-46158407D02*
X50232976Y-46192207D01*
X50266776Y-46226007D01*
X50122776Y-46370007D01*
X49918912Y-46370007D01*
X49774912Y-46226007D01*
X49808712Y-46192207D01*
X49774912Y-46158407D01*
X49918912Y-46014407D01*
X50122776Y-46014407D01*
X50266776Y-46158407D01*
X50266776Y-46158407D01*
G37*
X50266776Y-46158407D02*
X50232976Y-46192207D01*
X50266776Y-46226007D01*
X50122776Y-46370007D01*
X49918912Y-46370007D01*
X49774912Y-46226007D01*
X49808712Y-46192207D01*
X49774912Y-46158407D01*
X49918912Y-46014407D01*
X50122776Y-46014407D01*
X50266776Y-46158407D01*
M02*
