G04 #@! TF.FileFunction,Legend,Bot*
%FSLAX46Y46*%
G04 Gerber Fmt 4.6, Leading zero omitted, Abs format (unit mm)*
G04 Created by KiCad (PCBNEW 4.0.0-rc2-stable) date 3/3/2016 3:43:28 PM*
%MOMM*%
G01*
G04 APERTURE LIST*
%ADD10C,0.150000*%
%ADD11C,0.025400*%
G04 APERTURE END LIST*
D10*
D11*
G36*
X71564740Y-26122100D02*
X59578533Y-26122100D01*
X59573592Y-26123101D01*
X59569537Y-26125835D01*
X59568389Y-26126987D01*
X59565610Y-26131194D01*
X59564685Y-26135952D01*
X59564685Y-30722649D01*
X59565686Y-30727590D01*
X59568397Y-30731621D01*
X59569545Y-30732771D01*
X59573744Y-30735561D01*
X59578533Y-30736499D01*
X70591730Y-30736499D01*
X70591730Y-38075400D01*
X59578533Y-38075400D01*
X59573592Y-38076401D01*
X59569545Y-38079128D01*
X59568397Y-38080278D01*
X59565614Y-38084481D01*
X59564685Y-38089250D01*
X59564685Y-43788097D01*
X59565686Y-43793038D01*
X59568374Y-43797046D01*
X59569522Y-43798202D01*
X59573713Y-43801003D01*
X59578533Y-43801953D01*
X71982234Y-43801953D01*
X71982234Y-51140857D01*
X51347424Y-51140857D01*
X51347424Y-18737550D01*
X71564740Y-18737550D01*
X71564740Y-26122100D01*
X71564740Y-26122100D01*
G37*
X71564740Y-26122100D02*
X59578533Y-26122100D01*
X59573592Y-26123101D01*
X59569537Y-26125835D01*
X59568389Y-26126987D01*
X59565610Y-26131194D01*
X59564685Y-26135952D01*
X59564685Y-30722649D01*
X59565686Y-30727590D01*
X59568397Y-30731621D01*
X59569545Y-30732771D01*
X59573744Y-30735561D01*
X59578533Y-30736499D01*
X70591730Y-30736499D01*
X70591730Y-38075400D01*
X59578533Y-38075400D01*
X59573592Y-38076401D01*
X59569545Y-38079128D01*
X59568397Y-38080278D01*
X59565614Y-38084481D01*
X59564685Y-38089250D01*
X59564685Y-43788097D01*
X59565686Y-43793038D01*
X59568374Y-43797046D01*
X59569522Y-43798202D01*
X59573713Y-43801003D01*
X59578533Y-43801953D01*
X71982234Y-43801953D01*
X71982234Y-51140857D01*
X51347424Y-51140857D01*
X51347424Y-18737550D01*
X71564740Y-18737550D01*
X71564740Y-26122100D01*
M02*
