G04 #@! TF.FileFunction,Profile,NP*
%FSLAX46Y46*%
G04 Gerber Fmt 4.6, Leading zero omitted, Abs format (unit mm)*
G04 Created by KiCad (PCBNEW 4.0.0-rc2-stable) date 3/3/2016 3:46:15 PM*
%MOMM*%
G01*
G04 APERTURE LIST*
%ADD10C,0.150000*%
%ADD11C,0.100000*%
G04 APERTURE END LIST*
D10*
D11*
X79220000Y-51200000D02*
X76260000Y-51200000D01*
X76260000Y-51200000D02*
X59910000Y-35220000D01*
X59910000Y-35220000D02*
X59910000Y-51150000D01*
X59910000Y-51150000D02*
X59900000Y-51160000D01*
X59900000Y-51160000D02*
X51330000Y-51160000D01*
X51330000Y-51160000D02*
X51330000Y-51150000D01*
X51330000Y-51150000D02*
X46630000Y-51150000D01*
X46630000Y-51150000D02*
X46630000Y-45150000D01*
X46630000Y-45150000D02*
X51330000Y-45150000D01*
X51330000Y-45150000D02*
X51330000Y-18580000D01*
X51330000Y-18580000D02*
X51330000Y-18580000D01*
X51330000Y-18580000D02*
X54350000Y-18580000D01*
X54350000Y-18580000D02*
X70740000Y-34610000D01*
X70740000Y-34610000D02*
X70740000Y-18720000D01*
X70740000Y-18720000D02*
X70740000Y-18720000D01*
X70740000Y-18720000D02*
X79220000Y-18720000D01*
X79220000Y-18720000D02*
X79220000Y-18720000D01*
X79220000Y-18720000D02*
X79220000Y-45150000D01*
X79220000Y-45150000D02*
X83920000Y-45150000D01*
X83920000Y-45150000D02*
X83920000Y-51150000D01*
X83920000Y-51150000D02*
X79220000Y-51150000D01*
X79220000Y-51150000D02*
X79220000Y-51200000D01*
X79220000Y-51200000D02*
X79220000Y-51200000D01*
X79220000Y-51200000D02*
X79220000Y-51200000D01*
X79220000Y-51200000D02*
X79220000Y-51200000D01*
M02*
