M48
;DRILL file {KiCad 4.0.0-rc2-stable} date 3/3/2016 3:43:11 PM
;FORMAT={-:-/ absolute / inch / decimal}
FMAT,2
INCH,TZ
T1C0.012
T2C0.016
%
G90
G05
M72
T1
X2.084Y-1.5139G85X2.084Y-1.5139
G05
X2.2268Y-0.8504G85X2.2268Y-0.8504
G05
X2.2268Y-1.0946G85X2.2268Y-1.0946
G05
X2.2268Y-1.3388G85X2.2268Y-1.3388
G05
X2.2268Y-1.583G85X2.2268Y-1.583
G05
X2.2268Y-1.8272G85X2.2268Y-1.8272
G05
X2.3758Y-1.8299G85X2.3758Y-1.8299
G05
X2.4491Y-0.9211G85X2.4491Y-0.9211
G05
X2.6125Y-1.8201G85X2.6125Y-1.8201
G05
X2.675Y-0.954G85X2.675Y-0.954
G05
X2.8003Y-1.7155G85X2.8003Y-1.7155
G05
X2.8476Y-1.0904G85X2.8476Y-1.0904
G05
X2.9104Y-1.5223G85X2.9104Y-1.5223
G05
X2.926Y-1.2982G85X2.926Y-1.2982
G05
T2
X1.9693Y-1.8186G85X1.9693Y-1.8186
G05
X1.9693Y-1.8973G85X1.9693Y-1.8973
G05
X1.9693Y-1.9761G85X1.9693Y-1.9761
G05
X3.1809Y-1.8186G85X3.1809Y-1.8186
G05
X3.1809Y-1.8973G85X3.1809Y-1.8973
G05
X3.1809Y-1.9761G85X3.1809Y-1.9761
G05
T0
M30
