G04 #@! TF.FileFunction,Legend,Bot*
%FSLAX46Y46*%
G04 Gerber Fmt 4.6, Leading zero omitted, Abs format (unit mm)*
G04 Created by KiCad (PCBNEW 4.0.0-rc2-stable) date 3/3/2016 4:04:38 PM*
%MOMM*%
G01*
G04 APERTURE LIST*
%ADD10C,0.150000*%
%ADD11C,0.025400*%
G04 APERTURE END LIST*
D10*
D11*
G36*
X59796634Y-30491104D02*
X59797635Y-30496045D01*
X59800362Y-30500092D01*
X59801514Y-30501242D01*
X59805717Y-30504025D01*
X59810486Y-30504954D01*
X69817780Y-30504954D01*
X69822721Y-30503953D01*
X69826721Y-30501273D01*
X69827881Y-30500123D01*
X69830686Y-30495934D01*
X69831640Y-30491104D01*
X69831640Y-18737554D01*
X78283786Y-18737554D01*
X78283786Y-51140860D01*
X69831640Y-51140860D01*
X69831640Y-38136005D01*
X69830639Y-38131064D01*
X69827873Y-38126978D01*
X69826713Y-38125830D01*
X69822498Y-38123066D01*
X69817780Y-38122157D01*
X59810486Y-38122157D01*
X59805545Y-38123158D01*
X59801521Y-38125861D01*
X59800369Y-38127009D01*
X59797576Y-38131206D01*
X59796634Y-38136005D01*
X59796634Y-51140860D01*
X51346696Y-51140860D01*
X51346696Y-18737554D01*
X59796634Y-18737554D01*
X59796634Y-30491104D01*
X59796634Y-30491104D01*
G37*
X59796634Y-30491104D02*
X59797635Y-30496045D01*
X59800362Y-30500092D01*
X59801514Y-30501242D01*
X59805717Y-30504025D01*
X59810486Y-30504954D01*
X69817780Y-30504954D01*
X69822721Y-30503953D01*
X69826721Y-30501273D01*
X69827881Y-30500123D01*
X69830686Y-30495934D01*
X69831640Y-30491104D01*
X69831640Y-18737554D01*
X78283786Y-18737554D01*
X78283786Y-51140860D01*
X69831640Y-51140860D01*
X69831640Y-38136005D01*
X69830639Y-38131064D01*
X69827873Y-38126978D01*
X69826713Y-38125830D01*
X69822498Y-38123066D01*
X69817780Y-38122157D01*
X59810486Y-38122157D01*
X59805545Y-38123158D01*
X59801521Y-38125861D01*
X59800369Y-38127009D01*
X59797576Y-38131206D01*
X59796634Y-38136005D01*
X59796634Y-51140860D01*
X51346696Y-51140860D01*
X51346696Y-18737554D01*
X59796634Y-18737554D01*
X59796634Y-30491104D01*
M02*
