G04 #@! TF.FileFunction,Soldermask,Top*
%FSLAX46Y46*%
G04 Gerber Fmt 4.6, Leading zero omitted, Abs format (unit mm)*
G04 Created by KiCad (PCBNEW 4.0.0-rc2-stable) date 3/3/2016 3:45:09 PM*
%MOMM*%
G01*
G04 APERTURE LIST*
%ADD10C,0.150000*%
%ADD11R,0.500000X1.800000*%
%ADD12R,0.320000X2.300000*%
%ADD13R,0.800000X2.300000*%
%ADD14R,1.800000X0.500000*%
%ADD15R,2.300000X0.320000*%
%ADD16R,2.300000X0.800000*%
%ADD17R,4.000000X1.000000*%
%ADD18C,0.600000*%
G04 APERTURE END LIST*
D10*
D11*
X55799590Y-40035686D03*
D12*
X53899590Y-40035686D03*
D13*
X55149590Y-40035686D03*
D10*
G36*
X57367855Y-44275490D02*
X58581651Y-45604663D01*
X58212437Y-45941828D01*
X56998641Y-44612655D01*
X57367855Y-44275490D01*
X57367855Y-44275490D01*
G37*
G36*
X55729799Y-45432801D02*
X57280760Y-47131189D01*
X57044463Y-47346975D01*
X55493502Y-45648587D01*
X55729799Y-45432801D01*
X55729799Y-45432801D01*
G37*
G36*
X56830058Y-44428048D02*
X58381019Y-46126435D01*
X57790276Y-46665900D01*
X56239315Y-44967513D01*
X56830058Y-44428048D01*
X56830058Y-44428048D01*
G37*
G36*
X62013594Y-46795943D02*
X63808175Y-46935511D01*
X63769406Y-47434005D01*
X61974825Y-47294437D01*
X62013594Y-46795943D01*
X62013594Y-46795943D01*
G37*
G36*
X61610046Y-48760566D02*
X63903122Y-48938903D01*
X63878310Y-49257940D01*
X61585234Y-49079603D01*
X61610046Y-48760566D01*
X61610046Y-48760566D01*
G37*
G36*
X61725577Y-47275053D02*
X64018653Y-47453390D01*
X63956623Y-48250981D01*
X61663547Y-48072644D01*
X61725577Y-47275053D01*
X61725577Y-47275053D01*
G37*
G36*
X67511245Y-45982797D02*
X68997921Y-44968009D01*
X69279807Y-45380975D01*
X67793131Y-46395763D01*
X67511245Y-45982797D01*
X67511245Y-45982797D01*
G37*
G36*
X68426667Y-47767343D02*
X70326308Y-46470669D01*
X70506715Y-46734967D01*
X68607074Y-48031641D01*
X68426667Y-47767343D01*
X68426667Y-47767343D01*
G37*
G36*
X67586648Y-46536705D02*
X69486289Y-45240032D01*
X69937306Y-45900777D01*
X68037665Y-47197450D01*
X67586648Y-46536705D01*
X67586648Y-46536705D01*
G37*
G36*
X70707228Y-42079476D02*
X70881199Y-40287903D01*
X71378858Y-40336228D01*
X71204887Y-42127801D01*
X70707228Y-42079476D01*
X70707228Y-42079476D01*
G37*
G36*
X72663749Y-42520641D02*
X72886045Y-40231409D01*
X73204547Y-40262337D01*
X72982251Y-42551569D01*
X72663749Y-42520641D01*
X72663749Y-42520641D01*
G37*
G36*
X71180724Y-42376631D02*
X71403021Y-40087399D01*
X72199276Y-40164719D01*
X71976979Y-42453951D01*
X71180724Y-42376631D01*
X71180724Y-42376631D01*
G37*
D11*
X71143080Y-35021465D03*
D12*
X73043080Y-35021465D03*
D13*
X71793080Y-35021465D03*
D11*
X71143080Y-28815262D03*
D12*
X73043080Y-28815262D03*
D13*
X71793080Y-28815262D03*
D11*
X71143080Y-22609060D03*
D12*
X73043080Y-22609060D03*
D13*
X71793080Y-22609060D03*
D14*
X66223305Y-23004706D03*
D15*
X66223305Y-21104706D03*
D16*
X66223305Y-22354706D03*
D17*
X78367330Y-50192207D03*
X78367330Y-48192207D03*
X78367330Y-46192207D03*
D18*
X77367330Y-50192207D03*
X77367330Y-48192207D03*
X77367330Y-46192207D03*
D17*
X49020836Y-46192207D03*
X49020836Y-48192207D03*
X49020836Y-50192207D03*
D18*
X50020836Y-46192207D03*
X50020836Y-48192207D03*
X50020836Y-50192207D03*
M02*
