G04 #@! TF.FileFunction,Profile,NP*
%FSLAX46Y46*%
G04 Gerber Fmt 4.6, Leading zero omitted, Abs format (unit mm)*
G04 Created by KiCad (PCBNEW 4.0.0-rc2-stable) date 3/3/2016 3:42:37 PM*
%MOMM*%
G01*
G04 APERTURE LIST*
%ADD10C,0.150000*%
%ADD11C,0.100000*%
G04 APERTURE END LIST*
D10*
D11*
X67970000Y-51480000D02*
X64920000Y-51220000D01*
X64920000Y-51220000D02*
X64680000Y-51150000D01*
X64680000Y-51150000D02*
X46630000Y-51150000D01*
X46630000Y-51150000D02*
X46630000Y-45150000D01*
X46630000Y-45150000D02*
X54560000Y-45150000D01*
X54560000Y-45150000D02*
X54440000Y-45010000D01*
X54440000Y-45010000D02*
X52770000Y-42170000D01*
X52770000Y-42170000D02*
X52140000Y-40550000D01*
X52140000Y-40550000D02*
X51690000Y-38810000D01*
X51690000Y-38810000D02*
X51420000Y-36940000D01*
X51420000Y-36940000D02*
X51330000Y-34940000D01*
X51330000Y-34940000D02*
X51420000Y-32940000D01*
X51420000Y-32940000D02*
X51690000Y-31070000D01*
X51690000Y-31070000D02*
X52140000Y-29330000D01*
X52140000Y-29330000D02*
X52770000Y-27710000D01*
X52770000Y-27710000D02*
X54440000Y-24860000D01*
X54440000Y-24860000D02*
X55440000Y-23630000D01*
X55440000Y-23630000D02*
X56570000Y-22520000D01*
X56570000Y-22520000D02*
X59090000Y-20700000D01*
X59090000Y-20700000D02*
X61920000Y-19400000D01*
X61920000Y-19400000D02*
X64920000Y-18610000D01*
X64920000Y-18610000D02*
X67970000Y-18350000D01*
X67970000Y-18350000D02*
X70470000Y-18530000D01*
X70470000Y-18530000D02*
X72990000Y-19070000D01*
X72990000Y-19070000D02*
X75410000Y-19980000D01*
X75410000Y-19980000D02*
X77630000Y-21270000D01*
X77630000Y-21270000D02*
X79580000Y-22970000D01*
X79580000Y-22970000D02*
X81240000Y-25090000D01*
X81240000Y-25090000D02*
X82490000Y-27660000D01*
X82490000Y-27660000D02*
X83210000Y-30680000D01*
X83210000Y-30680000D02*
X83210000Y-30680000D01*
X83210000Y-30680000D02*
X75050000Y-30680000D01*
X75050000Y-30680000D02*
X74560000Y-29510000D01*
X74560000Y-29510000D02*
X73950000Y-28520000D01*
X73950000Y-28520000D02*
X73220000Y-27690000D01*
X73220000Y-27690000D02*
X72390000Y-27040000D01*
X72390000Y-27040000D02*
X71450000Y-26540000D01*
X71450000Y-26540000D02*
X70390000Y-26190000D01*
X70390000Y-26190000D02*
X67970000Y-25910000D01*
X67970000Y-25910000D02*
X66230000Y-26070000D01*
X66230000Y-26070000D02*
X64650000Y-26550000D01*
X64650000Y-26550000D02*
X63260000Y-27340000D01*
X63260000Y-27340000D02*
X62110000Y-28410000D01*
X62110000Y-28410000D02*
X61180000Y-29730000D01*
X61180000Y-29730000D02*
X60480000Y-31280000D01*
X60480000Y-31280000D02*
X60050000Y-33030000D01*
X60050000Y-33030000D02*
X59910000Y-34940000D01*
X59910000Y-34940000D02*
X60050000Y-36700000D01*
X60050000Y-36700000D02*
X60480000Y-38370000D01*
X60480000Y-38370000D02*
X61180000Y-39890000D01*
X61180000Y-39890000D02*
X62110000Y-41220000D01*
X62110000Y-41220000D02*
X63260000Y-42320000D01*
X63260000Y-42320000D02*
X64630000Y-43180000D01*
X64630000Y-43180000D02*
X66210000Y-43740000D01*
X66210000Y-43740000D02*
X67970000Y-43930000D01*
X67970000Y-43930000D02*
X69240000Y-43840000D01*
X69240000Y-43840000D02*
X70440000Y-43600000D01*
X70440000Y-43600000D02*
X71550000Y-43200000D01*
X71550000Y-43200000D02*
X72570000Y-42630000D01*
X72570000Y-42630000D02*
X73480000Y-41900000D01*
X73480000Y-41900000D02*
X74210000Y-41000000D01*
X74210000Y-41000000D02*
X74790000Y-39930000D01*
X74790000Y-39930000D02*
X75190000Y-38690000D01*
X75190000Y-38690000D02*
X83350000Y-38690000D01*
X83350000Y-38690000D02*
X83350000Y-38690000D01*
X83350000Y-38690000D02*
X82620000Y-41870000D01*
X82620000Y-41870000D02*
X81380000Y-44550000D01*
X81380000Y-44550000D02*
X80930000Y-45150000D01*
X80930000Y-45150000D02*
X88050000Y-45150000D01*
X88050000Y-45150000D02*
X88050000Y-51150000D01*
X88050000Y-51150000D02*
X71240000Y-51150000D01*
X71240000Y-51150000D02*
X70550000Y-51300000D01*
X70550000Y-51300000D02*
X67970000Y-51480000D01*
X67970000Y-51480000D02*
X67970000Y-51480000D01*
X67970000Y-51480000D02*
X67970000Y-51480000D01*
M02*
