G04 #@! TF.FileFunction,Copper,L2,Bot,Signal*
%FSLAX46Y46*%
G04 Gerber Fmt 4.6, Leading zero omitted, Abs format (unit mm)*
G04 Created by KiCad (PCBNEW 4.0.0-rc2-stable) date 3/3/2016 3:43:48 PM*
%MOMM*%
G01*
G04 APERTURE LIST*
%ADD10C,0.150000*%
%ADD11C,0.500000*%
%ADD12R,4.000000X1.000000*%
%ADD13C,0.600000*%
%ADD14R,0.760000X2.000000*%
%ADD15R,0.740000X2.000000*%
%ADD16R,0.900000X0.600000*%
%ADD17R,0.900000X0.200000*%
%ADD18R,3.800000X0.200000*%
%ADD19R,6.500000X0.200000*%
%ADD20R,0.200000X0.400000*%
%ADD21R,0.200000X0.800000*%
%ADD22R,2.000000X0.200000*%
%ADD23C,0.254000*%
%ADD24C,0.152400*%
G04 APERTURE END LIST*
D10*
D11*
X68784830Y-21097104D03*
X62543273Y-21097104D03*
X54169264Y-21165826D03*
X54169264Y-27365937D03*
X54169264Y-33566050D03*
X54169264Y-39766164D03*
X54169264Y-45966270D03*
X59386046Y-36010907D03*
X65602840Y-36010907D03*
D12*
X73919334Y-50192207D03*
X73919334Y-48192207D03*
X73919334Y-46192207D03*
D13*
X72919334Y-50192207D03*
X72919334Y-48192207D03*
X72919334Y-46192207D03*
D12*
X49020840Y-46192207D03*
X49020840Y-48192207D03*
X49020840Y-50192207D03*
D13*
X50020840Y-46192207D03*
X50020840Y-48192207D03*
X50020840Y-50192207D03*
D10*
G36*
X58090415Y-25889190D02*
X58714150Y-28823633D01*
X56170967Y-29364204D01*
X55547232Y-26429761D01*
X58090415Y-25889190D01*
X58090415Y-25889190D01*
G37*
G36*
X63028799Y-46717594D02*
X63652534Y-49652036D01*
X60131203Y-50400518D01*
X59507468Y-47466076D01*
X63028799Y-46717594D01*
X63028799Y-46717594D01*
G37*
D11*
X61975033Y-50417536D03*
D14*
X58693628Y-20430437D03*
X57423628Y-20430437D03*
X56153628Y-20430437D03*
X54883628Y-20430437D03*
X58693628Y-23630437D03*
X57423628Y-23630437D03*
X56153628Y-23630437D03*
D15*
X54883628Y-23630437D03*
D16*
X59888628Y-24330437D03*
X59888628Y-22830437D03*
X61138628Y-22830437D03*
X61138628Y-24330437D03*
X62388628Y-24330437D03*
X62388628Y-22830437D03*
D17*
X59238628Y-22880437D03*
D18*
X59238628Y-22230437D03*
D19*
X59238628Y-21780437D03*
D20*
X61038628Y-22430437D03*
X57438628Y-22430437D03*
D21*
X56088628Y-22230437D03*
X62388628Y-22230437D03*
D22*
X61088628Y-24330437D03*
D23*
X61580000Y-48560000D02*
X61980000Y-50420000D01*
X61580000Y-48560000D02*
X61980000Y-50420000D01*
X61580000Y-48560000D02*
X61980000Y-50420000D01*
X61580000Y-48560000D02*
X61980000Y-50420000D01*
X61580000Y-48560000D02*
X61980000Y-50420000D01*
X61580000Y-48560000D02*
X61980000Y-50420000D01*
X61580000Y-48560000D02*
X61980000Y-50420000D01*
X61580000Y-48560000D02*
X61980000Y-50420000D01*
X61580000Y-48560000D02*
X61980000Y-50420000D01*
X57130000Y-27630000D02*
X61090000Y-24330000D01*
X57130000Y-27630000D02*
X61090000Y-24330000D01*
X57130000Y-27630000D02*
X61090000Y-24330000D01*
X57130000Y-27630000D02*
X61090000Y-24330000D01*
X57130000Y-27630000D02*
X61090000Y-24330000D01*
X57130000Y-27630000D02*
X61090000Y-24330000D01*
X57130000Y-27630000D02*
X61090000Y-24330000D01*
X57130000Y-27630000D02*
X61090000Y-24330000D01*
X57130000Y-27630000D02*
X61090000Y-24330000D01*
D24*
G36*
X54008367Y-19099515D02*
X53919428Y-19314233D01*
X53919428Y-20106587D01*
X54065476Y-20252635D01*
X53919428Y-20252635D01*
X53919428Y-20353861D01*
X53914193Y-20354430D01*
X53775883Y-20411720D01*
X53767405Y-20587190D01*
X53926965Y-20746750D01*
X53919428Y-20754287D01*
X53919428Y-21092767D01*
X53590628Y-20763967D01*
X53415158Y-20772445D01*
X53322020Y-21090973D01*
X53357868Y-21420897D01*
X53415158Y-21559207D01*
X53590628Y-21567685D01*
X53919428Y-21238885D01*
X53919428Y-21546641D01*
X53932842Y-21579025D01*
X53767405Y-21744462D01*
X53775883Y-21919932D01*
X54094411Y-22013070D01*
X54323536Y-21988174D01*
X54387423Y-22014637D01*
X54559778Y-22014637D01*
X54705828Y-21868587D01*
X54705828Y-21525613D01*
X54747900Y-21567685D01*
X54923370Y-21559207D01*
X55016508Y-21240679D01*
X54980660Y-20910755D01*
X54923370Y-20772445D01*
X54747900Y-20763967D01*
X54705828Y-20806039D01*
X54705828Y-20608237D01*
X54685828Y-20608237D01*
X54685828Y-20518468D01*
X62141414Y-20518468D01*
X62543273Y-20920327D01*
X62945132Y-20518468D01*
X68382971Y-20518468D01*
X68784830Y-20920327D01*
X69186689Y-20518468D01*
X69178211Y-20342998D01*
X68859683Y-20249860D01*
X68529759Y-20285708D01*
X68391449Y-20342998D01*
X68382971Y-20518468D01*
X62945132Y-20518468D01*
X62936654Y-20342998D01*
X62618126Y-20249860D01*
X62288202Y-20285708D01*
X62149892Y-20342998D01*
X62141414Y-20518468D01*
X54685828Y-20518468D01*
X54685828Y-20252637D01*
X54705828Y-20252637D01*
X54705828Y-20232637D01*
X55061428Y-20232637D01*
X55061428Y-20252637D01*
X55975828Y-20252637D01*
X55975828Y-20232637D01*
X56331428Y-20232637D01*
X56331428Y-20252637D01*
X57245828Y-20252637D01*
X57245828Y-20232637D01*
X57601428Y-20232637D01*
X57601428Y-20252637D01*
X58515828Y-20252637D01*
X58515828Y-20232637D01*
X58871428Y-20232637D01*
X58871428Y-20252637D01*
X59511778Y-20252637D01*
X59657828Y-20106587D01*
X59657828Y-19314233D01*
X59568889Y-19099515D01*
X59467975Y-18998600D01*
X71251400Y-18998600D01*
X71251400Y-25861400D01*
X59807785Y-25861400D01*
X61005247Y-24863515D01*
X61588628Y-24863515D01*
X61673342Y-24847575D01*
X61751146Y-24797509D01*
X61763166Y-24779917D01*
X61771556Y-24792955D01*
X61847948Y-24845152D01*
X61938628Y-24863515D01*
X62838628Y-24863515D01*
X62923342Y-24847575D01*
X63001146Y-24797509D01*
X63053343Y-24721117D01*
X63071706Y-24630437D01*
X63071706Y-24030437D01*
X63055766Y-23945723D01*
X63005700Y-23867919D01*
X62929308Y-23815722D01*
X62838628Y-23797359D01*
X61938628Y-23797359D01*
X61853914Y-23813299D01*
X61776110Y-23863365D01*
X61764090Y-23880957D01*
X61755700Y-23867919D01*
X61679308Y-23815722D01*
X61588628Y-23797359D01*
X60688628Y-23797359D01*
X60603914Y-23813299D01*
X60526110Y-23863365D01*
X60514090Y-23880957D01*
X60505700Y-23867919D01*
X60429308Y-23815722D01*
X60338628Y-23797359D01*
X59438628Y-23797359D01*
X59353914Y-23813299D01*
X59306706Y-23843677D01*
X59306706Y-23316972D01*
X59347948Y-23345152D01*
X59438628Y-23363515D01*
X60338628Y-23363515D01*
X60423342Y-23347575D01*
X60501146Y-23297509D01*
X60513166Y-23279917D01*
X60521556Y-23292955D01*
X60597948Y-23345152D01*
X60688628Y-23363515D01*
X61588628Y-23363515D01*
X61673342Y-23347575D01*
X61751146Y-23297509D01*
X61763166Y-23279917D01*
X61771556Y-23292955D01*
X61847948Y-23345152D01*
X61938628Y-23363515D01*
X62838628Y-23363515D01*
X62923342Y-23347575D01*
X63001146Y-23297509D01*
X63053343Y-23221117D01*
X63071706Y-23130437D01*
X63071706Y-22530437D01*
X63055766Y-22445723D01*
X63005700Y-22367919D01*
X62929308Y-22315722D01*
X62838628Y-22297359D01*
X62721706Y-22297359D01*
X62721706Y-21916827D01*
X62798344Y-21908500D01*
X62936654Y-21851210D01*
X62945132Y-21675740D01*
X68382971Y-21675740D01*
X68391449Y-21851210D01*
X68709977Y-21944348D01*
X69039901Y-21908500D01*
X69178211Y-21851210D01*
X69186689Y-21675740D01*
X68784830Y-21273881D01*
X68382971Y-21675740D01*
X62945132Y-21675740D01*
X62543273Y-21273881D01*
X62491796Y-21325359D01*
X62315019Y-21148582D01*
X62366496Y-21097104D01*
X62720050Y-21097104D01*
X63121909Y-21498963D01*
X63297379Y-21490485D01*
X63390517Y-21171957D01*
X63374251Y-21022251D01*
X67937586Y-21022251D01*
X67973434Y-21352175D01*
X68030724Y-21490485D01*
X68206194Y-21498963D01*
X68608053Y-21097104D01*
X68961607Y-21097104D01*
X69363466Y-21498963D01*
X69538936Y-21490485D01*
X69632074Y-21171957D01*
X69596226Y-20842033D01*
X69538936Y-20703723D01*
X69363466Y-20695245D01*
X68961607Y-21097104D01*
X68608053Y-21097104D01*
X68206194Y-20695245D01*
X68030724Y-20703723D01*
X67937586Y-21022251D01*
X63374251Y-21022251D01*
X63354669Y-20842033D01*
X63297379Y-20703723D01*
X63121909Y-20695245D01*
X62720050Y-21097104D01*
X62366496Y-21097104D01*
X61964637Y-20695245D01*
X61789167Y-20703723D01*
X61696029Y-21022251D01*
X61731877Y-21352175D01*
X61771304Y-21447359D01*
X59657828Y-21447359D01*
X59657828Y-20754287D01*
X59511778Y-20608237D01*
X58871428Y-20608237D01*
X58871428Y-20628237D01*
X58515828Y-20628237D01*
X58515828Y-20608237D01*
X57601428Y-20608237D01*
X57601428Y-20628237D01*
X57245828Y-20628237D01*
X57245828Y-20608237D01*
X56331428Y-20608237D01*
X56331428Y-20628237D01*
X55975828Y-20628237D01*
X55975828Y-20608237D01*
X55061428Y-20608237D01*
X55061428Y-21868587D01*
X55207478Y-22014637D01*
X55379833Y-22014637D01*
X55518628Y-21957146D01*
X55657423Y-22014637D01*
X55755550Y-22014637D01*
X55755550Y-22400761D01*
X55688914Y-22413299D01*
X55611110Y-22463365D01*
X55558913Y-22539757D01*
X55540550Y-22630437D01*
X55540550Y-24630437D01*
X55556490Y-24715151D01*
X55606556Y-24792955D01*
X55682948Y-24845152D01*
X55773628Y-24863515D01*
X56533628Y-24863515D01*
X56618342Y-24847575D01*
X56696146Y-24797509D01*
X56748343Y-24721117D01*
X56766706Y-24630437D01*
X56766706Y-22630437D01*
X56750766Y-22545723D01*
X56700700Y-22467919D01*
X56624308Y-22415722D01*
X56533628Y-22397359D01*
X56421706Y-22397359D01*
X56421706Y-22113515D01*
X57108977Y-22113515D01*
X57105550Y-22130437D01*
X57105550Y-22397359D01*
X57043628Y-22397359D01*
X56958914Y-22413299D01*
X56881110Y-22463365D01*
X56828913Y-22539757D01*
X56810550Y-22630437D01*
X56810550Y-24630437D01*
X56826490Y-24715151D01*
X56876556Y-24792955D01*
X56952948Y-24845152D01*
X57043628Y-24863515D01*
X57803628Y-24863515D01*
X57888342Y-24847575D01*
X57966146Y-24797509D01*
X58018343Y-24721117D01*
X58036706Y-24630437D01*
X58036706Y-22630437D01*
X58024114Y-22563515D01*
X58094102Y-22563515D01*
X58080550Y-22630437D01*
X58080550Y-24630437D01*
X58096490Y-24715151D01*
X58146556Y-24792955D01*
X58222948Y-24845152D01*
X58313628Y-24863515D01*
X59073628Y-24863515D01*
X59158342Y-24847575D01*
X59236146Y-24797509D01*
X59255891Y-24768611D01*
X59271556Y-24792955D01*
X59347948Y-24845152D01*
X59438628Y-24863515D01*
X59894317Y-24863515D01*
X58379081Y-26126212D01*
X58318400Y-25840730D01*
X58285195Y-25761182D01*
X58220047Y-25695487D01*
X58134472Y-25660314D01*
X58041955Y-25661205D01*
X55498772Y-26201776D01*
X55419224Y-26234981D01*
X55353529Y-26300129D01*
X55318356Y-26385704D01*
X55319247Y-26478221D01*
X55942982Y-29412664D01*
X55976187Y-29492212D01*
X56041335Y-29557907D01*
X56126910Y-29593080D01*
X56219427Y-29592189D01*
X58762610Y-29051618D01*
X58842158Y-29018413D01*
X58907853Y-28953265D01*
X58943026Y-28867690D01*
X58942135Y-28775173D01*
X58546250Y-26912679D01*
X59494964Y-26122084D01*
X59491400Y-26140000D01*
X59491400Y-33220000D01*
X59512607Y-33326616D01*
X59573000Y-33417000D01*
X59663384Y-33477393D01*
X59770000Y-33498600D01*
X69911400Y-33498600D01*
X69911400Y-40361400D01*
X59770000Y-40361400D01*
X59663384Y-40382607D01*
X59573000Y-40443000D01*
X59512607Y-40533384D01*
X59491400Y-40640000D01*
X59491400Y-45150000D01*
X59512607Y-45256616D01*
X59573000Y-45347000D01*
X59663384Y-45407393D01*
X59770000Y-45428600D01*
X71396190Y-45428600D01*
X71335134Y-45576002D01*
X71335134Y-45868357D01*
X71481184Y-46014407D01*
X72051414Y-46014407D01*
X72019922Y-46130540D01*
X72050716Y-46370007D01*
X71481184Y-46370007D01*
X71335134Y-46516057D01*
X71335134Y-46808412D01*
X71424073Y-47023130D01*
X71588412Y-47187468D01*
X71803130Y-47276407D01*
X73595484Y-47276407D01*
X73741534Y-47130357D01*
X73741534Y-46538605D01*
X73818746Y-46253874D01*
X73785380Y-45994407D01*
X74097134Y-45994407D01*
X74097134Y-46014407D01*
X74117134Y-46014407D01*
X74117134Y-46370007D01*
X74097134Y-46370007D01*
X74097134Y-47130357D01*
X74243184Y-47276407D01*
X75951400Y-47276407D01*
X75951400Y-47465622D01*
X75919334Y-47459129D01*
X71919334Y-47459129D01*
X71834620Y-47475069D01*
X71756816Y-47525135D01*
X71704619Y-47601527D01*
X71686256Y-47692207D01*
X71686256Y-48692207D01*
X71702196Y-48776921D01*
X71752262Y-48854725D01*
X71828654Y-48906922D01*
X71919334Y-48925285D01*
X75919334Y-48925285D01*
X75951400Y-48919251D01*
X75951400Y-49108007D01*
X74243184Y-49108007D01*
X74097134Y-49254057D01*
X74097134Y-50014407D01*
X74117134Y-50014407D01*
X74117134Y-50370007D01*
X74097134Y-50370007D01*
X74097134Y-50390007D01*
X73781830Y-50390007D01*
X73818746Y-50253874D01*
X73773881Y-49904990D01*
X73741534Y-49826897D01*
X73741534Y-49254057D01*
X73595484Y-49108007D01*
X71803130Y-49108007D01*
X71588412Y-49196946D01*
X71424073Y-49361284D01*
X71335134Y-49576002D01*
X71335134Y-49868357D01*
X71481184Y-50014407D01*
X72051414Y-50014407D01*
X72019922Y-50130540D01*
X72050716Y-50370007D01*
X71481184Y-50370007D01*
X71335134Y-50516057D01*
X71335134Y-50808412D01*
X71361224Y-50871400D01*
X62129881Y-50871400D01*
X62245784Y-50823510D01*
X62380533Y-50688995D01*
X62453549Y-50513153D01*
X62453716Y-50322754D01*
X62386252Y-50159478D01*
X63700994Y-49880021D01*
X63780542Y-49846816D01*
X63846237Y-49781668D01*
X63881410Y-49696093D01*
X63880519Y-49603576D01*
X63256784Y-46669134D01*
X63223579Y-46589586D01*
X63158431Y-46523891D01*
X63072856Y-46488718D01*
X62980339Y-46489609D01*
X59459008Y-47238091D01*
X59379460Y-47271296D01*
X59313765Y-47336444D01*
X59278592Y-47422019D01*
X59279483Y-47514536D01*
X59903218Y-50448978D01*
X59936423Y-50528526D01*
X60001571Y-50594221D01*
X60087146Y-50629394D01*
X60179663Y-50628503D01*
X61496494Y-50348602D01*
X61496350Y-50512318D01*
X61569059Y-50688287D01*
X61703574Y-50823036D01*
X61820047Y-50871400D01*
X59770000Y-50871400D01*
X59719726Y-50881400D01*
X51574807Y-50881400D01*
X51605040Y-50808412D01*
X51605040Y-50516057D01*
X51458990Y-50370007D01*
X50888760Y-50370007D01*
X50920252Y-50253874D01*
X50889458Y-50014407D01*
X51458990Y-50014407D01*
X51605040Y-49868357D01*
X51605040Y-49576002D01*
X51516101Y-49361284D01*
X51351762Y-49196946D01*
X51137044Y-49108007D01*
X49344690Y-49108007D01*
X49198640Y-49254057D01*
X49198640Y-49845809D01*
X49121428Y-50130540D01*
X49154794Y-50390007D01*
X48843040Y-50390007D01*
X48843040Y-50370007D01*
X48823040Y-50370007D01*
X48823040Y-50014407D01*
X48843040Y-50014407D01*
X48843040Y-49254057D01*
X48696990Y-49108007D01*
X46908600Y-49108007D01*
X46908600Y-48892191D01*
X46930160Y-48906922D01*
X47020840Y-48925285D01*
X51020840Y-48925285D01*
X51105554Y-48909345D01*
X51183358Y-48859279D01*
X51235555Y-48782887D01*
X51253918Y-48692207D01*
X51253918Y-47692207D01*
X51237978Y-47607493D01*
X51187912Y-47529689D01*
X51111520Y-47477492D01*
X51020840Y-47459129D01*
X47020840Y-47459129D01*
X46936126Y-47475069D01*
X46908600Y-47492782D01*
X46908600Y-47276407D01*
X48696990Y-47276407D01*
X48843040Y-47130357D01*
X48843040Y-46370007D01*
X48823040Y-46370007D01*
X48823040Y-46014407D01*
X48843040Y-46014407D01*
X48843040Y-45994407D01*
X49158344Y-45994407D01*
X49121428Y-46130540D01*
X49166293Y-46479424D01*
X49198640Y-46557517D01*
X49198640Y-47130357D01*
X49344690Y-47276407D01*
X51137044Y-47276407D01*
X51351762Y-47187468D01*
X51516101Y-47023130D01*
X51605040Y-46808412D01*
X51605040Y-46544906D01*
X53767405Y-46544906D01*
X53775883Y-46720376D01*
X54094411Y-46813514D01*
X54424335Y-46777666D01*
X54562645Y-46720376D01*
X54571123Y-46544906D01*
X54169264Y-46143047D01*
X53767405Y-46544906D01*
X51605040Y-46544906D01*
X51605040Y-46516057D01*
X51458990Y-46370007D01*
X50888760Y-46370007D01*
X50920252Y-46253874D01*
X50889458Y-46014407D01*
X51458990Y-46014407D01*
X51581980Y-45891417D01*
X53322020Y-45891417D01*
X53357868Y-46221341D01*
X53415158Y-46359651D01*
X53590628Y-46368129D01*
X53992487Y-45966270D01*
X54346041Y-45966270D01*
X54747900Y-46368129D01*
X54923370Y-46359651D01*
X55016508Y-46041123D01*
X54980660Y-45711199D01*
X54923370Y-45572889D01*
X54747900Y-45564411D01*
X54346041Y-45966270D01*
X53992487Y-45966270D01*
X53590628Y-45564411D01*
X53415158Y-45572889D01*
X53322020Y-45891417D01*
X51581980Y-45891417D01*
X51605040Y-45868357D01*
X51605040Y-45576002D01*
X51527016Y-45387634D01*
X53767405Y-45387634D01*
X54169264Y-45789493D01*
X54571123Y-45387634D01*
X54562645Y-45212164D01*
X54244117Y-45119026D01*
X53914193Y-45154874D01*
X53775883Y-45212164D01*
X53767405Y-45387634D01*
X51527016Y-45387634D01*
X51516101Y-45361284D01*
X51511904Y-45357087D01*
X51527000Y-45347000D01*
X51587393Y-45256616D01*
X51608600Y-45150000D01*
X51608600Y-40344800D01*
X53767405Y-40344800D01*
X53775883Y-40520270D01*
X54094411Y-40613408D01*
X54424335Y-40577560D01*
X54562645Y-40520270D01*
X54571123Y-40344800D01*
X54169264Y-39942941D01*
X53767405Y-40344800D01*
X51608600Y-40344800D01*
X51608600Y-38730000D01*
X51913800Y-38730000D01*
X51913800Y-38760000D01*
X51919250Y-38788300D01*
X51939250Y-38838300D01*
X51949994Y-38856965D01*
X51972994Y-38876611D01*
X52062994Y-38926611D01*
X52100000Y-38936200D01*
X52170000Y-38936200D01*
X52197695Y-38930989D01*
X52223132Y-38914621D01*
X52240197Y-38889646D01*
X52246200Y-38860000D01*
X52246200Y-38714780D01*
X52303610Y-38635840D01*
X52457300Y-38533381D01*
X52508913Y-38526929D01*
X52610856Y-38542613D01*
X52991452Y-38809030D01*
X53247185Y-39054927D01*
X53270865Y-39070410D01*
X53549134Y-39185556D01*
X53443170Y-39291520D01*
X53519397Y-39367747D01*
X53415158Y-39372783D01*
X53322020Y-39691311D01*
X53357868Y-40021235D01*
X53415158Y-40159545D01*
X53590628Y-40168023D01*
X53992487Y-39766164D01*
X54346041Y-39766164D01*
X54747900Y-40168023D01*
X54923370Y-40159545D01*
X55016508Y-39841017D01*
X54980660Y-39511093D01*
X54923370Y-39372783D01*
X54747900Y-39364305D01*
X54346041Y-39766164D01*
X53992487Y-39766164D01*
X53941010Y-39714687D01*
X54117787Y-39537910D01*
X54169264Y-39589387D01*
X54571123Y-39187528D01*
X54562789Y-39015043D01*
X54578765Y-39005603D01*
X54596787Y-38990810D01*
X54766787Y-38800810D01*
X54774896Y-38789936D01*
X54854896Y-38659936D01*
X54866200Y-38620000D01*
X54866200Y-38480000D01*
X54864720Y-38465056D01*
X54854720Y-38415056D01*
X54848620Y-38396867D01*
X54830323Y-38372781D01*
X54804097Y-38357710D01*
X54744097Y-38337710D01*
X54720000Y-38333800D01*
X54650000Y-38333800D01*
X54608038Y-38346395D01*
X54586598Y-38367732D01*
X54432644Y-38598663D01*
X54201175Y-38793097D01*
X54036409Y-38853800D01*
X53824221Y-38853800D01*
X53665524Y-38836167D01*
X53186037Y-38538885D01*
X52871170Y-38253537D01*
X52833242Y-38234959D01*
X52663242Y-38204959D01*
X52650000Y-38203800D01*
X52440000Y-38203800D01*
X52418104Y-38207014D01*
X52218104Y-38267014D01*
X52186118Y-38286118D01*
X51956118Y-38516118D01*
X51944023Y-38531876D01*
X51934388Y-38560549D01*
X51914388Y-38720549D01*
X51913800Y-38730000D01*
X51608600Y-38730000D01*
X51608600Y-37190000D01*
X52093800Y-37190000D01*
X52093800Y-37220000D01*
X52104662Y-37259209D01*
X52125064Y-37281540D01*
X52152547Y-37294174D01*
X52322547Y-37334174D01*
X52340000Y-37336200D01*
X52720000Y-37336200D01*
X52728903Y-37335678D01*
X52983800Y-37305690D01*
X52983800Y-37467633D01*
X52944826Y-37584556D01*
X52931995Y-37594820D01*
X52697071Y-37603856D01*
X52690144Y-37604440D01*
X52230144Y-37664440D01*
X52212305Y-37669011D01*
X52186868Y-37685379D01*
X52169803Y-37710354D01*
X52163800Y-37740000D01*
X52163800Y-37880000D01*
X52169732Y-37909476D01*
X52186736Y-37934492D01*
X52212132Y-37950921D01*
X52241920Y-37956176D01*
X53431436Y-37926188D01*
X54200528Y-37916200D01*
X54300000Y-37916200D01*
X54312527Y-37915163D01*
X54372527Y-37905163D01*
X54403430Y-37892612D01*
X54424368Y-37870783D01*
X54435163Y-37842527D01*
X54445163Y-37782527D01*
X54446200Y-37770000D01*
X54446200Y-37700000D01*
X54444720Y-37685056D01*
X54434720Y-37635056D01*
X54422612Y-37606570D01*
X54400783Y-37585632D01*
X54372527Y-37574837D01*
X54312527Y-37564837D01*
X54297461Y-37563842D01*
X53697875Y-37583828D01*
X53326556Y-37591900D01*
X53345612Y-37439451D01*
X53346200Y-37430000D01*
X53346200Y-37292959D01*
X53733310Y-37276128D01*
X53740565Y-37275464D01*
X54240565Y-37205464D01*
X54266295Y-37197001D01*
X54289502Y-37177602D01*
X54329502Y-37127602D01*
X54340197Y-37109646D01*
X54346200Y-37080000D01*
X54346200Y-37010000D01*
X54340750Y-36981700D01*
X54320750Y-36931700D01*
X54310789Y-36914053D01*
X54288124Y-36894023D01*
X54259451Y-36884388D01*
X54179451Y-36874388D01*
X54165041Y-36873962D01*
X52785041Y-36963962D01*
X52779761Y-36964491D01*
X52189761Y-37044491D01*
X52172680Y-37048866D01*
X52147157Y-37065099D01*
X52129961Y-37089983D01*
X52099961Y-37159983D01*
X52093800Y-37190000D01*
X51608600Y-37190000D01*
X51608600Y-36491585D01*
X51984266Y-36491585D01*
X51984837Y-36512527D01*
X51994837Y-36572527D01*
X52003104Y-36596489D01*
X52063104Y-36706489D01*
X52091821Y-36735945D01*
X52281821Y-36845945D01*
X52310144Y-36855560D01*
X52540144Y-36885560D01*
X52560776Y-36885434D01*
X52700776Y-36865434D01*
X52716041Y-36861612D01*
X52741850Y-36845839D01*
X53017861Y-36589543D01*
X58984187Y-36589543D01*
X58992665Y-36765013D01*
X59311193Y-36858151D01*
X59641117Y-36822303D01*
X59779427Y-36765013D01*
X59787905Y-36589543D01*
X65200981Y-36589543D01*
X65209459Y-36765013D01*
X65527987Y-36858151D01*
X65857911Y-36822303D01*
X65996221Y-36765013D01*
X66004699Y-36589543D01*
X65602840Y-36187684D01*
X65200981Y-36589543D01*
X59787905Y-36589543D01*
X59386046Y-36187684D01*
X58984187Y-36589543D01*
X53017861Y-36589543D01*
X53021850Y-36585839D01*
X53037002Y-36566293D01*
X53147187Y-36362875D01*
X53505699Y-36335987D01*
X53534078Y-36328155D01*
X53589402Y-36300493D01*
X53732547Y-36334174D01*
X53750000Y-36336200D01*
X54580000Y-36336200D01*
X54592527Y-36335163D01*
X54652527Y-36325163D01*
X54683430Y-36312612D01*
X54704368Y-36290783D01*
X54715163Y-36262527D01*
X54725163Y-36202527D01*
X54726200Y-36190000D01*
X54726200Y-36090000D01*
X54722453Y-36066400D01*
X54707563Y-36040071D01*
X54683602Y-36021609D01*
X54654347Y-36013924D01*
X53956385Y-35974040D01*
X53688415Y-35944266D01*
X53649983Y-35949961D01*
X53626327Y-35960099D01*
X53624556Y-35958184D01*
X53596996Y-35945720D01*
X53566758Y-35944959D01*
X53403326Y-35973800D01*
X52840000Y-35973800D01*
X52825056Y-35975280D01*
X52775056Y-35985280D01*
X52736868Y-36005379D01*
X52730088Y-36015302D01*
X52716558Y-35999677D01*
X52689421Y-35986316D01*
X52659224Y-35984566D01*
X52379224Y-36024566D01*
X52348924Y-36035819D01*
X52098924Y-36195819D01*
X52070949Y-36227776D01*
X52000949Y-36377776D01*
X51994266Y-36401585D01*
X51989412Y-36445268D01*
X51984266Y-36491585D01*
X51608600Y-36491585D01*
X51608600Y-35936054D01*
X58538802Y-35936054D01*
X58574650Y-36265978D01*
X58631940Y-36404288D01*
X58807410Y-36412766D01*
X59209269Y-36010907D01*
X59562823Y-36010907D01*
X59964682Y-36412766D01*
X60140152Y-36404288D01*
X60233290Y-36085760D01*
X60217024Y-35936054D01*
X64755596Y-35936054D01*
X64791444Y-36265978D01*
X64848734Y-36404288D01*
X65024204Y-36412766D01*
X65426063Y-36010907D01*
X65779617Y-36010907D01*
X66181476Y-36412766D01*
X66356946Y-36404288D01*
X66450084Y-36085760D01*
X66414236Y-35755836D01*
X66356946Y-35617526D01*
X66181476Y-35609048D01*
X65779617Y-36010907D01*
X65426063Y-36010907D01*
X65024204Y-35609048D01*
X64848734Y-35617526D01*
X64755596Y-35936054D01*
X60217024Y-35936054D01*
X60197442Y-35755836D01*
X60140152Y-35617526D01*
X59964682Y-35609048D01*
X59562823Y-36010907D01*
X59209269Y-36010907D01*
X58807410Y-35609048D01*
X58631940Y-35617526D01*
X58538802Y-35936054D01*
X51608600Y-35936054D01*
X51608600Y-35678545D01*
X51913814Y-35678545D01*
X51919250Y-35708300D01*
X51939250Y-35758300D01*
X51946395Y-35771962D01*
X51967732Y-35793402D01*
X52057732Y-35853402D01*
X52099398Y-35866198D01*
X52129090Y-35860429D01*
X52585694Y-35671832D01*
X53262955Y-35465709D01*
X53482684Y-35456155D01*
X54202116Y-35436171D01*
X54211884Y-35435268D01*
X54230865Y-35432271D01*
X58984187Y-35432271D01*
X59386046Y-35834130D01*
X59787905Y-35432271D01*
X65200981Y-35432271D01*
X65602840Y-35834130D01*
X66004699Y-35432271D01*
X65996221Y-35256801D01*
X65677693Y-35163663D01*
X65347769Y-35199511D01*
X65209459Y-35256801D01*
X65200981Y-35432271D01*
X59787905Y-35432271D01*
X59779427Y-35256801D01*
X59460899Y-35163663D01*
X59130975Y-35199511D01*
X58992665Y-35256801D01*
X58984187Y-35432271D01*
X54230865Y-35432271D01*
X54591884Y-35375268D01*
X54607695Y-35370989D01*
X54633132Y-35354621D01*
X54650197Y-35329646D01*
X54656200Y-35300000D01*
X54656200Y-35200000D01*
X54646160Y-35162194D01*
X54606160Y-35092194D01*
X54589366Y-35071953D01*
X54562893Y-35057320D01*
X54532813Y-35054140D01*
X53584603Y-35143970D01*
X53200047Y-35162283D01*
X53173882Y-35136118D01*
X53143274Y-35117441D01*
X52613274Y-34947441D01*
X52609540Y-34946348D01*
X52119540Y-34816348D01*
X52100000Y-34813800D01*
X52030000Y-34813800D01*
X52002305Y-34819011D01*
X51976868Y-34835379D01*
X51959803Y-34860354D01*
X51953800Y-34890000D01*
X51953800Y-34960000D01*
X51964659Y-34999205D01*
X51994659Y-35049205D01*
X52006404Y-35064166D01*
X52031700Y-35080750D01*
X52431700Y-35240750D01*
X52439606Y-35243420D01*
X52623734Y-35294567D01*
X52432382Y-35368981D01*
X52428593Y-35370574D01*
X52008593Y-35560574D01*
X51986118Y-35576118D01*
X51936118Y-35626118D01*
X51920383Y-35649019D01*
X51913814Y-35678545D01*
X51608600Y-35678545D01*
X51608600Y-33075247D01*
X51953948Y-33075247D01*
X51959250Y-33108300D01*
X51979250Y-33158300D01*
X51987656Y-33173814D01*
X52009614Y-33194617D01*
X52089614Y-33244617D01*
X52116259Y-33254951D01*
X52146502Y-33254392D01*
X52174144Y-33242111D01*
X52194831Y-33220043D01*
X52396574Y-32893412D01*
X52574229Y-32769053D01*
X53053130Y-32615805D01*
X53341279Y-32606200D01*
X53475889Y-32606200D01*
X53835616Y-32645089D01*
X54141237Y-32729984D01*
X53914193Y-32754654D01*
X53775883Y-32811944D01*
X53767405Y-32987414D01*
X53948339Y-33168348D01*
X53845731Y-33204261D01*
X53638113Y-33211676D01*
X53590628Y-33164191D01*
X53496503Y-33168739D01*
X53423882Y-33096118D01*
X53399646Y-33079803D01*
X53370000Y-33073800D01*
X53340000Y-33073800D01*
X53311700Y-33079250D01*
X53261700Y-33099250D01*
X53246186Y-33107656D01*
X53225383Y-33129614D01*
X53175383Y-33209614D01*
X53163800Y-33250000D01*
X53163800Y-33510000D01*
X53165492Y-33525968D01*
X53177575Y-33553698D01*
X53247575Y-33653698D01*
X53259677Y-33667219D01*
X53285903Y-33682290D01*
X53344921Y-33701963D01*
X53357868Y-33821121D01*
X53415158Y-33959431D01*
X53519397Y-33964467D01*
X53493478Y-33990386D01*
X53171555Y-33983816D01*
X53170000Y-33983800D01*
X52340000Y-33983800D01*
X52315903Y-33987710D01*
X52255903Y-34007710D01*
X52238612Y-34016020D01*
X52216981Y-34037163D01*
X52205280Y-34065056D01*
X52195280Y-34115056D01*
X52193800Y-34130000D01*
X52193800Y-34170000D01*
X52199250Y-34198300D01*
X52219250Y-34248300D01*
X52227832Y-34264063D01*
X52249873Y-34284778D01*
X52278236Y-34295287D01*
X52598236Y-34345287D01*
X52610000Y-34346200D01*
X53864952Y-34346200D01*
X54094411Y-34413294D01*
X54153599Y-34406863D01*
X54124388Y-34640549D01*
X54124784Y-34662205D01*
X54135458Y-34690506D01*
X54156302Y-34712425D01*
X54256302Y-34782425D01*
X54278937Y-34793231D01*
X54309087Y-34795656D01*
X54337806Y-34786160D01*
X54407806Y-34746160D01*
X54436768Y-34716722D01*
X54546768Y-34516722D01*
X54553041Y-34501713D01*
X54555734Y-34471585D01*
X54539953Y-34329555D01*
X54562645Y-34320156D01*
X54571123Y-34144686D01*
X54169264Y-33742827D01*
X54117787Y-33794305D01*
X53941010Y-33617528D01*
X53986996Y-33571541D01*
X54021039Y-33566050D01*
X54346041Y-33566050D01*
X54747900Y-33967909D01*
X54923370Y-33959431D01*
X55016508Y-33640903D01*
X54980660Y-33310979D01*
X54923370Y-33172669D01*
X54747900Y-33164191D01*
X54346041Y-33566050D01*
X54021039Y-33566050D01*
X54212134Y-33535228D01*
X54232761Y-33528798D01*
X54442761Y-33428798D01*
X54470708Y-33406054D01*
X54690708Y-33116054D01*
X54705822Y-33077582D01*
X54725822Y-32877582D01*
X54725887Y-32863101D01*
X54715887Y-32753101D01*
X54699808Y-32712783D01*
X54549808Y-32522783D01*
X54524078Y-32501845D01*
X54244078Y-32361845D01*
X54228885Y-32356177D01*
X53798885Y-32246177D01*
X53788415Y-32244266D01*
X53518415Y-32214266D01*
X53510000Y-32213800D01*
X53480000Y-32213800D01*
X53471348Y-32214293D01*
X53121348Y-32254293D01*
X53112165Y-32255917D01*
X52572165Y-32385917D01*
X52555191Y-32392215D01*
X52185191Y-32582215D01*
X52156598Y-32607732D01*
X51976598Y-32877732D01*
X51963948Y-32915247D01*
X51953948Y-33075247D01*
X51608600Y-33075247D01*
X51608600Y-30860000D01*
X52053800Y-30860000D01*
X52053800Y-30930000D01*
X52059250Y-30958300D01*
X52079250Y-31008300D01*
X52107163Y-31043019D01*
X52135056Y-31054720D01*
X52185056Y-31064720D01*
X52206843Y-31065892D01*
X53426843Y-30955892D01*
X53430483Y-30955476D01*
X54510483Y-30805476D01*
X54517953Y-30804055D01*
X54847953Y-30724055D01*
X54883882Y-30703882D01*
X54913882Y-30673882D01*
X54923761Y-30661725D01*
X54934971Y-30633631D01*
X54954002Y-30528962D01*
X54962290Y-30504097D01*
X54966049Y-30475206D01*
X54958192Y-30445996D01*
X54939590Y-30422145D01*
X54819205Y-30318958D01*
X54910017Y-30280039D01*
X54940910Y-30255786D01*
X54953925Y-30228481D01*
X54963925Y-30188481D01*
X54966200Y-30170000D01*
X54966200Y-30100000D01*
X54964720Y-30085056D01*
X54954720Y-30035056D01*
X54942897Y-30006984D01*
X54921206Y-29985902D01*
X54781206Y-29895902D01*
X54755858Y-29885468D01*
X54285858Y-29785468D01*
X54275844Y-29784024D01*
X53755844Y-29744024D01*
X53750000Y-29743800D01*
X52610000Y-29743800D01*
X52601097Y-29744322D01*
X52261097Y-29784322D01*
X52242305Y-29789011D01*
X52216868Y-29805379D01*
X52199803Y-29830354D01*
X52193800Y-29860000D01*
X52193800Y-29960000D01*
X52196608Y-29980494D01*
X52210363Y-30007433D01*
X52233516Y-30026898D01*
X52262418Y-30035822D01*
X52350755Y-30044656D01*
X52409983Y-30070039D01*
X52444227Y-30076083D01*
X52983170Y-30046142D01*
X53341072Y-30036200D01*
X53408223Y-30036200D01*
X53833904Y-30055999D01*
X54146991Y-30091780D01*
X54122601Y-30094160D01*
X54114730Y-30095346D01*
X53674730Y-30185346D01*
X53653705Y-30192999D01*
X53630498Y-30212398D01*
X53590498Y-30262398D01*
X53579803Y-30280354D01*
X53573800Y-30310000D01*
X53573800Y-30340000D01*
X53579250Y-30368300D01*
X53599250Y-30418300D01*
X53615636Y-30443394D01*
X53640692Y-30460338D01*
X53760692Y-30510338D01*
X53790000Y-30516200D01*
X53830000Y-30516200D01*
X53864078Y-30508155D01*
X53902712Y-30488838D01*
X54095403Y-30516764D01*
X53453223Y-30574102D01*
X53450776Y-30574360D01*
X52220776Y-30724360D01*
X52190795Y-30734659D01*
X52090795Y-30794659D01*
X52076868Y-30805379D01*
X52059803Y-30830354D01*
X52053800Y-30860000D01*
X51608600Y-30860000D01*
X51608600Y-28680000D01*
X52193800Y-28680000D01*
X52193800Y-28920000D01*
X52197269Y-28942729D01*
X52247269Y-29102729D01*
X52272055Y-29139226D01*
X52482055Y-29309226D01*
X52519929Y-29325532D01*
X52669929Y-29345532D01*
X52680000Y-29346200D01*
X53240000Y-29346200D01*
X53242720Y-29346151D01*
X53522720Y-29336151D01*
X53528061Y-29335772D01*
X53998061Y-29285772D01*
X54010934Y-29283268D01*
X54360934Y-29183268D01*
X54382268Y-29173402D01*
X54622268Y-29013402D01*
X54642425Y-28993698D01*
X54712425Y-28893698D01*
X54720197Y-28879646D01*
X54726200Y-28850000D01*
X54726200Y-28750000D01*
X54725612Y-28740549D01*
X54715612Y-28660549D01*
X54698170Y-28620779D01*
X54588170Y-28490779D01*
X54567006Y-28473389D01*
X54477006Y-28423389D01*
X54442105Y-28413829D01*
X54412305Y-28419011D01*
X54396056Y-28429467D01*
X54385876Y-28391702D01*
X54365786Y-28369090D01*
X54338481Y-28356075D01*
X54018481Y-28276075D01*
X54007735Y-28274194D01*
X53517735Y-28224194D01*
X53506760Y-28223869D01*
X53036760Y-28243869D01*
X53020460Y-28246348D01*
X52530460Y-28376348D01*
X52507732Y-28386598D01*
X52297732Y-28526598D01*
X52279851Y-28543218D01*
X52209851Y-28633218D01*
X52199803Y-28650354D01*
X52193800Y-28680000D01*
X51608600Y-28680000D01*
X51608600Y-26365247D01*
X51953948Y-26365247D01*
X51959250Y-26398300D01*
X51979250Y-26448300D01*
X51987656Y-26463814D01*
X52009614Y-26484617D01*
X52089614Y-26534617D01*
X52116259Y-26544951D01*
X52146502Y-26544392D01*
X52174144Y-26532111D01*
X52194831Y-26510043D01*
X52397255Y-26182309D01*
X52574878Y-26049091D01*
X53052421Y-25905829D01*
X53341279Y-25896200D01*
X53475889Y-25896200D01*
X53835616Y-25935089D01*
X54179233Y-26030539D01*
X54284226Y-26095149D01*
X54293800Y-26111107D01*
X54293800Y-26272087D01*
X54215832Y-26364231D01*
X53846604Y-26484230D01*
X53578652Y-26493800D01*
X53539923Y-26493800D01*
X53421850Y-26384161D01*
X53399646Y-26369803D01*
X53370000Y-26363800D01*
X53340000Y-26363800D01*
X53325056Y-26365280D01*
X53275056Y-26375280D01*
X53243035Y-26389994D01*
X53223389Y-26412994D01*
X53173389Y-26502994D01*
X53163800Y-26540000D01*
X53163800Y-26790000D01*
X53175713Y-26830910D01*
X53245713Y-26940910D01*
X53259677Y-26957219D01*
X53285903Y-26972290D01*
X53345903Y-26992290D01*
X53364073Y-26995969D01*
X53394097Y-26992290D01*
X53411039Y-26986643D01*
X53326147Y-27276971D01*
X53171555Y-27273816D01*
X53170000Y-27273800D01*
X52340000Y-27273800D01*
X52315903Y-27277710D01*
X52255903Y-27297710D01*
X52238612Y-27306020D01*
X52216981Y-27327163D01*
X52205280Y-27355056D01*
X52195280Y-27405056D01*
X52193800Y-27420000D01*
X52193800Y-27450000D01*
X52199250Y-27478300D01*
X52219250Y-27528300D01*
X52227832Y-27544063D01*
X52249873Y-27564778D01*
X52278236Y-27575287D01*
X52598236Y-27625287D01*
X52607280Y-27626151D01*
X52887280Y-27636151D01*
X52890000Y-27636200D01*
X53364161Y-27636200D01*
X53415158Y-27759318D01*
X53590628Y-27767796D01*
X53722224Y-27636200D01*
X53886645Y-27636200D01*
X54060443Y-27651535D01*
X53767405Y-27944573D01*
X53775883Y-28120043D01*
X54094411Y-28213181D01*
X54424335Y-28177333D01*
X54562645Y-28120043D01*
X54571123Y-27944573D01*
X54502947Y-27876397D01*
X54546768Y-27796722D01*
X54553180Y-27781241D01*
X54555678Y-27751097D01*
X54535678Y-27581097D01*
X54530599Y-27561327D01*
X54513882Y-27536118D01*
X54343701Y-27365937D01*
X54346041Y-27365937D01*
X54747900Y-27767796D01*
X54923370Y-27759318D01*
X55016508Y-27440790D01*
X54980660Y-27110866D01*
X54923370Y-26972556D01*
X54747900Y-26964078D01*
X54346041Y-27365937D01*
X54343701Y-27365937D01*
X54323882Y-27346118D01*
X54303717Y-27331665D01*
X54274475Y-27323931D01*
X54104718Y-27313945D01*
X53951940Y-27303529D01*
X54117787Y-27137683D01*
X54169264Y-27189160D01*
X54571123Y-26787301D01*
X54562645Y-26611831D01*
X54539693Y-26605120D01*
X54690708Y-26406054D01*
X54705822Y-26367582D01*
X54725822Y-26167582D01*
X54725887Y-26153101D01*
X54715887Y-26043101D01*
X54699808Y-26002783D01*
X54549808Y-25812783D01*
X54525983Y-25792831D01*
X54245983Y-25642831D01*
X54227260Y-25635781D01*
X53797260Y-25535781D01*
X53791167Y-25534623D01*
X53521167Y-25494623D01*
X53510000Y-25493800D01*
X53480000Y-25493800D01*
X53471348Y-25494293D01*
X53121348Y-25534293D01*
X53112165Y-25535917D01*
X52572165Y-25665917D01*
X52553766Y-25672966D01*
X52183766Y-25872966D01*
X52156598Y-25897732D01*
X51976598Y-26167732D01*
X51963948Y-26205247D01*
X51953948Y-26365247D01*
X51608600Y-26365247D01*
X51608600Y-22630437D01*
X54280550Y-22630437D01*
X54280550Y-24630437D01*
X54296490Y-24715151D01*
X54346556Y-24792955D01*
X54422948Y-24845152D01*
X54513628Y-24863515D01*
X55253628Y-24863515D01*
X55338342Y-24847575D01*
X55416146Y-24797509D01*
X55468343Y-24721117D01*
X55486706Y-24630437D01*
X55486706Y-22630437D01*
X55470766Y-22545723D01*
X55420700Y-22467919D01*
X55344308Y-22415722D01*
X55253628Y-22397359D01*
X54513628Y-22397359D01*
X54428914Y-22413299D01*
X54351110Y-22463365D01*
X54298913Y-22539757D01*
X54280550Y-22630437D01*
X51608600Y-22630437D01*
X51608600Y-18998600D01*
X54109281Y-18998600D01*
X54008367Y-19099515D01*
X54008367Y-19099515D01*
G37*
X54008367Y-19099515D02*
X53919428Y-19314233D01*
X53919428Y-20106587D01*
X54065476Y-20252635D01*
X53919428Y-20252635D01*
X53919428Y-20353861D01*
X53914193Y-20354430D01*
X53775883Y-20411720D01*
X53767405Y-20587190D01*
X53926965Y-20746750D01*
X53919428Y-20754287D01*
X53919428Y-21092767D01*
X53590628Y-20763967D01*
X53415158Y-20772445D01*
X53322020Y-21090973D01*
X53357868Y-21420897D01*
X53415158Y-21559207D01*
X53590628Y-21567685D01*
X53919428Y-21238885D01*
X53919428Y-21546641D01*
X53932842Y-21579025D01*
X53767405Y-21744462D01*
X53775883Y-21919932D01*
X54094411Y-22013070D01*
X54323536Y-21988174D01*
X54387423Y-22014637D01*
X54559778Y-22014637D01*
X54705828Y-21868587D01*
X54705828Y-21525613D01*
X54747900Y-21567685D01*
X54923370Y-21559207D01*
X55016508Y-21240679D01*
X54980660Y-20910755D01*
X54923370Y-20772445D01*
X54747900Y-20763967D01*
X54705828Y-20806039D01*
X54705828Y-20608237D01*
X54685828Y-20608237D01*
X54685828Y-20518468D01*
X62141414Y-20518468D01*
X62543273Y-20920327D01*
X62945132Y-20518468D01*
X68382971Y-20518468D01*
X68784830Y-20920327D01*
X69186689Y-20518468D01*
X69178211Y-20342998D01*
X68859683Y-20249860D01*
X68529759Y-20285708D01*
X68391449Y-20342998D01*
X68382971Y-20518468D01*
X62945132Y-20518468D01*
X62936654Y-20342998D01*
X62618126Y-20249860D01*
X62288202Y-20285708D01*
X62149892Y-20342998D01*
X62141414Y-20518468D01*
X54685828Y-20518468D01*
X54685828Y-20252637D01*
X54705828Y-20252637D01*
X54705828Y-20232637D01*
X55061428Y-20232637D01*
X55061428Y-20252637D01*
X55975828Y-20252637D01*
X55975828Y-20232637D01*
X56331428Y-20232637D01*
X56331428Y-20252637D01*
X57245828Y-20252637D01*
X57245828Y-20232637D01*
X57601428Y-20232637D01*
X57601428Y-20252637D01*
X58515828Y-20252637D01*
X58515828Y-20232637D01*
X58871428Y-20232637D01*
X58871428Y-20252637D01*
X59511778Y-20252637D01*
X59657828Y-20106587D01*
X59657828Y-19314233D01*
X59568889Y-19099515D01*
X59467975Y-18998600D01*
X71251400Y-18998600D01*
X71251400Y-25861400D01*
X59807785Y-25861400D01*
X61005247Y-24863515D01*
X61588628Y-24863515D01*
X61673342Y-24847575D01*
X61751146Y-24797509D01*
X61763166Y-24779917D01*
X61771556Y-24792955D01*
X61847948Y-24845152D01*
X61938628Y-24863515D01*
X62838628Y-24863515D01*
X62923342Y-24847575D01*
X63001146Y-24797509D01*
X63053343Y-24721117D01*
X63071706Y-24630437D01*
X63071706Y-24030437D01*
X63055766Y-23945723D01*
X63005700Y-23867919D01*
X62929308Y-23815722D01*
X62838628Y-23797359D01*
X61938628Y-23797359D01*
X61853914Y-23813299D01*
X61776110Y-23863365D01*
X61764090Y-23880957D01*
X61755700Y-23867919D01*
X61679308Y-23815722D01*
X61588628Y-23797359D01*
X60688628Y-23797359D01*
X60603914Y-23813299D01*
X60526110Y-23863365D01*
X60514090Y-23880957D01*
X60505700Y-23867919D01*
X60429308Y-23815722D01*
X60338628Y-23797359D01*
X59438628Y-23797359D01*
X59353914Y-23813299D01*
X59306706Y-23843677D01*
X59306706Y-23316972D01*
X59347948Y-23345152D01*
X59438628Y-23363515D01*
X60338628Y-23363515D01*
X60423342Y-23347575D01*
X60501146Y-23297509D01*
X60513166Y-23279917D01*
X60521556Y-23292955D01*
X60597948Y-23345152D01*
X60688628Y-23363515D01*
X61588628Y-23363515D01*
X61673342Y-23347575D01*
X61751146Y-23297509D01*
X61763166Y-23279917D01*
X61771556Y-23292955D01*
X61847948Y-23345152D01*
X61938628Y-23363515D01*
X62838628Y-23363515D01*
X62923342Y-23347575D01*
X63001146Y-23297509D01*
X63053343Y-23221117D01*
X63071706Y-23130437D01*
X63071706Y-22530437D01*
X63055766Y-22445723D01*
X63005700Y-22367919D01*
X62929308Y-22315722D01*
X62838628Y-22297359D01*
X62721706Y-22297359D01*
X62721706Y-21916827D01*
X62798344Y-21908500D01*
X62936654Y-21851210D01*
X62945132Y-21675740D01*
X68382971Y-21675740D01*
X68391449Y-21851210D01*
X68709977Y-21944348D01*
X69039901Y-21908500D01*
X69178211Y-21851210D01*
X69186689Y-21675740D01*
X68784830Y-21273881D01*
X68382971Y-21675740D01*
X62945132Y-21675740D01*
X62543273Y-21273881D01*
X62491796Y-21325359D01*
X62315019Y-21148582D01*
X62366496Y-21097104D01*
X62720050Y-21097104D01*
X63121909Y-21498963D01*
X63297379Y-21490485D01*
X63390517Y-21171957D01*
X63374251Y-21022251D01*
X67937586Y-21022251D01*
X67973434Y-21352175D01*
X68030724Y-21490485D01*
X68206194Y-21498963D01*
X68608053Y-21097104D01*
X68961607Y-21097104D01*
X69363466Y-21498963D01*
X69538936Y-21490485D01*
X69632074Y-21171957D01*
X69596226Y-20842033D01*
X69538936Y-20703723D01*
X69363466Y-20695245D01*
X68961607Y-21097104D01*
X68608053Y-21097104D01*
X68206194Y-20695245D01*
X68030724Y-20703723D01*
X67937586Y-21022251D01*
X63374251Y-21022251D01*
X63354669Y-20842033D01*
X63297379Y-20703723D01*
X63121909Y-20695245D01*
X62720050Y-21097104D01*
X62366496Y-21097104D01*
X61964637Y-20695245D01*
X61789167Y-20703723D01*
X61696029Y-21022251D01*
X61731877Y-21352175D01*
X61771304Y-21447359D01*
X59657828Y-21447359D01*
X59657828Y-20754287D01*
X59511778Y-20608237D01*
X58871428Y-20608237D01*
X58871428Y-20628237D01*
X58515828Y-20628237D01*
X58515828Y-20608237D01*
X57601428Y-20608237D01*
X57601428Y-20628237D01*
X57245828Y-20628237D01*
X57245828Y-20608237D01*
X56331428Y-20608237D01*
X56331428Y-20628237D01*
X55975828Y-20628237D01*
X55975828Y-20608237D01*
X55061428Y-20608237D01*
X55061428Y-21868587D01*
X55207478Y-22014637D01*
X55379833Y-22014637D01*
X55518628Y-21957146D01*
X55657423Y-22014637D01*
X55755550Y-22014637D01*
X55755550Y-22400761D01*
X55688914Y-22413299D01*
X55611110Y-22463365D01*
X55558913Y-22539757D01*
X55540550Y-22630437D01*
X55540550Y-24630437D01*
X55556490Y-24715151D01*
X55606556Y-24792955D01*
X55682948Y-24845152D01*
X55773628Y-24863515D01*
X56533628Y-24863515D01*
X56618342Y-24847575D01*
X56696146Y-24797509D01*
X56748343Y-24721117D01*
X56766706Y-24630437D01*
X56766706Y-22630437D01*
X56750766Y-22545723D01*
X56700700Y-22467919D01*
X56624308Y-22415722D01*
X56533628Y-22397359D01*
X56421706Y-22397359D01*
X56421706Y-22113515D01*
X57108977Y-22113515D01*
X57105550Y-22130437D01*
X57105550Y-22397359D01*
X57043628Y-22397359D01*
X56958914Y-22413299D01*
X56881110Y-22463365D01*
X56828913Y-22539757D01*
X56810550Y-22630437D01*
X56810550Y-24630437D01*
X56826490Y-24715151D01*
X56876556Y-24792955D01*
X56952948Y-24845152D01*
X57043628Y-24863515D01*
X57803628Y-24863515D01*
X57888342Y-24847575D01*
X57966146Y-24797509D01*
X58018343Y-24721117D01*
X58036706Y-24630437D01*
X58036706Y-22630437D01*
X58024114Y-22563515D01*
X58094102Y-22563515D01*
X58080550Y-22630437D01*
X58080550Y-24630437D01*
X58096490Y-24715151D01*
X58146556Y-24792955D01*
X58222948Y-24845152D01*
X58313628Y-24863515D01*
X59073628Y-24863515D01*
X59158342Y-24847575D01*
X59236146Y-24797509D01*
X59255891Y-24768611D01*
X59271556Y-24792955D01*
X59347948Y-24845152D01*
X59438628Y-24863515D01*
X59894317Y-24863515D01*
X58379081Y-26126212D01*
X58318400Y-25840730D01*
X58285195Y-25761182D01*
X58220047Y-25695487D01*
X58134472Y-25660314D01*
X58041955Y-25661205D01*
X55498772Y-26201776D01*
X55419224Y-26234981D01*
X55353529Y-26300129D01*
X55318356Y-26385704D01*
X55319247Y-26478221D01*
X55942982Y-29412664D01*
X55976187Y-29492212D01*
X56041335Y-29557907D01*
X56126910Y-29593080D01*
X56219427Y-29592189D01*
X58762610Y-29051618D01*
X58842158Y-29018413D01*
X58907853Y-28953265D01*
X58943026Y-28867690D01*
X58942135Y-28775173D01*
X58546250Y-26912679D01*
X59494964Y-26122084D01*
X59491400Y-26140000D01*
X59491400Y-33220000D01*
X59512607Y-33326616D01*
X59573000Y-33417000D01*
X59663384Y-33477393D01*
X59770000Y-33498600D01*
X69911400Y-33498600D01*
X69911400Y-40361400D01*
X59770000Y-40361400D01*
X59663384Y-40382607D01*
X59573000Y-40443000D01*
X59512607Y-40533384D01*
X59491400Y-40640000D01*
X59491400Y-45150000D01*
X59512607Y-45256616D01*
X59573000Y-45347000D01*
X59663384Y-45407393D01*
X59770000Y-45428600D01*
X71396190Y-45428600D01*
X71335134Y-45576002D01*
X71335134Y-45868357D01*
X71481184Y-46014407D01*
X72051414Y-46014407D01*
X72019922Y-46130540D01*
X72050716Y-46370007D01*
X71481184Y-46370007D01*
X71335134Y-46516057D01*
X71335134Y-46808412D01*
X71424073Y-47023130D01*
X71588412Y-47187468D01*
X71803130Y-47276407D01*
X73595484Y-47276407D01*
X73741534Y-47130357D01*
X73741534Y-46538605D01*
X73818746Y-46253874D01*
X73785380Y-45994407D01*
X74097134Y-45994407D01*
X74097134Y-46014407D01*
X74117134Y-46014407D01*
X74117134Y-46370007D01*
X74097134Y-46370007D01*
X74097134Y-47130357D01*
X74243184Y-47276407D01*
X75951400Y-47276407D01*
X75951400Y-47465622D01*
X75919334Y-47459129D01*
X71919334Y-47459129D01*
X71834620Y-47475069D01*
X71756816Y-47525135D01*
X71704619Y-47601527D01*
X71686256Y-47692207D01*
X71686256Y-48692207D01*
X71702196Y-48776921D01*
X71752262Y-48854725D01*
X71828654Y-48906922D01*
X71919334Y-48925285D01*
X75919334Y-48925285D01*
X75951400Y-48919251D01*
X75951400Y-49108007D01*
X74243184Y-49108007D01*
X74097134Y-49254057D01*
X74097134Y-50014407D01*
X74117134Y-50014407D01*
X74117134Y-50370007D01*
X74097134Y-50370007D01*
X74097134Y-50390007D01*
X73781830Y-50390007D01*
X73818746Y-50253874D01*
X73773881Y-49904990D01*
X73741534Y-49826897D01*
X73741534Y-49254057D01*
X73595484Y-49108007D01*
X71803130Y-49108007D01*
X71588412Y-49196946D01*
X71424073Y-49361284D01*
X71335134Y-49576002D01*
X71335134Y-49868357D01*
X71481184Y-50014407D01*
X72051414Y-50014407D01*
X72019922Y-50130540D01*
X72050716Y-50370007D01*
X71481184Y-50370007D01*
X71335134Y-50516057D01*
X71335134Y-50808412D01*
X71361224Y-50871400D01*
X62129881Y-50871400D01*
X62245784Y-50823510D01*
X62380533Y-50688995D01*
X62453549Y-50513153D01*
X62453716Y-50322754D01*
X62386252Y-50159478D01*
X63700994Y-49880021D01*
X63780542Y-49846816D01*
X63846237Y-49781668D01*
X63881410Y-49696093D01*
X63880519Y-49603576D01*
X63256784Y-46669134D01*
X63223579Y-46589586D01*
X63158431Y-46523891D01*
X63072856Y-46488718D01*
X62980339Y-46489609D01*
X59459008Y-47238091D01*
X59379460Y-47271296D01*
X59313765Y-47336444D01*
X59278592Y-47422019D01*
X59279483Y-47514536D01*
X59903218Y-50448978D01*
X59936423Y-50528526D01*
X60001571Y-50594221D01*
X60087146Y-50629394D01*
X60179663Y-50628503D01*
X61496494Y-50348602D01*
X61496350Y-50512318D01*
X61569059Y-50688287D01*
X61703574Y-50823036D01*
X61820047Y-50871400D01*
X59770000Y-50871400D01*
X59719726Y-50881400D01*
X51574807Y-50881400D01*
X51605040Y-50808412D01*
X51605040Y-50516057D01*
X51458990Y-50370007D01*
X50888760Y-50370007D01*
X50920252Y-50253874D01*
X50889458Y-50014407D01*
X51458990Y-50014407D01*
X51605040Y-49868357D01*
X51605040Y-49576002D01*
X51516101Y-49361284D01*
X51351762Y-49196946D01*
X51137044Y-49108007D01*
X49344690Y-49108007D01*
X49198640Y-49254057D01*
X49198640Y-49845809D01*
X49121428Y-50130540D01*
X49154794Y-50390007D01*
X48843040Y-50390007D01*
X48843040Y-50370007D01*
X48823040Y-50370007D01*
X48823040Y-50014407D01*
X48843040Y-50014407D01*
X48843040Y-49254057D01*
X48696990Y-49108007D01*
X46908600Y-49108007D01*
X46908600Y-48892191D01*
X46930160Y-48906922D01*
X47020840Y-48925285D01*
X51020840Y-48925285D01*
X51105554Y-48909345D01*
X51183358Y-48859279D01*
X51235555Y-48782887D01*
X51253918Y-48692207D01*
X51253918Y-47692207D01*
X51237978Y-47607493D01*
X51187912Y-47529689D01*
X51111520Y-47477492D01*
X51020840Y-47459129D01*
X47020840Y-47459129D01*
X46936126Y-47475069D01*
X46908600Y-47492782D01*
X46908600Y-47276407D01*
X48696990Y-47276407D01*
X48843040Y-47130357D01*
X48843040Y-46370007D01*
X48823040Y-46370007D01*
X48823040Y-46014407D01*
X48843040Y-46014407D01*
X48843040Y-45994407D01*
X49158344Y-45994407D01*
X49121428Y-46130540D01*
X49166293Y-46479424D01*
X49198640Y-46557517D01*
X49198640Y-47130357D01*
X49344690Y-47276407D01*
X51137044Y-47276407D01*
X51351762Y-47187468D01*
X51516101Y-47023130D01*
X51605040Y-46808412D01*
X51605040Y-46544906D01*
X53767405Y-46544906D01*
X53775883Y-46720376D01*
X54094411Y-46813514D01*
X54424335Y-46777666D01*
X54562645Y-46720376D01*
X54571123Y-46544906D01*
X54169264Y-46143047D01*
X53767405Y-46544906D01*
X51605040Y-46544906D01*
X51605040Y-46516057D01*
X51458990Y-46370007D01*
X50888760Y-46370007D01*
X50920252Y-46253874D01*
X50889458Y-46014407D01*
X51458990Y-46014407D01*
X51581980Y-45891417D01*
X53322020Y-45891417D01*
X53357868Y-46221341D01*
X53415158Y-46359651D01*
X53590628Y-46368129D01*
X53992487Y-45966270D01*
X54346041Y-45966270D01*
X54747900Y-46368129D01*
X54923370Y-46359651D01*
X55016508Y-46041123D01*
X54980660Y-45711199D01*
X54923370Y-45572889D01*
X54747900Y-45564411D01*
X54346041Y-45966270D01*
X53992487Y-45966270D01*
X53590628Y-45564411D01*
X53415158Y-45572889D01*
X53322020Y-45891417D01*
X51581980Y-45891417D01*
X51605040Y-45868357D01*
X51605040Y-45576002D01*
X51527016Y-45387634D01*
X53767405Y-45387634D01*
X54169264Y-45789493D01*
X54571123Y-45387634D01*
X54562645Y-45212164D01*
X54244117Y-45119026D01*
X53914193Y-45154874D01*
X53775883Y-45212164D01*
X53767405Y-45387634D01*
X51527016Y-45387634D01*
X51516101Y-45361284D01*
X51511904Y-45357087D01*
X51527000Y-45347000D01*
X51587393Y-45256616D01*
X51608600Y-45150000D01*
X51608600Y-40344800D01*
X53767405Y-40344800D01*
X53775883Y-40520270D01*
X54094411Y-40613408D01*
X54424335Y-40577560D01*
X54562645Y-40520270D01*
X54571123Y-40344800D01*
X54169264Y-39942941D01*
X53767405Y-40344800D01*
X51608600Y-40344800D01*
X51608600Y-38730000D01*
X51913800Y-38730000D01*
X51913800Y-38760000D01*
X51919250Y-38788300D01*
X51939250Y-38838300D01*
X51949994Y-38856965D01*
X51972994Y-38876611D01*
X52062994Y-38926611D01*
X52100000Y-38936200D01*
X52170000Y-38936200D01*
X52197695Y-38930989D01*
X52223132Y-38914621D01*
X52240197Y-38889646D01*
X52246200Y-38860000D01*
X52246200Y-38714780D01*
X52303610Y-38635840D01*
X52457300Y-38533381D01*
X52508913Y-38526929D01*
X52610856Y-38542613D01*
X52991452Y-38809030D01*
X53247185Y-39054927D01*
X53270865Y-39070410D01*
X53549134Y-39185556D01*
X53443170Y-39291520D01*
X53519397Y-39367747D01*
X53415158Y-39372783D01*
X53322020Y-39691311D01*
X53357868Y-40021235D01*
X53415158Y-40159545D01*
X53590628Y-40168023D01*
X53992487Y-39766164D01*
X54346041Y-39766164D01*
X54747900Y-40168023D01*
X54923370Y-40159545D01*
X55016508Y-39841017D01*
X54980660Y-39511093D01*
X54923370Y-39372783D01*
X54747900Y-39364305D01*
X54346041Y-39766164D01*
X53992487Y-39766164D01*
X53941010Y-39714687D01*
X54117787Y-39537910D01*
X54169264Y-39589387D01*
X54571123Y-39187528D01*
X54562789Y-39015043D01*
X54578765Y-39005603D01*
X54596787Y-38990810D01*
X54766787Y-38800810D01*
X54774896Y-38789936D01*
X54854896Y-38659936D01*
X54866200Y-38620000D01*
X54866200Y-38480000D01*
X54864720Y-38465056D01*
X54854720Y-38415056D01*
X54848620Y-38396867D01*
X54830323Y-38372781D01*
X54804097Y-38357710D01*
X54744097Y-38337710D01*
X54720000Y-38333800D01*
X54650000Y-38333800D01*
X54608038Y-38346395D01*
X54586598Y-38367732D01*
X54432644Y-38598663D01*
X54201175Y-38793097D01*
X54036409Y-38853800D01*
X53824221Y-38853800D01*
X53665524Y-38836167D01*
X53186037Y-38538885D01*
X52871170Y-38253537D01*
X52833242Y-38234959D01*
X52663242Y-38204959D01*
X52650000Y-38203800D01*
X52440000Y-38203800D01*
X52418104Y-38207014D01*
X52218104Y-38267014D01*
X52186118Y-38286118D01*
X51956118Y-38516118D01*
X51944023Y-38531876D01*
X51934388Y-38560549D01*
X51914388Y-38720549D01*
X51913800Y-38730000D01*
X51608600Y-38730000D01*
X51608600Y-37190000D01*
X52093800Y-37190000D01*
X52093800Y-37220000D01*
X52104662Y-37259209D01*
X52125064Y-37281540D01*
X52152547Y-37294174D01*
X52322547Y-37334174D01*
X52340000Y-37336200D01*
X52720000Y-37336200D01*
X52728903Y-37335678D01*
X52983800Y-37305690D01*
X52983800Y-37467633D01*
X52944826Y-37584556D01*
X52931995Y-37594820D01*
X52697071Y-37603856D01*
X52690144Y-37604440D01*
X52230144Y-37664440D01*
X52212305Y-37669011D01*
X52186868Y-37685379D01*
X52169803Y-37710354D01*
X52163800Y-37740000D01*
X52163800Y-37880000D01*
X52169732Y-37909476D01*
X52186736Y-37934492D01*
X52212132Y-37950921D01*
X52241920Y-37956176D01*
X53431436Y-37926188D01*
X54200528Y-37916200D01*
X54300000Y-37916200D01*
X54312527Y-37915163D01*
X54372527Y-37905163D01*
X54403430Y-37892612D01*
X54424368Y-37870783D01*
X54435163Y-37842527D01*
X54445163Y-37782527D01*
X54446200Y-37770000D01*
X54446200Y-37700000D01*
X54444720Y-37685056D01*
X54434720Y-37635056D01*
X54422612Y-37606570D01*
X54400783Y-37585632D01*
X54372527Y-37574837D01*
X54312527Y-37564837D01*
X54297461Y-37563842D01*
X53697875Y-37583828D01*
X53326556Y-37591900D01*
X53345612Y-37439451D01*
X53346200Y-37430000D01*
X53346200Y-37292959D01*
X53733310Y-37276128D01*
X53740565Y-37275464D01*
X54240565Y-37205464D01*
X54266295Y-37197001D01*
X54289502Y-37177602D01*
X54329502Y-37127602D01*
X54340197Y-37109646D01*
X54346200Y-37080000D01*
X54346200Y-37010000D01*
X54340750Y-36981700D01*
X54320750Y-36931700D01*
X54310789Y-36914053D01*
X54288124Y-36894023D01*
X54259451Y-36884388D01*
X54179451Y-36874388D01*
X54165041Y-36873962D01*
X52785041Y-36963962D01*
X52779761Y-36964491D01*
X52189761Y-37044491D01*
X52172680Y-37048866D01*
X52147157Y-37065099D01*
X52129961Y-37089983D01*
X52099961Y-37159983D01*
X52093800Y-37190000D01*
X51608600Y-37190000D01*
X51608600Y-36491585D01*
X51984266Y-36491585D01*
X51984837Y-36512527D01*
X51994837Y-36572527D01*
X52003104Y-36596489D01*
X52063104Y-36706489D01*
X52091821Y-36735945D01*
X52281821Y-36845945D01*
X52310144Y-36855560D01*
X52540144Y-36885560D01*
X52560776Y-36885434D01*
X52700776Y-36865434D01*
X52716041Y-36861612D01*
X52741850Y-36845839D01*
X53017861Y-36589543D01*
X58984187Y-36589543D01*
X58992665Y-36765013D01*
X59311193Y-36858151D01*
X59641117Y-36822303D01*
X59779427Y-36765013D01*
X59787905Y-36589543D01*
X65200981Y-36589543D01*
X65209459Y-36765013D01*
X65527987Y-36858151D01*
X65857911Y-36822303D01*
X65996221Y-36765013D01*
X66004699Y-36589543D01*
X65602840Y-36187684D01*
X65200981Y-36589543D01*
X59787905Y-36589543D01*
X59386046Y-36187684D01*
X58984187Y-36589543D01*
X53017861Y-36589543D01*
X53021850Y-36585839D01*
X53037002Y-36566293D01*
X53147187Y-36362875D01*
X53505699Y-36335987D01*
X53534078Y-36328155D01*
X53589402Y-36300493D01*
X53732547Y-36334174D01*
X53750000Y-36336200D01*
X54580000Y-36336200D01*
X54592527Y-36335163D01*
X54652527Y-36325163D01*
X54683430Y-36312612D01*
X54704368Y-36290783D01*
X54715163Y-36262527D01*
X54725163Y-36202527D01*
X54726200Y-36190000D01*
X54726200Y-36090000D01*
X54722453Y-36066400D01*
X54707563Y-36040071D01*
X54683602Y-36021609D01*
X54654347Y-36013924D01*
X53956385Y-35974040D01*
X53688415Y-35944266D01*
X53649983Y-35949961D01*
X53626327Y-35960099D01*
X53624556Y-35958184D01*
X53596996Y-35945720D01*
X53566758Y-35944959D01*
X53403326Y-35973800D01*
X52840000Y-35973800D01*
X52825056Y-35975280D01*
X52775056Y-35985280D01*
X52736868Y-36005379D01*
X52730088Y-36015302D01*
X52716558Y-35999677D01*
X52689421Y-35986316D01*
X52659224Y-35984566D01*
X52379224Y-36024566D01*
X52348924Y-36035819D01*
X52098924Y-36195819D01*
X52070949Y-36227776D01*
X52000949Y-36377776D01*
X51994266Y-36401585D01*
X51989412Y-36445268D01*
X51984266Y-36491585D01*
X51608600Y-36491585D01*
X51608600Y-35936054D01*
X58538802Y-35936054D01*
X58574650Y-36265978D01*
X58631940Y-36404288D01*
X58807410Y-36412766D01*
X59209269Y-36010907D01*
X59562823Y-36010907D01*
X59964682Y-36412766D01*
X60140152Y-36404288D01*
X60233290Y-36085760D01*
X60217024Y-35936054D01*
X64755596Y-35936054D01*
X64791444Y-36265978D01*
X64848734Y-36404288D01*
X65024204Y-36412766D01*
X65426063Y-36010907D01*
X65779617Y-36010907D01*
X66181476Y-36412766D01*
X66356946Y-36404288D01*
X66450084Y-36085760D01*
X66414236Y-35755836D01*
X66356946Y-35617526D01*
X66181476Y-35609048D01*
X65779617Y-36010907D01*
X65426063Y-36010907D01*
X65024204Y-35609048D01*
X64848734Y-35617526D01*
X64755596Y-35936054D01*
X60217024Y-35936054D01*
X60197442Y-35755836D01*
X60140152Y-35617526D01*
X59964682Y-35609048D01*
X59562823Y-36010907D01*
X59209269Y-36010907D01*
X58807410Y-35609048D01*
X58631940Y-35617526D01*
X58538802Y-35936054D01*
X51608600Y-35936054D01*
X51608600Y-35678545D01*
X51913814Y-35678545D01*
X51919250Y-35708300D01*
X51939250Y-35758300D01*
X51946395Y-35771962D01*
X51967732Y-35793402D01*
X52057732Y-35853402D01*
X52099398Y-35866198D01*
X52129090Y-35860429D01*
X52585694Y-35671832D01*
X53262955Y-35465709D01*
X53482684Y-35456155D01*
X54202116Y-35436171D01*
X54211884Y-35435268D01*
X54230865Y-35432271D01*
X58984187Y-35432271D01*
X59386046Y-35834130D01*
X59787905Y-35432271D01*
X65200981Y-35432271D01*
X65602840Y-35834130D01*
X66004699Y-35432271D01*
X65996221Y-35256801D01*
X65677693Y-35163663D01*
X65347769Y-35199511D01*
X65209459Y-35256801D01*
X65200981Y-35432271D01*
X59787905Y-35432271D01*
X59779427Y-35256801D01*
X59460899Y-35163663D01*
X59130975Y-35199511D01*
X58992665Y-35256801D01*
X58984187Y-35432271D01*
X54230865Y-35432271D01*
X54591884Y-35375268D01*
X54607695Y-35370989D01*
X54633132Y-35354621D01*
X54650197Y-35329646D01*
X54656200Y-35300000D01*
X54656200Y-35200000D01*
X54646160Y-35162194D01*
X54606160Y-35092194D01*
X54589366Y-35071953D01*
X54562893Y-35057320D01*
X54532813Y-35054140D01*
X53584603Y-35143970D01*
X53200047Y-35162283D01*
X53173882Y-35136118D01*
X53143274Y-35117441D01*
X52613274Y-34947441D01*
X52609540Y-34946348D01*
X52119540Y-34816348D01*
X52100000Y-34813800D01*
X52030000Y-34813800D01*
X52002305Y-34819011D01*
X51976868Y-34835379D01*
X51959803Y-34860354D01*
X51953800Y-34890000D01*
X51953800Y-34960000D01*
X51964659Y-34999205D01*
X51994659Y-35049205D01*
X52006404Y-35064166D01*
X52031700Y-35080750D01*
X52431700Y-35240750D01*
X52439606Y-35243420D01*
X52623734Y-35294567D01*
X52432382Y-35368981D01*
X52428593Y-35370574D01*
X52008593Y-35560574D01*
X51986118Y-35576118D01*
X51936118Y-35626118D01*
X51920383Y-35649019D01*
X51913814Y-35678545D01*
X51608600Y-35678545D01*
X51608600Y-33075247D01*
X51953948Y-33075247D01*
X51959250Y-33108300D01*
X51979250Y-33158300D01*
X51987656Y-33173814D01*
X52009614Y-33194617D01*
X52089614Y-33244617D01*
X52116259Y-33254951D01*
X52146502Y-33254392D01*
X52174144Y-33242111D01*
X52194831Y-33220043D01*
X52396574Y-32893412D01*
X52574229Y-32769053D01*
X53053130Y-32615805D01*
X53341279Y-32606200D01*
X53475889Y-32606200D01*
X53835616Y-32645089D01*
X54141237Y-32729984D01*
X53914193Y-32754654D01*
X53775883Y-32811944D01*
X53767405Y-32987414D01*
X53948339Y-33168348D01*
X53845731Y-33204261D01*
X53638113Y-33211676D01*
X53590628Y-33164191D01*
X53496503Y-33168739D01*
X53423882Y-33096118D01*
X53399646Y-33079803D01*
X53370000Y-33073800D01*
X53340000Y-33073800D01*
X53311700Y-33079250D01*
X53261700Y-33099250D01*
X53246186Y-33107656D01*
X53225383Y-33129614D01*
X53175383Y-33209614D01*
X53163800Y-33250000D01*
X53163800Y-33510000D01*
X53165492Y-33525968D01*
X53177575Y-33553698D01*
X53247575Y-33653698D01*
X53259677Y-33667219D01*
X53285903Y-33682290D01*
X53344921Y-33701963D01*
X53357868Y-33821121D01*
X53415158Y-33959431D01*
X53519397Y-33964467D01*
X53493478Y-33990386D01*
X53171555Y-33983816D01*
X53170000Y-33983800D01*
X52340000Y-33983800D01*
X52315903Y-33987710D01*
X52255903Y-34007710D01*
X52238612Y-34016020D01*
X52216981Y-34037163D01*
X52205280Y-34065056D01*
X52195280Y-34115056D01*
X52193800Y-34130000D01*
X52193800Y-34170000D01*
X52199250Y-34198300D01*
X52219250Y-34248300D01*
X52227832Y-34264063D01*
X52249873Y-34284778D01*
X52278236Y-34295287D01*
X52598236Y-34345287D01*
X52610000Y-34346200D01*
X53864952Y-34346200D01*
X54094411Y-34413294D01*
X54153599Y-34406863D01*
X54124388Y-34640549D01*
X54124784Y-34662205D01*
X54135458Y-34690506D01*
X54156302Y-34712425D01*
X54256302Y-34782425D01*
X54278937Y-34793231D01*
X54309087Y-34795656D01*
X54337806Y-34786160D01*
X54407806Y-34746160D01*
X54436768Y-34716722D01*
X54546768Y-34516722D01*
X54553041Y-34501713D01*
X54555734Y-34471585D01*
X54539953Y-34329555D01*
X54562645Y-34320156D01*
X54571123Y-34144686D01*
X54169264Y-33742827D01*
X54117787Y-33794305D01*
X53941010Y-33617528D01*
X53986996Y-33571541D01*
X54021039Y-33566050D01*
X54346041Y-33566050D01*
X54747900Y-33967909D01*
X54923370Y-33959431D01*
X55016508Y-33640903D01*
X54980660Y-33310979D01*
X54923370Y-33172669D01*
X54747900Y-33164191D01*
X54346041Y-33566050D01*
X54021039Y-33566050D01*
X54212134Y-33535228D01*
X54232761Y-33528798D01*
X54442761Y-33428798D01*
X54470708Y-33406054D01*
X54690708Y-33116054D01*
X54705822Y-33077582D01*
X54725822Y-32877582D01*
X54725887Y-32863101D01*
X54715887Y-32753101D01*
X54699808Y-32712783D01*
X54549808Y-32522783D01*
X54524078Y-32501845D01*
X54244078Y-32361845D01*
X54228885Y-32356177D01*
X53798885Y-32246177D01*
X53788415Y-32244266D01*
X53518415Y-32214266D01*
X53510000Y-32213800D01*
X53480000Y-32213800D01*
X53471348Y-32214293D01*
X53121348Y-32254293D01*
X53112165Y-32255917D01*
X52572165Y-32385917D01*
X52555191Y-32392215D01*
X52185191Y-32582215D01*
X52156598Y-32607732D01*
X51976598Y-32877732D01*
X51963948Y-32915247D01*
X51953948Y-33075247D01*
X51608600Y-33075247D01*
X51608600Y-30860000D01*
X52053800Y-30860000D01*
X52053800Y-30930000D01*
X52059250Y-30958300D01*
X52079250Y-31008300D01*
X52107163Y-31043019D01*
X52135056Y-31054720D01*
X52185056Y-31064720D01*
X52206843Y-31065892D01*
X53426843Y-30955892D01*
X53430483Y-30955476D01*
X54510483Y-30805476D01*
X54517953Y-30804055D01*
X54847953Y-30724055D01*
X54883882Y-30703882D01*
X54913882Y-30673882D01*
X54923761Y-30661725D01*
X54934971Y-30633631D01*
X54954002Y-30528962D01*
X54962290Y-30504097D01*
X54966049Y-30475206D01*
X54958192Y-30445996D01*
X54939590Y-30422145D01*
X54819205Y-30318958D01*
X54910017Y-30280039D01*
X54940910Y-30255786D01*
X54953925Y-30228481D01*
X54963925Y-30188481D01*
X54966200Y-30170000D01*
X54966200Y-30100000D01*
X54964720Y-30085056D01*
X54954720Y-30035056D01*
X54942897Y-30006984D01*
X54921206Y-29985902D01*
X54781206Y-29895902D01*
X54755858Y-29885468D01*
X54285858Y-29785468D01*
X54275844Y-29784024D01*
X53755844Y-29744024D01*
X53750000Y-29743800D01*
X52610000Y-29743800D01*
X52601097Y-29744322D01*
X52261097Y-29784322D01*
X52242305Y-29789011D01*
X52216868Y-29805379D01*
X52199803Y-29830354D01*
X52193800Y-29860000D01*
X52193800Y-29960000D01*
X52196608Y-29980494D01*
X52210363Y-30007433D01*
X52233516Y-30026898D01*
X52262418Y-30035822D01*
X52350755Y-30044656D01*
X52409983Y-30070039D01*
X52444227Y-30076083D01*
X52983170Y-30046142D01*
X53341072Y-30036200D01*
X53408223Y-30036200D01*
X53833904Y-30055999D01*
X54146991Y-30091780D01*
X54122601Y-30094160D01*
X54114730Y-30095346D01*
X53674730Y-30185346D01*
X53653705Y-30192999D01*
X53630498Y-30212398D01*
X53590498Y-30262398D01*
X53579803Y-30280354D01*
X53573800Y-30310000D01*
X53573800Y-30340000D01*
X53579250Y-30368300D01*
X53599250Y-30418300D01*
X53615636Y-30443394D01*
X53640692Y-30460338D01*
X53760692Y-30510338D01*
X53790000Y-30516200D01*
X53830000Y-30516200D01*
X53864078Y-30508155D01*
X53902712Y-30488838D01*
X54095403Y-30516764D01*
X53453223Y-30574102D01*
X53450776Y-30574360D01*
X52220776Y-30724360D01*
X52190795Y-30734659D01*
X52090795Y-30794659D01*
X52076868Y-30805379D01*
X52059803Y-30830354D01*
X52053800Y-30860000D01*
X51608600Y-30860000D01*
X51608600Y-28680000D01*
X52193800Y-28680000D01*
X52193800Y-28920000D01*
X52197269Y-28942729D01*
X52247269Y-29102729D01*
X52272055Y-29139226D01*
X52482055Y-29309226D01*
X52519929Y-29325532D01*
X52669929Y-29345532D01*
X52680000Y-29346200D01*
X53240000Y-29346200D01*
X53242720Y-29346151D01*
X53522720Y-29336151D01*
X53528061Y-29335772D01*
X53998061Y-29285772D01*
X54010934Y-29283268D01*
X54360934Y-29183268D01*
X54382268Y-29173402D01*
X54622268Y-29013402D01*
X54642425Y-28993698D01*
X54712425Y-28893698D01*
X54720197Y-28879646D01*
X54726200Y-28850000D01*
X54726200Y-28750000D01*
X54725612Y-28740549D01*
X54715612Y-28660549D01*
X54698170Y-28620779D01*
X54588170Y-28490779D01*
X54567006Y-28473389D01*
X54477006Y-28423389D01*
X54442105Y-28413829D01*
X54412305Y-28419011D01*
X54396056Y-28429467D01*
X54385876Y-28391702D01*
X54365786Y-28369090D01*
X54338481Y-28356075D01*
X54018481Y-28276075D01*
X54007735Y-28274194D01*
X53517735Y-28224194D01*
X53506760Y-28223869D01*
X53036760Y-28243869D01*
X53020460Y-28246348D01*
X52530460Y-28376348D01*
X52507732Y-28386598D01*
X52297732Y-28526598D01*
X52279851Y-28543218D01*
X52209851Y-28633218D01*
X52199803Y-28650354D01*
X52193800Y-28680000D01*
X51608600Y-28680000D01*
X51608600Y-26365247D01*
X51953948Y-26365247D01*
X51959250Y-26398300D01*
X51979250Y-26448300D01*
X51987656Y-26463814D01*
X52009614Y-26484617D01*
X52089614Y-26534617D01*
X52116259Y-26544951D01*
X52146502Y-26544392D01*
X52174144Y-26532111D01*
X52194831Y-26510043D01*
X52397255Y-26182309D01*
X52574878Y-26049091D01*
X53052421Y-25905829D01*
X53341279Y-25896200D01*
X53475889Y-25896200D01*
X53835616Y-25935089D01*
X54179233Y-26030539D01*
X54284226Y-26095149D01*
X54293800Y-26111107D01*
X54293800Y-26272087D01*
X54215832Y-26364231D01*
X53846604Y-26484230D01*
X53578652Y-26493800D01*
X53539923Y-26493800D01*
X53421850Y-26384161D01*
X53399646Y-26369803D01*
X53370000Y-26363800D01*
X53340000Y-26363800D01*
X53325056Y-26365280D01*
X53275056Y-26375280D01*
X53243035Y-26389994D01*
X53223389Y-26412994D01*
X53173389Y-26502994D01*
X53163800Y-26540000D01*
X53163800Y-26790000D01*
X53175713Y-26830910D01*
X53245713Y-26940910D01*
X53259677Y-26957219D01*
X53285903Y-26972290D01*
X53345903Y-26992290D01*
X53364073Y-26995969D01*
X53394097Y-26992290D01*
X53411039Y-26986643D01*
X53326147Y-27276971D01*
X53171555Y-27273816D01*
X53170000Y-27273800D01*
X52340000Y-27273800D01*
X52315903Y-27277710D01*
X52255903Y-27297710D01*
X52238612Y-27306020D01*
X52216981Y-27327163D01*
X52205280Y-27355056D01*
X52195280Y-27405056D01*
X52193800Y-27420000D01*
X52193800Y-27450000D01*
X52199250Y-27478300D01*
X52219250Y-27528300D01*
X52227832Y-27544063D01*
X52249873Y-27564778D01*
X52278236Y-27575287D01*
X52598236Y-27625287D01*
X52607280Y-27626151D01*
X52887280Y-27636151D01*
X52890000Y-27636200D01*
X53364161Y-27636200D01*
X53415158Y-27759318D01*
X53590628Y-27767796D01*
X53722224Y-27636200D01*
X53886645Y-27636200D01*
X54060443Y-27651535D01*
X53767405Y-27944573D01*
X53775883Y-28120043D01*
X54094411Y-28213181D01*
X54424335Y-28177333D01*
X54562645Y-28120043D01*
X54571123Y-27944573D01*
X54502947Y-27876397D01*
X54546768Y-27796722D01*
X54553180Y-27781241D01*
X54555678Y-27751097D01*
X54535678Y-27581097D01*
X54530599Y-27561327D01*
X54513882Y-27536118D01*
X54343701Y-27365937D01*
X54346041Y-27365937D01*
X54747900Y-27767796D01*
X54923370Y-27759318D01*
X55016508Y-27440790D01*
X54980660Y-27110866D01*
X54923370Y-26972556D01*
X54747900Y-26964078D01*
X54346041Y-27365937D01*
X54343701Y-27365937D01*
X54323882Y-27346118D01*
X54303717Y-27331665D01*
X54274475Y-27323931D01*
X54104718Y-27313945D01*
X53951940Y-27303529D01*
X54117787Y-27137683D01*
X54169264Y-27189160D01*
X54571123Y-26787301D01*
X54562645Y-26611831D01*
X54539693Y-26605120D01*
X54690708Y-26406054D01*
X54705822Y-26367582D01*
X54725822Y-26167582D01*
X54725887Y-26153101D01*
X54715887Y-26043101D01*
X54699808Y-26002783D01*
X54549808Y-25812783D01*
X54525983Y-25792831D01*
X54245983Y-25642831D01*
X54227260Y-25635781D01*
X53797260Y-25535781D01*
X53791167Y-25534623D01*
X53521167Y-25494623D01*
X53510000Y-25493800D01*
X53480000Y-25493800D01*
X53471348Y-25494293D01*
X53121348Y-25534293D01*
X53112165Y-25535917D01*
X52572165Y-25665917D01*
X52553766Y-25672966D01*
X52183766Y-25872966D01*
X52156598Y-25897732D01*
X51976598Y-26167732D01*
X51963948Y-26205247D01*
X51953948Y-26365247D01*
X51608600Y-26365247D01*
X51608600Y-22630437D01*
X54280550Y-22630437D01*
X54280550Y-24630437D01*
X54296490Y-24715151D01*
X54346556Y-24792955D01*
X54422948Y-24845152D01*
X54513628Y-24863515D01*
X55253628Y-24863515D01*
X55338342Y-24847575D01*
X55416146Y-24797509D01*
X55468343Y-24721117D01*
X55486706Y-24630437D01*
X55486706Y-22630437D01*
X55470766Y-22545723D01*
X55420700Y-22467919D01*
X55344308Y-22415722D01*
X55253628Y-22397359D01*
X54513628Y-22397359D01*
X54428914Y-22413299D01*
X54351110Y-22463365D01*
X54298913Y-22539757D01*
X54280550Y-22630437D01*
X51608600Y-22630437D01*
X51608600Y-18998600D01*
X54109281Y-18998600D01*
X54008367Y-19099515D01*
G36*
X73165266Y-50158407D02*
X73131466Y-50192207D01*
X73165266Y-50226007D01*
X73021266Y-50370007D01*
X72817402Y-50370007D01*
X72673402Y-50226007D01*
X72707202Y-50192207D01*
X72673402Y-50158407D01*
X72817402Y-50014407D01*
X73021266Y-50014407D01*
X73165266Y-50158407D01*
X73165266Y-50158407D01*
G37*
X73165266Y-50158407D02*
X73131466Y-50192207D01*
X73165266Y-50226007D01*
X73021266Y-50370007D01*
X72817402Y-50370007D01*
X72673402Y-50226007D01*
X72707202Y-50192207D01*
X72673402Y-50158407D01*
X72817402Y-50014407D01*
X73021266Y-50014407D01*
X73165266Y-50158407D01*
G36*
X50266772Y-50158407D02*
X50232972Y-50192207D01*
X50266772Y-50226007D01*
X50122772Y-50370007D01*
X49918908Y-50370007D01*
X49774908Y-50226007D01*
X49808708Y-50192207D01*
X49774908Y-50158407D01*
X49918908Y-50014407D01*
X50122772Y-50014407D01*
X50266772Y-50158407D01*
X50266772Y-50158407D01*
G37*
X50266772Y-50158407D02*
X50232972Y-50192207D01*
X50266772Y-50226007D01*
X50122772Y-50370007D01*
X49918908Y-50370007D01*
X49774908Y-50226007D01*
X49808708Y-50192207D01*
X49774908Y-50158407D01*
X49918908Y-50014407D01*
X50122772Y-50014407D01*
X50266772Y-50158407D01*
G36*
X73165266Y-46158407D02*
X73131466Y-46192207D01*
X73165266Y-46226007D01*
X73021266Y-46370007D01*
X72817402Y-46370007D01*
X72673402Y-46226007D01*
X72707202Y-46192207D01*
X72673402Y-46158407D01*
X72817402Y-46014407D01*
X73021266Y-46014407D01*
X73165266Y-46158407D01*
X73165266Y-46158407D01*
G37*
X73165266Y-46158407D02*
X73131466Y-46192207D01*
X73165266Y-46226007D01*
X73021266Y-46370007D01*
X72817402Y-46370007D01*
X72673402Y-46226007D01*
X72707202Y-46192207D01*
X72673402Y-46158407D01*
X72817402Y-46014407D01*
X73021266Y-46014407D01*
X73165266Y-46158407D01*
G36*
X50266772Y-46158407D02*
X50232972Y-46192207D01*
X50266772Y-46226007D01*
X50122772Y-46370007D01*
X49918908Y-46370007D01*
X49774908Y-46226007D01*
X49808708Y-46192207D01*
X49774908Y-46158407D01*
X49918908Y-46014407D01*
X50122772Y-46014407D01*
X50266772Y-46158407D01*
X50266772Y-46158407D01*
G37*
X50266772Y-46158407D02*
X50232972Y-46192207D01*
X50266772Y-46226007D01*
X50122772Y-46370007D01*
X49918908Y-46370007D01*
X49774908Y-46226007D01*
X49808708Y-46192207D01*
X49774908Y-46158407D01*
X49918908Y-46014407D01*
X50122772Y-46014407D01*
X50266772Y-46158407D01*
M02*
