G04 #@! TF.FileFunction,Copper,L1,Top,Signal*
%FSLAX46Y46*%
G04 Gerber Fmt 4.6, Leading zero omitted, Abs format (unit mm)*
G04 Created by KiCad (PCBNEW 4.0.0-rc2-stable) date 3/3/2016 3:49:08 PM*
%MOMM*%
G01*
G04 APERTURE LIST*
%ADD10C,0.150000*%
%ADD11C,0.500000*%
%ADD12R,4.000000X1.000000*%
%ADD13C,0.600000*%
%ADD14C,0.254000*%
%ADD15C,0.152400*%
G04 APERTURE END LIST*
D10*
G36*
X62786975Y-37441450D02*
X64297489Y-38420403D01*
X64025557Y-38839990D01*
X62515043Y-37861037D01*
X62786975Y-37441450D01*
X62786975Y-37441450D01*
G37*
G36*
X61494895Y-38975441D02*
X63424997Y-40226325D01*
X63250961Y-40494861D01*
X61320859Y-39243977D01*
X61494895Y-38975441D01*
X61494895Y-38975441D01*
G37*
G36*
X62305250Y-37725071D02*
X64235352Y-38975955D01*
X63800262Y-39647295D01*
X61870160Y-38396411D01*
X62305250Y-37725071D01*
X62305250Y-37725071D01*
G37*
D11*
X64522048Y-38625520D03*
D10*
G36*
X59227285Y-42934015D02*
X60737799Y-43912968D01*
X60465867Y-44332555D01*
X58955353Y-43353602D01*
X59227285Y-42934015D01*
X59227285Y-42934015D01*
G37*
G36*
X57935205Y-44468006D02*
X59865307Y-45718890D01*
X59691271Y-45987426D01*
X57761169Y-44736542D01*
X57935205Y-44468006D01*
X57935205Y-44468006D01*
G37*
G36*
X58745560Y-43217636D02*
X60675662Y-44468520D01*
X60240572Y-45139860D01*
X58310470Y-43888976D01*
X58745560Y-43217636D01*
X58745560Y-43217636D01*
G37*
D11*
X60962358Y-44118085D03*
D10*
G36*
X73683234Y-42869474D02*
X74658484Y-44382381D01*
X74238232Y-44653284D01*
X73262982Y-43140377D01*
X73683234Y-42869474D01*
X73683234Y-42869474D01*
G37*
G36*
X71875180Y-43737542D02*
X73121333Y-45670700D01*
X72852372Y-45844078D01*
X71606219Y-43910920D01*
X71875180Y-43737542D01*
X71875180Y-43737542D01*
G37*
G36*
X73127531Y-42930251D02*
X74373684Y-44863410D01*
X73701281Y-45296855D01*
X72455128Y-43363696D01*
X73127531Y-42930251D01*
X73127531Y-42930251D01*
G37*
D11*
X74779001Y-44661622D03*
D10*
G36*
X70232964Y-37517073D02*
X71208214Y-39029980D01*
X70787962Y-39300883D01*
X69812712Y-37787976D01*
X70232964Y-37517073D01*
X70232964Y-37517073D01*
G37*
G36*
X68424910Y-38385141D02*
X69671063Y-40318299D01*
X69402102Y-40491677D01*
X68155949Y-38558519D01*
X68424910Y-38385141D01*
X68424910Y-38385141D01*
G37*
G36*
X69677261Y-37577850D02*
X70923414Y-39511009D01*
X70251011Y-39944454D01*
X69004858Y-38011295D01*
X69677261Y-37577850D01*
X69677261Y-37577850D01*
G37*
D11*
X71328731Y-39309221D03*
D10*
G36*
X71845394Y-22925904D02*
X72832727Y-21420855D01*
X73250796Y-21695114D01*
X72263463Y-23200163D01*
X71845394Y-22925904D01*
X71845394Y-22925904D01*
G37*
G36*
X73372180Y-24226490D02*
X74633772Y-22303372D01*
X74901336Y-22478898D01*
X73639744Y-24402016D01*
X73372180Y-24226490D01*
X73372180Y-24226490D01*
G37*
G36*
X72126333Y-23409198D02*
X73387926Y-21486079D01*
X74056837Y-21924894D01*
X72795244Y-23848013D01*
X72126333Y-23409198D01*
X72126333Y-23409198D01*
G37*
D11*
X73039090Y-21197440D03*
D10*
G36*
X68275714Y-28367370D02*
X69263047Y-26862321D01*
X69681116Y-27136580D01*
X68693783Y-28641629D01*
X68275714Y-28367370D01*
X68275714Y-28367370D01*
G37*
G36*
X69802500Y-29667956D02*
X71064092Y-27744838D01*
X71331656Y-27920364D01*
X70070064Y-29843482D01*
X69802500Y-29667956D01*
X69802500Y-29667956D01*
G37*
G36*
X68556653Y-28850664D02*
X69818246Y-26927545D01*
X70487157Y-27366360D01*
X69225564Y-29289479D01*
X68556653Y-28850664D01*
X68556653Y-28850664D01*
G37*
D11*
X69469410Y-26638906D03*
D10*
G36*
X66624090Y-31744369D02*
X67615706Y-33246600D01*
X67198420Y-33522049D01*
X66206804Y-32019818D01*
X66624090Y-31744369D01*
X66624090Y-31744369D01*
G37*
G36*
X64825567Y-32632013D02*
X66092632Y-34551530D01*
X65825569Y-34727817D01*
X64558504Y-32808300D01*
X64825567Y-32632013D01*
X64825567Y-32632013D01*
G37*
G36*
X66069079Y-31811174D02*
X67336145Y-33730691D01*
X66668487Y-34171410D01*
X65401421Y-32251893D01*
X66069079Y-31811174D01*
X66069079Y-31811174D01*
G37*
D11*
X67739247Y-33524516D03*
D10*
G36*
X63032350Y-26303140D02*
X64023966Y-27805371D01*
X63606680Y-28080820D01*
X62615064Y-26578589D01*
X63032350Y-26303140D01*
X63032350Y-26303140D01*
G37*
G36*
X61233827Y-27190784D02*
X62500892Y-29110301D01*
X62233829Y-29286588D01*
X60966764Y-27367071D01*
X61233827Y-27190784D01*
X61233827Y-27190784D01*
G37*
G36*
X62477339Y-26369945D02*
X63744405Y-28289462D01*
X63076747Y-28730181D01*
X61809681Y-26810664D01*
X62477339Y-26369945D01*
X62477339Y-26369945D01*
G37*
D11*
X64147507Y-28083287D03*
D10*
G36*
X59440615Y-20861912D02*
X60432231Y-22364143D01*
X60014945Y-22639592D01*
X59023329Y-21137361D01*
X59440615Y-20861912D01*
X59440615Y-20861912D01*
G37*
G36*
X57642092Y-21749556D02*
X58909157Y-23669073D01*
X58642094Y-23845360D01*
X57375029Y-21925843D01*
X57642092Y-21749556D01*
X57642092Y-21749556D01*
G37*
G36*
X58885604Y-20928717D02*
X60152670Y-22848234D01*
X59485012Y-23288953D01*
X58217946Y-21369436D01*
X58885604Y-20928717D01*
X58885604Y-20928717D01*
G37*
D11*
X60555772Y-22642059D03*
D12*
X83741430Y-50192207D03*
X83741430Y-48192207D03*
X83741430Y-46192207D03*
D13*
X82741430Y-50192207D03*
X82741430Y-48192207D03*
X82741430Y-46192207D03*
D12*
X49020836Y-46192207D03*
X49020836Y-48192207D03*
X49020836Y-50192207D03*
D13*
X50020836Y-46192207D03*
X50020836Y-48192207D03*
X50020836Y-50192207D03*
D11*
X57389473Y-23280933D03*
D14*
X63410000Y-38140000D02*
X63050000Y-38690000D01*
X63410000Y-38140000D02*
X63050000Y-38690000D01*
X63410000Y-38140000D02*
X63050000Y-38690000D01*
X63410000Y-38140000D02*
X63050000Y-38690000D01*
X63410000Y-38140000D02*
X63050000Y-38690000D01*
X63410000Y-38140000D02*
X63050000Y-38690000D01*
X63410000Y-38140000D02*
X63050000Y-38690000D01*
X63410000Y-38140000D02*
X63050000Y-38690000D01*
X63410000Y-38140000D02*
X63050000Y-38690000D01*
X63050000Y-38690000D02*
X64520000Y-38630000D01*
X63050000Y-38690000D02*
X64520000Y-38630000D01*
X63050000Y-38690000D02*
X64520000Y-38630000D01*
X63050000Y-38690000D02*
X64520000Y-38630000D01*
X63050000Y-38690000D02*
X64520000Y-38630000D01*
X63050000Y-38690000D02*
X64520000Y-38630000D01*
X63050000Y-38690000D02*
X64520000Y-38630000D01*
X63050000Y-38690000D02*
X64520000Y-38630000D01*
X63050000Y-38690000D02*
X64520000Y-38630000D01*
X59850000Y-43630000D02*
X59490000Y-44180000D01*
X59850000Y-43630000D02*
X59490000Y-44180000D01*
X59850000Y-43630000D02*
X59490000Y-44180000D01*
X59850000Y-43630000D02*
X59490000Y-44180000D01*
X59850000Y-43630000D02*
X59490000Y-44180000D01*
X59850000Y-43630000D02*
X59490000Y-44180000D01*
X59850000Y-43630000D02*
X59490000Y-44180000D01*
X59850000Y-43630000D02*
X59490000Y-44180000D01*
X59850000Y-43630000D02*
X59490000Y-44180000D01*
X59490000Y-44180000D02*
X60960000Y-44120000D01*
X59490000Y-44180000D02*
X60960000Y-44120000D01*
X59490000Y-44180000D02*
X60960000Y-44120000D01*
X59490000Y-44180000D02*
X60960000Y-44120000D01*
X59490000Y-44180000D02*
X60960000Y-44120000D01*
X59490000Y-44180000D02*
X60960000Y-44120000D01*
X59490000Y-44180000D02*
X60960000Y-44120000D01*
X59490000Y-44180000D02*
X60960000Y-44120000D01*
X59490000Y-44180000D02*
X60960000Y-44120000D01*
X73960000Y-43760000D02*
X73410000Y-44110000D01*
X73960000Y-43760000D02*
X73410000Y-44110000D01*
X73960000Y-43760000D02*
X73410000Y-44110000D01*
X73960000Y-43760000D02*
X73410000Y-44110000D01*
X73960000Y-43760000D02*
X73410000Y-44110000D01*
X73960000Y-43760000D02*
X73410000Y-44110000D01*
X73960000Y-43760000D02*
X73410000Y-44110000D01*
X73960000Y-43760000D02*
X73410000Y-44110000D01*
X73960000Y-43760000D02*
X73410000Y-44110000D01*
X73410000Y-44110000D02*
X74780000Y-44660000D01*
X73410000Y-44110000D02*
X74780000Y-44660000D01*
X73410000Y-44110000D02*
X74780000Y-44660000D01*
X73410000Y-44110000D02*
X74780000Y-44660000D01*
X73410000Y-44110000D02*
X74780000Y-44660000D01*
X73410000Y-44110000D02*
X74780000Y-44660000D01*
X73410000Y-44110000D02*
X74780000Y-44660000D01*
X73410000Y-44110000D02*
X74780000Y-44660000D01*
X73410000Y-44110000D02*
X74780000Y-44660000D01*
X70510000Y-38410000D02*
X69960000Y-38760000D01*
X70510000Y-38410000D02*
X69960000Y-38760000D01*
X70510000Y-38410000D02*
X69960000Y-38760000D01*
X70510000Y-38410000D02*
X69960000Y-38760000D01*
X70510000Y-38410000D02*
X69960000Y-38760000D01*
X70510000Y-38410000D02*
X69960000Y-38760000D01*
X70510000Y-38410000D02*
X69960000Y-38760000D01*
X70510000Y-38410000D02*
X69960000Y-38760000D01*
X70510000Y-38410000D02*
X69960000Y-38760000D01*
X69960000Y-38760000D02*
X71330000Y-39310000D01*
X69960000Y-38760000D02*
X71330000Y-39310000D01*
X69960000Y-38760000D02*
X71330000Y-39310000D01*
X69960000Y-38760000D02*
X71330000Y-39310000D01*
X69960000Y-38760000D02*
X71330000Y-39310000D01*
X69960000Y-38760000D02*
X71330000Y-39310000D01*
X69960000Y-38760000D02*
X71330000Y-39310000D01*
X69960000Y-38760000D02*
X71330000Y-39310000D01*
X69960000Y-38760000D02*
X71330000Y-39310000D01*
X72550000Y-22310000D02*
X73090000Y-22670000D01*
X72550000Y-22310000D02*
X73090000Y-22670000D01*
X72550000Y-22310000D02*
X73090000Y-22670000D01*
X72550000Y-22310000D02*
X73090000Y-22670000D01*
X72550000Y-22310000D02*
X73090000Y-22670000D01*
X72550000Y-22310000D02*
X73090000Y-22670000D01*
X72550000Y-22310000D02*
X73090000Y-22670000D01*
X72550000Y-22310000D02*
X73090000Y-22670000D01*
X72550000Y-22310000D02*
X73090000Y-22670000D01*
X73090000Y-22670000D02*
X73040000Y-21200000D01*
X73090000Y-22670000D02*
X73040000Y-21200000D01*
X73090000Y-22670000D02*
X73040000Y-21200000D01*
X73090000Y-22670000D02*
X73040000Y-21200000D01*
X73090000Y-22670000D02*
X73040000Y-21200000D01*
X73090000Y-22670000D02*
X73040000Y-21200000D01*
X73090000Y-22670000D02*
X73040000Y-21200000D01*
X73090000Y-22670000D02*
X73040000Y-21200000D01*
X73090000Y-22670000D02*
X73040000Y-21200000D01*
X68980000Y-27750000D02*
X69520000Y-28110000D01*
X68980000Y-27750000D02*
X69520000Y-28110000D01*
X68980000Y-27750000D02*
X69520000Y-28110000D01*
X68980000Y-27750000D02*
X69520000Y-28110000D01*
X68980000Y-27750000D02*
X69520000Y-28110000D01*
X68980000Y-27750000D02*
X69520000Y-28110000D01*
X68980000Y-27750000D02*
X69520000Y-28110000D01*
X68980000Y-27750000D02*
X69520000Y-28110000D01*
X68980000Y-27750000D02*
X69520000Y-28110000D01*
X69520000Y-28110000D02*
X69470000Y-26640000D01*
X69520000Y-28110000D02*
X69470000Y-26640000D01*
X69520000Y-28110000D02*
X69470000Y-26640000D01*
X69520000Y-28110000D02*
X69470000Y-26640000D01*
X69520000Y-28110000D02*
X69470000Y-26640000D01*
X69520000Y-28110000D02*
X69470000Y-26640000D01*
X69520000Y-28110000D02*
X69470000Y-26640000D01*
X69520000Y-28110000D02*
X69470000Y-26640000D01*
X69520000Y-28110000D02*
X69470000Y-26640000D01*
X66910000Y-32630000D02*
X66370000Y-32990000D01*
X66910000Y-32630000D02*
X66370000Y-32990000D01*
X66910000Y-32630000D02*
X66370000Y-32990000D01*
X66910000Y-32630000D02*
X66370000Y-32990000D01*
X66910000Y-32630000D02*
X66370000Y-32990000D01*
X66910000Y-32630000D02*
X66370000Y-32990000D01*
X66910000Y-32630000D02*
X66370000Y-32990000D01*
X66910000Y-32630000D02*
X66370000Y-32990000D01*
X66910000Y-32630000D02*
X66370000Y-32990000D01*
X66370000Y-32990000D02*
X67740000Y-33520000D01*
X66370000Y-32990000D02*
X67740000Y-33520000D01*
X66370000Y-32990000D02*
X67740000Y-33520000D01*
X66370000Y-32990000D02*
X67740000Y-33520000D01*
X66370000Y-32990000D02*
X67740000Y-33520000D01*
X66370000Y-32990000D02*
X67740000Y-33520000D01*
X66370000Y-32990000D02*
X67740000Y-33520000D01*
X66370000Y-32990000D02*
X67740000Y-33520000D01*
X66370000Y-32990000D02*
X67740000Y-33520000D01*
X63320000Y-27190000D02*
X62780000Y-27550000D01*
X63320000Y-27190000D02*
X62780000Y-27550000D01*
X63320000Y-27190000D02*
X62780000Y-27550000D01*
X63320000Y-27190000D02*
X62780000Y-27550000D01*
X63320000Y-27190000D02*
X62780000Y-27550000D01*
X63320000Y-27190000D02*
X62780000Y-27550000D01*
X63320000Y-27190000D02*
X62780000Y-27550000D01*
X63320000Y-27190000D02*
X62780000Y-27550000D01*
X63320000Y-27190000D02*
X62780000Y-27550000D01*
X62780000Y-27550000D02*
X64150000Y-28080000D01*
X62780000Y-27550000D02*
X64150000Y-28080000D01*
X62780000Y-27550000D02*
X64150000Y-28080000D01*
X62780000Y-27550000D02*
X64150000Y-28080000D01*
X62780000Y-27550000D02*
X64150000Y-28080000D01*
X62780000Y-27550000D02*
X64150000Y-28080000D01*
X62780000Y-27550000D02*
X64150000Y-28080000D01*
X62780000Y-27550000D02*
X64150000Y-28080000D01*
X62780000Y-27550000D02*
X64150000Y-28080000D01*
X59730000Y-21750000D02*
X59190000Y-22110000D01*
X59730000Y-21750000D02*
X59190000Y-22110000D01*
X59730000Y-21750000D02*
X59190000Y-22110000D01*
X59730000Y-21750000D02*
X59190000Y-22110000D01*
X59730000Y-21750000D02*
X59190000Y-22110000D01*
X59730000Y-21750000D02*
X59190000Y-22110000D01*
X59730000Y-21750000D02*
X59190000Y-22110000D01*
X59730000Y-21750000D02*
X59190000Y-22110000D01*
X59730000Y-21750000D02*
X59190000Y-22110000D01*
X59190000Y-22110000D02*
X60560000Y-22640000D01*
X59190000Y-22110000D02*
X60560000Y-22640000D01*
X59190000Y-22110000D02*
X60560000Y-22640000D01*
X59190000Y-22110000D02*
X60560000Y-22640000D01*
X59190000Y-22110000D02*
X60560000Y-22640000D01*
X59190000Y-22110000D02*
X60560000Y-22640000D01*
X59190000Y-22110000D02*
X60560000Y-22640000D01*
X59190000Y-22110000D02*
X60560000Y-22640000D01*
X59190000Y-22110000D02*
X60560000Y-22640000D01*
D15*
G36*
X65962129Y-27295036D02*
X65984581Y-27319433D01*
X66003000Y-27347000D01*
X66021042Y-27359056D01*
X66035739Y-27375026D01*
X66065819Y-27388974D01*
X66093384Y-27407393D01*
X66114669Y-27411627D01*
X66134356Y-27420756D01*
X66167482Y-27422132D01*
X66200000Y-27428600D01*
X66440000Y-27428600D01*
X66472053Y-27422224D01*
X66504709Y-27420981D01*
X66524862Y-27411720D01*
X66546616Y-27407393D01*
X66573789Y-27389236D01*
X66603483Y-27375591D01*
X66618558Y-27359323D01*
X66637000Y-27347000D01*
X66655157Y-27319827D01*
X66677369Y-27295856D01*
X68257401Y-24724489D01*
X73332520Y-24724489D01*
X73374526Y-24926718D01*
X73416463Y-24954229D01*
X73644782Y-24997640D01*
X73872334Y-24950373D01*
X74064476Y-24819623D01*
X74191957Y-24625297D01*
X74581375Y-24031685D01*
X74539368Y-23829456D01*
X74106123Y-23545241D01*
X73332520Y-24724489D01*
X68257401Y-24724489D01*
X69335394Y-22970150D01*
X71616554Y-22970150D01*
X71651798Y-23055695D01*
X71717546Y-23120789D01*
X71940730Y-23267201D01*
X71931448Y-23281350D01*
X71898308Y-23360926D01*
X71897493Y-23453444D01*
X71932737Y-23538989D01*
X71998485Y-23604083D01*
X72667396Y-24042898D01*
X72746972Y-24076038D01*
X72806021Y-24076558D01*
X72776556Y-24231527D01*
X72823822Y-24459080D01*
X72954572Y-24651222D01*
X72996508Y-24678733D01*
X73198737Y-24636726D01*
X73972340Y-23457478D01*
X73905449Y-23413597D01*
X74014142Y-23247910D01*
X74301176Y-23247910D01*
X74734421Y-23532125D01*
X74936650Y-23490118D01*
X75326068Y-22896506D01*
X75453548Y-22702180D01*
X75496960Y-22473861D01*
X75449694Y-22246308D01*
X75318944Y-22054166D01*
X75277008Y-22026655D01*
X75074779Y-22068662D01*
X74301176Y-23247910D01*
X74014142Y-23247910D01*
X74100503Y-23116266D01*
X74167393Y-23160147D01*
X74940996Y-21980899D01*
X74898990Y-21778670D01*
X74857053Y-21751159D01*
X74628734Y-21707748D01*
X74401182Y-21755015D01*
X74270543Y-21843913D01*
X74250433Y-21795103D01*
X74184685Y-21730009D01*
X73517607Y-21292396D01*
X73517773Y-21102658D01*
X73445064Y-20926689D01*
X73310549Y-20791940D01*
X73134707Y-20718924D01*
X72944308Y-20718757D01*
X72768339Y-20791466D01*
X72633590Y-20925981D01*
X72560574Y-21101823D01*
X72560407Y-21292222D01*
X72590531Y-21365127D01*
X71650509Y-22798056D01*
X71617369Y-22877632D01*
X71616554Y-22970150D01*
X69335394Y-22970150D01*
X71775801Y-18998600D01*
X79921400Y-18998600D01*
X79921400Y-19895397D01*
X70608446Y-33815079D01*
X70587907Y-33864580D01*
X70567062Y-33914118D01*
X70567058Y-33914828D01*
X70566786Y-33915484D01*
X70566753Y-33969204D01*
X70566453Y-34022821D01*
X70566720Y-34023477D01*
X70566720Y-34024188D01*
X70587248Y-34073831D01*
X70607489Y-34123482D01*
X77987489Y-45303482D01*
X78007327Y-45323544D01*
X78023000Y-45347000D01*
X78045170Y-45361814D01*
X78063923Y-45380778D01*
X78089929Y-45391721D01*
X78113384Y-45407393D01*
X78139538Y-45412595D01*
X78164118Y-45422938D01*
X78192331Y-45423096D01*
X78220000Y-45428600D01*
X85771400Y-45428600D01*
X85771400Y-45465198D01*
X85741430Y-45459129D01*
X81741430Y-45459129D01*
X81656716Y-45475069D01*
X81578912Y-45525135D01*
X81526715Y-45601527D01*
X81508352Y-45692207D01*
X81508352Y-46692207D01*
X81524292Y-46776921D01*
X81574358Y-46854725D01*
X81650750Y-46906922D01*
X81741430Y-46925285D01*
X85741430Y-46925285D01*
X85771400Y-46919646D01*
X85771400Y-47108007D01*
X84065280Y-47108007D01*
X83919230Y-47254057D01*
X83919230Y-48014407D01*
X83939230Y-48014407D01*
X83939230Y-48370007D01*
X83919230Y-48370007D01*
X83919230Y-49130357D01*
X84065280Y-49276407D01*
X85771400Y-49276407D01*
X85771400Y-49465198D01*
X85741430Y-49459129D01*
X81741430Y-49459129D01*
X81656716Y-49475069D01*
X81578912Y-49525135D01*
X81526715Y-49601527D01*
X81508352Y-49692207D01*
X81508352Y-50692207D01*
X81524292Y-50776921D01*
X81574358Y-50854725D01*
X81598762Y-50871400D01*
X81350000Y-50871400D01*
X81299726Y-50881400D01*
X72570291Y-50881400D01*
X70648624Y-47576002D01*
X81157230Y-47576002D01*
X81157230Y-47868357D01*
X81303280Y-48014407D01*
X81873510Y-48014407D01*
X81842018Y-48130540D01*
X81872812Y-48370007D01*
X81303280Y-48370007D01*
X81157230Y-48516057D01*
X81157230Y-48808412D01*
X81246169Y-49023130D01*
X81410508Y-49187468D01*
X81625226Y-49276407D01*
X83417580Y-49276407D01*
X83563630Y-49130357D01*
X83563630Y-48538605D01*
X83640842Y-48253874D01*
X83595977Y-47904990D01*
X83563630Y-47826897D01*
X83563630Y-47254057D01*
X83417580Y-47108007D01*
X81625226Y-47108007D01*
X81410508Y-47196946D01*
X81246169Y-47361284D01*
X81157230Y-47576002D01*
X70648624Y-47576002D01*
X69422054Y-45466219D01*
X71913737Y-45466219D01*
X72298389Y-46062930D01*
X72424310Y-46258271D01*
X72615398Y-46390555D01*
X72842565Y-46439643D01*
X73071224Y-46398061D01*
X73113379Y-46370887D01*
X73157004Y-46169001D01*
X72392869Y-44983596D01*
X71957362Y-45264333D01*
X71913737Y-45466219D01*
X69422054Y-45466219D01*
X68512144Y-43901113D01*
X71010655Y-43901113D01*
X71052237Y-44129772D01*
X71178157Y-44325113D01*
X71562809Y-44921825D01*
X71764696Y-44965449D01*
X72200203Y-44684713D01*
X71436067Y-43499308D01*
X71234181Y-43455683D01*
X71192025Y-43482858D01*
X71059742Y-43673947D01*
X71010655Y-43901113D01*
X68512144Y-43901113D01*
X68228147Y-43412619D01*
X71570548Y-43412619D01*
X72334683Y-44598024D01*
X72401923Y-44554680D01*
X72594590Y-44853562D01*
X72527349Y-44896907D01*
X73291485Y-46082312D01*
X73493371Y-46125937D01*
X73535527Y-46098762D01*
X73667810Y-45907673D01*
X73716897Y-45680507D01*
X73688625Y-45525039D01*
X73741398Y-45526455D01*
X73827564Y-45492758D01*
X74499833Y-45059399D01*
X74507542Y-45067122D01*
X74683384Y-45140138D01*
X74873783Y-45140305D01*
X75049752Y-45067596D01*
X75184501Y-44933081D01*
X75257517Y-44757239D01*
X75257684Y-44566840D01*
X75184975Y-44390871D01*
X75050460Y-44256122D01*
X74874618Y-44183106D01*
X74807297Y-44183047D01*
X73879137Y-42743191D01*
X73819841Y-42680625D01*
X73735605Y-42642356D01*
X73643118Y-42639874D01*
X73556951Y-42673571D01*
X73332602Y-42818191D01*
X73323434Y-42803968D01*
X73264138Y-42741402D01*
X73179902Y-42703133D01*
X73087414Y-42700651D01*
X73001248Y-42734348D01*
X72328845Y-43167793D01*
X72266279Y-43227089D01*
X72241854Y-43280852D01*
X72112154Y-43191065D01*
X71884987Y-43141977D01*
X71656328Y-43183559D01*
X71614173Y-43210733D01*
X71570548Y-43412619D01*
X68228147Y-43412619D01*
X66720854Y-40819974D01*
X66697018Y-40792959D01*
X66677000Y-40763000D01*
X66661369Y-40752556D01*
X66648934Y-40738462D01*
X66616576Y-40722625D01*
X66586616Y-40702607D01*
X66568179Y-40698940D01*
X66551296Y-40690677D01*
X66515336Y-40688429D01*
X66480000Y-40681400D01*
X66200000Y-40681400D01*
X66164664Y-40688429D01*
X66128704Y-40690677D01*
X66111820Y-40698940D01*
X66093384Y-40702607D01*
X66063428Y-40722623D01*
X66031066Y-40738461D01*
X66018629Y-40752557D01*
X66003000Y-40763000D01*
X65982983Y-40792958D01*
X65959146Y-40819974D01*
X60109709Y-50881400D01*
X51380274Y-50881400D01*
X51330000Y-50871400D01*
X51164518Y-50871400D01*
X51183354Y-50859279D01*
X51235551Y-50782887D01*
X51253914Y-50692207D01*
X51253914Y-49692207D01*
X51237974Y-49607493D01*
X51187908Y-49529689D01*
X51111516Y-49477492D01*
X51020836Y-49459129D01*
X47020836Y-49459129D01*
X46936122Y-49475069D01*
X46908600Y-49492779D01*
X46908600Y-49276407D01*
X48696986Y-49276407D01*
X48843036Y-49130357D01*
X48843036Y-48370007D01*
X48823036Y-48370007D01*
X48823036Y-48130540D01*
X49121424Y-48130540D01*
X49166289Y-48479424D01*
X49198636Y-48557517D01*
X49198636Y-49130357D01*
X49344686Y-49276407D01*
X51137040Y-49276407D01*
X51351758Y-49187468D01*
X51516097Y-49023130D01*
X51605036Y-48808412D01*
X51605036Y-48516057D01*
X51458986Y-48370007D01*
X50888756Y-48370007D01*
X50920248Y-48253874D01*
X50889454Y-48014407D01*
X51458986Y-48014407D01*
X51605036Y-47868357D01*
X51605036Y-47576002D01*
X51516097Y-47361284D01*
X51351758Y-47196946D01*
X51137040Y-47108007D01*
X49344686Y-47108007D01*
X49198636Y-47254057D01*
X49198636Y-47845809D01*
X49121424Y-48130540D01*
X48823036Y-48130540D01*
X48823036Y-48014407D01*
X48843036Y-48014407D01*
X48843036Y-47254057D01*
X48696986Y-47108007D01*
X46908600Y-47108007D01*
X46908600Y-46892193D01*
X46930156Y-46906922D01*
X47020836Y-46925285D01*
X51020836Y-46925285D01*
X51105550Y-46909345D01*
X51183354Y-46859279D01*
X51235551Y-46782887D01*
X51253914Y-46692207D01*
X51253914Y-45826367D01*
X58637132Y-45826367D01*
X58680262Y-46028359D01*
X59276030Y-46414472D01*
X59471062Y-46540870D01*
X59699618Y-46583012D01*
X59926904Y-46534482D01*
X60118317Y-46402666D01*
X60145594Y-46360578D01*
X60102464Y-46158585D01*
X58918934Y-45391549D01*
X58637132Y-45826367D01*
X51253914Y-45826367D01*
X51253914Y-45692207D01*
X51237974Y-45607493D01*
X51187908Y-45529689D01*
X51111516Y-45477492D01*
X51020836Y-45459129D01*
X47020836Y-45459129D01*
X46936122Y-45475069D01*
X46908600Y-45492779D01*
X46908600Y-45428600D01*
X54450000Y-45428600D01*
X54477923Y-45423046D01*
X54506392Y-45422833D01*
X54530713Y-45412545D01*
X54556616Y-45407393D01*
X54580288Y-45391576D01*
X54606508Y-45380485D01*
X54625042Y-45361672D01*
X54647000Y-45347000D01*
X54662816Y-45323329D01*
X54682798Y-45303047D01*
X55049743Y-44744890D01*
X57165583Y-44744890D01*
X57214114Y-44972176D01*
X57345930Y-45163589D01*
X57540961Y-45289987D01*
X58136729Y-45676100D01*
X58338721Y-45632969D01*
X58620524Y-45198151D01*
X57436994Y-44431115D01*
X57235002Y-44474245D01*
X57207724Y-44516334D01*
X57165583Y-44744890D01*
X55049743Y-44744890D01*
X55477092Y-44094854D01*
X57480882Y-44094854D01*
X57524012Y-44296847D01*
X58707542Y-45063883D01*
X58751051Y-44996749D01*
X59049461Y-45190147D01*
X59005952Y-45257281D01*
X60189482Y-46024317D01*
X60391474Y-45981187D01*
X60418752Y-45939098D01*
X60460893Y-45710542D01*
X60412362Y-45483256D01*
X60322739Y-45353112D01*
X60371438Y-45332732D01*
X60436165Y-45266622D01*
X60870398Y-44596604D01*
X61057140Y-44596768D01*
X61233109Y-44524059D01*
X61367858Y-44389544D01*
X61440874Y-44213702D01*
X61441041Y-44023303D01*
X61368332Y-43847334D01*
X61233817Y-43712585D01*
X61057975Y-43639569D01*
X60867576Y-43639402D01*
X60792264Y-43670520D01*
X59354047Y-42738422D01*
X59274289Y-42705726D01*
X59181768Y-42705425D01*
X59096420Y-42741143D01*
X59031692Y-42807252D01*
X58886523Y-43031246D01*
X58872322Y-43022043D01*
X58792563Y-42989347D01*
X58700043Y-42989046D01*
X58614694Y-43024764D01*
X58549967Y-43090874D01*
X58114877Y-43762214D01*
X58082181Y-43841973D01*
X58081989Y-43901024D01*
X57926858Y-43872420D01*
X57699572Y-43920950D01*
X57508159Y-44052766D01*
X57480882Y-44094854D01*
X55477092Y-44094854D01*
X57949698Y-40333802D01*
X62196822Y-40333802D01*
X62239952Y-40535794D01*
X62835720Y-40921907D01*
X63030752Y-41048305D01*
X63259308Y-41090447D01*
X63486594Y-41041917D01*
X63678007Y-40910101D01*
X63705284Y-40868013D01*
X63662154Y-40666020D01*
X62478624Y-39898984D01*
X62196822Y-40333802D01*
X57949698Y-40333802D01*
X58660687Y-39252325D01*
X60725273Y-39252325D01*
X60773804Y-39479611D01*
X60905620Y-39671024D01*
X61100651Y-39797422D01*
X61696419Y-40183535D01*
X61898411Y-40140404D01*
X62180214Y-39705586D01*
X60996684Y-38938550D01*
X60794692Y-38981680D01*
X60767414Y-39023769D01*
X60725273Y-39252325D01*
X58660687Y-39252325D01*
X59088036Y-38602289D01*
X61040572Y-38602289D01*
X61083702Y-38804282D01*
X62267232Y-39571318D01*
X62310741Y-39504184D01*
X62609151Y-39697582D01*
X62565642Y-39764716D01*
X63749172Y-40531752D01*
X63951164Y-40488622D01*
X63978442Y-40446533D01*
X64020583Y-40217977D01*
X63998343Y-40113818D01*
X68463467Y-40113818D01*
X68848119Y-40710529D01*
X68974040Y-40905870D01*
X69165128Y-41038154D01*
X69392295Y-41087242D01*
X69620954Y-41045660D01*
X69663109Y-41018486D01*
X69706734Y-40816600D01*
X68942599Y-39631195D01*
X68507092Y-39911932D01*
X68463467Y-40113818D01*
X63998343Y-40113818D01*
X63972052Y-39990691D01*
X63882429Y-39860547D01*
X63931128Y-39840167D01*
X63995855Y-39774057D01*
X64430088Y-39104039D01*
X64616830Y-39104203D01*
X64792799Y-39031494D01*
X64927548Y-38896979D01*
X65000564Y-38721137D01*
X65000715Y-38548712D01*
X67560385Y-38548712D01*
X67601967Y-38777371D01*
X67727887Y-38972712D01*
X68112539Y-39569424D01*
X68314426Y-39613048D01*
X68749933Y-39332312D01*
X67985797Y-38146907D01*
X67783911Y-38103282D01*
X67741755Y-38130457D01*
X67609472Y-38321546D01*
X67560385Y-38548712D01*
X65000715Y-38548712D01*
X65000731Y-38530738D01*
X64928022Y-38354769D01*
X64793507Y-38220020D01*
X64617665Y-38147004D01*
X64427266Y-38146837D01*
X64351954Y-38177955D01*
X64170288Y-38060218D01*
X68120278Y-38060218D01*
X68884413Y-39245623D01*
X68951653Y-39202279D01*
X69144320Y-39501161D01*
X69077079Y-39544506D01*
X69841215Y-40729911D01*
X70043101Y-40773536D01*
X70085257Y-40746361D01*
X70217540Y-40555272D01*
X70266627Y-40328106D01*
X70238355Y-40172638D01*
X70291128Y-40174054D01*
X70377294Y-40140357D01*
X71049563Y-39706998D01*
X71057272Y-39714721D01*
X71233114Y-39787737D01*
X71423513Y-39787904D01*
X71599482Y-39715195D01*
X71734231Y-39580680D01*
X71807247Y-39404838D01*
X71807414Y-39214439D01*
X71734705Y-39038470D01*
X71600190Y-38903721D01*
X71424348Y-38830705D01*
X71357027Y-38830646D01*
X70428867Y-37390790D01*
X70369571Y-37328224D01*
X70285335Y-37289955D01*
X70192848Y-37287473D01*
X70106681Y-37321170D01*
X69882332Y-37465790D01*
X69873164Y-37451567D01*
X69813868Y-37389001D01*
X69729632Y-37350732D01*
X69637144Y-37348250D01*
X69550978Y-37381947D01*
X68878575Y-37815392D01*
X68816009Y-37874688D01*
X68791584Y-37928451D01*
X68661884Y-37838664D01*
X68434717Y-37789576D01*
X68206058Y-37831158D01*
X68163903Y-37858332D01*
X68120278Y-38060218D01*
X64170288Y-38060218D01*
X62913737Y-37245857D01*
X62833979Y-37213161D01*
X62741458Y-37212860D01*
X62656110Y-37248578D01*
X62591382Y-37314687D01*
X62446213Y-37538681D01*
X62432012Y-37529478D01*
X62352253Y-37496782D01*
X62259733Y-37496481D01*
X62174384Y-37532199D01*
X62109657Y-37598309D01*
X61674567Y-38269649D01*
X61641871Y-38349408D01*
X61641679Y-38408459D01*
X61486548Y-38379855D01*
X61259262Y-38428385D01*
X61067849Y-38560201D01*
X61040572Y-38602289D01*
X59088036Y-38602289D01*
X61876907Y-34360170D01*
X64882888Y-34360170D01*
X65273995Y-34952670D01*
X65402029Y-35146632D01*
X65594542Y-35276834D01*
X65822228Y-35323453D01*
X66050422Y-35279391D01*
X66092280Y-35251761D01*
X66133711Y-35049413D01*
X65356752Y-33872374D01*
X64924318Y-34157822D01*
X64882888Y-34360170D01*
X61876907Y-34360170D01*
X62032798Y-34123047D01*
X62052906Y-34073458D01*
X62073279Y-34024188D01*
X62073278Y-34023216D01*
X62073646Y-34022309D01*
X62073246Y-33968813D01*
X62073214Y-33915483D01*
X62072840Y-33914582D01*
X62072833Y-33913608D01*
X62052014Y-33864389D01*
X62031554Y-33815079D01*
X61355735Y-32804960D01*
X63962868Y-32804960D01*
X64006930Y-33033154D01*
X64134963Y-33227117D01*
X64526071Y-33819617D01*
X64728419Y-33861048D01*
X65160853Y-33575600D01*
X64383893Y-32398561D01*
X64181545Y-32357130D01*
X64139687Y-32384760D01*
X64009486Y-32577274D01*
X63962868Y-32804960D01*
X61355735Y-32804960D01*
X61024862Y-32310417D01*
X64517425Y-32310417D01*
X65294384Y-33487456D01*
X65361150Y-33443384D01*
X65557049Y-33740158D01*
X65490283Y-33784230D01*
X66267243Y-34961269D01*
X66469591Y-35002700D01*
X66511449Y-34975070D01*
X66641650Y-34782556D01*
X66688268Y-34554870D01*
X66658310Y-34399718D01*
X66711094Y-34400561D01*
X66796889Y-34365930D01*
X67463609Y-33925830D01*
X67467788Y-33930016D01*
X67643630Y-34003032D01*
X67834029Y-34003199D01*
X68009998Y-33930490D01*
X68144747Y-33795975D01*
X68217763Y-33620133D01*
X68217930Y-33429734D01*
X68145221Y-33253765D01*
X68010706Y-33119016D01*
X67834864Y-33046000D01*
X67762528Y-33045937D01*
X66818611Y-31615967D01*
X66758639Y-31554048D01*
X66673993Y-31516696D01*
X66581483Y-31515218D01*
X66495688Y-31549849D01*
X66272922Y-31696896D01*
X66263599Y-31682772D01*
X66203628Y-31620853D01*
X66118982Y-31583501D01*
X66026472Y-31582023D01*
X65940677Y-31616654D01*
X65273019Y-32057373D01*
X65211100Y-32117344D01*
X65187260Y-32171369D01*
X65056594Y-32082996D01*
X64828908Y-32036377D01*
X64600714Y-32080439D01*
X64558856Y-32108069D01*
X64517425Y-32310417D01*
X61024862Y-32310417D01*
X59590111Y-30165955D01*
X69762840Y-30165955D01*
X69804846Y-30368184D01*
X69846783Y-30395695D01*
X70075102Y-30439106D01*
X70302654Y-30391839D01*
X70494796Y-30261089D01*
X70622277Y-30066763D01*
X71011695Y-29473151D01*
X70969688Y-29270922D01*
X70536443Y-28986707D01*
X69762840Y-30165955D01*
X59590111Y-30165955D01*
X58755797Y-28918941D01*
X61291148Y-28918941D01*
X61682255Y-29511441D01*
X61810289Y-29705403D01*
X62002802Y-29835605D01*
X62230488Y-29882224D01*
X62458682Y-29838162D01*
X62500540Y-29810532D01*
X62541971Y-29608184D01*
X61765012Y-28431145D01*
X61332578Y-28716593D01*
X61291148Y-28918941D01*
X58755797Y-28918941D01*
X57715285Y-27363731D01*
X60371128Y-27363731D01*
X60415190Y-27591925D01*
X60543223Y-27785888D01*
X60934331Y-28378388D01*
X61136679Y-28419819D01*
X61569113Y-28134371D01*
X60792153Y-26957332D01*
X60589805Y-26915901D01*
X60547947Y-26943531D01*
X60417746Y-27136045D01*
X60371128Y-27363731D01*
X57715285Y-27363731D01*
X57384412Y-26869188D01*
X60925685Y-26869188D01*
X61702644Y-28046227D01*
X61769410Y-28002155D01*
X61965309Y-28298929D01*
X61898543Y-28343001D01*
X62675503Y-29520040D01*
X62877851Y-29561471D01*
X62919709Y-29533841D01*
X63049910Y-29341327D01*
X63096528Y-29113641D01*
X63066570Y-28958489D01*
X63119354Y-28959332D01*
X63205149Y-28924701D01*
X63871869Y-28484601D01*
X63876048Y-28488787D01*
X64051890Y-28561803D01*
X64242289Y-28561970D01*
X64418258Y-28489261D01*
X64496038Y-28411616D01*
X68046874Y-28411616D01*
X68082118Y-28497161D01*
X68147866Y-28562255D01*
X68371050Y-28708667D01*
X68361768Y-28722816D01*
X68328628Y-28802392D01*
X68327813Y-28894910D01*
X68363057Y-28980455D01*
X68428805Y-29045549D01*
X69097716Y-29484364D01*
X69177292Y-29517504D01*
X69236341Y-29518024D01*
X69206876Y-29672993D01*
X69254142Y-29900546D01*
X69384892Y-30092688D01*
X69426828Y-30120199D01*
X69629057Y-30078192D01*
X70402660Y-28898944D01*
X70335769Y-28855063D01*
X70444462Y-28689376D01*
X70731496Y-28689376D01*
X71164741Y-28973591D01*
X71366970Y-28931584D01*
X71756388Y-28337972D01*
X71883868Y-28143646D01*
X71927280Y-27915327D01*
X71880014Y-27687774D01*
X71749264Y-27495632D01*
X71707328Y-27468121D01*
X71505099Y-27510128D01*
X70731496Y-28689376D01*
X70444462Y-28689376D01*
X70530823Y-28557732D01*
X70597713Y-28601613D01*
X71371316Y-27422365D01*
X71329310Y-27220136D01*
X71287373Y-27192625D01*
X71059054Y-27149214D01*
X70831502Y-27196481D01*
X70700863Y-27285379D01*
X70680753Y-27236569D01*
X70615005Y-27171475D01*
X69947927Y-26733862D01*
X69948093Y-26544124D01*
X69875384Y-26368155D01*
X69740869Y-26233406D01*
X69565027Y-26160390D01*
X69374628Y-26160223D01*
X69198659Y-26232932D01*
X69063910Y-26367447D01*
X68990894Y-26543289D01*
X68990727Y-26733688D01*
X69020851Y-26806593D01*
X68080829Y-28239522D01*
X68047689Y-28319098D01*
X68046874Y-28411616D01*
X64496038Y-28411616D01*
X64553007Y-28354746D01*
X64626023Y-28178904D01*
X64626190Y-27988505D01*
X64553481Y-27812536D01*
X64418966Y-27677787D01*
X64243124Y-27604771D01*
X64170788Y-27604708D01*
X63226871Y-26174738D01*
X63166899Y-26112819D01*
X63082253Y-26075467D01*
X62989743Y-26073989D01*
X62903948Y-26108620D01*
X62681182Y-26255667D01*
X62671859Y-26241543D01*
X62611888Y-26179624D01*
X62527242Y-26142272D01*
X62434732Y-26140794D01*
X62348937Y-26175425D01*
X61681279Y-26616144D01*
X61619360Y-26676115D01*
X61595520Y-26730140D01*
X61464854Y-26641767D01*
X61237168Y-26595148D01*
X61008974Y-26639210D01*
X60967116Y-26666840D01*
X60925685Y-26869188D01*
X57384412Y-26869188D01*
X55058009Y-23392013D01*
X56546214Y-23392013D01*
X56652911Y-23706259D01*
X56871744Y-23955752D01*
X56998079Y-24036072D01*
X57146592Y-23942234D01*
X57244760Y-23382462D01*
X56684988Y-23284294D01*
X56546214Y-23392013D01*
X55058009Y-23392013D01*
X54721830Y-22889539D01*
X56634334Y-22889539D01*
X56728172Y-23038052D01*
X57287944Y-23136220D01*
X57326998Y-22913529D01*
X57342596Y-22937160D01*
X57544944Y-22978591D01*
X57572605Y-22960332D01*
X57534186Y-23179404D01*
X57812323Y-23228181D01*
X57740843Y-23275365D01*
X57722915Y-23362925D01*
X57655064Y-23295074D01*
X57519495Y-23430643D01*
X57491002Y-23425646D01*
X57483880Y-23466258D01*
X57403614Y-23546524D01*
X57459928Y-23602838D01*
X57392834Y-23985418D01*
X57500553Y-24124192D01*
X57814799Y-24017495D01*
X57846649Y-23989559D01*
X57864117Y-24007027D01*
X57975372Y-23895772D01*
X58090520Y-24070213D01*
X58218554Y-24264175D01*
X58411067Y-24394377D01*
X58638753Y-24440996D01*
X58866947Y-24396934D01*
X58908805Y-24369304D01*
X58950236Y-24166956D01*
X58173277Y-22989917D01*
X58171938Y-22990801D01*
X58126035Y-22855607D01*
X57958647Y-22664767D01*
X57200418Y-21516104D01*
X56998070Y-21474673D01*
X56956212Y-21502303D01*
X56826011Y-21694817D01*
X56779393Y-21922503D01*
X56823455Y-22150697D01*
X56951488Y-22344660D01*
X57061498Y-22511317D01*
X56964147Y-22544371D01*
X56714654Y-22763204D01*
X56634334Y-22889539D01*
X54721830Y-22889539D01*
X53743961Y-21427960D01*
X57333950Y-21427960D01*
X58110909Y-22604999D01*
X58177675Y-22560927D01*
X58373574Y-22857701D01*
X58306808Y-22901773D01*
X59083768Y-24078812D01*
X59286116Y-24120243D01*
X59327974Y-24092613D01*
X59458175Y-23900099D01*
X59504793Y-23672413D01*
X59474835Y-23517261D01*
X59527619Y-23518104D01*
X59613414Y-23483473D01*
X60280134Y-23043373D01*
X60284313Y-23047559D01*
X60460155Y-23120575D01*
X60650554Y-23120742D01*
X60826523Y-23048033D01*
X60961272Y-22913518D01*
X61034288Y-22737676D01*
X61034455Y-22547277D01*
X60961746Y-22371308D01*
X60827231Y-22236559D01*
X60651389Y-22163543D01*
X60579053Y-22163480D01*
X59635136Y-20733510D01*
X59575164Y-20671591D01*
X59490518Y-20634239D01*
X59398008Y-20632761D01*
X59312213Y-20667392D01*
X59089447Y-20814439D01*
X59080124Y-20800315D01*
X59020153Y-20738396D01*
X58935507Y-20701044D01*
X58842997Y-20699566D01*
X58757202Y-20734197D01*
X58089544Y-21174916D01*
X58027625Y-21234887D01*
X58003785Y-21288912D01*
X57873119Y-21200539D01*
X57645433Y-21153920D01*
X57417239Y-21197982D01*
X57375381Y-21225612D01*
X57333950Y-21427960D01*
X53743961Y-21427960D01*
X52718600Y-19895397D01*
X52718600Y-18998600D01*
X60903567Y-18998600D01*
X65962129Y-27295036D01*
X65962129Y-27295036D01*
G37*
X65962129Y-27295036D02*
X65984581Y-27319433D01*
X66003000Y-27347000D01*
X66021042Y-27359056D01*
X66035739Y-27375026D01*
X66065819Y-27388974D01*
X66093384Y-27407393D01*
X66114669Y-27411627D01*
X66134356Y-27420756D01*
X66167482Y-27422132D01*
X66200000Y-27428600D01*
X66440000Y-27428600D01*
X66472053Y-27422224D01*
X66504709Y-27420981D01*
X66524862Y-27411720D01*
X66546616Y-27407393D01*
X66573789Y-27389236D01*
X66603483Y-27375591D01*
X66618558Y-27359323D01*
X66637000Y-27347000D01*
X66655157Y-27319827D01*
X66677369Y-27295856D01*
X68257401Y-24724489D01*
X73332520Y-24724489D01*
X73374526Y-24926718D01*
X73416463Y-24954229D01*
X73644782Y-24997640D01*
X73872334Y-24950373D01*
X74064476Y-24819623D01*
X74191957Y-24625297D01*
X74581375Y-24031685D01*
X74539368Y-23829456D01*
X74106123Y-23545241D01*
X73332520Y-24724489D01*
X68257401Y-24724489D01*
X69335394Y-22970150D01*
X71616554Y-22970150D01*
X71651798Y-23055695D01*
X71717546Y-23120789D01*
X71940730Y-23267201D01*
X71931448Y-23281350D01*
X71898308Y-23360926D01*
X71897493Y-23453444D01*
X71932737Y-23538989D01*
X71998485Y-23604083D01*
X72667396Y-24042898D01*
X72746972Y-24076038D01*
X72806021Y-24076558D01*
X72776556Y-24231527D01*
X72823822Y-24459080D01*
X72954572Y-24651222D01*
X72996508Y-24678733D01*
X73198737Y-24636726D01*
X73972340Y-23457478D01*
X73905449Y-23413597D01*
X74014142Y-23247910D01*
X74301176Y-23247910D01*
X74734421Y-23532125D01*
X74936650Y-23490118D01*
X75326068Y-22896506D01*
X75453548Y-22702180D01*
X75496960Y-22473861D01*
X75449694Y-22246308D01*
X75318944Y-22054166D01*
X75277008Y-22026655D01*
X75074779Y-22068662D01*
X74301176Y-23247910D01*
X74014142Y-23247910D01*
X74100503Y-23116266D01*
X74167393Y-23160147D01*
X74940996Y-21980899D01*
X74898990Y-21778670D01*
X74857053Y-21751159D01*
X74628734Y-21707748D01*
X74401182Y-21755015D01*
X74270543Y-21843913D01*
X74250433Y-21795103D01*
X74184685Y-21730009D01*
X73517607Y-21292396D01*
X73517773Y-21102658D01*
X73445064Y-20926689D01*
X73310549Y-20791940D01*
X73134707Y-20718924D01*
X72944308Y-20718757D01*
X72768339Y-20791466D01*
X72633590Y-20925981D01*
X72560574Y-21101823D01*
X72560407Y-21292222D01*
X72590531Y-21365127D01*
X71650509Y-22798056D01*
X71617369Y-22877632D01*
X71616554Y-22970150D01*
X69335394Y-22970150D01*
X71775801Y-18998600D01*
X79921400Y-18998600D01*
X79921400Y-19895397D01*
X70608446Y-33815079D01*
X70587907Y-33864580D01*
X70567062Y-33914118D01*
X70567058Y-33914828D01*
X70566786Y-33915484D01*
X70566753Y-33969204D01*
X70566453Y-34022821D01*
X70566720Y-34023477D01*
X70566720Y-34024188D01*
X70587248Y-34073831D01*
X70607489Y-34123482D01*
X77987489Y-45303482D01*
X78007327Y-45323544D01*
X78023000Y-45347000D01*
X78045170Y-45361814D01*
X78063923Y-45380778D01*
X78089929Y-45391721D01*
X78113384Y-45407393D01*
X78139538Y-45412595D01*
X78164118Y-45422938D01*
X78192331Y-45423096D01*
X78220000Y-45428600D01*
X85771400Y-45428600D01*
X85771400Y-45465198D01*
X85741430Y-45459129D01*
X81741430Y-45459129D01*
X81656716Y-45475069D01*
X81578912Y-45525135D01*
X81526715Y-45601527D01*
X81508352Y-45692207D01*
X81508352Y-46692207D01*
X81524292Y-46776921D01*
X81574358Y-46854725D01*
X81650750Y-46906922D01*
X81741430Y-46925285D01*
X85741430Y-46925285D01*
X85771400Y-46919646D01*
X85771400Y-47108007D01*
X84065280Y-47108007D01*
X83919230Y-47254057D01*
X83919230Y-48014407D01*
X83939230Y-48014407D01*
X83939230Y-48370007D01*
X83919230Y-48370007D01*
X83919230Y-49130357D01*
X84065280Y-49276407D01*
X85771400Y-49276407D01*
X85771400Y-49465198D01*
X85741430Y-49459129D01*
X81741430Y-49459129D01*
X81656716Y-49475069D01*
X81578912Y-49525135D01*
X81526715Y-49601527D01*
X81508352Y-49692207D01*
X81508352Y-50692207D01*
X81524292Y-50776921D01*
X81574358Y-50854725D01*
X81598762Y-50871400D01*
X81350000Y-50871400D01*
X81299726Y-50881400D01*
X72570291Y-50881400D01*
X70648624Y-47576002D01*
X81157230Y-47576002D01*
X81157230Y-47868357D01*
X81303280Y-48014407D01*
X81873510Y-48014407D01*
X81842018Y-48130540D01*
X81872812Y-48370007D01*
X81303280Y-48370007D01*
X81157230Y-48516057D01*
X81157230Y-48808412D01*
X81246169Y-49023130D01*
X81410508Y-49187468D01*
X81625226Y-49276407D01*
X83417580Y-49276407D01*
X83563630Y-49130357D01*
X83563630Y-48538605D01*
X83640842Y-48253874D01*
X83595977Y-47904990D01*
X83563630Y-47826897D01*
X83563630Y-47254057D01*
X83417580Y-47108007D01*
X81625226Y-47108007D01*
X81410508Y-47196946D01*
X81246169Y-47361284D01*
X81157230Y-47576002D01*
X70648624Y-47576002D01*
X69422054Y-45466219D01*
X71913737Y-45466219D01*
X72298389Y-46062930D01*
X72424310Y-46258271D01*
X72615398Y-46390555D01*
X72842565Y-46439643D01*
X73071224Y-46398061D01*
X73113379Y-46370887D01*
X73157004Y-46169001D01*
X72392869Y-44983596D01*
X71957362Y-45264333D01*
X71913737Y-45466219D01*
X69422054Y-45466219D01*
X68512144Y-43901113D01*
X71010655Y-43901113D01*
X71052237Y-44129772D01*
X71178157Y-44325113D01*
X71562809Y-44921825D01*
X71764696Y-44965449D01*
X72200203Y-44684713D01*
X71436067Y-43499308D01*
X71234181Y-43455683D01*
X71192025Y-43482858D01*
X71059742Y-43673947D01*
X71010655Y-43901113D01*
X68512144Y-43901113D01*
X68228147Y-43412619D01*
X71570548Y-43412619D01*
X72334683Y-44598024D01*
X72401923Y-44554680D01*
X72594590Y-44853562D01*
X72527349Y-44896907D01*
X73291485Y-46082312D01*
X73493371Y-46125937D01*
X73535527Y-46098762D01*
X73667810Y-45907673D01*
X73716897Y-45680507D01*
X73688625Y-45525039D01*
X73741398Y-45526455D01*
X73827564Y-45492758D01*
X74499833Y-45059399D01*
X74507542Y-45067122D01*
X74683384Y-45140138D01*
X74873783Y-45140305D01*
X75049752Y-45067596D01*
X75184501Y-44933081D01*
X75257517Y-44757239D01*
X75257684Y-44566840D01*
X75184975Y-44390871D01*
X75050460Y-44256122D01*
X74874618Y-44183106D01*
X74807297Y-44183047D01*
X73879137Y-42743191D01*
X73819841Y-42680625D01*
X73735605Y-42642356D01*
X73643118Y-42639874D01*
X73556951Y-42673571D01*
X73332602Y-42818191D01*
X73323434Y-42803968D01*
X73264138Y-42741402D01*
X73179902Y-42703133D01*
X73087414Y-42700651D01*
X73001248Y-42734348D01*
X72328845Y-43167793D01*
X72266279Y-43227089D01*
X72241854Y-43280852D01*
X72112154Y-43191065D01*
X71884987Y-43141977D01*
X71656328Y-43183559D01*
X71614173Y-43210733D01*
X71570548Y-43412619D01*
X68228147Y-43412619D01*
X66720854Y-40819974D01*
X66697018Y-40792959D01*
X66677000Y-40763000D01*
X66661369Y-40752556D01*
X66648934Y-40738462D01*
X66616576Y-40722625D01*
X66586616Y-40702607D01*
X66568179Y-40698940D01*
X66551296Y-40690677D01*
X66515336Y-40688429D01*
X66480000Y-40681400D01*
X66200000Y-40681400D01*
X66164664Y-40688429D01*
X66128704Y-40690677D01*
X66111820Y-40698940D01*
X66093384Y-40702607D01*
X66063428Y-40722623D01*
X66031066Y-40738461D01*
X66018629Y-40752557D01*
X66003000Y-40763000D01*
X65982983Y-40792958D01*
X65959146Y-40819974D01*
X60109709Y-50881400D01*
X51380274Y-50881400D01*
X51330000Y-50871400D01*
X51164518Y-50871400D01*
X51183354Y-50859279D01*
X51235551Y-50782887D01*
X51253914Y-50692207D01*
X51253914Y-49692207D01*
X51237974Y-49607493D01*
X51187908Y-49529689D01*
X51111516Y-49477492D01*
X51020836Y-49459129D01*
X47020836Y-49459129D01*
X46936122Y-49475069D01*
X46908600Y-49492779D01*
X46908600Y-49276407D01*
X48696986Y-49276407D01*
X48843036Y-49130357D01*
X48843036Y-48370007D01*
X48823036Y-48370007D01*
X48823036Y-48130540D01*
X49121424Y-48130540D01*
X49166289Y-48479424D01*
X49198636Y-48557517D01*
X49198636Y-49130357D01*
X49344686Y-49276407D01*
X51137040Y-49276407D01*
X51351758Y-49187468D01*
X51516097Y-49023130D01*
X51605036Y-48808412D01*
X51605036Y-48516057D01*
X51458986Y-48370007D01*
X50888756Y-48370007D01*
X50920248Y-48253874D01*
X50889454Y-48014407D01*
X51458986Y-48014407D01*
X51605036Y-47868357D01*
X51605036Y-47576002D01*
X51516097Y-47361284D01*
X51351758Y-47196946D01*
X51137040Y-47108007D01*
X49344686Y-47108007D01*
X49198636Y-47254057D01*
X49198636Y-47845809D01*
X49121424Y-48130540D01*
X48823036Y-48130540D01*
X48823036Y-48014407D01*
X48843036Y-48014407D01*
X48843036Y-47254057D01*
X48696986Y-47108007D01*
X46908600Y-47108007D01*
X46908600Y-46892193D01*
X46930156Y-46906922D01*
X47020836Y-46925285D01*
X51020836Y-46925285D01*
X51105550Y-46909345D01*
X51183354Y-46859279D01*
X51235551Y-46782887D01*
X51253914Y-46692207D01*
X51253914Y-45826367D01*
X58637132Y-45826367D01*
X58680262Y-46028359D01*
X59276030Y-46414472D01*
X59471062Y-46540870D01*
X59699618Y-46583012D01*
X59926904Y-46534482D01*
X60118317Y-46402666D01*
X60145594Y-46360578D01*
X60102464Y-46158585D01*
X58918934Y-45391549D01*
X58637132Y-45826367D01*
X51253914Y-45826367D01*
X51253914Y-45692207D01*
X51237974Y-45607493D01*
X51187908Y-45529689D01*
X51111516Y-45477492D01*
X51020836Y-45459129D01*
X47020836Y-45459129D01*
X46936122Y-45475069D01*
X46908600Y-45492779D01*
X46908600Y-45428600D01*
X54450000Y-45428600D01*
X54477923Y-45423046D01*
X54506392Y-45422833D01*
X54530713Y-45412545D01*
X54556616Y-45407393D01*
X54580288Y-45391576D01*
X54606508Y-45380485D01*
X54625042Y-45361672D01*
X54647000Y-45347000D01*
X54662816Y-45323329D01*
X54682798Y-45303047D01*
X55049743Y-44744890D01*
X57165583Y-44744890D01*
X57214114Y-44972176D01*
X57345930Y-45163589D01*
X57540961Y-45289987D01*
X58136729Y-45676100D01*
X58338721Y-45632969D01*
X58620524Y-45198151D01*
X57436994Y-44431115D01*
X57235002Y-44474245D01*
X57207724Y-44516334D01*
X57165583Y-44744890D01*
X55049743Y-44744890D01*
X55477092Y-44094854D01*
X57480882Y-44094854D01*
X57524012Y-44296847D01*
X58707542Y-45063883D01*
X58751051Y-44996749D01*
X59049461Y-45190147D01*
X59005952Y-45257281D01*
X60189482Y-46024317D01*
X60391474Y-45981187D01*
X60418752Y-45939098D01*
X60460893Y-45710542D01*
X60412362Y-45483256D01*
X60322739Y-45353112D01*
X60371438Y-45332732D01*
X60436165Y-45266622D01*
X60870398Y-44596604D01*
X61057140Y-44596768D01*
X61233109Y-44524059D01*
X61367858Y-44389544D01*
X61440874Y-44213702D01*
X61441041Y-44023303D01*
X61368332Y-43847334D01*
X61233817Y-43712585D01*
X61057975Y-43639569D01*
X60867576Y-43639402D01*
X60792264Y-43670520D01*
X59354047Y-42738422D01*
X59274289Y-42705726D01*
X59181768Y-42705425D01*
X59096420Y-42741143D01*
X59031692Y-42807252D01*
X58886523Y-43031246D01*
X58872322Y-43022043D01*
X58792563Y-42989347D01*
X58700043Y-42989046D01*
X58614694Y-43024764D01*
X58549967Y-43090874D01*
X58114877Y-43762214D01*
X58082181Y-43841973D01*
X58081989Y-43901024D01*
X57926858Y-43872420D01*
X57699572Y-43920950D01*
X57508159Y-44052766D01*
X57480882Y-44094854D01*
X55477092Y-44094854D01*
X57949698Y-40333802D01*
X62196822Y-40333802D01*
X62239952Y-40535794D01*
X62835720Y-40921907D01*
X63030752Y-41048305D01*
X63259308Y-41090447D01*
X63486594Y-41041917D01*
X63678007Y-40910101D01*
X63705284Y-40868013D01*
X63662154Y-40666020D01*
X62478624Y-39898984D01*
X62196822Y-40333802D01*
X57949698Y-40333802D01*
X58660687Y-39252325D01*
X60725273Y-39252325D01*
X60773804Y-39479611D01*
X60905620Y-39671024D01*
X61100651Y-39797422D01*
X61696419Y-40183535D01*
X61898411Y-40140404D01*
X62180214Y-39705586D01*
X60996684Y-38938550D01*
X60794692Y-38981680D01*
X60767414Y-39023769D01*
X60725273Y-39252325D01*
X58660687Y-39252325D01*
X59088036Y-38602289D01*
X61040572Y-38602289D01*
X61083702Y-38804282D01*
X62267232Y-39571318D01*
X62310741Y-39504184D01*
X62609151Y-39697582D01*
X62565642Y-39764716D01*
X63749172Y-40531752D01*
X63951164Y-40488622D01*
X63978442Y-40446533D01*
X64020583Y-40217977D01*
X63998343Y-40113818D01*
X68463467Y-40113818D01*
X68848119Y-40710529D01*
X68974040Y-40905870D01*
X69165128Y-41038154D01*
X69392295Y-41087242D01*
X69620954Y-41045660D01*
X69663109Y-41018486D01*
X69706734Y-40816600D01*
X68942599Y-39631195D01*
X68507092Y-39911932D01*
X68463467Y-40113818D01*
X63998343Y-40113818D01*
X63972052Y-39990691D01*
X63882429Y-39860547D01*
X63931128Y-39840167D01*
X63995855Y-39774057D01*
X64430088Y-39104039D01*
X64616830Y-39104203D01*
X64792799Y-39031494D01*
X64927548Y-38896979D01*
X65000564Y-38721137D01*
X65000715Y-38548712D01*
X67560385Y-38548712D01*
X67601967Y-38777371D01*
X67727887Y-38972712D01*
X68112539Y-39569424D01*
X68314426Y-39613048D01*
X68749933Y-39332312D01*
X67985797Y-38146907D01*
X67783911Y-38103282D01*
X67741755Y-38130457D01*
X67609472Y-38321546D01*
X67560385Y-38548712D01*
X65000715Y-38548712D01*
X65000731Y-38530738D01*
X64928022Y-38354769D01*
X64793507Y-38220020D01*
X64617665Y-38147004D01*
X64427266Y-38146837D01*
X64351954Y-38177955D01*
X64170288Y-38060218D01*
X68120278Y-38060218D01*
X68884413Y-39245623D01*
X68951653Y-39202279D01*
X69144320Y-39501161D01*
X69077079Y-39544506D01*
X69841215Y-40729911D01*
X70043101Y-40773536D01*
X70085257Y-40746361D01*
X70217540Y-40555272D01*
X70266627Y-40328106D01*
X70238355Y-40172638D01*
X70291128Y-40174054D01*
X70377294Y-40140357D01*
X71049563Y-39706998D01*
X71057272Y-39714721D01*
X71233114Y-39787737D01*
X71423513Y-39787904D01*
X71599482Y-39715195D01*
X71734231Y-39580680D01*
X71807247Y-39404838D01*
X71807414Y-39214439D01*
X71734705Y-39038470D01*
X71600190Y-38903721D01*
X71424348Y-38830705D01*
X71357027Y-38830646D01*
X70428867Y-37390790D01*
X70369571Y-37328224D01*
X70285335Y-37289955D01*
X70192848Y-37287473D01*
X70106681Y-37321170D01*
X69882332Y-37465790D01*
X69873164Y-37451567D01*
X69813868Y-37389001D01*
X69729632Y-37350732D01*
X69637144Y-37348250D01*
X69550978Y-37381947D01*
X68878575Y-37815392D01*
X68816009Y-37874688D01*
X68791584Y-37928451D01*
X68661884Y-37838664D01*
X68434717Y-37789576D01*
X68206058Y-37831158D01*
X68163903Y-37858332D01*
X68120278Y-38060218D01*
X64170288Y-38060218D01*
X62913737Y-37245857D01*
X62833979Y-37213161D01*
X62741458Y-37212860D01*
X62656110Y-37248578D01*
X62591382Y-37314687D01*
X62446213Y-37538681D01*
X62432012Y-37529478D01*
X62352253Y-37496782D01*
X62259733Y-37496481D01*
X62174384Y-37532199D01*
X62109657Y-37598309D01*
X61674567Y-38269649D01*
X61641871Y-38349408D01*
X61641679Y-38408459D01*
X61486548Y-38379855D01*
X61259262Y-38428385D01*
X61067849Y-38560201D01*
X61040572Y-38602289D01*
X59088036Y-38602289D01*
X61876907Y-34360170D01*
X64882888Y-34360170D01*
X65273995Y-34952670D01*
X65402029Y-35146632D01*
X65594542Y-35276834D01*
X65822228Y-35323453D01*
X66050422Y-35279391D01*
X66092280Y-35251761D01*
X66133711Y-35049413D01*
X65356752Y-33872374D01*
X64924318Y-34157822D01*
X64882888Y-34360170D01*
X61876907Y-34360170D01*
X62032798Y-34123047D01*
X62052906Y-34073458D01*
X62073279Y-34024188D01*
X62073278Y-34023216D01*
X62073646Y-34022309D01*
X62073246Y-33968813D01*
X62073214Y-33915483D01*
X62072840Y-33914582D01*
X62072833Y-33913608D01*
X62052014Y-33864389D01*
X62031554Y-33815079D01*
X61355735Y-32804960D01*
X63962868Y-32804960D01*
X64006930Y-33033154D01*
X64134963Y-33227117D01*
X64526071Y-33819617D01*
X64728419Y-33861048D01*
X65160853Y-33575600D01*
X64383893Y-32398561D01*
X64181545Y-32357130D01*
X64139687Y-32384760D01*
X64009486Y-32577274D01*
X63962868Y-32804960D01*
X61355735Y-32804960D01*
X61024862Y-32310417D01*
X64517425Y-32310417D01*
X65294384Y-33487456D01*
X65361150Y-33443384D01*
X65557049Y-33740158D01*
X65490283Y-33784230D01*
X66267243Y-34961269D01*
X66469591Y-35002700D01*
X66511449Y-34975070D01*
X66641650Y-34782556D01*
X66688268Y-34554870D01*
X66658310Y-34399718D01*
X66711094Y-34400561D01*
X66796889Y-34365930D01*
X67463609Y-33925830D01*
X67467788Y-33930016D01*
X67643630Y-34003032D01*
X67834029Y-34003199D01*
X68009998Y-33930490D01*
X68144747Y-33795975D01*
X68217763Y-33620133D01*
X68217930Y-33429734D01*
X68145221Y-33253765D01*
X68010706Y-33119016D01*
X67834864Y-33046000D01*
X67762528Y-33045937D01*
X66818611Y-31615967D01*
X66758639Y-31554048D01*
X66673993Y-31516696D01*
X66581483Y-31515218D01*
X66495688Y-31549849D01*
X66272922Y-31696896D01*
X66263599Y-31682772D01*
X66203628Y-31620853D01*
X66118982Y-31583501D01*
X66026472Y-31582023D01*
X65940677Y-31616654D01*
X65273019Y-32057373D01*
X65211100Y-32117344D01*
X65187260Y-32171369D01*
X65056594Y-32082996D01*
X64828908Y-32036377D01*
X64600714Y-32080439D01*
X64558856Y-32108069D01*
X64517425Y-32310417D01*
X61024862Y-32310417D01*
X59590111Y-30165955D01*
X69762840Y-30165955D01*
X69804846Y-30368184D01*
X69846783Y-30395695D01*
X70075102Y-30439106D01*
X70302654Y-30391839D01*
X70494796Y-30261089D01*
X70622277Y-30066763D01*
X71011695Y-29473151D01*
X70969688Y-29270922D01*
X70536443Y-28986707D01*
X69762840Y-30165955D01*
X59590111Y-30165955D01*
X58755797Y-28918941D01*
X61291148Y-28918941D01*
X61682255Y-29511441D01*
X61810289Y-29705403D01*
X62002802Y-29835605D01*
X62230488Y-29882224D01*
X62458682Y-29838162D01*
X62500540Y-29810532D01*
X62541971Y-29608184D01*
X61765012Y-28431145D01*
X61332578Y-28716593D01*
X61291148Y-28918941D01*
X58755797Y-28918941D01*
X57715285Y-27363731D01*
X60371128Y-27363731D01*
X60415190Y-27591925D01*
X60543223Y-27785888D01*
X60934331Y-28378388D01*
X61136679Y-28419819D01*
X61569113Y-28134371D01*
X60792153Y-26957332D01*
X60589805Y-26915901D01*
X60547947Y-26943531D01*
X60417746Y-27136045D01*
X60371128Y-27363731D01*
X57715285Y-27363731D01*
X57384412Y-26869188D01*
X60925685Y-26869188D01*
X61702644Y-28046227D01*
X61769410Y-28002155D01*
X61965309Y-28298929D01*
X61898543Y-28343001D01*
X62675503Y-29520040D01*
X62877851Y-29561471D01*
X62919709Y-29533841D01*
X63049910Y-29341327D01*
X63096528Y-29113641D01*
X63066570Y-28958489D01*
X63119354Y-28959332D01*
X63205149Y-28924701D01*
X63871869Y-28484601D01*
X63876048Y-28488787D01*
X64051890Y-28561803D01*
X64242289Y-28561970D01*
X64418258Y-28489261D01*
X64496038Y-28411616D01*
X68046874Y-28411616D01*
X68082118Y-28497161D01*
X68147866Y-28562255D01*
X68371050Y-28708667D01*
X68361768Y-28722816D01*
X68328628Y-28802392D01*
X68327813Y-28894910D01*
X68363057Y-28980455D01*
X68428805Y-29045549D01*
X69097716Y-29484364D01*
X69177292Y-29517504D01*
X69236341Y-29518024D01*
X69206876Y-29672993D01*
X69254142Y-29900546D01*
X69384892Y-30092688D01*
X69426828Y-30120199D01*
X69629057Y-30078192D01*
X70402660Y-28898944D01*
X70335769Y-28855063D01*
X70444462Y-28689376D01*
X70731496Y-28689376D01*
X71164741Y-28973591D01*
X71366970Y-28931584D01*
X71756388Y-28337972D01*
X71883868Y-28143646D01*
X71927280Y-27915327D01*
X71880014Y-27687774D01*
X71749264Y-27495632D01*
X71707328Y-27468121D01*
X71505099Y-27510128D01*
X70731496Y-28689376D01*
X70444462Y-28689376D01*
X70530823Y-28557732D01*
X70597713Y-28601613D01*
X71371316Y-27422365D01*
X71329310Y-27220136D01*
X71287373Y-27192625D01*
X71059054Y-27149214D01*
X70831502Y-27196481D01*
X70700863Y-27285379D01*
X70680753Y-27236569D01*
X70615005Y-27171475D01*
X69947927Y-26733862D01*
X69948093Y-26544124D01*
X69875384Y-26368155D01*
X69740869Y-26233406D01*
X69565027Y-26160390D01*
X69374628Y-26160223D01*
X69198659Y-26232932D01*
X69063910Y-26367447D01*
X68990894Y-26543289D01*
X68990727Y-26733688D01*
X69020851Y-26806593D01*
X68080829Y-28239522D01*
X68047689Y-28319098D01*
X68046874Y-28411616D01*
X64496038Y-28411616D01*
X64553007Y-28354746D01*
X64626023Y-28178904D01*
X64626190Y-27988505D01*
X64553481Y-27812536D01*
X64418966Y-27677787D01*
X64243124Y-27604771D01*
X64170788Y-27604708D01*
X63226871Y-26174738D01*
X63166899Y-26112819D01*
X63082253Y-26075467D01*
X62989743Y-26073989D01*
X62903948Y-26108620D01*
X62681182Y-26255667D01*
X62671859Y-26241543D01*
X62611888Y-26179624D01*
X62527242Y-26142272D01*
X62434732Y-26140794D01*
X62348937Y-26175425D01*
X61681279Y-26616144D01*
X61619360Y-26676115D01*
X61595520Y-26730140D01*
X61464854Y-26641767D01*
X61237168Y-26595148D01*
X61008974Y-26639210D01*
X60967116Y-26666840D01*
X60925685Y-26869188D01*
X57384412Y-26869188D01*
X55058009Y-23392013D01*
X56546214Y-23392013D01*
X56652911Y-23706259D01*
X56871744Y-23955752D01*
X56998079Y-24036072D01*
X57146592Y-23942234D01*
X57244760Y-23382462D01*
X56684988Y-23284294D01*
X56546214Y-23392013D01*
X55058009Y-23392013D01*
X54721830Y-22889539D01*
X56634334Y-22889539D01*
X56728172Y-23038052D01*
X57287944Y-23136220D01*
X57326998Y-22913529D01*
X57342596Y-22937160D01*
X57544944Y-22978591D01*
X57572605Y-22960332D01*
X57534186Y-23179404D01*
X57812323Y-23228181D01*
X57740843Y-23275365D01*
X57722915Y-23362925D01*
X57655064Y-23295074D01*
X57519495Y-23430643D01*
X57491002Y-23425646D01*
X57483880Y-23466258D01*
X57403614Y-23546524D01*
X57459928Y-23602838D01*
X57392834Y-23985418D01*
X57500553Y-24124192D01*
X57814799Y-24017495D01*
X57846649Y-23989559D01*
X57864117Y-24007027D01*
X57975372Y-23895772D01*
X58090520Y-24070213D01*
X58218554Y-24264175D01*
X58411067Y-24394377D01*
X58638753Y-24440996D01*
X58866947Y-24396934D01*
X58908805Y-24369304D01*
X58950236Y-24166956D01*
X58173277Y-22989917D01*
X58171938Y-22990801D01*
X58126035Y-22855607D01*
X57958647Y-22664767D01*
X57200418Y-21516104D01*
X56998070Y-21474673D01*
X56956212Y-21502303D01*
X56826011Y-21694817D01*
X56779393Y-21922503D01*
X56823455Y-22150697D01*
X56951488Y-22344660D01*
X57061498Y-22511317D01*
X56964147Y-22544371D01*
X56714654Y-22763204D01*
X56634334Y-22889539D01*
X54721830Y-22889539D01*
X53743961Y-21427960D01*
X57333950Y-21427960D01*
X58110909Y-22604999D01*
X58177675Y-22560927D01*
X58373574Y-22857701D01*
X58306808Y-22901773D01*
X59083768Y-24078812D01*
X59286116Y-24120243D01*
X59327974Y-24092613D01*
X59458175Y-23900099D01*
X59504793Y-23672413D01*
X59474835Y-23517261D01*
X59527619Y-23518104D01*
X59613414Y-23483473D01*
X60280134Y-23043373D01*
X60284313Y-23047559D01*
X60460155Y-23120575D01*
X60650554Y-23120742D01*
X60826523Y-23048033D01*
X60961272Y-22913518D01*
X61034288Y-22737676D01*
X61034455Y-22547277D01*
X60961746Y-22371308D01*
X60827231Y-22236559D01*
X60651389Y-22163543D01*
X60579053Y-22163480D01*
X59635136Y-20733510D01*
X59575164Y-20671591D01*
X59490518Y-20634239D01*
X59398008Y-20632761D01*
X59312213Y-20667392D01*
X59089447Y-20814439D01*
X59080124Y-20800315D01*
X59020153Y-20738396D01*
X58935507Y-20701044D01*
X58842997Y-20699566D01*
X58757202Y-20734197D01*
X58089544Y-21174916D01*
X58027625Y-21234887D01*
X58003785Y-21288912D01*
X57873119Y-21200539D01*
X57645433Y-21153920D01*
X57417239Y-21197982D01*
X57375381Y-21225612D01*
X57333950Y-21427960D01*
X53743961Y-21427960D01*
X52718600Y-19895397D01*
X52718600Y-18998600D01*
X60903567Y-18998600D01*
X65962129Y-27295036D01*
G36*
X82987362Y-48158407D02*
X82953562Y-48192207D01*
X82987362Y-48226007D01*
X82843362Y-48370007D01*
X82639498Y-48370007D01*
X82495498Y-48226007D01*
X82529298Y-48192207D01*
X82495498Y-48158407D01*
X82639498Y-48014407D01*
X82843362Y-48014407D01*
X82987362Y-48158407D01*
X82987362Y-48158407D01*
G37*
X82987362Y-48158407D02*
X82953562Y-48192207D01*
X82987362Y-48226007D01*
X82843362Y-48370007D01*
X82639498Y-48370007D01*
X82495498Y-48226007D01*
X82529298Y-48192207D01*
X82495498Y-48158407D01*
X82639498Y-48014407D01*
X82843362Y-48014407D01*
X82987362Y-48158407D01*
G36*
X50266768Y-48158407D02*
X50232968Y-48192207D01*
X50266768Y-48226007D01*
X50122768Y-48370007D01*
X49918904Y-48370007D01*
X49774904Y-48226007D01*
X49808704Y-48192207D01*
X49774904Y-48158407D01*
X49918904Y-48014407D01*
X50122768Y-48014407D01*
X50266768Y-48158407D01*
X50266768Y-48158407D01*
G37*
X50266768Y-48158407D02*
X50232968Y-48192207D01*
X50266768Y-48226007D01*
X50122768Y-48370007D01*
X49918904Y-48370007D01*
X49774904Y-48226007D01*
X49808704Y-48192207D01*
X49774904Y-48158407D01*
X49918904Y-48014407D01*
X50122768Y-48014407D01*
X50266768Y-48158407D01*
M02*
