G04 #@! TF.FileFunction,Soldermask,Bot*
%FSLAX46Y46*%
G04 Gerber Fmt 4.6, Leading zero omitted, Abs format (unit mm)*
G04 Created by KiCad (PCBNEW 4.0.0-rc2-stable) date 3/3/2016 4:04:38 PM*
%MOMM*%
G01*
G04 APERTURE LIST*
%ADD10C,0.150000*%
%ADD11R,4.000000X1.000000*%
%ADD12C,0.600000*%
%ADD13C,0.500000*%
%ADD14R,2.000000X0.760000*%
%ADD15R,2.000000X0.740000*%
%ADD16R,0.600000X0.900000*%
%ADD17R,0.200000X0.900000*%
G04 APERTURE END LIST*
D10*
D11*
X80684685Y-50192207D03*
X80684685Y-48192207D03*
X80684685Y-46192207D03*
D12*
X79684685Y-50192207D03*
X79684685Y-48192207D03*
X79684685Y-46192207D03*
D11*
X49020840Y-46192207D03*
X49020840Y-48192207D03*
X49020840Y-50192207D03*
D12*
X50020840Y-46192207D03*
X50020840Y-48192207D03*
X50020840Y-50192207D03*
D10*
G36*
X75107327Y-28330830D02*
X72366690Y-29551040D01*
X71309175Y-27175822D01*
X74049812Y-25955612D01*
X75107327Y-28330830D01*
X75107327Y-28330830D01*
G37*
G36*
X55760823Y-37491767D02*
X53020187Y-38711977D01*
X51555935Y-35423213D01*
X54296571Y-34203003D01*
X55760823Y-37491767D01*
X55760823Y-37491767D01*
G37*
D13*
X51922642Y-37230289D03*
D14*
X72342380Y-44290946D03*
X72342380Y-45560946D03*
X72342380Y-46830946D03*
X72342380Y-48100946D03*
X75542380Y-44290946D03*
X75542380Y-45560946D03*
X75542380Y-46830946D03*
D15*
X75542380Y-48100946D03*
D16*
X76242380Y-43095946D03*
X74742380Y-43095946D03*
X74742380Y-41845946D03*
X76242380Y-41845946D03*
X76242380Y-40595946D03*
X74742380Y-40595946D03*
D17*
X74792380Y-43745946D03*
M02*
