G04 #@! TF.FileFunction,Copper,L2,Bot,Signal*
%FSLAX46Y46*%
G04 Gerber Fmt 4.6, Leading zero omitted, Abs format (unit mm)*
G04 Created by KiCad (PCBNEW 4.0.0-rc2-stable) date 3/3/2016 3:45:09 PM*
%MOMM*%
G01*
G04 APERTURE LIST*
%ADD10C,0.150000*%
%ADD11C,0.500000*%
%ADD12R,4.000000X1.000000*%
%ADD13C,0.600000*%
%ADD14C,0.254000*%
%ADD15C,0.152400*%
G04 APERTURE END LIST*
D10*
D11*
X55999590Y-41235686D03*
X58747029Y-45859908D03*
X64103395Y-47008621D03*
X69273889Y-44840174D03*
X70959961Y-39994140D03*
X70943080Y-33821465D03*
X70943080Y-27615262D03*
X70943080Y-21409060D03*
X65023305Y-23204706D03*
D12*
X78367330Y-50192207D03*
X78367330Y-48192207D03*
X78367330Y-46192207D03*
D13*
X77367330Y-50192207D03*
X77367330Y-48192207D03*
X77367330Y-46192207D03*
D12*
X49020836Y-46192207D03*
X49020836Y-48192207D03*
X49020836Y-50192207D03*
D13*
X50020836Y-46192207D03*
X50020836Y-48192207D03*
X50020836Y-50192207D03*
D10*
G36*
X75510003Y-29459309D02*
X72836983Y-30821281D01*
X71656607Y-28504665D01*
X74329627Y-27142693D01*
X75510003Y-29459309D01*
X75510003Y-29459309D01*
G37*
G36*
X56669460Y-39620213D02*
X53996441Y-40982185D01*
X52362074Y-37774561D01*
X55035093Y-36412589D01*
X56669460Y-39620213D01*
X56669460Y-39620213D01*
G37*
D11*
X52822855Y-39559970D03*
D10*
G36*
X69278071Y-50710860D02*
X69195046Y-48712584D01*
X69954391Y-48681034D01*
X70037416Y-50679310D01*
X69278071Y-50710860D01*
X69278071Y-50710860D01*
G37*
G36*
X70546977Y-50658140D02*
X70463952Y-48659864D01*
X71223297Y-48628314D01*
X71306322Y-50626590D01*
X70546977Y-50658140D01*
X70546977Y-50658140D01*
G37*
G36*
X71815882Y-50605420D02*
X71732857Y-48607144D01*
X72492202Y-48575594D01*
X72575227Y-50573870D01*
X71815882Y-50605420D01*
X71815882Y-50605420D01*
G37*
G36*
X73084787Y-50552699D02*
X73001762Y-48554423D01*
X73761107Y-48522873D01*
X73844132Y-50521149D01*
X73084787Y-50552699D01*
X73084787Y-50552699D01*
G37*
G36*
X69145233Y-47513619D02*
X69062208Y-45515343D01*
X69821553Y-45483793D01*
X69904578Y-47482069D01*
X69145233Y-47513619D01*
X69145233Y-47513619D01*
G37*
G36*
X70414138Y-47460898D02*
X70331113Y-45462622D01*
X71090458Y-45431072D01*
X71173483Y-47429348D01*
X70414138Y-47460898D01*
X70414138Y-47460898D01*
G37*
G36*
X71683043Y-47408178D02*
X71600018Y-45409902D01*
X72359363Y-45378352D01*
X72442388Y-47376628D01*
X71683043Y-47408178D01*
X71683043Y-47408178D01*
G37*
G36*
X72961940Y-47355042D02*
X72878916Y-45356766D01*
X73618278Y-45326048D01*
X73701302Y-47324324D01*
X72961940Y-47355042D01*
X72961940Y-47355042D01*
G37*
G36*
X67823206Y-46167338D02*
X67798298Y-45567855D01*
X68697522Y-45530494D01*
X68722430Y-46129977D01*
X67823206Y-46167338D01*
X67823206Y-46167338D01*
G37*
G36*
X67885475Y-47666045D02*
X67860567Y-47066562D01*
X68759791Y-47029201D01*
X68784699Y-47628684D01*
X67885475Y-47666045D01*
X67885475Y-47666045D01*
G37*
G36*
X66636552Y-47717935D02*
X66611644Y-47118452D01*
X67510868Y-47081091D01*
X67535776Y-47680574D01*
X66636552Y-47717935D01*
X66636552Y-47717935D01*
G37*
G36*
X66574284Y-46219228D02*
X66549376Y-45619745D01*
X67448600Y-45582384D01*
X67473508Y-46181867D01*
X66574284Y-46219228D01*
X66574284Y-46219228D01*
G37*
G36*
X65325361Y-46271118D02*
X65300453Y-45671635D01*
X66199677Y-45634274D01*
X66224585Y-46233757D01*
X65325361Y-46271118D01*
X65325361Y-46271118D01*
G37*
G36*
X65387630Y-47769825D02*
X65362722Y-47170342D01*
X66261946Y-47132981D01*
X66286854Y-47732464D01*
X65387630Y-47769825D01*
X65387630Y-47769825D01*
G37*
G36*
X68524536Y-47389277D02*
X68516234Y-47189450D01*
X69415458Y-47152089D01*
X69423760Y-47351916D01*
X68524536Y-47389277D01*
X68524536Y-47389277D01*
G37*
G36*
X67102768Y-48098910D02*
X67094466Y-47899082D01*
X70891190Y-47741336D01*
X70899492Y-47941164D01*
X67102768Y-48098910D01*
X67102768Y-48098910D01*
G37*
G36*
X65772613Y-48604563D02*
X65764310Y-48404735D01*
X72258707Y-48134907D01*
X72267010Y-48334735D01*
X65772613Y-48604563D01*
X65772613Y-48604563D01*
G37*
G36*
X67098618Y-47998996D02*
X67082013Y-47599341D01*
X67281840Y-47591038D01*
X67298445Y-47990693D01*
X67098618Y-47998996D01*
X67098618Y-47998996D01*
G37*
G36*
X70695514Y-47849553D02*
X70678909Y-47449898D01*
X70878736Y-47441595D01*
X70895341Y-47841250D01*
X70695514Y-47849553D01*
X70695514Y-47849553D01*
G37*
G36*
X72060955Y-48193166D02*
X72027745Y-47393856D01*
X72227573Y-47385554D01*
X72260783Y-48184864D01*
X72060955Y-48193166D01*
X72060955Y-48193166D01*
G37*
G36*
X65766386Y-48454692D02*
X65733176Y-47655382D01*
X65933004Y-47647080D01*
X65966214Y-48446390D01*
X65766386Y-48454692D01*
X65766386Y-48454692D01*
G37*
G36*
X66066412Y-46040156D02*
X66058110Y-45840328D01*
X68056386Y-45757304D01*
X68064688Y-45957132D01*
X66066412Y-46040156D01*
X66066412Y-46040156D01*
G37*
D14*
X54520000Y-38700000D02*
X52820000Y-39560000D01*
X54520000Y-38700000D02*
X52820000Y-39560000D01*
X54520000Y-38700000D02*
X52820000Y-39560000D01*
X54520000Y-38700000D02*
X52820000Y-39560000D01*
X54520000Y-38700000D02*
X52820000Y-39560000D01*
X54520000Y-38700000D02*
X52820000Y-39560000D01*
X54520000Y-38700000D02*
X52820000Y-39560000D01*
X54520000Y-38700000D02*
X52820000Y-39560000D01*
X54520000Y-38700000D02*
X52820000Y-39560000D01*
X73580000Y-28980000D02*
X67060000Y-45900000D01*
X73580000Y-28980000D02*
X67060000Y-45900000D01*
X73580000Y-28980000D02*
X67060000Y-45900000D01*
X73580000Y-28980000D02*
X67060000Y-45900000D01*
X73580000Y-28980000D02*
X67060000Y-45900000D01*
X73580000Y-28980000D02*
X67060000Y-45900000D01*
X73580000Y-28980000D02*
X67060000Y-45900000D01*
X73580000Y-28980000D02*
X67060000Y-45900000D01*
X73580000Y-28980000D02*
X67060000Y-45900000D01*
D15*
G36*
X75701400Y-29321549D02*
X74537301Y-27036878D01*
X74484639Y-26968634D01*
X74404707Y-26922039D01*
X74312945Y-26910213D01*
X74223812Y-26935019D01*
X71550792Y-28296991D01*
X71482548Y-28349653D01*
X71435953Y-28429585D01*
X71424127Y-28521347D01*
X71448933Y-28610480D01*
X72526423Y-30725171D01*
X71467093Y-33474229D01*
X71119857Y-33821465D01*
X71171335Y-33872943D01*
X70994558Y-34049720D01*
X70943080Y-33998242D01*
X70891603Y-34049720D01*
X70714826Y-33872943D01*
X70766303Y-33821465D01*
X70714826Y-33769988D01*
X70891603Y-33593211D01*
X70943080Y-33644688D01*
X71344939Y-33242829D01*
X71336461Y-33067359D01*
X71017933Y-32974221D01*
X70704189Y-33008311D01*
X70702268Y-33006598D01*
X70612268Y-32946598D01*
X70572105Y-32933829D01*
X70542305Y-32939011D01*
X70523880Y-32950867D01*
X70516966Y-32923641D01*
X70497544Y-32900452D01*
X70470631Y-32886646D01*
X70150631Y-32796646D01*
X70137735Y-32794194D01*
X69647735Y-32744194D01*
X69636760Y-32743869D01*
X69166760Y-32763869D01*
X69150460Y-32766348D01*
X68660460Y-32896348D01*
X68637732Y-32906598D01*
X68427732Y-33046598D01*
X68409851Y-33063218D01*
X68339851Y-33153218D01*
X68329803Y-33170354D01*
X68323800Y-33200000D01*
X68323800Y-33450000D01*
X68327710Y-33474097D01*
X68377710Y-33624097D01*
X68400410Y-33657855D01*
X68610410Y-33837855D01*
X68625750Y-33848069D01*
X68654931Y-33856031D01*
X68804931Y-33866031D01*
X68810000Y-33866200D01*
X69650000Y-33866200D01*
X69659649Y-33865587D01*
X70102619Y-33809038D01*
X70131684Y-34076536D01*
X70188974Y-34214846D01*
X70293213Y-34219882D01*
X70216986Y-34296109D01*
X70220656Y-34299779D01*
X69885844Y-34274024D01*
X69880000Y-34273800D01*
X68740000Y-34273800D01*
X68733302Y-34274095D01*
X68393302Y-34304095D01*
X68372305Y-34309011D01*
X68346868Y-34325379D01*
X68329803Y-34350354D01*
X68323800Y-34380000D01*
X68323800Y-34480000D01*
X68326608Y-34500494D01*
X68340363Y-34527433D01*
X68363516Y-34546898D01*
X68392418Y-34555822D01*
X68480755Y-34564656D01*
X68539983Y-34590039D01*
X68574227Y-34596083D01*
X69113170Y-34566142D01*
X69471072Y-34556200D01*
X69538223Y-34556200D01*
X69963362Y-34575974D01*
X70301237Y-34619415D01*
X70252601Y-34624160D01*
X70246662Y-34624976D01*
X69796662Y-34704976D01*
X69765060Y-34718463D01*
X69744659Y-34740795D01*
X69714659Y-34790795D01*
X69703800Y-34830000D01*
X69703800Y-34860000D01*
X69707710Y-34884097D01*
X69727710Y-34944097D01*
X69743964Y-34971637D01*
X69768468Y-34989370D01*
X69878468Y-35039370D01*
X69894696Y-35044647D01*
X69924944Y-35044720D01*
X69974944Y-35034720D01*
X69994078Y-35028155D01*
X70032180Y-35009104D01*
X70212764Y-35037893D01*
X69583223Y-35094102D01*
X69580171Y-35094437D01*
X68350171Y-35254437D01*
X68325922Y-35261845D01*
X68225922Y-35311845D01*
X68206868Y-35325379D01*
X68189803Y-35350354D01*
X68183800Y-35380000D01*
X68183800Y-35450000D01*
X68187710Y-35474097D01*
X68207710Y-35534097D01*
X68216020Y-35551388D01*
X68237163Y-35573019D01*
X68265056Y-35584720D01*
X68315056Y-35594720D01*
X68337459Y-35595834D01*
X69557459Y-35475834D01*
X69559886Y-35475556D01*
X70629886Y-35335556D01*
X70637453Y-35334174D01*
X70761636Y-35304954D01*
X70172855Y-36832896D01*
X69927260Y-36775781D01*
X69921167Y-36774623D01*
X69651167Y-36734623D01*
X69640000Y-36733800D01*
X69600000Y-36733800D01*
X69591097Y-36734322D01*
X69251097Y-36774322D01*
X69242472Y-36775843D01*
X68692472Y-36905843D01*
X68672994Y-36913389D01*
X68312994Y-37113389D01*
X68287349Y-37136626D01*
X68107349Y-37396626D01*
X68093948Y-37435247D01*
X68083948Y-37595247D01*
X68084837Y-37612527D01*
X68094837Y-37672527D01*
X68109994Y-37706965D01*
X68132994Y-37726611D01*
X68222994Y-37776611D01*
X68247225Y-37785122D01*
X68277458Y-37784173D01*
X68304940Y-37771537D01*
X68325341Y-37749205D01*
X68526993Y-37413119D01*
X68703647Y-37289461D01*
X69183654Y-37145459D01*
X69472534Y-37126200D01*
X69596003Y-37126200D01*
X69965715Y-37165117D01*
X70037186Y-37184970D01*
X69827332Y-37729561D01*
X69708652Y-37733800D01*
X69669923Y-37733800D01*
X69551850Y-37624161D01*
X69529646Y-37609803D01*
X69500000Y-37603800D01*
X69470000Y-37603800D01*
X69455056Y-37605280D01*
X69405056Y-37615280D01*
X69378038Y-37626395D01*
X69356598Y-37647732D01*
X69296598Y-37737732D01*
X69283800Y-37780000D01*
X69283800Y-37950000D01*
X69284388Y-37959451D01*
X69294388Y-38039451D01*
X69307575Y-38073698D01*
X69377575Y-38173698D01*
X69405922Y-38198155D01*
X69465922Y-38228155D01*
X69494073Y-38235969D01*
X69524097Y-38232290D01*
X69649748Y-38190406D01*
X69525131Y-38513800D01*
X68470000Y-38513800D01*
X68445903Y-38517710D01*
X68385903Y-38537710D01*
X68368612Y-38546020D01*
X68346981Y-38567163D01*
X68335280Y-38595056D01*
X68325280Y-38645056D01*
X68323800Y-38660000D01*
X68323800Y-38690000D01*
X68329250Y-38718300D01*
X68349250Y-38768300D01*
X68357616Y-38783757D01*
X68379555Y-38804580D01*
X68407866Y-38815228D01*
X68717866Y-38865228D01*
X68727374Y-38866155D01*
X69017374Y-38876155D01*
X69020000Y-38876200D01*
X69385483Y-38876200D01*
X69112069Y-39585734D01*
X68743274Y-39467441D01*
X68738126Y-39465987D01*
X68248126Y-39345987D01*
X68230000Y-39343800D01*
X68160000Y-39343800D01*
X68132305Y-39349011D01*
X68106868Y-39365379D01*
X68089803Y-39390354D01*
X68083800Y-39420000D01*
X68083800Y-39480000D01*
X68091845Y-39514078D01*
X68121845Y-39574078D01*
X68137594Y-39595318D01*
X68163244Y-39611348D01*
X68563244Y-39761348D01*
X68567733Y-39762874D01*
X68753959Y-39819777D01*
X68564119Y-39888330D01*
X68558593Y-39890574D01*
X68138593Y-40080574D01*
X68111462Y-40101218D01*
X68061462Y-40161218D01*
X68050383Y-40179019D01*
X68043814Y-40208545D01*
X68049250Y-40238300D01*
X68069250Y-40288300D01*
X68079994Y-40306965D01*
X68102994Y-40326611D01*
X68192994Y-40376611D01*
X68229398Y-40386198D01*
X68259090Y-40380429D01*
X68715225Y-40192025D01*
X68898961Y-40138768D01*
X68752107Y-40519868D01*
X68509224Y-40554566D01*
X68480795Y-40564659D01*
X68230795Y-40714659D01*
X68200949Y-40747776D01*
X68130949Y-40897776D01*
X68124266Y-40921585D01*
X68118601Y-40972566D01*
X68114266Y-41011585D01*
X68114566Y-41030776D01*
X68124566Y-41100776D01*
X68134659Y-41129205D01*
X68194659Y-41229205D01*
X68221821Y-41255945D01*
X68411821Y-41365945D01*
X68424414Y-41370261D01*
X68351001Y-41560774D01*
X68321022Y-41564331D01*
X68283761Y-41579433D01*
X68263840Y-41602194D01*
X68223840Y-41672194D01*
X68213800Y-41710000D01*
X68213800Y-41750000D01*
X68215424Y-41765648D01*
X68227388Y-41793430D01*
X68249217Y-41814368D01*
X68252759Y-41815721D01*
X66882126Y-45372641D01*
X66539700Y-45386868D01*
X66455721Y-45406311D01*
X66380062Y-45459564D01*
X66368783Y-45477639D01*
X66359859Y-45464960D01*
X66281366Y-45415980D01*
X66190001Y-45401397D01*
X65290777Y-45438758D01*
X65206798Y-45458201D01*
X65131139Y-45511454D01*
X65082159Y-45589946D01*
X65067576Y-45681311D01*
X65092484Y-46280794D01*
X65111927Y-46364773D01*
X65165179Y-46440432D01*
X65243672Y-46489412D01*
X65335037Y-46503995D01*
X66234261Y-46466634D01*
X66318240Y-46447191D01*
X66393899Y-46393938D01*
X66405178Y-46375863D01*
X66414102Y-46388542D01*
X66492595Y-46437522D01*
X66583960Y-46452105D01*
X67483184Y-46414744D01*
X67567163Y-46395301D01*
X67642822Y-46342048D01*
X67654101Y-46323974D01*
X67663024Y-46336652D01*
X67741517Y-46385632D01*
X67832882Y-46400215D01*
X68732106Y-46362854D01*
X68816085Y-46343411D01*
X68861991Y-46311100D01*
X68883856Y-46837350D01*
X68841480Y-46810907D01*
X68750115Y-46796324D01*
X67850891Y-46833685D01*
X67766912Y-46853128D01*
X67691253Y-46906381D01*
X67679974Y-46924456D01*
X67671050Y-46911777D01*
X67592557Y-46862797D01*
X67501192Y-46848214D01*
X66601968Y-46885575D01*
X66517989Y-46905018D01*
X66442330Y-46958271D01*
X66431051Y-46976345D01*
X66422128Y-46963667D01*
X66343635Y-46914687D01*
X66252270Y-46900104D01*
X65353046Y-46937465D01*
X65269067Y-46956908D01*
X65193408Y-47010161D01*
X65144428Y-47088653D01*
X65129845Y-47180018D01*
X65154753Y-47779501D01*
X65174196Y-47863480D01*
X65227448Y-47939139D01*
X65305941Y-47988119D01*
X65397306Y-48002702D01*
X65514126Y-47997848D01*
X65531433Y-48414409D01*
X65531433Y-48414411D01*
X65539736Y-48614239D01*
X65559179Y-48698218D01*
X65612431Y-48773877D01*
X65690924Y-48822857D01*
X65782289Y-48837440D01*
X68610648Y-48719928D01*
X68616174Y-48852940D01*
X68639418Y-49412402D01*
X68791405Y-49552263D01*
X69431203Y-49525681D01*
X69430373Y-49505698D01*
X69785667Y-49490937D01*
X69786497Y-49510919D01*
X70060311Y-49499543D01*
X70700109Y-49472961D01*
X70699279Y-49452978D01*
X71054573Y-49438217D01*
X71055403Y-49458199D01*
X71329216Y-49446823D01*
X71969014Y-49420241D01*
X71968184Y-49400258D01*
X72323478Y-49385497D01*
X72324308Y-49405479D01*
X72964106Y-49378897D01*
X72964107Y-49378896D01*
X73237919Y-49367520D01*
X73185600Y-48108257D01*
X73169559Y-48093495D01*
X73540893Y-48093495D01*
X73593213Y-49352758D01*
X74233011Y-49326176D01*
X74372872Y-49174189D01*
X74349628Y-48614727D01*
X74339980Y-48382518D01*
X74242204Y-48171677D01*
X74071186Y-48014302D01*
X73852961Y-47934353D01*
X73680754Y-47941508D01*
X73540893Y-48093495D01*
X73169559Y-48093495D01*
X73033613Y-47968395D01*
X72861406Y-47975550D01*
X72725117Y-48038753D01*
X72584056Y-47987074D01*
X72486013Y-47991148D01*
X72469984Y-47605356D01*
X72536043Y-47590062D01*
X72611702Y-47536810D01*
X72660682Y-47458317D01*
X72675265Y-47366952D01*
X72592240Y-45368676D01*
X72591723Y-45366442D01*
X72646039Y-45366442D01*
X72729063Y-47364718D01*
X72748506Y-47448696D01*
X72801758Y-47524356D01*
X72880251Y-47573336D01*
X72971615Y-47587919D01*
X73710977Y-47557201D01*
X73794957Y-47537758D01*
X73870616Y-47484506D01*
X73919596Y-47406013D01*
X73934179Y-47314648D01*
X73851155Y-45316372D01*
X73831712Y-45232394D01*
X73778460Y-45156734D01*
X73699967Y-45107754D01*
X73608603Y-45093171D01*
X72869241Y-45123889D01*
X72785261Y-45143332D01*
X72709602Y-45196584D01*
X72660622Y-45275077D01*
X72646039Y-45366442D01*
X72591723Y-45366442D01*
X72572797Y-45284697D01*
X72519544Y-45209038D01*
X72441052Y-45160058D01*
X72349687Y-45145475D01*
X71590342Y-45177025D01*
X71506363Y-45196468D01*
X71430704Y-45249720D01*
X71381724Y-45328213D01*
X71367141Y-45419578D01*
X71450166Y-47417854D01*
X71469609Y-47501833D01*
X71522862Y-47577492D01*
X71601354Y-47626472D01*
X71692719Y-47641055D01*
X71804544Y-47636409D01*
X71816327Y-47920008D01*
X71129648Y-47948538D01*
X71132369Y-47931489D01*
X71124067Y-47731661D01*
X71124067Y-47731660D01*
X71121289Y-47664796D01*
X71183159Y-47662225D01*
X71267138Y-47642782D01*
X71342797Y-47589530D01*
X71391777Y-47511037D01*
X71406360Y-47419672D01*
X71323335Y-45421396D01*
X71303892Y-45337417D01*
X71250639Y-45261758D01*
X71172147Y-45212778D01*
X71080782Y-45198195D01*
X70321437Y-45229745D01*
X70237458Y-45249188D01*
X70161799Y-45302440D01*
X70112819Y-45380933D01*
X70098236Y-45472298D01*
X70181261Y-47470574D01*
X70196620Y-47536915D01*
X70126693Y-47539820D01*
X70137455Y-47472393D01*
X70054430Y-45474117D01*
X70034987Y-45390138D01*
X69989413Y-45325388D01*
X69999983Y-45314818D01*
X69985373Y-45300208D01*
X70023938Y-45241237D01*
X69932015Y-45091531D01*
X69740583Y-45055418D01*
X69539480Y-44854315D01*
X69402210Y-44991585D01*
X69373551Y-44986179D01*
X69365631Y-45028164D01*
X69288030Y-45105765D01*
X69340999Y-45158734D01*
X69319752Y-45271363D01*
X69084370Y-45281143D01*
X69259748Y-45105765D01*
X69122478Y-44968495D01*
X69127884Y-44939836D01*
X69085899Y-44931916D01*
X69008298Y-44854315D01*
X68955329Y-44907284D01*
X68569419Y-44834484D01*
X68429272Y-44940411D01*
X68531924Y-45256002D01*
X68566340Y-45296273D01*
X68559671Y-45302942D01*
X67788622Y-45334978D01*
X67704643Y-45354421D01*
X67631479Y-45405918D01*
X67887888Y-44740512D01*
X69419894Y-44740512D01*
X69978359Y-44845864D01*
X70118506Y-44739937D01*
X70015854Y-44424346D01*
X69800244Y-44172061D01*
X69674952Y-44090125D01*
X69525246Y-44182048D01*
X69419894Y-44740512D01*
X67887888Y-44740512D01*
X68004031Y-44439111D01*
X68523840Y-44439111D01*
X68615763Y-44588817D01*
X69174227Y-44694169D01*
X69279579Y-44135704D01*
X69173652Y-43995557D01*
X68858061Y-44098209D01*
X68605776Y-44313819D01*
X68523840Y-44439111D01*
X68004031Y-44439111D01*
X68523005Y-43092327D01*
X68577914Y-43053567D01*
X68635513Y-43047168D01*
X68739089Y-43071070D01*
X69121922Y-43329482D01*
X69377185Y-43574927D01*
X69400865Y-43590410D01*
X69690865Y-43710410D01*
X69710549Y-43715612D01*
X69870549Y-43735612D01*
X69880000Y-43736200D01*
X70190000Y-43736200D01*
X70209810Y-43733580D01*
X70469810Y-43663580D01*
X70490108Y-43654790D01*
X70700108Y-43524790D01*
X70715318Y-43512406D01*
X70895318Y-43322406D01*
X70905820Y-43308395D01*
X70975820Y-43188395D01*
X70986200Y-43150000D01*
X70986200Y-43010000D01*
X70985163Y-42997473D01*
X70975163Y-42937473D01*
X70963980Y-42908612D01*
X70942837Y-42886981D01*
X70914944Y-42875280D01*
X70864944Y-42865280D01*
X70850000Y-42863800D01*
X70780000Y-42863800D01*
X70738038Y-42876395D01*
X70716598Y-42897732D01*
X70563059Y-43128040D01*
X70322838Y-43322065D01*
X70163560Y-43375158D01*
X70085779Y-43383800D01*
X69956305Y-43383800D01*
X69797368Y-43357311D01*
X69315466Y-43058531D01*
X69000178Y-42782654D01*
X68967453Y-42765826D01*
X68797453Y-42725826D01*
X68780000Y-42723800D01*
X68665014Y-42723800D01*
X68764311Y-42466116D01*
X69560944Y-42446200D01*
X70430000Y-42446200D01*
X70442527Y-42445163D01*
X70502527Y-42435163D01*
X70533430Y-42422612D01*
X70554368Y-42400783D01*
X70565163Y-42372527D01*
X70575163Y-42312527D01*
X70576200Y-42300000D01*
X70576200Y-42230000D01*
X70575163Y-42217473D01*
X70565163Y-42157473D01*
X70552612Y-42126570D01*
X70530783Y-42105632D01*
X70502527Y-42094837D01*
X70442527Y-42084837D01*
X70426195Y-42083895D01*
X69828095Y-42113800D01*
X69449951Y-42113800D01*
X69475163Y-41962527D01*
X69476200Y-41950000D01*
X69476200Y-41822959D01*
X69863310Y-41806128D01*
X69870565Y-41805464D01*
X70370565Y-41735464D01*
X70396295Y-41727001D01*
X70419502Y-41707602D01*
X70459502Y-41657602D01*
X70470197Y-41639646D01*
X70476200Y-41610000D01*
X70476200Y-41540000D01*
X70472290Y-41515903D01*
X70452290Y-41455903D01*
X70440154Y-41433225D01*
X70417217Y-41413507D01*
X70388415Y-41404266D01*
X70298415Y-41394266D01*
X70284453Y-41394002D01*
X69145404Y-41477144D01*
X69374952Y-40881445D01*
X69637399Y-40855840D01*
X69656756Y-40851348D01*
X69717260Y-40828659D01*
X69866758Y-40855041D01*
X69880000Y-40856200D01*
X70710000Y-40856200D01*
X70722527Y-40855163D01*
X70782527Y-40845163D01*
X70813430Y-40832612D01*
X70815895Y-40830042D01*
X71135416Y-40826390D01*
X71278616Y-40782736D01*
X71304013Y-40608907D01*
X70942875Y-40170089D01*
X70895317Y-40209228D01*
X70717709Y-40031620D01*
X70742489Y-40011226D01*
X71135910Y-40011226D01*
X71497048Y-40450044D01*
X71672516Y-40458564D01*
X71796004Y-40150529D01*
X71792211Y-39818685D01*
X71748557Y-39675485D01*
X71574728Y-39650088D01*
X71135910Y-40011226D01*
X70742489Y-40011226D01*
X70784012Y-39977054D01*
X70724378Y-39904593D01*
X70737695Y-39900989D01*
X70763132Y-39884621D01*
X70780197Y-39859646D01*
X70786200Y-39830000D01*
X70786200Y-39730000D01*
X70776160Y-39692194D01*
X70736160Y-39622194D01*
X70720020Y-39602515D01*
X70693714Y-39587584D01*
X70663672Y-39584063D01*
X70473622Y-39599900D01*
X70422874Y-39538236D01*
X70247406Y-39529716D01*
X70210479Y-39621829D01*
X69848719Y-39651975D01*
X69953764Y-39379373D01*
X70615909Y-39379373D01*
X70977047Y-39818191D01*
X71415865Y-39457053D01*
X71424385Y-39281585D01*
X71116350Y-39158097D01*
X70784506Y-39161890D01*
X70641306Y-39205544D01*
X70615909Y-39379373D01*
X69953764Y-39379373D01*
X70143351Y-38887380D01*
X70283800Y-38899772D01*
X70283800Y-38925253D01*
X70254388Y-39160549D01*
X70254784Y-39182205D01*
X70265458Y-39210506D01*
X70286302Y-39232425D01*
X70386302Y-39302425D01*
X70408937Y-39313231D01*
X70439087Y-39315656D01*
X70467806Y-39306160D01*
X70537806Y-39266160D01*
X70568155Y-39234078D01*
X70668155Y-39034078D01*
X70676069Y-38995525D01*
X70666069Y-38825525D01*
X70660599Y-38801327D01*
X70643882Y-38776118D01*
X70453882Y-38586118D01*
X70437645Y-38573748D01*
X70408903Y-38564322D01*
X70273956Y-38548446D01*
X70488244Y-37992350D01*
X70561270Y-37959488D01*
X70590473Y-37936362D01*
X70820473Y-37636362D01*
X70835781Y-37597977D01*
X70855781Y-37407977D01*
X70855887Y-37393101D01*
X70845887Y-37283101D01*
X70829808Y-37242783D01*
X70794378Y-37197905D01*
X73227422Y-30883932D01*
X75615818Y-29666983D01*
X75684062Y-29614321D01*
X75701400Y-29584578D01*
X75701400Y-40346108D01*
X75456025Y-42799863D01*
X74708338Y-44965240D01*
X74688191Y-44995461D01*
X74677773Y-45020687D01*
X74662607Y-45043384D01*
X74657226Y-45070438D01*
X74646696Y-45095934D01*
X74646725Y-45123231D01*
X74641400Y-45150000D01*
X74646781Y-45177053D01*
X74646810Y-45204638D01*
X74657282Y-45229845D01*
X74662607Y-45256616D01*
X74677931Y-45279550D01*
X74688514Y-45305024D01*
X74707835Y-45324305D01*
X74723000Y-45347000D01*
X74745937Y-45362326D01*
X74765461Y-45381809D01*
X74790687Y-45392227D01*
X74813384Y-45407393D01*
X74840438Y-45412774D01*
X74865934Y-45423304D01*
X74893231Y-45423275D01*
X74920000Y-45428600D01*
X75844186Y-45428600D01*
X75783130Y-45576002D01*
X75783130Y-45868357D01*
X75929180Y-46014407D01*
X76499410Y-46014407D01*
X76467918Y-46130540D01*
X76498712Y-46370007D01*
X75929180Y-46370007D01*
X75783130Y-46516057D01*
X75783130Y-46808412D01*
X75872069Y-47023130D01*
X76036408Y-47187468D01*
X76251126Y-47276407D01*
X78043480Y-47276407D01*
X78189530Y-47130357D01*
X78189530Y-46538605D01*
X78266742Y-46253874D01*
X78233376Y-45994407D01*
X78545130Y-45994407D01*
X78545130Y-46014407D01*
X78565130Y-46014407D01*
X78565130Y-46370007D01*
X78545130Y-46370007D01*
X78545130Y-47130357D01*
X78691180Y-47276407D01*
X80401400Y-47276407D01*
X80401400Y-47466028D01*
X80367330Y-47459129D01*
X76367330Y-47459129D01*
X76282616Y-47475069D01*
X76204812Y-47525135D01*
X76152615Y-47601527D01*
X76134252Y-47692207D01*
X76134252Y-48692207D01*
X76150192Y-48776921D01*
X76200258Y-48854725D01*
X76276650Y-48906922D01*
X76367330Y-48925285D01*
X80367330Y-48925285D01*
X80401400Y-48918874D01*
X80401400Y-49108007D01*
X78691180Y-49108007D01*
X78545130Y-49254057D01*
X78545130Y-50014407D01*
X78565130Y-50014407D01*
X78565130Y-50370007D01*
X78545130Y-50370007D01*
X78545130Y-50390007D01*
X78229826Y-50390007D01*
X78266742Y-50253874D01*
X78221877Y-49904990D01*
X78189530Y-49826897D01*
X78189530Y-49254057D01*
X78043480Y-49108007D01*
X76251126Y-49108007D01*
X76036408Y-49196946D01*
X75872069Y-49361284D01*
X75783130Y-49576002D01*
X75783130Y-49868357D01*
X75929180Y-50014407D01*
X76499410Y-50014407D01*
X76467918Y-50130540D01*
X76498712Y-50370007D01*
X75929180Y-50370007D01*
X75783130Y-50516057D01*
X75783130Y-50808412D01*
X75809220Y-50871400D01*
X74315735Y-50871400D01*
X74352703Y-50831227D01*
X74432652Y-50613002D01*
X74423004Y-50380793D01*
X74399760Y-49821331D01*
X74247773Y-49681470D01*
X73607975Y-49708052D01*
X73608805Y-49728035D01*
X73253511Y-49742796D01*
X73252681Y-49722814D01*
X72612883Y-49749396D01*
X72612882Y-49749397D01*
X72339070Y-49760773D01*
X72339900Y-49780756D01*
X71984606Y-49795517D01*
X71983776Y-49775535D01*
X71709963Y-49786911D01*
X71070165Y-49813493D01*
X71070995Y-49833476D01*
X70715701Y-49848237D01*
X70714871Y-49828255D01*
X70441057Y-49839631D01*
X69801259Y-49866213D01*
X69802089Y-49886196D01*
X69446795Y-49900957D01*
X69445965Y-49880975D01*
X68806167Y-49907557D01*
X68666306Y-50059544D01*
X68689550Y-50619006D01*
X68699198Y-50851215D01*
X68708559Y-50871400D01*
X66690000Y-50871400D01*
X66657336Y-50877897D01*
X66624064Y-50879315D01*
X65865931Y-51063988D01*
X63470044Y-51250553D01*
X61084959Y-51064065D01*
X60347570Y-50879718D01*
X60313476Y-50878059D01*
X60280000Y-50871400D01*
X51578946Y-50871400D01*
X51605036Y-50808412D01*
X51605036Y-50516057D01*
X51458986Y-50370007D01*
X50888756Y-50370007D01*
X50920248Y-50253874D01*
X50889454Y-50014407D01*
X51458986Y-50014407D01*
X51605036Y-49868357D01*
X51605036Y-49576002D01*
X51516097Y-49361284D01*
X51351758Y-49196946D01*
X51137040Y-49108007D01*
X49344686Y-49108007D01*
X49198636Y-49254057D01*
X49198636Y-49845809D01*
X49121424Y-50130540D01*
X49154790Y-50390007D01*
X48843036Y-50390007D01*
X48843036Y-50370007D01*
X48823036Y-50370007D01*
X48823036Y-50014407D01*
X48843036Y-50014407D01*
X48843036Y-49254057D01*
X48696986Y-49108007D01*
X46908600Y-49108007D01*
X46908600Y-48892193D01*
X46930156Y-48906922D01*
X47020836Y-48925285D01*
X51020836Y-48925285D01*
X51105550Y-48909345D01*
X51183354Y-48859279D01*
X51235551Y-48782887D01*
X51253914Y-48692207D01*
X51253914Y-47729955D01*
X63652726Y-47729955D01*
X63963074Y-47847510D01*
X64294784Y-47837352D01*
X64437120Y-47790959D01*
X64459178Y-47616674D01*
X64089688Y-47184865D01*
X63657879Y-47554356D01*
X63652726Y-47729955D01*
X51253914Y-47729955D01*
X51253914Y-47692207D01*
X51237974Y-47607493D01*
X51187908Y-47529689D01*
X51111516Y-47477492D01*
X51020836Y-47459129D01*
X47020836Y-47459129D01*
X46936122Y-47475069D01*
X46908600Y-47492779D01*
X46908600Y-47276407D01*
X48696986Y-47276407D01*
X48843036Y-47130357D01*
X48843036Y-46370007D01*
X48823036Y-46370007D01*
X48823036Y-46014407D01*
X48843036Y-46014407D01*
X48843036Y-45994407D01*
X49158340Y-45994407D01*
X49121424Y-46130540D01*
X49166289Y-46479424D01*
X49198636Y-46557517D01*
X49198636Y-47130357D01*
X49344686Y-47276407D01*
X51137040Y-47276407D01*
X51351758Y-47187468D01*
X51516097Y-47023130D01*
X51580229Y-46868300D01*
X63264506Y-46868300D01*
X63274664Y-47200010D01*
X63321057Y-47342346D01*
X63495342Y-47364404D01*
X63895113Y-47022328D01*
X64279639Y-47022328D01*
X64649130Y-47454137D01*
X64824729Y-47459290D01*
X64942284Y-47148942D01*
X64932126Y-46817232D01*
X64885733Y-46674896D01*
X64711448Y-46652838D01*
X64279639Y-47022328D01*
X63895113Y-47022328D01*
X63927151Y-46994914D01*
X63557660Y-46563105D01*
X63382061Y-46557952D01*
X63264506Y-46868300D01*
X51580229Y-46868300D01*
X51605036Y-46808412D01*
X51605036Y-46516057D01*
X51458986Y-46370007D01*
X50888756Y-46370007D01*
X50920248Y-46253874D01*
X50897625Y-46077941D01*
X57924906Y-46077941D01*
X58070924Y-46375957D01*
X58319873Y-46595409D01*
X58455444Y-46658909D01*
X58577053Y-46558176D01*
X58840477Y-46558176D01*
X58965062Y-46682031D01*
X59263078Y-46536013D01*
X59382474Y-46400568D01*
X63747612Y-46400568D01*
X64117102Y-46832377D01*
X64548911Y-46462886D01*
X64554064Y-46287287D01*
X64243716Y-46169732D01*
X63912006Y-46179890D01*
X63769670Y-46226283D01*
X63747612Y-46400568D01*
X59382474Y-46400568D01*
X59482530Y-46287064D01*
X59546030Y-46151493D01*
X59433966Y-46016204D01*
X58866235Y-45990445D01*
X58840477Y-46558176D01*
X58577053Y-46558176D01*
X58590733Y-46546845D01*
X58616492Y-45979114D01*
X58048761Y-45953356D01*
X57924906Y-46077941D01*
X50897625Y-46077941D01*
X50889454Y-46014407D01*
X51458986Y-46014407D01*
X51605036Y-45868357D01*
X51605036Y-45740702D01*
X58877566Y-45740702D01*
X59445297Y-45766460D01*
X59569152Y-45641875D01*
X59423134Y-45343859D01*
X59174185Y-45124407D01*
X59038614Y-45060907D01*
X58903325Y-45172971D01*
X58877566Y-45740702D01*
X51605036Y-45740702D01*
X51605036Y-45576002D01*
X51601856Y-45568323D01*
X57948028Y-45568323D01*
X58060092Y-45703612D01*
X58627823Y-45729371D01*
X58653581Y-45161640D01*
X58528996Y-45037785D01*
X58230980Y-45183803D01*
X58011528Y-45432752D01*
X57948028Y-45568323D01*
X51601856Y-45568323D01*
X51543980Y-45428600D01*
X52320000Y-45428600D01*
X52346769Y-45423275D01*
X52374066Y-45423304D01*
X52399562Y-45412774D01*
X52426616Y-45407393D01*
X52449313Y-45392227D01*
X52474539Y-45381809D01*
X52494063Y-45362326D01*
X52517000Y-45347000D01*
X52532165Y-45324305D01*
X52551486Y-45305024D01*
X52562069Y-45279550D01*
X52577393Y-45256616D01*
X52582718Y-45229845D01*
X52593190Y-45204638D01*
X52593219Y-45177053D01*
X52598600Y-45150000D01*
X52593275Y-45123231D01*
X52593304Y-45095934D01*
X52582774Y-45070438D01*
X52577393Y-45043384D01*
X52562227Y-45020687D01*
X52551809Y-44995461D01*
X52533568Y-44968100D01*
X51844485Y-42803797D01*
X51749496Y-41814322D01*
X55597731Y-41814322D01*
X55606209Y-41989792D01*
X55924737Y-42082930D01*
X56254661Y-42047082D01*
X56392971Y-41989792D01*
X56401449Y-41814322D01*
X55999590Y-41412463D01*
X55597731Y-41814322D01*
X51749496Y-41814322D01*
X51608600Y-40346658D01*
X51608600Y-36418600D01*
X54509898Y-36418600D01*
X52256259Y-37566887D01*
X52188015Y-37619549D01*
X52141420Y-37699481D01*
X52129594Y-37791243D01*
X52154400Y-37880376D01*
X52766312Y-39081321D01*
X52728073Y-39081287D01*
X52552104Y-39153996D01*
X52417355Y-39288511D01*
X52344339Y-39464353D01*
X52344172Y-39654752D01*
X52416881Y-39830721D01*
X52551396Y-39965470D01*
X52727238Y-40038486D01*
X52917637Y-40038653D01*
X53093606Y-39965944D01*
X53175431Y-39884261D01*
X53788767Y-41088000D01*
X53841429Y-41156244D01*
X53921361Y-41202839D01*
X54013123Y-41214665D01*
X54102256Y-41189859D01*
X54159222Y-41160833D01*
X55152346Y-41160833D01*
X55188194Y-41490757D01*
X55245484Y-41629067D01*
X55420954Y-41637545D01*
X55822813Y-41235686D01*
X56176367Y-41235686D01*
X56578226Y-41637545D01*
X56753696Y-41629067D01*
X56846834Y-41310539D01*
X56810986Y-40980615D01*
X56753696Y-40842305D01*
X56578226Y-40833827D01*
X56176367Y-41235686D01*
X55822813Y-41235686D01*
X55420954Y-40833827D01*
X55245484Y-40842305D01*
X55152346Y-41160833D01*
X54159222Y-41160833D01*
X55147951Y-40657050D01*
X55597731Y-40657050D01*
X55999590Y-41058909D01*
X56401449Y-40657050D01*
X56392971Y-40481580D01*
X56074443Y-40388442D01*
X55744519Y-40424290D01*
X55606209Y-40481580D01*
X55597731Y-40657050D01*
X55147951Y-40657050D01*
X56775275Y-39827887D01*
X56843519Y-39775225D01*
X56890114Y-39695293D01*
X56901940Y-39603531D01*
X56877134Y-39514398D01*
X55299745Y-36418600D01*
X58881400Y-36418600D01*
X58881400Y-40220000D01*
X58883810Y-40232116D01*
X58882470Y-40244398D01*
X58962470Y-41154398D01*
X58970581Y-41182183D01*
X58973430Y-41210983D01*
X59213430Y-42000983D01*
X59228704Y-42029531D01*
X59239221Y-42060155D01*
X59629221Y-42730155D01*
X59652191Y-42756161D01*
X59671201Y-42785184D01*
X60211201Y-43335185D01*
X60246886Y-43359505D01*
X60280463Y-43386654D01*
X61670463Y-44116654D01*
X61715792Y-44130044D01*
X61760369Y-44145767D01*
X63430368Y-44385767D01*
X63470476Y-44383615D01*
X63510583Y-44385628D01*
X65140583Y-44145628D01*
X65188685Y-44128475D01*
X65237211Y-44112469D01*
X66527211Y-43382469D01*
X66561702Y-43352744D01*
X66598019Y-43325326D01*
X67088020Y-42775326D01*
X67106236Y-42744337D01*
X67128441Y-42716075D01*
X67468441Y-42046075D01*
X67479924Y-42005103D01*
X67494896Y-41965277D01*
X67774896Y-40265277D01*
X67774139Y-40242426D01*
X67778600Y-40220000D01*
X67778600Y-31940000D01*
X68323800Y-31940000D01*
X68323800Y-31980000D01*
X68329250Y-32008300D01*
X68349250Y-32058300D01*
X68357616Y-32073757D01*
X68379555Y-32094580D01*
X68407866Y-32105228D01*
X68717866Y-32155228D01*
X68730000Y-32156200D01*
X70015534Y-32156200D01*
X70283800Y-32187761D01*
X70283800Y-32215253D01*
X70254388Y-32450549D01*
X70254784Y-32472205D01*
X70265458Y-32500506D01*
X70286302Y-32522425D01*
X70386302Y-32592425D01*
X70408937Y-32603231D01*
X70439087Y-32605656D01*
X70467806Y-32596160D01*
X70537806Y-32556160D01*
X70568155Y-32524078D01*
X70668155Y-32324078D01*
X70676083Y-32285773D01*
X70666083Y-32105773D01*
X70659799Y-32079430D01*
X70642406Y-32054682D01*
X70452406Y-31874682D01*
X70437645Y-31863748D01*
X70408903Y-31854322D01*
X70238903Y-31834322D01*
X70235183Y-31833977D01*
X69795183Y-31803977D01*
X69791524Y-31803815D01*
X69291524Y-31793815D01*
X69290000Y-31793800D01*
X68470000Y-31793800D01*
X68445903Y-31797710D01*
X68385903Y-31817710D01*
X68368612Y-31826020D01*
X68346981Y-31847163D01*
X68335280Y-31875056D01*
X68325280Y-31925056D01*
X68323800Y-31940000D01*
X67778600Y-31940000D01*
X67778600Y-30885247D01*
X68083948Y-30885247D01*
X68085280Y-30904944D01*
X68095280Y-30954944D01*
X68106395Y-30981962D01*
X68127732Y-31003402D01*
X68217732Y-31063402D01*
X68247225Y-31075122D01*
X68277458Y-31074173D01*
X68304940Y-31061537D01*
X68325341Y-31039205D01*
X68526993Y-30703119D01*
X68704229Y-30579053D01*
X69183130Y-30425805D01*
X69471279Y-30416200D01*
X69596003Y-30416200D01*
X69965715Y-30455117D01*
X70307206Y-30549976D01*
X70413114Y-30623296D01*
X70423800Y-30641107D01*
X70423800Y-30792087D01*
X70345237Y-30884935D01*
X69975731Y-31014261D01*
X69708652Y-31023800D01*
X69671564Y-31023800D01*
X69553882Y-30906118D01*
X69529646Y-30889803D01*
X69500000Y-30883800D01*
X69470000Y-30883800D01*
X69441700Y-30889250D01*
X69391700Y-30909250D01*
X69359040Y-30934280D01*
X69299040Y-31014280D01*
X69289803Y-31030354D01*
X69283800Y-31060000D01*
X69283800Y-31240000D01*
X69284388Y-31249451D01*
X69294388Y-31329451D01*
X69307575Y-31363698D01*
X69377575Y-31463698D01*
X69389677Y-31477219D01*
X69415903Y-31492290D01*
X69475903Y-31512290D01*
X69494073Y-31515969D01*
X69524097Y-31512290D01*
X69728235Y-31444244D01*
X70342134Y-31345228D01*
X70364078Y-31338155D01*
X70564078Y-31238155D01*
X70589703Y-31217350D01*
X70819703Y-30927350D01*
X70835822Y-30887582D01*
X70855822Y-30687582D01*
X70855887Y-30673101D01*
X70845887Y-30563101D01*
X70829808Y-30522783D01*
X70679808Y-30332783D01*
X70654078Y-30311845D01*
X70374078Y-30171845D01*
X70358885Y-30166177D01*
X69928885Y-30056177D01*
X69918415Y-30054266D01*
X69648415Y-30024266D01*
X69640000Y-30023800D01*
X69600000Y-30023800D01*
X69591097Y-30024322D01*
X69251097Y-30064322D01*
X69242472Y-30065843D01*
X68692472Y-30195843D01*
X68674433Y-30202610D01*
X68314433Y-30392610D01*
X68286598Y-30417732D01*
X68106598Y-30687732D01*
X68093948Y-30725247D01*
X68083948Y-30885247D01*
X67778600Y-30885247D01*
X67778600Y-28193898D01*
X70541221Y-28193898D01*
X70549699Y-28369368D01*
X70868227Y-28462506D01*
X71198151Y-28426658D01*
X71336461Y-28369368D01*
X71344939Y-28193898D01*
X70943080Y-27792039D01*
X70541221Y-28193898D01*
X67778600Y-28193898D01*
X67778600Y-27540409D01*
X70095836Y-27540409D01*
X70131684Y-27870333D01*
X70188974Y-28008643D01*
X70364444Y-28017121D01*
X70766303Y-27615262D01*
X71119857Y-27615262D01*
X71521716Y-28017121D01*
X71697186Y-28008643D01*
X71790324Y-27690115D01*
X71754476Y-27360191D01*
X71697186Y-27221881D01*
X71521716Y-27213403D01*
X71119857Y-27615262D01*
X70766303Y-27615262D01*
X70364444Y-27213403D01*
X70188974Y-27221881D01*
X70095836Y-27540409D01*
X67778600Y-27540409D01*
X67778600Y-27036626D01*
X70541221Y-27036626D01*
X70943080Y-27438485D01*
X71344939Y-27036626D01*
X71336461Y-26861156D01*
X71017933Y-26768018D01*
X70688009Y-26803866D01*
X70549699Y-26861156D01*
X70541221Y-27036626D01*
X67778600Y-27036626D01*
X67778600Y-26090000D01*
X67757393Y-25983384D01*
X67697000Y-25893000D01*
X67606616Y-25832607D01*
X67500000Y-25811400D01*
X63048600Y-25811400D01*
X63048600Y-23783342D01*
X64621446Y-23783342D01*
X64629924Y-23958812D01*
X64948452Y-24051950D01*
X65278376Y-24016102D01*
X65416686Y-23958812D01*
X65425164Y-23783342D01*
X65023305Y-23381483D01*
X64621446Y-23783342D01*
X63048600Y-23783342D01*
X63048600Y-23129853D01*
X64176061Y-23129853D01*
X64211909Y-23459777D01*
X64269199Y-23598087D01*
X64444669Y-23606565D01*
X64846528Y-23204706D01*
X65200082Y-23204706D01*
X65601941Y-23606565D01*
X65777411Y-23598087D01*
X65870549Y-23279559D01*
X65834701Y-22949635D01*
X65777411Y-22811325D01*
X65601941Y-22802847D01*
X65200082Y-23204706D01*
X64846528Y-23204706D01*
X64444669Y-22802847D01*
X64269199Y-22811325D01*
X64176061Y-23129853D01*
X63048600Y-23129853D01*
X63048600Y-22626070D01*
X64621446Y-22626070D01*
X65023305Y-23027929D01*
X65425164Y-22626070D01*
X65416686Y-22450600D01*
X65098158Y-22357462D01*
X64768234Y-22393310D01*
X64629924Y-22450600D01*
X64621446Y-22626070D01*
X63048600Y-22626070D01*
X63048600Y-21987696D01*
X70541221Y-21987696D01*
X70549699Y-22163166D01*
X70868227Y-22256304D01*
X71198151Y-22220456D01*
X71336461Y-22163166D01*
X71344939Y-21987696D01*
X70943080Y-21585837D01*
X70541221Y-21987696D01*
X63048600Y-21987696D01*
X63048600Y-21334207D01*
X70095836Y-21334207D01*
X70131684Y-21664131D01*
X70188974Y-21802441D01*
X70364444Y-21810919D01*
X70766303Y-21409060D01*
X71119857Y-21409060D01*
X71521716Y-21810919D01*
X71697186Y-21802441D01*
X71790324Y-21483913D01*
X71754476Y-21153989D01*
X71697186Y-21015679D01*
X71521716Y-21007201D01*
X71119857Y-21409060D01*
X70766303Y-21409060D01*
X70364444Y-21007201D01*
X70188974Y-21015679D01*
X70095836Y-21334207D01*
X63048600Y-21334207D01*
X63048600Y-20830424D01*
X70541221Y-20830424D01*
X70943080Y-21232283D01*
X71344939Y-20830424D01*
X71336461Y-20654954D01*
X71017933Y-20561816D01*
X70688009Y-20597664D01*
X70549699Y-20654954D01*
X70541221Y-20830424D01*
X63048600Y-20830424D01*
X63048600Y-18998600D01*
X75701400Y-18998600D01*
X75701400Y-29321549D01*
X75701400Y-29321549D01*
G37*
X75701400Y-29321549D02*
X74537301Y-27036878D01*
X74484639Y-26968634D01*
X74404707Y-26922039D01*
X74312945Y-26910213D01*
X74223812Y-26935019D01*
X71550792Y-28296991D01*
X71482548Y-28349653D01*
X71435953Y-28429585D01*
X71424127Y-28521347D01*
X71448933Y-28610480D01*
X72526423Y-30725171D01*
X71467093Y-33474229D01*
X71119857Y-33821465D01*
X71171335Y-33872943D01*
X70994558Y-34049720D01*
X70943080Y-33998242D01*
X70891603Y-34049720D01*
X70714826Y-33872943D01*
X70766303Y-33821465D01*
X70714826Y-33769988D01*
X70891603Y-33593211D01*
X70943080Y-33644688D01*
X71344939Y-33242829D01*
X71336461Y-33067359D01*
X71017933Y-32974221D01*
X70704189Y-33008311D01*
X70702268Y-33006598D01*
X70612268Y-32946598D01*
X70572105Y-32933829D01*
X70542305Y-32939011D01*
X70523880Y-32950867D01*
X70516966Y-32923641D01*
X70497544Y-32900452D01*
X70470631Y-32886646D01*
X70150631Y-32796646D01*
X70137735Y-32794194D01*
X69647735Y-32744194D01*
X69636760Y-32743869D01*
X69166760Y-32763869D01*
X69150460Y-32766348D01*
X68660460Y-32896348D01*
X68637732Y-32906598D01*
X68427732Y-33046598D01*
X68409851Y-33063218D01*
X68339851Y-33153218D01*
X68329803Y-33170354D01*
X68323800Y-33200000D01*
X68323800Y-33450000D01*
X68327710Y-33474097D01*
X68377710Y-33624097D01*
X68400410Y-33657855D01*
X68610410Y-33837855D01*
X68625750Y-33848069D01*
X68654931Y-33856031D01*
X68804931Y-33866031D01*
X68810000Y-33866200D01*
X69650000Y-33866200D01*
X69659649Y-33865587D01*
X70102619Y-33809038D01*
X70131684Y-34076536D01*
X70188974Y-34214846D01*
X70293213Y-34219882D01*
X70216986Y-34296109D01*
X70220656Y-34299779D01*
X69885844Y-34274024D01*
X69880000Y-34273800D01*
X68740000Y-34273800D01*
X68733302Y-34274095D01*
X68393302Y-34304095D01*
X68372305Y-34309011D01*
X68346868Y-34325379D01*
X68329803Y-34350354D01*
X68323800Y-34380000D01*
X68323800Y-34480000D01*
X68326608Y-34500494D01*
X68340363Y-34527433D01*
X68363516Y-34546898D01*
X68392418Y-34555822D01*
X68480755Y-34564656D01*
X68539983Y-34590039D01*
X68574227Y-34596083D01*
X69113170Y-34566142D01*
X69471072Y-34556200D01*
X69538223Y-34556200D01*
X69963362Y-34575974D01*
X70301237Y-34619415D01*
X70252601Y-34624160D01*
X70246662Y-34624976D01*
X69796662Y-34704976D01*
X69765060Y-34718463D01*
X69744659Y-34740795D01*
X69714659Y-34790795D01*
X69703800Y-34830000D01*
X69703800Y-34860000D01*
X69707710Y-34884097D01*
X69727710Y-34944097D01*
X69743964Y-34971637D01*
X69768468Y-34989370D01*
X69878468Y-35039370D01*
X69894696Y-35044647D01*
X69924944Y-35044720D01*
X69974944Y-35034720D01*
X69994078Y-35028155D01*
X70032180Y-35009104D01*
X70212764Y-35037893D01*
X69583223Y-35094102D01*
X69580171Y-35094437D01*
X68350171Y-35254437D01*
X68325922Y-35261845D01*
X68225922Y-35311845D01*
X68206868Y-35325379D01*
X68189803Y-35350354D01*
X68183800Y-35380000D01*
X68183800Y-35450000D01*
X68187710Y-35474097D01*
X68207710Y-35534097D01*
X68216020Y-35551388D01*
X68237163Y-35573019D01*
X68265056Y-35584720D01*
X68315056Y-35594720D01*
X68337459Y-35595834D01*
X69557459Y-35475834D01*
X69559886Y-35475556D01*
X70629886Y-35335556D01*
X70637453Y-35334174D01*
X70761636Y-35304954D01*
X70172855Y-36832896D01*
X69927260Y-36775781D01*
X69921167Y-36774623D01*
X69651167Y-36734623D01*
X69640000Y-36733800D01*
X69600000Y-36733800D01*
X69591097Y-36734322D01*
X69251097Y-36774322D01*
X69242472Y-36775843D01*
X68692472Y-36905843D01*
X68672994Y-36913389D01*
X68312994Y-37113389D01*
X68287349Y-37136626D01*
X68107349Y-37396626D01*
X68093948Y-37435247D01*
X68083948Y-37595247D01*
X68084837Y-37612527D01*
X68094837Y-37672527D01*
X68109994Y-37706965D01*
X68132994Y-37726611D01*
X68222994Y-37776611D01*
X68247225Y-37785122D01*
X68277458Y-37784173D01*
X68304940Y-37771537D01*
X68325341Y-37749205D01*
X68526993Y-37413119D01*
X68703647Y-37289461D01*
X69183654Y-37145459D01*
X69472534Y-37126200D01*
X69596003Y-37126200D01*
X69965715Y-37165117D01*
X70037186Y-37184970D01*
X69827332Y-37729561D01*
X69708652Y-37733800D01*
X69669923Y-37733800D01*
X69551850Y-37624161D01*
X69529646Y-37609803D01*
X69500000Y-37603800D01*
X69470000Y-37603800D01*
X69455056Y-37605280D01*
X69405056Y-37615280D01*
X69378038Y-37626395D01*
X69356598Y-37647732D01*
X69296598Y-37737732D01*
X69283800Y-37780000D01*
X69283800Y-37950000D01*
X69284388Y-37959451D01*
X69294388Y-38039451D01*
X69307575Y-38073698D01*
X69377575Y-38173698D01*
X69405922Y-38198155D01*
X69465922Y-38228155D01*
X69494073Y-38235969D01*
X69524097Y-38232290D01*
X69649748Y-38190406D01*
X69525131Y-38513800D01*
X68470000Y-38513800D01*
X68445903Y-38517710D01*
X68385903Y-38537710D01*
X68368612Y-38546020D01*
X68346981Y-38567163D01*
X68335280Y-38595056D01*
X68325280Y-38645056D01*
X68323800Y-38660000D01*
X68323800Y-38690000D01*
X68329250Y-38718300D01*
X68349250Y-38768300D01*
X68357616Y-38783757D01*
X68379555Y-38804580D01*
X68407866Y-38815228D01*
X68717866Y-38865228D01*
X68727374Y-38866155D01*
X69017374Y-38876155D01*
X69020000Y-38876200D01*
X69385483Y-38876200D01*
X69112069Y-39585734D01*
X68743274Y-39467441D01*
X68738126Y-39465987D01*
X68248126Y-39345987D01*
X68230000Y-39343800D01*
X68160000Y-39343800D01*
X68132305Y-39349011D01*
X68106868Y-39365379D01*
X68089803Y-39390354D01*
X68083800Y-39420000D01*
X68083800Y-39480000D01*
X68091845Y-39514078D01*
X68121845Y-39574078D01*
X68137594Y-39595318D01*
X68163244Y-39611348D01*
X68563244Y-39761348D01*
X68567733Y-39762874D01*
X68753959Y-39819777D01*
X68564119Y-39888330D01*
X68558593Y-39890574D01*
X68138593Y-40080574D01*
X68111462Y-40101218D01*
X68061462Y-40161218D01*
X68050383Y-40179019D01*
X68043814Y-40208545D01*
X68049250Y-40238300D01*
X68069250Y-40288300D01*
X68079994Y-40306965D01*
X68102994Y-40326611D01*
X68192994Y-40376611D01*
X68229398Y-40386198D01*
X68259090Y-40380429D01*
X68715225Y-40192025D01*
X68898961Y-40138768D01*
X68752107Y-40519868D01*
X68509224Y-40554566D01*
X68480795Y-40564659D01*
X68230795Y-40714659D01*
X68200949Y-40747776D01*
X68130949Y-40897776D01*
X68124266Y-40921585D01*
X68118601Y-40972566D01*
X68114266Y-41011585D01*
X68114566Y-41030776D01*
X68124566Y-41100776D01*
X68134659Y-41129205D01*
X68194659Y-41229205D01*
X68221821Y-41255945D01*
X68411821Y-41365945D01*
X68424414Y-41370261D01*
X68351001Y-41560774D01*
X68321022Y-41564331D01*
X68283761Y-41579433D01*
X68263840Y-41602194D01*
X68223840Y-41672194D01*
X68213800Y-41710000D01*
X68213800Y-41750000D01*
X68215424Y-41765648D01*
X68227388Y-41793430D01*
X68249217Y-41814368D01*
X68252759Y-41815721D01*
X66882126Y-45372641D01*
X66539700Y-45386868D01*
X66455721Y-45406311D01*
X66380062Y-45459564D01*
X66368783Y-45477639D01*
X66359859Y-45464960D01*
X66281366Y-45415980D01*
X66190001Y-45401397D01*
X65290777Y-45438758D01*
X65206798Y-45458201D01*
X65131139Y-45511454D01*
X65082159Y-45589946D01*
X65067576Y-45681311D01*
X65092484Y-46280794D01*
X65111927Y-46364773D01*
X65165179Y-46440432D01*
X65243672Y-46489412D01*
X65335037Y-46503995D01*
X66234261Y-46466634D01*
X66318240Y-46447191D01*
X66393899Y-46393938D01*
X66405178Y-46375863D01*
X66414102Y-46388542D01*
X66492595Y-46437522D01*
X66583960Y-46452105D01*
X67483184Y-46414744D01*
X67567163Y-46395301D01*
X67642822Y-46342048D01*
X67654101Y-46323974D01*
X67663024Y-46336652D01*
X67741517Y-46385632D01*
X67832882Y-46400215D01*
X68732106Y-46362854D01*
X68816085Y-46343411D01*
X68861991Y-46311100D01*
X68883856Y-46837350D01*
X68841480Y-46810907D01*
X68750115Y-46796324D01*
X67850891Y-46833685D01*
X67766912Y-46853128D01*
X67691253Y-46906381D01*
X67679974Y-46924456D01*
X67671050Y-46911777D01*
X67592557Y-46862797D01*
X67501192Y-46848214D01*
X66601968Y-46885575D01*
X66517989Y-46905018D01*
X66442330Y-46958271D01*
X66431051Y-46976345D01*
X66422128Y-46963667D01*
X66343635Y-46914687D01*
X66252270Y-46900104D01*
X65353046Y-46937465D01*
X65269067Y-46956908D01*
X65193408Y-47010161D01*
X65144428Y-47088653D01*
X65129845Y-47180018D01*
X65154753Y-47779501D01*
X65174196Y-47863480D01*
X65227448Y-47939139D01*
X65305941Y-47988119D01*
X65397306Y-48002702D01*
X65514126Y-47997848D01*
X65531433Y-48414409D01*
X65531433Y-48414411D01*
X65539736Y-48614239D01*
X65559179Y-48698218D01*
X65612431Y-48773877D01*
X65690924Y-48822857D01*
X65782289Y-48837440D01*
X68610648Y-48719928D01*
X68616174Y-48852940D01*
X68639418Y-49412402D01*
X68791405Y-49552263D01*
X69431203Y-49525681D01*
X69430373Y-49505698D01*
X69785667Y-49490937D01*
X69786497Y-49510919D01*
X70060311Y-49499543D01*
X70700109Y-49472961D01*
X70699279Y-49452978D01*
X71054573Y-49438217D01*
X71055403Y-49458199D01*
X71329216Y-49446823D01*
X71969014Y-49420241D01*
X71968184Y-49400258D01*
X72323478Y-49385497D01*
X72324308Y-49405479D01*
X72964106Y-49378897D01*
X72964107Y-49378896D01*
X73237919Y-49367520D01*
X73185600Y-48108257D01*
X73169559Y-48093495D01*
X73540893Y-48093495D01*
X73593213Y-49352758D01*
X74233011Y-49326176D01*
X74372872Y-49174189D01*
X74349628Y-48614727D01*
X74339980Y-48382518D01*
X74242204Y-48171677D01*
X74071186Y-48014302D01*
X73852961Y-47934353D01*
X73680754Y-47941508D01*
X73540893Y-48093495D01*
X73169559Y-48093495D01*
X73033613Y-47968395D01*
X72861406Y-47975550D01*
X72725117Y-48038753D01*
X72584056Y-47987074D01*
X72486013Y-47991148D01*
X72469984Y-47605356D01*
X72536043Y-47590062D01*
X72611702Y-47536810D01*
X72660682Y-47458317D01*
X72675265Y-47366952D01*
X72592240Y-45368676D01*
X72591723Y-45366442D01*
X72646039Y-45366442D01*
X72729063Y-47364718D01*
X72748506Y-47448696D01*
X72801758Y-47524356D01*
X72880251Y-47573336D01*
X72971615Y-47587919D01*
X73710977Y-47557201D01*
X73794957Y-47537758D01*
X73870616Y-47484506D01*
X73919596Y-47406013D01*
X73934179Y-47314648D01*
X73851155Y-45316372D01*
X73831712Y-45232394D01*
X73778460Y-45156734D01*
X73699967Y-45107754D01*
X73608603Y-45093171D01*
X72869241Y-45123889D01*
X72785261Y-45143332D01*
X72709602Y-45196584D01*
X72660622Y-45275077D01*
X72646039Y-45366442D01*
X72591723Y-45366442D01*
X72572797Y-45284697D01*
X72519544Y-45209038D01*
X72441052Y-45160058D01*
X72349687Y-45145475D01*
X71590342Y-45177025D01*
X71506363Y-45196468D01*
X71430704Y-45249720D01*
X71381724Y-45328213D01*
X71367141Y-45419578D01*
X71450166Y-47417854D01*
X71469609Y-47501833D01*
X71522862Y-47577492D01*
X71601354Y-47626472D01*
X71692719Y-47641055D01*
X71804544Y-47636409D01*
X71816327Y-47920008D01*
X71129648Y-47948538D01*
X71132369Y-47931489D01*
X71124067Y-47731661D01*
X71124067Y-47731660D01*
X71121289Y-47664796D01*
X71183159Y-47662225D01*
X71267138Y-47642782D01*
X71342797Y-47589530D01*
X71391777Y-47511037D01*
X71406360Y-47419672D01*
X71323335Y-45421396D01*
X71303892Y-45337417D01*
X71250639Y-45261758D01*
X71172147Y-45212778D01*
X71080782Y-45198195D01*
X70321437Y-45229745D01*
X70237458Y-45249188D01*
X70161799Y-45302440D01*
X70112819Y-45380933D01*
X70098236Y-45472298D01*
X70181261Y-47470574D01*
X70196620Y-47536915D01*
X70126693Y-47539820D01*
X70137455Y-47472393D01*
X70054430Y-45474117D01*
X70034987Y-45390138D01*
X69989413Y-45325388D01*
X69999983Y-45314818D01*
X69985373Y-45300208D01*
X70023938Y-45241237D01*
X69932015Y-45091531D01*
X69740583Y-45055418D01*
X69539480Y-44854315D01*
X69402210Y-44991585D01*
X69373551Y-44986179D01*
X69365631Y-45028164D01*
X69288030Y-45105765D01*
X69340999Y-45158734D01*
X69319752Y-45271363D01*
X69084370Y-45281143D01*
X69259748Y-45105765D01*
X69122478Y-44968495D01*
X69127884Y-44939836D01*
X69085899Y-44931916D01*
X69008298Y-44854315D01*
X68955329Y-44907284D01*
X68569419Y-44834484D01*
X68429272Y-44940411D01*
X68531924Y-45256002D01*
X68566340Y-45296273D01*
X68559671Y-45302942D01*
X67788622Y-45334978D01*
X67704643Y-45354421D01*
X67631479Y-45405918D01*
X67887888Y-44740512D01*
X69419894Y-44740512D01*
X69978359Y-44845864D01*
X70118506Y-44739937D01*
X70015854Y-44424346D01*
X69800244Y-44172061D01*
X69674952Y-44090125D01*
X69525246Y-44182048D01*
X69419894Y-44740512D01*
X67887888Y-44740512D01*
X68004031Y-44439111D01*
X68523840Y-44439111D01*
X68615763Y-44588817D01*
X69174227Y-44694169D01*
X69279579Y-44135704D01*
X69173652Y-43995557D01*
X68858061Y-44098209D01*
X68605776Y-44313819D01*
X68523840Y-44439111D01*
X68004031Y-44439111D01*
X68523005Y-43092327D01*
X68577914Y-43053567D01*
X68635513Y-43047168D01*
X68739089Y-43071070D01*
X69121922Y-43329482D01*
X69377185Y-43574927D01*
X69400865Y-43590410D01*
X69690865Y-43710410D01*
X69710549Y-43715612D01*
X69870549Y-43735612D01*
X69880000Y-43736200D01*
X70190000Y-43736200D01*
X70209810Y-43733580D01*
X70469810Y-43663580D01*
X70490108Y-43654790D01*
X70700108Y-43524790D01*
X70715318Y-43512406D01*
X70895318Y-43322406D01*
X70905820Y-43308395D01*
X70975820Y-43188395D01*
X70986200Y-43150000D01*
X70986200Y-43010000D01*
X70985163Y-42997473D01*
X70975163Y-42937473D01*
X70963980Y-42908612D01*
X70942837Y-42886981D01*
X70914944Y-42875280D01*
X70864944Y-42865280D01*
X70850000Y-42863800D01*
X70780000Y-42863800D01*
X70738038Y-42876395D01*
X70716598Y-42897732D01*
X70563059Y-43128040D01*
X70322838Y-43322065D01*
X70163560Y-43375158D01*
X70085779Y-43383800D01*
X69956305Y-43383800D01*
X69797368Y-43357311D01*
X69315466Y-43058531D01*
X69000178Y-42782654D01*
X68967453Y-42765826D01*
X68797453Y-42725826D01*
X68780000Y-42723800D01*
X68665014Y-42723800D01*
X68764311Y-42466116D01*
X69560944Y-42446200D01*
X70430000Y-42446200D01*
X70442527Y-42445163D01*
X70502527Y-42435163D01*
X70533430Y-42422612D01*
X70554368Y-42400783D01*
X70565163Y-42372527D01*
X70575163Y-42312527D01*
X70576200Y-42300000D01*
X70576200Y-42230000D01*
X70575163Y-42217473D01*
X70565163Y-42157473D01*
X70552612Y-42126570D01*
X70530783Y-42105632D01*
X70502527Y-42094837D01*
X70442527Y-42084837D01*
X70426195Y-42083895D01*
X69828095Y-42113800D01*
X69449951Y-42113800D01*
X69475163Y-41962527D01*
X69476200Y-41950000D01*
X69476200Y-41822959D01*
X69863310Y-41806128D01*
X69870565Y-41805464D01*
X70370565Y-41735464D01*
X70396295Y-41727001D01*
X70419502Y-41707602D01*
X70459502Y-41657602D01*
X70470197Y-41639646D01*
X70476200Y-41610000D01*
X70476200Y-41540000D01*
X70472290Y-41515903D01*
X70452290Y-41455903D01*
X70440154Y-41433225D01*
X70417217Y-41413507D01*
X70388415Y-41404266D01*
X70298415Y-41394266D01*
X70284453Y-41394002D01*
X69145404Y-41477144D01*
X69374952Y-40881445D01*
X69637399Y-40855840D01*
X69656756Y-40851348D01*
X69717260Y-40828659D01*
X69866758Y-40855041D01*
X69880000Y-40856200D01*
X70710000Y-40856200D01*
X70722527Y-40855163D01*
X70782527Y-40845163D01*
X70813430Y-40832612D01*
X70815895Y-40830042D01*
X71135416Y-40826390D01*
X71278616Y-40782736D01*
X71304013Y-40608907D01*
X70942875Y-40170089D01*
X70895317Y-40209228D01*
X70717709Y-40031620D01*
X70742489Y-40011226D01*
X71135910Y-40011226D01*
X71497048Y-40450044D01*
X71672516Y-40458564D01*
X71796004Y-40150529D01*
X71792211Y-39818685D01*
X71748557Y-39675485D01*
X71574728Y-39650088D01*
X71135910Y-40011226D01*
X70742489Y-40011226D01*
X70784012Y-39977054D01*
X70724378Y-39904593D01*
X70737695Y-39900989D01*
X70763132Y-39884621D01*
X70780197Y-39859646D01*
X70786200Y-39830000D01*
X70786200Y-39730000D01*
X70776160Y-39692194D01*
X70736160Y-39622194D01*
X70720020Y-39602515D01*
X70693714Y-39587584D01*
X70663672Y-39584063D01*
X70473622Y-39599900D01*
X70422874Y-39538236D01*
X70247406Y-39529716D01*
X70210479Y-39621829D01*
X69848719Y-39651975D01*
X69953764Y-39379373D01*
X70615909Y-39379373D01*
X70977047Y-39818191D01*
X71415865Y-39457053D01*
X71424385Y-39281585D01*
X71116350Y-39158097D01*
X70784506Y-39161890D01*
X70641306Y-39205544D01*
X70615909Y-39379373D01*
X69953764Y-39379373D01*
X70143351Y-38887380D01*
X70283800Y-38899772D01*
X70283800Y-38925253D01*
X70254388Y-39160549D01*
X70254784Y-39182205D01*
X70265458Y-39210506D01*
X70286302Y-39232425D01*
X70386302Y-39302425D01*
X70408937Y-39313231D01*
X70439087Y-39315656D01*
X70467806Y-39306160D01*
X70537806Y-39266160D01*
X70568155Y-39234078D01*
X70668155Y-39034078D01*
X70676069Y-38995525D01*
X70666069Y-38825525D01*
X70660599Y-38801327D01*
X70643882Y-38776118D01*
X70453882Y-38586118D01*
X70437645Y-38573748D01*
X70408903Y-38564322D01*
X70273956Y-38548446D01*
X70488244Y-37992350D01*
X70561270Y-37959488D01*
X70590473Y-37936362D01*
X70820473Y-37636362D01*
X70835781Y-37597977D01*
X70855781Y-37407977D01*
X70855887Y-37393101D01*
X70845887Y-37283101D01*
X70829808Y-37242783D01*
X70794378Y-37197905D01*
X73227422Y-30883932D01*
X75615818Y-29666983D01*
X75684062Y-29614321D01*
X75701400Y-29584578D01*
X75701400Y-40346108D01*
X75456025Y-42799863D01*
X74708338Y-44965240D01*
X74688191Y-44995461D01*
X74677773Y-45020687D01*
X74662607Y-45043384D01*
X74657226Y-45070438D01*
X74646696Y-45095934D01*
X74646725Y-45123231D01*
X74641400Y-45150000D01*
X74646781Y-45177053D01*
X74646810Y-45204638D01*
X74657282Y-45229845D01*
X74662607Y-45256616D01*
X74677931Y-45279550D01*
X74688514Y-45305024D01*
X74707835Y-45324305D01*
X74723000Y-45347000D01*
X74745937Y-45362326D01*
X74765461Y-45381809D01*
X74790687Y-45392227D01*
X74813384Y-45407393D01*
X74840438Y-45412774D01*
X74865934Y-45423304D01*
X74893231Y-45423275D01*
X74920000Y-45428600D01*
X75844186Y-45428600D01*
X75783130Y-45576002D01*
X75783130Y-45868357D01*
X75929180Y-46014407D01*
X76499410Y-46014407D01*
X76467918Y-46130540D01*
X76498712Y-46370007D01*
X75929180Y-46370007D01*
X75783130Y-46516057D01*
X75783130Y-46808412D01*
X75872069Y-47023130D01*
X76036408Y-47187468D01*
X76251126Y-47276407D01*
X78043480Y-47276407D01*
X78189530Y-47130357D01*
X78189530Y-46538605D01*
X78266742Y-46253874D01*
X78233376Y-45994407D01*
X78545130Y-45994407D01*
X78545130Y-46014407D01*
X78565130Y-46014407D01*
X78565130Y-46370007D01*
X78545130Y-46370007D01*
X78545130Y-47130357D01*
X78691180Y-47276407D01*
X80401400Y-47276407D01*
X80401400Y-47466028D01*
X80367330Y-47459129D01*
X76367330Y-47459129D01*
X76282616Y-47475069D01*
X76204812Y-47525135D01*
X76152615Y-47601527D01*
X76134252Y-47692207D01*
X76134252Y-48692207D01*
X76150192Y-48776921D01*
X76200258Y-48854725D01*
X76276650Y-48906922D01*
X76367330Y-48925285D01*
X80367330Y-48925285D01*
X80401400Y-48918874D01*
X80401400Y-49108007D01*
X78691180Y-49108007D01*
X78545130Y-49254057D01*
X78545130Y-50014407D01*
X78565130Y-50014407D01*
X78565130Y-50370007D01*
X78545130Y-50370007D01*
X78545130Y-50390007D01*
X78229826Y-50390007D01*
X78266742Y-50253874D01*
X78221877Y-49904990D01*
X78189530Y-49826897D01*
X78189530Y-49254057D01*
X78043480Y-49108007D01*
X76251126Y-49108007D01*
X76036408Y-49196946D01*
X75872069Y-49361284D01*
X75783130Y-49576002D01*
X75783130Y-49868357D01*
X75929180Y-50014407D01*
X76499410Y-50014407D01*
X76467918Y-50130540D01*
X76498712Y-50370007D01*
X75929180Y-50370007D01*
X75783130Y-50516057D01*
X75783130Y-50808412D01*
X75809220Y-50871400D01*
X74315735Y-50871400D01*
X74352703Y-50831227D01*
X74432652Y-50613002D01*
X74423004Y-50380793D01*
X74399760Y-49821331D01*
X74247773Y-49681470D01*
X73607975Y-49708052D01*
X73608805Y-49728035D01*
X73253511Y-49742796D01*
X73252681Y-49722814D01*
X72612883Y-49749396D01*
X72612882Y-49749397D01*
X72339070Y-49760773D01*
X72339900Y-49780756D01*
X71984606Y-49795517D01*
X71983776Y-49775535D01*
X71709963Y-49786911D01*
X71070165Y-49813493D01*
X71070995Y-49833476D01*
X70715701Y-49848237D01*
X70714871Y-49828255D01*
X70441057Y-49839631D01*
X69801259Y-49866213D01*
X69802089Y-49886196D01*
X69446795Y-49900957D01*
X69445965Y-49880975D01*
X68806167Y-49907557D01*
X68666306Y-50059544D01*
X68689550Y-50619006D01*
X68699198Y-50851215D01*
X68708559Y-50871400D01*
X66690000Y-50871400D01*
X66657336Y-50877897D01*
X66624064Y-50879315D01*
X65865931Y-51063988D01*
X63470044Y-51250553D01*
X61084959Y-51064065D01*
X60347570Y-50879718D01*
X60313476Y-50878059D01*
X60280000Y-50871400D01*
X51578946Y-50871400D01*
X51605036Y-50808412D01*
X51605036Y-50516057D01*
X51458986Y-50370007D01*
X50888756Y-50370007D01*
X50920248Y-50253874D01*
X50889454Y-50014407D01*
X51458986Y-50014407D01*
X51605036Y-49868357D01*
X51605036Y-49576002D01*
X51516097Y-49361284D01*
X51351758Y-49196946D01*
X51137040Y-49108007D01*
X49344686Y-49108007D01*
X49198636Y-49254057D01*
X49198636Y-49845809D01*
X49121424Y-50130540D01*
X49154790Y-50390007D01*
X48843036Y-50390007D01*
X48843036Y-50370007D01*
X48823036Y-50370007D01*
X48823036Y-50014407D01*
X48843036Y-50014407D01*
X48843036Y-49254057D01*
X48696986Y-49108007D01*
X46908600Y-49108007D01*
X46908600Y-48892193D01*
X46930156Y-48906922D01*
X47020836Y-48925285D01*
X51020836Y-48925285D01*
X51105550Y-48909345D01*
X51183354Y-48859279D01*
X51235551Y-48782887D01*
X51253914Y-48692207D01*
X51253914Y-47729955D01*
X63652726Y-47729955D01*
X63963074Y-47847510D01*
X64294784Y-47837352D01*
X64437120Y-47790959D01*
X64459178Y-47616674D01*
X64089688Y-47184865D01*
X63657879Y-47554356D01*
X63652726Y-47729955D01*
X51253914Y-47729955D01*
X51253914Y-47692207D01*
X51237974Y-47607493D01*
X51187908Y-47529689D01*
X51111516Y-47477492D01*
X51020836Y-47459129D01*
X47020836Y-47459129D01*
X46936122Y-47475069D01*
X46908600Y-47492779D01*
X46908600Y-47276407D01*
X48696986Y-47276407D01*
X48843036Y-47130357D01*
X48843036Y-46370007D01*
X48823036Y-46370007D01*
X48823036Y-46014407D01*
X48843036Y-46014407D01*
X48843036Y-45994407D01*
X49158340Y-45994407D01*
X49121424Y-46130540D01*
X49166289Y-46479424D01*
X49198636Y-46557517D01*
X49198636Y-47130357D01*
X49344686Y-47276407D01*
X51137040Y-47276407D01*
X51351758Y-47187468D01*
X51516097Y-47023130D01*
X51580229Y-46868300D01*
X63264506Y-46868300D01*
X63274664Y-47200010D01*
X63321057Y-47342346D01*
X63495342Y-47364404D01*
X63895113Y-47022328D01*
X64279639Y-47022328D01*
X64649130Y-47454137D01*
X64824729Y-47459290D01*
X64942284Y-47148942D01*
X64932126Y-46817232D01*
X64885733Y-46674896D01*
X64711448Y-46652838D01*
X64279639Y-47022328D01*
X63895113Y-47022328D01*
X63927151Y-46994914D01*
X63557660Y-46563105D01*
X63382061Y-46557952D01*
X63264506Y-46868300D01*
X51580229Y-46868300D01*
X51605036Y-46808412D01*
X51605036Y-46516057D01*
X51458986Y-46370007D01*
X50888756Y-46370007D01*
X50920248Y-46253874D01*
X50897625Y-46077941D01*
X57924906Y-46077941D01*
X58070924Y-46375957D01*
X58319873Y-46595409D01*
X58455444Y-46658909D01*
X58577053Y-46558176D01*
X58840477Y-46558176D01*
X58965062Y-46682031D01*
X59263078Y-46536013D01*
X59382474Y-46400568D01*
X63747612Y-46400568D01*
X64117102Y-46832377D01*
X64548911Y-46462886D01*
X64554064Y-46287287D01*
X64243716Y-46169732D01*
X63912006Y-46179890D01*
X63769670Y-46226283D01*
X63747612Y-46400568D01*
X59382474Y-46400568D01*
X59482530Y-46287064D01*
X59546030Y-46151493D01*
X59433966Y-46016204D01*
X58866235Y-45990445D01*
X58840477Y-46558176D01*
X58577053Y-46558176D01*
X58590733Y-46546845D01*
X58616492Y-45979114D01*
X58048761Y-45953356D01*
X57924906Y-46077941D01*
X50897625Y-46077941D01*
X50889454Y-46014407D01*
X51458986Y-46014407D01*
X51605036Y-45868357D01*
X51605036Y-45740702D01*
X58877566Y-45740702D01*
X59445297Y-45766460D01*
X59569152Y-45641875D01*
X59423134Y-45343859D01*
X59174185Y-45124407D01*
X59038614Y-45060907D01*
X58903325Y-45172971D01*
X58877566Y-45740702D01*
X51605036Y-45740702D01*
X51605036Y-45576002D01*
X51601856Y-45568323D01*
X57948028Y-45568323D01*
X58060092Y-45703612D01*
X58627823Y-45729371D01*
X58653581Y-45161640D01*
X58528996Y-45037785D01*
X58230980Y-45183803D01*
X58011528Y-45432752D01*
X57948028Y-45568323D01*
X51601856Y-45568323D01*
X51543980Y-45428600D01*
X52320000Y-45428600D01*
X52346769Y-45423275D01*
X52374066Y-45423304D01*
X52399562Y-45412774D01*
X52426616Y-45407393D01*
X52449313Y-45392227D01*
X52474539Y-45381809D01*
X52494063Y-45362326D01*
X52517000Y-45347000D01*
X52532165Y-45324305D01*
X52551486Y-45305024D01*
X52562069Y-45279550D01*
X52577393Y-45256616D01*
X52582718Y-45229845D01*
X52593190Y-45204638D01*
X52593219Y-45177053D01*
X52598600Y-45150000D01*
X52593275Y-45123231D01*
X52593304Y-45095934D01*
X52582774Y-45070438D01*
X52577393Y-45043384D01*
X52562227Y-45020687D01*
X52551809Y-44995461D01*
X52533568Y-44968100D01*
X51844485Y-42803797D01*
X51749496Y-41814322D01*
X55597731Y-41814322D01*
X55606209Y-41989792D01*
X55924737Y-42082930D01*
X56254661Y-42047082D01*
X56392971Y-41989792D01*
X56401449Y-41814322D01*
X55999590Y-41412463D01*
X55597731Y-41814322D01*
X51749496Y-41814322D01*
X51608600Y-40346658D01*
X51608600Y-36418600D01*
X54509898Y-36418600D01*
X52256259Y-37566887D01*
X52188015Y-37619549D01*
X52141420Y-37699481D01*
X52129594Y-37791243D01*
X52154400Y-37880376D01*
X52766312Y-39081321D01*
X52728073Y-39081287D01*
X52552104Y-39153996D01*
X52417355Y-39288511D01*
X52344339Y-39464353D01*
X52344172Y-39654752D01*
X52416881Y-39830721D01*
X52551396Y-39965470D01*
X52727238Y-40038486D01*
X52917637Y-40038653D01*
X53093606Y-39965944D01*
X53175431Y-39884261D01*
X53788767Y-41088000D01*
X53841429Y-41156244D01*
X53921361Y-41202839D01*
X54013123Y-41214665D01*
X54102256Y-41189859D01*
X54159222Y-41160833D01*
X55152346Y-41160833D01*
X55188194Y-41490757D01*
X55245484Y-41629067D01*
X55420954Y-41637545D01*
X55822813Y-41235686D01*
X56176367Y-41235686D01*
X56578226Y-41637545D01*
X56753696Y-41629067D01*
X56846834Y-41310539D01*
X56810986Y-40980615D01*
X56753696Y-40842305D01*
X56578226Y-40833827D01*
X56176367Y-41235686D01*
X55822813Y-41235686D01*
X55420954Y-40833827D01*
X55245484Y-40842305D01*
X55152346Y-41160833D01*
X54159222Y-41160833D01*
X55147951Y-40657050D01*
X55597731Y-40657050D01*
X55999590Y-41058909D01*
X56401449Y-40657050D01*
X56392971Y-40481580D01*
X56074443Y-40388442D01*
X55744519Y-40424290D01*
X55606209Y-40481580D01*
X55597731Y-40657050D01*
X55147951Y-40657050D01*
X56775275Y-39827887D01*
X56843519Y-39775225D01*
X56890114Y-39695293D01*
X56901940Y-39603531D01*
X56877134Y-39514398D01*
X55299745Y-36418600D01*
X58881400Y-36418600D01*
X58881400Y-40220000D01*
X58883810Y-40232116D01*
X58882470Y-40244398D01*
X58962470Y-41154398D01*
X58970581Y-41182183D01*
X58973430Y-41210983D01*
X59213430Y-42000983D01*
X59228704Y-42029531D01*
X59239221Y-42060155D01*
X59629221Y-42730155D01*
X59652191Y-42756161D01*
X59671201Y-42785184D01*
X60211201Y-43335185D01*
X60246886Y-43359505D01*
X60280463Y-43386654D01*
X61670463Y-44116654D01*
X61715792Y-44130044D01*
X61760369Y-44145767D01*
X63430368Y-44385767D01*
X63470476Y-44383615D01*
X63510583Y-44385628D01*
X65140583Y-44145628D01*
X65188685Y-44128475D01*
X65237211Y-44112469D01*
X66527211Y-43382469D01*
X66561702Y-43352744D01*
X66598019Y-43325326D01*
X67088020Y-42775326D01*
X67106236Y-42744337D01*
X67128441Y-42716075D01*
X67468441Y-42046075D01*
X67479924Y-42005103D01*
X67494896Y-41965277D01*
X67774896Y-40265277D01*
X67774139Y-40242426D01*
X67778600Y-40220000D01*
X67778600Y-31940000D01*
X68323800Y-31940000D01*
X68323800Y-31980000D01*
X68329250Y-32008300D01*
X68349250Y-32058300D01*
X68357616Y-32073757D01*
X68379555Y-32094580D01*
X68407866Y-32105228D01*
X68717866Y-32155228D01*
X68730000Y-32156200D01*
X70015534Y-32156200D01*
X70283800Y-32187761D01*
X70283800Y-32215253D01*
X70254388Y-32450549D01*
X70254784Y-32472205D01*
X70265458Y-32500506D01*
X70286302Y-32522425D01*
X70386302Y-32592425D01*
X70408937Y-32603231D01*
X70439087Y-32605656D01*
X70467806Y-32596160D01*
X70537806Y-32556160D01*
X70568155Y-32524078D01*
X70668155Y-32324078D01*
X70676083Y-32285773D01*
X70666083Y-32105773D01*
X70659799Y-32079430D01*
X70642406Y-32054682D01*
X70452406Y-31874682D01*
X70437645Y-31863748D01*
X70408903Y-31854322D01*
X70238903Y-31834322D01*
X70235183Y-31833977D01*
X69795183Y-31803977D01*
X69791524Y-31803815D01*
X69291524Y-31793815D01*
X69290000Y-31793800D01*
X68470000Y-31793800D01*
X68445903Y-31797710D01*
X68385903Y-31817710D01*
X68368612Y-31826020D01*
X68346981Y-31847163D01*
X68335280Y-31875056D01*
X68325280Y-31925056D01*
X68323800Y-31940000D01*
X67778600Y-31940000D01*
X67778600Y-30885247D01*
X68083948Y-30885247D01*
X68085280Y-30904944D01*
X68095280Y-30954944D01*
X68106395Y-30981962D01*
X68127732Y-31003402D01*
X68217732Y-31063402D01*
X68247225Y-31075122D01*
X68277458Y-31074173D01*
X68304940Y-31061537D01*
X68325341Y-31039205D01*
X68526993Y-30703119D01*
X68704229Y-30579053D01*
X69183130Y-30425805D01*
X69471279Y-30416200D01*
X69596003Y-30416200D01*
X69965715Y-30455117D01*
X70307206Y-30549976D01*
X70413114Y-30623296D01*
X70423800Y-30641107D01*
X70423800Y-30792087D01*
X70345237Y-30884935D01*
X69975731Y-31014261D01*
X69708652Y-31023800D01*
X69671564Y-31023800D01*
X69553882Y-30906118D01*
X69529646Y-30889803D01*
X69500000Y-30883800D01*
X69470000Y-30883800D01*
X69441700Y-30889250D01*
X69391700Y-30909250D01*
X69359040Y-30934280D01*
X69299040Y-31014280D01*
X69289803Y-31030354D01*
X69283800Y-31060000D01*
X69283800Y-31240000D01*
X69284388Y-31249451D01*
X69294388Y-31329451D01*
X69307575Y-31363698D01*
X69377575Y-31463698D01*
X69389677Y-31477219D01*
X69415903Y-31492290D01*
X69475903Y-31512290D01*
X69494073Y-31515969D01*
X69524097Y-31512290D01*
X69728235Y-31444244D01*
X70342134Y-31345228D01*
X70364078Y-31338155D01*
X70564078Y-31238155D01*
X70589703Y-31217350D01*
X70819703Y-30927350D01*
X70835822Y-30887582D01*
X70855822Y-30687582D01*
X70855887Y-30673101D01*
X70845887Y-30563101D01*
X70829808Y-30522783D01*
X70679808Y-30332783D01*
X70654078Y-30311845D01*
X70374078Y-30171845D01*
X70358885Y-30166177D01*
X69928885Y-30056177D01*
X69918415Y-30054266D01*
X69648415Y-30024266D01*
X69640000Y-30023800D01*
X69600000Y-30023800D01*
X69591097Y-30024322D01*
X69251097Y-30064322D01*
X69242472Y-30065843D01*
X68692472Y-30195843D01*
X68674433Y-30202610D01*
X68314433Y-30392610D01*
X68286598Y-30417732D01*
X68106598Y-30687732D01*
X68093948Y-30725247D01*
X68083948Y-30885247D01*
X67778600Y-30885247D01*
X67778600Y-28193898D01*
X70541221Y-28193898D01*
X70549699Y-28369368D01*
X70868227Y-28462506D01*
X71198151Y-28426658D01*
X71336461Y-28369368D01*
X71344939Y-28193898D01*
X70943080Y-27792039D01*
X70541221Y-28193898D01*
X67778600Y-28193898D01*
X67778600Y-27540409D01*
X70095836Y-27540409D01*
X70131684Y-27870333D01*
X70188974Y-28008643D01*
X70364444Y-28017121D01*
X70766303Y-27615262D01*
X71119857Y-27615262D01*
X71521716Y-28017121D01*
X71697186Y-28008643D01*
X71790324Y-27690115D01*
X71754476Y-27360191D01*
X71697186Y-27221881D01*
X71521716Y-27213403D01*
X71119857Y-27615262D01*
X70766303Y-27615262D01*
X70364444Y-27213403D01*
X70188974Y-27221881D01*
X70095836Y-27540409D01*
X67778600Y-27540409D01*
X67778600Y-27036626D01*
X70541221Y-27036626D01*
X70943080Y-27438485D01*
X71344939Y-27036626D01*
X71336461Y-26861156D01*
X71017933Y-26768018D01*
X70688009Y-26803866D01*
X70549699Y-26861156D01*
X70541221Y-27036626D01*
X67778600Y-27036626D01*
X67778600Y-26090000D01*
X67757393Y-25983384D01*
X67697000Y-25893000D01*
X67606616Y-25832607D01*
X67500000Y-25811400D01*
X63048600Y-25811400D01*
X63048600Y-23783342D01*
X64621446Y-23783342D01*
X64629924Y-23958812D01*
X64948452Y-24051950D01*
X65278376Y-24016102D01*
X65416686Y-23958812D01*
X65425164Y-23783342D01*
X65023305Y-23381483D01*
X64621446Y-23783342D01*
X63048600Y-23783342D01*
X63048600Y-23129853D01*
X64176061Y-23129853D01*
X64211909Y-23459777D01*
X64269199Y-23598087D01*
X64444669Y-23606565D01*
X64846528Y-23204706D01*
X65200082Y-23204706D01*
X65601941Y-23606565D01*
X65777411Y-23598087D01*
X65870549Y-23279559D01*
X65834701Y-22949635D01*
X65777411Y-22811325D01*
X65601941Y-22802847D01*
X65200082Y-23204706D01*
X64846528Y-23204706D01*
X64444669Y-22802847D01*
X64269199Y-22811325D01*
X64176061Y-23129853D01*
X63048600Y-23129853D01*
X63048600Y-22626070D01*
X64621446Y-22626070D01*
X65023305Y-23027929D01*
X65425164Y-22626070D01*
X65416686Y-22450600D01*
X65098158Y-22357462D01*
X64768234Y-22393310D01*
X64629924Y-22450600D01*
X64621446Y-22626070D01*
X63048600Y-22626070D01*
X63048600Y-21987696D01*
X70541221Y-21987696D01*
X70549699Y-22163166D01*
X70868227Y-22256304D01*
X71198151Y-22220456D01*
X71336461Y-22163166D01*
X71344939Y-21987696D01*
X70943080Y-21585837D01*
X70541221Y-21987696D01*
X63048600Y-21987696D01*
X63048600Y-21334207D01*
X70095836Y-21334207D01*
X70131684Y-21664131D01*
X70188974Y-21802441D01*
X70364444Y-21810919D01*
X70766303Y-21409060D01*
X71119857Y-21409060D01*
X71521716Y-21810919D01*
X71697186Y-21802441D01*
X71790324Y-21483913D01*
X71754476Y-21153989D01*
X71697186Y-21015679D01*
X71521716Y-21007201D01*
X71119857Y-21409060D01*
X70766303Y-21409060D01*
X70364444Y-21007201D01*
X70188974Y-21015679D01*
X70095836Y-21334207D01*
X63048600Y-21334207D01*
X63048600Y-20830424D01*
X70541221Y-20830424D01*
X70943080Y-21232283D01*
X71344939Y-20830424D01*
X71336461Y-20654954D01*
X71017933Y-20561816D01*
X70688009Y-20597664D01*
X70549699Y-20654954D01*
X70541221Y-20830424D01*
X63048600Y-20830424D01*
X63048600Y-18998600D01*
X75701400Y-18998600D01*
X75701400Y-29321549D01*
G36*
X77613262Y-50158407D02*
X77579462Y-50192207D01*
X77613262Y-50226007D01*
X77469262Y-50370007D01*
X77265398Y-50370007D01*
X77121398Y-50226007D01*
X77155198Y-50192207D01*
X77121398Y-50158407D01*
X77265398Y-50014407D01*
X77469262Y-50014407D01*
X77613262Y-50158407D01*
X77613262Y-50158407D01*
G37*
X77613262Y-50158407D02*
X77579462Y-50192207D01*
X77613262Y-50226007D01*
X77469262Y-50370007D01*
X77265398Y-50370007D01*
X77121398Y-50226007D01*
X77155198Y-50192207D01*
X77121398Y-50158407D01*
X77265398Y-50014407D01*
X77469262Y-50014407D01*
X77613262Y-50158407D01*
G36*
X50266768Y-50158407D02*
X50232968Y-50192207D01*
X50266768Y-50226007D01*
X50122768Y-50370007D01*
X49918904Y-50370007D01*
X49774904Y-50226007D01*
X49808704Y-50192207D01*
X49774904Y-50158407D01*
X49918904Y-50014407D01*
X50122768Y-50014407D01*
X50266768Y-50158407D01*
X50266768Y-50158407D01*
G37*
X50266768Y-50158407D02*
X50232968Y-50192207D01*
X50266768Y-50226007D01*
X50122768Y-50370007D01*
X49918904Y-50370007D01*
X49774904Y-50226007D01*
X49808704Y-50192207D01*
X49774904Y-50158407D01*
X49918904Y-50014407D01*
X50122768Y-50014407D01*
X50266768Y-50158407D01*
G36*
X77613262Y-46158407D02*
X77579462Y-46192207D01*
X77613262Y-46226007D01*
X77469262Y-46370007D01*
X77265398Y-46370007D01*
X77121398Y-46226007D01*
X77155198Y-46192207D01*
X77121398Y-46158407D01*
X77265398Y-46014407D01*
X77469262Y-46014407D01*
X77613262Y-46158407D01*
X77613262Y-46158407D01*
G37*
X77613262Y-46158407D02*
X77579462Y-46192207D01*
X77613262Y-46226007D01*
X77469262Y-46370007D01*
X77265398Y-46370007D01*
X77121398Y-46226007D01*
X77155198Y-46192207D01*
X77121398Y-46158407D01*
X77265398Y-46014407D01*
X77469262Y-46014407D01*
X77613262Y-46158407D01*
G36*
X50266768Y-46158407D02*
X50232968Y-46192207D01*
X50266768Y-46226007D01*
X50122768Y-46370007D01*
X49918904Y-46370007D01*
X49774904Y-46226007D01*
X49808704Y-46192207D01*
X49774904Y-46158407D01*
X49918904Y-46014407D01*
X50122768Y-46014407D01*
X50266768Y-46158407D01*
X50266768Y-46158407D01*
G37*
X50266768Y-46158407D02*
X50232968Y-46192207D01*
X50266768Y-46226007D01*
X50122768Y-46370007D01*
X49918904Y-46370007D01*
X49774904Y-46226007D01*
X49808704Y-46192207D01*
X49774904Y-46158407D01*
X49918904Y-46014407D01*
X50122768Y-46014407D01*
X50266768Y-46158407D01*
M02*
