G04 #@! TF.FileFunction,Soldermask,Bot*
%FSLAX46Y46*%
G04 Gerber Fmt 4.6, Leading zero omitted, Abs format (unit mm)*
G04 Created by KiCad (PCBNEW 4.0.0-rc2-stable) date 3/3/2016 3:45:44 PM*
%MOMM*%
G01*
G04 APERTURE LIST*
%ADD10C,0.150000*%
%ADD11R,4.000000X1.000000*%
%ADD12C,0.600000*%
%ADD13C,0.500000*%
G04 APERTURE END LIST*
D10*
D11*
X73827440Y-50192207D03*
X73827440Y-48192207D03*
X73827440Y-46192207D03*
D12*
X72827440Y-50192207D03*
X72827440Y-48192207D03*
X72827440Y-46192207D03*
D11*
X49020840Y-46192207D03*
X49020840Y-48192207D03*
X49020840Y-50192207D03*
D12*
X50020840Y-46192207D03*
X50020840Y-48192207D03*
X50020840Y-50192207D03*
D10*
G36*
X56971429Y-44344856D02*
X56399002Y-41399975D01*
X58951233Y-40903872D01*
X59523660Y-43848753D01*
X56971429Y-44344856D01*
X56971429Y-44344856D01*
G37*
G36*
X52397304Y-23433439D02*
X51824877Y-20488557D01*
X55358734Y-19801645D01*
X55931161Y-22746527D01*
X52397304Y-23433439D01*
X52397304Y-23433439D01*
G37*
D13*
X53515482Y-19752451D03*
D10*
G36*
X63793650Y-50101976D02*
X63412032Y-48138721D01*
X64158068Y-47993706D01*
X64539686Y-49956961D01*
X63793650Y-50101976D01*
X63793650Y-50101976D01*
G37*
G36*
X65040317Y-49859649D02*
X64658699Y-47896394D01*
X65404735Y-47751379D01*
X65786353Y-49714634D01*
X65040317Y-49859649D01*
X65040317Y-49859649D01*
G37*
G36*
X66286983Y-49617322D02*
X65905365Y-47654067D01*
X66651401Y-47509052D01*
X67033019Y-49472307D01*
X66286983Y-49617322D01*
X66286983Y-49617322D01*
G37*
G36*
X67533650Y-49374995D02*
X67152032Y-47411740D01*
X67898068Y-47266725D01*
X68279686Y-49229980D01*
X67533650Y-49374995D01*
X67533650Y-49374995D01*
G37*
G36*
X63183062Y-46960769D02*
X62801444Y-44997514D01*
X63547480Y-44852499D01*
X63929098Y-46815754D01*
X63183062Y-46960769D01*
X63183062Y-46960769D01*
G37*
G36*
X64429729Y-46718442D02*
X64048111Y-44755187D01*
X64794147Y-44610172D01*
X65175765Y-46573427D01*
X64429729Y-46718442D01*
X64429729Y-46718442D01*
G37*
G36*
X65676395Y-46476115D02*
X65294777Y-44512860D01*
X66040813Y-44367845D01*
X66422431Y-46331100D01*
X65676395Y-46476115D01*
X65676395Y-46476115D01*
G37*
G36*
X66932878Y-46231879D02*
X66551260Y-44268625D01*
X67277664Y-44127427D01*
X67659282Y-46090681D01*
X66932878Y-46231879D01*
X66932878Y-46231879D01*
G37*
G36*
X61674170Y-45827864D02*
X61559685Y-45238888D01*
X62443150Y-45067160D01*
X62557635Y-45656136D01*
X61674170Y-45827864D01*
X61674170Y-45827864D01*
G37*
G36*
X61960384Y-47300305D02*
X61845899Y-46711329D01*
X62729364Y-46539601D01*
X62843849Y-47128577D01*
X61960384Y-47300305D01*
X61960384Y-47300305D01*
G37*
G36*
X60733350Y-47538816D02*
X60618865Y-46949840D01*
X61502330Y-46778112D01*
X61616815Y-47367088D01*
X60733350Y-47538816D01*
X60733350Y-47538816D01*
G37*
G36*
X60447136Y-46066375D02*
X60332651Y-45477399D01*
X61216116Y-45305671D01*
X61330601Y-45894647D01*
X60447136Y-46066375D01*
X60447136Y-46066375D01*
G37*
G36*
X59220102Y-46304886D02*
X59105617Y-45715910D01*
X59989082Y-45544182D01*
X60103567Y-46133158D01*
X59220102Y-46304886D01*
X59220102Y-46304886D01*
G37*
G36*
X59506316Y-47777327D02*
X59391831Y-47188351D01*
X60275296Y-47016623D01*
X60389781Y-47605599D01*
X59506316Y-47777327D01*
X59506316Y-47777327D01*
G37*
G36*
X62550740Y-46930873D02*
X62512578Y-46734547D01*
X63396042Y-46562819D01*
X63434204Y-46759145D01*
X62550740Y-46930873D01*
X62550740Y-46930873D01*
G37*
M02*
