M48
;DRILL file {KiCad 4.0.0-rc2-stable} date 3/3/2016 3:47:20 PM
;FORMAT={-:-/ absolute / inch / decimal}
FMAT,2
INCH,TZ
T1C0.012
T2C0.016
%
G90
G05
M72
T1
X2.2378Y-0.8555G85X2.2378Y-0.8555
G05
X2.2378Y-1.1005G85X2.2378Y-1.1005
G05
X2.2378Y-1.3454G85X2.2378Y-1.3454
G05
X2.2379Y-1.5706G85X2.2379Y-1.5706
G05
X2.2379Y-1.8287G85X2.2379Y-1.8287
G05
X2.3733Y-1.4342G85X2.3733Y-1.4342
G05
X2.4732Y-0.9394G85X2.4732Y-0.9394
G05
X2.6157Y-1.4297G85X2.6157Y-1.4297
G05
X2.6955Y-0.9669G85X2.6955Y-0.9669
G05
X2.7181Y-1.7224G85X2.7181Y-1.7224
G05
X2.7865Y-1.3335G85X2.7865Y-1.3335
G05
X2.8157Y-1.1267G85X2.8157Y-1.1267
G05
X2.8467Y-1.9325G85X2.8467Y-1.9325
G05
X2.9744Y-1.1994G85X2.9744Y-1.1994
G05
T2
X1.9693Y-1.8186G85X1.9693Y-1.8186
G05
X1.9693Y-1.8973G85X1.9693Y-1.8973
G05
X1.9693Y-1.9761G85X1.9693Y-1.9761
G05
X3.1554Y-1.8186G85X3.1554Y-1.8186
G05
X3.1554Y-1.8973G85X3.1554Y-1.8973
G05
X3.1554Y-1.9761G85X3.1554Y-1.9761
G05
T0
M30
