G04 #@! TF.FileFunction,Soldermask,Top*
%FSLAX46Y46*%
G04 Gerber Fmt 4.6, Leading zero omitted, Abs format (unit mm)*
G04 Created by KiCad (PCBNEW 4.0.0-rc2-stable) date 3/3/2016 3:46:15 PM*
%MOMM*%
G01*
G04 APERTURE LIST*
%ADD10C,0.150000*%
%ADD11R,0.500000X1.800000*%
%ADD12R,0.320000X2.300000*%
%ADD13R,0.800000X2.300000*%
%ADD14R,4.000000X1.000000*%
%ADD15C,0.600000*%
G04 APERTURE END LIST*
D10*
D11*
X56728285Y-45282310D03*
D12*
X54828285Y-45282310D03*
D13*
X56078285Y-45282310D03*
D11*
X56728285Y-38591890D03*
D12*
X54828285Y-38591890D03*
D13*
X56078285Y-38591890D03*
D11*
X56728285Y-31901470D03*
D12*
X54828285Y-31901470D03*
D13*
X56078285Y-31901470D03*
D10*
G36*
X56290609Y-28087532D02*
X54993241Y-26839800D01*
X55339833Y-26479420D01*
X56637201Y-27727152D01*
X56290609Y-28087532D01*
X56290609Y-28087532D01*
G37*
G36*
X57850236Y-26826516D02*
X56192488Y-25232191D01*
X56414308Y-25001548D01*
X58072056Y-26595873D01*
X57850236Y-26826516D01*
X57850236Y-26826516D01*
G37*
G36*
X56817391Y-27900448D02*
X55159643Y-26306124D01*
X55714191Y-25729516D01*
X57371939Y-27323840D01*
X56817391Y-27900448D01*
X56817391Y-27900448D01*
G37*
G36*
X61138312Y-32785191D02*
X59859535Y-31518413D01*
X60211418Y-31163197D01*
X61490195Y-32429975D01*
X61138312Y-32785191D01*
X61138312Y-32785191D01*
G37*
G36*
X62716414Y-31547373D02*
X61082421Y-29928711D01*
X61307626Y-29701373D01*
X62941619Y-31320035D01*
X62716414Y-31547373D01*
X62716414Y-31547373D01*
G37*
G36*
X61667802Y-32605917D02*
X60033809Y-30987255D01*
X60596822Y-30418909D01*
X62230815Y-32037571D01*
X61667802Y-32605917D01*
X61667802Y-32605917D01*
G37*
G36*
X65900461Y-37489757D02*
X64615040Y-36229720D01*
X64965051Y-35872659D01*
X66250472Y-37132696D01*
X65900461Y-37489757D01*
X65900461Y-37489757D01*
G37*
G36*
X67472034Y-36243658D02*
X65829552Y-34633611D01*
X66053558Y-34405092D01*
X67696040Y-36015139D01*
X67472034Y-36243658D01*
X67472034Y-36243658D01*
G37*
G36*
X66429003Y-37307702D02*
X64786521Y-35697654D01*
X65346537Y-35126356D01*
X66989019Y-36736404D01*
X66429003Y-37307702D01*
X66429003Y-37307702D01*
G37*
G36*
X70713995Y-42194898D02*
X69422329Y-40941264D01*
X69770561Y-40582468D01*
X71062227Y-41836102D01*
X70713995Y-42194898D01*
X70713995Y-42194898D01*
G37*
G36*
X72279355Y-40941006D02*
X70628893Y-39339140D01*
X70851761Y-39109510D01*
X72502223Y-40711376D01*
X72279355Y-40941006D01*
X72279355Y-40941006D01*
G37*
G36*
X71241625Y-42010218D02*
X69591162Y-40408352D01*
X70148333Y-39834278D01*
X71798796Y-41436144D01*
X71241625Y-42010218D01*
X71241625Y-42010218D01*
G37*
D11*
X76140585Y-43786797D03*
D12*
X74240585Y-43786797D03*
D13*
X75490585Y-43786797D03*
D11*
X76140585Y-37096290D03*
D12*
X74240585Y-37096290D03*
D13*
X75490585Y-37096290D03*
D11*
X76140585Y-30405792D03*
D12*
X74240585Y-30405792D03*
D13*
X75490585Y-30405792D03*
D11*
X76140585Y-23715292D03*
D12*
X74240585Y-23715292D03*
D13*
X75490585Y-23715292D03*
D14*
X81610790Y-50192207D03*
X81610790Y-48192207D03*
X81610790Y-46192207D03*
D15*
X80610790Y-50192207D03*
X80610790Y-48192207D03*
X80610790Y-46192207D03*
D14*
X49020840Y-46192207D03*
X49020840Y-48192207D03*
X49020840Y-50192207D03*
D15*
X50020840Y-46192207D03*
X50020840Y-48192207D03*
X50020840Y-50192207D03*
M02*
