G04 #@! TF.FileFunction,Copper,L2,Bot,Signal*
%FSLAX46Y46*%
G04 Gerber Fmt 4.6, Leading zero omitted, Abs format (unit mm)*
G04 Created by KiCad (PCBNEW 4.0.0-rc2-stable) date 3/3/2016 3:47:18 PM*
%MOMM*%
G01*
G04 APERTURE LIST*
%ADD10C,0.150000*%
%ADD11C,0.500000*%
%ADD12R,4.000000X1.000000*%
%ADD13C,0.600000*%
%ADD14R,0.760000X2.000000*%
%ADD15R,0.740000X2.000000*%
%ADD16R,0.900000X0.600000*%
%ADD17R,0.900000X0.200000*%
%ADD18R,3.800000X0.200000*%
%ADD19R,6.500000X0.200000*%
%ADD20R,0.200000X0.400000*%
%ADD21R,0.200000X0.800000*%
%ADD22R,2.000000X0.200000*%
%ADD23C,0.254000*%
%ADD24C,0.152400*%
G04 APERTURE END LIST*
D10*
D11*
X56842574Y-46447844D03*
X56842574Y-39893965D03*
X72307438Y-49085082D03*
X69040168Y-43748697D03*
X60281380Y-36428350D03*
X66438065Y-36315645D03*
X70776463Y-33870201D03*
X71519907Y-28618940D03*
X68465798Y-24558385D03*
X62819025Y-23861350D03*
X56840280Y-21730643D03*
X56840280Y-27951940D03*
X56840280Y-34173247D03*
D12*
X81147030Y-50192200D03*
X81147030Y-48192200D03*
X81147030Y-46192200D03*
D13*
X80147030Y-50192200D03*
X80147030Y-48192200D03*
X80147030Y-46192200D03*
D12*
X49020840Y-46192200D03*
X49020840Y-48192200D03*
X49020840Y-50192200D03*
D13*
X50020840Y-46192200D03*
X50020840Y-48192200D03*
X50020840Y-50192200D03*
D10*
G36*
X52370325Y-39379760D02*
X55110177Y-38157788D01*
X56169219Y-40532326D01*
X53429367Y-41754298D01*
X52370325Y-39379760D01*
X52370325Y-39379760D01*
G37*
G36*
X71710936Y-30206387D02*
X74450788Y-28984415D01*
X75917154Y-32272237D01*
X73177302Y-33494209D01*
X71710936Y-30206387D01*
X71710936Y-30206387D01*
G37*
D11*
X75549284Y-30465397D03*
D14*
X55832055Y-21133350D03*
X54562055Y-21133350D03*
X53292055Y-21133350D03*
X52022055Y-21133350D03*
X55832055Y-24333350D03*
X54562055Y-24333350D03*
X53292055Y-24333350D03*
D15*
X52022055Y-24333350D03*
D16*
X57027055Y-25033350D03*
X57027055Y-23533350D03*
X58277055Y-23533350D03*
X58277055Y-25033350D03*
X59527055Y-25033350D03*
X59527055Y-23533350D03*
D17*
X56377055Y-23583350D03*
D18*
X56377055Y-22933350D03*
D19*
X56377055Y-22483350D03*
D20*
X58177055Y-23133350D03*
X54577055Y-23133350D03*
D21*
X53227055Y-22933350D03*
X59527055Y-22933350D03*
D22*
X58227055Y-25033350D03*
D23*
X73810000Y-31240000D02*
X75550000Y-30470000D01*
X73810000Y-31240000D02*
X75550000Y-30470000D01*
X73810000Y-31240000D02*
X75550000Y-30470000D01*
X73810000Y-31240000D02*
X75550000Y-30470000D01*
X73810000Y-31240000D02*
X75550000Y-30470000D01*
X73810000Y-31240000D02*
X75550000Y-30470000D01*
X73810000Y-31240000D02*
X75550000Y-30470000D01*
X73810000Y-31240000D02*
X75550000Y-30470000D01*
X73810000Y-31240000D02*
X75550000Y-30470000D01*
X54270000Y-39960000D02*
X58230000Y-25030000D01*
X54270000Y-39960000D02*
X58230000Y-25030000D01*
X54270000Y-39960000D02*
X58230000Y-25030000D01*
X54270000Y-39960000D02*
X58230000Y-25030000D01*
X54270000Y-39960000D02*
X58230000Y-25030000D01*
X54270000Y-39960000D02*
X58230000Y-25030000D01*
X54270000Y-39960000D02*
X58230000Y-25030000D01*
X54270000Y-39960000D02*
X58230000Y-25030000D01*
X54270000Y-39960000D02*
X58230000Y-25030000D01*
D24*
G36*
X68479714Y-19285014D02*
X69769088Y-19634018D01*
X70940037Y-20127558D01*
X72992729Y-21437371D01*
X74598822Y-23092134D01*
X75786894Y-25020316D01*
X76538383Y-27177189D01*
X76880595Y-29445566D01*
X76792609Y-31733220D01*
X76284267Y-33952328D01*
X75366690Y-36051040D01*
X74023298Y-37910373D01*
X72228022Y-39459045D01*
X72207876Y-39484861D01*
X72183919Y-39507194D01*
X72174746Y-39527314D01*
X72161145Y-39544743D01*
X72152411Y-39576306D01*
X72138826Y-39606104D01*
X72138051Y-39628199D01*
X72132154Y-39649510D01*
X72136164Y-39682014D01*
X72135016Y-39714742D01*
X72142756Y-39735453D01*
X72145463Y-39757396D01*
X72161605Y-39785889D01*
X72173070Y-39816568D01*
X75563070Y-45296568D01*
X75585073Y-45320170D01*
X75603000Y-45347000D01*
X75621787Y-45359553D01*
X75637194Y-45376080D01*
X75666553Y-45389465D01*
X75693384Y-45407393D01*
X75715545Y-45411801D01*
X75736104Y-45421174D01*
X75768352Y-45422305D01*
X75800000Y-45428600D01*
X78623883Y-45428600D01*
X78562830Y-45575995D01*
X78562830Y-45868350D01*
X78708880Y-46014400D01*
X79279110Y-46014400D01*
X79247618Y-46130533D01*
X79278412Y-46370000D01*
X78708880Y-46370000D01*
X78562830Y-46516050D01*
X78562830Y-46808405D01*
X78651769Y-47023123D01*
X78816108Y-47187461D01*
X79030826Y-47276400D01*
X80823180Y-47276400D01*
X80969230Y-47130350D01*
X80969230Y-46538598D01*
X81046442Y-46253867D01*
X81013076Y-45994400D01*
X81324830Y-45994400D01*
X81324830Y-46014400D01*
X81344830Y-46014400D01*
X81344830Y-46370000D01*
X81324830Y-46370000D01*
X81324830Y-47130350D01*
X81470880Y-47276400D01*
X83181400Y-47276400D01*
X83181400Y-47466082D01*
X83147030Y-47459122D01*
X79147030Y-47459122D01*
X79062316Y-47475062D01*
X78984512Y-47525128D01*
X78932315Y-47601520D01*
X78913952Y-47692200D01*
X78913952Y-48692200D01*
X78929892Y-48776914D01*
X78979958Y-48854718D01*
X79056350Y-48906915D01*
X79147030Y-48925278D01*
X83147030Y-48925278D01*
X83181400Y-48918811D01*
X83181400Y-49108000D01*
X81470880Y-49108000D01*
X81324830Y-49254050D01*
X81324830Y-50014400D01*
X81344830Y-50014400D01*
X81344830Y-50370000D01*
X81324830Y-50370000D01*
X81324830Y-50390000D01*
X81009526Y-50390000D01*
X81046442Y-50253867D01*
X81001577Y-49904983D01*
X80969230Y-49826890D01*
X80969230Y-49254050D01*
X80823180Y-49108000D01*
X79030826Y-49108000D01*
X78816108Y-49196939D01*
X78651769Y-49361277D01*
X78562830Y-49575995D01*
X78562830Y-49868350D01*
X78708880Y-50014400D01*
X79279110Y-50014400D01*
X79247618Y-50130533D01*
X79278412Y-50370000D01*
X78708880Y-50370000D01*
X78562830Y-50516050D01*
X78562830Y-50808405D01*
X78593065Y-50881400D01*
X69650176Y-50881400D01*
X68638290Y-49143357D01*
X71458893Y-49143357D01*
X71545785Y-49463645D01*
X71748633Y-49726301D01*
X71869713Y-49814343D01*
X71917065Y-49788406D01*
X72266858Y-49788406D01*
X72365713Y-49933627D01*
X72686001Y-49846735D01*
X72948657Y-49643887D01*
X73036699Y-49522807D01*
X72952305Y-49368732D01*
X72399745Y-49235845D01*
X72266858Y-49788406D01*
X71917065Y-49788406D01*
X72023788Y-49729949D01*
X72156675Y-49177389D01*
X71604114Y-49044502D01*
X71458893Y-49143357D01*
X68638290Y-49143357D01*
X68550622Y-48992775D01*
X72458201Y-48992775D01*
X73010762Y-49125662D01*
X73155983Y-49026807D01*
X73069091Y-48706519D01*
X72866243Y-48443863D01*
X72745163Y-48355821D01*
X72591088Y-48440215D01*
X72458201Y-48992775D01*
X68550622Y-48992775D01*
X68349520Y-48647357D01*
X71578177Y-48647357D01*
X71662571Y-48801432D01*
X72215131Y-48934319D01*
X72348018Y-48381758D01*
X72249163Y-48236537D01*
X71928875Y-48323429D01*
X71666219Y-48526277D01*
X71578177Y-48647357D01*
X68349520Y-48647357D01*
X65531453Y-43806972D01*
X68191623Y-43806972D01*
X68278515Y-44127260D01*
X68481363Y-44389916D01*
X68602443Y-44477958D01*
X68649795Y-44452021D01*
X68999588Y-44452021D01*
X69098443Y-44597242D01*
X69418731Y-44510350D01*
X69681387Y-44307502D01*
X69769429Y-44186422D01*
X69685035Y-44032347D01*
X69132475Y-43899460D01*
X68999588Y-44452021D01*
X68649795Y-44452021D01*
X68756518Y-44393564D01*
X68889405Y-43841004D01*
X68336844Y-43708117D01*
X68191623Y-43806972D01*
X65531453Y-43806972D01*
X65443785Y-43656390D01*
X69190931Y-43656390D01*
X69743492Y-43789277D01*
X69888713Y-43690422D01*
X69801821Y-43370134D01*
X69598973Y-43107478D01*
X69477893Y-43019436D01*
X69323818Y-43103830D01*
X69190931Y-43656390D01*
X65443785Y-43656390D01*
X65242683Y-43310972D01*
X68310907Y-43310972D01*
X68395301Y-43465047D01*
X68947861Y-43597934D01*
X69080748Y-43045373D01*
X68981893Y-42900152D01*
X68661605Y-42987044D01*
X68398949Y-43189892D01*
X68310907Y-43310972D01*
X65242683Y-43310972D01*
X64170768Y-41469825D01*
X64146968Y-41442884D01*
X64127000Y-41413000D01*
X64111301Y-41402510D01*
X64098798Y-41388357D01*
X64066501Y-41372575D01*
X64036616Y-41352607D01*
X64018096Y-41348923D01*
X64001130Y-41340633D01*
X63965253Y-41338412D01*
X63930000Y-41331400D01*
X59630000Y-41331400D01*
X59523384Y-41352607D01*
X59433000Y-41413000D01*
X59372607Y-41503384D01*
X59351400Y-41610000D01*
X59351400Y-50881400D01*
X51574805Y-50881400D01*
X51605040Y-50808405D01*
X51605040Y-50516050D01*
X51458990Y-50370000D01*
X50888760Y-50370000D01*
X50920252Y-50253867D01*
X50889458Y-50014400D01*
X51458990Y-50014400D01*
X51605040Y-49868350D01*
X51605040Y-49575995D01*
X51516101Y-49361277D01*
X51351762Y-49196939D01*
X51137044Y-49108000D01*
X49344690Y-49108000D01*
X49198640Y-49254050D01*
X49198640Y-49845802D01*
X49121428Y-50130533D01*
X49154794Y-50390000D01*
X48843040Y-50390000D01*
X48843040Y-50370000D01*
X48823040Y-50370000D01*
X48823040Y-50014400D01*
X48843040Y-50014400D01*
X48843040Y-49254050D01*
X48696990Y-49108000D01*
X46908600Y-49108000D01*
X46908600Y-48892184D01*
X46930160Y-48906915D01*
X47020840Y-48925278D01*
X51020840Y-48925278D01*
X51105554Y-48909338D01*
X51183358Y-48859272D01*
X51235555Y-48782880D01*
X51253918Y-48692200D01*
X51253918Y-47692200D01*
X51237978Y-47607486D01*
X51187912Y-47529682D01*
X51111520Y-47477485D01*
X51020840Y-47459122D01*
X47020840Y-47459122D01*
X46936126Y-47475062D01*
X46908600Y-47492775D01*
X46908600Y-47276400D01*
X48696990Y-47276400D01*
X48843040Y-47130350D01*
X48843040Y-46370000D01*
X48823040Y-46370000D01*
X48823040Y-46014400D01*
X48843040Y-46014400D01*
X48843040Y-45994400D01*
X49158344Y-45994400D01*
X49121428Y-46130533D01*
X49166293Y-46479417D01*
X49198640Y-46557510D01*
X49198640Y-47130350D01*
X49344690Y-47276400D01*
X51137044Y-47276400D01*
X51351762Y-47187461D01*
X51512743Y-47026480D01*
X56440715Y-47026480D01*
X56449193Y-47201950D01*
X56767721Y-47295088D01*
X57097645Y-47259240D01*
X57235955Y-47201950D01*
X57244433Y-47026480D01*
X56842574Y-46624621D01*
X56440715Y-47026480D01*
X51512743Y-47026480D01*
X51516101Y-47023123D01*
X51605040Y-46808405D01*
X51605040Y-46516050D01*
X51461981Y-46372991D01*
X55995330Y-46372991D01*
X56031178Y-46702915D01*
X56088468Y-46841225D01*
X56263938Y-46849703D01*
X56665797Y-46447844D01*
X57019351Y-46447844D01*
X57421210Y-46849703D01*
X57596680Y-46841225D01*
X57689818Y-46522697D01*
X57653970Y-46192773D01*
X57596680Y-46054463D01*
X57421210Y-46045985D01*
X57019351Y-46447844D01*
X56665797Y-46447844D01*
X56263938Y-46045985D01*
X56088468Y-46054463D01*
X55995330Y-46372991D01*
X51461981Y-46372991D01*
X51458990Y-46370000D01*
X50888760Y-46370000D01*
X50920252Y-46253867D01*
X50889458Y-46014400D01*
X51458990Y-46014400D01*
X51604182Y-45869208D01*
X56440715Y-45869208D01*
X56842574Y-46271067D01*
X57244433Y-45869208D01*
X57235955Y-45693738D01*
X56917427Y-45600600D01*
X56587503Y-45636448D01*
X56449193Y-45693738D01*
X56440715Y-45869208D01*
X51604182Y-45869208D01*
X51605040Y-45868350D01*
X51605040Y-45575995D01*
X51516101Y-45361277D01*
X51511908Y-45357084D01*
X51527000Y-45347000D01*
X51587393Y-45256616D01*
X51608600Y-45150000D01*
X51608600Y-35455995D01*
X51703905Y-35455995D01*
X51704113Y-35466899D01*
X51714113Y-35576899D01*
X51728655Y-35615202D01*
X51868655Y-35805202D01*
X51894017Y-35827169D01*
X52174017Y-35977169D01*
X52192740Y-35984219D01*
X52622740Y-36084219D01*
X52628833Y-36085377D01*
X52898833Y-36125377D01*
X52910000Y-36126200D01*
X52950000Y-36126200D01*
X52958652Y-36125707D01*
X53308652Y-36085707D01*
X53317835Y-36084083D01*
X53857835Y-35954083D01*
X53877006Y-35946611D01*
X54237006Y-35746611D01*
X54262651Y-35723374D01*
X54442651Y-35463374D01*
X54455612Y-35429451D01*
X54475612Y-35269451D01*
X54472290Y-35235903D01*
X54452290Y-35175903D01*
X54440006Y-35153035D01*
X54417006Y-35133389D01*
X54327006Y-35083389D01*
X54302775Y-35074878D01*
X54272542Y-35075827D01*
X54245060Y-35088463D01*
X54224659Y-35110795D01*
X54023007Y-35446881D01*
X53846353Y-35570539D01*
X53366261Y-35714567D01*
X53087382Y-35733800D01*
X52953996Y-35733800D01*
X52584566Y-35694913D01*
X52251748Y-35599822D01*
X52136181Y-35525529D01*
X52126200Y-35508893D01*
X52126200Y-35349640D01*
X52203237Y-35265599D01*
X52574269Y-35135739D01*
X52841348Y-35126200D01*
X52878436Y-35126200D01*
X52996118Y-35243882D01*
X53020354Y-35260197D01*
X53050000Y-35266200D01*
X53090000Y-35266200D01*
X53118300Y-35260750D01*
X53168300Y-35240750D01*
X53186965Y-35230006D01*
X53206611Y-35207006D01*
X53256611Y-35117006D01*
X53266200Y-35080000D01*
X53266200Y-34910000D01*
X53265612Y-34900549D01*
X53255612Y-34820549D01*
X53242425Y-34786302D01*
X53172425Y-34686302D01*
X53144078Y-34661845D01*
X53084078Y-34631845D01*
X53055927Y-34624031D01*
X53025903Y-34627710D01*
X52821190Y-34695948D01*
X52206689Y-34804972D01*
X52188730Y-34810512D01*
X51988730Y-34900512D01*
X51959527Y-34923638D01*
X51729527Y-35223638D01*
X51721459Y-35236705D01*
X51713905Y-35265995D01*
X51703905Y-35455995D01*
X51608600Y-35455995D01*
X51608600Y-33864475D01*
X51873931Y-33864475D01*
X51883931Y-34034475D01*
X51889401Y-34058673D01*
X51906118Y-34083882D01*
X52096118Y-34273882D01*
X52112783Y-34286493D01*
X52141585Y-34295734D01*
X52321585Y-34315734D01*
X52324697Y-34316015D01*
X52754697Y-34346015D01*
X52760000Y-34346200D01*
X54080000Y-34346200D01*
X54104097Y-34342290D01*
X54164097Y-34322290D01*
X54194166Y-34303596D01*
X54210750Y-34278300D01*
X54230750Y-34228300D01*
X54236200Y-34200000D01*
X54236200Y-34170000D01*
X54225341Y-34130795D01*
X54195341Y-34080795D01*
X54170445Y-34055420D01*
X54142134Y-34044772D01*
X53832134Y-33994772D01*
X53820000Y-33993800D01*
X52534466Y-33993800D01*
X52266200Y-33962239D01*
X52266200Y-33934747D01*
X52295612Y-33699451D01*
X52295216Y-33677795D01*
X52284542Y-33649494D01*
X52263698Y-33627575D01*
X52163698Y-33557575D01*
X52141063Y-33546769D01*
X52110913Y-33544344D01*
X52082194Y-33553840D01*
X52012194Y-33593840D01*
X51981845Y-33625922D01*
X51881845Y-33825922D01*
X51873931Y-33864475D01*
X51608600Y-33864475D01*
X51608600Y-32770000D01*
X51703800Y-32770000D01*
X51703800Y-32950000D01*
X51707263Y-32972711D01*
X51721830Y-32999221D01*
X51831830Y-33129221D01*
X51847732Y-33143402D01*
X51937732Y-33203402D01*
X51977895Y-33216171D01*
X52007695Y-33210989D01*
X52026153Y-33199112D01*
X52033324Y-33226888D01*
X52052929Y-33249923D01*
X52079950Y-33263515D01*
X52409950Y-33353515D01*
X52423672Y-33355937D01*
X52903672Y-33395937D01*
X52911621Y-33396183D01*
X53381621Y-33386183D01*
X53399540Y-33383652D01*
X53889540Y-33253652D01*
X53912926Y-33242959D01*
X54132926Y-33092959D01*
X54150149Y-33076782D01*
X54220149Y-32986782D01*
X54230197Y-32969646D01*
X54236200Y-32940000D01*
X54236200Y-32700000D01*
X54231348Y-32673244D01*
X54171348Y-32513244D01*
X54149351Y-32481940D01*
X53949351Y-32311940D01*
X53933967Y-32301789D01*
X53904753Y-32293948D01*
X53744753Y-32283948D01*
X53740000Y-32283800D01*
X52900000Y-32283800D01*
X52891939Y-32284228D01*
X52421939Y-32334228D01*
X52407153Y-32337306D01*
X52057153Y-32447306D01*
X52039614Y-32455383D01*
X51799614Y-32605383D01*
X51774659Y-32630795D01*
X51714659Y-32730795D01*
X51703800Y-32770000D01*
X51608600Y-32770000D01*
X51608600Y-31698259D01*
X51648794Y-31724098D01*
X51673813Y-31734461D01*
X52133813Y-31834461D01*
X52144156Y-31835976D01*
X52664156Y-31875976D01*
X52670000Y-31876200D01*
X53810000Y-31876200D01*
X53818652Y-31875707D01*
X54168652Y-31835707D01*
X54187695Y-31830989D01*
X54213132Y-31814621D01*
X54230197Y-31789646D01*
X54236200Y-31760000D01*
X54236200Y-31660000D01*
X54230989Y-31632305D01*
X54214621Y-31606868D01*
X54189646Y-31589803D01*
X54160000Y-31583800D01*
X54065641Y-31583800D01*
X54010017Y-31559961D01*
X53975694Y-31553922D01*
X53447849Y-31583800D01*
X53021722Y-31583800D01*
X52586066Y-31563997D01*
X52273009Y-31528220D01*
X52297399Y-31525840D01*
X52304944Y-31524720D01*
X52754944Y-31434720D01*
X52793882Y-31413882D01*
X52833882Y-31373882D01*
X52850197Y-31349646D01*
X52856200Y-31320000D01*
X52856200Y-31280000D01*
X52845341Y-31240795D01*
X52815341Y-31190795D01*
X52806036Y-31178363D01*
X52781532Y-31160630D01*
X52671532Y-31110630D01*
X52640000Y-31103800D01*
X52600000Y-31103800D01*
X52569983Y-31109961D01*
X52519699Y-31131511D01*
X52369054Y-31109679D01*
X52976717Y-31055903D01*
X52979909Y-31055553D01*
X54199909Y-30895553D01*
X54224078Y-30888155D01*
X54324078Y-30838155D01*
X54343132Y-30824621D01*
X54360197Y-30799646D01*
X54366200Y-30770000D01*
X54366200Y-30700000D01*
X54362290Y-30675903D01*
X54342290Y-30615903D01*
X54333980Y-30598612D01*
X54312837Y-30576981D01*
X54284944Y-30565280D01*
X54234944Y-30555280D01*
X54213101Y-30554113D01*
X53003101Y-30664113D01*
X52999517Y-30664524D01*
X51919517Y-30814524D01*
X51912047Y-30815945D01*
X51608600Y-30889508D01*
X51608600Y-28746195D01*
X51703895Y-28746195D01*
X51704113Y-28756899D01*
X51714113Y-28866899D01*
X51728655Y-28905202D01*
X51868655Y-29095202D01*
X51894017Y-29117169D01*
X52174017Y-29267169D01*
X52192740Y-29274219D01*
X52622740Y-29374219D01*
X52631585Y-29375734D01*
X52901585Y-29405734D01*
X52910000Y-29406200D01*
X52950000Y-29406200D01*
X52956508Y-29405922D01*
X53306508Y-29375922D01*
X53317835Y-29374083D01*
X53857835Y-29244083D01*
X53877006Y-29236611D01*
X54237006Y-29036611D01*
X54263402Y-29012268D01*
X54443402Y-28742268D01*
X54455612Y-28709451D01*
X54475612Y-28549451D01*
X54470750Y-28511700D01*
X54450750Y-28461700D01*
X54440006Y-28443035D01*
X54417006Y-28423389D01*
X54327006Y-28373389D01*
X54303741Y-28365049D01*
X54273498Y-28365608D01*
X54245856Y-28377889D01*
X54225169Y-28399957D01*
X54023426Y-28726588D01*
X53845771Y-28850947D01*
X53366827Y-29004209D01*
X53088679Y-29013800D01*
X52953996Y-29013800D01*
X52584566Y-28974913D01*
X52249800Y-28879265D01*
X52135096Y-28813720D01*
X52126200Y-28798893D01*
X52126200Y-28637913D01*
X52204168Y-28545769D01*
X52574708Y-28425343D01*
X52842713Y-28406200D01*
X52878436Y-28406200D01*
X52996118Y-28523882D01*
X53020354Y-28540197D01*
X53050000Y-28546200D01*
X53090000Y-28546200D01*
X53118300Y-28540750D01*
X53168300Y-28520750D01*
X53183814Y-28512344D01*
X53204617Y-28490386D01*
X53254617Y-28410386D01*
X53266200Y-28370000D01*
X53266200Y-28200000D01*
X53265612Y-28190549D01*
X53255612Y-28110549D01*
X53244287Y-28079090D01*
X53174287Y-27969090D01*
X53160323Y-27952781D01*
X53134097Y-27937710D01*
X53074097Y-27917710D01*
X53055927Y-27914031D01*
X53025903Y-27917710D01*
X52821765Y-27985756D01*
X52207866Y-28084772D01*
X52185922Y-28091845D01*
X51985922Y-28191845D01*
X51960297Y-28212650D01*
X51730297Y-28502650D01*
X51721372Y-28516885D01*
X51713895Y-28546195D01*
X51703895Y-28746195D01*
X51608600Y-28746195D01*
X51608600Y-27877087D01*
X55993036Y-27877087D01*
X56028884Y-28207011D01*
X56086174Y-28345321D01*
X56261644Y-28353799D01*
X56663503Y-27951940D01*
X56261644Y-27550081D01*
X56086174Y-27558559D01*
X55993036Y-27877087D01*
X51608600Y-27877087D01*
X51608600Y-27154475D01*
X51873931Y-27154475D01*
X51883931Y-27324475D01*
X51889401Y-27348673D01*
X51906118Y-27373882D01*
X52096118Y-27563882D01*
X52116506Y-27578444D01*
X52145773Y-27586083D01*
X52325276Y-27596055D01*
X52754697Y-27626015D01*
X52758476Y-27626185D01*
X53258476Y-27636185D01*
X53260000Y-27636200D01*
X54080000Y-27636200D01*
X54104097Y-27632290D01*
X54164097Y-27612290D01*
X54194166Y-27593596D01*
X54210750Y-27568300D01*
X54230750Y-27518300D01*
X54236200Y-27490000D01*
X54236200Y-27450000D01*
X54233945Y-27431599D01*
X54220960Y-27404280D01*
X54190960Y-27364280D01*
X54170445Y-27345420D01*
X54142134Y-27334772D01*
X53832134Y-27284772D01*
X53822626Y-27283845D01*
X53532626Y-27273845D01*
X53530000Y-27273800D01*
X52533355Y-27273800D01*
X52266200Y-27250228D01*
X52266200Y-27214747D01*
X52295612Y-26979451D01*
X52295216Y-26957795D01*
X52284542Y-26929494D01*
X52263698Y-26907575D01*
X52163698Y-26837575D01*
X52141063Y-26826769D01*
X52110913Y-26824344D01*
X52082194Y-26833840D01*
X52012194Y-26873840D01*
X51999368Y-26883054D01*
X51981202Y-26907239D01*
X51881202Y-27117239D01*
X51873931Y-27154475D01*
X51608600Y-27154475D01*
X51608600Y-26320000D01*
X51763800Y-26320000D01*
X51763800Y-26420000D01*
X51773840Y-26457806D01*
X51813840Y-26527806D01*
X51830577Y-26547998D01*
X51857036Y-26562657D01*
X51887113Y-26565867D01*
X52844470Y-26476115D01*
X53229191Y-26466955D01*
X53246118Y-26483882D01*
X53275903Y-26502290D01*
X53815903Y-26682290D01*
X53821874Y-26684013D01*
X54311874Y-26804013D01*
X54330000Y-26806200D01*
X54400000Y-26806200D01*
X54427695Y-26800989D01*
X54453132Y-26784621D01*
X54470197Y-26759646D01*
X54476200Y-26730000D01*
X54476200Y-26660000D01*
X54473334Y-26639298D01*
X54459502Y-26612398D01*
X54419502Y-26562398D01*
X54388922Y-26539502D01*
X53998922Y-26379502D01*
X53989881Y-26376439D01*
X53801044Y-26325402D01*
X53996967Y-26251269D01*
X54002039Y-26249137D01*
X54412039Y-26059137D01*
X54433882Y-26043882D01*
X54483882Y-25993882D01*
X54499617Y-25970981D01*
X54506186Y-25941455D01*
X54500750Y-25911700D01*
X54480750Y-25861700D01*
X54455720Y-25829040D01*
X54375720Y-25769040D01*
X54360726Y-25760269D01*
X54331176Y-25753809D01*
X54301441Y-25759354D01*
X53834581Y-25948085D01*
X53155301Y-26154822D01*
X52946021Y-26173848D01*
X52228942Y-26183807D01*
X52218413Y-26184686D01*
X51828413Y-26244686D01*
X51812305Y-26249011D01*
X51786868Y-26265379D01*
X51769803Y-26290354D01*
X51763800Y-26320000D01*
X51608600Y-26320000D01*
X51608600Y-25557628D01*
X51652055Y-25566428D01*
X51709157Y-25566428D01*
X51722396Y-25589882D01*
X51746341Y-25608363D01*
X51775590Y-25616072D01*
X52463576Y-25655955D01*
X52731585Y-25685734D01*
X52749087Y-25685656D01*
X52777806Y-25676160D01*
X52798660Y-25664244D01*
X52809001Y-25674230D01*
X52837220Y-25685121D01*
X52867453Y-25684174D01*
X53028843Y-25646200D01*
X53640000Y-25646200D01*
X53667695Y-25640989D01*
X53693132Y-25624621D01*
X53703732Y-25609108D01*
X53713755Y-25620563D01*
X53740961Y-25633783D01*
X53771167Y-25635377D01*
X54041167Y-25595377D01*
X54069205Y-25585341D01*
X54121249Y-25554115D01*
X54182055Y-25566428D01*
X54942055Y-25566428D01*
X55026769Y-25550488D01*
X55104573Y-25500422D01*
X55156770Y-25424030D01*
X55175133Y-25333350D01*
X55175133Y-23333350D01*
X55162541Y-23266428D01*
X55232529Y-23266428D01*
X55218977Y-23333350D01*
X55218977Y-25333350D01*
X55234917Y-25418064D01*
X55284983Y-25495868D01*
X55361375Y-25548065D01*
X55452055Y-25566428D01*
X56212055Y-25566428D01*
X56296769Y-25550488D01*
X56374573Y-25500422D01*
X56394318Y-25471524D01*
X56409983Y-25495868D01*
X56486375Y-25548065D01*
X56577055Y-25566428D01*
X57477055Y-25566428D01*
X57561769Y-25550488D01*
X57639573Y-25500422D01*
X57651593Y-25482830D01*
X57659983Y-25495868D01*
X57726486Y-25541308D01*
X57266961Y-27273809D01*
X57238697Y-27302073D01*
X57233661Y-27197834D01*
X56915133Y-27104696D01*
X56585209Y-27140544D01*
X56446899Y-27197834D01*
X56438421Y-27373304D01*
X56840280Y-27775163D01*
X56891758Y-27723686D01*
X57068535Y-27900463D01*
X57017057Y-27951940D01*
X57068535Y-28003418D01*
X56891758Y-28180195D01*
X56840280Y-28128717D01*
X56438421Y-28530576D01*
X56446899Y-28706046D01*
X56765427Y-28799184D01*
X56865251Y-28788338D01*
X54358942Y-38237630D01*
X52275387Y-39166894D01*
X52204512Y-39215957D01*
X52153847Y-39293373D01*
X52137293Y-39384401D01*
X52157459Y-39474698D01*
X53216501Y-41849236D01*
X53265564Y-41920111D01*
X53342980Y-41970776D01*
X53434009Y-41987330D01*
X53524305Y-41967164D01*
X56264157Y-40745192D01*
X56335032Y-40696129D01*
X56385697Y-40618713D01*
X56389347Y-40598642D01*
X56444157Y-40543832D01*
X56449193Y-40648071D01*
X56767721Y-40741209D01*
X57097645Y-40705361D01*
X57235955Y-40648071D01*
X57244433Y-40472601D01*
X56842574Y-40070742D01*
X56791097Y-40122220D01*
X56614320Y-39945443D01*
X56665797Y-39893965D01*
X57019351Y-39893965D01*
X57421210Y-40295824D01*
X57596680Y-40287346D01*
X57689818Y-39968818D01*
X57653970Y-39638894D01*
X57596680Y-39500584D01*
X57421210Y-39492106D01*
X57019351Y-39893965D01*
X56665797Y-39893965D01*
X56263938Y-39492106D01*
X56088468Y-39500584D01*
X56039287Y-39668781D01*
X55881648Y-39315329D01*
X56440715Y-39315329D01*
X56842574Y-39717188D01*
X57244433Y-39315329D01*
X57235955Y-39139859D01*
X56917427Y-39046721D01*
X56587503Y-39082569D01*
X56449193Y-39139859D01*
X56440715Y-39315329D01*
X55881648Y-39315329D01*
X55323043Y-38062850D01*
X55273980Y-37991975D01*
X55196564Y-37941310D01*
X55174398Y-37937279D01*
X55421146Y-37006986D01*
X59879521Y-37006986D01*
X59887999Y-37182456D01*
X60206527Y-37275594D01*
X60536451Y-37239746D01*
X60674761Y-37182456D01*
X60683239Y-37006986D01*
X60615534Y-36939281D01*
X66110363Y-36939281D01*
X66140341Y-37112379D01*
X66467901Y-37165666D01*
X66790919Y-37089543D01*
X66921140Y-37015690D01*
X66907989Y-36840509D01*
X66459790Y-36491082D01*
X66110363Y-36939281D01*
X60615534Y-36939281D01*
X60281380Y-36605127D01*
X59879521Y-37006986D01*
X55421146Y-37006986D01*
X55594476Y-36353497D01*
X59434136Y-36353497D01*
X59469984Y-36683421D01*
X59527274Y-36821731D01*
X59702744Y-36830209D01*
X60104603Y-36428350D01*
X60458157Y-36428350D01*
X60860016Y-36830209D01*
X61035486Y-36821731D01*
X61128624Y-36503203D01*
X61111487Y-36345481D01*
X65588044Y-36345481D01*
X65664167Y-36668499D01*
X65738020Y-36798720D01*
X65913201Y-36785569D01*
X66262628Y-36337370D01*
X66206897Y-36293920D01*
X66613502Y-36293920D01*
X67061701Y-36643347D01*
X67234799Y-36613369D01*
X67288086Y-36285809D01*
X67211963Y-35962791D01*
X67138110Y-35832570D01*
X66962929Y-35845721D01*
X66613502Y-36293920D01*
X66206897Y-36293920D01*
X65814429Y-35987943D01*
X65641331Y-36017921D01*
X65588044Y-36345481D01*
X61111487Y-36345481D01*
X61092776Y-36173279D01*
X61035486Y-36034969D01*
X60860016Y-36026491D01*
X60458157Y-36428350D01*
X60104603Y-36428350D01*
X59702744Y-36026491D01*
X59527274Y-36034969D01*
X59434136Y-36353497D01*
X55594476Y-36353497D01*
X55728098Y-35849714D01*
X59879521Y-35849714D01*
X60281380Y-36251573D01*
X60683239Y-35849714D01*
X60674761Y-35674244D01*
X60474202Y-35615600D01*
X65954990Y-35615600D01*
X65968141Y-35790781D01*
X66416340Y-36140208D01*
X66765767Y-35692009D01*
X66735789Y-35518911D01*
X66408229Y-35465624D01*
X66085211Y-35541747D01*
X65954990Y-35615600D01*
X60474202Y-35615600D01*
X60356233Y-35581106D01*
X60026309Y-35616954D01*
X59887999Y-35674244D01*
X59879521Y-35849714D01*
X55728098Y-35849714D01*
X56019285Y-34751883D01*
X56438421Y-34751883D01*
X56446899Y-34927353D01*
X56765427Y-35020491D01*
X57095351Y-34984643D01*
X57233661Y-34927353D01*
X57242139Y-34751883D01*
X56840280Y-34350024D01*
X56438421Y-34751883D01*
X56019285Y-34751883D01*
X56075352Y-34540501D01*
X56086174Y-34566628D01*
X56261644Y-34575106D01*
X56663503Y-34173247D01*
X57017057Y-34173247D01*
X57418916Y-34575106D01*
X57594386Y-34566628D01*
X57626416Y-34457084D01*
X70160839Y-34457084D01*
X70432291Y-34648000D01*
X70756140Y-34720502D01*
X70905537Y-34710894D01*
X70970169Y-34547540D01*
X70719435Y-34037526D01*
X70209421Y-34288260D01*
X70160839Y-34457084D01*
X57626416Y-34457084D01*
X57687524Y-34248100D01*
X57651676Y-33918176D01*
X57594386Y-33779866D01*
X57418916Y-33771388D01*
X57017057Y-34173247D01*
X56663503Y-34173247D01*
X56612026Y-34121770D01*
X56788803Y-33944993D01*
X56840280Y-33996470D01*
X57242139Y-33594611D01*
X57233661Y-33419141D01*
X56915133Y-33326003D01*
X56585209Y-33361851D01*
X56446899Y-33419141D01*
X56441863Y-33523380D01*
X56365636Y-33447153D01*
X56365246Y-33447543D01*
X58303482Y-26140000D01*
X59341400Y-26140000D01*
X59341400Y-34150000D01*
X59362607Y-34256616D01*
X59423000Y-34347000D01*
X59513384Y-34407393D01*
X59620000Y-34428600D01*
X65560000Y-34428600D01*
X65574106Y-34425794D01*
X65588425Y-34427146D01*
X66368425Y-34347146D01*
X66397707Y-34338135D01*
X66428101Y-34334303D01*
X67118101Y-34104303D01*
X67149825Y-34086219D01*
X67183629Y-34072413D01*
X67520285Y-33849878D01*
X69926162Y-33849878D01*
X69935770Y-33999275D01*
X70099124Y-34063907D01*
X70377138Y-33927229D01*
X70943788Y-33927229D01*
X71194522Y-34437243D01*
X71363346Y-34485825D01*
X71554262Y-34214373D01*
X71626764Y-33890524D01*
X71617156Y-33741127D01*
X71453802Y-33676495D01*
X70943788Y-33927229D01*
X70377138Y-33927229D01*
X70609138Y-33813173D01*
X70358404Y-33303159D01*
X70189580Y-33254577D01*
X69998664Y-33526029D01*
X69926162Y-33849878D01*
X67520285Y-33849878D01*
X67773629Y-33682414D01*
X67800246Y-33656061D01*
X67829904Y-33633189D01*
X68214189Y-33192862D01*
X70582757Y-33192862D01*
X70833491Y-33702876D01*
X71343505Y-33452142D01*
X71392087Y-33283318D01*
X71120635Y-33092402D01*
X70796786Y-33019900D01*
X70647389Y-33029508D01*
X70582757Y-33192862D01*
X68214189Y-33192862D01*
X68309904Y-33083189D01*
X68326885Y-33053613D01*
X68348041Y-33026861D01*
X69018041Y-31716861D01*
X69029701Y-31675759D01*
X69044809Y-31635802D01*
X69282271Y-30211028D01*
X71477904Y-30211028D01*
X71498070Y-30301325D01*
X72964436Y-33589147D01*
X73013499Y-33660022D01*
X73090915Y-33710687D01*
X73181944Y-33727241D01*
X73272240Y-33707075D01*
X76012092Y-32485103D01*
X76082967Y-32436040D01*
X76133632Y-32358624D01*
X76150186Y-32267596D01*
X76130020Y-32177299D01*
X75579980Y-30944024D01*
X75644066Y-30944080D01*
X75820035Y-30871371D01*
X75954784Y-30736856D01*
X76027800Y-30561014D01*
X76027967Y-30370615D01*
X75955258Y-30194646D01*
X75820743Y-30059897D01*
X75644901Y-29986881D01*
X75454502Y-29986714D01*
X75278533Y-30059423D01*
X75214125Y-30123719D01*
X74663654Y-28889477D01*
X74614591Y-28818602D01*
X74537175Y-28767937D01*
X74446146Y-28751383D01*
X74355850Y-28771549D01*
X71615998Y-29993521D01*
X71545123Y-30042584D01*
X71494458Y-30120000D01*
X71477904Y-30211028D01*
X69282271Y-30211028D01*
X69284809Y-30195802D01*
X69283500Y-30153846D01*
X69285987Y-30111933D01*
X69173726Y-29298034D01*
X71332446Y-29298034D01*
X71398579Y-29460786D01*
X71729975Y-29443135D01*
X72029390Y-29300006D01*
X72140909Y-29200130D01*
X72090775Y-29031760D01*
X71578474Y-28785733D01*
X71332446Y-29298034D01*
X69173726Y-29298034D01*
X69085987Y-28661933D01*
X69071567Y-28620297D01*
X69060323Y-28577705D01*
X69021194Y-28497612D01*
X70678061Y-28497612D01*
X70695712Y-28829008D01*
X70838841Y-29128423D01*
X70938717Y-29239942D01*
X71107087Y-29189808D01*
X71353114Y-28677507D01*
X71109208Y-28560373D01*
X71686700Y-28560373D01*
X72199001Y-28806401D01*
X72361753Y-28740268D01*
X72344102Y-28408872D01*
X72200973Y-28109457D01*
X72101097Y-27997938D01*
X71932727Y-28048072D01*
X71686700Y-28560373D01*
X71109208Y-28560373D01*
X70840813Y-28431479D01*
X70678061Y-28497612D01*
X69021194Y-28497612D01*
X68796529Y-28037750D01*
X70898905Y-28037750D01*
X70949039Y-28206120D01*
X71461340Y-28452147D01*
X71707368Y-27939846D01*
X71641235Y-27777094D01*
X71309839Y-27794745D01*
X71010424Y-27937874D01*
X70898905Y-28037750D01*
X68796529Y-28037750D01*
X68420323Y-27267705D01*
X68398140Y-27238572D01*
X68379904Y-27206811D01*
X67899904Y-26656811D01*
X67869407Y-26633293D01*
X67841834Y-26606410D01*
X67241834Y-26216410D01*
X67209444Y-26203472D01*
X67179215Y-26186071D01*
X66469215Y-25946071D01*
X66437587Y-25941948D01*
X66407052Y-25932716D01*
X65587052Y-25852716D01*
X65574364Y-25853978D01*
X65561876Y-25851406D01*
X62591876Y-25831406D01*
X62589532Y-25831856D01*
X62587186Y-25831414D01*
X59617186Y-25861414D01*
X59565332Y-25872274D01*
X59513384Y-25882607D01*
X59512192Y-25883403D01*
X59510790Y-25883697D01*
X59467052Y-25913565D01*
X59423000Y-25943000D01*
X59422204Y-25944192D01*
X59421020Y-25945000D01*
X59392024Y-25989358D01*
X59362607Y-26033384D01*
X59362328Y-26034789D01*
X59361543Y-26035989D01*
X59351729Y-26088071D01*
X59341400Y-26140000D01*
X58303482Y-26140000D01*
X58455615Y-25566428D01*
X58727055Y-25566428D01*
X58811769Y-25550488D01*
X58889573Y-25500422D01*
X58901593Y-25482830D01*
X58909983Y-25495868D01*
X58986375Y-25548065D01*
X59077055Y-25566428D01*
X59977055Y-25566428D01*
X60061769Y-25550488D01*
X60139573Y-25500422D01*
X60191770Y-25424030D01*
X60210133Y-25333350D01*
X60210133Y-25080015D01*
X67793990Y-25080015D01*
X68044747Y-25297399D01*
X68359606Y-25402274D01*
X68509209Y-25407820D01*
X68590026Y-25251839D01*
X68392144Y-24719087D01*
X67859392Y-24916969D01*
X67793990Y-25080015D01*
X60210133Y-25080015D01*
X60210133Y-24733350D01*
X60194193Y-24648636D01*
X60144127Y-24570832D01*
X60067735Y-24518635D01*
X59977055Y-24500272D01*
X59077055Y-24500272D01*
X58992341Y-24516212D01*
X58914537Y-24566278D01*
X58902517Y-24583870D01*
X58894127Y-24570832D01*
X58817735Y-24518635D01*
X58727055Y-24500272D01*
X57827055Y-24500272D01*
X57742341Y-24516212D01*
X57664537Y-24566278D01*
X57652517Y-24583870D01*
X57644127Y-24570832D01*
X57567735Y-24518635D01*
X57477055Y-24500272D01*
X56577055Y-24500272D01*
X56492341Y-24516212D01*
X56445133Y-24546590D01*
X56445133Y-24439986D01*
X62417166Y-24439986D01*
X62425644Y-24615456D01*
X62744172Y-24708594D01*
X63074096Y-24672746D01*
X63212406Y-24615456D01*
X63213065Y-24601796D01*
X67616363Y-24601796D01*
X67772344Y-24682613D01*
X67908502Y-24632039D01*
X68626500Y-24632039D01*
X68824382Y-25164791D01*
X68987428Y-25230193D01*
X69204812Y-24979436D01*
X69309687Y-24664577D01*
X69315233Y-24514974D01*
X69159252Y-24434157D01*
X68626500Y-24632039D01*
X67908502Y-24632039D01*
X68305096Y-24484731D01*
X68107214Y-23951979D01*
X67944168Y-23886577D01*
X67726784Y-24137334D01*
X67621909Y-24452193D01*
X67616363Y-24601796D01*
X63213065Y-24601796D01*
X63220884Y-24439986D01*
X62819025Y-24038127D01*
X62417166Y-24439986D01*
X56445133Y-24439986D01*
X56445133Y-24019885D01*
X56486375Y-24048065D01*
X56577055Y-24066428D01*
X57477055Y-24066428D01*
X57561769Y-24050488D01*
X57639573Y-24000422D01*
X57651593Y-23982830D01*
X57659983Y-23995868D01*
X57736375Y-24048065D01*
X57827055Y-24066428D01*
X58727055Y-24066428D01*
X58811769Y-24050488D01*
X58889573Y-24000422D01*
X58901593Y-23982830D01*
X58909983Y-23995868D01*
X58986375Y-24048065D01*
X59077055Y-24066428D01*
X59977055Y-24066428D01*
X60061769Y-24050488D01*
X60139573Y-24000422D01*
X60191770Y-23924030D01*
X60210133Y-23833350D01*
X60210133Y-23786497D01*
X61971781Y-23786497D01*
X62007629Y-24116421D01*
X62064919Y-24254731D01*
X62240389Y-24263209D01*
X62642248Y-23861350D01*
X62995802Y-23861350D01*
X63397661Y-24263209D01*
X63573131Y-24254731D01*
X63666269Y-23936203D01*
X63658525Y-23864931D01*
X68341570Y-23864931D01*
X68539452Y-24397683D01*
X69072204Y-24199801D01*
X69137606Y-24036755D01*
X68886849Y-23819371D01*
X68571990Y-23714496D01*
X68422387Y-23708950D01*
X68341570Y-23864931D01*
X63658525Y-23864931D01*
X63630421Y-23606279D01*
X63573131Y-23467969D01*
X63397661Y-23459491D01*
X62995802Y-23861350D01*
X62642248Y-23861350D01*
X62240389Y-23459491D01*
X62064919Y-23467969D01*
X61971781Y-23786497D01*
X60210133Y-23786497D01*
X60210133Y-23282714D01*
X62417166Y-23282714D01*
X62819025Y-23684573D01*
X63220884Y-23282714D01*
X63212406Y-23107244D01*
X62893878Y-23014106D01*
X62563954Y-23049954D01*
X62425644Y-23107244D01*
X62417166Y-23282714D01*
X60210133Y-23282714D01*
X60210133Y-23233350D01*
X60194193Y-23148636D01*
X60144127Y-23070832D01*
X60067735Y-23018635D01*
X59977055Y-23000272D01*
X59860133Y-23000272D01*
X59860133Y-22383350D01*
X59844193Y-22298636D01*
X59794127Y-22220832D01*
X59717735Y-22168635D01*
X59627055Y-22150272D01*
X57511359Y-22150272D01*
X57490147Y-22129060D01*
X57594386Y-22124024D01*
X57687524Y-21805496D01*
X57651676Y-21475572D01*
X57594386Y-21337262D01*
X57418916Y-21328784D01*
X57017057Y-21730643D01*
X57068535Y-21782121D01*
X56891758Y-21958898D01*
X56840280Y-21907420D01*
X56796255Y-21951445D01*
X56796255Y-21509841D01*
X56840280Y-21553866D01*
X57242139Y-21152007D01*
X57233661Y-20976537D01*
X56915133Y-20883399D01*
X56698856Y-20906899D01*
X56796255Y-20809500D01*
X56796255Y-20017146D01*
X56707316Y-19802428D01*
X56542978Y-19638089D01*
X56328260Y-19549150D01*
X56155905Y-19549150D01*
X56009855Y-19695200D01*
X56009855Y-20955550D01*
X56029855Y-20955550D01*
X56029855Y-21311150D01*
X56009855Y-21311150D01*
X56009855Y-21331150D01*
X55654255Y-21331150D01*
X55654255Y-21311150D01*
X54739855Y-21311150D01*
X54739855Y-21331150D01*
X54384255Y-21331150D01*
X54384255Y-21311150D01*
X53469855Y-21311150D01*
X53469855Y-21331150D01*
X53114255Y-21331150D01*
X53114255Y-21311150D01*
X52199855Y-21311150D01*
X52199855Y-21331150D01*
X51844255Y-21331150D01*
X51844255Y-21311150D01*
X51824255Y-21311150D01*
X51824255Y-20955550D01*
X51844255Y-20955550D01*
X51844255Y-19695200D01*
X52199855Y-19695200D01*
X52199855Y-20955550D01*
X53114255Y-20955550D01*
X53114255Y-19695200D01*
X53469855Y-19695200D01*
X53469855Y-20955550D01*
X54384255Y-20955550D01*
X54384255Y-19695200D01*
X54739855Y-19695200D01*
X54739855Y-20955550D01*
X55654255Y-20955550D01*
X55654255Y-19695200D01*
X55508205Y-19549150D01*
X55335850Y-19549150D01*
X55197055Y-19606641D01*
X55058260Y-19549150D01*
X54885905Y-19549150D01*
X54739855Y-19695200D01*
X54384255Y-19695200D01*
X54238205Y-19549150D01*
X54065850Y-19549150D01*
X53927055Y-19606641D01*
X53788260Y-19549150D01*
X53615905Y-19549150D01*
X53469855Y-19695200D01*
X53114255Y-19695200D01*
X52968205Y-19549150D01*
X52795850Y-19549150D01*
X52657055Y-19606641D01*
X52518260Y-19549150D01*
X52345905Y-19549150D01*
X52199855Y-19695200D01*
X51844255Y-19695200D01*
X51698205Y-19549150D01*
X51608600Y-19549150D01*
X51608600Y-18998600D01*
X65546433Y-18998600D01*
X68479714Y-19285014D01*
X68479714Y-19285014D01*
G37*
X68479714Y-19285014D02*
X69769088Y-19634018D01*
X70940037Y-20127558D01*
X72992729Y-21437371D01*
X74598822Y-23092134D01*
X75786894Y-25020316D01*
X76538383Y-27177189D01*
X76880595Y-29445566D01*
X76792609Y-31733220D01*
X76284267Y-33952328D01*
X75366690Y-36051040D01*
X74023298Y-37910373D01*
X72228022Y-39459045D01*
X72207876Y-39484861D01*
X72183919Y-39507194D01*
X72174746Y-39527314D01*
X72161145Y-39544743D01*
X72152411Y-39576306D01*
X72138826Y-39606104D01*
X72138051Y-39628199D01*
X72132154Y-39649510D01*
X72136164Y-39682014D01*
X72135016Y-39714742D01*
X72142756Y-39735453D01*
X72145463Y-39757396D01*
X72161605Y-39785889D01*
X72173070Y-39816568D01*
X75563070Y-45296568D01*
X75585073Y-45320170D01*
X75603000Y-45347000D01*
X75621787Y-45359553D01*
X75637194Y-45376080D01*
X75666553Y-45389465D01*
X75693384Y-45407393D01*
X75715545Y-45411801D01*
X75736104Y-45421174D01*
X75768352Y-45422305D01*
X75800000Y-45428600D01*
X78623883Y-45428600D01*
X78562830Y-45575995D01*
X78562830Y-45868350D01*
X78708880Y-46014400D01*
X79279110Y-46014400D01*
X79247618Y-46130533D01*
X79278412Y-46370000D01*
X78708880Y-46370000D01*
X78562830Y-46516050D01*
X78562830Y-46808405D01*
X78651769Y-47023123D01*
X78816108Y-47187461D01*
X79030826Y-47276400D01*
X80823180Y-47276400D01*
X80969230Y-47130350D01*
X80969230Y-46538598D01*
X81046442Y-46253867D01*
X81013076Y-45994400D01*
X81324830Y-45994400D01*
X81324830Y-46014400D01*
X81344830Y-46014400D01*
X81344830Y-46370000D01*
X81324830Y-46370000D01*
X81324830Y-47130350D01*
X81470880Y-47276400D01*
X83181400Y-47276400D01*
X83181400Y-47466082D01*
X83147030Y-47459122D01*
X79147030Y-47459122D01*
X79062316Y-47475062D01*
X78984512Y-47525128D01*
X78932315Y-47601520D01*
X78913952Y-47692200D01*
X78913952Y-48692200D01*
X78929892Y-48776914D01*
X78979958Y-48854718D01*
X79056350Y-48906915D01*
X79147030Y-48925278D01*
X83147030Y-48925278D01*
X83181400Y-48918811D01*
X83181400Y-49108000D01*
X81470880Y-49108000D01*
X81324830Y-49254050D01*
X81324830Y-50014400D01*
X81344830Y-50014400D01*
X81344830Y-50370000D01*
X81324830Y-50370000D01*
X81324830Y-50390000D01*
X81009526Y-50390000D01*
X81046442Y-50253867D01*
X81001577Y-49904983D01*
X80969230Y-49826890D01*
X80969230Y-49254050D01*
X80823180Y-49108000D01*
X79030826Y-49108000D01*
X78816108Y-49196939D01*
X78651769Y-49361277D01*
X78562830Y-49575995D01*
X78562830Y-49868350D01*
X78708880Y-50014400D01*
X79279110Y-50014400D01*
X79247618Y-50130533D01*
X79278412Y-50370000D01*
X78708880Y-50370000D01*
X78562830Y-50516050D01*
X78562830Y-50808405D01*
X78593065Y-50881400D01*
X69650176Y-50881400D01*
X68638290Y-49143357D01*
X71458893Y-49143357D01*
X71545785Y-49463645D01*
X71748633Y-49726301D01*
X71869713Y-49814343D01*
X71917065Y-49788406D01*
X72266858Y-49788406D01*
X72365713Y-49933627D01*
X72686001Y-49846735D01*
X72948657Y-49643887D01*
X73036699Y-49522807D01*
X72952305Y-49368732D01*
X72399745Y-49235845D01*
X72266858Y-49788406D01*
X71917065Y-49788406D01*
X72023788Y-49729949D01*
X72156675Y-49177389D01*
X71604114Y-49044502D01*
X71458893Y-49143357D01*
X68638290Y-49143357D01*
X68550622Y-48992775D01*
X72458201Y-48992775D01*
X73010762Y-49125662D01*
X73155983Y-49026807D01*
X73069091Y-48706519D01*
X72866243Y-48443863D01*
X72745163Y-48355821D01*
X72591088Y-48440215D01*
X72458201Y-48992775D01*
X68550622Y-48992775D01*
X68349520Y-48647357D01*
X71578177Y-48647357D01*
X71662571Y-48801432D01*
X72215131Y-48934319D01*
X72348018Y-48381758D01*
X72249163Y-48236537D01*
X71928875Y-48323429D01*
X71666219Y-48526277D01*
X71578177Y-48647357D01*
X68349520Y-48647357D01*
X65531453Y-43806972D01*
X68191623Y-43806972D01*
X68278515Y-44127260D01*
X68481363Y-44389916D01*
X68602443Y-44477958D01*
X68649795Y-44452021D01*
X68999588Y-44452021D01*
X69098443Y-44597242D01*
X69418731Y-44510350D01*
X69681387Y-44307502D01*
X69769429Y-44186422D01*
X69685035Y-44032347D01*
X69132475Y-43899460D01*
X68999588Y-44452021D01*
X68649795Y-44452021D01*
X68756518Y-44393564D01*
X68889405Y-43841004D01*
X68336844Y-43708117D01*
X68191623Y-43806972D01*
X65531453Y-43806972D01*
X65443785Y-43656390D01*
X69190931Y-43656390D01*
X69743492Y-43789277D01*
X69888713Y-43690422D01*
X69801821Y-43370134D01*
X69598973Y-43107478D01*
X69477893Y-43019436D01*
X69323818Y-43103830D01*
X69190931Y-43656390D01*
X65443785Y-43656390D01*
X65242683Y-43310972D01*
X68310907Y-43310972D01*
X68395301Y-43465047D01*
X68947861Y-43597934D01*
X69080748Y-43045373D01*
X68981893Y-42900152D01*
X68661605Y-42987044D01*
X68398949Y-43189892D01*
X68310907Y-43310972D01*
X65242683Y-43310972D01*
X64170768Y-41469825D01*
X64146968Y-41442884D01*
X64127000Y-41413000D01*
X64111301Y-41402510D01*
X64098798Y-41388357D01*
X64066501Y-41372575D01*
X64036616Y-41352607D01*
X64018096Y-41348923D01*
X64001130Y-41340633D01*
X63965253Y-41338412D01*
X63930000Y-41331400D01*
X59630000Y-41331400D01*
X59523384Y-41352607D01*
X59433000Y-41413000D01*
X59372607Y-41503384D01*
X59351400Y-41610000D01*
X59351400Y-50881400D01*
X51574805Y-50881400D01*
X51605040Y-50808405D01*
X51605040Y-50516050D01*
X51458990Y-50370000D01*
X50888760Y-50370000D01*
X50920252Y-50253867D01*
X50889458Y-50014400D01*
X51458990Y-50014400D01*
X51605040Y-49868350D01*
X51605040Y-49575995D01*
X51516101Y-49361277D01*
X51351762Y-49196939D01*
X51137044Y-49108000D01*
X49344690Y-49108000D01*
X49198640Y-49254050D01*
X49198640Y-49845802D01*
X49121428Y-50130533D01*
X49154794Y-50390000D01*
X48843040Y-50390000D01*
X48843040Y-50370000D01*
X48823040Y-50370000D01*
X48823040Y-50014400D01*
X48843040Y-50014400D01*
X48843040Y-49254050D01*
X48696990Y-49108000D01*
X46908600Y-49108000D01*
X46908600Y-48892184D01*
X46930160Y-48906915D01*
X47020840Y-48925278D01*
X51020840Y-48925278D01*
X51105554Y-48909338D01*
X51183358Y-48859272D01*
X51235555Y-48782880D01*
X51253918Y-48692200D01*
X51253918Y-47692200D01*
X51237978Y-47607486D01*
X51187912Y-47529682D01*
X51111520Y-47477485D01*
X51020840Y-47459122D01*
X47020840Y-47459122D01*
X46936126Y-47475062D01*
X46908600Y-47492775D01*
X46908600Y-47276400D01*
X48696990Y-47276400D01*
X48843040Y-47130350D01*
X48843040Y-46370000D01*
X48823040Y-46370000D01*
X48823040Y-46014400D01*
X48843040Y-46014400D01*
X48843040Y-45994400D01*
X49158344Y-45994400D01*
X49121428Y-46130533D01*
X49166293Y-46479417D01*
X49198640Y-46557510D01*
X49198640Y-47130350D01*
X49344690Y-47276400D01*
X51137044Y-47276400D01*
X51351762Y-47187461D01*
X51512743Y-47026480D01*
X56440715Y-47026480D01*
X56449193Y-47201950D01*
X56767721Y-47295088D01*
X57097645Y-47259240D01*
X57235955Y-47201950D01*
X57244433Y-47026480D01*
X56842574Y-46624621D01*
X56440715Y-47026480D01*
X51512743Y-47026480D01*
X51516101Y-47023123D01*
X51605040Y-46808405D01*
X51605040Y-46516050D01*
X51461981Y-46372991D01*
X55995330Y-46372991D01*
X56031178Y-46702915D01*
X56088468Y-46841225D01*
X56263938Y-46849703D01*
X56665797Y-46447844D01*
X57019351Y-46447844D01*
X57421210Y-46849703D01*
X57596680Y-46841225D01*
X57689818Y-46522697D01*
X57653970Y-46192773D01*
X57596680Y-46054463D01*
X57421210Y-46045985D01*
X57019351Y-46447844D01*
X56665797Y-46447844D01*
X56263938Y-46045985D01*
X56088468Y-46054463D01*
X55995330Y-46372991D01*
X51461981Y-46372991D01*
X51458990Y-46370000D01*
X50888760Y-46370000D01*
X50920252Y-46253867D01*
X50889458Y-46014400D01*
X51458990Y-46014400D01*
X51604182Y-45869208D01*
X56440715Y-45869208D01*
X56842574Y-46271067D01*
X57244433Y-45869208D01*
X57235955Y-45693738D01*
X56917427Y-45600600D01*
X56587503Y-45636448D01*
X56449193Y-45693738D01*
X56440715Y-45869208D01*
X51604182Y-45869208D01*
X51605040Y-45868350D01*
X51605040Y-45575995D01*
X51516101Y-45361277D01*
X51511908Y-45357084D01*
X51527000Y-45347000D01*
X51587393Y-45256616D01*
X51608600Y-45150000D01*
X51608600Y-35455995D01*
X51703905Y-35455995D01*
X51704113Y-35466899D01*
X51714113Y-35576899D01*
X51728655Y-35615202D01*
X51868655Y-35805202D01*
X51894017Y-35827169D01*
X52174017Y-35977169D01*
X52192740Y-35984219D01*
X52622740Y-36084219D01*
X52628833Y-36085377D01*
X52898833Y-36125377D01*
X52910000Y-36126200D01*
X52950000Y-36126200D01*
X52958652Y-36125707D01*
X53308652Y-36085707D01*
X53317835Y-36084083D01*
X53857835Y-35954083D01*
X53877006Y-35946611D01*
X54237006Y-35746611D01*
X54262651Y-35723374D01*
X54442651Y-35463374D01*
X54455612Y-35429451D01*
X54475612Y-35269451D01*
X54472290Y-35235903D01*
X54452290Y-35175903D01*
X54440006Y-35153035D01*
X54417006Y-35133389D01*
X54327006Y-35083389D01*
X54302775Y-35074878D01*
X54272542Y-35075827D01*
X54245060Y-35088463D01*
X54224659Y-35110795D01*
X54023007Y-35446881D01*
X53846353Y-35570539D01*
X53366261Y-35714567D01*
X53087382Y-35733800D01*
X52953996Y-35733800D01*
X52584566Y-35694913D01*
X52251748Y-35599822D01*
X52136181Y-35525529D01*
X52126200Y-35508893D01*
X52126200Y-35349640D01*
X52203237Y-35265599D01*
X52574269Y-35135739D01*
X52841348Y-35126200D01*
X52878436Y-35126200D01*
X52996118Y-35243882D01*
X53020354Y-35260197D01*
X53050000Y-35266200D01*
X53090000Y-35266200D01*
X53118300Y-35260750D01*
X53168300Y-35240750D01*
X53186965Y-35230006D01*
X53206611Y-35207006D01*
X53256611Y-35117006D01*
X53266200Y-35080000D01*
X53266200Y-34910000D01*
X53265612Y-34900549D01*
X53255612Y-34820549D01*
X53242425Y-34786302D01*
X53172425Y-34686302D01*
X53144078Y-34661845D01*
X53084078Y-34631845D01*
X53055927Y-34624031D01*
X53025903Y-34627710D01*
X52821190Y-34695948D01*
X52206689Y-34804972D01*
X52188730Y-34810512D01*
X51988730Y-34900512D01*
X51959527Y-34923638D01*
X51729527Y-35223638D01*
X51721459Y-35236705D01*
X51713905Y-35265995D01*
X51703905Y-35455995D01*
X51608600Y-35455995D01*
X51608600Y-33864475D01*
X51873931Y-33864475D01*
X51883931Y-34034475D01*
X51889401Y-34058673D01*
X51906118Y-34083882D01*
X52096118Y-34273882D01*
X52112783Y-34286493D01*
X52141585Y-34295734D01*
X52321585Y-34315734D01*
X52324697Y-34316015D01*
X52754697Y-34346015D01*
X52760000Y-34346200D01*
X54080000Y-34346200D01*
X54104097Y-34342290D01*
X54164097Y-34322290D01*
X54194166Y-34303596D01*
X54210750Y-34278300D01*
X54230750Y-34228300D01*
X54236200Y-34200000D01*
X54236200Y-34170000D01*
X54225341Y-34130795D01*
X54195341Y-34080795D01*
X54170445Y-34055420D01*
X54142134Y-34044772D01*
X53832134Y-33994772D01*
X53820000Y-33993800D01*
X52534466Y-33993800D01*
X52266200Y-33962239D01*
X52266200Y-33934747D01*
X52295612Y-33699451D01*
X52295216Y-33677795D01*
X52284542Y-33649494D01*
X52263698Y-33627575D01*
X52163698Y-33557575D01*
X52141063Y-33546769D01*
X52110913Y-33544344D01*
X52082194Y-33553840D01*
X52012194Y-33593840D01*
X51981845Y-33625922D01*
X51881845Y-33825922D01*
X51873931Y-33864475D01*
X51608600Y-33864475D01*
X51608600Y-32770000D01*
X51703800Y-32770000D01*
X51703800Y-32950000D01*
X51707263Y-32972711D01*
X51721830Y-32999221D01*
X51831830Y-33129221D01*
X51847732Y-33143402D01*
X51937732Y-33203402D01*
X51977895Y-33216171D01*
X52007695Y-33210989D01*
X52026153Y-33199112D01*
X52033324Y-33226888D01*
X52052929Y-33249923D01*
X52079950Y-33263515D01*
X52409950Y-33353515D01*
X52423672Y-33355937D01*
X52903672Y-33395937D01*
X52911621Y-33396183D01*
X53381621Y-33386183D01*
X53399540Y-33383652D01*
X53889540Y-33253652D01*
X53912926Y-33242959D01*
X54132926Y-33092959D01*
X54150149Y-33076782D01*
X54220149Y-32986782D01*
X54230197Y-32969646D01*
X54236200Y-32940000D01*
X54236200Y-32700000D01*
X54231348Y-32673244D01*
X54171348Y-32513244D01*
X54149351Y-32481940D01*
X53949351Y-32311940D01*
X53933967Y-32301789D01*
X53904753Y-32293948D01*
X53744753Y-32283948D01*
X53740000Y-32283800D01*
X52900000Y-32283800D01*
X52891939Y-32284228D01*
X52421939Y-32334228D01*
X52407153Y-32337306D01*
X52057153Y-32447306D01*
X52039614Y-32455383D01*
X51799614Y-32605383D01*
X51774659Y-32630795D01*
X51714659Y-32730795D01*
X51703800Y-32770000D01*
X51608600Y-32770000D01*
X51608600Y-31698259D01*
X51648794Y-31724098D01*
X51673813Y-31734461D01*
X52133813Y-31834461D01*
X52144156Y-31835976D01*
X52664156Y-31875976D01*
X52670000Y-31876200D01*
X53810000Y-31876200D01*
X53818652Y-31875707D01*
X54168652Y-31835707D01*
X54187695Y-31830989D01*
X54213132Y-31814621D01*
X54230197Y-31789646D01*
X54236200Y-31760000D01*
X54236200Y-31660000D01*
X54230989Y-31632305D01*
X54214621Y-31606868D01*
X54189646Y-31589803D01*
X54160000Y-31583800D01*
X54065641Y-31583800D01*
X54010017Y-31559961D01*
X53975694Y-31553922D01*
X53447849Y-31583800D01*
X53021722Y-31583800D01*
X52586066Y-31563997D01*
X52273009Y-31528220D01*
X52297399Y-31525840D01*
X52304944Y-31524720D01*
X52754944Y-31434720D01*
X52793882Y-31413882D01*
X52833882Y-31373882D01*
X52850197Y-31349646D01*
X52856200Y-31320000D01*
X52856200Y-31280000D01*
X52845341Y-31240795D01*
X52815341Y-31190795D01*
X52806036Y-31178363D01*
X52781532Y-31160630D01*
X52671532Y-31110630D01*
X52640000Y-31103800D01*
X52600000Y-31103800D01*
X52569983Y-31109961D01*
X52519699Y-31131511D01*
X52369054Y-31109679D01*
X52976717Y-31055903D01*
X52979909Y-31055553D01*
X54199909Y-30895553D01*
X54224078Y-30888155D01*
X54324078Y-30838155D01*
X54343132Y-30824621D01*
X54360197Y-30799646D01*
X54366200Y-30770000D01*
X54366200Y-30700000D01*
X54362290Y-30675903D01*
X54342290Y-30615903D01*
X54333980Y-30598612D01*
X54312837Y-30576981D01*
X54284944Y-30565280D01*
X54234944Y-30555280D01*
X54213101Y-30554113D01*
X53003101Y-30664113D01*
X52999517Y-30664524D01*
X51919517Y-30814524D01*
X51912047Y-30815945D01*
X51608600Y-30889508D01*
X51608600Y-28746195D01*
X51703895Y-28746195D01*
X51704113Y-28756899D01*
X51714113Y-28866899D01*
X51728655Y-28905202D01*
X51868655Y-29095202D01*
X51894017Y-29117169D01*
X52174017Y-29267169D01*
X52192740Y-29274219D01*
X52622740Y-29374219D01*
X52631585Y-29375734D01*
X52901585Y-29405734D01*
X52910000Y-29406200D01*
X52950000Y-29406200D01*
X52956508Y-29405922D01*
X53306508Y-29375922D01*
X53317835Y-29374083D01*
X53857835Y-29244083D01*
X53877006Y-29236611D01*
X54237006Y-29036611D01*
X54263402Y-29012268D01*
X54443402Y-28742268D01*
X54455612Y-28709451D01*
X54475612Y-28549451D01*
X54470750Y-28511700D01*
X54450750Y-28461700D01*
X54440006Y-28443035D01*
X54417006Y-28423389D01*
X54327006Y-28373389D01*
X54303741Y-28365049D01*
X54273498Y-28365608D01*
X54245856Y-28377889D01*
X54225169Y-28399957D01*
X54023426Y-28726588D01*
X53845771Y-28850947D01*
X53366827Y-29004209D01*
X53088679Y-29013800D01*
X52953996Y-29013800D01*
X52584566Y-28974913D01*
X52249800Y-28879265D01*
X52135096Y-28813720D01*
X52126200Y-28798893D01*
X52126200Y-28637913D01*
X52204168Y-28545769D01*
X52574708Y-28425343D01*
X52842713Y-28406200D01*
X52878436Y-28406200D01*
X52996118Y-28523882D01*
X53020354Y-28540197D01*
X53050000Y-28546200D01*
X53090000Y-28546200D01*
X53118300Y-28540750D01*
X53168300Y-28520750D01*
X53183814Y-28512344D01*
X53204617Y-28490386D01*
X53254617Y-28410386D01*
X53266200Y-28370000D01*
X53266200Y-28200000D01*
X53265612Y-28190549D01*
X53255612Y-28110549D01*
X53244287Y-28079090D01*
X53174287Y-27969090D01*
X53160323Y-27952781D01*
X53134097Y-27937710D01*
X53074097Y-27917710D01*
X53055927Y-27914031D01*
X53025903Y-27917710D01*
X52821765Y-27985756D01*
X52207866Y-28084772D01*
X52185922Y-28091845D01*
X51985922Y-28191845D01*
X51960297Y-28212650D01*
X51730297Y-28502650D01*
X51721372Y-28516885D01*
X51713895Y-28546195D01*
X51703895Y-28746195D01*
X51608600Y-28746195D01*
X51608600Y-27877087D01*
X55993036Y-27877087D01*
X56028884Y-28207011D01*
X56086174Y-28345321D01*
X56261644Y-28353799D01*
X56663503Y-27951940D01*
X56261644Y-27550081D01*
X56086174Y-27558559D01*
X55993036Y-27877087D01*
X51608600Y-27877087D01*
X51608600Y-27154475D01*
X51873931Y-27154475D01*
X51883931Y-27324475D01*
X51889401Y-27348673D01*
X51906118Y-27373882D01*
X52096118Y-27563882D01*
X52116506Y-27578444D01*
X52145773Y-27586083D01*
X52325276Y-27596055D01*
X52754697Y-27626015D01*
X52758476Y-27626185D01*
X53258476Y-27636185D01*
X53260000Y-27636200D01*
X54080000Y-27636200D01*
X54104097Y-27632290D01*
X54164097Y-27612290D01*
X54194166Y-27593596D01*
X54210750Y-27568300D01*
X54230750Y-27518300D01*
X54236200Y-27490000D01*
X54236200Y-27450000D01*
X54233945Y-27431599D01*
X54220960Y-27404280D01*
X54190960Y-27364280D01*
X54170445Y-27345420D01*
X54142134Y-27334772D01*
X53832134Y-27284772D01*
X53822626Y-27283845D01*
X53532626Y-27273845D01*
X53530000Y-27273800D01*
X52533355Y-27273800D01*
X52266200Y-27250228D01*
X52266200Y-27214747D01*
X52295612Y-26979451D01*
X52295216Y-26957795D01*
X52284542Y-26929494D01*
X52263698Y-26907575D01*
X52163698Y-26837575D01*
X52141063Y-26826769D01*
X52110913Y-26824344D01*
X52082194Y-26833840D01*
X52012194Y-26873840D01*
X51999368Y-26883054D01*
X51981202Y-26907239D01*
X51881202Y-27117239D01*
X51873931Y-27154475D01*
X51608600Y-27154475D01*
X51608600Y-26320000D01*
X51763800Y-26320000D01*
X51763800Y-26420000D01*
X51773840Y-26457806D01*
X51813840Y-26527806D01*
X51830577Y-26547998D01*
X51857036Y-26562657D01*
X51887113Y-26565867D01*
X52844470Y-26476115D01*
X53229191Y-26466955D01*
X53246118Y-26483882D01*
X53275903Y-26502290D01*
X53815903Y-26682290D01*
X53821874Y-26684013D01*
X54311874Y-26804013D01*
X54330000Y-26806200D01*
X54400000Y-26806200D01*
X54427695Y-26800989D01*
X54453132Y-26784621D01*
X54470197Y-26759646D01*
X54476200Y-26730000D01*
X54476200Y-26660000D01*
X54473334Y-26639298D01*
X54459502Y-26612398D01*
X54419502Y-26562398D01*
X54388922Y-26539502D01*
X53998922Y-26379502D01*
X53989881Y-26376439D01*
X53801044Y-26325402D01*
X53996967Y-26251269D01*
X54002039Y-26249137D01*
X54412039Y-26059137D01*
X54433882Y-26043882D01*
X54483882Y-25993882D01*
X54499617Y-25970981D01*
X54506186Y-25941455D01*
X54500750Y-25911700D01*
X54480750Y-25861700D01*
X54455720Y-25829040D01*
X54375720Y-25769040D01*
X54360726Y-25760269D01*
X54331176Y-25753809D01*
X54301441Y-25759354D01*
X53834581Y-25948085D01*
X53155301Y-26154822D01*
X52946021Y-26173848D01*
X52228942Y-26183807D01*
X52218413Y-26184686D01*
X51828413Y-26244686D01*
X51812305Y-26249011D01*
X51786868Y-26265379D01*
X51769803Y-26290354D01*
X51763800Y-26320000D01*
X51608600Y-26320000D01*
X51608600Y-25557628D01*
X51652055Y-25566428D01*
X51709157Y-25566428D01*
X51722396Y-25589882D01*
X51746341Y-25608363D01*
X51775590Y-25616072D01*
X52463576Y-25655955D01*
X52731585Y-25685734D01*
X52749087Y-25685656D01*
X52777806Y-25676160D01*
X52798660Y-25664244D01*
X52809001Y-25674230D01*
X52837220Y-25685121D01*
X52867453Y-25684174D01*
X53028843Y-25646200D01*
X53640000Y-25646200D01*
X53667695Y-25640989D01*
X53693132Y-25624621D01*
X53703732Y-25609108D01*
X53713755Y-25620563D01*
X53740961Y-25633783D01*
X53771167Y-25635377D01*
X54041167Y-25595377D01*
X54069205Y-25585341D01*
X54121249Y-25554115D01*
X54182055Y-25566428D01*
X54942055Y-25566428D01*
X55026769Y-25550488D01*
X55104573Y-25500422D01*
X55156770Y-25424030D01*
X55175133Y-25333350D01*
X55175133Y-23333350D01*
X55162541Y-23266428D01*
X55232529Y-23266428D01*
X55218977Y-23333350D01*
X55218977Y-25333350D01*
X55234917Y-25418064D01*
X55284983Y-25495868D01*
X55361375Y-25548065D01*
X55452055Y-25566428D01*
X56212055Y-25566428D01*
X56296769Y-25550488D01*
X56374573Y-25500422D01*
X56394318Y-25471524D01*
X56409983Y-25495868D01*
X56486375Y-25548065D01*
X56577055Y-25566428D01*
X57477055Y-25566428D01*
X57561769Y-25550488D01*
X57639573Y-25500422D01*
X57651593Y-25482830D01*
X57659983Y-25495868D01*
X57726486Y-25541308D01*
X57266961Y-27273809D01*
X57238697Y-27302073D01*
X57233661Y-27197834D01*
X56915133Y-27104696D01*
X56585209Y-27140544D01*
X56446899Y-27197834D01*
X56438421Y-27373304D01*
X56840280Y-27775163D01*
X56891758Y-27723686D01*
X57068535Y-27900463D01*
X57017057Y-27951940D01*
X57068535Y-28003418D01*
X56891758Y-28180195D01*
X56840280Y-28128717D01*
X56438421Y-28530576D01*
X56446899Y-28706046D01*
X56765427Y-28799184D01*
X56865251Y-28788338D01*
X54358942Y-38237630D01*
X52275387Y-39166894D01*
X52204512Y-39215957D01*
X52153847Y-39293373D01*
X52137293Y-39384401D01*
X52157459Y-39474698D01*
X53216501Y-41849236D01*
X53265564Y-41920111D01*
X53342980Y-41970776D01*
X53434009Y-41987330D01*
X53524305Y-41967164D01*
X56264157Y-40745192D01*
X56335032Y-40696129D01*
X56385697Y-40618713D01*
X56389347Y-40598642D01*
X56444157Y-40543832D01*
X56449193Y-40648071D01*
X56767721Y-40741209D01*
X57097645Y-40705361D01*
X57235955Y-40648071D01*
X57244433Y-40472601D01*
X56842574Y-40070742D01*
X56791097Y-40122220D01*
X56614320Y-39945443D01*
X56665797Y-39893965D01*
X57019351Y-39893965D01*
X57421210Y-40295824D01*
X57596680Y-40287346D01*
X57689818Y-39968818D01*
X57653970Y-39638894D01*
X57596680Y-39500584D01*
X57421210Y-39492106D01*
X57019351Y-39893965D01*
X56665797Y-39893965D01*
X56263938Y-39492106D01*
X56088468Y-39500584D01*
X56039287Y-39668781D01*
X55881648Y-39315329D01*
X56440715Y-39315329D01*
X56842574Y-39717188D01*
X57244433Y-39315329D01*
X57235955Y-39139859D01*
X56917427Y-39046721D01*
X56587503Y-39082569D01*
X56449193Y-39139859D01*
X56440715Y-39315329D01*
X55881648Y-39315329D01*
X55323043Y-38062850D01*
X55273980Y-37991975D01*
X55196564Y-37941310D01*
X55174398Y-37937279D01*
X55421146Y-37006986D01*
X59879521Y-37006986D01*
X59887999Y-37182456D01*
X60206527Y-37275594D01*
X60536451Y-37239746D01*
X60674761Y-37182456D01*
X60683239Y-37006986D01*
X60615534Y-36939281D01*
X66110363Y-36939281D01*
X66140341Y-37112379D01*
X66467901Y-37165666D01*
X66790919Y-37089543D01*
X66921140Y-37015690D01*
X66907989Y-36840509D01*
X66459790Y-36491082D01*
X66110363Y-36939281D01*
X60615534Y-36939281D01*
X60281380Y-36605127D01*
X59879521Y-37006986D01*
X55421146Y-37006986D01*
X55594476Y-36353497D01*
X59434136Y-36353497D01*
X59469984Y-36683421D01*
X59527274Y-36821731D01*
X59702744Y-36830209D01*
X60104603Y-36428350D01*
X60458157Y-36428350D01*
X60860016Y-36830209D01*
X61035486Y-36821731D01*
X61128624Y-36503203D01*
X61111487Y-36345481D01*
X65588044Y-36345481D01*
X65664167Y-36668499D01*
X65738020Y-36798720D01*
X65913201Y-36785569D01*
X66262628Y-36337370D01*
X66206897Y-36293920D01*
X66613502Y-36293920D01*
X67061701Y-36643347D01*
X67234799Y-36613369D01*
X67288086Y-36285809D01*
X67211963Y-35962791D01*
X67138110Y-35832570D01*
X66962929Y-35845721D01*
X66613502Y-36293920D01*
X66206897Y-36293920D01*
X65814429Y-35987943D01*
X65641331Y-36017921D01*
X65588044Y-36345481D01*
X61111487Y-36345481D01*
X61092776Y-36173279D01*
X61035486Y-36034969D01*
X60860016Y-36026491D01*
X60458157Y-36428350D01*
X60104603Y-36428350D01*
X59702744Y-36026491D01*
X59527274Y-36034969D01*
X59434136Y-36353497D01*
X55594476Y-36353497D01*
X55728098Y-35849714D01*
X59879521Y-35849714D01*
X60281380Y-36251573D01*
X60683239Y-35849714D01*
X60674761Y-35674244D01*
X60474202Y-35615600D01*
X65954990Y-35615600D01*
X65968141Y-35790781D01*
X66416340Y-36140208D01*
X66765767Y-35692009D01*
X66735789Y-35518911D01*
X66408229Y-35465624D01*
X66085211Y-35541747D01*
X65954990Y-35615600D01*
X60474202Y-35615600D01*
X60356233Y-35581106D01*
X60026309Y-35616954D01*
X59887999Y-35674244D01*
X59879521Y-35849714D01*
X55728098Y-35849714D01*
X56019285Y-34751883D01*
X56438421Y-34751883D01*
X56446899Y-34927353D01*
X56765427Y-35020491D01*
X57095351Y-34984643D01*
X57233661Y-34927353D01*
X57242139Y-34751883D01*
X56840280Y-34350024D01*
X56438421Y-34751883D01*
X56019285Y-34751883D01*
X56075352Y-34540501D01*
X56086174Y-34566628D01*
X56261644Y-34575106D01*
X56663503Y-34173247D01*
X57017057Y-34173247D01*
X57418916Y-34575106D01*
X57594386Y-34566628D01*
X57626416Y-34457084D01*
X70160839Y-34457084D01*
X70432291Y-34648000D01*
X70756140Y-34720502D01*
X70905537Y-34710894D01*
X70970169Y-34547540D01*
X70719435Y-34037526D01*
X70209421Y-34288260D01*
X70160839Y-34457084D01*
X57626416Y-34457084D01*
X57687524Y-34248100D01*
X57651676Y-33918176D01*
X57594386Y-33779866D01*
X57418916Y-33771388D01*
X57017057Y-34173247D01*
X56663503Y-34173247D01*
X56612026Y-34121770D01*
X56788803Y-33944993D01*
X56840280Y-33996470D01*
X57242139Y-33594611D01*
X57233661Y-33419141D01*
X56915133Y-33326003D01*
X56585209Y-33361851D01*
X56446899Y-33419141D01*
X56441863Y-33523380D01*
X56365636Y-33447153D01*
X56365246Y-33447543D01*
X58303482Y-26140000D01*
X59341400Y-26140000D01*
X59341400Y-34150000D01*
X59362607Y-34256616D01*
X59423000Y-34347000D01*
X59513384Y-34407393D01*
X59620000Y-34428600D01*
X65560000Y-34428600D01*
X65574106Y-34425794D01*
X65588425Y-34427146D01*
X66368425Y-34347146D01*
X66397707Y-34338135D01*
X66428101Y-34334303D01*
X67118101Y-34104303D01*
X67149825Y-34086219D01*
X67183629Y-34072413D01*
X67520285Y-33849878D01*
X69926162Y-33849878D01*
X69935770Y-33999275D01*
X70099124Y-34063907D01*
X70377138Y-33927229D01*
X70943788Y-33927229D01*
X71194522Y-34437243D01*
X71363346Y-34485825D01*
X71554262Y-34214373D01*
X71626764Y-33890524D01*
X71617156Y-33741127D01*
X71453802Y-33676495D01*
X70943788Y-33927229D01*
X70377138Y-33927229D01*
X70609138Y-33813173D01*
X70358404Y-33303159D01*
X70189580Y-33254577D01*
X69998664Y-33526029D01*
X69926162Y-33849878D01*
X67520285Y-33849878D01*
X67773629Y-33682414D01*
X67800246Y-33656061D01*
X67829904Y-33633189D01*
X68214189Y-33192862D01*
X70582757Y-33192862D01*
X70833491Y-33702876D01*
X71343505Y-33452142D01*
X71392087Y-33283318D01*
X71120635Y-33092402D01*
X70796786Y-33019900D01*
X70647389Y-33029508D01*
X70582757Y-33192862D01*
X68214189Y-33192862D01*
X68309904Y-33083189D01*
X68326885Y-33053613D01*
X68348041Y-33026861D01*
X69018041Y-31716861D01*
X69029701Y-31675759D01*
X69044809Y-31635802D01*
X69282271Y-30211028D01*
X71477904Y-30211028D01*
X71498070Y-30301325D01*
X72964436Y-33589147D01*
X73013499Y-33660022D01*
X73090915Y-33710687D01*
X73181944Y-33727241D01*
X73272240Y-33707075D01*
X76012092Y-32485103D01*
X76082967Y-32436040D01*
X76133632Y-32358624D01*
X76150186Y-32267596D01*
X76130020Y-32177299D01*
X75579980Y-30944024D01*
X75644066Y-30944080D01*
X75820035Y-30871371D01*
X75954784Y-30736856D01*
X76027800Y-30561014D01*
X76027967Y-30370615D01*
X75955258Y-30194646D01*
X75820743Y-30059897D01*
X75644901Y-29986881D01*
X75454502Y-29986714D01*
X75278533Y-30059423D01*
X75214125Y-30123719D01*
X74663654Y-28889477D01*
X74614591Y-28818602D01*
X74537175Y-28767937D01*
X74446146Y-28751383D01*
X74355850Y-28771549D01*
X71615998Y-29993521D01*
X71545123Y-30042584D01*
X71494458Y-30120000D01*
X71477904Y-30211028D01*
X69282271Y-30211028D01*
X69284809Y-30195802D01*
X69283500Y-30153846D01*
X69285987Y-30111933D01*
X69173726Y-29298034D01*
X71332446Y-29298034D01*
X71398579Y-29460786D01*
X71729975Y-29443135D01*
X72029390Y-29300006D01*
X72140909Y-29200130D01*
X72090775Y-29031760D01*
X71578474Y-28785733D01*
X71332446Y-29298034D01*
X69173726Y-29298034D01*
X69085987Y-28661933D01*
X69071567Y-28620297D01*
X69060323Y-28577705D01*
X69021194Y-28497612D01*
X70678061Y-28497612D01*
X70695712Y-28829008D01*
X70838841Y-29128423D01*
X70938717Y-29239942D01*
X71107087Y-29189808D01*
X71353114Y-28677507D01*
X71109208Y-28560373D01*
X71686700Y-28560373D01*
X72199001Y-28806401D01*
X72361753Y-28740268D01*
X72344102Y-28408872D01*
X72200973Y-28109457D01*
X72101097Y-27997938D01*
X71932727Y-28048072D01*
X71686700Y-28560373D01*
X71109208Y-28560373D01*
X70840813Y-28431479D01*
X70678061Y-28497612D01*
X69021194Y-28497612D01*
X68796529Y-28037750D01*
X70898905Y-28037750D01*
X70949039Y-28206120D01*
X71461340Y-28452147D01*
X71707368Y-27939846D01*
X71641235Y-27777094D01*
X71309839Y-27794745D01*
X71010424Y-27937874D01*
X70898905Y-28037750D01*
X68796529Y-28037750D01*
X68420323Y-27267705D01*
X68398140Y-27238572D01*
X68379904Y-27206811D01*
X67899904Y-26656811D01*
X67869407Y-26633293D01*
X67841834Y-26606410D01*
X67241834Y-26216410D01*
X67209444Y-26203472D01*
X67179215Y-26186071D01*
X66469215Y-25946071D01*
X66437587Y-25941948D01*
X66407052Y-25932716D01*
X65587052Y-25852716D01*
X65574364Y-25853978D01*
X65561876Y-25851406D01*
X62591876Y-25831406D01*
X62589532Y-25831856D01*
X62587186Y-25831414D01*
X59617186Y-25861414D01*
X59565332Y-25872274D01*
X59513384Y-25882607D01*
X59512192Y-25883403D01*
X59510790Y-25883697D01*
X59467052Y-25913565D01*
X59423000Y-25943000D01*
X59422204Y-25944192D01*
X59421020Y-25945000D01*
X59392024Y-25989358D01*
X59362607Y-26033384D01*
X59362328Y-26034789D01*
X59361543Y-26035989D01*
X59351729Y-26088071D01*
X59341400Y-26140000D01*
X58303482Y-26140000D01*
X58455615Y-25566428D01*
X58727055Y-25566428D01*
X58811769Y-25550488D01*
X58889573Y-25500422D01*
X58901593Y-25482830D01*
X58909983Y-25495868D01*
X58986375Y-25548065D01*
X59077055Y-25566428D01*
X59977055Y-25566428D01*
X60061769Y-25550488D01*
X60139573Y-25500422D01*
X60191770Y-25424030D01*
X60210133Y-25333350D01*
X60210133Y-25080015D01*
X67793990Y-25080015D01*
X68044747Y-25297399D01*
X68359606Y-25402274D01*
X68509209Y-25407820D01*
X68590026Y-25251839D01*
X68392144Y-24719087D01*
X67859392Y-24916969D01*
X67793990Y-25080015D01*
X60210133Y-25080015D01*
X60210133Y-24733350D01*
X60194193Y-24648636D01*
X60144127Y-24570832D01*
X60067735Y-24518635D01*
X59977055Y-24500272D01*
X59077055Y-24500272D01*
X58992341Y-24516212D01*
X58914537Y-24566278D01*
X58902517Y-24583870D01*
X58894127Y-24570832D01*
X58817735Y-24518635D01*
X58727055Y-24500272D01*
X57827055Y-24500272D01*
X57742341Y-24516212D01*
X57664537Y-24566278D01*
X57652517Y-24583870D01*
X57644127Y-24570832D01*
X57567735Y-24518635D01*
X57477055Y-24500272D01*
X56577055Y-24500272D01*
X56492341Y-24516212D01*
X56445133Y-24546590D01*
X56445133Y-24439986D01*
X62417166Y-24439986D01*
X62425644Y-24615456D01*
X62744172Y-24708594D01*
X63074096Y-24672746D01*
X63212406Y-24615456D01*
X63213065Y-24601796D01*
X67616363Y-24601796D01*
X67772344Y-24682613D01*
X67908502Y-24632039D01*
X68626500Y-24632039D01*
X68824382Y-25164791D01*
X68987428Y-25230193D01*
X69204812Y-24979436D01*
X69309687Y-24664577D01*
X69315233Y-24514974D01*
X69159252Y-24434157D01*
X68626500Y-24632039D01*
X67908502Y-24632039D01*
X68305096Y-24484731D01*
X68107214Y-23951979D01*
X67944168Y-23886577D01*
X67726784Y-24137334D01*
X67621909Y-24452193D01*
X67616363Y-24601796D01*
X63213065Y-24601796D01*
X63220884Y-24439986D01*
X62819025Y-24038127D01*
X62417166Y-24439986D01*
X56445133Y-24439986D01*
X56445133Y-24019885D01*
X56486375Y-24048065D01*
X56577055Y-24066428D01*
X57477055Y-24066428D01*
X57561769Y-24050488D01*
X57639573Y-24000422D01*
X57651593Y-23982830D01*
X57659983Y-23995868D01*
X57736375Y-24048065D01*
X57827055Y-24066428D01*
X58727055Y-24066428D01*
X58811769Y-24050488D01*
X58889573Y-24000422D01*
X58901593Y-23982830D01*
X58909983Y-23995868D01*
X58986375Y-24048065D01*
X59077055Y-24066428D01*
X59977055Y-24066428D01*
X60061769Y-24050488D01*
X60139573Y-24000422D01*
X60191770Y-23924030D01*
X60210133Y-23833350D01*
X60210133Y-23786497D01*
X61971781Y-23786497D01*
X62007629Y-24116421D01*
X62064919Y-24254731D01*
X62240389Y-24263209D01*
X62642248Y-23861350D01*
X62995802Y-23861350D01*
X63397661Y-24263209D01*
X63573131Y-24254731D01*
X63666269Y-23936203D01*
X63658525Y-23864931D01*
X68341570Y-23864931D01*
X68539452Y-24397683D01*
X69072204Y-24199801D01*
X69137606Y-24036755D01*
X68886849Y-23819371D01*
X68571990Y-23714496D01*
X68422387Y-23708950D01*
X68341570Y-23864931D01*
X63658525Y-23864931D01*
X63630421Y-23606279D01*
X63573131Y-23467969D01*
X63397661Y-23459491D01*
X62995802Y-23861350D01*
X62642248Y-23861350D01*
X62240389Y-23459491D01*
X62064919Y-23467969D01*
X61971781Y-23786497D01*
X60210133Y-23786497D01*
X60210133Y-23282714D01*
X62417166Y-23282714D01*
X62819025Y-23684573D01*
X63220884Y-23282714D01*
X63212406Y-23107244D01*
X62893878Y-23014106D01*
X62563954Y-23049954D01*
X62425644Y-23107244D01*
X62417166Y-23282714D01*
X60210133Y-23282714D01*
X60210133Y-23233350D01*
X60194193Y-23148636D01*
X60144127Y-23070832D01*
X60067735Y-23018635D01*
X59977055Y-23000272D01*
X59860133Y-23000272D01*
X59860133Y-22383350D01*
X59844193Y-22298636D01*
X59794127Y-22220832D01*
X59717735Y-22168635D01*
X59627055Y-22150272D01*
X57511359Y-22150272D01*
X57490147Y-22129060D01*
X57594386Y-22124024D01*
X57687524Y-21805496D01*
X57651676Y-21475572D01*
X57594386Y-21337262D01*
X57418916Y-21328784D01*
X57017057Y-21730643D01*
X57068535Y-21782121D01*
X56891758Y-21958898D01*
X56840280Y-21907420D01*
X56796255Y-21951445D01*
X56796255Y-21509841D01*
X56840280Y-21553866D01*
X57242139Y-21152007D01*
X57233661Y-20976537D01*
X56915133Y-20883399D01*
X56698856Y-20906899D01*
X56796255Y-20809500D01*
X56796255Y-20017146D01*
X56707316Y-19802428D01*
X56542978Y-19638089D01*
X56328260Y-19549150D01*
X56155905Y-19549150D01*
X56009855Y-19695200D01*
X56009855Y-20955550D01*
X56029855Y-20955550D01*
X56029855Y-21311150D01*
X56009855Y-21311150D01*
X56009855Y-21331150D01*
X55654255Y-21331150D01*
X55654255Y-21311150D01*
X54739855Y-21311150D01*
X54739855Y-21331150D01*
X54384255Y-21331150D01*
X54384255Y-21311150D01*
X53469855Y-21311150D01*
X53469855Y-21331150D01*
X53114255Y-21331150D01*
X53114255Y-21311150D01*
X52199855Y-21311150D01*
X52199855Y-21331150D01*
X51844255Y-21331150D01*
X51844255Y-21311150D01*
X51824255Y-21311150D01*
X51824255Y-20955550D01*
X51844255Y-20955550D01*
X51844255Y-19695200D01*
X52199855Y-19695200D01*
X52199855Y-20955550D01*
X53114255Y-20955550D01*
X53114255Y-19695200D01*
X53469855Y-19695200D01*
X53469855Y-20955550D01*
X54384255Y-20955550D01*
X54384255Y-19695200D01*
X54739855Y-19695200D01*
X54739855Y-20955550D01*
X55654255Y-20955550D01*
X55654255Y-19695200D01*
X55508205Y-19549150D01*
X55335850Y-19549150D01*
X55197055Y-19606641D01*
X55058260Y-19549150D01*
X54885905Y-19549150D01*
X54739855Y-19695200D01*
X54384255Y-19695200D01*
X54238205Y-19549150D01*
X54065850Y-19549150D01*
X53927055Y-19606641D01*
X53788260Y-19549150D01*
X53615905Y-19549150D01*
X53469855Y-19695200D01*
X53114255Y-19695200D01*
X52968205Y-19549150D01*
X52795850Y-19549150D01*
X52657055Y-19606641D01*
X52518260Y-19549150D01*
X52345905Y-19549150D01*
X52199855Y-19695200D01*
X51844255Y-19695200D01*
X51698205Y-19549150D01*
X51608600Y-19549150D01*
X51608600Y-18998600D01*
X65546433Y-18998600D01*
X68479714Y-19285014D01*
G36*
X80392962Y-50158400D02*
X80359162Y-50192200D01*
X80392962Y-50226000D01*
X80248962Y-50370000D01*
X80045098Y-50370000D01*
X79901098Y-50226000D01*
X79934898Y-50192200D01*
X79901098Y-50158400D01*
X80045098Y-50014400D01*
X80248962Y-50014400D01*
X80392962Y-50158400D01*
X80392962Y-50158400D01*
G37*
X80392962Y-50158400D02*
X80359162Y-50192200D01*
X80392962Y-50226000D01*
X80248962Y-50370000D01*
X80045098Y-50370000D01*
X79901098Y-50226000D01*
X79934898Y-50192200D01*
X79901098Y-50158400D01*
X80045098Y-50014400D01*
X80248962Y-50014400D01*
X80392962Y-50158400D01*
G36*
X50266772Y-50158400D02*
X50232972Y-50192200D01*
X50266772Y-50226000D01*
X50122772Y-50370000D01*
X49918908Y-50370000D01*
X49774908Y-50226000D01*
X49808708Y-50192200D01*
X49774908Y-50158400D01*
X49918908Y-50014400D01*
X50122772Y-50014400D01*
X50266772Y-50158400D01*
X50266772Y-50158400D01*
G37*
X50266772Y-50158400D02*
X50232972Y-50192200D01*
X50266772Y-50226000D01*
X50122772Y-50370000D01*
X49918908Y-50370000D01*
X49774908Y-50226000D01*
X49808708Y-50192200D01*
X49774908Y-50158400D01*
X49918908Y-50014400D01*
X50122772Y-50014400D01*
X50266772Y-50158400D01*
G36*
X80392962Y-46158400D02*
X80359162Y-46192200D01*
X80392962Y-46226000D01*
X80248962Y-46370000D01*
X80045098Y-46370000D01*
X79901098Y-46226000D01*
X79934898Y-46192200D01*
X79901098Y-46158400D01*
X80045098Y-46014400D01*
X80248962Y-46014400D01*
X80392962Y-46158400D01*
X80392962Y-46158400D01*
G37*
X80392962Y-46158400D02*
X80359162Y-46192200D01*
X80392962Y-46226000D01*
X80248962Y-46370000D01*
X80045098Y-46370000D01*
X79901098Y-46226000D01*
X79934898Y-46192200D01*
X79901098Y-46158400D01*
X80045098Y-46014400D01*
X80248962Y-46014400D01*
X80392962Y-46158400D01*
G36*
X50266772Y-46158400D02*
X50232972Y-46192200D01*
X50266772Y-46226000D01*
X50122772Y-46370000D01*
X49918908Y-46370000D01*
X49774908Y-46226000D01*
X49808708Y-46192200D01*
X49774908Y-46158400D01*
X49918908Y-46014400D01*
X50122772Y-46014400D01*
X50266772Y-46158400D01*
X50266772Y-46158400D01*
G37*
X50266772Y-46158400D02*
X50232972Y-46192200D01*
X50266772Y-46226000D01*
X50122772Y-46370000D01*
X49918908Y-46370000D01*
X49774908Y-46226000D01*
X49808708Y-46192200D01*
X49774908Y-46158400D01*
X49918908Y-46014400D01*
X50122772Y-46014400D01*
X50266772Y-46158400D01*
M02*
