G04 #@! TF.FileFunction,Copper,L2,Bot,Signal*
%FSLAX46Y46*%
G04 Gerber Fmt 4.6, Leading zero omitted, Abs format (unit mm)*
G04 Created by KiCad (PCBNEW 4.0.0-rc2-stable) date 3/3/2016 3:46:15 PM*
%MOMM*%
G01*
G04 APERTURE LIST*
%ADD10C,0.150000*%
%ADD11C,0.500000*%
%ADD12R,4.000000X1.000000*%
%ADD13C,0.600000*%
%ADD14R,2.000000X0.760000*%
%ADD15R,2.000000X0.740000*%
%ADD16R,0.600000X0.900000*%
%ADD17R,0.200000X0.900000*%
%ADD18R,0.200000X3.800000*%
%ADD19R,0.200000X6.500000*%
%ADD20R,0.400000X0.200000*%
%ADD21R,0.800000X0.200000*%
%ADD22R,0.200000X2.000000*%
%ADD23C,0.254000*%
%ADD24C,0.152400*%
G04 APERTURE END LIST*
D10*
D11*
X56928285Y-46482310D03*
X56928285Y-39791890D03*
X56928285Y-33101470D03*
X54811672Y-26595806D03*
X59681593Y-31271761D03*
X64435805Y-35984008D03*
X69241874Y-40696446D03*
X76340585Y-44986797D03*
X76340585Y-38296290D03*
X76340585Y-31605792D03*
X76340585Y-24915292D03*
D12*
X81610790Y-50192207D03*
X81610790Y-48192207D03*
X81610790Y-46192207D03*
D13*
X80610790Y-50192207D03*
X80610790Y-48192207D03*
X80610790Y-46192207D03*
D12*
X49020840Y-46192207D03*
X49020840Y-48192207D03*
X49020840Y-50192207D03*
D13*
X50020840Y-46192207D03*
X50020840Y-48192207D03*
X50020840Y-50192207D03*
D10*
G36*
X77010484Y-42963753D02*
X74099597Y-42237988D01*
X74728594Y-39715219D01*
X77639481Y-40440984D01*
X77010484Y-42963753D01*
X77010484Y-42963753D01*
G37*
G36*
X56125194Y-38271773D02*
X53214307Y-37546007D01*
X54085226Y-34052943D01*
X56996113Y-34778709D01*
X56125194Y-38271773D01*
X56125194Y-38271773D01*
G37*
D11*
X53261648Y-35702706D03*
D14*
X76840585Y-23947664D03*
X76840585Y-22677664D03*
X76840585Y-21407664D03*
X76840585Y-20137664D03*
X73640585Y-23947664D03*
X73640585Y-22677664D03*
X73640585Y-21407664D03*
D15*
X73640585Y-20137664D03*
D16*
X72940585Y-25142664D03*
X74440585Y-25142664D03*
X74440585Y-26392664D03*
X72940585Y-26392664D03*
X72940585Y-27642664D03*
X74440585Y-27642664D03*
D17*
X74390585Y-24492664D03*
D18*
X75040585Y-24492664D03*
D19*
X75490585Y-24492664D03*
D20*
X74840585Y-26292664D03*
X74840585Y-22692664D03*
D21*
X75040585Y-21342664D03*
X75040585Y-27642664D03*
D22*
X72940585Y-26342664D03*
D23*
X55110000Y-36160000D02*
X53260000Y-35700000D01*
X55110000Y-36160000D02*
X53260000Y-35700000D01*
X55110000Y-36160000D02*
X53260000Y-35700000D01*
X55110000Y-36160000D02*
X53260000Y-35700000D01*
X55110000Y-36160000D02*
X53260000Y-35700000D01*
X55110000Y-36160000D02*
X53260000Y-35700000D01*
X55110000Y-36160000D02*
X53260000Y-35700000D01*
X55110000Y-36160000D02*
X53260000Y-35700000D01*
X55110000Y-36160000D02*
X53260000Y-35700000D01*
X75870000Y-41340000D02*
X72940000Y-26340000D01*
X75870000Y-41340000D02*
X72940000Y-26340000D01*
X75870000Y-41340000D02*
X72940000Y-26340000D01*
X75870000Y-41340000D02*
X72940000Y-26340000D01*
X75870000Y-41340000D02*
X72940000Y-26340000D01*
X75870000Y-41340000D02*
X72940000Y-26340000D01*
X75870000Y-41340000D02*
X72940000Y-26340000D01*
X75870000Y-41340000D02*
X72940000Y-26340000D01*
X75870000Y-41340000D02*
X72940000Y-26340000D01*
D24*
G36*
X70545199Y-34809175D02*
X70589449Y-34838036D01*
X70633384Y-34867393D01*
X70634930Y-34867700D01*
X70636249Y-34868561D01*
X70688190Y-34878294D01*
X70740000Y-34888600D01*
X70741544Y-34888293D01*
X70743093Y-34888583D01*
X70794782Y-34877703D01*
X70846616Y-34867393D01*
X70847927Y-34866517D01*
X70849467Y-34866193D01*
X70893032Y-34836379D01*
X70937000Y-34807000D01*
X70937876Y-34805689D01*
X70939175Y-34804800D01*
X70968022Y-34760572D01*
X70997393Y-34716616D01*
X70997700Y-34715070D01*
X70998561Y-34713751D01*
X71008293Y-34661818D01*
X71018600Y-34610000D01*
X71018600Y-21027664D01*
X72407507Y-21027664D01*
X72407507Y-21787664D01*
X72423447Y-21872378D01*
X72473513Y-21950182D01*
X72549905Y-22002379D01*
X72640585Y-22020742D01*
X74640585Y-22020742D01*
X74725299Y-22004802D01*
X74803103Y-21954736D01*
X74855300Y-21878344D01*
X74873663Y-21787664D01*
X74873663Y-21675742D01*
X75157507Y-21675742D01*
X75157507Y-22363013D01*
X75140585Y-22359586D01*
X74873663Y-22359586D01*
X74873663Y-22297664D01*
X74857723Y-22212950D01*
X74807657Y-22135146D01*
X74731265Y-22082949D01*
X74640585Y-22064586D01*
X72640585Y-22064586D01*
X72555871Y-22080526D01*
X72478067Y-22130592D01*
X72425870Y-22206984D01*
X72407507Y-22297664D01*
X72407507Y-23057664D01*
X72423447Y-23142378D01*
X72473513Y-23220182D01*
X72549905Y-23272379D01*
X72640585Y-23290742D01*
X74640585Y-23290742D01*
X74707507Y-23278150D01*
X74707507Y-23348138D01*
X74640585Y-23334586D01*
X72640585Y-23334586D01*
X72555871Y-23350526D01*
X72478067Y-23400592D01*
X72425870Y-23476984D01*
X72407507Y-23567664D01*
X72407507Y-24327664D01*
X72423447Y-24412378D01*
X72473513Y-24490182D01*
X72502411Y-24509927D01*
X72478067Y-24525592D01*
X72425870Y-24601984D01*
X72407507Y-24692664D01*
X72407507Y-25592664D01*
X72423447Y-25677378D01*
X72473513Y-25755182D01*
X72491105Y-25767202D01*
X72478067Y-25775592D01*
X72425870Y-25851984D01*
X72407507Y-25942664D01*
X72407507Y-26842664D01*
X72423447Y-26927378D01*
X72473513Y-27005182D01*
X72491105Y-27017202D01*
X72478067Y-27025592D01*
X72425870Y-27101984D01*
X72407507Y-27192664D01*
X72407507Y-28092664D01*
X72423447Y-28177378D01*
X72473513Y-28255182D01*
X72549905Y-28307379D01*
X72640585Y-28325742D01*
X72965561Y-28325742D01*
X75164619Y-39583718D01*
X74784981Y-39489064D01*
X74698927Y-39484037D01*
X74611321Y-39513793D01*
X74542195Y-39575288D01*
X74502439Y-39658832D01*
X73873442Y-42181601D01*
X73868415Y-42267655D01*
X73898171Y-42355261D01*
X73959666Y-42424387D01*
X74043210Y-42464143D01*
X76954097Y-43189908D01*
X77040151Y-43194935D01*
X77127757Y-43165179D01*
X77196883Y-43103684D01*
X77236639Y-43020140D01*
X77865636Y-40497371D01*
X77870663Y-40411317D01*
X77840907Y-40323711D01*
X77779412Y-40254585D01*
X77695868Y-40214829D01*
X75926358Y-39773641D01*
X75758657Y-38915100D01*
X75865941Y-39022384D01*
X75942168Y-38946157D01*
X75947204Y-39050396D01*
X76265732Y-39143534D01*
X76595656Y-39107686D01*
X76733966Y-39050396D01*
X76742444Y-38874926D01*
X76340585Y-38473067D01*
X76289108Y-38524545D01*
X76112331Y-38347768D01*
X76163808Y-38296290D01*
X76517362Y-38296290D01*
X76919221Y-38698149D01*
X77094691Y-38689671D01*
X77187829Y-38371143D01*
X77151981Y-38041219D01*
X77094691Y-37902909D01*
X76919221Y-37894431D01*
X76517362Y-38296290D01*
X76163808Y-38296290D01*
X75761949Y-37894431D01*
X75586479Y-37902909D01*
X75571169Y-37955268D01*
X75524756Y-37717654D01*
X75938726Y-37717654D01*
X76340585Y-38119513D01*
X76742444Y-37717654D01*
X76733966Y-37542184D01*
X76415438Y-37449046D01*
X76085514Y-37484894D01*
X75947204Y-37542184D01*
X75938726Y-37717654D01*
X75524756Y-37717654D01*
X74443933Y-32184428D01*
X75938726Y-32184428D01*
X75947204Y-32359898D01*
X76265732Y-32453036D01*
X76595656Y-32417188D01*
X76733966Y-32359898D01*
X76742444Y-32184428D01*
X76340585Y-31782569D01*
X75938726Y-32184428D01*
X74443933Y-32184428D01*
X74316284Y-31530939D01*
X75493341Y-31530939D01*
X75529189Y-31860863D01*
X75586479Y-31999173D01*
X75761949Y-32007651D01*
X76163808Y-31605792D01*
X76517362Y-31605792D01*
X76919221Y-32007651D01*
X77094691Y-31999173D01*
X77187829Y-31680645D01*
X77151981Y-31350721D01*
X77094691Y-31212411D01*
X76919221Y-31203933D01*
X76517362Y-31605792D01*
X76163808Y-31605792D01*
X75761949Y-31203933D01*
X75586479Y-31212411D01*
X75493341Y-31530939D01*
X74316284Y-31530939D01*
X74217879Y-31027156D01*
X75938726Y-31027156D01*
X76340585Y-31429015D01*
X76742444Y-31027156D01*
X76733966Y-30851686D01*
X76415438Y-30758548D01*
X76085514Y-30794396D01*
X75947204Y-30851686D01*
X75938726Y-31027156D01*
X74217879Y-31027156D01*
X73473663Y-27217181D01*
X73473663Y-27192664D01*
X73457723Y-27107950D01*
X73449974Y-27095908D01*
X73426464Y-26975547D01*
X73455300Y-26933344D01*
X73473663Y-26842664D01*
X73473663Y-25942664D01*
X73457723Y-25857950D01*
X73407657Y-25780146D01*
X73390065Y-25768126D01*
X73403103Y-25759736D01*
X73455300Y-25683344D01*
X73473663Y-25592664D01*
X73473663Y-24692664D01*
X73457723Y-24607950D01*
X73427345Y-24560742D01*
X73954050Y-24560742D01*
X73925870Y-24601984D01*
X73907507Y-24692664D01*
X73907507Y-25592664D01*
X73923447Y-25677378D01*
X73973513Y-25755182D01*
X73991105Y-25767202D01*
X73978067Y-25775592D01*
X73925870Y-25851984D01*
X73907507Y-25942664D01*
X73907507Y-26842664D01*
X73923447Y-26927378D01*
X73973513Y-27005182D01*
X73991105Y-27017202D01*
X73978067Y-27025592D01*
X73925870Y-27101984D01*
X73907507Y-27192664D01*
X73907507Y-28092664D01*
X73923447Y-28177378D01*
X73973513Y-28255182D01*
X74049905Y-28307379D01*
X74140585Y-28325742D01*
X74740585Y-28325742D01*
X74825299Y-28309802D01*
X74903103Y-28259736D01*
X74955300Y-28183344D01*
X74973663Y-28092664D01*
X74973663Y-27975742D01*
X75590585Y-27975742D01*
X75675299Y-27959802D01*
X75753103Y-27909736D01*
X75805300Y-27833344D01*
X75823663Y-27742664D01*
X75823663Y-25599108D01*
X75865941Y-25641386D01*
X75942168Y-25565159D01*
X75947204Y-25669398D01*
X76265732Y-25762536D01*
X76595656Y-25726688D01*
X76733966Y-25669398D01*
X76742444Y-25493928D01*
X76340585Y-25092069D01*
X76289108Y-25143547D01*
X76112331Y-24966770D01*
X76163808Y-24915292D01*
X76160380Y-24911864D01*
X76516735Y-24911864D01*
X76662783Y-24765816D01*
X76662783Y-24769871D01*
X76517362Y-24915292D01*
X76919221Y-25317151D01*
X77094691Y-25308673D01*
X77187829Y-24990145D01*
X77179323Y-24911864D01*
X77956789Y-24911864D01*
X78171507Y-24822925D01*
X78335846Y-24658587D01*
X78424785Y-24443869D01*
X78424785Y-24271514D01*
X78278735Y-24125464D01*
X77018385Y-24125464D01*
X77018385Y-24145464D01*
X76680196Y-24145464D01*
X76662785Y-24140373D01*
X76662785Y-24125464D01*
X76642785Y-24125464D01*
X76642785Y-23769864D01*
X76662785Y-23769864D01*
X76662785Y-22855464D01*
X77018385Y-22855464D01*
X77018385Y-23769864D01*
X78278735Y-23769864D01*
X78424785Y-23623814D01*
X78424785Y-23451459D01*
X78367294Y-23312664D01*
X78424785Y-23173869D01*
X78424785Y-23001514D01*
X78278735Y-22855464D01*
X77018385Y-22855464D01*
X76662785Y-22855464D01*
X76642785Y-22855464D01*
X76642785Y-22499864D01*
X76662785Y-22499864D01*
X76662785Y-21585464D01*
X77018385Y-21585464D01*
X77018385Y-22499864D01*
X78278735Y-22499864D01*
X78424785Y-22353814D01*
X78424785Y-22181459D01*
X78367294Y-22042664D01*
X78424785Y-21903869D01*
X78424785Y-21731514D01*
X78278735Y-21585464D01*
X77018385Y-21585464D01*
X76662785Y-21585464D01*
X76642785Y-21585464D01*
X76642785Y-21229864D01*
X76662785Y-21229864D01*
X76662785Y-20315464D01*
X77018385Y-20315464D01*
X77018385Y-21229864D01*
X78278735Y-21229864D01*
X78424785Y-21083814D01*
X78424785Y-20911459D01*
X78367294Y-20772664D01*
X78424785Y-20633869D01*
X78424785Y-20461514D01*
X78278735Y-20315464D01*
X77018385Y-20315464D01*
X76662785Y-20315464D01*
X75402435Y-20315464D01*
X75256385Y-20461514D01*
X75256385Y-20633869D01*
X75313876Y-20772664D01*
X75256385Y-20911459D01*
X75256385Y-21009586D01*
X74870261Y-21009586D01*
X74857723Y-20942950D01*
X74807657Y-20865146D01*
X74731265Y-20812949D01*
X74640585Y-20794586D01*
X72640585Y-20794586D01*
X72555871Y-20810526D01*
X72478067Y-20860592D01*
X72425870Y-20936984D01*
X72407507Y-21027664D01*
X71018600Y-21027664D01*
X71018600Y-19767664D01*
X72407507Y-19767664D01*
X72407507Y-20507664D01*
X72423447Y-20592378D01*
X72473513Y-20670182D01*
X72549905Y-20722379D01*
X72640585Y-20740742D01*
X74640585Y-20740742D01*
X74725299Y-20724802D01*
X74803103Y-20674736D01*
X74855300Y-20598344D01*
X74873663Y-20507664D01*
X74873663Y-19767664D01*
X74857723Y-19682950D01*
X74831025Y-19641459D01*
X75256385Y-19641459D01*
X75256385Y-19813814D01*
X75402435Y-19959864D01*
X76662785Y-19959864D01*
X76662785Y-19319514D01*
X77018385Y-19319514D01*
X77018385Y-19959864D01*
X78278735Y-19959864D01*
X78424785Y-19813814D01*
X78424785Y-19641459D01*
X78335846Y-19426741D01*
X78171507Y-19262403D01*
X77956789Y-19173464D01*
X77164435Y-19173464D01*
X77018385Y-19319514D01*
X76662785Y-19319514D01*
X76516735Y-19173464D01*
X75724381Y-19173464D01*
X75509663Y-19262403D01*
X75345324Y-19426741D01*
X75256385Y-19641459D01*
X74831025Y-19641459D01*
X74807657Y-19605146D01*
X74731265Y-19552949D01*
X74640585Y-19534586D01*
X72640585Y-19534586D01*
X72555871Y-19550526D01*
X72478067Y-19600592D01*
X72425870Y-19676984D01*
X72407507Y-19767664D01*
X71018600Y-19767664D01*
X71018600Y-18998600D01*
X78941400Y-18998600D01*
X78941400Y-45150000D01*
X78962607Y-45256616D01*
X79023000Y-45347000D01*
X79100105Y-45398520D01*
X79026590Y-45576002D01*
X79026590Y-45868357D01*
X79172640Y-46014407D01*
X79742870Y-46014407D01*
X79711378Y-46130540D01*
X79742172Y-46370007D01*
X79172640Y-46370007D01*
X79026590Y-46516057D01*
X79026590Y-46808412D01*
X79115529Y-47023130D01*
X79279868Y-47187468D01*
X79494586Y-47276407D01*
X81286940Y-47276407D01*
X81432990Y-47130357D01*
X81432990Y-46538605D01*
X81510202Y-46253874D01*
X81476836Y-45994407D01*
X81788590Y-45994407D01*
X81788590Y-46014407D01*
X81808590Y-46014407D01*
X81808590Y-46370007D01*
X81788590Y-46370007D01*
X81788590Y-47130357D01*
X81934640Y-47276407D01*
X83641400Y-47276407D01*
X83641400Y-47465328D01*
X83610790Y-47459129D01*
X79610790Y-47459129D01*
X79526076Y-47475069D01*
X79448272Y-47525135D01*
X79396075Y-47601527D01*
X79377712Y-47692207D01*
X79377712Y-48692207D01*
X79393652Y-48776921D01*
X79443718Y-48854725D01*
X79520110Y-48906922D01*
X79610790Y-48925285D01*
X83610790Y-48925285D01*
X83641400Y-48919525D01*
X83641400Y-49108007D01*
X81934640Y-49108007D01*
X81788590Y-49254057D01*
X81788590Y-50014407D01*
X81808590Y-50014407D01*
X81808590Y-50370007D01*
X81788590Y-50370007D01*
X81788590Y-50390007D01*
X81473286Y-50390007D01*
X81510202Y-50253874D01*
X81465337Y-49904990D01*
X81432990Y-49826897D01*
X81432990Y-49254057D01*
X81286940Y-49108007D01*
X79494586Y-49108007D01*
X79279868Y-49196946D01*
X79115529Y-49361284D01*
X79026590Y-49576002D01*
X79026590Y-49868357D01*
X79172640Y-50014407D01*
X79742870Y-50014407D01*
X79711378Y-50130540D01*
X79742172Y-50370007D01*
X79172640Y-50370007D01*
X79026590Y-50516057D01*
X79026590Y-50808412D01*
X79072719Y-50919778D01*
X79070292Y-50921400D01*
X76373537Y-50921400D01*
X70893559Y-45565433D01*
X75938726Y-45565433D01*
X75947204Y-45740903D01*
X76265732Y-45834041D01*
X76595656Y-45798193D01*
X76733966Y-45740903D01*
X76742444Y-45565433D01*
X76340585Y-45163574D01*
X75938726Y-45565433D01*
X70893559Y-45565433D01*
X70224939Y-44911944D01*
X75493341Y-44911944D01*
X75529189Y-45241868D01*
X75586479Y-45380178D01*
X75761949Y-45388656D01*
X76163808Y-44986797D01*
X76517362Y-44986797D01*
X76919221Y-45388656D01*
X77094691Y-45380178D01*
X77187829Y-45061650D01*
X77151981Y-44731726D01*
X77094691Y-44593416D01*
X76919221Y-44584938D01*
X76517362Y-44986797D01*
X76163808Y-44986797D01*
X75761949Y-44584938D01*
X75586479Y-44593416D01*
X75493341Y-44911944D01*
X70224939Y-44911944D01*
X69709492Y-44408161D01*
X75938726Y-44408161D01*
X76340585Y-44810020D01*
X76742444Y-44408161D01*
X76733966Y-44232691D01*
X76415438Y-44139553D01*
X76085514Y-44175401D01*
X75947204Y-44232691D01*
X75938726Y-44408161D01*
X69709492Y-44408161D01*
X66867215Y-41630205D01*
X67554486Y-41630205D01*
X67604486Y-42000205D01*
X67622416Y-42039906D01*
X67752416Y-42189906D01*
X67763218Y-42200149D01*
X67853218Y-42270149D01*
X67890144Y-42285560D01*
X68120144Y-42315560D01*
X68154097Y-42312290D01*
X68454097Y-42212290D01*
X68469457Y-42205189D01*
X68849457Y-41975189D01*
X68857945Y-41969226D01*
X69067945Y-41799226D01*
X69073882Y-41793882D01*
X69103882Y-41763882D01*
X69110149Y-41756782D01*
X69320149Y-41486782D01*
X69325221Y-41479404D01*
X69379396Y-41389734D01*
X69509039Y-41503941D01*
X69797718Y-41340234D01*
X70001773Y-41078516D01*
X70056990Y-40939366D01*
X69936979Y-40811074D01*
X69668882Y-40815080D01*
X69733472Y-40580205D01*
X69734095Y-40564077D01*
X69933244Y-40561101D01*
X70049369Y-40429281D01*
X69885662Y-40140602D01*
X69623944Y-39936547D01*
X69484794Y-39881330D01*
X69356502Y-40001341D01*
X69357093Y-40040873D01*
X69335056Y-40045280D01*
X69305541Y-40058115D01*
X69284966Y-40080288D01*
X69274640Y-40108718D01*
X69276188Y-40138926D01*
X69363654Y-40480045D01*
X69364847Y-40559898D01*
X69336714Y-40735731D01*
X69221758Y-40956062D01*
X69119207Y-40853511D01*
X69118756Y-40823300D01*
X69089434Y-40823738D01*
X68976283Y-40710587D01*
X68859699Y-40827171D01*
X68600209Y-40831048D01*
X68599397Y-40828528D01*
X68581685Y-40804008D01*
X68451685Y-40684008D01*
X68448782Y-40681462D01*
X68388782Y-40631462D01*
X68352527Y-40614837D01*
X68232527Y-40594837D01*
X68215123Y-40593956D01*
X68185922Y-40601845D01*
X68125922Y-40631845D01*
X68110472Y-40642091D01*
X68091845Y-40665922D01*
X67994423Y-40860766D01*
X67637747Y-41366057D01*
X67627710Y-41385903D01*
X67557710Y-41595903D01*
X67554486Y-41630205D01*
X66867215Y-41630205D01*
X65876100Y-40661519D01*
X66636075Y-40661519D01*
X66637710Y-40704097D01*
X66707710Y-40914097D01*
X66732922Y-40949917D01*
X66872922Y-41059917D01*
X66890354Y-41070197D01*
X66920000Y-41076200D01*
X67190000Y-41076200D01*
X67212711Y-41072737D01*
X67239221Y-41058170D01*
X67369221Y-40948170D01*
X67371170Y-40946463D01*
X67691170Y-40656463D01*
X67693117Y-40654635D01*
X67899971Y-40453526D01*
X68426758Y-40453526D01*
X68546769Y-40581818D01*
X69115020Y-40573328D01*
X69106529Y-40005076D01*
X68974709Y-39888951D01*
X68686030Y-40052658D01*
X68481975Y-40314376D01*
X68426758Y-40453526D01*
X67899971Y-40453526D01*
X68053117Y-40304635D01*
X68054340Y-40303419D01*
X68634340Y-39713419D01*
X68652290Y-39684097D01*
X68672290Y-39624097D01*
X68676044Y-39595123D01*
X68668155Y-39565922D01*
X68648155Y-39525922D01*
X68633882Y-39506118D01*
X68603882Y-39476118D01*
X68564944Y-39455280D01*
X68514944Y-39445280D01*
X68484418Y-39445410D01*
X68456626Y-39457349D01*
X68196626Y-39637349D01*
X68186118Y-39646118D01*
X67986118Y-39846118D01*
X67985365Y-39846883D01*
X67287952Y-40564222D01*
X67080833Y-40739477D01*
X67055461Y-40717276D01*
X66909808Y-40532783D01*
X66895143Y-40518611D01*
X66867702Y-40505885D01*
X66837473Y-40504837D01*
X66717473Y-40524837D01*
X66691702Y-40534124D01*
X66669090Y-40554214D01*
X66656075Y-40581519D01*
X66636075Y-40661519D01*
X65876100Y-40661519D01*
X65326170Y-40124034D01*
X65785491Y-40124034D01*
X65786485Y-40160050D01*
X65816485Y-40270050D01*
X65832654Y-40300178D01*
X65902654Y-40380178D01*
X65917732Y-40393402D01*
X65977732Y-40433402D01*
X66011097Y-40445678D01*
X66181097Y-40465678D01*
X66211896Y-40462986D01*
X66311896Y-40432986D01*
X66342372Y-40415350D01*
X66359780Y-40390613D01*
X66364518Y-40368772D01*
X66389749Y-40383460D01*
X66419924Y-40385551D01*
X66448536Y-40375738D01*
X66738536Y-40205738D01*
X66748168Y-40199045D01*
X67128168Y-39889045D01*
X67137042Y-39880523D01*
X67447042Y-39530523D01*
X67456253Y-39517644D01*
X67706253Y-39077644D01*
X67714720Y-39054944D01*
X67764720Y-38804944D01*
X67765887Y-38783101D01*
X67755887Y-38673101D01*
X67749752Y-38649322D01*
X67732321Y-38624602D01*
X67552321Y-38454602D01*
X67535859Y-38442765D01*
X67385859Y-38362765D01*
X67371404Y-38356868D01*
X67341266Y-38354302D01*
X67081266Y-38384302D01*
X67041218Y-38401462D01*
X66921218Y-38501462D01*
X66915441Y-38506805D01*
X66525831Y-38906405D01*
X66326118Y-39106118D01*
X66320026Y-39112994D01*
X66030026Y-39482994D01*
X66022260Y-39495104D01*
X65852260Y-39825104D01*
X65845491Y-39844034D01*
X65787724Y-40113610D01*
X65785491Y-40124034D01*
X65326170Y-40124034D01*
X64837700Y-39646619D01*
X64858264Y-39655291D01*
X64888481Y-39653925D01*
X65048481Y-39613925D01*
X65071528Y-39603889D01*
X65471528Y-39343889D01*
X65480895Y-39336711D01*
X65870895Y-38986711D01*
X65874215Y-38983546D01*
X66674215Y-38173546D01*
X66680149Y-38166782D01*
X66890149Y-37896782D01*
X66899780Y-37880613D01*
X66906193Y-37851053D01*
X66900599Y-37821327D01*
X66883882Y-37796118D01*
X66813882Y-37726118D01*
X66795187Y-37712411D01*
X66766119Y-37704046D01*
X66736086Y-37707650D01*
X66709822Y-37722654D01*
X66638900Y-37784711D01*
X66579983Y-37809961D01*
X66552654Y-37829822D01*
X66203833Y-38228475D01*
X65955623Y-38486613D01*
X65906513Y-38535723D01*
X65599833Y-38832510D01*
X65328638Y-39045592D01*
X65359140Y-39008051D01*
X65362888Y-39003029D01*
X65622888Y-38623029D01*
X65634115Y-38597702D01*
X65635163Y-38567473D01*
X65625163Y-38507473D01*
X65613605Y-38478038D01*
X65592268Y-38456598D01*
X65562268Y-38436598D01*
X65548300Y-38429250D01*
X65498300Y-38409250D01*
X65475927Y-38404031D01*
X65445903Y-38407710D01*
X65325903Y-38447710D01*
X65300472Y-38462091D01*
X65281845Y-38485922D01*
X65261845Y-38525922D01*
X65257710Y-38535903D01*
X65245237Y-38573322D01*
X65095855Y-38685359D01*
X65498704Y-38198583D01*
X65500738Y-38196014D01*
X66250738Y-37206014D01*
X66263515Y-37180050D01*
X66293515Y-37070050D01*
X66296193Y-37051053D01*
X66290599Y-37021327D01*
X66273882Y-36996118D01*
X66223882Y-36946118D01*
X66194097Y-36927710D01*
X66134097Y-36907710D01*
X66091599Y-36906055D01*
X66064280Y-36919040D01*
X66024280Y-36949040D01*
X66010803Y-36962019D01*
X65240803Y-37912019D01*
X65238956Y-37914392D01*
X64588956Y-38784392D01*
X64584262Y-38791464D01*
X64414262Y-39081464D01*
X64403800Y-39120000D01*
X64403800Y-39170000D01*
X64416598Y-39212268D01*
X64460183Y-39277645D01*
X62060431Y-36932197D01*
X62754783Y-36932197D01*
X62814783Y-37302197D01*
X62830498Y-37337602D01*
X62950498Y-37487602D01*
X62963218Y-37500149D01*
X63053218Y-37570149D01*
X63090549Y-37585612D01*
X63330549Y-37615612D01*
X63364097Y-37612290D01*
X63664097Y-37512290D01*
X63680229Y-37504716D01*
X64050229Y-37274716D01*
X64056592Y-37270296D01*
X64276592Y-37100296D01*
X64293402Y-37082268D01*
X64311378Y-37055305D01*
X64529073Y-36788133D01*
X64535221Y-36779404D01*
X64587195Y-36693378D01*
X64698954Y-36792820D01*
X64988443Y-36630550D01*
X65193796Y-36369850D01*
X65249704Y-36230975D01*
X65130332Y-36102088D01*
X64881773Y-36104567D01*
X64943472Y-35880205D01*
X64944487Y-35853929D01*
X65127839Y-35852101D01*
X65244617Y-35720859D01*
X65082347Y-35431370D01*
X64821647Y-35226017D01*
X64682772Y-35170109D01*
X64553885Y-35289481D01*
X64554403Y-35341411D01*
X64535056Y-35345280D01*
X64505541Y-35358115D01*
X64484966Y-35380288D01*
X64474640Y-35408718D01*
X64476188Y-35438926D01*
X64558580Y-35760254D01*
X64559552Y-35857768D01*
X64565197Y-35857712D01*
X64536607Y-36036398D01*
X64316546Y-36476520D01*
X64315720Y-36477429D01*
X64314516Y-36356747D01*
X64421664Y-36249599D01*
X64312358Y-36140293D01*
X64312058Y-36110248D01*
X64282607Y-36110542D01*
X64170214Y-35998149D01*
X64055557Y-36112806D01*
X63789461Y-36115459D01*
X63783882Y-36106118D01*
X63663882Y-35986118D01*
X63658782Y-35981462D01*
X63598782Y-35931462D01*
X63562527Y-35914837D01*
X63442527Y-35894837D01*
X63425123Y-35893956D01*
X63395922Y-35901845D01*
X63335922Y-35931845D01*
X63320472Y-35942091D01*
X63301845Y-35965922D01*
X63204423Y-36160766D01*
X62847747Y-36666057D01*
X62838792Y-36682873D01*
X62758792Y-36892873D01*
X62754783Y-36932197D01*
X62060431Y-36932197D01*
X61067278Y-35961519D01*
X61846075Y-35961519D01*
X61847710Y-36004097D01*
X61917710Y-36214097D01*
X61940779Y-36248170D01*
X62070779Y-36358170D01*
X62090354Y-36370197D01*
X62120000Y-36376200D01*
X62390000Y-36376200D01*
X62410058Y-36373513D01*
X62437078Y-36359917D01*
X62577078Y-36249917D01*
X62581170Y-36246463D01*
X62901170Y-35956463D01*
X62903882Y-35953882D01*
X63120723Y-35737041D01*
X63621906Y-35737041D01*
X63741278Y-35865928D01*
X64309565Y-35860261D01*
X64303898Y-35291974D01*
X64172656Y-35175196D01*
X63883167Y-35337466D01*
X63677814Y-35598166D01*
X63621906Y-35737041D01*
X63120723Y-35737041D01*
X63253882Y-35603882D01*
X63254340Y-35603419D01*
X63834340Y-35013419D01*
X63848155Y-34994078D01*
X63878155Y-34934078D01*
X63885278Y-34911817D01*
X63883945Y-34881599D01*
X63870960Y-34854280D01*
X63842226Y-34815968D01*
X63823402Y-34787732D01*
X63800783Y-34765632D01*
X63772527Y-34754837D01*
X63712527Y-34744837D01*
X63683043Y-34745711D01*
X63655476Y-34758161D01*
X63405476Y-34938161D01*
X63396118Y-34946118D01*
X63196118Y-35146118D01*
X63195365Y-35146883D01*
X62498444Y-35863716D01*
X62285219Y-36037455D01*
X62267037Y-36019273D01*
X62119808Y-35832783D01*
X62105143Y-35818611D01*
X62077702Y-35805885D01*
X62047473Y-35804837D01*
X61927473Y-35824837D01*
X61901702Y-35834124D01*
X61879090Y-35854214D01*
X61866075Y-35881519D01*
X61846075Y-35961519D01*
X61067278Y-35961519D01*
X60788394Y-35688947D01*
X61253807Y-35688947D01*
X61259401Y-35718673D01*
X61276118Y-35743882D01*
X61346118Y-35813882D01*
X61379066Y-35833268D01*
X61449066Y-35853268D01*
X61476255Y-35855943D01*
X61505309Y-35847526D01*
X61528798Y-35828469D01*
X62137274Y-35090318D01*
X62403062Y-34806200D01*
X62430000Y-34806200D01*
X62465155Y-34797606D01*
X62965155Y-34537606D01*
X62970521Y-34534533D01*
X63400521Y-34264533D01*
X63407602Y-34259502D01*
X63457602Y-34219502D01*
X63479780Y-34190613D01*
X63486193Y-34161053D01*
X63480599Y-34131327D01*
X63463882Y-34106118D01*
X63413882Y-34056118D01*
X63384097Y-34037710D01*
X63324097Y-34017710D01*
X63297501Y-34013841D01*
X63268068Y-34020813D01*
X62878068Y-34200813D01*
X62871979Y-34203963D01*
X62696469Y-34305014D01*
X62780039Y-34110017D01*
X62781416Y-34106574D01*
X62941416Y-33676574D01*
X62946200Y-33650000D01*
X62946200Y-33580000D01*
X62944173Y-33562542D01*
X62931537Y-33535060D01*
X62909205Y-33514659D01*
X62859205Y-33484659D01*
X62828225Y-33474245D01*
X62798104Y-33477014D01*
X62698104Y-33507014D01*
X62666438Y-33525801D01*
X62649571Y-33550910D01*
X62460976Y-34007508D01*
X62126305Y-34637478D01*
X61993039Y-34799300D01*
X61495073Y-35317185D01*
X61487208Y-35326831D01*
X61267208Y-35646831D01*
X61253807Y-35688947D01*
X60788394Y-35688947D01*
X60145436Y-35060540D01*
X60534390Y-35060540D01*
X60536666Y-35090702D01*
X60550498Y-35117602D01*
X60590498Y-35167602D01*
X60596118Y-35173882D01*
X60666118Y-35243882D01*
X60685906Y-35258147D01*
X60715105Y-35266043D01*
X60745076Y-35261956D01*
X60771095Y-35246531D01*
X61289558Y-34777920D01*
X61497945Y-34609226D01*
X61509351Y-34597790D01*
X61523268Y-34570934D01*
X61530845Y-34544415D01*
X61535157Y-34544677D01*
X61563016Y-34532897D01*
X61584098Y-34511206D01*
X61669670Y-34378094D01*
X62033882Y-34013882D01*
X62040960Y-34005720D01*
X62067708Y-33970056D01*
X62103882Y-33933882D01*
X62120675Y-33908485D01*
X62126190Y-33878744D01*
X62123223Y-33865240D01*
X62128645Y-33865708D01*
X62157418Y-33856380D01*
X62180296Y-33836592D01*
X62350296Y-33616592D01*
X62364620Y-33585439D01*
X62424620Y-33295439D01*
X62422731Y-33257271D01*
X62372731Y-33097271D01*
X62357855Y-33070410D01*
X62297855Y-33000410D01*
X62287602Y-32990498D01*
X62237602Y-32950498D01*
X62208481Y-32936075D01*
X62088481Y-32906075D01*
X62046896Y-32907387D01*
X61826896Y-32977387D01*
X61803712Y-32989470D01*
X61633712Y-33119470D01*
X61619040Y-33134280D01*
X61529040Y-33254280D01*
X61520608Y-33268518D01*
X61513826Y-33297995D01*
X61506882Y-33561861D01*
X61503826Y-33677995D01*
X61507170Y-33702409D01*
X61574980Y-33922791D01*
X61341616Y-34201033D01*
X61328652Y-34223244D01*
X61307282Y-34280232D01*
X61177732Y-34366598D01*
X61165198Y-34377055D01*
X60595198Y-34967055D01*
X60590498Y-34972398D01*
X60550498Y-35022398D01*
X60534390Y-35060540D01*
X60145436Y-35060540D01*
X60104733Y-35020759D01*
X60060534Y-34991952D01*
X60016616Y-34962607D01*
X60015022Y-34962290D01*
X60013663Y-34961404D01*
X59961776Y-34951699D01*
X59910000Y-34941400D01*
X59908408Y-34941717D01*
X59906812Y-34941418D01*
X59855158Y-34952309D01*
X59803384Y-34962607D01*
X59802034Y-34963509D01*
X59800446Y-34963844D01*
X59756906Y-34993663D01*
X59713000Y-35023000D01*
X59712098Y-35024350D01*
X59710759Y-35025267D01*
X59681952Y-35069466D01*
X59652607Y-35113384D01*
X59652290Y-35114978D01*
X59651404Y-35116337D01*
X59641699Y-35168224D01*
X59631400Y-35220000D01*
X59631400Y-50881400D01*
X51574807Y-50881400D01*
X51605040Y-50808412D01*
X51605040Y-50516057D01*
X51458990Y-50370007D01*
X50888760Y-50370007D01*
X50920252Y-50253874D01*
X50889458Y-50014407D01*
X51458990Y-50014407D01*
X51605040Y-49868357D01*
X51605040Y-49576002D01*
X51516101Y-49361284D01*
X51351762Y-49196946D01*
X51137044Y-49108007D01*
X49344690Y-49108007D01*
X49198640Y-49254057D01*
X49198640Y-49845809D01*
X49121428Y-50130540D01*
X49154794Y-50390007D01*
X48843040Y-50390007D01*
X48843040Y-50370007D01*
X48823040Y-50370007D01*
X48823040Y-50014407D01*
X48843040Y-50014407D01*
X48843040Y-49254057D01*
X48696990Y-49108007D01*
X46908600Y-49108007D01*
X46908600Y-48892191D01*
X46930160Y-48906922D01*
X47020840Y-48925285D01*
X51020840Y-48925285D01*
X51105554Y-48909345D01*
X51183358Y-48859279D01*
X51235555Y-48782887D01*
X51253918Y-48692207D01*
X51253918Y-47692207D01*
X51237978Y-47607493D01*
X51187912Y-47529689D01*
X51111520Y-47477492D01*
X51020840Y-47459129D01*
X47020840Y-47459129D01*
X46936126Y-47475069D01*
X46908600Y-47492782D01*
X46908600Y-47276407D01*
X48696990Y-47276407D01*
X48843040Y-47130357D01*
X48843040Y-46370007D01*
X48823040Y-46370007D01*
X48823040Y-46014407D01*
X48843040Y-46014407D01*
X48843040Y-45994407D01*
X49158344Y-45994407D01*
X49121428Y-46130540D01*
X49166293Y-46479424D01*
X49198640Y-46557517D01*
X49198640Y-47130357D01*
X49344690Y-47276407D01*
X51137044Y-47276407D01*
X51351762Y-47187468D01*
X51478284Y-47060946D01*
X56526426Y-47060946D01*
X56534904Y-47236416D01*
X56853432Y-47329554D01*
X57183356Y-47293706D01*
X57321666Y-47236416D01*
X57330144Y-47060946D01*
X56928285Y-46659087D01*
X56526426Y-47060946D01*
X51478284Y-47060946D01*
X51516101Y-47023130D01*
X51605040Y-46808412D01*
X51605040Y-46516057D01*
X51496440Y-46407457D01*
X56081041Y-46407457D01*
X56116889Y-46737381D01*
X56174179Y-46875691D01*
X56349649Y-46884169D01*
X56751508Y-46482310D01*
X57105062Y-46482310D01*
X57506921Y-46884169D01*
X57682391Y-46875691D01*
X57775529Y-46557163D01*
X57739681Y-46227239D01*
X57682391Y-46088929D01*
X57506921Y-46080451D01*
X57105062Y-46482310D01*
X56751508Y-46482310D01*
X56349649Y-46080451D01*
X56174179Y-46088929D01*
X56081041Y-46407457D01*
X51496440Y-46407457D01*
X51458990Y-46370007D01*
X50888760Y-46370007D01*
X50920252Y-46253874D01*
X50889458Y-46014407D01*
X51458990Y-46014407D01*
X51569723Y-45903674D01*
X56526426Y-45903674D01*
X56928285Y-46305533D01*
X57330144Y-45903674D01*
X57321666Y-45728204D01*
X57003138Y-45635066D01*
X56673214Y-45670914D01*
X56534904Y-45728204D01*
X56526426Y-45903674D01*
X51569723Y-45903674D01*
X51605040Y-45868357D01*
X51605040Y-45576002D01*
X51516101Y-45361284D01*
X51511904Y-45357087D01*
X51527000Y-45347000D01*
X51587393Y-45256616D01*
X51608600Y-45150000D01*
X51608600Y-40370526D01*
X56526426Y-40370526D01*
X56534904Y-40545996D01*
X56853432Y-40639134D01*
X57183356Y-40603286D01*
X57321666Y-40545996D01*
X57330144Y-40370526D01*
X56928285Y-39968667D01*
X56526426Y-40370526D01*
X51608600Y-40370526D01*
X51608600Y-39717037D01*
X56081041Y-39717037D01*
X56116889Y-40046961D01*
X56174179Y-40185271D01*
X56349649Y-40193749D01*
X56751508Y-39791890D01*
X57105062Y-39791890D01*
X57506921Y-40193749D01*
X57682391Y-40185271D01*
X57775529Y-39866743D01*
X57739681Y-39536819D01*
X57682391Y-39398509D01*
X57506921Y-39390031D01*
X57105062Y-39791890D01*
X56751508Y-39791890D01*
X56349649Y-39390031D01*
X56174179Y-39398509D01*
X56081041Y-39717037D01*
X51608600Y-39717037D01*
X51608600Y-39213254D01*
X56526426Y-39213254D01*
X56928285Y-39615113D01*
X57330144Y-39213254D01*
X57321666Y-39037784D01*
X57003138Y-38944646D01*
X56673214Y-38980494D01*
X56534904Y-39037784D01*
X56526426Y-39213254D01*
X51608600Y-39213254D01*
X51608600Y-35797488D01*
X52782965Y-35797488D01*
X52855674Y-35973457D01*
X52990189Y-36108206D01*
X53166031Y-36181222D01*
X53314340Y-36181352D01*
X52988152Y-37489620D01*
X52983125Y-37575674D01*
X53012881Y-37663280D01*
X53074376Y-37732406D01*
X53157920Y-37772162D01*
X56068807Y-38497928D01*
X56154861Y-38502955D01*
X56242467Y-38473199D01*
X56311593Y-38411704D01*
X56351349Y-38328160D01*
X57222268Y-34835096D01*
X57227295Y-34749042D01*
X57197539Y-34661436D01*
X57136044Y-34592310D01*
X57052500Y-34552554D01*
X54141613Y-33826788D01*
X54055559Y-33821761D01*
X53967953Y-33851517D01*
X53898827Y-33913012D01*
X53859071Y-33996556D01*
X53534448Y-35298549D01*
X53533107Y-35297206D01*
X53357265Y-35224190D01*
X53166866Y-35224023D01*
X52990897Y-35296732D01*
X52856148Y-35431247D01*
X52783132Y-35607089D01*
X52782965Y-35797488D01*
X51608600Y-35797488D01*
X51608600Y-33680106D01*
X56526426Y-33680106D01*
X56534904Y-33855576D01*
X56853432Y-33948714D01*
X57183356Y-33912866D01*
X57321666Y-33855576D01*
X57325767Y-33770695D01*
X59604554Y-33770695D01*
X59614659Y-33799205D01*
X59644659Y-33849205D01*
X59656118Y-33863882D01*
X59706118Y-33913882D01*
X59720795Y-33925341D01*
X59770795Y-33955341D01*
X59790499Y-33963662D01*
X59820695Y-33965446D01*
X59849205Y-33955341D01*
X59899205Y-33925341D01*
X59916953Y-33910625D01*
X60316241Y-33461426D01*
X60574937Y-33186561D01*
X60670192Y-33307217D01*
X60676118Y-33313882D01*
X60774666Y-33412430D01*
X60513692Y-33698660D01*
X60508504Y-33705003D01*
X60208504Y-34115003D01*
X60199803Y-34130354D01*
X60193800Y-34160000D01*
X60193800Y-34220000D01*
X60199401Y-34248673D01*
X60216118Y-34273882D01*
X60266118Y-34323882D01*
X60285922Y-34338155D01*
X60345922Y-34368155D01*
X60378947Y-34376193D01*
X60408673Y-34370599D01*
X60433882Y-34353882D01*
X60493882Y-34293882D01*
X60497855Y-34289590D01*
X61397855Y-33239590D01*
X61400494Y-33236335D01*
X61760494Y-32766335D01*
X61770352Y-32749275D01*
X61776199Y-32719597D01*
X61770039Y-32689983D01*
X61740039Y-32619983D01*
X61733402Y-32607732D01*
X61713402Y-32577732D01*
X61693704Y-32557579D01*
X61665975Y-32545493D01*
X61635729Y-32545148D01*
X61607732Y-32556598D01*
X61457732Y-32656598D01*
X61445112Y-32667145D01*
X61185112Y-32937145D01*
X61180927Y-32941867D01*
X61011484Y-33149819D01*
X60974136Y-33116206D01*
X60903647Y-33036905D01*
X60846200Y-32922012D01*
X60846200Y-32900364D01*
X61005318Y-32732406D01*
X61010762Y-32725982D01*
X61290762Y-32355982D01*
X61299780Y-32340613D01*
X61306193Y-32311053D01*
X61300599Y-32281327D01*
X61283882Y-32256118D01*
X61183882Y-32156118D01*
X61158133Y-32139183D01*
X61128365Y-32133818D01*
X61098854Y-32140456D01*
X61074251Y-32158053D01*
X60254698Y-33037574D01*
X59725634Y-33586602D01*
X59656118Y-33656118D01*
X59644659Y-33670795D01*
X59614659Y-33720795D01*
X59606338Y-33740499D01*
X59604554Y-33770695D01*
X57325767Y-33770695D01*
X57330144Y-33680106D01*
X56928285Y-33278247D01*
X56526426Y-33680106D01*
X51608600Y-33680106D01*
X51608600Y-33026617D01*
X56081041Y-33026617D01*
X56116889Y-33356541D01*
X56174179Y-33494851D01*
X56349649Y-33503329D01*
X56751508Y-33101470D01*
X57105062Y-33101470D01*
X57506921Y-33503329D01*
X57682391Y-33494851D01*
X57775529Y-33176323D01*
X57768958Y-33115844D01*
X58684024Y-33115844D01*
X58704024Y-33375844D01*
X58705491Y-33385966D01*
X58735491Y-33525966D01*
X58756118Y-33563882D01*
X58856118Y-33663882D01*
X58870795Y-33675341D01*
X58920795Y-33705341D01*
X58940499Y-33713662D01*
X58970695Y-33715446D01*
X58999205Y-33705341D01*
X59049205Y-33675341D01*
X59063882Y-33663882D01*
X59113882Y-33613882D01*
X59134850Y-33574280D01*
X59134509Y-33544034D01*
X59076936Y-33275360D01*
X59104670Y-32970284D01*
X59174561Y-32821766D01*
X59225941Y-32761823D01*
X59320667Y-32667097D01*
X59444145Y-32570079D01*
X59991830Y-32435560D01*
X60415303Y-32406015D01*
X60452268Y-32393402D01*
X60602268Y-32293402D01*
X60615706Y-32281993D01*
X60755706Y-32131993D01*
X60767431Y-32115490D01*
X60867431Y-31925490D01*
X60876163Y-31887620D01*
X60866163Y-31567620D01*
X60862905Y-31547836D01*
X60848538Y-31521218D01*
X60751145Y-31404346D01*
X60733402Y-31377732D01*
X60723596Y-31365834D01*
X60698300Y-31349250D01*
X60648300Y-31329250D01*
X60605056Y-31325280D01*
X60505056Y-31345280D01*
X60466118Y-31366118D01*
X60416118Y-31416118D01*
X60407831Y-31428783D01*
X60375489Y-31393492D01*
X59807181Y-31396170D01*
X59809859Y-31964479D01*
X59940486Y-32081946D01*
X60230823Y-31921200D01*
X60437545Y-31661583D01*
X60472514Y-31576022D01*
X60528399Y-31627608D01*
X60542771Y-31728211D01*
X60508275Y-31909317D01*
X60475183Y-31955645D01*
X60389073Y-32018271D01*
X59931872Y-32103996D01*
X59577884Y-32113829D01*
X59549983Y-32119961D01*
X59269983Y-32239961D01*
X59253540Y-32249602D01*
X59123540Y-32349602D01*
X59116118Y-32356118D01*
X58996118Y-32476118D01*
X58993617Y-32478742D01*
X58893617Y-32588742D01*
X58883663Y-32602505D01*
X58753663Y-32832505D01*
X58746075Y-32851519D01*
X58686075Y-33091519D01*
X58684024Y-33115844D01*
X57768958Y-33115844D01*
X57739681Y-32846399D01*
X57682391Y-32708089D01*
X57506921Y-32699611D01*
X57105062Y-33101470D01*
X56751508Y-33101470D01*
X56349649Y-32699611D01*
X56174179Y-32708089D01*
X56081041Y-33026617D01*
X51608600Y-33026617D01*
X51608600Y-32522834D01*
X56526426Y-32522834D01*
X56928285Y-32924693D01*
X57330144Y-32522834D01*
X57321666Y-32347364D01*
X57003138Y-32254226D01*
X56673214Y-32290074D01*
X56534904Y-32347364D01*
X56526426Y-32522834D01*
X51608600Y-32522834D01*
X51608600Y-31530654D01*
X58871408Y-31530654D01*
X59032154Y-31820991D01*
X59291771Y-32027713D01*
X59430349Y-32084350D01*
X59559862Y-31965657D01*
X59557184Y-31397349D01*
X58988875Y-31400027D01*
X58871408Y-31530654D01*
X51608600Y-31530654D01*
X51608600Y-31020517D01*
X58869004Y-31020517D01*
X58987697Y-31150030D01*
X59556005Y-31147352D01*
X59553327Y-30579043D01*
X59552018Y-30577865D01*
X59803324Y-30577865D01*
X59806002Y-31146173D01*
X60374311Y-31143495D01*
X60491778Y-31012868D01*
X60331032Y-30722531D01*
X60071415Y-30515809D01*
X59932837Y-30459172D01*
X59803324Y-30577865D01*
X59552018Y-30577865D01*
X59422700Y-30461576D01*
X59132363Y-30622322D01*
X58925641Y-30881939D01*
X58869004Y-31020517D01*
X51608600Y-31020517D01*
X51608600Y-26866650D01*
X54005404Y-26866650D01*
X54170424Y-27154579D01*
X54433070Y-27357439D01*
X54572471Y-27412021D01*
X54700214Y-27291427D01*
X54689133Y-26723220D01*
X54120926Y-26734301D01*
X54005404Y-26866650D01*
X51608600Y-26866650D01*
X51608600Y-26718345D01*
X54939086Y-26718345D01*
X54950167Y-27286552D01*
X55082516Y-27402074D01*
X55370445Y-27237054D01*
X55573305Y-26974408D01*
X55627887Y-26835007D01*
X55507293Y-26707264D01*
X54939086Y-26718345D01*
X51608600Y-26718345D01*
X51608600Y-26356605D01*
X53995457Y-26356605D01*
X54116051Y-26484348D01*
X54684258Y-26473267D01*
X54673177Y-25905060D01*
X54667592Y-25900185D01*
X54923130Y-25900185D01*
X54934211Y-26468392D01*
X55502418Y-26457311D01*
X55617940Y-26324962D01*
X55452920Y-26037033D01*
X55190274Y-25834173D01*
X55050873Y-25779591D01*
X54923130Y-25900185D01*
X54667592Y-25900185D01*
X54540828Y-25789538D01*
X54252899Y-25954558D01*
X54050039Y-26217204D01*
X53995457Y-26356605D01*
X51608600Y-26356605D01*
X51608600Y-18858600D01*
X54236409Y-18858600D01*
X70545199Y-34809175D01*
X70545199Y-34809175D01*
G37*
X70545199Y-34809175D02*
X70589449Y-34838036D01*
X70633384Y-34867393D01*
X70634930Y-34867700D01*
X70636249Y-34868561D01*
X70688190Y-34878294D01*
X70740000Y-34888600D01*
X70741544Y-34888293D01*
X70743093Y-34888583D01*
X70794782Y-34877703D01*
X70846616Y-34867393D01*
X70847927Y-34866517D01*
X70849467Y-34866193D01*
X70893032Y-34836379D01*
X70937000Y-34807000D01*
X70937876Y-34805689D01*
X70939175Y-34804800D01*
X70968022Y-34760572D01*
X70997393Y-34716616D01*
X70997700Y-34715070D01*
X70998561Y-34713751D01*
X71008293Y-34661818D01*
X71018600Y-34610000D01*
X71018600Y-21027664D01*
X72407507Y-21027664D01*
X72407507Y-21787664D01*
X72423447Y-21872378D01*
X72473513Y-21950182D01*
X72549905Y-22002379D01*
X72640585Y-22020742D01*
X74640585Y-22020742D01*
X74725299Y-22004802D01*
X74803103Y-21954736D01*
X74855300Y-21878344D01*
X74873663Y-21787664D01*
X74873663Y-21675742D01*
X75157507Y-21675742D01*
X75157507Y-22363013D01*
X75140585Y-22359586D01*
X74873663Y-22359586D01*
X74873663Y-22297664D01*
X74857723Y-22212950D01*
X74807657Y-22135146D01*
X74731265Y-22082949D01*
X74640585Y-22064586D01*
X72640585Y-22064586D01*
X72555871Y-22080526D01*
X72478067Y-22130592D01*
X72425870Y-22206984D01*
X72407507Y-22297664D01*
X72407507Y-23057664D01*
X72423447Y-23142378D01*
X72473513Y-23220182D01*
X72549905Y-23272379D01*
X72640585Y-23290742D01*
X74640585Y-23290742D01*
X74707507Y-23278150D01*
X74707507Y-23348138D01*
X74640585Y-23334586D01*
X72640585Y-23334586D01*
X72555871Y-23350526D01*
X72478067Y-23400592D01*
X72425870Y-23476984D01*
X72407507Y-23567664D01*
X72407507Y-24327664D01*
X72423447Y-24412378D01*
X72473513Y-24490182D01*
X72502411Y-24509927D01*
X72478067Y-24525592D01*
X72425870Y-24601984D01*
X72407507Y-24692664D01*
X72407507Y-25592664D01*
X72423447Y-25677378D01*
X72473513Y-25755182D01*
X72491105Y-25767202D01*
X72478067Y-25775592D01*
X72425870Y-25851984D01*
X72407507Y-25942664D01*
X72407507Y-26842664D01*
X72423447Y-26927378D01*
X72473513Y-27005182D01*
X72491105Y-27017202D01*
X72478067Y-27025592D01*
X72425870Y-27101984D01*
X72407507Y-27192664D01*
X72407507Y-28092664D01*
X72423447Y-28177378D01*
X72473513Y-28255182D01*
X72549905Y-28307379D01*
X72640585Y-28325742D01*
X72965561Y-28325742D01*
X75164619Y-39583718D01*
X74784981Y-39489064D01*
X74698927Y-39484037D01*
X74611321Y-39513793D01*
X74542195Y-39575288D01*
X74502439Y-39658832D01*
X73873442Y-42181601D01*
X73868415Y-42267655D01*
X73898171Y-42355261D01*
X73959666Y-42424387D01*
X74043210Y-42464143D01*
X76954097Y-43189908D01*
X77040151Y-43194935D01*
X77127757Y-43165179D01*
X77196883Y-43103684D01*
X77236639Y-43020140D01*
X77865636Y-40497371D01*
X77870663Y-40411317D01*
X77840907Y-40323711D01*
X77779412Y-40254585D01*
X77695868Y-40214829D01*
X75926358Y-39773641D01*
X75758657Y-38915100D01*
X75865941Y-39022384D01*
X75942168Y-38946157D01*
X75947204Y-39050396D01*
X76265732Y-39143534D01*
X76595656Y-39107686D01*
X76733966Y-39050396D01*
X76742444Y-38874926D01*
X76340585Y-38473067D01*
X76289108Y-38524545D01*
X76112331Y-38347768D01*
X76163808Y-38296290D01*
X76517362Y-38296290D01*
X76919221Y-38698149D01*
X77094691Y-38689671D01*
X77187829Y-38371143D01*
X77151981Y-38041219D01*
X77094691Y-37902909D01*
X76919221Y-37894431D01*
X76517362Y-38296290D01*
X76163808Y-38296290D01*
X75761949Y-37894431D01*
X75586479Y-37902909D01*
X75571169Y-37955268D01*
X75524756Y-37717654D01*
X75938726Y-37717654D01*
X76340585Y-38119513D01*
X76742444Y-37717654D01*
X76733966Y-37542184D01*
X76415438Y-37449046D01*
X76085514Y-37484894D01*
X75947204Y-37542184D01*
X75938726Y-37717654D01*
X75524756Y-37717654D01*
X74443933Y-32184428D01*
X75938726Y-32184428D01*
X75947204Y-32359898D01*
X76265732Y-32453036D01*
X76595656Y-32417188D01*
X76733966Y-32359898D01*
X76742444Y-32184428D01*
X76340585Y-31782569D01*
X75938726Y-32184428D01*
X74443933Y-32184428D01*
X74316284Y-31530939D01*
X75493341Y-31530939D01*
X75529189Y-31860863D01*
X75586479Y-31999173D01*
X75761949Y-32007651D01*
X76163808Y-31605792D01*
X76517362Y-31605792D01*
X76919221Y-32007651D01*
X77094691Y-31999173D01*
X77187829Y-31680645D01*
X77151981Y-31350721D01*
X77094691Y-31212411D01*
X76919221Y-31203933D01*
X76517362Y-31605792D01*
X76163808Y-31605792D01*
X75761949Y-31203933D01*
X75586479Y-31212411D01*
X75493341Y-31530939D01*
X74316284Y-31530939D01*
X74217879Y-31027156D01*
X75938726Y-31027156D01*
X76340585Y-31429015D01*
X76742444Y-31027156D01*
X76733966Y-30851686D01*
X76415438Y-30758548D01*
X76085514Y-30794396D01*
X75947204Y-30851686D01*
X75938726Y-31027156D01*
X74217879Y-31027156D01*
X73473663Y-27217181D01*
X73473663Y-27192664D01*
X73457723Y-27107950D01*
X73449974Y-27095908D01*
X73426464Y-26975547D01*
X73455300Y-26933344D01*
X73473663Y-26842664D01*
X73473663Y-25942664D01*
X73457723Y-25857950D01*
X73407657Y-25780146D01*
X73390065Y-25768126D01*
X73403103Y-25759736D01*
X73455300Y-25683344D01*
X73473663Y-25592664D01*
X73473663Y-24692664D01*
X73457723Y-24607950D01*
X73427345Y-24560742D01*
X73954050Y-24560742D01*
X73925870Y-24601984D01*
X73907507Y-24692664D01*
X73907507Y-25592664D01*
X73923447Y-25677378D01*
X73973513Y-25755182D01*
X73991105Y-25767202D01*
X73978067Y-25775592D01*
X73925870Y-25851984D01*
X73907507Y-25942664D01*
X73907507Y-26842664D01*
X73923447Y-26927378D01*
X73973513Y-27005182D01*
X73991105Y-27017202D01*
X73978067Y-27025592D01*
X73925870Y-27101984D01*
X73907507Y-27192664D01*
X73907507Y-28092664D01*
X73923447Y-28177378D01*
X73973513Y-28255182D01*
X74049905Y-28307379D01*
X74140585Y-28325742D01*
X74740585Y-28325742D01*
X74825299Y-28309802D01*
X74903103Y-28259736D01*
X74955300Y-28183344D01*
X74973663Y-28092664D01*
X74973663Y-27975742D01*
X75590585Y-27975742D01*
X75675299Y-27959802D01*
X75753103Y-27909736D01*
X75805300Y-27833344D01*
X75823663Y-27742664D01*
X75823663Y-25599108D01*
X75865941Y-25641386D01*
X75942168Y-25565159D01*
X75947204Y-25669398D01*
X76265732Y-25762536D01*
X76595656Y-25726688D01*
X76733966Y-25669398D01*
X76742444Y-25493928D01*
X76340585Y-25092069D01*
X76289108Y-25143547D01*
X76112331Y-24966770D01*
X76163808Y-24915292D01*
X76160380Y-24911864D01*
X76516735Y-24911864D01*
X76662783Y-24765816D01*
X76662783Y-24769871D01*
X76517362Y-24915292D01*
X76919221Y-25317151D01*
X77094691Y-25308673D01*
X77187829Y-24990145D01*
X77179323Y-24911864D01*
X77956789Y-24911864D01*
X78171507Y-24822925D01*
X78335846Y-24658587D01*
X78424785Y-24443869D01*
X78424785Y-24271514D01*
X78278735Y-24125464D01*
X77018385Y-24125464D01*
X77018385Y-24145464D01*
X76680196Y-24145464D01*
X76662785Y-24140373D01*
X76662785Y-24125464D01*
X76642785Y-24125464D01*
X76642785Y-23769864D01*
X76662785Y-23769864D01*
X76662785Y-22855464D01*
X77018385Y-22855464D01*
X77018385Y-23769864D01*
X78278735Y-23769864D01*
X78424785Y-23623814D01*
X78424785Y-23451459D01*
X78367294Y-23312664D01*
X78424785Y-23173869D01*
X78424785Y-23001514D01*
X78278735Y-22855464D01*
X77018385Y-22855464D01*
X76662785Y-22855464D01*
X76642785Y-22855464D01*
X76642785Y-22499864D01*
X76662785Y-22499864D01*
X76662785Y-21585464D01*
X77018385Y-21585464D01*
X77018385Y-22499864D01*
X78278735Y-22499864D01*
X78424785Y-22353814D01*
X78424785Y-22181459D01*
X78367294Y-22042664D01*
X78424785Y-21903869D01*
X78424785Y-21731514D01*
X78278735Y-21585464D01*
X77018385Y-21585464D01*
X76662785Y-21585464D01*
X76642785Y-21585464D01*
X76642785Y-21229864D01*
X76662785Y-21229864D01*
X76662785Y-20315464D01*
X77018385Y-20315464D01*
X77018385Y-21229864D01*
X78278735Y-21229864D01*
X78424785Y-21083814D01*
X78424785Y-20911459D01*
X78367294Y-20772664D01*
X78424785Y-20633869D01*
X78424785Y-20461514D01*
X78278735Y-20315464D01*
X77018385Y-20315464D01*
X76662785Y-20315464D01*
X75402435Y-20315464D01*
X75256385Y-20461514D01*
X75256385Y-20633869D01*
X75313876Y-20772664D01*
X75256385Y-20911459D01*
X75256385Y-21009586D01*
X74870261Y-21009586D01*
X74857723Y-20942950D01*
X74807657Y-20865146D01*
X74731265Y-20812949D01*
X74640585Y-20794586D01*
X72640585Y-20794586D01*
X72555871Y-20810526D01*
X72478067Y-20860592D01*
X72425870Y-20936984D01*
X72407507Y-21027664D01*
X71018600Y-21027664D01*
X71018600Y-19767664D01*
X72407507Y-19767664D01*
X72407507Y-20507664D01*
X72423447Y-20592378D01*
X72473513Y-20670182D01*
X72549905Y-20722379D01*
X72640585Y-20740742D01*
X74640585Y-20740742D01*
X74725299Y-20724802D01*
X74803103Y-20674736D01*
X74855300Y-20598344D01*
X74873663Y-20507664D01*
X74873663Y-19767664D01*
X74857723Y-19682950D01*
X74831025Y-19641459D01*
X75256385Y-19641459D01*
X75256385Y-19813814D01*
X75402435Y-19959864D01*
X76662785Y-19959864D01*
X76662785Y-19319514D01*
X77018385Y-19319514D01*
X77018385Y-19959864D01*
X78278735Y-19959864D01*
X78424785Y-19813814D01*
X78424785Y-19641459D01*
X78335846Y-19426741D01*
X78171507Y-19262403D01*
X77956789Y-19173464D01*
X77164435Y-19173464D01*
X77018385Y-19319514D01*
X76662785Y-19319514D01*
X76516735Y-19173464D01*
X75724381Y-19173464D01*
X75509663Y-19262403D01*
X75345324Y-19426741D01*
X75256385Y-19641459D01*
X74831025Y-19641459D01*
X74807657Y-19605146D01*
X74731265Y-19552949D01*
X74640585Y-19534586D01*
X72640585Y-19534586D01*
X72555871Y-19550526D01*
X72478067Y-19600592D01*
X72425870Y-19676984D01*
X72407507Y-19767664D01*
X71018600Y-19767664D01*
X71018600Y-18998600D01*
X78941400Y-18998600D01*
X78941400Y-45150000D01*
X78962607Y-45256616D01*
X79023000Y-45347000D01*
X79100105Y-45398520D01*
X79026590Y-45576002D01*
X79026590Y-45868357D01*
X79172640Y-46014407D01*
X79742870Y-46014407D01*
X79711378Y-46130540D01*
X79742172Y-46370007D01*
X79172640Y-46370007D01*
X79026590Y-46516057D01*
X79026590Y-46808412D01*
X79115529Y-47023130D01*
X79279868Y-47187468D01*
X79494586Y-47276407D01*
X81286940Y-47276407D01*
X81432990Y-47130357D01*
X81432990Y-46538605D01*
X81510202Y-46253874D01*
X81476836Y-45994407D01*
X81788590Y-45994407D01*
X81788590Y-46014407D01*
X81808590Y-46014407D01*
X81808590Y-46370007D01*
X81788590Y-46370007D01*
X81788590Y-47130357D01*
X81934640Y-47276407D01*
X83641400Y-47276407D01*
X83641400Y-47465328D01*
X83610790Y-47459129D01*
X79610790Y-47459129D01*
X79526076Y-47475069D01*
X79448272Y-47525135D01*
X79396075Y-47601527D01*
X79377712Y-47692207D01*
X79377712Y-48692207D01*
X79393652Y-48776921D01*
X79443718Y-48854725D01*
X79520110Y-48906922D01*
X79610790Y-48925285D01*
X83610790Y-48925285D01*
X83641400Y-48919525D01*
X83641400Y-49108007D01*
X81934640Y-49108007D01*
X81788590Y-49254057D01*
X81788590Y-50014407D01*
X81808590Y-50014407D01*
X81808590Y-50370007D01*
X81788590Y-50370007D01*
X81788590Y-50390007D01*
X81473286Y-50390007D01*
X81510202Y-50253874D01*
X81465337Y-49904990D01*
X81432990Y-49826897D01*
X81432990Y-49254057D01*
X81286940Y-49108007D01*
X79494586Y-49108007D01*
X79279868Y-49196946D01*
X79115529Y-49361284D01*
X79026590Y-49576002D01*
X79026590Y-49868357D01*
X79172640Y-50014407D01*
X79742870Y-50014407D01*
X79711378Y-50130540D01*
X79742172Y-50370007D01*
X79172640Y-50370007D01*
X79026590Y-50516057D01*
X79026590Y-50808412D01*
X79072719Y-50919778D01*
X79070292Y-50921400D01*
X76373537Y-50921400D01*
X70893559Y-45565433D01*
X75938726Y-45565433D01*
X75947204Y-45740903D01*
X76265732Y-45834041D01*
X76595656Y-45798193D01*
X76733966Y-45740903D01*
X76742444Y-45565433D01*
X76340585Y-45163574D01*
X75938726Y-45565433D01*
X70893559Y-45565433D01*
X70224939Y-44911944D01*
X75493341Y-44911944D01*
X75529189Y-45241868D01*
X75586479Y-45380178D01*
X75761949Y-45388656D01*
X76163808Y-44986797D01*
X76517362Y-44986797D01*
X76919221Y-45388656D01*
X77094691Y-45380178D01*
X77187829Y-45061650D01*
X77151981Y-44731726D01*
X77094691Y-44593416D01*
X76919221Y-44584938D01*
X76517362Y-44986797D01*
X76163808Y-44986797D01*
X75761949Y-44584938D01*
X75586479Y-44593416D01*
X75493341Y-44911944D01*
X70224939Y-44911944D01*
X69709492Y-44408161D01*
X75938726Y-44408161D01*
X76340585Y-44810020D01*
X76742444Y-44408161D01*
X76733966Y-44232691D01*
X76415438Y-44139553D01*
X76085514Y-44175401D01*
X75947204Y-44232691D01*
X75938726Y-44408161D01*
X69709492Y-44408161D01*
X66867215Y-41630205D01*
X67554486Y-41630205D01*
X67604486Y-42000205D01*
X67622416Y-42039906D01*
X67752416Y-42189906D01*
X67763218Y-42200149D01*
X67853218Y-42270149D01*
X67890144Y-42285560D01*
X68120144Y-42315560D01*
X68154097Y-42312290D01*
X68454097Y-42212290D01*
X68469457Y-42205189D01*
X68849457Y-41975189D01*
X68857945Y-41969226D01*
X69067945Y-41799226D01*
X69073882Y-41793882D01*
X69103882Y-41763882D01*
X69110149Y-41756782D01*
X69320149Y-41486782D01*
X69325221Y-41479404D01*
X69379396Y-41389734D01*
X69509039Y-41503941D01*
X69797718Y-41340234D01*
X70001773Y-41078516D01*
X70056990Y-40939366D01*
X69936979Y-40811074D01*
X69668882Y-40815080D01*
X69733472Y-40580205D01*
X69734095Y-40564077D01*
X69933244Y-40561101D01*
X70049369Y-40429281D01*
X69885662Y-40140602D01*
X69623944Y-39936547D01*
X69484794Y-39881330D01*
X69356502Y-40001341D01*
X69357093Y-40040873D01*
X69335056Y-40045280D01*
X69305541Y-40058115D01*
X69284966Y-40080288D01*
X69274640Y-40108718D01*
X69276188Y-40138926D01*
X69363654Y-40480045D01*
X69364847Y-40559898D01*
X69336714Y-40735731D01*
X69221758Y-40956062D01*
X69119207Y-40853511D01*
X69118756Y-40823300D01*
X69089434Y-40823738D01*
X68976283Y-40710587D01*
X68859699Y-40827171D01*
X68600209Y-40831048D01*
X68599397Y-40828528D01*
X68581685Y-40804008D01*
X68451685Y-40684008D01*
X68448782Y-40681462D01*
X68388782Y-40631462D01*
X68352527Y-40614837D01*
X68232527Y-40594837D01*
X68215123Y-40593956D01*
X68185922Y-40601845D01*
X68125922Y-40631845D01*
X68110472Y-40642091D01*
X68091845Y-40665922D01*
X67994423Y-40860766D01*
X67637747Y-41366057D01*
X67627710Y-41385903D01*
X67557710Y-41595903D01*
X67554486Y-41630205D01*
X66867215Y-41630205D01*
X65876100Y-40661519D01*
X66636075Y-40661519D01*
X66637710Y-40704097D01*
X66707710Y-40914097D01*
X66732922Y-40949917D01*
X66872922Y-41059917D01*
X66890354Y-41070197D01*
X66920000Y-41076200D01*
X67190000Y-41076200D01*
X67212711Y-41072737D01*
X67239221Y-41058170D01*
X67369221Y-40948170D01*
X67371170Y-40946463D01*
X67691170Y-40656463D01*
X67693117Y-40654635D01*
X67899971Y-40453526D01*
X68426758Y-40453526D01*
X68546769Y-40581818D01*
X69115020Y-40573328D01*
X69106529Y-40005076D01*
X68974709Y-39888951D01*
X68686030Y-40052658D01*
X68481975Y-40314376D01*
X68426758Y-40453526D01*
X67899971Y-40453526D01*
X68053117Y-40304635D01*
X68054340Y-40303419D01*
X68634340Y-39713419D01*
X68652290Y-39684097D01*
X68672290Y-39624097D01*
X68676044Y-39595123D01*
X68668155Y-39565922D01*
X68648155Y-39525922D01*
X68633882Y-39506118D01*
X68603882Y-39476118D01*
X68564944Y-39455280D01*
X68514944Y-39445280D01*
X68484418Y-39445410D01*
X68456626Y-39457349D01*
X68196626Y-39637349D01*
X68186118Y-39646118D01*
X67986118Y-39846118D01*
X67985365Y-39846883D01*
X67287952Y-40564222D01*
X67080833Y-40739477D01*
X67055461Y-40717276D01*
X66909808Y-40532783D01*
X66895143Y-40518611D01*
X66867702Y-40505885D01*
X66837473Y-40504837D01*
X66717473Y-40524837D01*
X66691702Y-40534124D01*
X66669090Y-40554214D01*
X66656075Y-40581519D01*
X66636075Y-40661519D01*
X65876100Y-40661519D01*
X65326170Y-40124034D01*
X65785491Y-40124034D01*
X65786485Y-40160050D01*
X65816485Y-40270050D01*
X65832654Y-40300178D01*
X65902654Y-40380178D01*
X65917732Y-40393402D01*
X65977732Y-40433402D01*
X66011097Y-40445678D01*
X66181097Y-40465678D01*
X66211896Y-40462986D01*
X66311896Y-40432986D01*
X66342372Y-40415350D01*
X66359780Y-40390613D01*
X66364518Y-40368772D01*
X66389749Y-40383460D01*
X66419924Y-40385551D01*
X66448536Y-40375738D01*
X66738536Y-40205738D01*
X66748168Y-40199045D01*
X67128168Y-39889045D01*
X67137042Y-39880523D01*
X67447042Y-39530523D01*
X67456253Y-39517644D01*
X67706253Y-39077644D01*
X67714720Y-39054944D01*
X67764720Y-38804944D01*
X67765887Y-38783101D01*
X67755887Y-38673101D01*
X67749752Y-38649322D01*
X67732321Y-38624602D01*
X67552321Y-38454602D01*
X67535859Y-38442765D01*
X67385859Y-38362765D01*
X67371404Y-38356868D01*
X67341266Y-38354302D01*
X67081266Y-38384302D01*
X67041218Y-38401462D01*
X66921218Y-38501462D01*
X66915441Y-38506805D01*
X66525831Y-38906405D01*
X66326118Y-39106118D01*
X66320026Y-39112994D01*
X66030026Y-39482994D01*
X66022260Y-39495104D01*
X65852260Y-39825104D01*
X65845491Y-39844034D01*
X65787724Y-40113610D01*
X65785491Y-40124034D01*
X65326170Y-40124034D01*
X64837700Y-39646619D01*
X64858264Y-39655291D01*
X64888481Y-39653925D01*
X65048481Y-39613925D01*
X65071528Y-39603889D01*
X65471528Y-39343889D01*
X65480895Y-39336711D01*
X65870895Y-38986711D01*
X65874215Y-38983546D01*
X66674215Y-38173546D01*
X66680149Y-38166782D01*
X66890149Y-37896782D01*
X66899780Y-37880613D01*
X66906193Y-37851053D01*
X66900599Y-37821327D01*
X66883882Y-37796118D01*
X66813882Y-37726118D01*
X66795187Y-37712411D01*
X66766119Y-37704046D01*
X66736086Y-37707650D01*
X66709822Y-37722654D01*
X66638900Y-37784711D01*
X66579983Y-37809961D01*
X66552654Y-37829822D01*
X66203833Y-38228475D01*
X65955623Y-38486613D01*
X65906513Y-38535723D01*
X65599833Y-38832510D01*
X65328638Y-39045592D01*
X65359140Y-39008051D01*
X65362888Y-39003029D01*
X65622888Y-38623029D01*
X65634115Y-38597702D01*
X65635163Y-38567473D01*
X65625163Y-38507473D01*
X65613605Y-38478038D01*
X65592268Y-38456598D01*
X65562268Y-38436598D01*
X65548300Y-38429250D01*
X65498300Y-38409250D01*
X65475927Y-38404031D01*
X65445903Y-38407710D01*
X65325903Y-38447710D01*
X65300472Y-38462091D01*
X65281845Y-38485922D01*
X65261845Y-38525922D01*
X65257710Y-38535903D01*
X65245237Y-38573322D01*
X65095855Y-38685359D01*
X65498704Y-38198583D01*
X65500738Y-38196014D01*
X66250738Y-37206014D01*
X66263515Y-37180050D01*
X66293515Y-37070050D01*
X66296193Y-37051053D01*
X66290599Y-37021327D01*
X66273882Y-36996118D01*
X66223882Y-36946118D01*
X66194097Y-36927710D01*
X66134097Y-36907710D01*
X66091599Y-36906055D01*
X66064280Y-36919040D01*
X66024280Y-36949040D01*
X66010803Y-36962019D01*
X65240803Y-37912019D01*
X65238956Y-37914392D01*
X64588956Y-38784392D01*
X64584262Y-38791464D01*
X64414262Y-39081464D01*
X64403800Y-39120000D01*
X64403800Y-39170000D01*
X64416598Y-39212268D01*
X64460183Y-39277645D01*
X62060431Y-36932197D01*
X62754783Y-36932197D01*
X62814783Y-37302197D01*
X62830498Y-37337602D01*
X62950498Y-37487602D01*
X62963218Y-37500149D01*
X63053218Y-37570149D01*
X63090549Y-37585612D01*
X63330549Y-37615612D01*
X63364097Y-37612290D01*
X63664097Y-37512290D01*
X63680229Y-37504716D01*
X64050229Y-37274716D01*
X64056592Y-37270296D01*
X64276592Y-37100296D01*
X64293402Y-37082268D01*
X64311378Y-37055305D01*
X64529073Y-36788133D01*
X64535221Y-36779404D01*
X64587195Y-36693378D01*
X64698954Y-36792820D01*
X64988443Y-36630550D01*
X65193796Y-36369850D01*
X65249704Y-36230975D01*
X65130332Y-36102088D01*
X64881773Y-36104567D01*
X64943472Y-35880205D01*
X64944487Y-35853929D01*
X65127839Y-35852101D01*
X65244617Y-35720859D01*
X65082347Y-35431370D01*
X64821647Y-35226017D01*
X64682772Y-35170109D01*
X64553885Y-35289481D01*
X64554403Y-35341411D01*
X64535056Y-35345280D01*
X64505541Y-35358115D01*
X64484966Y-35380288D01*
X64474640Y-35408718D01*
X64476188Y-35438926D01*
X64558580Y-35760254D01*
X64559552Y-35857768D01*
X64565197Y-35857712D01*
X64536607Y-36036398D01*
X64316546Y-36476520D01*
X64315720Y-36477429D01*
X64314516Y-36356747D01*
X64421664Y-36249599D01*
X64312358Y-36140293D01*
X64312058Y-36110248D01*
X64282607Y-36110542D01*
X64170214Y-35998149D01*
X64055557Y-36112806D01*
X63789461Y-36115459D01*
X63783882Y-36106118D01*
X63663882Y-35986118D01*
X63658782Y-35981462D01*
X63598782Y-35931462D01*
X63562527Y-35914837D01*
X63442527Y-35894837D01*
X63425123Y-35893956D01*
X63395922Y-35901845D01*
X63335922Y-35931845D01*
X63320472Y-35942091D01*
X63301845Y-35965922D01*
X63204423Y-36160766D01*
X62847747Y-36666057D01*
X62838792Y-36682873D01*
X62758792Y-36892873D01*
X62754783Y-36932197D01*
X62060431Y-36932197D01*
X61067278Y-35961519D01*
X61846075Y-35961519D01*
X61847710Y-36004097D01*
X61917710Y-36214097D01*
X61940779Y-36248170D01*
X62070779Y-36358170D01*
X62090354Y-36370197D01*
X62120000Y-36376200D01*
X62390000Y-36376200D01*
X62410058Y-36373513D01*
X62437078Y-36359917D01*
X62577078Y-36249917D01*
X62581170Y-36246463D01*
X62901170Y-35956463D01*
X62903882Y-35953882D01*
X63120723Y-35737041D01*
X63621906Y-35737041D01*
X63741278Y-35865928D01*
X64309565Y-35860261D01*
X64303898Y-35291974D01*
X64172656Y-35175196D01*
X63883167Y-35337466D01*
X63677814Y-35598166D01*
X63621906Y-35737041D01*
X63120723Y-35737041D01*
X63253882Y-35603882D01*
X63254340Y-35603419D01*
X63834340Y-35013419D01*
X63848155Y-34994078D01*
X63878155Y-34934078D01*
X63885278Y-34911817D01*
X63883945Y-34881599D01*
X63870960Y-34854280D01*
X63842226Y-34815968D01*
X63823402Y-34787732D01*
X63800783Y-34765632D01*
X63772527Y-34754837D01*
X63712527Y-34744837D01*
X63683043Y-34745711D01*
X63655476Y-34758161D01*
X63405476Y-34938161D01*
X63396118Y-34946118D01*
X63196118Y-35146118D01*
X63195365Y-35146883D01*
X62498444Y-35863716D01*
X62285219Y-36037455D01*
X62267037Y-36019273D01*
X62119808Y-35832783D01*
X62105143Y-35818611D01*
X62077702Y-35805885D01*
X62047473Y-35804837D01*
X61927473Y-35824837D01*
X61901702Y-35834124D01*
X61879090Y-35854214D01*
X61866075Y-35881519D01*
X61846075Y-35961519D01*
X61067278Y-35961519D01*
X60788394Y-35688947D01*
X61253807Y-35688947D01*
X61259401Y-35718673D01*
X61276118Y-35743882D01*
X61346118Y-35813882D01*
X61379066Y-35833268D01*
X61449066Y-35853268D01*
X61476255Y-35855943D01*
X61505309Y-35847526D01*
X61528798Y-35828469D01*
X62137274Y-35090318D01*
X62403062Y-34806200D01*
X62430000Y-34806200D01*
X62465155Y-34797606D01*
X62965155Y-34537606D01*
X62970521Y-34534533D01*
X63400521Y-34264533D01*
X63407602Y-34259502D01*
X63457602Y-34219502D01*
X63479780Y-34190613D01*
X63486193Y-34161053D01*
X63480599Y-34131327D01*
X63463882Y-34106118D01*
X63413882Y-34056118D01*
X63384097Y-34037710D01*
X63324097Y-34017710D01*
X63297501Y-34013841D01*
X63268068Y-34020813D01*
X62878068Y-34200813D01*
X62871979Y-34203963D01*
X62696469Y-34305014D01*
X62780039Y-34110017D01*
X62781416Y-34106574D01*
X62941416Y-33676574D01*
X62946200Y-33650000D01*
X62946200Y-33580000D01*
X62944173Y-33562542D01*
X62931537Y-33535060D01*
X62909205Y-33514659D01*
X62859205Y-33484659D01*
X62828225Y-33474245D01*
X62798104Y-33477014D01*
X62698104Y-33507014D01*
X62666438Y-33525801D01*
X62649571Y-33550910D01*
X62460976Y-34007508D01*
X62126305Y-34637478D01*
X61993039Y-34799300D01*
X61495073Y-35317185D01*
X61487208Y-35326831D01*
X61267208Y-35646831D01*
X61253807Y-35688947D01*
X60788394Y-35688947D01*
X60145436Y-35060540D01*
X60534390Y-35060540D01*
X60536666Y-35090702D01*
X60550498Y-35117602D01*
X60590498Y-35167602D01*
X60596118Y-35173882D01*
X60666118Y-35243882D01*
X60685906Y-35258147D01*
X60715105Y-35266043D01*
X60745076Y-35261956D01*
X60771095Y-35246531D01*
X61289558Y-34777920D01*
X61497945Y-34609226D01*
X61509351Y-34597790D01*
X61523268Y-34570934D01*
X61530845Y-34544415D01*
X61535157Y-34544677D01*
X61563016Y-34532897D01*
X61584098Y-34511206D01*
X61669670Y-34378094D01*
X62033882Y-34013882D01*
X62040960Y-34005720D01*
X62067708Y-33970056D01*
X62103882Y-33933882D01*
X62120675Y-33908485D01*
X62126190Y-33878744D01*
X62123223Y-33865240D01*
X62128645Y-33865708D01*
X62157418Y-33856380D01*
X62180296Y-33836592D01*
X62350296Y-33616592D01*
X62364620Y-33585439D01*
X62424620Y-33295439D01*
X62422731Y-33257271D01*
X62372731Y-33097271D01*
X62357855Y-33070410D01*
X62297855Y-33000410D01*
X62287602Y-32990498D01*
X62237602Y-32950498D01*
X62208481Y-32936075D01*
X62088481Y-32906075D01*
X62046896Y-32907387D01*
X61826896Y-32977387D01*
X61803712Y-32989470D01*
X61633712Y-33119470D01*
X61619040Y-33134280D01*
X61529040Y-33254280D01*
X61520608Y-33268518D01*
X61513826Y-33297995D01*
X61506882Y-33561861D01*
X61503826Y-33677995D01*
X61507170Y-33702409D01*
X61574980Y-33922791D01*
X61341616Y-34201033D01*
X61328652Y-34223244D01*
X61307282Y-34280232D01*
X61177732Y-34366598D01*
X61165198Y-34377055D01*
X60595198Y-34967055D01*
X60590498Y-34972398D01*
X60550498Y-35022398D01*
X60534390Y-35060540D01*
X60145436Y-35060540D01*
X60104733Y-35020759D01*
X60060534Y-34991952D01*
X60016616Y-34962607D01*
X60015022Y-34962290D01*
X60013663Y-34961404D01*
X59961776Y-34951699D01*
X59910000Y-34941400D01*
X59908408Y-34941717D01*
X59906812Y-34941418D01*
X59855158Y-34952309D01*
X59803384Y-34962607D01*
X59802034Y-34963509D01*
X59800446Y-34963844D01*
X59756906Y-34993663D01*
X59713000Y-35023000D01*
X59712098Y-35024350D01*
X59710759Y-35025267D01*
X59681952Y-35069466D01*
X59652607Y-35113384D01*
X59652290Y-35114978D01*
X59651404Y-35116337D01*
X59641699Y-35168224D01*
X59631400Y-35220000D01*
X59631400Y-50881400D01*
X51574807Y-50881400D01*
X51605040Y-50808412D01*
X51605040Y-50516057D01*
X51458990Y-50370007D01*
X50888760Y-50370007D01*
X50920252Y-50253874D01*
X50889458Y-50014407D01*
X51458990Y-50014407D01*
X51605040Y-49868357D01*
X51605040Y-49576002D01*
X51516101Y-49361284D01*
X51351762Y-49196946D01*
X51137044Y-49108007D01*
X49344690Y-49108007D01*
X49198640Y-49254057D01*
X49198640Y-49845809D01*
X49121428Y-50130540D01*
X49154794Y-50390007D01*
X48843040Y-50390007D01*
X48843040Y-50370007D01*
X48823040Y-50370007D01*
X48823040Y-50014407D01*
X48843040Y-50014407D01*
X48843040Y-49254057D01*
X48696990Y-49108007D01*
X46908600Y-49108007D01*
X46908600Y-48892191D01*
X46930160Y-48906922D01*
X47020840Y-48925285D01*
X51020840Y-48925285D01*
X51105554Y-48909345D01*
X51183358Y-48859279D01*
X51235555Y-48782887D01*
X51253918Y-48692207D01*
X51253918Y-47692207D01*
X51237978Y-47607493D01*
X51187912Y-47529689D01*
X51111520Y-47477492D01*
X51020840Y-47459129D01*
X47020840Y-47459129D01*
X46936126Y-47475069D01*
X46908600Y-47492782D01*
X46908600Y-47276407D01*
X48696990Y-47276407D01*
X48843040Y-47130357D01*
X48843040Y-46370007D01*
X48823040Y-46370007D01*
X48823040Y-46014407D01*
X48843040Y-46014407D01*
X48843040Y-45994407D01*
X49158344Y-45994407D01*
X49121428Y-46130540D01*
X49166293Y-46479424D01*
X49198640Y-46557517D01*
X49198640Y-47130357D01*
X49344690Y-47276407D01*
X51137044Y-47276407D01*
X51351762Y-47187468D01*
X51478284Y-47060946D01*
X56526426Y-47060946D01*
X56534904Y-47236416D01*
X56853432Y-47329554D01*
X57183356Y-47293706D01*
X57321666Y-47236416D01*
X57330144Y-47060946D01*
X56928285Y-46659087D01*
X56526426Y-47060946D01*
X51478284Y-47060946D01*
X51516101Y-47023130D01*
X51605040Y-46808412D01*
X51605040Y-46516057D01*
X51496440Y-46407457D01*
X56081041Y-46407457D01*
X56116889Y-46737381D01*
X56174179Y-46875691D01*
X56349649Y-46884169D01*
X56751508Y-46482310D01*
X57105062Y-46482310D01*
X57506921Y-46884169D01*
X57682391Y-46875691D01*
X57775529Y-46557163D01*
X57739681Y-46227239D01*
X57682391Y-46088929D01*
X57506921Y-46080451D01*
X57105062Y-46482310D01*
X56751508Y-46482310D01*
X56349649Y-46080451D01*
X56174179Y-46088929D01*
X56081041Y-46407457D01*
X51496440Y-46407457D01*
X51458990Y-46370007D01*
X50888760Y-46370007D01*
X50920252Y-46253874D01*
X50889458Y-46014407D01*
X51458990Y-46014407D01*
X51569723Y-45903674D01*
X56526426Y-45903674D01*
X56928285Y-46305533D01*
X57330144Y-45903674D01*
X57321666Y-45728204D01*
X57003138Y-45635066D01*
X56673214Y-45670914D01*
X56534904Y-45728204D01*
X56526426Y-45903674D01*
X51569723Y-45903674D01*
X51605040Y-45868357D01*
X51605040Y-45576002D01*
X51516101Y-45361284D01*
X51511904Y-45357087D01*
X51527000Y-45347000D01*
X51587393Y-45256616D01*
X51608600Y-45150000D01*
X51608600Y-40370526D01*
X56526426Y-40370526D01*
X56534904Y-40545996D01*
X56853432Y-40639134D01*
X57183356Y-40603286D01*
X57321666Y-40545996D01*
X57330144Y-40370526D01*
X56928285Y-39968667D01*
X56526426Y-40370526D01*
X51608600Y-40370526D01*
X51608600Y-39717037D01*
X56081041Y-39717037D01*
X56116889Y-40046961D01*
X56174179Y-40185271D01*
X56349649Y-40193749D01*
X56751508Y-39791890D01*
X57105062Y-39791890D01*
X57506921Y-40193749D01*
X57682391Y-40185271D01*
X57775529Y-39866743D01*
X57739681Y-39536819D01*
X57682391Y-39398509D01*
X57506921Y-39390031D01*
X57105062Y-39791890D01*
X56751508Y-39791890D01*
X56349649Y-39390031D01*
X56174179Y-39398509D01*
X56081041Y-39717037D01*
X51608600Y-39717037D01*
X51608600Y-39213254D01*
X56526426Y-39213254D01*
X56928285Y-39615113D01*
X57330144Y-39213254D01*
X57321666Y-39037784D01*
X57003138Y-38944646D01*
X56673214Y-38980494D01*
X56534904Y-39037784D01*
X56526426Y-39213254D01*
X51608600Y-39213254D01*
X51608600Y-35797488D01*
X52782965Y-35797488D01*
X52855674Y-35973457D01*
X52990189Y-36108206D01*
X53166031Y-36181222D01*
X53314340Y-36181352D01*
X52988152Y-37489620D01*
X52983125Y-37575674D01*
X53012881Y-37663280D01*
X53074376Y-37732406D01*
X53157920Y-37772162D01*
X56068807Y-38497928D01*
X56154861Y-38502955D01*
X56242467Y-38473199D01*
X56311593Y-38411704D01*
X56351349Y-38328160D01*
X57222268Y-34835096D01*
X57227295Y-34749042D01*
X57197539Y-34661436D01*
X57136044Y-34592310D01*
X57052500Y-34552554D01*
X54141613Y-33826788D01*
X54055559Y-33821761D01*
X53967953Y-33851517D01*
X53898827Y-33913012D01*
X53859071Y-33996556D01*
X53534448Y-35298549D01*
X53533107Y-35297206D01*
X53357265Y-35224190D01*
X53166866Y-35224023D01*
X52990897Y-35296732D01*
X52856148Y-35431247D01*
X52783132Y-35607089D01*
X52782965Y-35797488D01*
X51608600Y-35797488D01*
X51608600Y-33680106D01*
X56526426Y-33680106D01*
X56534904Y-33855576D01*
X56853432Y-33948714D01*
X57183356Y-33912866D01*
X57321666Y-33855576D01*
X57325767Y-33770695D01*
X59604554Y-33770695D01*
X59614659Y-33799205D01*
X59644659Y-33849205D01*
X59656118Y-33863882D01*
X59706118Y-33913882D01*
X59720795Y-33925341D01*
X59770795Y-33955341D01*
X59790499Y-33963662D01*
X59820695Y-33965446D01*
X59849205Y-33955341D01*
X59899205Y-33925341D01*
X59916953Y-33910625D01*
X60316241Y-33461426D01*
X60574937Y-33186561D01*
X60670192Y-33307217D01*
X60676118Y-33313882D01*
X60774666Y-33412430D01*
X60513692Y-33698660D01*
X60508504Y-33705003D01*
X60208504Y-34115003D01*
X60199803Y-34130354D01*
X60193800Y-34160000D01*
X60193800Y-34220000D01*
X60199401Y-34248673D01*
X60216118Y-34273882D01*
X60266118Y-34323882D01*
X60285922Y-34338155D01*
X60345922Y-34368155D01*
X60378947Y-34376193D01*
X60408673Y-34370599D01*
X60433882Y-34353882D01*
X60493882Y-34293882D01*
X60497855Y-34289590D01*
X61397855Y-33239590D01*
X61400494Y-33236335D01*
X61760494Y-32766335D01*
X61770352Y-32749275D01*
X61776199Y-32719597D01*
X61770039Y-32689983D01*
X61740039Y-32619983D01*
X61733402Y-32607732D01*
X61713402Y-32577732D01*
X61693704Y-32557579D01*
X61665975Y-32545493D01*
X61635729Y-32545148D01*
X61607732Y-32556598D01*
X61457732Y-32656598D01*
X61445112Y-32667145D01*
X61185112Y-32937145D01*
X61180927Y-32941867D01*
X61011484Y-33149819D01*
X60974136Y-33116206D01*
X60903647Y-33036905D01*
X60846200Y-32922012D01*
X60846200Y-32900364D01*
X61005318Y-32732406D01*
X61010762Y-32725982D01*
X61290762Y-32355982D01*
X61299780Y-32340613D01*
X61306193Y-32311053D01*
X61300599Y-32281327D01*
X61283882Y-32256118D01*
X61183882Y-32156118D01*
X61158133Y-32139183D01*
X61128365Y-32133818D01*
X61098854Y-32140456D01*
X61074251Y-32158053D01*
X60254698Y-33037574D01*
X59725634Y-33586602D01*
X59656118Y-33656118D01*
X59644659Y-33670795D01*
X59614659Y-33720795D01*
X59606338Y-33740499D01*
X59604554Y-33770695D01*
X57325767Y-33770695D01*
X57330144Y-33680106D01*
X56928285Y-33278247D01*
X56526426Y-33680106D01*
X51608600Y-33680106D01*
X51608600Y-33026617D01*
X56081041Y-33026617D01*
X56116889Y-33356541D01*
X56174179Y-33494851D01*
X56349649Y-33503329D01*
X56751508Y-33101470D01*
X57105062Y-33101470D01*
X57506921Y-33503329D01*
X57682391Y-33494851D01*
X57775529Y-33176323D01*
X57768958Y-33115844D01*
X58684024Y-33115844D01*
X58704024Y-33375844D01*
X58705491Y-33385966D01*
X58735491Y-33525966D01*
X58756118Y-33563882D01*
X58856118Y-33663882D01*
X58870795Y-33675341D01*
X58920795Y-33705341D01*
X58940499Y-33713662D01*
X58970695Y-33715446D01*
X58999205Y-33705341D01*
X59049205Y-33675341D01*
X59063882Y-33663882D01*
X59113882Y-33613882D01*
X59134850Y-33574280D01*
X59134509Y-33544034D01*
X59076936Y-33275360D01*
X59104670Y-32970284D01*
X59174561Y-32821766D01*
X59225941Y-32761823D01*
X59320667Y-32667097D01*
X59444145Y-32570079D01*
X59991830Y-32435560D01*
X60415303Y-32406015D01*
X60452268Y-32393402D01*
X60602268Y-32293402D01*
X60615706Y-32281993D01*
X60755706Y-32131993D01*
X60767431Y-32115490D01*
X60867431Y-31925490D01*
X60876163Y-31887620D01*
X60866163Y-31567620D01*
X60862905Y-31547836D01*
X60848538Y-31521218D01*
X60751145Y-31404346D01*
X60733402Y-31377732D01*
X60723596Y-31365834D01*
X60698300Y-31349250D01*
X60648300Y-31329250D01*
X60605056Y-31325280D01*
X60505056Y-31345280D01*
X60466118Y-31366118D01*
X60416118Y-31416118D01*
X60407831Y-31428783D01*
X60375489Y-31393492D01*
X59807181Y-31396170D01*
X59809859Y-31964479D01*
X59940486Y-32081946D01*
X60230823Y-31921200D01*
X60437545Y-31661583D01*
X60472514Y-31576022D01*
X60528399Y-31627608D01*
X60542771Y-31728211D01*
X60508275Y-31909317D01*
X60475183Y-31955645D01*
X60389073Y-32018271D01*
X59931872Y-32103996D01*
X59577884Y-32113829D01*
X59549983Y-32119961D01*
X59269983Y-32239961D01*
X59253540Y-32249602D01*
X59123540Y-32349602D01*
X59116118Y-32356118D01*
X58996118Y-32476118D01*
X58993617Y-32478742D01*
X58893617Y-32588742D01*
X58883663Y-32602505D01*
X58753663Y-32832505D01*
X58746075Y-32851519D01*
X58686075Y-33091519D01*
X58684024Y-33115844D01*
X57768958Y-33115844D01*
X57739681Y-32846399D01*
X57682391Y-32708089D01*
X57506921Y-32699611D01*
X57105062Y-33101470D01*
X56751508Y-33101470D01*
X56349649Y-32699611D01*
X56174179Y-32708089D01*
X56081041Y-33026617D01*
X51608600Y-33026617D01*
X51608600Y-32522834D01*
X56526426Y-32522834D01*
X56928285Y-32924693D01*
X57330144Y-32522834D01*
X57321666Y-32347364D01*
X57003138Y-32254226D01*
X56673214Y-32290074D01*
X56534904Y-32347364D01*
X56526426Y-32522834D01*
X51608600Y-32522834D01*
X51608600Y-31530654D01*
X58871408Y-31530654D01*
X59032154Y-31820991D01*
X59291771Y-32027713D01*
X59430349Y-32084350D01*
X59559862Y-31965657D01*
X59557184Y-31397349D01*
X58988875Y-31400027D01*
X58871408Y-31530654D01*
X51608600Y-31530654D01*
X51608600Y-31020517D01*
X58869004Y-31020517D01*
X58987697Y-31150030D01*
X59556005Y-31147352D01*
X59553327Y-30579043D01*
X59552018Y-30577865D01*
X59803324Y-30577865D01*
X59806002Y-31146173D01*
X60374311Y-31143495D01*
X60491778Y-31012868D01*
X60331032Y-30722531D01*
X60071415Y-30515809D01*
X59932837Y-30459172D01*
X59803324Y-30577865D01*
X59552018Y-30577865D01*
X59422700Y-30461576D01*
X59132363Y-30622322D01*
X58925641Y-30881939D01*
X58869004Y-31020517D01*
X51608600Y-31020517D01*
X51608600Y-26866650D01*
X54005404Y-26866650D01*
X54170424Y-27154579D01*
X54433070Y-27357439D01*
X54572471Y-27412021D01*
X54700214Y-27291427D01*
X54689133Y-26723220D01*
X54120926Y-26734301D01*
X54005404Y-26866650D01*
X51608600Y-26866650D01*
X51608600Y-26718345D01*
X54939086Y-26718345D01*
X54950167Y-27286552D01*
X55082516Y-27402074D01*
X55370445Y-27237054D01*
X55573305Y-26974408D01*
X55627887Y-26835007D01*
X55507293Y-26707264D01*
X54939086Y-26718345D01*
X51608600Y-26718345D01*
X51608600Y-26356605D01*
X53995457Y-26356605D01*
X54116051Y-26484348D01*
X54684258Y-26473267D01*
X54673177Y-25905060D01*
X54667592Y-25900185D01*
X54923130Y-25900185D01*
X54934211Y-26468392D01*
X55502418Y-26457311D01*
X55617940Y-26324962D01*
X55452920Y-26037033D01*
X55190274Y-25834173D01*
X55050873Y-25779591D01*
X54923130Y-25900185D01*
X54667592Y-25900185D01*
X54540828Y-25789538D01*
X54252899Y-25954558D01*
X54050039Y-26217204D01*
X53995457Y-26356605D01*
X51608600Y-26356605D01*
X51608600Y-18858600D01*
X54236409Y-18858600D01*
X70545199Y-34809175D01*
G36*
X80856722Y-50158407D02*
X80822922Y-50192207D01*
X80856722Y-50226007D01*
X80712722Y-50370007D01*
X80508858Y-50370007D01*
X80364858Y-50226007D01*
X80398658Y-50192207D01*
X80364858Y-50158407D01*
X80508858Y-50014407D01*
X80712722Y-50014407D01*
X80856722Y-50158407D01*
X80856722Y-50158407D01*
G37*
X80856722Y-50158407D02*
X80822922Y-50192207D01*
X80856722Y-50226007D01*
X80712722Y-50370007D01*
X80508858Y-50370007D01*
X80364858Y-50226007D01*
X80398658Y-50192207D01*
X80364858Y-50158407D01*
X80508858Y-50014407D01*
X80712722Y-50014407D01*
X80856722Y-50158407D01*
G36*
X50266772Y-50158407D02*
X50232972Y-50192207D01*
X50266772Y-50226007D01*
X50122772Y-50370007D01*
X49918908Y-50370007D01*
X49774908Y-50226007D01*
X49808708Y-50192207D01*
X49774908Y-50158407D01*
X49918908Y-50014407D01*
X50122772Y-50014407D01*
X50266772Y-50158407D01*
X50266772Y-50158407D01*
G37*
X50266772Y-50158407D02*
X50232972Y-50192207D01*
X50266772Y-50226007D01*
X50122772Y-50370007D01*
X49918908Y-50370007D01*
X49774908Y-50226007D01*
X49808708Y-50192207D01*
X49774908Y-50158407D01*
X49918908Y-50014407D01*
X50122772Y-50014407D01*
X50266772Y-50158407D01*
G36*
X50266772Y-46158407D02*
X50232972Y-46192207D01*
X50266772Y-46226007D01*
X50122772Y-46370007D01*
X49918908Y-46370007D01*
X49774908Y-46226007D01*
X49808708Y-46192207D01*
X49774908Y-46158407D01*
X49918908Y-46014407D01*
X50122772Y-46014407D01*
X50266772Y-46158407D01*
X50266772Y-46158407D01*
G37*
X50266772Y-46158407D02*
X50232972Y-46192207D01*
X50266772Y-46226007D01*
X50122772Y-46370007D01*
X49918908Y-46370007D01*
X49774908Y-46226007D01*
X49808708Y-46192207D01*
X49774908Y-46158407D01*
X49918908Y-46014407D01*
X50122772Y-46014407D01*
X50266772Y-46158407D01*
G36*
X80856722Y-46158407D02*
X80822922Y-46192207D01*
X80856722Y-46226007D01*
X80712722Y-46370007D01*
X80508858Y-46370007D01*
X80364858Y-46226007D01*
X80398658Y-46192207D01*
X80364858Y-46158407D01*
X80508858Y-46014407D01*
X80712722Y-46014407D01*
X80856722Y-46158407D01*
X80856722Y-46158407D01*
G37*
X80856722Y-46158407D02*
X80822922Y-46192207D01*
X80856722Y-46226007D01*
X80712722Y-46370007D01*
X80508858Y-46370007D01*
X80364858Y-46226007D01*
X80398658Y-46192207D01*
X80364858Y-46158407D01*
X80508858Y-46014407D01*
X80712722Y-46014407D01*
X80856722Y-46158407D01*
M02*
