G04 #@! TF.FileFunction,Soldermask,Bot*
%FSLAX46Y46*%
G04 Gerber Fmt 4.6, Leading zero omitted, Abs format (unit mm)*
G04 Created by KiCad (PCBNEW 4.0.0-rc2-stable) date 3/3/2016 3:48:47 PM*
%MOMM*%
G01*
G04 APERTURE LIST*
%ADD10C,0.150000*%
%ADD11R,4.000000X1.000000*%
%ADD12C,0.600000*%
%ADD13C,0.500000*%
G04 APERTURE END LIST*
D10*
D11*
X49020844Y-46192207D03*
X49020844Y-48192207D03*
X49020844Y-50192207D03*
D12*
X50020844Y-46192207D03*
X50020844Y-48192207D03*
X50020844Y-50192207D03*
D11*
X97224144Y-50192207D03*
X97224144Y-48192207D03*
X97224144Y-46192207D03*
D12*
X96224144Y-50192207D03*
X96224144Y-48192207D03*
X96224144Y-46192207D03*
D10*
G36*
X85959309Y-36529090D02*
X83115516Y-37484517D01*
X82287479Y-35019896D01*
X85131272Y-34064469D01*
X85959309Y-36529090D01*
X85959309Y-36529090D01*
G37*
G36*
X65832823Y-43818436D02*
X62989030Y-44773863D01*
X61842517Y-41361312D01*
X64686310Y-40405885D01*
X65832823Y-43818436D01*
X65832823Y-43818436D01*
G37*
D13*
X62036601Y-43194978D03*
D10*
G36*
X90308306Y-27381503D02*
X88308364Y-27366257D01*
X88314158Y-26606279D01*
X90314100Y-26621525D01*
X90308306Y-27381503D01*
X90308306Y-27381503D01*
G37*
G36*
X90317987Y-26111540D02*
X88318045Y-26096294D01*
X88323839Y-25336316D01*
X90323781Y-25351562D01*
X90317987Y-26111540D01*
X90317987Y-26111540D01*
G37*
G36*
X90327668Y-24841577D02*
X88327726Y-24826331D01*
X88333520Y-24066353D01*
X90333462Y-24081599D01*
X90327668Y-24841577D01*
X90327668Y-24841577D01*
G37*
G36*
X90337349Y-23571614D02*
X88337407Y-23556368D01*
X88343201Y-22796390D01*
X90343143Y-22811636D01*
X90337349Y-23571614D01*
X90337349Y-23571614D01*
G37*
G36*
X87108399Y-27357110D02*
X85108457Y-27341864D01*
X85114251Y-26581886D01*
X87114193Y-26597132D01*
X87108399Y-27357110D01*
X87108399Y-27357110D01*
G37*
G36*
X87118080Y-26087147D02*
X85118138Y-26071901D01*
X85123932Y-25311923D01*
X87123874Y-25327169D01*
X87118080Y-26087147D01*
X87118080Y-26087147D01*
G37*
G36*
X87127761Y-24817184D02*
X85127819Y-24801938D01*
X85133613Y-24041960D01*
X87133555Y-24057206D01*
X87127761Y-24817184D01*
X87127761Y-24817184D01*
G37*
G36*
X87137519Y-23537221D02*
X85137577Y-23521976D01*
X85143217Y-22781997D01*
X87143159Y-22797242D01*
X87137519Y-23537221D01*
X87137519Y-23537221D01*
G37*
G36*
X85698798Y-28611402D02*
X85098816Y-28606828D01*
X85105676Y-27706854D01*
X85705658Y-27711428D01*
X85698798Y-28611402D01*
X85698798Y-28611402D01*
G37*
G36*
X87198754Y-28622836D02*
X86598772Y-28618262D01*
X86605632Y-27718288D01*
X87205614Y-27722862D01*
X87198754Y-28622836D01*
X87198754Y-28622836D01*
G37*
G36*
X87189226Y-29872799D02*
X86589244Y-29868225D01*
X86596104Y-28968251D01*
X87196086Y-28972825D01*
X87189226Y-29872799D01*
X87189226Y-29872799D01*
G37*
G36*
X85689269Y-29861366D02*
X85089287Y-29856792D01*
X85096147Y-28956818D01*
X85696129Y-28961392D01*
X85689269Y-29861366D01*
X85689269Y-29861366D01*
G37*
G36*
X85679741Y-31111329D02*
X85079759Y-31106755D01*
X85086619Y-30206781D01*
X85686601Y-30211355D01*
X85679741Y-31111329D01*
X85679741Y-31111329D01*
G37*
G36*
X87179697Y-31122763D02*
X86579715Y-31118189D01*
X86586575Y-30218215D01*
X87186557Y-30222789D01*
X87179697Y-31122763D01*
X87179697Y-31122763D01*
G37*
G36*
X86953716Y-27970949D02*
X86753722Y-27969425D01*
X86760582Y-27069451D01*
X86960576Y-27070975D01*
X86953716Y-27970949D01*
X86953716Y-27970949D01*
G37*
M02*
