G04 #@! TF.FileFunction,Copper,L1,Top,Signal*
%FSLAX46Y46*%
G04 Gerber Fmt 4.6, Leading zero omitted, Abs format (unit mm)*
G04 Created by KiCad (PCBNEW 4.0.0-rc2-stable) date 3/3/2016 3:49:22 PM*
%MOMM*%
G01*
G04 APERTURE LIST*
%ADD10C,0.150000*%
%ADD11C,0.500000*%
%ADD12R,0.500000X1.800000*%
%ADD13R,0.320000X2.300000*%
%ADD14R,0.800000X2.300000*%
%ADD15R,1.800000X0.500000*%
%ADD16R,2.300000X0.320000*%
%ADD17R,2.300000X0.800000*%
%ADD18R,4.000000X1.000000*%
%ADD19C,0.600000*%
%ADD20C,0.254000*%
%ADD21C,0.152400*%
G04 APERTURE END LIST*
D10*
G36*
X69204163Y-33941470D02*
X67674462Y-32992779D01*
X67937987Y-32567862D01*
X69467688Y-33516553D01*
X69204163Y-33941470D01*
X69204163Y-33941470D01*
G37*
G36*
X70465451Y-32382062D02*
X68510833Y-31169847D01*
X68679489Y-30897900D01*
X70634107Y-32110115D01*
X70465451Y-32382062D01*
X70465451Y-32382062D01*
G37*
G36*
X69680146Y-33648316D02*
X67725528Y-32436100D01*
X68147168Y-31756232D01*
X70101786Y-32968448D01*
X69680146Y-33648316D01*
X69680146Y-33648316D01*
G37*
D11*
X67445864Y-32792172D03*
D10*
G36*
X72465819Y-28682259D02*
X70936118Y-27733568D01*
X71199643Y-27308651D01*
X72729344Y-28257342D01*
X72465819Y-28682259D01*
X72465819Y-28682259D01*
G37*
G36*
X73727107Y-27122851D02*
X71772489Y-25910636D01*
X71941145Y-25638689D01*
X73895763Y-26850904D01*
X73727107Y-27122851D01*
X73727107Y-27122851D01*
G37*
G36*
X72941802Y-28389105D02*
X70987184Y-27176889D01*
X71408824Y-26497021D01*
X73363442Y-27709237D01*
X72941802Y-28389105D01*
X72941802Y-28389105D01*
G37*
D11*
X70707520Y-27532961D03*
D10*
G36*
X75727473Y-23423050D02*
X74197772Y-22474359D01*
X74461297Y-22049442D01*
X75990998Y-22998133D01*
X75727473Y-23423050D01*
X75727473Y-23423050D01*
G37*
G36*
X76988761Y-21863642D02*
X75034143Y-20651427D01*
X75202799Y-20379480D01*
X77157417Y-21591695D01*
X76988761Y-21863642D01*
X76988761Y-21863642D01*
G37*
G36*
X76203456Y-23129896D02*
X74248838Y-21917680D01*
X74670478Y-21237812D01*
X76625096Y-22450028D01*
X76203456Y-23129896D01*
X76203456Y-23129896D01*
G37*
D11*
X73969174Y-22273752D03*
D10*
G36*
X56571225Y-23340572D02*
X55622688Y-21810776D01*
X56047631Y-21547294D01*
X56996168Y-23077090D01*
X56571225Y-23340572D01*
X56571225Y-23340572D01*
G37*
G36*
X58394241Y-22504383D02*
X57182221Y-20549643D01*
X57454185Y-20381015D01*
X58666205Y-22335755D01*
X58394241Y-22504383D01*
X58394241Y-22504383D01*
G37*
G36*
X57127909Y-23289561D02*
X55915889Y-21334821D01*
X56595799Y-20913249D01*
X57807819Y-22867989D01*
X57127909Y-23289561D01*
X57127909Y-23289561D01*
G37*
D11*
X55507092Y-21529461D03*
D10*
G36*
X59832543Y-28600408D02*
X58884006Y-27070612D01*
X59308949Y-26807130D01*
X60257486Y-28336926D01*
X59832543Y-28600408D01*
X59832543Y-28600408D01*
G37*
G36*
X61655559Y-27764219D02*
X60443539Y-25809479D01*
X60715503Y-25640851D01*
X61927523Y-27595591D01*
X61655559Y-27764219D01*
X61655559Y-27764219D01*
G37*
G36*
X60389227Y-28549397D02*
X59177207Y-26594657D01*
X59857117Y-26173085D01*
X61069137Y-28127825D01*
X60389227Y-28549397D01*
X60389227Y-28549397D01*
G37*
D11*
X58768410Y-26789297D03*
D10*
G36*
X63093861Y-33860246D02*
X62145324Y-32330450D01*
X62570267Y-32066968D01*
X63518804Y-33596764D01*
X63093861Y-33860246D01*
X63093861Y-33860246D01*
G37*
G36*
X64916877Y-33024057D02*
X63704857Y-31069317D01*
X63976821Y-30900689D01*
X65188841Y-32855429D01*
X64916877Y-33024057D01*
X64916877Y-33024057D01*
G37*
G36*
X63650545Y-33809235D02*
X62438525Y-31854495D01*
X63118435Y-31432923D01*
X64330455Y-33387663D01*
X63650545Y-33809235D01*
X63650545Y-33809235D01*
G37*
D11*
X62029728Y-32049135D03*
D12*
X65506020Y-48052030D03*
D13*
X67406020Y-48052030D03*
D14*
X66156020Y-48052030D03*
D11*
X65306020Y-46852030D03*
D15*
X66577130Y-43412085D03*
D16*
X66577130Y-41512085D03*
D17*
X66577130Y-42762085D03*
D11*
X65377130Y-43612085D03*
D15*
X66577130Y-37873280D03*
D16*
X66577130Y-35973280D03*
D17*
X66577130Y-37223280D03*
D11*
X65377130Y-38073280D03*
D18*
X83742890Y-50192207D03*
X83742890Y-48192207D03*
X83742890Y-46192207D03*
D19*
X82742890Y-50192207D03*
X82742890Y-48192207D03*
X82742890Y-46192207D03*
D18*
X49020840Y-46192207D03*
X49020840Y-48192207D03*
X49020840Y-50192207D03*
D19*
X50020840Y-46192207D03*
X50020840Y-48192207D03*
X50020840Y-50192207D03*
D11*
X58517702Y-20567005D03*
D20*
X68570000Y-33250000D02*
X68910000Y-32700000D01*
X68570000Y-33250000D02*
X68910000Y-32700000D01*
X68570000Y-33250000D02*
X68910000Y-32700000D01*
X68570000Y-33250000D02*
X68910000Y-32700000D01*
X68570000Y-33250000D02*
X68910000Y-32700000D01*
X68570000Y-33250000D02*
X68910000Y-32700000D01*
X68570000Y-33250000D02*
X68910000Y-32700000D01*
X68570000Y-33250000D02*
X68910000Y-32700000D01*
X68570000Y-33250000D02*
X68910000Y-32700000D01*
X68910000Y-32700000D02*
X67450000Y-32790000D01*
X68910000Y-32700000D02*
X67450000Y-32790000D01*
X68910000Y-32700000D02*
X67450000Y-32790000D01*
X68910000Y-32700000D02*
X67450000Y-32790000D01*
X68910000Y-32700000D02*
X67450000Y-32790000D01*
X68910000Y-32700000D02*
X67450000Y-32790000D01*
X68910000Y-32700000D02*
X67450000Y-32790000D01*
X68910000Y-32700000D02*
X67450000Y-32790000D01*
X68910000Y-32700000D02*
X67450000Y-32790000D01*
X71830000Y-28000000D02*
X72180000Y-27440000D01*
X71830000Y-28000000D02*
X72180000Y-27440000D01*
X71830000Y-28000000D02*
X72180000Y-27440000D01*
X71830000Y-28000000D02*
X72180000Y-27440000D01*
X71830000Y-28000000D02*
X72180000Y-27440000D01*
X71830000Y-28000000D02*
X72180000Y-27440000D01*
X71830000Y-28000000D02*
X72180000Y-27440000D01*
X71830000Y-28000000D02*
X72180000Y-27440000D01*
X71830000Y-28000000D02*
X72180000Y-27440000D01*
X72180000Y-27440000D02*
X70710000Y-27530000D01*
X72180000Y-27440000D02*
X70710000Y-27530000D01*
X72180000Y-27440000D02*
X70710000Y-27530000D01*
X72180000Y-27440000D02*
X70710000Y-27530000D01*
X72180000Y-27440000D02*
X70710000Y-27530000D01*
X72180000Y-27440000D02*
X70710000Y-27530000D01*
X72180000Y-27440000D02*
X70710000Y-27530000D01*
X72180000Y-27440000D02*
X70710000Y-27530000D01*
X72180000Y-27440000D02*
X70710000Y-27530000D01*
X75090000Y-22740000D02*
X75440000Y-22180000D01*
X75090000Y-22740000D02*
X75440000Y-22180000D01*
X75090000Y-22740000D02*
X75440000Y-22180000D01*
X75090000Y-22740000D02*
X75440000Y-22180000D01*
X75090000Y-22740000D02*
X75440000Y-22180000D01*
X75090000Y-22740000D02*
X75440000Y-22180000D01*
X75090000Y-22740000D02*
X75440000Y-22180000D01*
X75090000Y-22740000D02*
X75440000Y-22180000D01*
X75090000Y-22740000D02*
X75440000Y-22180000D01*
X75440000Y-22180000D02*
X73970000Y-22270000D01*
X75440000Y-22180000D02*
X73970000Y-22270000D01*
X75440000Y-22180000D02*
X73970000Y-22270000D01*
X75440000Y-22180000D02*
X73970000Y-22270000D01*
X75440000Y-22180000D02*
X73970000Y-22270000D01*
X75440000Y-22180000D02*
X73970000Y-22270000D01*
X75440000Y-22180000D02*
X73970000Y-22270000D01*
X75440000Y-22180000D02*
X73970000Y-22270000D01*
X75440000Y-22180000D02*
X73970000Y-22270000D01*
X56310000Y-22440000D02*
X56860000Y-22100000D01*
X56310000Y-22440000D02*
X56860000Y-22100000D01*
X56310000Y-22440000D02*
X56860000Y-22100000D01*
X56310000Y-22440000D02*
X56860000Y-22100000D01*
X56310000Y-22440000D02*
X56860000Y-22100000D01*
X56310000Y-22440000D02*
X56860000Y-22100000D01*
X56310000Y-22440000D02*
X56860000Y-22100000D01*
X56310000Y-22440000D02*
X56860000Y-22100000D01*
X56310000Y-22440000D02*
X56860000Y-22100000D01*
X56860000Y-22100000D02*
X55510000Y-21530000D01*
X56860000Y-22100000D02*
X55510000Y-21530000D01*
X56860000Y-22100000D02*
X55510000Y-21530000D01*
X56860000Y-22100000D02*
X55510000Y-21530000D01*
X56860000Y-22100000D02*
X55510000Y-21530000D01*
X56860000Y-22100000D02*
X55510000Y-21530000D01*
X56860000Y-22100000D02*
X55510000Y-21530000D01*
X56860000Y-22100000D02*
X55510000Y-21530000D01*
X56860000Y-22100000D02*
X55510000Y-21530000D01*
X59570000Y-27700000D02*
X60120000Y-27360000D01*
X59570000Y-27700000D02*
X60120000Y-27360000D01*
X59570000Y-27700000D02*
X60120000Y-27360000D01*
X59570000Y-27700000D02*
X60120000Y-27360000D01*
X59570000Y-27700000D02*
X60120000Y-27360000D01*
X59570000Y-27700000D02*
X60120000Y-27360000D01*
X59570000Y-27700000D02*
X60120000Y-27360000D01*
X59570000Y-27700000D02*
X60120000Y-27360000D01*
X59570000Y-27700000D02*
X60120000Y-27360000D01*
X60120000Y-27360000D02*
X58770000Y-26790000D01*
X60120000Y-27360000D02*
X58770000Y-26790000D01*
X60120000Y-27360000D02*
X58770000Y-26790000D01*
X60120000Y-27360000D02*
X58770000Y-26790000D01*
X60120000Y-27360000D02*
X58770000Y-26790000D01*
X60120000Y-27360000D02*
X58770000Y-26790000D01*
X60120000Y-27360000D02*
X58770000Y-26790000D01*
X60120000Y-27360000D02*
X58770000Y-26790000D01*
X60120000Y-27360000D02*
X58770000Y-26790000D01*
X62830000Y-32960000D02*
X63380000Y-32620000D01*
X62830000Y-32960000D02*
X63380000Y-32620000D01*
X62830000Y-32960000D02*
X63380000Y-32620000D01*
X62830000Y-32960000D02*
X63380000Y-32620000D01*
X62830000Y-32960000D02*
X63380000Y-32620000D01*
X62830000Y-32960000D02*
X63380000Y-32620000D01*
X62830000Y-32960000D02*
X63380000Y-32620000D01*
X62830000Y-32960000D02*
X63380000Y-32620000D01*
X62830000Y-32960000D02*
X63380000Y-32620000D01*
X63380000Y-32620000D02*
X62030000Y-32050000D01*
X63380000Y-32620000D02*
X62030000Y-32050000D01*
X63380000Y-32620000D02*
X62030000Y-32050000D01*
X63380000Y-32620000D02*
X62030000Y-32050000D01*
X63380000Y-32620000D02*
X62030000Y-32050000D01*
X63380000Y-32620000D02*
X62030000Y-32050000D01*
X63380000Y-32620000D02*
X62030000Y-32050000D01*
X63380000Y-32620000D02*
X62030000Y-32050000D01*
X63380000Y-32620000D02*
X62030000Y-32050000D01*
X65510000Y-48050000D02*
X66160000Y-48050000D01*
X65510000Y-48050000D02*
X66160000Y-48050000D01*
X65510000Y-48050000D02*
X66160000Y-48050000D01*
X65510000Y-48050000D02*
X66160000Y-48050000D01*
X65510000Y-48050000D02*
X66160000Y-48050000D01*
X65510000Y-48050000D02*
X66160000Y-48050000D01*
X65510000Y-48050000D02*
X66160000Y-48050000D01*
X65510000Y-48050000D02*
X66160000Y-48050000D01*
X65510000Y-48050000D02*
X66160000Y-48050000D01*
X66160000Y-48050000D02*
X65310000Y-46850000D01*
X66160000Y-48050000D02*
X65310000Y-46850000D01*
X66160000Y-48050000D02*
X65310000Y-46850000D01*
X66160000Y-48050000D02*
X65310000Y-46850000D01*
X66160000Y-48050000D02*
X65310000Y-46850000D01*
X66160000Y-48050000D02*
X65310000Y-46850000D01*
X66160000Y-48050000D02*
X65310000Y-46850000D01*
X66160000Y-48050000D02*
X65310000Y-46850000D01*
X66160000Y-48050000D02*
X65310000Y-46850000D01*
X66580000Y-43410000D02*
X66580000Y-42760000D01*
X66580000Y-43410000D02*
X66580000Y-42760000D01*
X66580000Y-43410000D02*
X66580000Y-42760000D01*
X66580000Y-43410000D02*
X66580000Y-42760000D01*
X66580000Y-43410000D02*
X66580000Y-42760000D01*
X66580000Y-43410000D02*
X66580000Y-42760000D01*
X66580000Y-43410000D02*
X66580000Y-42760000D01*
X66580000Y-43410000D02*
X66580000Y-42760000D01*
X66580000Y-43410000D02*
X66580000Y-42760000D01*
X66580000Y-42760000D02*
X65380000Y-43610000D01*
X66580000Y-42760000D02*
X65380000Y-43610000D01*
X66580000Y-42760000D02*
X65380000Y-43610000D01*
X66580000Y-42760000D02*
X65380000Y-43610000D01*
X66580000Y-42760000D02*
X65380000Y-43610000D01*
X66580000Y-42760000D02*
X65380000Y-43610000D01*
X66580000Y-42760000D02*
X65380000Y-43610000D01*
X66580000Y-42760000D02*
X65380000Y-43610000D01*
X66580000Y-42760000D02*
X65380000Y-43610000D01*
X66580000Y-37870000D02*
X66580000Y-37220000D01*
X66580000Y-37870000D02*
X66580000Y-37220000D01*
X66580000Y-37870000D02*
X66580000Y-37220000D01*
X66580000Y-37870000D02*
X66580000Y-37220000D01*
X66580000Y-37870000D02*
X66580000Y-37220000D01*
X66580000Y-37870000D02*
X66580000Y-37220000D01*
X66580000Y-37870000D02*
X66580000Y-37220000D01*
X66580000Y-37870000D02*
X66580000Y-37220000D01*
X66580000Y-37870000D02*
X66580000Y-37220000D01*
X66580000Y-37220000D02*
X65380000Y-38070000D01*
X66580000Y-37220000D02*
X65380000Y-38070000D01*
X66580000Y-37220000D02*
X65380000Y-38070000D01*
X66580000Y-37220000D02*
X65380000Y-38070000D01*
X66580000Y-37220000D02*
X65380000Y-38070000D01*
X66580000Y-37220000D02*
X65380000Y-38070000D01*
X66580000Y-37220000D02*
X65380000Y-38070000D01*
X66580000Y-37220000D02*
X65380000Y-38070000D01*
X66580000Y-37220000D02*
X65380000Y-38070000D01*
D21*
G36*
X65915410Y-29653392D02*
X65940898Y-29683923D01*
X65963000Y-29717000D01*
X65975467Y-29725330D01*
X65985075Y-29736839D01*
X66020309Y-29755293D01*
X66053384Y-29777393D01*
X66068090Y-29780318D01*
X66081371Y-29787274D01*
X66120986Y-29790840D01*
X66160000Y-29798600D01*
X66480000Y-29798600D01*
X66519014Y-29790840D01*
X66558629Y-29787274D01*
X66571910Y-29780318D01*
X66586616Y-29777393D01*
X66619687Y-29755295D01*
X66654925Y-29736840D01*
X66664535Y-29725329D01*
X66677000Y-29717000D01*
X66699100Y-29683925D01*
X66724590Y-29653392D01*
X67829318Y-27627743D01*
X70228837Y-27627743D01*
X70301546Y-27803712D01*
X70436061Y-27938461D01*
X70611903Y-28011477D01*
X70802302Y-28011644D01*
X70886301Y-27976936D01*
X72342975Y-28880337D01*
X72423369Y-28911439D01*
X72515877Y-28909898D01*
X72600498Y-28872488D01*
X72663897Y-28805103D01*
X72804578Y-28578265D01*
X72818958Y-28587183D01*
X72899352Y-28618285D01*
X72991861Y-28616744D01*
X73076481Y-28579334D01*
X73139880Y-28511949D01*
X73561520Y-27832081D01*
X73592622Y-27751687D01*
X73591638Y-27692644D01*
X73747308Y-27718154D01*
X73973584Y-27665108D01*
X74162334Y-27529509D01*
X74188769Y-27486886D01*
X74141626Y-27285792D01*
X72943062Y-26542466D01*
X72900898Y-26610453D01*
X72598697Y-26423034D01*
X72608955Y-26406493D01*
X73027391Y-26406493D01*
X74225954Y-27149818D01*
X74427048Y-27102676D01*
X74453482Y-27060052D01*
X74491066Y-26830702D01*
X74438019Y-26604427D01*
X74302420Y-26415677D01*
X74104911Y-26293185D01*
X73501576Y-25919009D01*
X73300482Y-25966151D01*
X73027391Y-26406493D01*
X72608955Y-26406493D01*
X72640861Y-26355047D01*
X71442298Y-25611722D01*
X71241204Y-25658864D01*
X71214770Y-25701488D01*
X71177186Y-25930838D01*
X71230233Y-26157113D01*
X71322428Y-26285446D01*
X71274145Y-26306792D01*
X71210746Y-26374177D01*
X70789106Y-27054045D01*
X70788956Y-27054433D01*
X70612738Y-27054278D01*
X70436769Y-27126987D01*
X70302020Y-27261502D01*
X70229004Y-27437344D01*
X70228837Y-27627743D01*
X67829318Y-27627743D01*
X69112623Y-25274654D01*
X71479483Y-25274654D01*
X71526626Y-25475748D01*
X72725190Y-26219074D01*
X72998281Y-25778732D01*
X72951138Y-25577638D01*
X72347803Y-25203461D01*
X72150294Y-25080970D01*
X71920944Y-25043386D01*
X71694668Y-25096432D01*
X71505918Y-25232031D01*
X71479483Y-25274654D01*
X69112623Y-25274654D01*
X70697535Y-22368534D01*
X73490491Y-22368534D01*
X73563200Y-22544503D01*
X73697715Y-22679252D01*
X73873557Y-22752268D01*
X74063956Y-22752435D01*
X74147955Y-22717727D01*
X75604629Y-23621128D01*
X75685023Y-23652230D01*
X75777531Y-23650689D01*
X75862152Y-23613279D01*
X75925551Y-23545894D01*
X76066232Y-23319056D01*
X76080612Y-23327974D01*
X76161006Y-23359076D01*
X76253515Y-23357535D01*
X76338135Y-23320125D01*
X76401534Y-23252740D01*
X76823174Y-22572872D01*
X76854276Y-22492478D01*
X76853292Y-22433435D01*
X77008962Y-22458945D01*
X77235238Y-22405899D01*
X77423988Y-22270300D01*
X77450423Y-22227677D01*
X77403280Y-22026583D01*
X76204716Y-21283257D01*
X76162552Y-21351244D01*
X75860351Y-21163825D01*
X75870609Y-21147284D01*
X76289045Y-21147284D01*
X77487608Y-21890609D01*
X77688702Y-21843467D01*
X77715136Y-21800843D01*
X77752720Y-21571493D01*
X77699673Y-21345218D01*
X77564074Y-21156468D01*
X77366565Y-21033976D01*
X76763230Y-20659800D01*
X76562136Y-20706942D01*
X76289045Y-21147284D01*
X75870609Y-21147284D01*
X75902515Y-21095838D01*
X74703952Y-20352513D01*
X74502858Y-20399655D01*
X74476424Y-20442279D01*
X74438840Y-20671629D01*
X74491887Y-20897904D01*
X74584082Y-21026237D01*
X74535799Y-21047583D01*
X74472400Y-21114968D01*
X74050760Y-21794836D01*
X74050610Y-21795224D01*
X73874392Y-21795069D01*
X73698423Y-21867778D01*
X73563674Y-22002293D01*
X73490658Y-22178135D01*
X73490491Y-22368534D01*
X70697535Y-22368534D01*
X71980840Y-20015445D01*
X74741137Y-20015445D01*
X74788280Y-20216539D01*
X75986844Y-20959865D01*
X76259935Y-20519523D01*
X76212792Y-20318429D01*
X75609457Y-19944252D01*
X75411948Y-19821761D01*
X75182598Y-19784177D01*
X74956322Y-19837223D01*
X74767572Y-19972822D01*
X74741137Y-20015445D01*
X71980840Y-20015445D01*
X72535398Y-18998600D01*
X81081400Y-18998600D01*
X81081400Y-19900277D01*
X70183574Y-37382621D01*
X70175425Y-37404201D01*
X70162607Y-37423384D01*
X70156404Y-37454571D01*
X70145171Y-37484316D01*
X70145901Y-37507374D01*
X70141400Y-37530000D01*
X70141400Y-45150000D01*
X70162607Y-45256616D01*
X70223000Y-45347000D01*
X70313384Y-45407393D01*
X70420000Y-45428600D01*
X85781400Y-45428600D01*
X85781400Y-45466927D01*
X85742890Y-45459129D01*
X81742890Y-45459129D01*
X81658176Y-45475069D01*
X81580372Y-45525135D01*
X81528175Y-45601527D01*
X81509812Y-45692207D01*
X81509812Y-46692207D01*
X81525752Y-46776921D01*
X81575818Y-46854725D01*
X81652210Y-46906922D01*
X81742890Y-46925285D01*
X85742890Y-46925285D01*
X85781400Y-46918039D01*
X85781400Y-47108007D01*
X84066740Y-47108007D01*
X83920690Y-47254057D01*
X83920690Y-48014407D01*
X83940690Y-48014407D01*
X83940690Y-48370007D01*
X83920690Y-48370007D01*
X83920690Y-49130357D01*
X84066740Y-49276407D01*
X85781400Y-49276407D01*
X85781400Y-49466927D01*
X85742890Y-49459129D01*
X81742890Y-49459129D01*
X81658176Y-49475069D01*
X81580372Y-49525135D01*
X81528175Y-49601527D01*
X81509812Y-49692207D01*
X81509812Y-50692207D01*
X81525752Y-50776921D01*
X81575818Y-50854725D01*
X81600222Y-50871400D01*
X70420000Y-50871400D01*
X70369726Y-50881400D01*
X62270274Y-50881400D01*
X62220000Y-50871400D01*
X51164522Y-50871400D01*
X51183358Y-50859279D01*
X51235555Y-50782887D01*
X51253918Y-50692207D01*
X51253918Y-49692207D01*
X51237978Y-49607493D01*
X51187912Y-49529689D01*
X51111520Y-49477492D01*
X51020840Y-49459129D01*
X47020840Y-49459129D01*
X46936126Y-49475069D01*
X46908600Y-49492782D01*
X46908600Y-49276407D01*
X48696990Y-49276407D01*
X48843040Y-49130357D01*
X48843040Y-48370007D01*
X48823040Y-48370007D01*
X48823040Y-48130540D01*
X49121428Y-48130540D01*
X49166293Y-48479424D01*
X49198640Y-48557517D01*
X49198640Y-49130357D01*
X49344690Y-49276407D01*
X51137044Y-49276407D01*
X51351762Y-49187468D01*
X51516101Y-49023130D01*
X51605040Y-48808412D01*
X51605040Y-48516057D01*
X51458990Y-48370007D01*
X50888760Y-48370007D01*
X50920252Y-48253874D01*
X50889458Y-48014407D01*
X51458990Y-48014407D01*
X51605040Y-47868357D01*
X51605040Y-47576002D01*
X51516101Y-47361284D01*
X51351762Y-47196946D01*
X51137044Y-47108007D01*
X49344690Y-47108007D01*
X49198640Y-47254057D01*
X49198640Y-47845809D01*
X49121428Y-48130540D01*
X48823040Y-48130540D01*
X48823040Y-48014407D01*
X48843040Y-48014407D01*
X48843040Y-47254057D01*
X48696990Y-47108007D01*
X46908600Y-47108007D01*
X46908600Y-46946812D01*
X64827337Y-46946812D01*
X64900046Y-47122781D01*
X65022942Y-47245891D01*
X65022942Y-48952030D01*
X65038882Y-49036744D01*
X65088948Y-49114548D01*
X65165340Y-49166745D01*
X65256020Y-49185108D01*
X65522942Y-49185108D01*
X65522942Y-49202030D01*
X65538882Y-49286744D01*
X65588948Y-49364548D01*
X65665340Y-49416745D01*
X65756020Y-49435108D01*
X66556020Y-49435108D01*
X66640734Y-49419168D01*
X66690392Y-49387213D01*
X66750759Y-49532952D01*
X66915097Y-49697291D01*
X67129815Y-49786230D01*
X67179970Y-49786230D01*
X67326020Y-49640180D01*
X67326020Y-48229830D01*
X67486020Y-48229830D01*
X67486020Y-49640180D01*
X67632070Y-49786230D01*
X67682225Y-49786230D01*
X67896943Y-49697291D01*
X68061281Y-49532952D01*
X68150220Y-49318234D01*
X68150220Y-48375880D01*
X68004170Y-48229830D01*
X67486020Y-48229830D01*
X67326020Y-48229830D01*
X67246020Y-48229830D01*
X67246020Y-47874230D01*
X67326020Y-47874230D01*
X67326020Y-46463880D01*
X67486020Y-46463880D01*
X67486020Y-47874230D01*
X68004170Y-47874230D01*
X68150220Y-47728180D01*
X68150220Y-47576002D01*
X81158690Y-47576002D01*
X81158690Y-47868357D01*
X81304740Y-48014407D01*
X81874970Y-48014407D01*
X81843478Y-48130540D01*
X81874272Y-48370007D01*
X81304740Y-48370007D01*
X81158690Y-48516057D01*
X81158690Y-48808412D01*
X81247629Y-49023130D01*
X81411968Y-49187468D01*
X81626686Y-49276407D01*
X83419040Y-49276407D01*
X83565090Y-49130357D01*
X83565090Y-48538605D01*
X83642302Y-48253874D01*
X83597437Y-47904990D01*
X83565090Y-47826897D01*
X83565090Y-47254057D01*
X83419040Y-47108007D01*
X81626686Y-47108007D01*
X81411968Y-47196946D01*
X81247629Y-47361284D01*
X81158690Y-47576002D01*
X68150220Y-47576002D01*
X68150220Y-46785826D01*
X68061281Y-46571108D01*
X67896943Y-46406769D01*
X67682225Y-46317830D01*
X67632070Y-46317830D01*
X67486020Y-46463880D01*
X67326020Y-46463880D01*
X67179970Y-46317830D01*
X67129815Y-46317830D01*
X66915097Y-46406769D01*
X66750759Y-46571108D01*
X66690288Y-46717098D01*
X66646700Y-46687315D01*
X66556020Y-46668952D01*
X65756020Y-46668952D01*
X65748782Y-46670314D01*
X65711994Y-46581279D01*
X65577479Y-46446530D01*
X65401637Y-46373514D01*
X65211238Y-46373347D01*
X65035269Y-46446056D01*
X64900520Y-46580571D01*
X64827504Y-46756413D01*
X64827337Y-46946812D01*
X46908600Y-46946812D01*
X46908600Y-46892191D01*
X46930160Y-46906922D01*
X47020840Y-46925285D01*
X51020840Y-46925285D01*
X51105554Y-46909345D01*
X51183358Y-46859279D01*
X51235555Y-46782887D01*
X51253918Y-46692207D01*
X51253918Y-45692207D01*
X51237978Y-45607493D01*
X51187912Y-45529689D01*
X51111520Y-45477492D01*
X51020840Y-45459129D01*
X47020840Y-45459129D01*
X46936126Y-45475069D01*
X46908600Y-45492782D01*
X46908600Y-45428600D01*
X62220000Y-45428600D01*
X62326616Y-45407393D01*
X62417000Y-45347000D01*
X62477393Y-45256616D01*
X62498600Y-45150000D01*
X62498600Y-41738135D01*
X64842930Y-41738135D01*
X64842930Y-41788290D01*
X64931869Y-42003008D01*
X65096208Y-42167346D01*
X65242198Y-42227817D01*
X65212415Y-42271405D01*
X65194052Y-42362085D01*
X65194052Y-43162085D01*
X65195414Y-43169323D01*
X65106379Y-43206111D01*
X64971630Y-43340626D01*
X64898614Y-43516468D01*
X64898447Y-43706867D01*
X64971156Y-43882836D01*
X65105671Y-44017585D01*
X65281513Y-44090601D01*
X65471912Y-44090768D01*
X65647881Y-44018059D01*
X65770991Y-43895163D01*
X67477130Y-43895163D01*
X67561844Y-43879223D01*
X67639648Y-43829157D01*
X67691845Y-43752765D01*
X67710208Y-43662085D01*
X67710208Y-43395163D01*
X67727130Y-43395163D01*
X67811844Y-43379223D01*
X67889648Y-43329157D01*
X67941845Y-43252765D01*
X67960208Y-43162085D01*
X67960208Y-42362085D01*
X67944268Y-42277371D01*
X67912313Y-42227713D01*
X68058052Y-42167346D01*
X68222391Y-42003008D01*
X68311330Y-41788290D01*
X68311330Y-41738135D01*
X68165280Y-41592085D01*
X66754930Y-41592085D01*
X66754930Y-41672085D01*
X66399330Y-41672085D01*
X66399330Y-41592085D01*
X64988980Y-41592085D01*
X64842930Y-41738135D01*
X62498600Y-41738135D01*
X62498600Y-41235880D01*
X64842930Y-41235880D01*
X64842930Y-41286035D01*
X64988980Y-41432085D01*
X66399330Y-41432085D01*
X66399330Y-40913935D01*
X66754930Y-40913935D01*
X66754930Y-41432085D01*
X68165280Y-41432085D01*
X68311330Y-41286035D01*
X68311330Y-41235880D01*
X68222391Y-41021162D01*
X68058052Y-40856824D01*
X67843334Y-40767885D01*
X66900980Y-40767885D01*
X66754930Y-40913935D01*
X66399330Y-40913935D01*
X66253280Y-40767885D01*
X65310926Y-40767885D01*
X65096208Y-40856824D01*
X64931869Y-41021162D01*
X64842930Y-41235880D01*
X62498600Y-41235880D01*
X62498600Y-37530000D01*
X62494156Y-37507656D01*
X62494923Y-37484881D01*
X62483651Y-37454844D01*
X62477393Y-37423384D01*
X62464735Y-37404440D01*
X62456729Y-37383107D01*
X61722181Y-36199330D01*
X64842930Y-36199330D01*
X64842930Y-36249485D01*
X64931869Y-36464203D01*
X65096208Y-36628541D01*
X65242198Y-36689012D01*
X65212415Y-36732600D01*
X65194052Y-36823280D01*
X65194052Y-37623280D01*
X65195414Y-37630518D01*
X65106379Y-37667306D01*
X64971630Y-37801821D01*
X64898614Y-37977663D01*
X64898447Y-38168062D01*
X64971156Y-38344031D01*
X65105671Y-38478780D01*
X65281513Y-38551796D01*
X65471912Y-38551963D01*
X65647881Y-38479254D01*
X65770991Y-38356358D01*
X67477130Y-38356358D01*
X67561844Y-38340418D01*
X67639648Y-38290352D01*
X67691845Y-38213960D01*
X67710208Y-38123280D01*
X67710208Y-37856358D01*
X67727130Y-37856358D01*
X67811844Y-37840418D01*
X67889648Y-37790352D01*
X67941845Y-37713960D01*
X67960208Y-37623280D01*
X67960208Y-36823280D01*
X67944268Y-36738566D01*
X67912313Y-36688908D01*
X68058052Y-36628541D01*
X68222391Y-36464203D01*
X68311330Y-36249485D01*
X68311330Y-36199330D01*
X68165280Y-36053280D01*
X66754930Y-36053280D01*
X66754930Y-36133280D01*
X66399330Y-36133280D01*
X66399330Y-36053280D01*
X64988980Y-36053280D01*
X64842930Y-36199330D01*
X61722181Y-36199330D01*
X61410526Y-35697075D01*
X64842930Y-35697075D01*
X64842930Y-35747230D01*
X64988980Y-35893280D01*
X66399330Y-35893280D01*
X66399330Y-35375130D01*
X66754930Y-35375130D01*
X66754930Y-35893280D01*
X68165280Y-35893280D01*
X68311330Y-35747230D01*
X68311330Y-35697075D01*
X68222391Y-35482357D01*
X68058052Y-35318019D01*
X67843334Y-35229080D01*
X66900980Y-35229080D01*
X66754930Y-35375130D01*
X66399330Y-35375130D01*
X66253280Y-35229080D01*
X65310926Y-35229080D01*
X65096208Y-35318019D01*
X64931869Y-35482357D01*
X64842930Y-35697075D01*
X61410526Y-35697075D01*
X59205745Y-32143917D01*
X61551045Y-32143917D01*
X61623754Y-32319886D01*
X61758269Y-32454635D01*
X61934111Y-32527651D01*
X61993383Y-32527703D01*
X62895771Y-33983070D01*
X62953959Y-34046667D01*
X63037510Y-34086409D01*
X63129940Y-34090515D01*
X63216685Y-34058336D01*
X63443538Y-33917678D01*
X63452455Y-33932059D01*
X63510643Y-33995656D01*
X63594194Y-34035398D01*
X63686624Y-34039504D01*
X63773369Y-34007325D01*
X64453279Y-33585753D01*
X64516876Y-33527564D01*
X64542242Y-33474239D01*
X64670346Y-33566289D01*
X64896615Y-33619358D01*
X65125969Y-33581797D01*
X65168595Y-33555367D01*
X65215758Y-33354278D01*
X64472552Y-32155640D01*
X64404562Y-32197797D01*
X64326145Y-32071326D01*
X64608534Y-32071326D01*
X65351740Y-33269964D01*
X65552829Y-33317126D01*
X65595455Y-33290696D01*
X65731073Y-33101959D01*
X65781499Y-32886954D01*
X66967181Y-32886954D01*
X67039890Y-33062923D01*
X67174405Y-33197672D01*
X67350247Y-33270688D01*
X67540646Y-33270855D01*
X67624645Y-33236147D01*
X69081319Y-34139548D01*
X69161713Y-34170650D01*
X69254221Y-34169109D01*
X69338842Y-34131699D01*
X69402241Y-34064314D01*
X69542922Y-33837476D01*
X69557302Y-33846394D01*
X69637696Y-33877496D01*
X69730205Y-33875955D01*
X69814825Y-33838545D01*
X69878224Y-33771160D01*
X70299864Y-33091292D01*
X70330966Y-33010898D01*
X70329982Y-32951855D01*
X70485652Y-32977365D01*
X70711928Y-32924319D01*
X70900678Y-32788720D01*
X70927113Y-32746097D01*
X70879970Y-32545003D01*
X69681406Y-31801677D01*
X69639242Y-31869664D01*
X69337041Y-31682245D01*
X69347299Y-31665704D01*
X69765735Y-31665704D01*
X70964298Y-32409029D01*
X71165392Y-32361887D01*
X71191826Y-32319263D01*
X71229410Y-32089913D01*
X71176363Y-31863638D01*
X71040764Y-31674888D01*
X70843255Y-31552396D01*
X70239920Y-31178220D01*
X70038826Y-31225362D01*
X69765735Y-31665704D01*
X69347299Y-31665704D01*
X69379205Y-31614258D01*
X68180642Y-30870933D01*
X67979548Y-30918075D01*
X67953114Y-30960699D01*
X67915530Y-31190049D01*
X67968577Y-31416324D01*
X68060772Y-31544657D01*
X68012489Y-31566003D01*
X67949090Y-31633388D01*
X67527450Y-32313256D01*
X67527300Y-32313644D01*
X67351082Y-32313489D01*
X67175113Y-32386198D01*
X67040364Y-32520713D01*
X66967348Y-32696555D01*
X66967181Y-32886954D01*
X65781499Y-32886954D01*
X65784141Y-32875690D01*
X65746580Y-32646336D01*
X65624109Y-32448814D01*
X65249992Y-31845441D01*
X65048903Y-31798279D01*
X64608534Y-32071326D01*
X64326145Y-32071326D01*
X64217173Y-31895577D01*
X64285164Y-31853420D01*
X63541958Y-30654782D01*
X63340869Y-30607620D01*
X63298243Y-30634050D01*
X63162625Y-30822787D01*
X63109557Y-31049056D01*
X63135095Y-31204997D01*
X63082356Y-31202654D01*
X62995611Y-31234833D01*
X62315701Y-31656405D01*
X62314778Y-31657250D01*
X62301187Y-31643635D01*
X62125345Y-31570619D01*
X61934946Y-31570452D01*
X61758977Y-31643161D01*
X61624228Y-31777676D01*
X61551212Y-31953518D01*
X61551045Y-32143917D01*
X59205745Y-32143917D01*
X58229400Y-30570468D01*
X63677940Y-30570468D01*
X64421146Y-31769106D01*
X64861514Y-31496059D01*
X64908677Y-31294970D01*
X64534561Y-30691597D01*
X64436761Y-30533865D01*
X68217827Y-30533865D01*
X68264970Y-30734959D01*
X69463534Y-31478285D01*
X69736625Y-31037943D01*
X69689482Y-30836849D01*
X69086147Y-30462672D01*
X68888638Y-30340181D01*
X68659288Y-30302597D01*
X68433012Y-30355643D01*
X68244262Y-30491242D01*
X68217827Y-30533865D01*
X64436761Y-30533865D01*
X64412089Y-30494075D01*
X64223352Y-30358457D01*
X63997083Y-30305388D01*
X63767729Y-30342949D01*
X63725103Y-30369379D01*
X63677940Y-30570468D01*
X58229400Y-30570468D01*
X55941948Y-26884079D01*
X58289727Y-26884079D01*
X58362436Y-27060048D01*
X58496951Y-27194797D01*
X58672793Y-27267813D01*
X58732065Y-27267865D01*
X59634453Y-28723232D01*
X59692641Y-28786829D01*
X59776192Y-28826571D01*
X59868622Y-28830677D01*
X59955367Y-28798498D01*
X60182220Y-28657840D01*
X60191137Y-28672221D01*
X60249325Y-28735818D01*
X60332876Y-28775560D01*
X60425306Y-28779666D01*
X60512051Y-28747487D01*
X61191961Y-28325915D01*
X61255558Y-28267726D01*
X61280924Y-28214401D01*
X61409028Y-28306451D01*
X61635297Y-28359520D01*
X61864651Y-28321959D01*
X61907277Y-28295529D01*
X61954440Y-28094440D01*
X61211234Y-26895802D01*
X61143244Y-26937959D01*
X61064827Y-26811488D01*
X61347216Y-26811488D01*
X62090422Y-28010126D01*
X62291511Y-28057288D01*
X62334137Y-28030858D01*
X62469755Y-27842121D01*
X62522823Y-27615852D01*
X62485262Y-27386498D01*
X62362791Y-27188976D01*
X61988674Y-26585603D01*
X61787585Y-26538441D01*
X61347216Y-26811488D01*
X61064827Y-26811488D01*
X60955855Y-26635739D01*
X61023846Y-26593582D01*
X60280640Y-25394944D01*
X60079551Y-25347782D01*
X60036925Y-25374212D01*
X59901307Y-25562949D01*
X59848239Y-25789218D01*
X59873777Y-25945159D01*
X59821038Y-25942816D01*
X59734293Y-25974995D01*
X59054383Y-26396567D01*
X59053460Y-26397412D01*
X59039869Y-26383797D01*
X58864027Y-26310781D01*
X58673628Y-26310614D01*
X58497659Y-26383323D01*
X58362910Y-26517838D01*
X58289894Y-26693680D01*
X58289727Y-26884079D01*
X55941948Y-26884079D01*
X54965603Y-25310630D01*
X60416622Y-25310630D01*
X61159828Y-26509268D01*
X61600196Y-26236221D01*
X61647359Y-26035132D01*
X61273243Y-25431759D01*
X61150771Y-25234237D01*
X60962034Y-25098619D01*
X60735765Y-25045550D01*
X60506411Y-25083111D01*
X60463785Y-25109541D01*
X60416622Y-25310630D01*
X54965603Y-25310630D01*
X52678152Y-21624243D01*
X55028409Y-21624243D01*
X55101118Y-21800212D01*
X55235633Y-21934961D01*
X55411475Y-22007977D01*
X55470747Y-22008029D01*
X56373135Y-23463396D01*
X56431323Y-23526993D01*
X56514874Y-23566735D01*
X56607304Y-23570841D01*
X56694049Y-23538662D01*
X56920902Y-23398004D01*
X56929819Y-23412385D01*
X56988007Y-23475982D01*
X57071558Y-23515724D01*
X57163988Y-23519830D01*
X57250733Y-23487651D01*
X57930643Y-23066079D01*
X57994240Y-23007890D01*
X58019606Y-22954565D01*
X58147710Y-23046615D01*
X58373979Y-23099684D01*
X58603333Y-23062123D01*
X58645959Y-23035693D01*
X58693122Y-22834604D01*
X57949916Y-21635966D01*
X57881926Y-21678123D01*
X57694537Y-21375903D01*
X57762528Y-21333746D01*
X57019322Y-20135108D01*
X56818233Y-20087946D01*
X56775607Y-20114376D01*
X56639989Y-20303113D01*
X56586921Y-20529382D01*
X56612459Y-20685323D01*
X56559720Y-20682980D01*
X56472975Y-20715159D01*
X55793065Y-21136731D01*
X55792142Y-21137576D01*
X55778551Y-21123961D01*
X55602709Y-21050945D01*
X55412310Y-21050778D01*
X55236341Y-21123487D01*
X55101592Y-21258002D01*
X55028576Y-21433844D01*
X55028409Y-21624243D01*
X52678152Y-21624243D01*
X51701807Y-20050794D01*
X57155304Y-20050794D01*
X57898510Y-21249432D01*
X57960780Y-21210821D01*
X57981622Y-21231663D01*
X58153889Y-21509495D01*
X58085898Y-21551652D01*
X58829104Y-22750290D01*
X59030193Y-22797452D01*
X59072819Y-22771022D01*
X59208437Y-22582285D01*
X59261505Y-22356016D01*
X59223944Y-22126662D01*
X59101473Y-21929140D01*
X58760334Y-21378954D01*
X58777027Y-21377052D01*
X59067278Y-21216151D01*
X59172579Y-21109739D01*
X59112396Y-20944695D01*
X58586207Y-20729968D01*
X58495602Y-20951996D01*
X58463003Y-20899420D01*
X58393874Y-20942283D01*
X58503561Y-20832596D01*
X58340751Y-20669786D01*
X58354739Y-20635510D01*
X58280612Y-20605260D01*
X58214417Y-20498500D01*
X58680665Y-20498500D01*
X59206854Y-20713226D01*
X59365327Y-20637412D01*
X59327749Y-20307680D01*
X59166848Y-20017429D01*
X59060436Y-19912128D01*
X58895392Y-19972311D01*
X58680665Y-20498500D01*
X58214417Y-20498500D01*
X58056481Y-20243783D01*
X58449197Y-20404042D01*
X58663923Y-19877853D01*
X58588109Y-19719380D01*
X58258377Y-19756958D01*
X57968126Y-19917859D01*
X57898206Y-19988517D01*
X57889453Y-19974401D01*
X57700716Y-19838783D01*
X57474447Y-19785714D01*
X57245093Y-19823275D01*
X57202467Y-19849705D01*
X57155304Y-20050794D01*
X51701807Y-20050794D01*
X51608600Y-19900585D01*
X51608600Y-18998600D01*
X60104602Y-18998600D01*
X65915410Y-29653392D01*
X65915410Y-29653392D01*
G37*
X65915410Y-29653392D02*
X65940898Y-29683923D01*
X65963000Y-29717000D01*
X65975467Y-29725330D01*
X65985075Y-29736839D01*
X66020309Y-29755293D01*
X66053384Y-29777393D01*
X66068090Y-29780318D01*
X66081371Y-29787274D01*
X66120986Y-29790840D01*
X66160000Y-29798600D01*
X66480000Y-29798600D01*
X66519014Y-29790840D01*
X66558629Y-29787274D01*
X66571910Y-29780318D01*
X66586616Y-29777393D01*
X66619687Y-29755295D01*
X66654925Y-29736840D01*
X66664535Y-29725329D01*
X66677000Y-29717000D01*
X66699100Y-29683925D01*
X66724590Y-29653392D01*
X67829318Y-27627743D01*
X70228837Y-27627743D01*
X70301546Y-27803712D01*
X70436061Y-27938461D01*
X70611903Y-28011477D01*
X70802302Y-28011644D01*
X70886301Y-27976936D01*
X72342975Y-28880337D01*
X72423369Y-28911439D01*
X72515877Y-28909898D01*
X72600498Y-28872488D01*
X72663897Y-28805103D01*
X72804578Y-28578265D01*
X72818958Y-28587183D01*
X72899352Y-28618285D01*
X72991861Y-28616744D01*
X73076481Y-28579334D01*
X73139880Y-28511949D01*
X73561520Y-27832081D01*
X73592622Y-27751687D01*
X73591638Y-27692644D01*
X73747308Y-27718154D01*
X73973584Y-27665108D01*
X74162334Y-27529509D01*
X74188769Y-27486886D01*
X74141626Y-27285792D01*
X72943062Y-26542466D01*
X72900898Y-26610453D01*
X72598697Y-26423034D01*
X72608955Y-26406493D01*
X73027391Y-26406493D01*
X74225954Y-27149818D01*
X74427048Y-27102676D01*
X74453482Y-27060052D01*
X74491066Y-26830702D01*
X74438019Y-26604427D01*
X74302420Y-26415677D01*
X74104911Y-26293185D01*
X73501576Y-25919009D01*
X73300482Y-25966151D01*
X73027391Y-26406493D01*
X72608955Y-26406493D01*
X72640861Y-26355047D01*
X71442298Y-25611722D01*
X71241204Y-25658864D01*
X71214770Y-25701488D01*
X71177186Y-25930838D01*
X71230233Y-26157113D01*
X71322428Y-26285446D01*
X71274145Y-26306792D01*
X71210746Y-26374177D01*
X70789106Y-27054045D01*
X70788956Y-27054433D01*
X70612738Y-27054278D01*
X70436769Y-27126987D01*
X70302020Y-27261502D01*
X70229004Y-27437344D01*
X70228837Y-27627743D01*
X67829318Y-27627743D01*
X69112623Y-25274654D01*
X71479483Y-25274654D01*
X71526626Y-25475748D01*
X72725190Y-26219074D01*
X72998281Y-25778732D01*
X72951138Y-25577638D01*
X72347803Y-25203461D01*
X72150294Y-25080970D01*
X71920944Y-25043386D01*
X71694668Y-25096432D01*
X71505918Y-25232031D01*
X71479483Y-25274654D01*
X69112623Y-25274654D01*
X70697535Y-22368534D01*
X73490491Y-22368534D01*
X73563200Y-22544503D01*
X73697715Y-22679252D01*
X73873557Y-22752268D01*
X74063956Y-22752435D01*
X74147955Y-22717727D01*
X75604629Y-23621128D01*
X75685023Y-23652230D01*
X75777531Y-23650689D01*
X75862152Y-23613279D01*
X75925551Y-23545894D01*
X76066232Y-23319056D01*
X76080612Y-23327974D01*
X76161006Y-23359076D01*
X76253515Y-23357535D01*
X76338135Y-23320125D01*
X76401534Y-23252740D01*
X76823174Y-22572872D01*
X76854276Y-22492478D01*
X76853292Y-22433435D01*
X77008962Y-22458945D01*
X77235238Y-22405899D01*
X77423988Y-22270300D01*
X77450423Y-22227677D01*
X77403280Y-22026583D01*
X76204716Y-21283257D01*
X76162552Y-21351244D01*
X75860351Y-21163825D01*
X75870609Y-21147284D01*
X76289045Y-21147284D01*
X77487608Y-21890609D01*
X77688702Y-21843467D01*
X77715136Y-21800843D01*
X77752720Y-21571493D01*
X77699673Y-21345218D01*
X77564074Y-21156468D01*
X77366565Y-21033976D01*
X76763230Y-20659800D01*
X76562136Y-20706942D01*
X76289045Y-21147284D01*
X75870609Y-21147284D01*
X75902515Y-21095838D01*
X74703952Y-20352513D01*
X74502858Y-20399655D01*
X74476424Y-20442279D01*
X74438840Y-20671629D01*
X74491887Y-20897904D01*
X74584082Y-21026237D01*
X74535799Y-21047583D01*
X74472400Y-21114968D01*
X74050760Y-21794836D01*
X74050610Y-21795224D01*
X73874392Y-21795069D01*
X73698423Y-21867778D01*
X73563674Y-22002293D01*
X73490658Y-22178135D01*
X73490491Y-22368534D01*
X70697535Y-22368534D01*
X71980840Y-20015445D01*
X74741137Y-20015445D01*
X74788280Y-20216539D01*
X75986844Y-20959865D01*
X76259935Y-20519523D01*
X76212792Y-20318429D01*
X75609457Y-19944252D01*
X75411948Y-19821761D01*
X75182598Y-19784177D01*
X74956322Y-19837223D01*
X74767572Y-19972822D01*
X74741137Y-20015445D01*
X71980840Y-20015445D01*
X72535398Y-18998600D01*
X81081400Y-18998600D01*
X81081400Y-19900277D01*
X70183574Y-37382621D01*
X70175425Y-37404201D01*
X70162607Y-37423384D01*
X70156404Y-37454571D01*
X70145171Y-37484316D01*
X70145901Y-37507374D01*
X70141400Y-37530000D01*
X70141400Y-45150000D01*
X70162607Y-45256616D01*
X70223000Y-45347000D01*
X70313384Y-45407393D01*
X70420000Y-45428600D01*
X85781400Y-45428600D01*
X85781400Y-45466927D01*
X85742890Y-45459129D01*
X81742890Y-45459129D01*
X81658176Y-45475069D01*
X81580372Y-45525135D01*
X81528175Y-45601527D01*
X81509812Y-45692207D01*
X81509812Y-46692207D01*
X81525752Y-46776921D01*
X81575818Y-46854725D01*
X81652210Y-46906922D01*
X81742890Y-46925285D01*
X85742890Y-46925285D01*
X85781400Y-46918039D01*
X85781400Y-47108007D01*
X84066740Y-47108007D01*
X83920690Y-47254057D01*
X83920690Y-48014407D01*
X83940690Y-48014407D01*
X83940690Y-48370007D01*
X83920690Y-48370007D01*
X83920690Y-49130357D01*
X84066740Y-49276407D01*
X85781400Y-49276407D01*
X85781400Y-49466927D01*
X85742890Y-49459129D01*
X81742890Y-49459129D01*
X81658176Y-49475069D01*
X81580372Y-49525135D01*
X81528175Y-49601527D01*
X81509812Y-49692207D01*
X81509812Y-50692207D01*
X81525752Y-50776921D01*
X81575818Y-50854725D01*
X81600222Y-50871400D01*
X70420000Y-50871400D01*
X70369726Y-50881400D01*
X62270274Y-50881400D01*
X62220000Y-50871400D01*
X51164522Y-50871400D01*
X51183358Y-50859279D01*
X51235555Y-50782887D01*
X51253918Y-50692207D01*
X51253918Y-49692207D01*
X51237978Y-49607493D01*
X51187912Y-49529689D01*
X51111520Y-49477492D01*
X51020840Y-49459129D01*
X47020840Y-49459129D01*
X46936126Y-49475069D01*
X46908600Y-49492782D01*
X46908600Y-49276407D01*
X48696990Y-49276407D01*
X48843040Y-49130357D01*
X48843040Y-48370007D01*
X48823040Y-48370007D01*
X48823040Y-48130540D01*
X49121428Y-48130540D01*
X49166293Y-48479424D01*
X49198640Y-48557517D01*
X49198640Y-49130357D01*
X49344690Y-49276407D01*
X51137044Y-49276407D01*
X51351762Y-49187468D01*
X51516101Y-49023130D01*
X51605040Y-48808412D01*
X51605040Y-48516057D01*
X51458990Y-48370007D01*
X50888760Y-48370007D01*
X50920252Y-48253874D01*
X50889458Y-48014407D01*
X51458990Y-48014407D01*
X51605040Y-47868357D01*
X51605040Y-47576002D01*
X51516101Y-47361284D01*
X51351762Y-47196946D01*
X51137044Y-47108007D01*
X49344690Y-47108007D01*
X49198640Y-47254057D01*
X49198640Y-47845809D01*
X49121428Y-48130540D01*
X48823040Y-48130540D01*
X48823040Y-48014407D01*
X48843040Y-48014407D01*
X48843040Y-47254057D01*
X48696990Y-47108007D01*
X46908600Y-47108007D01*
X46908600Y-46946812D01*
X64827337Y-46946812D01*
X64900046Y-47122781D01*
X65022942Y-47245891D01*
X65022942Y-48952030D01*
X65038882Y-49036744D01*
X65088948Y-49114548D01*
X65165340Y-49166745D01*
X65256020Y-49185108D01*
X65522942Y-49185108D01*
X65522942Y-49202030D01*
X65538882Y-49286744D01*
X65588948Y-49364548D01*
X65665340Y-49416745D01*
X65756020Y-49435108D01*
X66556020Y-49435108D01*
X66640734Y-49419168D01*
X66690392Y-49387213D01*
X66750759Y-49532952D01*
X66915097Y-49697291D01*
X67129815Y-49786230D01*
X67179970Y-49786230D01*
X67326020Y-49640180D01*
X67326020Y-48229830D01*
X67486020Y-48229830D01*
X67486020Y-49640180D01*
X67632070Y-49786230D01*
X67682225Y-49786230D01*
X67896943Y-49697291D01*
X68061281Y-49532952D01*
X68150220Y-49318234D01*
X68150220Y-48375880D01*
X68004170Y-48229830D01*
X67486020Y-48229830D01*
X67326020Y-48229830D01*
X67246020Y-48229830D01*
X67246020Y-47874230D01*
X67326020Y-47874230D01*
X67326020Y-46463880D01*
X67486020Y-46463880D01*
X67486020Y-47874230D01*
X68004170Y-47874230D01*
X68150220Y-47728180D01*
X68150220Y-47576002D01*
X81158690Y-47576002D01*
X81158690Y-47868357D01*
X81304740Y-48014407D01*
X81874970Y-48014407D01*
X81843478Y-48130540D01*
X81874272Y-48370007D01*
X81304740Y-48370007D01*
X81158690Y-48516057D01*
X81158690Y-48808412D01*
X81247629Y-49023130D01*
X81411968Y-49187468D01*
X81626686Y-49276407D01*
X83419040Y-49276407D01*
X83565090Y-49130357D01*
X83565090Y-48538605D01*
X83642302Y-48253874D01*
X83597437Y-47904990D01*
X83565090Y-47826897D01*
X83565090Y-47254057D01*
X83419040Y-47108007D01*
X81626686Y-47108007D01*
X81411968Y-47196946D01*
X81247629Y-47361284D01*
X81158690Y-47576002D01*
X68150220Y-47576002D01*
X68150220Y-46785826D01*
X68061281Y-46571108D01*
X67896943Y-46406769D01*
X67682225Y-46317830D01*
X67632070Y-46317830D01*
X67486020Y-46463880D01*
X67326020Y-46463880D01*
X67179970Y-46317830D01*
X67129815Y-46317830D01*
X66915097Y-46406769D01*
X66750759Y-46571108D01*
X66690288Y-46717098D01*
X66646700Y-46687315D01*
X66556020Y-46668952D01*
X65756020Y-46668952D01*
X65748782Y-46670314D01*
X65711994Y-46581279D01*
X65577479Y-46446530D01*
X65401637Y-46373514D01*
X65211238Y-46373347D01*
X65035269Y-46446056D01*
X64900520Y-46580571D01*
X64827504Y-46756413D01*
X64827337Y-46946812D01*
X46908600Y-46946812D01*
X46908600Y-46892191D01*
X46930160Y-46906922D01*
X47020840Y-46925285D01*
X51020840Y-46925285D01*
X51105554Y-46909345D01*
X51183358Y-46859279D01*
X51235555Y-46782887D01*
X51253918Y-46692207D01*
X51253918Y-45692207D01*
X51237978Y-45607493D01*
X51187912Y-45529689D01*
X51111520Y-45477492D01*
X51020840Y-45459129D01*
X47020840Y-45459129D01*
X46936126Y-45475069D01*
X46908600Y-45492782D01*
X46908600Y-45428600D01*
X62220000Y-45428600D01*
X62326616Y-45407393D01*
X62417000Y-45347000D01*
X62477393Y-45256616D01*
X62498600Y-45150000D01*
X62498600Y-41738135D01*
X64842930Y-41738135D01*
X64842930Y-41788290D01*
X64931869Y-42003008D01*
X65096208Y-42167346D01*
X65242198Y-42227817D01*
X65212415Y-42271405D01*
X65194052Y-42362085D01*
X65194052Y-43162085D01*
X65195414Y-43169323D01*
X65106379Y-43206111D01*
X64971630Y-43340626D01*
X64898614Y-43516468D01*
X64898447Y-43706867D01*
X64971156Y-43882836D01*
X65105671Y-44017585D01*
X65281513Y-44090601D01*
X65471912Y-44090768D01*
X65647881Y-44018059D01*
X65770991Y-43895163D01*
X67477130Y-43895163D01*
X67561844Y-43879223D01*
X67639648Y-43829157D01*
X67691845Y-43752765D01*
X67710208Y-43662085D01*
X67710208Y-43395163D01*
X67727130Y-43395163D01*
X67811844Y-43379223D01*
X67889648Y-43329157D01*
X67941845Y-43252765D01*
X67960208Y-43162085D01*
X67960208Y-42362085D01*
X67944268Y-42277371D01*
X67912313Y-42227713D01*
X68058052Y-42167346D01*
X68222391Y-42003008D01*
X68311330Y-41788290D01*
X68311330Y-41738135D01*
X68165280Y-41592085D01*
X66754930Y-41592085D01*
X66754930Y-41672085D01*
X66399330Y-41672085D01*
X66399330Y-41592085D01*
X64988980Y-41592085D01*
X64842930Y-41738135D01*
X62498600Y-41738135D01*
X62498600Y-41235880D01*
X64842930Y-41235880D01*
X64842930Y-41286035D01*
X64988980Y-41432085D01*
X66399330Y-41432085D01*
X66399330Y-40913935D01*
X66754930Y-40913935D01*
X66754930Y-41432085D01*
X68165280Y-41432085D01*
X68311330Y-41286035D01*
X68311330Y-41235880D01*
X68222391Y-41021162D01*
X68058052Y-40856824D01*
X67843334Y-40767885D01*
X66900980Y-40767885D01*
X66754930Y-40913935D01*
X66399330Y-40913935D01*
X66253280Y-40767885D01*
X65310926Y-40767885D01*
X65096208Y-40856824D01*
X64931869Y-41021162D01*
X64842930Y-41235880D01*
X62498600Y-41235880D01*
X62498600Y-37530000D01*
X62494156Y-37507656D01*
X62494923Y-37484881D01*
X62483651Y-37454844D01*
X62477393Y-37423384D01*
X62464735Y-37404440D01*
X62456729Y-37383107D01*
X61722181Y-36199330D01*
X64842930Y-36199330D01*
X64842930Y-36249485D01*
X64931869Y-36464203D01*
X65096208Y-36628541D01*
X65242198Y-36689012D01*
X65212415Y-36732600D01*
X65194052Y-36823280D01*
X65194052Y-37623280D01*
X65195414Y-37630518D01*
X65106379Y-37667306D01*
X64971630Y-37801821D01*
X64898614Y-37977663D01*
X64898447Y-38168062D01*
X64971156Y-38344031D01*
X65105671Y-38478780D01*
X65281513Y-38551796D01*
X65471912Y-38551963D01*
X65647881Y-38479254D01*
X65770991Y-38356358D01*
X67477130Y-38356358D01*
X67561844Y-38340418D01*
X67639648Y-38290352D01*
X67691845Y-38213960D01*
X67710208Y-38123280D01*
X67710208Y-37856358D01*
X67727130Y-37856358D01*
X67811844Y-37840418D01*
X67889648Y-37790352D01*
X67941845Y-37713960D01*
X67960208Y-37623280D01*
X67960208Y-36823280D01*
X67944268Y-36738566D01*
X67912313Y-36688908D01*
X68058052Y-36628541D01*
X68222391Y-36464203D01*
X68311330Y-36249485D01*
X68311330Y-36199330D01*
X68165280Y-36053280D01*
X66754930Y-36053280D01*
X66754930Y-36133280D01*
X66399330Y-36133280D01*
X66399330Y-36053280D01*
X64988980Y-36053280D01*
X64842930Y-36199330D01*
X61722181Y-36199330D01*
X61410526Y-35697075D01*
X64842930Y-35697075D01*
X64842930Y-35747230D01*
X64988980Y-35893280D01*
X66399330Y-35893280D01*
X66399330Y-35375130D01*
X66754930Y-35375130D01*
X66754930Y-35893280D01*
X68165280Y-35893280D01*
X68311330Y-35747230D01*
X68311330Y-35697075D01*
X68222391Y-35482357D01*
X68058052Y-35318019D01*
X67843334Y-35229080D01*
X66900980Y-35229080D01*
X66754930Y-35375130D01*
X66399330Y-35375130D01*
X66253280Y-35229080D01*
X65310926Y-35229080D01*
X65096208Y-35318019D01*
X64931869Y-35482357D01*
X64842930Y-35697075D01*
X61410526Y-35697075D01*
X59205745Y-32143917D01*
X61551045Y-32143917D01*
X61623754Y-32319886D01*
X61758269Y-32454635D01*
X61934111Y-32527651D01*
X61993383Y-32527703D01*
X62895771Y-33983070D01*
X62953959Y-34046667D01*
X63037510Y-34086409D01*
X63129940Y-34090515D01*
X63216685Y-34058336D01*
X63443538Y-33917678D01*
X63452455Y-33932059D01*
X63510643Y-33995656D01*
X63594194Y-34035398D01*
X63686624Y-34039504D01*
X63773369Y-34007325D01*
X64453279Y-33585753D01*
X64516876Y-33527564D01*
X64542242Y-33474239D01*
X64670346Y-33566289D01*
X64896615Y-33619358D01*
X65125969Y-33581797D01*
X65168595Y-33555367D01*
X65215758Y-33354278D01*
X64472552Y-32155640D01*
X64404562Y-32197797D01*
X64326145Y-32071326D01*
X64608534Y-32071326D01*
X65351740Y-33269964D01*
X65552829Y-33317126D01*
X65595455Y-33290696D01*
X65731073Y-33101959D01*
X65781499Y-32886954D01*
X66967181Y-32886954D01*
X67039890Y-33062923D01*
X67174405Y-33197672D01*
X67350247Y-33270688D01*
X67540646Y-33270855D01*
X67624645Y-33236147D01*
X69081319Y-34139548D01*
X69161713Y-34170650D01*
X69254221Y-34169109D01*
X69338842Y-34131699D01*
X69402241Y-34064314D01*
X69542922Y-33837476D01*
X69557302Y-33846394D01*
X69637696Y-33877496D01*
X69730205Y-33875955D01*
X69814825Y-33838545D01*
X69878224Y-33771160D01*
X70299864Y-33091292D01*
X70330966Y-33010898D01*
X70329982Y-32951855D01*
X70485652Y-32977365D01*
X70711928Y-32924319D01*
X70900678Y-32788720D01*
X70927113Y-32746097D01*
X70879970Y-32545003D01*
X69681406Y-31801677D01*
X69639242Y-31869664D01*
X69337041Y-31682245D01*
X69347299Y-31665704D01*
X69765735Y-31665704D01*
X70964298Y-32409029D01*
X71165392Y-32361887D01*
X71191826Y-32319263D01*
X71229410Y-32089913D01*
X71176363Y-31863638D01*
X71040764Y-31674888D01*
X70843255Y-31552396D01*
X70239920Y-31178220D01*
X70038826Y-31225362D01*
X69765735Y-31665704D01*
X69347299Y-31665704D01*
X69379205Y-31614258D01*
X68180642Y-30870933D01*
X67979548Y-30918075D01*
X67953114Y-30960699D01*
X67915530Y-31190049D01*
X67968577Y-31416324D01*
X68060772Y-31544657D01*
X68012489Y-31566003D01*
X67949090Y-31633388D01*
X67527450Y-32313256D01*
X67527300Y-32313644D01*
X67351082Y-32313489D01*
X67175113Y-32386198D01*
X67040364Y-32520713D01*
X66967348Y-32696555D01*
X66967181Y-32886954D01*
X65781499Y-32886954D01*
X65784141Y-32875690D01*
X65746580Y-32646336D01*
X65624109Y-32448814D01*
X65249992Y-31845441D01*
X65048903Y-31798279D01*
X64608534Y-32071326D01*
X64326145Y-32071326D01*
X64217173Y-31895577D01*
X64285164Y-31853420D01*
X63541958Y-30654782D01*
X63340869Y-30607620D01*
X63298243Y-30634050D01*
X63162625Y-30822787D01*
X63109557Y-31049056D01*
X63135095Y-31204997D01*
X63082356Y-31202654D01*
X62995611Y-31234833D01*
X62315701Y-31656405D01*
X62314778Y-31657250D01*
X62301187Y-31643635D01*
X62125345Y-31570619D01*
X61934946Y-31570452D01*
X61758977Y-31643161D01*
X61624228Y-31777676D01*
X61551212Y-31953518D01*
X61551045Y-32143917D01*
X59205745Y-32143917D01*
X58229400Y-30570468D01*
X63677940Y-30570468D01*
X64421146Y-31769106D01*
X64861514Y-31496059D01*
X64908677Y-31294970D01*
X64534561Y-30691597D01*
X64436761Y-30533865D01*
X68217827Y-30533865D01*
X68264970Y-30734959D01*
X69463534Y-31478285D01*
X69736625Y-31037943D01*
X69689482Y-30836849D01*
X69086147Y-30462672D01*
X68888638Y-30340181D01*
X68659288Y-30302597D01*
X68433012Y-30355643D01*
X68244262Y-30491242D01*
X68217827Y-30533865D01*
X64436761Y-30533865D01*
X64412089Y-30494075D01*
X64223352Y-30358457D01*
X63997083Y-30305388D01*
X63767729Y-30342949D01*
X63725103Y-30369379D01*
X63677940Y-30570468D01*
X58229400Y-30570468D01*
X55941948Y-26884079D01*
X58289727Y-26884079D01*
X58362436Y-27060048D01*
X58496951Y-27194797D01*
X58672793Y-27267813D01*
X58732065Y-27267865D01*
X59634453Y-28723232D01*
X59692641Y-28786829D01*
X59776192Y-28826571D01*
X59868622Y-28830677D01*
X59955367Y-28798498D01*
X60182220Y-28657840D01*
X60191137Y-28672221D01*
X60249325Y-28735818D01*
X60332876Y-28775560D01*
X60425306Y-28779666D01*
X60512051Y-28747487D01*
X61191961Y-28325915D01*
X61255558Y-28267726D01*
X61280924Y-28214401D01*
X61409028Y-28306451D01*
X61635297Y-28359520D01*
X61864651Y-28321959D01*
X61907277Y-28295529D01*
X61954440Y-28094440D01*
X61211234Y-26895802D01*
X61143244Y-26937959D01*
X61064827Y-26811488D01*
X61347216Y-26811488D01*
X62090422Y-28010126D01*
X62291511Y-28057288D01*
X62334137Y-28030858D01*
X62469755Y-27842121D01*
X62522823Y-27615852D01*
X62485262Y-27386498D01*
X62362791Y-27188976D01*
X61988674Y-26585603D01*
X61787585Y-26538441D01*
X61347216Y-26811488D01*
X61064827Y-26811488D01*
X60955855Y-26635739D01*
X61023846Y-26593582D01*
X60280640Y-25394944D01*
X60079551Y-25347782D01*
X60036925Y-25374212D01*
X59901307Y-25562949D01*
X59848239Y-25789218D01*
X59873777Y-25945159D01*
X59821038Y-25942816D01*
X59734293Y-25974995D01*
X59054383Y-26396567D01*
X59053460Y-26397412D01*
X59039869Y-26383797D01*
X58864027Y-26310781D01*
X58673628Y-26310614D01*
X58497659Y-26383323D01*
X58362910Y-26517838D01*
X58289894Y-26693680D01*
X58289727Y-26884079D01*
X55941948Y-26884079D01*
X54965603Y-25310630D01*
X60416622Y-25310630D01*
X61159828Y-26509268D01*
X61600196Y-26236221D01*
X61647359Y-26035132D01*
X61273243Y-25431759D01*
X61150771Y-25234237D01*
X60962034Y-25098619D01*
X60735765Y-25045550D01*
X60506411Y-25083111D01*
X60463785Y-25109541D01*
X60416622Y-25310630D01*
X54965603Y-25310630D01*
X52678152Y-21624243D01*
X55028409Y-21624243D01*
X55101118Y-21800212D01*
X55235633Y-21934961D01*
X55411475Y-22007977D01*
X55470747Y-22008029D01*
X56373135Y-23463396D01*
X56431323Y-23526993D01*
X56514874Y-23566735D01*
X56607304Y-23570841D01*
X56694049Y-23538662D01*
X56920902Y-23398004D01*
X56929819Y-23412385D01*
X56988007Y-23475982D01*
X57071558Y-23515724D01*
X57163988Y-23519830D01*
X57250733Y-23487651D01*
X57930643Y-23066079D01*
X57994240Y-23007890D01*
X58019606Y-22954565D01*
X58147710Y-23046615D01*
X58373979Y-23099684D01*
X58603333Y-23062123D01*
X58645959Y-23035693D01*
X58693122Y-22834604D01*
X57949916Y-21635966D01*
X57881926Y-21678123D01*
X57694537Y-21375903D01*
X57762528Y-21333746D01*
X57019322Y-20135108D01*
X56818233Y-20087946D01*
X56775607Y-20114376D01*
X56639989Y-20303113D01*
X56586921Y-20529382D01*
X56612459Y-20685323D01*
X56559720Y-20682980D01*
X56472975Y-20715159D01*
X55793065Y-21136731D01*
X55792142Y-21137576D01*
X55778551Y-21123961D01*
X55602709Y-21050945D01*
X55412310Y-21050778D01*
X55236341Y-21123487D01*
X55101592Y-21258002D01*
X55028576Y-21433844D01*
X55028409Y-21624243D01*
X52678152Y-21624243D01*
X51701807Y-20050794D01*
X57155304Y-20050794D01*
X57898510Y-21249432D01*
X57960780Y-21210821D01*
X57981622Y-21231663D01*
X58153889Y-21509495D01*
X58085898Y-21551652D01*
X58829104Y-22750290D01*
X59030193Y-22797452D01*
X59072819Y-22771022D01*
X59208437Y-22582285D01*
X59261505Y-22356016D01*
X59223944Y-22126662D01*
X59101473Y-21929140D01*
X58760334Y-21378954D01*
X58777027Y-21377052D01*
X59067278Y-21216151D01*
X59172579Y-21109739D01*
X59112396Y-20944695D01*
X58586207Y-20729968D01*
X58495602Y-20951996D01*
X58463003Y-20899420D01*
X58393874Y-20942283D01*
X58503561Y-20832596D01*
X58340751Y-20669786D01*
X58354739Y-20635510D01*
X58280612Y-20605260D01*
X58214417Y-20498500D01*
X58680665Y-20498500D01*
X59206854Y-20713226D01*
X59365327Y-20637412D01*
X59327749Y-20307680D01*
X59166848Y-20017429D01*
X59060436Y-19912128D01*
X58895392Y-19972311D01*
X58680665Y-20498500D01*
X58214417Y-20498500D01*
X58056481Y-20243783D01*
X58449197Y-20404042D01*
X58663923Y-19877853D01*
X58588109Y-19719380D01*
X58258377Y-19756958D01*
X57968126Y-19917859D01*
X57898206Y-19988517D01*
X57889453Y-19974401D01*
X57700716Y-19838783D01*
X57474447Y-19785714D01*
X57245093Y-19823275D01*
X57202467Y-19849705D01*
X57155304Y-20050794D01*
X51701807Y-20050794D01*
X51608600Y-19900585D01*
X51608600Y-18998600D01*
X60104602Y-18998600D01*
X65915410Y-29653392D01*
G36*
X50266772Y-48158407D02*
X50232972Y-48192207D01*
X50266772Y-48226007D01*
X50122772Y-48370007D01*
X49918908Y-48370007D01*
X49774908Y-48226007D01*
X49808708Y-48192207D01*
X49774908Y-48158407D01*
X49918908Y-48014407D01*
X50122772Y-48014407D01*
X50266772Y-48158407D01*
X50266772Y-48158407D01*
G37*
X50266772Y-48158407D02*
X50232972Y-48192207D01*
X50266772Y-48226007D01*
X50122772Y-48370007D01*
X49918908Y-48370007D01*
X49774908Y-48226007D01*
X49808708Y-48192207D01*
X49774908Y-48158407D01*
X49918908Y-48014407D01*
X50122772Y-48014407D01*
X50266772Y-48158407D01*
G36*
X82988822Y-48158407D02*
X82955022Y-48192207D01*
X82988822Y-48226007D01*
X82844822Y-48370007D01*
X82640958Y-48370007D01*
X82496958Y-48226007D01*
X82530758Y-48192207D01*
X82496958Y-48158407D01*
X82640958Y-48014407D01*
X82844822Y-48014407D01*
X82988822Y-48158407D01*
X82988822Y-48158407D01*
G37*
X82988822Y-48158407D02*
X82955022Y-48192207D01*
X82988822Y-48226007D01*
X82844822Y-48370007D01*
X82640958Y-48370007D01*
X82496958Y-48226007D01*
X82530758Y-48192207D01*
X82496958Y-48158407D01*
X82640958Y-48014407D01*
X82844822Y-48014407D01*
X82988822Y-48158407D01*
M02*
