G04 #@! TF.FileFunction,Copper,L2,Bot,Signal*
%FSLAX46Y46*%
G04 Gerber Fmt 4.6, Leading zero omitted, Abs format (unit mm)*
G04 Created by KiCad (PCBNEW 4.0.0-rc2-stable) date 3/3/2016 3:46:44 PM*
%MOMM*%
G01*
G04 APERTURE LIST*
%ADD10C,0.150000*%
%ADD11C,0.500000*%
%ADD12R,4.000000X1.000000*%
%ADD13C,0.600000*%
%ADD14R,0.760000X2.000000*%
%ADD15R,0.740000X2.000000*%
%ADD16R,0.900000X0.600000*%
%ADD17R,0.900000X0.200000*%
%ADD18R,3.800000X0.200000*%
%ADD19R,6.500000X0.200000*%
%ADD20R,0.200000X0.400000*%
%ADD21R,0.200000X0.800000*%
%ADD22R,2.000000X0.200000*%
%ADD23C,0.254000*%
G04 APERTURE END LIST*
D10*
D11*
X56276098Y-24115281D03*
X56276098Y-30315395D03*
X56276098Y-36515510D03*
X56276098Y-42715625D03*
X56276098Y-48915740D03*
X60834685Y-37632950D03*
X67037994Y-37565191D03*
X71015632Y-34129992D03*
X71326326Y-28443960D03*
X68274171Y-24230072D03*
X62021750Y-23861350D03*
D12*
X79618640Y-50192200D03*
X79618640Y-48192200D03*
X79618640Y-46192200D03*
D13*
X78618640Y-50192200D03*
X78618640Y-48192200D03*
X78618640Y-46192200D03*
D12*
X49020840Y-46192200D03*
X49020840Y-48192200D03*
X49020840Y-50192200D03*
D13*
X50020840Y-46192200D03*
X50020840Y-48192200D03*
X50020840Y-50192200D03*
D10*
G36*
X52195150Y-34186239D02*
X54956665Y-33014046D01*
X55972566Y-35407359D01*
X53211051Y-36579552D01*
X52195150Y-34186239D01*
X52195150Y-34186239D01*
G37*
G36*
X71698590Y-25364345D02*
X74460105Y-24192152D01*
X75866736Y-27505969D01*
X73105221Y-28678162D01*
X71698590Y-25364345D01*
X71698590Y-25364345D01*
G37*
D11*
X75531623Y-25692768D03*
D14*
X61279578Y-49652025D03*
X62549578Y-49652025D03*
X63819578Y-49652025D03*
X65089578Y-49652025D03*
X61279578Y-46452025D03*
X62549578Y-46452025D03*
X63819578Y-46452025D03*
D15*
X65089578Y-46452025D03*
D16*
X60084578Y-45752025D03*
X60084578Y-47252025D03*
X58834578Y-47252025D03*
X58834578Y-45752025D03*
X57584578Y-45752025D03*
X57584578Y-47252025D03*
D17*
X60734578Y-47202025D03*
D18*
X60734578Y-47852025D03*
D19*
X60734578Y-48302025D03*
D20*
X58934578Y-47652025D03*
X62534578Y-47652025D03*
D21*
X63884578Y-47852025D03*
X57584578Y-47852025D03*
D22*
X58884578Y-45752025D03*
D23*
X73780000Y-26440000D02*
X75530000Y-25690000D01*
X73780000Y-26440000D02*
X75530000Y-25690000D01*
X73780000Y-26440000D02*
X75530000Y-25690000D01*
X73780000Y-26440000D02*
X75530000Y-25690000D01*
X73780000Y-26440000D02*
X75530000Y-25690000D01*
X73780000Y-26440000D02*
X75530000Y-25690000D01*
X73780000Y-26440000D02*
X75530000Y-25690000D01*
X73780000Y-26440000D02*
X75530000Y-25690000D01*
X73780000Y-26440000D02*
X75530000Y-25690000D01*
X54080000Y-34800000D02*
X58880000Y-45750000D01*
X54080000Y-34800000D02*
X58880000Y-45750000D01*
X54080000Y-34800000D02*
X58880000Y-45750000D01*
X54080000Y-34800000D02*
X58880000Y-45750000D01*
X54080000Y-34800000D02*
X58880000Y-45750000D01*
X54080000Y-34800000D02*
X58880000Y-45750000D01*
X54080000Y-34800000D02*
X58880000Y-45750000D01*
X54080000Y-34800000D02*
X58880000Y-45750000D01*
X54080000Y-34800000D02*
X58880000Y-45750000D01*
M02*
