G04 #@! TF.FileFunction,Soldermask,Bot*
%FSLAX46Y46*%
G04 Gerber Fmt 4.6, Leading zero omitted, Abs format (unit mm)*
G04 Created by KiCad (PCBNEW 4.0.0-rc2-stable) date 3/3/2016 3:45:09 PM*
%MOMM*%
G01*
G04 APERTURE LIST*
%ADD10C,0.150000*%
%ADD11R,4.000000X1.000000*%
%ADD12C,0.600000*%
%ADD13C,0.500000*%
G04 APERTURE END LIST*
D10*
D11*
X78367330Y-50192207D03*
X78367330Y-48192207D03*
X78367330Y-46192207D03*
D12*
X77367330Y-50192207D03*
X77367330Y-48192207D03*
X77367330Y-46192207D03*
D11*
X49020836Y-46192207D03*
X49020836Y-48192207D03*
X49020836Y-50192207D03*
D12*
X50020836Y-46192207D03*
X50020836Y-48192207D03*
X50020836Y-50192207D03*
D10*
G36*
X75510003Y-29459309D02*
X72836983Y-30821281D01*
X71656607Y-28504665D01*
X74329627Y-27142693D01*
X75510003Y-29459309D01*
X75510003Y-29459309D01*
G37*
G36*
X56669460Y-39620213D02*
X53996441Y-40982185D01*
X52362074Y-37774561D01*
X55035093Y-36412589D01*
X56669460Y-39620213D01*
X56669460Y-39620213D01*
G37*
D13*
X52822855Y-39559970D03*
D10*
G36*
X69278071Y-50710860D02*
X69195046Y-48712584D01*
X69954391Y-48681034D01*
X70037416Y-50679310D01*
X69278071Y-50710860D01*
X69278071Y-50710860D01*
G37*
G36*
X70546977Y-50658140D02*
X70463952Y-48659864D01*
X71223297Y-48628314D01*
X71306322Y-50626590D01*
X70546977Y-50658140D01*
X70546977Y-50658140D01*
G37*
G36*
X71815882Y-50605420D02*
X71732857Y-48607144D01*
X72492202Y-48575594D01*
X72575227Y-50573870D01*
X71815882Y-50605420D01*
X71815882Y-50605420D01*
G37*
G36*
X73084787Y-50552699D02*
X73001762Y-48554423D01*
X73761107Y-48522873D01*
X73844132Y-50521149D01*
X73084787Y-50552699D01*
X73084787Y-50552699D01*
G37*
G36*
X69145233Y-47513619D02*
X69062208Y-45515343D01*
X69821553Y-45483793D01*
X69904578Y-47482069D01*
X69145233Y-47513619D01*
X69145233Y-47513619D01*
G37*
G36*
X70414138Y-47460898D02*
X70331113Y-45462622D01*
X71090458Y-45431072D01*
X71173483Y-47429348D01*
X70414138Y-47460898D01*
X70414138Y-47460898D01*
G37*
G36*
X71683043Y-47408178D02*
X71600018Y-45409902D01*
X72359363Y-45378352D01*
X72442388Y-47376628D01*
X71683043Y-47408178D01*
X71683043Y-47408178D01*
G37*
G36*
X72961940Y-47355042D02*
X72878916Y-45356766D01*
X73618278Y-45326048D01*
X73701302Y-47324324D01*
X72961940Y-47355042D01*
X72961940Y-47355042D01*
G37*
G36*
X67823206Y-46167338D02*
X67798298Y-45567855D01*
X68697522Y-45530494D01*
X68722430Y-46129977D01*
X67823206Y-46167338D01*
X67823206Y-46167338D01*
G37*
G36*
X67885475Y-47666045D02*
X67860567Y-47066562D01*
X68759791Y-47029201D01*
X68784699Y-47628684D01*
X67885475Y-47666045D01*
X67885475Y-47666045D01*
G37*
G36*
X66636552Y-47717935D02*
X66611644Y-47118452D01*
X67510868Y-47081091D01*
X67535776Y-47680574D01*
X66636552Y-47717935D01*
X66636552Y-47717935D01*
G37*
G36*
X66574284Y-46219228D02*
X66549376Y-45619745D01*
X67448600Y-45582384D01*
X67473508Y-46181867D01*
X66574284Y-46219228D01*
X66574284Y-46219228D01*
G37*
G36*
X65325361Y-46271118D02*
X65300453Y-45671635D01*
X66199677Y-45634274D01*
X66224585Y-46233757D01*
X65325361Y-46271118D01*
X65325361Y-46271118D01*
G37*
G36*
X65387630Y-47769825D02*
X65362722Y-47170342D01*
X66261946Y-47132981D01*
X66286854Y-47732464D01*
X65387630Y-47769825D01*
X65387630Y-47769825D01*
G37*
G36*
X68524536Y-47389277D02*
X68516234Y-47189450D01*
X69415458Y-47152089D01*
X69423760Y-47351916D01*
X68524536Y-47389277D01*
X68524536Y-47389277D01*
G37*
M02*
