G04 #@! TF.FileFunction,Profile,NP*
%FSLAX46Y46*%
G04 Gerber Fmt 4.6, Leading zero omitted, Abs format (unit mm)*
G04 Created by KiCad (PCBNEW 4.0.0-rc2-stable) date 3/3/2016 3:47:02 PM*
%MOMM*%
G01*
G04 APERTURE LIST*
%ADD10C,0.150000*%
%ADD11C,0.100000*%
G04 APERTURE END LIST*
D10*
D11*
X68110000Y-51680000D02*
X65350000Y-51500000D01*
X65350000Y-51500000D02*
X63770000Y-51150000D01*
X63770000Y-51150000D02*
X46630000Y-51150000D01*
X46630000Y-51150000D02*
X46630000Y-45150000D01*
X46630000Y-45150000D02*
X54440000Y-45150000D01*
X54440000Y-45150000D02*
X53840000Y-44360000D01*
X53840000Y-44360000D02*
X52490000Y-41660000D01*
X52490000Y-41660000D02*
X51620000Y-38530000D01*
X51620000Y-38530000D02*
X51330000Y-34990000D01*
X51330000Y-34990000D02*
X51420000Y-32940000D01*
X51420000Y-32940000D02*
X51690000Y-31040000D01*
X51690000Y-31040000D02*
X52140000Y-29260000D01*
X52140000Y-29260000D02*
X52770000Y-27620000D01*
X52770000Y-27620000D02*
X54430000Y-24730000D01*
X54430000Y-24730000D02*
X56550000Y-22360000D01*
X56550000Y-22360000D02*
X59050000Y-20520000D01*
X59050000Y-20520000D02*
X61870000Y-19210000D01*
X61870000Y-19210000D02*
X64890000Y-18430000D01*
X64890000Y-18430000D02*
X67960000Y-18170000D01*
X67960000Y-18170000D02*
X71040000Y-18430000D01*
X71040000Y-18430000D02*
X74060000Y-19210000D01*
X74060000Y-19210000D02*
X76880000Y-20520000D01*
X76880000Y-20520000D02*
X79390000Y-22360000D01*
X79390000Y-22360000D02*
X81500000Y-24730000D01*
X81500000Y-24730000D02*
X83160000Y-27620000D01*
X83160000Y-27620000D02*
X83790000Y-29260000D01*
X83790000Y-29260000D02*
X84240000Y-31040000D01*
X84240000Y-31040000D02*
X84510000Y-32940000D01*
X84510000Y-32940000D02*
X84600000Y-34990000D01*
X84600000Y-34990000D02*
X84430000Y-37770000D01*
X84430000Y-37770000D02*
X83900000Y-40270000D01*
X83900000Y-40270000D02*
X83080000Y-42530000D01*
X83080000Y-42530000D02*
X82010000Y-44580000D01*
X82010000Y-44580000D02*
X82360000Y-45150000D01*
X82360000Y-45150000D02*
X90040000Y-45150000D01*
X90040000Y-45150000D02*
X90040000Y-51150000D01*
X90040000Y-51150000D02*
X85340000Y-51150000D01*
X85340000Y-51150000D02*
X85340000Y-51160000D01*
X85340000Y-51160000D02*
X76910000Y-51160000D01*
X76910000Y-51160000D02*
X76120000Y-49670000D01*
X76120000Y-49670000D02*
X73580000Y-50760000D01*
X73580000Y-50760000D02*
X70880000Y-51430000D01*
X70880000Y-51430000D02*
X68110000Y-51680000D01*
X68110000Y-51680000D02*
X68110000Y-51680000D01*
X68110000Y-51680000D02*
X68110000Y-51680000D01*
X69980000Y-43590000D02*
X71860000Y-42840000D01*
X71860000Y-42840000D02*
X73510000Y-41610000D01*
X73510000Y-41610000D02*
X74870000Y-39900000D01*
X74870000Y-39900000D02*
X75400000Y-38860000D01*
X75400000Y-38860000D02*
X75770000Y-37700000D01*
X75770000Y-37700000D02*
X76070000Y-34990000D01*
X76070000Y-34990000D02*
X75770000Y-32310000D01*
X75770000Y-32310000D02*
X75400000Y-31150000D01*
X75400000Y-31150000D02*
X74870000Y-30120000D01*
X74870000Y-30120000D02*
X73510000Y-28420000D01*
X73510000Y-28420000D02*
X71860000Y-27200000D01*
X71860000Y-27200000D02*
X69980000Y-26470000D01*
X69980000Y-26470000D02*
X67970000Y-26230000D01*
X67970000Y-26230000D02*
X65950000Y-26470000D01*
X65950000Y-26470000D02*
X64070000Y-27200000D01*
X64070000Y-27200000D02*
X62420000Y-28420000D01*
X62420000Y-28420000D02*
X61060000Y-30120000D01*
X61060000Y-30120000D02*
X60530000Y-31150000D01*
X60530000Y-31150000D02*
X60160000Y-32310000D01*
X60160000Y-32310000D02*
X59860000Y-34990000D01*
X59860000Y-34990000D02*
X60160000Y-37700000D01*
X60160000Y-37700000D02*
X60530000Y-38870000D01*
X60530000Y-38870000D02*
X61060000Y-39920000D01*
X61060000Y-39920000D02*
X62420000Y-41640000D01*
X62420000Y-41640000D02*
X64070000Y-42860000D01*
X64070000Y-42860000D02*
X65950000Y-43590000D01*
X65950000Y-43590000D02*
X67970000Y-43840000D01*
X67970000Y-43840000D02*
X69980000Y-43590000D01*
X69980000Y-43590000D02*
X69980000Y-43590000D01*
X69980000Y-43590000D02*
X69980000Y-43590000D01*
M02*
