G04 #@! TF.FileFunction,Copper,L2,Bot,Signal*
%FSLAX46Y46*%
G04 Gerber Fmt 4.6, Leading zero omitted, Abs format (unit mm)*
G04 Created by KiCad (PCBNEW 4.0.0-rc2-stable) date 3/3/2016 3:45:24 PM*
%MOMM*%
G01*
G04 APERTURE LIST*
%ADD10C,0.150000*%
%ADD11C,0.500000*%
%ADD12R,4.000000X1.000000*%
%ADD13C,0.600000*%
%ADD14C,0.254000*%
%ADD15C,0.152400*%
G04 APERTURE END LIST*
D10*
D11*
X74957340Y-22256295D03*
X72138580Y-27462114D03*
X68683679Y-34208209D03*
X61841817Y-36172622D03*
X69768352Y-38657328D03*
X73140952Y-44031082D03*
X56516643Y-21277876D03*
X56516643Y-27642567D03*
X56516643Y-34007254D03*
X56516643Y-40371947D03*
X56516643Y-46736636D03*
D12*
X82907290Y-50192207D03*
X82907290Y-48192207D03*
X82907290Y-46192207D03*
D13*
X81907290Y-50192207D03*
X81907290Y-48192207D03*
X81907290Y-46192207D03*
D12*
X49020840Y-46192207D03*
X49020840Y-48192207D03*
X49020840Y-50192207D03*
D13*
X50020840Y-46192207D03*
X50020840Y-48192207D03*
X50020840Y-50192207D03*
D10*
G36*
X68671608Y-43024696D02*
X66659718Y-40799319D01*
X68588378Y-39055682D01*
X70600268Y-41281059D01*
X68671608Y-43024696D01*
X68671608Y-43024696D01*
G37*
G36*
X53949235Y-27485658D02*
X51937345Y-25260281D01*
X54607797Y-22846014D01*
X56619687Y-25071391D01*
X53949235Y-27485658D01*
X53949235Y-27485658D01*
G37*
D11*
X53004319Y-23756430D03*
D10*
G36*
X73674782Y-50822597D02*
X73670850Y-48822601D01*
X74430848Y-48821107D01*
X74434780Y-50821103D01*
X73674782Y-50822597D01*
X73674782Y-50822597D01*
G37*
G36*
X74944780Y-50820100D02*
X74940848Y-48820104D01*
X75700846Y-48818610D01*
X75704778Y-50818606D01*
X74944780Y-50820100D01*
X74944780Y-50820100D01*
G37*
G36*
X76214777Y-50817604D02*
X76210845Y-48817608D01*
X76970843Y-48816114D01*
X76974775Y-50816110D01*
X76214777Y-50817604D01*
X76214777Y-50817604D01*
G37*
G36*
X77484775Y-50815107D02*
X77480843Y-48815111D01*
X78240841Y-48813617D01*
X78244773Y-50813613D01*
X77484775Y-50815107D01*
X77484775Y-50815107D01*
G37*
G36*
X73668491Y-47622603D02*
X73664559Y-45622607D01*
X74424557Y-45621113D01*
X74428489Y-47621109D01*
X73668491Y-47622603D01*
X73668491Y-47622603D01*
G37*
G36*
X74938489Y-47620106D02*
X74934557Y-45620110D01*
X75694555Y-45618616D01*
X75698487Y-47618612D01*
X74938489Y-47620106D01*
X74938489Y-47620106D01*
G37*
G36*
X76208486Y-47617610D02*
X76204554Y-45617614D01*
X76964552Y-45616120D01*
X76968484Y-47616116D01*
X76208486Y-47617610D01*
X76208486Y-47617610D01*
G37*
G36*
X77488484Y-47615093D02*
X77484552Y-45615097D01*
X78224550Y-45613643D01*
X78228482Y-47613639D01*
X77488484Y-47615093D01*
X77488484Y-47615093D01*
G37*
G36*
X72400741Y-46225093D02*
X72399561Y-45625094D01*
X73299559Y-45623325D01*
X73300739Y-46223324D01*
X72400741Y-46225093D01*
X72400741Y-46225093D01*
G37*
G36*
X72403690Y-47725090D02*
X72402510Y-47125091D01*
X73302508Y-47123322D01*
X73303688Y-47723321D01*
X72403690Y-47725090D01*
X72403690Y-47725090D01*
G37*
G36*
X71153693Y-47727547D02*
X71152513Y-47127548D01*
X72052511Y-47125779D01*
X72053691Y-47725778D01*
X71153693Y-47727547D01*
X71153693Y-47727547D01*
G37*
G36*
X71150744Y-46227550D02*
X71149564Y-45627551D01*
X72049562Y-45625782D01*
X72050742Y-46225781D01*
X71150744Y-46227550D01*
X71150744Y-46227550D01*
G37*
G36*
X69900746Y-46230007D02*
X69899566Y-45630008D01*
X70799564Y-45628239D01*
X70800744Y-46228238D01*
X69900746Y-46230007D01*
X69900746Y-46230007D01*
G37*
G36*
X69903695Y-47730004D02*
X69902515Y-47130005D01*
X70802513Y-47128236D01*
X70803693Y-47728235D01*
X69903695Y-47730004D01*
X69903695Y-47730004D01*
G37*
G36*
X73053197Y-47473812D02*
X73052804Y-47273813D01*
X73952803Y-47272044D01*
X73953196Y-47472043D01*
X73053197Y-47473812D01*
X73053197Y-47473812D01*
G37*
G36*
X71604478Y-48126662D02*
X71604085Y-47926662D01*
X75404078Y-47919192D01*
X75404471Y-48119192D01*
X71604478Y-48126662D01*
X71604478Y-48126662D01*
G37*
G36*
X70255365Y-48579315D02*
X70254972Y-48379315D01*
X76754959Y-48366537D01*
X76755352Y-48566537D01*
X70255365Y-48579315D01*
X70255365Y-48579315D01*
G37*
G36*
X71604281Y-48026662D02*
X71603495Y-47626663D01*
X71803495Y-47626270D01*
X71804281Y-48026269D01*
X71604281Y-48026662D01*
X71604281Y-48026662D01*
G37*
G36*
X75204274Y-48019585D02*
X75203488Y-47619586D01*
X75403488Y-47619193D01*
X75404274Y-48019192D01*
X75204274Y-48019585D01*
X75204274Y-48019585D01*
G37*
G36*
X76555058Y-48416930D02*
X76553485Y-47616931D01*
X76753484Y-47616538D01*
X76755057Y-48416537D01*
X76555058Y-48416930D01*
X76555058Y-48416930D01*
G37*
G36*
X70255071Y-48429315D02*
X70253498Y-47629316D01*
X70453497Y-47628923D01*
X70455070Y-48428922D01*
X70255071Y-48429315D01*
X70255071Y-48429315D01*
G37*
G36*
X70650352Y-46028534D02*
X70649958Y-45828534D01*
X72649954Y-45824602D01*
X72650348Y-46024602D01*
X70650352Y-46028534D01*
X70650352Y-46028534D01*
G37*
D14*
X54280000Y-25170000D02*
X53000000Y-23760000D01*
X54280000Y-25170000D02*
X53000000Y-23760000D01*
X54280000Y-25170000D02*
X53000000Y-23760000D01*
X54280000Y-25170000D02*
X53000000Y-23760000D01*
X54280000Y-25170000D02*
X53000000Y-23760000D01*
X54280000Y-25170000D02*
X53000000Y-23760000D01*
X54280000Y-25170000D02*
X53000000Y-23760000D01*
X54280000Y-25170000D02*
X53000000Y-23760000D01*
X54280000Y-25170000D02*
X53000000Y-23760000D01*
X68630000Y-41040000D02*
X71650000Y-45930000D01*
X68630000Y-41040000D02*
X71650000Y-45930000D01*
X68630000Y-41040000D02*
X71650000Y-45930000D01*
X68630000Y-41040000D02*
X71650000Y-45930000D01*
X68630000Y-41040000D02*
X71650000Y-45930000D01*
X68630000Y-41040000D02*
X71650000Y-45930000D01*
X68630000Y-41040000D02*
X71650000Y-45930000D01*
X68630000Y-41040000D02*
X71650000Y-45930000D01*
X68630000Y-41040000D02*
X71650000Y-45930000D01*
D15*
G36*
X78901400Y-19097322D02*
X78901400Y-24249247D01*
X77772043Y-24281514D01*
X77741230Y-24288563D01*
X77709675Y-24290422D01*
X76559675Y-24590422D01*
X76555898Y-24592254D01*
X76551713Y-24592625D01*
X76507116Y-24615910D01*
X76461865Y-24637854D01*
X76459075Y-24640993D01*
X76455352Y-24642937D01*
X75585352Y-25342938D01*
X75579319Y-25350146D01*
X75571293Y-25355042D01*
X75544622Y-25391598D01*
X75515580Y-25426295D01*
X75512764Y-25435264D01*
X75507223Y-25442859D01*
X74937223Y-26672860D01*
X74932263Y-26693339D01*
X74922533Y-26712030D01*
X74135960Y-29410274D01*
X73246716Y-31692667D01*
X72215630Y-33597721D01*
X70989277Y-35190002D01*
X70986584Y-35195438D01*
X70982189Y-35199624D01*
X70962541Y-35243974D01*
X70941023Y-35287410D01*
X70940615Y-35293462D01*
X70938157Y-35299011D01*
X70936977Y-35347486D01*
X70933718Y-35395868D01*
X70935659Y-35401619D01*
X70935511Y-35407683D01*
X70952966Y-35452908D01*
X70968475Y-35498866D01*
X70972469Y-35503436D01*
X70974653Y-35509096D01*
X75624653Y-42849096D01*
X75625443Y-42849925D01*
X75625865Y-42850993D01*
X77205865Y-45300993D01*
X77226510Y-45322321D01*
X77243000Y-45347000D01*
X77263947Y-45360997D01*
X77281470Y-45379099D01*
X77308703Y-45390902D01*
X77333384Y-45407393D01*
X77358096Y-45412308D01*
X77369690Y-45417333D01*
X77321705Y-45448345D01*
X77269659Y-45524839D01*
X77251474Y-45615555D01*
X77255406Y-47615551D01*
X77271513Y-47700233D01*
X77321732Y-47777939D01*
X77398226Y-47829986D01*
X77488942Y-47848171D01*
X78228940Y-47846717D01*
X78313623Y-47830610D01*
X78391329Y-47780391D01*
X78443375Y-47703897D01*
X78461560Y-47613181D01*
X78457628Y-45613185D01*
X78441521Y-45528503D01*
X78391302Y-45450797D01*
X78358679Y-45428600D01*
X80384146Y-45428600D01*
X80323090Y-45576002D01*
X80323090Y-45868357D01*
X80469140Y-46014407D01*
X81039370Y-46014407D01*
X81007878Y-46130540D01*
X81038672Y-46370007D01*
X80469140Y-46370007D01*
X80323090Y-46516057D01*
X80323090Y-46808412D01*
X80412029Y-47023130D01*
X80576368Y-47187468D01*
X80791086Y-47276407D01*
X82583440Y-47276407D01*
X82729490Y-47130357D01*
X82729490Y-46538605D01*
X82806702Y-46253874D01*
X82773336Y-45994407D01*
X83085090Y-45994407D01*
X83085090Y-46014407D01*
X83105090Y-46014407D01*
X83105090Y-46370007D01*
X83085090Y-46370007D01*
X83085090Y-47130357D01*
X83231140Y-47276407D01*
X84941400Y-47276407D01*
X84941400Y-47466036D01*
X84907290Y-47459129D01*
X80907290Y-47459129D01*
X80822576Y-47475069D01*
X80744772Y-47525135D01*
X80692575Y-47601527D01*
X80674212Y-47692207D01*
X80674212Y-48692207D01*
X80690152Y-48776921D01*
X80740218Y-48854725D01*
X80816610Y-48906922D01*
X80907290Y-48925285D01*
X84907290Y-48925285D01*
X84941400Y-48918867D01*
X84941400Y-49108007D01*
X83231140Y-49108007D01*
X83085090Y-49254057D01*
X83085090Y-50014407D01*
X83105090Y-50014407D01*
X83105090Y-50370007D01*
X83085090Y-50370007D01*
X83085090Y-50390007D01*
X82769786Y-50390007D01*
X82806702Y-50253874D01*
X82761837Y-49904990D01*
X82729490Y-49826897D01*
X82729490Y-49254057D01*
X82583440Y-49108007D01*
X80791086Y-49108007D01*
X80576368Y-49196946D01*
X80412029Y-49361284D01*
X80323090Y-49576002D01*
X80323090Y-49868357D01*
X80469140Y-50014407D01*
X81039370Y-50014407D01*
X81007878Y-50130540D01*
X81038672Y-50370007D01*
X80469140Y-50370007D01*
X80323090Y-50516057D01*
X80323090Y-50808412D01*
X80353323Y-50881400D01*
X78829107Y-50881400D01*
X78828744Y-50696260D01*
X78827643Y-50136316D01*
X78681306Y-49990553D01*
X78040957Y-49991812D01*
X78040996Y-50011812D01*
X77685397Y-50012511D01*
X77685358Y-49992511D01*
X77045009Y-49993770D01*
X76770959Y-49994309D01*
X76770998Y-50014309D01*
X76415399Y-50015008D01*
X76415360Y-49995008D01*
X76141312Y-49995547D01*
X76141311Y-49995546D01*
X75500962Y-49996805D01*
X75501001Y-50016805D01*
X75145402Y-50017504D01*
X75145363Y-49997504D01*
X74505014Y-49998763D01*
X74230964Y-49999302D01*
X74231003Y-50019302D01*
X73875404Y-50020001D01*
X73875365Y-50000001D01*
X73235016Y-50001260D01*
X73089254Y-50147597D01*
X73090354Y-50707541D01*
X73090696Y-50881400D01*
X71093221Y-50881400D01*
X67653027Y-44743781D01*
X67651898Y-44742460D01*
X67651339Y-44740811D01*
X65369518Y-40784376D01*
X66427120Y-40784376D01*
X66439631Y-40876047D01*
X66486823Y-40955628D01*
X68498713Y-43181005D01*
X68567348Y-43233155D01*
X68656665Y-43257294D01*
X68748336Y-43244783D01*
X68827917Y-43197591D01*
X69287787Y-42781838D01*
X70929750Y-45440512D01*
X70889822Y-45413346D01*
X70799106Y-45395161D01*
X69899108Y-45396930D01*
X69814425Y-45413037D01*
X69736719Y-45463256D01*
X69684673Y-45539750D01*
X69666488Y-45630466D01*
X69667668Y-46230465D01*
X69683775Y-46315148D01*
X69733994Y-46392854D01*
X69810488Y-46444900D01*
X69901204Y-46463085D01*
X70801202Y-46461316D01*
X70885885Y-46445209D01*
X70963591Y-46394990D01*
X70975576Y-46377375D01*
X70983992Y-46390397D01*
X71060486Y-46442443D01*
X71151202Y-46460628D01*
X72051200Y-46458859D01*
X72135883Y-46442752D01*
X72213589Y-46392533D01*
X72225574Y-46374919D01*
X72233989Y-46387940D01*
X72310483Y-46439986D01*
X72401199Y-46458171D01*
X73301197Y-46456402D01*
X73385880Y-46440295D01*
X73433028Y-46409825D01*
X73434063Y-46936527D01*
X73392766Y-46908429D01*
X73302050Y-46890244D01*
X72402052Y-46892013D01*
X72317369Y-46908120D01*
X72239663Y-46958339D01*
X72227678Y-46975953D01*
X72219263Y-46962932D01*
X72142769Y-46910886D01*
X72052053Y-46892701D01*
X71152055Y-46894470D01*
X71067372Y-46910577D01*
X70989666Y-46960796D01*
X70977681Y-46978411D01*
X70969265Y-46965389D01*
X70892771Y-46913343D01*
X70802055Y-46895158D01*
X69902057Y-46896927D01*
X69817374Y-46913034D01*
X69739668Y-46963253D01*
X69687622Y-47039747D01*
X69669437Y-47130463D01*
X69670617Y-47730462D01*
X69686724Y-47815145D01*
X69736943Y-47892851D01*
X69813437Y-47944897D01*
X69904153Y-47963082D01*
X70021075Y-47962852D01*
X70021895Y-48379770D01*
X70021894Y-48379773D01*
X70022287Y-48579773D01*
X70038394Y-48664456D01*
X70088613Y-48742162D01*
X70165107Y-48794208D01*
X70255823Y-48812393D01*
X73086618Y-48806828D01*
X73086879Y-48939954D01*
X73087980Y-49499898D01*
X73234317Y-49645661D01*
X73874666Y-49644402D01*
X73874627Y-49624402D01*
X74230226Y-49623703D01*
X74230265Y-49643703D01*
X74870614Y-49642444D01*
X75144664Y-49641905D01*
X75144625Y-49621905D01*
X75500224Y-49621206D01*
X75500263Y-49641206D01*
X75774311Y-49640667D01*
X75774312Y-49640668D01*
X76414661Y-49639409D01*
X76414622Y-49619409D01*
X76770221Y-49618710D01*
X76770260Y-49638710D01*
X77410609Y-49637451D01*
X77684659Y-49636912D01*
X77682181Y-48376564D01*
X77681480Y-48375865D01*
X78037780Y-48375865D01*
X78040258Y-49636213D01*
X78680607Y-49634954D01*
X78826369Y-49488617D01*
X78825269Y-48928673D01*
X78824812Y-48696265D01*
X78735451Y-48481722D01*
X78570790Y-48317706D01*
X78355898Y-48229190D01*
X78183543Y-48229528D01*
X78037780Y-48375865D01*
X77681480Y-48375865D01*
X77535844Y-48230802D01*
X77363490Y-48231141D01*
X77224807Y-48288904D01*
X77085900Y-48231687D01*
X76987773Y-48231879D01*
X76987014Y-47845757D01*
X77053625Y-47833087D01*
X77131331Y-47782868D01*
X77183377Y-47706374D01*
X77201562Y-47615658D01*
X77197630Y-45615662D01*
X77181523Y-45530979D01*
X77131304Y-45453273D01*
X77054810Y-45401227D01*
X76964094Y-45383042D01*
X76204096Y-45384536D01*
X76119413Y-45400643D01*
X76041707Y-45450862D01*
X75989661Y-45527356D01*
X75971476Y-45618072D01*
X75975408Y-47618068D01*
X75991515Y-47702751D01*
X76041734Y-47780457D01*
X76118228Y-47832503D01*
X76208944Y-47850688D01*
X76320865Y-47850468D01*
X76321423Y-48134310D01*
X75634156Y-48135661D01*
X75637549Y-48118734D01*
X75637156Y-47918734D01*
X75637155Y-47918731D01*
X75637024Y-47851812D01*
X75698945Y-47851690D01*
X75783628Y-47835583D01*
X75861334Y-47785364D01*
X75913380Y-47708870D01*
X75931565Y-47618154D01*
X75927633Y-45618158D01*
X75911526Y-45533475D01*
X75861307Y-45455769D01*
X75784813Y-45403723D01*
X75694097Y-45385538D01*
X74934099Y-45387032D01*
X74849416Y-45403139D01*
X74771710Y-45453358D01*
X74719664Y-45529852D01*
X74701479Y-45620568D01*
X74705411Y-47620564D01*
X74718135Y-47687462D01*
X74648147Y-47687599D01*
X74661567Y-47620651D01*
X74657635Y-45620655D01*
X74641528Y-45535972D01*
X74591309Y-45458266D01*
X74514815Y-45406220D01*
X74424099Y-45388035D01*
X73664101Y-45389529D01*
X73579418Y-45405636D01*
X73501712Y-45455855D01*
X73482024Y-45484791D01*
X73466311Y-45460478D01*
X73389817Y-45408432D01*
X73299101Y-45390247D01*
X72399103Y-45392016D01*
X72314420Y-45408123D01*
X72236714Y-45458342D01*
X72224729Y-45475956D01*
X72216314Y-45462935D01*
X72139820Y-45410889D01*
X72049104Y-45392704D01*
X71736502Y-45393318D01*
X70936999Y-44098758D01*
X72293105Y-44098758D01*
X72383542Y-44418064D01*
X72589288Y-44678455D01*
X72711336Y-44765149D01*
X72765293Y-44734812D01*
X73108170Y-44734812D01*
X73208628Y-44878929D01*
X73527934Y-44788492D01*
X73788325Y-44582746D01*
X73875019Y-44460698D01*
X73788923Y-44307567D01*
X73234924Y-44180813D01*
X73108170Y-44734812D01*
X72765293Y-44734812D01*
X72864467Y-44679053D01*
X72991221Y-44125054D01*
X72437222Y-43998300D01*
X72293105Y-44098758D01*
X70936999Y-44098758D01*
X70837168Y-43937110D01*
X73290683Y-43937110D01*
X73844682Y-44063864D01*
X73988799Y-43963406D01*
X73898362Y-43644100D01*
X73692616Y-43383709D01*
X73570568Y-43297015D01*
X73417437Y-43383111D01*
X73290683Y-43937110D01*
X70837168Y-43937110D01*
X70629878Y-43601466D01*
X72406885Y-43601466D01*
X72492981Y-43754597D01*
X73046980Y-43881351D01*
X73173734Y-43327352D01*
X73073276Y-43183235D01*
X72753970Y-43273672D01*
X72493579Y-43479418D01*
X72406885Y-43601466D01*
X70629878Y-43601466D01*
X69824190Y-42296894D01*
X70756577Y-41453954D01*
X70808727Y-41385319D01*
X70832866Y-41296002D01*
X70820355Y-41204331D01*
X70773163Y-41124750D01*
X68761273Y-38899373D01*
X68692638Y-38847223D01*
X68603321Y-38823084D01*
X68511650Y-38835595D01*
X68432069Y-38882787D01*
X66503409Y-40626424D01*
X66451259Y-40695059D01*
X66427120Y-40784376D01*
X65369518Y-40784376D01*
X64181803Y-38725004D01*
X68920505Y-38725004D01*
X69010942Y-39044310D01*
X69216688Y-39304701D01*
X69338736Y-39391395D01*
X69392693Y-39361058D01*
X69735570Y-39361058D01*
X69836028Y-39505175D01*
X70155334Y-39414738D01*
X70415725Y-39208992D01*
X70502419Y-39086944D01*
X70416323Y-38933813D01*
X69862324Y-38807059D01*
X69735570Y-39361058D01*
X69392693Y-39361058D01*
X69491867Y-39305299D01*
X69618621Y-38751300D01*
X69064622Y-38624546D01*
X68920505Y-38725004D01*
X64181803Y-38725004D01*
X64088575Y-38563356D01*
X69918083Y-38563356D01*
X70472082Y-38690110D01*
X70616199Y-38589652D01*
X70525762Y-38270346D01*
X70320016Y-38009955D01*
X70197968Y-37923261D01*
X70044837Y-38009357D01*
X69918083Y-38563356D01*
X64088575Y-38563356D01*
X64081339Y-38550811D01*
X64054020Y-38519630D01*
X64029768Y-38486025D01*
X64018463Y-38479047D01*
X64009703Y-38469049D01*
X63972529Y-38450696D01*
X63937265Y-38428930D01*
X63924148Y-38426809D01*
X63912231Y-38420926D01*
X63870867Y-38418196D01*
X63829953Y-38411581D01*
X61892989Y-38481471D01*
X59766076Y-38511428D01*
X59714817Y-38522376D01*
X59663384Y-38532607D01*
X59661723Y-38533717D01*
X59659770Y-38534134D01*
X59616596Y-38563870D01*
X59573000Y-38593000D01*
X59571890Y-38594661D01*
X59570245Y-38595794D01*
X59541728Y-38639802D01*
X59512607Y-38683384D01*
X59512217Y-38685342D01*
X59511131Y-38687019D01*
X59501630Y-38738570D01*
X59491400Y-38790000D01*
X59491400Y-50881400D01*
X51574807Y-50881400D01*
X51605040Y-50808412D01*
X51605040Y-50516057D01*
X51458990Y-50370007D01*
X50888760Y-50370007D01*
X50920252Y-50253874D01*
X50889458Y-50014407D01*
X51458990Y-50014407D01*
X51605040Y-49868357D01*
X51605040Y-49576002D01*
X51516101Y-49361284D01*
X51351762Y-49196946D01*
X51137044Y-49108007D01*
X49344690Y-49108007D01*
X49198640Y-49254057D01*
X49198640Y-49845809D01*
X49121428Y-50130540D01*
X49154794Y-50390007D01*
X48843040Y-50390007D01*
X48843040Y-50370007D01*
X48823040Y-50370007D01*
X48823040Y-50014407D01*
X48843040Y-50014407D01*
X48843040Y-49254057D01*
X48696990Y-49108007D01*
X46908600Y-49108007D01*
X46908600Y-48892191D01*
X46930160Y-48906922D01*
X47020840Y-48925285D01*
X51020840Y-48925285D01*
X51105554Y-48909345D01*
X51183358Y-48859279D01*
X51235555Y-48782887D01*
X51253918Y-48692207D01*
X51253918Y-47880000D01*
X52033800Y-47880000D01*
X52033800Y-47910000D01*
X52035280Y-47924944D01*
X52045280Y-47974944D01*
X52059994Y-48006965D01*
X52082994Y-48026611D01*
X52172994Y-48076611D01*
X52210000Y-48086200D01*
X52280000Y-48086200D01*
X52307695Y-48080989D01*
X52333132Y-48064621D01*
X52350197Y-48039646D01*
X52356200Y-48010000D01*
X52356200Y-47867201D01*
X52422414Y-47786274D01*
X52568368Y-47683247D01*
X52619328Y-47676877D01*
X52730733Y-47692792D01*
X53101704Y-47959131D01*
X53368229Y-48205913D01*
X53389983Y-48220039D01*
X53669983Y-48340039D01*
X53691097Y-48345678D01*
X53861097Y-48365678D01*
X53870000Y-48366200D01*
X54180000Y-48366200D01*
X54200546Y-48363378D01*
X54450546Y-48293378D01*
X54468765Y-48285603D01*
X54688765Y-48155603D01*
X54705318Y-48142406D01*
X54885318Y-47952406D01*
X54897092Y-47936126D01*
X54967092Y-47806126D01*
X54976200Y-47770000D01*
X54976200Y-47630000D01*
X54974720Y-47615056D01*
X54964720Y-47565056D01*
X54952612Y-47536570D01*
X54930783Y-47515632D01*
X54902527Y-47504837D01*
X54842527Y-47494837D01*
X54830000Y-47493800D01*
X54760000Y-47493800D01*
X54717397Y-47506822D01*
X54696174Y-47528374D01*
X54552751Y-47748289D01*
X54311339Y-47943275D01*
X54155705Y-48003800D01*
X53934466Y-48003800D01*
X53785744Y-47986303D01*
X53305539Y-47688577D01*
X52980301Y-47402761D01*
X52943242Y-47384959D01*
X52773242Y-47354959D01*
X52760000Y-47353800D01*
X52550000Y-47353800D01*
X52524827Y-47358078D01*
X52324827Y-47428078D01*
X52296118Y-47446118D01*
X52076118Y-47666118D01*
X52064023Y-47681876D01*
X52054388Y-47710549D01*
X52034388Y-47870549D01*
X52033800Y-47880000D01*
X51253918Y-47880000D01*
X51253918Y-47692207D01*
X51237978Y-47607493D01*
X51187912Y-47529689D01*
X51111520Y-47477492D01*
X51020840Y-47459129D01*
X47020840Y-47459129D01*
X46936126Y-47475069D01*
X46908600Y-47492782D01*
X46908600Y-47315272D01*
X56114784Y-47315272D01*
X56123262Y-47490742D01*
X56441790Y-47583880D01*
X56771714Y-47548032D01*
X56910024Y-47490742D01*
X56918502Y-47315272D01*
X56516643Y-46913413D01*
X56114784Y-47315272D01*
X46908600Y-47315272D01*
X46908600Y-47276407D01*
X48696990Y-47276407D01*
X48843040Y-47130357D01*
X48843040Y-46370007D01*
X48823040Y-46370007D01*
X48823040Y-46014407D01*
X48843040Y-46014407D01*
X48843040Y-45994407D01*
X49158344Y-45994407D01*
X49121428Y-46130540D01*
X49166293Y-46479424D01*
X49198640Y-46557517D01*
X49198640Y-47130357D01*
X49344690Y-47276407D01*
X51137044Y-47276407D01*
X51351762Y-47187468D01*
X51516101Y-47023130D01*
X51605040Y-46808412D01*
X51605040Y-46516057D01*
X51458990Y-46370007D01*
X50888760Y-46370007D01*
X50896897Y-46340000D01*
X52203800Y-46340000D01*
X52203800Y-46370000D01*
X52214662Y-46409209D01*
X52235064Y-46431540D01*
X52262547Y-46444174D01*
X52432547Y-46484174D01*
X52450000Y-46486200D01*
X52830000Y-46486200D01*
X52838652Y-46485707D01*
X53103800Y-46455404D01*
X53103800Y-46506828D01*
X53094822Y-46614568D01*
X53054826Y-46734556D01*
X53041995Y-46744820D01*
X52807071Y-46753856D01*
X52800144Y-46754440D01*
X52340144Y-46814440D01*
X52322305Y-46819011D01*
X52296868Y-46835379D01*
X52279803Y-46860354D01*
X52273800Y-46890000D01*
X52273800Y-47030000D01*
X52279732Y-47059476D01*
X52296736Y-47084492D01*
X52322132Y-47100921D01*
X52351920Y-47106176D01*
X53541436Y-47076188D01*
X54310528Y-47066200D01*
X54420000Y-47066200D01*
X54434944Y-47064720D01*
X54484944Y-47054720D01*
X54513430Y-47042612D01*
X54534368Y-47020783D01*
X54545163Y-46992527D01*
X54555163Y-46932527D01*
X54556200Y-46920000D01*
X54556200Y-46860000D01*
X54555163Y-46847473D01*
X54545163Y-46787473D01*
X54533980Y-46758612D01*
X54512837Y-46736981D01*
X54484944Y-46725280D01*
X54434944Y-46715280D01*
X54417461Y-46713842D01*
X53817915Y-46733827D01*
X53436551Y-46741941D01*
X53446570Y-46661783D01*
X55669399Y-46661783D01*
X55705247Y-46991707D01*
X55762537Y-47130017D01*
X55938007Y-47138495D01*
X56339866Y-46736636D01*
X56693420Y-46736636D01*
X57095279Y-47138495D01*
X57270749Y-47130017D01*
X57363887Y-46811489D01*
X57328039Y-46481565D01*
X57270749Y-46343255D01*
X57095279Y-46334777D01*
X56693420Y-46736636D01*
X56339866Y-46736636D01*
X55938007Y-46334777D01*
X55762537Y-46343255D01*
X55669399Y-46661783D01*
X53446570Y-46661783D01*
X53455612Y-46589451D01*
X53456200Y-46580000D01*
X53456200Y-46442959D01*
X53843310Y-46426128D01*
X53850565Y-46425464D01*
X54350565Y-46355464D01*
X54376295Y-46347001D01*
X54399502Y-46327602D01*
X54439502Y-46277602D01*
X54450197Y-46259646D01*
X54456200Y-46230000D01*
X54456200Y-46170000D01*
X54455207Y-46158000D01*
X56114784Y-46158000D01*
X56516643Y-46559859D01*
X56918502Y-46158000D01*
X56910024Y-45982530D01*
X56591496Y-45889392D01*
X56261572Y-45925240D01*
X56123262Y-45982530D01*
X56114784Y-46158000D01*
X54455207Y-46158000D01*
X54455163Y-46157473D01*
X54445163Y-46097473D01*
X54430154Y-46063225D01*
X54407217Y-46043507D01*
X54378415Y-46034266D01*
X54288415Y-46024266D01*
X54275041Y-46023962D01*
X52895041Y-46113962D01*
X52889761Y-46114491D01*
X52299761Y-46194491D01*
X52282680Y-46198866D01*
X52257157Y-46215099D01*
X52239961Y-46239983D01*
X52209961Y-46309983D01*
X52203800Y-46340000D01*
X50896897Y-46340000D01*
X50920252Y-46253874D01*
X50889458Y-46014407D01*
X51458990Y-46014407D01*
X51605040Y-45868357D01*
X51605040Y-45641585D01*
X52094266Y-45641585D01*
X52094837Y-45662527D01*
X52104837Y-45722527D01*
X52113104Y-45746489D01*
X52173104Y-45856489D01*
X52203278Y-45886768D01*
X52403278Y-45996768D01*
X52429704Y-46005501D01*
X52649704Y-46035501D01*
X52670071Y-46035532D01*
X52820071Y-46015532D01*
X52837337Y-46011128D01*
X52862855Y-45994888D01*
X53132855Y-45734888D01*
X53147002Y-45716293D01*
X53257187Y-45512875D01*
X53615699Y-45485987D01*
X53644078Y-45478155D01*
X53699880Y-45450254D01*
X53853470Y-45484385D01*
X53870000Y-45486200D01*
X54690000Y-45486200D01*
X54702527Y-45485163D01*
X54762527Y-45475163D01*
X54793430Y-45462612D01*
X54814368Y-45440783D01*
X54825163Y-45412527D01*
X54835163Y-45352527D01*
X54836200Y-45340000D01*
X54836200Y-45240000D01*
X54832453Y-45216400D01*
X54817563Y-45190071D01*
X54793602Y-45171609D01*
X54764347Y-45163924D01*
X54066548Y-45124050D01*
X53808734Y-45094302D01*
X53769983Y-45099961D01*
X53739166Y-45113168D01*
X53734556Y-45108184D01*
X53706996Y-45095720D01*
X53676758Y-45094959D01*
X53513326Y-45123800D01*
X52950000Y-45123800D01*
X52935056Y-45125280D01*
X52885056Y-45135280D01*
X52846868Y-45155379D01*
X52840088Y-45165302D01*
X52826558Y-45149677D01*
X52799421Y-45136316D01*
X52769224Y-45134566D01*
X52489224Y-45174566D01*
X52457732Y-45186598D01*
X52217732Y-45346598D01*
X52192765Y-45374141D01*
X52112765Y-45524141D01*
X52104266Y-45551585D01*
X52099709Y-45592590D01*
X52094266Y-45641585D01*
X51605040Y-45641585D01*
X51605040Y-45576002D01*
X51516101Y-45361284D01*
X51511904Y-45357087D01*
X51527000Y-45347000D01*
X51587393Y-45256616D01*
X51608600Y-45150000D01*
X51608600Y-44842527D01*
X52034837Y-44842527D01*
X52044837Y-44902527D01*
X52059994Y-44936965D01*
X52082994Y-44956611D01*
X52172994Y-45006611D01*
X52208824Y-45016191D01*
X52238559Y-45010646D01*
X52705570Y-44821854D01*
X53373111Y-44615702D01*
X53592684Y-44606155D01*
X54312116Y-44586171D01*
X54319941Y-44585549D01*
X54699941Y-44535549D01*
X54717695Y-44530989D01*
X54743132Y-44514621D01*
X54760197Y-44489646D01*
X54766200Y-44460000D01*
X54766200Y-44350000D01*
X54760039Y-44319983D01*
X54730039Y-44249983D01*
X54709423Y-44222002D01*
X54682964Y-44207343D01*
X54652887Y-44204133D01*
X53694640Y-44293969D01*
X53310047Y-44312283D01*
X53283882Y-44286118D01*
X53253274Y-44267441D01*
X52723274Y-44097441D01*
X52719540Y-44096348D01*
X52229540Y-43966348D01*
X52210000Y-43963800D01*
X52140000Y-43963800D01*
X52112305Y-43969011D01*
X52086868Y-43985379D01*
X52069803Y-44010354D01*
X52063800Y-44040000D01*
X52063800Y-44110000D01*
X52074659Y-44149205D01*
X52104659Y-44199205D01*
X52116404Y-44214166D01*
X52141700Y-44230750D01*
X52541700Y-44390750D01*
X52549606Y-44393420D01*
X52742016Y-44446867D01*
X52544119Y-44518330D01*
X52537961Y-44520863D01*
X52127961Y-44710863D01*
X52106118Y-44726118D01*
X52056118Y-44776118D01*
X52035885Y-44812298D01*
X52034837Y-44842527D01*
X51608600Y-44842527D01*
X51608600Y-43280000D01*
X52303800Y-43280000D01*
X52303800Y-43320000D01*
X52314659Y-43359205D01*
X52344659Y-43409205D01*
X52369555Y-43434580D01*
X52397866Y-43445228D01*
X52707866Y-43495228D01*
X52720000Y-43496200D01*
X53995662Y-43496200D01*
X54273800Y-43527987D01*
X54273800Y-43553695D01*
X54234837Y-43787473D01*
X54235393Y-43815501D01*
X54247302Y-43843306D01*
X54269090Y-43864287D01*
X54379090Y-43934287D01*
X54398937Y-43943231D01*
X54429087Y-43945656D01*
X54457806Y-43936160D01*
X54527806Y-43896160D01*
X54558155Y-43864078D01*
X54658155Y-43664078D01*
X54665734Y-43621585D01*
X54645734Y-43441585D01*
X54639799Y-43419430D01*
X54622406Y-43394682D01*
X54432406Y-43214682D01*
X54417645Y-43203748D01*
X54388903Y-43194322D01*
X54218903Y-43174322D01*
X54215303Y-43173985D01*
X53785303Y-43143985D01*
X53781524Y-43143815D01*
X53281524Y-43133815D01*
X53280000Y-43133800D01*
X52450000Y-43133800D01*
X52425903Y-43137710D01*
X52365903Y-43157710D01*
X52348612Y-43166020D01*
X52326981Y-43187163D01*
X52315280Y-43215056D01*
X52305280Y-43265056D01*
X52303800Y-43280000D01*
X51608600Y-43280000D01*
X51608600Y-42220549D01*
X52064388Y-42220549D01*
X52069250Y-42258300D01*
X52089250Y-42308300D01*
X52114280Y-42340960D01*
X52194280Y-42400960D01*
X52227225Y-42415122D01*
X52257458Y-42414173D01*
X52284940Y-42401537D01*
X52305341Y-42379205D01*
X52506993Y-42043119D01*
X52684229Y-41919053D01*
X53163130Y-41765805D01*
X53451279Y-41756200D01*
X53585889Y-41756200D01*
X53945616Y-41795089D01*
X54287206Y-41889976D01*
X54393114Y-41963296D01*
X54403800Y-41981107D01*
X54403800Y-42132087D01*
X54325026Y-42225184D01*
X53965469Y-42354256D01*
X53688679Y-42363800D01*
X53653228Y-42363800D01*
X53545839Y-42248150D01*
X53519646Y-42229803D01*
X53490000Y-42223800D01*
X53450000Y-42223800D01*
X53421700Y-42229250D01*
X53371700Y-42249250D01*
X53356186Y-42257656D01*
X53335383Y-42279614D01*
X53285383Y-42359614D01*
X53273800Y-42400000D01*
X53273800Y-42660000D01*
X53275492Y-42675968D01*
X53287575Y-42703698D01*
X53357575Y-42803698D01*
X53372210Y-42819351D01*
X53399066Y-42833268D01*
X53469066Y-42853268D01*
X53484073Y-42855969D01*
X53514097Y-42852290D01*
X53718333Y-42784211D01*
X54322327Y-42685196D01*
X54342761Y-42678798D01*
X54552761Y-42578798D01*
X54580708Y-42556054D01*
X54800708Y-42266054D01*
X54815822Y-42227582D01*
X54835822Y-42027582D01*
X54835887Y-42013101D01*
X54825887Y-41903101D01*
X54811345Y-41864798D01*
X54671345Y-41674798D01*
X54643128Y-41651378D01*
X54353128Y-41511378D01*
X54339306Y-41506286D01*
X53919306Y-41396286D01*
X53908118Y-41394234D01*
X53628118Y-41364234D01*
X53620000Y-41363800D01*
X53590000Y-41363800D01*
X53581348Y-41364293D01*
X53231348Y-41404293D01*
X53222165Y-41405917D01*
X52682165Y-41535917D01*
X52664433Y-41542610D01*
X52304433Y-41732610D01*
X52276598Y-41757732D01*
X52096598Y-42027732D01*
X52084388Y-42060549D01*
X52064388Y-42220549D01*
X51608600Y-42220549D01*
X51608600Y-40950583D01*
X56114784Y-40950583D01*
X56123262Y-41126053D01*
X56441790Y-41219191D01*
X56771714Y-41183343D01*
X56910024Y-41126053D01*
X56918502Y-40950583D01*
X56516643Y-40548724D01*
X56114784Y-40950583D01*
X51608600Y-40950583D01*
X51608600Y-40297094D01*
X55669399Y-40297094D01*
X55705247Y-40627018D01*
X55762537Y-40765328D01*
X55938007Y-40773806D01*
X56339866Y-40371947D01*
X56693420Y-40371947D01*
X57095279Y-40773806D01*
X57270749Y-40765328D01*
X57363887Y-40446800D01*
X57328039Y-40116876D01*
X57270749Y-39978566D01*
X57095279Y-39970088D01*
X56693420Y-40371947D01*
X56339866Y-40371947D01*
X55938007Y-39970088D01*
X55762537Y-39978566D01*
X55669399Y-40297094D01*
X51608600Y-40297094D01*
X51608600Y-40010000D01*
X52163800Y-40010000D01*
X52163800Y-40080000D01*
X52169250Y-40108300D01*
X52189250Y-40158300D01*
X52217163Y-40193019D01*
X52245056Y-40204720D01*
X52295056Y-40214720D01*
X52316843Y-40215892D01*
X53536843Y-40105892D01*
X53540483Y-40105476D01*
X54620483Y-39955476D01*
X54627953Y-39954055D01*
X54957953Y-39874055D01*
X54993882Y-39853882D01*
X55023882Y-39823882D01*
X55041622Y-39793311D01*
X56114784Y-39793311D01*
X56516643Y-40195170D01*
X56918502Y-39793311D01*
X56910024Y-39617841D01*
X56591496Y-39524703D01*
X56261572Y-39560551D01*
X56123262Y-39617841D01*
X56114784Y-39793311D01*
X55041622Y-39793311D01*
X55043515Y-39790050D01*
X55073515Y-39680050D01*
X55076200Y-39660000D01*
X55076200Y-39630000D01*
X55068192Y-39595996D01*
X55049590Y-39572145D01*
X54932226Y-39471548D01*
X55015629Y-39441761D01*
X55031388Y-39433980D01*
X55053019Y-39412837D01*
X55064720Y-39384944D01*
X55074720Y-39334944D01*
X55076200Y-39320000D01*
X55076200Y-39250000D01*
X55074720Y-39235056D01*
X55064720Y-39185056D01*
X55052897Y-39156984D01*
X55031206Y-39135902D01*
X54891206Y-39045902D01*
X54866187Y-39035539D01*
X54406187Y-38935539D01*
X54395844Y-38934024D01*
X53875844Y-38894024D01*
X53870000Y-38893800D01*
X52730000Y-38893800D01*
X52721348Y-38894293D01*
X52371348Y-38934293D01*
X52352305Y-38939011D01*
X52326868Y-38955379D01*
X52309803Y-38980354D01*
X52303800Y-39010000D01*
X52303800Y-39110000D01*
X52306795Y-39131155D01*
X52320793Y-39157969D01*
X52344120Y-39177224D01*
X52373101Y-39185887D01*
X52468783Y-39194585D01*
X52515922Y-39218155D01*
X52554227Y-39226083D01*
X53093170Y-39196142D01*
X53451072Y-39186200D01*
X53518223Y-39186200D01*
X53943959Y-39206002D01*
X54264046Y-39242068D01*
X54242601Y-39244160D01*
X54235056Y-39245280D01*
X53785056Y-39335280D01*
X53763705Y-39342999D01*
X53740498Y-39362398D01*
X53700498Y-39412398D01*
X53689803Y-39430354D01*
X53683800Y-39460000D01*
X53683800Y-39490000D01*
X53689250Y-39518300D01*
X53709250Y-39568300D01*
X53725636Y-39593394D01*
X53750692Y-39610338D01*
X53870692Y-39660338D01*
X53900000Y-39666200D01*
X53940000Y-39666200D01*
X53974078Y-39658155D01*
X54012712Y-39638838D01*
X54205403Y-39666764D01*
X53563223Y-39724102D01*
X53560701Y-39724370D01*
X52340701Y-39874370D01*
X52313511Y-39883104D01*
X52203511Y-39943104D01*
X52186868Y-39955379D01*
X52169803Y-39980354D01*
X52163800Y-40010000D01*
X51608600Y-40010000D01*
X51608600Y-37830000D01*
X52303800Y-37830000D01*
X52303800Y-38070000D01*
X52307269Y-38092729D01*
X52357269Y-38252729D01*
X52382055Y-38289226D01*
X52592055Y-38459226D01*
X52630549Y-38475612D01*
X52790549Y-38495612D01*
X52800000Y-38496200D01*
X53350000Y-38496200D01*
X53352720Y-38496151D01*
X53632720Y-38486151D01*
X53638061Y-38485772D01*
X54108061Y-38435772D01*
X54120394Y-38433420D01*
X54480394Y-38333420D01*
X54503515Y-38322553D01*
X54639848Y-38227712D01*
X69034285Y-38227712D01*
X69120381Y-38380843D01*
X69674380Y-38507597D01*
X69801134Y-37953598D01*
X69700676Y-37809481D01*
X69381370Y-37899918D01*
X69120979Y-38105664D01*
X69034285Y-38227712D01*
X54639848Y-38227712D01*
X54733515Y-38162553D01*
X54752425Y-38143698D01*
X54822425Y-38043698D01*
X54830197Y-38029646D01*
X54836200Y-38000000D01*
X54836200Y-37900000D01*
X54835612Y-37890549D01*
X54825612Y-37810549D01*
X54810398Y-37773540D01*
X54710398Y-37643540D01*
X54684078Y-37621845D01*
X54584078Y-37571845D01*
X54552105Y-37563829D01*
X54522305Y-37569011D01*
X54503880Y-37580867D01*
X54496966Y-37553641D01*
X54477544Y-37530452D01*
X54450631Y-37516646D01*
X54130631Y-37426646D01*
X54117735Y-37424194D01*
X53627735Y-37374194D01*
X53616690Y-37373872D01*
X53156690Y-37393872D01*
X53140460Y-37396348D01*
X52650460Y-37526348D01*
X52629090Y-37535713D01*
X52409090Y-37675713D01*
X52389851Y-37693218D01*
X52319851Y-37783218D01*
X52309803Y-37800354D01*
X52303800Y-37830000D01*
X51608600Y-37830000D01*
X51608600Y-36570000D01*
X52303800Y-36570000D01*
X52303800Y-36600000D01*
X52314659Y-36639205D01*
X52344659Y-36689205D01*
X52369555Y-36714580D01*
X52397866Y-36725228D01*
X52707866Y-36775228D01*
X52717280Y-36776151D01*
X52997280Y-36786151D01*
X53000000Y-36786200D01*
X53996735Y-36786200D01*
X54273800Y-36809948D01*
X54273800Y-36843695D01*
X54234837Y-37077473D01*
X54235393Y-37105501D01*
X54247302Y-37133306D01*
X54269090Y-37154287D01*
X54379090Y-37224287D01*
X54406436Y-37234983D01*
X54436677Y-37234353D01*
X54464290Y-37222006D01*
X54534290Y-37172006D01*
X54558155Y-37144078D01*
X54658155Y-36944078D01*
X54665678Y-36901097D01*
X54648050Y-36751258D01*
X61439958Y-36751258D01*
X61448436Y-36926728D01*
X61766964Y-37019866D01*
X62096888Y-36984018D01*
X62235198Y-36926728D01*
X62243676Y-36751258D01*
X61841817Y-36349399D01*
X61439958Y-36751258D01*
X54648050Y-36751258D01*
X54645678Y-36731097D01*
X54640599Y-36711327D01*
X54623882Y-36686118D01*
X54433882Y-36496118D01*
X54413717Y-36481665D01*
X54384475Y-36473931D01*
X54214819Y-36463951D01*
X53785303Y-36433985D01*
X53781524Y-36433815D01*
X53281524Y-36423815D01*
X53280000Y-36423800D01*
X52450000Y-36423800D01*
X52425903Y-36427710D01*
X52365903Y-36447710D01*
X52348612Y-36456020D01*
X52326981Y-36477163D01*
X52315280Y-36505056D01*
X52305280Y-36555056D01*
X52303800Y-36570000D01*
X51608600Y-36570000D01*
X51608600Y-35510549D01*
X52064388Y-35510549D01*
X52069250Y-35548300D01*
X52089250Y-35598300D01*
X52097656Y-35613814D01*
X52119614Y-35634617D01*
X52199614Y-35684617D01*
X52226259Y-35694951D01*
X52256502Y-35694392D01*
X52284144Y-35682111D01*
X52304831Y-35660043D01*
X52507255Y-35332309D01*
X52684878Y-35199091D01*
X53162421Y-35055829D01*
X53451279Y-35046200D01*
X53585889Y-35046200D01*
X53945616Y-35085089D01*
X54289233Y-35180539D01*
X54394226Y-35245149D01*
X54403800Y-35261107D01*
X54403800Y-35422087D01*
X54325633Y-35514467D01*
X53965090Y-35634648D01*
X53687382Y-35653800D01*
X53653228Y-35653800D01*
X53545839Y-35538150D01*
X53519646Y-35519803D01*
X53490000Y-35513800D01*
X53450000Y-35513800D01*
X53435056Y-35515280D01*
X53385056Y-35525280D01*
X53353035Y-35539994D01*
X53333389Y-35562994D01*
X53283389Y-35652994D01*
X53273800Y-35690000D01*
X53273800Y-35940000D01*
X53285713Y-35980910D01*
X53355713Y-36090910D01*
X53372210Y-36109351D01*
X53399066Y-36123268D01*
X53469066Y-36143268D01*
X53484073Y-36145969D01*
X53514097Y-36142290D01*
X53647659Y-36097769D01*
X60994573Y-36097769D01*
X61030421Y-36427693D01*
X61087711Y-36566003D01*
X61263181Y-36574481D01*
X61665040Y-36172622D01*
X62018594Y-36172622D01*
X62420453Y-36574481D01*
X62595923Y-36566003D01*
X62689061Y-36247475D01*
X62653213Y-35917551D01*
X62595923Y-35779241D01*
X62420453Y-35770763D01*
X62018594Y-36172622D01*
X61665040Y-36172622D01*
X61263181Y-35770763D01*
X61087711Y-35779241D01*
X60994573Y-36097769D01*
X53647659Y-36097769D01*
X53718333Y-36074211D01*
X54322327Y-35975196D01*
X54342761Y-35968798D01*
X54552761Y-35868798D01*
X54580708Y-35846054D01*
X54771932Y-35593986D01*
X61439958Y-35593986D01*
X61841817Y-35995845D01*
X62243676Y-35593986D01*
X62235198Y-35418516D01*
X61916670Y-35325378D01*
X61586746Y-35361226D01*
X61448436Y-35418516D01*
X61439958Y-35593986D01*
X54771932Y-35593986D01*
X54800708Y-35556054D01*
X54815822Y-35517582D01*
X54835822Y-35317582D01*
X54835887Y-35303101D01*
X54825887Y-35193101D01*
X54811345Y-35154798D01*
X54671345Y-34964798D01*
X54645008Y-34942318D01*
X54355008Y-34792318D01*
X54337649Y-34785872D01*
X53917649Y-34685872D01*
X53908118Y-34684234D01*
X53628118Y-34654234D01*
X53620000Y-34653800D01*
X53590000Y-34653800D01*
X53583492Y-34654078D01*
X53233492Y-34684078D01*
X53222165Y-34685917D01*
X52682165Y-34815917D01*
X52662994Y-34823389D01*
X52302994Y-35023389D01*
X52276598Y-35047732D01*
X52096598Y-35317732D01*
X52084388Y-35350549D01*
X52064388Y-35510549D01*
X51608600Y-35510549D01*
X51608600Y-34585890D01*
X56114784Y-34585890D01*
X56123262Y-34761360D01*
X56441790Y-34854498D01*
X56771714Y-34818650D01*
X56910024Y-34761360D01*
X56918502Y-34585890D01*
X56516643Y-34184031D01*
X56114784Y-34585890D01*
X51608600Y-34585890D01*
X51608600Y-33932401D01*
X55669399Y-33932401D01*
X55705247Y-34262325D01*
X55762537Y-34400635D01*
X55938007Y-34409113D01*
X56339866Y-34007254D01*
X56693420Y-34007254D01*
X57095279Y-34409113D01*
X57270749Y-34400635D01*
X57323789Y-34219238D01*
X67833207Y-34219238D01*
X67902165Y-34543860D01*
X68090103Y-34817383D01*
X68206103Y-34912017D01*
X68214115Y-34908191D01*
X68604076Y-34908191D01*
X68694708Y-35058681D01*
X69019330Y-34989723D01*
X69292853Y-34801785D01*
X69387487Y-34685785D01*
X69311786Y-34527257D01*
X68767465Y-34363869D01*
X68604076Y-34908191D01*
X68214115Y-34908191D01*
X68364631Y-34836316D01*
X68528019Y-34291995D01*
X67983697Y-34128606D01*
X67833207Y-34219238D01*
X57323789Y-34219238D01*
X57351513Y-34124423D01*
X68839339Y-34124423D01*
X69383661Y-34287812D01*
X69534151Y-34197180D01*
X69465193Y-33872558D01*
X69277255Y-33599035D01*
X69161255Y-33504401D01*
X69002727Y-33580102D01*
X68839339Y-34124423D01*
X57351513Y-34124423D01*
X57363887Y-34082107D01*
X57328039Y-33752183D01*
X57319113Y-33730633D01*
X67979871Y-33730633D01*
X68055572Y-33889161D01*
X68599893Y-34052549D01*
X68763282Y-33508227D01*
X68672650Y-33357737D01*
X68348028Y-33426695D01*
X68074505Y-33614633D01*
X67979871Y-33730633D01*
X57319113Y-33730633D01*
X57270749Y-33613873D01*
X57095279Y-33605395D01*
X56693420Y-34007254D01*
X56339866Y-34007254D01*
X55938007Y-33605395D01*
X55762537Y-33613873D01*
X55669399Y-33932401D01*
X51608600Y-33932401D01*
X51608600Y-33428618D01*
X56114784Y-33428618D01*
X56516643Y-33830477D01*
X56918502Y-33428618D01*
X56910024Y-33253148D01*
X56591496Y-33160010D01*
X56261572Y-33195858D01*
X56123262Y-33253148D01*
X56114784Y-33428618D01*
X51608600Y-33428618D01*
X51608600Y-28221203D01*
X56114784Y-28221203D01*
X56123262Y-28396673D01*
X56441790Y-28489811D01*
X56771714Y-28453963D01*
X56910024Y-28396673D01*
X56918502Y-28221203D01*
X56516643Y-27819344D01*
X56114784Y-28221203D01*
X51608600Y-28221203D01*
X51608600Y-25245338D01*
X51704747Y-25245338D01*
X51717258Y-25337009D01*
X51764450Y-25416590D01*
X53776340Y-27641967D01*
X53844975Y-27694117D01*
X53934292Y-27718256D01*
X54025963Y-27705745D01*
X54105544Y-27658553D01*
X54206022Y-27567714D01*
X55669399Y-27567714D01*
X55705247Y-27897638D01*
X55762537Y-28035948D01*
X55938007Y-28044426D01*
X56339866Y-27642567D01*
X56693420Y-27642567D01*
X57095279Y-28044426D01*
X57270749Y-28035948D01*
X57363887Y-27717420D01*
X57328039Y-27387496D01*
X57270749Y-27249186D01*
X57095279Y-27240708D01*
X56693420Y-27642567D01*
X56339866Y-27642567D01*
X55938007Y-27240708D01*
X55762537Y-27249186D01*
X55669399Y-27567714D01*
X54206022Y-27567714D01*
X54763262Y-27063931D01*
X56114784Y-27063931D01*
X56516643Y-27465790D01*
X56918502Y-27063931D01*
X56910024Y-26888461D01*
X56591496Y-26795323D01*
X56261572Y-26831171D01*
X56123262Y-26888461D01*
X56114784Y-27063931D01*
X54763262Y-27063931D01*
X56775996Y-25244286D01*
X56828146Y-25175651D01*
X56852285Y-25086334D01*
X56839774Y-24994663D01*
X56792582Y-24915082D01*
X54780692Y-22689705D01*
X54712057Y-22637555D01*
X54622740Y-22613416D01*
X54531069Y-22625927D01*
X54451488Y-22673119D01*
X53449024Y-23579414D01*
X53410293Y-23485679D01*
X53275778Y-23350930D01*
X53099936Y-23277914D01*
X52909537Y-23277747D01*
X52733568Y-23350456D01*
X52598819Y-23484971D01*
X52525803Y-23660813D01*
X52525636Y-23851212D01*
X52598345Y-24027181D01*
X52732860Y-24161930D01*
X52782086Y-24182370D01*
X51781036Y-25087386D01*
X51728886Y-25156021D01*
X51704747Y-25245338D01*
X51608600Y-25245338D01*
X51608600Y-21856512D01*
X56114784Y-21856512D01*
X56123262Y-22031982D01*
X56441790Y-22125120D01*
X56771714Y-22089272D01*
X56910024Y-22031982D01*
X56918502Y-21856512D01*
X56516643Y-21454653D01*
X56114784Y-21856512D01*
X51608600Y-21856512D01*
X51608600Y-21203023D01*
X55669399Y-21203023D01*
X55705247Y-21532947D01*
X55762537Y-21671257D01*
X55938007Y-21679735D01*
X56339866Y-21277876D01*
X56693420Y-21277876D01*
X57095279Y-21679735D01*
X57270749Y-21671257D01*
X57363887Y-21352729D01*
X57328039Y-21022805D01*
X57270749Y-20884495D01*
X57095279Y-20876017D01*
X56693420Y-21277876D01*
X56339866Y-21277876D01*
X55938007Y-20876017D01*
X55762537Y-20884495D01*
X55669399Y-21203023D01*
X51608600Y-21203023D01*
X51608600Y-20699240D01*
X56114784Y-20699240D01*
X56516643Y-21101099D01*
X56918502Y-20699240D01*
X56910024Y-20523770D01*
X56591496Y-20430632D01*
X56261572Y-20466480D01*
X56123262Y-20523770D01*
X56114784Y-20699240D01*
X51608600Y-20699240D01*
X51608600Y-18998600D01*
X59491400Y-18998600D01*
X59491400Y-31280000D01*
X59501539Y-31330972D01*
X59510792Y-31382124D01*
X59512126Y-31384198D01*
X59512607Y-31386616D01*
X59541479Y-31429826D01*
X59569604Y-31473545D01*
X59571631Y-31474951D01*
X59573000Y-31477000D01*
X59616204Y-31505868D01*
X59658924Y-31535500D01*
X59661334Y-31536023D01*
X59663384Y-31537393D01*
X59714364Y-31547533D01*
X59765156Y-31558558D01*
X60915156Y-31578558D01*
X60917582Y-31578119D01*
X60920000Y-31578600D01*
X62220000Y-31578600D01*
X62235146Y-31575587D01*
X62250527Y-31576922D01*
X63520527Y-31436923D01*
X63547614Y-31428361D01*
X63575826Y-31425051D01*
X64625826Y-31085051D01*
X64671767Y-31059383D01*
X64717933Y-31034377D01*
X65717933Y-30204377D01*
X65751390Y-30163146D01*
X65785238Y-30122198D01*
X66475238Y-28842198D01*
X66484590Y-28811755D01*
X66498798Y-28783252D01*
X66702121Y-28037155D01*
X71511880Y-28037155D01*
X71779643Y-28233210D01*
X72102051Y-28311873D01*
X72251605Y-28305115D01*
X72319338Y-28143023D01*
X72078372Y-27628322D01*
X71563671Y-27869288D01*
X71511880Y-28037155D01*
X66702121Y-28037155D01*
X66868785Y-27425585D01*
X71288821Y-27425585D01*
X71295579Y-27575139D01*
X71457671Y-27642872D01*
X71715164Y-27522322D01*
X72304788Y-27522322D01*
X72545754Y-28037023D01*
X72713621Y-28088814D01*
X72909676Y-27821051D01*
X72988339Y-27498643D01*
X72981581Y-27349089D01*
X72819489Y-27281356D01*
X72304788Y-27522322D01*
X71715164Y-27522322D01*
X71972372Y-27401906D01*
X71731406Y-26887205D01*
X71563539Y-26835414D01*
X71367484Y-27103177D01*
X71288821Y-27425585D01*
X66868785Y-27425585D01*
X67044389Y-26781205D01*
X71957822Y-26781205D01*
X72198788Y-27295906D01*
X72713489Y-27054940D01*
X72765280Y-26887073D01*
X72497517Y-26691018D01*
X72175109Y-26612355D01*
X72025555Y-26619113D01*
X71957822Y-26781205D01*
X67044389Y-26781205D01*
X67676682Y-24461015D01*
X68146983Y-23059912D01*
X68411920Y-22556531D01*
X74161549Y-22556531D01*
X74337020Y-22838213D01*
X74606930Y-23031303D01*
X74748239Y-23080735D01*
X74871473Y-22955536D01*
X74839557Y-22388118D01*
X74272139Y-22420034D01*
X74161549Y-22556531D01*
X68411920Y-22556531D01*
X68507947Y-22374078D01*
X75089163Y-22374078D01*
X75121079Y-22941496D01*
X75257576Y-23052086D01*
X75539258Y-22876615D01*
X75732348Y-22606705D01*
X75781780Y-22465396D01*
X75656581Y-22342162D01*
X75089163Y-22374078D01*
X68507947Y-22374078D01*
X68679992Y-22047194D01*
X74132900Y-22047194D01*
X74258099Y-22170428D01*
X74825517Y-22138512D01*
X74793601Y-21571094D01*
X74776272Y-21557054D01*
X75043207Y-21557054D01*
X75075123Y-22124472D01*
X75642541Y-22092556D01*
X75753131Y-21956059D01*
X75577660Y-21674377D01*
X75307750Y-21481287D01*
X75166441Y-21431855D01*
X75043207Y-21557054D01*
X74776272Y-21557054D01*
X74657104Y-21460504D01*
X74375422Y-21635975D01*
X74182332Y-21905885D01*
X74132900Y-22047194D01*
X68679992Y-22047194D01*
X68823345Y-21774824D01*
X69743824Y-20652989D01*
X70950546Y-19752736D01*
X72463744Y-19097338D01*
X74298960Y-18728353D01*
X76488946Y-18708799D01*
X78901400Y-19097322D01*
X78901400Y-19097322D01*
G37*
X78901400Y-19097322D02*
X78901400Y-24249247D01*
X77772043Y-24281514D01*
X77741230Y-24288563D01*
X77709675Y-24290422D01*
X76559675Y-24590422D01*
X76555898Y-24592254D01*
X76551713Y-24592625D01*
X76507116Y-24615910D01*
X76461865Y-24637854D01*
X76459075Y-24640993D01*
X76455352Y-24642937D01*
X75585352Y-25342938D01*
X75579319Y-25350146D01*
X75571293Y-25355042D01*
X75544622Y-25391598D01*
X75515580Y-25426295D01*
X75512764Y-25435264D01*
X75507223Y-25442859D01*
X74937223Y-26672860D01*
X74932263Y-26693339D01*
X74922533Y-26712030D01*
X74135960Y-29410274D01*
X73246716Y-31692667D01*
X72215630Y-33597721D01*
X70989277Y-35190002D01*
X70986584Y-35195438D01*
X70982189Y-35199624D01*
X70962541Y-35243974D01*
X70941023Y-35287410D01*
X70940615Y-35293462D01*
X70938157Y-35299011D01*
X70936977Y-35347486D01*
X70933718Y-35395868D01*
X70935659Y-35401619D01*
X70935511Y-35407683D01*
X70952966Y-35452908D01*
X70968475Y-35498866D01*
X70972469Y-35503436D01*
X70974653Y-35509096D01*
X75624653Y-42849096D01*
X75625443Y-42849925D01*
X75625865Y-42850993D01*
X77205865Y-45300993D01*
X77226510Y-45322321D01*
X77243000Y-45347000D01*
X77263947Y-45360997D01*
X77281470Y-45379099D01*
X77308703Y-45390902D01*
X77333384Y-45407393D01*
X77358096Y-45412308D01*
X77369690Y-45417333D01*
X77321705Y-45448345D01*
X77269659Y-45524839D01*
X77251474Y-45615555D01*
X77255406Y-47615551D01*
X77271513Y-47700233D01*
X77321732Y-47777939D01*
X77398226Y-47829986D01*
X77488942Y-47848171D01*
X78228940Y-47846717D01*
X78313623Y-47830610D01*
X78391329Y-47780391D01*
X78443375Y-47703897D01*
X78461560Y-47613181D01*
X78457628Y-45613185D01*
X78441521Y-45528503D01*
X78391302Y-45450797D01*
X78358679Y-45428600D01*
X80384146Y-45428600D01*
X80323090Y-45576002D01*
X80323090Y-45868357D01*
X80469140Y-46014407D01*
X81039370Y-46014407D01*
X81007878Y-46130540D01*
X81038672Y-46370007D01*
X80469140Y-46370007D01*
X80323090Y-46516057D01*
X80323090Y-46808412D01*
X80412029Y-47023130D01*
X80576368Y-47187468D01*
X80791086Y-47276407D01*
X82583440Y-47276407D01*
X82729490Y-47130357D01*
X82729490Y-46538605D01*
X82806702Y-46253874D01*
X82773336Y-45994407D01*
X83085090Y-45994407D01*
X83085090Y-46014407D01*
X83105090Y-46014407D01*
X83105090Y-46370007D01*
X83085090Y-46370007D01*
X83085090Y-47130357D01*
X83231140Y-47276407D01*
X84941400Y-47276407D01*
X84941400Y-47466036D01*
X84907290Y-47459129D01*
X80907290Y-47459129D01*
X80822576Y-47475069D01*
X80744772Y-47525135D01*
X80692575Y-47601527D01*
X80674212Y-47692207D01*
X80674212Y-48692207D01*
X80690152Y-48776921D01*
X80740218Y-48854725D01*
X80816610Y-48906922D01*
X80907290Y-48925285D01*
X84907290Y-48925285D01*
X84941400Y-48918867D01*
X84941400Y-49108007D01*
X83231140Y-49108007D01*
X83085090Y-49254057D01*
X83085090Y-50014407D01*
X83105090Y-50014407D01*
X83105090Y-50370007D01*
X83085090Y-50370007D01*
X83085090Y-50390007D01*
X82769786Y-50390007D01*
X82806702Y-50253874D01*
X82761837Y-49904990D01*
X82729490Y-49826897D01*
X82729490Y-49254057D01*
X82583440Y-49108007D01*
X80791086Y-49108007D01*
X80576368Y-49196946D01*
X80412029Y-49361284D01*
X80323090Y-49576002D01*
X80323090Y-49868357D01*
X80469140Y-50014407D01*
X81039370Y-50014407D01*
X81007878Y-50130540D01*
X81038672Y-50370007D01*
X80469140Y-50370007D01*
X80323090Y-50516057D01*
X80323090Y-50808412D01*
X80353323Y-50881400D01*
X78829107Y-50881400D01*
X78828744Y-50696260D01*
X78827643Y-50136316D01*
X78681306Y-49990553D01*
X78040957Y-49991812D01*
X78040996Y-50011812D01*
X77685397Y-50012511D01*
X77685358Y-49992511D01*
X77045009Y-49993770D01*
X76770959Y-49994309D01*
X76770998Y-50014309D01*
X76415399Y-50015008D01*
X76415360Y-49995008D01*
X76141312Y-49995547D01*
X76141311Y-49995546D01*
X75500962Y-49996805D01*
X75501001Y-50016805D01*
X75145402Y-50017504D01*
X75145363Y-49997504D01*
X74505014Y-49998763D01*
X74230964Y-49999302D01*
X74231003Y-50019302D01*
X73875404Y-50020001D01*
X73875365Y-50000001D01*
X73235016Y-50001260D01*
X73089254Y-50147597D01*
X73090354Y-50707541D01*
X73090696Y-50881400D01*
X71093221Y-50881400D01*
X67653027Y-44743781D01*
X67651898Y-44742460D01*
X67651339Y-44740811D01*
X65369518Y-40784376D01*
X66427120Y-40784376D01*
X66439631Y-40876047D01*
X66486823Y-40955628D01*
X68498713Y-43181005D01*
X68567348Y-43233155D01*
X68656665Y-43257294D01*
X68748336Y-43244783D01*
X68827917Y-43197591D01*
X69287787Y-42781838D01*
X70929750Y-45440512D01*
X70889822Y-45413346D01*
X70799106Y-45395161D01*
X69899108Y-45396930D01*
X69814425Y-45413037D01*
X69736719Y-45463256D01*
X69684673Y-45539750D01*
X69666488Y-45630466D01*
X69667668Y-46230465D01*
X69683775Y-46315148D01*
X69733994Y-46392854D01*
X69810488Y-46444900D01*
X69901204Y-46463085D01*
X70801202Y-46461316D01*
X70885885Y-46445209D01*
X70963591Y-46394990D01*
X70975576Y-46377375D01*
X70983992Y-46390397D01*
X71060486Y-46442443D01*
X71151202Y-46460628D01*
X72051200Y-46458859D01*
X72135883Y-46442752D01*
X72213589Y-46392533D01*
X72225574Y-46374919D01*
X72233989Y-46387940D01*
X72310483Y-46439986D01*
X72401199Y-46458171D01*
X73301197Y-46456402D01*
X73385880Y-46440295D01*
X73433028Y-46409825D01*
X73434063Y-46936527D01*
X73392766Y-46908429D01*
X73302050Y-46890244D01*
X72402052Y-46892013D01*
X72317369Y-46908120D01*
X72239663Y-46958339D01*
X72227678Y-46975953D01*
X72219263Y-46962932D01*
X72142769Y-46910886D01*
X72052053Y-46892701D01*
X71152055Y-46894470D01*
X71067372Y-46910577D01*
X70989666Y-46960796D01*
X70977681Y-46978411D01*
X70969265Y-46965389D01*
X70892771Y-46913343D01*
X70802055Y-46895158D01*
X69902057Y-46896927D01*
X69817374Y-46913034D01*
X69739668Y-46963253D01*
X69687622Y-47039747D01*
X69669437Y-47130463D01*
X69670617Y-47730462D01*
X69686724Y-47815145D01*
X69736943Y-47892851D01*
X69813437Y-47944897D01*
X69904153Y-47963082D01*
X70021075Y-47962852D01*
X70021895Y-48379770D01*
X70021894Y-48379773D01*
X70022287Y-48579773D01*
X70038394Y-48664456D01*
X70088613Y-48742162D01*
X70165107Y-48794208D01*
X70255823Y-48812393D01*
X73086618Y-48806828D01*
X73086879Y-48939954D01*
X73087980Y-49499898D01*
X73234317Y-49645661D01*
X73874666Y-49644402D01*
X73874627Y-49624402D01*
X74230226Y-49623703D01*
X74230265Y-49643703D01*
X74870614Y-49642444D01*
X75144664Y-49641905D01*
X75144625Y-49621905D01*
X75500224Y-49621206D01*
X75500263Y-49641206D01*
X75774311Y-49640667D01*
X75774312Y-49640668D01*
X76414661Y-49639409D01*
X76414622Y-49619409D01*
X76770221Y-49618710D01*
X76770260Y-49638710D01*
X77410609Y-49637451D01*
X77684659Y-49636912D01*
X77682181Y-48376564D01*
X77681480Y-48375865D01*
X78037780Y-48375865D01*
X78040258Y-49636213D01*
X78680607Y-49634954D01*
X78826369Y-49488617D01*
X78825269Y-48928673D01*
X78824812Y-48696265D01*
X78735451Y-48481722D01*
X78570790Y-48317706D01*
X78355898Y-48229190D01*
X78183543Y-48229528D01*
X78037780Y-48375865D01*
X77681480Y-48375865D01*
X77535844Y-48230802D01*
X77363490Y-48231141D01*
X77224807Y-48288904D01*
X77085900Y-48231687D01*
X76987773Y-48231879D01*
X76987014Y-47845757D01*
X77053625Y-47833087D01*
X77131331Y-47782868D01*
X77183377Y-47706374D01*
X77201562Y-47615658D01*
X77197630Y-45615662D01*
X77181523Y-45530979D01*
X77131304Y-45453273D01*
X77054810Y-45401227D01*
X76964094Y-45383042D01*
X76204096Y-45384536D01*
X76119413Y-45400643D01*
X76041707Y-45450862D01*
X75989661Y-45527356D01*
X75971476Y-45618072D01*
X75975408Y-47618068D01*
X75991515Y-47702751D01*
X76041734Y-47780457D01*
X76118228Y-47832503D01*
X76208944Y-47850688D01*
X76320865Y-47850468D01*
X76321423Y-48134310D01*
X75634156Y-48135661D01*
X75637549Y-48118734D01*
X75637156Y-47918734D01*
X75637155Y-47918731D01*
X75637024Y-47851812D01*
X75698945Y-47851690D01*
X75783628Y-47835583D01*
X75861334Y-47785364D01*
X75913380Y-47708870D01*
X75931565Y-47618154D01*
X75927633Y-45618158D01*
X75911526Y-45533475D01*
X75861307Y-45455769D01*
X75784813Y-45403723D01*
X75694097Y-45385538D01*
X74934099Y-45387032D01*
X74849416Y-45403139D01*
X74771710Y-45453358D01*
X74719664Y-45529852D01*
X74701479Y-45620568D01*
X74705411Y-47620564D01*
X74718135Y-47687462D01*
X74648147Y-47687599D01*
X74661567Y-47620651D01*
X74657635Y-45620655D01*
X74641528Y-45535972D01*
X74591309Y-45458266D01*
X74514815Y-45406220D01*
X74424099Y-45388035D01*
X73664101Y-45389529D01*
X73579418Y-45405636D01*
X73501712Y-45455855D01*
X73482024Y-45484791D01*
X73466311Y-45460478D01*
X73389817Y-45408432D01*
X73299101Y-45390247D01*
X72399103Y-45392016D01*
X72314420Y-45408123D01*
X72236714Y-45458342D01*
X72224729Y-45475956D01*
X72216314Y-45462935D01*
X72139820Y-45410889D01*
X72049104Y-45392704D01*
X71736502Y-45393318D01*
X70936999Y-44098758D01*
X72293105Y-44098758D01*
X72383542Y-44418064D01*
X72589288Y-44678455D01*
X72711336Y-44765149D01*
X72765293Y-44734812D01*
X73108170Y-44734812D01*
X73208628Y-44878929D01*
X73527934Y-44788492D01*
X73788325Y-44582746D01*
X73875019Y-44460698D01*
X73788923Y-44307567D01*
X73234924Y-44180813D01*
X73108170Y-44734812D01*
X72765293Y-44734812D01*
X72864467Y-44679053D01*
X72991221Y-44125054D01*
X72437222Y-43998300D01*
X72293105Y-44098758D01*
X70936999Y-44098758D01*
X70837168Y-43937110D01*
X73290683Y-43937110D01*
X73844682Y-44063864D01*
X73988799Y-43963406D01*
X73898362Y-43644100D01*
X73692616Y-43383709D01*
X73570568Y-43297015D01*
X73417437Y-43383111D01*
X73290683Y-43937110D01*
X70837168Y-43937110D01*
X70629878Y-43601466D01*
X72406885Y-43601466D01*
X72492981Y-43754597D01*
X73046980Y-43881351D01*
X73173734Y-43327352D01*
X73073276Y-43183235D01*
X72753970Y-43273672D01*
X72493579Y-43479418D01*
X72406885Y-43601466D01*
X70629878Y-43601466D01*
X69824190Y-42296894D01*
X70756577Y-41453954D01*
X70808727Y-41385319D01*
X70832866Y-41296002D01*
X70820355Y-41204331D01*
X70773163Y-41124750D01*
X68761273Y-38899373D01*
X68692638Y-38847223D01*
X68603321Y-38823084D01*
X68511650Y-38835595D01*
X68432069Y-38882787D01*
X66503409Y-40626424D01*
X66451259Y-40695059D01*
X66427120Y-40784376D01*
X65369518Y-40784376D01*
X64181803Y-38725004D01*
X68920505Y-38725004D01*
X69010942Y-39044310D01*
X69216688Y-39304701D01*
X69338736Y-39391395D01*
X69392693Y-39361058D01*
X69735570Y-39361058D01*
X69836028Y-39505175D01*
X70155334Y-39414738D01*
X70415725Y-39208992D01*
X70502419Y-39086944D01*
X70416323Y-38933813D01*
X69862324Y-38807059D01*
X69735570Y-39361058D01*
X69392693Y-39361058D01*
X69491867Y-39305299D01*
X69618621Y-38751300D01*
X69064622Y-38624546D01*
X68920505Y-38725004D01*
X64181803Y-38725004D01*
X64088575Y-38563356D01*
X69918083Y-38563356D01*
X70472082Y-38690110D01*
X70616199Y-38589652D01*
X70525762Y-38270346D01*
X70320016Y-38009955D01*
X70197968Y-37923261D01*
X70044837Y-38009357D01*
X69918083Y-38563356D01*
X64088575Y-38563356D01*
X64081339Y-38550811D01*
X64054020Y-38519630D01*
X64029768Y-38486025D01*
X64018463Y-38479047D01*
X64009703Y-38469049D01*
X63972529Y-38450696D01*
X63937265Y-38428930D01*
X63924148Y-38426809D01*
X63912231Y-38420926D01*
X63870867Y-38418196D01*
X63829953Y-38411581D01*
X61892989Y-38481471D01*
X59766076Y-38511428D01*
X59714817Y-38522376D01*
X59663384Y-38532607D01*
X59661723Y-38533717D01*
X59659770Y-38534134D01*
X59616596Y-38563870D01*
X59573000Y-38593000D01*
X59571890Y-38594661D01*
X59570245Y-38595794D01*
X59541728Y-38639802D01*
X59512607Y-38683384D01*
X59512217Y-38685342D01*
X59511131Y-38687019D01*
X59501630Y-38738570D01*
X59491400Y-38790000D01*
X59491400Y-50881400D01*
X51574807Y-50881400D01*
X51605040Y-50808412D01*
X51605040Y-50516057D01*
X51458990Y-50370007D01*
X50888760Y-50370007D01*
X50920252Y-50253874D01*
X50889458Y-50014407D01*
X51458990Y-50014407D01*
X51605040Y-49868357D01*
X51605040Y-49576002D01*
X51516101Y-49361284D01*
X51351762Y-49196946D01*
X51137044Y-49108007D01*
X49344690Y-49108007D01*
X49198640Y-49254057D01*
X49198640Y-49845809D01*
X49121428Y-50130540D01*
X49154794Y-50390007D01*
X48843040Y-50390007D01*
X48843040Y-50370007D01*
X48823040Y-50370007D01*
X48823040Y-50014407D01*
X48843040Y-50014407D01*
X48843040Y-49254057D01*
X48696990Y-49108007D01*
X46908600Y-49108007D01*
X46908600Y-48892191D01*
X46930160Y-48906922D01*
X47020840Y-48925285D01*
X51020840Y-48925285D01*
X51105554Y-48909345D01*
X51183358Y-48859279D01*
X51235555Y-48782887D01*
X51253918Y-48692207D01*
X51253918Y-47880000D01*
X52033800Y-47880000D01*
X52033800Y-47910000D01*
X52035280Y-47924944D01*
X52045280Y-47974944D01*
X52059994Y-48006965D01*
X52082994Y-48026611D01*
X52172994Y-48076611D01*
X52210000Y-48086200D01*
X52280000Y-48086200D01*
X52307695Y-48080989D01*
X52333132Y-48064621D01*
X52350197Y-48039646D01*
X52356200Y-48010000D01*
X52356200Y-47867201D01*
X52422414Y-47786274D01*
X52568368Y-47683247D01*
X52619328Y-47676877D01*
X52730733Y-47692792D01*
X53101704Y-47959131D01*
X53368229Y-48205913D01*
X53389983Y-48220039D01*
X53669983Y-48340039D01*
X53691097Y-48345678D01*
X53861097Y-48365678D01*
X53870000Y-48366200D01*
X54180000Y-48366200D01*
X54200546Y-48363378D01*
X54450546Y-48293378D01*
X54468765Y-48285603D01*
X54688765Y-48155603D01*
X54705318Y-48142406D01*
X54885318Y-47952406D01*
X54897092Y-47936126D01*
X54967092Y-47806126D01*
X54976200Y-47770000D01*
X54976200Y-47630000D01*
X54974720Y-47615056D01*
X54964720Y-47565056D01*
X54952612Y-47536570D01*
X54930783Y-47515632D01*
X54902527Y-47504837D01*
X54842527Y-47494837D01*
X54830000Y-47493800D01*
X54760000Y-47493800D01*
X54717397Y-47506822D01*
X54696174Y-47528374D01*
X54552751Y-47748289D01*
X54311339Y-47943275D01*
X54155705Y-48003800D01*
X53934466Y-48003800D01*
X53785744Y-47986303D01*
X53305539Y-47688577D01*
X52980301Y-47402761D01*
X52943242Y-47384959D01*
X52773242Y-47354959D01*
X52760000Y-47353800D01*
X52550000Y-47353800D01*
X52524827Y-47358078D01*
X52324827Y-47428078D01*
X52296118Y-47446118D01*
X52076118Y-47666118D01*
X52064023Y-47681876D01*
X52054388Y-47710549D01*
X52034388Y-47870549D01*
X52033800Y-47880000D01*
X51253918Y-47880000D01*
X51253918Y-47692207D01*
X51237978Y-47607493D01*
X51187912Y-47529689D01*
X51111520Y-47477492D01*
X51020840Y-47459129D01*
X47020840Y-47459129D01*
X46936126Y-47475069D01*
X46908600Y-47492782D01*
X46908600Y-47315272D01*
X56114784Y-47315272D01*
X56123262Y-47490742D01*
X56441790Y-47583880D01*
X56771714Y-47548032D01*
X56910024Y-47490742D01*
X56918502Y-47315272D01*
X56516643Y-46913413D01*
X56114784Y-47315272D01*
X46908600Y-47315272D01*
X46908600Y-47276407D01*
X48696990Y-47276407D01*
X48843040Y-47130357D01*
X48843040Y-46370007D01*
X48823040Y-46370007D01*
X48823040Y-46014407D01*
X48843040Y-46014407D01*
X48843040Y-45994407D01*
X49158344Y-45994407D01*
X49121428Y-46130540D01*
X49166293Y-46479424D01*
X49198640Y-46557517D01*
X49198640Y-47130357D01*
X49344690Y-47276407D01*
X51137044Y-47276407D01*
X51351762Y-47187468D01*
X51516101Y-47023130D01*
X51605040Y-46808412D01*
X51605040Y-46516057D01*
X51458990Y-46370007D01*
X50888760Y-46370007D01*
X50896897Y-46340000D01*
X52203800Y-46340000D01*
X52203800Y-46370000D01*
X52214662Y-46409209D01*
X52235064Y-46431540D01*
X52262547Y-46444174D01*
X52432547Y-46484174D01*
X52450000Y-46486200D01*
X52830000Y-46486200D01*
X52838652Y-46485707D01*
X53103800Y-46455404D01*
X53103800Y-46506828D01*
X53094822Y-46614568D01*
X53054826Y-46734556D01*
X53041995Y-46744820D01*
X52807071Y-46753856D01*
X52800144Y-46754440D01*
X52340144Y-46814440D01*
X52322305Y-46819011D01*
X52296868Y-46835379D01*
X52279803Y-46860354D01*
X52273800Y-46890000D01*
X52273800Y-47030000D01*
X52279732Y-47059476D01*
X52296736Y-47084492D01*
X52322132Y-47100921D01*
X52351920Y-47106176D01*
X53541436Y-47076188D01*
X54310528Y-47066200D01*
X54420000Y-47066200D01*
X54434944Y-47064720D01*
X54484944Y-47054720D01*
X54513430Y-47042612D01*
X54534368Y-47020783D01*
X54545163Y-46992527D01*
X54555163Y-46932527D01*
X54556200Y-46920000D01*
X54556200Y-46860000D01*
X54555163Y-46847473D01*
X54545163Y-46787473D01*
X54533980Y-46758612D01*
X54512837Y-46736981D01*
X54484944Y-46725280D01*
X54434944Y-46715280D01*
X54417461Y-46713842D01*
X53817915Y-46733827D01*
X53436551Y-46741941D01*
X53446570Y-46661783D01*
X55669399Y-46661783D01*
X55705247Y-46991707D01*
X55762537Y-47130017D01*
X55938007Y-47138495D01*
X56339866Y-46736636D01*
X56693420Y-46736636D01*
X57095279Y-47138495D01*
X57270749Y-47130017D01*
X57363887Y-46811489D01*
X57328039Y-46481565D01*
X57270749Y-46343255D01*
X57095279Y-46334777D01*
X56693420Y-46736636D01*
X56339866Y-46736636D01*
X55938007Y-46334777D01*
X55762537Y-46343255D01*
X55669399Y-46661783D01*
X53446570Y-46661783D01*
X53455612Y-46589451D01*
X53456200Y-46580000D01*
X53456200Y-46442959D01*
X53843310Y-46426128D01*
X53850565Y-46425464D01*
X54350565Y-46355464D01*
X54376295Y-46347001D01*
X54399502Y-46327602D01*
X54439502Y-46277602D01*
X54450197Y-46259646D01*
X54456200Y-46230000D01*
X54456200Y-46170000D01*
X54455207Y-46158000D01*
X56114784Y-46158000D01*
X56516643Y-46559859D01*
X56918502Y-46158000D01*
X56910024Y-45982530D01*
X56591496Y-45889392D01*
X56261572Y-45925240D01*
X56123262Y-45982530D01*
X56114784Y-46158000D01*
X54455207Y-46158000D01*
X54455163Y-46157473D01*
X54445163Y-46097473D01*
X54430154Y-46063225D01*
X54407217Y-46043507D01*
X54378415Y-46034266D01*
X54288415Y-46024266D01*
X54275041Y-46023962D01*
X52895041Y-46113962D01*
X52889761Y-46114491D01*
X52299761Y-46194491D01*
X52282680Y-46198866D01*
X52257157Y-46215099D01*
X52239961Y-46239983D01*
X52209961Y-46309983D01*
X52203800Y-46340000D01*
X50896897Y-46340000D01*
X50920252Y-46253874D01*
X50889458Y-46014407D01*
X51458990Y-46014407D01*
X51605040Y-45868357D01*
X51605040Y-45641585D01*
X52094266Y-45641585D01*
X52094837Y-45662527D01*
X52104837Y-45722527D01*
X52113104Y-45746489D01*
X52173104Y-45856489D01*
X52203278Y-45886768D01*
X52403278Y-45996768D01*
X52429704Y-46005501D01*
X52649704Y-46035501D01*
X52670071Y-46035532D01*
X52820071Y-46015532D01*
X52837337Y-46011128D01*
X52862855Y-45994888D01*
X53132855Y-45734888D01*
X53147002Y-45716293D01*
X53257187Y-45512875D01*
X53615699Y-45485987D01*
X53644078Y-45478155D01*
X53699880Y-45450254D01*
X53853470Y-45484385D01*
X53870000Y-45486200D01*
X54690000Y-45486200D01*
X54702527Y-45485163D01*
X54762527Y-45475163D01*
X54793430Y-45462612D01*
X54814368Y-45440783D01*
X54825163Y-45412527D01*
X54835163Y-45352527D01*
X54836200Y-45340000D01*
X54836200Y-45240000D01*
X54832453Y-45216400D01*
X54817563Y-45190071D01*
X54793602Y-45171609D01*
X54764347Y-45163924D01*
X54066548Y-45124050D01*
X53808734Y-45094302D01*
X53769983Y-45099961D01*
X53739166Y-45113168D01*
X53734556Y-45108184D01*
X53706996Y-45095720D01*
X53676758Y-45094959D01*
X53513326Y-45123800D01*
X52950000Y-45123800D01*
X52935056Y-45125280D01*
X52885056Y-45135280D01*
X52846868Y-45155379D01*
X52840088Y-45165302D01*
X52826558Y-45149677D01*
X52799421Y-45136316D01*
X52769224Y-45134566D01*
X52489224Y-45174566D01*
X52457732Y-45186598D01*
X52217732Y-45346598D01*
X52192765Y-45374141D01*
X52112765Y-45524141D01*
X52104266Y-45551585D01*
X52099709Y-45592590D01*
X52094266Y-45641585D01*
X51605040Y-45641585D01*
X51605040Y-45576002D01*
X51516101Y-45361284D01*
X51511904Y-45357087D01*
X51527000Y-45347000D01*
X51587393Y-45256616D01*
X51608600Y-45150000D01*
X51608600Y-44842527D01*
X52034837Y-44842527D01*
X52044837Y-44902527D01*
X52059994Y-44936965D01*
X52082994Y-44956611D01*
X52172994Y-45006611D01*
X52208824Y-45016191D01*
X52238559Y-45010646D01*
X52705570Y-44821854D01*
X53373111Y-44615702D01*
X53592684Y-44606155D01*
X54312116Y-44586171D01*
X54319941Y-44585549D01*
X54699941Y-44535549D01*
X54717695Y-44530989D01*
X54743132Y-44514621D01*
X54760197Y-44489646D01*
X54766200Y-44460000D01*
X54766200Y-44350000D01*
X54760039Y-44319983D01*
X54730039Y-44249983D01*
X54709423Y-44222002D01*
X54682964Y-44207343D01*
X54652887Y-44204133D01*
X53694640Y-44293969D01*
X53310047Y-44312283D01*
X53283882Y-44286118D01*
X53253274Y-44267441D01*
X52723274Y-44097441D01*
X52719540Y-44096348D01*
X52229540Y-43966348D01*
X52210000Y-43963800D01*
X52140000Y-43963800D01*
X52112305Y-43969011D01*
X52086868Y-43985379D01*
X52069803Y-44010354D01*
X52063800Y-44040000D01*
X52063800Y-44110000D01*
X52074659Y-44149205D01*
X52104659Y-44199205D01*
X52116404Y-44214166D01*
X52141700Y-44230750D01*
X52541700Y-44390750D01*
X52549606Y-44393420D01*
X52742016Y-44446867D01*
X52544119Y-44518330D01*
X52537961Y-44520863D01*
X52127961Y-44710863D01*
X52106118Y-44726118D01*
X52056118Y-44776118D01*
X52035885Y-44812298D01*
X52034837Y-44842527D01*
X51608600Y-44842527D01*
X51608600Y-43280000D01*
X52303800Y-43280000D01*
X52303800Y-43320000D01*
X52314659Y-43359205D01*
X52344659Y-43409205D01*
X52369555Y-43434580D01*
X52397866Y-43445228D01*
X52707866Y-43495228D01*
X52720000Y-43496200D01*
X53995662Y-43496200D01*
X54273800Y-43527987D01*
X54273800Y-43553695D01*
X54234837Y-43787473D01*
X54235393Y-43815501D01*
X54247302Y-43843306D01*
X54269090Y-43864287D01*
X54379090Y-43934287D01*
X54398937Y-43943231D01*
X54429087Y-43945656D01*
X54457806Y-43936160D01*
X54527806Y-43896160D01*
X54558155Y-43864078D01*
X54658155Y-43664078D01*
X54665734Y-43621585D01*
X54645734Y-43441585D01*
X54639799Y-43419430D01*
X54622406Y-43394682D01*
X54432406Y-43214682D01*
X54417645Y-43203748D01*
X54388903Y-43194322D01*
X54218903Y-43174322D01*
X54215303Y-43173985D01*
X53785303Y-43143985D01*
X53781524Y-43143815D01*
X53281524Y-43133815D01*
X53280000Y-43133800D01*
X52450000Y-43133800D01*
X52425903Y-43137710D01*
X52365903Y-43157710D01*
X52348612Y-43166020D01*
X52326981Y-43187163D01*
X52315280Y-43215056D01*
X52305280Y-43265056D01*
X52303800Y-43280000D01*
X51608600Y-43280000D01*
X51608600Y-42220549D01*
X52064388Y-42220549D01*
X52069250Y-42258300D01*
X52089250Y-42308300D01*
X52114280Y-42340960D01*
X52194280Y-42400960D01*
X52227225Y-42415122D01*
X52257458Y-42414173D01*
X52284940Y-42401537D01*
X52305341Y-42379205D01*
X52506993Y-42043119D01*
X52684229Y-41919053D01*
X53163130Y-41765805D01*
X53451279Y-41756200D01*
X53585889Y-41756200D01*
X53945616Y-41795089D01*
X54287206Y-41889976D01*
X54393114Y-41963296D01*
X54403800Y-41981107D01*
X54403800Y-42132087D01*
X54325026Y-42225184D01*
X53965469Y-42354256D01*
X53688679Y-42363800D01*
X53653228Y-42363800D01*
X53545839Y-42248150D01*
X53519646Y-42229803D01*
X53490000Y-42223800D01*
X53450000Y-42223800D01*
X53421700Y-42229250D01*
X53371700Y-42249250D01*
X53356186Y-42257656D01*
X53335383Y-42279614D01*
X53285383Y-42359614D01*
X53273800Y-42400000D01*
X53273800Y-42660000D01*
X53275492Y-42675968D01*
X53287575Y-42703698D01*
X53357575Y-42803698D01*
X53372210Y-42819351D01*
X53399066Y-42833268D01*
X53469066Y-42853268D01*
X53484073Y-42855969D01*
X53514097Y-42852290D01*
X53718333Y-42784211D01*
X54322327Y-42685196D01*
X54342761Y-42678798D01*
X54552761Y-42578798D01*
X54580708Y-42556054D01*
X54800708Y-42266054D01*
X54815822Y-42227582D01*
X54835822Y-42027582D01*
X54835887Y-42013101D01*
X54825887Y-41903101D01*
X54811345Y-41864798D01*
X54671345Y-41674798D01*
X54643128Y-41651378D01*
X54353128Y-41511378D01*
X54339306Y-41506286D01*
X53919306Y-41396286D01*
X53908118Y-41394234D01*
X53628118Y-41364234D01*
X53620000Y-41363800D01*
X53590000Y-41363800D01*
X53581348Y-41364293D01*
X53231348Y-41404293D01*
X53222165Y-41405917D01*
X52682165Y-41535917D01*
X52664433Y-41542610D01*
X52304433Y-41732610D01*
X52276598Y-41757732D01*
X52096598Y-42027732D01*
X52084388Y-42060549D01*
X52064388Y-42220549D01*
X51608600Y-42220549D01*
X51608600Y-40950583D01*
X56114784Y-40950583D01*
X56123262Y-41126053D01*
X56441790Y-41219191D01*
X56771714Y-41183343D01*
X56910024Y-41126053D01*
X56918502Y-40950583D01*
X56516643Y-40548724D01*
X56114784Y-40950583D01*
X51608600Y-40950583D01*
X51608600Y-40297094D01*
X55669399Y-40297094D01*
X55705247Y-40627018D01*
X55762537Y-40765328D01*
X55938007Y-40773806D01*
X56339866Y-40371947D01*
X56693420Y-40371947D01*
X57095279Y-40773806D01*
X57270749Y-40765328D01*
X57363887Y-40446800D01*
X57328039Y-40116876D01*
X57270749Y-39978566D01*
X57095279Y-39970088D01*
X56693420Y-40371947D01*
X56339866Y-40371947D01*
X55938007Y-39970088D01*
X55762537Y-39978566D01*
X55669399Y-40297094D01*
X51608600Y-40297094D01*
X51608600Y-40010000D01*
X52163800Y-40010000D01*
X52163800Y-40080000D01*
X52169250Y-40108300D01*
X52189250Y-40158300D01*
X52217163Y-40193019D01*
X52245056Y-40204720D01*
X52295056Y-40214720D01*
X52316843Y-40215892D01*
X53536843Y-40105892D01*
X53540483Y-40105476D01*
X54620483Y-39955476D01*
X54627953Y-39954055D01*
X54957953Y-39874055D01*
X54993882Y-39853882D01*
X55023882Y-39823882D01*
X55041622Y-39793311D01*
X56114784Y-39793311D01*
X56516643Y-40195170D01*
X56918502Y-39793311D01*
X56910024Y-39617841D01*
X56591496Y-39524703D01*
X56261572Y-39560551D01*
X56123262Y-39617841D01*
X56114784Y-39793311D01*
X55041622Y-39793311D01*
X55043515Y-39790050D01*
X55073515Y-39680050D01*
X55076200Y-39660000D01*
X55076200Y-39630000D01*
X55068192Y-39595996D01*
X55049590Y-39572145D01*
X54932226Y-39471548D01*
X55015629Y-39441761D01*
X55031388Y-39433980D01*
X55053019Y-39412837D01*
X55064720Y-39384944D01*
X55074720Y-39334944D01*
X55076200Y-39320000D01*
X55076200Y-39250000D01*
X55074720Y-39235056D01*
X55064720Y-39185056D01*
X55052897Y-39156984D01*
X55031206Y-39135902D01*
X54891206Y-39045902D01*
X54866187Y-39035539D01*
X54406187Y-38935539D01*
X54395844Y-38934024D01*
X53875844Y-38894024D01*
X53870000Y-38893800D01*
X52730000Y-38893800D01*
X52721348Y-38894293D01*
X52371348Y-38934293D01*
X52352305Y-38939011D01*
X52326868Y-38955379D01*
X52309803Y-38980354D01*
X52303800Y-39010000D01*
X52303800Y-39110000D01*
X52306795Y-39131155D01*
X52320793Y-39157969D01*
X52344120Y-39177224D01*
X52373101Y-39185887D01*
X52468783Y-39194585D01*
X52515922Y-39218155D01*
X52554227Y-39226083D01*
X53093170Y-39196142D01*
X53451072Y-39186200D01*
X53518223Y-39186200D01*
X53943959Y-39206002D01*
X54264046Y-39242068D01*
X54242601Y-39244160D01*
X54235056Y-39245280D01*
X53785056Y-39335280D01*
X53763705Y-39342999D01*
X53740498Y-39362398D01*
X53700498Y-39412398D01*
X53689803Y-39430354D01*
X53683800Y-39460000D01*
X53683800Y-39490000D01*
X53689250Y-39518300D01*
X53709250Y-39568300D01*
X53725636Y-39593394D01*
X53750692Y-39610338D01*
X53870692Y-39660338D01*
X53900000Y-39666200D01*
X53940000Y-39666200D01*
X53974078Y-39658155D01*
X54012712Y-39638838D01*
X54205403Y-39666764D01*
X53563223Y-39724102D01*
X53560701Y-39724370D01*
X52340701Y-39874370D01*
X52313511Y-39883104D01*
X52203511Y-39943104D01*
X52186868Y-39955379D01*
X52169803Y-39980354D01*
X52163800Y-40010000D01*
X51608600Y-40010000D01*
X51608600Y-37830000D01*
X52303800Y-37830000D01*
X52303800Y-38070000D01*
X52307269Y-38092729D01*
X52357269Y-38252729D01*
X52382055Y-38289226D01*
X52592055Y-38459226D01*
X52630549Y-38475612D01*
X52790549Y-38495612D01*
X52800000Y-38496200D01*
X53350000Y-38496200D01*
X53352720Y-38496151D01*
X53632720Y-38486151D01*
X53638061Y-38485772D01*
X54108061Y-38435772D01*
X54120394Y-38433420D01*
X54480394Y-38333420D01*
X54503515Y-38322553D01*
X54639848Y-38227712D01*
X69034285Y-38227712D01*
X69120381Y-38380843D01*
X69674380Y-38507597D01*
X69801134Y-37953598D01*
X69700676Y-37809481D01*
X69381370Y-37899918D01*
X69120979Y-38105664D01*
X69034285Y-38227712D01*
X54639848Y-38227712D01*
X54733515Y-38162553D01*
X54752425Y-38143698D01*
X54822425Y-38043698D01*
X54830197Y-38029646D01*
X54836200Y-38000000D01*
X54836200Y-37900000D01*
X54835612Y-37890549D01*
X54825612Y-37810549D01*
X54810398Y-37773540D01*
X54710398Y-37643540D01*
X54684078Y-37621845D01*
X54584078Y-37571845D01*
X54552105Y-37563829D01*
X54522305Y-37569011D01*
X54503880Y-37580867D01*
X54496966Y-37553641D01*
X54477544Y-37530452D01*
X54450631Y-37516646D01*
X54130631Y-37426646D01*
X54117735Y-37424194D01*
X53627735Y-37374194D01*
X53616690Y-37373872D01*
X53156690Y-37393872D01*
X53140460Y-37396348D01*
X52650460Y-37526348D01*
X52629090Y-37535713D01*
X52409090Y-37675713D01*
X52389851Y-37693218D01*
X52319851Y-37783218D01*
X52309803Y-37800354D01*
X52303800Y-37830000D01*
X51608600Y-37830000D01*
X51608600Y-36570000D01*
X52303800Y-36570000D01*
X52303800Y-36600000D01*
X52314659Y-36639205D01*
X52344659Y-36689205D01*
X52369555Y-36714580D01*
X52397866Y-36725228D01*
X52707866Y-36775228D01*
X52717280Y-36776151D01*
X52997280Y-36786151D01*
X53000000Y-36786200D01*
X53996735Y-36786200D01*
X54273800Y-36809948D01*
X54273800Y-36843695D01*
X54234837Y-37077473D01*
X54235393Y-37105501D01*
X54247302Y-37133306D01*
X54269090Y-37154287D01*
X54379090Y-37224287D01*
X54406436Y-37234983D01*
X54436677Y-37234353D01*
X54464290Y-37222006D01*
X54534290Y-37172006D01*
X54558155Y-37144078D01*
X54658155Y-36944078D01*
X54665678Y-36901097D01*
X54648050Y-36751258D01*
X61439958Y-36751258D01*
X61448436Y-36926728D01*
X61766964Y-37019866D01*
X62096888Y-36984018D01*
X62235198Y-36926728D01*
X62243676Y-36751258D01*
X61841817Y-36349399D01*
X61439958Y-36751258D01*
X54648050Y-36751258D01*
X54645678Y-36731097D01*
X54640599Y-36711327D01*
X54623882Y-36686118D01*
X54433882Y-36496118D01*
X54413717Y-36481665D01*
X54384475Y-36473931D01*
X54214819Y-36463951D01*
X53785303Y-36433985D01*
X53781524Y-36433815D01*
X53281524Y-36423815D01*
X53280000Y-36423800D01*
X52450000Y-36423800D01*
X52425903Y-36427710D01*
X52365903Y-36447710D01*
X52348612Y-36456020D01*
X52326981Y-36477163D01*
X52315280Y-36505056D01*
X52305280Y-36555056D01*
X52303800Y-36570000D01*
X51608600Y-36570000D01*
X51608600Y-35510549D01*
X52064388Y-35510549D01*
X52069250Y-35548300D01*
X52089250Y-35598300D01*
X52097656Y-35613814D01*
X52119614Y-35634617D01*
X52199614Y-35684617D01*
X52226259Y-35694951D01*
X52256502Y-35694392D01*
X52284144Y-35682111D01*
X52304831Y-35660043D01*
X52507255Y-35332309D01*
X52684878Y-35199091D01*
X53162421Y-35055829D01*
X53451279Y-35046200D01*
X53585889Y-35046200D01*
X53945616Y-35085089D01*
X54289233Y-35180539D01*
X54394226Y-35245149D01*
X54403800Y-35261107D01*
X54403800Y-35422087D01*
X54325633Y-35514467D01*
X53965090Y-35634648D01*
X53687382Y-35653800D01*
X53653228Y-35653800D01*
X53545839Y-35538150D01*
X53519646Y-35519803D01*
X53490000Y-35513800D01*
X53450000Y-35513800D01*
X53435056Y-35515280D01*
X53385056Y-35525280D01*
X53353035Y-35539994D01*
X53333389Y-35562994D01*
X53283389Y-35652994D01*
X53273800Y-35690000D01*
X53273800Y-35940000D01*
X53285713Y-35980910D01*
X53355713Y-36090910D01*
X53372210Y-36109351D01*
X53399066Y-36123268D01*
X53469066Y-36143268D01*
X53484073Y-36145969D01*
X53514097Y-36142290D01*
X53647659Y-36097769D01*
X60994573Y-36097769D01*
X61030421Y-36427693D01*
X61087711Y-36566003D01*
X61263181Y-36574481D01*
X61665040Y-36172622D01*
X62018594Y-36172622D01*
X62420453Y-36574481D01*
X62595923Y-36566003D01*
X62689061Y-36247475D01*
X62653213Y-35917551D01*
X62595923Y-35779241D01*
X62420453Y-35770763D01*
X62018594Y-36172622D01*
X61665040Y-36172622D01*
X61263181Y-35770763D01*
X61087711Y-35779241D01*
X60994573Y-36097769D01*
X53647659Y-36097769D01*
X53718333Y-36074211D01*
X54322327Y-35975196D01*
X54342761Y-35968798D01*
X54552761Y-35868798D01*
X54580708Y-35846054D01*
X54771932Y-35593986D01*
X61439958Y-35593986D01*
X61841817Y-35995845D01*
X62243676Y-35593986D01*
X62235198Y-35418516D01*
X61916670Y-35325378D01*
X61586746Y-35361226D01*
X61448436Y-35418516D01*
X61439958Y-35593986D01*
X54771932Y-35593986D01*
X54800708Y-35556054D01*
X54815822Y-35517582D01*
X54835822Y-35317582D01*
X54835887Y-35303101D01*
X54825887Y-35193101D01*
X54811345Y-35154798D01*
X54671345Y-34964798D01*
X54645008Y-34942318D01*
X54355008Y-34792318D01*
X54337649Y-34785872D01*
X53917649Y-34685872D01*
X53908118Y-34684234D01*
X53628118Y-34654234D01*
X53620000Y-34653800D01*
X53590000Y-34653800D01*
X53583492Y-34654078D01*
X53233492Y-34684078D01*
X53222165Y-34685917D01*
X52682165Y-34815917D01*
X52662994Y-34823389D01*
X52302994Y-35023389D01*
X52276598Y-35047732D01*
X52096598Y-35317732D01*
X52084388Y-35350549D01*
X52064388Y-35510549D01*
X51608600Y-35510549D01*
X51608600Y-34585890D01*
X56114784Y-34585890D01*
X56123262Y-34761360D01*
X56441790Y-34854498D01*
X56771714Y-34818650D01*
X56910024Y-34761360D01*
X56918502Y-34585890D01*
X56516643Y-34184031D01*
X56114784Y-34585890D01*
X51608600Y-34585890D01*
X51608600Y-33932401D01*
X55669399Y-33932401D01*
X55705247Y-34262325D01*
X55762537Y-34400635D01*
X55938007Y-34409113D01*
X56339866Y-34007254D01*
X56693420Y-34007254D01*
X57095279Y-34409113D01*
X57270749Y-34400635D01*
X57323789Y-34219238D01*
X67833207Y-34219238D01*
X67902165Y-34543860D01*
X68090103Y-34817383D01*
X68206103Y-34912017D01*
X68214115Y-34908191D01*
X68604076Y-34908191D01*
X68694708Y-35058681D01*
X69019330Y-34989723D01*
X69292853Y-34801785D01*
X69387487Y-34685785D01*
X69311786Y-34527257D01*
X68767465Y-34363869D01*
X68604076Y-34908191D01*
X68214115Y-34908191D01*
X68364631Y-34836316D01*
X68528019Y-34291995D01*
X67983697Y-34128606D01*
X67833207Y-34219238D01*
X57323789Y-34219238D01*
X57351513Y-34124423D01*
X68839339Y-34124423D01*
X69383661Y-34287812D01*
X69534151Y-34197180D01*
X69465193Y-33872558D01*
X69277255Y-33599035D01*
X69161255Y-33504401D01*
X69002727Y-33580102D01*
X68839339Y-34124423D01*
X57351513Y-34124423D01*
X57363887Y-34082107D01*
X57328039Y-33752183D01*
X57319113Y-33730633D01*
X67979871Y-33730633D01*
X68055572Y-33889161D01*
X68599893Y-34052549D01*
X68763282Y-33508227D01*
X68672650Y-33357737D01*
X68348028Y-33426695D01*
X68074505Y-33614633D01*
X67979871Y-33730633D01*
X57319113Y-33730633D01*
X57270749Y-33613873D01*
X57095279Y-33605395D01*
X56693420Y-34007254D01*
X56339866Y-34007254D01*
X55938007Y-33605395D01*
X55762537Y-33613873D01*
X55669399Y-33932401D01*
X51608600Y-33932401D01*
X51608600Y-33428618D01*
X56114784Y-33428618D01*
X56516643Y-33830477D01*
X56918502Y-33428618D01*
X56910024Y-33253148D01*
X56591496Y-33160010D01*
X56261572Y-33195858D01*
X56123262Y-33253148D01*
X56114784Y-33428618D01*
X51608600Y-33428618D01*
X51608600Y-28221203D01*
X56114784Y-28221203D01*
X56123262Y-28396673D01*
X56441790Y-28489811D01*
X56771714Y-28453963D01*
X56910024Y-28396673D01*
X56918502Y-28221203D01*
X56516643Y-27819344D01*
X56114784Y-28221203D01*
X51608600Y-28221203D01*
X51608600Y-25245338D01*
X51704747Y-25245338D01*
X51717258Y-25337009D01*
X51764450Y-25416590D01*
X53776340Y-27641967D01*
X53844975Y-27694117D01*
X53934292Y-27718256D01*
X54025963Y-27705745D01*
X54105544Y-27658553D01*
X54206022Y-27567714D01*
X55669399Y-27567714D01*
X55705247Y-27897638D01*
X55762537Y-28035948D01*
X55938007Y-28044426D01*
X56339866Y-27642567D01*
X56693420Y-27642567D01*
X57095279Y-28044426D01*
X57270749Y-28035948D01*
X57363887Y-27717420D01*
X57328039Y-27387496D01*
X57270749Y-27249186D01*
X57095279Y-27240708D01*
X56693420Y-27642567D01*
X56339866Y-27642567D01*
X55938007Y-27240708D01*
X55762537Y-27249186D01*
X55669399Y-27567714D01*
X54206022Y-27567714D01*
X54763262Y-27063931D01*
X56114784Y-27063931D01*
X56516643Y-27465790D01*
X56918502Y-27063931D01*
X56910024Y-26888461D01*
X56591496Y-26795323D01*
X56261572Y-26831171D01*
X56123262Y-26888461D01*
X56114784Y-27063931D01*
X54763262Y-27063931D01*
X56775996Y-25244286D01*
X56828146Y-25175651D01*
X56852285Y-25086334D01*
X56839774Y-24994663D01*
X56792582Y-24915082D01*
X54780692Y-22689705D01*
X54712057Y-22637555D01*
X54622740Y-22613416D01*
X54531069Y-22625927D01*
X54451488Y-22673119D01*
X53449024Y-23579414D01*
X53410293Y-23485679D01*
X53275778Y-23350930D01*
X53099936Y-23277914D01*
X52909537Y-23277747D01*
X52733568Y-23350456D01*
X52598819Y-23484971D01*
X52525803Y-23660813D01*
X52525636Y-23851212D01*
X52598345Y-24027181D01*
X52732860Y-24161930D01*
X52782086Y-24182370D01*
X51781036Y-25087386D01*
X51728886Y-25156021D01*
X51704747Y-25245338D01*
X51608600Y-25245338D01*
X51608600Y-21856512D01*
X56114784Y-21856512D01*
X56123262Y-22031982D01*
X56441790Y-22125120D01*
X56771714Y-22089272D01*
X56910024Y-22031982D01*
X56918502Y-21856512D01*
X56516643Y-21454653D01*
X56114784Y-21856512D01*
X51608600Y-21856512D01*
X51608600Y-21203023D01*
X55669399Y-21203023D01*
X55705247Y-21532947D01*
X55762537Y-21671257D01*
X55938007Y-21679735D01*
X56339866Y-21277876D01*
X56693420Y-21277876D01*
X57095279Y-21679735D01*
X57270749Y-21671257D01*
X57363887Y-21352729D01*
X57328039Y-21022805D01*
X57270749Y-20884495D01*
X57095279Y-20876017D01*
X56693420Y-21277876D01*
X56339866Y-21277876D01*
X55938007Y-20876017D01*
X55762537Y-20884495D01*
X55669399Y-21203023D01*
X51608600Y-21203023D01*
X51608600Y-20699240D01*
X56114784Y-20699240D01*
X56516643Y-21101099D01*
X56918502Y-20699240D01*
X56910024Y-20523770D01*
X56591496Y-20430632D01*
X56261572Y-20466480D01*
X56123262Y-20523770D01*
X56114784Y-20699240D01*
X51608600Y-20699240D01*
X51608600Y-18998600D01*
X59491400Y-18998600D01*
X59491400Y-31280000D01*
X59501539Y-31330972D01*
X59510792Y-31382124D01*
X59512126Y-31384198D01*
X59512607Y-31386616D01*
X59541479Y-31429826D01*
X59569604Y-31473545D01*
X59571631Y-31474951D01*
X59573000Y-31477000D01*
X59616204Y-31505868D01*
X59658924Y-31535500D01*
X59661334Y-31536023D01*
X59663384Y-31537393D01*
X59714364Y-31547533D01*
X59765156Y-31558558D01*
X60915156Y-31578558D01*
X60917582Y-31578119D01*
X60920000Y-31578600D01*
X62220000Y-31578600D01*
X62235146Y-31575587D01*
X62250527Y-31576922D01*
X63520527Y-31436923D01*
X63547614Y-31428361D01*
X63575826Y-31425051D01*
X64625826Y-31085051D01*
X64671767Y-31059383D01*
X64717933Y-31034377D01*
X65717933Y-30204377D01*
X65751390Y-30163146D01*
X65785238Y-30122198D01*
X66475238Y-28842198D01*
X66484590Y-28811755D01*
X66498798Y-28783252D01*
X66702121Y-28037155D01*
X71511880Y-28037155D01*
X71779643Y-28233210D01*
X72102051Y-28311873D01*
X72251605Y-28305115D01*
X72319338Y-28143023D01*
X72078372Y-27628322D01*
X71563671Y-27869288D01*
X71511880Y-28037155D01*
X66702121Y-28037155D01*
X66868785Y-27425585D01*
X71288821Y-27425585D01*
X71295579Y-27575139D01*
X71457671Y-27642872D01*
X71715164Y-27522322D01*
X72304788Y-27522322D01*
X72545754Y-28037023D01*
X72713621Y-28088814D01*
X72909676Y-27821051D01*
X72988339Y-27498643D01*
X72981581Y-27349089D01*
X72819489Y-27281356D01*
X72304788Y-27522322D01*
X71715164Y-27522322D01*
X71972372Y-27401906D01*
X71731406Y-26887205D01*
X71563539Y-26835414D01*
X71367484Y-27103177D01*
X71288821Y-27425585D01*
X66868785Y-27425585D01*
X67044389Y-26781205D01*
X71957822Y-26781205D01*
X72198788Y-27295906D01*
X72713489Y-27054940D01*
X72765280Y-26887073D01*
X72497517Y-26691018D01*
X72175109Y-26612355D01*
X72025555Y-26619113D01*
X71957822Y-26781205D01*
X67044389Y-26781205D01*
X67676682Y-24461015D01*
X68146983Y-23059912D01*
X68411920Y-22556531D01*
X74161549Y-22556531D01*
X74337020Y-22838213D01*
X74606930Y-23031303D01*
X74748239Y-23080735D01*
X74871473Y-22955536D01*
X74839557Y-22388118D01*
X74272139Y-22420034D01*
X74161549Y-22556531D01*
X68411920Y-22556531D01*
X68507947Y-22374078D01*
X75089163Y-22374078D01*
X75121079Y-22941496D01*
X75257576Y-23052086D01*
X75539258Y-22876615D01*
X75732348Y-22606705D01*
X75781780Y-22465396D01*
X75656581Y-22342162D01*
X75089163Y-22374078D01*
X68507947Y-22374078D01*
X68679992Y-22047194D01*
X74132900Y-22047194D01*
X74258099Y-22170428D01*
X74825517Y-22138512D01*
X74793601Y-21571094D01*
X74776272Y-21557054D01*
X75043207Y-21557054D01*
X75075123Y-22124472D01*
X75642541Y-22092556D01*
X75753131Y-21956059D01*
X75577660Y-21674377D01*
X75307750Y-21481287D01*
X75166441Y-21431855D01*
X75043207Y-21557054D01*
X74776272Y-21557054D01*
X74657104Y-21460504D01*
X74375422Y-21635975D01*
X74182332Y-21905885D01*
X74132900Y-22047194D01*
X68679992Y-22047194D01*
X68823345Y-21774824D01*
X69743824Y-20652989D01*
X70950546Y-19752736D01*
X72463744Y-19097338D01*
X74298960Y-18728353D01*
X76488946Y-18708799D01*
X78901400Y-19097322D01*
G36*
X82153222Y-50158407D02*
X82119422Y-50192207D01*
X82153222Y-50226007D01*
X82009222Y-50370007D01*
X81805358Y-50370007D01*
X81661358Y-50226007D01*
X81695158Y-50192207D01*
X81661358Y-50158407D01*
X81805358Y-50014407D01*
X82009222Y-50014407D01*
X82153222Y-50158407D01*
X82153222Y-50158407D01*
G37*
X82153222Y-50158407D02*
X82119422Y-50192207D01*
X82153222Y-50226007D01*
X82009222Y-50370007D01*
X81805358Y-50370007D01*
X81661358Y-50226007D01*
X81695158Y-50192207D01*
X81661358Y-50158407D01*
X81805358Y-50014407D01*
X82009222Y-50014407D01*
X82153222Y-50158407D01*
G36*
X50266772Y-50158407D02*
X50232972Y-50192207D01*
X50266772Y-50226007D01*
X50122772Y-50370007D01*
X49918908Y-50370007D01*
X49774908Y-50226007D01*
X49808708Y-50192207D01*
X49774908Y-50158407D01*
X49918908Y-50014407D01*
X50122772Y-50014407D01*
X50266772Y-50158407D01*
X50266772Y-50158407D01*
G37*
X50266772Y-50158407D02*
X50232972Y-50192207D01*
X50266772Y-50226007D01*
X50122772Y-50370007D01*
X49918908Y-50370007D01*
X49774908Y-50226007D01*
X49808708Y-50192207D01*
X49774908Y-50158407D01*
X49918908Y-50014407D01*
X50122772Y-50014407D01*
X50266772Y-50158407D01*
G36*
X82153222Y-46158407D02*
X82119422Y-46192207D01*
X82153222Y-46226007D01*
X82009222Y-46370007D01*
X81805358Y-46370007D01*
X81661358Y-46226007D01*
X81695158Y-46192207D01*
X81661358Y-46158407D01*
X81805358Y-46014407D01*
X82009222Y-46014407D01*
X82153222Y-46158407D01*
X82153222Y-46158407D01*
G37*
X82153222Y-46158407D02*
X82119422Y-46192207D01*
X82153222Y-46226007D01*
X82009222Y-46370007D01*
X81805358Y-46370007D01*
X81661358Y-46226007D01*
X81695158Y-46192207D01*
X81661358Y-46158407D01*
X81805358Y-46014407D01*
X82009222Y-46014407D01*
X82153222Y-46158407D01*
G36*
X50266772Y-46158407D02*
X50232972Y-46192207D01*
X50266772Y-46226007D01*
X50122772Y-46370007D01*
X49918908Y-46370007D01*
X49774908Y-46226007D01*
X49808708Y-46192207D01*
X49774908Y-46158407D01*
X49918908Y-46014407D01*
X50122772Y-46014407D01*
X50266772Y-46158407D01*
X50266772Y-46158407D01*
G37*
X50266772Y-46158407D02*
X50232972Y-46192207D01*
X50266772Y-46226007D01*
X50122772Y-46370007D01*
X49918908Y-46370007D01*
X49774908Y-46226007D01*
X49808708Y-46192207D01*
X49774908Y-46158407D01*
X49918908Y-46014407D01*
X50122772Y-46014407D01*
X50266772Y-46158407D01*
M02*
