G04 #@! TF.FileFunction,Legend,Bot*
%FSLAX46Y46*%
G04 Gerber Fmt 4.6, Leading zero omitted, Abs format (unit mm)*
G04 Created by KiCad (PCBNEW 4.0.0-rc2-stable) date 3/3/2016 3:46:00 PM*
%MOMM*%
G01*
G04 APERTURE LIST*
%ADD10C,0.150000*%
%ADD11C,0.025400*%
G04 APERTURE END LIST*
D10*
D11*
G36*
X67074966Y-32724709D02*
X67079018Y-32727709D01*
X67084400Y-32728906D01*
X67086090Y-32728906D01*
X67091031Y-32727905D01*
X67095447Y-32724793D01*
X80016522Y-18645152D01*
X82962390Y-18645152D01*
X82962390Y-51140860D01*
X74512439Y-51140860D01*
X74511790Y-36698852D01*
X74510789Y-36693911D01*
X74507945Y-36689749D01*
X74503705Y-36687021D01*
X74498739Y-36686158D01*
X74493827Y-36687295D01*
X74489908Y-36690079D01*
X67588109Y-43913455D01*
X66673697Y-43913455D01*
X59819953Y-36690066D01*
X59815826Y-36687170D01*
X59810898Y-36686108D01*
X59805945Y-36687047D01*
X59801747Y-36689839D01*
X59798967Y-36694044D01*
X59798040Y-36698806D01*
X59797238Y-51140860D01*
X51347280Y-51140860D01*
X51347280Y-18645152D01*
X54384356Y-18645152D01*
X67074966Y-32724709D01*
X67074966Y-32724709D01*
G37*
X67074966Y-32724709D02*
X67079018Y-32727709D01*
X67084400Y-32728906D01*
X67086090Y-32728906D01*
X67091031Y-32727905D01*
X67095447Y-32724793D01*
X80016522Y-18645152D01*
X82962390Y-18645152D01*
X82962390Y-51140860D01*
X74512439Y-51140860D01*
X74511790Y-36698852D01*
X74510789Y-36693911D01*
X74507945Y-36689749D01*
X74503705Y-36687021D01*
X74498739Y-36686158D01*
X74493827Y-36687295D01*
X74489908Y-36690079D01*
X67588109Y-43913455D01*
X66673697Y-43913455D01*
X59819953Y-36690066D01*
X59815826Y-36687170D01*
X59810898Y-36686108D01*
X59805945Y-36687047D01*
X59801747Y-36689839D01*
X59798967Y-36694044D01*
X59798040Y-36698806D01*
X59797238Y-51140860D01*
X51347280Y-51140860D01*
X51347280Y-18645152D01*
X54384356Y-18645152D01*
X67074966Y-32724709D01*
M02*
