G04 #@! TF.FileFunction,Copper,L1,Top,Signal*
%FSLAX46Y46*%
G04 Gerber Fmt 4.6, Leading zero omitted, Abs format (unit mm)*
G04 Created by KiCad (PCBNEW 4.0.0-rc2-stable) date 3/3/2016 3:45:24 PM*
%MOMM*%
G01*
G04 APERTURE LIST*
%ADD10C,0.150000*%
%ADD11C,0.500000*%
%ADD12R,0.500000X1.800000*%
%ADD13R,0.320000X2.300000*%
%ADD14R,0.800000X2.300000*%
%ADD15R,1.800000X0.500000*%
%ADD16R,2.300000X0.320000*%
%ADD17R,2.300000X0.800000*%
%ADD18R,4.000000X1.000000*%
%ADD19C,0.600000*%
%ADD20C,0.254000*%
%ADD21C,0.152400*%
G04 APERTURE END LIST*
D10*
G36*
X73424681Y-20819821D02*
X74766943Y-22019126D01*
X74433803Y-22391977D01*
X73091541Y-21192672D01*
X73424681Y-20819821D01*
X73424681Y-20819821D01*
G37*
G36*
X71912358Y-22137198D02*
X73627472Y-23669642D01*
X73414262Y-23908266D01*
X71699148Y-22375822D01*
X71912358Y-22137198D01*
X71912358Y-22137198D01*
G37*
G36*
X72905115Y-21026102D02*
X74620229Y-22558547D01*
X74087205Y-23155108D01*
X72372091Y-21622663D01*
X72905115Y-21026102D01*
X72905115Y-21026102D01*
G37*
D11*
X74957340Y-22256295D03*
D10*
G36*
X70181161Y-26699874D02*
X71873546Y-27312928D01*
X71703253Y-27783034D01*
X70010868Y-27169980D01*
X70181161Y-26699874D01*
X70181161Y-26699874D01*
G37*
G36*
X69268342Y-28485751D02*
X71430833Y-29269098D01*
X71321846Y-29569967D01*
X69159355Y-28786620D01*
X69268342Y-28485751D01*
X69268342Y-28485751D01*
G37*
G36*
X69775815Y-27084834D02*
X71938306Y-27868181D01*
X71665837Y-28620352D01*
X69503346Y-27837005D01*
X69775815Y-27084834D01*
X69775815Y-27084834D01*
G37*
D11*
X72138580Y-27462114D03*
D10*
G36*
X67732383Y-32335368D02*
X68585517Y-33920348D01*
X68145245Y-34157330D01*
X67292111Y-32572350D01*
X67732383Y-32335368D01*
X67732383Y-32335368D01*
G37*
G36*
X65861609Y-33058420D02*
X66951725Y-35083672D01*
X66669951Y-35235340D01*
X65579835Y-33210088D01*
X65861609Y-33058420D01*
X65861609Y-33058420D01*
G37*
G36*
X67173620Y-32352213D02*
X68263736Y-34377466D01*
X67559300Y-34756637D01*
X66469184Y-32731384D01*
X67173620Y-32352213D01*
X67173620Y-32352213D01*
G37*
D11*
X68683679Y-34208209D03*
D12*
X61641817Y-34972622D03*
D13*
X59741817Y-34972622D03*
D14*
X60991817Y-34972622D03*
D11*
X61841817Y-36172622D03*
D10*
G36*
X67963062Y-39731308D02*
X69487671Y-38774454D01*
X69753464Y-39197956D01*
X68228855Y-40154810D01*
X67963062Y-39731308D01*
X67963062Y-39731308D01*
G37*
G36*
X68809166Y-41549743D02*
X70757277Y-40327097D01*
X70927384Y-40598139D01*
X68979273Y-41820785D01*
X68809166Y-41549743D01*
X68809166Y-41549743D01*
G37*
G36*
X68017104Y-40287706D02*
X69965215Y-39065060D01*
X70390484Y-39742664D01*
X68442373Y-40965310D01*
X68017104Y-40287706D01*
X68017104Y-40287706D01*
G37*
D11*
X69768352Y-38657328D03*
D10*
G36*
X71335662Y-45105062D02*
X72860271Y-44148208D01*
X73126064Y-44571710D01*
X71601455Y-45528564D01*
X71335662Y-45105062D01*
X71335662Y-45105062D01*
G37*
G36*
X72181766Y-46923497D02*
X74129877Y-45700851D01*
X74299984Y-45971893D01*
X72351873Y-47194539D01*
X72181766Y-46923497D01*
X72181766Y-46923497D01*
G37*
G36*
X71389704Y-45661460D02*
X73337815Y-44438814D01*
X73763084Y-45116418D01*
X71814973Y-46339064D01*
X71389704Y-45661460D01*
X71389704Y-45661460D01*
G37*
D11*
X73140952Y-44031082D03*
D15*
X55316643Y-21477876D03*
D16*
X55316643Y-23377876D03*
D17*
X55316643Y-22127876D03*
D11*
X56516643Y-21277876D03*
D15*
X55316643Y-27842567D03*
D16*
X55316643Y-29742567D03*
D17*
X55316643Y-28492567D03*
D11*
X56516643Y-27642567D03*
D15*
X55316643Y-34207254D03*
D16*
X55316643Y-36107254D03*
D17*
X55316643Y-34857254D03*
D11*
X56516643Y-34007254D03*
D15*
X55316643Y-40571947D03*
D16*
X55316643Y-42471947D03*
D17*
X55316643Y-41221947D03*
D11*
X56516643Y-40371947D03*
D15*
X55316643Y-46936636D03*
D16*
X55316643Y-48836636D03*
D17*
X55316643Y-47586636D03*
D11*
X56516643Y-46736636D03*
D18*
X82907290Y-50192207D03*
X82907290Y-48192207D03*
X82907290Y-46192207D03*
D19*
X81907290Y-50192207D03*
X81907290Y-48192207D03*
X81907290Y-46192207D03*
D18*
X49020840Y-46192207D03*
X49020840Y-48192207D03*
X49020840Y-50192207D03*
D19*
X50020840Y-46192207D03*
X50020840Y-48192207D03*
X50020840Y-50192207D03*
D11*
X53004319Y-23756430D03*
D20*
X73930000Y-21610000D02*
X73500000Y-22090000D01*
X73930000Y-21610000D02*
X73500000Y-22090000D01*
X73930000Y-21610000D02*
X73500000Y-22090000D01*
X73930000Y-21610000D02*
X73500000Y-22090000D01*
X73930000Y-21610000D02*
X73500000Y-22090000D01*
X73930000Y-21610000D02*
X73500000Y-22090000D01*
X73930000Y-21610000D02*
X73500000Y-22090000D01*
X73930000Y-21610000D02*
X73500000Y-22090000D01*
X73930000Y-21610000D02*
X73500000Y-22090000D01*
X73500000Y-22090000D02*
X74960000Y-22260000D01*
X73500000Y-22090000D02*
X74960000Y-22260000D01*
X73500000Y-22090000D02*
X74960000Y-22260000D01*
X73500000Y-22090000D02*
X74960000Y-22260000D01*
X73500000Y-22090000D02*
X74960000Y-22260000D01*
X73500000Y-22090000D02*
X74960000Y-22260000D01*
X73500000Y-22090000D02*
X74960000Y-22260000D01*
X73500000Y-22090000D02*
X74960000Y-22260000D01*
X73500000Y-22090000D02*
X74960000Y-22260000D01*
X70940000Y-27240000D02*
X70720000Y-27850000D01*
X70940000Y-27240000D02*
X70720000Y-27850000D01*
X70940000Y-27240000D02*
X70720000Y-27850000D01*
X70940000Y-27240000D02*
X70720000Y-27850000D01*
X70940000Y-27240000D02*
X70720000Y-27850000D01*
X70940000Y-27240000D02*
X70720000Y-27850000D01*
X70940000Y-27240000D02*
X70720000Y-27850000D01*
X70940000Y-27240000D02*
X70720000Y-27850000D01*
X70940000Y-27240000D02*
X70720000Y-27850000D01*
X70720000Y-27850000D02*
X72140000Y-27460000D01*
X70720000Y-27850000D02*
X72140000Y-27460000D01*
X70720000Y-27850000D02*
X72140000Y-27460000D01*
X70720000Y-27850000D02*
X72140000Y-27460000D01*
X70720000Y-27850000D02*
X72140000Y-27460000D01*
X70720000Y-27850000D02*
X72140000Y-27460000D01*
X70720000Y-27850000D02*
X72140000Y-27460000D01*
X70720000Y-27850000D02*
X72140000Y-27460000D01*
X70720000Y-27850000D02*
X72140000Y-27460000D01*
X67940000Y-33250000D02*
X67370000Y-33550000D01*
X67940000Y-33250000D02*
X67370000Y-33550000D01*
X67940000Y-33250000D02*
X67370000Y-33550000D01*
X67940000Y-33250000D02*
X67370000Y-33550000D01*
X67940000Y-33250000D02*
X67370000Y-33550000D01*
X67940000Y-33250000D02*
X67370000Y-33550000D01*
X67940000Y-33250000D02*
X67370000Y-33550000D01*
X67940000Y-33250000D02*
X67370000Y-33550000D01*
X67940000Y-33250000D02*
X67370000Y-33550000D01*
X67370000Y-33550000D02*
X68680000Y-34210000D01*
X67370000Y-33550000D02*
X68680000Y-34210000D01*
X67370000Y-33550000D02*
X68680000Y-34210000D01*
X67370000Y-33550000D02*
X68680000Y-34210000D01*
X67370000Y-33550000D02*
X68680000Y-34210000D01*
X67370000Y-33550000D02*
X68680000Y-34210000D01*
X67370000Y-33550000D02*
X68680000Y-34210000D01*
X67370000Y-33550000D02*
X68680000Y-34210000D01*
X67370000Y-33550000D02*
X68680000Y-34210000D01*
X61640000Y-34970000D02*
X60990000Y-34970000D01*
X61640000Y-34970000D02*
X60990000Y-34970000D01*
X61640000Y-34970000D02*
X60990000Y-34970000D01*
X61640000Y-34970000D02*
X60990000Y-34970000D01*
X61640000Y-34970000D02*
X60990000Y-34970000D01*
X61640000Y-34970000D02*
X60990000Y-34970000D01*
X61640000Y-34970000D02*
X60990000Y-34970000D01*
X61640000Y-34970000D02*
X60990000Y-34970000D01*
X61640000Y-34970000D02*
X60990000Y-34970000D01*
X60990000Y-34970000D02*
X61840000Y-36170000D01*
X60990000Y-34970000D02*
X61840000Y-36170000D01*
X60990000Y-34970000D02*
X61840000Y-36170000D01*
X60990000Y-34970000D02*
X61840000Y-36170000D01*
X60990000Y-34970000D02*
X61840000Y-36170000D01*
X60990000Y-34970000D02*
X61840000Y-36170000D01*
X60990000Y-34970000D02*
X61840000Y-36170000D01*
X60990000Y-34970000D02*
X61840000Y-36170000D01*
X60990000Y-34970000D02*
X61840000Y-36170000D01*
X68860000Y-39460000D02*
X69200000Y-40020000D01*
X68860000Y-39460000D02*
X69200000Y-40020000D01*
X68860000Y-39460000D02*
X69200000Y-40020000D01*
X68860000Y-39460000D02*
X69200000Y-40020000D01*
X68860000Y-39460000D02*
X69200000Y-40020000D01*
X68860000Y-39460000D02*
X69200000Y-40020000D01*
X68860000Y-39460000D02*
X69200000Y-40020000D01*
X68860000Y-39460000D02*
X69200000Y-40020000D01*
X68860000Y-39460000D02*
X69200000Y-40020000D01*
X69200000Y-40020000D02*
X69770000Y-38660000D01*
X69200000Y-40020000D02*
X69770000Y-38660000D01*
X69200000Y-40020000D02*
X69770000Y-38660000D01*
X69200000Y-40020000D02*
X69770000Y-38660000D01*
X69200000Y-40020000D02*
X69770000Y-38660000D01*
X69200000Y-40020000D02*
X69770000Y-38660000D01*
X69200000Y-40020000D02*
X69770000Y-38660000D01*
X69200000Y-40020000D02*
X69770000Y-38660000D01*
X69200000Y-40020000D02*
X69770000Y-38660000D01*
X72230000Y-44840000D02*
X72580000Y-45390000D01*
X72230000Y-44840000D02*
X72580000Y-45390000D01*
X72230000Y-44840000D02*
X72580000Y-45390000D01*
X72230000Y-44840000D02*
X72580000Y-45390000D01*
X72230000Y-44840000D02*
X72580000Y-45390000D01*
X72230000Y-44840000D02*
X72580000Y-45390000D01*
X72230000Y-44840000D02*
X72580000Y-45390000D01*
X72230000Y-44840000D02*
X72580000Y-45390000D01*
X72230000Y-44840000D02*
X72580000Y-45390000D01*
X72580000Y-45390000D02*
X73140000Y-44030000D01*
X72580000Y-45390000D02*
X73140000Y-44030000D01*
X72580000Y-45390000D02*
X73140000Y-44030000D01*
X72580000Y-45390000D02*
X73140000Y-44030000D01*
X72580000Y-45390000D02*
X73140000Y-44030000D01*
X72580000Y-45390000D02*
X73140000Y-44030000D01*
X72580000Y-45390000D02*
X73140000Y-44030000D01*
X72580000Y-45390000D02*
X73140000Y-44030000D01*
X72580000Y-45390000D02*
X73140000Y-44030000D01*
X55320000Y-21480000D02*
X55320000Y-22130000D01*
X55320000Y-21480000D02*
X55320000Y-22130000D01*
X55320000Y-21480000D02*
X55320000Y-22130000D01*
X55320000Y-21480000D02*
X55320000Y-22130000D01*
X55320000Y-21480000D02*
X55320000Y-22130000D01*
X55320000Y-21480000D02*
X55320000Y-22130000D01*
X55320000Y-21480000D02*
X55320000Y-22130000D01*
X55320000Y-21480000D02*
X55320000Y-22130000D01*
X55320000Y-21480000D02*
X55320000Y-22130000D01*
X55320000Y-22130000D02*
X56520000Y-21280000D01*
X55320000Y-22130000D02*
X56520000Y-21280000D01*
X55320000Y-22130000D02*
X56520000Y-21280000D01*
X55320000Y-22130000D02*
X56520000Y-21280000D01*
X55320000Y-22130000D02*
X56520000Y-21280000D01*
X55320000Y-22130000D02*
X56520000Y-21280000D01*
X55320000Y-22130000D02*
X56520000Y-21280000D01*
X55320000Y-22130000D02*
X56520000Y-21280000D01*
X55320000Y-22130000D02*
X56520000Y-21280000D01*
X55320000Y-27840000D02*
X55320000Y-28490000D01*
X55320000Y-27840000D02*
X55320000Y-28490000D01*
X55320000Y-27840000D02*
X55320000Y-28490000D01*
X55320000Y-27840000D02*
X55320000Y-28490000D01*
X55320000Y-27840000D02*
X55320000Y-28490000D01*
X55320000Y-27840000D02*
X55320000Y-28490000D01*
X55320000Y-27840000D02*
X55320000Y-28490000D01*
X55320000Y-27840000D02*
X55320000Y-28490000D01*
X55320000Y-27840000D02*
X55320000Y-28490000D01*
X55320000Y-28490000D02*
X56520000Y-27640000D01*
X55320000Y-28490000D02*
X56520000Y-27640000D01*
X55320000Y-28490000D02*
X56520000Y-27640000D01*
X55320000Y-28490000D02*
X56520000Y-27640000D01*
X55320000Y-28490000D02*
X56520000Y-27640000D01*
X55320000Y-28490000D02*
X56520000Y-27640000D01*
X55320000Y-28490000D02*
X56520000Y-27640000D01*
X55320000Y-28490000D02*
X56520000Y-27640000D01*
X55320000Y-28490000D02*
X56520000Y-27640000D01*
X55320000Y-34210000D02*
X55320000Y-34860000D01*
X55320000Y-34210000D02*
X55320000Y-34860000D01*
X55320000Y-34210000D02*
X55320000Y-34860000D01*
X55320000Y-34210000D02*
X55320000Y-34860000D01*
X55320000Y-34210000D02*
X55320000Y-34860000D01*
X55320000Y-34210000D02*
X55320000Y-34860000D01*
X55320000Y-34210000D02*
X55320000Y-34860000D01*
X55320000Y-34210000D02*
X55320000Y-34860000D01*
X55320000Y-34210000D02*
X55320000Y-34860000D01*
X55320000Y-34860000D02*
X56520000Y-34010000D01*
X55320000Y-34860000D02*
X56520000Y-34010000D01*
X55320000Y-34860000D02*
X56520000Y-34010000D01*
X55320000Y-34860000D02*
X56520000Y-34010000D01*
X55320000Y-34860000D02*
X56520000Y-34010000D01*
X55320000Y-34860000D02*
X56520000Y-34010000D01*
X55320000Y-34860000D02*
X56520000Y-34010000D01*
X55320000Y-34860000D02*
X56520000Y-34010000D01*
X55320000Y-34860000D02*
X56520000Y-34010000D01*
X55320000Y-40570000D02*
X55320000Y-41220000D01*
X55320000Y-40570000D02*
X55320000Y-41220000D01*
X55320000Y-40570000D02*
X55320000Y-41220000D01*
X55320000Y-40570000D02*
X55320000Y-41220000D01*
X55320000Y-40570000D02*
X55320000Y-41220000D01*
X55320000Y-40570000D02*
X55320000Y-41220000D01*
X55320000Y-40570000D02*
X55320000Y-41220000D01*
X55320000Y-40570000D02*
X55320000Y-41220000D01*
X55320000Y-40570000D02*
X55320000Y-41220000D01*
X55320000Y-41220000D02*
X56520000Y-40370000D01*
X55320000Y-41220000D02*
X56520000Y-40370000D01*
X55320000Y-41220000D02*
X56520000Y-40370000D01*
X55320000Y-41220000D02*
X56520000Y-40370000D01*
X55320000Y-41220000D02*
X56520000Y-40370000D01*
X55320000Y-41220000D02*
X56520000Y-40370000D01*
X55320000Y-41220000D02*
X56520000Y-40370000D01*
X55320000Y-41220000D02*
X56520000Y-40370000D01*
X55320000Y-41220000D02*
X56520000Y-40370000D01*
X55320000Y-46940000D02*
X55320000Y-47590000D01*
X55320000Y-46940000D02*
X55320000Y-47590000D01*
X55320000Y-46940000D02*
X55320000Y-47590000D01*
X55320000Y-46940000D02*
X55320000Y-47590000D01*
X55320000Y-46940000D02*
X55320000Y-47590000D01*
X55320000Y-46940000D02*
X55320000Y-47590000D01*
X55320000Y-46940000D02*
X55320000Y-47590000D01*
X55320000Y-46940000D02*
X55320000Y-47590000D01*
X55320000Y-46940000D02*
X55320000Y-47590000D01*
X55320000Y-47590000D02*
X56520000Y-46740000D01*
X55320000Y-47590000D02*
X56520000Y-46740000D01*
X55320000Y-47590000D02*
X56520000Y-46740000D01*
X55320000Y-47590000D02*
X56520000Y-46740000D01*
X55320000Y-47590000D02*
X56520000Y-46740000D01*
X55320000Y-47590000D02*
X56520000Y-46740000D01*
X55320000Y-47590000D02*
X56520000Y-46740000D01*
X55320000Y-47590000D02*
X56520000Y-46740000D01*
X55320000Y-47590000D02*
X56520000Y-46740000D01*
D21*
G36*
X78901400Y-19097322D02*
X78901400Y-24249247D01*
X77772043Y-24281514D01*
X77741230Y-24288563D01*
X77709675Y-24290422D01*
X76559675Y-24590422D01*
X76555898Y-24592254D01*
X76551713Y-24592625D01*
X76507116Y-24615910D01*
X76461865Y-24637854D01*
X76459075Y-24640993D01*
X76455352Y-24642937D01*
X75585352Y-25342938D01*
X75579319Y-25350146D01*
X75571293Y-25355042D01*
X75544622Y-25391598D01*
X75515580Y-25426295D01*
X75512764Y-25435264D01*
X75507223Y-25442859D01*
X74937223Y-26672860D01*
X74932263Y-26693339D01*
X74922533Y-26712030D01*
X74135960Y-29410274D01*
X73246716Y-31692667D01*
X72215630Y-33597721D01*
X70989277Y-35190002D01*
X70986584Y-35195438D01*
X70982189Y-35199624D01*
X70962541Y-35243974D01*
X70941023Y-35287410D01*
X70940615Y-35293462D01*
X70938157Y-35299011D01*
X70936977Y-35347486D01*
X70933718Y-35395868D01*
X70935659Y-35401619D01*
X70935511Y-35407683D01*
X70952966Y-35452908D01*
X70968475Y-35498866D01*
X70972469Y-35503436D01*
X70974653Y-35509096D01*
X75624653Y-42849096D01*
X75625443Y-42849925D01*
X75625865Y-42850993D01*
X77205865Y-45300993D01*
X77226510Y-45322321D01*
X77243000Y-45347000D01*
X77263947Y-45360997D01*
X77281470Y-45379099D01*
X77308703Y-45390902D01*
X77333384Y-45407393D01*
X77358096Y-45412308D01*
X77381210Y-45422326D01*
X77410886Y-45422809D01*
X77440000Y-45428600D01*
X84941400Y-45428600D01*
X84941400Y-45466036D01*
X84907290Y-45459129D01*
X80907290Y-45459129D01*
X80822576Y-45475069D01*
X80744772Y-45525135D01*
X80692575Y-45601527D01*
X80674212Y-45692207D01*
X80674212Y-46692207D01*
X80690152Y-46776921D01*
X80740218Y-46854725D01*
X80816610Y-46906922D01*
X80907290Y-46925285D01*
X84907290Y-46925285D01*
X84941400Y-46918867D01*
X84941400Y-47108007D01*
X83231140Y-47108007D01*
X83085090Y-47254057D01*
X83085090Y-48014407D01*
X83105090Y-48014407D01*
X83105090Y-48370007D01*
X83085090Y-48370007D01*
X83085090Y-49130357D01*
X83231140Y-49276407D01*
X84941400Y-49276407D01*
X84941400Y-49466036D01*
X84907290Y-49459129D01*
X80907290Y-49459129D01*
X80822576Y-49475069D01*
X80744772Y-49525135D01*
X80692575Y-49601527D01*
X80674212Y-49692207D01*
X80674212Y-50692207D01*
X80690152Y-50776921D01*
X80740218Y-50854725D01*
X80764622Y-50871400D01*
X80520000Y-50871400D01*
X80469726Y-50881400D01*
X71093221Y-50881400D01*
X69232126Y-47561036D01*
X71892164Y-47561036D01*
X71918826Y-47603517D01*
X72108299Y-47738106D01*
X72334854Y-47789941D01*
X72564000Y-47751131D01*
X72760852Y-47627586D01*
X72843043Y-47576002D01*
X80323090Y-47576002D01*
X80323090Y-47868357D01*
X80469140Y-48014407D01*
X81039370Y-48014407D01*
X81007878Y-48130540D01*
X81038672Y-48370007D01*
X80469140Y-48370007D01*
X80323090Y-48516057D01*
X80323090Y-48808412D01*
X80412029Y-49023130D01*
X80576368Y-49187468D01*
X80791086Y-49276407D01*
X82583440Y-49276407D01*
X82729490Y-49130357D01*
X82729490Y-48538605D01*
X82806702Y-48253874D01*
X82761837Y-47904990D01*
X82729490Y-47826897D01*
X82729490Y-47254057D01*
X82583440Y-47108007D01*
X80791086Y-47108007D01*
X80576368Y-47196946D01*
X80412029Y-47361284D01*
X80323090Y-47576002D01*
X72843043Y-47576002D01*
X73362178Y-47250190D01*
X73408245Y-47048847D01*
X73132804Y-46609971D01*
X71938231Y-47359693D01*
X71892164Y-47561036D01*
X69232126Y-47561036D01*
X67876454Y-45142395D01*
X71105593Y-45142395D01*
X71138244Y-45228963D01*
X71280136Y-45455047D01*
X71265803Y-45464042D01*
X71202523Y-45522576D01*
X71163237Y-45606342D01*
X71159635Y-45698793D01*
X71192286Y-45785361D01*
X71617555Y-46462965D01*
X71676089Y-46526244D01*
X71729551Y-46551318D01*
X71638200Y-46679922D01*
X71586364Y-46906478D01*
X71625173Y-47135623D01*
X71651835Y-47178105D01*
X71853178Y-47224172D01*
X73047751Y-46474451D01*
X73014167Y-46420939D01*
X73433999Y-46420939D01*
X73709440Y-46859815D01*
X73910783Y-46905882D01*
X74512110Y-46528486D01*
X74708962Y-46404940D01*
X74843550Y-46215468D01*
X74895386Y-45988912D01*
X74856577Y-45759767D01*
X74829915Y-45717285D01*
X74628572Y-45671218D01*
X73433999Y-46420939D01*
X73014167Y-46420939D01*
X73005224Y-46406690D01*
X73306419Y-46217658D01*
X73348946Y-46285419D01*
X74543519Y-45535697D01*
X74589586Y-45334354D01*
X74562924Y-45291873D01*
X74373451Y-45157284D01*
X74146896Y-45105449D01*
X73991098Y-45131836D01*
X73993153Y-45079085D01*
X73960502Y-44992517D01*
X73535233Y-44314913D01*
X73534669Y-44314303D01*
X73546452Y-44302541D01*
X73619468Y-44126699D01*
X73619635Y-43936300D01*
X73546926Y-43760331D01*
X73412411Y-43625582D01*
X73236569Y-43552566D01*
X73046170Y-43552399D01*
X72870201Y-43625108D01*
X72735452Y-43759623D01*
X72662436Y-43935465D01*
X72662382Y-43997225D01*
X71211761Y-44907644D01*
X71148481Y-44966178D01*
X71109195Y-45049944D01*
X71105593Y-45142395D01*
X67876454Y-45142395D01*
X67653027Y-44743781D01*
X67651898Y-44742460D01*
X67651339Y-44740811D01*
X66178626Y-42187282D01*
X68519564Y-42187282D01*
X68546226Y-42229763D01*
X68735699Y-42364352D01*
X68962254Y-42416187D01*
X69191400Y-42377377D01*
X69388252Y-42253832D01*
X69989578Y-41876436D01*
X70035645Y-41675093D01*
X69760204Y-41236217D01*
X68565631Y-41985939D01*
X68519564Y-42187282D01*
X66178626Y-42187282D01*
X64783707Y-39768641D01*
X67732993Y-39768641D01*
X67765644Y-39855209D01*
X67907536Y-40081293D01*
X67893203Y-40090288D01*
X67829923Y-40148822D01*
X67790637Y-40232588D01*
X67787035Y-40325039D01*
X67819686Y-40411607D01*
X68244955Y-41089211D01*
X68303489Y-41152490D01*
X68356951Y-41177564D01*
X68265600Y-41306168D01*
X68213764Y-41532724D01*
X68252573Y-41761869D01*
X68279235Y-41804351D01*
X68480578Y-41850418D01*
X69675151Y-41100697D01*
X69641567Y-41047185D01*
X70061399Y-41047185D01*
X70336840Y-41486061D01*
X70538183Y-41532128D01*
X71139510Y-41154732D01*
X71336362Y-41031186D01*
X71470950Y-40841714D01*
X71522786Y-40615158D01*
X71483977Y-40386013D01*
X71457315Y-40343531D01*
X71255972Y-40297464D01*
X70061399Y-41047185D01*
X69641567Y-41047185D01*
X69632624Y-41032936D01*
X69933819Y-40843904D01*
X69976346Y-40911665D01*
X71170919Y-40161943D01*
X71216986Y-39960600D01*
X71190324Y-39918119D01*
X71000851Y-39783530D01*
X70774296Y-39731695D01*
X70618498Y-39758082D01*
X70620553Y-39705331D01*
X70587902Y-39618763D01*
X70162633Y-38941159D01*
X70162069Y-38940549D01*
X70173852Y-38928787D01*
X70246868Y-38752945D01*
X70247035Y-38562546D01*
X70174326Y-38386577D01*
X70039811Y-38251828D01*
X69863969Y-38178812D01*
X69673570Y-38178645D01*
X69497601Y-38251354D01*
X69362852Y-38385869D01*
X69289836Y-38561711D01*
X69289782Y-38623471D01*
X67839161Y-39533890D01*
X67775881Y-39592424D01*
X67736595Y-39676190D01*
X67732993Y-39768641D01*
X64783707Y-39768641D01*
X64081339Y-38550811D01*
X64054020Y-38519630D01*
X64029768Y-38486025D01*
X64018463Y-38479047D01*
X64009703Y-38469049D01*
X63972529Y-38450696D01*
X63937265Y-38428930D01*
X63924148Y-38426809D01*
X63912231Y-38420926D01*
X63870867Y-38418196D01*
X63829953Y-38411581D01*
X61892989Y-38481471D01*
X59766076Y-38511428D01*
X59714817Y-38522376D01*
X59663384Y-38532607D01*
X59661723Y-38533717D01*
X59659770Y-38534134D01*
X59616596Y-38563870D01*
X59573000Y-38593000D01*
X59571890Y-38594661D01*
X59570245Y-38595794D01*
X59541728Y-38639802D01*
X59512607Y-38683384D01*
X59512217Y-38685342D01*
X59511131Y-38687019D01*
X59501630Y-38738570D01*
X59491400Y-38790000D01*
X59491400Y-50881400D01*
X51380274Y-50881400D01*
X51330000Y-50871400D01*
X51164522Y-50871400D01*
X51183358Y-50859279D01*
X51235555Y-50782887D01*
X51253918Y-50692207D01*
X51253918Y-49692207D01*
X51237978Y-49607493D01*
X51187912Y-49529689D01*
X51111520Y-49477492D01*
X51020840Y-49459129D01*
X47020840Y-49459129D01*
X46936126Y-49475069D01*
X46908600Y-49492782D01*
X46908600Y-49276407D01*
X48696990Y-49276407D01*
X48843040Y-49130357D01*
X48843040Y-48370007D01*
X48823040Y-48370007D01*
X48823040Y-48130540D01*
X49121428Y-48130540D01*
X49166293Y-48479424D01*
X49198640Y-48557517D01*
X49198640Y-49130357D01*
X49344690Y-49276407D01*
X51137044Y-49276407D01*
X51351762Y-49187468D01*
X51476544Y-49062686D01*
X53582443Y-49062686D01*
X53582443Y-49112841D01*
X53671382Y-49327559D01*
X53835721Y-49491897D01*
X54050439Y-49580836D01*
X54992793Y-49580836D01*
X55138843Y-49434786D01*
X55138843Y-48916636D01*
X55494443Y-48916636D01*
X55494443Y-49434786D01*
X55640493Y-49580836D01*
X56582847Y-49580836D01*
X56797565Y-49491897D01*
X56961904Y-49327559D01*
X57050843Y-49112841D01*
X57050843Y-49062686D01*
X56904793Y-48916636D01*
X55494443Y-48916636D01*
X55138843Y-48916636D01*
X53728493Y-48916636D01*
X53582443Y-49062686D01*
X51476544Y-49062686D01*
X51516101Y-49023130D01*
X51605040Y-48808412D01*
X51605040Y-48560431D01*
X53582443Y-48560431D01*
X53582443Y-48610586D01*
X53728493Y-48756636D01*
X55138843Y-48756636D01*
X55138843Y-48676636D01*
X55494443Y-48676636D01*
X55494443Y-48756636D01*
X56904793Y-48756636D01*
X57050843Y-48610586D01*
X57050843Y-48560431D01*
X56961904Y-48345713D01*
X56797565Y-48181375D01*
X56651575Y-48120904D01*
X56681358Y-48077316D01*
X56699721Y-47986636D01*
X56699721Y-47186636D01*
X56698359Y-47179398D01*
X56787394Y-47142610D01*
X56922143Y-47008095D01*
X56995159Y-46832253D01*
X56995326Y-46641854D01*
X56922617Y-46465885D01*
X56788102Y-46331136D01*
X56612260Y-46258120D01*
X56421861Y-46257953D01*
X56245892Y-46330662D01*
X56122782Y-46453558D01*
X54416643Y-46453558D01*
X54331929Y-46469498D01*
X54254125Y-46519564D01*
X54201928Y-46595956D01*
X54183565Y-46686636D01*
X54183565Y-46953558D01*
X54166643Y-46953558D01*
X54081929Y-46969498D01*
X54004125Y-47019564D01*
X53951928Y-47095956D01*
X53933565Y-47186636D01*
X53933565Y-47986636D01*
X53949505Y-48071350D01*
X53981460Y-48121008D01*
X53835721Y-48181375D01*
X53671382Y-48345713D01*
X53582443Y-48560431D01*
X51605040Y-48560431D01*
X51605040Y-48516057D01*
X51458990Y-48370007D01*
X50888760Y-48370007D01*
X50920252Y-48253874D01*
X50889458Y-48014407D01*
X51458990Y-48014407D01*
X51605040Y-47868357D01*
X51605040Y-47576002D01*
X51516101Y-47361284D01*
X51351762Y-47196946D01*
X51137044Y-47108007D01*
X49344690Y-47108007D01*
X49198640Y-47254057D01*
X49198640Y-47845809D01*
X49121428Y-48130540D01*
X48823040Y-48130540D01*
X48823040Y-48014407D01*
X48843040Y-48014407D01*
X48843040Y-47254057D01*
X48696990Y-47108007D01*
X46908600Y-47108007D01*
X46908600Y-46892191D01*
X46930160Y-46906922D01*
X47020840Y-46925285D01*
X51020840Y-46925285D01*
X51105554Y-46909345D01*
X51183358Y-46859279D01*
X51235555Y-46782887D01*
X51253918Y-46692207D01*
X51253918Y-45692207D01*
X51237978Y-45607493D01*
X51187912Y-45529689D01*
X51111520Y-45477492D01*
X51020840Y-45459129D01*
X47020840Y-45459129D01*
X46936126Y-45475069D01*
X46908600Y-45492782D01*
X46908600Y-45428600D01*
X51330000Y-45428600D01*
X51436616Y-45407393D01*
X51527000Y-45347000D01*
X51587393Y-45256616D01*
X51608600Y-45150000D01*
X51608600Y-42697997D01*
X53582443Y-42697997D01*
X53582443Y-42748152D01*
X53671382Y-42962870D01*
X53835721Y-43127208D01*
X54050439Y-43216147D01*
X54992793Y-43216147D01*
X55138843Y-43070097D01*
X55138843Y-42551947D01*
X55494443Y-42551947D01*
X55494443Y-43070097D01*
X55640493Y-43216147D01*
X56582847Y-43216147D01*
X56797565Y-43127208D01*
X56961904Y-42962870D01*
X57050843Y-42748152D01*
X57050843Y-42697997D01*
X56904793Y-42551947D01*
X55494443Y-42551947D01*
X55138843Y-42551947D01*
X53728493Y-42551947D01*
X53582443Y-42697997D01*
X51608600Y-42697997D01*
X51608600Y-42195742D01*
X53582443Y-42195742D01*
X53582443Y-42245897D01*
X53728493Y-42391947D01*
X55138843Y-42391947D01*
X55138843Y-42311947D01*
X55494443Y-42311947D01*
X55494443Y-42391947D01*
X56904793Y-42391947D01*
X57050843Y-42245897D01*
X57050843Y-42195742D01*
X56961904Y-41981024D01*
X56797565Y-41816686D01*
X56651575Y-41756215D01*
X56681358Y-41712627D01*
X56699721Y-41621947D01*
X56699721Y-40821947D01*
X56698359Y-40814709D01*
X56787394Y-40777921D01*
X56922143Y-40643406D01*
X56995159Y-40467564D01*
X56995326Y-40277165D01*
X56922617Y-40101196D01*
X56788102Y-39966447D01*
X56612260Y-39893431D01*
X56421861Y-39893264D01*
X56245892Y-39965973D01*
X56122782Y-40088869D01*
X54416643Y-40088869D01*
X54331929Y-40104809D01*
X54254125Y-40154875D01*
X54201928Y-40231267D01*
X54183565Y-40321947D01*
X54183565Y-40588869D01*
X54166643Y-40588869D01*
X54081929Y-40604809D01*
X54004125Y-40654875D01*
X53951928Y-40731267D01*
X53933565Y-40821947D01*
X53933565Y-41621947D01*
X53949505Y-41706661D01*
X53981460Y-41756319D01*
X53835721Y-41816686D01*
X53671382Y-41981024D01*
X53582443Y-42195742D01*
X51608600Y-42195742D01*
X51608600Y-36333304D01*
X53582443Y-36333304D01*
X53582443Y-36383459D01*
X53671382Y-36598177D01*
X53835721Y-36762515D01*
X54050439Y-36851454D01*
X54992793Y-36851454D01*
X55138843Y-36705404D01*
X55138843Y-36187254D01*
X55494443Y-36187254D01*
X55494443Y-36705404D01*
X55640493Y-36851454D01*
X56582847Y-36851454D01*
X56797565Y-36762515D01*
X56961904Y-36598177D01*
X57050843Y-36383459D01*
X57050843Y-36333304D01*
X56904793Y-36187254D01*
X55494443Y-36187254D01*
X55138843Y-36187254D01*
X53728493Y-36187254D01*
X53582443Y-36333304D01*
X51608600Y-36333304D01*
X51608600Y-35831049D01*
X53582443Y-35831049D01*
X53582443Y-35881204D01*
X53728493Y-36027254D01*
X55138843Y-36027254D01*
X55138843Y-35947254D01*
X55494443Y-35947254D01*
X55494443Y-36027254D01*
X56904793Y-36027254D01*
X57050843Y-35881204D01*
X57050843Y-35831049D01*
X56961904Y-35616331D01*
X56797565Y-35451993D01*
X56651575Y-35391522D01*
X56681358Y-35347934D01*
X56691779Y-35296472D01*
X58997617Y-35296472D01*
X58997617Y-36238826D01*
X59086556Y-36453544D01*
X59250894Y-36617883D01*
X59465612Y-36706822D01*
X59515767Y-36706822D01*
X59661817Y-36560772D01*
X59661817Y-35150422D01*
X59143667Y-35150422D01*
X58997617Y-35296472D01*
X56691779Y-35296472D01*
X56699721Y-35257254D01*
X56699721Y-34457254D01*
X56698359Y-34450016D01*
X56787394Y-34413228D01*
X56922143Y-34278713D01*
X56995159Y-34102871D01*
X56995326Y-33912472D01*
X56922617Y-33736503D01*
X56892585Y-33706418D01*
X58997617Y-33706418D01*
X58997617Y-34648772D01*
X59143667Y-34794822D01*
X59661817Y-34794822D01*
X59661817Y-33384472D01*
X59821817Y-33384472D01*
X59821817Y-34794822D01*
X59901817Y-34794822D01*
X59901817Y-35150422D01*
X59821817Y-35150422D01*
X59821817Y-36560772D01*
X59967867Y-36706822D01*
X60018022Y-36706822D01*
X60232740Y-36617883D01*
X60397078Y-36453544D01*
X60457549Y-36307554D01*
X60501137Y-36337337D01*
X60591817Y-36355700D01*
X61391817Y-36355700D01*
X61399055Y-36354338D01*
X61435843Y-36443373D01*
X61570358Y-36578122D01*
X61746200Y-36651138D01*
X61936599Y-36651305D01*
X62112568Y-36578596D01*
X62247317Y-36444081D01*
X62320333Y-36268239D01*
X62320500Y-36077840D01*
X62247791Y-35901871D01*
X62124895Y-35778761D01*
X62124895Y-34784768D01*
X65763972Y-34784768D01*
X66100460Y-35409906D01*
X66210613Y-35614553D01*
X66390697Y-35761467D01*
X66613294Y-35828285D01*
X66844517Y-35804831D01*
X66888681Y-35781060D01*
X66948062Y-35583234D01*
X66279607Y-34341358D01*
X65823353Y-34586942D01*
X65763972Y-34784768D01*
X62124895Y-34784768D01*
X62124895Y-34072622D01*
X62108955Y-33987908D01*
X62058889Y-33910104D01*
X61982497Y-33857907D01*
X61891817Y-33839544D01*
X61624895Y-33839544D01*
X61624895Y-33822622D01*
X61608955Y-33737908D01*
X61558889Y-33660104D01*
X61482497Y-33607907D01*
X61391817Y-33589544D01*
X60591817Y-33589544D01*
X60507103Y-33605484D01*
X60457445Y-33637439D01*
X60397078Y-33491700D01*
X60232740Y-33327361D01*
X60018022Y-33238422D01*
X59967867Y-33238422D01*
X59821817Y-33384472D01*
X59661817Y-33384472D01*
X59515767Y-33238422D01*
X59465612Y-33238422D01*
X59250894Y-33327361D01*
X59086556Y-33491700D01*
X58997617Y-33706418D01*
X56892585Y-33706418D01*
X56788102Y-33601754D01*
X56612260Y-33528738D01*
X56421861Y-33528571D01*
X56245892Y-33601280D01*
X56122782Y-33724176D01*
X54416643Y-33724176D01*
X54331929Y-33740116D01*
X54254125Y-33790182D01*
X54201928Y-33866574D01*
X54183565Y-33957254D01*
X54183565Y-34224176D01*
X54166643Y-34224176D01*
X54081929Y-34240116D01*
X54004125Y-34290182D01*
X53951928Y-34366574D01*
X53933565Y-34457254D01*
X53933565Y-35257254D01*
X53949505Y-35341968D01*
X53981460Y-35391626D01*
X53835721Y-35451993D01*
X53671382Y-35616331D01*
X53582443Y-35831049D01*
X51608600Y-35831049D01*
X51608600Y-33153432D01*
X64986890Y-33153432D01*
X65010344Y-33384655D01*
X65120498Y-33589301D01*
X65456986Y-34214439D01*
X65654812Y-34273821D01*
X66111066Y-34028236D01*
X65442611Y-32786360D01*
X65244785Y-32726979D01*
X65200622Y-32750751D01*
X65053707Y-32930834D01*
X64986890Y-33153432D01*
X51608600Y-33153432D01*
X51608600Y-32710526D01*
X65583498Y-32710526D01*
X66251953Y-33952402D01*
X66322396Y-33914485D01*
X66490938Y-34227606D01*
X66420494Y-34265524D01*
X67088949Y-35507400D01*
X67286775Y-35566781D01*
X67330938Y-35543009D01*
X67477853Y-35362926D01*
X67544670Y-35140328D01*
X67528723Y-34983117D01*
X67581219Y-34988682D01*
X67669770Y-34961873D01*
X68374206Y-34582702D01*
X68378114Y-34579543D01*
X68412220Y-34613709D01*
X68588062Y-34686725D01*
X68778461Y-34686892D01*
X68954430Y-34614183D01*
X69089179Y-34479668D01*
X69162195Y-34303826D01*
X69162362Y-34113427D01*
X69089653Y-33937458D01*
X68955138Y-33802709D01*
X68779296Y-33729693D01*
X68747578Y-33729665D01*
X67937619Y-32224898D01*
X67883431Y-32157858D01*
X67802469Y-32113077D01*
X67710464Y-32103323D01*
X67621912Y-32130133D01*
X67386877Y-32256644D01*
X67378856Y-32241743D01*
X67324668Y-32174703D01*
X67243707Y-32129922D01*
X67151701Y-32120168D01*
X67063150Y-32146977D01*
X66358714Y-32526148D01*
X66291674Y-32580336D01*
X66263093Y-32632009D01*
X66140863Y-32532293D01*
X65918266Y-32465475D01*
X65687043Y-32488929D01*
X65642879Y-32512700D01*
X65583498Y-32710526D01*
X51608600Y-32710526D01*
X51608600Y-29968617D01*
X53582443Y-29968617D01*
X53582443Y-30018772D01*
X53671382Y-30233490D01*
X53835721Y-30397828D01*
X54050439Y-30486767D01*
X54992793Y-30486767D01*
X55138843Y-30340717D01*
X55138843Y-29822567D01*
X55494443Y-29822567D01*
X55494443Y-30340717D01*
X55640493Y-30486767D01*
X56582847Y-30486767D01*
X56797565Y-30397828D01*
X56961904Y-30233490D01*
X57050843Y-30018772D01*
X57050843Y-29968617D01*
X56904793Y-29822567D01*
X55494443Y-29822567D01*
X55138843Y-29822567D01*
X53728493Y-29822567D01*
X53582443Y-29968617D01*
X51608600Y-29968617D01*
X51608600Y-29466362D01*
X53582443Y-29466362D01*
X53582443Y-29516517D01*
X53728493Y-29662567D01*
X55138843Y-29662567D01*
X55138843Y-29582567D01*
X55494443Y-29582567D01*
X55494443Y-29662567D01*
X56904793Y-29662567D01*
X57050843Y-29516517D01*
X57050843Y-29466362D01*
X56961904Y-29251644D01*
X56797565Y-29087306D01*
X56651575Y-29026835D01*
X56681358Y-28983247D01*
X56699721Y-28892567D01*
X56699721Y-28092567D01*
X56698359Y-28085329D01*
X56787394Y-28048541D01*
X56922143Y-27914026D01*
X56995159Y-27738184D01*
X56995326Y-27547785D01*
X56922617Y-27371816D01*
X56788102Y-27237067D01*
X56612260Y-27164051D01*
X56421861Y-27163884D01*
X56245892Y-27236593D01*
X56122782Y-27359489D01*
X54416643Y-27359489D01*
X54331929Y-27375429D01*
X54254125Y-27425495D01*
X54201928Y-27501887D01*
X54183565Y-27592567D01*
X54183565Y-27859489D01*
X54166643Y-27859489D01*
X54081929Y-27875429D01*
X54004125Y-27925495D01*
X53951928Y-28001887D01*
X53933565Y-28092567D01*
X53933565Y-28892567D01*
X53949505Y-28977281D01*
X53981460Y-29026939D01*
X53835721Y-29087306D01*
X53671382Y-29251644D01*
X53582443Y-29466362D01*
X51608600Y-29466362D01*
X51608600Y-23970349D01*
X52181116Y-23970349D01*
X52325641Y-24269092D01*
X52573490Y-24489786D01*
X52708742Y-24553963D01*
X52829247Y-24455157D01*
X53094273Y-24455157D01*
X53218238Y-24579633D01*
X53516981Y-24435108D01*
X53737675Y-24187259D01*
X53801852Y-24052007D01*
X53690466Y-23916159D01*
X53122871Y-23887562D01*
X53094273Y-24455157D01*
X52829247Y-24455157D01*
X52844590Y-24442577D01*
X52873187Y-23874982D01*
X52305592Y-23846384D01*
X52181116Y-23970349D01*
X51608600Y-23970349D01*
X51608600Y-23460853D01*
X52206786Y-23460853D01*
X52318172Y-23596701D01*
X52885767Y-23625298D01*
X52892541Y-23490839D01*
X53018460Y-23490839D01*
X53136892Y-23609271D01*
X53135451Y-23637878D01*
X53167093Y-23639472D01*
X53269910Y-23742289D01*
X53362863Y-23649336D01*
X53585116Y-23660534D01*
X53671382Y-23868799D01*
X53835721Y-24033137D01*
X54050439Y-24122076D01*
X54992793Y-24122076D01*
X55138843Y-23976026D01*
X55138843Y-23457876D01*
X55494443Y-23457876D01*
X55494443Y-23976026D01*
X55640493Y-24122076D01*
X56582847Y-24122076D01*
X56797565Y-24033137D01*
X56961904Y-23868799D01*
X57050843Y-23654081D01*
X57050843Y-23603926D01*
X56904793Y-23457876D01*
X55494443Y-23457876D01*
X55138843Y-23457876D01*
X55118843Y-23457876D01*
X55118843Y-23297876D01*
X55138843Y-23297876D01*
X55138843Y-23217876D01*
X55494443Y-23217876D01*
X55494443Y-23297876D01*
X56904793Y-23297876D01*
X57050843Y-23151826D01*
X57050843Y-23101671D01*
X56961904Y-22886953D01*
X56797565Y-22722615D01*
X56651575Y-22662144D01*
X56681358Y-22618556D01*
X56699721Y-22527876D01*
X56699721Y-21727876D01*
X56698359Y-21720638D01*
X56787394Y-21683850D01*
X56922143Y-21549335D01*
X56995159Y-21373493D01*
X56995326Y-21183094D01*
X56922617Y-21007125D01*
X56788102Y-20872376D01*
X56612260Y-20799360D01*
X56421861Y-20799193D01*
X56245892Y-20871902D01*
X56122782Y-20994798D01*
X54416643Y-20994798D01*
X54331929Y-21010738D01*
X54254125Y-21060804D01*
X54201928Y-21137196D01*
X54183565Y-21227876D01*
X54183565Y-21494798D01*
X54166643Y-21494798D01*
X54081929Y-21510738D01*
X54004125Y-21560804D01*
X53951928Y-21637196D01*
X53933565Y-21727876D01*
X53933565Y-22527876D01*
X53949505Y-22612590D01*
X53981460Y-22662248D01*
X53835721Y-22722615D01*
X53671382Y-22886953D01*
X53582443Y-23101671D01*
X53582443Y-23133816D01*
X53478963Y-23030336D01*
X53462167Y-23047132D01*
X53435148Y-23023074D01*
X53299896Y-22958897D01*
X53164048Y-23070283D01*
X53149459Y-23359840D01*
X53018460Y-23490839D01*
X52892541Y-23490839D01*
X52914365Y-23057703D01*
X52790400Y-22933227D01*
X52491657Y-23077752D01*
X52270963Y-23325601D01*
X52206786Y-23460853D01*
X51608600Y-23460853D01*
X51608600Y-18998600D01*
X59491400Y-18998600D01*
X59491400Y-31280000D01*
X59501539Y-31330972D01*
X59510792Y-31382124D01*
X59512126Y-31384198D01*
X59512607Y-31386616D01*
X59541479Y-31429826D01*
X59569604Y-31473545D01*
X59571631Y-31474951D01*
X59573000Y-31477000D01*
X59616204Y-31505868D01*
X59658924Y-31535500D01*
X59661334Y-31536023D01*
X59663384Y-31537393D01*
X59714364Y-31547533D01*
X59765156Y-31558558D01*
X60915156Y-31578558D01*
X60917582Y-31578119D01*
X60920000Y-31578600D01*
X62220000Y-31578600D01*
X62235146Y-31575587D01*
X62250527Y-31576922D01*
X63520527Y-31436923D01*
X63547614Y-31428361D01*
X63575826Y-31425051D01*
X64625826Y-31085051D01*
X64671767Y-31059383D01*
X64717933Y-31034377D01*
X65717933Y-30204377D01*
X65751390Y-30163146D01*
X65785238Y-30122198D01*
X66039348Y-29650804D01*
X70258543Y-29650804D01*
X70346118Y-29837865D01*
X71013618Y-30079662D01*
X71232132Y-30158817D01*
X71464304Y-30148325D01*
X71674789Y-30049784D01*
X71831541Y-29878194D01*
X71848623Y-29831038D01*
X71761047Y-29643977D01*
X70435017Y-29163632D01*
X70258543Y-29650804D01*
X66039348Y-29650804D01*
X66475238Y-28842198D01*
X66484590Y-28811755D01*
X66498798Y-28783252D01*
X66522328Y-28696907D01*
X68570504Y-28696907D01*
X68580996Y-28929079D01*
X68679539Y-29139563D01*
X68851128Y-29296315D01*
X69069642Y-29375470D01*
X69737142Y-29617267D01*
X69924203Y-29529692D01*
X70100677Y-29042520D01*
X68774647Y-28562175D01*
X68587586Y-28649751D01*
X68570504Y-28696907D01*
X66522328Y-28696907D01*
X66651018Y-28224680D01*
X68741565Y-28224680D01*
X68829141Y-28411741D01*
X70155171Y-28892086D01*
X70182418Y-28816869D01*
X70516758Y-28937981D01*
X70489511Y-29013198D01*
X71815541Y-29493543D01*
X72002602Y-29405967D01*
X72019684Y-29358811D01*
X72009192Y-29126639D01*
X71910649Y-28916155D01*
X71793984Y-28809578D01*
X71836830Y-28778740D01*
X71884980Y-28699735D01*
X72157449Y-27947564D01*
X72158562Y-27940731D01*
X72233362Y-27940797D01*
X72409331Y-27868088D01*
X72544080Y-27733573D01*
X72617096Y-27557731D01*
X72617263Y-27367332D01*
X72544554Y-27191363D01*
X72410039Y-27056614D01*
X72234197Y-26983598D01*
X72043798Y-26983431D01*
X71867829Y-27056140D01*
X71862818Y-27061143D01*
X70260544Y-26480731D01*
X70175466Y-26466866D01*
X70085261Y-26487439D01*
X70010168Y-26541486D01*
X69962018Y-26620491D01*
X69871108Y-26871454D01*
X69855198Y-26865691D01*
X69770120Y-26851826D01*
X69679915Y-26872399D01*
X69604822Y-26926446D01*
X69556672Y-27005451D01*
X69284203Y-27757622D01*
X69270338Y-27842700D01*
X69283468Y-27900272D01*
X69125884Y-27907393D01*
X68915399Y-28005934D01*
X68758647Y-28177524D01*
X68741565Y-28224680D01*
X66651018Y-28224680D01*
X67676682Y-24461015D01*
X67969978Y-23587238D01*
X72397360Y-23587238D01*
X72408960Y-23793458D01*
X72938367Y-24266480D01*
X73111675Y-24421330D01*
X73331048Y-24498070D01*
X73563091Y-24485019D01*
X73772476Y-24384162D01*
X73805893Y-24346761D01*
X73794293Y-24140541D01*
X72742593Y-23200853D01*
X72397360Y-23587238D01*
X67969978Y-23587238D01*
X68146983Y-23059912D01*
X68550826Y-22292609D01*
X71109344Y-22292609D01*
X71122397Y-22524652D01*
X71223254Y-22734036D01*
X71396562Y-22888886D01*
X71925969Y-23361908D01*
X72132189Y-23350309D01*
X72477422Y-22963924D01*
X71425722Y-22024235D01*
X71219502Y-22035835D01*
X71186085Y-22073235D01*
X71109344Y-22292609D01*
X68550826Y-22292609D01*
X68823345Y-21774824D01*
X68885803Y-21698703D01*
X71520727Y-21698703D01*
X71532327Y-21904923D01*
X72584027Y-22844611D01*
X72637329Y-22784955D01*
X72902500Y-23021884D01*
X72849198Y-23081540D01*
X73900898Y-24021229D01*
X74107118Y-24009629D01*
X74140535Y-23972229D01*
X74217276Y-23752855D01*
X74204223Y-23520812D01*
X74135649Y-23378449D01*
X74186900Y-23365789D01*
X74261012Y-23310403D01*
X74794036Y-22713842D01*
X74797482Y-22708136D01*
X74861723Y-22734811D01*
X75052122Y-22734978D01*
X75228091Y-22662269D01*
X75362840Y-22527754D01*
X75435856Y-22351912D01*
X75436023Y-22161513D01*
X75363314Y-21985544D01*
X75228799Y-21850795D01*
X75052957Y-21777779D01*
X74862558Y-21777612D01*
X74851551Y-21782160D01*
X73579976Y-20646014D01*
X73506184Y-20601458D01*
X73414807Y-20586952D01*
X73324986Y-20609140D01*
X73250874Y-20664526D01*
X73073029Y-20863570D01*
X73060410Y-20852295D01*
X72986618Y-20807739D01*
X72895242Y-20793233D01*
X72805420Y-20815421D01*
X72731308Y-20870807D01*
X72198284Y-21467368D01*
X72153728Y-21541160D01*
X72144470Y-21599481D01*
X71995572Y-21547394D01*
X71763529Y-21560445D01*
X71554144Y-21661302D01*
X71520727Y-21698703D01*
X68885803Y-21698703D01*
X69743824Y-20652989D01*
X70950546Y-19752736D01*
X72463744Y-19097338D01*
X74298960Y-18728353D01*
X76488946Y-18708799D01*
X78901400Y-19097322D01*
X78901400Y-19097322D01*
G37*
X78901400Y-19097322D02*
X78901400Y-24249247D01*
X77772043Y-24281514D01*
X77741230Y-24288563D01*
X77709675Y-24290422D01*
X76559675Y-24590422D01*
X76555898Y-24592254D01*
X76551713Y-24592625D01*
X76507116Y-24615910D01*
X76461865Y-24637854D01*
X76459075Y-24640993D01*
X76455352Y-24642937D01*
X75585352Y-25342938D01*
X75579319Y-25350146D01*
X75571293Y-25355042D01*
X75544622Y-25391598D01*
X75515580Y-25426295D01*
X75512764Y-25435264D01*
X75507223Y-25442859D01*
X74937223Y-26672860D01*
X74932263Y-26693339D01*
X74922533Y-26712030D01*
X74135960Y-29410274D01*
X73246716Y-31692667D01*
X72215630Y-33597721D01*
X70989277Y-35190002D01*
X70986584Y-35195438D01*
X70982189Y-35199624D01*
X70962541Y-35243974D01*
X70941023Y-35287410D01*
X70940615Y-35293462D01*
X70938157Y-35299011D01*
X70936977Y-35347486D01*
X70933718Y-35395868D01*
X70935659Y-35401619D01*
X70935511Y-35407683D01*
X70952966Y-35452908D01*
X70968475Y-35498866D01*
X70972469Y-35503436D01*
X70974653Y-35509096D01*
X75624653Y-42849096D01*
X75625443Y-42849925D01*
X75625865Y-42850993D01*
X77205865Y-45300993D01*
X77226510Y-45322321D01*
X77243000Y-45347000D01*
X77263947Y-45360997D01*
X77281470Y-45379099D01*
X77308703Y-45390902D01*
X77333384Y-45407393D01*
X77358096Y-45412308D01*
X77381210Y-45422326D01*
X77410886Y-45422809D01*
X77440000Y-45428600D01*
X84941400Y-45428600D01*
X84941400Y-45466036D01*
X84907290Y-45459129D01*
X80907290Y-45459129D01*
X80822576Y-45475069D01*
X80744772Y-45525135D01*
X80692575Y-45601527D01*
X80674212Y-45692207D01*
X80674212Y-46692207D01*
X80690152Y-46776921D01*
X80740218Y-46854725D01*
X80816610Y-46906922D01*
X80907290Y-46925285D01*
X84907290Y-46925285D01*
X84941400Y-46918867D01*
X84941400Y-47108007D01*
X83231140Y-47108007D01*
X83085090Y-47254057D01*
X83085090Y-48014407D01*
X83105090Y-48014407D01*
X83105090Y-48370007D01*
X83085090Y-48370007D01*
X83085090Y-49130357D01*
X83231140Y-49276407D01*
X84941400Y-49276407D01*
X84941400Y-49466036D01*
X84907290Y-49459129D01*
X80907290Y-49459129D01*
X80822576Y-49475069D01*
X80744772Y-49525135D01*
X80692575Y-49601527D01*
X80674212Y-49692207D01*
X80674212Y-50692207D01*
X80690152Y-50776921D01*
X80740218Y-50854725D01*
X80764622Y-50871400D01*
X80520000Y-50871400D01*
X80469726Y-50881400D01*
X71093221Y-50881400D01*
X69232126Y-47561036D01*
X71892164Y-47561036D01*
X71918826Y-47603517D01*
X72108299Y-47738106D01*
X72334854Y-47789941D01*
X72564000Y-47751131D01*
X72760852Y-47627586D01*
X72843043Y-47576002D01*
X80323090Y-47576002D01*
X80323090Y-47868357D01*
X80469140Y-48014407D01*
X81039370Y-48014407D01*
X81007878Y-48130540D01*
X81038672Y-48370007D01*
X80469140Y-48370007D01*
X80323090Y-48516057D01*
X80323090Y-48808412D01*
X80412029Y-49023130D01*
X80576368Y-49187468D01*
X80791086Y-49276407D01*
X82583440Y-49276407D01*
X82729490Y-49130357D01*
X82729490Y-48538605D01*
X82806702Y-48253874D01*
X82761837Y-47904990D01*
X82729490Y-47826897D01*
X82729490Y-47254057D01*
X82583440Y-47108007D01*
X80791086Y-47108007D01*
X80576368Y-47196946D01*
X80412029Y-47361284D01*
X80323090Y-47576002D01*
X72843043Y-47576002D01*
X73362178Y-47250190D01*
X73408245Y-47048847D01*
X73132804Y-46609971D01*
X71938231Y-47359693D01*
X71892164Y-47561036D01*
X69232126Y-47561036D01*
X67876454Y-45142395D01*
X71105593Y-45142395D01*
X71138244Y-45228963D01*
X71280136Y-45455047D01*
X71265803Y-45464042D01*
X71202523Y-45522576D01*
X71163237Y-45606342D01*
X71159635Y-45698793D01*
X71192286Y-45785361D01*
X71617555Y-46462965D01*
X71676089Y-46526244D01*
X71729551Y-46551318D01*
X71638200Y-46679922D01*
X71586364Y-46906478D01*
X71625173Y-47135623D01*
X71651835Y-47178105D01*
X71853178Y-47224172D01*
X73047751Y-46474451D01*
X73014167Y-46420939D01*
X73433999Y-46420939D01*
X73709440Y-46859815D01*
X73910783Y-46905882D01*
X74512110Y-46528486D01*
X74708962Y-46404940D01*
X74843550Y-46215468D01*
X74895386Y-45988912D01*
X74856577Y-45759767D01*
X74829915Y-45717285D01*
X74628572Y-45671218D01*
X73433999Y-46420939D01*
X73014167Y-46420939D01*
X73005224Y-46406690D01*
X73306419Y-46217658D01*
X73348946Y-46285419D01*
X74543519Y-45535697D01*
X74589586Y-45334354D01*
X74562924Y-45291873D01*
X74373451Y-45157284D01*
X74146896Y-45105449D01*
X73991098Y-45131836D01*
X73993153Y-45079085D01*
X73960502Y-44992517D01*
X73535233Y-44314913D01*
X73534669Y-44314303D01*
X73546452Y-44302541D01*
X73619468Y-44126699D01*
X73619635Y-43936300D01*
X73546926Y-43760331D01*
X73412411Y-43625582D01*
X73236569Y-43552566D01*
X73046170Y-43552399D01*
X72870201Y-43625108D01*
X72735452Y-43759623D01*
X72662436Y-43935465D01*
X72662382Y-43997225D01*
X71211761Y-44907644D01*
X71148481Y-44966178D01*
X71109195Y-45049944D01*
X71105593Y-45142395D01*
X67876454Y-45142395D01*
X67653027Y-44743781D01*
X67651898Y-44742460D01*
X67651339Y-44740811D01*
X66178626Y-42187282D01*
X68519564Y-42187282D01*
X68546226Y-42229763D01*
X68735699Y-42364352D01*
X68962254Y-42416187D01*
X69191400Y-42377377D01*
X69388252Y-42253832D01*
X69989578Y-41876436D01*
X70035645Y-41675093D01*
X69760204Y-41236217D01*
X68565631Y-41985939D01*
X68519564Y-42187282D01*
X66178626Y-42187282D01*
X64783707Y-39768641D01*
X67732993Y-39768641D01*
X67765644Y-39855209D01*
X67907536Y-40081293D01*
X67893203Y-40090288D01*
X67829923Y-40148822D01*
X67790637Y-40232588D01*
X67787035Y-40325039D01*
X67819686Y-40411607D01*
X68244955Y-41089211D01*
X68303489Y-41152490D01*
X68356951Y-41177564D01*
X68265600Y-41306168D01*
X68213764Y-41532724D01*
X68252573Y-41761869D01*
X68279235Y-41804351D01*
X68480578Y-41850418D01*
X69675151Y-41100697D01*
X69641567Y-41047185D01*
X70061399Y-41047185D01*
X70336840Y-41486061D01*
X70538183Y-41532128D01*
X71139510Y-41154732D01*
X71336362Y-41031186D01*
X71470950Y-40841714D01*
X71522786Y-40615158D01*
X71483977Y-40386013D01*
X71457315Y-40343531D01*
X71255972Y-40297464D01*
X70061399Y-41047185D01*
X69641567Y-41047185D01*
X69632624Y-41032936D01*
X69933819Y-40843904D01*
X69976346Y-40911665D01*
X71170919Y-40161943D01*
X71216986Y-39960600D01*
X71190324Y-39918119D01*
X71000851Y-39783530D01*
X70774296Y-39731695D01*
X70618498Y-39758082D01*
X70620553Y-39705331D01*
X70587902Y-39618763D01*
X70162633Y-38941159D01*
X70162069Y-38940549D01*
X70173852Y-38928787D01*
X70246868Y-38752945D01*
X70247035Y-38562546D01*
X70174326Y-38386577D01*
X70039811Y-38251828D01*
X69863969Y-38178812D01*
X69673570Y-38178645D01*
X69497601Y-38251354D01*
X69362852Y-38385869D01*
X69289836Y-38561711D01*
X69289782Y-38623471D01*
X67839161Y-39533890D01*
X67775881Y-39592424D01*
X67736595Y-39676190D01*
X67732993Y-39768641D01*
X64783707Y-39768641D01*
X64081339Y-38550811D01*
X64054020Y-38519630D01*
X64029768Y-38486025D01*
X64018463Y-38479047D01*
X64009703Y-38469049D01*
X63972529Y-38450696D01*
X63937265Y-38428930D01*
X63924148Y-38426809D01*
X63912231Y-38420926D01*
X63870867Y-38418196D01*
X63829953Y-38411581D01*
X61892989Y-38481471D01*
X59766076Y-38511428D01*
X59714817Y-38522376D01*
X59663384Y-38532607D01*
X59661723Y-38533717D01*
X59659770Y-38534134D01*
X59616596Y-38563870D01*
X59573000Y-38593000D01*
X59571890Y-38594661D01*
X59570245Y-38595794D01*
X59541728Y-38639802D01*
X59512607Y-38683384D01*
X59512217Y-38685342D01*
X59511131Y-38687019D01*
X59501630Y-38738570D01*
X59491400Y-38790000D01*
X59491400Y-50881400D01*
X51380274Y-50881400D01*
X51330000Y-50871400D01*
X51164522Y-50871400D01*
X51183358Y-50859279D01*
X51235555Y-50782887D01*
X51253918Y-50692207D01*
X51253918Y-49692207D01*
X51237978Y-49607493D01*
X51187912Y-49529689D01*
X51111520Y-49477492D01*
X51020840Y-49459129D01*
X47020840Y-49459129D01*
X46936126Y-49475069D01*
X46908600Y-49492782D01*
X46908600Y-49276407D01*
X48696990Y-49276407D01*
X48843040Y-49130357D01*
X48843040Y-48370007D01*
X48823040Y-48370007D01*
X48823040Y-48130540D01*
X49121428Y-48130540D01*
X49166293Y-48479424D01*
X49198640Y-48557517D01*
X49198640Y-49130357D01*
X49344690Y-49276407D01*
X51137044Y-49276407D01*
X51351762Y-49187468D01*
X51476544Y-49062686D01*
X53582443Y-49062686D01*
X53582443Y-49112841D01*
X53671382Y-49327559D01*
X53835721Y-49491897D01*
X54050439Y-49580836D01*
X54992793Y-49580836D01*
X55138843Y-49434786D01*
X55138843Y-48916636D01*
X55494443Y-48916636D01*
X55494443Y-49434786D01*
X55640493Y-49580836D01*
X56582847Y-49580836D01*
X56797565Y-49491897D01*
X56961904Y-49327559D01*
X57050843Y-49112841D01*
X57050843Y-49062686D01*
X56904793Y-48916636D01*
X55494443Y-48916636D01*
X55138843Y-48916636D01*
X53728493Y-48916636D01*
X53582443Y-49062686D01*
X51476544Y-49062686D01*
X51516101Y-49023130D01*
X51605040Y-48808412D01*
X51605040Y-48560431D01*
X53582443Y-48560431D01*
X53582443Y-48610586D01*
X53728493Y-48756636D01*
X55138843Y-48756636D01*
X55138843Y-48676636D01*
X55494443Y-48676636D01*
X55494443Y-48756636D01*
X56904793Y-48756636D01*
X57050843Y-48610586D01*
X57050843Y-48560431D01*
X56961904Y-48345713D01*
X56797565Y-48181375D01*
X56651575Y-48120904D01*
X56681358Y-48077316D01*
X56699721Y-47986636D01*
X56699721Y-47186636D01*
X56698359Y-47179398D01*
X56787394Y-47142610D01*
X56922143Y-47008095D01*
X56995159Y-46832253D01*
X56995326Y-46641854D01*
X56922617Y-46465885D01*
X56788102Y-46331136D01*
X56612260Y-46258120D01*
X56421861Y-46257953D01*
X56245892Y-46330662D01*
X56122782Y-46453558D01*
X54416643Y-46453558D01*
X54331929Y-46469498D01*
X54254125Y-46519564D01*
X54201928Y-46595956D01*
X54183565Y-46686636D01*
X54183565Y-46953558D01*
X54166643Y-46953558D01*
X54081929Y-46969498D01*
X54004125Y-47019564D01*
X53951928Y-47095956D01*
X53933565Y-47186636D01*
X53933565Y-47986636D01*
X53949505Y-48071350D01*
X53981460Y-48121008D01*
X53835721Y-48181375D01*
X53671382Y-48345713D01*
X53582443Y-48560431D01*
X51605040Y-48560431D01*
X51605040Y-48516057D01*
X51458990Y-48370007D01*
X50888760Y-48370007D01*
X50920252Y-48253874D01*
X50889458Y-48014407D01*
X51458990Y-48014407D01*
X51605040Y-47868357D01*
X51605040Y-47576002D01*
X51516101Y-47361284D01*
X51351762Y-47196946D01*
X51137044Y-47108007D01*
X49344690Y-47108007D01*
X49198640Y-47254057D01*
X49198640Y-47845809D01*
X49121428Y-48130540D01*
X48823040Y-48130540D01*
X48823040Y-48014407D01*
X48843040Y-48014407D01*
X48843040Y-47254057D01*
X48696990Y-47108007D01*
X46908600Y-47108007D01*
X46908600Y-46892191D01*
X46930160Y-46906922D01*
X47020840Y-46925285D01*
X51020840Y-46925285D01*
X51105554Y-46909345D01*
X51183358Y-46859279D01*
X51235555Y-46782887D01*
X51253918Y-46692207D01*
X51253918Y-45692207D01*
X51237978Y-45607493D01*
X51187912Y-45529689D01*
X51111520Y-45477492D01*
X51020840Y-45459129D01*
X47020840Y-45459129D01*
X46936126Y-45475069D01*
X46908600Y-45492782D01*
X46908600Y-45428600D01*
X51330000Y-45428600D01*
X51436616Y-45407393D01*
X51527000Y-45347000D01*
X51587393Y-45256616D01*
X51608600Y-45150000D01*
X51608600Y-42697997D01*
X53582443Y-42697997D01*
X53582443Y-42748152D01*
X53671382Y-42962870D01*
X53835721Y-43127208D01*
X54050439Y-43216147D01*
X54992793Y-43216147D01*
X55138843Y-43070097D01*
X55138843Y-42551947D01*
X55494443Y-42551947D01*
X55494443Y-43070097D01*
X55640493Y-43216147D01*
X56582847Y-43216147D01*
X56797565Y-43127208D01*
X56961904Y-42962870D01*
X57050843Y-42748152D01*
X57050843Y-42697997D01*
X56904793Y-42551947D01*
X55494443Y-42551947D01*
X55138843Y-42551947D01*
X53728493Y-42551947D01*
X53582443Y-42697997D01*
X51608600Y-42697997D01*
X51608600Y-42195742D01*
X53582443Y-42195742D01*
X53582443Y-42245897D01*
X53728493Y-42391947D01*
X55138843Y-42391947D01*
X55138843Y-42311947D01*
X55494443Y-42311947D01*
X55494443Y-42391947D01*
X56904793Y-42391947D01*
X57050843Y-42245897D01*
X57050843Y-42195742D01*
X56961904Y-41981024D01*
X56797565Y-41816686D01*
X56651575Y-41756215D01*
X56681358Y-41712627D01*
X56699721Y-41621947D01*
X56699721Y-40821947D01*
X56698359Y-40814709D01*
X56787394Y-40777921D01*
X56922143Y-40643406D01*
X56995159Y-40467564D01*
X56995326Y-40277165D01*
X56922617Y-40101196D01*
X56788102Y-39966447D01*
X56612260Y-39893431D01*
X56421861Y-39893264D01*
X56245892Y-39965973D01*
X56122782Y-40088869D01*
X54416643Y-40088869D01*
X54331929Y-40104809D01*
X54254125Y-40154875D01*
X54201928Y-40231267D01*
X54183565Y-40321947D01*
X54183565Y-40588869D01*
X54166643Y-40588869D01*
X54081929Y-40604809D01*
X54004125Y-40654875D01*
X53951928Y-40731267D01*
X53933565Y-40821947D01*
X53933565Y-41621947D01*
X53949505Y-41706661D01*
X53981460Y-41756319D01*
X53835721Y-41816686D01*
X53671382Y-41981024D01*
X53582443Y-42195742D01*
X51608600Y-42195742D01*
X51608600Y-36333304D01*
X53582443Y-36333304D01*
X53582443Y-36383459D01*
X53671382Y-36598177D01*
X53835721Y-36762515D01*
X54050439Y-36851454D01*
X54992793Y-36851454D01*
X55138843Y-36705404D01*
X55138843Y-36187254D01*
X55494443Y-36187254D01*
X55494443Y-36705404D01*
X55640493Y-36851454D01*
X56582847Y-36851454D01*
X56797565Y-36762515D01*
X56961904Y-36598177D01*
X57050843Y-36383459D01*
X57050843Y-36333304D01*
X56904793Y-36187254D01*
X55494443Y-36187254D01*
X55138843Y-36187254D01*
X53728493Y-36187254D01*
X53582443Y-36333304D01*
X51608600Y-36333304D01*
X51608600Y-35831049D01*
X53582443Y-35831049D01*
X53582443Y-35881204D01*
X53728493Y-36027254D01*
X55138843Y-36027254D01*
X55138843Y-35947254D01*
X55494443Y-35947254D01*
X55494443Y-36027254D01*
X56904793Y-36027254D01*
X57050843Y-35881204D01*
X57050843Y-35831049D01*
X56961904Y-35616331D01*
X56797565Y-35451993D01*
X56651575Y-35391522D01*
X56681358Y-35347934D01*
X56691779Y-35296472D01*
X58997617Y-35296472D01*
X58997617Y-36238826D01*
X59086556Y-36453544D01*
X59250894Y-36617883D01*
X59465612Y-36706822D01*
X59515767Y-36706822D01*
X59661817Y-36560772D01*
X59661817Y-35150422D01*
X59143667Y-35150422D01*
X58997617Y-35296472D01*
X56691779Y-35296472D01*
X56699721Y-35257254D01*
X56699721Y-34457254D01*
X56698359Y-34450016D01*
X56787394Y-34413228D01*
X56922143Y-34278713D01*
X56995159Y-34102871D01*
X56995326Y-33912472D01*
X56922617Y-33736503D01*
X56892585Y-33706418D01*
X58997617Y-33706418D01*
X58997617Y-34648772D01*
X59143667Y-34794822D01*
X59661817Y-34794822D01*
X59661817Y-33384472D01*
X59821817Y-33384472D01*
X59821817Y-34794822D01*
X59901817Y-34794822D01*
X59901817Y-35150422D01*
X59821817Y-35150422D01*
X59821817Y-36560772D01*
X59967867Y-36706822D01*
X60018022Y-36706822D01*
X60232740Y-36617883D01*
X60397078Y-36453544D01*
X60457549Y-36307554D01*
X60501137Y-36337337D01*
X60591817Y-36355700D01*
X61391817Y-36355700D01*
X61399055Y-36354338D01*
X61435843Y-36443373D01*
X61570358Y-36578122D01*
X61746200Y-36651138D01*
X61936599Y-36651305D01*
X62112568Y-36578596D01*
X62247317Y-36444081D01*
X62320333Y-36268239D01*
X62320500Y-36077840D01*
X62247791Y-35901871D01*
X62124895Y-35778761D01*
X62124895Y-34784768D01*
X65763972Y-34784768D01*
X66100460Y-35409906D01*
X66210613Y-35614553D01*
X66390697Y-35761467D01*
X66613294Y-35828285D01*
X66844517Y-35804831D01*
X66888681Y-35781060D01*
X66948062Y-35583234D01*
X66279607Y-34341358D01*
X65823353Y-34586942D01*
X65763972Y-34784768D01*
X62124895Y-34784768D01*
X62124895Y-34072622D01*
X62108955Y-33987908D01*
X62058889Y-33910104D01*
X61982497Y-33857907D01*
X61891817Y-33839544D01*
X61624895Y-33839544D01*
X61624895Y-33822622D01*
X61608955Y-33737908D01*
X61558889Y-33660104D01*
X61482497Y-33607907D01*
X61391817Y-33589544D01*
X60591817Y-33589544D01*
X60507103Y-33605484D01*
X60457445Y-33637439D01*
X60397078Y-33491700D01*
X60232740Y-33327361D01*
X60018022Y-33238422D01*
X59967867Y-33238422D01*
X59821817Y-33384472D01*
X59661817Y-33384472D01*
X59515767Y-33238422D01*
X59465612Y-33238422D01*
X59250894Y-33327361D01*
X59086556Y-33491700D01*
X58997617Y-33706418D01*
X56892585Y-33706418D01*
X56788102Y-33601754D01*
X56612260Y-33528738D01*
X56421861Y-33528571D01*
X56245892Y-33601280D01*
X56122782Y-33724176D01*
X54416643Y-33724176D01*
X54331929Y-33740116D01*
X54254125Y-33790182D01*
X54201928Y-33866574D01*
X54183565Y-33957254D01*
X54183565Y-34224176D01*
X54166643Y-34224176D01*
X54081929Y-34240116D01*
X54004125Y-34290182D01*
X53951928Y-34366574D01*
X53933565Y-34457254D01*
X53933565Y-35257254D01*
X53949505Y-35341968D01*
X53981460Y-35391626D01*
X53835721Y-35451993D01*
X53671382Y-35616331D01*
X53582443Y-35831049D01*
X51608600Y-35831049D01*
X51608600Y-33153432D01*
X64986890Y-33153432D01*
X65010344Y-33384655D01*
X65120498Y-33589301D01*
X65456986Y-34214439D01*
X65654812Y-34273821D01*
X66111066Y-34028236D01*
X65442611Y-32786360D01*
X65244785Y-32726979D01*
X65200622Y-32750751D01*
X65053707Y-32930834D01*
X64986890Y-33153432D01*
X51608600Y-33153432D01*
X51608600Y-32710526D01*
X65583498Y-32710526D01*
X66251953Y-33952402D01*
X66322396Y-33914485D01*
X66490938Y-34227606D01*
X66420494Y-34265524D01*
X67088949Y-35507400D01*
X67286775Y-35566781D01*
X67330938Y-35543009D01*
X67477853Y-35362926D01*
X67544670Y-35140328D01*
X67528723Y-34983117D01*
X67581219Y-34988682D01*
X67669770Y-34961873D01*
X68374206Y-34582702D01*
X68378114Y-34579543D01*
X68412220Y-34613709D01*
X68588062Y-34686725D01*
X68778461Y-34686892D01*
X68954430Y-34614183D01*
X69089179Y-34479668D01*
X69162195Y-34303826D01*
X69162362Y-34113427D01*
X69089653Y-33937458D01*
X68955138Y-33802709D01*
X68779296Y-33729693D01*
X68747578Y-33729665D01*
X67937619Y-32224898D01*
X67883431Y-32157858D01*
X67802469Y-32113077D01*
X67710464Y-32103323D01*
X67621912Y-32130133D01*
X67386877Y-32256644D01*
X67378856Y-32241743D01*
X67324668Y-32174703D01*
X67243707Y-32129922D01*
X67151701Y-32120168D01*
X67063150Y-32146977D01*
X66358714Y-32526148D01*
X66291674Y-32580336D01*
X66263093Y-32632009D01*
X66140863Y-32532293D01*
X65918266Y-32465475D01*
X65687043Y-32488929D01*
X65642879Y-32512700D01*
X65583498Y-32710526D01*
X51608600Y-32710526D01*
X51608600Y-29968617D01*
X53582443Y-29968617D01*
X53582443Y-30018772D01*
X53671382Y-30233490D01*
X53835721Y-30397828D01*
X54050439Y-30486767D01*
X54992793Y-30486767D01*
X55138843Y-30340717D01*
X55138843Y-29822567D01*
X55494443Y-29822567D01*
X55494443Y-30340717D01*
X55640493Y-30486767D01*
X56582847Y-30486767D01*
X56797565Y-30397828D01*
X56961904Y-30233490D01*
X57050843Y-30018772D01*
X57050843Y-29968617D01*
X56904793Y-29822567D01*
X55494443Y-29822567D01*
X55138843Y-29822567D01*
X53728493Y-29822567D01*
X53582443Y-29968617D01*
X51608600Y-29968617D01*
X51608600Y-29466362D01*
X53582443Y-29466362D01*
X53582443Y-29516517D01*
X53728493Y-29662567D01*
X55138843Y-29662567D01*
X55138843Y-29582567D01*
X55494443Y-29582567D01*
X55494443Y-29662567D01*
X56904793Y-29662567D01*
X57050843Y-29516517D01*
X57050843Y-29466362D01*
X56961904Y-29251644D01*
X56797565Y-29087306D01*
X56651575Y-29026835D01*
X56681358Y-28983247D01*
X56699721Y-28892567D01*
X56699721Y-28092567D01*
X56698359Y-28085329D01*
X56787394Y-28048541D01*
X56922143Y-27914026D01*
X56995159Y-27738184D01*
X56995326Y-27547785D01*
X56922617Y-27371816D01*
X56788102Y-27237067D01*
X56612260Y-27164051D01*
X56421861Y-27163884D01*
X56245892Y-27236593D01*
X56122782Y-27359489D01*
X54416643Y-27359489D01*
X54331929Y-27375429D01*
X54254125Y-27425495D01*
X54201928Y-27501887D01*
X54183565Y-27592567D01*
X54183565Y-27859489D01*
X54166643Y-27859489D01*
X54081929Y-27875429D01*
X54004125Y-27925495D01*
X53951928Y-28001887D01*
X53933565Y-28092567D01*
X53933565Y-28892567D01*
X53949505Y-28977281D01*
X53981460Y-29026939D01*
X53835721Y-29087306D01*
X53671382Y-29251644D01*
X53582443Y-29466362D01*
X51608600Y-29466362D01*
X51608600Y-23970349D01*
X52181116Y-23970349D01*
X52325641Y-24269092D01*
X52573490Y-24489786D01*
X52708742Y-24553963D01*
X52829247Y-24455157D01*
X53094273Y-24455157D01*
X53218238Y-24579633D01*
X53516981Y-24435108D01*
X53737675Y-24187259D01*
X53801852Y-24052007D01*
X53690466Y-23916159D01*
X53122871Y-23887562D01*
X53094273Y-24455157D01*
X52829247Y-24455157D01*
X52844590Y-24442577D01*
X52873187Y-23874982D01*
X52305592Y-23846384D01*
X52181116Y-23970349D01*
X51608600Y-23970349D01*
X51608600Y-23460853D01*
X52206786Y-23460853D01*
X52318172Y-23596701D01*
X52885767Y-23625298D01*
X52892541Y-23490839D01*
X53018460Y-23490839D01*
X53136892Y-23609271D01*
X53135451Y-23637878D01*
X53167093Y-23639472D01*
X53269910Y-23742289D01*
X53362863Y-23649336D01*
X53585116Y-23660534D01*
X53671382Y-23868799D01*
X53835721Y-24033137D01*
X54050439Y-24122076D01*
X54992793Y-24122076D01*
X55138843Y-23976026D01*
X55138843Y-23457876D01*
X55494443Y-23457876D01*
X55494443Y-23976026D01*
X55640493Y-24122076D01*
X56582847Y-24122076D01*
X56797565Y-24033137D01*
X56961904Y-23868799D01*
X57050843Y-23654081D01*
X57050843Y-23603926D01*
X56904793Y-23457876D01*
X55494443Y-23457876D01*
X55138843Y-23457876D01*
X55118843Y-23457876D01*
X55118843Y-23297876D01*
X55138843Y-23297876D01*
X55138843Y-23217876D01*
X55494443Y-23217876D01*
X55494443Y-23297876D01*
X56904793Y-23297876D01*
X57050843Y-23151826D01*
X57050843Y-23101671D01*
X56961904Y-22886953D01*
X56797565Y-22722615D01*
X56651575Y-22662144D01*
X56681358Y-22618556D01*
X56699721Y-22527876D01*
X56699721Y-21727876D01*
X56698359Y-21720638D01*
X56787394Y-21683850D01*
X56922143Y-21549335D01*
X56995159Y-21373493D01*
X56995326Y-21183094D01*
X56922617Y-21007125D01*
X56788102Y-20872376D01*
X56612260Y-20799360D01*
X56421861Y-20799193D01*
X56245892Y-20871902D01*
X56122782Y-20994798D01*
X54416643Y-20994798D01*
X54331929Y-21010738D01*
X54254125Y-21060804D01*
X54201928Y-21137196D01*
X54183565Y-21227876D01*
X54183565Y-21494798D01*
X54166643Y-21494798D01*
X54081929Y-21510738D01*
X54004125Y-21560804D01*
X53951928Y-21637196D01*
X53933565Y-21727876D01*
X53933565Y-22527876D01*
X53949505Y-22612590D01*
X53981460Y-22662248D01*
X53835721Y-22722615D01*
X53671382Y-22886953D01*
X53582443Y-23101671D01*
X53582443Y-23133816D01*
X53478963Y-23030336D01*
X53462167Y-23047132D01*
X53435148Y-23023074D01*
X53299896Y-22958897D01*
X53164048Y-23070283D01*
X53149459Y-23359840D01*
X53018460Y-23490839D01*
X52892541Y-23490839D01*
X52914365Y-23057703D01*
X52790400Y-22933227D01*
X52491657Y-23077752D01*
X52270963Y-23325601D01*
X52206786Y-23460853D01*
X51608600Y-23460853D01*
X51608600Y-18998600D01*
X59491400Y-18998600D01*
X59491400Y-31280000D01*
X59501539Y-31330972D01*
X59510792Y-31382124D01*
X59512126Y-31384198D01*
X59512607Y-31386616D01*
X59541479Y-31429826D01*
X59569604Y-31473545D01*
X59571631Y-31474951D01*
X59573000Y-31477000D01*
X59616204Y-31505868D01*
X59658924Y-31535500D01*
X59661334Y-31536023D01*
X59663384Y-31537393D01*
X59714364Y-31547533D01*
X59765156Y-31558558D01*
X60915156Y-31578558D01*
X60917582Y-31578119D01*
X60920000Y-31578600D01*
X62220000Y-31578600D01*
X62235146Y-31575587D01*
X62250527Y-31576922D01*
X63520527Y-31436923D01*
X63547614Y-31428361D01*
X63575826Y-31425051D01*
X64625826Y-31085051D01*
X64671767Y-31059383D01*
X64717933Y-31034377D01*
X65717933Y-30204377D01*
X65751390Y-30163146D01*
X65785238Y-30122198D01*
X66039348Y-29650804D01*
X70258543Y-29650804D01*
X70346118Y-29837865D01*
X71013618Y-30079662D01*
X71232132Y-30158817D01*
X71464304Y-30148325D01*
X71674789Y-30049784D01*
X71831541Y-29878194D01*
X71848623Y-29831038D01*
X71761047Y-29643977D01*
X70435017Y-29163632D01*
X70258543Y-29650804D01*
X66039348Y-29650804D01*
X66475238Y-28842198D01*
X66484590Y-28811755D01*
X66498798Y-28783252D01*
X66522328Y-28696907D01*
X68570504Y-28696907D01*
X68580996Y-28929079D01*
X68679539Y-29139563D01*
X68851128Y-29296315D01*
X69069642Y-29375470D01*
X69737142Y-29617267D01*
X69924203Y-29529692D01*
X70100677Y-29042520D01*
X68774647Y-28562175D01*
X68587586Y-28649751D01*
X68570504Y-28696907D01*
X66522328Y-28696907D01*
X66651018Y-28224680D01*
X68741565Y-28224680D01*
X68829141Y-28411741D01*
X70155171Y-28892086D01*
X70182418Y-28816869D01*
X70516758Y-28937981D01*
X70489511Y-29013198D01*
X71815541Y-29493543D01*
X72002602Y-29405967D01*
X72019684Y-29358811D01*
X72009192Y-29126639D01*
X71910649Y-28916155D01*
X71793984Y-28809578D01*
X71836830Y-28778740D01*
X71884980Y-28699735D01*
X72157449Y-27947564D01*
X72158562Y-27940731D01*
X72233362Y-27940797D01*
X72409331Y-27868088D01*
X72544080Y-27733573D01*
X72617096Y-27557731D01*
X72617263Y-27367332D01*
X72544554Y-27191363D01*
X72410039Y-27056614D01*
X72234197Y-26983598D01*
X72043798Y-26983431D01*
X71867829Y-27056140D01*
X71862818Y-27061143D01*
X70260544Y-26480731D01*
X70175466Y-26466866D01*
X70085261Y-26487439D01*
X70010168Y-26541486D01*
X69962018Y-26620491D01*
X69871108Y-26871454D01*
X69855198Y-26865691D01*
X69770120Y-26851826D01*
X69679915Y-26872399D01*
X69604822Y-26926446D01*
X69556672Y-27005451D01*
X69284203Y-27757622D01*
X69270338Y-27842700D01*
X69283468Y-27900272D01*
X69125884Y-27907393D01*
X68915399Y-28005934D01*
X68758647Y-28177524D01*
X68741565Y-28224680D01*
X66651018Y-28224680D01*
X67676682Y-24461015D01*
X67969978Y-23587238D01*
X72397360Y-23587238D01*
X72408960Y-23793458D01*
X72938367Y-24266480D01*
X73111675Y-24421330D01*
X73331048Y-24498070D01*
X73563091Y-24485019D01*
X73772476Y-24384162D01*
X73805893Y-24346761D01*
X73794293Y-24140541D01*
X72742593Y-23200853D01*
X72397360Y-23587238D01*
X67969978Y-23587238D01*
X68146983Y-23059912D01*
X68550826Y-22292609D01*
X71109344Y-22292609D01*
X71122397Y-22524652D01*
X71223254Y-22734036D01*
X71396562Y-22888886D01*
X71925969Y-23361908D01*
X72132189Y-23350309D01*
X72477422Y-22963924D01*
X71425722Y-22024235D01*
X71219502Y-22035835D01*
X71186085Y-22073235D01*
X71109344Y-22292609D01*
X68550826Y-22292609D01*
X68823345Y-21774824D01*
X68885803Y-21698703D01*
X71520727Y-21698703D01*
X71532327Y-21904923D01*
X72584027Y-22844611D01*
X72637329Y-22784955D01*
X72902500Y-23021884D01*
X72849198Y-23081540D01*
X73900898Y-24021229D01*
X74107118Y-24009629D01*
X74140535Y-23972229D01*
X74217276Y-23752855D01*
X74204223Y-23520812D01*
X74135649Y-23378449D01*
X74186900Y-23365789D01*
X74261012Y-23310403D01*
X74794036Y-22713842D01*
X74797482Y-22708136D01*
X74861723Y-22734811D01*
X75052122Y-22734978D01*
X75228091Y-22662269D01*
X75362840Y-22527754D01*
X75435856Y-22351912D01*
X75436023Y-22161513D01*
X75363314Y-21985544D01*
X75228799Y-21850795D01*
X75052957Y-21777779D01*
X74862558Y-21777612D01*
X74851551Y-21782160D01*
X73579976Y-20646014D01*
X73506184Y-20601458D01*
X73414807Y-20586952D01*
X73324986Y-20609140D01*
X73250874Y-20664526D01*
X73073029Y-20863570D01*
X73060410Y-20852295D01*
X72986618Y-20807739D01*
X72895242Y-20793233D01*
X72805420Y-20815421D01*
X72731308Y-20870807D01*
X72198284Y-21467368D01*
X72153728Y-21541160D01*
X72144470Y-21599481D01*
X71995572Y-21547394D01*
X71763529Y-21560445D01*
X71554144Y-21661302D01*
X71520727Y-21698703D01*
X68885803Y-21698703D01*
X69743824Y-20652989D01*
X70950546Y-19752736D01*
X72463744Y-19097338D01*
X74298960Y-18728353D01*
X76488946Y-18708799D01*
X78901400Y-19097322D01*
G36*
X50266772Y-48158407D02*
X50232972Y-48192207D01*
X50266772Y-48226007D01*
X50122772Y-48370007D01*
X49918908Y-48370007D01*
X49774908Y-48226007D01*
X49808708Y-48192207D01*
X49774908Y-48158407D01*
X49918908Y-48014407D01*
X50122772Y-48014407D01*
X50266772Y-48158407D01*
X50266772Y-48158407D01*
G37*
X50266772Y-48158407D02*
X50232972Y-48192207D01*
X50266772Y-48226007D01*
X50122772Y-48370007D01*
X49918908Y-48370007D01*
X49774908Y-48226007D01*
X49808708Y-48192207D01*
X49774908Y-48158407D01*
X49918908Y-48014407D01*
X50122772Y-48014407D01*
X50266772Y-48158407D01*
G36*
X82153222Y-48158407D02*
X82119422Y-48192207D01*
X82153222Y-48226007D01*
X82009222Y-48370007D01*
X81805358Y-48370007D01*
X81661358Y-48226007D01*
X81695158Y-48192207D01*
X81661358Y-48158407D01*
X81805358Y-48014407D01*
X82009222Y-48014407D01*
X82153222Y-48158407D01*
X82153222Y-48158407D01*
G37*
X82153222Y-48158407D02*
X82119422Y-48192207D01*
X82153222Y-48226007D01*
X82009222Y-48370007D01*
X81805358Y-48370007D01*
X81661358Y-48226007D01*
X81695158Y-48192207D01*
X81661358Y-48158407D01*
X81805358Y-48014407D01*
X82009222Y-48014407D01*
X82153222Y-48158407D01*
M02*
