G04 #@! TF.FileFunction,Soldermask,Top*
%FSLAX46Y46*%
G04 Gerber Fmt 4.6, Leading zero omitted, Abs format (unit mm)*
G04 Created by KiCad (PCBNEW 4.0.0-rc2-stable) date 3/3/2016 3:44:06 PM*
%MOMM*%
G01*
G04 APERTURE LIST*
%ADD10C,0.150000*%
%ADD11R,0.500000X1.800000*%
%ADD12R,0.320000X2.300000*%
%ADD13R,0.800000X2.300000*%
%ADD14R,4.000000X1.000000*%
%ADD15C,0.600000*%
G04 APERTURE END LIST*
D10*
D11*
X72110120Y-36377056D03*
D12*
X74010120Y-36377056D03*
D13*
X72760120Y-36377056D03*
D10*
G36*
X78447541Y-35139679D02*
X80237777Y-35326909D01*
X80185769Y-35824197D01*
X78395533Y-35636967D01*
X78447541Y-35139679D01*
X78447541Y-35139679D01*
G37*
G36*
X77991905Y-37092881D02*
X80279429Y-37332119D01*
X80246143Y-37650383D01*
X77958619Y-37411145D01*
X77991905Y-37092881D01*
X77991905Y-37092881D01*
G37*
G36*
X78146889Y-35610963D02*
X80434413Y-35850201D01*
X80351199Y-36645861D01*
X78063675Y-36406623D01*
X78146889Y-35610963D01*
X78146889Y-35610963D01*
G37*
G36*
X77392801Y-40739216D02*
X78979954Y-41588302D01*
X78744097Y-42029178D01*
X77156944Y-41180092D01*
X77392801Y-40739216D01*
X77392801Y-40739216D01*
G37*
G36*
X76233652Y-42375972D02*
X78261680Y-43460915D01*
X78110732Y-43743076D01*
X76082704Y-42658133D01*
X76233652Y-42375972D01*
X76233652Y-42375972D01*
G37*
G36*
X76936507Y-41062163D02*
X78964535Y-42147106D01*
X78587163Y-42852507D01*
X76559135Y-41767564D01*
X76936507Y-41062163D01*
X76936507Y-41062163D01*
G37*
G36*
X73862821Y-44942951D02*
X74665569Y-46554036D01*
X74218045Y-46777021D01*
X73415297Y-45165936D01*
X73862821Y-44942951D01*
X73862821Y-44942951D01*
G37*
G36*
X71970184Y-45606671D02*
X72995917Y-47665280D01*
X72709502Y-47807991D01*
X71683769Y-45749382D01*
X71970184Y-45606671D01*
X71970184Y-45606671D01*
G37*
G36*
X73303805Y-44942174D02*
X74329537Y-47000783D01*
X73613499Y-47357560D01*
X72587767Y-45298951D01*
X73303805Y-44942174D01*
X73303805Y-44942174D01*
G37*
G36*
X68516541Y-46593996D02*
X68352880Y-48386541D01*
X67854951Y-48341080D01*
X68018612Y-46548535D01*
X68516541Y-46593996D01*
X68516541Y-46593996D01*
G37*
G36*
X66557514Y-46164097D02*
X66348393Y-48454570D01*
X66029718Y-48425475D01*
X66238839Y-46135002D01*
X66557514Y-46164097D01*
X66557514Y-46164097D01*
G37*
G36*
X68041342Y-46299571D02*
X67832221Y-48590045D01*
X67035534Y-48517307D01*
X67244655Y-46226833D01*
X68041342Y-46299571D01*
X68041342Y-46299571D01*
G37*
G36*
X62915995Y-45399740D02*
X62063230Y-46984919D01*
X61622903Y-46748040D01*
X62475668Y-45162861D01*
X62915995Y-45399740D01*
X62915995Y-45399740D01*
G37*
G36*
X61281932Y-44236796D02*
X60192287Y-46262302D01*
X59910478Y-46110700D01*
X61000123Y-44085194D01*
X61281932Y-44236796D01*
X61281932Y-44236796D01*
G37*
G36*
X62594108Y-44942697D02*
X61504464Y-46968203D01*
X60799940Y-46589197D01*
X61889584Y-44563691D01*
X62594108Y-44942697D01*
X62594108Y-44942697D01*
G37*
G36*
X58714499Y-41809371D02*
X57106884Y-42619045D01*
X56881975Y-42172485D01*
X58489590Y-41362811D01*
X58714499Y-41809371D01*
X58714499Y-41809371D01*
G37*
G36*
X58042640Y-39919607D02*
X55988465Y-40954191D01*
X55844522Y-40668393D01*
X57898697Y-39633809D01*
X58042640Y-39919607D01*
X58042640Y-39919607D01*
G37*
G36*
X58712870Y-41250356D02*
X56658695Y-42284940D01*
X56298840Y-41570444D01*
X58353015Y-40535860D01*
X58712870Y-41250356D01*
X58712870Y-41250356D01*
G37*
G36*
X56899843Y-36357031D02*
X55106481Y-36511475D01*
X55063581Y-36013319D01*
X56856943Y-35858875D01*
X56899843Y-36357031D01*
X56899843Y-36357031D01*
G37*
G36*
X56978175Y-34352920D02*
X54686657Y-34550264D01*
X54659201Y-34231444D01*
X56950719Y-34034100D01*
X56978175Y-34352920D01*
X56978175Y-34352920D01*
G37*
G36*
X57106020Y-35837425D02*
X54814502Y-36034769D01*
X54745860Y-35237719D01*
X57037378Y-35040375D01*
X57106020Y-35837425D01*
X57106020Y-35837425D01*
G37*
G36*
X57373567Y-30779144D02*
X55765269Y-29970827D01*
X55989801Y-29524078D01*
X57598099Y-30332395D01*
X57373567Y-30779144D01*
X57373567Y-30779144D01*
G37*
G36*
X58490581Y-29113347D02*
X56435533Y-28080498D01*
X56579233Y-27794579D01*
X58634281Y-28827428D01*
X58490581Y-29113347D01*
X58490581Y-29113347D01*
G37*
G36*
X57821474Y-30444661D02*
X55766426Y-29411812D01*
X56125678Y-28697013D01*
X58180726Y-29729862D01*
X57821474Y-30444661D01*
X57821474Y-30444661D01*
G37*
G36*
X60612740Y-26018087D02*
X59440225Y-24652360D01*
X59819594Y-24326661D01*
X60992109Y-25692388D01*
X60612740Y-26018087D01*
X60612740Y-26018087D01*
G37*
G36*
X62285476Y-24911491D02*
X60787262Y-23166396D01*
X61030058Y-22957949D01*
X62528272Y-24703044D01*
X62285476Y-24911491D01*
X62285476Y-24911491D01*
G37*
G36*
X61154958Y-25882072D02*
X59656745Y-24136977D01*
X60263734Y-23615860D01*
X61761947Y-25360955D01*
X61154958Y-25882072D01*
X61154958Y-25882072D01*
G37*
G36*
X65552016Y-23514909D02*
X65384443Y-21722727D01*
X65882272Y-21676179D01*
X66049845Y-23468361D01*
X65552016Y-23514909D01*
X65552016Y-23514909D01*
G37*
G36*
X67556648Y-23578562D02*
X67342526Y-21288551D01*
X67661136Y-21258760D01*
X67875258Y-23548771D01*
X67556648Y-23578562D01*
X67556648Y-23578562D01*
G37*
G36*
X66073119Y-23717275D02*
X65858997Y-21427264D01*
X66655523Y-21352787D01*
X66869645Y-23642798D01*
X66073119Y-23717275D01*
X66073119Y-23717275D01*
G37*
G36*
X71172268Y-23653356D02*
X71874026Y-21995787D01*
X72334462Y-22190720D01*
X71632704Y-23848289D01*
X71172268Y-23653356D01*
X71172268Y-23653356D01*
G37*
G36*
X72907337Y-24659406D02*
X73804028Y-22541401D01*
X74098707Y-22666158D01*
X73202016Y-24784163D01*
X72907337Y-24659406D01*
X72907337Y-24659406D01*
G37*
G36*
X71535238Y-24078507D02*
X72431929Y-21960502D01*
X73168626Y-22272395D01*
X72271935Y-24390400D01*
X71535238Y-24078507D01*
X71535238Y-24078507D01*
G37*
G36*
X75861873Y-26621138D02*
X77337803Y-25590783D01*
X77624013Y-26000764D01*
X76148083Y-27031119D01*
X75861873Y-26621138D01*
X75861873Y-26621138D01*
G37*
G36*
X76795997Y-28395965D02*
X78681907Y-27079401D01*
X78865081Y-27341789D01*
X76979171Y-28658353D01*
X76795997Y-28395965D01*
X76795997Y-28395965D01*
G37*
G36*
X75943092Y-27174224D02*
X77829003Y-25857660D01*
X78286938Y-26513628D01*
X76401027Y-27830192D01*
X75943092Y-27174224D01*
X75943092Y-27174224D01*
G37*
D14*
X85757630Y-50192207D03*
X85757630Y-48192207D03*
X85757630Y-46192207D03*
D15*
X84757630Y-50192207D03*
X84757630Y-48192207D03*
X84757630Y-46192207D03*
D14*
X49020840Y-46192207D03*
X49020840Y-48192207D03*
X49020840Y-50192207D03*
D15*
X50020840Y-46192207D03*
X50020840Y-48192207D03*
X50020840Y-50192207D03*
M02*
