G04 #@! TF.FileFunction,Copper,L1,Top,Signal*
%FSLAX46Y46*%
G04 Gerber Fmt 4.6, Leading zero omitted, Abs format (unit mm)*
G04 Created by KiCad (PCBNEW 4.0.0-rc2-stable) date 3/3/2016 3:48:31 PM*
%MOMM*%
G01*
G04 APERTURE LIST*
%ADD10C,0.150000*%
%ADD11C,0.500000*%
%ADD12R,4.000000X1.000000*%
%ADD13C,0.600000*%
%ADD14C,0.254000*%
%ADD15C,0.152400*%
G04 APERTURE END LIST*
D10*
G36*
X76600051Y-21338384D02*
X78253344Y-22050157D01*
X78055629Y-22509406D01*
X76402336Y-21797633D01*
X76600051Y-21338384D01*
X76600051Y-21338384D01*
G37*
G36*
X75583523Y-23067335D02*
X77696065Y-23976822D01*
X77569527Y-24270741D01*
X75456985Y-23361254D01*
X75583523Y-23067335D01*
X75583523Y-23067335D01*
G37*
G36*
X76172712Y-21698776D02*
X78285254Y-22608263D01*
X77968910Y-23343060D01*
X75856368Y-22433573D01*
X76172712Y-21698776D01*
X76172712Y-21698776D01*
G37*
D11*
X78509122Y-22214711D03*
D10*
G36*
X74083282Y-27184297D02*
X75736575Y-27896070D01*
X75538860Y-28355319D01*
X73885567Y-27643546D01*
X74083282Y-27184297D01*
X74083282Y-27184297D01*
G37*
G36*
X73066754Y-28913248D02*
X75179296Y-29822735D01*
X75052758Y-30116654D01*
X72940216Y-29207167D01*
X73066754Y-28913248D01*
X73066754Y-28913248D01*
G37*
G36*
X73655943Y-27544689D02*
X75768485Y-28454176D01*
X75452141Y-29188973D01*
X73339599Y-28279486D01*
X73655943Y-27544689D01*
X73655943Y-27544689D01*
G37*
D11*
X75992353Y-28060624D03*
D10*
G36*
X71566513Y-33030206D02*
X73219806Y-33741979D01*
X73022091Y-34201228D01*
X71368798Y-33489455D01*
X71566513Y-33030206D01*
X71566513Y-33030206D01*
G37*
G36*
X70549985Y-34759157D02*
X72662527Y-35668644D01*
X72535989Y-35962563D01*
X70423447Y-35053076D01*
X70549985Y-34759157D01*
X70549985Y-34759157D01*
G37*
G36*
X71139174Y-33390598D02*
X73251716Y-34300085D01*
X72935372Y-35034882D01*
X70822830Y-34125395D01*
X71139174Y-33390598D01*
X71139174Y-33390598D01*
G37*
D11*
X73475584Y-33906533D03*
D10*
G36*
X69049743Y-38876119D02*
X70703036Y-39587892D01*
X70505321Y-40047141D01*
X68852028Y-39335368D01*
X69049743Y-38876119D01*
X69049743Y-38876119D01*
G37*
G36*
X68033215Y-40605070D02*
X70145757Y-41514557D01*
X70019219Y-41808476D01*
X67906677Y-40898989D01*
X68033215Y-40605070D01*
X68033215Y-40605070D01*
G37*
G36*
X68622404Y-39236511D02*
X70734946Y-40145998D01*
X70418602Y-40880795D01*
X68306060Y-39971308D01*
X68622404Y-39236511D01*
X68622404Y-39236511D01*
G37*
D11*
X70958814Y-39752446D03*
D10*
G36*
X68144577Y-46214946D02*
X66494760Y-46934740D01*
X66294817Y-46476458D01*
X67944634Y-45756664D01*
X68144577Y-46214946D01*
X68144577Y-46214946D01*
G37*
G36*
X67577945Y-44291011D02*
X65469846Y-45210748D01*
X65341883Y-44917447D01*
X67449982Y-43997710D01*
X67577945Y-44291011D01*
X67577945Y-44291011D01*
G37*
G36*
X68173775Y-45656692D02*
X66065676Y-46576430D01*
X65745767Y-45843178D01*
X67853866Y-44923440D01*
X68173775Y-45656692D01*
X68173775Y-45656692D01*
G37*
D11*
X66199796Y-47008878D03*
D10*
G36*
X65610407Y-40406440D02*
X63960590Y-41126234D01*
X63760647Y-40667952D01*
X65410464Y-39948158D01*
X65610407Y-40406440D01*
X65610407Y-40406440D01*
G37*
G36*
X65043775Y-38482505D02*
X62935676Y-39402242D01*
X62807713Y-39108941D01*
X64915812Y-38189204D01*
X65043775Y-38482505D01*
X65043775Y-38482505D01*
G37*
G36*
X65639605Y-39848186D02*
X63531506Y-40767924D01*
X63211597Y-40034672D01*
X65319696Y-39114934D01*
X65639605Y-39848186D01*
X65639605Y-39848186D01*
G37*
D11*
X63665626Y-41200372D03*
D10*
G36*
X63076231Y-34597932D02*
X61426414Y-35317726D01*
X61226471Y-34859444D01*
X62876288Y-34139650D01*
X63076231Y-34597932D01*
X63076231Y-34597932D01*
G37*
G36*
X62509599Y-32673997D02*
X60401500Y-33593734D01*
X60273537Y-33300433D01*
X62381636Y-32380696D01*
X62509599Y-32673997D01*
X62509599Y-32673997D01*
G37*
G36*
X63105429Y-34039678D02*
X60997330Y-34959416D01*
X60677421Y-34226164D01*
X62785520Y-33306426D01*
X63105429Y-34039678D01*
X63105429Y-34039678D01*
G37*
D11*
X61131450Y-35391864D03*
D10*
G36*
X60542052Y-28789428D02*
X58892235Y-29509222D01*
X58692292Y-29050940D01*
X60342109Y-28331146D01*
X60542052Y-28789428D01*
X60542052Y-28789428D01*
G37*
G36*
X59975420Y-26865493D02*
X57867321Y-27785230D01*
X57739358Y-27491929D01*
X59847457Y-26572192D01*
X59975420Y-26865493D01*
X59975420Y-26865493D01*
G37*
G36*
X60571250Y-28231174D02*
X58463151Y-29150912D01*
X58143242Y-28417660D01*
X60251341Y-27497922D01*
X60571250Y-28231174D01*
X60571250Y-28231174D01*
G37*
D11*
X58597271Y-29583360D03*
D10*
G36*
X58007877Y-22980922D02*
X56358060Y-23700716D01*
X56158117Y-23242434D01*
X57807934Y-22522640D01*
X58007877Y-22980922D01*
X58007877Y-22980922D01*
G37*
G36*
X57441245Y-21056987D02*
X55333146Y-21976724D01*
X55205183Y-21683423D01*
X57313282Y-20763686D01*
X57441245Y-21056987D01*
X57441245Y-21056987D01*
G37*
G36*
X58037075Y-22422668D02*
X55928976Y-23342406D01*
X55609067Y-22609154D01*
X57717166Y-21689416D01*
X58037075Y-22422668D01*
X58037075Y-22422668D01*
G37*
D11*
X56063096Y-23774854D03*
D12*
X84825836Y-50117210D03*
X84825836Y-48117210D03*
X84825836Y-46117210D03*
D13*
X83825836Y-50117210D03*
X83825836Y-48117210D03*
X83825836Y-46117210D03*
D12*
X49020840Y-46192207D03*
X49020840Y-48192207D03*
X49020840Y-50192207D03*
D13*
X50020840Y-46192207D03*
X50020840Y-48192207D03*
X50020840Y-50192207D03*
D11*
X57960222Y-21028373D03*
D14*
X77330000Y-21920000D02*
X77070000Y-22520000D01*
X77330000Y-21920000D02*
X77070000Y-22520000D01*
X77330000Y-21920000D02*
X77070000Y-22520000D01*
X77330000Y-21920000D02*
X77070000Y-22520000D01*
X77330000Y-21920000D02*
X77070000Y-22520000D01*
X77330000Y-21920000D02*
X77070000Y-22520000D01*
X77330000Y-21920000D02*
X77070000Y-22520000D01*
X77330000Y-21920000D02*
X77070000Y-22520000D01*
X77330000Y-21920000D02*
X77070000Y-22520000D01*
X77070000Y-22520000D02*
X78510000Y-22210000D01*
X77070000Y-22520000D02*
X78510000Y-22210000D01*
X77070000Y-22520000D02*
X78510000Y-22210000D01*
X77070000Y-22520000D02*
X78510000Y-22210000D01*
X77070000Y-22520000D02*
X78510000Y-22210000D01*
X77070000Y-22520000D02*
X78510000Y-22210000D01*
X77070000Y-22520000D02*
X78510000Y-22210000D01*
X77070000Y-22520000D02*
X78510000Y-22210000D01*
X77070000Y-22520000D02*
X78510000Y-22210000D01*
X74810000Y-27770000D02*
X74550000Y-28370000D01*
X74810000Y-27770000D02*
X74550000Y-28370000D01*
X74810000Y-27770000D02*
X74550000Y-28370000D01*
X74810000Y-27770000D02*
X74550000Y-28370000D01*
X74810000Y-27770000D02*
X74550000Y-28370000D01*
X74810000Y-27770000D02*
X74550000Y-28370000D01*
X74810000Y-27770000D02*
X74550000Y-28370000D01*
X74810000Y-27770000D02*
X74550000Y-28370000D01*
X74810000Y-27770000D02*
X74550000Y-28370000D01*
X74550000Y-28370000D02*
X75990000Y-28060000D01*
X74550000Y-28370000D02*
X75990000Y-28060000D01*
X74550000Y-28370000D02*
X75990000Y-28060000D01*
X74550000Y-28370000D02*
X75990000Y-28060000D01*
X74550000Y-28370000D02*
X75990000Y-28060000D01*
X74550000Y-28370000D02*
X75990000Y-28060000D01*
X74550000Y-28370000D02*
X75990000Y-28060000D01*
X74550000Y-28370000D02*
X75990000Y-28060000D01*
X74550000Y-28370000D02*
X75990000Y-28060000D01*
X72290000Y-33620000D02*
X72040000Y-34210000D01*
X72290000Y-33620000D02*
X72040000Y-34210000D01*
X72290000Y-33620000D02*
X72040000Y-34210000D01*
X72290000Y-33620000D02*
X72040000Y-34210000D01*
X72290000Y-33620000D02*
X72040000Y-34210000D01*
X72290000Y-33620000D02*
X72040000Y-34210000D01*
X72290000Y-33620000D02*
X72040000Y-34210000D01*
X72290000Y-33620000D02*
X72040000Y-34210000D01*
X72290000Y-33620000D02*
X72040000Y-34210000D01*
X72040000Y-34210000D02*
X73480000Y-33910000D01*
X72040000Y-34210000D02*
X73480000Y-33910000D01*
X72040000Y-34210000D02*
X73480000Y-33910000D01*
X72040000Y-34210000D02*
X73480000Y-33910000D01*
X72040000Y-34210000D02*
X73480000Y-33910000D01*
X72040000Y-34210000D02*
X73480000Y-33910000D01*
X72040000Y-34210000D02*
X73480000Y-33910000D01*
X72040000Y-34210000D02*
X73480000Y-33910000D01*
X72040000Y-34210000D02*
X73480000Y-33910000D01*
X69780000Y-39460000D02*
X69520000Y-40060000D01*
X69780000Y-39460000D02*
X69520000Y-40060000D01*
X69780000Y-39460000D02*
X69520000Y-40060000D01*
X69780000Y-39460000D02*
X69520000Y-40060000D01*
X69780000Y-39460000D02*
X69520000Y-40060000D01*
X69780000Y-39460000D02*
X69520000Y-40060000D01*
X69780000Y-39460000D02*
X69520000Y-40060000D01*
X69780000Y-39460000D02*
X69520000Y-40060000D01*
X69780000Y-39460000D02*
X69520000Y-40060000D01*
X69520000Y-40060000D02*
X70960000Y-39750000D01*
X69520000Y-40060000D02*
X70960000Y-39750000D01*
X69520000Y-40060000D02*
X70960000Y-39750000D01*
X69520000Y-40060000D02*
X70960000Y-39750000D01*
X69520000Y-40060000D02*
X70960000Y-39750000D01*
X69520000Y-40060000D02*
X70960000Y-39750000D01*
X69520000Y-40060000D02*
X70960000Y-39750000D01*
X69520000Y-40060000D02*
X70960000Y-39750000D01*
X69520000Y-40060000D02*
X70960000Y-39750000D01*
X67220000Y-46350000D02*
X66960000Y-45750000D01*
X67220000Y-46350000D02*
X66960000Y-45750000D01*
X67220000Y-46350000D02*
X66960000Y-45750000D01*
X67220000Y-46350000D02*
X66960000Y-45750000D01*
X67220000Y-46350000D02*
X66960000Y-45750000D01*
X67220000Y-46350000D02*
X66960000Y-45750000D01*
X67220000Y-46350000D02*
X66960000Y-45750000D01*
X67220000Y-46350000D02*
X66960000Y-45750000D01*
X67220000Y-46350000D02*
X66960000Y-45750000D01*
X66960000Y-45750000D02*
X66200000Y-47010000D01*
X66960000Y-45750000D02*
X66200000Y-47010000D01*
X66960000Y-45750000D02*
X66200000Y-47010000D01*
X66960000Y-45750000D02*
X66200000Y-47010000D01*
X66960000Y-45750000D02*
X66200000Y-47010000D01*
X66960000Y-45750000D02*
X66200000Y-47010000D01*
X66960000Y-45750000D02*
X66200000Y-47010000D01*
X66960000Y-45750000D02*
X66200000Y-47010000D01*
X66960000Y-45750000D02*
X66200000Y-47010000D01*
X64690000Y-40540000D02*
X64430000Y-39940000D01*
X64690000Y-40540000D02*
X64430000Y-39940000D01*
X64690000Y-40540000D02*
X64430000Y-39940000D01*
X64690000Y-40540000D02*
X64430000Y-39940000D01*
X64690000Y-40540000D02*
X64430000Y-39940000D01*
X64690000Y-40540000D02*
X64430000Y-39940000D01*
X64690000Y-40540000D02*
X64430000Y-39940000D01*
X64690000Y-40540000D02*
X64430000Y-39940000D01*
X64690000Y-40540000D02*
X64430000Y-39940000D01*
X64430000Y-39940000D02*
X63670000Y-41200000D01*
X64430000Y-39940000D02*
X63670000Y-41200000D01*
X64430000Y-39940000D02*
X63670000Y-41200000D01*
X64430000Y-39940000D02*
X63670000Y-41200000D01*
X64430000Y-39940000D02*
X63670000Y-41200000D01*
X64430000Y-39940000D02*
X63670000Y-41200000D01*
X64430000Y-39940000D02*
X63670000Y-41200000D01*
X64430000Y-39940000D02*
X63670000Y-41200000D01*
X64430000Y-39940000D02*
X63670000Y-41200000D01*
X62150000Y-34730000D02*
X61890000Y-34130000D01*
X62150000Y-34730000D02*
X61890000Y-34130000D01*
X62150000Y-34730000D02*
X61890000Y-34130000D01*
X62150000Y-34730000D02*
X61890000Y-34130000D01*
X62150000Y-34730000D02*
X61890000Y-34130000D01*
X62150000Y-34730000D02*
X61890000Y-34130000D01*
X62150000Y-34730000D02*
X61890000Y-34130000D01*
X62150000Y-34730000D02*
X61890000Y-34130000D01*
X62150000Y-34730000D02*
X61890000Y-34130000D01*
X61890000Y-34130000D02*
X61130000Y-35390000D01*
X61890000Y-34130000D02*
X61130000Y-35390000D01*
X61890000Y-34130000D02*
X61130000Y-35390000D01*
X61890000Y-34130000D02*
X61130000Y-35390000D01*
X61890000Y-34130000D02*
X61130000Y-35390000D01*
X61890000Y-34130000D02*
X61130000Y-35390000D01*
X61890000Y-34130000D02*
X61130000Y-35390000D01*
X61890000Y-34130000D02*
X61130000Y-35390000D01*
X61890000Y-34130000D02*
X61130000Y-35390000D01*
X59620000Y-28920000D02*
X59360000Y-28320000D01*
X59620000Y-28920000D02*
X59360000Y-28320000D01*
X59620000Y-28920000D02*
X59360000Y-28320000D01*
X59620000Y-28920000D02*
X59360000Y-28320000D01*
X59620000Y-28920000D02*
X59360000Y-28320000D01*
X59620000Y-28920000D02*
X59360000Y-28320000D01*
X59620000Y-28920000D02*
X59360000Y-28320000D01*
X59620000Y-28920000D02*
X59360000Y-28320000D01*
X59620000Y-28920000D02*
X59360000Y-28320000D01*
X59360000Y-28320000D02*
X58600000Y-29580000D01*
X59360000Y-28320000D02*
X58600000Y-29580000D01*
X59360000Y-28320000D02*
X58600000Y-29580000D01*
X59360000Y-28320000D02*
X58600000Y-29580000D01*
X59360000Y-28320000D02*
X58600000Y-29580000D01*
X59360000Y-28320000D02*
X58600000Y-29580000D01*
X59360000Y-28320000D02*
X58600000Y-29580000D01*
X59360000Y-28320000D02*
X58600000Y-29580000D01*
X59360000Y-28320000D02*
X58600000Y-29580000D01*
X57080000Y-23110000D02*
X56820000Y-22520000D01*
X57080000Y-23110000D02*
X56820000Y-22520000D01*
X57080000Y-23110000D02*
X56820000Y-22520000D01*
X57080000Y-23110000D02*
X56820000Y-22520000D01*
X57080000Y-23110000D02*
X56820000Y-22520000D01*
X57080000Y-23110000D02*
X56820000Y-22520000D01*
X57080000Y-23110000D02*
X56820000Y-22520000D01*
X57080000Y-23110000D02*
X56820000Y-22520000D01*
X57080000Y-23110000D02*
X56820000Y-22520000D01*
X56820000Y-22520000D02*
X56060000Y-23770000D01*
X56820000Y-22520000D02*
X56060000Y-23770000D01*
X56820000Y-22520000D02*
X56060000Y-23770000D01*
X56820000Y-22520000D02*
X56060000Y-23770000D01*
X56820000Y-22520000D02*
X56060000Y-23770000D01*
X56820000Y-22520000D02*
X56060000Y-23770000D01*
X56820000Y-22520000D02*
X56060000Y-23770000D01*
X56820000Y-22520000D02*
X56060000Y-23770000D01*
X56820000Y-22520000D02*
X56060000Y-23770000D01*
D15*
G36*
X66641960Y-37495041D02*
X66642438Y-37495766D01*
X66642607Y-37496616D01*
X66672325Y-37541092D01*
X66701800Y-37585793D01*
X66702519Y-37586280D01*
X66703000Y-37587000D01*
X66747452Y-37616702D01*
X66791813Y-37646737D01*
X66792664Y-37646912D01*
X66793384Y-37647393D01*
X66845743Y-37657808D01*
X66898297Y-37668596D01*
X66899152Y-37668431D01*
X66900000Y-37668600D01*
X67130000Y-37668600D01*
X67132070Y-37668188D01*
X67134144Y-37668569D01*
X67185299Y-37657600D01*
X67236616Y-37647393D01*
X67238370Y-37646221D01*
X67240432Y-37645779D01*
X67283510Y-37616060D01*
X67327000Y-37587000D01*
X67328171Y-37585247D01*
X67329908Y-37584049D01*
X67358327Y-37540117D01*
X67387393Y-37496616D01*
X67387805Y-37494547D01*
X67388950Y-37492776D01*
X67989135Y-35980566D01*
X71469770Y-35980566D01*
X71546163Y-36172465D01*
X72198245Y-36453198D01*
X72411712Y-36545099D01*
X72644099Y-36548315D01*
X72860028Y-36462356D01*
X73026624Y-36300307D01*
X73046457Y-36254240D01*
X72970063Y-36062341D01*
X71674661Y-35504647D01*
X71469770Y-35980566D01*
X67989135Y-35980566D01*
X68314342Y-35161186D01*
X69837695Y-35161186D01*
X69923656Y-35377115D01*
X70085705Y-35543711D01*
X70299171Y-35635612D01*
X70951253Y-35916345D01*
X71143152Y-35839951D01*
X71348044Y-35364032D01*
X70052643Y-34806338D01*
X69860744Y-34882732D01*
X69840911Y-34928800D01*
X69837695Y-35161186D01*
X68314342Y-35161186D01*
X68589669Y-34467480D01*
X70039517Y-34467480D01*
X70115911Y-34659379D01*
X71411313Y-35217073D01*
X71442947Y-35143593D01*
X71769564Y-35284208D01*
X71737930Y-35357688D01*
X73033331Y-35915382D01*
X73225230Y-35838988D01*
X73245063Y-35792920D01*
X73248279Y-35560534D01*
X73162318Y-35344605D01*
X73052139Y-35231334D01*
X73096729Y-35203076D01*
X73149453Y-35127048D01*
X73465797Y-34392251D01*
X73467394Y-34385126D01*
X73570366Y-34385216D01*
X73746335Y-34312507D01*
X73881084Y-34177992D01*
X73954100Y-34002150D01*
X73954267Y-33811751D01*
X73881558Y-33635782D01*
X73747043Y-33501033D01*
X73571201Y-33428017D01*
X73380802Y-33427850D01*
X73227099Y-33491359D01*
X71658679Y-32816125D01*
X71574566Y-32797267D01*
X71483306Y-32812486D01*
X71405156Y-32862012D01*
X71352432Y-32938040D01*
X71246883Y-33183208D01*
X71231340Y-33176517D01*
X71147227Y-33157659D01*
X71055967Y-33172878D01*
X70977817Y-33222404D01*
X70925093Y-33298432D01*
X70608749Y-34033229D01*
X70589891Y-34117342D01*
X70599604Y-34175588D01*
X70441875Y-34173405D01*
X70225946Y-34259364D01*
X70059350Y-34421413D01*
X70039517Y-34467480D01*
X68589669Y-34467480D01*
X70309337Y-30134657D01*
X73986539Y-30134657D01*
X74062932Y-30326556D01*
X74715014Y-30607289D01*
X74928481Y-30699190D01*
X75160868Y-30702406D01*
X75376797Y-30616447D01*
X75543393Y-30454398D01*
X75563226Y-30408331D01*
X75486832Y-30216432D01*
X74191430Y-29658738D01*
X73986539Y-30134657D01*
X70309337Y-30134657D01*
X70634544Y-29315277D01*
X72354464Y-29315277D01*
X72440425Y-29531206D01*
X72602474Y-29697802D01*
X72815940Y-29789703D01*
X73468022Y-30070436D01*
X73659921Y-29994042D01*
X73864813Y-29518123D01*
X72569412Y-28960429D01*
X72377513Y-29036823D01*
X72357680Y-29082891D01*
X72354464Y-29315277D01*
X70634544Y-29315277D01*
X70909871Y-28621571D01*
X72556286Y-28621571D01*
X72632680Y-28813470D01*
X73928082Y-29371164D01*
X73959716Y-29297684D01*
X74286333Y-29438299D01*
X74254699Y-29511779D01*
X75550100Y-30069473D01*
X75741999Y-29993079D01*
X75761832Y-29947011D01*
X75765048Y-29714625D01*
X75679087Y-29498696D01*
X75568908Y-29385425D01*
X75613498Y-29357167D01*
X75666222Y-29281139D01*
X75982566Y-28546342D01*
X75984163Y-28539217D01*
X76087135Y-28539307D01*
X76263104Y-28466598D01*
X76397853Y-28332083D01*
X76470869Y-28156241D01*
X76471036Y-27965842D01*
X76398327Y-27789873D01*
X76263812Y-27655124D01*
X76087970Y-27582108D01*
X75897571Y-27581941D01*
X75743868Y-27645450D01*
X74175448Y-26970216D01*
X74091335Y-26951358D01*
X74000075Y-26966577D01*
X73921925Y-27016103D01*
X73869201Y-27092131D01*
X73763652Y-27337299D01*
X73748109Y-27330608D01*
X73663996Y-27311750D01*
X73572736Y-27326969D01*
X73494586Y-27376495D01*
X73441862Y-27452523D01*
X73125518Y-28187320D01*
X73106660Y-28271433D01*
X73116373Y-28329679D01*
X72958644Y-28327496D01*
X72742715Y-28413455D01*
X72576119Y-28575504D01*
X72556286Y-28621571D01*
X70909871Y-28621571D01*
X72629542Y-24288744D01*
X76503308Y-24288744D01*
X76579701Y-24480643D01*
X77231783Y-24761376D01*
X77445250Y-24853277D01*
X77677637Y-24856493D01*
X77893566Y-24770534D01*
X78060162Y-24608485D01*
X78079995Y-24562418D01*
X78003601Y-24370519D01*
X76708199Y-23812825D01*
X76503308Y-24288744D01*
X72629542Y-24288744D01*
X72954749Y-23469364D01*
X74871233Y-23469364D01*
X74957194Y-23685293D01*
X75119243Y-23851889D01*
X75332709Y-23943790D01*
X75984791Y-24224523D01*
X76176690Y-24148129D01*
X76381582Y-23672210D01*
X75086181Y-23114516D01*
X74894282Y-23190910D01*
X74874449Y-23236978D01*
X74871233Y-23469364D01*
X72954749Y-23469364D01*
X73230076Y-22775658D01*
X75073055Y-22775658D01*
X75149449Y-22967557D01*
X76444851Y-23525251D01*
X76476485Y-23451771D01*
X76803102Y-23592386D01*
X76771468Y-23665866D01*
X78066869Y-24223560D01*
X78258768Y-24147166D01*
X78278601Y-24101098D01*
X78281817Y-23868712D01*
X78195856Y-23652783D01*
X78085677Y-23539512D01*
X78130267Y-23511254D01*
X78182991Y-23435226D01*
X78499335Y-22700429D01*
X78500932Y-22693304D01*
X78603904Y-22693394D01*
X78779873Y-22620685D01*
X78914622Y-22486170D01*
X78987638Y-22310328D01*
X78987805Y-22119929D01*
X78915096Y-21943960D01*
X78780581Y-21809211D01*
X78604739Y-21736195D01*
X78414340Y-21736028D01*
X78260637Y-21799537D01*
X76692217Y-21124303D01*
X76608104Y-21105445D01*
X76516844Y-21120664D01*
X76438694Y-21170190D01*
X76385970Y-21246218D01*
X76280421Y-21491386D01*
X76264878Y-21484695D01*
X76180765Y-21465837D01*
X76089505Y-21481056D01*
X76011355Y-21530582D01*
X75958631Y-21606610D01*
X75642287Y-22341407D01*
X75623429Y-22425520D01*
X75633142Y-22483766D01*
X75475413Y-22481583D01*
X75259484Y-22567542D01*
X75092888Y-22729591D01*
X75073055Y-22775658D01*
X73230076Y-22775658D01*
X74729167Y-18998600D01*
X82231400Y-18998600D01*
X82231400Y-19921878D01*
X71274640Y-45038603D01*
X71274076Y-45041185D01*
X71272607Y-45043384D01*
X71262502Y-45094187D01*
X71251448Y-45144805D01*
X71251916Y-45147408D01*
X71251400Y-45150000D01*
X71261506Y-45200805D01*
X71270664Y-45251798D01*
X71272091Y-45254023D01*
X71272607Y-45256616D01*
X71301383Y-45299682D01*
X71329360Y-45343292D01*
X71331532Y-45344802D01*
X71333000Y-45347000D01*
X71376073Y-45375781D01*
X71418603Y-45405360D01*
X71421185Y-45405924D01*
X71423384Y-45407393D01*
X71474187Y-45417498D01*
X71524805Y-45428552D01*
X71527408Y-45428084D01*
X71530000Y-45428600D01*
X82696789Y-45428600D01*
X82663318Y-45450138D01*
X82611121Y-45526530D01*
X82592758Y-45617210D01*
X82592758Y-46617210D01*
X82608698Y-46701924D01*
X82658764Y-46779728D01*
X82735156Y-46831925D01*
X82825836Y-46850288D01*
X86825836Y-46850288D01*
X86910550Y-46834348D01*
X86931400Y-46820931D01*
X86931400Y-47033010D01*
X85149686Y-47033010D01*
X85003636Y-47179060D01*
X85003636Y-47939410D01*
X85023636Y-47939410D01*
X85023636Y-48295010D01*
X85003636Y-48295010D01*
X85003636Y-49055360D01*
X85149686Y-49201410D01*
X86931400Y-49201410D01*
X86931400Y-49412665D01*
X86916516Y-49402495D01*
X86825836Y-49384132D01*
X82825836Y-49384132D01*
X82741122Y-49400072D01*
X82663318Y-49450138D01*
X82611121Y-49526530D01*
X82592758Y-49617210D01*
X82592758Y-50617210D01*
X82608698Y-50701924D01*
X82658764Y-50779728D01*
X82735156Y-50831925D01*
X82825836Y-50850288D01*
X86825836Y-50850288D01*
X86910550Y-50834348D01*
X86931400Y-50820931D01*
X86931400Y-50871400D01*
X68910000Y-50871400D01*
X68857575Y-50881828D01*
X68804885Y-50891990D01*
X68804194Y-50892446D01*
X68803384Y-50892607D01*
X68758921Y-50922316D01*
X68714151Y-50951855D01*
X68713687Y-50952541D01*
X68713000Y-50953000D01*
X68683225Y-50997562D01*
X68653233Y-51041887D01*
X68565016Y-51251400D01*
X65414984Y-51251400D01*
X65326768Y-51041887D01*
X65296761Y-50997541D01*
X65267000Y-50953000D01*
X65266312Y-50952540D01*
X65265849Y-50951856D01*
X65221198Y-50922396D01*
X65176616Y-50892607D01*
X65175804Y-50892445D01*
X65175115Y-50891991D01*
X65122509Y-50881844D01*
X65070000Y-50871400D01*
X51164522Y-50871400D01*
X51183358Y-50859279D01*
X51235555Y-50782887D01*
X51253918Y-50692207D01*
X51253918Y-49692207D01*
X51237978Y-49607493D01*
X51187912Y-49529689D01*
X51111520Y-49477492D01*
X51020840Y-49459129D01*
X47020840Y-49459129D01*
X46936126Y-49475069D01*
X46908600Y-49492782D01*
X46908600Y-49276407D01*
X48696990Y-49276407D01*
X48843040Y-49130357D01*
X48843040Y-48370007D01*
X48823040Y-48370007D01*
X48823040Y-48130540D01*
X49121428Y-48130540D01*
X49166293Y-48479424D01*
X49198640Y-48557517D01*
X49198640Y-49130357D01*
X49344690Y-49276407D01*
X51137044Y-49276407D01*
X51351762Y-49187468D01*
X51516101Y-49023130D01*
X51605040Y-48808412D01*
X51605040Y-48516057D01*
X51458990Y-48370007D01*
X50888760Y-48370007D01*
X50920252Y-48253874D01*
X50889458Y-48014407D01*
X51458990Y-48014407D01*
X51605040Y-47868357D01*
X51605040Y-47576002D01*
X51573976Y-47501005D01*
X82241636Y-47501005D01*
X82241636Y-47793360D01*
X82387686Y-47939410D01*
X82957916Y-47939410D01*
X82926424Y-48055543D01*
X82957218Y-48295010D01*
X82387686Y-48295010D01*
X82241636Y-48441060D01*
X82241636Y-48733415D01*
X82330575Y-48948133D01*
X82494914Y-49112471D01*
X82709632Y-49201410D01*
X84501986Y-49201410D01*
X84648036Y-49055360D01*
X84648036Y-48463608D01*
X84725248Y-48178877D01*
X84680383Y-47829993D01*
X84648036Y-47751900D01*
X84648036Y-47179060D01*
X84501986Y-47033010D01*
X82709632Y-47033010D01*
X82494914Y-47121949D01*
X82330575Y-47286287D01*
X82241636Y-47501005D01*
X51573976Y-47501005D01*
X51516101Y-47361284D01*
X51351762Y-47196946D01*
X51137044Y-47108007D01*
X49344690Y-47108007D01*
X49198640Y-47254057D01*
X49198640Y-47845809D01*
X49121428Y-48130540D01*
X48823040Y-48130540D01*
X48823040Y-48014407D01*
X48843040Y-48014407D01*
X48843040Y-47254057D01*
X48696990Y-47108007D01*
X46908600Y-47108007D01*
X46908600Y-46892191D01*
X46930160Y-46906922D01*
X47020840Y-46925285D01*
X51020840Y-46925285D01*
X51105554Y-46909345D01*
X51183358Y-46859279D01*
X51235555Y-46782887D01*
X51253918Y-46692207D01*
X51253918Y-45692207D01*
X51237978Y-45607493D01*
X51187912Y-45529689D01*
X51151633Y-45504900D01*
X64960801Y-45504900D01*
X64980857Y-45550871D01*
X65148239Y-45712108D01*
X65364582Y-45797018D01*
X65522572Y-45794064D01*
X65512705Y-45845925D01*
X65532136Y-45936383D01*
X65852045Y-46669635D01*
X65856151Y-46675671D01*
X65794296Y-46737419D01*
X65721280Y-46913261D01*
X65721113Y-47103660D01*
X65793822Y-47279629D01*
X65928337Y-47414378D01*
X66104179Y-47487394D01*
X66294578Y-47487561D01*
X66470547Y-47414852D01*
X66605296Y-47280337D01*
X66676051Y-47109940D01*
X68237782Y-46428577D01*
X68309053Y-46380091D01*
X68360346Y-46303089D01*
X68377639Y-46212199D01*
X68358208Y-46121741D01*
X68251470Y-45877090D01*
X68266980Y-45870323D01*
X68338251Y-45821837D01*
X68389544Y-45744836D01*
X68406837Y-45653945D01*
X68387406Y-45563487D01*
X68067497Y-44830235D01*
X68019011Y-44758964D01*
X67969866Y-44726227D01*
X68079305Y-44612619D01*
X68164216Y-44396275D01*
X68159871Y-44163907D01*
X68139815Y-44117937D01*
X67947548Y-44042476D01*
X66654870Y-44606455D01*
X66686861Y-44679780D01*
X66360931Y-44821979D01*
X66328940Y-44748654D01*
X65036262Y-45312633D01*
X64960801Y-45504900D01*
X51151633Y-45504900D01*
X51111520Y-45477492D01*
X51020840Y-45459129D01*
X47020840Y-45459129D01*
X46936126Y-45475069D01*
X46908600Y-45492782D01*
X46908600Y-45428600D01*
X62420000Y-45428600D01*
X62423101Y-45427983D01*
X62426216Y-45428531D01*
X62476301Y-45417401D01*
X62526616Y-45407393D01*
X62529246Y-45405636D01*
X62532332Y-45404950D01*
X62574336Y-45375508D01*
X62617000Y-45347000D01*
X62618757Y-45344370D01*
X62621347Y-45342555D01*
X62648892Y-45299270D01*
X62677393Y-45256616D01*
X62678010Y-45253514D01*
X62679708Y-45250846D01*
X62688594Y-45200305D01*
X62698600Y-45150000D01*
X62697983Y-45146899D01*
X62698531Y-45143784D01*
X62687401Y-45093699D01*
X62677393Y-45043384D01*
X62675636Y-45040754D01*
X62674950Y-45037668D01*
X62575601Y-44812183D01*
X64755612Y-44812183D01*
X64759957Y-45044551D01*
X64780013Y-45090521D01*
X64972280Y-45165982D01*
X66264958Y-44602003D01*
X66057757Y-44127085D01*
X65865489Y-44051624D01*
X65214779Y-44335521D01*
X65001761Y-44428458D01*
X64840523Y-44595839D01*
X64755612Y-44812183D01*
X62575601Y-44812183D01*
X62211091Y-43984886D01*
X66383688Y-43984886D01*
X66590888Y-44459804D01*
X67883566Y-43895825D01*
X67959027Y-43703558D01*
X67938971Y-43657587D01*
X67771589Y-43496350D01*
X67555246Y-43411440D01*
X67322877Y-43415784D01*
X67109859Y-43508721D01*
X66459149Y-43792618D01*
X66383688Y-43984886D01*
X62211091Y-43984886D01*
X61260090Y-41826479D01*
X68953000Y-41826479D01*
X69029393Y-42018378D01*
X69681475Y-42299111D01*
X69894942Y-42391012D01*
X70127329Y-42394228D01*
X70343258Y-42308269D01*
X70509854Y-42146220D01*
X70529687Y-42100153D01*
X70453293Y-41908254D01*
X69157891Y-41350560D01*
X68953000Y-41826479D01*
X61260090Y-41826479D01*
X60321566Y-39696394D01*
X62426631Y-39696394D01*
X62446687Y-39742365D01*
X62614069Y-39903602D01*
X62830412Y-39988512D01*
X62988402Y-39985558D01*
X62978535Y-40037419D01*
X62997966Y-40127877D01*
X63317875Y-40861129D01*
X63321981Y-40867165D01*
X63260126Y-40928913D01*
X63187110Y-41104755D01*
X63186943Y-41295154D01*
X63259652Y-41471123D01*
X63394167Y-41605872D01*
X63570009Y-41678888D01*
X63760408Y-41679055D01*
X63936377Y-41606346D01*
X64071126Y-41471831D01*
X64141881Y-41301434D01*
X64816517Y-41007099D01*
X67320925Y-41007099D01*
X67406886Y-41223028D01*
X67568935Y-41389624D01*
X67782401Y-41481525D01*
X68434483Y-41762258D01*
X68626382Y-41685864D01*
X68831274Y-41209945D01*
X67535873Y-40652251D01*
X67343974Y-40728645D01*
X67324141Y-40774713D01*
X67320925Y-41007099D01*
X64816517Y-41007099D01*
X65703612Y-40620071D01*
X65774883Y-40571585D01*
X65826176Y-40494583D01*
X65843469Y-40403693D01*
X65824072Y-40313393D01*
X67522747Y-40313393D01*
X67599141Y-40505292D01*
X68894543Y-41062986D01*
X68926177Y-40989506D01*
X69252794Y-41130121D01*
X69221160Y-41203601D01*
X70516561Y-41761295D01*
X70708460Y-41684901D01*
X70728293Y-41638833D01*
X70731509Y-41406447D01*
X70645548Y-41190518D01*
X70535369Y-41077247D01*
X70579959Y-41048989D01*
X70632683Y-40972961D01*
X70949027Y-40238164D01*
X70950624Y-40231039D01*
X71053596Y-40231129D01*
X71229565Y-40158420D01*
X71364314Y-40023905D01*
X71437330Y-39848063D01*
X71437497Y-39657664D01*
X71364788Y-39481695D01*
X71230273Y-39346946D01*
X71054431Y-39273930D01*
X70864032Y-39273763D01*
X70710329Y-39337272D01*
X69141909Y-38662038D01*
X69057796Y-38643180D01*
X68966536Y-38658399D01*
X68888386Y-38707925D01*
X68835662Y-38783953D01*
X68730113Y-39029121D01*
X68714570Y-39022430D01*
X68630457Y-39003572D01*
X68539197Y-39018791D01*
X68461047Y-39068317D01*
X68408323Y-39144345D01*
X68091979Y-39879142D01*
X68073121Y-39963255D01*
X68082834Y-40021501D01*
X67925105Y-40019318D01*
X67709176Y-40105277D01*
X67542580Y-40267326D01*
X67522747Y-40313393D01*
X65824072Y-40313393D01*
X65824038Y-40313235D01*
X65717300Y-40068584D01*
X65732810Y-40061817D01*
X65804081Y-40013331D01*
X65855374Y-39936330D01*
X65872667Y-39845439D01*
X65853236Y-39754981D01*
X65533327Y-39021729D01*
X65484841Y-38950458D01*
X65435696Y-38917721D01*
X65545135Y-38804113D01*
X65630046Y-38587769D01*
X65625701Y-38355401D01*
X65605645Y-38309431D01*
X65413378Y-38233970D01*
X64120700Y-38797949D01*
X64152691Y-38871274D01*
X63826761Y-39013473D01*
X63794770Y-38940148D01*
X62502092Y-39504127D01*
X62426631Y-39696394D01*
X60321566Y-39696394D01*
X60016352Y-39003677D01*
X62221442Y-39003677D01*
X62225787Y-39236045D01*
X62245843Y-39282015D01*
X62438110Y-39357476D01*
X63730788Y-38793497D01*
X63523587Y-38318579D01*
X63331319Y-38243118D01*
X62680609Y-38527015D01*
X62467591Y-38619952D01*
X62306353Y-38787333D01*
X62221442Y-39003677D01*
X60016352Y-39003677D01*
X59651842Y-38176380D01*
X63849518Y-38176380D01*
X64056718Y-38651298D01*
X65349396Y-38087319D01*
X65424857Y-37895052D01*
X65404801Y-37849081D01*
X65237419Y-37687844D01*
X65021076Y-37602934D01*
X64788707Y-37607278D01*
X64575689Y-37700215D01*
X63924979Y-37984112D01*
X63849518Y-38176380D01*
X59651842Y-38176380D01*
X57762315Y-33887886D01*
X59892455Y-33887886D01*
X59912511Y-33933857D01*
X60079893Y-34095094D01*
X60296236Y-34180004D01*
X60454226Y-34177050D01*
X60444359Y-34228911D01*
X60463790Y-34319369D01*
X60783699Y-35052621D01*
X60787805Y-35058657D01*
X60725950Y-35120405D01*
X60652934Y-35296247D01*
X60652767Y-35486646D01*
X60725476Y-35662615D01*
X60859991Y-35797364D01*
X61035833Y-35870380D01*
X61226232Y-35870547D01*
X61402201Y-35797838D01*
X61536950Y-35663323D01*
X61607705Y-35492926D01*
X63169436Y-34811563D01*
X63240707Y-34763077D01*
X63292000Y-34686075D01*
X63309293Y-34595185D01*
X63289862Y-34504727D01*
X63183124Y-34260076D01*
X63198634Y-34253309D01*
X63269905Y-34204823D01*
X63321198Y-34127822D01*
X63338491Y-34036931D01*
X63319060Y-33946473D01*
X62999151Y-33213221D01*
X62950665Y-33141950D01*
X62901520Y-33109213D01*
X63010959Y-32995605D01*
X63095870Y-32779261D01*
X63091525Y-32546893D01*
X63071469Y-32500923D01*
X62879202Y-32425462D01*
X61586524Y-32989441D01*
X61618515Y-33062766D01*
X61292585Y-33204965D01*
X61260594Y-33131640D01*
X59967916Y-33695619D01*
X59892455Y-33887886D01*
X57762315Y-33887886D01*
X57457101Y-33195169D01*
X59687266Y-33195169D01*
X59691611Y-33427537D01*
X59711667Y-33473507D01*
X59903934Y-33548968D01*
X61196612Y-32984989D01*
X60989411Y-32510071D01*
X60797143Y-32434610D01*
X60146433Y-32718507D01*
X59933415Y-32811444D01*
X59772177Y-32978825D01*
X59687266Y-33195169D01*
X57457101Y-33195169D01*
X57092591Y-32367872D01*
X61315342Y-32367872D01*
X61522542Y-32842790D01*
X62815220Y-32278811D01*
X62890681Y-32086544D01*
X62870625Y-32040573D01*
X62703243Y-31879336D01*
X62486900Y-31794426D01*
X62254531Y-31798770D01*
X62041513Y-31891707D01*
X61390803Y-32175604D01*
X61315342Y-32367872D01*
X57092591Y-32367872D01*
X55203065Y-28079382D01*
X57358276Y-28079382D01*
X57378332Y-28125353D01*
X57545714Y-28286590D01*
X57762057Y-28371500D01*
X57920047Y-28368546D01*
X57910180Y-28420407D01*
X57929611Y-28510865D01*
X58249520Y-29244117D01*
X58253626Y-29250153D01*
X58191771Y-29311901D01*
X58118755Y-29487743D01*
X58118588Y-29678142D01*
X58191297Y-29854111D01*
X58325812Y-29988860D01*
X58501654Y-30061876D01*
X58692053Y-30062043D01*
X58868022Y-29989334D01*
X59002771Y-29854819D01*
X59073526Y-29684422D01*
X60635257Y-29003059D01*
X60706528Y-28954573D01*
X60757821Y-28877571D01*
X60775114Y-28786681D01*
X60755683Y-28696223D01*
X60648945Y-28451572D01*
X60664455Y-28444805D01*
X60735726Y-28396319D01*
X60787019Y-28319318D01*
X60804312Y-28228427D01*
X60784881Y-28137969D01*
X60464972Y-27404717D01*
X60416486Y-27333446D01*
X60367341Y-27300709D01*
X60476780Y-27187101D01*
X60561691Y-26970757D01*
X60557346Y-26738389D01*
X60537290Y-26692419D01*
X60345023Y-26616958D01*
X59052345Y-27180937D01*
X59084336Y-27254262D01*
X58758406Y-27396461D01*
X58726415Y-27323136D01*
X57433737Y-27887115D01*
X57358276Y-28079382D01*
X55203065Y-28079382D01*
X54897851Y-27386665D01*
X57153087Y-27386665D01*
X57157432Y-27619033D01*
X57177488Y-27665003D01*
X57369755Y-27740464D01*
X58662433Y-27176485D01*
X58455232Y-26701567D01*
X58262964Y-26626106D01*
X57612254Y-26910003D01*
X57399236Y-27002940D01*
X57237998Y-27170321D01*
X57153087Y-27386665D01*
X54897851Y-27386665D01*
X54533341Y-26559368D01*
X58781163Y-26559368D01*
X58988363Y-27034286D01*
X60281041Y-26470307D01*
X60356502Y-26278040D01*
X60336446Y-26232069D01*
X60169064Y-26070832D01*
X59952721Y-25985922D01*
X59720352Y-25990266D01*
X59507334Y-26083203D01*
X58856624Y-26367100D01*
X58781163Y-26559368D01*
X54533341Y-26559368D01*
X52643814Y-22270876D01*
X54824101Y-22270876D01*
X54844157Y-22316847D01*
X55011539Y-22478084D01*
X55227882Y-22562994D01*
X55385872Y-22560040D01*
X55376005Y-22611901D01*
X55395436Y-22702359D01*
X55715345Y-23435611D01*
X55719451Y-23441647D01*
X55657596Y-23503395D01*
X55584580Y-23679237D01*
X55584413Y-23869636D01*
X55657122Y-24045605D01*
X55791637Y-24180354D01*
X55967479Y-24253370D01*
X56157878Y-24253537D01*
X56333847Y-24180828D01*
X56468596Y-24046313D01*
X56539351Y-23875916D01*
X58101082Y-23194553D01*
X58172353Y-23146067D01*
X58223646Y-23069065D01*
X58240939Y-22978175D01*
X58221508Y-22887717D01*
X58114770Y-22643066D01*
X58130280Y-22636299D01*
X58201551Y-22587813D01*
X58252844Y-22510812D01*
X58270137Y-22419921D01*
X58250706Y-22329463D01*
X58046833Y-21862172D01*
X58130115Y-21861777D01*
X58436112Y-21733322D01*
X58552339Y-21638965D01*
X58510420Y-21468365D01*
X58013049Y-21199112D01*
X58027516Y-21162251D01*
X58024070Y-20977956D01*
X58129657Y-20977956D01*
X58629437Y-21248513D01*
X58795201Y-21190342D01*
X58793626Y-20858480D01*
X58665171Y-20552483D01*
X58570814Y-20436256D01*
X58400214Y-20478175D01*
X58129657Y-20977956D01*
X58024070Y-20977956D01*
X58023171Y-20929883D01*
X58003115Y-20883913D01*
X57939598Y-20858984D01*
X57983821Y-20839690D01*
X57955440Y-20774639D01*
X58180362Y-20359158D01*
X58122191Y-20193394D01*
X57790329Y-20194969D01*
X57632298Y-20261309D01*
X57418546Y-20177416D01*
X57186177Y-20181760D01*
X56973159Y-20274697D01*
X56322449Y-20558594D01*
X56246988Y-20750862D01*
X56454188Y-21225780D01*
X56472519Y-21217782D01*
X56536501Y-21364433D01*
X56518170Y-21372431D01*
X56550161Y-21445756D01*
X56224231Y-21587955D01*
X56192240Y-21514630D01*
X54899562Y-22078609D01*
X54824101Y-22270876D01*
X52643814Y-22270876D01*
X52338600Y-21578159D01*
X54618912Y-21578159D01*
X54623257Y-21810527D01*
X54643313Y-21856497D01*
X54835580Y-21931958D01*
X56128258Y-21367979D01*
X55921057Y-20893061D01*
X55728789Y-20817600D01*
X55078079Y-21101497D01*
X54865061Y-21194434D01*
X54703823Y-21361815D01*
X54618912Y-21578159D01*
X52338600Y-21578159D01*
X51608600Y-19921344D01*
X51608600Y-18998600D01*
X59112611Y-18998600D01*
X66641960Y-37495041D01*
X66641960Y-37495041D01*
G37*
X66641960Y-37495041D02*
X66642438Y-37495766D01*
X66642607Y-37496616D01*
X66672325Y-37541092D01*
X66701800Y-37585793D01*
X66702519Y-37586280D01*
X66703000Y-37587000D01*
X66747452Y-37616702D01*
X66791813Y-37646737D01*
X66792664Y-37646912D01*
X66793384Y-37647393D01*
X66845743Y-37657808D01*
X66898297Y-37668596D01*
X66899152Y-37668431D01*
X66900000Y-37668600D01*
X67130000Y-37668600D01*
X67132070Y-37668188D01*
X67134144Y-37668569D01*
X67185299Y-37657600D01*
X67236616Y-37647393D01*
X67238370Y-37646221D01*
X67240432Y-37645779D01*
X67283510Y-37616060D01*
X67327000Y-37587000D01*
X67328171Y-37585247D01*
X67329908Y-37584049D01*
X67358327Y-37540117D01*
X67387393Y-37496616D01*
X67387805Y-37494547D01*
X67388950Y-37492776D01*
X67989135Y-35980566D01*
X71469770Y-35980566D01*
X71546163Y-36172465D01*
X72198245Y-36453198D01*
X72411712Y-36545099D01*
X72644099Y-36548315D01*
X72860028Y-36462356D01*
X73026624Y-36300307D01*
X73046457Y-36254240D01*
X72970063Y-36062341D01*
X71674661Y-35504647D01*
X71469770Y-35980566D01*
X67989135Y-35980566D01*
X68314342Y-35161186D01*
X69837695Y-35161186D01*
X69923656Y-35377115D01*
X70085705Y-35543711D01*
X70299171Y-35635612D01*
X70951253Y-35916345D01*
X71143152Y-35839951D01*
X71348044Y-35364032D01*
X70052643Y-34806338D01*
X69860744Y-34882732D01*
X69840911Y-34928800D01*
X69837695Y-35161186D01*
X68314342Y-35161186D01*
X68589669Y-34467480D01*
X70039517Y-34467480D01*
X70115911Y-34659379D01*
X71411313Y-35217073D01*
X71442947Y-35143593D01*
X71769564Y-35284208D01*
X71737930Y-35357688D01*
X73033331Y-35915382D01*
X73225230Y-35838988D01*
X73245063Y-35792920D01*
X73248279Y-35560534D01*
X73162318Y-35344605D01*
X73052139Y-35231334D01*
X73096729Y-35203076D01*
X73149453Y-35127048D01*
X73465797Y-34392251D01*
X73467394Y-34385126D01*
X73570366Y-34385216D01*
X73746335Y-34312507D01*
X73881084Y-34177992D01*
X73954100Y-34002150D01*
X73954267Y-33811751D01*
X73881558Y-33635782D01*
X73747043Y-33501033D01*
X73571201Y-33428017D01*
X73380802Y-33427850D01*
X73227099Y-33491359D01*
X71658679Y-32816125D01*
X71574566Y-32797267D01*
X71483306Y-32812486D01*
X71405156Y-32862012D01*
X71352432Y-32938040D01*
X71246883Y-33183208D01*
X71231340Y-33176517D01*
X71147227Y-33157659D01*
X71055967Y-33172878D01*
X70977817Y-33222404D01*
X70925093Y-33298432D01*
X70608749Y-34033229D01*
X70589891Y-34117342D01*
X70599604Y-34175588D01*
X70441875Y-34173405D01*
X70225946Y-34259364D01*
X70059350Y-34421413D01*
X70039517Y-34467480D01*
X68589669Y-34467480D01*
X70309337Y-30134657D01*
X73986539Y-30134657D01*
X74062932Y-30326556D01*
X74715014Y-30607289D01*
X74928481Y-30699190D01*
X75160868Y-30702406D01*
X75376797Y-30616447D01*
X75543393Y-30454398D01*
X75563226Y-30408331D01*
X75486832Y-30216432D01*
X74191430Y-29658738D01*
X73986539Y-30134657D01*
X70309337Y-30134657D01*
X70634544Y-29315277D01*
X72354464Y-29315277D01*
X72440425Y-29531206D01*
X72602474Y-29697802D01*
X72815940Y-29789703D01*
X73468022Y-30070436D01*
X73659921Y-29994042D01*
X73864813Y-29518123D01*
X72569412Y-28960429D01*
X72377513Y-29036823D01*
X72357680Y-29082891D01*
X72354464Y-29315277D01*
X70634544Y-29315277D01*
X70909871Y-28621571D01*
X72556286Y-28621571D01*
X72632680Y-28813470D01*
X73928082Y-29371164D01*
X73959716Y-29297684D01*
X74286333Y-29438299D01*
X74254699Y-29511779D01*
X75550100Y-30069473D01*
X75741999Y-29993079D01*
X75761832Y-29947011D01*
X75765048Y-29714625D01*
X75679087Y-29498696D01*
X75568908Y-29385425D01*
X75613498Y-29357167D01*
X75666222Y-29281139D01*
X75982566Y-28546342D01*
X75984163Y-28539217D01*
X76087135Y-28539307D01*
X76263104Y-28466598D01*
X76397853Y-28332083D01*
X76470869Y-28156241D01*
X76471036Y-27965842D01*
X76398327Y-27789873D01*
X76263812Y-27655124D01*
X76087970Y-27582108D01*
X75897571Y-27581941D01*
X75743868Y-27645450D01*
X74175448Y-26970216D01*
X74091335Y-26951358D01*
X74000075Y-26966577D01*
X73921925Y-27016103D01*
X73869201Y-27092131D01*
X73763652Y-27337299D01*
X73748109Y-27330608D01*
X73663996Y-27311750D01*
X73572736Y-27326969D01*
X73494586Y-27376495D01*
X73441862Y-27452523D01*
X73125518Y-28187320D01*
X73106660Y-28271433D01*
X73116373Y-28329679D01*
X72958644Y-28327496D01*
X72742715Y-28413455D01*
X72576119Y-28575504D01*
X72556286Y-28621571D01*
X70909871Y-28621571D01*
X72629542Y-24288744D01*
X76503308Y-24288744D01*
X76579701Y-24480643D01*
X77231783Y-24761376D01*
X77445250Y-24853277D01*
X77677637Y-24856493D01*
X77893566Y-24770534D01*
X78060162Y-24608485D01*
X78079995Y-24562418D01*
X78003601Y-24370519D01*
X76708199Y-23812825D01*
X76503308Y-24288744D01*
X72629542Y-24288744D01*
X72954749Y-23469364D01*
X74871233Y-23469364D01*
X74957194Y-23685293D01*
X75119243Y-23851889D01*
X75332709Y-23943790D01*
X75984791Y-24224523D01*
X76176690Y-24148129D01*
X76381582Y-23672210D01*
X75086181Y-23114516D01*
X74894282Y-23190910D01*
X74874449Y-23236978D01*
X74871233Y-23469364D01*
X72954749Y-23469364D01*
X73230076Y-22775658D01*
X75073055Y-22775658D01*
X75149449Y-22967557D01*
X76444851Y-23525251D01*
X76476485Y-23451771D01*
X76803102Y-23592386D01*
X76771468Y-23665866D01*
X78066869Y-24223560D01*
X78258768Y-24147166D01*
X78278601Y-24101098D01*
X78281817Y-23868712D01*
X78195856Y-23652783D01*
X78085677Y-23539512D01*
X78130267Y-23511254D01*
X78182991Y-23435226D01*
X78499335Y-22700429D01*
X78500932Y-22693304D01*
X78603904Y-22693394D01*
X78779873Y-22620685D01*
X78914622Y-22486170D01*
X78987638Y-22310328D01*
X78987805Y-22119929D01*
X78915096Y-21943960D01*
X78780581Y-21809211D01*
X78604739Y-21736195D01*
X78414340Y-21736028D01*
X78260637Y-21799537D01*
X76692217Y-21124303D01*
X76608104Y-21105445D01*
X76516844Y-21120664D01*
X76438694Y-21170190D01*
X76385970Y-21246218D01*
X76280421Y-21491386D01*
X76264878Y-21484695D01*
X76180765Y-21465837D01*
X76089505Y-21481056D01*
X76011355Y-21530582D01*
X75958631Y-21606610D01*
X75642287Y-22341407D01*
X75623429Y-22425520D01*
X75633142Y-22483766D01*
X75475413Y-22481583D01*
X75259484Y-22567542D01*
X75092888Y-22729591D01*
X75073055Y-22775658D01*
X73230076Y-22775658D01*
X74729167Y-18998600D01*
X82231400Y-18998600D01*
X82231400Y-19921878D01*
X71274640Y-45038603D01*
X71274076Y-45041185D01*
X71272607Y-45043384D01*
X71262502Y-45094187D01*
X71251448Y-45144805D01*
X71251916Y-45147408D01*
X71251400Y-45150000D01*
X71261506Y-45200805D01*
X71270664Y-45251798D01*
X71272091Y-45254023D01*
X71272607Y-45256616D01*
X71301383Y-45299682D01*
X71329360Y-45343292D01*
X71331532Y-45344802D01*
X71333000Y-45347000D01*
X71376073Y-45375781D01*
X71418603Y-45405360D01*
X71421185Y-45405924D01*
X71423384Y-45407393D01*
X71474187Y-45417498D01*
X71524805Y-45428552D01*
X71527408Y-45428084D01*
X71530000Y-45428600D01*
X82696789Y-45428600D01*
X82663318Y-45450138D01*
X82611121Y-45526530D01*
X82592758Y-45617210D01*
X82592758Y-46617210D01*
X82608698Y-46701924D01*
X82658764Y-46779728D01*
X82735156Y-46831925D01*
X82825836Y-46850288D01*
X86825836Y-46850288D01*
X86910550Y-46834348D01*
X86931400Y-46820931D01*
X86931400Y-47033010D01*
X85149686Y-47033010D01*
X85003636Y-47179060D01*
X85003636Y-47939410D01*
X85023636Y-47939410D01*
X85023636Y-48295010D01*
X85003636Y-48295010D01*
X85003636Y-49055360D01*
X85149686Y-49201410D01*
X86931400Y-49201410D01*
X86931400Y-49412665D01*
X86916516Y-49402495D01*
X86825836Y-49384132D01*
X82825836Y-49384132D01*
X82741122Y-49400072D01*
X82663318Y-49450138D01*
X82611121Y-49526530D01*
X82592758Y-49617210D01*
X82592758Y-50617210D01*
X82608698Y-50701924D01*
X82658764Y-50779728D01*
X82735156Y-50831925D01*
X82825836Y-50850288D01*
X86825836Y-50850288D01*
X86910550Y-50834348D01*
X86931400Y-50820931D01*
X86931400Y-50871400D01*
X68910000Y-50871400D01*
X68857575Y-50881828D01*
X68804885Y-50891990D01*
X68804194Y-50892446D01*
X68803384Y-50892607D01*
X68758921Y-50922316D01*
X68714151Y-50951855D01*
X68713687Y-50952541D01*
X68713000Y-50953000D01*
X68683225Y-50997562D01*
X68653233Y-51041887D01*
X68565016Y-51251400D01*
X65414984Y-51251400D01*
X65326768Y-51041887D01*
X65296761Y-50997541D01*
X65267000Y-50953000D01*
X65266312Y-50952540D01*
X65265849Y-50951856D01*
X65221198Y-50922396D01*
X65176616Y-50892607D01*
X65175804Y-50892445D01*
X65175115Y-50891991D01*
X65122509Y-50881844D01*
X65070000Y-50871400D01*
X51164522Y-50871400D01*
X51183358Y-50859279D01*
X51235555Y-50782887D01*
X51253918Y-50692207D01*
X51253918Y-49692207D01*
X51237978Y-49607493D01*
X51187912Y-49529689D01*
X51111520Y-49477492D01*
X51020840Y-49459129D01*
X47020840Y-49459129D01*
X46936126Y-49475069D01*
X46908600Y-49492782D01*
X46908600Y-49276407D01*
X48696990Y-49276407D01*
X48843040Y-49130357D01*
X48843040Y-48370007D01*
X48823040Y-48370007D01*
X48823040Y-48130540D01*
X49121428Y-48130540D01*
X49166293Y-48479424D01*
X49198640Y-48557517D01*
X49198640Y-49130357D01*
X49344690Y-49276407D01*
X51137044Y-49276407D01*
X51351762Y-49187468D01*
X51516101Y-49023130D01*
X51605040Y-48808412D01*
X51605040Y-48516057D01*
X51458990Y-48370007D01*
X50888760Y-48370007D01*
X50920252Y-48253874D01*
X50889458Y-48014407D01*
X51458990Y-48014407D01*
X51605040Y-47868357D01*
X51605040Y-47576002D01*
X51573976Y-47501005D01*
X82241636Y-47501005D01*
X82241636Y-47793360D01*
X82387686Y-47939410D01*
X82957916Y-47939410D01*
X82926424Y-48055543D01*
X82957218Y-48295010D01*
X82387686Y-48295010D01*
X82241636Y-48441060D01*
X82241636Y-48733415D01*
X82330575Y-48948133D01*
X82494914Y-49112471D01*
X82709632Y-49201410D01*
X84501986Y-49201410D01*
X84648036Y-49055360D01*
X84648036Y-48463608D01*
X84725248Y-48178877D01*
X84680383Y-47829993D01*
X84648036Y-47751900D01*
X84648036Y-47179060D01*
X84501986Y-47033010D01*
X82709632Y-47033010D01*
X82494914Y-47121949D01*
X82330575Y-47286287D01*
X82241636Y-47501005D01*
X51573976Y-47501005D01*
X51516101Y-47361284D01*
X51351762Y-47196946D01*
X51137044Y-47108007D01*
X49344690Y-47108007D01*
X49198640Y-47254057D01*
X49198640Y-47845809D01*
X49121428Y-48130540D01*
X48823040Y-48130540D01*
X48823040Y-48014407D01*
X48843040Y-48014407D01*
X48843040Y-47254057D01*
X48696990Y-47108007D01*
X46908600Y-47108007D01*
X46908600Y-46892191D01*
X46930160Y-46906922D01*
X47020840Y-46925285D01*
X51020840Y-46925285D01*
X51105554Y-46909345D01*
X51183358Y-46859279D01*
X51235555Y-46782887D01*
X51253918Y-46692207D01*
X51253918Y-45692207D01*
X51237978Y-45607493D01*
X51187912Y-45529689D01*
X51151633Y-45504900D01*
X64960801Y-45504900D01*
X64980857Y-45550871D01*
X65148239Y-45712108D01*
X65364582Y-45797018D01*
X65522572Y-45794064D01*
X65512705Y-45845925D01*
X65532136Y-45936383D01*
X65852045Y-46669635D01*
X65856151Y-46675671D01*
X65794296Y-46737419D01*
X65721280Y-46913261D01*
X65721113Y-47103660D01*
X65793822Y-47279629D01*
X65928337Y-47414378D01*
X66104179Y-47487394D01*
X66294578Y-47487561D01*
X66470547Y-47414852D01*
X66605296Y-47280337D01*
X66676051Y-47109940D01*
X68237782Y-46428577D01*
X68309053Y-46380091D01*
X68360346Y-46303089D01*
X68377639Y-46212199D01*
X68358208Y-46121741D01*
X68251470Y-45877090D01*
X68266980Y-45870323D01*
X68338251Y-45821837D01*
X68389544Y-45744836D01*
X68406837Y-45653945D01*
X68387406Y-45563487D01*
X68067497Y-44830235D01*
X68019011Y-44758964D01*
X67969866Y-44726227D01*
X68079305Y-44612619D01*
X68164216Y-44396275D01*
X68159871Y-44163907D01*
X68139815Y-44117937D01*
X67947548Y-44042476D01*
X66654870Y-44606455D01*
X66686861Y-44679780D01*
X66360931Y-44821979D01*
X66328940Y-44748654D01*
X65036262Y-45312633D01*
X64960801Y-45504900D01*
X51151633Y-45504900D01*
X51111520Y-45477492D01*
X51020840Y-45459129D01*
X47020840Y-45459129D01*
X46936126Y-45475069D01*
X46908600Y-45492782D01*
X46908600Y-45428600D01*
X62420000Y-45428600D01*
X62423101Y-45427983D01*
X62426216Y-45428531D01*
X62476301Y-45417401D01*
X62526616Y-45407393D01*
X62529246Y-45405636D01*
X62532332Y-45404950D01*
X62574336Y-45375508D01*
X62617000Y-45347000D01*
X62618757Y-45344370D01*
X62621347Y-45342555D01*
X62648892Y-45299270D01*
X62677393Y-45256616D01*
X62678010Y-45253514D01*
X62679708Y-45250846D01*
X62688594Y-45200305D01*
X62698600Y-45150000D01*
X62697983Y-45146899D01*
X62698531Y-45143784D01*
X62687401Y-45093699D01*
X62677393Y-45043384D01*
X62675636Y-45040754D01*
X62674950Y-45037668D01*
X62575601Y-44812183D01*
X64755612Y-44812183D01*
X64759957Y-45044551D01*
X64780013Y-45090521D01*
X64972280Y-45165982D01*
X66264958Y-44602003D01*
X66057757Y-44127085D01*
X65865489Y-44051624D01*
X65214779Y-44335521D01*
X65001761Y-44428458D01*
X64840523Y-44595839D01*
X64755612Y-44812183D01*
X62575601Y-44812183D01*
X62211091Y-43984886D01*
X66383688Y-43984886D01*
X66590888Y-44459804D01*
X67883566Y-43895825D01*
X67959027Y-43703558D01*
X67938971Y-43657587D01*
X67771589Y-43496350D01*
X67555246Y-43411440D01*
X67322877Y-43415784D01*
X67109859Y-43508721D01*
X66459149Y-43792618D01*
X66383688Y-43984886D01*
X62211091Y-43984886D01*
X61260090Y-41826479D01*
X68953000Y-41826479D01*
X69029393Y-42018378D01*
X69681475Y-42299111D01*
X69894942Y-42391012D01*
X70127329Y-42394228D01*
X70343258Y-42308269D01*
X70509854Y-42146220D01*
X70529687Y-42100153D01*
X70453293Y-41908254D01*
X69157891Y-41350560D01*
X68953000Y-41826479D01*
X61260090Y-41826479D01*
X60321566Y-39696394D01*
X62426631Y-39696394D01*
X62446687Y-39742365D01*
X62614069Y-39903602D01*
X62830412Y-39988512D01*
X62988402Y-39985558D01*
X62978535Y-40037419D01*
X62997966Y-40127877D01*
X63317875Y-40861129D01*
X63321981Y-40867165D01*
X63260126Y-40928913D01*
X63187110Y-41104755D01*
X63186943Y-41295154D01*
X63259652Y-41471123D01*
X63394167Y-41605872D01*
X63570009Y-41678888D01*
X63760408Y-41679055D01*
X63936377Y-41606346D01*
X64071126Y-41471831D01*
X64141881Y-41301434D01*
X64816517Y-41007099D01*
X67320925Y-41007099D01*
X67406886Y-41223028D01*
X67568935Y-41389624D01*
X67782401Y-41481525D01*
X68434483Y-41762258D01*
X68626382Y-41685864D01*
X68831274Y-41209945D01*
X67535873Y-40652251D01*
X67343974Y-40728645D01*
X67324141Y-40774713D01*
X67320925Y-41007099D01*
X64816517Y-41007099D01*
X65703612Y-40620071D01*
X65774883Y-40571585D01*
X65826176Y-40494583D01*
X65843469Y-40403693D01*
X65824072Y-40313393D01*
X67522747Y-40313393D01*
X67599141Y-40505292D01*
X68894543Y-41062986D01*
X68926177Y-40989506D01*
X69252794Y-41130121D01*
X69221160Y-41203601D01*
X70516561Y-41761295D01*
X70708460Y-41684901D01*
X70728293Y-41638833D01*
X70731509Y-41406447D01*
X70645548Y-41190518D01*
X70535369Y-41077247D01*
X70579959Y-41048989D01*
X70632683Y-40972961D01*
X70949027Y-40238164D01*
X70950624Y-40231039D01*
X71053596Y-40231129D01*
X71229565Y-40158420D01*
X71364314Y-40023905D01*
X71437330Y-39848063D01*
X71437497Y-39657664D01*
X71364788Y-39481695D01*
X71230273Y-39346946D01*
X71054431Y-39273930D01*
X70864032Y-39273763D01*
X70710329Y-39337272D01*
X69141909Y-38662038D01*
X69057796Y-38643180D01*
X68966536Y-38658399D01*
X68888386Y-38707925D01*
X68835662Y-38783953D01*
X68730113Y-39029121D01*
X68714570Y-39022430D01*
X68630457Y-39003572D01*
X68539197Y-39018791D01*
X68461047Y-39068317D01*
X68408323Y-39144345D01*
X68091979Y-39879142D01*
X68073121Y-39963255D01*
X68082834Y-40021501D01*
X67925105Y-40019318D01*
X67709176Y-40105277D01*
X67542580Y-40267326D01*
X67522747Y-40313393D01*
X65824072Y-40313393D01*
X65824038Y-40313235D01*
X65717300Y-40068584D01*
X65732810Y-40061817D01*
X65804081Y-40013331D01*
X65855374Y-39936330D01*
X65872667Y-39845439D01*
X65853236Y-39754981D01*
X65533327Y-39021729D01*
X65484841Y-38950458D01*
X65435696Y-38917721D01*
X65545135Y-38804113D01*
X65630046Y-38587769D01*
X65625701Y-38355401D01*
X65605645Y-38309431D01*
X65413378Y-38233970D01*
X64120700Y-38797949D01*
X64152691Y-38871274D01*
X63826761Y-39013473D01*
X63794770Y-38940148D01*
X62502092Y-39504127D01*
X62426631Y-39696394D01*
X60321566Y-39696394D01*
X60016352Y-39003677D01*
X62221442Y-39003677D01*
X62225787Y-39236045D01*
X62245843Y-39282015D01*
X62438110Y-39357476D01*
X63730788Y-38793497D01*
X63523587Y-38318579D01*
X63331319Y-38243118D01*
X62680609Y-38527015D01*
X62467591Y-38619952D01*
X62306353Y-38787333D01*
X62221442Y-39003677D01*
X60016352Y-39003677D01*
X59651842Y-38176380D01*
X63849518Y-38176380D01*
X64056718Y-38651298D01*
X65349396Y-38087319D01*
X65424857Y-37895052D01*
X65404801Y-37849081D01*
X65237419Y-37687844D01*
X65021076Y-37602934D01*
X64788707Y-37607278D01*
X64575689Y-37700215D01*
X63924979Y-37984112D01*
X63849518Y-38176380D01*
X59651842Y-38176380D01*
X57762315Y-33887886D01*
X59892455Y-33887886D01*
X59912511Y-33933857D01*
X60079893Y-34095094D01*
X60296236Y-34180004D01*
X60454226Y-34177050D01*
X60444359Y-34228911D01*
X60463790Y-34319369D01*
X60783699Y-35052621D01*
X60787805Y-35058657D01*
X60725950Y-35120405D01*
X60652934Y-35296247D01*
X60652767Y-35486646D01*
X60725476Y-35662615D01*
X60859991Y-35797364D01*
X61035833Y-35870380D01*
X61226232Y-35870547D01*
X61402201Y-35797838D01*
X61536950Y-35663323D01*
X61607705Y-35492926D01*
X63169436Y-34811563D01*
X63240707Y-34763077D01*
X63292000Y-34686075D01*
X63309293Y-34595185D01*
X63289862Y-34504727D01*
X63183124Y-34260076D01*
X63198634Y-34253309D01*
X63269905Y-34204823D01*
X63321198Y-34127822D01*
X63338491Y-34036931D01*
X63319060Y-33946473D01*
X62999151Y-33213221D01*
X62950665Y-33141950D01*
X62901520Y-33109213D01*
X63010959Y-32995605D01*
X63095870Y-32779261D01*
X63091525Y-32546893D01*
X63071469Y-32500923D01*
X62879202Y-32425462D01*
X61586524Y-32989441D01*
X61618515Y-33062766D01*
X61292585Y-33204965D01*
X61260594Y-33131640D01*
X59967916Y-33695619D01*
X59892455Y-33887886D01*
X57762315Y-33887886D01*
X57457101Y-33195169D01*
X59687266Y-33195169D01*
X59691611Y-33427537D01*
X59711667Y-33473507D01*
X59903934Y-33548968D01*
X61196612Y-32984989D01*
X60989411Y-32510071D01*
X60797143Y-32434610D01*
X60146433Y-32718507D01*
X59933415Y-32811444D01*
X59772177Y-32978825D01*
X59687266Y-33195169D01*
X57457101Y-33195169D01*
X57092591Y-32367872D01*
X61315342Y-32367872D01*
X61522542Y-32842790D01*
X62815220Y-32278811D01*
X62890681Y-32086544D01*
X62870625Y-32040573D01*
X62703243Y-31879336D01*
X62486900Y-31794426D01*
X62254531Y-31798770D01*
X62041513Y-31891707D01*
X61390803Y-32175604D01*
X61315342Y-32367872D01*
X57092591Y-32367872D01*
X55203065Y-28079382D01*
X57358276Y-28079382D01*
X57378332Y-28125353D01*
X57545714Y-28286590D01*
X57762057Y-28371500D01*
X57920047Y-28368546D01*
X57910180Y-28420407D01*
X57929611Y-28510865D01*
X58249520Y-29244117D01*
X58253626Y-29250153D01*
X58191771Y-29311901D01*
X58118755Y-29487743D01*
X58118588Y-29678142D01*
X58191297Y-29854111D01*
X58325812Y-29988860D01*
X58501654Y-30061876D01*
X58692053Y-30062043D01*
X58868022Y-29989334D01*
X59002771Y-29854819D01*
X59073526Y-29684422D01*
X60635257Y-29003059D01*
X60706528Y-28954573D01*
X60757821Y-28877571D01*
X60775114Y-28786681D01*
X60755683Y-28696223D01*
X60648945Y-28451572D01*
X60664455Y-28444805D01*
X60735726Y-28396319D01*
X60787019Y-28319318D01*
X60804312Y-28228427D01*
X60784881Y-28137969D01*
X60464972Y-27404717D01*
X60416486Y-27333446D01*
X60367341Y-27300709D01*
X60476780Y-27187101D01*
X60561691Y-26970757D01*
X60557346Y-26738389D01*
X60537290Y-26692419D01*
X60345023Y-26616958D01*
X59052345Y-27180937D01*
X59084336Y-27254262D01*
X58758406Y-27396461D01*
X58726415Y-27323136D01*
X57433737Y-27887115D01*
X57358276Y-28079382D01*
X55203065Y-28079382D01*
X54897851Y-27386665D01*
X57153087Y-27386665D01*
X57157432Y-27619033D01*
X57177488Y-27665003D01*
X57369755Y-27740464D01*
X58662433Y-27176485D01*
X58455232Y-26701567D01*
X58262964Y-26626106D01*
X57612254Y-26910003D01*
X57399236Y-27002940D01*
X57237998Y-27170321D01*
X57153087Y-27386665D01*
X54897851Y-27386665D01*
X54533341Y-26559368D01*
X58781163Y-26559368D01*
X58988363Y-27034286D01*
X60281041Y-26470307D01*
X60356502Y-26278040D01*
X60336446Y-26232069D01*
X60169064Y-26070832D01*
X59952721Y-25985922D01*
X59720352Y-25990266D01*
X59507334Y-26083203D01*
X58856624Y-26367100D01*
X58781163Y-26559368D01*
X54533341Y-26559368D01*
X52643814Y-22270876D01*
X54824101Y-22270876D01*
X54844157Y-22316847D01*
X55011539Y-22478084D01*
X55227882Y-22562994D01*
X55385872Y-22560040D01*
X55376005Y-22611901D01*
X55395436Y-22702359D01*
X55715345Y-23435611D01*
X55719451Y-23441647D01*
X55657596Y-23503395D01*
X55584580Y-23679237D01*
X55584413Y-23869636D01*
X55657122Y-24045605D01*
X55791637Y-24180354D01*
X55967479Y-24253370D01*
X56157878Y-24253537D01*
X56333847Y-24180828D01*
X56468596Y-24046313D01*
X56539351Y-23875916D01*
X58101082Y-23194553D01*
X58172353Y-23146067D01*
X58223646Y-23069065D01*
X58240939Y-22978175D01*
X58221508Y-22887717D01*
X58114770Y-22643066D01*
X58130280Y-22636299D01*
X58201551Y-22587813D01*
X58252844Y-22510812D01*
X58270137Y-22419921D01*
X58250706Y-22329463D01*
X58046833Y-21862172D01*
X58130115Y-21861777D01*
X58436112Y-21733322D01*
X58552339Y-21638965D01*
X58510420Y-21468365D01*
X58013049Y-21199112D01*
X58027516Y-21162251D01*
X58024070Y-20977956D01*
X58129657Y-20977956D01*
X58629437Y-21248513D01*
X58795201Y-21190342D01*
X58793626Y-20858480D01*
X58665171Y-20552483D01*
X58570814Y-20436256D01*
X58400214Y-20478175D01*
X58129657Y-20977956D01*
X58024070Y-20977956D01*
X58023171Y-20929883D01*
X58003115Y-20883913D01*
X57939598Y-20858984D01*
X57983821Y-20839690D01*
X57955440Y-20774639D01*
X58180362Y-20359158D01*
X58122191Y-20193394D01*
X57790329Y-20194969D01*
X57632298Y-20261309D01*
X57418546Y-20177416D01*
X57186177Y-20181760D01*
X56973159Y-20274697D01*
X56322449Y-20558594D01*
X56246988Y-20750862D01*
X56454188Y-21225780D01*
X56472519Y-21217782D01*
X56536501Y-21364433D01*
X56518170Y-21372431D01*
X56550161Y-21445756D01*
X56224231Y-21587955D01*
X56192240Y-21514630D01*
X54899562Y-22078609D01*
X54824101Y-22270876D01*
X52643814Y-22270876D01*
X52338600Y-21578159D01*
X54618912Y-21578159D01*
X54623257Y-21810527D01*
X54643313Y-21856497D01*
X54835580Y-21931958D01*
X56128258Y-21367979D01*
X55921057Y-20893061D01*
X55728789Y-20817600D01*
X55078079Y-21101497D01*
X54865061Y-21194434D01*
X54703823Y-21361815D01*
X54618912Y-21578159D01*
X52338600Y-21578159D01*
X51608600Y-19921344D01*
X51608600Y-18998600D01*
X59112611Y-18998600D01*
X66641960Y-37495041D01*
G36*
X50266772Y-48158407D02*
X50232972Y-48192207D01*
X50266772Y-48226007D01*
X50122772Y-48370007D01*
X49918908Y-48370007D01*
X49774908Y-48226007D01*
X49808708Y-48192207D01*
X49774908Y-48158407D01*
X49918908Y-48014407D01*
X50122772Y-48014407D01*
X50266772Y-48158407D01*
X50266772Y-48158407D01*
G37*
X50266772Y-48158407D02*
X50232972Y-48192207D01*
X50266772Y-48226007D01*
X50122772Y-48370007D01*
X49918908Y-48370007D01*
X49774908Y-48226007D01*
X49808708Y-48192207D01*
X49774908Y-48158407D01*
X49918908Y-48014407D01*
X50122772Y-48014407D01*
X50266772Y-48158407D01*
G36*
X84071768Y-48083410D02*
X84037968Y-48117210D01*
X84071768Y-48151010D01*
X83927768Y-48295010D01*
X83723904Y-48295010D01*
X83579904Y-48151010D01*
X83613704Y-48117210D01*
X83579904Y-48083410D01*
X83723904Y-47939410D01*
X83927768Y-47939410D01*
X84071768Y-48083410D01*
X84071768Y-48083410D01*
G37*
X84071768Y-48083410D02*
X84037968Y-48117210D01*
X84071768Y-48151010D01*
X83927768Y-48295010D01*
X83723904Y-48295010D01*
X83579904Y-48151010D01*
X83613704Y-48117210D01*
X83579904Y-48083410D01*
X83723904Y-47939410D01*
X83927768Y-47939410D01*
X84071768Y-48083410D01*
M02*
