G04 #@! TF.FileFunction,Soldermask,Bot*
%FSLAX46Y46*%
G04 Gerber Fmt 4.6, Leading zero omitted, Abs format (unit mm)*
G04 Created by KiCad (PCBNEW 4.0.0-rc2-stable) date 3/3/2016 3:47:02 PM*
%MOMM*%
G01*
G04 APERTURE LIST*
%ADD10C,0.150000*%
%ADD11R,4.000000X1.000000*%
%ADD12C,0.600000*%
%ADD13C,0.500000*%
G04 APERTURE END LIST*
D10*
D11*
X49020836Y-46192207D03*
X49020836Y-48192207D03*
X49020836Y-50192207D03*
D12*
X50020836Y-46192207D03*
X50020836Y-48192207D03*
X50020836Y-50192207D03*
D11*
X87710130Y-50184090D03*
X87710130Y-48184090D03*
X87710130Y-46184090D03*
D12*
X86710130Y-50184090D03*
X86710130Y-48184090D03*
X86710130Y-46184090D03*
D10*
G36*
X56237199Y-32700136D02*
X59219632Y-32375957D01*
X59500587Y-34960732D01*
X56518154Y-35284911D01*
X56237199Y-32700136D01*
X56237199Y-32700136D01*
G37*
G36*
X77457859Y-29890585D02*
X80440292Y-29566405D01*
X80829307Y-33145325D01*
X77846874Y-33469505D01*
X77457859Y-29890585D01*
X77457859Y-29890585D01*
G37*
D13*
X81032457Y-31312642D03*
D10*
G36*
X57509703Y-50840419D02*
X57472179Y-48840772D01*
X58232045Y-48826513D01*
X58269569Y-50826160D01*
X57509703Y-50840419D01*
X57509703Y-50840419D01*
G37*
G36*
X58779480Y-50816591D02*
X58741956Y-48816944D01*
X59501822Y-48802685D01*
X59539346Y-50802332D01*
X58779480Y-50816591D01*
X58779480Y-50816591D01*
G37*
G36*
X60049256Y-50792764D02*
X60011732Y-48793117D01*
X60771598Y-48778858D01*
X60809122Y-50778505D01*
X60049256Y-50792764D01*
X60049256Y-50792764D01*
G37*
G36*
X61319033Y-50768936D02*
X61281509Y-48769289D01*
X62041375Y-48755030D01*
X62078899Y-50754677D01*
X61319033Y-50768936D01*
X61319033Y-50768936D01*
G37*
G36*
X57449665Y-47640982D02*
X57412141Y-45641335D01*
X58172007Y-45627076D01*
X58209531Y-47626723D01*
X57449665Y-47640982D01*
X57449665Y-47640982D01*
G37*
G36*
X58719442Y-47617154D02*
X58681918Y-45617507D01*
X59441784Y-45603248D01*
X59479308Y-47602895D01*
X58719442Y-47617154D01*
X58719442Y-47617154D01*
G37*
G36*
X59989218Y-47593327D02*
X59951694Y-45593680D01*
X60711560Y-45579421D01*
X60749084Y-47579068D01*
X59989218Y-47593327D01*
X59989218Y-47593327D01*
G37*
G36*
X61268993Y-47569312D02*
X61231469Y-45569664D01*
X61971339Y-45555780D01*
X62008863Y-47555428D01*
X61268993Y-47569312D01*
X61268993Y-47569312D01*
G37*
G36*
X56158622Y-46264962D02*
X56147365Y-45665068D01*
X57047206Y-45648182D01*
X57058463Y-46248076D01*
X56158622Y-46264962D01*
X56158622Y-46264962D01*
G37*
G36*
X56186764Y-47764698D02*
X56175507Y-47164804D01*
X57075348Y-47147918D01*
X57086605Y-47747812D01*
X56186764Y-47764698D01*
X56186764Y-47764698D01*
G37*
G36*
X54936984Y-47788151D02*
X54925727Y-47188257D01*
X55825568Y-47171371D01*
X55836825Y-47771265D01*
X54936984Y-47788151D01*
X54936984Y-47788151D01*
G37*
G36*
X54908842Y-46288415D02*
X54897585Y-45688521D01*
X55797426Y-45671635D01*
X55808683Y-46271529D01*
X54908842Y-46288415D01*
X54908842Y-46288415D01*
G37*
G36*
X53659062Y-46311867D02*
X53647805Y-45711973D01*
X54547646Y-45695087D01*
X54558903Y-46294981D01*
X53659062Y-46311867D01*
X53659062Y-46311867D01*
G37*
G36*
X53687204Y-47811603D02*
X53675947Y-47211709D01*
X54575788Y-47194823D01*
X54587045Y-47794717D01*
X53687204Y-47811603D01*
X53687204Y-47811603D01*
G37*
G36*
X56831959Y-47502547D02*
X56828207Y-47302582D01*
X57728049Y-47285697D01*
X57731801Y-47485662D01*
X56831959Y-47502547D01*
X56831959Y-47502547D01*
G37*
M02*
