G04 #@! TF.FileFunction,Profile,NP*
%FSLAX46Y46*%
G04 Gerber Fmt 4.6, Leading zero omitted, Abs format (unit mm)*
G04 Created by KiCad (PCBNEW 4.0.0-rc2-stable) date 3/3/2016 3:46:44 PM*
%MOMM*%
G01*
G04 APERTURE LIST*
%ADD10C,0.150000*%
%ADD11C,0.100000*%
G04 APERTURE END LIST*
D10*
D11*
X59630000Y-51160000D02*
X51330000Y-51160000D01*
X51330000Y-51160000D02*
X51330000Y-51150000D01*
X51330000Y-51150000D02*
X46630000Y-51150000D01*
X46630000Y-51150000D02*
X46630000Y-45150000D01*
X46630000Y-45150000D02*
X51330000Y-45150000D01*
X51330000Y-45150000D02*
X51330000Y-18720000D01*
X51330000Y-18720000D02*
X51330000Y-18720000D01*
X51330000Y-18720000D02*
X65600000Y-18720000D01*
X65600000Y-18720000D02*
X67470000Y-18830000D01*
X67470000Y-18830000D02*
X69160000Y-19170000D01*
X69160000Y-19170000D02*
X70700000Y-19730000D01*
X70700000Y-19730000D02*
X72070000Y-20510000D01*
X72070000Y-20510000D02*
X73270000Y-21460000D01*
X73270000Y-21460000D02*
X74320000Y-22520000D01*
X74320000Y-22520000D02*
X75210000Y-23690000D01*
X75210000Y-23690000D02*
X75940000Y-24980000D01*
X75940000Y-24980000D02*
X76500000Y-26350000D01*
X76500000Y-26350000D02*
X76910000Y-27780000D01*
X76910000Y-27780000D02*
X77230000Y-30790000D01*
X77230000Y-30790000D02*
X76910000Y-33810000D01*
X76910000Y-33810000D02*
X76500000Y-35240000D01*
X76500000Y-35240000D02*
X75940000Y-36610000D01*
X75940000Y-36610000D02*
X75210000Y-37890000D01*
X75210000Y-37890000D02*
X74320000Y-39070000D01*
X74320000Y-39070000D02*
X73270000Y-40130000D01*
X73270000Y-40130000D02*
X72070000Y-41080000D01*
X72070000Y-41080000D02*
X70700000Y-41860000D01*
X70700000Y-41860000D02*
X69160000Y-42420000D01*
X69160000Y-42420000D02*
X67470000Y-42750000D01*
X67470000Y-42750000D02*
X65600000Y-42860000D01*
X65600000Y-42860000D02*
X59630000Y-42860000D01*
X59630000Y-42860000D02*
X59630000Y-45150000D01*
X59630000Y-45150000D02*
X81930000Y-45150000D01*
X81930000Y-45150000D02*
X81930000Y-51150000D01*
X81930000Y-51150000D02*
X59630000Y-51150000D01*
X59630000Y-51150000D02*
X59630000Y-51160000D01*
X59630000Y-51160000D02*
X59630000Y-51160000D01*
X59630000Y-51160000D02*
X59630000Y-51160000D01*
X66590000Y-35230000D02*
X67460000Y-34710000D01*
X67460000Y-34710000D02*
X68150000Y-33930000D01*
X68150000Y-33930000D02*
X68640000Y-32990000D01*
X68640000Y-32990000D02*
X68940000Y-31930000D01*
X68940000Y-31930000D02*
X69060000Y-30770000D01*
X69060000Y-30770000D02*
X68980000Y-29610000D01*
X68980000Y-29610000D02*
X68710000Y-28540000D01*
X68710000Y-28540000D02*
X68230000Y-27610000D01*
X68230000Y-27610000D02*
X67550000Y-26830000D01*
X67550000Y-26830000D02*
X66660000Y-26310000D01*
X66660000Y-26310000D02*
X65560000Y-26130000D01*
X65560000Y-26130000D02*
X62570000Y-26110000D01*
X62570000Y-26110000D02*
X59620000Y-26140000D01*
X59620000Y-26140000D02*
X59620000Y-35400000D01*
X59620000Y-35400000D02*
X59630000Y-35400000D01*
X59630000Y-35400000D02*
X65560000Y-35400000D01*
X65560000Y-35400000D02*
X66590000Y-35230000D01*
X66590000Y-35230000D02*
X66590000Y-35230000D01*
X66590000Y-35230000D02*
X66590000Y-35230000D01*
M02*
