M48
;DRILL file {KiCad 4.0.0-rc2-stable} date 3/3/2016 3:44:20 PM
;FORMAT={-:-/ absolute / inch / decimal}
FMAT,2
INCH,TZ
T1C0.012
T2C0.016
%
G90
G05
M72
T1
X2.1576Y-1.4365G85X2.1576Y-1.4365
G05
X2.1858Y-1.1729G85X2.1858Y-1.1729
G05
X2.2369Y-1.6815G85X2.2369Y-1.6815
G05
X2.334Y-0.9603G85X2.334Y-0.9603
G05
X2.4361Y-1.8593G85X2.4361Y-1.8593
G05
X2.5751Y-0.8433G85X2.5751Y-0.8433
G05
X2.688Y-1.9166G85X2.688Y-1.9166
G05
X2.8311Y-1.3849G85X2.8311Y-1.3849
G05
X2.8361Y-0.8559G85X2.8361Y-0.8559
G05
X2.9431Y-1.8443G85X2.9431Y-1.8443
G05
X3.0305Y-0.9657G85X3.0305Y-0.9657
G05
X3.0556Y-1.0024G85X3.0556Y-1.0024
G05
X3.1189Y-1.6446G85X3.1189Y-1.6446
G05
X3.1705Y-1.394G85X3.1705Y-1.394
G05
T2
X1.9693Y-1.8186G85X1.9693Y-1.8186
G05
X1.9693Y-1.8973G85X1.9693Y-1.8973
G05
X1.9693Y-1.9761G85X1.9693Y-1.9761
G05
X3.3369Y-1.8186G85X3.3369Y-1.8186
G05
X3.3369Y-1.8973G85X3.3369Y-1.8973
G05
X3.3369Y-1.9761G85X3.3369Y-1.9761
G05
T0
M30
