G04 #@! TF.FileFunction,Soldermask,Top*
%FSLAX46Y46*%
G04 Gerber Fmt 4.6, Leading zero omitted, Abs format (unit mm)*
G04 Created by KiCad (PCBNEW 4.0.0-rc2-stable) date 3/3/2016 3:49:23 PM*
%MOMM*%
G01*
G04 APERTURE LIST*
%ADD10C,0.150000*%
%ADD11R,0.500000X1.800000*%
%ADD12R,0.320000X2.300000*%
%ADD13R,0.800000X2.300000*%
%ADD14R,1.800000X0.500000*%
%ADD15R,2.300000X0.320000*%
%ADD16R,2.300000X0.800000*%
%ADD17R,4.000000X1.000000*%
%ADD18C,0.600000*%
G04 APERTURE END LIST*
D10*
G36*
X69204163Y-33941470D02*
X67674462Y-32992779D01*
X67937987Y-32567862D01*
X69467688Y-33516553D01*
X69204163Y-33941470D01*
X69204163Y-33941470D01*
G37*
G36*
X70465451Y-32382062D02*
X68510833Y-31169847D01*
X68679489Y-30897900D01*
X70634107Y-32110115D01*
X70465451Y-32382062D01*
X70465451Y-32382062D01*
G37*
G36*
X69680146Y-33648316D02*
X67725528Y-32436100D01*
X68147168Y-31756232D01*
X70101786Y-32968448D01*
X69680146Y-33648316D01*
X69680146Y-33648316D01*
G37*
G36*
X72465819Y-28682259D02*
X70936118Y-27733568D01*
X71199643Y-27308651D01*
X72729344Y-28257342D01*
X72465819Y-28682259D01*
X72465819Y-28682259D01*
G37*
G36*
X73727107Y-27122851D02*
X71772489Y-25910636D01*
X71941145Y-25638689D01*
X73895763Y-26850904D01*
X73727107Y-27122851D01*
X73727107Y-27122851D01*
G37*
G36*
X72941802Y-28389105D02*
X70987184Y-27176889D01*
X71408824Y-26497021D01*
X73363442Y-27709237D01*
X72941802Y-28389105D01*
X72941802Y-28389105D01*
G37*
G36*
X75727473Y-23423050D02*
X74197772Y-22474359D01*
X74461297Y-22049442D01*
X75990998Y-22998133D01*
X75727473Y-23423050D01*
X75727473Y-23423050D01*
G37*
G36*
X76988761Y-21863642D02*
X75034143Y-20651427D01*
X75202799Y-20379480D01*
X77157417Y-21591695D01*
X76988761Y-21863642D01*
X76988761Y-21863642D01*
G37*
G36*
X76203456Y-23129896D02*
X74248838Y-21917680D01*
X74670478Y-21237812D01*
X76625096Y-22450028D01*
X76203456Y-23129896D01*
X76203456Y-23129896D01*
G37*
G36*
X56571225Y-23340572D02*
X55622688Y-21810776D01*
X56047631Y-21547294D01*
X56996168Y-23077090D01*
X56571225Y-23340572D01*
X56571225Y-23340572D01*
G37*
G36*
X58394241Y-22504383D02*
X57182221Y-20549643D01*
X57454185Y-20381015D01*
X58666205Y-22335755D01*
X58394241Y-22504383D01*
X58394241Y-22504383D01*
G37*
G36*
X57127909Y-23289561D02*
X55915889Y-21334821D01*
X56595799Y-20913249D01*
X57807819Y-22867989D01*
X57127909Y-23289561D01*
X57127909Y-23289561D01*
G37*
G36*
X59832543Y-28600408D02*
X58884006Y-27070612D01*
X59308949Y-26807130D01*
X60257486Y-28336926D01*
X59832543Y-28600408D01*
X59832543Y-28600408D01*
G37*
G36*
X61655559Y-27764219D02*
X60443539Y-25809479D01*
X60715503Y-25640851D01*
X61927523Y-27595591D01*
X61655559Y-27764219D01*
X61655559Y-27764219D01*
G37*
G36*
X60389227Y-28549397D02*
X59177207Y-26594657D01*
X59857117Y-26173085D01*
X61069137Y-28127825D01*
X60389227Y-28549397D01*
X60389227Y-28549397D01*
G37*
G36*
X63093861Y-33860246D02*
X62145324Y-32330450D01*
X62570267Y-32066968D01*
X63518804Y-33596764D01*
X63093861Y-33860246D01*
X63093861Y-33860246D01*
G37*
G36*
X64916877Y-33024057D02*
X63704857Y-31069317D01*
X63976821Y-30900689D01*
X65188841Y-32855429D01*
X64916877Y-33024057D01*
X64916877Y-33024057D01*
G37*
G36*
X63650545Y-33809235D02*
X62438525Y-31854495D01*
X63118435Y-31432923D01*
X64330455Y-33387663D01*
X63650545Y-33809235D01*
X63650545Y-33809235D01*
G37*
D11*
X65506020Y-48052030D03*
D12*
X67406020Y-48052030D03*
D13*
X66156020Y-48052030D03*
D14*
X66577130Y-43412085D03*
D15*
X66577130Y-41512085D03*
D16*
X66577130Y-42762085D03*
D14*
X66577130Y-37873280D03*
D15*
X66577130Y-35973280D03*
D16*
X66577130Y-37223280D03*
D17*
X83742890Y-50192207D03*
X83742890Y-48192207D03*
X83742890Y-46192207D03*
D18*
X82742890Y-50192207D03*
X82742890Y-48192207D03*
X82742890Y-46192207D03*
D17*
X49020840Y-46192207D03*
X49020840Y-48192207D03*
X49020840Y-50192207D03*
D18*
X50020840Y-46192207D03*
X50020840Y-48192207D03*
X50020840Y-50192207D03*
M02*
