G04 #@! TF.FileFunction,Copper,L1,Top,Signal*
%FSLAX46Y46*%
G04 Gerber Fmt 4.6, Leading zero omitted, Abs format (unit mm)*
G04 Created by KiCad (PCBNEW 4.0.0-rc2-stable) date 3/3/2016 3:42:37 PM*
%MOMM*%
G01*
G04 APERTURE LIST*
%ADD10C,0.150000*%
%ADD11C,0.500000*%
%ADD12R,4.000000X1.000000*%
%ADD13C,0.600000*%
%ADD14C,0.254000*%
%ADD15C,0.152400*%
G04 APERTURE END LIST*
D10*
G36*
X77052653Y-41239738D02*
X78597241Y-42163994D01*
X78340503Y-42593046D01*
X76795915Y-41668790D01*
X77052653Y-41239738D01*
X77052653Y-41239738D01*
G37*
G36*
X75816311Y-42818996D02*
X77789950Y-43999991D01*
X77625637Y-44274584D01*
X75651998Y-43093589D01*
X75816311Y-42818996D01*
X75816311Y-42818996D01*
G37*
G36*
X76581390Y-41540421D02*
X78555029Y-42721416D01*
X78144248Y-43407899D01*
X76170609Y-42226904D01*
X76581390Y-41540421D01*
X76581390Y-41540421D01*
G37*
D11*
X78828998Y-42360943D03*
D10*
G36*
X73272129Y-45255981D02*
X74043097Y-46882513D01*
X73591283Y-47096671D01*
X72820315Y-45470139D01*
X73272129Y-45255981D01*
X73272129Y-45255981D01*
G37*
G36*
X71366829Y-45882422D02*
X72351955Y-47960769D01*
X72062793Y-48097830D01*
X71077667Y-46019483D01*
X71366829Y-45882422D01*
X71366829Y-45882422D01*
G37*
G36*
X72713236Y-45244231D02*
X73698362Y-47322578D01*
X72975458Y-47665231D01*
X71990332Y-45586884D01*
X72713236Y-45244231D01*
X72713236Y-45244231D01*
G37*
D11*
X74126411Y-47175018D03*
D10*
G36*
X67831947Y-46531382D02*
X67667835Y-48323885D01*
X67169917Y-48278298D01*
X67334029Y-46485795D01*
X67831947Y-46531382D01*
X67831947Y-46531382D01*
G37*
G36*
X65873028Y-46100988D02*
X65663329Y-48391409D01*
X65344662Y-48362234D01*
X65554361Y-46071813D01*
X65873028Y-46100988D01*
X65873028Y-46100988D01*
G37*
G36*
X67356822Y-46236836D02*
X67147124Y-48527257D01*
X66350456Y-48454318D01*
X66560154Y-46163897D01*
X67356822Y-46236836D01*
X67356822Y-46236836D01*
G37*
D11*
X67590691Y-48618077D03*
D10*
G36*
X62400532Y-45183122D02*
X61306093Y-46612179D01*
X60909132Y-46308168D01*
X62003571Y-44879111D01*
X62400532Y-45183122D01*
X62400532Y-45183122D01*
G37*
G36*
X60972636Y-43774678D02*
X59574186Y-45600695D01*
X59320132Y-45406128D01*
X60718582Y-43580111D01*
X60972636Y-43774678D01*
X60972636Y-43774678D01*
G37*
G36*
X62155577Y-44680630D02*
X60757127Y-46506647D01*
X60121991Y-46020230D01*
X61520441Y-44194213D01*
X62155577Y-44680630D01*
X62155577Y-44680630D01*
G37*
D11*
X61083990Y-46819953D03*
D10*
G36*
X58437802Y-41159804D02*
X56868270Y-42041037D01*
X56623484Y-41605056D01*
X58193016Y-40723823D01*
X58437802Y-41159804D01*
X58437802Y-41159804D01*
G37*
G36*
X57681542Y-39302207D02*
X55676029Y-40428225D01*
X55519366Y-40149197D01*
X57524879Y-39023179D01*
X57681542Y-39302207D01*
X57681542Y-39302207D01*
G37*
G36*
X58411006Y-40601430D02*
X56405493Y-41727449D01*
X56013834Y-41029880D01*
X58019347Y-39903861D01*
X58411006Y-40601430D01*
X58411006Y-40601430D01*
G37*
D11*
X56582203Y-42144310D03*
D10*
G36*
X56697349Y-35826730D02*
X54904684Y-35664396D01*
X54949777Y-35166434D01*
X56742442Y-35328768D01*
X56697349Y-35826730D01*
X56697349Y-35826730D01*
G37*
G36*
X57125799Y-33867386D02*
X54835172Y-33659960D01*
X54864031Y-33341264D01*
X57154658Y-33548690D01*
X57125799Y-33867386D01*
X57125799Y-33867386D01*
G37*
G36*
X56991424Y-35351314D02*
X54700796Y-35143888D01*
X54772944Y-34347148D01*
X57063572Y-34554574D01*
X56991424Y-35351314D01*
X56991424Y-35351314D01*
G37*
D11*
X54610416Y-35587545D03*
D10*
G36*
X57571019Y-30216719D02*
X56001494Y-29335475D01*
X56246285Y-28899495D01*
X57815810Y-29780739D01*
X57571019Y-30216719D01*
X57571019Y-30216719D01*
G37*
G36*
X58763273Y-28603916D02*
X56757769Y-27477882D01*
X56914435Y-27198856D01*
X58919939Y-28324890D01*
X58763273Y-28603916D01*
X58763273Y-28603916D01*
G37*
G36*
X58033799Y-29903134D02*
X56028295Y-28777100D01*
X56419959Y-28079534D01*
X58425463Y-29205568D01*
X58033799Y-29903134D01*
X58033799Y-29903134D01*
G37*
D11*
X55764386Y-29145002D03*
D10*
G36*
X60999519Y-25720241D02*
X59902355Y-24293275D01*
X60298735Y-23988507D01*
X61395899Y-25415473D01*
X60999519Y-25720241D01*
X60999519Y-25720241D01*
G37*
G36*
X62729493Y-24705454D02*
X61327562Y-22882109D01*
X61581245Y-22687058D01*
X62983176Y-24510403D01*
X62729493Y-24705454D01*
X62729493Y-24705454D01*
G37*
G36*
X61548282Y-25613663D02*
X60146351Y-23790318D01*
X60780558Y-23302689D01*
X62182489Y-25126034D01*
X61548282Y-25613663D01*
X61548282Y-25613663D01*
G37*
D11*
X59759133Y-24024971D03*
D10*
G36*
X66054687Y-23422350D02*
X65886121Y-21630260D01*
X66383923Y-21583436D01*
X66552489Y-23375526D01*
X66054687Y-23422350D01*
X66054687Y-23422350D01*
G37*
G36*
X68059353Y-23484892D02*
X67843963Y-21194999D01*
X68162557Y-21165032D01*
X68377947Y-23454925D01*
X68059353Y-23484892D01*
X68059353Y-23484892D01*
G37*
G36*
X66575902Y-23624427D02*
X66360512Y-21334535D01*
X67156996Y-21259617D01*
X67372386Y-23549509D01*
X66575902Y-23624427D01*
X66575902Y-23624427D01*
G37*
D11*
X65907807Y-21326896D03*
D10*
G36*
X71602242Y-23713489D02*
X72325626Y-22065243D01*
X72783472Y-22266183D01*
X72060088Y-23914429D01*
X71602242Y-23713489D01*
X71602242Y-23713489D01*
G37*
G36*
X73323999Y-24742153D02*
X74248324Y-22636061D01*
X74541345Y-22764663D01*
X73617020Y-24870755D01*
X73323999Y-24742153D01*
X73323999Y-24742153D01*
G37*
G36*
X71959618Y-24143352D02*
X72883943Y-22037260D01*
X73616496Y-22358764D01*
X72692171Y-24464856D01*
X71959618Y-24143352D01*
X71959618Y-24143352D01*
G37*
D11*
X72491975Y-21810629D03*
D10*
G36*
X76041870Y-26792230D02*
X77560673Y-25826187D01*
X77829018Y-26248076D01*
X76310215Y-27214119D01*
X76041870Y-26792230D01*
X76041870Y-26792230D01*
G37*
G36*
X76898938Y-28605522D02*
X78839631Y-27371134D01*
X79011372Y-27641144D01*
X77070679Y-28875532D01*
X76898938Y-28605522D01*
X76898938Y-28605522D01*
G37*
G36*
X76099270Y-27348291D02*
X78039962Y-26113903D01*
X78469314Y-26788927D01*
X76528622Y-28023315D01*
X76099270Y-27348291D01*
X76099270Y-27348291D01*
G37*
D11*
X77840641Y-25707368D03*
D12*
X85735030Y-50192207D03*
X85735030Y-48192207D03*
X85735030Y-46192207D03*
D13*
X84735030Y-50192207D03*
X84735030Y-48192207D03*
X84735030Y-46192207D03*
D12*
X49020836Y-46192207D03*
X49020836Y-48192207D03*
X49020836Y-50192207D03*
D13*
X50020836Y-46192207D03*
X50020836Y-48192207D03*
X50020836Y-50192207D03*
D11*
X62254379Y-22804379D03*
D14*
X77700000Y-41920000D02*
X77360000Y-42470000D01*
X77700000Y-41920000D02*
X77360000Y-42470000D01*
X77700000Y-41920000D02*
X77360000Y-42470000D01*
X77700000Y-41920000D02*
X77360000Y-42470000D01*
X77700000Y-41920000D02*
X77360000Y-42470000D01*
X77700000Y-41920000D02*
X77360000Y-42470000D01*
X77700000Y-41920000D02*
X77360000Y-42470000D01*
X77700000Y-41920000D02*
X77360000Y-42470000D01*
X77700000Y-41920000D02*
X77360000Y-42470000D01*
X77360000Y-42470000D02*
X78830000Y-42360000D01*
X77360000Y-42470000D02*
X78830000Y-42360000D01*
X77360000Y-42470000D02*
X78830000Y-42360000D01*
X77360000Y-42470000D02*
X78830000Y-42360000D01*
X77360000Y-42470000D02*
X78830000Y-42360000D01*
X77360000Y-42470000D02*
X78830000Y-42360000D01*
X77360000Y-42470000D02*
X78830000Y-42360000D01*
X77360000Y-42470000D02*
X78830000Y-42360000D01*
X77360000Y-42470000D02*
X78830000Y-42360000D01*
X73430000Y-46180000D02*
X72840000Y-46450000D01*
X73430000Y-46180000D02*
X72840000Y-46450000D01*
X73430000Y-46180000D02*
X72840000Y-46450000D01*
X73430000Y-46180000D02*
X72840000Y-46450000D01*
X73430000Y-46180000D02*
X72840000Y-46450000D01*
X73430000Y-46180000D02*
X72840000Y-46450000D01*
X73430000Y-46180000D02*
X72840000Y-46450000D01*
X73430000Y-46180000D02*
X72840000Y-46450000D01*
X73430000Y-46180000D02*
X72840000Y-46450000D01*
X72840000Y-46450000D02*
X74130000Y-47180000D01*
X72840000Y-46450000D02*
X74130000Y-47180000D01*
X72840000Y-46450000D02*
X74130000Y-47180000D01*
X72840000Y-46450000D02*
X74130000Y-47180000D01*
X72840000Y-46450000D02*
X74130000Y-47180000D01*
X72840000Y-46450000D02*
X74130000Y-47180000D01*
X72840000Y-46450000D02*
X74130000Y-47180000D01*
X72840000Y-46450000D02*
X74130000Y-47180000D01*
X72840000Y-46450000D02*
X74130000Y-47180000D01*
X67500000Y-47400000D02*
X66850000Y-47350000D01*
X67500000Y-47400000D02*
X66850000Y-47350000D01*
X67500000Y-47400000D02*
X66850000Y-47350000D01*
X67500000Y-47400000D02*
X66850000Y-47350000D01*
X67500000Y-47400000D02*
X66850000Y-47350000D01*
X67500000Y-47400000D02*
X66850000Y-47350000D01*
X67500000Y-47400000D02*
X66850000Y-47350000D01*
X67500000Y-47400000D02*
X66850000Y-47350000D01*
X67500000Y-47400000D02*
X66850000Y-47350000D01*
X66850000Y-47350000D02*
X67590000Y-48620000D01*
X66850000Y-47350000D02*
X67590000Y-48620000D01*
X66850000Y-47350000D02*
X67590000Y-48620000D01*
X66850000Y-47350000D02*
X67590000Y-48620000D01*
X66850000Y-47350000D02*
X67590000Y-48620000D01*
X66850000Y-47350000D02*
X67590000Y-48620000D01*
X66850000Y-47350000D02*
X67590000Y-48620000D01*
X66850000Y-47350000D02*
X67590000Y-48620000D01*
X66850000Y-47350000D02*
X67590000Y-48620000D01*
X61650000Y-45750000D02*
X61140000Y-45350000D01*
X61650000Y-45750000D02*
X61140000Y-45350000D01*
X61650000Y-45750000D02*
X61140000Y-45350000D01*
X61650000Y-45750000D02*
X61140000Y-45350000D01*
X61650000Y-45750000D02*
X61140000Y-45350000D01*
X61650000Y-45750000D02*
X61140000Y-45350000D01*
X61650000Y-45750000D02*
X61140000Y-45350000D01*
X61650000Y-45750000D02*
X61140000Y-45350000D01*
X61650000Y-45750000D02*
X61140000Y-45350000D01*
X61140000Y-45350000D02*
X61080000Y-46820000D01*
X61140000Y-45350000D02*
X61080000Y-46820000D01*
X61140000Y-45350000D02*
X61080000Y-46820000D01*
X61140000Y-45350000D02*
X61080000Y-46820000D01*
X61140000Y-45350000D02*
X61080000Y-46820000D01*
X61140000Y-45350000D02*
X61080000Y-46820000D01*
X61140000Y-45350000D02*
X61080000Y-46820000D01*
X61140000Y-45350000D02*
X61080000Y-46820000D01*
X61140000Y-45350000D02*
X61080000Y-46820000D01*
X57530000Y-41380000D02*
X57210000Y-40820000D01*
X57530000Y-41380000D02*
X57210000Y-40820000D01*
X57530000Y-41380000D02*
X57210000Y-40820000D01*
X57530000Y-41380000D02*
X57210000Y-40820000D01*
X57530000Y-41380000D02*
X57210000Y-40820000D01*
X57530000Y-41380000D02*
X57210000Y-40820000D01*
X57530000Y-41380000D02*
X57210000Y-40820000D01*
X57530000Y-41380000D02*
X57210000Y-40820000D01*
X57530000Y-41380000D02*
X57210000Y-40820000D01*
X57210000Y-40820000D02*
X56580000Y-42140000D01*
X57210000Y-40820000D02*
X56580000Y-42140000D01*
X57210000Y-40820000D02*
X56580000Y-42140000D01*
X57210000Y-40820000D02*
X56580000Y-42140000D01*
X57210000Y-40820000D02*
X56580000Y-42140000D01*
X57210000Y-40820000D02*
X56580000Y-42140000D01*
X57210000Y-40820000D02*
X56580000Y-42140000D01*
X57210000Y-40820000D02*
X56580000Y-42140000D01*
X57210000Y-40820000D02*
X56580000Y-42140000D01*
X55820000Y-35500000D02*
X55880000Y-34850000D01*
X55820000Y-35500000D02*
X55880000Y-34850000D01*
X55820000Y-35500000D02*
X55880000Y-34850000D01*
X55820000Y-35500000D02*
X55880000Y-34850000D01*
X55820000Y-35500000D02*
X55880000Y-34850000D01*
X55820000Y-35500000D02*
X55880000Y-34850000D01*
X55820000Y-35500000D02*
X55880000Y-34850000D01*
X55820000Y-35500000D02*
X55880000Y-34850000D01*
X55820000Y-35500000D02*
X55880000Y-34850000D01*
X55880000Y-34850000D02*
X54610000Y-35590000D01*
X55880000Y-34850000D02*
X54610000Y-35590000D01*
X55880000Y-34850000D02*
X54610000Y-35590000D01*
X55880000Y-34850000D02*
X54610000Y-35590000D01*
X55880000Y-34850000D02*
X54610000Y-35590000D01*
X55880000Y-34850000D02*
X54610000Y-35590000D01*
X55880000Y-34850000D02*
X54610000Y-35590000D01*
X55880000Y-34850000D02*
X54610000Y-35590000D01*
X55880000Y-34850000D02*
X54610000Y-35590000D01*
X56910000Y-29560000D02*
X57230000Y-28990000D01*
X56910000Y-29560000D02*
X57230000Y-28990000D01*
X56910000Y-29560000D02*
X57230000Y-28990000D01*
X56910000Y-29560000D02*
X57230000Y-28990000D01*
X56910000Y-29560000D02*
X57230000Y-28990000D01*
X56910000Y-29560000D02*
X57230000Y-28990000D01*
X56910000Y-29560000D02*
X57230000Y-28990000D01*
X56910000Y-29560000D02*
X57230000Y-28990000D01*
X56910000Y-29560000D02*
X57230000Y-28990000D01*
X57230000Y-28990000D02*
X55760000Y-29150000D01*
X57230000Y-28990000D02*
X55760000Y-29150000D01*
X57230000Y-28990000D02*
X55760000Y-29150000D01*
X57230000Y-28990000D02*
X55760000Y-29150000D01*
X57230000Y-28990000D02*
X55760000Y-29150000D01*
X57230000Y-28990000D02*
X55760000Y-29150000D01*
X57230000Y-28990000D02*
X55760000Y-29150000D01*
X57230000Y-28990000D02*
X55760000Y-29150000D01*
X57230000Y-28990000D02*
X55760000Y-29150000D01*
X60650000Y-24850000D02*
X61160000Y-24460000D01*
X60650000Y-24850000D02*
X61160000Y-24460000D01*
X60650000Y-24850000D02*
X61160000Y-24460000D01*
X60650000Y-24850000D02*
X61160000Y-24460000D01*
X60650000Y-24850000D02*
X61160000Y-24460000D01*
X60650000Y-24850000D02*
X61160000Y-24460000D01*
X60650000Y-24850000D02*
X61160000Y-24460000D01*
X60650000Y-24850000D02*
X61160000Y-24460000D01*
X60650000Y-24850000D02*
X61160000Y-24460000D01*
X61160000Y-24460000D02*
X59760000Y-24020000D01*
X61160000Y-24460000D02*
X59760000Y-24020000D01*
X61160000Y-24460000D02*
X59760000Y-24020000D01*
X61160000Y-24460000D02*
X59760000Y-24020000D01*
X61160000Y-24460000D02*
X59760000Y-24020000D01*
X61160000Y-24460000D02*
X59760000Y-24020000D01*
X61160000Y-24460000D02*
X59760000Y-24020000D01*
X61160000Y-24460000D02*
X59760000Y-24020000D01*
X61160000Y-24460000D02*
X59760000Y-24020000D01*
X66220000Y-22500000D02*
X66870000Y-22440000D01*
X66220000Y-22500000D02*
X66870000Y-22440000D01*
X66220000Y-22500000D02*
X66870000Y-22440000D01*
X66220000Y-22500000D02*
X66870000Y-22440000D01*
X66220000Y-22500000D02*
X66870000Y-22440000D01*
X66220000Y-22500000D02*
X66870000Y-22440000D01*
X66220000Y-22500000D02*
X66870000Y-22440000D01*
X66220000Y-22500000D02*
X66870000Y-22440000D01*
X66220000Y-22500000D02*
X66870000Y-22440000D01*
X66870000Y-22440000D02*
X65910000Y-21330000D01*
X66870000Y-22440000D02*
X65910000Y-21330000D01*
X66870000Y-22440000D02*
X65910000Y-21330000D01*
X66870000Y-22440000D02*
X65910000Y-21330000D01*
X66870000Y-22440000D02*
X65910000Y-21330000D01*
X66870000Y-22440000D02*
X65910000Y-21330000D01*
X66870000Y-22440000D02*
X65910000Y-21330000D01*
X66870000Y-22440000D02*
X65910000Y-21330000D01*
X66870000Y-22440000D02*
X65910000Y-21330000D01*
X72190000Y-22990000D02*
X72790000Y-23250000D01*
X72190000Y-22990000D02*
X72790000Y-23250000D01*
X72190000Y-22990000D02*
X72790000Y-23250000D01*
X72190000Y-22990000D02*
X72790000Y-23250000D01*
X72190000Y-22990000D02*
X72790000Y-23250000D01*
X72190000Y-22990000D02*
X72790000Y-23250000D01*
X72190000Y-22990000D02*
X72790000Y-23250000D01*
X72190000Y-22990000D02*
X72790000Y-23250000D01*
X72190000Y-22990000D02*
X72790000Y-23250000D01*
X72790000Y-23250000D02*
X72490000Y-21810000D01*
X72790000Y-23250000D02*
X72490000Y-21810000D01*
X72790000Y-23250000D02*
X72490000Y-21810000D01*
X72790000Y-23250000D02*
X72490000Y-21810000D01*
X72790000Y-23250000D02*
X72490000Y-21810000D01*
X72790000Y-23250000D02*
X72490000Y-21810000D01*
X72790000Y-23250000D02*
X72490000Y-21810000D01*
X72790000Y-23250000D02*
X72490000Y-21810000D01*
X72790000Y-23250000D02*
X72490000Y-21810000D01*
X76940000Y-26520000D02*
X77280000Y-27070000D01*
X76940000Y-26520000D02*
X77280000Y-27070000D01*
X76940000Y-26520000D02*
X77280000Y-27070000D01*
X76940000Y-26520000D02*
X77280000Y-27070000D01*
X76940000Y-26520000D02*
X77280000Y-27070000D01*
X76940000Y-26520000D02*
X77280000Y-27070000D01*
X76940000Y-26520000D02*
X77280000Y-27070000D01*
X76940000Y-26520000D02*
X77280000Y-27070000D01*
X76940000Y-26520000D02*
X77280000Y-27070000D01*
X77280000Y-27070000D02*
X77840000Y-25710000D01*
X77280000Y-27070000D02*
X77840000Y-25710000D01*
X77280000Y-27070000D02*
X77840000Y-25710000D01*
X77280000Y-27070000D02*
X77840000Y-25710000D01*
X77280000Y-27070000D02*
X77840000Y-25710000D01*
X77280000Y-27070000D02*
X77840000Y-25710000D01*
X77280000Y-27070000D02*
X77840000Y-25710000D01*
X77280000Y-27070000D02*
X77840000Y-25710000D01*
X77280000Y-27070000D02*
X77840000Y-25710000D01*
D15*
G36*
X70430619Y-18806486D02*
X72911350Y-19338071D01*
X75290154Y-20232580D01*
X77466997Y-21497502D01*
X79376968Y-23162605D01*
X81002403Y-25238463D01*
X82226086Y-27754353D01*
X82857171Y-30401400D01*
X75235367Y-30401400D01*
X74816974Y-29402378D01*
X74804788Y-29384293D01*
X74797190Y-29363853D01*
X74723833Y-29244798D01*
X76613192Y-29244798D01*
X76640110Y-29287117D01*
X76830392Y-29420559D01*
X77057256Y-29471025D01*
X77286163Y-29430833D01*
X77482265Y-29306101D01*
X78081302Y-28925081D01*
X78126152Y-28723463D01*
X77848066Y-28286259D01*
X76658042Y-29043180D01*
X76613192Y-29244798D01*
X74723833Y-29244798D01*
X74187190Y-28373853D01*
X74171071Y-28356500D01*
X74159199Y-28336006D01*
X73429199Y-27506006D01*
X73408645Y-27490281D01*
X73391775Y-27470657D01*
X72574920Y-26830951D01*
X75812031Y-26830951D01*
X75845204Y-26917321D01*
X75988458Y-27142543D01*
X75974179Y-27151625D01*
X75911254Y-27210539D01*
X75872474Y-27294541D01*
X75869431Y-27387012D01*
X75902604Y-27473382D01*
X76331956Y-28148406D01*
X76390871Y-28211331D01*
X76444484Y-28236082D01*
X76353911Y-28365234D01*
X76303444Y-28592098D01*
X76343636Y-28821005D01*
X76370554Y-28863325D01*
X76572172Y-28908175D01*
X77762196Y-28151254D01*
X77726678Y-28095412D01*
X78148114Y-28095412D01*
X78426200Y-28532616D01*
X78627818Y-28577466D01*
X79226855Y-28196446D01*
X79422957Y-28071714D01*
X79556399Y-27881432D01*
X79606866Y-27654568D01*
X79566674Y-27425661D01*
X79539756Y-27383341D01*
X79338138Y-27338491D01*
X78148114Y-28095412D01*
X77726678Y-28095412D01*
X77719261Y-28083752D01*
X78019309Y-27892905D01*
X78062244Y-27960407D01*
X79252268Y-27203486D01*
X79297118Y-27001868D01*
X79270200Y-26959549D01*
X79079918Y-26826107D01*
X78853054Y-26775641D01*
X78697417Y-26802968D01*
X78699153Y-26750206D01*
X78665980Y-26663836D01*
X78236628Y-25988812D01*
X78236392Y-25988559D01*
X78246141Y-25978827D01*
X78319157Y-25802985D01*
X78319324Y-25612586D01*
X78246615Y-25436617D01*
X78112100Y-25301868D01*
X77936258Y-25228852D01*
X77745859Y-25228685D01*
X77569890Y-25301394D01*
X77435141Y-25435909D01*
X77362125Y-25611751D01*
X77362068Y-25676280D01*
X75916779Y-26595564D01*
X75853854Y-26654479D01*
X75815074Y-26738480D01*
X75812031Y-26830951D01*
X72574920Y-26830951D01*
X72561775Y-26820657D01*
X72539855Y-26809577D01*
X72520835Y-26794032D01*
X71580834Y-26294032D01*
X71558056Y-26287173D01*
X71537352Y-26275448D01*
X70477352Y-25925448D01*
X70449108Y-25921969D01*
X70422021Y-25913246D01*
X68002021Y-25633246D01*
X67973224Y-25635588D01*
X67944489Y-25632570D01*
X66204489Y-25792570D01*
X66177266Y-25800636D01*
X66149017Y-25803430D01*
X64569017Y-26283430D01*
X64541723Y-26298033D01*
X64512339Y-26307786D01*
X63122339Y-27097786D01*
X63097815Y-27119000D01*
X63070222Y-27136033D01*
X61920222Y-28206033D01*
X61903252Y-28229551D01*
X61882250Y-28249539D01*
X60952249Y-29569539D01*
X60941503Y-29593770D01*
X60926092Y-29615332D01*
X60226092Y-31165332D01*
X60220302Y-31190303D01*
X60209448Y-31213522D01*
X59779448Y-32963521D01*
X59778401Y-32986988D01*
X59772145Y-33009634D01*
X59632145Y-34919634D01*
X59634772Y-34940855D01*
X59632277Y-34962092D01*
X59772277Y-36722091D01*
X59778856Y-36745342D01*
X59780200Y-36769469D01*
X60210200Y-38439469D01*
X60221090Y-38462108D01*
X60226945Y-38486538D01*
X60926945Y-40006539D01*
X60941630Y-40026767D01*
X60951681Y-40049651D01*
X61881682Y-41379652D01*
X61901594Y-41398738D01*
X61917425Y-41421328D01*
X63067425Y-42521328D01*
X63091302Y-42536526D01*
X63111878Y-42555962D01*
X64481878Y-43415962D01*
X64510558Y-43426895D01*
X64536929Y-43442594D01*
X66116928Y-44002594D01*
X66149087Y-44007266D01*
X66180098Y-44016991D01*
X67940098Y-44206991D01*
X67964946Y-44204778D01*
X67989694Y-44207903D01*
X68787564Y-44151361D01*
X76566409Y-44151361D01*
X76616742Y-44351680D01*
X77225949Y-44716220D01*
X77425380Y-44835556D01*
X77655298Y-44869490D01*
X77880702Y-44812855D01*
X78067273Y-44674273D01*
X78093027Y-44631235D01*
X78042694Y-44430915D01*
X76832467Y-43706734D01*
X76566409Y-44151361D01*
X68787564Y-44151361D01*
X69259694Y-44117903D01*
X69276850Y-44113209D01*
X69294638Y-44113190D01*
X70494638Y-43873190D01*
X70513865Y-43865202D01*
X70534451Y-43862101D01*
X71644451Y-43462101D01*
X71664093Y-43450268D01*
X71685907Y-43443202D01*
X72258450Y-43123251D01*
X75057092Y-43123251D01*
X75113728Y-43348654D01*
X75252311Y-43535226D01*
X75451742Y-43654562D01*
X76060948Y-44019102D01*
X76261267Y-43968769D01*
X76527325Y-43524142D01*
X75317098Y-42799961D01*
X75116779Y-42850294D01*
X75091026Y-42893332D01*
X75057092Y-43123251D01*
X72258450Y-43123251D01*
X72705907Y-42873202D01*
X72723649Y-42858077D01*
X72744331Y-42847317D01*
X73224227Y-42462345D01*
X75348921Y-42462345D01*
X75399254Y-42662665D01*
X76609481Y-43386846D01*
X76650560Y-43318197D01*
X76955701Y-43500789D01*
X76914623Y-43569438D01*
X78124850Y-44293619D01*
X78325169Y-44243286D01*
X78350922Y-44200248D01*
X78384856Y-43970329D01*
X78328220Y-43744926D01*
X78233996Y-43618074D01*
X78281933Y-43595963D01*
X78344253Y-43527579D01*
X78755034Y-42841096D01*
X78755630Y-42839479D01*
X78923780Y-42839626D01*
X79099749Y-42766917D01*
X79234498Y-42632402D01*
X79307514Y-42456560D01*
X79307681Y-42266161D01*
X79234972Y-42090192D01*
X79100457Y-41955443D01*
X78924615Y-41882427D01*
X78734216Y-41882260D01*
X78643192Y-41919871D01*
X77172333Y-41039733D01*
X77091455Y-41009912D01*
X76998983Y-41012923D01*
X76914968Y-41051674D01*
X76852648Y-41120058D01*
X76715590Y-41349105D01*
X76701070Y-41340416D01*
X76620192Y-41310595D01*
X76527720Y-41313606D01*
X76443705Y-41352357D01*
X76381385Y-41420741D01*
X75970604Y-42107224D01*
X75940783Y-42188102D01*
X75942705Y-42247122D01*
X75786650Y-42224090D01*
X75561246Y-42280725D01*
X75374675Y-42419307D01*
X75348921Y-42462345D01*
X73224227Y-42462345D01*
X73654331Y-42117317D01*
X73673472Y-42094517D01*
X73696372Y-42075502D01*
X74426373Y-41175502D01*
X74438423Y-41152643D01*
X74454931Y-41132766D01*
X75034931Y-40062766D01*
X75042573Y-40038094D01*
X75055146Y-40015531D01*
X75392866Y-38968600D01*
X83000198Y-38968600D01*
X82354960Y-41779363D01*
X81139491Y-44406346D01*
X80707120Y-44982840D01*
X80692015Y-45014337D01*
X80672607Y-45043384D01*
X80668724Y-45062908D01*
X80660116Y-45080857D01*
X80658215Y-45115739D01*
X80651400Y-45150000D01*
X80655283Y-45169523D01*
X80654200Y-45189400D01*
X80665792Y-45222355D01*
X80672607Y-45256616D01*
X80683665Y-45273166D01*
X80690271Y-45291945D01*
X80713593Y-45317956D01*
X80733000Y-45347000D01*
X80749551Y-45358059D01*
X80762840Y-45372880D01*
X80794337Y-45387985D01*
X80823384Y-45407393D01*
X80842908Y-45411276D01*
X80860857Y-45419884D01*
X80895739Y-45421785D01*
X80930000Y-45428600D01*
X87771400Y-45428600D01*
X87771400Y-45466494D01*
X87735030Y-45459129D01*
X83735030Y-45459129D01*
X83650316Y-45475069D01*
X83572512Y-45525135D01*
X83520315Y-45601527D01*
X83501952Y-45692207D01*
X83501952Y-46692207D01*
X83517892Y-46776921D01*
X83567958Y-46854725D01*
X83644350Y-46906922D01*
X83735030Y-46925285D01*
X87735030Y-46925285D01*
X87771400Y-46918442D01*
X87771400Y-47108007D01*
X86058880Y-47108007D01*
X85912830Y-47254057D01*
X85912830Y-48014407D01*
X85932830Y-48014407D01*
X85932830Y-48370007D01*
X85912830Y-48370007D01*
X85912830Y-49130357D01*
X86058880Y-49276407D01*
X87771400Y-49276407D01*
X87771400Y-49466494D01*
X87735030Y-49459129D01*
X83735030Y-49459129D01*
X83650316Y-49475069D01*
X83572512Y-49525135D01*
X83520315Y-49601527D01*
X83501952Y-49692207D01*
X83501952Y-50692207D01*
X83517892Y-50776921D01*
X83567958Y-50854725D01*
X83592362Y-50871400D01*
X71240000Y-50871400D01*
X71210692Y-50877230D01*
X71180817Y-50877759D01*
X70510508Y-51023478D01*
X67972151Y-51200573D01*
X64971342Y-50944766D01*
X64758008Y-50882544D01*
X64718699Y-50879098D01*
X64680000Y-50871400D01*
X51164518Y-50871400D01*
X51183354Y-50859279D01*
X51235551Y-50782887D01*
X51253914Y-50692207D01*
X51253914Y-49692207D01*
X51237974Y-49607493D01*
X51187908Y-49529689D01*
X51111516Y-49477492D01*
X51020836Y-49459129D01*
X47020836Y-49459129D01*
X46936122Y-49475069D01*
X46908600Y-49492779D01*
X46908600Y-49276407D01*
X48696986Y-49276407D01*
X48843036Y-49130357D01*
X48843036Y-48370007D01*
X48823036Y-48370007D01*
X48823036Y-48130540D01*
X49121424Y-48130540D01*
X49166289Y-48479424D01*
X49198636Y-48557517D01*
X49198636Y-49130357D01*
X49344686Y-49276407D01*
X51137040Y-49276407D01*
X51351758Y-49187468D01*
X51516097Y-49023130D01*
X51605036Y-48808412D01*
X51605036Y-48516057D01*
X51513669Y-48424690D01*
X64752301Y-48424690D01*
X64821293Y-48646623D01*
X64969963Y-48825260D01*
X65175678Y-48933406D01*
X65225624Y-48937978D01*
X65366853Y-48820440D01*
X65543715Y-48820440D01*
X65675841Y-48979198D01*
X65725787Y-48983771D01*
X65947719Y-48914779D01*
X66126356Y-48766107D01*
X66199885Y-48626238D01*
X66240577Y-48659871D01*
X66329205Y-48686425D01*
X67125873Y-48759364D01*
X67131021Y-48758875D01*
X67184717Y-48888828D01*
X67319232Y-49023577D01*
X67495074Y-49096593D01*
X67685473Y-49096760D01*
X67861442Y-49024051D01*
X67996191Y-48889536D01*
X68069207Y-48713694D01*
X68069374Y-48523295D01*
X67996665Y-48347326D01*
X67907884Y-48258390D01*
X67968023Y-47601519D01*
X71181040Y-47601519D01*
X71485121Y-48243046D01*
X71584665Y-48453057D01*
X71757000Y-48608989D01*
X71975890Y-48687102D01*
X72208009Y-48675503D01*
X72253331Y-48654020D01*
X72322750Y-48459490D01*
X71718675Y-47185057D01*
X71250460Y-47406988D01*
X71181040Y-47601519D01*
X67968023Y-47601519D01*
X68064054Y-46552632D01*
X68055904Y-46466818D01*
X68013141Y-46384773D01*
X67941826Y-46325829D01*
X67853198Y-46299275D01*
X67587386Y-46274939D01*
X67588929Y-46258086D01*
X67580779Y-46172272D01*
X67538016Y-46090227D01*
X67466701Y-46031283D01*
X67378073Y-46004729D01*
X66590034Y-45932580D01*
X70488396Y-45932580D01*
X70499995Y-46164700D01*
X70599540Y-46374711D01*
X70903620Y-47016238D01*
X71098151Y-47085658D01*
X71566366Y-46863726D01*
X70962291Y-45589293D01*
X70770252Y-45520762D01*
X71106872Y-45520762D01*
X71710947Y-46795195D01*
X71783237Y-46760930D01*
X71935546Y-47082261D01*
X71863256Y-47116526D01*
X72467331Y-48390959D01*
X72661862Y-48460379D01*
X72707183Y-48438897D01*
X72863115Y-48266562D01*
X72941226Y-48047672D01*
X72933340Y-47889851D01*
X72985482Y-47898093D01*
X73075289Y-47875847D01*
X73798193Y-47533194D01*
X73803708Y-47529185D01*
X73854952Y-47580518D01*
X74030794Y-47653534D01*
X74221193Y-47653701D01*
X74397162Y-47580992D01*
X74402160Y-47576002D01*
X83150830Y-47576002D01*
X83150830Y-47868357D01*
X83296880Y-48014407D01*
X83867110Y-48014407D01*
X83835618Y-48130540D01*
X83866412Y-48370007D01*
X83296880Y-48370007D01*
X83150830Y-48516057D01*
X83150830Y-48808412D01*
X83239769Y-49023130D01*
X83404108Y-49187468D01*
X83618826Y-49276407D01*
X85411180Y-49276407D01*
X85557230Y-49130357D01*
X85557230Y-48538605D01*
X85634442Y-48253874D01*
X85589577Y-47904990D01*
X85557230Y-47826897D01*
X85557230Y-47254057D01*
X85411180Y-47108007D01*
X83618826Y-47108007D01*
X83404108Y-47196946D01*
X83239769Y-47361284D01*
X83150830Y-47576002D01*
X74402160Y-47576002D01*
X74531911Y-47446477D01*
X74604927Y-47270635D01*
X74605094Y-47080236D01*
X74532385Y-46904267D01*
X74397870Y-46769518D01*
X74222028Y-46696502D01*
X74212860Y-46696494D01*
X73482745Y-45156150D01*
X73432057Y-45086427D01*
X73353491Y-45037565D01*
X73262105Y-45023119D01*
X73172298Y-45045365D01*
X72931100Y-45159692D01*
X72923852Y-45144400D01*
X72873164Y-45074677D01*
X72794598Y-45025815D01*
X72703212Y-45011369D01*
X72613405Y-45033615D01*
X71890501Y-45376268D01*
X71820778Y-45426956D01*
X71789592Y-45477100D01*
X71672622Y-45371263D01*
X71453732Y-45293150D01*
X71221613Y-45304749D01*
X71176291Y-45326232D01*
X71106872Y-45520762D01*
X70770252Y-45520762D01*
X70767760Y-45519873D01*
X70722439Y-45541355D01*
X70566507Y-45713690D01*
X70488396Y-45932580D01*
X66590034Y-45932580D01*
X66581405Y-45931790D01*
X66495590Y-45939940D01*
X66443225Y-45967234D01*
X66396397Y-45816599D01*
X66247727Y-45637962D01*
X66042012Y-45529816D01*
X65992066Y-45525244D01*
X65833309Y-45657369D01*
X65704722Y-47061845D01*
X65784389Y-47069139D01*
X65751968Y-47423258D01*
X65672301Y-47415964D01*
X65543715Y-48820440D01*
X65366853Y-48820440D01*
X65384381Y-48805853D01*
X65512968Y-47401377D01*
X64996976Y-47354135D01*
X64838218Y-47486261D01*
X64773490Y-48193249D01*
X64752301Y-48424690D01*
X51513669Y-48424690D01*
X51458986Y-48370007D01*
X50888756Y-48370007D01*
X50920248Y-48253874D01*
X50889454Y-48014407D01*
X51458986Y-48014407D01*
X51605036Y-47868357D01*
X51605036Y-47576002D01*
X51516097Y-47361284D01*
X51351758Y-47196946D01*
X51137040Y-47108007D01*
X49344686Y-47108007D01*
X49198636Y-47254057D01*
X49198636Y-47845809D01*
X49121424Y-48130540D01*
X48823036Y-48130540D01*
X48823036Y-48014407D01*
X48843036Y-48014407D01*
X48843036Y-47254057D01*
X48696986Y-47108007D01*
X46908600Y-47108007D01*
X46908600Y-46892193D01*
X46930156Y-46906922D01*
X47020836Y-46925285D01*
X51020836Y-46925285D01*
X51105550Y-46909345D01*
X51183354Y-46859279D01*
X51235551Y-46782887D01*
X51253914Y-46692207D01*
X51253914Y-45899909D01*
X59244268Y-45899909D01*
X59271418Y-46104663D01*
X59311237Y-46135158D01*
X59535783Y-46195101D01*
X59766176Y-46164550D01*
X59902950Y-46085414D01*
X59919447Y-46135561D01*
X59980275Y-46205275D01*
X60615411Y-46691692D01*
X60618402Y-46693202D01*
X60605474Y-46724336D01*
X60605307Y-46914735D01*
X60678016Y-47090704D01*
X60812531Y-47225453D01*
X60988373Y-47298469D01*
X61178772Y-47298636D01*
X61354741Y-47225927D01*
X61489490Y-47091412D01*
X61562506Y-46915570D01*
X61562571Y-46841259D01*
X64897271Y-46841259D01*
X65029397Y-47000016D01*
X65545389Y-47047258D01*
X65673975Y-45642782D01*
X65541849Y-45484024D01*
X65491903Y-45479451D01*
X65269971Y-45548443D01*
X65091334Y-45697115D01*
X64983189Y-45902830D01*
X64961999Y-46134271D01*
X64897271Y-46841259D01*
X61562571Y-46841259D01*
X61562673Y-46725171D01*
X61545313Y-46683156D01*
X62585577Y-45324838D01*
X62624430Y-45247890D01*
X62631989Y-45155679D01*
X62603076Y-45067791D01*
X62542248Y-44998077D01*
X62330332Y-44835782D01*
X62340622Y-44822346D01*
X62379475Y-44745398D01*
X62387034Y-44653187D01*
X62358121Y-44565299D01*
X62297293Y-44495585D01*
X61662157Y-44009168D01*
X61585210Y-43970315D01*
X61526356Y-43965491D01*
X61567042Y-43813082D01*
X61536492Y-43582689D01*
X61420100Y-43381525D01*
X61380281Y-43351030D01*
X61175527Y-43378180D01*
X60318004Y-44497886D01*
X60381518Y-44546528D01*
X60165305Y-44828846D01*
X60101791Y-44780204D01*
X59244268Y-45899909D01*
X51253914Y-45899909D01*
X51253914Y-45692207D01*
X51237974Y-45607493D01*
X51187908Y-45529689D01*
X51111516Y-45477492D01*
X51020836Y-45459129D01*
X47020836Y-45459129D01*
X46936122Y-45475069D01*
X46908600Y-45492779D01*
X46908600Y-45428600D01*
X54560000Y-45428600D01*
X54603012Y-45420044D01*
X54646560Y-45414812D01*
X54655997Y-45409505D01*
X54666616Y-45407393D01*
X54703083Y-45383027D01*
X54730294Y-45367724D01*
X58725726Y-45367724D01*
X58756276Y-45598117D01*
X58872668Y-45799281D01*
X58912487Y-45829776D01*
X59117241Y-45802626D01*
X59974764Y-44682920D01*
X59563394Y-44367874D01*
X59358641Y-44395024D01*
X58926979Y-44958664D01*
X58785669Y-45143178D01*
X58725726Y-45367724D01*
X54730294Y-45367724D01*
X54741311Y-45361529D01*
X54747999Y-45353014D01*
X54757000Y-45347000D01*
X54781364Y-45310536D01*
X54808458Y-45276043D01*
X54811378Y-45265617D01*
X54817393Y-45256616D01*
X54825948Y-45213606D01*
X54837780Y-45171368D01*
X54836488Y-45160617D01*
X54838600Y-45150000D01*
X54830044Y-45106988D01*
X54824812Y-45063440D01*
X54819505Y-45054003D01*
X54817393Y-45043384D01*
X54793024Y-45006914D01*
X54771529Y-44968690D01*
X54667624Y-44847468D01*
X54099198Y-43880802D01*
X59752456Y-43880802D01*
X59779607Y-44085556D01*
X60190977Y-44400602D01*
X61048500Y-43280897D01*
X61021350Y-43076143D01*
X60981531Y-43045648D01*
X60756985Y-42985705D01*
X60526592Y-43016256D01*
X60325428Y-43132648D01*
X60184118Y-43317162D01*
X59752456Y-43880802D01*
X54099198Y-43880802D01*
X53021526Y-42048116D01*
X52525192Y-40771827D01*
X55198965Y-40771827D01*
X55223520Y-40815560D01*
X55406192Y-40959244D01*
X55629945Y-41022085D01*
X55786846Y-41003341D01*
X55782216Y-41055929D01*
X55810599Y-41143989D01*
X56202258Y-41841558D01*
X56204897Y-41844706D01*
X56176703Y-41872851D01*
X56103687Y-42048693D01*
X56103520Y-42239092D01*
X56176229Y-42415061D01*
X56310744Y-42549810D01*
X56486586Y-42622826D01*
X56676985Y-42622993D01*
X56852954Y-42550284D01*
X56987703Y-42415769D01*
X57060719Y-42239927D01*
X57060754Y-42200268D01*
X58551911Y-41363039D01*
X58617974Y-41307667D01*
X58661306Y-41225920D01*
X58669420Y-41133756D01*
X58641037Y-41045695D01*
X58510360Y-40812950D01*
X58525115Y-40804665D01*
X58591178Y-40749292D01*
X58634510Y-40667546D01*
X58642624Y-40575381D01*
X58614241Y-40487321D01*
X58222582Y-39789752D01*
X58167209Y-39723689D01*
X58115035Y-39696032D01*
X58212560Y-39572045D01*
X58275402Y-39348292D01*
X58247833Y-39117524D01*
X58223279Y-39073791D01*
X58024426Y-39017943D01*
X56794655Y-39708413D01*
X56833821Y-39778170D01*
X56523751Y-39952262D01*
X56484585Y-39882505D01*
X55254813Y-40572975D01*
X55198965Y-40771827D01*
X52525192Y-40771827D01*
X52405611Y-40464334D01*
X52312192Y-40103112D01*
X54925506Y-40103112D01*
X54953075Y-40333880D01*
X54977629Y-40377613D01*
X55176482Y-40433461D01*
X56406253Y-39742991D01*
X56152581Y-39291184D01*
X55953729Y-39235336D01*
X55334683Y-39582906D01*
X55132032Y-39696688D01*
X54988348Y-39879359D01*
X54925506Y-40103112D01*
X52312192Y-40103112D01*
X52057188Y-39117092D01*
X56462651Y-39117092D01*
X56716323Y-39568899D01*
X57946095Y-38878429D01*
X58001943Y-38679577D01*
X57977388Y-38635844D01*
X57794716Y-38492160D01*
X57570963Y-38429319D01*
X57340195Y-38456888D01*
X57137544Y-38570669D01*
X56518498Y-38918239D01*
X56462651Y-39117092D01*
X52057188Y-39117092D01*
X51963556Y-38755050D01*
X51697701Y-36913760D01*
X51642287Y-35682327D01*
X54131733Y-35682327D01*
X54204442Y-35858296D01*
X54338957Y-35993045D01*
X54514799Y-36066061D01*
X54705198Y-36066228D01*
X54881167Y-35993519D01*
X54970458Y-35904384D01*
X56676329Y-36058858D01*
X56762135Y-36050623D01*
X56844138Y-36007778D01*
X56903011Y-35936405D01*
X56929477Y-35847750D01*
X56953550Y-35581916D01*
X56970404Y-35583442D01*
X57056210Y-35575207D01*
X57138213Y-35532362D01*
X57197086Y-35460989D01*
X57223552Y-35372334D01*
X57295700Y-34575594D01*
X57287465Y-34489788D01*
X57260119Y-34437450D01*
X57410707Y-34390473D01*
X57589197Y-34241626D01*
X57697138Y-34035804D01*
X57701662Y-33985853D01*
X57569378Y-33827227D01*
X56164776Y-33700034D01*
X56157561Y-33779708D01*
X55803410Y-33747638D01*
X55810625Y-33667964D01*
X54406022Y-33540771D01*
X54247395Y-33673054D01*
X54242872Y-33723005D01*
X54312084Y-33944869D01*
X54460933Y-34123358D01*
X54600874Y-34196749D01*
X54567282Y-34237473D01*
X54540816Y-34326128D01*
X54468668Y-35122868D01*
X54469166Y-35128062D01*
X54339665Y-35181571D01*
X54204916Y-35316086D01*
X54131900Y-35491928D01*
X54131733Y-35682327D01*
X51642287Y-35682327D01*
X51608882Y-34940000D01*
X51671850Y-33540686D01*
X56179205Y-33540686D01*
X57583808Y-33667879D01*
X57742435Y-33535596D01*
X57746958Y-33485645D01*
X57677746Y-33263781D01*
X57528897Y-33085292D01*
X57323075Y-32977351D01*
X57091613Y-32956391D01*
X56384561Y-32892364D01*
X56225935Y-33024647D01*
X56179205Y-33540686D01*
X51671850Y-33540686D01*
X51686155Y-33222797D01*
X54288168Y-33222797D01*
X54420452Y-33381423D01*
X55825054Y-33508616D01*
X55871784Y-32992578D01*
X55739501Y-32833951D01*
X55032449Y-32769924D01*
X54800987Y-32748965D01*
X54579123Y-32818177D01*
X54400633Y-32967024D01*
X54292692Y-33172846D01*
X54288168Y-33222797D01*
X51686155Y-33222797D01*
X51697701Y-32966240D01*
X51963556Y-31124950D01*
X52405611Y-29415666D01*
X52474009Y-29239784D01*
X55285703Y-29239784D01*
X55358412Y-29415753D01*
X55492927Y-29550502D01*
X55668769Y-29623518D01*
X55859168Y-29623685D01*
X55962607Y-29580945D01*
X57456909Y-30419953D01*
X57538579Y-30447528D01*
X57630933Y-30441965D01*
X57713846Y-30400909D01*
X57774253Y-30330830D01*
X57904934Y-30098083D01*
X57919689Y-30106368D01*
X58001359Y-30133944D01*
X58093713Y-30128380D01*
X58176626Y-30087324D01*
X58237033Y-30017244D01*
X58628697Y-29319678D01*
X58656273Y-29238007D01*
X58652722Y-29179063D01*
X58809354Y-29197776D01*
X59033107Y-29134937D01*
X59215780Y-28991255D01*
X59240335Y-28947522D01*
X59184488Y-28748669D01*
X57954722Y-28058190D01*
X57915555Y-28127947D01*
X57605487Y-27953852D01*
X57625236Y-27918677D01*
X58033055Y-27918677D01*
X59262821Y-28609156D01*
X59461674Y-28553310D01*
X59486229Y-28509576D01*
X59513799Y-28278809D01*
X59450959Y-28055056D01*
X59307277Y-27872383D01*
X59104626Y-27758600D01*
X58485583Y-27411025D01*
X58286731Y-27466871D01*
X58033055Y-27918677D01*
X57625236Y-27918677D01*
X57644653Y-27884095D01*
X56414887Y-27193616D01*
X56216034Y-27249462D01*
X56191479Y-27293196D01*
X56163909Y-27523963D01*
X56226749Y-27747716D01*
X56324441Y-27871918D01*
X56277132Y-27895344D01*
X56216725Y-27965424D01*
X55825061Y-28662990D01*
X55823891Y-28666454D01*
X55669604Y-28666319D01*
X55493635Y-28739028D01*
X55358886Y-28873543D01*
X55285870Y-29049385D01*
X55285703Y-29239784D01*
X52474009Y-29239784D01*
X53021606Y-27831681D01*
X53593759Y-26855250D01*
X56437373Y-26855250D01*
X56493220Y-27054103D01*
X57722986Y-27744582D01*
X57976662Y-27292777D01*
X57920816Y-27093924D01*
X57301773Y-26746349D01*
X57099122Y-26632566D01*
X56868354Y-26604996D01*
X56644601Y-26667835D01*
X56461928Y-26811517D01*
X56437373Y-26855250D01*
X53593759Y-26855250D01*
X54669605Y-25019226D01*
X55400884Y-24119753D01*
X59280450Y-24119753D01*
X59353159Y-24295722D01*
X59487674Y-24430471D01*
X59663516Y-24503487D01*
X59770046Y-24503580D01*
X60814744Y-25862310D01*
X60879017Y-25919752D01*
X60966132Y-25950915D01*
X61058507Y-25945731D01*
X61141588Y-25905016D01*
X61353193Y-25742318D01*
X61363507Y-25755732D01*
X61427780Y-25813174D01*
X61514895Y-25844337D01*
X61607271Y-25839153D01*
X61690351Y-25798438D01*
X62324558Y-25310809D01*
X62382000Y-25246536D01*
X62401890Y-25190935D01*
X62538580Y-25269675D01*
X62769031Y-25299786D01*
X62993462Y-25239415D01*
X63033222Y-25208844D01*
X63059982Y-25004039D01*
X62200324Y-23885971D01*
X62136903Y-23934734D01*
X61920152Y-23652829D01*
X61983573Y-23604066D01*
X61981179Y-23600952D01*
X62257108Y-23654919D01*
X62582387Y-23589131D01*
X62595055Y-23582471D01*
X62327165Y-23788446D01*
X63186824Y-24906513D01*
X63391629Y-24933273D01*
X63431389Y-24902701D01*
X63547398Y-24701316D01*
X63577507Y-24470865D01*
X63517136Y-24246434D01*
X63375475Y-24062190D01*
X62942738Y-23499375D01*
X62737933Y-23472615D01*
X62713681Y-23491262D01*
X62707336Y-23343954D01*
X62521379Y-23189200D01*
X62547942Y-22985905D01*
X62395975Y-22788257D01*
X62430419Y-22788257D01*
X62867254Y-23151791D01*
X63041219Y-23127345D01*
X63104919Y-22801650D01*
X63039131Y-22476371D01*
X62969466Y-22343862D01*
X62793954Y-22351422D01*
X62430419Y-22788257D01*
X62395975Y-22788257D01*
X62256324Y-22606629D01*
X62601791Y-22191504D01*
X62577345Y-22017539D01*
X62251650Y-21953839D01*
X61926371Y-22019627D01*
X61793862Y-22089292D01*
X61794002Y-22092552D01*
X61779735Y-22078285D01*
X61739456Y-22118564D01*
X61541707Y-22092726D01*
X61317276Y-22153097D01*
X61277516Y-22183668D01*
X61250756Y-22388473D01*
X61438069Y-22632092D01*
X61403839Y-22807108D01*
X61415629Y-22865402D01*
X61123914Y-22485999D01*
X60919109Y-22459239D01*
X60879349Y-22489811D01*
X60763340Y-22691196D01*
X60733231Y-22921647D01*
X60774278Y-23074241D01*
X60721569Y-23077199D01*
X60638489Y-23117914D01*
X60004282Y-23605543D01*
X60002324Y-23607733D01*
X59854750Y-23546455D01*
X59664351Y-23546288D01*
X59488382Y-23618997D01*
X59353633Y-23753512D01*
X59280617Y-23929354D01*
X59280450Y-24119753D01*
X55400884Y-24119753D01*
X55646347Y-23817834D01*
X56750200Y-22733518D01*
X58566593Y-21421678D01*
X65429124Y-21421678D01*
X65501833Y-21597647D01*
X65636348Y-21732396D01*
X65662648Y-21743317D01*
X65822633Y-23444177D01*
X65846437Y-23527026D01*
X65903569Y-23599800D01*
X65984513Y-23644613D01*
X66076514Y-23654404D01*
X66342263Y-23629407D01*
X66343848Y-23646254D01*
X66367651Y-23729103D01*
X66424784Y-23801877D01*
X66505728Y-23846690D01*
X66597729Y-23856481D01*
X67394213Y-23781563D01*
X67477062Y-23757759D01*
X67523509Y-23721295D01*
X67597259Y-23860740D01*
X67776265Y-24008967D01*
X67998368Y-24077407D01*
X68048302Y-24072710D01*
X68180033Y-23913625D01*
X68047957Y-22509472D01*
X67968309Y-22516964D01*
X67966195Y-22494489D01*
X68207254Y-22494489D01*
X68339330Y-23898641D01*
X68498416Y-24030372D01*
X68548350Y-24025675D01*
X68753796Y-23917019D01*
X68902022Y-23738012D01*
X68912565Y-23703797D01*
X71369366Y-23703797D01*
X71383942Y-23795163D01*
X71432917Y-23873659D01*
X71508573Y-23926917D01*
X71752991Y-24034187D01*
X71746190Y-24049683D01*
X71726742Y-24133660D01*
X71741318Y-24225026D01*
X71790293Y-24303522D01*
X71865949Y-24356780D01*
X72598502Y-24678284D01*
X72682479Y-24697732D01*
X72740793Y-24688429D01*
X72737501Y-24846140D01*
X72821940Y-25062668D01*
X72982812Y-25230400D01*
X73028739Y-25250556D01*
X73056282Y-25239815D01*
X73367681Y-25239815D01*
X73442723Y-25432246D01*
X73488650Y-25452403D01*
X73721008Y-25457253D01*
X73937536Y-25372813D01*
X74105268Y-25211940D01*
X74198668Y-24999125D01*
X74483981Y-24349034D01*
X74408939Y-24156603D01*
X73934473Y-23948368D01*
X73367681Y-25239815D01*
X73056282Y-25239815D01*
X73221170Y-25175514D01*
X73787962Y-23884068D01*
X73714707Y-23851917D01*
X73815284Y-23622748D01*
X74077382Y-23622748D01*
X74551848Y-23830983D01*
X74744279Y-23755940D01*
X75029592Y-23105849D01*
X75122993Y-22893034D01*
X75127843Y-22660676D01*
X75043404Y-22444148D01*
X74882532Y-22276416D01*
X74836605Y-22256260D01*
X74644174Y-22331302D01*
X74077382Y-23622748D01*
X73815284Y-23622748D01*
X73857615Y-23526297D01*
X73930871Y-23558448D01*
X74497663Y-22267001D01*
X74422621Y-22074570D01*
X74376694Y-22054413D01*
X74144336Y-22049563D01*
X73927808Y-22134003D01*
X73813765Y-22243382D01*
X73785821Y-22198594D01*
X73710165Y-22145336D01*
X72977612Y-21823832D01*
X72970565Y-21822200D01*
X72970658Y-21715847D01*
X72897949Y-21539878D01*
X72763434Y-21405129D01*
X72587592Y-21332113D01*
X72397193Y-21331946D01*
X72221224Y-21404655D01*
X72086475Y-21539170D01*
X72013459Y-21715012D01*
X72013292Y-21905411D01*
X72075335Y-22055567D01*
X71388814Y-23619820D01*
X71369366Y-23703797D01*
X68912565Y-23703797D01*
X68970462Y-23515909D01*
X68948697Y-23284521D01*
X68882212Y-22577696D01*
X68723127Y-22445965D01*
X68207254Y-22494489D01*
X67966195Y-22494489D01*
X67935007Y-22162927D01*
X68014656Y-22155435D01*
X67882580Y-20751283D01*
X67864485Y-20736299D01*
X68041877Y-20736299D01*
X68173953Y-22140452D01*
X68689826Y-22091928D01*
X68821557Y-21932842D01*
X68755072Y-21226017D01*
X68733307Y-20994630D01*
X68624651Y-20789184D01*
X68445645Y-20640957D01*
X68223542Y-20572517D01*
X68173608Y-20577214D01*
X68041877Y-20736299D01*
X67864485Y-20736299D01*
X67723494Y-20619552D01*
X67673560Y-20624249D01*
X67468114Y-20732905D01*
X67319888Y-20911912D01*
X67273355Y-21062923D01*
X67227170Y-21037354D01*
X67135169Y-21027563D01*
X66338685Y-21102481D01*
X66333538Y-21103960D01*
X66313781Y-21056145D01*
X66179266Y-20921396D01*
X66003424Y-20848380D01*
X65813025Y-20848213D01*
X65637056Y-20920922D01*
X65502307Y-21055437D01*
X65429291Y-21231279D01*
X65429124Y-21421678D01*
X58566593Y-21421678D01*
X59231040Y-20941800D01*
X62014326Y-19663258D01*
X64967657Y-18885548D01*
X67971836Y-18629454D01*
X70430619Y-18806486D01*
X70430619Y-18806486D01*
G37*
X70430619Y-18806486D02*
X72911350Y-19338071D01*
X75290154Y-20232580D01*
X77466997Y-21497502D01*
X79376968Y-23162605D01*
X81002403Y-25238463D01*
X82226086Y-27754353D01*
X82857171Y-30401400D01*
X75235367Y-30401400D01*
X74816974Y-29402378D01*
X74804788Y-29384293D01*
X74797190Y-29363853D01*
X74723833Y-29244798D01*
X76613192Y-29244798D01*
X76640110Y-29287117D01*
X76830392Y-29420559D01*
X77057256Y-29471025D01*
X77286163Y-29430833D01*
X77482265Y-29306101D01*
X78081302Y-28925081D01*
X78126152Y-28723463D01*
X77848066Y-28286259D01*
X76658042Y-29043180D01*
X76613192Y-29244798D01*
X74723833Y-29244798D01*
X74187190Y-28373853D01*
X74171071Y-28356500D01*
X74159199Y-28336006D01*
X73429199Y-27506006D01*
X73408645Y-27490281D01*
X73391775Y-27470657D01*
X72574920Y-26830951D01*
X75812031Y-26830951D01*
X75845204Y-26917321D01*
X75988458Y-27142543D01*
X75974179Y-27151625D01*
X75911254Y-27210539D01*
X75872474Y-27294541D01*
X75869431Y-27387012D01*
X75902604Y-27473382D01*
X76331956Y-28148406D01*
X76390871Y-28211331D01*
X76444484Y-28236082D01*
X76353911Y-28365234D01*
X76303444Y-28592098D01*
X76343636Y-28821005D01*
X76370554Y-28863325D01*
X76572172Y-28908175D01*
X77762196Y-28151254D01*
X77726678Y-28095412D01*
X78148114Y-28095412D01*
X78426200Y-28532616D01*
X78627818Y-28577466D01*
X79226855Y-28196446D01*
X79422957Y-28071714D01*
X79556399Y-27881432D01*
X79606866Y-27654568D01*
X79566674Y-27425661D01*
X79539756Y-27383341D01*
X79338138Y-27338491D01*
X78148114Y-28095412D01*
X77726678Y-28095412D01*
X77719261Y-28083752D01*
X78019309Y-27892905D01*
X78062244Y-27960407D01*
X79252268Y-27203486D01*
X79297118Y-27001868D01*
X79270200Y-26959549D01*
X79079918Y-26826107D01*
X78853054Y-26775641D01*
X78697417Y-26802968D01*
X78699153Y-26750206D01*
X78665980Y-26663836D01*
X78236628Y-25988812D01*
X78236392Y-25988559D01*
X78246141Y-25978827D01*
X78319157Y-25802985D01*
X78319324Y-25612586D01*
X78246615Y-25436617D01*
X78112100Y-25301868D01*
X77936258Y-25228852D01*
X77745859Y-25228685D01*
X77569890Y-25301394D01*
X77435141Y-25435909D01*
X77362125Y-25611751D01*
X77362068Y-25676280D01*
X75916779Y-26595564D01*
X75853854Y-26654479D01*
X75815074Y-26738480D01*
X75812031Y-26830951D01*
X72574920Y-26830951D01*
X72561775Y-26820657D01*
X72539855Y-26809577D01*
X72520835Y-26794032D01*
X71580834Y-26294032D01*
X71558056Y-26287173D01*
X71537352Y-26275448D01*
X70477352Y-25925448D01*
X70449108Y-25921969D01*
X70422021Y-25913246D01*
X68002021Y-25633246D01*
X67973224Y-25635588D01*
X67944489Y-25632570D01*
X66204489Y-25792570D01*
X66177266Y-25800636D01*
X66149017Y-25803430D01*
X64569017Y-26283430D01*
X64541723Y-26298033D01*
X64512339Y-26307786D01*
X63122339Y-27097786D01*
X63097815Y-27119000D01*
X63070222Y-27136033D01*
X61920222Y-28206033D01*
X61903252Y-28229551D01*
X61882250Y-28249539D01*
X60952249Y-29569539D01*
X60941503Y-29593770D01*
X60926092Y-29615332D01*
X60226092Y-31165332D01*
X60220302Y-31190303D01*
X60209448Y-31213522D01*
X59779448Y-32963521D01*
X59778401Y-32986988D01*
X59772145Y-33009634D01*
X59632145Y-34919634D01*
X59634772Y-34940855D01*
X59632277Y-34962092D01*
X59772277Y-36722091D01*
X59778856Y-36745342D01*
X59780200Y-36769469D01*
X60210200Y-38439469D01*
X60221090Y-38462108D01*
X60226945Y-38486538D01*
X60926945Y-40006539D01*
X60941630Y-40026767D01*
X60951681Y-40049651D01*
X61881682Y-41379652D01*
X61901594Y-41398738D01*
X61917425Y-41421328D01*
X63067425Y-42521328D01*
X63091302Y-42536526D01*
X63111878Y-42555962D01*
X64481878Y-43415962D01*
X64510558Y-43426895D01*
X64536929Y-43442594D01*
X66116928Y-44002594D01*
X66149087Y-44007266D01*
X66180098Y-44016991D01*
X67940098Y-44206991D01*
X67964946Y-44204778D01*
X67989694Y-44207903D01*
X68787564Y-44151361D01*
X76566409Y-44151361D01*
X76616742Y-44351680D01*
X77225949Y-44716220D01*
X77425380Y-44835556D01*
X77655298Y-44869490D01*
X77880702Y-44812855D01*
X78067273Y-44674273D01*
X78093027Y-44631235D01*
X78042694Y-44430915D01*
X76832467Y-43706734D01*
X76566409Y-44151361D01*
X68787564Y-44151361D01*
X69259694Y-44117903D01*
X69276850Y-44113209D01*
X69294638Y-44113190D01*
X70494638Y-43873190D01*
X70513865Y-43865202D01*
X70534451Y-43862101D01*
X71644451Y-43462101D01*
X71664093Y-43450268D01*
X71685907Y-43443202D01*
X72258450Y-43123251D01*
X75057092Y-43123251D01*
X75113728Y-43348654D01*
X75252311Y-43535226D01*
X75451742Y-43654562D01*
X76060948Y-44019102D01*
X76261267Y-43968769D01*
X76527325Y-43524142D01*
X75317098Y-42799961D01*
X75116779Y-42850294D01*
X75091026Y-42893332D01*
X75057092Y-43123251D01*
X72258450Y-43123251D01*
X72705907Y-42873202D01*
X72723649Y-42858077D01*
X72744331Y-42847317D01*
X73224227Y-42462345D01*
X75348921Y-42462345D01*
X75399254Y-42662665D01*
X76609481Y-43386846D01*
X76650560Y-43318197D01*
X76955701Y-43500789D01*
X76914623Y-43569438D01*
X78124850Y-44293619D01*
X78325169Y-44243286D01*
X78350922Y-44200248D01*
X78384856Y-43970329D01*
X78328220Y-43744926D01*
X78233996Y-43618074D01*
X78281933Y-43595963D01*
X78344253Y-43527579D01*
X78755034Y-42841096D01*
X78755630Y-42839479D01*
X78923780Y-42839626D01*
X79099749Y-42766917D01*
X79234498Y-42632402D01*
X79307514Y-42456560D01*
X79307681Y-42266161D01*
X79234972Y-42090192D01*
X79100457Y-41955443D01*
X78924615Y-41882427D01*
X78734216Y-41882260D01*
X78643192Y-41919871D01*
X77172333Y-41039733D01*
X77091455Y-41009912D01*
X76998983Y-41012923D01*
X76914968Y-41051674D01*
X76852648Y-41120058D01*
X76715590Y-41349105D01*
X76701070Y-41340416D01*
X76620192Y-41310595D01*
X76527720Y-41313606D01*
X76443705Y-41352357D01*
X76381385Y-41420741D01*
X75970604Y-42107224D01*
X75940783Y-42188102D01*
X75942705Y-42247122D01*
X75786650Y-42224090D01*
X75561246Y-42280725D01*
X75374675Y-42419307D01*
X75348921Y-42462345D01*
X73224227Y-42462345D01*
X73654331Y-42117317D01*
X73673472Y-42094517D01*
X73696372Y-42075502D01*
X74426373Y-41175502D01*
X74438423Y-41152643D01*
X74454931Y-41132766D01*
X75034931Y-40062766D01*
X75042573Y-40038094D01*
X75055146Y-40015531D01*
X75392866Y-38968600D01*
X83000198Y-38968600D01*
X82354960Y-41779363D01*
X81139491Y-44406346D01*
X80707120Y-44982840D01*
X80692015Y-45014337D01*
X80672607Y-45043384D01*
X80668724Y-45062908D01*
X80660116Y-45080857D01*
X80658215Y-45115739D01*
X80651400Y-45150000D01*
X80655283Y-45169523D01*
X80654200Y-45189400D01*
X80665792Y-45222355D01*
X80672607Y-45256616D01*
X80683665Y-45273166D01*
X80690271Y-45291945D01*
X80713593Y-45317956D01*
X80733000Y-45347000D01*
X80749551Y-45358059D01*
X80762840Y-45372880D01*
X80794337Y-45387985D01*
X80823384Y-45407393D01*
X80842908Y-45411276D01*
X80860857Y-45419884D01*
X80895739Y-45421785D01*
X80930000Y-45428600D01*
X87771400Y-45428600D01*
X87771400Y-45466494D01*
X87735030Y-45459129D01*
X83735030Y-45459129D01*
X83650316Y-45475069D01*
X83572512Y-45525135D01*
X83520315Y-45601527D01*
X83501952Y-45692207D01*
X83501952Y-46692207D01*
X83517892Y-46776921D01*
X83567958Y-46854725D01*
X83644350Y-46906922D01*
X83735030Y-46925285D01*
X87735030Y-46925285D01*
X87771400Y-46918442D01*
X87771400Y-47108007D01*
X86058880Y-47108007D01*
X85912830Y-47254057D01*
X85912830Y-48014407D01*
X85932830Y-48014407D01*
X85932830Y-48370007D01*
X85912830Y-48370007D01*
X85912830Y-49130357D01*
X86058880Y-49276407D01*
X87771400Y-49276407D01*
X87771400Y-49466494D01*
X87735030Y-49459129D01*
X83735030Y-49459129D01*
X83650316Y-49475069D01*
X83572512Y-49525135D01*
X83520315Y-49601527D01*
X83501952Y-49692207D01*
X83501952Y-50692207D01*
X83517892Y-50776921D01*
X83567958Y-50854725D01*
X83592362Y-50871400D01*
X71240000Y-50871400D01*
X71210692Y-50877230D01*
X71180817Y-50877759D01*
X70510508Y-51023478D01*
X67972151Y-51200573D01*
X64971342Y-50944766D01*
X64758008Y-50882544D01*
X64718699Y-50879098D01*
X64680000Y-50871400D01*
X51164518Y-50871400D01*
X51183354Y-50859279D01*
X51235551Y-50782887D01*
X51253914Y-50692207D01*
X51253914Y-49692207D01*
X51237974Y-49607493D01*
X51187908Y-49529689D01*
X51111516Y-49477492D01*
X51020836Y-49459129D01*
X47020836Y-49459129D01*
X46936122Y-49475069D01*
X46908600Y-49492779D01*
X46908600Y-49276407D01*
X48696986Y-49276407D01*
X48843036Y-49130357D01*
X48843036Y-48370007D01*
X48823036Y-48370007D01*
X48823036Y-48130540D01*
X49121424Y-48130540D01*
X49166289Y-48479424D01*
X49198636Y-48557517D01*
X49198636Y-49130357D01*
X49344686Y-49276407D01*
X51137040Y-49276407D01*
X51351758Y-49187468D01*
X51516097Y-49023130D01*
X51605036Y-48808412D01*
X51605036Y-48516057D01*
X51513669Y-48424690D01*
X64752301Y-48424690D01*
X64821293Y-48646623D01*
X64969963Y-48825260D01*
X65175678Y-48933406D01*
X65225624Y-48937978D01*
X65366853Y-48820440D01*
X65543715Y-48820440D01*
X65675841Y-48979198D01*
X65725787Y-48983771D01*
X65947719Y-48914779D01*
X66126356Y-48766107D01*
X66199885Y-48626238D01*
X66240577Y-48659871D01*
X66329205Y-48686425D01*
X67125873Y-48759364D01*
X67131021Y-48758875D01*
X67184717Y-48888828D01*
X67319232Y-49023577D01*
X67495074Y-49096593D01*
X67685473Y-49096760D01*
X67861442Y-49024051D01*
X67996191Y-48889536D01*
X68069207Y-48713694D01*
X68069374Y-48523295D01*
X67996665Y-48347326D01*
X67907884Y-48258390D01*
X67968023Y-47601519D01*
X71181040Y-47601519D01*
X71485121Y-48243046D01*
X71584665Y-48453057D01*
X71757000Y-48608989D01*
X71975890Y-48687102D01*
X72208009Y-48675503D01*
X72253331Y-48654020D01*
X72322750Y-48459490D01*
X71718675Y-47185057D01*
X71250460Y-47406988D01*
X71181040Y-47601519D01*
X67968023Y-47601519D01*
X68064054Y-46552632D01*
X68055904Y-46466818D01*
X68013141Y-46384773D01*
X67941826Y-46325829D01*
X67853198Y-46299275D01*
X67587386Y-46274939D01*
X67588929Y-46258086D01*
X67580779Y-46172272D01*
X67538016Y-46090227D01*
X67466701Y-46031283D01*
X67378073Y-46004729D01*
X66590034Y-45932580D01*
X70488396Y-45932580D01*
X70499995Y-46164700D01*
X70599540Y-46374711D01*
X70903620Y-47016238D01*
X71098151Y-47085658D01*
X71566366Y-46863726D01*
X70962291Y-45589293D01*
X70770252Y-45520762D01*
X71106872Y-45520762D01*
X71710947Y-46795195D01*
X71783237Y-46760930D01*
X71935546Y-47082261D01*
X71863256Y-47116526D01*
X72467331Y-48390959D01*
X72661862Y-48460379D01*
X72707183Y-48438897D01*
X72863115Y-48266562D01*
X72941226Y-48047672D01*
X72933340Y-47889851D01*
X72985482Y-47898093D01*
X73075289Y-47875847D01*
X73798193Y-47533194D01*
X73803708Y-47529185D01*
X73854952Y-47580518D01*
X74030794Y-47653534D01*
X74221193Y-47653701D01*
X74397162Y-47580992D01*
X74402160Y-47576002D01*
X83150830Y-47576002D01*
X83150830Y-47868357D01*
X83296880Y-48014407D01*
X83867110Y-48014407D01*
X83835618Y-48130540D01*
X83866412Y-48370007D01*
X83296880Y-48370007D01*
X83150830Y-48516057D01*
X83150830Y-48808412D01*
X83239769Y-49023130D01*
X83404108Y-49187468D01*
X83618826Y-49276407D01*
X85411180Y-49276407D01*
X85557230Y-49130357D01*
X85557230Y-48538605D01*
X85634442Y-48253874D01*
X85589577Y-47904990D01*
X85557230Y-47826897D01*
X85557230Y-47254057D01*
X85411180Y-47108007D01*
X83618826Y-47108007D01*
X83404108Y-47196946D01*
X83239769Y-47361284D01*
X83150830Y-47576002D01*
X74402160Y-47576002D01*
X74531911Y-47446477D01*
X74604927Y-47270635D01*
X74605094Y-47080236D01*
X74532385Y-46904267D01*
X74397870Y-46769518D01*
X74222028Y-46696502D01*
X74212860Y-46696494D01*
X73482745Y-45156150D01*
X73432057Y-45086427D01*
X73353491Y-45037565D01*
X73262105Y-45023119D01*
X73172298Y-45045365D01*
X72931100Y-45159692D01*
X72923852Y-45144400D01*
X72873164Y-45074677D01*
X72794598Y-45025815D01*
X72703212Y-45011369D01*
X72613405Y-45033615D01*
X71890501Y-45376268D01*
X71820778Y-45426956D01*
X71789592Y-45477100D01*
X71672622Y-45371263D01*
X71453732Y-45293150D01*
X71221613Y-45304749D01*
X71176291Y-45326232D01*
X71106872Y-45520762D01*
X70770252Y-45520762D01*
X70767760Y-45519873D01*
X70722439Y-45541355D01*
X70566507Y-45713690D01*
X70488396Y-45932580D01*
X66590034Y-45932580D01*
X66581405Y-45931790D01*
X66495590Y-45939940D01*
X66443225Y-45967234D01*
X66396397Y-45816599D01*
X66247727Y-45637962D01*
X66042012Y-45529816D01*
X65992066Y-45525244D01*
X65833309Y-45657369D01*
X65704722Y-47061845D01*
X65784389Y-47069139D01*
X65751968Y-47423258D01*
X65672301Y-47415964D01*
X65543715Y-48820440D01*
X65366853Y-48820440D01*
X65384381Y-48805853D01*
X65512968Y-47401377D01*
X64996976Y-47354135D01*
X64838218Y-47486261D01*
X64773490Y-48193249D01*
X64752301Y-48424690D01*
X51513669Y-48424690D01*
X51458986Y-48370007D01*
X50888756Y-48370007D01*
X50920248Y-48253874D01*
X50889454Y-48014407D01*
X51458986Y-48014407D01*
X51605036Y-47868357D01*
X51605036Y-47576002D01*
X51516097Y-47361284D01*
X51351758Y-47196946D01*
X51137040Y-47108007D01*
X49344686Y-47108007D01*
X49198636Y-47254057D01*
X49198636Y-47845809D01*
X49121424Y-48130540D01*
X48823036Y-48130540D01*
X48823036Y-48014407D01*
X48843036Y-48014407D01*
X48843036Y-47254057D01*
X48696986Y-47108007D01*
X46908600Y-47108007D01*
X46908600Y-46892193D01*
X46930156Y-46906922D01*
X47020836Y-46925285D01*
X51020836Y-46925285D01*
X51105550Y-46909345D01*
X51183354Y-46859279D01*
X51235551Y-46782887D01*
X51253914Y-46692207D01*
X51253914Y-45899909D01*
X59244268Y-45899909D01*
X59271418Y-46104663D01*
X59311237Y-46135158D01*
X59535783Y-46195101D01*
X59766176Y-46164550D01*
X59902950Y-46085414D01*
X59919447Y-46135561D01*
X59980275Y-46205275D01*
X60615411Y-46691692D01*
X60618402Y-46693202D01*
X60605474Y-46724336D01*
X60605307Y-46914735D01*
X60678016Y-47090704D01*
X60812531Y-47225453D01*
X60988373Y-47298469D01*
X61178772Y-47298636D01*
X61354741Y-47225927D01*
X61489490Y-47091412D01*
X61562506Y-46915570D01*
X61562571Y-46841259D01*
X64897271Y-46841259D01*
X65029397Y-47000016D01*
X65545389Y-47047258D01*
X65673975Y-45642782D01*
X65541849Y-45484024D01*
X65491903Y-45479451D01*
X65269971Y-45548443D01*
X65091334Y-45697115D01*
X64983189Y-45902830D01*
X64961999Y-46134271D01*
X64897271Y-46841259D01*
X61562571Y-46841259D01*
X61562673Y-46725171D01*
X61545313Y-46683156D01*
X62585577Y-45324838D01*
X62624430Y-45247890D01*
X62631989Y-45155679D01*
X62603076Y-45067791D01*
X62542248Y-44998077D01*
X62330332Y-44835782D01*
X62340622Y-44822346D01*
X62379475Y-44745398D01*
X62387034Y-44653187D01*
X62358121Y-44565299D01*
X62297293Y-44495585D01*
X61662157Y-44009168D01*
X61585210Y-43970315D01*
X61526356Y-43965491D01*
X61567042Y-43813082D01*
X61536492Y-43582689D01*
X61420100Y-43381525D01*
X61380281Y-43351030D01*
X61175527Y-43378180D01*
X60318004Y-44497886D01*
X60381518Y-44546528D01*
X60165305Y-44828846D01*
X60101791Y-44780204D01*
X59244268Y-45899909D01*
X51253914Y-45899909D01*
X51253914Y-45692207D01*
X51237974Y-45607493D01*
X51187908Y-45529689D01*
X51111516Y-45477492D01*
X51020836Y-45459129D01*
X47020836Y-45459129D01*
X46936122Y-45475069D01*
X46908600Y-45492779D01*
X46908600Y-45428600D01*
X54560000Y-45428600D01*
X54603012Y-45420044D01*
X54646560Y-45414812D01*
X54655997Y-45409505D01*
X54666616Y-45407393D01*
X54703083Y-45383027D01*
X54730294Y-45367724D01*
X58725726Y-45367724D01*
X58756276Y-45598117D01*
X58872668Y-45799281D01*
X58912487Y-45829776D01*
X59117241Y-45802626D01*
X59974764Y-44682920D01*
X59563394Y-44367874D01*
X59358641Y-44395024D01*
X58926979Y-44958664D01*
X58785669Y-45143178D01*
X58725726Y-45367724D01*
X54730294Y-45367724D01*
X54741311Y-45361529D01*
X54747999Y-45353014D01*
X54757000Y-45347000D01*
X54781364Y-45310536D01*
X54808458Y-45276043D01*
X54811378Y-45265617D01*
X54817393Y-45256616D01*
X54825948Y-45213606D01*
X54837780Y-45171368D01*
X54836488Y-45160617D01*
X54838600Y-45150000D01*
X54830044Y-45106988D01*
X54824812Y-45063440D01*
X54819505Y-45054003D01*
X54817393Y-45043384D01*
X54793024Y-45006914D01*
X54771529Y-44968690D01*
X54667624Y-44847468D01*
X54099198Y-43880802D01*
X59752456Y-43880802D01*
X59779607Y-44085556D01*
X60190977Y-44400602D01*
X61048500Y-43280897D01*
X61021350Y-43076143D01*
X60981531Y-43045648D01*
X60756985Y-42985705D01*
X60526592Y-43016256D01*
X60325428Y-43132648D01*
X60184118Y-43317162D01*
X59752456Y-43880802D01*
X54099198Y-43880802D01*
X53021526Y-42048116D01*
X52525192Y-40771827D01*
X55198965Y-40771827D01*
X55223520Y-40815560D01*
X55406192Y-40959244D01*
X55629945Y-41022085D01*
X55786846Y-41003341D01*
X55782216Y-41055929D01*
X55810599Y-41143989D01*
X56202258Y-41841558D01*
X56204897Y-41844706D01*
X56176703Y-41872851D01*
X56103687Y-42048693D01*
X56103520Y-42239092D01*
X56176229Y-42415061D01*
X56310744Y-42549810D01*
X56486586Y-42622826D01*
X56676985Y-42622993D01*
X56852954Y-42550284D01*
X56987703Y-42415769D01*
X57060719Y-42239927D01*
X57060754Y-42200268D01*
X58551911Y-41363039D01*
X58617974Y-41307667D01*
X58661306Y-41225920D01*
X58669420Y-41133756D01*
X58641037Y-41045695D01*
X58510360Y-40812950D01*
X58525115Y-40804665D01*
X58591178Y-40749292D01*
X58634510Y-40667546D01*
X58642624Y-40575381D01*
X58614241Y-40487321D01*
X58222582Y-39789752D01*
X58167209Y-39723689D01*
X58115035Y-39696032D01*
X58212560Y-39572045D01*
X58275402Y-39348292D01*
X58247833Y-39117524D01*
X58223279Y-39073791D01*
X58024426Y-39017943D01*
X56794655Y-39708413D01*
X56833821Y-39778170D01*
X56523751Y-39952262D01*
X56484585Y-39882505D01*
X55254813Y-40572975D01*
X55198965Y-40771827D01*
X52525192Y-40771827D01*
X52405611Y-40464334D01*
X52312192Y-40103112D01*
X54925506Y-40103112D01*
X54953075Y-40333880D01*
X54977629Y-40377613D01*
X55176482Y-40433461D01*
X56406253Y-39742991D01*
X56152581Y-39291184D01*
X55953729Y-39235336D01*
X55334683Y-39582906D01*
X55132032Y-39696688D01*
X54988348Y-39879359D01*
X54925506Y-40103112D01*
X52312192Y-40103112D01*
X52057188Y-39117092D01*
X56462651Y-39117092D01*
X56716323Y-39568899D01*
X57946095Y-38878429D01*
X58001943Y-38679577D01*
X57977388Y-38635844D01*
X57794716Y-38492160D01*
X57570963Y-38429319D01*
X57340195Y-38456888D01*
X57137544Y-38570669D01*
X56518498Y-38918239D01*
X56462651Y-39117092D01*
X52057188Y-39117092D01*
X51963556Y-38755050D01*
X51697701Y-36913760D01*
X51642287Y-35682327D01*
X54131733Y-35682327D01*
X54204442Y-35858296D01*
X54338957Y-35993045D01*
X54514799Y-36066061D01*
X54705198Y-36066228D01*
X54881167Y-35993519D01*
X54970458Y-35904384D01*
X56676329Y-36058858D01*
X56762135Y-36050623D01*
X56844138Y-36007778D01*
X56903011Y-35936405D01*
X56929477Y-35847750D01*
X56953550Y-35581916D01*
X56970404Y-35583442D01*
X57056210Y-35575207D01*
X57138213Y-35532362D01*
X57197086Y-35460989D01*
X57223552Y-35372334D01*
X57295700Y-34575594D01*
X57287465Y-34489788D01*
X57260119Y-34437450D01*
X57410707Y-34390473D01*
X57589197Y-34241626D01*
X57697138Y-34035804D01*
X57701662Y-33985853D01*
X57569378Y-33827227D01*
X56164776Y-33700034D01*
X56157561Y-33779708D01*
X55803410Y-33747638D01*
X55810625Y-33667964D01*
X54406022Y-33540771D01*
X54247395Y-33673054D01*
X54242872Y-33723005D01*
X54312084Y-33944869D01*
X54460933Y-34123358D01*
X54600874Y-34196749D01*
X54567282Y-34237473D01*
X54540816Y-34326128D01*
X54468668Y-35122868D01*
X54469166Y-35128062D01*
X54339665Y-35181571D01*
X54204916Y-35316086D01*
X54131900Y-35491928D01*
X54131733Y-35682327D01*
X51642287Y-35682327D01*
X51608882Y-34940000D01*
X51671850Y-33540686D01*
X56179205Y-33540686D01*
X57583808Y-33667879D01*
X57742435Y-33535596D01*
X57746958Y-33485645D01*
X57677746Y-33263781D01*
X57528897Y-33085292D01*
X57323075Y-32977351D01*
X57091613Y-32956391D01*
X56384561Y-32892364D01*
X56225935Y-33024647D01*
X56179205Y-33540686D01*
X51671850Y-33540686D01*
X51686155Y-33222797D01*
X54288168Y-33222797D01*
X54420452Y-33381423D01*
X55825054Y-33508616D01*
X55871784Y-32992578D01*
X55739501Y-32833951D01*
X55032449Y-32769924D01*
X54800987Y-32748965D01*
X54579123Y-32818177D01*
X54400633Y-32967024D01*
X54292692Y-33172846D01*
X54288168Y-33222797D01*
X51686155Y-33222797D01*
X51697701Y-32966240D01*
X51963556Y-31124950D01*
X52405611Y-29415666D01*
X52474009Y-29239784D01*
X55285703Y-29239784D01*
X55358412Y-29415753D01*
X55492927Y-29550502D01*
X55668769Y-29623518D01*
X55859168Y-29623685D01*
X55962607Y-29580945D01*
X57456909Y-30419953D01*
X57538579Y-30447528D01*
X57630933Y-30441965D01*
X57713846Y-30400909D01*
X57774253Y-30330830D01*
X57904934Y-30098083D01*
X57919689Y-30106368D01*
X58001359Y-30133944D01*
X58093713Y-30128380D01*
X58176626Y-30087324D01*
X58237033Y-30017244D01*
X58628697Y-29319678D01*
X58656273Y-29238007D01*
X58652722Y-29179063D01*
X58809354Y-29197776D01*
X59033107Y-29134937D01*
X59215780Y-28991255D01*
X59240335Y-28947522D01*
X59184488Y-28748669D01*
X57954722Y-28058190D01*
X57915555Y-28127947D01*
X57605487Y-27953852D01*
X57625236Y-27918677D01*
X58033055Y-27918677D01*
X59262821Y-28609156D01*
X59461674Y-28553310D01*
X59486229Y-28509576D01*
X59513799Y-28278809D01*
X59450959Y-28055056D01*
X59307277Y-27872383D01*
X59104626Y-27758600D01*
X58485583Y-27411025D01*
X58286731Y-27466871D01*
X58033055Y-27918677D01*
X57625236Y-27918677D01*
X57644653Y-27884095D01*
X56414887Y-27193616D01*
X56216034Y-27249462D01*
X56191479Y-27293196D01*
X56163909Y-27523963D01*
X56226749Y-27747716D01*
X56324441Y-27871918D01*
X56277132Y-27895344D01*
X56216725Y-27965424D01*
X55825061Y-28662990D01*
X55823891Y-28666454D01*
X55669604Y-28666319D01*
X55493635Y-28739028D01*
X55358886Y-28873543D01*
X55285870Y-29049385D01*
X55285703Y-29239784D01*
X52474009Y-29239784D01*
X53021606Y-27831681D01*
X53593759Y-26855250D01*
X56437373Y-26855250D01*
X56493220Y-27054103D01*
X57722986Y-27744582D01*
X57976662Y-27292777D01*
X57920816Y-27093924D01*
X57301773Y-26746349D01*
X57099122Y-26632566D01*
X56868354Y-26604996D01*
X56644601Y-26667835D01*
X56461928Y-26811517D01*
X56437373Y-26855250D01*
X53593759Y-26855250D01*
X54669605Y-25019226D01*
X55400884Y-24119753D01*
X59280450Y-24119753D01*
X59353159Y-24295722D01*
X59487674Y-24430471D01*
X59663516Y-24503487D01*
X59770046Y-24503580D01*
X60814744Y-25862310D01*
X60879017Y-25919752D01*
X60966132Y-25950915D01*
X61058507Y-25945731D01*
X61141588Y-25905016D01*
X61353193Y-25742318D01*
X61363507Y-25755732D01*
X61427780Y-25813174D01*
X61514895Y-25844337D01*
X61607271Y-25839153D01*
X61690351Y-25798438D01*
X62324558Y-25310809D01*
X62382000Y-25246536D01*
X62401890Y-25190935D01*
X62538580Y-25269675D01*
X62769031Y-25299786D01*
X62993462Y-25239415D01*
X63033222Y-25208844D01*
X63059982Y-25004039D01*
X62200324Y-23885971D01*
X62136903Y-23934734D01*
X61920152Y-23652829D01*
X61983573Y-23604066D01*
X61981179Y-23600952D01*
X62257108Y-23654919D01*
X62582387Y-23589131D01*
X62595055Y-23582471D01*
X62327165Y-23788446D01*
X63186824Y-24906513D01*
X63391629Y-24933273D01*
X63431389Y-24902701D01*
X63547398Y-24701316D01*
X63577507Y-24470865D01*
X63517136Y-24246434D01*
X63375475Y-24062190D01*
X62942738Y-23499375D01*
X62737933Y-23472615D01*
X62713681Y-23491262D01*
X62707336Y-23343954D01*
X62521379Y-23189200D01*
X62547942Y-22985905D01*
X62395975Y-22788257D01*
X62430419Y-22788257D01*
X62867254Y-23151791D01*
X63041219Y-23127345D01*
X63104919Y-22801650D01*
X63039131Y-22476371D01*
X62969466Y-22343862D01*
X62793954Y-22351422D01*
X62430419Y-22788257D01*
X62395975Y-22788257D01*
X62256324Y-22606629D01*
X62601791Y-22191504D01*
X62577345Y-22017539D01*
X62251650Y-21953839D01*
X61926371Y-22019627D01*
X61793862Y-22089292D01*
X61794002Y-22092552D01*
X61779735Y-22078285D01*
X61739456Y-22118564D01*
X61541707Y-22092726D01*
X61317276Y-22153097D01*
X61277516Y-22183668D01*
X61250756Y-22388473D01*
X61438069Y-22632092D01*
X61403839Y-22807108D01*
X61415629Y-22865402D01*
X61123914Y-22485999D01*
X60919109Y-22459239D01*
X60879349Y-22489811D01*
X60763340Y-22691196D01*
X60733231Y-22921647D01*
X60774278Y-23074241D01*
X60721569Y-23077199D01*
X60638489Y-23117914D01*
X60004282Y-23605543D01*
X60002324Y-23607733D01*
X59854750Y-23546455D01*
X59664351Y-23546288D01*
X59488382Y-23618997D01*
X59353633Y-23753512D01*
X59280617Y-23929354D01*
X59280450Y-24119753D01*
X55400884Y-24119753D01*
X55646347Y-23817834D01*
X56750200Y-22733518D01*
X58566593Y-21421678D01*
X65429124Y-21421678D01*
X65501833Y-21597647D01*
X65636348Y-21732396D01*
X65662648Y-21743317D01*
X65822633Y-23444177D01*
X65846437Y-23527026D01*
X65903569Y-23599800D01*
X65984513Y-23644613D01*
X66076514Y-23654404D01*
X66342263Y-23629407D01*
X66343848Y-23646254D01*
X66367651Y-23729103D01*
X66424784Y-23801877D01*
X66505728Y-23846690D01*
X66597729Y-23856481D01*
X67394213Y-23781563D01*
X67477062Y-23757759D01*
X67523509Y-23721295D01*
X67597259Y-23860740D01*
X67776265Y-24008967D01*
X67998368Y-24077407D01*
X68048302Y-24072710D01*
X68180033Y-23913625D01*
X68047957Y-22509472D01*
X67968309Y-22516964D01*
X67966195Y-22494489D01*
X68207254Y-22494489D01*
X68339330Y-23898641D01*
X68498416Y-24030372D01*
X68548350Y-24025675D01*
X68753796Y-23917019D01*
X68902022Y-23738012D01*
X68912565Y-23703797D01*
X71369366Y-23703797D01*
X71383942Y-23795163D01*
X71432917Y-23873659D01*
X71508573Y-23926917D01*
X71752991Y-24034187D01*
X71746190Y-24049683D01*
X71726742Y-24133660D01*
X71741318Y-24225026D01*
X71790293Y-24303522D01*
X71865949Y-24356780D01*
X72598502Y-24678284D01*
X72682479Y-24697732D01*
X72740793Y-24688429D01*
X72737501Y-24846140D01*
X72821940Y-25062668D01*
X72982812Y-25230400D01*
X73028739Y-25250556D01*
X73056282Y-25239815D01*
X73367681Y-25239815D01*
X73442723Y-25432246D01*
X73488650Y-25452403D01*
X73721008Y-25457253D01*
X73937536Y-25372813D01*
X74105268Y-25211940D01*
X74198668Y-24999125D01*
X74483981Y-24349034D01*
X74408939Y-24156603D01*
X73934473Y-23948368D01*
X73367681Y-25239815D01*
X73056282Y-25239815D01*
X73221170Y-25175514D01*
X73787962Y-23884068D01*
X73714707Y-23851917D01*
X73815284Y-23622748D01*
X74077382Y-23622748D01*
X74551848Y-23830983D01*
X74744279Y-23755940D01*
X75029592Y-23105849D01*
X75122993Y-22893034D01*
X75127843Y-22660676D01*
X75043404Y-22444148D01*
X74882532Y-22276416D01*
X74836605Y-22256260D01*
X74644174Y-22331302D01*
X74077382Y-23622748D01*
X73815284Y-23622748D01*
X73857615Y-23526297D01*
X73930871Y-23558448D01*
X74497663Y-22267001D01*
X74422621Y-22074570D01*
X74376694Y-22054413D01*
X74144336Y-22049563D01*
X73927808Y-22134003D01*
X73813765Y-22243382D01*
X73785821Y-22198594D01*
X73710165Y-22145336D01*
X72977612Y-21823832D01*
X72970565Y-21822200D01*
X72970658Y-21715847D01*
X72897949Y-21539878D01*
X72763434Y-21405129D01*
X72587592Y-21332113D01*
X72397193Y-21331946D01*
X72221224Y-21404655D01*
X72086475Y-21539170D01*
X72013459Y-21715012D01*
X72013292Y-21905411D01*
X72075335Y-22055567D01*
X71388814Y-23619820D01*
X71369366Y-23703797D01*
X68912565Y-23703797D01*
X68970462Y-23515909D01*
X68948697Y-23284521D01*
X68882212Y-22577696D01*
X68723127Y-22445965D01*
X68207254Y-22494489D01*
X67966195Y-22494489D01*
X67935007Y-22162927D01*
X68014656Y-22155435D01*
X67882580Y-20751283D01*
X67864485Y-20736299D01*
X68041877Y-20736299D01*
X68173953Y-22140452D01*
X68689826Y-22091928D01*
X68821557Y-21932842D01*
X68755072Y-21226017D01*
X68733307Y-20994630D01*
X68624651Y-20789184D01*
X68445645Y-20640957D01*
X68223542Y-20572517D01*
X68173608Y-20577214D01*
X68041877Y-20736299D01*
X67864485Y-20736299D01*
X67723494Y-20619552D01*
X67673560Y-20624249D01*
X67468114Y-20732905D01*
X67319888Y-20911912D01*
X67273355Y-21062923D01*
X67227170Y-21037354D01*
X67135169Y-21027563D01*
X66338685Y-21102481D01*
X66333538Y-21103960D01*
X66313781Y-21056145D01*
X66179266Y-20921396D01*
X66003424Y-20848380D01*
X65813025Y-20848213D01*
X65637056Y-20920922D01*
X65502307Y-21055437D01*
X65429291Y-21231279D01*
X65429124Y-21421678D01*
X58566593Y-21421678D01*
X59231040Y-20941800D01*
X62014326Y-19663258D01*
X64967657Y-18885548D01*
X67971836Y-18629454D01*
X70430619Y-18806486D01*
G36*
X50266768Y-48158407D02*
X50232968Y-48192207D01*
X50266768Y-48226007D01*
X50122768Y-48370007D01*
X49918904Y-48370007D01*
X49774904Y-48226007D01*
X49808704Y-48192207D01*
X49774904Y-48158407D01*
X49918904Y-48014407D01*
X50122768Y-48014407D01*
X50266768Y-48158407D01*
X50266768Y-48158407D01*
G37*
X50266768Y-48158407D02*
X50232968Y-48192207D01*
X50266768Y-48226007D01*
X50122768Y-48370007D01*
X49918904Y-48370007D01*
X49774904Y-48226007D01*
X49808704Y-48192207D01*
X49774904Y-48158407D01*
X49918904Y-48014407D01*
X50122768Y-48014407D01*
X50266768Y-48158407D01*
G36*
X84980962Y-48158407D02*
X84947162Y-48192207D01*
X84980962Y-48226007D01*
X84836962Y-48370007D01*
X84633098Y-48370007D01*
X84489098Y-48226007D01*
X84522898Y-48192207D01*
X84489098Y-48158407D01*
X84633098Y-48014407D01*
X84836962Y-48014407D01*
X84980962Y-48158407D01*
X84980962Y-48158407D01*
G37*
X84980962Y-48158407D02*
X84947162Y-48192207D01*
X84980962Y-48226007D01*
X84836962Y-48370007D01*
X84633098Y-48370007D01*
X84489098Y-48226007D01*
X84522898Y-48192207D01*
X84489098Y-48158407D01*
X84633098Y-48014407D01*
X84836962Y-48014407D01*
X84980962Y-48158407D01*
M02*
