G04 #@! TF.FileFunction,Soldermask,Bot*
%FSLAX46Y46*%
G04 Gerber Fmt 4.6, Leading zero omitted, Abs format (unit mm)*
G04 Created by KiCad (PCBNEW 4.0.0-rc2-stable) date 3/3/2016 3:46:44 PM*
%MOMM*%
G01*
G04 APERTURE LIST*
%ADD10C,0.150000*%
%ADD11R,4.000000X1.000000*%
%ADD12C,0.600000*%
%ADD13C,0.500000*%
%ADD14R,0.760000X2.000000*%
%ADD15R,0.740000X2.000000*%
%ADD16R,0.900000X0.600000*%
%ADD17R,0.900000X0.200000*%
G04 APERTURE END LIST*
D10*
D11*
X79618640Y-50192200D03*
X79618640Y-48192200D03*
X79618640Y-46192200D03*
D12*
X78618640Y-50192200D03*
X78618640Y-48192200D03*
X78618640Y-46192200D03*
D11*
X49020840Y-46192200D03*
X49020840Y-48192200D03*
X49020840Y-50192200D03*
D12*
X50020840Y-46192200D03*
X50020840Y-48192200D03*
X50020840Y-50192200D03*
D10*
G36*
X52195150Y-34186239D02*
X54956665Y-33014046D01*
X55972566Y-35407359D01*
X53211051Y-36579552D01*
X52195150Y-34186239D01*
X52195150Y-34186239D01*
G37*
G36*
X71698590Y-25364345D02*
X74460105Y-24192152D01*
X75866736Y-27505969D01*
X73105221Y-28678162D01*
X71698590Y-25364345D01*
X71698590Y-25364345D01*
G37*
D13*
X75531623Y-25692768D03*
D14*
X61279578Y-49652025D03*
X62549578Y-49652025D03*
X63819578Y-49652025D03*
X65089578Y-49652025D03*
X61279578Y-46452025D03*
X62549578Y-46452025D03*
X63819578Y-46452025D03*
D15*
X65089578Y-46452025D03*
D16*
X60084578Y-45752025D03*
X60084578Y-47252025D03*
X58834578Y-47252025D03*
X58834578Y-45752025D03*
X57584578Y-45752025D03*
X57584578Y-47252025D03*
D17*
X60734578Y-47202025D03*
M02*
