G04 #@! TF.FileFunction,Copper,L1,Top,Signal*
%FSLAX46Y46*%
G04 Gerber Fmt 4.6, Leading zero omitted, Abs format (unit mm)*
G04 Created by KiCad (PCBNEW 4.0.0-rc2-stable) date 3/3/2016 3:46:15 PM*
%MOMM*%
G01*
G04 APERTURE LIST*
%ADD10C,0.150000*%
%ADD11R,0.500000X1.800000*%
%ADD12R,0.320000X2.300000*%
%ADD13R,0.800000X2.300000*%
%ADD14C,0.500000*%
%ADD15R,4.000000X1.000000*%
%ADD16C,0.600000*%
%ADD17C,0.254000*%
%ADD18C,0.152400*%
G04 APERTURE END LIST*
D10*
D11*
X56728285Y-45282310D03*
D12*
X54828285Y-45282310D03*
D13*
X56078285Y-45282310D03*
D14*
X56928285Y-46482310D03*
D11*
X56728285Y-38591890D03*
D12*
X54828285Y-38591890D03*
D13*
X56078285Y-38591890D03*
D14*
X56928285Y-39791890D03*
D11*
X56728285Y-31901470D03*
D12*
X54828285Y-31901470D03*
D13*
X56078285Y-31901470D03*
D14*
X56928285Y-33101470D03*
D10*
G36*
X56290609Y-28087532D02*
X54993241Y-26839800D01*
X55339833Y-26479420D01*
X56637201Y-27727152D01*
X56290609Y-28087532D01*
X56290609Y-28087532D01*
G37*
G36*
X57850236Y-26826516D02*
X56192488Y-25232191D01*
X56414308Y-25001548D01*
X58072056Y-26595873D01*
X57850236Y-26826516D01*
X57850236Y-26826516D01*
G37*
G36*
X56817391Y-27900448D02*
X55159643Y-26306124D01*
X55714191Y-25729516D01*
X57371939Y-27323840D01*
X56817391Y-27900448D01*
X56817391Y-27900448D01*
G37*
D14*
X54811672Y-26595806D03*
D10*
G36*
X61138312Y-32785191D02*
X59859535Y-31518413D01*
X60211418Y-31163197D01*
X61490195Y-32429975D01*
X61138312Y-32785191D01*
X61138312Y-32785191D01*
G37*
G36*
X62716414Y-31547373D02*
X61082421Y-29928711D01*
X61307626Y-29701373D01*
X62941619Y-31320035D01*
X62716414Y-31547373D01*
X62716414Y-31547373D01*
G37*
G36*
X61667802Y-32605917D02*
X60033809Y-30987255D01*
X60596822Y-30418909D01*
X62230815Y-32037571D01*
X61667802Y-32605917D01*
X61667802Y-32605917D01*
G37*
D14*
X59681593Y-31271761D03*
D10*
G36*
X65900461Y-37489757D02*
X64615040Y-36229720D01*
X64965051Y-35872659D01*
X66250472Y-37132696D01*
X65900461Y-37489757D01*
X65900461Y-37489757D01*
G37*
G36*
X67472034Y-36243658D02*
X65829552Y-34633611D01*
X66053558Y-34405092D01*
X67696040Y-36015139D01*
X67472034Y-36243658D01*
X67472034Y-36243658D01*
G37*
G36*
X66429003Y-37307702D02*
X64786521Y-35697654D01*
X65346537Y-35126356D01*
X66989019Y-36736404D01*
X66429003Y-37307702D01*
X66429003Y-37307702D01*
G37*
D14*
X64435805Y-35984008D03*
D10*
G36*
X70713995Y-42194898D02*
X69422329Y-40941264D01*
X69770561Y-40582468D01*
X71062227Y-41836102D01*
X70713995Y-42194898D01*
X70713995Y-42194898D01*
G37*
G36*
X72279355Y-40941006D02*
X70628893Y-39339140D01*
X70851761Y-39109510D01*
X72502223Y-40711376D01*
X72279355Y-40941006D01*
X72279355Y-40941006D01*
G37*
G36*
X71241625Y-42010218D02*
X69591162Y-40408352D01*
X70148333Y-39834278D01*
X71798796Y-41436144D01*
X71241625Y-42010218D01*
X71241625Y-42010218D01*
G37*
D14*
X69241874Y-40696446D03*
D11*
X76140585Y-43786797D03*
D12*
X74240585Y-43786797D03*
D13*
X75490585Y-43786797D03*
D14*
X76340585Y-44986797D03*
D11*
X76140585Y-37096290D03*
D12*
X74240585Y-37096290D03*
D13*
X75490585Y-37096290D03*
D14*
X76340585Y-38296290D03*
D11*
X76140585Y-30405792D03*
D12*
X74240585Y-30405792D03*
D13*
X75490585Y-30405792D03*
D14*
X76340585Y-31605792D03*
D11*
X76140585Y-23715292D03*
D12*
X74240585Y-23715292D03*
D13*
X75490585Y-23715292D03*
D14*
X76340585Y-24915292D03*
D15*
X81610790Y-50192207D03*
X81610790Y-48192207D03*
X81610790Y-46192207D03*
D16*
X80610790Y-50192207D03*
X80610790Y-48192207D03*
X80610790Y-46192207D03*
D15*
X49020840Y-46192207D03*
X49020840Y-48192207D03*
X49020840Y-50192207D03*
D16*
X50020840Y-46192207D03*
X50020840Y-48192207D03*
X50020840Y-50192207D03*
D14*
X53261648Y-35702706D03*
D17*
X56730000Y-45280000D02*
X56080000Y-45280000D01*
X56730000Y-45280000D02*
X56080000Y-45280000D01*
X56730000Y-45280000D02*
X56080000Y-45280000D01*
X56730000Y-45280000D02*
X56080000Y-45280000D01*
X56730000Y-45280000D02*
X56080000Y-45280000D01*
X56730000Y-45280000D02*
X56080000Y-45280000D01*
X56730000Y-45280000D02*
X56080000Y-45280000D01*
X56730000Y-45280000D02*
X56080000Y-45280000D01*
X56730000Y-45280000D02*
X56080000Y-45280000D01*
X56080000Y-45280000D02*
X56930000Y-46480000D01*
X56080000Y-45280000D02*
X56930000Y-46480000D01*
X56080000Y-45280000D02*
X56930000Y-46480000D01*
X56080000Y-45280000D02*
X56930000Y-46480000D01*
X56080000Y-45280000D02*
X56930000Y-46480000D01*
X56080000Y-45280000D02*
X56930000Y-46480000D01*
X56080000Y-45280000D02*
X56930000Y-46480000D01*
X56080000Y-45280000D02*
X56930000Y-46480000D01*
X56080000Y-45280000D02*
X56930000Y-46480000D01*
X56730000Y-38590000D02*
X56080000Y-38590000D01*
X56730000Y-38590000D02*
X56080000Y-38590000D01*
X56730000Y-38590000D02*
X56080000Y-38590000D01*
X56730000Y-38590000D02*
X56080000Y-38590000D01*
X56730000Y-38590000D02*
X56080000Y-38590000D01*
X56730000Y-38590000D02*
X56080000Y-38590000D01*
X56730000Y-38590000D02*
X56080000Y-38590000D01*
X56730000Y-38590000D02*
X56080000Y-38590000D01*
X56730000Y-38590000D02*
X56080000Y-38590000D01*
X56080000Y-38590000D02*
X56930000Y-39790000D01*
X56080000Y-38590000D02*
X56930000Y-39790000D01*
X56080000Y-38590000D02*
X56930000Y-39790000D01*
X56080000Y-38590000D02*
X56930000Y-39790000D01*
X56080000Y-38590000D02*
X56930000Y-39790000D01*
X56080000Y-38590000D02*
X56930000Y-39790000D01*
X56080000Y-38590000D02*
X56930000Y-39790000D01*
X56080000Y-38590000D02*
X56930000Y-39790000D01*
X56080000Y-38590000D02*
X56930000Y-39790000D01*
X56730000Y-31900000D02*
X56080000Y-31900000D01*
X56730000Y-31900000D02*
X56080000Y-31900000D01*
X56730000Y-31900000D02*
X56080000Y-31900000D01*
X56730000Y-31900000D02*
X56080000Y-31900000D01*
X56730000Y-31900000D02*
X56080000Y-31900000D01*
X56730000Y-31900000D02*
X56080000Y-31900000D01*
X56730000Y-31900000D02*
X56080000Y-31900000D01*
X56730000Y-31900000D02*
X56080000Y-31900000D01*
X56730000Y-31900000D02*
X56080000Y-31900000D01*
X56080000Y-31900000D02*
X56930000Y-33100000D01*
X56080000Y-31900000D02*
X56930000Y-33100000D01*
X56080000Y-31900000D02*
X56930000Y-33100000D01*
X56080000Y-31900000D02*
X56930000Y-33100000D01*
X56080000Y-31900000D02*
X56930000Y-33100000D01*
X56080000Y-31900000D02*
X56930000Y-33100000D01*
X56080000Y-31900000D02*
X56930000Y-33100000D01*
X56080000Y-31900000D02*
X56930000Y-33100000D01*
X56080000Y-31900000D02*
X56930000Y-33100000D01*
X55820000Y-27280000D02*
X56270000Y-26810000D01*
X55820000Y-27280000D02*
X56270000Y-26810000D01*
X55820000Y-27280000D02*
X56270000Y-26810000D01*
X55820000Y-27280000D02*
X56270000Y-26810000D01*
X55820000Y-27280000D02*
X56270000Y-26810000D01*
X55820000Y-27280000D02*
X56270000Y-26810000D01*
X55820000Y-27280000D02*
X56270000Y-26810000D01*
X55820000Y-27280000D02*
X56270000Y-26810000D01*
X55820000Y-27280000D02*
X56270000Y-26810000D01*
X56270000Y-26810000D02*
X54810000Y-26600000D01*
X56270000Y-26810000D02*
X54810000Y-26600000D01*
X56270000Y-26810000D02*
X54810000Y-26600000D01*
X56270000Y-26810000D02*
X54810000Y-26600000D01*
X56270000Y-26810000D02*
X54810000Y-26600000D01*
X56270000Y-26810000D02*
X54810000Y-26600000D01*
X56270000Y-26810000D02*
X54810000Y-26600000D01*
X56270000Y-26810000D02*
X54810000Y-26600000D01*
X56270000Y-26810000D02*
X54810000Y-26600000D01*
X60670000Y-31970000D02*
X61130000Y-31510000D01*
X60670000Y-31970000D02*
X61130000Y-31510000D01*
X60670000Y-31970000D02*
X61130000Y-31510000D01*
X60670000Y-31970000D02*
X61130000Y-31510000D01*
X60670000Y-31970000D02*
X61130000Y-31510000D01*
X60670000Y-31970000D02*
X61130000Y-31510000D01*
X60670000Y-31970000D02*
X61130000Y-31510000D01*
X60670000Y-31970000D02*
X61130000Y-31510000D01*
X60670000Y-31970000D02*
X61130000Y-31510000D01*
X61130000Y-31510000D02*
X59680000Y-31270000D01*
X61130000Y-31510000D02*
X59680000Y-31270000D01*
X61130000Y-31510000D02*
X59680000Y-31270000D01*
X61130000Y-31510000D02*
X59680000Y-31270000D01*
X61130000Y-31510000D02*
X59680000Y-31270000D01*
X61130000Y-31510000D02*
X59680000Y-31270000D01*
X61130000Y-31510000D02*
X59680000Y-31270000D01*
X61130000Y-31510000D02*
X59680000Y-31270000D01*
X61130000Y-31510000D02*
X59680000Y-31270000D01*
X65430000Y-36680000D02*
X65890000Y-36220000D01*
X65430000Y-36680000D02*
X65890000Y-36220000D01*
X65430000Y-36680000D02*
X65890000Y-36220000D01*
X65430000Y-36680000D02*
X65890000Y-36220000D01*
X65430000Y-36680000D02*
X65890000Y-36220000D01*
X65430000Y-36680000D02*
X65890000Y-36220000D01*
X65430000Y-36680000D02*
X65890000Y-36220000D01*
X65430000Y-36680000D02*
X65890000Y-36220000D01*
X65430000Y-36680000D02*
X65890000Y-36220000D01*
X65890000Y-36220000D02*
X64440000Y-35980000D01*
X65890000Y-36220000D02*
X64440000Y-35980000D01*
X65890000Y-36220000D02*
X64440000Y-35980000D01*
X65890000Y-36220000D02*
X64440000Y-35980000D01*
X65890000Y-36220000D02*
X64440000Y-35980000D01*
X65890000Y-36220000D02*
X64440000Y-35980000D01*
X65890000Y-36220000D02*
X64440000Y-35980000D01*
X65890000Y-36220000D02*
X64440000Y-35980000D01*
X65890000Y-36220000D02*
X64440000Y-35980000D01*
X70240000Y-41390000D02*
X70690000Y-40920000D01*
X70240000Y-41390000D02*
X70690000Y-40920000D01*
X70240000Y-41390000D02*
X70690000Y-40920000D01*
X70240000Y-41390000D02*
X70690000Y-40920000D01*
X70240000Y-41390000D02*
X70690000Y-40920000D01*
X70240000Y-41390000D02*
X70690000Y-40920000D01*
X70240000Y-41390000D02*
X70690000Y-40920000D01*
X70240000Y-41390000D02*
X70690000Y-40920000D01*
X70240000Y-41390000D02*
X70690000Y-40920000D01*
X70690000Y-40920000D02*
X69240000Y-40700000D01*
X70690000Y-40920000D02*
X69240000Y-40700000D01*
X70690000Y-40920000D02*
X69240000Y-40700000D01*
X70690000Y-40920000D02*
X69240000Y-40700000D01*
X70690000Y-40920000D02*
X69240000Y-40700000D01*
X70690000Y-40920000D02*
X69240000Y-40700000D01*
X70690000Y-40920000D02*
X69240000Y-40700000D01*
X70690000Y-40920000D02*
X69240000Y-40700000D01*
X70690000Y-40920000D02*
X69240000Y-40700000D01*
X76140000Y-43790000D02*
X75490000Y-43790000D01*
X76140000Y-43790000D02*
X75490000Y-43790000D01*
X76140000Y-43790000D02*
X75490000Y-43790000D01*
X76140000Y-43790000D02*
X75490000Y-43790000D01*
X76140000Y-43790000D02*
X75490000Y-43790000D01*
X76140000Y-43790000D02*
X75490000Y-43790000D01*
X76140000Y-43790000D02*
X75490000Y-43790000D01*
X76140000Y-43790000D02*
X75490000Y-43790000D01*
X76140000Y-43790000D02*
X75490000Y-43790000D01*
X75490000Y-43790000D02*
X76340000Y-44990000D01*
X75490000Y-43790000D02*
X76340000Y-44990000D01*
X75490000Y-43790000D02*
X76340000Y-44990000D01*
X75490000Y-43790000D02*
X76340000Y-44990000D01*
X75490000Y-43790000D02*
X76340000Y-44990000D01*
X75490000Y-43790000D02*
X76340000Y-44990000D01*
X75490000Y-43790000D02*
X76340000Y-44990000D01*
X75490000Y-43790000D02*
X76340000Y-44990000D01*
X75490000Y-43790000D02*
X76340000Y-44990000D01*
X76140000Y-37100000D02*
X75490000Y-37100000D01*
X76140000Y-37100000D02*
X75490000Y-37100000D01*
X76140000Y-37100000D02*
X75490000Y-37100000D01*
X76140000Y-37100000D02*
X75490000Y-37100000D01*
X76140000Y-37100000D02*
X75490000Y-37100000D01*
X76140000Y-37100000D02*
X75490000Y-37100000D01*
X76140000Y-37100000D02*
X75490000Y-37100000D01*
X76140000Y-37100000D02*
X75490000Y-37100000D01*
X76140000Y-37100000D02*
X75490000Y-37100000D01*
X75490000Y-37100000D02*
X76340000Y-38300000D01*
X75490000Y-37100000D02*
X76340000Y-38300000D01*
X75490000Y-37100000D02*
X76340000Y-38300000D01*
X75490000Y-37100000D02*
X76340000Y-38300000D01*
X75490000Y-37100000D02*
X76340000Y-38300000D01*
X75490000Y-37100000D02*
X76340000Y-38300000D01*
X75490000Y-37100000D02*
X76340000Y-38300000D01*
X75490000Y-37100000D02*
X76340000Y-38300000D01*
X75490000Y-37100000D02*
X76340000Y-38300000D01*
X76140000Y-30410000D02*
X75490000Y-30410000D01*
X76140000Y-30410000D02*
X75490000Y-30410000D01*
X76140000Y-30410000D02*
X75490000Y-30410000D01*
X76140000Y-30410000D02*
X75490000Y-30410000D01*
X76140000Y-30410000D02*
X75490000Y-30410000D01*
X76140000Y-30410000D02*
X75490000Y-30410000D01*
X76140000Y-30410000D02*
X75490000Y-30410000D01*
X76140000Y-30410000D02*
X75490000Y-30410000D01*
X76140000Y-30410000D02*
X75490000Y-30410000D01*
X75490000Y-30410000D02*
X76340000Y-31610000D01*
X75490000Y-30410000D02*
X76340000Y-31610000D01*
X75490000Y-30410000D02*
X76340000Y-31610000D01*
X75490000Y-30410000D02*
X76340000Y-31610000D01*
X75490000Y-30410000D02*
X76340000Y-31610000D01*
X75490000Y-30410000D02*
X76340000Y-31610000D01*
X75490000Y-30410000D02*
X76340000Y-31610000D01*
X75490000Y-30410000D02*
X76340000Y-31610000D01*
X75490000Y-30410000D02*
X76340000Y-31610000D01*
X76140000Y-23720000D02*
X75490000Y-23720000D01*
X76140000Y-23720000D02*
X75490000Y-23720000D01*
X76140000Y-23720000D02*
X75490000Y-23720000D01*
X76140000Y-23720000D02*
X75490000Y-23720000D01*
X76140000Y-23720000D02*
X75490000Y-23720000D01*
X76140000Y-23720000D02*
X75490000Y-23720000D01*
X76140000Y-23720000D02*
X75490000Y-23720000D01*
X76140000Y-23720000D02*
X75490000Y-23720000D01*
X76140000Y-23720000D02*
X75490000Y-23720000D01*
X75490000Y-23720000D02*
X76340000Y-24920000D01*
X75490000Y-23720000D02*
X76340000Y-24920000D01*
X75490000Y-23720000D02*
X76340000Y-24920000D01*
X75490000Y-23720000D02*
X76340000Y-24920000D01*
X75490000Y-23720000D02*
X76340000Y-24920000D01*
X75490000Y-23720000D02*
X76340000Y-24920000D01*
X75490000Y-23720000D02*
X76340000Y-24920000D01*
X75490000Y-23720000D02*
X76340000Y-24920000D01*
X75490000Y-23720000D02*
X76340000Y-24920000D01*
D18*
G36*
X70545199Y-34809175D02*
X70589449Y-34838036D01*
X70633384Y-34867393D01*
X70634930Y-34867700D01*
X70636249Y-34868561D01*
X70688190Y-34878294D01*
X70740000Y-34888600D01*
X70741544Y-34888293D01*
X70743093Y-34888583D01*
X70794782Y-34877703D01*
X70846616Y-34867393D01*
X70847927Y-34866517D01*
X70849467Y-34866193D01*
X70893032Y-34836379D01*
X70937000Y-34807000D01*
X70937876Y-34805689D01*
X70939175Y-34804800D01*
X70968022Y-34760572D01*
X70997393Y-34716616D01*
X70997700Y-34715070D01*
X70998561Y-34713751D01*
X71008293Y-34661818D01*
X71018600Y-34610000D01*
X71018600Y-30729642D01*
X73496385Y-30729642D01*
X73496385Y-31671996D01*
X73585324Y-31886714D01*
X73749662Y-32051053D01*
X73964380Y-32139992D01*
X74014535Y-32139992D01*
X74160585Y-31993942D01*
X74160585Y-30583592D01*
X73642435Y-30583592D01*
X73496385Y-30729642D01*
X71018600Y-30729642D01*
X71018600Y-29139588D01*
X73496385Y-29139588D01*
X73496385Y-30081942D01*
X73642435Y-30227992D01*
X74160585Y-30227992D01*
X74160585Y-28817642D01*
X74320585Y-28817642D01*
X74320585Y-30227992D01*
X74400585Y-30227992D01*
X74400585Y-30583592D01*
X74320585Y-30583592D01*
X74320585Y-31993942D01*
X74466635Y-32139992D01*
X74516790Y-32139992D01*
X74731508Y-32051053D01*
X74895846Y-31886714D01*
X74956317Y-31740724D01*
X74999905Y-31770507D01*
X75090585Y-31788870D01*
X75890585Y-31788870D01*
X75897823Y-31787508D01*
X75934611Y-31876543D01*
X76069126Y-32011292D01*
X76244968Y-32084308D01*
X76435367Y-32084475D01*
X76611336Y-32011766D01*
X76746085Y-31877251D01*
X76819101Y-31701409D01*
X76819268Y-31511010D01*
X76746559Y-31335041D01*
X76623663Y-31211931D01*
X76623663Y-29505792D01*
X76607723Y-29421078D01*
X76557657Y-29343274D01*
X76481265Y-29291077D01*
X76390585Y-29272714D01*
X76123663Y-29272714D01*
X76123663Y-29255792D01*
X76107723Y-29171078D01*
X76057657Y-29093274D01*
X75981265Y-29041077D01*
X75890585Y-29022714D01*
X75090585Y-29022714D01*
X75005871Y-29038654D01*
X74956213Y-29070609D01*
X74895846Y-28924870D01*
X74731508Y-28760531D01*
X74516790Y-28671592D01*
X74466635Y-28671592D01*
X74320585Y-28817642D01*
X74160585Y-28817642D01*
X74014535Y-28671592D01*
X73964380Y-28671592D01*
X73749662Y-28760531D01*
X73585324Y-28924870D01*
X73496385Y-29139588D01*
X71018600Y-29139588D01*
X71018600Y-24039142D01*
X73496385Y-24039142D01*
X73496385Y-24981496D01*
X73585324Y-25196214D01*
X73749662Y-25360553D01*
X73964380Y-25449492D01*
X74014535Y-25449492D01*
X74160585Y-25303442D01*
X74160585Y-23893092D01*
X73642435Y-23893092D01*
X73496385Y-24039142D01*
X71018600Y-24039142D01*
X71018600Y-22449088D01*
X73496385Y-22449088D01*
X73496385Y-23391442D01*
X73642435Y-23537492D01*
X74160585Y-23537492D01*
X74160585Y-22127142D01*
X74320585Y-22127142D01*
X74320585Y-23537492D01*
X74400585Y-23537492D01*
X74400585Y-23893092D01*
X74320585Y-23893092D01*
X74320585Y-25303442D01*
X74466635Y-25449492D01*
X74516790Y-25449492D01*
X74731508Y-25360553D01*
X74895846Y-25196214D01*
X74956317Y-25050224D01*
X74999905Y-25080007D01*
X75090585Y-25098370D01*
X75890585Y-25098370D01*
X75897823Y-25097008D01*
X75934611Y-25186043D01*
X76069126Y-25320792D01*
X76244968Y-25393808D01*
X76435367Y-25393975D01*
X76611336Y-25321266D01*
X76746085Y-25186751D01*
X76819101Y-25010909D01*
X76819268Y-24820510D01*
X76746559Y-24644541D01*
X76623663Y-24521431D01*
X76623663Y-22815292D01*
X76607723Y-22730578D01*
X76557657Y-22652774D01*
X76481265Y-22600577D01*
X76390585Y-22582214D01*
X76123663Y-22582214D01*
X76123663Y-22565292D01*
X76107723Y-22480578D01*
X76057657Y-22402774D01*
X75981265Y-22350577D01*
X75890585Y-22332214D01*
X75090585Y-22332214D01*
X75005871Y-22348154D01*
X74956213Y-22380109D01*
X74895846Y-22234370D01*
X74731508Y-22070031D01*
X74516790Y-21981092D01*
X74466635Y-21981092D01*
X74320585Y-22127142D01*
X74160585Y-22127142D01*
X74014535Y-21981092D01*
X73964380Y-21981092D01*
X73749662Y-22070031D01*
X73585324Y-22234370D01*
X73496385Y-22449088D01*
X71018600Y-22449088D01*
X71018600Y-18998600D01*
X78941400Y-18998600D01*
X78941400Y-45150000D01*
X78962607Y-45256616D01*
X79023000Y-45347000D01*
X79113384Y-45407393D01*
X79220000Y-45428600D01*
X83641400Y-45428600D01*
X83641400Y-45465328D01*
X83610790Y-45459129D01*
X79610790Y-45459129D01*
X79526076Y-45475069D01*
X79448272Y-45525135D01*
X79396075Y-45601527D01*
X79377712Y-45692207D01*
X79377712Y-46692207D01*
X79393652Y-46776921D01*
X79443718Y-46854725D01*
X79520110Y-46906922D01*
X79610790Y-46925285D01*
X83610790Y-46925285D01*
X83641400Y-46919525D01*
X83641400Y-47108007D01*
X81934640Y-47108007D01*
X81788590Y-47254057D01*
X81788590Y-48014407D01*
X81808590Y-48014407D01*
X81808590Y-48370007D01*
X81788590Y-48370007D01*
X81788590Y-49130357D01*
X81934640Y-49276407D01*
X83641400Y-49276407D01*
X83641400Y-49465328D01*
X83610790Y-49459129D01*
X79610790Y-49459129D01*
X79526076Y-49475069D01*
X79448272Y-49525135D01*
X79396075Y-49601527D01*
X79377712Y-49692207D01*
X79377712Y-50692207D01*
X79393652Y-50776921D01*
X79443718Y-50854725D01*
X79468122Y-50871400D01*
X79220000Y-50871400D01*
X79113384Y-50892607D01*
X79070292Y-50921400D01*
X76373537Y-50921400D01*
X72950681Y-47576002D01*
X79026590Y-47576002D01*
X79026590Y-47868357D01*
X79172640Y-48014407D01*
X79742870Y-48014407D01*
X79711378Y-48130540D01*
X79742172Y-48370007D01*
X79172640Y-48370007D01*
X79026590Y-48516057D01*
X79026590Y-48808412D01*
X79115529Y-49023130D01*
X79279868Y-49187468D01*
X79494586Y-49276407D01*
X81286940Y-49276407D01*
X81432990Y-49130357D01*
X81432990Y-48538605D01*
X81510202Y-48253874D01*
X81465337Y-47904990D01*
X81432990Y-47826897D01*
X81432990Y-47254057D01*
X81286940Y-47108007D01*
X79494586Y-47108007D01*
X79279868Y-47196946D01*
X79115529Y-47361284D01*
X79026590Y-47576002D01*
X72950681Y-47576002D01*
X69405089Y-44110647D01*
X73496385Y-44110647D01*
X73496385Y-45053001D01*
X73585324Y-45267719D01*
X73749662Y-45432058D01*
X73964380Y-45520997D01*
X74014535Y-45520997D01*
X74160585Y-45374947D01*
X74160585Y-43964597D01*
X73642435Y-43964597D01*
X73496385Y-44110647D01*
X69405089Y-44110647D01*
X67778219Y-42520593D01*
X73496385Y-42520593D01*
X73496385Y-43462947D01*
X73642435Y-43608997D01*
X74160585Y-43608997D01*
X74160585Y-42198647D01*
X74320585Y-42198647D01*
X74320585Y-43608997D01*
X74400585Y-43608997D01*
X74400585Y-43964597D01*
X74320585Y-43964597D01*
X74320585Y-45374947D01*
X74466635Y-45520997D01*
X74516790Y-45520997D01*
X74731508Y-45432058D01*
X74895846Y-45267719D01*
X74956317Y-45121729D01*
X74999905Y-45151512D01*
X75090585Y-45169875D01*
X75890585Y-45169875D01*
X75897823Y-45168513D01*
X75934611Y-45257548D01*
X76069126Y-45392297D01*
X76244968Y-45465313D01*
X76435367Y-45465480D01*
X76611336Y-45392771D01*
X76746085Y-45258256D01*
X76819101Y-45082414D01*
X76819268Y-44892015D01*
X76746559Y-44716046D01*
X76623663Y-44592936D01*
X76623663Y-42886797D01*
X76607723Y-42802083D01*
X76557657Y-42724279D01*
X76481265Y-42672082D01*
X76390585Y-42653719D01*
X76123663Y-42653719D01*
X76123663Y-42636797D01*
X76107723Y-42552083D01*
X76057657Y-42474279D01*
X75981265Y-42422082D01*
X75890585Y-42403719D01*
X75090585Y-42403719D01*
X75005871Y-42419659D01*
X74956213Y-42451614D01*
X74895846Y-42305875D01*
X74731508Y-42141536D01*
X74516790Y-42052597D01*
X74466635Y-42052597D01*
X74320585Y-42198647D01*
X74160585Y-42198647D01*
X74014535Y-42052597D01*
X73964380Y-42052597D01*
X73749662Y-42141536D01*
X73585324Y-42305875D01*
X73496385Y-42520593D01*
X67778219Y-42520593D01*
X66008812Y-40791228D01*
X68763191Y-40791228D01*
X68835900Y-40967197D01*
X68970415Y-41101946D01*
X69146257Y-41174962D01*
X69328623Y-41175122D01*
X70551665Y-42362153D01*
X70623556Y-42409715D01*
X70714257Y-42427976D01*
X70804917Y-42409511D01*
X70881250Y-42357228D01*
X71067151Y-42165687D01*
X71079295Y-42177473D01*
X71151186Y-42225035D01*
X71241887Y-42243296D01*
X71332547Y-42224831D01*
X71408880Y-42172548D01*
X71966051Y-41598474D01*
X72013613Y-41526583D01*
X72025268Y-41468694D01*
X72171891Y-41526876D01*
X72404275Y-41523405D01*
X72617640Y-41431267D01*
X72652571Y-41395276D01*
X72649485Y-41188754D01*
X71637429Y-40206497D01*
X71581712Y-40263904D01*
X71404266Y-40091682D01*
X71748863Y-40091682D01*
X72760919Y-41073939D01*
X72967442Y-41070853D01*
X73002373Y-41034862D01*
X73088095Y-40818839D01*
X73084622Y-40586456D01*
X72992484Y-40373090D01*
X72825709Y-40211226D01*
X72316258Y-39716775D01*
X72109735Y-39719861D01*
X71748863Y-40091682D01*
X71404266Y-40091682D01*
X71326536Y-40016241D01*
X71382253Y-39958834D01*
X70370197Y-38976577D01*
X70163674Y-38979663D01*
X70128743Y-39015654D01*
X70043021Y-39231677D01*
X70046494Y-39464060D01*
X70109139Y-39609129D01*
X70057411Y-39619665D01*
X69981078Y-39671948D01*
X69423907Y-40246022D01*
X69419863Y-40252134D01*
X69337491Y-40217930D01*
X69147092Y-40217763D01*
X68971123Y-40290472D01*
X68836374Y-40424987D01*
X68763358Y-40600829D01*
X68763191Y-40791228D01*
X66008812Y-40791228D01*
X63823368Y-38655240D01*
X70478545Y-38655240D01*
X70481631Y-38861762D01*
X71493687Y-39844019D01*
X71854560Y-39472199D01*
X71851474Y-39265676D01*
X71342023Y-38771225D01*
X71175248Y-38609361D01*
X70959225Y-38523640D01*
X70726841Y-38527111D01*
X70513476Y-38619249D01*
X70478545Y-38655240D01*
X63823368Y-38655240D01*
X61187262Y-36078790D01*
X63957122Y-36078790D01*
X64029831Y-36254759D01*
X64164346Y-36389508D01*
X64340188Y-36462524D01*
X64519736Y-36462681D01*
X65737302Y-37656203D01*
X65808956Y-37704122D01*
X65899565Y-37722833D01*
X65990315Y-37704819D01*
X66066907Y-37652917D01*
X66253759Y-37462302D01*
X66265844Y-37474148D01*
X66337498Y-37522067D01*
X66428107Y-37540778D01*
X66518858Y-37522764D01*
X66595449Y-37470861D01*
X66645168Y-37420140D01*
X73496385Y-37420140D01*
X73496385Y-38362494D01*
X73585324Y-38577212D01*
X73749662Y-38741551D01*
X73964380Y-38830490D01*
X74014535Y-38830490D01*
X74160585Y-38684440D01*
X74160585Y-37274090D01*
X73642435Y-37274090D01*
X73496385Y-37420140D01*
X66645168Y-37420140D01*
X67155465Y-36899563D01*
X67203384Y-36827909D01*
X67215326Y-36770077D01*
X67361660Y-36828988D01*
X67594058Y-36826671D01*
X67807878Y-36735595D01*
X67842988Y-36699778D01*
X67840928Y-36493242D01*
X66833765Y-35505968D01*
X66777763Y-35563098D01*
X66602922Y-35391709D01*
X66945769Y-35391709D01*
X67952932Y-36378983D01*
X68159467Y-36376923D01*
X68194577Y-36341106D01*
X68281370Y-36125512D01*
X68279052Y-35893114D01*
X68252206Y-35830086D01*
X73496385Y-35830086D01*
X73496385Y-36772440D01*
X73642435Y-36918490D01*
X74160585Y-36918490D01*
X74160585Y-35508140D01*
X74320585Y-35508140D01*
X74320585Y-36918490D01*
X74400585Y-36918490D01*
X74400585Y-37274090D01*
X74320585Y-37274090D01*
X74320585Y-38684440D01*
X74466635Y-38830490D01*
X74516790Y-38830490D01*
X74731508Y-38741551D01*
X74895846Y-38577212D01*
X74956317Y-38431222D01*
X74999905Y-38461005D01*
X75090585Y-38479368D01*
X75890585Y-38479368D01*
X75897823Y-38478006D01*
X75934611Y-38567041D01*
X76069126Y-38701790D01*
X76244968Y-38774806D01*
X76435367Y-38774973D01*
X76611336Y-38702264D01*
X76746085Y-38567749D01*
X76819101Y-38391907D01*
X76819268Y-38201508D01*
X76746559Y-38025539D01*
X76623663Y-37902429D01*
X76623663Y-36196290D01*
X76607723Y-36111576D01*
X76557657Y-36033772D01*
X76481265Y-35981575D01*
X76390585Y-35963212D01*
X76123663Y-35963212D01*
X76123663Y-35946290D01*
X76107723Y-35861576D01*
X76057657Y-35783772D01*
X75981265Y-35731575D01*
X75890585Y-35713212D01*
X75090585Y-35713212D01*
X75005871Y-35729152D01*
X74956213Y-35761107D01*
X74895846Y-35615368D01*
X74731508Y-35451029D01*
X74516790Y-35362090D01*
X74466635Y-35362090D01*
X74320585Y-35508140D01*
X74160585Y-35508140D01*
X74014535Y-35362090D01*
X73964380Y-35362090D01*
X73749662Y-35451029D01*
X73585324Y-35615368D01*
X73496385Y-35830086D01*
X68252206Y-35830086D01*
X68187976Y-35679294D01*
X68022008Y-35516603D01*
X67515020Y-35019627D01*
X67308484Y-35021686D01*
X66945769Y-35391709D01*
X66602922Y-35391709D01*
X66523821Y-35314171D01*
X66579823Y-35257041D01*
X65572660Y-34269767D01*
X65366125Y-34271827D01*
X65331015Y-34307644D01*
X65244222Y-34523238D01*
X65246540Y-34755636D01*
X65308464Y-34901015D01*
X65256682Y-34911294D01*
X65180091Y-34963197D01*
X64620075Y-35534495D01*
X64615988Y-35540607D01*
X64531422Y-35505492D01*
X64341023Y-35505325D01*
X64165054Y-35578034D01*
X64030305Y-35712549D01*
X63957289Y-35888391D01*
X63957122Y-36078790D01*
X61187262Y-36078790D01*
X60104733Y-35020759D01*
X60060534Y-34991952D01*
X60016616Y-34962607D01*
X60015022Y-34962290D01*
X60013663Y-34961404D01*
X59961776Y-34951699D01*
X59910000Y-34941400D01*
X59908408Y-34941717D01*
X59906812Y-34941418D01*
X59855158Y-34952309D01*
X59803384Y-34962607D01*
X59802034Y-34963509D01*
X59800446Y-34963844D01*
X59756906Y-34993663D01*
X59713000Y-35023000D01*
X59712098Y-35024350D01*
X59710759Y-35025267D01*
X59681952Y-35069466D01*
X59652607Y-35113384D01*
X59652290Y-35114978D01*
X59651404Y-35116337D01*
X59641699Y-35168224D01*
X59631400Y-35220000D01*
X59631400Y-50881400D01*
X51380274Y-50881400D01*
X51330000Y-50871400D01*
X51164522Y-50871400D01*
X51183358Y-50859279D01*
X51235555Y-50782887D01*
X51253918Y-50692207D01*
X51253918Y-49692207D01*
X51237978Y-49607493D01*
X51187912Y-49529689D01*
X51111520Y-49477492D01*
X51020840Y-49459129D01*
X47020840Y-49459129D01*
X46936126Y-49475069D01*
X46908600Y-49492782D01*
X46908600Y-49276407D01*
X48696990Y-49276407D01*
X48843040Y-49130357D01*
X48843040Y-48370007D01*
X48823040Y-48370007D01*
X48823040Y-48130540D01*
X49121428Y-48130540D01*
X49166293Y-48479424D01*
X49198640Y-48557517D01*
X49198640Y-49130357D01*
X49344690Y-49276407D01*
X51137044Y-49276407D01*
X51351762Y-49187468D01*
X51516101Y-49023130D01*
X51605040Y-48808412D01*
X51605040Y-48516057D01*
X51458990Y-48370007D01*
X50888760Y-48370007D01*
X50920252Y-48253874D01*
X50889458Y-48014407D01*
X51458990Y-48014407D01*
X51605040Y-47868357D01*
X51605040Y-47576002D01*
X51516101Y-47361284D01*
X51351762Y-47196946D01*
X51137044Y-47108007D01*
X49344690Y-47108007D01*
X49198640Y-47254057D01*
X49198640Y-47845809D01*
X49121428Y-48130540D01*
X48823040Y-48130540D01*
X48823040Y-48014407D01*
X48843040Y-48014407D01*
X48843040Y-47254057D01*
X48696990Y-47108007D01*
X46908600Y-47108007D01*
X46908600Y-46892191D01*
X46930160Y-46906922D01*
X47020840Y-46925285D01*
X51020840Y-46925285D01*
X51105554Y-46909345D01*
X51183358Y-46859279D01*
X51235555Y-46782887D01*
X51253918Y-46692207D01*
X51253918Y-45692207D01*
X51237978Y-45607493D01*
X51237121Y-45606160D01*
X54084085Y-45606160D01*
X54084085Y-46548514D01*
X54173024Y-46763232D01*
X54337362Y-46927571D01*
X54552080Y-47016510D01*
X54602235Y-47016510D01*
X54748285Y-46870460D01*
X54748285Y-45460110D01*
X54230135Y-45460110D01*
X54084085Y-45606160D01*
X51237121Y-45606160D01*
X51187912Y-45529689D01*
X51111520Y-45477492D01*
X51020840Y-45459129D01*
X47020840Y-45459129D01*
X46936126Y-45475069D01*
X46908600Y-45492782D01*
X46908600Y-45428600D01*
X51330000Y-45428600D01*
X51436616Y-45407393D01*
X51527000Y-45347000D01*
X51587393Y-45256616D01*
X51608600Y-45150000D01*
X51608600Y-44016106D01*
X54084085Y-44016106D01*
X54084085Y-44958460D01*
X54230135Y-45104510D01*
X54748285Y-45104510D01*
X54748285Y-43694160D01*
X54908285Y-43694160D01*
X54908285Y-45104510D01*
X54988285Y-45104510D01*
X54988285Y-45460110D01*
X54908285Y-45460110D01*
X54908285Y-46870460D01*
X55054335Y-47016510D01*
X55104490Y-47016510D01*
X55319208Y-46927571D01*
X55483546Y-46763232D01*
X55544017Y-46617242D01*
X55587605Y-46647025D01*
X55678285Y-46665388D01*
X56478285Y-46665388D01*
X56485523Y-46664026D01*
X56522311Y-46753061D01*
X56656826Y-46887810D01*
X56832668Y-46960826D01*
X57023067Y-46960993D01*
X57199036Y-46888284D01*
X57333785Y-46753769D01*
X57406801Y-46577927D01*
X57406968Y-46387528D01*
X57334259Y-46211559D01*
X57211363Y-46088449D01*
X57211363Y-44382310D01*
X57195423Y-44297596D01*
X57145357Y-44219792D01*
X57068965Y-44167595D01*
X56978285Y-44149232D01*
X56711363Y-44149232D01*
X56711363Y-44132310D01*
X56695423Y-44047596D01*
X56645357Y-43969792D01*
X56568965Y-43917595D01*
X56478285Y-43899232D01*
X55678285Y-43899232D01*
X55593571Y-43915172D01*
X55543913Y-43947127D01*
X55483546Y-43801388D01*
X55319208Y-43637049D01*
X55104490Y-43548110D01*
X55054335Y-43548110D01*
X54908285Y-43694160D01*
X54748285Y-43694160D01*
X54602235Y-43548110D01*
X54552080Y-43548110D01*
X54337362Y-43637049D01*
X54173024Y-43801388D01*
X54084085Y-44016106D01*
X51608600Y-44016106D01*
X51608600Y-38915740D01*
X54084085Y-38915740D01*
X54084085Y-39858094D01*
X54173024Y-40072812D01*
X54337362Y-40237151D01*
X54552080Y-40326090D01*
X54602235Y-40326090D01*
X54748285Y-40180040D01*
X54748285Y-38769690D01*
X54230135Y-38769690D01*
X54084085Y-38915740D01*
X51608600Y-38915740D01*
X51608600Y-37325686D01*
X54084085Y-37325686D01*
X54084085Y-38268040D01*
X54230135Y-38414090D01*
X54748285Y-38414090D01*
X54748285Y-37003740D01*
X54908285Y-37003740D01*
X54908285Y-38414090D01*
X54988285Y-38414090D01*
X54988285Y-38769690D01*
X54908285Y-38769690D01*
X54908285Y-40180040D01*
X55054335Y-40326090D01*
X55104490Y-40326090D01*
X55319208Y-40237151D01*
X55483546Y-40072812D01*
X55544017Y-39926822D01*
X55587605Y-39956605D01*
X55678285Y-39974968D01*
X56478285Y-39974968D01*
X56485523Y-39973606D01*
X56522311Y-40062641D01*
X56656826Y-40197390D01*
X56832668Y-40270406D01*
X57023067Y-40270573D01*
X57199036Y-40197864D01*
X57333785Y-40063349D01*
X57406801Y-39887507D01*
X57406968Y-39697108D01*
X57334259Y-39521139D01*
X57211363Y-39398029D01*
X57211363Y-37691890D01*
X57195423Y-37607176D01*
X57145357Y-37529372D01*
X57068965Y-37477175D01*
X56978285Y-37458812D01*
X56711363Y-37458812D01*
X56711363Y-37441890D01*
X56695423Y-37357176D01*
X56645357Y-37279372D01*
X56568965Y-37227175D01*
X56478285Y-37208812D01*
X55678285Y-37208812D01*
X55593571Y-37224752D01*
X55543913Y-37256707D01*
X55483546Y-37110968D01*
X55319208Y-36946629D01*
X55104490Y-36857690D01*
X55054335Y-36857690D01*
X54908285Y-37003740D01*
X54748285Y-37003740D01*
X54602235Y-36857690D01*
X54552080Y-36857690D01*
X54337362Y-36946629D01*
X54173024Y-37110968D01*
X54084085Y-37325686D01*
X51608600Y-37325686D01*
X51608600Y-36339244D01*
X52697517Y-36339244D01*
X52984052Y-36506675D01*
X53312848Y-36551707D01*
X53460909Y-36529579D01*
X53511586Y-36361373D01*
X53218882Y-35874232D01*
X52731741Y-36166936D01*
X52697517Y-36339244D01*
X51608600Y-36339244D01*
X51608600Y-35753906D01*
X52412647Y-35753906D01*
X52434775Y-35901967D01*
X52602981Y-35952644D01*
X52947772Y-35745472D01*
X53433174Y-35745472D01*
X53725878Y-36232613D01*
X53898186Y-36266837D01*
X54065617Y-35980302D01*
X54110649Y-35651506D01*
X54088521Y-35503445D01*
X53920315Y-35452768D01*
X53433174Y-35745472D01*
X52947772Y-35745472D01*
X53090122Y-35659940D01*
X52797418Y-35172799D01*
X52625110Y-35138575D01*
X52457679Y-35425110D01*
X52412647Y-35753906D01*
X51608600Y-35753906D01*
X51608600Y-35044039D01*
X53011710Y-35044039D01*
X53304414Y-35531180D01*
X53791555Y-35238476D01*
X53825779Y-35066168D01*
X53539244Y-34898737D01*
X53210448Y-34853705D01*
X53062387Y-34875833D01*
X53011710Y-35044039D01*
X51608600Y-35044039D01*
X51608600Y-33948972D01*
X65682604Y-33948972D01*
X65684664Y-34155508D01*
X66691827Y-35142782D01*
X67054542Y-34772759D01*
X67052483Y-34566223D01*
X66545495Y-34069247D01*
X66379526Y-33906556D01*
X66163932Y-33819762D01*
X65931534Y-33822079D01*
X65717714Y-33913155D01*
X65682604Y-33948972D01*
X51608600Y-33948972D01*
X51608600Y-32225320D01*
X54084085Y-32225320D01*
X54084085Y-33167674D01*
X54173024Y-33382392D01*
X54337362Y-33546731D01*
X54552080Y-33635670D01*
X54602235Y-33635670D01*
X54748285Y-33489620D01*
X54748285Y-32079270D01*
X54230135Y-32079270D01*
X54084085Y-32225320D01*
X51608600Y-32225320D01*
X51608600Y-30635266D01*
X54084085Y-30635266D01*
X54084085Y-31577620D01*
X54230135Y-31723670D01*
X54748285Y-31723670D01*
X54748285Y-30313320D01*
X54908285Y-30313320D01*
X54908285Y-31723670D01*
X54988285Y-31723670D01*
X54988285Y-32079270D01*
X54908285Y-32079270D01*
X54908285Y-33489620D01*
X55054335Y-33635670D01*
X55104490Y-33635670D01*
X55319208Y-33546731D01*
X55483546Y-33382392D01*
X55544017Y-33236402D01*
X55587605Y-33266185D01*
X55678285Y-33284548D01*
X56478285Y-33284548D01*
X56485523Y-33283186D01*
X56522311Y-33372221D01*
X56656826Y-33506970D01*
X56832668Y-33579986D01*
X57023067Y-33580153D01*
X57199036Y-33507444D01*
X57333785Y-33372929D01*
X57406801Y-33197087D01*
X57406968Y-33006688D01*
X57334259Y-32830719D01*
X57211363Y-32707609D01*
X57211363Y-31366543D01*
X59202910Y-31366543D01*
X59275619Y-31542512D01*
X59410134Y-31677261D01*
X59585976Y-31750277D01*
X59762565Y-31750432D01*
X60974280Y-32950777D01*
X61045681Y-32999072D01*
X61136191Y-33018259D01*
X61227034Y-33000722D01*
X61303898Y-32949223D01*
X61491748Y-32759594D01*
X61503770Y-32771503D01*
X61575171Y-32819798D01*
X61665681Y-32838985D01*
X61756524Y-32821448D01*
X61833388Y-32769949D01*
X62396401Y-32201603D01*
X62444696Y-32130202D01*
X62456942Y-32072435D01*
X62602964Y-32132114D01*
X62835371Y-32131019D01*
X63049667Y-32041069D01*
X63084965Y-32005437D01*
X63083991Y-31798894D01*
X62082033Y-30806337D01*
X62025732Y-30863171D01*
X61853614Y-30692668D01*
X62194636Y-30692668D01*
X63196594Y-31685224D01*
X63403137Y-31684251D01*
X63438435Y-31648619D01*
X63526361Y-31433484D01*
X63525265Y-31201077D01*
X63435314Y-30986781D01*
X63270204Y-30823219D01*
X62765836Y-30323584D01*
X62559292Y-30324558D01*
X62194636Y-30692668D01*
X61853614Y-30692668D01*
X61773103Y-30612913D01*
X61829404Y-30556078D01*
X60827446Y-29563522D01*
X60620903Y-29564495D01*
X60585605Y-29600127D01*
X60497679Y-29815262D01*
X60498775Y-30047669D01*
X60559934Y-30193372D01*
X60508100Y-30203378D01*
X60431236Y-30254877D01*
X59868223Y-30823223D01*
X59864097Y-30829324D01*
X59777210Y-30793245D01*
X59586811Y-30793078D01*
X59410842Y-30865787D01*
X59276093Y-31000302D01*
X59203077Y-31176144D01*
X59202910Y-31366543D01*
X57211363Y-31366543D01*
X57211363Y-31001470D01*
X57195423Y-30916756D01*
X57145357Y-30838952D01*
X57068965Y-30786755D01*
X56978285Y-30768392D01*
X56711363Y-30768392D01*
X56711363Y-30751470D01*
X56695423Y-30666756D01*
X56645357Y-30588952D01*
X56568965Y-30536755D01*
X56478285Y-30518392D01*
X55678285Y-30518392D01*
X55593571Y-30534332D01*
X55543913Y-30566287D01*
X55483546Y-30420548D01*
X55319208Y-30256209D01*
X55104490Y-30167270D01*
X55054335Y-30167270D01*
X54908285Y-30313320D01*
X54748285Y-30313320D01*
X54602235Y-30167270D01*
X54552080Y-30167270D01*
X54337362Y-30256209D01*
X54173024Y-30420548D01*
X54084085Y-30635266D01*
X51608600Y-30635266D01*
X51608600Y-29243309D01*
X60939075Y-29243309D01*
X60940049Y-29449852D01*
X61942007Y-30442409D01*
X62306663Y-30074299D01*
X62305689Y-29867755D01*
X61801322Y-29368120D01*
X61636211Y-29204558D01*
X61421076Y-29116632D01*
X61188669Y-29117727D01*
X60974373Y-29207677D01*
X60939075Y-29243309D01*
X51608600Y-29243309D01*
X51608600Y-26690588D01*
X54332989Y-26690588D01*
X54405698Y-26866557D01*
X54540213Y-27001306D01*
X54716055Y-27074322D01*
X54901019Y-27074484D01*
X56129043Y-28255525D01*
X56201151Y-28302759D01*
X56291934Y-28320606D01*
X56382509Y-28301728D01*
X56458602Y-28249098D01*
X56643628Y-28056711D01*
X56655825Y-28068441D01*
X56727933Y-28115675D01*
X56818716Y-28133522D01*
X56909290Y-28114644D01*
X56985384Y-28062014D01*
X57539932Y-27485406D01*
X57587166Y-27413298D01*
X57598557Y-27355357D01*
X57745444Y-27412870D01*
X57977810Y-27408339D01*
X58190753Y-27315230D01*
X58225520Y-27279081D01*
X58221492Y-27072574D01*
X57204968Y-26094941D01*
X57149514Y-26152602D01*
X56969650Y-25979619D01*
X57315878Y-25979619D01*
X58332402Y-26957253D01*
X58538908Y-26953225D01*
X58573675Y-26917075D01*
X58658411Y-26700664D01*
X58653878Y-26468299D01*
X58560769Y-26255356D01*
X58393258Y-26094253D01*
X57881558Y-25602130D01*
X57675052Y-25606158D01*
X57315878Y-25979619D01*
X56969650Y-25979619D01*
X56893211Y-25906105D01*
X56948666Y-25848445D01*
X55932142Y-24870811D01*
X55725636Y-24874839D01*
X55690869Y-24910989D01*
X55606133Y-25127400D01*
X55610666Y-25359765D01*
X55673972Y-25504548D01*
X55622292Y-25515320D01*
X55546198Y-25567950D01*
X54991650Y-26144558D01*
X54987653Y-26150660D01*
X54907289Y-26117290D01*
X54716890Y-26117123D01*
X54540921Y-26189832D01*
X54406172Y-26324347D01*
X54333156Y-26500189D01*
X54332989Y-26690588D01*
X51608600Y-26690588D01*
X51608600Y-24548983D01*
X56039024Y-24548983D01*
X56043052Y-24755490D01*
X57059576Y-25733123D01*
X57418749Y-25359661D01*
X57414722Y-25153155D01*
X56903022Y-24661032D01*
X56735511Y-24499929D01*
X56519100Y-24415194D01*
X56286734Y-24419725D01*
X56073791Y-24512834D01*
X56039024Y-24548983D01*
X51608600Y-24548983D01*
X51608600Y-18858600D01*
X54236409Y-18858600D01*
X70545199Y-34809175D01*
X70545199Y-34809175D01*
G37*
X70545199Y-34809175D02*
X70589449Y-34838036D01*
X70633384Y-34867393D01*
X70634930Y-34867700D01*
X70636249Y-34868561D01*
X70688190Y-34878294D01*
X70740000Y-34888600D01*
X70741544Y-34888293D01*
X70743093Y-34888583D01*
X70794782Y-34877703D01*
X70846616Y-34867393D01*
X70847927Y-34866517D01*
X70849467Y-34866193D01*
X70893032Y-34836379D01*
X70937000Y-34807000D01*
X70937876Y-34805689D01*
X70939175Y-34804800D01*
X70968022Y-34760572D01*
X70997393Y-34716616D01*
X70997700Y-34715070D01*
X70998561Y-34713751D01*
X71008293Y-34661818D01*
X71018600Y-34610000D01*
X71018600Y-30729642D01*
X73496385Y-30729642D01*
X73496385Y-31671996D01*
X73585324Y-31886714D01*
X73749662Y-32051053D01*
X73964380Y-32139992D01*
X74014535Y-32139992D01*
X74160585Y-31993942D01*
X74160585Y-30583592D01*
X73642435Y-30583592D01*
X73496385Y-30729642D01*
X71018600Y-30729642D01*
X71018600Y-29139588D01*
X73496385Y-29139588D01*
X73496385Y-30081942D01*
X73642435Y-30227992D01*
X74160585Y-30227992D01*
X74160585Y-28817642D01*
X74320585Y-28817642D01*
X74320585Y-30227992D01*
X74400585Y-30227992D01*
X74400585Y-30583592D01*
X74320585Y-30583592D01*
X74320585Y-31993942D01*
X74466635Y-32139992D01*
X74516790Y-32139992D01*
X74731508Y-32051053D01*
X74895846Y-31886714D01*
X74956317Y-31740724D01*
X74999905Y-31770507D01*
X75090585Y-31788870D01*
X75890585Y-31788870D01*
X75897823Y-31787508D01*
X75934611Y-31876543D01*
X76069126Y-32011292D01*
X76244968Y-32084308D01*
X76435367Y-32084475D01*
X76611336Y-32011766D01*
X76746085Y-31877251D01*
X76819101Y-31701409D01*
X76819268Y-31511010D01*
X76746559Y-31335041D01*
X76623663Y-31211931D01*
X76623663Y-29505792D01*
X76607723Y-29421078D01*
X76557657Y-29343274D01*
X76481265Y-29291077D01*
X76390585Y-29272714D01*
X76123663Y-29272714D01*
X76123663Y-29255792D01*
X76107723Y-29171078D01*
X76057657Y-29093274D01*
X75981265Y-29041077D01*
X75890585Y-29022714D01*
X75090585Y-29022714D01*
X75005871Y-29038654D01*
X74956213Y-29070609D01*
X74895846Y-28924870D01*
X74731508Y-28760531D01*
X74516790Y-28671592D01*
X74466635Y-28671592D01*
X74320585Y-28817642D01*
X74160585Y-28817642D01*
X74014535Y-28671592D01*
X73964380Y-28671592D01*
X73749662Y-28760531D01*
X73585324Y-28924870D01*
X73496385Y-29139588D01*
X71018600Y-29139588D01*
X71018600Y-24039142D01*
X73496385Y-24039142D01*
X73496385Y-24981496D01*
X73585324Y-25196214D01*
X73749662Y-25360553D01*
X73964380Y-25449492D01*
X74014535Y-25449492D01*
X74160585Y-25303442D01*
X74160585Y-23893092D01*
X73642435Y-23893092D01*
X73496385Y-24039142D01*
X71018600Y-24039142D01*
X71018600Y-22449088D01*
X73496385Y-22449088D01*
X73496385Y-23391442D01*
X73642435Y-23537492D01*
X74160585Y-23537492D01*
X74160585Y-22127142D01*
X74320585Y-22127142D01*
X74320585Y-23537492D01*
X74400585Y-23537492D01*
X74400585Y-23893092D01*
X74320585Y-23893092D01*
X74320585Y-25303442D01*
X74466635Y-25449492D01*
X74516790Y-25449492D01*
X74731508Y-25360553D01*
X74895846Y-25196214D01*
X74956317Y-25050224D01*
X74999905Y-25080007D01*
X75090585Y-25098370D01*
X75890585Y-25098370D01*
X75897823Y-25097008D01*
X75934611Y-25186043D01*
X76069126Y-25320792D01*
X76244968Y-25393808D01*
X76435367Y-25393975D01*
X76611336Y-25321266D01*
X76746085Y-25186751D01*
X76819101Y-25010909D01*
X76819268Y-24820510D01*
X76746559Y-24644541D01*
X76623663Y-24521431D01*
X76623663Y-22815292D01*
X76607723Y-22730578D01*
X76557657Y-22652774D01*
X76481265Y-22600577D01*
X76390585Y-22582214D01*
X76123663Y-22582214D01*
X76123663Y-22565292D01*
X76107723Y-22480578D01*
X76057657Y-22402774D01*
X75981265Y-22350577D01*
X75890585Y-22332214D01*
X75090585Y-22332214D01*
X75005871Y-22348154D01*
X74956213Y-22380109D01*
X74895846Y-22234370D01*
X74731508Y-22070031D01*
X74516790Y-21981092D01*
X74466635Y-21981092D01*
X74320585Y-22127142D01*
X74160585Y-22127142D01*
X74014535Y-21981092D01*
X73964380Y-21981092D01*
X73749662Y-22070031D01*
X73585324Y-22234370D01*
X73496385Y-22449088D01*
X71018600Y-22449088D01*
X71018600Y-18998600D01*
X78941400Y-18998600D01*
X78941400Y-45150000D01*
X78962607Y-45256616D01*
X79023000Y-45347000D01*
X79113384Y-45407393D01*
X79220000Y-45428600D01*
X83641400Y-45428600D01*
X83641400Y-45465328D01*
X83610790Y-45459129D01*
X79610790Y-45459129D01*
X79526076Y-45475069D01*
X79448272Y-45525135D01*
X79396075Y-45601527D01*
X79377712Y-45692207D01*
X79377712Y-46692207D01*
X79393652Y-46776921D01*
X79443718Y-46854725D01*
X79520110Y-46906922D01*
X79610790Y-46925285D01*
X83610790Y-46925285D01*
X83641400Y-46919525D01*
X83641400Y-47108007D01*
X81934640Y-47108007D01*
X81788590Y-47254057D01*
X81788590Y-48014407D01*
X81808590Y-48014407D01*
X81808590Y-48370007D01*
X81788590Y-48370007D01*
X81788590Y-49130357D01*
X81934640Y-49276407D01*
X83641400Y-49276407D01*
X83641400Y-49465328D01*
X83610790Y-49459129D01*
X79610790Y-49459129D01*
X79526076Y-49475069D01*
X79448272Y-49525135D01*
X79396075Y-49601527D01*
X79377712Y-49692207D01*
X79377712Y-50692207D01*
X79393652Y-50776921D01*
X79443718Y-50854725D01*
X79468122Y-50871400D01*
X79220000Y-50871400D01*
X79113384Y-50892607D01*
X79070292Y-50921400D01*
X76373537Y-50921400D01*
X72950681Y-47576002D01*
X79026590Y-47576002D01*
X79026590Y-47868357D01*
X79172640Y-48014407D01*
X79742870Y-48014407D01*
X79711378Y-48130540D01*
X79742172Y-48370007D01*
X79172640Y-48370007D01*
X79026590Y-48516057D01*
X79026590Y-48808412D01*
X79115529Y-49023130D01*
X79279868Y-49187468D01*
X79494586Y-49276407D01*
X81286940Y-49276407D01*
X81432990Y-49130357D01*
X81432990Y-48538605D01*
X81510202Y-48253874D01*
X81465337Y-47904990D01*
X81432990Y-47826897D01*
X81432990Y-47254057D01*
X81286940Y-47108007D01*
X79494586Y-47108007D01*
X79279868Y-47196946D01*
X79115529Y-47361284D01*
X79026590Y-47576002D01*
X72950681Y-47576002D01*
X69405089Y-44110647D01*
X73496385Y-44110647D01*
X73496385Y-45053001D01*
X73585324Y-45267719D01*
X73749662Y-45432058D01*
X73964380Y-45520997D01*
X74014535Y-45520997D01*
X74160585Y-45374947D01*
X74160585Y-43964597D01*
X73642435Y-43964597D01*
X73496385Y-44110647D01*
X69405089Y-44110647D01*
X67778219Y-42520593D01*
X73496385Y-42520593D01*
X73496385Y-43462947D01*
X73642435Y-43608997D01*
X74160585Y-43608997D01*
X74160585Y-42198647D01*
X74320585Y-42198647D01*
X74320585Y-43608997D01*
X74400585Y-43608997D01*
X74400585Y-43964597D01*
X74320585Y-43964597D01*
X74320585Y-45374947D01*
X74466635Y-45520997D01*
X74516790Y-45520997D01*
X74731508Y-45432058D01*
X74895846Y-45267719D01*
X74956317Y-45121729D01*
X74999905Y-45151512D01*
X75090585Y-45169875D01*
X75890585Y-45169875D01*
X75897823Y-45168513D01*
X75934611Y-45257548D01*
X76069126Y-45392297D01*
X76244968Y-45465313D01*
X76435367Y-45465480D01*
X76611336Y-45392771D01*
X76746085Y-45258256D01*
X76819101Y-45082414D01*
X76819268Y-44892015D01*
X76746559Y-44716046D01*
X76623663Y-44592936D01*
X76623663Y-42886797D01*
X76607723Y-42802083D01*
X76557657Y-42724279D01*
X76481265Y-42672082D01*
X76390585Y-42653719D01*
X76123663Y-42653719D01*
X76123663Y-42636797D01*
X76107723Y-42552083D01*
X76057657Y-42474279D01*
X75981265Y-42422082D01*
X75890585Y-42403719D01*
X75090585Y-42403719D01*
X75005871Y-42419659D01*
X74956213Y-42451614D01*
X74895846Y-42305875D01*
X74731508Y-42141536D01*
X74516790Y-42052597D01*
X74466635Y-42052597D01*
X74320585Y-42198647D01*
X74160585Y-42198647D01*
X74014535Y-42052597D01*
X73964380Y-42052597D01*
X73749662Y-42141536D01*
X73585324Y-42305875D01*
X73496385Y-42520593D01*
X67778219Y-42520593D01*
X66008812Y-40791228D01*
X68763191Y-40791228D01*
X68835900Y-40967197D01*
X68970415Y-41101946D01*
X69146257Y-41174962D01*
X69328623Y-41175122D01*
X70551665Y-42362153D01*
X70623556Y-42409715D01*
X70714257Y-42427976D01*
X70804917Y-42409511D01*
X70881250Y-42357228D01*
X71067151Y-42165687D01*
X71079295Y-42177473D01*
X71151186Y-42225035D01*
X71241887Y-42243296D01*
X71332547Y-42224831D01*
X71408880Y-42172548D01*
X71966051Y-41598474D01*
X72013613Y-41526583D01*
X72025268Y-41468694D01*
X72171891Y-41526876D01*
X72404275Y-41523405D01*
X72617640Y-41431267D01*
X72652571Y-41395276D01*
X72649485Y-41188754D01*
X71637429Y-40206497D01*
X71581712Y-40263904D01*
X71404266Y-40091682D01*
X71748863Y-40091682D01*
X72760919Y-41073939D01*
X72967442Y-41070853D01*
X73002373Y-41034862D01*
X73088095Y-40818839D01*
X73084622Y-40586456D01*
X72992484Y-40373090D01*
X72825709Y-40211226D01*
X72316258Y-39716775D01*
X72109735Y-39719861D01*
X71748863Y-40091682D01*
X71404266Y-40091682D01*
X71326536Y-40016241D01*
X71382253Y-39958834D01*
X70370197Y-38976577D01*
X70163674Y-38979663D01*
X70128743Y-39015654D01*
X70043021Y-39231677D01*
X70046494Y-39464060D01*
X70109139Y-39609129D01*
X70057411Y-39619665D01*
X69981078Y-39671948D01*
X69423907Y-40246022D01*
X69419863Y-40252134D01*
X69337491Y-40217930D01*
X69147092Y-40217763D01*
X68971123Y-40290472D01*
X68836374Y-40424987D01*
X68763358Y-40600829D01*
X68763191Y-40791228D01*
X66008812Y-40791228D01*
X63823368Y-38655240D01*
X70478545Y-38655240D01*
X70481631Y-38861762D01*
X71493687Y-39844019D01*
X71854560Y-39472199D01*
X71851474Y-39265676D01*
X71342023Y-38771225D01*
X71175248Y-38609361D01*
X70959225Y-38523640D01*
X70726841Y-38527111D01*
X70513476Y-38619249D01*
X70478545Y-38655240D01*
X63823368Y-38655240D01*
X61187262Y-36078790D01*
X63957122Y-36078790D01*
X64029831Y-36254759D01*
X64164346Y-36389508D01*
X64340188Y-36462524D01*
X64519736Y-36462681D01*
X65737302Y-37656203D01*
X65808956Y-37704122D01*
X65899565Y-37722833D01*
X65990315Y-37704819D01*
X66066907Y-37652917D01*
X66253759Y-37462302D01*
X66265844Y-37474148D01*
X66337498Y-37522067D01*
X66428107Y-37540778D01*
X66518858Y-37522764D01*
X66595449Y-37470861D01*
X66645168Y-37420140D01*
X73496385Y-37420140D01*
X73496385Y-38362494D01*
X73585324Y-38577212D01*
X73749662Y-38741551D01*
X73964380Y-38830490D01*
X74014535Y-38830490D01*
X74160585Y-38684440D01*
X74160585Y-37274090D01*
X73642435Y-37274090D01*
X73496385Y-37420140D01*
X66645168Y-37420140D01*
X67155465Y-36899563D01*
X67203384Y-36827909D01*
X67215326Y-36770077D01*
X67361660Y-36828988D01*
X67594058Y-36826671D01*
X67807878Y-36735595D01*
X67842988Y-36699778D01*
X67840928Y-36493242D01*
X66833765Y-35505968D01*
X66777763Y-35563098D01*
X66602922Y-35391709D01*
X66945769Y-35391709D01*
X67952932Y-36378983D01*
X68159467Y-36376923D01*
X68194577Y-36341106D01*
X68281370Y-36125512D01*
X68279052Y-35893114D01*
X68252206Y-35830086D01*
X73496385Y-35830086D01*
X73496385Y-36772440D01*
X73642435Y-36918490D01*
X74160585Y-36918490D01*
X74160585Y-35508140D01*
X74320585Y-35508140D01*
X74320585Y-36918490D01*
X74400585Y-36918490D01*
X74400585Y-37274090D01*
X74320585Y-37274090D01*
X74320585Y-38684440D01*
X74466635Y-38830490D01*
X74516790Y-38830490D01*
X74731508Y-38741551D01*
X74895846Y-38577212D01*
X74956317Y-38431222D01*
X74999905Y-38461005D01*
X75090585Y-38479368D01*
X75890585Y-38479368D01*
X75897823Y-38478006D01*
X75934611Y-38567041D01*
X76069126Y-38701790D01*
X76244968Y-38774806D01*
X76435367Y-38774973D01*
X76611336Y-38702264D01*
X76746085Y-38567749D01*
X76819101Y-38391907D01*
X76819268Y-38201508D01*
X76746559Y-38025539D01*
X76623663Y-37902429D01*
X76623663Y-36196290D01*
X76607723Y-36111576D01*
X76557657Y-36033772D01*
X76481265Y-35981575D01*
X76390585Y-35963212D01*
X76123663Y-35963212D01*
X76123663Y-35946290D01*
X76107723Y-35861576D01*
X76057657Y-35783772D01*
X75981265Y-35731575D01*
X75890585Y-35713212D01*
X75090585Y-35713212D01*
X75005871Y-35729152D01*
X74956213Y-35761107D01*
X74895846Y-35615368D01*
X74731508Y-35451029D01*
X74516790Y-35362090D01*
X74466635Y-35362090D01*
X74320585Y-35508140D01*
X74160585Y-35508140D01*
X74014535Y-35362090D01*
X73964380Y-35362090D01*
X73749662Y-35451029D01*
X73585324Y-35615368D01*
X73496385Y-35830086D01*
X68252206Y-35830086D01*
X68187976Y-35679294D01*
X68022008Y-35516603D01*
X67515020Y-35019627D01*
X67308484Y-35021686D01*
X66945769Y-35391709D01*
X66602922Y-35391709D01*
X66523821Y-35314171D01*
X66579823Y-35257041D01*
X65572660Y-34269767D01*
X65366125Y-34271827D01*
X65331015Y-34307644D01*
X65244222Y-34523238D01*
X65246540Y-34755636D01*
X65308464Y-34901015D01*
X65256682Y-34911294D01*
X65180091Y-34963197D01*
X64620075Y-35534495D01*
X64615988Y-35540607D01*
X64531422Y-35505492D01*
X64341023Y-35505325D01*
X64165054Y-35578034D01*
X64030305Y-35712549D01*
X63957289Y-35888391D01*
X63957122Y-36078790D01*
X61187262Y-36078790D01*
X60104733Y-35020759D01*
X60060534Y-34991952D01*
X60016616Y-34962607D01*
X60015022Y-34962290D01*
X60013663Y-34961404D01*
X59961776Y-34951699D01*
X59910000Y-34941400D01*
X59908408Y-34941717D01*
X59906812Y-34941418D01*
X59855158Y-34952309D01*
X59803384Y-34962607D01*
X59802034Y-34963509D01*
X59800446Y-34963844D01*
X59756906Y-34993663D01*
X59713000Y-35023000D01*
X59712098Y-35024350D01*
X59710759Y-35025267D01*
X59681952Y-35069466D01*
X59652607Y-35113384D01*
X59652290Y-35114978D01*
X59651404Y-35116337D01*
X59641699Y-35168224D01*
X59631400Y-35220000D01*
X59631400Y-50881400D01*
X51380274Y-50881400D01*
X51330000Y-50871400D01*
X51164522Y-50871400D01*
X51183358Y-50859279D01*
X51235555Y-50782887D01*
X51253918Y-50692207D01*
X51253918Y-49692207D01*
X51237978Y-49607493D01*
X51187912Y-49529689D01*
X51111520Y-49477492D01*
X51020840Y-49459129D01*
X47020840Y-49459129D01*
X46936126Y-49475069D01*
X46908600Y-49492782D01*
X46908600Y-49276407D01*
X48696990Y-49276407D01*
X48843040Y-49130357D01*
X48843040Y-48370007D01*
X48823040Y-48370007D01*
X48823040Y-48130540D01*
X49121428Y-48130540D01*
X49166293Y-48479424D01*
X49198640Y-48557517D01*
X49198640Y-49130357D01*
X49344690Y-49276407D01*
X51137044Y-49276407D01*
X51351762Y-49187468D01*
X51516101Y-49023130D01*
X51605040Y-48808412D01*
X51605040Y-48516057D01*
X51458990Y-48370007D01*
X50888760Y-48370007D01*
X50920252Y-48253874D01*
X50889458Y-48014407D01*
X51458990Y-48014407D01*
X51605040Y-47868357D01*
X51605040Y-47576002D01*
X51516101Y-47361284D01*
X51351762Y-47196946D01*
X51137044Y-47108007D01*
X49344690Y-47108007D01*
X49198640Y-47254057D01*
X49198640Y-47845809D01*
X49121428Y-48130540D01*
X48823040Y-48130540D01*
X48823040Y-48014407D01*
X48843040Y-48014407D01*
X48843040Y-47254057D01*
X48696990Y-47108007D01*
X46908600Y-47108007D01*
X46908600Y-46892191D01*
X46930160Y-46906922D01*
X47020840Y-46925285D01*
X51020840Y-46925285D01*
X51105554Y-46909345D01*
X51183358Y-46859279D01*
X51235555Y-46782887D01*
X51253918Y-46692207D01*
X51253918Y-45692207D01*
X51237978Y-45607493D01*
X51237121Y-45606160D01*
X54084085Y-45606160D01*
X54084085Y-46548514D01*
X54173024Y-46763232D01*
X54337362Y-46927571D01*
X54552080Y-47016510D01*
X54602235Y-47016510D01*
X54748285Y-46870460D01*
X54748285Y-45460110D01*
X54230135Y-45460110D01*
X54084085Y-45606160D01*
X51237121Y-45606160D01*
X51187912Y-45529689D01*
X51111520Y-45477492D01*
X51020840Y-45459129D01*
X47020840Y-45459129D01*
X46936126Y-45475069D01*
X46908600Y-45492782D01*
X46908600Y-45428600D01*
X51330000Y-45428600D01*
X51436616Y-45407393D01*
X51527000Y-45347000D01*
X51587393Y-45256616D01*
X51608600Y-45150000D01*
X51608600Y-44016106D01*
X54084085Y-44016106D01*
X54084085Y-44958460D01*
X54230135Y-45104510D01*
X54748285Y-45104510D01*
X54748285Y-43694160D01*
X54908285Y-43694160D01*
X54908285Y-45104510D01*
X54988285Y-45104510D01*
X54988285Y-45460110D01*
X54908285Y-45460110D01*
X54908285Y-46870460D01*
X55054335Y-47016510D01*
X55104490Y-47016510D01*
X55319208Y-46927571D01*
X55483546Y-46763232D01*
X55544017Y-46617242D01*
X55587605Y-46647025D01*
X55678285Y-46665388D01*
X56478285Y-46665388D01*
X56485523Y-46664026D01*
X56522311Y-46753061D01*
X56656826Y-46887810D01*
X56832668Y-46960826D01*
X57023067Y-46960993D01*
X57199036Y-46888284D01*
X57333785Y-46753769D01*
X57406801Y-46577927D01*
X57406968Y-46387528D01*
X57334259Y-46211559D01*
X57211363Y-46088449D01*
X57211363Y-44382310D01*
X57195423Y-44297596D01*
X57145357Y-44219792D01*
X57068965Y-44167595D01*
X56978285Y-44149232D01*
X56711363Y-44149232D01*
X56711363Y-44132310D01*
X56695423Y-44047596D01*
X56645357Y-43969792D01*
X56568965Y-43917595D01*
X56478285Y-43899232D01*
X55678285Y-43899232D01*
X55593571Y-43915172D01*
X55543913Y-43947127D01*
X55483546Y-43801388D01*
X55319208Y-43637049D01*
X55104490Y-43548110D01*
X55054335Y-43548110D01*
X54908285Y-43694160D01*
X54748285Y-43694160D01*
X54602235Y-43548110D01*
X54552080Y-43548110D01*
X54337362Y-43637049D01*
X54173024Y-43801388D01*
X54084085Y-44016106D01*
X51608600Y-44016106D01*
X51608600Y-38915740D01*
X54084085Y-38915740D01*
X54084085Y-39858094D01*
X54173024Y-40072812D01*
X54337362Y-40237151D01*
X54552080Y-40326090D01*
X54602235Y-40326090D01*
X54748285Y-40180040D01*
X54748285Y-38769690D01*
X54230135Y-38769690D01*
X54084085Y-38915740D01*
X51608600Y-38915740D01*
X51608600Y-37325686D01*
X54084085Y-37325686D01*
X54084085Y-38268040D01*
X54230135Y-38414090D01*
X54748285Y-38414090D01*
X54748285Y-37003740D01*
X54908285Y-37003740D01*
X54908285Y-38414090D01*
X54988285Y-38414090D01*
X54988285Y-38769690D01*
X54908285Y-38769690D01*
X54908285Y-40180040D01*
X55054335Y-40326090D01*
X55104490Y-40326090D01*
X55319208Y-40237151D01*
X55483546Y-40072812D01*
X55544017Y-39926822D01*
X55587605Y-39956605D01*
X55678285Y-39974968D01*
X56478285Y-39974968D01*
X56485523Y-39973606D01*
X56522311Y-40062641D01*
X56656826Y-40197390D01*
X56832668Y-40270406D01*
X57023067Y-40270573D01*
X57199036Y-40197864D01*
X57333785Y-40063349D01*
X57406801Y-39887507D01*
X57406968Y-39697108D01*
X57334259Y-39521139D01*
X57211363Y-39398029D01*
X57211363Y-37691890D01*
X57195423Y-37607176D01*
X57145357Y-37529372D01*
X57068965Y-37477175D01*
X56978285Y-37458812D01*
X56711363Y-37458812D01*
X56711363Y-37441890D01*
X56695423Y-37357176D01*
X56645357Y-37279372D01*
X56568965Y-37227175D01*
X56478285Y-37208812D01*
X55678285Y-37208812D01*
X55593571Y-37224752D01*
X55543913Y-37256707D01*
X55483546Y-37110968D01*
X55319208Y-36946629D01*
X55104490Y-36857690D01*
X55054335Y-36857690D01*
X54908285Y-37003740D01*
X54748285Y-37003740D01*
X54602235Y-36857690D01*
X54552080Y-36857690D01*
X54337362Y-36946629D01*
X54173024Y-37110968D01*
X54084085Y-37325686D01*
X51608600Y-37325686D01*
X51608600Y-36339244D01*
X52697517Y-36339244D01*
X52984052Y-36506675D01*
X53312848Y-36551707D01*
X53460909Y-36529579D01*
X53511586Y-36361373D01*
X53218882Y-35874232D01*
X52731741Y-36166936D01*
X52697517Y-36339244D01*
X51608600Y-36339244D01*
X51608600Y-35753906D01*
X52412647Y-35753906D01*
X52434775Y-35901967D01*
X52602981Y-35952644D01*
X52947772Y-35745472D01*
X53433174Y-35745472D01*
X53725878Y-36232613D01*
X53898186Y-36266837D01*
X54065617Y-35980302D01*
X54110649Y-35651506D01*
X54088521Y-35503445D01*
X53920315Y-35452768D01*
X53433174Y-35745472D01*
X52947772Y-35745472D01*
X53090122Y-35659940D01*
X52797418Y-35172799D01*
X52625110Y-35138575D01*
X52457679Y-35425110D01*
X52412647Y-35753906D01*
X51608600Y-35753906D01*
X51608600Y-35044039D01*
X53011710Y-35044039D01*
X53304414Y-35531180D01*
X53791555Y-35238476D01*
X53825779Y-35066168D01*
X53539244Y-34898737D01*
X53210448Y-34853705D01*
X53062387Y-34875833D01*
X53011710Y-35044039D01*
X51608600Y-35044039D01*
X51608600Y-33948972D01*
X65682604Y-33948972D01*
X65684664Y-34155508D01*
X66691827Y-35142782D01*
X67054542Y-34772759D01*
X67052483Y-34566223D01*
X66545495Y-34069247D01*
X66379526Y-33906556D01*
X66163932Y-33819762D01*
X65931534Y-33822079D01*
X65717714Y-33913155D01*
X65682604Y-33948972D01*
X51608600Y-33948972D01*
X51608600Y-32225320D01*
X54084085Y-32225320D01*
X54084085Y-33167674D01*
X54173024Y-33382392D01*
X54337362Y-33546731D01*
X54552080Y-33635670D01*
X54602235Y-33635670D01*
X54748285Y-33489620D01*
X54748285Y-32079270D01*
X54230135Y-32079270D01*
X54084085Y-32225320D01*
X51608600Y-32225320D01*
X51608600Y-30635266D01*
X54084085Y-30635266D01*
X54084085Y-31577620D01*
X54230135Y-31723670D01*
X54748285Y-31723670D01*
X54748285Y-30313320D01*
X54908285Y-30313320D01*
X54908285Y-31723670D01*
X54988285Y-31723670D01*
X54988285Y-32079270D01*
X54908285Y-32079270D01*
X54908285Y-33489620D01*
X55054335Y-33635670D01*
X55104490Y-33635670D01*
X55319208Y-33546731D01*
X55483546Y-33382392D01*
X55544017Y-33236402D01*
X55587605Y-33266185D01*
X55678285Y-33284548D01*
X56478285Y-33284548D01*
X56485523Y-33283186D01*
X56522311Y-33372221D01*
X56656826Y-33506970D01*
X56832668Y-33579986D01*
X57023067Y-33580153D01*
X57199036Y-33507444D01*
X57333785Y-33372929D01*
X57406801Y-33197087D01*
X57406968Y-33006688D01*
X57334259Y-32830719D01*
X57211363Y-32707609D01*
X57211363Y-31366543D01*
X59202910Y-31366543D01*
X59275619Y-31542512D01*
X59410134Y-31677261D01*
X59585976Y-31750277D01*
X59762565Y-31750432D01*
X60974280Y-32950777D01*
X61045681Y-32999072D01*
X61136191Y-33018259D01*
X61227034Y-33000722D01*
X61303898Y-32949223D01*
X61491748Y-32759594D01*
X61503770Y-32771503D01*
X61575171Y-32819798D01*
X61665681Y-32838985D01*
X61756524Y-32821448D01*
X61833388Y-32769949D01*
X62396401Y-32201603D01*
X62444696Y-32130202D01*
X62456942Y-32072435D01*
X62602964Y-32132114D01*
X62835371Y-32131019D01*
X63049667Y-32041069D01*
X63084965Y-32005437D01*
X63083991Y-31798894D01*
X62082033Y-30806337D01*
X62025732Y-30863171D01*
X61853614Y-30692668D01*
X62194636Y-30692668D01*
X63196594Y-31685224D01*
X63403137Y-31684251D01*
X63438435Y-31648619D01*
X63526361Y-31433484D01*
X63525265Y-31201077D01*
X63435314Y-30986781D01*
X63270204Y-30823219D01*
X62765836Y-30323584D01*
X62559292Y-30324558D01*
X62194636Y-30692668D01*
X61853614Y-30692668D01*
X61773103Y-30612913D01*
X61829404Y-30556078D01*
X60827446Y-29563522D01*
X60620903Y-29564495D01*
X60585605Y-29600127D01*
X60497679Y-29815262D01*
X60498775Y-30047669D01*
X60559934Y-30193372D01*
X60508100Y-30203378D01*
X60431236Y-30254877D01*
X59868223Y-30823223D01*
X59864097Y-30829324D01*
X59777210Y-30793245D01*
X59586811Y-30793078D01*
X59410842Y-30865787D01*
X59276093Y-31000302D01*
X59203077Y-31176144D01*
X59202910Y-31366543D01*
X57211363Y-31366543D01*
X57211363Y-31001470D01*
X57195423Y-30916756D01*
X57145357Y-30838952D01*
X57068965Y-30786755D01*
X56978285Y-30768392D01*
X56711363Y-30768392D01*
X56711363Y-30751470D01*
X56695423Y-30666756D01*
X56645357Y-30588952D01*
X56568965Y-30536755D01*
X56478285Y-30518392D01*
X55678285Y-30518392D01*
X55593571Y-30534332D01*
X55543913Y-30566287D01*
X55483546Y-30420548D01*
X55319208Y-30256209D01*
X55104490Y-30167270D01*
X55054335Y-30167270D01*
X54908285Y-30313320D01*
X54748285Y-30313320D01*
X54602235Y-30167270D01*
X54552080Y-30167270D01*
X54337362Y-30256209D01*
X54173024Y-30420548D01*
X54084085Y-30635266D01*
X51608600Y-30635266D01*
X51608600Y-29243309D01*
X60939075Y-29243309D01*
X60940049Y-29449852D01*
X61942007Y-30442409D01*
X62306663Y-30074299D01*
X62305689Y-29867755D01*
X61801322Y-29368120D01*
X61636211Y-29204558D01*
X61421076Y-29116632D01*
X61188669Y-29117727D01*
X60974373Y-29207677D01*
X60939075Y-29243309D01*
X51608600Y-29243309D01*
X51608600Y-26690588D01*
X54332989Y-26690588D01*
X54405698Y-26866557D01*
X54540213Y-27001306D01*
X54716055Y-27074322D01*
X54901019Y-27074484D01*
X56129043Y-28255525D01*
X56201151Y-28302759D01*
X56291934Y-28320606D01*
X56382509Y-28301728D01*
X56458602Y-28249098D01*
X56643628Y-28056711D01*
X56655825Y-28068441D01*
X56727933Y-28115675D01*
X56818716Y-28133522D01*
X56909290Y-28114644D01*
X56985384Y-28062014D01*
X57539932Y-27485406D01*
X57587166Y-27413298D01*
X57598557Y-27355357D01*
X57745444Y-27412870D01*
X57977810Y-27408339D01*
X58190753Y-27315230D01*
X58225520Y-27279081D01*
X58221492Y-27072574D01*
X57204968Y-26094941D01*
X57149514Y-26152602D01*
X56969650Y-25979619D01*
X57315878Y-25979619D01*
X58332402Y-26957253D01*
X58538908Y-26953225D01*
X58573675Y-26917075D01*
X58658411Y-26700664D01*
X58653878Y-26468299D01*
X58560769Y-26255356D01*
X58393258Y-26094253D01*
X57881558Y-25602130D01*
X57675052Y-25606158D01*
X57315878Y-25979619D01*
X56969650Y-25979619D01*
X56893211Y-25906105D01*
X56948666Y-25848445D01*
X55932142Y-24870811D01*
X55725636Y-24874839D01*
X55690869Y-24910989D01*
X55606133Y-25127400D01*
X55610666Y-25359765D01*
X55673972Y-25504548D01*
X55622292Y-25515320D01*
X55546198Y-25567950D01*
X54991650Y-26144558D01*
X54987653Y-26150660D01*
X54907289Y-26117290D01*
X54716890Y-26117123D01*
X54540921Y-26189832D01*
X54406172Y-26324347D01*
X54333156Y-26500189D01*
X54332989Y-26690588D01*
X51608600Y-26690588D01*
X51608600Y-24548983D01*
X56039024Y-24548983D01*
X56043052Y-24755490D01*
X57059576Y-25733123D01*
X57418749Y-25359661D01*
X57414722Y-25153155D01*
X56903022Y-24661032D01*
X56735511Y-24499929D01*
X56519100Y-24415194D01*
X56286734Y-24419725D01*
X56073791Y-24512834D01*
X56039024Y-24548983D01*
X51608600Y-24548983D01*
X51608600Y-18858600D01*
X54236409Y-18858600D01*
X70545199Y-34809175D01*
G36*
X50266772Y-48158407D02*
X50232972Y-48192207D01*
X50266772Y-48226007D01*
X50122772Y-48370007D01*
X49918908Y-48370007D01*
X49774908Y-48226007D01*
X49808708Y-48192207D01*
X49774908Y-48158407D01*
X49918908Y-48014407D01*
X50122772Y-48014407D01*
X50266772Y-48158407D01*
X50266772Y-48158407D01*
G37*
X50266772Y-48158407D02*
X50232972Y-48192207D01*
X50266772Y-48226007D01*
X50122772Y-48370007D01*
X49918908Y-48370007D01*
X49774908Y-48226007D01*
X49808708Y-48192207D01*
X49774908Y-48158407D01*
X49918908Y-48014407D01*
X50122772Y-48014407D01*
X50266772Y-48158407D01*
G36*
X80856722Y-48158407D02*
X80822922Y-48192207D01*
X80856722Y-48226007D01*
X80712722Y-48370007D01*
X80508858Y-48370007D01*
X80364858Y-48226007D01*
X80398658Y-48192207D01*
X80364858Y-48158407D01*
X80508858Y-48014407D01*
X80712722Y-48014407D01*
X80856722Y-48158407D01*
X80856722Y-48158407D01*
G37*
X80856722Y-48158407D02*
X80822922Y-48192207D01*
X80856722Y-48226007D01*
X80712722Y-48370007D01*
X80508858Y-48370007D01*
X80364858Y-48226007D01*
X80398658Y-48192207D01*
X80364858Y-48158407D01*
X80508858Y-48014407D01*
X80712722Y-48014407D01*
X80856722Y-48158407D01*
M02*
