G04 #@! TF.FileFunction,Copper,L2,Bot,Signal*
%FSLAX46Y46*%
G04 Gerber Fmt 4.6, Leading zero omitted, Abs format (unit mm)*
G04 Created by KiCad (PCBNEW 4.0.0-rc2-stable) date 3/3/2016 3:47:50 PM*
%MOMM*%
G01*
G04 APERTURE LIST*
%ADD10C,0.150000*%
%ADD11C,0.500000*%
%ADD12R,4.000000X1.000000*%
%ADD13C,0.600000*%
%ADD14R,2.600000X3.000000*%
%ADD15R,3.600000X3.000000*%
%ADD16C,0.254000*%
%ADD17C,0.152400*%
G04 APERTURE END LIST*
D10*
D11*
X73207390Y-23397104D03*
X67372870Y-23397104D03*
X61538347Y-23397104D03*
X55703820Y-23397104D03*
X62456902Y-47811991D03*
X62445535Y-41609438D03*
X62434547Y-35414995D03*
X62400397Y-29235215D03*
D12*
X77811740Y-50192207D03*
X77811740Y-48192207D03*
X77811740Y-46192207D03*
D13*
X76811740Y-50192207D03*
X76811740Y-48192207D03*
X76811740Y-46192207D03*
D12*
X49020844Y-46192207D03*
X49020844Y-48192207D03*
X49020844Y-50192207D03*
D13*
X50020844Y-46192207D03*
X50020844Y-48192207D03*
X50020844Y-50192207D03*
D14*
X65025270Y-42662594D03*
D15*
X65025270Y-21262594D03*
D11*
X65025270Y-19362594D03*
D10*
G36*
X68161098Y-50949343D02*
X68157433Y-48949346D01*
X68917432Y-48947953D01*
X68921097Y-50947950D01*
X68161098Y-50949343D01*
X68161098Y-50949343D01*
G37*
G36*
X69431096Y-50947016D02*
X69427431Y-48947019D01*
X70187430Y-48945626D01*
X70191095Y-50945623D01*
X69431096Y-50947016D01*
X69431096Y-50947016D01*
G37*
G36*
X70701094Y-50944689D02*
X70697429Y-48944692D01*
X71457428Y-48943299D01*
X71461093Y-50943296D01*
X70701094Y-50944689D01*
X70701094Y-50944689D01*
G37*
G36*
X71971091Y-50942362D02*
X71967426Y-48942365D01*
X72727425Y-48940972D01*
X72731090Y-50940969D01*
X71971091Y-50942362D01*
X71971091Y-50942362D01*
G37*
G36*
X68155235Y-47749348D02*
X68151570Y-45749351D01*
X68911569Y-45747958D01*
X68915234Y-47747955D01*
X68155235Y-47749348D01*
X68155235Y-47749348D01*
G37*
G36*
X69425232Y-47747021D02*
X69421567Y-45747024D01*
X70181566Y-45745631D01*
X70185231Y-47745628D01*
X69425232Y-47747021D01*
X69425232Y-47747021D01*
G37*
G36*
X70695230Y-47744694D02*
X70691565Y-45744697D01*
X71451564Y-45743304D01*
X71455229Y-47743301D01*
X70695230Y-47744694D01*
X70695230Y-47744694D01*
G37*
G36*
X71975228Y-47742348D02*
X71971563Y-45742352D01*
X72711562Y-45740996D01*
X72715227Y-47740992D01*
X71975228Y-47742348D01*
X71975228Y-47742348D01*
G37*
G36*
X66887671Y-46351668D02*
X66886572Y-45751669D01*
X67786571Y-45750020D01*
X67787670Y-46350019D01*
X66887671Y-46351668D01*
X66887671Y-46351668D01*
G37*
G36*
X66890419Y-47851665D02*
X66889320Y-47251666D01*
X67789319Y-47250017D01*
X67790418Y-47850016D01*
X66890419Y-47851665D01*
X66890419Y-47851665D01*
G37*
G36*
X65640422Y-47853956D02*
X65639323Y-47253957D01*
X66539322Y-47252308D01*
X66540421Y-47852307D01*
X65640422Y-47853956D01*
X65640422Y-47853956D01*
G37*
G36*
X65637673Y-46353958D02*
X65636574Y-45753959D01*
X66536573Y-45752310D01*
X66537672Y-46352309D01*
X65637673Y-46353958D01*
X65637673Y-46353958D01*
G37*
G36*
X64387675Y-46356248D02*
X64386576Y-45756249D01*
X65286575Y-45754600D01*
X65287674Y-46354599D01*
X64387675Y-46356248D01*
X64387675Y-46356248D01*
G37*
G36*
X64390424Y-47856246D02*
X64389325Y-47256247D01*
X65289324Y-47254598D01*
X65290423Y-47854597D01*
X64390424Y-47856246D01*
X64390424Y-47856246D01*
G37*
G36*
X67539961Y-47600474D02*
X67539595Y-47400475D01*
X68439593Y-47398826D01*
X68439959Y-47598825D01*
X67539961Y-47600474D01*
X67539961Y-47600474D01*
G37*
G36*
X66091154Y-48253130D02*
X66090788Y-48053130D01*
X69890782Y-48046168D01*
X69891148Y-48246168D01*
X66091154Y-48253130D01*
X66091154Y-48253130D01*
G37*
G36*
X64741981Y-48705604D02*
X64741614Y-48505604D01*
X71241603Y-48493694D01*
X71241970Y-48693694D01*
X64741981Y-48705604D01*
X64741981Y-48705604D01*
G37*
G36*
X66090971Y-48153131D02*
X66090238Y-47753132D01*
X66290237Y-47752765D01*
X66290970Y-48152764D01*
X66090971Y-48153131D01*
X66090971Y-48153131D01*
G37*
G36*
X69690965Y-48146535D02*
X69690232Y-47746536D01*
X69890231Y-47746169D01*
X69890964Y-48146168D01*
X69690965Y-48146535D01*
X69690965Y-48146535D01*
G37*
G36*
X71041695Y-48544061D02*
X71040229Y-47744062D01*
X71240229Y-47743695D01*
X71241695Y-48543694D01*
X71041695Y-48544061D01*
X71041695Y-48544061D01*
G37*
G36*
X64741706Y-48555604D02*
X64740240Y-47755605D01*
X64940240Y-47755238D01*
X64941706Y-48555237D01*
X64741706Y-48555604D01*
X64741706Y-48555604D01*
G37*
G36*
X65137308Y-46154875D02*
X65136941Y-45954875D01*
X67136938Y-45951211D01*
X67137305Y-46151211D01*
X65137308Y-46154875D01*
X65137308Y-46154875D01*
G37*
D16*
X65030000Y-21260000D02*
X65030000Y-19360000D01*
X65030000Y-21260000D02*
X65030000Y-19360000D01*
X65030000Y-21260000D02*
X65030000Y-19360000D01*
X65030000Y-21260000D02*
X65030000Y-19360000D01*
X65030000Y-21260000D02*
X65030000Y-19360000D01*
X65030000Y-21260000D02*
X65030000Y-19360000D01*
X65030000Y-21260000D02*
X65030000Y-19360000D01*
X65030000Y-21260000D02*
X65030000Y-19360000D01*
X65030000Y-21260000D02*
X65030000Y-19360000D01*
X65030000Y-42660000D02*
X66140000Y-46050000D01*
X65030000Y-42660000D02*
X66140000Y-46050000D01*
X65030000Y-42660000D02*
X66140000Y-46050000D01*
X65030000Y-42660000D02*
X66140000Y-46050000D01*
X65030000Y-42660000D02*
X66140000Y-46050000D01*
X65030000Y-42660000D02*
X66140000Y-46050000D01*
X65030000Y-42660000D02*
X66140000Y-46050000D01*
X65030000Y-42660000D02*
X66140000Y-46050000D01*
X65030000Y-42660000D02*
X66140000Y-46050000D01*
D17*
G36*
X64619770Y-19091135D02*
X64546754Y-19266977D01*
X64546587Y-19457376D01*
X64576395Y-19529516D01*
X63225270Y-19529516D01*
X63140556Y-19545456D01*
X63062752Y-19595522D01*
X63010555Y-19671914D01*
X62992192Y-19762594D01*
X62992192Y-22762594D01*
X63008132Y-22847308D01*
X63058198Y-22925112D01*
X63134590Y-22977309D01*
X63225270Y-22995672D01*
X66719988Y-22995672D01*
X66723003Y-22998687D01*
X66618764Y-23003723D01*
X66525626Y-23322251D01*
X66561474Y-23652175D01*
X66618764Y-23790485D01*
X66794234Y-23798963D01*
X67196093Y-23397104D01*
X67549647Y-23397104D01*
X67951506Y-23798963D01*
X68126976Y-23790485D01*
X68220114Y-23471957D01*
X68203848Y-23322251D01*
X72360146Y-23322251D01*
X72395994Y-23652175D01*
X72453284Y-23790485D01*
X72628754Y-23798963D01*
X73030613Y-23397104D01*
X73384167Y-23397104D01*
X73786026Y-23798963D01*
X73961496Y-23790485D01*
X74054634Y-23471957D01*
X74018786Y-23142033D01*
X73961496Y-23003723D01*
X73786026Y-22995245D01*
X73384167Y-23397104D01*
X73030613Y-23397104D01*
X72628754Y-22995245D01*
X72453284Y-23003723D01*
X72360146Y-23322251D01*
X68203848Y-23322251D01*
X68184266Y-23142033D01*
X68126976Y-23003723D01*
X67951506Y-22995245D01*
X67549647Y-23397104D01*
X67196093Y-23397104D01*
X67144616Y-23345627D01*
X67321393Y-23168850D01*
X67372870Y-23220327D01*
X67774729Y-22818468D01*
X72805531Y-22818468D01*
X73207390Y-23220327D01*
X73609249Y-22818468D01*
X73600771Y-22642998D01*
X73282243Y-22549860D01*
X72952319Y-22585708D01*
X72814009Y-22642998D01*
X72805531Y-22818468D01*
X67774729Y-22818468D01*
X67766251Y-22642998D01*
X67447723Y-22549860D01*
X67117799Y-22585708D01*
X67058348Y-22610333D01*
X67058348Y-19762594D01*
X67042408Y-19677880D01*
X66992342Y-19600076D01*
X66915950Y-19547879D01*
X66825270Y-19529516D01*
X65474178Y-19529516D01*
X65503786Y-19458211D01*
X65503953Y-19267812D01*
X65431244Y-19091843D01*
X65338163Y-18998600D01*
X75151400Y-18998600D01*
X75151400Y-25861400D01*
X67500000Y-25861400D01*
X67393384Y-25882607D01*
X67303000Y-25943000D01*
X67242607Y-26033384D01*
X67221400Y-26140000D01*
X67221400Y-45150000D01*
X67242607Y-45256616D01*
X67303000Y-45347000D01*
X67393384Y-45407393D01*
X67500000Y-45428600D01*
X75288596Y-45428600D01*
X75227540Y-45576002D01*
X75227540Y-45868357D01*
X75373590Y-46014407D01*
X75943820Y-46014407D01*
X75912328Y-46130540D01*
X75943122Y-46370007D01*
X75373590Y-46370007D01*
X75227540Y-46516057D01*
X75227540Y-46808412D01*
X75316479Y-47023130D01*
X75480818Y-47187468D01*
X75695536Y-47276407D01*
X77487890Y-47276407D01*
X77633940Y-47130357D01*
X77633940Y-46538605D01*
X77711152Y-46253874D01*
X77677786Y-45994407D01*
X77989540Y-45994407D01*
X77989540Y-46014407D01*
X78009540Y-46014407D01*
X78009540Y-46370007D01*
X77989540Y-46370007D01*
X77989540Y-47130357D01*
X78135590Y-47276407D01*
X79841400Y-47276407D01*
X79841400Y-47465135D01*
X79811740Y-47459129D01*
X75811740Y-47459129D01*
X75727026Y-47475069D01*
X75649222Y-47525135D01*
X75597025Y-47601527D01*
X75578662Y-47692207D01*
X75578662Y-48692207D01*
X75594602Y-48776921D01*
X75644668Y-48854725D01*
X75721060Y-48906922D01*
X75811740Y-48925285D01*
X79811740Y-48925285D01*
X79841400Y-48919704D01*
X79841400Y-49108007D01*
X78135590Y-49108007D01*
X77989540Y-49254057D01*
X77989540Y-50014407D01*
X78009540Y-50014407D01*
X78009540Y-50370007D01*
X77989540Y-50370007D01*
X77989540Y-50390007D01*
X77674236Y-50390007D01*
X77711152Y-50253874D01*
X77666287Y-49904990D01*
X77633940Y-49826897D01*
X77633940Y-49254057D01*
X77487890Y-49108007D01*
X75695536Y-49108007D01*
X75480818Y-49196946D01*
X75316479Y-49361284D01*
X75227540Y-49576002D01*
X75227540Y-49868357D01*
X75373590Y-50014407D01*
X75943820Y-50014407D01*
X75912328Y-50130540D01*
X75943122Y-50370007D01*
X75373590Y-50370007D01*
X75227540Y-50516057D01*
X75227540Y-50808412D01*
X75253630Y-50871400D01*
X73315163Y-50871400D01*
X73315076Y-50823694D01*
X73314050Y-50263750D01*
X73167732Y-50117968D01*
X72527383Y-50119141D01*
X72527420Y-50139141D01*
X72171821Y-50139792D01*
X72171784Y-50119792D01*
X71535714Y-50120958D01*
X71257386Y-50121468D01*
X71257423Y-50141468D01*
X70901824Y-50142119D01*
X70901787Y-50122119D01*
X70266890Y-50123283D01*
X69987388Y-50123795D01*
X69987425Y-50143795D01*
X69631826Y-50144446D01*
X69631789Y-50124446D01*
X68996892Y-50125610D01*
X68717390Y-50126122D01*
X68717427Y-50146122D01*
X68361828Y-50146773D01*
X68361791Y-50126773D01*
X67721442Y-50127947D01*
X67575660Y-50274264D01*
X67576686Y-50834208D01*
X67576754Y-50871400D01*
X67500000Y-50871400D01*
X67449726Y-50881400D01*
X59350274Y-50881400D01*
X59300000Y-50871400D01*
X51578954Y-50871400D01*
X51605044Y-50808412D01*
X51605044Y-50516057D01*
X51458994Y-50370007D01*
X50888764Y-50370007D01*
X50920256Y-50253874D01*
X50889462Y-50014407D01*
X51458994Y-50014407D01*
X51605044Y-49868357D01*
X51605044Y-49576002D01*
X51516105Y-49361284D01*
X51351766Y-49196946D01*
X51137048Y-49108007D01*
X49344694Y-49108007D01*
X49198644Y-49254057D01*
X49198644Y-49845809D01*
X49121432Y-50130540D01*
X49154798Y-50390007D01*
X48843044Y-50390007D01*
X48843044Y-50370007D01*
X48823044Y-50370007D01*
X48823044Y-50014407D01*
X48843044Y-50014407D01*
X48843044Y-49254057D01*
X48696994Y-49108007D01*
X46908600Y-49108007D01*
X46908600Y-48892188D01*
X46930164Y-48906922D01*
X47020844Y-48925285D01*
X51020844Y-48925285D01*
X51105558Y-48909345D01*
X51183362Y-48859279D01*
X51235559Y-48782887D01*
X51253922Y-48692207D01*
X51253922Y-48391363D01*
X62056104Y-48391363D01*
X62064904Y-48566817D01*
X62383602Y-48659371D01*
X62713460Y-48622918D01*
X62851665Y-48565375D01*
X62859821Y-48389890D01*
X62457226Y-47988767D01*
X62056104Y-48391363D01*
X51253922Y-48391363D01*
X51253922Y-47738691D01*
X61609522Y-47738691D01*
X61645975Y-48068549D01*
X61703518Y-48206754D01*
X61879003Y-48214910D01*
X62280126Y-47812315D01*
X62279476Y-47811667D01*
X62633678Y-47811667D01*
X63036274Y-48212789D01*
X63211728Y-48203989D01*
X63304282Y-47885291D01*
X63267829Y-47555433D01*
X63210286Y-47417228D01*
X63034801Y-47409072D01*
X62633678Y-47811667D01*
X62279476Y-47811667D01*
X61877530Y-47411193D01*
X61702076Y-47419993D01*
X61609522Y-47738691D01*
X51253922Y-47738691D01*
X51253922Y-47692207D01*
X51237982Y-47607493D01*
X51187916Y-47529689D01*
X51111524Y-47477492D01*
X51020844Y-47459129D01*
X47020844Y-47459129D01*
X46936130Y-47475069D01*
X46908600Y-47492784D01*
X46908600Y-47276407D01*
X48696994Y-47276407D01*
X48843044Y-47130357D01*
X48843044Y-46370007D01*
X48823044Y-46370007D01*
X48823044Y-46014407D01*
X48843044Y-46014407D01*
X48843044Y-45994407D01*
X49158348Y-45994407D01*
X49121432Y-46130540D01*
X49166297Y-46479424D01*
X49198644Y-46557517D01*
X49198644Y-47130357D01*
X49344694Y-47276407D01*
X51137048Y-47276407D01*
X51239205Y-47234092D01*
X62053983Y-47234092D01*
X62456578Y-47635215D01*
X62857700Y-47232619D01*
X62848900Y-47057165D01*
X62530202Y-46964611D01*
X62200344Y-47001064D01*
X62062139Y-47058607D01*
X62053983Y-47234092D01*
X51239205Y-47234092D01*
X51351766Y-47187468D01*
X51516105Y-47023130D01*
X51605044Y-46808412D01*
X51605044Y-46516057D01*
X51458994Y-46370007D01*
X50888764Y-46370007D01*
X50920256Y-46253874D01*
X50889462Y-46014407D01*
X51458994Y-46014407D01*
X51605044Y-45868357D01*
X51605044Y-45576002D01*
X51543988Y-45428600D01*
X59300000Y-45428600D01*
X59406616Y-45407393D01*
X59497000Y-45347000D01*
X59557393Y-45256616D01*
X59578600Y-45150000D01*
X59578600Y-42188810D01*
X62044737Y-42188810D01*
X62053537Y-42364264D01*
X62372235Y-42456818D01*
X62702093Y-42420365D01*
X62840298Y-42362822D01*
X62848454Y-42187337D01*
X62445859Y-41786214D01*
X62044737Y-42188810D01*
X59578600Y-42188810D01*
X59578600Y-41536138D01*
X61598155Y-41536138D01*
X61634608Y-41865996D01*
X61692151Y-42004201D01*
X61867636Y-42012357D01*
X62268759Y-41609762D01*
X62268109Y-41609114D01*
X62622311Y-41609114D01*
X63024907Y-42010236D01*
X63200361Y-42001436D01*
X63292915Y-41682738D01*
X63256462Y-41352880D01*
X63198919Y-41214675D01*
X63023434Y-41206519D01*
X62622311Y-41609114D01*
X62268109Y-41609114D01*
X61866163Y-41208640D01*
X61690709Y-41217440D01*
X61598155Y-41536138D01*
X59578600Y-41536138D01*
X59578600Y-41031539D01*
X62042616Y-41031539D01*
X62445211Y-41432662D01*
X62714290Y-41162594D01*
X63492192Y-41162594D01*
X63492192Y-44162594D01*
X63508132Y-44247308D01*
X63558198Y-44325112D01*
X63634590Y-44377309D01*
X63725270Y-44395672D01*
X65224140Y-44395672D01*
X65595125Y-45528678D01*
X65551463Y-45536977D01*
X65473750Y-45587185D01*
X65461763Y-45604798D01*
X65453349Y-45591776D01*
X65376862Y-45539719D01*
X65286148Y-45521522D01*
X64386149Y-45523171D01*
X64301465Y-45539267D01*
X64223752Y-45589475D01*
X64171696Y-45665962D01*
X64153498Y-45756676D01*
X64154597Y-46356675D01*
X64170693Y-46441360D01*
X64220901Y-46519072D01*
X64297388Y-46571129D01*
X64388102Y-46589326D01*
X65288101Y-46587677D01*
X65372785Y-46571581D01*
X65450498Y-46521373D01*
X65462485Y-46503760D01*
X65470899Y-46516782D01*
X65547386Y-46568839D01*
X65638100Y-46587036D01*
X66538099Y-46585387D01*
X66622783Y-46569291D01*
X66700496Y-46519083D01*
X66712483Y-46501470D01*
X66720897Y-46514492D01*
X66797384Y-46566549D01*
X66888098Y-46584746D01*
X67788097Y-46583097D01*
X67872781Y-46567001D01*
X67919934Y-46536537D01*
X67920899Y-47063240D01*
X67879606Y-47035136D01*
X67788892Y-47016939D01*
X66888893Y-47018588D01*
X66804209Y-47034684D01*
X66726496Y-47084892D01*
X66714509Y-47102505D01*
X66706096Y-47089484D01*
X66629609Y-47037427D01*
X66538895Y-47019230D01*
X65638896Y-47020879D01*
X65554212Y-47036975D01*
X65476499Y-47087183D01*
X65464512Y-47104796D01*
X65456098Y-47091774D01*
X65379611Y-47039717D01*
X65288897Y-47021520D01*
X64388898Y-47023169D01*
X64304214Y-47039265D01*
X64226501Y-47089473D01*
X64174445Y-47165960D01*
X64156247Y-47256674D01*
X64157346Y-47856673D01*
X64173442Y-47941358D01*
X64223650Y-48019070D01*
X64300137Y-48071127D01*
X64390851Y-48089324D01*
X64507772Y-48089110D01*
X64508536Y-48506030D01*
X64508536Y-48506032D01*
X64508903Y-48706032D01*
X64524999Y-48790716D01*
X64575207Y-48868428D01*
X64651694Y-48920485D01*
X64742408Y-48938682D01*
X67573203Y-48933495D01*
X67573447Y-49066621D01*
X67574473Y-49626565D01*
X67720791Y-49772347D01*
X68361140Y-49771174D01*
X68361103Y-49751174D01*
X68716702Y-49750523D01*
X68716739Y-49770523D01*
X69351636Y-49769359D01*
X69631138Y-49768847D01*
X69631101Y-49748847D01*
X69986700Y-49748196D01*
X69986737Y-49768196D01*
X70621634Y-49767032D01*
X70901136Y-49766520D01*
X70901099Y-49746520D01*
X71256698Y-49745869D01*
X71256735Y-49765869D01*
X71892805Y-49764703D01*
X72171133Y-49764193D01*
X72168823Y-48503845D01*
X72168170Y-48503194D01*
X72524423Y-48503194D01*
X72526732Y-49763542D01*
X73167081Y-49762368D01*
X73312863Y-49616051D01*
X73311837Y-49056107D01*
X73311411Y-48823698D01*
X73222079Y-48609144D01*
X73057440Y-48445106D01*
X72842560Y-48356560D01*
X72670205Y-48356876D01*
X72524423Y-48503194D01*
X72168170Y-48503194D01*
X72022506Y-48358063D01*
X71850151Y-48358379D01*
X71711462Y-48416124D01*
X71572563Y-48358887D01*
X71474435Y-48359067D01*
X71473728Y-47972944D01*
X71540341Y-47960283D01*
X71618053Y-47910075D01*
X71670110Y-47833588D01*
X71688307Y-47742874D01*
X71684642Y-45742877D01*
X71684624Y-45742779D01*
X71738485Y-45742779D01*
X71742150Y-47742775D01*
X71758246Y-47827460D01*
X71808454Y-47905172D01*
X71884941Y-47957229D01*
X71975655Y-47975426D01*
X72715654Y-47974070D01*
X72800339Y-47957974D01*
X72878051Y-47907766D01*
X72930108Y-47831279D01*
X72948305Y-47740565D01*
X72944640Y-45740569D01*
X72928544Y-45655884D01*
X72878336Y-45578172D01*
X72801849Y-45526115D01*
X72711135Y-45507918D01*
X71971136Y-45509274D01*
X71886451Y-45525370D01*
X71808739Y-45575578D01*
X71756682Y-45652065D01*
X71738485Y-45742779D01*
X71684624Y-45742779D01*
X71668546Y-45658192D01*
X71618338Y-45580480D01*
X71541851Y-45528423D01*
X71451137Y-45510226D01*
X70691138Y-45511619D01*
X70606453Y-45527715D01*
X70528741Y-45577923D01*
X70476684Y-45654410D01*
X70458487Y-45745124D01*
X70462152Y-47745121D01*
X70478248Y-47829806D01*
X70528456Y-47907518D01*
X70604943Y-47959575D01*
X70695657Y-47977772D01*
X70807578Y-47977567D01*
X70808098Y-48261410D01*
X70120830Y-48262669D01*
X70124226Y-48245741D01*
X70123860Y-48045741D01*
X70123859Y-48045734D01*
X70123736Y-47978819D01*
X70185658Y-47978706D01*
X70270343Y-47962610D01*
X70348055Y-47912402D01*
X70400112Y-47835915D01*
X70418309Y-47745201D01*
X70414644Y-45745204D01*
X70398548Y-45660519D01*
X70348340Y-45582807D01*
X70271853Y-45530750D01*
X70181139Y-45512553D01*
X69421140Y-45513946D01*
X69336455Y-45530042D01*
X69258743Y-45580250D01*
X69206686Y-45656737D01*
X69188489Y-45747451D01*
X69192154Y-47747448D01*
X69204869Y-47814346D01*
X69134883Y-47814474D01*
X69148312Y-47747528D01*
X69144647Y-45747531D01*
X69128551Y-45662846D01*
X69078343Y-45585134D01*
X69001856Y-45533077D01*
X68911142Y-45514880D01*
X68151143Y-45516273D01*
X68066458Y-45532369D01*
X67988746Y-45582577D01*
X67969054Y-45611510D01*
X67953345Y-45587196D01*
X67876858Y-45535139D01*
X67786144Y-45516942D01*
X66886145Y-45518591D01*
X66801461Y-45534687D01*
X66723748Y-45584895D01*
X66711761Y-45602508D01*
X66703347Y-45589486D01*
X66626860Y-45537429D01*
X66536146Y-45519232D01*
X66340503Y-45519590D01*
X65972494Y-44395672D01*
X66325270Y-44395672D01*
X66409984Y-44379732D01*
X66487788Y-44329666D01*
X66539985Y-44253274D01*
X66558348Y-44162594D01*
X66558348Y-41162594D01*
X66542408Y-41077880D01*
X66492342Y-41000076D01*
X66415950Y-40947879D01*
X66325270Y-40929516D01*
X63725270Y-40929516D01*
X63640556Y-40945456D01*
X63562752Y-40995522D01*
X63510555Y-41071914D01*
X63492192Y-41162594D01*
X62714290Y-41162594D01*
X62846333Y-41030066D01*
X62837533Y-40854612D01*
X62518835Y-40762058D01*
X62188977Y-40798511D01*
X62050772Y-40856054D01*
X62042616Y-41031539D01*
X59578600Y-41031539D01*
X59578600Y-40210000D01*
X63763800Y-40210000D01*
X63763800Y-40240000D01*
X63769250Y-40268300D01*
X63789250Y-40318300D01*
X63797656Y-40333814D01*
X63819614Y-40354617D01*
X63899614Y-40404617D01*
X63940000Y-40416200D01*
X64010000Y-40416200D01*
X64037695Y-40410989D01*
X64063132Y-40394621D01*
X64080197Y-40369646D01*
X64086200Y-40340000D01*
X64086200Y-40197201D01*
X64152414Y-40116274D01*
X64297914Y-40013567D01*
X64358386Y-40006848D01*
X64461529Y-40022716D01*
X64841922Y-40279482D01*
X65097185Y-40524927D01*
X65120865Y-40540410D01*
X65410865Y-40660410D01*
X65430549Y-40665612D01*
X65590549Y-40685612D01*
X65600000Y-40686200D01*
X65770000Y-40686200D01*
X65775429Y-40686006D01*
X65915429Y-40676006D01*
X65927134Y-40674249D01*
X66187134Y-40614249D01*
X66210108Y-40604790D01*
X66420108Y-40474790D01*
X66436639Y-40460975D01*
X66616639Y-40260975D01*
X66625820Y-40248395D01*
X66695820Y-40128395D01*
X66706200Y-40090000D01*
X66706200Y-39950000D01*
X66705163Y-39937473D01*
X66695163Y-39877473D01*
X66682612Y-39846570D01*
X66660783Y-39825632D01*
X66632527Y-39814837D01*
X66572527Y-39804837D01*
X66560000Y-39803800D01*
X66490000Y-39803800D01*
X66473893Y-39805522D01*
X66446186Y-39817656D01*
X66425383Y-39839614D01*
X66282166Y-40068762D01*
X66041339Y-40263275D01*
X65885705Y-40323800D01*
X65674221Y-40323800D01*
X65515524Y-40306167D01*
X65034972Y-40008225D01*
X64709300Y-39731897D01*
X64677453Y-39715826D01*
X64507453Y-39675826D01*
X64486195Y-39673895D01*
X64286195Y-39683895D01*
X64269066Y-39686732D01*
X64059066Y-39746732D01*
X64024935Y-39767329D01*
X63804935Y-39997329D01*
X63794023Y-40011876D01*
X63784388Y-40040549D01*
X63764388Y-40200549D01*
X63763800Y-40210000D01*
X59578600Y-40210000D01*
X59578600Y-38670000D01*
X63923800Y-38670000D01*
X63923800Y-38700000D01*
X63935154Y-38740018D01*
X63955832Y-38762094D01*
X63983470Y-38774385D01*
X64163470Y-38814385D01*
X64182005Y-38816174D01*
X64562005Y-38806174D01*
X64566698Y-38805905D01*
X64823800Y-38783220D01*
X64823800Y-38938372D01*
X64784215Y-39065045D01*
X64771995Y-39074820D01*
X64537071Y-39083856D01*
X64530144Y-39084440D01*
X64070144Y-39144440D01*
X64052305Y-39149011D01*
X64026868Y-39165379D01*
X64009803Y-39190354D01*
X64003800Y-39220000D01*
X64003800Y-39360000D01*
X64009982Y-39390065D01*
X64027195Y-39414937D01*
X64052729Y-39431153D01*
X64082560Y-39436157D01*
X65271755Y-39396184D01*
X66040528Y-39386200D01*
X66140000Y-39386200D01*
X66152527Y-39385163D01*
X66212527Y-39375163D01*
X66243430Y-39362612D01*
X66264368Y-39340783D01*
X66275163Y-39312527D01*
X66285163Y-39252527D01*
X66286200Y-39240000D01*
X66286200Y-39170000D01*
X66284720Y-39155056D01*
X66274720Y-39105056D01*
X66268620Y-39086867D01*
X66250323Y-39062781D01*
X66224097Y-39047710D01*
X66164097Y-39027710D01*
X66134931Y-39023969D01*
X65537466Y-39063800D01*
X65166318Y-39063800D01*
X65185612Y-38909451D01*
X65186200Y-38900000D01*
X65186200Y-38771392D01*
X65574959Y-38746038D01*
X65580565Y-38745464D01*
X66080565Y-38675464D01*
X66106295Y-38667001D01*
X66129502Y-38647602D01*
X66169502Y-38597602D01*
X66180197Y-38579646D01*
X66186200Y-38550000D01*
X66186200Y-38480000D01*
X66180750Y-38451700D01*
X66160750Y-38401700D01*
X66150154Y-38383225D01*
X66127217Y-38363507D01*
X66098415Y-38354266D01*
X66008415Y-38344266D01*
X65994453Y-38344002D01*
X64624453Y-38444002D01*
X64619761Y-38444491D01*
X64029761Y-38524491D01*
X63993761Y-38539433D01*
X63973840Y-38562194D01*
X63933840Y-38632194D01*
X63923800Y-38670000D01*
X59578600Y-38670000D01*
X59578600Y-37890000D01*
X63823800Y-37890000D01*
X63823800Y-38040000D01*
X63833104Y-38076489D01*
X63893104Y-38186489D01*
X63923278Y-38216768D01*
X64123278Y-38326768D01*
X64149704Y-38335501D01*
X64369704Y-38365501D01*
X64394944Y-38364720D01*
X64544944Y-38334720D01*
X64582855Y-38314888D01*
X64852855Y-38054888D01*
X64866337Y-38037495D01*
X64976896Y-37841891D01*
X65337582Y-37805822D01*
X65364078Y-37798155D01*
X65419880Y-37770254D01*
X65573470Y-37804385D01*
X65590929Y-37806194D01*
X66410929Y-37796194D01*
X66422527Y-37795163D01*
X66482527Y-37785163D01*
X66511388Y-37773980D01*
X66533019Y-37752837D01*
X66544720Y-37724944D01*
X66554720Y-37674944D01*
X66556200Y-37660000D01*
X66556200Y-37550000D01*
X66552110Y-37525370D01*
X66536846Y-37499255D01*
X66512625Y-37481137D01*
X66483263Y-37473870D01*
X65785848Y-37443981D01*
X65518415Y-37414266D01*
X65475922Y-37421845D01*
X65457303Y-37431154D01*
X65454556Y-37428184D01*
X65426996Y-37415720D01*
X65396758Y-37414959D01*
X65232600Y-37443928D01*
X64719263Y-37453800D01*
X64620000Y-37453800D01*
X64592305Y-37459011D01*
X64566868Y-37475379D01*
X64556269Y-37490891D01*
X64546558Y-37479677D01*
X64519421Y-37466316D01*
X64489224Y-37464566D01*
X64209224Y-37504566D01*
X64177732Y-37516598D01*
X63937732Y-37676598D01*
X63912765Y-37704141D01*
X63832765Y-37854141D01*
X63823800Y-37890000D01*
X59578600Y-37890000D01*
X59578600Y-37154073D01*
X63744031Y-37154073D01*
X63747710Y-37184097D01*
X63767710Y-37244097D01*
X63779994Y-37266965D01*
X63802994Y-37286611D01*
X63892994Y-37336611D01*
X63929398Y-37346198D01*
X63959090Y-37340429D01*
X64415694Y-37151832D01*
X65094699Y-36945178D01*
X65304503Y-36926105D01*
X66032087Y-36906171D01*
X66041884Y-36905268D01*
X66421884Y-36845268D01*
X66437695Y-36840989D01*
X66463132Y-36824621D01*
X66480197Y-36799646D01*
X66486200Y-36770000D01*
X66486200Y-36670000D01*
X66476160Y-36632194D01*
X66436160Y-36562194D01*
X66419423Y-36542002D01*
X66392964Y-36527343D01*
X66362887Y-36524133D01*
X65404640Y-36613969D01*
X65025213Y-36632037D01*
X65009502Y-36612398D01*
X64972882Y-36587317D01*
X64432882Y-36417317D01*
X64428126Y-36415987D01*
X63938126Y-36295987D01*
X63920000Y-36293800D01*
X63850000Y-36293800D01*
X63822305Y-36299011D01*
X63796868Y-36315379D01*
X63779803Y-36340354D01*
X63773800Y-36370000D01*
X63773800Y-36440000D01*
X63776666Y-36460702D01*
X63790498Y-36487602D01*
X63830498Y-36537602D01*
X63861078Y-36560498D01*
X64251078Y-36720498D01*
X64260119Y-36723561D01*
X64451727Y-36775347D01*
X64262382Y-36848981D01*
X64258593Y-36850574D01*
X63838593Y-37040574D01*
X63816118Y-37056118D01*
X63766118Y-37106118D01*
X63752322Y-37124984D01*
X63744031Y-37154073D01*
X59578600Y-37154073D01*
X59578600Y-35995843D01*
X62035891Y-35995843D01*
X62045339Y-36171263D01*
X62364377Y-36262640D01*
X62694098Y-36224969D01*
X62832090Y-36166916D01*
X62839598Y-35991401D01*
X62435524Y-35591769D01*
X62035891Y-35995843D01*
X59578600Y-35995843D01*
X59578600Y-35344825D01*
X61586902Y-35344825D01*
X61624573Y-35674546D01*
X61682626Y-35812538D01*
X61858141Y-35820046D01*
X62257773Y-35415972D01*
X62255798Y-35414018D01*
X62611321Y-35414018D01*
X63015395Y-35813651D01*
X63190815Y-35804203D01*
X63246437Y-35610000D01*
X64013800Y-35610000D01*
X64013800Y-35650000D01*
X64016055Y-35668401D01*
X64029040Y-35695720D01*
X64059040Y-35735720D01*
X64079555Y-35754580D01*
X64107866Y-35765228D01*
X64417866Y-35815228D01*
X64427280Y-35816151D01*
X64707280Y-35826151D01*
X64710762Y-35826196D01*
X65707114Y-35816232D01*
X65983800Y-35839948D01*
X65983800Y-35873695D01*
X65944837Y-36107473D01*
X65945393Y-36135501D01*
X65957302Y-36163306D01*
X65979090Y-36184287D01*
X66089090Y-36254287D01*
X66108937Y-36263231D01*
X66139087Y-36265656D01*
X66167806Y-36256160D01*
X66237806Y-36216160D01*
X66250632Y-36206946D01*
X66268798Y-36182761D01*
X66368798Y-35972761D01*
X66375678Y-35931097D01*
X66355678Y-35761097D01*
X66350599Y-35741327D01*
X66333882Y-35716118D01*
X66143882Y-35526118D01*
X66123717Y-35511665D01*
X66094475Y-35503931D01*
X65924718Y-35493945D01*
X65485183Y-35463977D01*
X65480000Y-35463800D01*
X64160000Y-35463800D01*
X64135903Y-35467710D01*
X64075903Y-35487710D01*
X64058612Y-35496020D01*
X64036981Y-35517163D01*
X64025280Y-35545056D01*
X64015280Y-35595056D01*
X64013800Y-35610000D01*
X63246437Y-35610000D01*
X63282192Y-35485165D01*
X63244521Y-35155444D01*
X63186468Y-35017452D01*
X63010953Y-35009944D01*
X62611321Y-35414018D01*
X62255798Y-35414018D01*
X61853699Y-35016339D01*
X61678279Y-35025787D01*
X61586902Y-35344825D01*
X59578600Y-35344825D01*
X59578600Y-34838589D01*
X62029496Y-34838589D01*
X62433570Y-35238221D01*
X62833203Y-34834147D01*
X62823755Y-34658727D01*
X62504717Y-34567350D01*
X62174996Y-34605021D01*
X62037004Y-34663074D01*
X62029496Y-34838589D01*
X59578600Y-34838589D01*
X59578600Y-34550549D01*
X63764388Y-34550549D01*
X63769250Y-34588300D01*
X63789250Y-34638300D01*
X63796395Y-34651962D01*
X63817732Y-34673402D01*
X63907732Y-34733402D01*
X63938826Y-34745376D01*
X63969032Y-34743785D01*
X63996239Y-34730567D01*
X64016160Y-34707806D01*
X64207688Y-34372632D01*
X64384229Y-34249053D01*
X64864360Y-34095412D01*
X65152534Y-34076200D01*
X65285889Y-34076200D01*
X65645616Y-34115089D01*
X65990446Y-34210876D01*
X66104904Y-34276280D01*
X66113800Y-34291107D01*
X66113800Y-34450207D01*
X66026676Y-34544591D01*
X65665421Y-34674273D01*
X65398652Y-34683800D01*
X65361564Y-34683800D01*
X65243882Y-34566118D01*
X65219646Y-34549803D01*
X65190000Y-34543800D01*
X65150000Y-34543800D01*
X65121700Y-34549250D01*
X65071700Y-34569250D01*
X65053035Y-34579994D01*
X65033389Y-34602994D01*
X64983389Y-34692994D01*
X64973800Y-34730000D01*
X64973800Y-34900000D01*
X64974388Y-34909451D01*
X64984388Y-34989451D01*
X64997575Y-35023698D01*
X65067575Y-35123698D01*
X65095922Y-35148155D01*
X65155922Y-35178155D01*
X65184073Y-35185969D01*
X65214097Y-35182290D01*
X65418810Y-35114052D01*
X66033311Y-35005028D01*
X66054078Y-34998155D01*
X66254078Y-34898155D01*
X66279703Y-34877350D01*
X66509703Y-34587350D01*
X66518628Y-34573115D01*
X66526105Y-34543805D01*
X66536105Y-34343805D01*
X66535887Y-34333101D01*
X66525887Y-34223101D01*
X66511345Y-34184798D01*
X66371345Y-33994798D01*
X66343128Y-33971378D01*
X66053128Y-33831378D01*
X66038885Y-33826177D01*
X65608885Y-33716177D01*
X65598415Y-33714266D01*
X65328415Y-33684266D01*
X65320000Y-33683800D01*
X65290000Y-33683800D01*
X65281348Y-33684293D01*
X64931348Y-33724293D01*
X64922165Y-33725917D01*
X64382165Y-33855917D01*
X64362994Y-33863389D01*
X64002994Y-34063389D01*
X63976598Y-34087732D01*
X63796598Y-34357732D01*
X63784388Y-34390549D01*
X63764388Y-34550549D01*
X59578600Y-34550549D01*
X59578600Y-32340000D01*
X63853800Y-32340000D01*
X63853800Y-32410000D01*
X63859250Y-32438300D01*
X63879250Y-32488300D01*
X63907163Y-32523019D01*
X63935056Y-32534720D01*
X63985056Y-32544720D01*
X64007459Y-32545834D01*
X65227459Y-32425834D01*
X65230483Y-32425476D01*
X66310483Y-32275476D01*
X66317953Y-32274055D01*
X66647953Y-32194055D01*
X66668370Y-32185835D01*
X66690960Y-32165720D01*
X66720960Y-32125720D01*
X66732986Y-32101896D01*
X66762986Y-32001896D01*
X66766200Y-31980000D01*
X66766200Y-31940000D01*
X66756680Y-31903119D01*
X66737078Y-31880083D01*
X66614968Y-31784140D01*
X66705629Y-31751761D01*
X66721388Y-31743980D01*
X66743019Y-31722837D01*
X66754720Y-31694944D01*
X66764720Y-31644944D01*
X66766200Y-31630000D01*
X66766200Y-31560000D01*
X66764720Y-31545056D01*
X66754720Y-31495056D01*
X66739192Y-31462013D01*
X66715859Y-31442765D01*
X66565859Y-31362765D01*
X66546187Y-31355539D01*
X66086187Y-31255539D01*
X66075844Y-31254024D01*
X65555844Y-31214024D01*
X65549332Y-31213803D01*
X64409332Y-31223803D01*
X64401097Y-31224322D01*
X64061097Y-31264322D01*
X64042305Y-31269011D01*
X64016868Y-31285379D01*
X63999803Y-31310354D01*
X63993800Y-31340000D01*
X63993800Y-31440000D01*
X63996608Y-31460494D01*
X64010363Y-31487433D01*
X64033516Y-31506898D01*
X64062418Y-31515822D01*
X64155629Y-31525143D01*
X64219066Y-31543268D01*
X64244306Y-31546078D01*
X64773181Y-31516142D01*
X65141023Y-31506200D01*
X65198278Y-31506200D01*
X65633934Y-31526003D01*
X65946991Y-31561780D01*
X65922601Y-31564160D01*
X65914730Y-31565346D01*
X65474730Y-31655346D01*
X65453705Y-31662999D01*
X65430498Y-31682398D01*
X65390498Y-31732398D01*
X65379803Y-31750354D01*
X65373800Y-31780000D01*
X65373800Y-31810000D01*
X65379250Y-31838300D01*
X65399250Y-31888300D01*
X65415636Y-31913394D01*
X65440692Y-31930338D01*
X65560692Y-31980338D01*
X65590000Y-31986200D01*
X65630000Y-31986200D01*
X65664078Y-31978155D01*
X65702712Y-31958838D01*
X65871809Y-31983345D01*
X65252552Y-32044165D01*
X65250091Y-32044447D01*
X64030091Y-32204447D01*
X64003511Y-32213104D01*
X63893511Y-32273104D01*
X63876868Y-32285379D01*
X63859803Y-32310354D01*
X63853800Y-32340000D01*
X59578600Y-32340000D01*
X59578600Y-30160000D01*
X63983800Y-30160000D01*
X63983800Y-30400000D01*
X63987269Y-30422729D01*
X64037269Y-30582729D01*
X64062055Y-30619226D01*
X64272055Y-30789226D01*
X64286033Y-30798211D01*
X64315247Y-30806052D01*
X64475247Y-30816052D01*
X64480000Y-30816200D01*
X65030000Y-30816200D01*
X65032720Y-30816151D01*
X65312720Y-30806151D01*
X65318061Y-30805772D01*
X65788061Y-30755772D01*
X65802267Y-30752874D01*
X66162267Y-30642874D01*
X66181626Y-30633826D01*
X66411626Y-30483826D01*
X66432425Y-30463698D01*
X66502425Y-30363698D01*
X66510197Y-30349646D01*
X66516200Y-30320000D01*
X66516200Y-30210000D01*
X66515434Y-30199224D01*
X66505434Y-30129224D01*
X66488170Y-30090779D01*
X66378170Y-29960779D01*
X66362268Y-29946598D01*
X66272268Y-29886598D01*
X66232105Y-29873829D01*
X66202305Y-29879011D01*
X66183759Y-29890945D01*
X66175876Y-29861702D01*
X66155786Y-29839090D01*
X66128481Y-29826075D01*
X65808481Y-29746075D01*
X65797735Y-29744194D01*
X65307735Y-29694194D01*
X65296760Y-29693869D01*
X64826760Y-29713869D01*
X64810460Y-29716348D01*
X64320460Y-29846348D01*
X64295710Y-29857994D01*
X64085710Y-30007994D01*
X64069851Y-30023218D01*
X63999851Y-30113218D01*
X63989803Y-30130354D01*
X63983800Y-30160000D01*
X59578600Y-30160000D01*
X59578600Y-29816063D01*
X62001741Y-29816063D01*
X62011189Y-29991483D01*
X62330227Y-30082860D01*
X62659948Y-30045189D01*
X62797940Y-29987136D01*
X62805448Y-29811621D01*
X62401374Y-29411989D01*
X62001741Y-29816063D01*
X59578600Y-29816063D01*
X59578600Y-29165045D01*
X61552752Y-29165045D01*
X61590423Y-29494766D01*
X61648476Y-29632758D01*
X61823991Y-29640266D01*
X62223623Y-29236192D01*
X62221648Y-29234238D01*
X62577171Y-29234238D01*
X62981245Y-29633871D01*
X63156665Y-29624423D01*
X63248042Y-29305385D01*
X63210371Y-28975664D01*
X63178540Y-28900000D01*
X63973800Y-28900000D01*
X63973800Y-28930000D01*
X63984659Y-28969205D01*
X64014659Y-29019205D01*
X64039555Y-29044580D01*
X64067866Y-29055228D01*
X64377866Y-29105228D01*
X64390000Y-29106200D01*
X65666735Y-29106200D01*
X65943800Y-29129948D01*
X65943800Y-29155446D01*
X65914343Y-29400921D01*
X65915827Y-29427458D01*
X65928463Y-29454940D01*
X65950795Y-29475341D01*
X66050795Y-29535341D01*
X66068937Y-29543231D01*
X66099087Y-29545656D01*
X66127806Y-29536160D01*
X66197806Y-29496160D01*
X66228155Y-29464078D01*
X66328155Y-29264078D01*
X66335678Y-29221097D01*
X66315678Y-29051097D01*
X66310599Y-29031327D01*
X66293882Y-29006118D01*
X66103882Y-28816118D01*
X66083717Y-28801665D01*
X66054475Y-28793931D01*
X65884819Y-28783951D01*
X65455303Y-28753985D01*
X65450000Y-28753800D01*
X64120000Y-28753800D01*
X64095903Y-28757710D01*
X64035903Y-28777710D01*
X64018612Y-28786020D01*
X63996981Y-28807163D01*
X63985280Y-28835056D01*
X63975280Y-28885056D01*
X63973800Y-28900000D01*
X63178540Y-28900000D01*
X63152318Y-28837672D01*
X62976803Y-28830164D01*
X62577171Y-29234238D01*
X62221648Y-29234238D01*
X61819549Y-28836559D01*
X61644129Y-28846007D01*
X61552752Y-29165045D01*
X59578600Y-29165045D01*
X59578600Y-28658809D01*
X61995346Y-28658809D01*
X62399420Y-29058441D01*
X62799053Y-28654367D01*
X62789605Y-28478947D01*
X62470567Y-28387570D01*
X62140846Y-28425241D01*
X62002854Y-28483294D01*
X61995346Y-28658809D01*
X59578600Y-28658809D01*
X59578600Y-27845247D01*
X63733948Y-27845247D01*
X63735280Y-27864944D01*
X63745280Y-27914944D01*
X63759994Y-27946965D01*
X63782994Y-27966611D01*
X63872994Y-28016611D01*
X63896259Y-28024951D01*
X63926502Y-28024392D01*
X63954144Y-28012111D01*
X63974831Y-27990043D01*
X64177255Y-27662309D01*
X64355450Y-27528663D01*
X64833173Y-27375791D01*
X65111321Y-27366200D01*
X65245889Y-27366200D01*
X65606604Y-27405196D01*
X65949347Y-27490882D01*
X66063819Y-27564471D01*
X66073800Y-27581107D01*
X66073800Y-27740360D01*
X65996763Y-27824401D01*
X65624425Y-27954719D01*
X65357287Y-27973800D01*
X65321564Y-27973800D01*
X65203882Y-27856118D01*
X65179646Y-27839803D01*
X65150000Y-27833800D01*
X65120000Y-27833800D01*
X65091700Y-27839250D01*
X65041700Y-27859250D01*
X65009040Y-27884280D01*
X64949040Y-27964280D01*
X64938267Y-27984293D01*
X64933917Y-28014227D01*
X64943800Y-28192121D01*
X64943800Y-28270000D01*
X64945492Y-28285968D01*
X64957575Y-28313698D01*
X65027575Y-28413698D01*
X65039677Y-28427219D01*
X65065903Y-28442290D01*
X65125903Y-28462290D01*
X65143033Y-28465881D01*
X65173104Y-28462613D01*
X65388394Y-28394112D01*
X65993523Y-28284990D01*
X66010017Y-28280039D01*
X66220017Y-28190039D01*
X66251448Y-28165062D01*
X66471448Y-27865062D01*
X66485781Y-27827977D01*
X66505781Y-27637977D01*
X66504971Y-27616369D01*
X66484971Y-27506369D01*
X66471345Y-27474798D01*
X66331345Y-27284798D01*
X66305008Y-27262318D01*
X66015008Y-27112318D01*
X65997649Y-27105872D01*
X65577649Y-27005872D01*
X65568118Y-27004234D01*
X65288118Y-26974234D01*
X65280000Y-26973800D01*
X65250000Y-26973800D01*
X65241348Y-26974293D01*
X64891348Y-27014293D01*
X64882165Y-27015917D01*
X64342165Y-27145917D01*
X64322994Y-27153389D01*
X63962994Y-27353389D01*
X63936598Y-27377732D01*
X63756598Y-27647732D01*
X63743948Y-27685247D01*
X63733948Y-27845247D01*
X59578600Y-27845247D01*
X59578600Y-26140000D01*
X59557393Y-26033384D01*
X59497000Y-25943000D01*
X59406616Y-25882607D01*
X59300000Y-25861400D01*
X51608600Y-25861400D01*
X51608600Y-23975740D01*
X55301961Y-23975740D01*
X55310439Y-24151210D01*
X55628967Y-24244348D01*
X55958891Y-24208500D01*
X56097201Y-24151210D01*
X56105679Y-23975740D01*
X61136488Y-23975740D01*
X61144966Y-24151210D01*
X61463494Y-24244348D01*
X61793418Y-24208500D01*
X61931728Y-24151210D01*
X61940206Y-23975740D01*
X66971011Y-23975740D01*
X66979489Y-24151210D01*
X67298017Y-24244348D01*
X67627941Y-24208500D01*
X67766251Y-24151210D01*
X67774729Y-23975740D01*
X72805531Y-23975740D01*
X72814009Y-24151210D01*
X73132537Y-24244348D01*
X73462461Y-24208500D01*
X73600771Y-24151210D01*
X73609249Y-23975740D01*
X73207390Y-23573881D01*
X72805531Y-23975740D01*
X67774729Y-23975740D01*
X67372870Y-23573881D01*
X66971011Y-23975740D01*
X61940206Y-23975740D01*
X61538347Y-23573881D01*
X61136488Y-23975740D01*
X56105679Y-23975740D01*
X55703820Y-23573881D01*
X55301961Y-23975740D01*
X51608600Y-23975740D01*
X51608600Y-23322251D01*
X54856576Y-23322251D01*
X54892424Y-23652175D01*
X54949714Y-23790485D01*
X55125184Y-23798963D01*
X55527043Y-23397104D01*
X55880597Y-23397104D01*
X56282456Y-23798963D01*
X56457926Y-23790485D01*
X56551064Y-23471957D01*
X56534798Y-23322251D01*
X60691103Y-23322251D01*
X60726951Y-23652175D01*
X60784241Y-23790485D01*
X60959711Y-23798963D01*
X61361570Y-23397104D01*
X61715124Y-23397104D01*
X62116983Y-23798963D01*
X62292453Y-23790485D01*
X62385591Y-23471957D01*
X62349743Y-23142033D01*
X62292453Y-23003723D01*
X62116983Y-22995245D01*
X61715124Y-23397104D01*
X61361570Y-23397104D01*
X60959711Y-22995245D01*
X60784241Y-23003723D01*
X60691103Y-23322251D01*
X56534798Y-23322251D01*
X56515216Y-23142033D01*
X56457926Y-23003723D01*
X56282456Y-22995245D01*
X55880597Y-23397104D01*
X55527043Y-23397104D01*
X55125184Y-22995245D01*
X54949714Y-23003723D01*
X54856576Y-23322251D01*
X51608600Y-23322251D01*
X51608600Y-22818468D01*
X55301961Y-22818468D01*
X55703820Y-23220327D01*
X56105679Y-22818468D01*
X61136488Y-22818468D01*
X61538347Y-23220327D01*
X61940206Y-22818468D01*
X61931728Y-22642998D01*
X61613200Y-22549860D01*
X61283276Y-22585708D01*
X61144966Y-22642998D01*
X61136488Y-22818468D01*
X56105679Y-22818468D01*
X56097201Y-22642998D01*
X55778673Y-22549860D01*
X55448749Y-22585708D01*
X55310439Y-22642998D01*
X55301961Y-22818468D01*
X51608600Y-22818468D01*
X51608600Y-18998600D01*
X64712466Y-18998600D01*
X64619770Y-19091135D01*
X64619770Y-19091135D01*
G37*
X64619770Y-19091135D02*
X64546754Y-19266977D01*
X64546587Y-19457376D01*
X64576395Y-19529516D01*
X63225270Y-19529516D01*
X63140556Y-19545456D01*
X63062752Y-19595522D01*
X63010555Y-19671914D01*
X62992192Y-19762594D01*
X62992192Y-22762594D01*
X63008132Y-22847308D01*
X63058198Y-22925112D01*
X63134590Y-22977309D01*
X63225270Y-22995672D01*
X66719988Y-22995672D01*
X66723003Y-22998687D01*
X66618764Y-23003723D01*
X66525626Y-23322251D01*
X66561474Y-23652175D01*
X66618764Y-23790485D01*
X66794234Y-23798963D01*
X67196093Y-23397104D01*
X67549647Y-23397104D01*
X67951506Y-23798963D01*
X68126976Y-23790485D01*
X68220114Y-23471957D01*
X68203848Y-23322251D01*
X72360146Y-23322251D01*
X72395994Y-23652175D01*
X72453284Y-23790485D01*
X72628754Y-23798963D01*
X73030613Y-23397104D01*
X73384167Y-23397104D01*
X73786026Y-23798963D01*
X73961496Y-23790485D01*
X74054634Y-23471957D01*
X74018786Y-23142033D01*
X73961496Y-23003723D01*
X73786026Y-22995245D01*
X73384167Y-23397104D01*
X73030613Y-23397104D01*
X72628754Y-22995245D01*
X72453284Y-23003723D01*
X72360146Y-23322251D01*
X68203848Y-23322251D01*
X68184266Y-23142033D01*
X68126976Y-23003723D01*
X67951506Y-22995245D01*
X67549647Y-23397104D01*
X67196093Y-23397104D01*
X67144616Y-23345627D01*
X67321393Y-23168850D01*
X67372870Y-23220327D01*
X67774729Y-22818468D01*
X72805531Y-22818468D01*
X73207390Y-23220327D01*
X73609249Y-22818468D01*
X73600771Y-22642998D01*
X73282243Y-22549860D01*
X72952319Y-22585708D01*
X72814009Y-22642998D01*
X72805531Y-22818468D01*
X67774729Y-22818468D01*
X67766251Y-22642998D01*
X67447723Y-22549860D01*
X67117799Y-22585708D01*
X67058348Y-22610333D01*
X67058348Y-19762594D01*
X67042408Y-19677880D01*
X66992342Y-19600076D01*
X66915950Y-19547879D01*
X66825270Y-19529516D01*
X65474178Y-19529516D01*
X65503786Y-19458211D01*
X65503953Y-19267812D01*
X65431244Y-19091843D01*
X65338163Y-18998600D01*
X75151400Y-18998600D01*
X75151400Y-25861400D01*
X67500000Y-25861400D01*
X67393384Y-25882607D01*
X67303000Y-25943000D01*
X67242607Y-26033384D01*
X67221400Y-26140000D01*
X67221400Y-45150000D01*
X67242607Y-45256616D01*
X67303000Y-45347000D01*
X67393384Y-45407393D01*
X67500000Y-45428600D01*
X75288596Y-45428600D01*
X75227540Y-45576002D01*
X75227540Y-45868357D01*
X75373590Y-46014407D01*
X75943820Y-46014407D01*
X75912328Y-46130540D01*
X75943122Y-46370007D01*
X75373590Y-46370007D01*
X75227540Y-46516057D01*
X75227540Y-46808412D01*
X75316479Y-47023130D01*
X75480818Y-47187468D01*
X75695536Y-47276407D01*
X77487890Y-47276407D01*
X77633940Y-47130357D01*
X77633940Y-46538605D01*
X77711152Y-46253874D01*
X77677786Y-45994407D01*
X77989540Y-45994407D01*
X77989540Y-46014407D01*
X78009540Y-46014407D01*
X78009540Y-46370007D01*
X77989540Y-46370007D01*
X77989540Y-47130357D01*
X78135590Y-47276407D01*
X79841400Y-47276407D01*
X79841400Y-47465135D01*
X79811740Y-47459129D01*
X75811740Y-47459129D01*
X75727026Y-47475069D01*
X75649222Y-47525135D01*
X75597025Y-47601527D01*
X75578662Y-47692207D01*
X75578662Y-48692207D01*
X75594602Y-48776921D01*
X75644668Y-48854725D01*
X75721060Y-48906922D01*
X75811740Y-48925285D01*
X79811740Y-48925285D01*
X79841400Y-48919704D01*
X79841400Y-49108007D01*
X78135590Y-49108007D01*
X77989540Y-49254057D01*
X77989540Y-50014407D01*
X78009540Y-50014407D01*
X78009540Y-50370007D01*
X77989540Y-50370007D01*
X77989540Y-50390007D01*
X77674236Y-50390007D01*
X77711152Y-50253874D01*
X77666287Y-49904990D01*
X77633940Y-49826897D01*
X77633940Y-49254057D01*
X77487890Y-49108007D01*
X75695536Y-49108007D01*
X75480818Y-49196946D01*
X75316479Y-49361284D01*
X75227540Y-49576002D01*
X75227540Y-49868357D01*
X75373590Y-50014407D01*
X75943820Y-50014407D01*
X75912328Y-50130540D01*
X75943122Y-50370007D01*
X75373590Y-50370007D01*
X75227540Y-50516057D01*
X75227540Y-50808412D01*
X75253630Y-50871400D01*
X73315163Y-50871400D01*
X73315076Y-50823694D01*
X73314050Y-50263750D01*
X73167732Y-50117968D01*
X72527383Y-50119141D01*
X72527420Y-50139141D01*
X72171821Y-50139792D01*
X72171784Y-50119792D01*
X71535714Y-50120958D01*
X71257386Y-50121468D01*
X71257423Y-50141468D01*
X70901824Y-50142119D01*
X70901787Y-50122119D01*
X70266890Y-50123283D01*
X69987388Y-50123795D01*
X69987425Y-50143795D01*
X69631826Y-50144446D01*
X69631789Y-50124446D01*
X68996892Y-50125610D01*
X68717390Y-50126122D01*
X68717427Y-50146122D01*
X68361828Y-50146773D01*
X68361791Y-50126773D01*
X67721442Y-50127947D01*
X67575660Y-50274264D01*
X67576686Y-50834208D01*
X67576754Y-50871400D01*
X67500000Y-50871400D01*
X67449726Y-50881400D01*
X59350274Y-50881400D01*
X59300000Y-50871400D01*
X51578954Y-50871400D01*
X51605044Y-50808412D01*
X51605044Y-50516057D01*
X51458994Y-50370007D01*
X50888764Y-50370007D01*
X50920256Y-50253874D01*
X50889462Y-50014407D01*
X51458994Y-50014407D01*
X51605044Y-49868357D01*
X51605044Y-49576002D01*
X51516105Y-49361284D01*
X51351766Y-49196946D01*
X51137048Y-49108007D01*
X49344694Y-49108007D01*
X49198644Y-49254057D01*
X49198644Y-49845809D01*
X49121432Y-50130540D01*
X49154798Y-50390007D01*
X48843044Y-50390007D01*
X48843044Y-50370007D01*
X48823044Y-50370007D01*
X48823044Y-50014407D01*
X48843044Y-50014407D01*
X48843044Y-49254057D01*
X48696994Y-49108007D01*
X46908600Y-49108007D01*
X46908600Y-48892188D01*
X46930164Y-48906922D01*
X47020844Y-48925285D01*
X51020844Y-48925285D01*
X51105558Y-48909345D01*
X51183362Y-48859279D01*
X51235559Y-48782887D01*
X51253922Y-48692207D01*
X51253922Y-48391363D01*
X62056104Y-48391363D01*
X62064904Y-48566817D01*
X62383602Y-48659371D01*
X62713460Y-48622918D01*
X62851665Y-48565375D01*
X62859821Y-48389890D01*
X62457226Y-47988767D01*
X62056104Y-48391363D01*
X51253922Y-48391363D01*
X51253922Y-47738691D01*
X61609522Y-47738691D01*
X61645975Y-48068549D01*
X61703518Y-48206754D01*
X61879003Y-48214910D01*
X62280126Y-47812315D01*
X62279476Y-47811667D01*
X62633678Y-47811667D01*
X63036274Y-48212789D01*
X63211728Y-48203989D01*
X63304282Y-47885291D01*
X63267829Y-47555433D01*
X63210286Y-47417228D01*
X63034801Y-47409072D01*
X62633678Y-47811667D01*
X62279476Y-47811667D01*
X61877530Y-47411193D01*
X61702076Y-47419993D01*
X61609522Y-47738691D01*
X51253922Y-47738691D01*
X51253922Y-47692207D01*
X51237982Y-47607493D01*
X51187916Y-47529689D01*
X51111524Y-47477492D01*
X51020844Y-47459129D01*
X47020844Y-47459129D01*
X46936130Y-47475069D01*
X46908600Y-47492784D01*
X46908600Y-47276407D01*
X48696994Y-47276407D01*
X48843044Y-47130357D01*
X48843044Y-46370007D01*
X48823044Y-46370007D01*
X48823044Y-46014407D01*
X48843044Y-46014407D01*
X48843044Y-45994407D01*
X49158348Y-45994407D01*
X49121432Y-46130540D01*
X49166297Y-46479424D01*
X49198644Y-46557517D01*
X49198644Y-47130357D01*
X49344694Y-47276407D01*
X51137048Y-47276407D01*
X51239205Y-47234092D01*
X62053983Y-47234092D01*
X62456578Y-47635215D01*
X62857700Y-47232619D01*
X62848900Y-47057165D01*
X62530202Y-46964611D01*
X62200344Y-47001064D01*
X62062139Y-47058607D01*
X62053983Y-47234092D01*
X51239205Y-47234092D01*
X51351766Y-47187468D01*
X51516105Y-47023130D01*
X51605044Y-46808412D01*
X51605044Y-46516057D01*
X51458994Y-46370007D01*
X50888764Y-46370007D01*
X50920256Y-46253874D01*
X50889462Y-46014407D01*
X51458994Y-46014407D01*
X51605044Y-45868357D01*
X51605044Y-45576002D01*
X51543988Y-45428600D01*
X59300000Y-45428600D01*
X59406616Y-45407393D01*
X59497000Y-45347000D01*
X59557393Y-45256616D01*
X59578600Y-45150000D01*
X59578600Y-42188810D01*
X62044737Y-42188810D01*
X62053537Y-42364264D01*
X62372235Y-42456818D01*
X62702093Y-42420365D01*
X62840298Y-42362822D01*
X62848454Y-42187337D01*
X62445859Y-41786214D01*
X62044737Y-42188810D01*
X59578600Y-42188810D01*
X59578600Y-41536138D01*
X61598155Y-41536138D01*
X61634608Y-41865996D01*
X61692151Y-42004201D01*
X61867636Y-42012357D01*
X62268759Y-41609762D01*
X62268109Y-41609114D01*
X62622311Y-41609114D01*
X63024907Y-42010236D01*
X63200361Y-42001436D01*
X63292915Y-41682738D01*
X63256462Y-41352880D01*
X63198919Y-41214675D01*
X63023434Y-41206519D01*
X62622311Y-41609114D01*
X62268109Y-41609114D01*
X61866163Y-41208640D01*
X61690709Y-41217440D01*
X61598155Y-41536138D01*
X59578600Y-41536138D01*
X59578600Y-41031539D01*
X62042616Y-41031539D01*
X62445211Y-41432662D01*
X62714290Y-41162594D01*
X63492192Y-41162594D01*
X63492192Y-44162594D01*
X63508132Y-44247308D01*
X63558198Y-44325112D01*
X63634590Y-44377309D01*
X63725270Y-44395672D01*
X65224140Y-44395672D01*
X65595125Y-45528678D01*
X65551463Y-45536977D01*
X65473750Y-45587185D01*
X65461763Y-45604798D01*
X65453349Y-45591776D01*
X65376862Y-45539719D01*
X65286148Y-45521522D01*
X64386149Y-45523171D01*
X64301465Y-45539267D01*
X64223752Y-45589475D01*
X64171696Y-45665962D01*
X64153498Y-45756676D01*
X64154597Y-46356675D01*
X64170693Y-46441360D01*
X64220901Y-46519072D01*
X64297388Y-46571129D01*
X64388102Y-46589326D01*
X65288101Y-46587677D01*
X65372785Y-46571581D01*
X65450498Y-46521373D01*
X65462485Y-46503760D01*
X65470899Y-46516782D01*
X65547386Y-46568839D01*
X65638100Y-46587036D01*
X66538099Y-46585387D01*
X66622783Y-46569291D01*
X66700496Y-46519083D01*
X66712483Y-46501470D01*
X66720897Y-46514492D01*
X66797384Y-46566549D01*
X66888098Y-46584746D01*
X67788097Y-46583097D01*
X67872781Y-46567001D01*
X67919934Y-46536537D01*
X67920899Y-47063240D01*
X67879606Y-47035136D01*
X67788892Y-47016939D01*
X66888893Y-47018588D01*
X66804209Y-47034684D01*
X66726496Y-47084892D01*
X66714509Y-47102505D01*
X66706096Y-47089484D01*
X66629609Y-47037427D01*
X66538895Y-47019230D01*
X65638896Y-47020879D01*
X65554212Y-47036975D01*
X65476499Y-47087183D01*
X65464512Y-47104796D01*
X65456098Y-47091774D01*
X65379611Y-47039717D01*
X65288897Y-47021520D01*
X64388898Y-47023169D01*
X64304214Y-47039265D01*
X64226501Y-47089473D01*
X64174445Y-47165960D01*
X64156247Y-47256674D01*
X64157346Y-47856673D01*
X64173442Y-47941358D01*
X64223650Y-48019070D01*
X64300137Y-48071127D01*
X64390851Y-48089324D01*
X64507772Y-48089110D01*
X64508536Y-48506030D01*
X64508536Y-48506032D01*
X64508903Y-48706032D01*
X64524999Y-48790716D01*
X64575207Y-48868428D01*
X64651694Y-48920485D01*
X64742408Y-48938682D01*
X67573203Y-48933495D01*
X67573447Y-49066621D01*
X67574473Y-49626565D01*
X67720791Y-49772347D01*
X68361140Y-49771174D01*
X68361103Y-49751174D01*
X68716702Y-49750523D01*
X68716739Y-49770523D01*
X69351636Y-49769359D01*
X69631138Y-49768847D01*
X69631101Y-49748847D01*
X69986700Y-49748196D01*
X69986737Y-49768196D01*
X70621634Y-49767032D01*
X70901136Y-49766520D01*
X70901099Y-49746520D01*
X71256698Y-49745869D01*
X71256735Y-49765869D01*
X71892805Y-49764703D01*
X72171133Y-49764193D01*
X72168823Y-48503845D01*
X72168170Y-48503194D01*
X72524423Y-48503194D01*
X72526732Y-49763542D01*
X73167081Y-49762368D01*
X73312863Y-49616051D01*
X73311837Y-49056107D01*
X73311411Y-48823698D01*
X73222079Y-48609144D01*
X73057440Y-48445106D01*
X72842560Y-48356560D01*
X72670205Y-48356876D01*
X72524423Y-48503194D01*
X72168170Y-48503194D01*
X72022506Y-48358063D01*
X71850151Y-48358379D01*
X71711462Y-48416124D01*
X71572563Y-48358887D01*
X71474435Y-48359067D01*
X71473728Y-47972944D01*
X71540341Y-47960283D01*
X71618053Y-47910075D01*
X71670110Y-47833588D01*
X71688307Y-47742874D01*
X71684642Y-45742877D01*
X71684624Y-45742779D01*
X71738485Y-45742779D01*
X71742150Y-47742775D01*
X71758246Y-47827460D01*
X71808454Y-47905172D01*
X71884941Y-47957229D01*
X71975655Y-47975426D01*
X72715654Y-47974070D01*
X72800339Y-47957974D01*
X72878051Y-47907766D01*
X72930108Y-47831279D01*
X72948305Y-47740565D01*
X72944640Y-45740569D01*
X72928544Y-45655884D01*
X72878336Y-45578172D01*
X72801849Y-45526115D01*
X72711135Y-45507918D01*
X71971136Y-45509274D01*
X71886451Y-45525370D01*
X71808739Y-45575578D01*
X71756682Y-45652065D01*
X71738485Y-45742779D01*
X71684624Y-45742779D01*
X71668546Y-45658192D01*
X71618338Y-45580480D01*
X71541851Y-45528423D01*
X71451137Y-45510226D01*
X70691138Y-45511619D01*
X70606453Y-45527715D01*
X70528741Y-45577923D01*
X70476684Y-45654410D01*
X70458487Y-45745124D01*
X70462152Y-47745121D01*
X70478248Y-47829806D01*
X70528456Y-47907518D01*
X70604943Y-47959575D01*
X70695657Y-47977772D01*
X70807578Y-47977567D01*
X70808098Y-48261410D01*
X70120830Y-48262669D01*
X70124226Y-48245741D01*
X70123860Y-48045741D01*
X70123859Y-48045734D01*
X70123736Y-47978819D01*
X70185658Y-47978706D01*
X70270343Y-47962610D01*
X70348055Y-47912402D01*
X70400112Y-47835915D01*
X70418309Y-47745201D01*
X70414644Y-45745204D01*
X70398548Y-45660519D01*
X70348340Y-45582807D01*
X70271853Y-45530750D01*
X70181139Y-45512553D01*
X69421140Y-45513946D01*
X69336455Y-45530042D01*
X69258743Y-45580250D01*
X69206686Y-45656737D01*
X69188489Y-45747451D01*
X69192154Y-47747448D01*
X69204869Y-47814346D01*
X69134883Y-47814474D01*
X69148312Y-47747528D01*
X69144647Y-45747531D01*
X69128551Y-45662846D01*
X69078343Y-45585134D01*
X69001856Y-45533077D01*
X68911142Y-45514880D01*
X68151143Y-45516273D01*
X68066458Y-45532369D01*
X67988746Y-45582577D01*
X67969054Y-45611510D01*
X67953345Y-45587196D01*
X67876858Y-45535139D01*
X67786144Y-45516942D01*
X66886145Y-45518591D01*
X66801461Y-45534687D01*
X66723748Y-45584895D01*
X66711761Y-45602508D01*
X66703347Y-45589486D01*
X66626860Y-45537429D01*
X66536146Y-45519232D01*
X66340503Y-45519590D01*
X65972494Y-44395672D01*
X66325270Y-44395672D01*
X66409984Y-44379732D01*
X66487788Y-44329666D01*
X66539985Y-44253274D01*
X66558348Y-44162594D01*
X66558348Y-41162594D01*
X66542408Y-41077880D01*
X66492342Y-41000076D01*
X66415950Y-40947879D01*
X66325270Y-40929516D01*
X63725270Y-40929516D01*
X63640556Y-40945456D01*
X63562752Y-40995522D01*
X63510555Y-41071914D01*
X63492192Y-41162594D01*
X62714290Y-41162594D01*
X62846333Y-41030066D01*
X62837533Y-40854612D01*
X62518835Y-40762058D01*
X62188977Y-40798511D01*
X62050772Y-40856054D01*
X62042616Y-41031539D01*
X59578600Y-41031539D01*
X59578600Y-40210000D01*
X63763800Y-40210000D01*
X63763800Y-40240000D01*
X63769250Y-40268300D01*
X63789250Y-40318300D01*
X63797656Y-40333814D01*
X63819614Y-40354617D01*
X63899614Y-40404617D01*
X63940000Y-40416200D01*
X64010000Y-40416200D01*
X64037695Y-40410989D01*
X64063132Y-40394621D01*
X64080197Y-40369646D01*
X64086200Y-40340000D01*
X64086200Y-40197201D01*
X64152414Y-40116274D01*
X64297914Y-40013567D01*
X64358386Y-40006848D01*
X64461529Y-40022716D01*
X64841922Y-40279482D01*
X65097185Y-40524927D01*
X65120865Y-40540410D01*
X65410865Y-40660410D01*
X65430549Y-40665612D01*
X65590549Y-40685612D01*
X65600000Y-40686200D01*
X65770000Y-40686200D01*
X65775429Y-40686006D01*
X65915429Y-40676006D01*
X65927134Y-40674249D01*
X66187134Y-40614249D01*
X66210108Y-40604790D01*
X66420108Y-40474790D01*
X66436639Y-40460975D01*
X66616639Y-40260975D01*
X66625820Y-40248395D01*
X66695820Y-40128395D01*
X66706200Y-40090000D01*
X66706200Y-39950000D01*
X66705163Y-39937473D01*
X66695163Y-39877473D01*
X66682612Y-39846570D01*
X66660783Y-39825632D01*
X66632527Y-39814837D01*
X66572527Y-39804837D01*
X66560000Y-39803800D01*
X66490000Y-39803800D01*
X66473893Y-39805522D01*
X66446186Y-39817656D01*
X66425383Y-39839614D01*
X66282166Y-40068762D01*
X66041339Y-40263275D01*
X65885705Y-40323800D01*
X65674221Y-40323800D01*
X65515524Y-40306167D01*
X65034972Y-40008225D01*
X64709300Y-39731897D01*
X64677453Y-39715826D01*
X64507453Y-39675826D01*
X64486195Y-39673895D01*
X64286195Y-39683895D01*
X64269066Y-39686732D01*
X64059066Y-39746732D01*
X64024935Y-39767329D01*
X63804935Y-39997329D01*
X63794023Y-40011876D01*
X63784388Y-40040549D01*
X63764388Y-40200549D01*
X63763800Y-40210000D01*
X59578600Y-40210000D01*
X59578600Y-38670000D01*
X63923800Y-38670000D01*
X63923800Y-38700000D01*
X63935154Y-38740018D01*
X63955832Y-38762094D01*
X63983470Y-38774385D01*
X64163470Y-38814385D01*
X64182005Y-38816174D01*
X64562005Y-38806174D01*
X64566698Y-38805905D01*
X64823800Y-38783220D01*
X64823800Y-38938372D01*
X64784215Y-39065045D01*
X64771995Y-39074820D01*
X64537071Y-39083856D01*
X64530144Y-39084440D01*
X64070144Y-39144440D01*
X64052305Y-39149011D01*
X64026868Y-39165379D01*
X64009803Y-39190354D01*
X64003800Y-39220000D01*
X64003800Y-39360000D01*
X64009982Y-39390065D01*
X64027195Y-39414937D01*
X64052729Y-39431153D01*
X64082560Y-39436157D01*
X65271755Y-39396184D01*
X66040528Y-39386200D01*
X66140000Y-39386200D01*
X66152527Y-39385163D01*
X66212527Y-39375163D01*
X66243430Y-39362612D01*
X66264368Y-39340783D01*
X66275163Y-39312527D01*
X66285163Y-39252527D01*
X66286200Y-39240000D01*
X66286200Y-39170000D01*
X66284720Y-39155056D01*
X66274720Y-39105056D01*
X66268620Y-39086867D01*
X66250323Y-39062781D01*
X66224097Y-39047710D01*
X66164097Y-39027710D01*
X66134931Y-39023969D01*
X65537466Y-39063800D01*
X65166318Y-39063800D01*
X65185612Y-38909451D01*
X65186200Y-38900000D01*
X65186200Y-38771392D01*
X65574959Y-38746038D01*
X65580565Y-38745464D01*
X66080565Y-38675464D01*
X66106295Y-38667001D01*
X66129502Y-38647602D01*
X66169502Y-38597602D01*
X66180197Y-38579646D01*
X66186200Y-38550000D01*
X66186200Y-38480000D01*
X66180750Y-38451700D01*
X66160750Y-38401700D01*
X66150154Y-38383225D01*
X66127217Y-38363507D01*
X66098415Y-38354266D01*
X66008415Y-38344266D01*
X65994453Y-38344002D01*
X64624453Y-38444002D01*
X64619761Y-38444491D01*
X64029761Y-38524491D01*
X63993761Y-38539433D01*
X63973840Y-38562194D01*
X63933840Y-38632194D01*
X63923800Y-38670000D01*
X59578600Y-38670000D01*
X59578600Y-37890000D01*
X63823800Y-37890000D01*
X63823800Y-38040000D01*
X63833104Y-38076489D01*
X63893104Y-38186489D01*
X63923278Y-38216768D01*
X64123278Y-38326768D01*
X64149704Y-38335501D01*
X64369704Y-38365501D01*
X64394944Y-38364720D01*
X64544944Y-38334720D01*
X64582855Y-38314888D01*
X64852855Y-38054888D01*
X64866337Y-38037495D01*
X64976896Y-37841891D01*
X65337582Y-37805822D01*
X65364078Y-37798155D01*
X65419880Y-37770254D01*
X65573470Y-37804385D01*
X65590929Y-37806194D01*
X66410929Y-37796194D01*
X66422527Y-37795163D01*
X66482527Y-37785163D01*
X66511388Y-37773980D01*
X66533019Y-37752837D01*
X66544720Y-37724944D01*
X66554720Y-37674944D01*
X66556200Y-37660000D01*
X66556200Y-37550000D01*
X66552110Y-37525370D01*
X66536846Y-37499255D01*
X66512625Y-37481137D01*
X66483263Y-37473870D01*
X65785848Y-37443981D01*
X65518415Y-37414266D01*
X65475922Y-37421845D01*
X65457303Y-37431154D01*
X65454556Y-37428184D01*
X65426996Y-37415720D01*
X65396758Y-37414959D01*
X65232600Y-37443928D01*
X64719263Y-37453800D01*
X64620000Y-37453800D01*
X64592305Y-37459011D01*
X64566868Y-37475379D01*
X64556269Y-37490891D01*
X64546558Y-37479677D01*
X64519421Y-37466316D01*
X64489224Y-37464566D01*
X64209224Y-37504566D01*
X64177732Y-37516598D01*
X63937732Y-37676598D01*
X63912765Y-37704141D01*
X63832765Y-37854141D01*
X63823800Y-37890000D01*
X59578600Y-37890000D01*
X59578600Y-37154073D01*
X63744031Y-37154073D01*
X63747710Y-37184097D01*
X63767710Y-37244097D01*
X63779994Y-37266965D01*
X63802994Y-37286611D01*
X63892994Y-37336611D01*
X63929398Y-37346198D01*
X63959090Y-37340429D01*
X64415694Y-37151832D01*
X65094699Y-36945178D01*
X65304503Y-36926105D01*
X66032087Y-36906171D01*
X66041884Y-36905268D01*
X66421884Y-36845268D01*
X66437695Y-36840989D01*
X66463132Y-36824621D01*
X66480197Y-36799646D01*
X66486200Y-36770000D01*
X66486200Y-36670000D01*
X66476160Y-36632194D01*
X66436160Y-36562194D01*
X66419423Y-36542002D01*
X66392964Y-36527343D01*
X66362887Y-36524133D01*
X65404640Y-36613969D01*
X65025213Y-36632037D01*
X65009502Y-36612398D01*
X64972882Y-36587317D01*
X64432882Y-36417317D01*
X64428126Y-36415987D01*
X63938126Y-36295987D01*
X63920000Y-36293800D01*
X63850000Y-36293800D01*
X63822305Y-36299011D01*
X63796868Y-36315379D01*
X63779803Y-36340354D01*
X63773800Y-36370000D01*
X63773800Y-36440000D01*
X63776666Y-36460702D01*
X63790498Y-36487602D01*
X63830498Y-36537602D01*
X63861078Y-36560498D01*
X64251078Y-36720498D01*
X64260119Y-36723561D01*
X64451727Y-36775347D01*
X64262382Y-36848981D01*
X64258593Y-36850574D01*
X63838593Y-37040574D01*
X63816118Y-37056118D01*
X63766118Y-37106118D01*
X63752322Y-37124984D01*
X63744031Y-37154073D01*
X59578600Y-37154073D01*
X59578600Y-35995843D01*
X62035891Y-35995843D01*
X62045339Y-36171263D01*
X62364377Y-36262640D01*
X62694098Y-36224969D01*
X62832090Y-36166916D01*
X62839598Y-35991401D01*
X62435524Y-35591769D01*
X62035891Y-35995843D01*
X59578600Y-35995843D01*
X59578600Y-35344825D01*
X61586902Y-35344825D01*
X61624573Y-35674546D01*
X61682626Y-35812538D01*
X61858141Y-35820046D01*
X62257773Y-35415972D01*
X62255798Y-35414018D01*
X62611321Y-35414018D01*
X63015395Y-35813651D01*
X63190815Y-35804203D01*
X63246437Y-35610000D01*
X64013800Y-35610000D01*
X64013800Y-35650000D01*
X64016055Y-35668401D01*
X64029040Y-35695720D01*
X64059040Y-35735720D01*
X64079555Y-35754580D01*
X64107866Y-35765228D01*
X64417866Y-35815228D01*
X64427280Y-35816151D01*
X64707280Y-35826151D01*
X64710762Y-35826196D01*
X65707114Y-35816232D01*
X65983800Y-35839948D01*
X65983800Y-35873695D01*
X65944837Y-36107473D01*
X65945393Y-36135501D01*
X65957302Y-36163306D01*
X65979090Y-36184287D01*
X66089090Y-36254287D01*
X66108937Y-36263231D01*
X66139087Y-36265656D01*
X66167806Y-36256160D01*
X66237806Y-36216160D01*
X66250632Y-36206946D01*
X66268798Y-36182761D01*
X66368798Y-35972761D01*
X66375678Y-35931097D01*
X66355678Y-35761097D01*
X66350599Y-35741327D01*
X66333882Y-35716118D01*
X66143882Y-35526118D01*
X66123717Y-35511665D01*
X66094475Y-35503931D01*
X65924718Y-35493945D01*
X65485183Y-35463977D01*
X65480000Y-35463800D01*
X64160000Y-35463800D01*
X64135903Y-35467710D01*
X64075903Y-35487710D01*
X64058612Y-35496020D01*
X64036981Y-35517163D01*
X64025280Y-35545056D01*
X64015280Y-35595056D01*
X64013800Y-35610000D01*
X63246437Y-35610000D01*
X63282192Y-35485165D01*
X63244521Y-35155444D01*
X63186468Y-35017452D01*
X63010953Y-35009944D01*
X62611321Y-35414018D01*
X62255798Y-35414018D01*
X61853699Y-35016339D01*
X61678279Y-35025787D01*
X61586902Y-35344825D01*
X59578600Y-35344825D01*
X59578600Y-34838589D01*
X62029496Y-34838589D01*
X62433570Y-35238221D01*
X62833203Y-34834147D01*
X62823755Y-34658727D01*
X62504717Y-34567350D01*
X62174996Y-34605021D01*
X62037004Y-34663074D01*
X62029496Y-34838589D01*
X59578600Y-34838589D01*
X59578600Y-34550549D01*
X63764388Y-34550549D01*
X63769250Y-34588300D01*
X63789250Y-34638300D01*
X63796395Y-34651962D01*
X63817732Y-34673402D01*
X63907732Y-34733402D01*
X63938826Y-34745376D01*
X63969032Y-34743785D01*
X63996239Y-34730567D01*
X64016160Y-34707806D01*
X64207688Y-34372632D01*
X64384229Y-34249053D01*
X64864360Y-34095412D01*
X65152534Y-34076200D01*
X65285889Y-34076200D01*
X65645616Y-34115089D01*
X65990446Y-34210876D01*
X66104904Y-34276280D01*
X66113800Y-34291107D01*
X66113800Y-34450207D01*
X66026676Y-34544591D01*
X65665421Y-34674273D01*
X65398652Y-34683800D01*
X65361564Y-34683800D01*
X65243882Y-34566118D01*
X65219646Y-34549803D01*
X65190000Y-34543800D01*
X65150000Y-34543800D01*
X65121700Y-34549250D01*
X65071700Y-34569250D01*
X65053035Y-34579994D01*
X65033389Y-34602994D01*
X64983389Y-34692994D01*
X64973800Y-34730000D01*
X64973800Y-34900000D01*
X64974388Y-34909451D01*
X64984388Y-34989451D01*
X64997575Y-35023698D01*
X65067575Y-35123698D01*
X65095922Y-35148155D01*
X65155922Y-35178155D01*
X65184073Y-35185969D01*
X65214097Y-35182290D01*
X65418810Y-35114052D01*
X66033311Y-35005028D01*
X66054078Y-34998155D01*
X66254078Y-34898155D01*
X66279703Y-34877350D01*
X66509703Y-34587350D01*
X66518628Y-34573115D01*
X66526105Y-34543805D01*
X66536105Y-34343805D01*
X66535887Y-34333101D01*
X66525887Y-34223101D01*
X66511345Y-34184798D01*
X66371345Y-33994798D01*
X66343128Y-33971378D01*
X66053128Y-33831378D01*
X66038885Y-33826177D01*
X65608885Y-33716177D01*
X65598415Y-33714266D01*
X65328415Y-33684266D01*
X65320000Y-33683800D01*
X65290000Y-33683800D01*
X65281348Y-33684293D01*
X64931348Y-33724293D01*
X64922165Y-33725917D01*
X64382165Y-33855917D01*
X64362994Y-33863389D01*
X64002994Y-34063389D01*
X63976598Y-34087732D01*
X63796598Y-34357732D01*
X63784388Y-34390549D01*
X63764388Y-34550549D01*
X59578600Y-34550549D01*
X59578600Y-32340000D01*
X63853800Y-32340000D01*
X63853800Y-32410000D01*
X63859250Y-32438300D01*
X63879250Y-32488300D01*
X63907163Y-32523019D01*
X63935056Y-32534720D01*
X63985056Y-32544720D01*
X64007459Y-32545834D01*
X65227459Y-32425834D01*
X65230483Y-32425476D01*
X66310483Y-32275476D01*
X66317953Y-32274055D01*
X66647953Y-32194055D01*
X66668370Y-32185835D01*
X66690960Y-32165720D01*
X66720960Y-32125720D01*
X66732986Y-32101896D01*
X66762986Y-32001896D01*
X66766200Y-31980000D01*
X66766200Y-31940000D01*
X66756680Y-31903119D01*
X66737078Y-31880083D01*
X66614968Y-31784140D01*
X66705629Y-31751761D01*
X66721388Y-31743980D01*
X66743019Y-31722837D01*
X66754720Y-31694944D01*
X66764720Y-31644944D01*
X66766200Y-31630000D01*
X66766200Y-31560000D01*
X66764720Y-31545056D01*
X66754720Y-31495056D01*
X66739192Y-31462013D01*
X66715859Y-31442765D01*
X66565859Y-31362765D01*
X66546187Y-31355539D01*
X66086187Y-31255539D01*
X66075844Y-31254024D01*
X65555844Y-31214024D01*
X65549332Y-31213803D01*
X64409332Y-31223803D01*
X64401097Y-31224322D01*
X64061097Y-31264322D01*
X64042305Y-31269011D01*
X64016868Y-31285379D01*
X63999803Y-31310354D01*
X63993800Y-31340000D01*
X63993800Y-31440000D01*
X63996608Y-31460494D01*
X64010363Y-31487433D01*
X64033516Y-31506898D01*
X64062418Y-31515822D01*
X64155629Y-31525143D01*
X64219066Y-31543268D01*
X64244306Y-31546078D01*
X64773181Y-31516142D01*
X65141023Y-31506200D01*
X65198278Y-31506200D01*
X65633934Y-31526003D01*
X65946991Y-31561780D01*
X65922601Y-31564160D01*
X65914730Y-31565346D01*
X65474730Y-31655346D01*
X65453705Y-31662999D01*
X65430498Y-31682398D01*
X65390498Y-31732398D01*
X65379803Y-31750354D01*
X65373800Y-31780000D01*
X65373800Y-31810000D01*
X65379250Y-31838300D01*
X65399250Y-31888300D01*
X65415636Y-31913394D01*
X65440692Y-31930338D01*
X65560692Y-31980338D01*
X65590000Y-31986200D01*
X65630000Y-31986200D01*
X65664078Y-31978155D01*
X65702712Y-31958838D01*
X65871809Y-31983345D01*
X65252552Y-32044165D01*
X65250091Y-32044447D01*
X64030091Y-32204447D01*
X64003511Y-32213104D01*
X63893511Y-32273104D01*
X63876868Y-32285379D01*
X63859803Y-32310354D01*
X63853800Y-32340000D01*
X59578600Y-32340000D01*
X59578600Y-30160000D01*
X63983800Y-30160000D01*
X63983800Y-30400000D01*
X63987269Y-30422729D01*
X64037269Y-30582729D01*
X64062055Y-30619226D01*
X64272055Y-30789226D01*
X64286033Y-30798211D01*
X64315247Y-30806052D01*
X64475247Y-30816052D01*
X64480000Y-30816200D01*
X65030000Y-30816200D01*
X65032720Y-30816151D01*
X65312720Y-30806151D01*
X65318061Y-30805772D01*
X65788061Y-30755772D01*
X65802267Y-30752874D01*
X66162267Y-30642874D01*
X66181626Y-30633826D01*
X66411626Y-30483826D01*
X66432425Y-30463698D01*
X66502425Y-30363698D01*
X66510197Y-30349646D01*
X66516200Y-30320000D01*
X66516200Y-30210000D01*
X66515434Y-30199224D01*
X66505434Y-30129224D01*
X66488170Y-30090779D01*
X66378170Y-29960779D01*
X66362268Y-29946598D01*
X66272268Y-29886598D01*
X66232105Y-29873829D01*
X66202305Y-29879011D01*
X66183759Y-29890945D01*
X66175876Y-29861702D01*
X66155786Y-29839090D01*
X66128481Y-29826075D01*
X65808481Y-29746075D01*
X65797735Y-29744194D01*
X65307735Y-29694194D01*
X65296760Y-29693869D01*
X64826760Y-29713869D01*
X64810460Y-29716348D01*
X64320460Y-29846348D01*
X64295710Y-29857994D01*
X64085710Y-30007994D01*
X64069851Y-30023218D01*
X63999851Y-30113218D01*
X63989803Y-30130354D01*
X63983800Y-30160000D01*
X59578600Y-30160000D01*
X59578600Y-29816063D01*
X62001741Y-29816063D01*
X62011189Y-29991483D01*
X62330227Y-30082860D01*
X62659948Y-30045189D01*
X62797940Y-29987136D01*
X62805448Y-29811621D01*
X62401374Y-29411989D01*
X62001741Y-29816063D01*
X59578600Y-29816063D01*
X59578600Y-29165045D01*
X61552752Y-29165045D01*
X61590423Y-29494766D01*
X61648476Y-29632758D01*
X61823991Y-29640266D01*
X62223623Y-29236192D01*
X62221648Y-29234238D01*
X62577171Y-29234238D01*
X62981245Y-29633871D01*
X63156665Y-29624423D01*
X63248042Y-29305385D01*
X63210371Y-28975664D01*
X63178540Y-28900000D01*
X63973800Y-28900000D01*
X63973800Y-28930000D01*
X63984659Y-28969205D01*
X64014659Y-29019205D01*
X64039555Y-29044580D01*
X64067866Y-29055228D01*
X64377866Y-29105228D01*
X64390000Y-29106200D01*
X65666735Y-29106200D01*
X65943800Y-29129948D01*
X65943800Y-29155446D01*
X65914343Y-29400921D01*
X65915827Y-29427458D01*
X65928463Y-29454940D01*
X65950795Y-29475341D01*
X66050795Y-29535341D01*
X66068937Y-29543231D01*
X66099087Y-29545656D01*
X66127806Y-29536160D01*
X66197806Y-29496160D01*
X66228155Y-29464078D01*
X66328155Y-29264078D01*
X66335678Y-29221097D01*
X66315678Y-29051097D01*
X66310599Y-29031327D01*
X66293882Y-29006118D01*
X66103882Y-28816118D01*
X66083717Y-28801665D01*
X66054475Y-28793931D01*
X65884819Y-28783951D01*
X65455303Y-28753985D01*
X65450000Y-28753800D01*
X64120000Y-28753800D01*
X64095903Y-28757710D01*
X64035903Y-28777710D01*
X64018612Y-28786020D01*
X63996981Y-28807163D01*
X63985280Y-28835056D01*
X63975280Y-28885056D01*
X63973800Y-28900000D01*
X63178540Y-28900000D01*
X63152318Y-28837672D01*
X62976803Y-28830164D01*
X62577171Y-29234238D01*
X62221648Y-29234238D01*
X61819549Y-28836559D01*
X61644129Y-28846007D01*
X61552752Y-29165045D01*
X59578600Y-29165045D01*
X59578600Y-28658809D01*
X61995346Y-28658809D01*
X62399420Y-29058441D01*
X62799053Y-28654367D01*
X62789605Y-28478947D01*
X62470567Y-28387570D01*
X62140846Y-28425241D01*
X62002854Y-28483294D01*
X61995346Y-28658809D01*
X59578600Y-28658809D01*
X59578600Y-27845247D01*
X63733948Y-27845247D01*
X63735280Y-27864944D01*
X63745280Y-27914944D01*
X63759994Y-27946965D01*
X63782994Y-27966611D01*
X63872994Y-28016611D01*
X63896259Y-28024951D01*
X63926502Y-28024392D01*
X63954144Y-28012111D01*
X63974831Y-27990043D01*
X64177255Y-27662309D01*
X64355450Y-27528663D01*
X64833173Y-27375791D01*
X65111321Y-27366200D01*
X65245889Y-27366200D01*
X65606604Y-27405196D01*
X65949347Y-27490882D01*
X66063819Y-27564471D01*
X66073800Y-27581107D01*
X66073800Y-27740360D01*
X65996763Y-27824401D01*
X65624425Y-27954719D01*
X65357287Y-27973800D01*
X65321564Y-27973800D01*
X65203882Y-27856118D01*
X65179646Y-27839803D01*
X65150000Y-27833800D01*
X65120000Y-27833800D01*
X65091700Y-27839250D01*
X65041700Y-27859250D01*
X65009040Y-27884280D01*
X64949040Y-27964280D01*
X64938267Y-27984293D01*
X64933917Y-28014227D01*
X64943800Y-28192121D01*
X64943800Y-28270000D01*
X64945492Y-28285968D01*
X64957575Y-28313698D01*
X65027575Y-28413698D01*
X65039677Y-28427219D01*
X65065903Y-28442290D01*
X65125903Y-28462290D01*
X65143033Y-28465881D01*
X65173104Y-28462613D01*
X65388394Y-28394112D01*
X65993523Y-28284990D01*
X66010017Y-28280039D01*
X66220017Y-28190039D01*
X66251448Y-28165062D01*
X66471448Y-27865062D01*
X66485781Y-27827977D01*
X66505781Y-27637977D01*
X66504971Y-27616369D01*
X66484971Y-27506369D01*
X66471345Y-27474798D01*
X66331345Y-27284798D01*
X66305008Y-27262318D01*
X66015008Y-27112318D01*
X65997649Y-27105872D01*
X65577649Y-27005872D01*
X65568118Y-27004234D01*
X65288118Y-26974234D01*
X65280000Y-26973800D01*
X65250000Y-26973800D01*
X65241348Y-26974293D01*
X64891348Y-27014293D01*
X64882165Y-27015917D01*
X64342165Y-27145917D01*
X64322994Y-27153389D01*
X63962994Y-27353389D01*
X63936598Y-27377732D01*
X63756598Y-27647732D01*
X63743948Y-27685247D01*
X63733948Y-27845247D01*
X59578600Y-27845247D01*
X59578600Y-26140000D01*
X59557393Y-26033384D01*
X59497000Y-25943000D01*
X59406616Y-25882607D01*
X59300000Y-25861400D01*
X51608600Y-25861400D01*
X51608600Y-23975740D01*
X55301961Y-23975740D01*
X55310439Y-24151210D01*
X55628967Y-24244348D01*
X55958891Y-24208500D01*
X56097201Y-24151210D01*
X56105679Y-23975740D01*
X61136488Y-23975740D01*
X61144966Y-24151210D01*
X61463494Y-24244348D01*
X61793418Y-24208500D01*
X61931728Y-24151210D01*
X61940206Y-23975740D01*
X66971011Y-23975740D01*
X66979489Y-24151210D01*
X67298017Y-24244348D01*
X67627941Y-24208500D01*
X67766251Y-24151210D01*
X67774729Y-23975740D01*
X72805531Y-23975740D01*
X72814009Y-24151210D01*
X73132537Y-24244348D01*
X73462461Y-24208500D01*
X73600771Y-24151210D01*
X73609249Y-23975740D01*
X73207390Y-23573881D01*
X72805531Y-23975740D01*
X67774729Y-23975740D01*
X67372870Y-23573881D01*
X66971011Y-23975740D01*
X61940206Y-23975740D01*
X61538347Y-23573881D01*
X61136488Y-23975740D01*
X56105679Y-23975740D01*
X55703820Y-23573881D01*
X55301961Y-23975740D01*
X51608600Y-23975740D01*
X51608600Y-23322251D01*
X54856576Y-23322251D01*
X54892424Y-23652175D01*
X54949714Y-23790485D01*
X55125184Y-23798963D01*
X55527043Y-23397104D01*
X55880597Y-23397104D01*
X56282456Y-23798963D01*
X56457926Y-23790485D01*
X56551064Y-23471957D01*
X56534798Y-23322251D01*
X60691103Y-23322251D01*
X60726951Y-23652175D01*
X60784241Y-23790485D01*
X60959711Y-23798963D01*
X61361570Y-23397104D01*
X61715124Y-23397104D01*
X62116983Y-23798963D01*
X62292453Y-23790485D01*
X62385591Y-23471957D01*
X62349743Y-23142033D01*
X62292453Y-23003723D01*
X62116983Y-22995245D01*
X61715124Y-23397104D01*
X61361570Y-23397104D01*
X60959711Y-22995245D01*
X60784241Y-23003723D01*
X60691103Y-23322251D01*
X56534798Y-23322251D01*
X56515216Y-23142033D01*
X56457926Y-23003723D01*
X56282456Y-22995245D01*
X55880597Y-23397104D01*
X55527043Y-23397104D01*
X55125184Y-22995245D01*
X54949714Y-23003723D01*
X54856576Y-23322251D01*
X51608600Y-23322251D01*
X51608600Y-22818468D01*
X55301961Y-22818468D01*
X55703820Y-23220327D01*
X56105679Y-22818468D01*
X61136488Y-22818468D01*
X61538347Y-23220327D01*
X61940206Y-22818468D01*
X61931728Y-22642998D01*
X61613200Y-22549860D01*
X61283276Y-22585708D01*
X61144966Y-22642998D01*
X61136488Y-22818468D01*
X56105679Y-22818468D01*
X56097201Y-22642998D01*
X55778673Y-22549860D01*
X55448749Y-22585708D01*
X55310439Y-22642998D01*
X55301961Y-22818468D01*
X51608600Y-22818468D01*
X51608600Y-18998600D01*
X64712466Y-18998600D01*
X64619770Y-19091135D01*
G36*
X77057672Y-50158407D02*
X77023872Y-50192207D01*
X77057672Y-50226007D01*
X76913672Y-50370007D01*
X76709808Y-50370007D01*
X76565808Y-50226007D01*
X76599608Y-50192207D01*
X76565808Y-50158407D01*
X76709808Y-50014407D01*
X76913672Y-50014407D01*
X77057672Y-50158407D01*
X77057672Y-50158407D01*
G37*
X77057672Y-50158407D02*
X77023872Y-50192207D01*
X77057672Y-50226007D01*
X76913672Y-50370007D01*
X76709808Y-50370007D01*
X76565808Y-50226007D01*
X76599608Y-50192207D01*
X76565808Y-50158407D01*
X76709808Y-50014407D01*
X76913672Y-50014407D01*
X77057672Y-50158407D01*
G36*
X50266776Y-50158407D02*
X50232976Y-50192207D01*
X50266776Y-50226007D01*
X50122776Y-50370007D01*
X49918912Y-50370007D01*
X49774912Y-50226007D01*
X49808712Y-50192207D01*
X49774912Y-50158407D01*
X49918912Y-50014407D01*
X50122776Y-50014407D01*
X50266776Y-50158407D01*
X50266776Y-50158407D01*
G37*
X50266776Y-50158407D02*
X50232976Y-50192207D01*
X50266776Y-50226007D01*
X50122776Y-50370007D01*
X49918912Y-50370007D01*
X49774912Y-50226007D01*
X49808712Y-50192207D01*
X49774912Y-50158407D01*
X49918912Y-50014407D01*
X50122776Y-50014407D01*
X50266776Y-50158407D01*
G36*
X77057672Y-46158407D02*
X77023872Y-46192207D01*
X77057672Y-46226007D01*
X76913672Y-46370007D01*
X76709808Y-46370007D01*
X76565808Y-46226007D01*
X76599608Y-46192207D01*
X76565808Y-46158407D01*
X76709808Y-46014407D01*
X76913672Y-46014407D01*
X77057672Y-46158407D01*
X77057672Y-46158407D01*
G37*
X77057672Y-46158407D02*
X77023872Y-46192207D01*
X77057672Y-46226007D01*
X76913672Y-46370007D01*
X76709808Y-46370007D01*
X76565808Y-46226007D01*
X76599608Y-46192207D01*
X76565808Y-46158407D01*
X76709808Y-46014407D01*
X76913672Y-46014407D01*
X77057672Y-46158407D01*
G36*
X50266776Y-46158407D02*
X50232976Y-46192207D01*
X50266776Y-46226007D01*
X50122776Y-46370007D01*
X49918912Y-46370007D01*
X49774912Y-46226007D01*
X49808712Y-46192207D01*
X49774912Y-46158407D01*
X49918912Y-46014407D01*
X50122776Y-46014407D01*
X50266776Y-46158407D01*
X50266776Y-46158407D01*
G37*
X50266776Y-46158407D02*
X50232976Y-46192207D01*
X50266776Y-46226007D01*
X50122776Y-46370007D01*
X49918912Y-46370007D01*
X49774912Y-46226007D01*
X49808712Y-46192207D01*
X49774912Y-46158407D01*
X49918912Y-46014407D01*
X50122776Y-46014407D01*
X50266776Y-46158407D01*
M02*
