G04 #@! TF.FileFunction,Soldermask,Bot*
%FSLAX46Y46*%
G04 Gerber Fmt 4.6, Leading zero omitted, Abs format (unit mm)*
G04 Created by KiCad (PCBNEW 4.0.0-rc2-stable) date 3/3/2016 3:44:55 PM*
%MOMM*%
G01*
G04 APERTURE LIST*
%ADD10C,0.150000*%
%ADD11R,4.000000X1.000000*%
%ADD12C,0.600000*%
%ADD13C,0.500000*%
%ADD14R,0.760000X2.000000*%
%ADD15R,0.740000X2.000000*%
%ADD16R,0.900000X0.600000*%
%ADD17R,0.900000X0.200000*%
G04 APERTURE END LIST*
D10*
D11*
X70182240Y-50103065D03*
X70182240Y-48103065D03*
X70182240Y-46103065D03*
D12*
X69182240Y-50103065D03*
X69182240Y-48103065D03*
X69182240Y-46103065D03*
D11*
X49034782Y-46206337D03*
X49034782Y-48206337D03*
X49034782Y-50206337D03*
D12*
X50034782Y-46206337D03*
X50034782Y-48206337D03*
X50034782Y-50206337D03*
D10*
G36*
X60007079Y-43963937D02*
X59281315Y-41053049D01*
X61804085Y-40424053D01*
X62529849Y-43334941D01*
X60007079Y-43963937D01*
X60007079Y-43963937D01*
G37*
G36*
X54344814Y-23320565D02*
X53619049Y-20409678D01*
X57112114Y-19538761D01*
X57837879Y-22449648D01*
X54344814Y-23320565D01*
X54344814Y-23320565D01*
G37*
D13*
X55268813Y-19586101D03*
D14*
X61149040Y-49532716D03*
X62419040Y-49532716D03*
X63689040Y-49532716D03*
X64959040Y-49532716D03*
X61149040Y-46332716D03*
X62419040Y-46332716D03*
X63689040Y-46332716D03*
D15*
X64959040Y-46332716D03*
D16*
X59954040Y-45632716D03*
X59954040Y-47132716D03*
X58704040Y-47132716D03*
X58704040Y-45632716D03*
X57454040Y-45632716D03*
X57454040Y-47132716D03*
D17*
X60604040Y-47082716D03*
M02*
