G04 #@! TF.FileFunction,Profile,NP*
%FSLAX46Y46*%
G04 Gerber Fmt 4.6, Leading zero omitted, Abs format (unit mm)*
G04 Created by KiCad (PCBNEW 4.0.0-rc2-stable) date 3/3/2016 3:49:23 PM*
%MOMM*%
G01*
G04 APERTURE LIST*
%ADD10C,0.150000*%
%ADD11C,0.100000*%
G04 APERTURE END LIST*
D10*
D11*
X70420000Y-51160000D02*
X62220000Y-51160000D01*
X62220000Y-51160000D02*
X62220000Y-51150000D01*
X62220000Y-51150000D02*
X46630000Y-51150000D01*
X46630000Y-51150000D02*
X46630000Y-45150000D01*
X46630000Y-45150000D02*
X62220000Y-45150000D01*
X62220000Y-45150000D02*
X62220000Y-37530000D01*
X62220000Y-37530000D02*
X51330000Y-19980000D01*
X51330000Y-19980000D02*
X51330000Y-18720000D01*
X51330000Y-18720000D02*
X51330000Y-18720000D01*
X51330000Y-18720000D02*
X60270000Y-18720000D01*
X60270000Y-18720000D02*
X66160000Y-29520000D01*
X66160000Y-29520000D02*
X66480000Y-29520000D01*
X66480000Y-29520000D02*
X72370000Y-18720000D01*
X72370000Y-18720000D02*
X81360000Y-18720000D01*
X81360000Y-18720000D02*
X81360000Y-18720000D01*
X81360000Y-18720000D02*
X81360000Y-19980000D01*
X81360000Y-19980000D02*
X70420000Y-37530000D01*
X70420000Y-37530000D02*
X70420000Y-45150000D01*
X70420000Y-45150000D02*
X86060000Y-45150000D01*
X86060000Y-45150000D02*
X86060000Y-51150000D01*
X86060000Y-51150000D02*
X70420000Y-51150000D01*
X70420000Y-51150000D02*
X70420000Y-51160000D01*
X70420000Y-51160000D02*
X70420000Y-51160000D01*
X70420000Y-51160000D02*
X70420000Y-51160000D01*
M02*
