G04 #@! TF.FileFunction,Soldermask,Top*
%FSLAX46Y46*%
G04 Gerber Fmt 4.6, Leading zero omitted, Abs format (unit mm)*
G04 Created by KiCad (PCBNEW 4.0.0-rc2-stable) date 3/3/2016 3:47:02 PM*
%MOMM*%
G01*
G04 APERTURE LIST*
%ADD10C,0.150000*%
%ADD11R,4.000000X1.000000*%
%ADD12C,0.600000*%
G04 APERTURE END LIST*
D10*
G36*
X81258798Y-48102372D02*
X79790541Y-49143631D01*
X79501302Y-48735782D01*
X80969559Y-47694523D01*
X81258798Y-48102372D01*
X81258798Y-48102372D01*
G37*
G36*
X80311553Y-46334513D02*
X78435446Y-47665011D01*
X78250333Y-47403987D01*
X80126440Y-46073489D01*
X80311553Y-46334513D01*
X80311553Y-46334513D01*
G37*
G36*
X81173483Y-47549903D02*
X79297377Y-48880401D01*
X78834595Y-48227843D01*
X80710701Y-46897345D01*
X81173483Y-47549903D01*
X81173483Y-47549903D01*
G37*
G36*
X66866943Y-46334873D02*
X68660441Y-46487736D01*
X68617979Y-46985929D01*
X66824481Y-46833066D01*
X66866943Y-46334873D01*
X66866943Y-46334873D01*
G37*
G36*
X66448848Y-48296453D02*
X68740539Y-48491777D01*
X68713364Y-48810621D01*
X66421673Y-48615297D01*
X66448848Y-48296453D01*
X66448848Y-48296453D01*
G37*
G36*
X66575385Y-46811836D02*
X68867076Y-47007160D01*
X68799137Y-47804270D01*
X66507446Y-47608946D01*
X66575385Y-46811836D01*
X66575385Y-46811836D01*
G37*
G36*
X61333160Y-44290027D02*
X62773160Y-45370027D01*
X62473160Y-45770027D01*
X61033160Y-44690027D01*
X61333160Y-44290027D01*
X61333160Y-44290027D01*
G37*
G36*
X59939160Y-45732027D02*
X61779160Y-47112027D01*
X61587160Y-47368027D01*
X59747160Y-45988027D01*
X59939160Y-45732027D01*
X59939160Y-45732027D01*
G37*
G36*
X60833160Y-44540027D02*
X62673160Y-45920027D01*
X62193160Y-46560027D01*
X60353160Y-45180027D01*
X60833160Y-44540027D01*
X60833160Y-44540027D01*
G37*
G36*
X57653910Y-39507114D02*
X58532675Y-41078029D01*
X58096310Y-41322130D01*
X57217545Y-39751215D01*
X57653910Y-39507114D01*
X57653910Y-39507114D01*
G37*
G36*
X55795127Y-40260455D02*
X56917993Y-42267734D01*
X56638719Y-42423959D01*
X55515853Y-40416680D01*
X55795127Y-40260455D01*
X55795127Y-40260455D01*
G37*
G36*
X57095495Y-39533032D02*
X58218361Y-41540312D01*
X57520177Y-41930874D01*
X56397311Y-39923594D01*
X57095495Y-39533032D01*
X57095495Y-39533032D01*
G37*
G36*
X57145273Y-33668763D02*
X56987128Y-35461802D01*
X56489061Y-35417873D01*
X56647206Y-33624834D01*
X57145273Y-33668763D01*
X57145273Y-33668763D01*
G37*
G36*
X55184933Y-33244891D02*
X54982858Y-35535997D01*
X54664095Y-35507883D01*
X54866170Y-33216777D01*
X55184933Y-33244891D01*
X55184933Y-33244891D01*
G37*
G36*
X56669170Y-33375800D02*
X56467096Y-35666906D01*
X55670190Y-35596620D01*
X55872264Y-33305514D01*
X56669170Y-33375800D01*
X56669170Y-33375800D01*
G37*
G36*
X59051688Y-28010690D02*
X58173264Y-29581795D01*
X57736846Y-29337788D01*
X58615270Y-27766683D01*
X59051688Y-28010690D01*
X59051688Y-28010690D01*
G37*
G36*
X57436748Y-26821334D02*
X56314317Y-28828857D01*
X56035010Y-28672692D01*
X57157441Y-26665169D01*
X57436748Y-26821334D01*
X57436748Y-26821334D01*
G37*
G36*
X58737274Y-27548474D02*
X57614843Y-29555997D01*
X56916574Y-29165586D01*
X58039005Y-27158063D01*
X58737274Y-27548474D01*
X58737274Y-27548474D01*
G37*
G36*
X63600158Y-24449807D02*
X61970629Y-25214422D01*
X61758236Y-24761775D01*
X63387765Y-23997160D01*
X63600158Y-24449807D01*
X63600158Y-24449807D01*
G37*
G36*
X62981158Y-22542076D02*
X60898982Y-23519084D01*
X60763050Y-23229390D01*
X62845226Y-22252382D01*
X62981158Y-22542076D01*
X62981158Y-22542076D01*
G37*
G36*
X63614088Y-23890964D02*
X61531912Y-24867971D01*
X61192084Y-24143736D01*
X63274260Y-23166729D01*
X63614088Y-23890964D01*
X63614088Y-23890964D01*
G37*
G36*
X69317394Y-23734799D02*
X67525476Y-23564418D01*
X67572804Y-23066663D01*
X69364722Y-23237044D01*
X69317394Y-23734799D01*
X69317394Y-23734799D01*
G37*
G36*
X69754637Y-21777398D02*
X67464964Y-21559689D01*
X67495255Y-21241126D01*
X69784928Y-21458835D01*
X69754637Y-21777398D01*
X69754637Y-21777398D01*
G37*
G36*
X69613600Y-23260709D02*
X67323927Y-23042999D01*
X67399652Y-22246591D01*
X69689325Y-22464301D01*
X69613600Y-23260709D01*
X69613600Y-23260709D01*
G37*
G36*
X74688338Y-25815967D02*
X73250454Y-24733152D01*
X73551236Y-24333739D01*
X74989120Y-25416554D01*
X74688338Y-25815967D01*
X74688338Y-25815967D01*
G37*
G36*
X76085156Y-24376696D02*
X74247859Y-22993100D01*
X74440360Y-22737476D01*
X76277657Y-24121072D01*
X76085156Y-24376696D01*
X76085156Y-24376696D01*
G37*
G36*
X75188826Y-25566945D02*
X73351529Y-24183349D01*
X73832780Y-23544289D01*
X75670077Y-24927885D01*
X75188826Y-25566945D01*
X75188826Y-25566945D01*
G37*
G36*
X78373431Y-30584612D02*
X77490114Y-29016252D01*
X77925769Y-28770886D01*
X78809086Y-30339246D01*
X78373431Y-30584612D01*
X78373431Y-30584612D01*
G37*
G36*
X80230023Y-29825882D02*
X79101340Y-27821868D01*
X79380159Y-27664834D01*
X80508842Y-29668848D01*
X80230023Y-29825882D01*
X80230023Y-29825882D01*
G37*
G36*
X78931769Y-30557073D02*
X77803086Y-28553058D01*
X78500135Y-28160473D01*
X79628818Y-30164488D01*
X78931769Y-30557073D01*
X78931769Y-30557073D01*
G37*
G36*
X78878305Y-36294684D02*
X79038320Y-34501811D01*
X79536341Y-34546260D01*
X79376326Y-36339133D01*
X78878305Y-36294684D01*
X78878305Y-36294684D01*
G37*
G36*
X80838202Y-36720600D02*
X81042666Y-34429707D01*
X81361400Y-34458154D01*
X81156936Y-36749047D01*
X80838202Y-36720600D01*
X80838202Y-36720600D01*
G37*
G36*
X79354102Y-36588144D02*
X79558566Y-34297250D01*
X80355398Y-34368368D01*
X80150934Y-36659262D01*
X79354102Y-36588144D01*
X79354102Y-36588144D01*
G37*
G36*
X76972329Y-41915097D02*
X77850104Y-40343629D01*
X78286623Y-40587455D01*
X77408848Y-42158923D01*
X76972329Y-41915097D01*
X76972329Y-41915097D01*
G37*
G36*
X78587762Y-43103784D02*
X79709362Y-41095797D01*
X79988734Y-41251846D01*
X78867134Y-43259833D01*
X78587762Y-43103784D01*
X78587762Y-43103784D01*
G37*
G36*
X77286936Y-42377183D02*
X78408536Y-40369195D01*
X79106966Y-40759317D01*
X77985366Y-42767305D01*
X77286936Y-42377183D01*
X77286936Y-42377183D01*
G37*
G36*
X72415309Y-45517607D02*
X74034259Y-44730842D01*
X74252805Y-45180551D01*
X72633855Y-45967316D01*
X72415309Y-45517607D01*
X72415309Y-45517607D01*
G37*
G36*
X73060268Y-47416720D02*
X75128927Y-46411409D01*
X75268796Y-46699222D01*
X73200137Y-47704533D01*
X73060268Y-47416720D01*
X73060268Y-47416720D01*
G37*
G36*
X72409001Y-46076589D02*
X74477660Y-45071278D01*
X74827333Y-45790811D01*
X72758674Y-46796122D01*
X72409001Y-46076589D01*
X72409001Y-46076589D01*
G37*
D11*
X49020836Y-46192207D03*
X49020836Y-48192207D03*
X49020836Y-50192207D03*
D12*
X50020836Y-46192207D03*
X50020836Y-48192207D03*
X50020836Y-50192207D03*
D11*
X87710130Y-50184090D03*
X87710130Y-48184090D03*
X87710130Y-46184090D03*
D12*
X86710130Y-50184090D03*
X86710130Y-48184090D03*
X86710130Y-46184090D03*
M02*
