G04 #@! TF.FileFunction,Profile,NP*
%FSLAX46Y46*%
G04 Gerber Fmt 4.6, Leading zero omitted, Abs format (unit mm)*
G04 Created by KiCad (PCBNEW 4.0.0-rc2-stable) date 3/3/2016 3:48:31 PM*
%MOMM*%
G01*
G04 APERTURE LIST*
%ADD10C,0.150000*%
%ADD11C,0.100000*%
G04 APERTURE END LIST*
D10*
D11*
X68750000Y-51530000D02*
X65230000Y-51530000D01*
X65230000Y-51530000D02*
X65070000Y-51150000D01*
X65070000Y-51150000D02*
X46630000Y-51150000D01*
X46630000Y-51150000D02*
X46630000Y-45150000D01*
X46630000Y-45150000D02*
X62420000Y-45150000D01*
X62420000Y-45150000D02*
X51330000Y-19980000D01*
X51330000Y-19980000D02*
X51330000Y-18720000D01*
X51330000Y-18720000D02*
X51330000Y-18720000D01*
X51330000Y-18720000D02*
X59300000Y-18720000D01*
X59300000Y-18720000D02*
X66900000Y-37390000D01*
X66900000Y-37390000D02*
X67130000Y-37390000D01*
X67130000Y-37390000D02*
X74540000Y-18720000D01*
X74540000Y-18720000D02*
X82510000Y-18720000D01*
X82510000Y-18720000D02*
X82510000Y-18720000D01*
X82510000Y-18720000D02*
X82510000Y-19980000D01*
X82510000Y-19980000D02*
X71530000Y-45150000D01*
X71530000Y-45150000D02*
X87210000Y-45150000D01*
X87210000Y-45150000D02*
X87210000Y-51150000D01*
X87210000Y-51150000D02*
X68910000Y-51150000D01*
X68910000Y-51150000D02*
X68750000Y-51530000D01*
X68750000Y-51530000D02*
X68750000Y-51530000D01*
X68750000Y-51530000D02*
X68750000Y-51530000D01*
M02*
