G04 #@! TF.FileFunction,Soldermask,Top*
%FSLAX46Y46*%
G04 Gerber Fmt 4.6, Leading zero omitted, Abs format (unit mm)*
G04 Created by KiCad (PCBNEW 4.0.0-rc2-stable) date 3/3/2016 3:42:37 PM*
%MOMM*%
G01*
G04 APERTURE LIST*
%ADD10C,0.150000*%
%ADD11R,4.000000X1.000000*%
%ADD12C,0.600000*%
G04 APERTURE END LIST*
D10*
G36*
X77052653Y-41239738D02*
X78597241Y-42163994D01*
X78340503Y-42593046D01*
X76795915Y-41668790D01*
X77052653Y-41239738D01*
X77052653Y-41239738D01*
G37*
G36*
X75816311Y-42818996D02*
X77789950Y-43999991D01*
X77625637Y-44274584D01*
X75651998Y-43093589D01*
X75816311Y-42818996D01*
X75816311Y-42818996D01*
G37*
G36*
X76581390Y-41540421D02*
X78555029Y-42721416D01*
X78144248Y-43407899D01*
X76170609Y-42226904D01*
X76581390Y-41540421D01*
X76581390Y-41540421D01*
G37*
G36*
X73272129Y-45255981D02*
X74043097Y-46882513D01*
X73591283Y-47096671D01*
X72820315Y-45470139D01*
X73272129Y-45255981D01*
X73272129Y-45255981D01*
G37*
G36*
X71366829Y-45882422D02*
X72351955Y-47960769D01*
X72062793Y-48097830D01*
X71077667Y-46019483D01*
X71366829Y-45882422D01*
X71366829Y-45882422D01*
G37*
G36*
X72713236Y-45244231D02*
X73698362Y-47322578D01*
X72975458Y-47665231D01*
X71990332Y-45586884D01*
X72713236Y-45244231D01*
X72713236Y-45244231D01*
G37*
G36*
X67831947Y-46531382D02*
X67667835Y-48323885D01*
X67169917Y-48278298D01*
X67334029Y-46485795D01*
X67831947Y-46531382D01*
X67831947Y-46531382D01*
G37*
G36*
X65873028Y-46100988D02*
X65663329Y-48391409D01*
X65344662Y-48362234D01*
X65554361Y-46071813D01*
X65873028Y-46100988D01*
X65873028Y-46100988D01*
G37*
G36*
X67356822Y-46236836D02*
X67147124Y-48527257D01*
X66350456Y-48454318D01*
X66560154Y-46163897D01*
X67356822Y-46236836D01*
X67356822Y-46236836D01*
G37*
G36*
X62400532Y-45183122D02*
X61306093Y-46612179D01*
X60909132Y-46308168D01*
X62003571Y-44879111D01*
X62400532Y-45183122D01*
X62400532Y-45183122D01*
G37*
G36*
X60972636Y-43774678D02*
X59574186Y-45600695D01*
X59320132Y-45406128D01*
X60718582Y-43580111D01*
X60972636Y-43774678D01*
X60972636Y-43774678D01*
G37*
G36*
X62155577Y-44680630D02*
X60757127Y-46506647D01*
X60121991Y-46020230D01*
X61520441Y-44194213D01*
X62155577Y-44680630D01*
X62155577Y-44680630D01*
G37*
G36*
X58437802Y-41159804D02*
X56868270Y-42041037D01*
X56623484Y-41605056D01*
X58193016Y-40723823D01*
X58437802Y-41159804D01*
X58437802Y-41159804D01*
G37*
G36*
X57681542Y-39302207D02*
X55676029Y-40428225D01*
X55519366Y-40149197D01*
X57524879Y-39023179D01*
X57681542Y-39302207D01*
X57681542Y-39302207D01*
G37*
G36*
X58411006Y-40601430D02*
X56405493Y-41727449D01*
X56013834Y-41029880D01*
X58019347Y-39903861D01*
X58411006Y-40601430D01*
X58411006Y-40601430D01*
G37*
G36*
X56697349Y-35826730D02*
X54904684Y-35664396D01*
X54949777Y-35166434D01*
X56742442Y-35328768D01*
X56697349Y-35826730D01*
X56697349Y-35826730D01*
G37*
G36*
X57125799Y-33867386D02*
X54835172Y-33659960D01*
X54864031Y-33341264D01*
X57154658Y-33548690D01*
X57125799Y-33867386D01*
X57125799Y-33867386D01*
G37*
G36*
X56991424Y-35351314D02*
X54700796Y-35143888D01*
X54772944Y-34347148D01*
X57063572Y-34554574D01*
X56991424Y-35351314D01*
X56991424Y-35351314D01*
G37*
G36*
X57571019Y-30216719D02*
X56001494Y-29335475D01*
X56246285Y-28899495D01*
X57815810Y-29780739D01*
X57571019Y-30216719D01*
X57571019Y-30216719D01*
G37*
G36*
X58763273Y-28603916D02*
X56757769Y-27477882D01*
X56914435Y-27198856D01*
X58919939Y-28324890D01*
X58763273Y-28603916D01*
X58763273Y-28603916D01*
G37*
G36*
X58033799Y-29903134D02*
X56028295Y-28777100D01*
X56419959Y-28079534D01*
X58425463Y-29205568D01*
X58033799Y-29903134D01*
X58033799Y-29903134D01*
G37*
G36*
X60999519Y-25720241D02*
X59902355Y-24293275D01*
X60298735Y-23988507D01*
X61395899Y-25415473D01*
X60999519Y-25720241D01*
X60999519Y-25720241D01*
G37*
G36*
X62729493Y-24705454D02*
X61327562Y-22882109D01*
X61581245Y-22687058D01*
X62983176Y-24510403D01*
X62729493Y-24705454D01*
X62729493Y-24705454D01*
G37*
G36*
X61548282Y-25613663D02*
X60146351Y-23790318D01*
X60780558Y-23302689D01*
X62182489Y-25126034D01*
X61548282Y-25613663D01*
X61548282Y-25613663D01*
G37*
G36*
X66054687Y-23422350D02*
X65886121Y-21630260D01*
X66383923Y-21583436D01*
X66552489Y-23375526D01*
X66054687Y-23422350D01*
X66054687Y-23422350D01*
G37*
G36*
X68059353Y-23484892D02*
X67843963Y-21194999D01*
X68162557Y-21165032D01*
X68377947Y-23454925D01*
X68059353Y-23484892D01*
X68059353Y-23484892D01*
G37*
G36*
X66575902Y-23624427D02*
X66360512Y-21334535D01*
X67156996Y-21259617D01*
X67372386Y-23549509D01*
X66575902Y-23624427D01*
X66575902Y-23624427D01*
G37*
G36*
X71602242Y-23713489D02*
X72325626Y-22065243D01*
X72783472Y-22266183D01*
X72060088Y-23914429D01*
X71602242Y-23713489D01*
X71602242Y-23713489D01*
G37*
G36*
X73323999Y-24742153D02*
X74248324Y-22636061D01*
X74541345Y-22764663D01*
X73617020Y-24870755D01*
X73323999Y-24742153D01*
X73323999Y-24742153D01*
G37*
G36*
X71959618Y-24143352D02*
X72883943Y-22037260D01*
X73616496Y-22358764D01*
X72692171Y-24464856D01*
X71959618Y-24143352D01*
X71959618Y-24143352D01*
G37*
G36*
X76041870Y-26792230D02*
X77560673Y-25826187D01*
X77829018Y-26248076D01*
X76310215Y-27214119D01*
X76041870Y-26792230D01*
X76041870Y-26792230D01*
G37*
G36*
X76898938Y-28605522D02*
X78839631Y-27371134D01*
X79011372Y-27641144D01*
X77070679Y-28875532D01*
X76898938Y-28605522D01*
X76898938Y-28605522D01*
G37*
G36*
X76099270Y-27348291D02*
X78039962Y-26113903D01*
X78469314Y-26788927D01*
X76528622Y-28023315D01*
X76099270Y-27348291D01*
X76099270Y-27348291D01*
G37*
D11*
X85735030Y-50192207D03*
X85735030Y-48192207D03*
X85735030Y-46192207D03*
D12*
X84735030Y-50192207D03*
X84735030Y-48192207D03*
X84735030Y-46192207D03*
D11*
X49020836Y-46192207D03*
X49020836Y-48192207D03*
X49020836Y-50192207D03*
D12*
X50020836Y-46192207D03*
X50020836Y-48192207D03*
X50020836Y-50192207D03*
M02*
