G04 #@! TF.FileFunction,Soldermask,Top*
%FSLAX46Y46*%
G04 Gerber Fmt 4.6, Leading zero omitted, Abs format (unit mm)*
G04 Created by KiCad (PCBNEW 4.0.0-rc2-stable) date 3/3/2016 3:07:13 PM*
%MOMM*%
G01*
G04 APERTURE LIST*
%ADD10C,0.150000*%
%ADD11R,0.500000X1.800000*%
%ADD12R,0.320000X2.300000*%
%ADD13R,0.800000X2.300000*%
%ADD14R,4.000000X1.000000*%
%ADD15C,0.600000*%
G04 APERTURE END LIST*
D10*
G36*
X65776097Y-24123475D02*
X66531023Y-22489435D01*
X66984923Y-22699137D01*
X66229997Y-24333177D01*
X65776097Y-24123475D01*
X65776097Y-24123475D01*
G37*
G36*
X67477769Y-25185038D02*
X68442395Y-23097097D01*
X68732891Y-23231306D01*
X67768265Y-25319247D01*
X67477769Y-25185038D01*
X67477769Y-25185038D01*
G37*
G36*
X66125147Y-24560127D02*
X67089773Y-22472187D01*
X67816013Y-22807709D01*
X66851387Y-24895649D01*
X66125147Y-24560127D01*
X66125147Y-24560127D01*
G37*
G36*
X63189047Y-29723164D02*
X63943973Y-28089124D01*
X64397873Y-28298826D01*
X63642947Y-29932866D01*
X63189047Y-29723164D01*
X63189047Y-29723164D01*
G37*
G36*
X64890719Y-30784727D02*
X65855345Y-28696786D01*
X66145841Y-28830995D01*
X65181215Y-30918936D01*
X64890719Y-30784727D01*
X64890719Y-30784727D01*
G37*
G36*
X63538097Y-30159816D02*
X64502723Y-28071876D01*
X65228963Y-28407398D01*
X64264337Y-30495338D01*
X63538097Y-30159816D01*
X63538097Y-30159816D01*
G37*
G36*
X60601997Y-35322856D02*
X61356923Y-33688816D01*
X61810823Y-33898518D01*
X61055897Y-35532558D01*
X60601997Y-35322856D01*
X60601997Y-35322856D01*
G37*
G36*
X62303669Y-36384419D02*
X63268295Y-34296478D01*
X63558791Y-34430687D01*
X62594165Y-36518628D01*
X62303669Y-36384419D01*
X62303669Y-36384419D01*
G37*
G36*
X60951047Y-35759508D02*
X61915673Y-33671568D01*
X62641913Y-34007090D01*
X61677287Y-36095030D01*
X60951047Y-35759508D01*
X60951047Y-35759508D01*
G37*
G36*
X58014937Y-40922551D02*
X58769863Y-39288511D01*
X59223763Y-39498213D01*
X58468837Y-41132253D01*
X58014937Y-40922551D01*
X58014937Y-40922551D01*
G37*
G36*
X59716609Y-41984114D02*
X60681235Y-39896173D01*
X60971731Y-40030382D01*
X60007105Y-42118323D01*
X59716609Y-41984114D01*
X59716609Y-41984114D01*
G37*
G36*
X58363987Y-41359203D02*
X59328613Y-39271263D01*
X60054853Y-39606785D01*
X59090227Y-41694725D01*
X58363987Y-41359203D01*
X58363987Y-41359203D01*
G37*
G36*
X55427883Y-46522236D02*
X56182809Y-44888196D01*
X56636709Y-45097898D01*
X55881783Y-46731938D01*
X55427883Y-46522236D01*
X55427883Y-46522236D01*
G37*
G36*
X57129555Y-47583799D02*
X58094181Y-45495858D01*
X58384677Y-45630067D01*
X57420051Y-47718008D01*
X57129555Y-47583799D01*
X57129555Y-47583799D01*
G37*
G36*
X55776933Y-46958888D02*
X56741559Y-44870948D01*
X57467799Y-45206470D01*
X56503173Y-47294410D01*
X55776933Y-46958888D01*
X55776933Y-46958888D01*
G37*
D11*
X71085150Y-43417575D03*
D12*
X69185150Y-43417649D03*
D13*
X70435150Y-43417600D03*
D11*
X64884924Y-43417819D03*
D12*
X62984924Y-43417893D03*
D13*
X64234924Y-43417844D03*
D10*
G36*
X70122901Y-30691341D02*
X69363042Y-29059589D01*
X69816307Y-28848517D01*
X70576166Y-30480269D01*
X70122901Y-30691341D01*
X70122901Y-30691341D01*
G37*
G36*
X72032430Y-30077907D02*
X71061499Y-27992891D01*
X71351588Y-27857805D01*
X72322519Y-29942821D01*
X72032430Y-30077907D01*
X72032430Y-30077907D01*
G37*
G36*
X70681702Y-30706902D02*
X69710771Y-28621885D01*
X70435994Y-28284170D01*
X71406925Y-30369187D01*
X70681702Y-30706902D01*
X70681702Y-30706902D01*
G37*
G36*
X72730201Y-36290366D02*
X71970342Y-34658614D01*
X72423607Y-34447542D01*
X73183466Y-36079294D01*
X72730201Y-36290366D01*
X72730201Y-36290366D01*
G37*
G36*
X74639730Y-35676932D02*
X73668799Y-33591916D01*
X73958888Y-33456830D01*
X74929819Y-35541846D01*
X74639730Y-35676932D01*
X74639730Y-35676932D01*
G37*
G36*
X73289002Y-36305927D02*
X72318071Y-34220910D01*
X73043294Y-33883195D01*
X74014225Y-35968212D01*
X73289002Y-36305927D01*
X73289002Y-36305927D01*
G37*
G36*
X75337501Y-41889388D02*
X74577642Y-40257636D01*
X75030907Y-40046564D01*
X75790766Y-41678316D01*
X75337501Y-41889388D01*
X75337501Y-41889388D01*
G37*
G36*
X77247030Y-41275954D02*
X76276099Y-39190938D01*
X76566188Y-39055852D01*
X77537119Y-41140868D01*
X77247030Y-41275954D01*
X77247030Y-41275954D01*
G37*
G36*
X75896302Y-41904949D02*
X74925371Y-39819932D01*
X75650594Y-39482217D01*
X76621525Y-41567234D01*
X75896302Y-41904949D01*
X75896302Y-41904949D01*
G37*
G36*
X77944797Y-47488411D02*
X77184938Y-45856659D01*
X77638203Y-45645587D01*
X78398062Y-47277339D01*
X77944797Y-47488411D01*
X77944797Y-47488411D01*
G37*
G36*
X79854326Y-46874977D02*
X78883395Y-44789961D01*
X79173484Y-44654875D01*
X80144415Y-46739891D01*
X79854326Y-46874977D01*
X79854326Y-46874977D01*
G37*
G36*
X78503598Y-47503972D02*
X77532667Y-45418955D01*
X78257890Y-45081240D01*
X79228821Y-47166257D01*
X78503598Y-47503972D01*
X78503598Y-47503972D01*
G37*
D14*
X86521140Y-50192207D03*
X86521140Y-48192207D03*
X86521140Y-46192207D03*
D15*
X85521140Y-50192207D03*
X85521140Y-48192207D03*
X85521140Y-46192207D03*
D14*
X49020840Y-46192207D03*
X49020840Y-48192207D03*
X49020840Y-50192207D03*
D15*
X50020840Y-46192207D03*
X50020840Y-48192207D03*
X50020840Y-50192207D03*
M02*
