G04 #@! TF.FileFunction,Soldermask,Bot*
%FSLAX46Y46*%
G04 Gerber Fmt 4.6, Leading zero omitted, Abs format (unit mm)*
G04 Created by KiCad (PCBNEW 4.0.0-rc2-stable) date 3/3/2016 3:46:00 PM*
%MOMM*%
G01*
G04 APERTURE LIST*
%ADD10C,0.150000*%
%ADD11R,4.000000X1.000000*%
%ADD12C,0.600000*%
%ADD13C,0.500000*%
%ADD14R,2.000000X0.760000*%
%ADD15R,2.000000X0.740000*%
%ADD16R,0.600000X0.900000*%
%ADD17R,0.200000X0.900000*%
G04 APERTURE END LIST*
D10*
D11*
X49020844Y-46192207D03*
X49020844Y-48192207D03*
X49020844Y-50192207D03*
D12*
X50020844Y-46192207D03*
X50020844Y-48192207D03*
X50020844Y-50192207D03*
D11*
X85363190Y-50192207D03*
X85363190Y-48192207D03*
X85363190Y-46192207D03*
D12*
X84363190Y-50192207D03*
X84363190Y-48192207D03*
X84363190Y-46192207D03*
D10*
G36*
X55907326Y-31645879D02*
X58906570Y-31578559D01*
X58964914Y-34177905D01*
X55965670Y-34245225D01*
X55907326Y-31645879D01*
X55907326Y-31645879D01*
G37*
G36*
X77290718Y-30665791D02*
X80289962Y-30598471D01*
X80370746Y-34197565D01*
X77371502Y-34264885D01*
X77290718Y-30665791D01*
X77290718Y-30665791D01*
G37*
D13*
X80730253Y-32389042D03*
D14*
X54227785Y-46250647D03*
X54227785Y-47520647D03*
X54227785Y-48790647D03*
X54227785Y-50060647D03*
X57427785Y-46250647D03*
X57427785Y-47520647D03*
X57427785Y-48790647D03*
D15*
X57427785Y-50060647D03*
D16*
X58127785Y-45055647D03*
X56627785Y-45055647D03*
X56627785Y-43805647D03*
X58127785Y-43805647D03*
X58127785Y-42555647D03*
X56627785Y-42555647D03*
D17*
X56677785Y-45705647D03*
M02*
