G04 #@! TF.FileFunction,Soldermask,Top*
%FSLAX46Y46*%
G04 Gerber Fmt 4.6, Leading zero omitted, Abs format (unit mm)*
G04 Created by KiCad (PCBNEW 4.0.0-rc2-stable) date 3/3/2016 4:04:38 PM*
%MOMM*%
G01*
G04 APERTURE LIST*
%ADD10C,0.150000*%
%ADD11R,1.800000X0.500000*%
%ADD12R,2.300000X0.320000*%
%ADD13R,2.300000X0.800000*%
%ADD14R,0.500000X1.800000*%
%ADD15R,0.320000X2.300000*%
%ADD16R,0.800000X2.300000*%
%ADD17R,4.000000X1.000000*%
%ADD18C,0.600000*%
G04 APERTURE END LIST*
D10*
D11*
X55269380Y-21595544D03*
D12*
X55269380Y-23495544D03*
D13*
X55269380Y-22245544D03*
D11*
X55269380Y-27931009D03*
D12*
X55269380Y-29831009D03*
D13*
X55269380Y-28581009D03*
D11*
X55269380Y-34266473D03*
D12*
X55269380Y-36166473D03*
D13*
X55269380Y-34916473D03*
D11*
X55269380Y-40601938D03*
D12*
X55269380Y-42501938D03*
D13*
X55269380Y-41251938D03*
D11*
X55269380Y-46937402D03*
D12*
X55269380Y-48837402D03*
D13*
X55269380Y-47587402D03*
D11*
X74314330Y-48737402D03*
D12*
X74314330Y-46837402D03*
D13*
X74314330Y-48087402D03*
D11*
X74314330Y-42401938D03*
D12*
X74314330Y-40501938D03*
D13*
X74314330Y-41751938D03*
D11*
X74314330Y-36066473D03*
D12*
X74314330Y-34166473D03*
D13*
X74314330Y-35416473D03*
D11*
X74314330Y-29731009D03*
D12*
X74314330Y-27831009D03*
D13*
X74314330Y-29081009D03*
D11*
X74314330Y-23395544D03*
D12*
X74314330Y-21495544D03*
D13*
X74314330Y-22745544D03*
D14*
X68725745Y-34058006D03*
D15*
X66825745Y-34058006D03*
D16*
X68075745Y-34058006D03*
D14*
X62369086Y-34058006D03*
D15*
X60469086Y-34058006D03*
D16*
X61719086Y-34058006D03*
D17*
X80684685Y-50192207D03*
X80684685Y-48192207D03*
X80684685Y-46192207D03*
D18*
X79684685Y-50192207D03*
X79684685Y-48192207D03*
X79684685Y-46192207D03*
D17*
X49020840Y-46192207D03*
X49020840Y-48192207D03*
X49020840Y-50192207D03*
D18*
X50020840Y-46192207D03*
X50020840Y-48192207D03*
X50020840Y-50192207D03*
M02*
