G04 #@! TF.FileFunction,Soldermask,Top*
%FSLAX46Y46*%
G04 Gerber Fmt 4.6, Leading zero omitted, Abs format (unit mm)*
G04 Created by KiCad (PCBNEW 4.0.0-rc2-stable) date 3/3/2016 3:49:37 PM*
%MOMM*%
G01*
G04 APERTURE LIST*
%ADD10C,0.150000*%
%ADD11R,0.500000X1.800000*%
%ADD12R,0.320000X2.300000*%
%ADD13R,0.800000X2.300000*%
%ADD14R,4.000000X1.000000*%
%ADD15C,0.600000*%
G04 APERTURE END LIST*
D10*
D11*
X72309650Y-47261530D03*
D12*
X70409650Y-47261530D03*
D13*
X71659650Y-47261530D03*
D11*
X65607570Y-47261530D03*
D12*
X63707570Y-47261530D03*
D13*
X64957570Y-47261530D03*
D11*
X58905486Y-47261530D03*
D12*
X57005486Y-47261530D03*
D13*
X58255486Y-47261530D03*
D10*
G36*
X71611491Y-21298838D02*
X71611299Y-23098838D01*
X71111299Y-23098784D01*
X71111491Y-21298784D01*
X71611491Y-21298838D01*
X71611491Y-21298838D01*
G37*
G36*
X69621517Y-21048626D02*
X69621273Y-23348626D01*
X69301273Y-23348592D01*
X69301517Y-21048592D01*
X69621517Y-21048626D01*
X69621517Y-21048626D01*
G37*
G36*
X71111517Y-21048785D02*
X71111273Y-23348785D01*
X70311273Y-23348699D01*
X70311517Y-21048699D01*
X71111517Y-21048785D01*
X71111517Y-21048785D01*
G37*
G36*
X64880744Y-21298121D02*
X64880552Y-23098121D01*
X64380552Y-23098067D01*
X64380744Y-21298067D01*
X64880744Y-21298121D01*
X64880744Y-21298121D01*
G37*
G36*
X62890770Y-21047909D02*
X62890526Y-23347909D01*
X62570526Y-23347875D01*
X62570770Y-21047875D01*
X62890770Y-21047909D01*
X62890770Y-21047909D01*
G37*
G36*
X64380770Y-21048068D02*
X64380526Y-23348068D01*
X63580526Y-23347982D01*
X63580770Y-21047982D01*
X64380770Y-21048068D01*
X64380770Y-21048068D01*
G37*
G36*
X58149996Y-21297403D02*
X58149804Y-23097403D01*
X57649804Y-23097349D01*
X57649996Y-21297349D01*
X58149996Y-21297403D01*
X58149996Y-21297403D01*
G37*
G36*
X56160022Y-21047191D02*
X56159778Y-23347191D01*
X55839778Y-23347157D01*
X55840022Y-21047157D01*
X56160022Y-21047191D01*
X56160022Y-21047191D01*
G37*
G36*
X57650022Y-21047350D02*
X57649778Y-23347350D01*
X56849778Y-23347264D01*
X56850022Y-21047264D01*
X57650022Y-21047350D01*
X57650022Y-21047350D01*
G37*
G36*
X61546739Y-42507250D02*
X59956676Y-41663628D01*
X60191015Y-41221944D01*
X61781078Y-42065566D01*
X61546739Y-42507250D01*
X61546739Y-42507250D01*
G37*
G36*
X62700252Y-40866517D02*
X60668505Y-39788555D01*
X60818482Y-39505877D01*
X62850229Y-40583839D01*
X62700252Y-40866517D01*
X62700252Y-40866517D01*
G37*
G36*
X62001920Y-42182735D02*
X59970173Y-41104773D01*
X60345116Y-40398079D01*
X62376863Y-41476041D01*
X62001920Y-42182735D01*
X62001920Y-42182735D01*
G37*
G36*
X64831941Y-36315279D02*
X63241878Y-35471657D01*
X63476217Y-35029973D01*
X65066280Y-35873595D01*
X64831941Y-36315279D01*
X64831941Y-36315279D01*
G37*
G36*
X65985454Y-34674546D02*
X63953707Y-33596584D01*
X64103684Y-33313906D01*
X66135431Y-34391868D01*
X65985454Y-34674546D01*
X65985454Y-34674546D01*
G37*
G36*
X65287122Y-35990764D02*
X63255375Y-34912802D01*
X63630318Y-34206108D01*
X65662065Y-35284070D01*
X65287122Y-35990764D01*
X65287122Y-35990764D01*
G37*
G36*
X68117151Y-30123314D02*
X66527088Y-29279692D01*
X66761427Y-28838008D01*
X68351490Y-29681630D01*
X68117151Y-30123314D01*
X68117151Y-30123314D01*
G37*
G36*
X69270664Y-28482581D02*
X67238917Y-27404619D01*
X67388894Y-27121941D01*
X69420641Y-28199903D01*
X69270664Y-28482581D01*
X69270664Y-28482581D01*
G37*
G36*
X68572332Y-29798799D02*
X66540585Y-28720837D01*
X66915528Y-28014143D01*
X68947275Y-29092105D01*
X68572332Y-29798799D01*
X68572332Y-29798799D01*
G37*
D14*
X79618670Y-50192207D03*
X79618670Y-48192207D03*
X79618670Y-46192207D03*
D15*
X78618670Y-50192207D03*
X78618670Y-48192207D03*
X78618670Y-46192207D03*
D14*
X49020840Y-46192207D03*
X49020840Y-48192207D03*
X49020840Y-50192207D03*
D15*
X50020840Y-46192207D03*
X50020840Y-48192207D03*
X50020840Y-50192207D03*
M02*
