G04 #@! TF.FileFunction,Soldermask,Bot*
%FSLAX46Y46*%
G04 Gerber Fmt 4.6, Leading zero omitted, Abs format (unit mm)*
G04 Created by KiCad (PCBNEW 4.0.0-rc2-stable) date 3/3/2016 3:46:15 PM*
%MOMM*%
G01*
G04 APERTURE LIST*
%ADD10C,0.150000*%
%ADD11R,4.000000X1.000000*%
%ADD12C,0.600000*%
%ADD13C,0.500000*%
%ADD14R,2.000000X0.760000*%
%ADD15R,2.000000X0.740000*%
%ADD16R,0.600000X0.900000*%
%ADD17R,0.200000X0.900000*%
G04 APERTURE END LIST*
D10*
D11*
X81610790Y-50192207D03*
X81610790Y-48192207D03*
X81610790Y-46192207D03*
D12*
X80610790Y-50192207D03*
X80610790Y-48192207D03*
X80610790Y-46192207D03*
D11*
X49020840Y-46192207D03*
X49020840Y-48192207D03*
X49020840Y-50192207D03*
D12*
X50020840Y-46192207D03*
X50020840Y-48192207D03*
X50020840Y-50192207D03*
D10*
G36*
X77010484Y-42963753D02*
X74099597Y-42237988D01*
X74728594Y-39715219D01*
X77639481Y-40440984D01*
X77010484Y-42963753D01*
X77010484Y-42963753D01*
G37*
G36*
X56125194Y-38271773D02*
X53214307Y-37546007D01*
X54085226Y-34052943D01*
X56996113Y-34778709D01*
X56125194Y-38271773D01*
X56125194Y-38271773D01*
G37*
D13*
X53261648Y-35702706D03*
D14*
X76840585Y-23947664D03*
X76840585Y-22677664D03*
X76840585Y-21407664D03*
X76840585Y-20137664D03*
X73640585Y-23947664D03*
X73640585Y-22677664D03*
X73640585Y-21407664D03*
D15*
X73640585Y-20137664D03*
D16*
X72940585Y-25142664D03*
X74440585Y-25142664D03*
X74440585Y-26392664D03*
X72940585Y-26392664D03*
X72940585Y-27642664D03*
X74440585Y-27642664D03*
D17*
X74390585Y-24492664D03*
M02*
