G04 #@! TF.FileFunction,Copper,L1,Top,Signal*
%FSLAX46Y46*%
G04 Gerber Fmt 4.6, Leading zero omitted, Abs format (unit mm)*
G04 Created by KiCad (PCBNEW 4.0.0-rc2-stable) date 3/3/2016 3:44:06 PM*
%MOMM*%
G01*
G04 APERTURE LIST*
%ADD10C,0.150000*%
%ADD11R,0.500000X1.800000*%
%ADD12R,0.320000X2.300000*%
%ADD13R,0.800000X2.300000*%
%ADD14C,0.500000*%
%ADD15R,4.000000X1.000000*%
%ADD16C,0.600000*%
%ADD17C,0.254000*%
%ADD18C,0.152400*%
G04 APERTURE END LIST*
D10*
D11*
X72110120Y-36377056D03*
D12*
X74010120Y-36377056D03*
D13*
X72760120Y-36377056D03*
D14*
X71910120Y-35177056D03*
D10*
G36*
X78447541Y-35139679D02*
X80237777Y-35326909D01*
X80185769Y-35824197D01*
X78395533Y-35636967D01*
X78447541Y-35139679D01*
X78447541Y-35139679D01*
G37*
G36*
X77991905Y-37092881D02*
X80279429Y-37332119D01*
X80246143Y-37650383D01*
X77958619Y-37411145D01*
X77991905Y-37092881D01*
X77991905Y-37092881D01*
G37*
G36*
X78146889Y-35610963D02*
X80434413Y-35850201D01*
X80351199Y-36645861D01*
X78063675Y-36406623D01*
X78146889Y-35610963D01*
X78146889Y-35610963D01*
G37*
D14*
X80530949Y-35407843D03*
D10*
G36*
X77392801Y-40739216D02*
X78979954Y-41588302D01*
X78744097Y-42029178D01*
X77156944Y-41180092D01*
X77392801Y-40739216D01*
X77392801Y-40739216D01*
G37*
G36*
X76233652Y-42375972D02*
X78261680Y-43460915D01*
X78110732Y-43743076D01*
X76082704Y-42658133D01*
X76233652Y-42375972D01*
X76233652Y-42375972D01*
G37*
G36*
X76936507Y-41062163D02*
X78964535Y-42147106D01*
X78587163Y-42852507D01*
X76559135Y-41767564D01*
X76936507Y-41062163D01*
X76936507Y-41062163D01*
G37*
D14*
X79220894Y-41773904D03*
D10*
G36*
X73862821Y-44942951D02*
X74665569Y-46554036D01*
X74218045Y-46777021D01*
X73415297Y-45165936D01*
X73862821Y-44942951D01*
X73862821Y-44942951D01*
G37*
G36*
X71970184Y-45606671D02*
X72995917Y-47665280D01*
X72709502Y-47807991D01*
X71683769Y-45749382D01*
X71970184Y-45606671D01*
X71970184Y-45606671D01*
G37*
G36*
X73303805Y-44942174D02*
X74329537Y-47000783D01*
X73613499Y-47357560D01*
X72587767Y-45298951D01*
X73303805Y-44942174D01*
X73303805Y-44942174D01*
G37*
D14*
X74754607Y-46844849D03*
D10*
G36*
X68516541Y-46593996D02*
X68352880Y-48386541D01*
X67854951Y-48341080D01*
X68018612Y-46548535D01*
X68516541Y-46593996D01*
X68516541Y-46593996D01*
G37*
G36*
X66557514Y-46164097D02*
X66348393Y-48454570D01*
X66029718Y-48425475D01*
X66238839Y-46135002D01*
X66557514Y-46164097D01*
X66557514Y-46164097D01*
G37*
G36*
X68041342Y-46299571D02*
X67832221Y-48590045D01*
X67035534Y-48517307D01*
X67244655Y-46226833D01*
X68041342Y-46299571D01*
X68041342Y-46299571D01*
G37*
D14*
X68275811Y-48680752D03*
D10*
G36*
X62915995Y-45399740D02*
X62063230Y-46984919D01*
X61622903Y-46748040D01*
X62475668Y-45162861D01*
X62915995Y-45399740D01*
X62915995Y-45399740D01*
G37*
G36*
X61281932Y-44236796D02*
X60192287Y-46262302D01*
X59910478Y-46110700D01*
X61000123Y-44085194D01*
X61281932Y-44236796D01*
X61281932Y-44236796D01*
G37*
G36*
X62594108Y-44942697D02*
X61504464Y-46968203D01*
X60799940Y-46589197D01*
X61889584Y-44563691D01*
X62594108Y-44942697D01*
X62594108Y-44942697D01*
G37*
D14*
X61877070Y-47225427D03*
D10*
G36*
X58714499Y-41809371D02*
X57106884Y-42619045D01*
X56881975Y-42172485D01*
X58489590Y-41362811D01*
X58714499Y-41809371D01*
X58714499Y-41809371D01*
G37*
G36*
X58042640Y-39919607D02*
X55988465Y-40954191D01*
X55844522Y-40668393D01*
X57898697Y-39633809D01*
X58042640Y-39919607D01*
X58042640Y-39919607D01*
G37*
G36*
X58712870Y-41250356D02*
X56658695Y-42284940D01*
X56298840Y-41570444D01*
X58353015Y-40535860D01*
X58712870Y-41250356D01*
X58712870Y-41250356D01*
G37*
D14*
X56816458Y-42709335D03*
D10*
G36*
X56899843Y-36357031D02*
X55106481Y-36511475D01*
X55063581Y-36013319D01*
X56856943Y-35858875D01*
X56899843Y-36357031D01*
X56899843Y-36357031D01*
G37*
G36*
X56978175Y-34352920D02*
X54686657Y-34550264D01*
X54659201Y-34231444D01*
X56950719Y-34034100D01*
X56978175Y-34352920D01*
X56978175Y-34352920D01*
G37*
G36*
X57106020Y-35837425D02*
X54814502Y-36034769D01*
X54745860Y-35237719D01*
X57037378Y-35040375D01*
X57106020Y-35837425D01*
X57106020Y-35837425D01*
G37*
D14*
X54803297Y-36487400D03*
D10*
G36*
X57373567Y-30779144D02*
X55765269Y-29970827D01*
X55989801Y-29524078D01*
X57598099Y-30332395D01*
X57373567Y-30779144D01*
X57373567Y-30779144D01*
G37*
G36*
X58490581Y-29113347D02*
X56435533Y-28080498D01*
X56579233Y-27794579D01*
X58634281Y-28827428D01*
X58490581Y-29113347D01*
X58490581Y-29113347D01*
G37*
G36*
X57821474Y-30444661D02*
X55766426Y-29411812D01*
X56125678Y-28697013D01*
X58180726Y-29729862D01*
X57821474Y-30444661D01*
X57821474Y-30444661D01*
G37*
D14*
X55519672Y-29791433D03*
D10*
G36*
X60612740Y-26018087D02*
X59440225Y-24652360D01*
X59819594Y-24326661D01*
X60992109Y-25692388D01*
X60612740Y-26018087D01*
X60612740Y-26018087D01*
G37*
G36*
X62285476Y-24911491D02*
X60787262Y-23166396D01*
X61030058Y-22957949D01*
X62528272Y-24703044D01*
X62285476Y-24911491D01*
X62285476Y-24911491D01*
G37*
G36*
X61154958Y-25882072D02*
X59656745Y-24136977D01*
X60263734Y-23615860D01*
X61761947Y-25360955D01*
X61154958Y-25882072D01*
X61154958Y-25882072D01*
G37*
D14*
X59282743Y-24392169D03*
D10*
G36*
X65552016Y-23514909D02*
X65384443Y-21722727D01*
X65882272Y-21676179D01*
X66049845Y-23468361D01*
X65552016Y-23514909D01*
X65552016Y-23514909D01*
G37*
G36*
X67556648Y-23578562D02*
X67342526Y-21288551D01*
X67661136Y-21258760D01*
X67875258Y-23548771D01*
X67556648Y-23578562D01*
X67556648Y-23578562D01*
G37*
G36*
X66073119Y-23717275D02*
X65858997Y-21427264D01*
X66655523Y-21352787D01*
X66869645Y-23642798D01*
X66073119Y-23717275D01*
X66073119Y-23717275D01*
G37*
D14*
X65406297Y-21419374D03*
D10*
G36*
X71172268Y-23653356D02*
X71874026Y-21995787D01*
X72334462Y-22190720D01*
X71632704Y-23848289D01*
X71172268Y-23653356D01*
X71172268Y-23653356D01*
G37*
G36*
X72907337Y-24659406D02*
X73804028Y-22541401D01*
X74098707Y-22666158D01*
X73202016Y-24784163D01*
X72907337Y-24659406D01*
X72907337Y-24659406D01*
G37*
G36*
X71535238Y-24078507D02*
X72431929Y-21960502D01*
X73168626Y-22272395D01*
X72271935Y-24390400D01*
X71535238Y-24078507D01*
X71535238Y-24078507D01*
G37*
D14*
X72037030Y-21739019D03*
D10*
G36*
X75861873Y-26621138D02*
X77337803Y-25590783D01*
X77624013Y-26000764D01*
X76148083Y-27031119D01*
X75861873Y-26621138D01*
X75861873Y-26621138D01*
G37*
G36*
X76795997Y-28395965D02*
X78681907Y-27079401D01*
X78865081Y-27341789D01*
X76979171Y-28658353D01*
X76795997Y-28395965D01*
X76795997Y-28395965D01*
G37*
G36*
X75943092Y-27174224D02*
X77829003Y-25857660D01*
X78286938Y-26513628D01*
X76401027Y-27830192D01*
X75943092Y-27174224D01*
X75943092Y-27174224D01*
G37*
D14*
X77612412Y-25460056D03*
D15*
X85757630Y-50192207D03*
X85757630Y-48192207D03*
X85757630Y-46192207D03*
D16*
X84757630Y-50192207D03*
X84757630Y-48192207D03*
X84757630Y-46192207D03*
D15*
X49020840Y-46192207D03*
X49020840Y-48192207D03*
X49020840Y-50192207D03*
D16*
X50020840Y-46192207D03*
X50020840Y-48192207D03*
X50020840Y-50192207D03*
D14*
X76974749Y-24528208D03*
D17*
X72110000Y-36380000D02*
X72760000Y-36380000D01*
X72110000Y-36380000D02*
X72760000Y-36380000D01*
X72110000Y-36380000D02*
X72760000Y-36380000D01*
X72110000Y-36380000D02*
X72760000Y-36380000D01*
X72110000Y-36380000D02*
X72760000Y-36380000D01*
X72110000Y-36380000D02*
X72760000Y-36380000D01*
X72110000Y-36380000D02*
X72760000Y-36380000D01*
X72110000Y-36380000D02*
X72760000Y-36380000D01*
X72110000Y-36380000D02*
X72760000Y-36380000D01*
X72760000Y-36380000D02*
X71910000Y-35180000D01*
X72760000Y-36380000D02*
X71910000Y-35180000D01*
X72760000Y-36380000D02*
X71910000Y-35180000D01*
X72760000Y-36380000D02*
X71910000Y-35180000D01*
X72760000Y-36380000D02*
X71910000Y-35180000D01*
X72760000Y-36380000D02*
X71910000Y-35180000D01*
X72760000Y-36380000D02*
X71910000Y-35180000D01*
X72760000Y-36380000D02*
X71910000Y-35180000D01*
X72760000Y-36380000D02*
X71910000Y-35180000D01*
X79320000Y-35480000D02*
X79250000Y-36130000D01*
X79320000Y-35480000D02*
X79250000Y-36130000D01*
X79320000Y-35480000D02*
X79250000Y-36130000D01*
X79320000Y-35480000D02*
X79250000Y-36130000D01*
X79320000Y-35480000D02*
X79250000Y-36130000D01*
X79320000Y-35480000D02*
X79250000Y-36130000D01*
X79320000Y-35480000D02*
X79250000Y-36130000D01*
X79320000Y-35480000D02*
X79250000Y-36130000D01*
X79320000Y-35480000D02*
X79250000Y-36130000D01*
X79250000Y-36130000D02*
X80530000Y-35410000D01*
X79250000Y-36130000D02*
X80530000Y-35410000D01*
X79250000Y-36130000D02*
X80530000Y-35410000D01*
X79250000Y-36130000D02*
X80530000Y-35410000D01*
X79250000Y-36130000D02*
X80530000Y-35410000D01*
X79250000Y-36130000D02*
X80530000Y-35410000D01*
X79250000Y-36130000D02*
X80530000Y-35410000D01*
X79250000Y-36130000D02*
X80530000Y-35410000D01*
X79250000Y-36130000D02*
X80530000Y-35410000D01*
X78070000Y-41380000D02*
X77760000Y-41960000D01*
X78070000Y-41380000D02*
X77760000Y-41960000D01*
X78070000Y-41380000D02*
X77760000Y-41960000D01*
X78070000Y-41380000D02*
X77760000Y-41960000D01*
X78070000Y-41380000D02*
X77760000Y-41960000D01*
X78070000Y-41380000D02*
X77760000Y-41960000D01*
X78070000Y-41380000D02*
X77760000Y-41960000D01*
X78070000Y-41380000D02*
X77760000Y-41960000D01*
X78070000Y-41380000D02*
X77760000Y-41960000D01*
X77760000Y-41960000D02*
X79220000Y-41770000D01*
X77760000Y-41960000D02*
X79220000Y-41770000D01*
X77760000Y-41960000D02*
X79220000Y-41770000D01*
X77760000Y-41960000D02*
X79220000Y-41770000D01*
X77760000Y-41960000D02*
X79220000Y-41770000D01*
X77760000Y-41960000D02*
X79220000Y-41770000D01*
X77760000Y-41960000D02*
X79220000Y-41770000D01*
X77760000Y-41960000D02*
X79220000Y-41770000D01*
X77760000Y-41960000D02*
X79220000Y-41770000D01*
X74040000Y-45860000D02*
X73460000Y-46150000D01*
X74040000Y-45860000D02*
X73460000Y-46150000D01*
X74040000Y-45860000D02*
X73460000Y-46150000D01*
X74040000Y-45860000D02*
X73460000Y-46150000D01*
X74040000Y-45860000D02*
X73460000Y-46150000D01*
X74040000Y-45860000D02*
X73460000Y-46150000D01*
X74040000Y-45860000D02*
X73460000Y-46150000D01*
X74040000Y-45860000D02*
X73460000Y-46150000D01*
X74040000Y-45860000D02*
X73460000Y-46150000D01*
X73460000Y-46150000D02*
X74750000Y-46840000D01*
X73460000Y-46150000D02*
X74750000Y-46840000D01*
X73460000Y-46150000D02*
X74750000Y-46840000D01*
X73460000Y-46150000D02*
X74750000Y-46840000D01*
X73460000Y-46150000D02*
X74750000Y-46840000D01*
X73460000Y-46150000D02*
X74750000Y-46840000D01*
X73460000Y-46150000D02*
X74750000Y-46840000D01*
X73460000Y-46150000D02*
X74750000Y-46840000D01*
X73460000Y-46150000D02*
X74750000Y-46840000D01*
X68190000Y-47470000D02*
X67540000Y-47410000D01*
X68190000Y-47470000D02*
X67540000Y-47410000D01*
X68190000Y-47470000D02*
X67540000Y-47410000D01*
X68190000Y-47470000D02*
X67540000Y-47410000D01*
X68190000Y-47470000D02*
X67540000Y-47410000D01*
X68190000Y-47470000D02*
X67540000Y-47410000D01*
X68190000Y-47470000D02*
X67540000Y-47410000D01*
X68190000Y-47470000D02*
X67540000Y-47410000D01*
X68190000Y-47470000D02*
X67540000Y-47410000D01*
X67540000Y-47410000D02*
X68280000Y-48680000D01*
X67540000Y-47410000D02*
X68280000Y-48680000D01*
X67540000Y-47410000D02*
X68280000Y-48680000D01*
X67540000Y-47410000D02*
X68280000Y-48680000D01*
X67540000Y-47410000D02*
X68280000Y-48680000D01*
X67540000Y-47410000D02*
X68280000Y-48680000D01*
X67540000Y-47410000D02*
X68280000Y-48680000D01*
X67540000Y-47410000D02*
X68280000Y-48680000D01*
X67540000Y-47410000D02*
X68280000Y-48680000D01*
X62270000Y-46070000D02*
X61700000Y-45770000D01*
X62270000Y-46070000D02*
X61700000Y-45770000D01*
X62270000Y-46070000D02*
X61700000Y-45770000D01*
X62270000Y-46070000D02*
X61700000Y-45770000D01*
X62270000Y-46070000D02*
X61700000Y-45770000D01*
X62270000Y-46070000D02*
X61700000Y-45770000D01*
X62270000Y-46070000D02*
X61700000Y-45770000D01*
X62270000Y-46070000D02*
X61700000Y-45770000D01*
X62270000Y-46070000D02*
X61700000Y-45770000D01*
X61700000Y-45770000D02*
X61880000Y-47230000D01*
X61700000Y-45770000D02*
X61880000Y-47230000D01*
X61700000Y-45770000D02*
X61880000Y-47230000D01*
X61700000Y-45770000D02*
X61880000Y-47230000D01*
X61700000Y-45770000D02*
X61880000Y-47230000D01*
X61700000Y-45770000D02*
X61880000Y-47230000D01*
X61700000Y-45770000D02*
X61880000Y-47230000D01*
X61700000Y-45770000D02*
X61880000Y-47230000D01*
X61700000Y-45770000D02*
X61880000Y-47230000D01*
X57800000Y-41990000D02*
X57510000Y-41410000D01*
X57800000Y-41990000D02*
X57510000Y-41410000D01*
X57800000Y-41990000D02*
X57510000Y-41410000D01*
X57800000Y-41990000D02*
X57510000Y-41410000D01*
X57800000Y-41990000D02*
X57510000Y-41410000D01*
X57800000Y-41990000D02*
X57510000Y-41410000D01*
X57800000Y-41990000D02*
X57510000Y-41410000D01*
X57800000Y-41990000D02*
X57510000Y-41410000D01*
X57800000Y-41990000D02*
X57510000Y-41410000D01*
X57510000Y-41410000D02*
X56820000Y-42710000D01*
X57510000Y-41410000D02*
X56820000Y-42710000D01*
X57510000Y-41410000D02*
X56820000Y-42710000D01*
X57510000Y-41410000D02*
X56820000Y-42710000D01*
X57510000Y-41410000D02*
X56820000Y-42710000D01*
X57510000Y-41410000D02*
X56820000Y-42710000D01*
X57510000Y-41410000D02*
X56820000Y-42710000D01*
X57510000Y-41410000D02*
X56820000Y-42710000D01*
X57510000Y-41410000D02*
X56820000Y-42710000D01*
X55980000Y-36190000D02*
X55930000Y-35540000D01*
X55980000Y-36190000D02*
X55930000Y-35540000D01*
X55980000Y-36190000D02*
X55930000Y-35540000D01*
X55980000Y-36190000D02*
X55930000Y-35540000D01*
X55980000Y-36190000D02*
X55930000Y-35540000D01*
X55980000Y-36190000D02*
X55930000Y-35540000D01*
X55980000Y-36190000D02*
X55930000Y-35540000D01*
X55980000Y-36190000D02*
X55930000Y-35540000D01*
X55980000Y-36190000D02*
X55930000Y-35540000D01*
X55930000Y-35540000D02*
X54800000Y-36490000D01*
X55930000Y-35540000D02*
X54800000Y-36490000D01*
X55930000Y-35540000D02*
X54800000Y-36490000D01*
X55930000Y-35540000D02*
X54800000Y-36490000D01*
X55930000Y-35540000D02*
X54800000Y-36490000D01*
X55930000Y-35540000D02*
X54800000Y-36490000D01*
X55930000Y-35540000D02*
X54800000Y-36490000D01*
X55930000Y-35540000D02*
X54800000Y-36490000D01*
X55930000Y-35540000D02*
X54800000Y-36490000D01*
X56680000Y-30150000D02*
X56970000Y-29570000D01*
X56680000Y-30150000D02*
X56970000Y-29570000D01*
X56680000Y-30150000D02*
X56970000Y-29570000D01*
X56680000Y-30150000D02*
X56970000Y-29570000D01*
X56680000Y-30150000D02*
X56970000Y-29570000D01*
X56680000Y-30150000D02*
X56970000Y-29570000D01*
X56680000Y-30150000D02*
X56970000Y-29570000D01*
X56680000Y-30150000D02*
X56970000Y-29570000D01*
X56680000Y-30150000D02*
X56970000Y-29570000D01*
X56970000Y-29570000D02*
X55520000Y-29790000D01*
X56970000Y-29570000D02*
X55520000Y-29790000D01*
X56970000Y-29570000D02*
X55520000Y-29790000D01*
X56970000Y-29570000D02*
X55520000Y-29790000D01*
X56970000Y-29570000D02*
X55520000Y-29790000D01*
X56970000Y-29570000D02*
X55520000Y-29790000D01*
X56970000Y-29570000D02*
X55520000Y-29790000D01*
X56970000Y-29570000D02*
X55520000Y-29790000D01*
X56970000Y-29570000D02*
X55520000Y-29790000D01*
X60220000Y-25170000D02*
X60710000Y-24750000D01*
X60220000Y-25170000D02*
X60710000Y-24750000D01*
X60220000Y-25170000D02*
X60710000Y-24750000D01*
X60220000Y-25170000D02*
X60710000Y-24750000D01*
X60220000Y-25170000D02*
X60710000Y-24750000D01*
X60220000Y-25170000D02*
X60710000Y-24750000D01*
X60220000Y-25170000D02*
X60710000Y-24750000D01*
X60220000Y-25170000D02*
X60710000Y-24750000D01*
X60220000Y-25170000D02*
X60710000Y-24750000D01*
X60710000Y-24750000D02*
X59280000Y-24390000D01*
X60710000Y-24750000D02*
X59280000Y-24390000D01*
X60710000Y-24750000D02*
X59280000Y-24390000D01*
X60710000Y-24750000D02*
X59280000Y-24390000D01*
X60710000Y-24750000D02*
X59280000Y-24390000D01*
X60710000Y-24750000D02*
X59280000Y-24390000D01*
X60710000Y-24750000D02*
X59280000Y-24390000D01*
X60710000Y-24750000D02*
X59280000Y-24390000D01*
X60710000Y-24750000D02*
X59280000Y-24390000D01*
X65720000Y-22600000D02*
X66360000Y-22540000D01*
X65720000Y-22600000D02*
X66360000Y-22540000D01*
X65720000Y-22600000D02*
X66360000Y-22540000D01*
X65720000Y-22600000D02*
X66360000Y-22540000D01*
X65720000Y-22600000D02*
X66360000Y-22540000D01*
X65720000Y-22600000D02*
X66360000Y-22540000D01*
X65720000Y-22600000D02*
X66360000Y-22540000D01*
X65720000Y-22600000D02*
X66360000Y-22540000D01*
X65720000Y-22600000D02*
X66360000Y-22540000D01*
X66360000Y-22540000D02*
X65410000Y-21420000D01*
X66360000Y-22540000D02*
X65410000Y-21420000D01*
X66360000Y-22540000D02*
X65410000Y-21420000D01*
X66360000Y-22540000D02*
X65410000Y-21420000D01*
X66360000Y-22540000D02*
X65410000Y-21420000D01*
X66360000Y-22540000D02*
X65410000Y-21420000D01*
X66360000Y-22540000D02*
X65410000Y-21420000D01*
X66360000Y-22540000D02*
X65410000Y-21420000D01*
X66360000Y-22540000D02*
X65410000Y-21420000D01*
X71750000Y-22920000D02*
X72350000Y-23180000D01*
X71750000Y-22920000D02*
X72350000Y-23180000D01*
X71750000Y-22920000D02*
X72350000Y-23180000D01*
X71750000Y-22920000D02*
X72350000Y-23180000D01*
X71750000Y-22920000D02*
X72350000Y-23180000D01*
X71750000Y-22920000D02*
X72350000Y-23180000D01*
X71750000Y-22920000D02*
X72350000Y-23180000D01*
X71750000Y-22920000D02*
X72350000Y-23180000D01*
X71750000Y-22920000D02*
X72350000Y-23180000D01*
X72350000Y-23180000D02*
X72040000Y-21740000D01*
X72350000Y-23180000D02*
X72040000Y-21740000D01*
X72350000Y-23180000D02*
X72040000Y-21740000D01*
X72350000Y-23180000D02*
X72040000Y-21740000D01*
X72350000Y-23180000D02*
X72040000Y-21740000D01*
X72350000Y-23180000D02*
X72040000Y-21740000D01*
X72350000Y-23180000D02*
X72040000Y-21740000D01*
X72350000Y-23180000D02*
X72040000Y-21740000D01*
X72350000Y-23180000D02*
X72040000Y-21740000D01*
X76740000Y-26310000D02*
X77120000Y-26840000D01*
X76740000Y-26310000D02*
X77120000Y-26840000D01*
X76740000Y-26310000D02*
X77120000Y-26840000D01*
X76740000Y-26310000D02*
X77120000Y-26840000D01*
X76740000Y-26310000D02*
X77120000Y-26840000D01*
X76740000Y-26310000D02*
X77120000Y-26840000D01*
X76740000Y-26310000D02*
X77120000Y-26840000D01*
X76740000Y-26310000D02*
X77120000Y-26840000D01*
X76740000Y-26310000D02*
X77120000Y-26840000D01*
X77120000Y-26840000D02*
X77610000Y-25460000D01*
X77120000Y-26840000D02*
X77610000Y-25460000D01*
X77120000Y-26840000D02*
X77610000Y-25460000D01*
X77120000Y-26840000D02*
X77610000Y-25460000D01*
X77120000Y-26840000D02*
X77610000Y-25460000D01*
X77120000Y-26840000D02*
X77610000Y-25460000D01*
X77120000Y-26840000D02*
X77610000Y-25460000D01*
X77120000Y-26840000D02*
X77610000Y-25460000D01*
X77120000Y-26840000D02*
X77610000Y-25460000D01*
D18*
G36*
X70371969Y-18746705D02*
X72752958Y-19248483D01*
X75032469Y-20083649D01*
X77120507Y-21269811D01*
X78981028Y-22826774D01*
X80566778Y-24764911D01*
X81800503Y-27095280D01*
X82508481Y-29521400D01*
X74880733Y-29521400D01*
X74570598Y-29046919D01*
X76537958Y-29046919D01*
X76566667Y-29088044D01*
X76762503Y-29213194D01*
X76991324Y-29253874D01*
X77218295Y-29203892D01*
X77408862Y-29070856D01*
X77990989Y-28664470D01*
X78027142Y-28461113D01*
X77730543Y-28036250D01*
X76574111Y-28843561D01*
X76537958Y-29046919D01*
X74570598Y-29046919D01*
X73793203Y-27857571D01*
X73763333Y-27827090D01*
X73736180Y-27794180D01*
X72266180Y-26594179D01*
X72234166Y-26577174D01*
X75632979Y-26577174D01*
X75633908Y-26669690D01*
X75670758Y-26754556D01*
X75823550Y-26973422D01*
X75809674Y-26983109D01*
X75749336Y-27044671D01*
X75714198Y-27130260D01*
X75715127Y-27222777D01*
X75751977Y-27307642D01*
X76209912Y-27963610D01*
X76271474Y-28023948D01*
X76326102Y-28046375D01*
X76241157Y-28179297D01*
X76200475Y-28408118D01*
X76250457Y-28635089D01*
X76279167Y-28676214D01*
X76482524Y-28712368D01*
X77638956Y-27905056D01*
X77593162Y-27839459D01*
X77602846Y-27832698D01*
X78022122Y-27832698D01*
X78318721Y-28257561D01*
X78522078Y-28293714D01*
X79104205Y-27887328D01*
X79294771Y-27754293D01*
X79419921Y-27558457D01*
X79460603Y-27329636D01*
X79410621Y-27102665D01*
X79381911Y-27061540D01*
X79178554Y-27025386D01*
X78022122Y-27832698D01*
X77602846Y-27832698D01*
X77884741Y-27635907D01*
X77930535Y-27701504D01*
X79086967Y-26894193D01*
X79123120Y-26690835D01*
X79094411Y-26649710D01*
X78898575Y-26524560D01*
X78669754Y-26483880D01*
X78515433Y-26517863D01*
X78514903Y-26465075D01*
X78478053Y-26380210D01*
X78020628Y-25724973D01*
X78090928Y-25555673D01*
X78091095Y-25365274D01*
X78018386Y-25189305D01*
X77883871Y-25054556D01*
X77708029Y-24981540D01*
X77679506Y-24981515D01*
X77240340Y-24542349D01*
X77075306Y-24707383D01*
X77040325Y-24692372D01*
X77002745Y-24779944D01*
X76988890Y-24793799D01*
X76994425Y-24799334D01*
X76816208Y-25214630D01*
X76889173Y-25374436D01*
X77139718Y-25350419D01*
X77133896Y-25364439D01*
X77133822Y-25448928D01*
X75728455Y-26430023D01*
X75668117Y-26491585D01*
X75632979Y-26577174D01*
X72234166Y-26577174D01*
X72225671Y-26572662D01*
X72186577Y-26548675D01*
X70346577Y-25868675D01*
X70311127Y-25863039D01*
X70276758Y-25852688D01*
X67996758Y-25632688D01*
X67970560Y-25635321D01*
X67944369Y-25632581D01*
X66104369Y-25802582D01*
X66073670Y-25811692D01*
X66041899Y-25815697D01*
X64421899Y-26355697D01*
X64393997Y-26371602D01*
X64363890Y-26382787D01*
X62983891Y-27232787D01*
X62961853Y-27253252D01*
X62936549Y-27269514D01*
X61796549Y-28369514D01*
X61779955Y-28393413D01*
X61759264Y-28413863D01*
X60859264Y-29743863D01*
X60848659Y-29769047D01*
X60833327Y-29791664D01*
X60183327Y-31331664D01*
X60178575Y-31354744D01*
X60168806Y-31376190D01*
X59768806Y-33076190D01*
X59768032Y-33098453D01*
X59762124Y-33119931D01*
X59632124Y-34919931D01*
X59634636Y-34940042D01*
X59632130Y-34960156D01*
X59772130Y-36890156D01*
X59778494Y-36913264D01*
X59779627Y-36937203D01*
X60209626Y-38667202D01*
X60220968Y-38691296D01*
X60227239Y-38717174D01*
X60927239Y-40227174D01*
X60942942Y-40248691D01*
X60954006Y-40272926D01*
X61884006Y-41562926D01*
X61905562Y-41583000D01*
X61923131Y-41606634D01*
X63073131Y-42646634D01*
X63099851Y-42662610D01*
X63123497Y-42682868D01*
X64493498Y-43452868D01*
X64523056Y-43462522D01*
X64550565Y-43477036D01*
X66130565Y-43947036D01*
X66158952Y-43949677D01*
X66186341Y-43957594D01*
X67946341Y-44107594D01*
X67970287Y-44104917D01*
X67994240Y-44107544D01*
X70284240Y-43907544D01*
X70315860Y-43898333D01*
X70348522Y-43894162D01*
X71015021Y-43670814D01*
X77046811Y-43670814D01*
X77106697Y-43868488D01*
X77732692Y-44203379D01*
X77937619Y-44313010D01*
X78168901Y-44335874D01*
X78391328Y-44268489D01*
X78571035Y-44121115D01*
X78594694Y-44076891D01*
X78534808Y-43879217D01*
X77291230Y-43213935D01*
X77046811Y-43670814D01*
X71015021Y-43670814D01*
X72228523Y-43264162D01*
X72258738Y-43246875D01*
X72291104Y-43234063D01*
X73081104Y-42724063D01*
X73089113Y-42716303D01*
X75489905Y-42716303D01*
X75557291Y-42938729D01*
X75704665Y-43118437D01*
X75909592Y-43228067D01*
X76535587Y-43562959D01*
X76733261Y-43503073D01*
X76977679Y-43046193D01*
X75734101Y-42380911D01*
X75536428Y-42440797D01*
X75512769Y-42485021D01*
X75489905Y-42716303D01*
X73089113Y-42716303D01*
X73099584Y-42706158D01*
X73121375Y-42692469D01*
X73809386Y-42042157D01*
X75749690Y-42042157D01*
X75809576Y-42239831D01*
X77053154Y-42905113D01*
X77090891Y-42834573D01*
X77404442Y-43002315D01*
X77366705Y-43072855D01*
X78610283Y-43738137D01*
X78807956Y-43678251D01*
X78831615Y-43634027D01*
X78854479Y-43402745D01*
X78787093Y-43180319D01*
X78686891Y-43058133D01*
X78733713Y-43033749D01*
X78792680Y-42962453D01*
X79170052Y-42257052D01*
X79171499Y-42252461D01*
X79315676Y-42252587D01*
X79491645Y-42179878D01*
X79626394Y-42045363D01*
X79699410Y-41869521D01*
X79699577Y-41679122D01*
X79626868Y-41503153D01*
X79492353Y-41368404D01*
X79316511Y-41295388D01*
X79126112Y-41295221D01*
X79013330Y-41341822D01*
X77502747Y-40533699D01*
X77420531Y-40507793D01*
X77328310Y-40515238D01*
X77246251Y-40557974D01*
X77187284Y-40629270D01*
X77061374Y-40864628D01*
X77046453Y-40856646D01*
X76964238Y-40830741D01*
X76872017Y-40838185D01*
X76789957Y-40880921D01*
X76730990Y-40952217D01*
X76353618Y-41657618D01*
X76327713Y-41739833D01*
X76332464Y-41798693D01*
X76175483Y-41783174D01*
X75953056Y-41850559D01*
X75773349Y-41997933D01*
X75749690Y-42042157D01*
X73809386Y-42042157D01*
X73851375Y-42002469D01*
X73871014Y-41974798D01*
X73894548Y-41950351D01*
X75144548Y-40000351D01*
X75153607Y-39977248D01*
X75167393Y-39956616D01*
X75173257Y-39927134D01*
X75184231Y-39899148D01*
X75183759Y-39874337D01*
X75188600Y-39850000D01*
X75182736Y-39820517D01*
X75182164Y-39790464D01*
X75172234Y-39767724D01*
X75167393Y-39743384D01*
X75150693Y-39718390D01*
X75138664Y-39690843D01*
X75120786Y-39673632D01*
X75107000Y-39653000D01*
X75082007Y-39636300D01*
X75060351Y-39615452D01*
X75037248Y-39606393D01*
X75016616Y-39592607D01*
X74987136Y-39586743D01*
X74959149Y-39575769D01*
X74934337Y-39576241D01*
X74910000Y-39571400D01*
X68288600Y-39571400D01*
X68288600Y-35271838D01*
X71431437Y-35271838D01*
X71504146Y-35447807D01*
X71627042Y-35570917D01*
X71627042Y-37277056D01*
X71642982Y-37361770D01*
X71693048Y-37439574D01*
X71769440Y-37491771D01*
X71860120Y-37510134D01*
X72127042Y-37510134D01*
X72127042Y-37527056D01*
X72142982Y-37611770D01*
X72193048Y-37689574D01*
X72269440Y-37741771D01*
X72360120Y-37760134D01*
X73160120Y-37760134D01*
X73244834Y-37744194D01*
X73294492Y-37712239D01*
X73354859Y-37857978D01*
X73519197Y-38022317D01*
X73733915Y-38111256D01*
X73784070Y-38111256D01*
X73930120Y-37965206D01*
X73930120Y-36554856D01*
X74090120Y-36554856D01*
X74090120Y-37965206D01*
X74236170Y-38111256D01*
X74286325Y-38111256D01*
X74501043Y-38022317D01*
X74665381Y-37857978D01*
X74754320Y-37643260D01*
X74754320Y-37465953D01*
X77365501Y-37465953D01*
X77431624Y-37688758D01*
X77577977Y-37869298D01*
X77782279Y-37980089D01*
X78013428Y-38004263D01*
X78719522Y-38078109D01*
X78834341Y-37985032D01*
X79233642Y-37985032D01*
X79363708Y-38145481D01*
X80069802Y-38219327D01*
X80300951Y-38243501D01*
X80523755Y-38177379D01*
X80704296Y-38031026D01*
X80815087Y-37826724D01*
X80820304Y-37776841D01*
X80690238Y-37616392D01*
X79287538Y-37469692D01*
X79233642Y-37985032D01*
X78834341Y-37985032D01*
X78879971Y-37948043D01*
X78933867Y-37432704D01*
X77531167Y-37286004D01*
X77370718Y-37416070D01*
X77365501Y-37465953D01*
X74754320Y-37465953D01*
X74754320Y-36966423D01*
X77417744Y-36966423D01*
X77547810Y-37126872D01*
X78950510Y-37273572D01*
X78958831Y-37194006D01*
X79312502Y-37230994D01*
X79304181Y-37310560D01*
X80706881Y-37457260D01*
X80867330Y-37327194D01*
X80872547Y-37277311D01*
X80806424Y-37054506D01*
X80660071Y-36873966D01*
X80521162Y-36798637D01*
X80555317Y-36758384D01*
X80583013Y-36670105D01*
X80666227Y-35874445D01*
X80665858Y-35869946D01*
X80801700Y-35813817D01*
X80936449Y-35679302D01*
X81009465Y-35503460D01*
X81009632Y-35313061D01*
X80936923Y-35137092D01*
X80802408Y-35002343D01*
X80626566Y-34929327D01*
X80436167Y-34929160D01*
X80260198Y-35001869D01*
X80175839Y-35086082D01*
X78471785Y-34907865D01*
X78385872Y-34914907D01*
X78303282Y-34956609D01*
X78243423Y-35027157D01*
X78215727Y-35115435D01*
X78187963Y-35380909D01*
X78171133Y-35379149D01*
X78085221Y-35386191D01*
X78002631Y-35427892D01*
X77942771Y-35498440D01*
X77915075Y-35586719D01*
X77831861Y-36382379D01*
X77838903Y-36468291D01*
X77865520Y-36521005D01*
X77714293Y-36565885D01*
X77533752Y-36712238D01*
X77422961Y-36916540D01*
X77417744Y-36966423D01*
X74754320Y-36966423D01*
X74754320Y-36700906D01*
X74608270Y-36554856D01*
X74090120Y-36554856D01*
X73930120Y-36554856D01*
X73850120Y-36554856D01*
X73850120Y-36199256D01*
X73930120Y-36199256D01*
X73930120Y-34788906D01*
X74090120Y-34788906D01*
X74090120Y-36199256D01*
X74608270Y-36199256D01*
X74754320Y-36053206D01*
X74754320Y-35110852D01*
X74665381Y-34896134D01*
X74501043Y-34731795D01*
X74286325Y-34642856D01*
X74236170Y-34642856D01*
X74090120Y-34788906D01*
X73930120Y-34788906D01*
X73784070Y-34642856D01*
X73733915Y-34642856D01*
X73519197Y-34731795D01*
X73354859Y-34896134D01*
X73294388Y-35042124D01*
X73250800Y-35012341D01*
X73160120Y-34993978D01*
X72360120Y-34993978D01*
X72352882Y-34995340D01*
X72316094Y-34906305D01*
X72181579Y-34771556D01*
X72005737Y-34698540D01*
X71815338Y-34698373D01*
X71639369Y-34771082D01*
X71504620Y-34905597D01*
X71431604Y-35081439D01*
X71431437Y-35271838D01*
X68288600Y-35271838D01*
X68288600Y-32948600D01*
X83072553Y-32948600D01*
X83091328Y-37473307D01*
X82806118Y-39764823D01*
X82157168Y-42075476D01*
X81136149Y-44382589D01*
X80711592Y-44990477D01*
X80699431Y-45018205D01*
X80682607Y-45043384D01*
X80677809Y-45067505D01*
X80667931Y-45090028D01*
X80667307Y-45120303D01*
X80661400Y-45150000D01*
X80666198Y-45174120D01*
X80665691Y-45198709D01*
X80676700Y-45226918D01*
X80682607Y-45256616D01*
X80696269Y-45277063D01*
X80705211Y-45299975D01*
X80726178Y-45321824D01*
X80743000Y-45347000D01*
X80763449Y-45360664D01*
X80780477Y-45378408D01*
X80808205Y-45390569D01*
X80833384Y-45407393D01*
X80857505Y-45412191D01*
X80880028Y-45422069D01*
X80910303Y-45422693D01*
X80940000Y-45428600D01*
X87791400Y-45428600D01*
X87791400Y-45465968D01*
X87757630Y-45459129D01*
X83757630Y-45459129D01*
X83672916Y-45475069D01*
X83595112Y-45525135D01*
X83542915Y-45601527D01*
X83524552Y-45692207D01*
X83524552Y-46692207D01*
X83540492Y-46776921D01*
X83590558Y-46854725D01*
X83666950Y-46906922D01*
X83757630Y-46925285D01*
X87757630Y-46925285D01*
X87791400Y-46918931D01*
X87791400Y-47108007D01*
X86081480Y-47108007D01*
X85935430Y-47254057D01*
X85935430Y-48014407D01*
X85955430Y-48014407D01*
X85955430Y-48370007D01*
X85935430Y-48370007D01*
X85935430Y-49130357D01*
X86081480Y-49276407D01*
X87791400Y-49276407D01*
X87791400Y-49465968D01*
X87757630Y-49459129D01*
X83757630Y-49459129D01*
X83672916Y-49475069D01*
X83595112Y-49525135D01*
X83542915Y-49601527D01*
X83524552Y-49692207D01*
X83524552Y-50692207D01*
X83540492Y-50776921D01*
X83590558Y-50854725D01*
X83614962Y-50871400D01*
X71610000Y-50871400D01*
X71586077Y-50876158D01*
X71561694Y-50875620D01*
X70157601Y-51122820D01*
X67973746Y-51250703D01*
X64979747Y-50994637D01*
X64574887Y-50881654D01*
X64537138Y-50878787D01*
X64500000Y-50871400D01*
X51164522Y-50871400D01*
X51183358Y-50859279D01*
X51235555Y-50782887D01*
X51253918Y-50692207D01*
X51253918Y-49692207D01*
X51237978Y-49607493D01*
X51187912Y-49529689D01*
X51111520Y-49477492D01*
X51020840Y-49459129D01*
X47020840Y-49459129D01*
X46936126Y-49475069D01*
X46908600Y-49492782D01*
X46908600Y-49276407D01*
X48696990Y-49276407D01*
X48843040Y-49130357D01*
X48843040Y-48370007D01*
X48823040Y-48370007D01*
X48823040Y-48130540D01*
X49121428Y-48130540D01*
X49166293Y-48479424D01*
X49198640Y-48557517D01*
X49198640Y-49130357D01*
X49344690Y-49276407D01*
X51137044Y-49276407D01*
X51351762Y-49187468D01*
X51516101Y-49023130D01*
X51605040Y-48808412D01*
X51605040Y-48516057D01*
X51577064Y-48488081D01*
X65437372Y-48488081D01*
X65506420Y-48709996D01*
X65655135Y-48888596D01*
X65860878Y-48996690D01*
X65910825Y-49001250D01*
X66052077Y-48883632D01*
X66228886Y-48883632D01*
X66361052Y-49042356D01*
X66410999Y-49046916D01*
X66632915Y-48977868D01*
X66811514Y-48829152D01*
X66885007Y-48689266D01*
X66925707Y-48722888D01*
X67014342Y-48749420D01*
X67811029Y-48822158D01*
X67816190Y-48821667D01*
X67869837Y-48951503D01*
X68004352Y-49086252D01*
X68180194Y-49159268D01*
X68370593Y-49159435D01*
X68546562Y-49086726D01*
X68681311Y-48952211D01*
X68754327Y-48776369D01*
X68754494Y-48585970D01*
X68681785Y-48410001D01*
X68592914Y-48320975D01*
X68683474Y-47329084D01*
X71818176Y-47329084D01*
X72134791Y-47964518D01*
X72238439Y-48172535D01*
X72413801Y-48325054D01*
X72634182Y-48398855D01*
X72866029Y-48382702D01*
X72910920Y-48360334D01*
X72976508Y-48164478D01*
X72347533Y-46902148D01*
X71883764Y-47133228D01*
X71818176Y-47329084D01*
X68683474Y-47329084D01*
X68748654Y-46615188D01*
X68740482Y-46529376D01*
X68697698Y-46447341D01*
X68626368Y-46388415D01*
X68537733Y-46361883D01*
X68271917Y-46337614D01*
X68273455Y-46320763D01*
X68265283Y-46234951D01*
X68222499Y-46152916D01*
X68151169Y-46093990D01*
X68062534Y-46067458D01*
X67265847Y-45994720D01*
X67180035Y-46002892D01*
X67127678Y-46030198D01*
X67080812Y-45879576D01*
X66932097Y-45700976D01*
X66880872Y-45674063D01*
X71092905Y-45674063D01*
X71109059Y-45905910D01*
X71212706Y-46113927D01*
X71529321Y-46749361D01*
X71725177Y-46814949D01*
X72188946Y-46583869D01*
X71559971Y-45321539D01*
X71364115Y-45255951D01*
X71319224Y-45278319D01*
X71166705Y-45453682D01*
X71092905Y-45674063D01*
X66880872Y-45674063D01*
X66726354Y-45592882D01*
X66676407Y-45588322D01*
X66517683Y-45720488D01*
X66389451Y-47124996D01*
X66469119Y-47132270D01*
X66436787Y-47486397D01*
X66357119Y-47479123D01*
X66228886Y-48883632D01*
X66052077Y-48883632D01*
X66069549Y-48869084D01*
X66197781Y-47464576D01*
X65681778Y-47417464D01*
X65523053Y-47549630D01*
X65458503Y-48256635D01*
X65437372Y-48488081D01*
X51577064Y-48488081D01*
X51458990Y-48370007D01*
X50888760Y-48370007D01*
X50920252Y-48253874D01*
X50889458Y-48014407D01*
X51458990Y-48014407D01*
X51605040Y-47868357D01*
X51605040Y-47576002D01*
X51516101Y-47361284D01*
X51351762Y-47196946D01*
X51137044Y-47108007D01*
X49344690Y-47108007D01*
X49198640Y-47254057D01*
X49198640Y-47845809D01*
X49121428Y-48130540D01*
X48823040Y-48130540D01*
X48823040Y-48014407D01*
X48843040Y-48014407D01*
X48843040Y-47254057D01*
X48696990Y-47108007D01*
X46908600Y-47108007D01*
X46908600Y-46892191D01*
X46930160Y-46906922D01*
X47020840Y-46925285D01*
X51020840Y-46925285D01*
X51105554Y-46909345D01*
X51183358Y-46859279D01*
X51235555Y-46782887D01*
X51253918Y-46692207D01*
X51253918Y-46610261D01*
X59914258Y-46610261D01*
X59973685Y-46808073D01*
X60017854Y-46831834D01*
X60249082Y-46855234D01*
X60471664Y-46788365D01*
X60594082Y-46688447D01*
X60618359Y-46735326D01*
X60689518Y-46794458D01*
X61394042Y-47173464D01*
X61398514Y-47174885D01*
X61398387Y-47320209D01*
X61471096Y-47496178D01*
X61605611Y-47630927D01*
X61781453Y-47703943D01*
X61971852Y-47704110D01*
X62147821Y-47631401D01*
X62282570Y-47496886D01*
X62355586Y-47321044D01*
X62355753Y-47130645D01*
X62309595Y-47018935D01*
X62371095Y-46904613D01*
X65581944Y-46904613D01*
X65714110Y-47063337D01*
X66230113Y-47110449D01*
X66358346Y-45705940D01*
X66226180Y-45547216D01*
X66176233Y-45542656D01*
X65954317Y-45611704D01*
X65775718Y-45760420D01*
X65667625Y-45966162D01*
X65646494Y-46197609D01*
X65581944Y-46904613D01*
X62371095Y-46904613D01*
X63121256Y-45510163D01*
X63147353Y-45428007D01*
X63140122Y-45335769D01*
X63097576Y-45253611D01*
X63093453Y-45250184D01*
X71703178Y-45250184D01*
X72332153Y-46512514D01*
X72403757Y-46476836D01*
X72562344Y-46795115D01*
X72490740Y-46830793D01*
X73119715Y-48093123D01*
X73315571Y-48158711D01*
X73360462Y-48136343D01*
X73512981Y-47960980D01*
X73586781Y-47740599D01*
X73575798Y-47582963D01*
X73628092Y-47590181D01*
X73680870Y-47576002D01*
X83173430Y-47576002D01*
X83173430Y-47868357D01*
X83319480Y-48014407D01*
X83889710Y-48014407D01*
X83858218Y-48130540D01*
X83889012Y-48370007D01*
X83319480Y-48370007D01*
X83173430Y-48516057D01*
X83173430Y-48808412D01*
X83262369Y-49023130D01*
X83426708Y-49187468D01*
X83641426Y-49276407D01*
X85433780Y-49276407D01*
X85579830Y-49130357D01*
X85579830Y-48538605D01*
X85657042Y-48253874D01*
X85612177Y-47904990D01*
X85579830Y-47826897D01*
X85579830Y-47254057D01*
X85433780Y-47108007D01*
X83641426Y-47108007D01*
X83426708Y-47196946D01*
X83262369Y-47361284D01*
X83173430Y-47576002D01*
X73680870Y-47576002D01*
X73717445Y-47566176D01*
X74433483Y-47209399D01*
X74438486Y-47205609D01*
X74483148Y-47250349D01*
X74658990Y-47323365D01*
X74849389Y-47323532D01*
X75025358Y-47250823D01*
X75160107Y-47116308D01*
X75233123Y-46940466D01*
X75233290Y-46750067D01*
X75160581Y-46574098D01*
X75026066Y-46439349D01*
X74850224Y-46366333D01*
X74832444Y-46366317D01*
X74071437Y-44839005D01*
X74019390Y-44770291D01*
X73939880Y-44722980D01*
X73848228Y-44710330D01*
X73758875Y-44734335D01*
X73519968Y-44853374D01*
X73512421Y-44838228D01*
X73460374Y-44769514D01*
X73380864Y-44722203D01*
X73289212Y-44709553D01*
X73199859Y-44733558D01*
X72483821Y-45090335D01*
X72415107Y-45142382D01*
X72384911Y-45193129D01*
X72265885Y-45089608D01*
X72045504Y-45015807D01*
X71813657Y-45031960D01*
X71768766Y-45054328D01*
X71703178Y-45250184D01*
X63093453Y-45250184D01*
X63026418Y-45194479D01*
X62791352Y-45068023D01*
X62799369Y-45053120D01*
X62825466Y-44970964D01*
X62818235Y-44878726D01*
X62775689Y-44796568D01*
X62704530Y-44737436D01*
X62000006Y-44358430D01*
X61917851Y-44332333D01*
X61858980Y-44336948D01*
X61874863Y-44180002D01*
X61807995Y-43957420D01*
X61661038Y-43777371D01*
X61616869Y-43753610D01*
X61419057Y-43813037D01*
X60750892Y-45055068D01*
X60821344Y-45092969D01*
X60652876Y-45406130D01*
X60582423Y-45368229D01*
X59914258Y-46610261D01*
X51253918Y-46610261D01*
X51253918Y-46167494D01*
X59317547Y-46167494D01*
X59384415Y-46390076D01*
X59531372Y-46570125D01*
X59575541Y-46593886D01*
X59773353Y-46534459D01*
X60441518Y-45292428D01*
X59985207Y-45046950D01*
X59787395Y-45106377D01*
X59451052Y-45731593D01*
X59340947Y-45936265D01*
X59317547Y-46167494D01*
X51253918Y-46167494D01*
X51253918Y-45692207D01*
X51237978Y-45607493D01*
X51187912Y-45529689D01*
X51111520Y-45477492D01*
X51020840Y-45459129D01*
X47020840Y-45459129D01*
X46936126Y-45475069D01*
X46908600Y-45492782D01*
X46908600Y-45428600D01*
X54520000Y-45428600D01*
X54565430Y-45419564D01*
X54611317Y-45413210D01*
X54618477Y-45409012D01*
X54626616Y-45407393D01*
X54665132Y-45381657D01*
X54705092Y-45358228D01*
X54710100Y-45351611D01*
X54717000Y-45347000D01*
X54742738Y-45308481D01*
X54770688Y-45271546D01*
X54772782Y-45263517D01*
X54777393Y-45256616D01*
X54786431Y-45211179D01*
X54798119Y-45166360D01*
X54796981Y-45158140D01*
X54798600Y-45150000D01*
X54789564Y-45104570D01*
X54783210Y-45058683D01*
X54779012Y-45051523D01*
X54777393Y-45043384D01*
X54751657Y-45004868D01*
X54728228Y-44964908D01*
X54666482Y-44895444D01*
X54455848Y-44535977D01*
X60094248Y-44535977D01*
X60153676Y-44733789D01*
X60609987Y-44979267D01*
X61278152Y-43737235D01*
X61218725Y-43539423D01*
X61174556Y-43515662D01*
X60943328Y-43492262D01*
X60720746Y-43559131D01*
X60540697Y-43706088D01*
X60430591Y-43910760D01*
X60094248Y-44535977D01*
X54455848Y-44535977D01*
X53021606Y-42088319D01*
X52705692Y-41275966D01*
X55496415Y-41275966D01*
X55518975Y-41320761D01*
X55694993Y-41472523D01*
X55915689Y-41545374D01*
X56073276Y-41533713D01*
X56066284Y-41586038D01*
X56090673Y-41675287D01*
X56450528Y-42389783D01*
X56454253Y-42394657D01*
X56410958Y-42437876D01*
X56337942Y-42613718D01*
X56337775Y-42804117D01*
X56410484Y-42980086D01*
X56544999Y-43114835D01*
X56720841Y-43187851D01*
X56911240Y-43188018D01*
X57087209Y-43115309D01*
X57221958Y-42980794D01*
X57294974Y-42804952D01*
X57294991Y-42785276D01*
X58819342Y-42017538D01*
X58887831Y-41965195D01*
X58934800Y-41885483D01*
X58947055Y-41793777D01*
X58922666Y-41704528D01*
X58802600Y-41466135D01*
X58817713Y-41458523D01*
X58886202Y-41406180D01*
X58933171Y-41326468D01*
X58945426Y-41234762D01*
X58921037Y-41145513D01*
X58561182Y-40431017D01*
X58508839Y-40362528D01*
X58457962Y-40332550D01*
X58560970Y-40213079D01*
X58633822Y-39992383D01*
X58616671Y-39760608D01*
X58594111Y-39715813D01*
X58397974Y-39651069D01*
X57138363Y-40285472D01*
X57174348Y-40356921D01*
X56856756Y-40516877D01*
X56820770Y-40445427D01*
X55561159Y-41079830D01*
X55496415Y-41275966D01*
X52705692Y-41275966D01*
X52441111Y-40595617D01*
X55253340Y-40595617D01*
X55270491Y-40827392D01*
X55293051Y-40872187D01*
X55489188Y-40936931D01*
X56748799Y-40302528D01*
X56515725Y-39839758D01*
X56319589Y-39775014D01*
X55685523Y-40094361D01*
X55477954Y-40198903D01*
X55326192Y-40374921D01*
X55253340Y-40595617D01*
X52441111Y-40595617D01*
X52405680Y-40504511D01*
X52193613Y-39679803D01*
X56833318Y-39679803D01*
X57066392Y-40142573D01*
X58326003Y-39508170D01*
X58390747Y-39312034D01*
X58368187Y-39267239D01*
X58192169Y-39115477D01*
X57971473Y-39042626D01*
X57739697Y-39059777D01*
X57532128Y-39164320D01*
X56898062Y-39483666D01*
X56833318Y-39679803D01*
X52193613Y-39679803D01*
X51963608Y-38785341D01*
X51697715Y-36933931D01*
X51608877Y-34940000D01*
X51621076Y-34666196D01*
X54110279Y-34666196D01*
X54114582Y-34716166D01*
X54221616Y-34922461D01*
X54399450Y-35072092D01*
X54550089Y-35119814D01*
X54524156Y-35165796D01*
X54513642Y-35257718D01*
X54582284Y-36054768D01*
X54583811Y-36060244D01*
X54532546Y-36081426D01*
X54397797Y-36215941D01*
X54324781Y-36391783D01*
X54324614Y-36582182D01*
X54397323Y-36758151D01*
X54531838Y-36892900D01*
X54707680Y-36965916D01*
X54898079Y-36966083D01*
X55074048Y-36893374D01*
X55208797Y-36758859D01*
X55218381Y-36735779D01*
X56919842Y-36589249D01*
X57002875Y-36566100D01*
X57076097Y-36509543D01*
X57121546Y-36428954D01*
X57132061Y-36337033D01*
X57109159Y-36071095D01*
X57126018Y-36069643D01*
X57209052Y-36046494D01*
X57282274Y-35989936D01*
X57327724Y-35909348D01*
X57338238Y-35817426D01*
X57269596Y-35020376D01*
X57246447Y-34937343D01*
X57210350Y-34890610D01*
X57350371Y-34817961D01*
X57500004Y-34640128D01*
X57570192Y-34418571D01*
X57565888Y-34368601D01*
X57407845Y-34235621D01*
X56002696Y-34356631D01*
X56009560Y-34436336D01*
X55655272Y-34466848D01*
X55648408Y-34387143D01*
X54243259Y-34508153D01*
X54110279Y-34666196D01*
X51621076Y-34666196D01*
X51643371Y-34165793D01*
X54067184Y-34165793D01*
X54071488Y-34215763D01*
X54229531Y-34348743D01*
X55634680Y-34227733D01*
X55590221Y-33711493D01*
X55553960Y-33680982D01*
X55944510Y-33680982D01*
X55988968Y-34197221D01*
X57394117Y-34076211D01*
X57527097Y-33918168D01*
X57522794Y-33868198D01*
X57415760Y-33661903D01*
X57237926Y-33512272D01*
X57016369Y-33442084D01*
X56784817Y-33462025D01*
X56077490Y-33522940D01*
X55944510Y-33680982D01*
X55553960Y-33680982D01*
X55432179Y-33578513D01*
X54724852Y-33639428D01*
X54493300Y-33659369D01*
X54287005Y-33766403D01*
X54137372Y-33944236D01*
X54067184Y-34165793D01*
X51643371Y-34165793D01*
X51697715Y-32946069D01*
X51963635Y-31094471D01*
X52272564Y-29886215D01*
X55040989Y-29886215D01*
X55113698Y-30062184D01*
X55248213Y-30196933D01*
X55424055Y-30269949D01*
X55614454Y-30270116D01*
X55739186Y-30218578D01*
X57268900Y-30987399D01*
X57351750Y-31011199D01*
X57443751Y-31001404D01*
X57524693Y-30956588D01*
X57581822Y-30883811D01*
X57701687Y-30645317D01*
X57716807Y-30652916D01*
X57799657Y-30676716D01*
X57891658Y-30666921D01*
X57972600Y-30622105D01*
X58029729Y-30549328D01*
X58388981Y-29834529D01*
X58412781Y-29751679D01*
X58406529Y-29692960D01*
X58563855Y-29704468D01*
X58784490Y-29631431D01*
X58960379Y-29479520D01*
X58982902Y-29434707D01*
X58917993Y-29238625D01*
X57657846Y-28605287D01*
X57621921Y-28676766D01*
X57304193Y-28517079D01*
X57331710Y-28462327D01*
X57729696Y-28462327D01*
X58989843Y-29095665D01*
X59185924Y-29030756D01*
X59208447Y-28985942D01*
X59225403Y-28754153D01*
X59152364Y-28533518D01*
X59000453Y-28357629D01*
X58792796Y-28253262D01*
X58158461Y-27934451D01*
X57962379Y-27999360D01*
X57729696Y-28462327D01*
X57331710Y-28462327D01*
X57340118Y-28445599D01*
X56079971Y-27812261D01*
X55883890Y-27877170D01*
X55861367Y-27921984D01*
X55844411Y-28153773D01*
X55917450Y-28374408D01*
X56020737Y-28493998D01*
X55974552Y-28519569D01*
X55917423Y-28592346D01*
X55558171Y-29307145D01*
X55556528Y-29312865D01*
X55424890Y-29312750D01*
X55248921Y-29385459D01*
X55114172Y-29519974D01*
X55041156Y-29695816D01*
X55040989Y-29886215D01*
X52272564Y-29886215D01*
X52405679Y-29365588D01*
X53021456Y-27791936D01*
X53208213Y-27473219D01*
X56086912Y-27473219D01*
X56151821Y-27669301D01*
X57411968Y-28302639D01*
X57644651Y-27839673D01*
X57579741Y-27643591D01*
X56945406Y-27324780D01*
X56737749Y-27220413D01*
X56505959Y-27203458D01*
X56285324Y-27276495D01*
X56109435Y-27428406D01*
X56086912Y-27473219D01*
X53208213Y-27473219D01*
X54669886Y-24978748D01*
X55066496Y-24486951D01*
X58804060Y-24486951D01*
X58876769Y-24662920D01*
X59011284Y-24797669D01*
X59187126Y-24870685D01*
X59320572Y-24870802D01*
X60435895Y-26169913D01*
X60503172Y-26223806D01*
X60591840Y-26250226D01*
X60683802Y-26240068D01*
X60764566Y-26194932D01*
X60967090Y-26021059D01*
X60978113Y-26033898D01*
X61045390Y-26087791D01*
X61134058Y-26114211D01*
X61226020Y-26104053D01*
X61306784Y-26058917D01*
X61913773Y-25537800D01*
X61967666Y-25470523D01*
X61984528Y-25413931D01*
X62125265Y-25485185D01*
X62357004Y-25502826D01*
X62577853Y-25430441D01*
X62615907Y-25397770D01*
X62631584Y-25191820D01*
X61712886Y-24121735D01*
X61652188Y-24173846D01*
X61517970Y-24017512D01*
X61834284Y-24017512D01*
X62752982Y-25087596D01*
X62958932Y-25103273D01*
X62996987Y-25070603D01*
X63101967Y-24863255D01*
X63119606Y-24631515D01*
X63047221Y-24410666D01*
X62895830Y-24234329D01*
X62433374Y-23695667D01*
X62227424Y-23679990D01*
X61834284Y-24017512D01*
X61517970Y-24017512D01*
X61420550Y-23904040D01*
X61481250Y-23851928D01*
X60562552Y-22781844D01*
X60356602Y-22766167D01*
X60318547Y-22798837D01*
X60213567Y-23006185D01*
X60195928Y-23237925D01*
X60245143Y-23388083D01*
X60192672Y-23393879D01*
X60111908Y-23439015D01*
X59504919Y-23960132D01*
X59501268Y-23964689D01*
X59378360Y-23913653D01*
X59187961Y-23913486D01*
X59011992Y-23986195D01*
X58877243Y-24120710D01*
X58804227Y-24296552D01*
X58804060Y-24486951D01*
X55066496Y-24486951D01*
X55646345Y-23767938D01*
X56749947Y-22693636D01*
X56772001Y-22677620D01*
X60683950Y-22677620D01*
X61602648Y-23747705D01*
X61995787Y-23410183D01*
X62011464Y-23204233D01*
X61549008Y-22665572D01*
X61397617Y-22489234D01*
X61190269Y-22384255D01*
X60958530Y-22366614D01*
X60737681Y-22438999D01*
X60699627Y-22471670D01*
X60683950Y-22677620D01*
X56772001Y-22677620D01*
X58374147Y-21514156D01*
X64927614Y-21514156D01*
X65000323Y-21690125D01*
X65134838Y-21824874D01*
X65160911Y-21835701D01*
X65319950Y-23536608D01*
X65343708Y-23619470D01*
X65400799Y-23692275D01*
X65481718Y-23737133D01*
X65573715Y-23746975D01*
X65839478Y-23722126D01*
X65841053Y-23738974D01*
X65864811Y-23821836D01*
X65921902Y-23894641D01*
X66002822Y-23939499D01*
X66094818Y-23949341D01*
X66891344Y-23874864D01*
X66974206Y-23851106D01*
X67020673Y-23814669D01*
X67094345Y-23954154D01*
X67273269Y-24102480D01*
X67495334Y-24171043D01*
X67545271Y-24166374D01*
X67677090Y-24007362D01*
X67545792Y-22603137D01*
X67466140Y-22610585D01*
X67464051Y-22588241D01*
X67705097Y-22588241D01*
X67836396Y-23992466D01*
X67995408Y-24124285D01*
X68045345Y-24119616D01*
X68250851Y-24011074D01*
X68399176Y-23832149D01*
X68456430Y-23646712D01*
X70939285Y-23646712D01*
X70955056Y-23737879D01*
X71005053Y-23815728D01*
X71081399Y-23867991D01*
X71327200Y-23972055D01*
X71320603Y-23987638D01*
X71302255Y-24071863D01*
X71318026Y-24163030D01*
X71368023Y-24240878D01*
X71444369Y-24293142D01*
X72181066Y-24605035D01*
X72265291Y-24623383D01*
X72323479Y-24613317D01*
X72322250Y-24771058D01*
X72409514Y-24986463D01*
X72572568Y-25152075D01*
X72618754Y-25171629D01*
X72656211Y-25156454D01*
X72957527Y-25156454D01*
X73035080Y-25347887D01*
X73081267Y-25367441D01*
X73313669Y-25369250D01*
X73529073Y-25281985D01*
X73694686Y-25118931D01*
X73785294Y-24904913D01*
X73981007Y-24442632D01*
X76128521Y-24442632D01*
X76160188Y-24772984D01*
X76315864Y-25066070D01*
X76420373Y-25173260D01*
X76586469Y-25116042D01*
X76810585Y-24593784D01*
X76504963Y-24462632D01*
X77138913Y-24462632D01*
X77661171Y-24686749D01*
X77820977Y-24613784D01*
X77789310Y-24283432D01*
X77633634Y-23990346D01*
X77529125Y-23883156D01*
X77363029Y-23940374D01*
X77138913Y-24462632D01*
X76504963Y-24462632D01*
X76288327Y-24369667D01*
X76128521Y-24442632D01*
X73981007Y-24442632D01*
X74062077Y-24251144D01*
X73984523Y-24059711D01*
X73781676Y-23973832D01*
X76329697Y-23973832D01*
X76386915Y-24139928D01*
X76909173Y-24364044D01*
X77133290Y-23841786D01*
X77060325Y-23681980D01*
X76729973Y-23713647D01*
X76436887Y-23869323D01*
X76329697Y-23973832D01*
X73781676Y-23973832D01*
X73507374Y-23857702D01*
X72957527Y-25156454D01*
X72656211Y-25156454D01*
X72810187Y-25094075D01*
X73360034Y-23795324D01*
X73286364Y-23764135D01*
X73385386Y-23530240D01*
X73646010Y-23530240D01*
X74123160Y-23732249D01*
X74314593Y-23654696D01*
X74591376Y-23000927D01*
X74681984Y-22786908D01*
X74683794Y-22554506D01*
X74596530Y-22339101D01*
X74433476Y-22173489D01*
X74387290Y-22153935D01*
X74195857Y-22231489D01*
X73646010Y-23530240D01*
X73385386Y-23530240D01*
X73425000Y-23436673D01*
X73498670Y-23467862D01*
X74048517Y-22169110D01*
X73970964Y-21977677D01*
X73924777Y-21958123D01*
X73692375Y-21956314D01*
X73476971Y-22043579D01*
X73364368Y-22154442D01*
X73335841Y-22110024D01*
X73259495Y-22057760D01*
X72522798Y-21745867D01*
X72515625Y-21744304D01*
X72515713Y-21644237D01*
X72443004Y-21468268D01*
X72308489Y-21333519D01*
X72132647Y-21260503D01*
X71942248Y-21260336D01*
X71766279Y-21333045D01*
X71631530Y-21467560D01*
X71558514Y-21643402D01*
X71558347Y-21833801D01*
X71623126Y-21990577D01*
X70957633Y-23562487D01*
X70939285Y-23646712D01*
X68456430Y-23646712D01*
X68467739Y-23610084D01*
X68446103Y-23378684D01*
X68380009Y-22671822D01*
X68220997Y-22540003D01*
X67705097Y-22588241D01*
X67464051Y-22588241D01*
X67433034Y-22256529D01*
X67512687Y-22249081D01*
X67381388Y-20844856D01*
X67363420Y-20829960D01*
X67540694Y-20829960D01*
X67671992Y-22234185D01*
X68187892Y-22185948D01*
X68319711Y-22026935D01*
X68253617Y-21320073D01*
X68231981Y-21088674D01*
X68123439Y-20883168D01*
X67944515Y-20734842D01*
X67722450Y-20666279D01*
X67672513Y-20670948D01*
X67540694Y-20829960D01*
X67363420Y-20829960D01*
X67222376Y-20713037D01*
X67172439Y-20717706D01*
X66966933Y-20826248D01*
X66818608Y-21005173D01*
X66771991Y-21156158D01*
X66725820Y-21130563D01*
X66633824Y-21120721D01*
X65837298Y-21195198D01*
X65832128Y-21196680D01*
X65812271Y-21148623D01*
X65677756Y-21013874D01*
X65501914Y-20940858D01*
X65311515Y-20940691D01*
X65135546Y-21013400D01*
X65000797Y-21147915D01*
X64927781Y-21323757D01*
X64927614Y-21514156D01*
X58374147Y-21514156D01*
X59231372Y-20891648D01*
X62013928Y-19613441D01*
X64967221Y-18845585D01*
X67972731Y-18589377D01*
X70371969Y-18746705D01*
X70371969Y-18746705D01*
G37*
X70371969Y-18746705D02*
X72752958Y-19248483D01*
X75032469Y-20083649D01*
X77120507Y-21269811D01*
X78981028Y-22826774D01*
X80566778Y-24764911D01*
X81800503Y-27095280D01*
X82508481Y-29521400D01*
X74880733Y-29521400D01*
X74570598Y-29046919D01*
X76537958Y-29046919D01*
X76566667Y-29088044D01*
X76762503Y-29213194D01*
X76991324Y-29253874D01*
X77218295Y-29203892D01*
X77408862Y-29070856D01*
X77990989Y-28664470D01*
X78027142Y-28461113D01*
X77730543Y-28036250D01*
X76574111Y-28843561D01*
X76537958Y-29046919D01*
X74570598Y-29046919D01*
X73793203Y-27857571D01*
X73763333Y-27827090D01*
X73736180Y-27794180D01*
X72266180Y-26594179D01*
X72234166Y-26577174D01*
X75632979Y-26577174D01*
X75633908Y-26669690D01*
X75670758Y-26754556D01*
X75823550Y-26973422D01*
X75809674Y-26983109D01*
X75749336Y-27044671D01*
X75714198Y-27130260D01*
X75715127Y-27222777D01*
X75751977Y-27307642D01*
X76209912Y-27963610D01*
X76271474Y-28023948D01*
X76326102Y-28046375D01*
X76241157Y-28179297D01*
X76200475Y-28408118D01*
X76250457Y-28635089D01*
X76279167Y-28676214D01*
X76482524Y-28712368D01*
X77638956Y-27905056D01*
X77593162Y-27839459D01*
X77602846Y-27832698D01*
X78022122Y-27832698D01*
X78318721Y-28257561D01*
X78522078Y-28293714D01*
X79104205Y-27887328D01*
X79294771Y-27754293D01*
X79419921Y-27558457D01*
X79460603Y-27329636D01*
X79410621Y-27102665D01*
X79381911Y-27061540D01*
X79178554Y-27025386D01*
X78022122Y-27832698D01*
X77602846Y-27832698D01*
X77884741Y-27635907D01*
X77930535Y-27701504D01*
X79086967Y-26894193D01*
X79123120Y-26690835D01*
X79094411Y-26649710D01*
X78898575Y-26524560D01*
X78669754Y-26483880D01*
X78515433Y-26517863D01*
X78514903Y-26465075D01*
X78478053Y-26380210D01*
X78020628Y-25724973D01*
X78090928Y-25555673D01*
X78091095Y-25365274D01*
X78018386Y-25189305D01*
X77883871Y-25054556D01*
X77708029Y-24981540D01*
X77679506Y-24981515D01*
X77240340Y-24542349D01*
X77075306Y-24707383D01*
X77040325Y-24692372D01*
X77002745Y-24779944D01*
X76988890Y-24793799D01*
X76994425Y-24799334D01*
X76816208Y-25214630D01*
X76889173Y-25374436D01*
X77139718Y-25350419D01*
X77133896Y-25364439D01*
X77133822Y-25448928D01*
X75728455Y-26430023D01*
X75668117Y-26491585D01*
X75632979Y-26577174D01*
X72234166Y-26577174D01*
X72225671Y-26572662D01*
X72186577Y-26548675D01*
X70346577Y-25868675D01*
X70311127Y-25863039D01*
X70276758Y-25852688D01*
X67996758Y-25632688D01*
X67970560Y-25635321D01*
X67944369Y-25632581D01*
X66104369Y-25802582D01*
X66073670Y-25811692D01*
X66041899Y-25815697D01*
X64421899Y-26355697D01*
X64393997Y-26371602D01*
X64363890Y-26382787D01*
X62983891Y-27232787D01*
X62961853Y-27253252D01*
X62936549Y-27269514D01*
X61796549Y-28369514D01*
X61779955Y-28393413D01*
X61759264Y-28413863D01*
X60859264Y-29743863D01*
X60848659Y-29769047D01*
X60833327Y-29791664D01*
X60183327Y-31331664D01*
X60178575Y-31354744D01*
X60168806Y-31376190D01*
X59768806Y-33076190D01*
X59768032Y-33098453D01*
X59762124Y-33119931D01*
X59632124Y-34919931D01*
X59634636Y-34940042D01*
X59632130Y-34960156D01*
X59772130Y-36890156D01*
X59778494Y-36913264D01*
X59779627Y-36937203D01*
X60209626Y-38667202D01*
X60220968Y-38691296D01*
X60227239Y-38717174D01*
X60927239Y-40227174D01*
X60942942Y-40248691D01*
X60954006Y-40272926D01*
X61884006Y-41562926D01*
X61905562Y-41583000D01*
X61923131Y-41606634D01*
X63073131Y-42646634D01*
X63099851Y-42662610D01*
X63123497Y-42682868D01*
X64493498Y-43452868D01*
X64523056Y-43462522D01*
X64550565Y-43477036D01*
X66130565Y-43947036D01*
X66158952Y-43949677D01*
X66186341Y-43957594D01*
X67946341Y-44107594D01*
X67970287Y-44104917D01*
X67994240Y-44107544D01*
X70284240Y-43907544D01*
X70315860Y-43898333D01*
X70348522Y-43894162D01*
X71015021Y-43670814D01*
X77046811Y-43670814D01*
X77106697Y-43868488D01*
X77732692Y-44203379D01*
X77937619Y-44313010D01*
X78168901Y-44335874D01*
X78391328Y-44268489D01*
X78571035Y-44121115D01*
X78594694Y-44076891D01*
X78534808Y-43879217D01*
X77291230Y-43213935D01*
X77046811Y-43670814D01*
X71015021Y-43670814D01*
X72228523Y-43264162D01*
X72258738Y-43246875D01*
X72291104Y-43234063D01*
X73081104Y-42724063D01*
X73089113Y-42716303D01*
X75489905Y-42716303D01*
X75557291Y-42938729D01*
X75704665Y-43118437D01*
X75909592Y-43228067D01*
X76535587Y-43562959D01*
X76733261Y-43503073D01*
X76977679Y-43046193D01*
X75734101Y-42380911D01*
X75536428Y-42440797D01*
X75512769Y-42485021D01*
X75489905Y-42716303D01*
X73089113Y-42716303D01*
X73099584Y-42706158D01*
X73121375Y-42692469D01*
X73809386Y-42042157D01*
X75749690Y-42042157D01*
X75809576Y-42239831D01*
X77053154Y-42905113D01*
X77090891Y-42834573D01*
X77404442Y-43002315D01*
X77366705Y-43072855D01*
X78610283Y-43738137D01*
X78807956Y-43678251D01*
X78831615Y-43634027D01*
X78854479Y-43402745D01*
X78787093Y-43180319D01*
X78686891Y-43058133D01*
X78733713Y-43033749D01*
X78792680Y-42962453D01*
X79170052Y-42257052D01*
X79171499Y-42252461D01*
X79315676Y-42252587D01*
X79491645Y-42179878D01*
X79626394Y-42045363D01*
X79699410Y-41869521D01*
X79699577Y-41679122D01*
X79626868Y-41503153D01*
X79492353Y-41368404D01*
X79316511Y-41295388D01*
X79126112Y-41295221D01*
X79013330Y-41341822D01*
X77502747Y-40533699D01*
X77420531Y-40507793D01*
X77328310Y-40515238D01*
X77246251Y-40557974D01*
X77187284Y-40629270D01*
X77061374Y-40864628D01*
X77046453Y-40856646D01*
X76964238Y-40830741D01*
X76872017Y-40838185D01*
X76789957Y-40880921D01*
X76730990Y-40952217D01*
X76353618Y-41657618D01*
X76327713Y-41739833D01*
X76332464Y-41798693D01*
X76175483Y-41783174D01*
X75953056Y-41850559D01*
X75773349Y-41997933D01*
X75749690Y-42042157D01*
X73809386Y-42042157D01*
X73851375Y-42002469D01*
X73871014Y-41974798D01*
X73894548Y-41950351D01*
X75144548Y-40000351D01*
X75153607Y-39977248D01*
X75167393Y-39956616D01*
X75173257Y-39927134D01*
X75184231Y-39899148D01*
X75183759Y-39874337D01*
X75188600Y-39850000D01*
X75182736Y-39820517D01*
X75182164Y-39790464D01*
X75172234Y-39767724D01*
X75167393Y-39743384D01*
X75150693Y-39718390D01*
X75138664Y-39690843D01*
X75120786Y-39673632D01*
X75107000Y-39653000D01*
X75082007Y-39636300D01*
X75060351Y-39615452D01*
X75037248Y-39606393D01*
X75016616Y-39592607D01*
X74987136Y-39586743D01*
X74959149Y-39575769D01*
X74934337Y-39576241D01*
X74910000Y-39571400D01*
X68288600Y-39571400D01*
X68288600Y-35271838D01*
X71431437Y-35271838D01*
X71504146Y-35447807D01*
X71627042Y-35570917D01*
X71627042Y-37277056D01*
X71642982Y-37361770D01*
X71693048Y-37439574D01*
X71769440Y-37491771D01*
X71860120Y-37510134D01*
X72127042Y-37510134D01*
X72127042Y-37527056D01*
X72142982Y-37611770D01*
X72193048Y-37689574D01*
X72269440Y-37741771D01*
X72360120Y-37760134D01*
X73160120Y-37760134D01*
X73244834Y-37744194D01*
X73294492Y-37712239D01*
X73354859Y-37857978D01*
X73519197Y-38022317D01*
X73733915Y-38111256D01*
X73784070Y-38111256D01*
X73930120Y-37965206D01*
X73930120Y-36554856D01*
X74090120Y-36554856D01*
X74090120Y-37965206D01*
X74236170Y-38111256D01*
X74286325Y-38111256D01*
X74501043Y-38022317D01*
X74665381Y-37857978D01*
X74754320Y-37643260D01*
X74754320Y-37465953D01*
X77365501Y-37465953D01*
X77431624Y-37688758D01*
X77577977Y-37869298D01*
X77782279Y-37980089D01*
X78013428Y-38004263D01*
X78719522Y-38078109D01*
X78834341Y-37985032D01*
X79233642Y-37985032D01*
X79363708Y-38145481D01*
X80069802Y-38219327D01*
X80300951Y-38243501D01*
X80523755Y-38177379D01*
X80704296Y-38031026D01*
X80815087Y-37826724D01*
X80820304Y-37776841D01*
X80690238Y-37616392D01*
X79287538Y-37469692D01*
X79233642Y-37985032D01*
X78834341Y-37985032D01*
X78879971Y-37948043D01*
X78933867Y-37432704D01*
X77531167Y-37286004D01*
X77370718Y-37416070D01*
X77365501Y-37465953D01*
X74754320Y-37465953D01*
X74754320Y-36966423D01*
X77417744Y-36966423D01*
X77547810Y-37126872D01*
X78950510Y-37273572D01*
X78958831Y-37194006D01*
X79312502Y-37230994D01*
X79304181Y-37310560D01*
X80706881Y-37457260D01*
X80867330Y-37327194D01*
X80872547Y-37277311D01*
X80806424Y-37054506D01*
X80660071Y-36873966D01*
X80521162Y-36798637D01*
X80555317Y-36758384D01*
X80583013Y-36670105D01*
X80666227Y-35874445D01*
X80665858Y-35869946D01*
X80801700Y-35813817D01*
X80936449Y-35679302D01*
X81009465Y-35503460D01*
X81009632Y-35313061D01*
X80936923Y-35137092D01*
X80802408Y-35002343D01*
X80626566Y-34929327D01*
X80436167Y-34929160D01*
X80260198Y-35001869D01*
X80175839Y-35086082D01*
X78471785Y-34907865D01*
X78385872Y-34914907D01*
X78303282Y-34956609D01*
X78243423Y-35027157D01*
X78215727Y-35115435D01*
X78187963Y-35380909D01*
X78171133Y-35379149D01*
X78085221Y-35386191D01*
X78002631Y-35427892D01*
X77942771Y-35498440D01*
X77915075Y-35586719D01*
X77831861Y-36382379D01*
X77838903Y-36468291D01*
X77865520Y-36521005D01*
X77714293Y-36565885D01*
X77533752Y-36712238D01*
X77422961Y-36916540D01*
X77417744Y-36966423D01*
X74754320Y-36966423D01*
X74754320Y-36700906D01*
X74608270Y-36554856D01*
X74090120Y-36554856D01*
X73930120Y-36554856D01*
X73850120Y-36554856D01*
X73850120Y-36199256D01*
X73930120Y-36199256D01*
X73930120Y-34788906D01*
X74090120Y-34788906D01*
X74090120Y-36199256D01*
X74608270Y-36199256D01*
X74754320Y-36053206D01*
X74754320Y-35110852D01*
X74665381Y-34896134D01*
X74501043Y-34731795D01*
X74286325Y-34642856D01*
X74236170Y-34642856D01*
X74090120Y-34788906D01*
X73930120Y-34788906D01*
X73784070Y-34642856D01*
X73733915Y-34642856D01*
X73519197Y-34731795D01*
X73354859Y-34896134D01*
X73294388Y-35042124D01*
X73250800Y-35012341D01*
X73160120Y-34993978D01*
X72360120Y-34993978D01*
X72352882Y-34995340D01*
X72316094Y-34906305D01*
X72181579Y-34771556D01*
X72005737Y-34698540D01*
X71815338Y-34698373D01*
X71639369Y-34771082D01*
X71504620Y-34905597D01*
X71431604Y-35081439D01*
X71431437Y-35271838D01*
X68288600Y-35271838D01*
X68288600Y-32948600D01*
X83072553Y-32948600D01*
X83091328Y-37473307D01*
X82806118Y-39764823D01*
X82157168Y-42075476D01*
X81136149Y-44382589D01*
X80711592Y-44990477D01*
X80699431Y-45018205D01*
X80682607Y-45043384D01*
X80677809Y-45067505D01*
X80667931Y-45090028D01*
X80667307Y-45120303D01*
X80661400Y-45150000D01*
X80666198Y-45174120D01*
X80665691Y-45198709D01*
X80676700Y-45226918D01*
X80682607Y-45256616D01*
X80696269Y-45277063D01*
X80705211Y-45299975D01*
X80726178Y-45321824D01*
X80743000Y-45347000D01*
X80763449Y-45360664D01*
X80780477Y-45378408D01*
X80808205Y-45390569D01*
X80833384Y-45407393D01*
X80857505Y-45412191D01*
X80880028Y-45422069D01*
X80910303Y-45422693D01*
X80940000Y-45428600D01*
X87791400Y-45428600D01*
X87791400Y-45465968D01*
X87757630Y-45459129D01*
X83757630Y-45459129D01*
X83672916Y-45475069D01*
X83595112Y-45525135D01*
X83542915Y-45601527D01*
X83524552Y-45692207D01*
X83524552Y-46692207D01*
X83540492Y-46776921D01*
X83590558Y-46854725D01*
X83666950Y-46906922D01*
X83757630Y-46925285D01*
X87757630Y-46925285D01*
X87791400Y-46918931D01*
X87791400Y-47108007D01*
X86081480Y-47108007D01*
X85935430Y-47254057D01*
X85935430Y-48014407D01*
X85955430Y-48014407D01*
X85955430Y-48370007D01*
X85935430Y-48370007D01*
X85935430Y-49130357D01*
X86081480Y-49276407D01*
X87791400Y-49276407D01*
X87791400Y-49465968D01*
X87757630Y-49459129D01*
X83757630Y-49459129D01*
X83672916Y-49475069D01*
X83595112Y-49525135D01*
X83542915Y-49601527D01*
X83524552Y-49692207D01*
X83524552Y-50692207D01*
X83540492Y-50776921D01*
X83590558Y-50854725D01*
X83614962Y-50871400D01*
X71610000Y-50871400D01*
X71586077Y-50876158D01*
X71561694Y-50875620D01*
X70157601Y-51122820D01*
X67973746Y-51250703D01*
X64979747Y-50994637D01*
X64574887Y-50881654D01*
X64537138Y-50878787D01*
X64500000Y-50871400D01*
X51164522Y-50871400D01*
X51183358Y-50859279D01*
X51235555Y-50782887D01*
X51253918Y-50692207D01*
X51253918Y-49692207D01*
X51237978Y-49607493D01*
X51187912Y-49529689D01*
X51111520Y-49477492D01*
X51020840Y-49459129D01*
X47020840Y-49459129D01*
X46936126Y-49475069D01*
X46908600Y-49492782D01*
X46908600Y-49276407D01*
X48696990Y-49276407D01*
X48843040Y-49130357D01*
X48843040Y-48370007D01*
X48823040Y-48370007D01*
X48823040Y-48130540D01*
X49121428Y-48130540D01*
X49166293Y-48479424D01*
X49198640Y-48557517D01*
X49198640Y-49130357D01*
X49344690Y-49276407D01*
X51137044Y-49276407D01*
X51351762Y-49187468D01*
X51516101Y-49023130D01*
X51605040Y-48808412D01*
X51605040Y-48516057D01*
X51577064Y-48488081D01*
X65437372Y-48488081D01*
X65506420Y-48709996D01*
X65655135Y-48888596D01*
X65860878Y-48996690D01*
X65910825Y-49001250D01*
X66052077Y-48883632D01*
X66228886Y-48883632D01*
X66361052Y-49042356D01*
X66410999Y-49046916D01*
X66632915Y-48977868D01*
X66811514Y-48829152D01*
X66885007Y-48689266D01*
X66925707Y-48722888D01*
X67014342Y-48749420D01*
X67811029Y-48822158D01*
X67816190Y-48821667D01*
X67869837Y-48951503D01*
X68004352Y-49086252D01*
X68180194Y-49159268D01*
X68370593Y-49159435D01*
X68546562Y-49086726D01*
X68681311Y-48952211D01*
X68754327Y-48776369D01*
X68754494Y-48585970D01*
X68681785Y-48410001D01*
X68592914Y-48320975D01*
X68683474Y-47329084D01*
X71818176Y-47329084D01*
X72134791Y-47964518D01*
X72238439Y-48172535D01*
X72413801Y-48325054D01*
X72634182Y-48398855D01*
X72866029Y-48382702D01*
X72910920Y-48360334D01*
X72976508Y-48164478D01*
X72347533Y-46902148D01*
X71883764Y-47133228D01*
X71818176Y-47329084D01*
X68683474Y-47329084D01*
X68748654Y-46615188D01*
X68740482Y-46529376D01*
X68697698Y-46447341D01*
X68626368Y-46388415D01*
X68537733Y-46361883D01*
X68271917Y-46337614D01*
X68273455Y-46320763D01*
X68265283Y-46234951D01*
X68222499Y-46152916D01*
X68151169Y-46093990D01*
X68062534Y-46067458D01*
X67265847Y-45994720D01*
X67180035Y-46002892D01*
X67127678Y-46030198D01*
X67080812Y-45879576D01*
X66932097Y-45700976D01*
X66880872Y-45674063D01*
X71092905Y-45674063D01*
X71109059Y-45905910D01*
X71212706Y-46113927D01*
X71529321Y-46749361D01*
X71725177Y-46814949D01*
X72188946Y-46583869D01*
X71559971Y-45321539D01*
X71364115Y-45255951D01*
X71319224Y-45278319D01*
X71166705Y-45453682D01*
X71092905Y-45674063D01*
X66880872Y-45674063D01*
X66726354Y-45592882D01*
X66676407Y-45588322D01*
X66517683Y-45720488D01*
X66389451Y-47124996D01*
X66469119Y-47132270D01*
X66436787Y-47486397D01*
X66357119Y-47479123D01*
X66228886Y-48883632D01*
X66052077Y-48883632D01*
X66069549Y-48869084D01*
X66197781Y-47464576D01*
X65681778Y-47417464D01*
X65523053Y-47549630D01*
X65458503Y-48256635D01*
X65437372Y-48488081D01*
X51577064Y-48488081D01*
X51458990Y-48370007D01*
X50888760Y-48370007D01*
X50920252Y-48253874D01*
X50889458Y-48014407D01*
X51458990Y-48014407D01*
X51605040Y-47868357D01*
X51605040Y-47576002D01*
X51516101Y-47361284D01*
X51351762Y-47196946D01*
X51137044Y-47108007D01*
X49344690Y-47108007D01*
X49198640Y-47254057D01*
X49198640Y-47845809D01*
X49121428Y-48130540D01*
X48823040Y-48130540D01*
X48823040Y-48014407D01*
X48843040Y-48014407D01*
X48843040Y-47254057D01*
X48696990Y-47108007D01*
X46908600Y-47108007D01*
X46908600Y-46892191D01*
X46930160Y-46906922D01*
X47020840Y-46925285D01*
X51020840Y-46925285D01*
X51105554Y-46909345D01*
X51183358Y-46859279D01*
X51235555Y-46782887D01*
X51253918Y-46692207D01*
X51253918Y-46610261D01*
X59914258Y-46610261D01*
X59973685Y-46808073D01*
X60017854Y-46831834D01*
X60249082Y-46855234D01*
X60471664Y-46788365D01*
X60594082Y-46688447D01*
X60618359Y-46735326D01*
X60689518Y-46794458D01*
X61394042Y-47173464D01*
X61398514Y-47174885D01*
X61398387Y-47320209D01*
X61471096Y-47496178D01*
X61605611Y-47630927D01*
X61781453Y-47703943D01*
X61971852Y-47704110D01*
X62147821Y-47631401D01*
X62282570Y-47496886D01*
X62355586Y-47321044D01*
X62355753Y-47130645D01*
X62309595Y-47018935D01*
X62371095Y-46904613D01*
X65581944Y-46904613D01*
X65714110Y-47063337D01*
X66230113Y-47110449D01*
X66358346Y-45705940D01*
X66226180Y-45547216D01*
X66176233Y-45542656D01*
X65954317Y-45611704D01*
X65775718Y-45760420D01*
X65667625Y-45966162D01*
X65646494Y-46197609D01*
X65581944Y-46904613D01*
X62371095Y-46904613D01*
X63121256Y-45510163D01*
X63147353Y-45428007D01*
X63140122Y-45335769D01*
X63097576Y-45253611D01*
X63093453Y-45250184D01*
X71703178Y-45250184D01*
X72332153Y-46512514D01*
X72403757Y-46476836D01*
X72562344Y-46795115D01*
X72490740Y-46830793D01*
X73119715Y-48093123D01*
X73315571Y-48158711D01*
X73360462Y-48136343D01*
X73512981Y-47960980D01*
X73586781Y-47740599D01*
X73575798Y-47582963D01*
X73628092Y-47590181D01*
X73680870Y-47576002D01*
X83173430Y-47576002D01*
X83173430Y-47868357D01*
X83319480Y-48014407D01*
X83889710Y-48014407D01*
X83858218Y-48130540D01*
X83889012Y-48370007D01*
X83319480Y-48370007D01*
X83173430Y-48516057D01*
X83173430Y-48808412D01*
X83262369Y-49023130D01*
X83426708Y-49187468D01*
X83641426Y-49276407D01*
X85433780Y-49276407D01*
X85579830Y-49130357D01*
X85579830Y-48538605D01*
X85657042Y-48253874D01*
X85612177Y-47904990D01*
X85579830Y-47826897D01*
X85579830Y-47254057D01*
X85433780Y-47108007D01*
X83641426Y-47108007D01*
X83426708Y-47196946D01*
X83262369Y-47361284D01*
X83173430Y-47576002D01*
X73680870Y-47576002D01*
X73717445Y-47566176D01*
X74433483Y-47209399D01*
X74438486Y-47205609D01*
X74483148Y-47250349D01*
X74658990Y-47323365D01*
X74849389Y-47323532D01*
X75025358Y-47250823D01*
X75160107Y-47116308D01*
X75233123Y-46940466D01*
X75233290Y-46750067D01*
X75160581Y-46574098D01*
X75026066Y-46439349D01*
X74850224Y-46366333D01*
X74832444Y-46366317D01*
X74071437Y-44839005D01*
X74019390Y-44770291D01*
X73939880Y-44722980D01*
X73848228Y-44710330D01*
X73758875Y-44734335D01*
X73519968Y-44853374D01*
X73512421Y-44838228D01*
X73460374Y-44769514D01*
X73380864Y-44722203D01*
X73289212Y-44709553D01*
X73199859Y-44733558D01*
X72483821Y-45090335D01*
X72415107Y-45142382D01*
X72384911Y-45193129D01*
X72265885Y-45089608D01*
X72045504Y-45015807D01*
X71813657Y-45031960D01*
X71768766Y-45054328D01*
X71703178Y-45250184D01*
X63093453Y-45250184D01*
X63026418Y-45194479D01*
X62791352Y-45068023D01*
X62799369Y-45053120D01*
X62825466Y-44970964D01*
X62818235Y-44878726D01*
X62775689Y-44796568D01*
X62704530Y-44737436D01*
X62000006Y-44358430D01*
X61917851Y-44332333D01*
X61858980Y-44336948D01*
X61874863Y-44180002D01*
X61807995Y-43957420D01*
X61661038Y-43777371D01*
X61616869Y-43753610D01*
X61419057Y-43813037D01*
X60750892Y-45055068D01*
X60821344Y-45092969D01*
X60652876Y-45406130D01*
X60582423Y-45368229D01*
X59914258Y-46610261D01*
X51253918Y-46610261D01*
X51253918Y-46167494D01*
X59317547Y-46167494D01*
X59384415Y-46390076D01*
X59531372Y-46570125D01*
X59575541Y-46593886D01*
X59773353Y-46534459D01*
X60441518Y-45292428D01*
X59985207Y-45046950D01*
X59787395Y-45106377D01*
X59451052Y-45731593D01*
X59340947Y-45936265D01*
X59317547Y-46167494D01*
X51253918Y-46167494D01*
X51253918Y-45692207D01*
X51237978Y-45607493D01*
X51187912Y-45529689D01*
X51111520Y-45477492D01*
X51020840Y-45459129D01*
X47020840Y-45459129D01*
X46936126Y-45475069D01*
X46908600Y-45492782D01*
X46908600Y-45428600D01*
X54520000Y-45428600D01*
X54565430Y-45419564D01*
X54611317Y-45413210D01*
X54618477Y-45409012D01*
X54626616Y-45407393D01*
X54665132Y-45381657D01*
X54705092Y-45358228D01*
X54710100Y-45351611D01*
X54717000Y-45347000D01*
X54742738Y-45308481D01*
X54770688Y-45271546D01*
X54772782Y-45263517D01*
X54777393Y-45256616D01*
X54786431Y-45211179D01*
X54798119Y-45166360D01*
X54796981Y-45158140D01*
X54798600Y-45150000D01*
X54789564Y-45104570D01*
X54783210Y-45058683D01*
X54779012Y-45051523D01*
X54777393Y-45043384D01*
X54751657Y-45004868D01*
X54728228Y-44964908D01*
X54666482Y-44895444D01*
X54455848Y-44535977D01*
X60094248Y-44535977D01*
X60153676Y-44733789D01*
X60609987Y-44979267D01*
X61278152Y-43737235D01*
X61218725Y-43539423D01*
X61174556Y-43515662D01*
X60943328Y-43492262D01*
X60720746Y-43559131D01*
X60540697Y-43706088D01*
X60430591Y-43910760D01*
X60094248Y-44535977D01*
X54455848Y-44535977D01*
X53021606Y-42088319D01*
X52705692Y-41275966D01*
X55496415Y-41275966D01*
X55518975Y-41320761D01*
X55694993Y-41472523D01*
X55915689Y-41545374D01*
X56073276Y-41533713D01*
X56066284Y-41586038D01*
X56090673Y-41675287D01*
X56450528Y-42389783D01*
X56454253Y-42394657D01*
X56410958Y-42437876D01*
X56337942Y-42613718D01*
X56337775Y-42804117D01*
X56410484Y-42980086D01*
X56544999Y-43114835D01*
X56720841Y-43187851D01*
X56911240Y-43188018D01*
X57087209Y-43115309D01*
X57221958Y-42980794D01*
X57294974Y-42804952D01*
X57294991Y-42785276D01*
X58819342Y-42017538D01*
X58887831Y-41965195D01*
X58934800Y-41885483D01*
X58947055Y-41793777D01*
X58922666Y-41704528D01*
X58802600Y-41466135D01*
X58817713Y-41458523D01*
X58886202Y-41406180D01*
X58933171Y-41326468D01*
X58945426Y-41234762D01*
X58921037Y-41145513D01*
X58561182Y-40431017D01*
X58508839Y-40362528D01*
X58457962Y-40332550D01*
X58560970Y-40213079D01*
X58633822Y-39992383D01*
X58616671Y-39760608D01*
X58594111Y-39715813D01*
X58397974Y-39651069D01*
X57138363Y-40285472D01*
X57174348Y-40356921D01*
X56856756Y-40516877D01*
X56820770Y-40445427D01*
X55561159Y-41079830D01*
X55496415Y-41275966D01*
X52705692Y-41275966D01*
X52441111Y-40595617D01*
X55253340Y-40595617D01*
X55270491Y-40827392D01*
X55293051Y-40872187D01*
X55489188Y-40936931D01*
X56748799Y-40302528D01*
X56515725Y-39839758D01*
X56319589Y-39775014D01*
X55685523Y-40094361D01*
X55477954Y-40198903D01*
X55326192Y-40374921D01*
X55253340Y-40595617D01*
X52441111Y-40595617D01*
X52405680Y-40504511D01*
X52193613Y-39679803D01*
X56833318Y-39679803D01*
X57066392Y-40142573D01*
X58326003Y-39508170D01*
X58390747Y-39312034D01*
X58368187Y-39267239D01*
X58192169Y-39115477D01*
X57971473Y-39042626D01*
X57739697Y-39059777D01*
X57532128Y-39164320D01*
X56898062Y-39483666D01*
X56833318Y-39679803D01*
X52193613Y-39679803D01*
X51963608Y-38785341D01*
X51697715Y-36933931D01*
X51608877Y-34940000D01*
X51621076Y-34666196D01*
X54110279Y-34666196D01*
X54114582Y-34716166D01*
X54221616Y-34922461D01*
X54399450Y-35072092D01*
X54550089Y-35119814D01*
X54524156Y-35165796D01*
X54513642Y-35257718D01*
X54582284Y-36054768D01*
X54583811Y-36060244D01*
X54532546Y-36081426D01*
X54397797Y-36215941D01*
X54324781Y-36391783D01*
X54324614Y-36582182D01*
X54397323Y-36758151D01*
X54531838Y-36892900D01*
X54707680Y-36965916D01*
X54898079Y-36966083D01*
X55074048Y-36893374D01*
X55208797Y-36758859D01*
X55218381Y-36735779D01*
X56919842Y-36589249D01*
X57002875Y-36566100D01*
X57076097Y-36509543D01*
X57121546Y-36428954D01*
X57132061Y-36337033D01*
X57109159Y-36071095D01*
X57126018Y-36069643D01*
X57209052Y-36046494D01*
X57282274Y-35989936D01*
X57327724Y-35909348D01*
X57338238Y-35817426D01*
X57269596Y-35020376D01*
X57246447Y-34937343D01*
X57210350Y-34890610D01*
X57350371Y-34817961D01*
X57500004Y-34640128D01*
X57570192Y-34418571D01*
X57565888Y-34368601D01*
X57407845Y-34235621D01*
X56002696Y-34356631D01*
X56009560Y-34436336D01*
X55655272Y-34466848D01*
X55648408Y-34387143D01*
X54243259Y-34508153D01*
X54110279Y-34666196D01*
X51621076Y-34666196D01*
X51643371Y-34165793D01*
X54067184Y-34165793D01*
X54071488Y-34215763D01*
X54229531Y-34348743D01*
X55634680Y-34227733D01*
X55590221Y-33711493D01*
X55553960Y-33680982D01*
X55944510Y-33680982D01*
X55988968Y-34197221D01*
X57394117Y-34076211D01*
X57527097Y-33918168D01*
X57522794Y-33868198D01*
X57415760Y-33661903D01*
X57237926Y-33512272D01*
X57016369Y-33442084D01*
X56784817Y-33462025D01*
X56077490Y-33522940D01*
X55944510Y-33680982D01*
X55553960Y-33680982D01*
X55432179Y-33578513D01*
X54724852Y-33639428D01*
X54493300Y-33659369D01*
X54287005Y-33766403D01*
X54137372Y-33944236D01*
X54067184Y-34165793D01*
X51643371Y-34165793D01*
X51697715Y-32946069D01*
X51963635Y-31094471D01*
X52272564Y-29886215D01*
X55040989Y-29886215D01*
X55113698Y-30062184D01*
X55248213Y-30196933D01*
X55424055Y-30269949D01*
X55614454Y-30270116D01*
X55739186Y-30218578D01*
X57268900Y-30987399D01*
X57351750Y-31011199D01*
X57443751Y-31001404D01*
X57524693Y-30956588D01*
X57581822Y-30883811D01*
X57701687Y-30645317D01*
X57716807Y-30652916D01*
X57799657Y-30676716D01*
X57891658Y-30666921D01*
X57972600Y-30622105D01*
X58029729Y-30549328D01*
X58388981Y-29834529D01*
X58412781Y-29751679D01*
X58406529Y-29692960D01*
X58563855Y-29704468D01*
X58784490Y-29631431D01*
X58960379Y-29479520D01*
X58982902Y-29434707D01*
X58917993Y-29238625D01*
X57657846Y-28605287D01*
X57621921Y-28676766D01*
X57304193Y-28517079D01*
X57331710Y-28462327D01*
X57729696Y-28462327D01*
X58989843Y-29095665D01*
X59185924Y-29030756D01*
X59208447Y-28985942D01*
X59225403Y-28754153D01*
X59152364Y-28533518D01*
X59000453Y-28357629D01*
X58792796Y-28253262D01*
X58158461Y-27934451D01*
X57962379Y-27999360D01*
X57729696Y-28462327D01*
X57331710Y-28462327D01*
X57340118Y-28445599D01*
X56079971Y-27812261D01*
X55883890Y-27877170D01*
X55861367Y-27921984D01*
X55844411Y-28153773D01*
X55917450Y-28374408D01*
X56020737Y-28493998D01*
X55974552Y-28519569D01*
X55917423Y-28592346D01*
X55558171Y-29307145D01*
X55556528Y-29312865D01*
X55424890Y-29312750D01*
X55248921Y-29385459D01*
X55114172Y-29519974D01*
X55041156Y-29695816D01*
X55040989Y-29886215D01*
X52272564Y-29886215D01*
X52405679Y-29365588D01*
X53021456Y-27791936D01*
X53208213Y-27473219D01*
X56086912Y-27473219D01*
X56151821Y-27669301D01*
X57411968Y-28302639D01*
X57644651Y-27839673D01*
X57579741Y-27643591D01*
X56945406Y-27324780D01*
X56737749Y-27220413D01*
X56505959Y-27203458D01*
X56285324Y-27276495D01*
X56109435Y-27428406D01*
X56086912Y-27473219D01*
X53208213Y-27473219D01*
X54669886Y-24978748D01*
X55066496Y-24486951D01*
X58804060Y-24486951D01*
X58876769Y-24662920D01*
X59011284Y-24797669D01*
X59187126Y-24870685D01*
X59320572Y-24870802D01*
X60435895Y-26169913D01*
X60503172Y-26223806D01*
X60591840Y-26250226D01*
X60683802Y-26240068D01*
X60764566Y-26194932D01*
X60967090Y-26021059D01*
X60978113Y-26033898D01*
X61045390Y-26087791D01*
X61134058Y-26114211D01*
X61226020Y-26104053D01*
X61306784Y-26058917D01*
X61913773Y-25537800D01*
X61967666Y-25470523D01*
X61984528Y-25413931D01*
X62125265Y-25485185D01*
X62357004Y-25502826D01*
X62577853Y-25430441D01*
X62615907Y-25397770D01*
X62631584Y-25191820D01*
X61712886Y-24121735D01*
X61652188Y-24173846D01*
X61517970Y-24017512D01*
X61834284Y-24017512D01*
X62752982Y-25087596D01*
X62958932Y-25103273D01*
X62996987Y-25070603D01*
X63101967Y-24863255D01*
X63119606Y-24631515D01*
X63047221Y-24410666D01*
X62895830Y-24234329D01*
X62433374Y-23695667D01*
X62227424Y-23679990D01*
X61834284Y-24017512D01*
X61517970Y-24017512D01*
X61420550Y-23904040D01*
X61481250Y-23851928D01*
X60562552Y-22781844D01*
X60356602Y-22766167D01*
X60318547Y-22798837D01*
X60213567Y-23006185D01*
X60195928Y-23237925D01*
X60245143Y-23388083D01*
X60192672Y-23393879D01*
X60111908Y-23439015D01*
X59504919Y-23960132D01*
X59501268Y-23964689D01*
X59378360Y-23913653D01*
X59187961Y-23913486D01*
X59011992Y-23986195D01*
X58877243Y-24120710D01*
X58804227Y-24296552D01*
X58804060Y-24486951D01*
X55066496Y-24486951D01*
X55646345Y-23767938D01*
X56749947Y-22693636D01*
X56772001Y-22677620D01*
X60683950Y-22677620D01*
X61602648Y-23747705D01*
X61995787Y-23410183D01*
X62011464Y-23204233D01*
X61549008Y-22665572D01*
X61397617Y-22489234D01*
X61190269Y-22384255D01*
X60958530Y-22366614D01*
X60737681Y-22438999D01*
X60699627Y-22471670D01*
X60683950Y-22677620D01*
X56772001Y-22677620D01*
X58374147Y-21514156D01*
X64927614Y-21514156D01*
X65000323Y-21690125D01*
X65134838Y-21824874D01*
X65160911Y-21835701D01*
X65319950Y-23536608D01*
X65343708Y-23619470D01*
X65400799Y-23692275D01*
X65481718Y-23737133D01*
X65573715Y-23746975D01*
X65839478Y-23722126D01*
X65841053Y-23738974D01*
X65864811Y-23821836D01*
X65921902Y-23894641D01*
X66002822Y-23939499D01*
X66094818Y-23949341D01*
X66891344Y-23874864D01*
X66974206Y-23851106D01*
X67020673Y-23814669D01*
X67094345Y-23954154D01*
X67273269Y-24102480D01*
X67495334Y-24171043D01*
X67545271Y-24166374D01*
X67677090Y-24007362D01*
X67545792Y-22603137D01*
X67466140Y-22610585D01*
X67464051Y-22588241D01*
X67705097Y-22588241D01*
X67836396Y-23992466D01*
X67995408Y-24124285D01*
X68045345Y-24119616D01*
X68250851Y-24011074D01*
X68399176Y-23832149D01*
X68456430Y-23646712D01*
X70939285Y-23646712D01*
X70955056Y-23737879D01*
X71005053Y-23815728D01*
X71081399Y-23867991D01*
X71327200Y-23972055D01*
X71320603Y-23987638D01*
X71302255Y-24071863D01*
X71318026Y-24163030D01*
X71368023Y-24240878D01*
X71444369Y-24293142D01*
X72181066Y-24605035D01*
X72265291Y-24623383D01*
X72323479Y-24613317D01*
X72322250Y-24771058D01*
X72409514Y-24986463D01*
X72572568Y-25152075D01*
X72618754Y-25171629D01*
X72656211Y-25156454D01*
X72957527Y-25156454D01*
X73035080Y-25347887D01*
X73081267Y-25367441D01*
X73313669Y-25369250D01*
X73529073Y-25281985D01*
X73694686Y-25118931D01*
X73785294Y-24904913D01*
X73981007Y-24442632D01*
X76128521Y-24442632D01*
X76160188Y-24772984D01*
X76315864Y-25066070D01*
X76420373Y-25173260D01*
X76586469Y-25116042D01*
X76810585Y-24593784D01*
X76504963Y-24462632D01*
X77138913Y-24462632D01*
X77661171Y-24686749D01*
X77820977Y-24613784D01*
X77789310Y-24283432D01*
X77633634Y-23990346D01*
X77529125Y-23883156D01*
X77363029Y-23940374D01*
X77138913Y-24462632D01*
X76504963Y-24462632D01*
X76288327Y-24369667D01*
X76128521Y-24442632D01*
X73981007Y-24442632D01*
X74062077Y-24251144D01*
X73984523Y-24059711D01*
X73781676Y-23973832D01*
X76329697Y-23973832D01*
X76386915Y-24139928D01*
X76909173Y-24364044D01*
X77133290Y-23841786D01*
X77060325Y-23681980D01*
X76729973Y-23713647D01*
X76436887Y-23869323D01*
X76329697Y-23973832D01*
X73781676Y-23973832D01*
X73507374Y-23857702D01*
X72957527Y-25156454D01*
X72656211Y-25156454D01*
X72810187Y-25094075D01*
X73360034Y-23795324D01*
X73286364Y-23764135D01*
X73385386Y-23530240D01*
X73646010Y-23530240D01*
X74123160Y-23732249D01*
X74314593Y-23654696D01*
X74591376Y-23000927D01*
X74681984Y-22786908D01*
X74683794Y-22554506D01*
X74596530Y-22339101D01*
X74433476Y-22173489D01*
X74387290Y-22153935D01*
X74195857Y-22231489D01*
X73646010Y-23530240D01*
X73385386Y-23530240D01*
X73425000Y-23436673D01*
X73498670Y-23467862D01*
X74048517Y-22169110D01*
X73970964Y-21977677D01*
X73924777Y-21958123D01*
X73692375Y-21956314D01*
X73476971Y-22043579D01*
X73364368Y-22154442D01*
X73335841Y-22110024D01*
X73259495Y-22057760D01*
X72522798Y-21745867D01*
X72515625Y-21744304D01*
X72515713Y-21644237D01*
X72443004Y-21468268D01*
X72308489Y-21333519D01*
X72132647Y-21260503D01*
X71942248Y-21260336D01*
X71766279Y-21333045D01*
X71631530Y-21467560D01*
X71558514Y-21643402D01*
X71558347Y-21833801D01*
X71623126Y-21990577D01*
X70957633Y-23562487D01*
X70939285Y-23646712D01*
X68456430Y-23646712D01*
X68467739Y-23610084D01*
X68446103Y-23378684D01*
X68380009Y-22671822D01*
X68220997Y-22540003D01*
X67705097Y-22588241D01*
X67464051Y-22588241D01*
X67433034Y-22256529D01*
X67512687Y-22249081D01*
X67381388Y-20844856D01*
X67363420Y-20829960D01*
X67540694Y-20829960D01*
X67671992Y-22234185D01*
X68187892Y-22185948D01*
X68319711Y-22026935D01*
X68253617Y-21320073D01*
X68231981Y-21088674D01*
X68123439Y-20883168D01*
X67944515Y-20734842D01*
X67722450Y-20666279D01*
X67672513Y-20670948D01*
X67540694Y-20829960D01*
X67363420Y-20829960D01*
X67222376Y-20713037D01*
X67172439Y-20717706D01*
X66966933Y-20826248D01*
X66818608Y-21005173D01*
X66771991Y-21156158D01*
X66725820Y-21130563D01*
X66633824Y-21120721D01*
X65837298Y-21195198D01*
X65832128Y-21196680D01*
X65812271Y-21148623D01*
X65677756Y-21013874D01*
X65501914Y-20940858D01*
X65311515Y-20940691D01*
X65135546Y-21013400D01*
X65000797Y-21147915D01*
X64927781Y-21323757D01*
X64927614Y-21514156D01*
X58374147Y-21514156D01*
X59231372Y-20891648D01*
X62013928Y-19613441D01*
X64967221Y-18845585D01*
X67972731Y-18589377D01*
X70371969Y-18746705D01*
G36*
X85003562Y-48158407D02*
X84969762Y-48192207D01*
X85003562Y-48226007D01*
X84859562Y-48370007D01*
X84655698Y-48370007D01*
X84511698Y-48226007D01*
X84545498Y-48192207D01*
X84511698Y-48158407D01*
X84655698Y-48014407D01*
X84859562Y-48014407D01*
X85003562Y-48158407D01*
X85003562Y-48158407D01*
G37*
X85003562Y-48158407D02*
X84969762Y-48192207D01*
X85003562Y-48226007D01*
X84859562Y-48370007D01*
X84655698Y-48370007D01*
X84511698Y-48226007D01*
X84545498Y-48192207D01*
X84511698Y-48158407D01*
X84655698Y-48014407D01*
X84859562Y-48014407D01*
X85003562Y-48158407D01*
G36*
X50266772Y-48158407D02*
X50232972Y-48192207D01*
X50266772Y-48226007D01*
X50122772Y-48370007D01*
X49918908Y-48370007D01*
X49774908Y-48226007D01*
X49808708Y-48192207D01*
X49774908Y-48158407D01*
X49918908Y-48014407D01*
X50122772Y-48014407D01*
X50266772Y-48158407D01*
X50266772Y-48158407D01*
G37*
X50266772Y-48158407D02*
X50232972Y-48192207D01*
X50266772Y-48226007D01*
X50122772Y-48370007D01*
X49918908Y-48370007D01*
X49774908Y-48226007D01*
X49808708Y-48192207D01*
X49774908Y-48158407D01*
X49918908Y-48014407D01*
X50122772Y-48014407D01*
X50266772Y-48158407D01*
M02*
