G04 #@! TF.FileFunction,Copper,L1,Top,Signal*
%FSLAX46Y46*%
G04 Gerber Fmt 4.6, Leading zero omitted, Abs format (unit mm)*
G04 Created by KiCad (PCBNEW 4.0.0-rc2-stable) date 3/3/2016 3:47:18 PM*
%MOMM*%
G01*
G04 APERTURE LIST*
%ADD10C,0.150000*%
%ADD11R,1.800000X0.500000*%
%ADD12R,2.300000X0.320000*%
%ADD13R,2.300000X0.800000*%
%ADD14C,0.500000*%
%ADD15R,0.500000X1.800000*%
%ADD16R,0.320000X2.300000*%
%ADD17R,0.800000X2.300000*%
%ADD18R,4.000000X1.000000*%
%ADD19C,0.600000*%
%ADD20C,0.254000*%
%ADD21C,0.152400*%
G04 APERTURE END LIST*
D10*
D11*
X55642574Y-46647844D03*
D12*
X55642574Y-48547844D03*
D13*
X55642574Y-47297844D03*
D14*
X56842574Y-46447844D03*
D11*
X55642574Y-40093965D03*
D12*
X55642574Y-41993965D03*
D13*
X55642574Y-40743965D03*
D14*
X56842574Y-39893965D03*
D10*
G36*
X74124520Y-48031178D02*
X72589400Y-48971075D01*
X72328318Y-48544652D01*
X73863438Y-47604755D01*
X74124520Y-48031178D01*
X74124520Y-48031178D01*
G37*
G36*
X73298623Y-46203476D02*
X71337080Y-47404456D01*
X71169987Y-47131546D01*
X73131530Y-45930566D01*
X73298623Y-46203476D01*
X73298623Y-46203476D01*
G37*
G36*
X74076648Y-47474214D02*
X72115106Y-48675194D01*
X71697374Y-47992918D01*
X73658916Y-46791938D01*
X74076648Y-47474214D01*
X74076648Y-47474214D01*
G37*
D14*
X72307438Y-49085082D03*
D10*
G36*
X70857250Y-42694793D02*
X69322130Y-43634690D01*
X69061048Y-43208267D01*
X70596168Y-42268370D01*
X70857250Y-42694793D01*
X70857250Y-42694793D01*
G37*
G36*
X70031353Y-40867091D02*
X68069810Y-42068071D01*
X67902717Y-41795161D01*
X69864260Y-40594181D01*
X70031353Y-40867091D01*
X70031353Y-40867091D01*
G37*
G36*
X70809378Y-42137829D02*
X68847836Y-43338809D01*
X68430104Y-42656533D01*
X70391646Y-41455553D01*
X70809378Y-42137829D01*
X70809378Y-42137829D01*
G37*
D14*
X69040168Y-43748697D03*
D15*
X60481380Y-37628350D03*
D16*
X62381380Y-37628350D03*
D17*
X61131380Y-37628350D03*
D14*
X60281380Y-36428350D03*
D10*
G36*
X66646522Y-38405871D02*
X66425312Y-36619516D01*
X66921522Y-36558069D01*
X67142732Y-38344424D01*
X66646522Y-38405871D01*
X66646522Y-38405871D01*
G37*
G36*
X68652161Y-38409417D02*
X68369504Y-36126851D01*
X68687079Y-36087525D01*
X68969736Y-38370091D01*
X68652161Y-38409417D01*
X68652161Y-38409417D01*
G37*
G36*
X67173456Y-38592529D02*
X66890798Y-36309964D01*
X67684734Y-36211649D01*
X67967392Y-38494214D01*
X67173456Y-38592529D01*
X67173456Y-38592529D01*
G37*
D14*
X66438065Y-36315645D03*
D10*
G36*
X72748057Y-34594989D02*
X71044293Y-34014308D01*
X71205593Y-33541041D01*
X72909357Y-34121722D01*
X72748057Y-34594989D01*
X72748057Y-34594989D01*
G37*
G36*
X73626666Y-32792034D02*
X71449635Y-32050053D01*
X71552868Y-31747162D01*
X73729899Y-32489143D01*
X73626666Y-32792034D01*
X73626666Y-32792034D01*
G37*
G36*
X73145991Y-34202372D02*
X70968960Y-33460390D01*
X71227041Y-32703162D01*
X73404072Y-33445144D01*
X73145991Y-34202372D01*
X73145991Y-34202372D01*
G37*
D14*
X70776463Y-33870201D03*
D10*
G36*
X73517874Y-27970381D02*
X71819529Y-28566725D01*
X71653878Y-28094963D01*
X73352223Y-27498619D01*
X73517874Y-27970381D01*
X73517874Y-27970381D01*
G37*
G36*
X73094464Y-26009941D02*
X70924357Y-26771937D01*
X70818340Y-26470009D01*
X72988447Y-25708013D01*
X73094464Y-26009941D01*
X73094464Y-26009941D01*
G37*
G36*
X73588104Y-27415793D02*
X71417998Y-28177789D01*
X71152956Y-27422969D01*
X73323062Y-26660973D01*
X73588104Y-27415793D01*
X73588104Y-27415793D01*
G37*
D14*
X71519907Y-28618940D03*
D10*
G36*
X69386217Y-22670177D02*
X68636247Y-24306498D01*
X68181713Y-24098173D01*
X68931683Y-22461852D01*
X69386217Y-22670177D01*
X69386217Y-22670177D01*
G37*
G36*
X67681336Y-21613777D02*
X66723041Y-23704631D01*
X66432140Y-23571303D01*
X67390435Y-21480449D01*
X67681336Y-21613777D01*
X67681336Y-21613777D01*
G37*
G36*
X69035846Y-22234586D02*
X68077551Y-24325440D01*
X67350298Y-23992120D01*
X68308593Y-21901266D01*
X69035846Y-22234586D01*
X69035846Y-22234586D01*
G37*
D14*
X68465798Y-24558385D03*
D15*
X62619025Y-22661350D03*
D16*
X60719025Y-22661350D03*
D17*
X61969025Y-22661350D03*
D14*
X62819025Y-23861350D03*
D11*
X55640280Y-21930643D03*
D12*
X55640280Y-23830643D03*
D13*
X55640280Y-22580643D03*
D14*
X56840280Y-21730643D03*
D11*
X55640280Y-28151940D03*
D12*
X55640280Y-30051940D03*
D13*
X55640280Y-28801940D03*
D14*
X56840280Y-27951940D03*
D11*
X55640280Y-34373247D03*
D12*
X55640280Y-36273247D03*
D13*
X55640280Y-35023247D03*
D14*
X56840280Y-34173247D03*
D18*
X81147030Y-50192200D03*
X81147030Y-48192200D03*
X81147030Y-46192200D03*
D19*
X80147030Y-50192200D03*
X80147030Y-48192200D03*
X80147030Y-46192200D03*
D18*
X49020840Y-46192200D03*
X49020840Y-48192200D03*
X49020840Y-50192200D03*
D19*
X50020840Y-46192200D03*
X50020840Y-48192200D03*
X50020840Y-50192200D03*
D14*
X75549284Y-30465397D03*
D20*
X55640000Y-46650000D02*
X55640000Y-47300000D01*
X55640000Y-46650000D02*
X55640000Y-47300000D01*
X55640000Y-46650000D02*
X55640000Y-47300000D01*
X55640000Y-46650000D02*
X55640000Y-47300000D01*
X55640000Y-46650000D02*
X55640000Y-47300000D01*
X55640000Y-46650000D02*
X55640000Y-47300000D01*
X55640000Y-46650000D02*
X55640000Y-47300000D01*
X55640000Y-46650000D02*
X55640000Y-47300000D01*
X55640000Y-46650000D02*
X55640000Y-47300000D01*
X55640000Y-47300000D02*
X56840000Y-46450000D01*
X55640000Y-47300000D02*
X56840000Y-46450000D01*
X55640000Y-47300000D02*
X56840000Y-46450000D01*
X55640000Y-47300000D02*
X56840000Y-46450000D01*
X55640000Y-47300000D02*
X56840000Y-46450000D01*
X55640000Y-47300000D02*
X56840000Y-46450000D01*
X55640000Y-47300000D02*
X56840000Y-46450000D01*
X55640000Y-47300000D02*
X56840000Y-46450000D01*
X55640000Y-47300000D02*
X56840000Y-46450000D01*
X55640000Y-40090000D02*
X55640000Y-40740000D01*
X55640000Y-40090000D02*
X55640000Y-40740000D01*
X55640000Y-40090000D02*
X55640000Y-40740000D01*
X55640000Y-40090000D02*
X55640000Y-40740000D01*
X55640000Y-40090000D02*
X55640000Y-40740000D01*
X55640000Y-40090000D02*
X55640000Y-40740000D01*
X55640000Y-40090000D02*
X55640000Y-40740000D01*
X55640000Y-40090000D02*
X55640000Y-40740000D01*
X55640000Y-40090000D02*
X55640000Y-40740000D01*
X55640000Y-40740000D02*
X56840000Y-39890000D01*
X55640000Y-40740000D02*
X56840000Y-39890000D01*
X55640000Y-40740000D02*
X56840000Y-39890000D01*
X55640000Y-40740000D02*
X56840000Y-39890000D01*
X55640000Y-40740000D02*
X56840000Y-39890000D01*
X55640000Y-40740000D02*
X56840000Y-39890000D01*
X55640000Y-40740000D02*
X56840000Y-39890000D01*
X55640000Y-40740000D02*
X56840000Y-39890000D01*
X55640000Y-40740000D02*
X56840000Y-39890000D01*
X73230000Y-48290000D02*
X72890000Y-47730000D01*
X73230000Y-48290000D02*
X72890000Y-47730000D01*
X73230000Y-48290000D02*
X72890000Y-47730000D01*
X73230000Y-48290000D02*
X72890000Y-47730000D01*
X73230000Y-48290000D02*
X72890000Y-47730000D01*
X73230000Y-48290000D02*
X72890000Y-47730000D01*
X73230000Y-48290000D02*
X72890000Y-47730000D01*
X73230000Y-48290000D02*
X72890000Y-47730000D01*
X73230000Y-48290000D02*
X72890000Y-47730000D01*
X72890000Y-47730000D02*
X72310000Y-49090000D01*
X72890000Y-47730000D02*
X72310000Y-49090000D01*
X72890000Y-47730000D02*
X72310000Y-49090000D01*
X72890000Y-47730000D02*
X72310000Y-49090000D01*
X72890000Y-47730000D02*
X72310000Y-49090000D01*
X72890000Y-47730000D02*
X72310000Y-49090000D01*
X72890000Y-47730000D02*
X72310000Y-49090000D01*
X72890000Y-47730000D02*
X72310000Y-49090000D01*
X72890000Y-47730000D02*
X72310000Y-49090000D01*
X69960000Y-42950000D02*
X69620000Y-42400000D01*
X69960000Y-42950000D02*
X69620000Y-42400000D01*
X69960000Y-42950000D02*
X69620000Y-42400000D01*
X69960000Y-42950000D02*
X69620000Y-42400000D01*
X69960000Y-42950000D02*
X69620000Y-42400000D01*
X69960000Y-42950000D02*
X69620000Y-42400000D01*
X69960000Y-42950000D02*
X69620000Y-42400000D01*
X69960000Y-42950000D02*
X69620000Y-42400000D01*
X69960000Y-42950000D02*
X69620000Y-42400000D01*
X69620000Y-42400000D02*
X69040000Y-43750000D01*
X69620000Y-42400000D02*
X69040000Y-43750000D01*
X69620000Y-42400000D02*
X69040000Y-43750000D01*
X69620000Y-42400000D02*
X69040000Y-43750000D01*
X69620000Y-42400000D02*
X69040000Y-43750000D01*
X69620000Y-42400000D02*
X69040000Y-43750000D01*
X69620000Y-42400000D02*
X69040000Y-43750000D01*
X69620000Y-42400000D02*
X69040000Y-43750000D01*
X69620000Y-42400000D02*
X69040000Y-43750000D01*
X60480000Y-37630000D02*
X61130000Y-37630000D01*
X60480000Y-37630000D02*
X61130000Y-37630000D01*
X60480000Y-37630000D02*
X61130000Y-37630000D01*
X60480000Y-37630000D02*
X61130000Y-37630000D01*
X60480000Y-37630000D02*
X61130000Y-37630000D01*
X60480000Y-37630000D02*
X61130000Y-37630000D01*
X60480000Y-37630000D02*
X61130000Y-37630000D01*
X60480000Y-37630000D02*
X61130000Y-37630000D01*
X60480000Y-37630000D02*
X61130000Y-37630000D01*
X61130000Y-37630000D02*
X60280000Y-36430000D01*
X61130000Y-37630000D02*
X60280000Y-36430000D01*
X61130000Y-37630000D02*
X60280000Y-36430000D01*
X61130000Y-37630000D02*
X60280000Y-36430000D01*
X61130000Y-37630000D02*
X60280000Y-36430000D01*
X61130000Y-37630000D02*
X60280000Y-36430000D01*
X61130000Y-37630000D02*
X60280000Y-36430000D01*
X61130000Y-37630000D02*
X60280000Y-36430000D01*
X61130000Y-37630000D02*
X60280000Y-36430000D01*
X66780000Y-37480000D02*
X67430000Y-37400000D01*
X66780000Y-37480000D02*
X67430000Y-37400000D01*
X66780000Y-37480000D02*
X67430000Y-37400000D01*
X66780000Y-37480000D02*
X67430000Y-37400000D01*
X66780000Y-37480000D02*
X67430000Y-37400000D01*
X66780000Y-37480000D02*
X67430000Y-37400000D01*
X66780000Y-37480000D02*
X67430000Y-37400000D01*
X66780000Y-37480000D02*
X67430000Y-37400000D01*
X66780000Y-37480000D02*
X67430000Y-37400000D01*
X67430000Y-37400000D02*
X66440000Y-36320000D01*
X67430000Y-37400000D02*
X66440000Y-36320000D01*
X67430000Y-37400000D02*
X66440000Y-36320000D01*
X67430000Y-37400000D02*
X66440000Y-36320000D01*
X67430000Y-37400000D02*
X66440000Y-36320000D01*
X67430000Y-37400000D02*
X66440000Y-36320000D01*
X67430000Y-37400000D02*
X66440000Y-36320000D01*
X67430000Y-37400000D02*
X66440000Y-36320000D01*
X67430000Y-37400000D02*
X66440000Y-36320000D01*
X71980000Y-34070000D02*
X72190000Y-33450000D01*
X71980000Y-34070000D02*
X72190000Y-33450000D01*
X71980000Y-34070000D02*
X72190000Y-33450000D01*
X71980000Y-34070000D02*
X72190000Y-33450000D01*
X71980000Y-34070000D02*
X72190000Y-33450000D01*
X71980000Y-34070000D02*
X72190000Y-33450000D01*
X71980000Y-34070000D02*
X72190000Y-33450000D01*
X71980000Y-34070000D02*
X72190000Y-33450000D01*
X71980000Y-34070000D02*
X72190000Y-33450000D01*
X72190000Y-33450000D02*
X70780000Y-33870000D01*
X72190000Y-33450000D02*
X70780000Y-33870000D01*
X72190000Y-33450000D02*
X70780000Y-33870000D01*
X72190000Y-33450000D02*
X70780000Y-33870000D01*
X72190000Y-33450000D02*
X70780000Y-33870000D01*
X72190000Y-33450000D02*
X70780000Y-33870000D01*
X72190000Y-33450000D02*
X70780000Y-33870000D01*
X72190000Y-33450000D02*
X70780000Y-33870000D01*
X72190000Y-33450000D02*
X70780000Y-33870000D01*
X72590000Y-28030000D02*
X72370000Y-27420000D01*
X72590000Y-28030000D02*
X72370000Y-27420000D01*
X72590000Y-28030000D02*
X72370000Y-27420000D01*
X72590000Y-28030000D02*
X72370000Y-27420000D01*
X72590000Y-28030000D02*
X72370000Y-27420000D01*
X72590000Y-28030000D02*
X72370000Y-27420000D01*
X72590000Y-28030000D02*
X72370000Y-27420000D01*
X72590000Y-28030000D02*
X72370000Y-27420000D01*
X72590000Y-28030000D02*
X72370000Y-27420000D01*
X72370000Y-27420000D02*
X71520000Y-28620000D01*
X72370000Y-27420000D02*
X71520000Y-28620000D01*
X72370000Y-27420000D02*
X71520000Y-28620000D01*
X72370000Y-27420000D02*
X71520000Y-28620000D01*
X72370000Y-27420000D02*
X71520000Y-28620000D01*
X72370000Y-27420000D02*
X71520000Y-28620000D01*
X72370000Y-27420000D02*
X71520000Y-28620000D01*
X72370000Y-27420000D02*
X71520000Y-28620000D01*
X72370000Y-27420000D02*
X71520000Y-28620000D01*
X68780000Y-23380000D02*
X68190000Y-23110000D01*
X68780000Y-23380000D02*
X68190000Y-23110000D01*
X68780000Y-23380000D02*
X68190000Y-23110000D01*
X68780000Y-23380000D02*
X68190000Y-23110000D01*
X68780000Y-23380000D02*
X68190000Y-23110000D01*
X68780000Y-23380000D02*
X68190000Y-23110000D01*
X68780000Y-23380000D02*
X68190000Y-23110000D01*
X68780000Y-23380000D02*
X68190000Y-23110000D01*
X68780000Y-23380000D02*
X68190000Y-23110000D01*
X68190000Y-23110000D02*
X68470000Y-24560000D01*
X68190000Y-23110000D02*
X68470000Y-24560000D01*
X68190000Y-23110000D02*
X68470000Y-24560000D01*
X68190000Y-23110000D02*
X68470000Y-24560000D01*
X68190000Y-23110000D02*
X68470000Y-24560000D01*
X68190000Y-23110000D02*
X68470000Y-24560000D01*
X68190000Y-23110000D02*
X68470000Y-24560000D01*
X68190000Y-23110000D02*
X68470000Y-24560000D01*
X68190000Y-23110000D02*
X68470000Y-24560000D01*
X62620000Y-22660000D02*
X61970000Y-22660000D01*
X62620000Y-22660000D02*
X61970000Y-22660000D01*
X62620000Y-22660000D02*
X61970000Y-22660000D01*
X62620000Y-22660000D02*
X61970000Y-22660000D01*
X62620000Y-22660000D02*
X61970000Y-22660000D01*
X62620000Y-22660000D02*
X61970000Y-22660000D01*
X62620000Y-22660000D02*
X61970000Y-22660000D01*
X62620000Y-22660000D02*
X61970000Y-22660000D01*
X62620000Y-22660000D02*
X61970000Y-22660000D01*
X61970000Y-22660000D02*
X62820000Y-23860000D01*
X61970000Y-22660000D02*
X62820000Y-23860000D01*
X61970000Y-22660000D02*
X62820000Y-23860000D01*
X61970000Y-22660000D02*
X62820000Y-23860000D01*
X61970000Y-22660000D02*
X62820000Y-23860000D01*
X61970000Y-22660000D02*
X62820000Y-23860000D01*
X61970000Y-22660000D02*
X62820000Y-23860000D01*
X61970000Y-22660000D02*
X62820000Y-23860000D01*
X61970000Y-22660000D02*
X62820000Y-23860000D01*
X55640000Y-21930000D02*
X55640000Y-22580000D01*
X55640000Y-21930000D02*
X55640000Y-22580000D01*
X55640000Y-21930000D02*
X55640000Y-22580000D01*
X55640000Y-21930000D02*
X55640000Y-22580000D01*
X55640000Y-21930000D02*
X55640000Y-22580000D01*
X55640000Y-21930000D02*
X55640000Y-22580000D01*
X55640000Y-21930000D02*
X55640000Y-22580000D01*
X55640000Y-21930000D02*
X55640000Y-22580000D01*
X55640000Y-21930000D02*
X55640000Y-22580000D01*
X55640000Y-22580000D02*
X56840000Y-21730000D01*
X55640000Y-22580000D02*
X56840000Y-21730000D01*
X55640000Y-22580000D02*
X56840000Y-21730000D01*
X55640000Y-22580000D02*
X56840000Y-21730000D01*
X55640000Y-22580000D02*
X56840000Y-21730000D01*
X55640000Y-22580000D02*
X56840000Y-21730000D01*
X55640000Y-22580000D02*
X56840000Y-21730000D01*
X55640000Y-22580000D02*
X56840000Y-21730000D01*
X55640000Y-22580000D02*
X56840000Y-21730000D01*
X55640000Y-28150000D02*
X55640000Y-28800000D01*
X55640000Y-28150000D02*
X55640000Y-28800000D01*
X55640000Y-28150000D02*
X55640000Y-28800000D01*
X55640000Y-28150000D02*
X55640000Y-28800000D01*
X55640000Y-28150000D02*
X55640000Y-28800000D01*
X55640000Y-28150000D02*
X55640000Y-28800000D01*
X55640000Y-28150000D02*
X55640000Y-28800000D01*
X55640000Y-28150000D02*
X55640000Y-28800000D01*
X55640000Y-28150000D02*
X55640000Y-28800000D01*
X55640000Y-28800000D02*
X56840000Y-27950000D01*
X55640000Y-28800000D02*
X56840000Y-27950000D01*
X55640000Y-28800000D02*
X56840000Y-27950000D01*
X55640000Y-28800000D02*
X56840000Y-27950000D01*
X55640000Y-28800000D02*
X56840000Y-27950000D01*
X55640000Y-28800000D02*
X56840000Y-27950000D01*
X55640000Y-28800000D02*
X56840000Y-27950000D01*
X55640000Y-28800000D02*
X56840000Y-27950000D01*
X55640000Y-28800000D02*
X56840000Y-27950000D01*
X55640000Y-34370000D02*
X55640000Y-35020000D01*
X55640000Y-34370000D02*
X55640000Y-35020000D01*
X55640000Y-34370000D02*
X55640000Y-35020000D01*
X55640000Y-34370000D02*
X55640000Y-35020000D01*
X55640000Y-34370000D02*
X55640000Y-35020000D01*
X55640000Y-34370000D02*
X55640000Y-35020000D01*
X55640000Y-34370000D02*
X55640000Y-35020000D01*
X55640000Y-34370000D02*
X55640000Y-35020000D01*
X55640000Y-34370000D02*
X55640000Y-35020000D01*
X55640000Y-35020000D02*
X56840000Y-34170000D01*
X55640000Y-35020000D02*
X56840000Y-34170000D01*
X55640000Y-35020000D02*
X56840000Y-34170000D01*
X55640000Y-35020000D02*
X56840000Y-34170000D01*
X55640000Y-35020000D02*
X56840000Y-34170000D01*
X55640000Y-35020000D02*
X56840000Y-34170000D01*
X55640000Y-35020000D02*
X56840000Y-34170000D01*
X55640000Y-35020000D02*
X56840000Y-34170000D01*
X55640000Y-35020000D02*
X56840000Y-34170000D01*
D21*
G36*
X68479714Y-19285014D02*
X69769088Y-19634018D01*
X70940037Y-20127558D01*
X72992729Y-21437371D01*
X74598822Y-23092134D01*
X75786894Y-25020316D01*
X76538383Y-27177189D01*
X76880595Y-29445566D01*
X76792609Y-31733220D01*
X76284267Y-33952328D01*
X75366690Y-36051040D01*
X74023298Y-37910373D01*
X72228022Y-39459045D01*
X72207876Y-39484861D01*
X72183919Y-39507194D01*
X72174746Y-39527314D01*
X72161145Y-39544743D01*
X72152411Y-39576306D01*
X72138826Y-39606104D01*
X72138051Y-39628199D01*
X72132154Y-39649510D01*
X72136164Y-39682014D01*
X72135016Y-39714742D01*
X72142756Y-39735453D01*
X72145463Y-39757396D01*
X72161605Y-39785889D01*
X72173070Y-39816568D01*
X75563070Y-45296568D01*
X75585073Y-45320170D01*
X75603000Y-45347000D01*
X75621787Y-45359553D01*
X75637194Y-45376080D01*
X75666553Y-45389465D01*
X75693384Y-45407393D01*
X75715545Y-45411801D01*
X75736104Y-45421174D01*
X75768352Y-45422305D01*
X75800000Y-45428600D01*
X83181400Y-45428600D01*
X83181400Y-45466082D01*
X83147030Y-45459122D01*
X79147030Y-45459122D01*
X79062316Y-45475062D01*
X78984512Y-45525128D01*
X78932315Y-45601520D01*
X78913952Y-45692200D01*
X78913952Y-46692200D01*
X78929892Y-46776914D01*
X78979958Y-46854718D01*
X79056350Y-46906915D01*
X79147030Y-46925278D01*
X83147030Y-46925278D01*
X83181400Y-46918811D01*
X83181400Y-47108000D01*
X81470880Y-47108000D01*
X81324830Y-47254050D01*
X81324830Y-48014400D01*
X81344830Y-48014400D01*
X81344830Y-48370000D01*
X81324830Y-48370000D01*
X81324830Y-49130350D01*
X81470880Y-49276400D01*
X83181400Y-49276400D01*
X83181400Y-49466082D01*
X83147030Y-49459122D01*
X79147030Y-49459122D01*
X79062316Y-49475062D01*
X78984512Y-49525128D01*
X78932315Y-49601520D01*
X78913952Y-49692200D01*
X78913952Y-50692200D01*
X78929892Y-50776914D01*
X78979958Y-50854718D01*
X79004373Y-50871400D01*
X78760000Y-50871400D01*
X78709726Y-50881400D01*
X69650176Y-50881400D01*
X67836299Y-47765835D01*
X70873338Y-47765835D01*
X70899527Y-47808610D01*
X71087496Y-47945290D01*
X71313463Y-47999632D01*
X71469546Y-47974974D01*
X71466906Y-48027698D01*
X71498595Y-48114623D01*
X71916327Y-48796899D01*
X71917449Y-48798139D01*
X71901938Y-48813623D01*
X71828922Y-48989465D01*
X71828755Y-49179864D01*
X71901464Y-49355833D01*
X72035979Y-49490582D01*
X72211821Y-49563598D01*
X72402220Y-49563765D01*
X72578189Y-49491056D01*
X72712938Y-49356541D01*
X72785954Y-49180699D01*
X72786004Y-49123996D01*
X74246225Y-48229957D01*
X74310149Y-48172129D01*
X74350362Y-48088803D01*
X74354988Y-47996398D01*
X74323299Y-47909473D01*
X74183921Y-47681829D01*
X74198353Y-47672993D01*
X74262278Y-47615164D01*
X74281180Y-47575995D01*
X78562830Y-47575995D01*
X78562830Y-47868350D01*
X78708880Y-48014400D01*
X79279110Y-48014400D01*
X79247618Y-48130533D01*
X79278412Y-48370000D01*
X78708880Y-48370000D01*
X78562830Y-48516050D01*
X78562830Y-48808405D01*
X78651769Y-49023123D01*
X78816108Y-49187461D01*
X79030826Y-49276400D01*
X80823180Y-49276400D01*
X80969230Y-49130350D01*
X80969230Y-48538598D01*
X81046442Y-48253867D01*
X81001577Y-47904983D01*
X80969230Y-47826890D01*
X80969230Y-47254050D01*
X80823180Y-47108000D01*
X79030826Y-47108000D01*
X78816108Y-47196939D01*
X78651769Y-47361277D01*
X78562830Y-47575995D01*
X74281180Y-47575995D01*
X74302490Y-47531839D01*
X74307116Y-47439434D01*
X74275427Y-47352509D01*
X73857695Y-46670233D01*
X73799866Y-46606308D01*
X73746685Y-46580643D01*
X73839456Y-46453061D01*
X73893800Y-46227094D01*
X73857532Y-45997532D01*
X73831343Y-45954758D01*
X73630523Y-45906462D01*
X72427714Y-46642898D01*
X72469487Y-46711125D01*
X72166215Y-46896807D01*
X72124442Y-46828579D01*
X70921633Y-47565015D01*
X70873338Y-47765835D01*
X67836299Y-47765835D01*
X67453266Y-47107928D01*
X70574810Y-47107928D01*
X70611078Y-47337490D01*
X70637267Y-47380264D01*
X70838087Y-47428560D01*
X72040896Y-46692124D01*
X71770336Y-46250223D01*
X71569516Y-46201927D01*
X70964043Y-46572636D01*
X70765835Y-46693992D01*
X70629154Y-46881961D01*
X70574810Y-47107928D01*
X67453266Y-47107928D01*
X66845808Y-46064541D01*
X72073608Y-46064541D01*
X72344168Y-46506443D01*
X73546977Y-45770007D01*
X73595272Y-45569187D01*
X73569083Y-45526412D01*
X73381114Y-45389732D01*
X73155147Y-45335390D01*
X72925585Y-45371657D01*
X72727376Y-45493013D01*
X72121903Y-45863721D01*
X72073608Y-46064541D01*
X66845808Y-46064541D01*
X64729461Y-42429450D01*
X67606068Y-42429450D01*
X67632257Y-42472225D01*
X67820226Y-42608905D01*
X68046193Y-42663247D01*
X68202276Y-42638589D01*
X68199636Y-42691313D01*
X68231325Y-42778238D01*
X68649057Y-43460514D01*
X68650179Y-43461754D01*
X68634668Y-43477238D01*
X68561652Y-43653080D01*
X68561485Y-43843479D01*
X68634194Y-44019448D01*
X68768709Y-44154197D01*
X68944551Y-44227213D01*
X69134950Y-44227380D01*
X69310919Y-44154671D01*
X69445668Y-44020156D01*
X69518684Y-43844314D01*
X69518734Y-43787611D01*
X70978955Y-42893572D01*
X71042879Y-42835744D01*
X71083092Y-42752418D01*
X71087718Y-42660013D01*
X71056029Y-42573088D01*
X70916651Y-42345444D01*
X70931083Y-42336608D01*
X70995008Y-42278779D01*
X71035220Y-42195454D01*
X71039846Y-42103049D01*
X71008157Y-42016124D01*
X70590425Y-41333848D01*
X70532596Y-41269923D01*
X70479415Y-41244258D01*
X70572186Y-41116676D01*
X70626530Y-40890709D01*
X70590262Y-40661147D01*
X70564073Y-40618373D01*
X70363253Y-40570077D01*
X69160444Y-41306513D01*
X69202217Y-41374740D01*
X68898945Y-41560422D01*
X68857172Y-41492194D01*
X67654363Y-42228630D01*
X67606068Y-42429450D01*
X64729461Y-42429450D01*
X64346428Y-41771543D01*
X67307540Y-41771543D01*
X67343808Y-42001105D01*
X67369997Y-42043879D01*
X67570817Y-42092175D01*
X68773626Y-41355739D01*
X68503066Y-40913838D01*
X68302246Y-40865542D01*
X67696773Y-41236251D01*
X67498565Y-41357607D01*
X67361884Y-41545576D01*
X67307540Y-41771543D01*
X64346428Y-41771543D01*
X64170768Y-41469825D01*
X64146968Y-41442884D01*
X64127000Y-41413000D01*
X64111301Y-41402510D01*
X64098798Y-41388357D01*
X64066501Y-41372575D01*
X64036616Y-41352607D01*
X64018096Y-41348923D01*
X64001130Y-41340633D01*
X63965253Y-41338412D01*
X63930000Y-41331400D01*
X59630000Y-41331400D01*
X59523384Y-41352607D01*
X59433000Y-41413000D01*
X59372607Y-41503384D01*
X59351400Y-41610000D01*
X59351400Y-50881400D01*
X51380274Y-50881400D01*
X51330000Y-50871400D01*
X51164511Y-50871400D01*
X51183358Y-50859272D01*
X51235555Y-50782880D01*
X51253918Y-50692200D01*
X51253918Y-49692200D01*
X51237978Y-49607486D01*
X51187912Y-49529682D01*
X51111520Y-49477485D01*
X51020840Y-49459122D01*
X47020840Y-49459122D01*
X46936126Y-49475062D01*
X46908600Y-49492775D01*
X46908600Y-49276400D01*
X48696990Y-49276400D01*
X48843040Y-49130350D01*
X48843040Y-48370000D01*
X48823040Y-48370000D01*
X48823040Y-48130533D01*
X49121428Y-48130533D01*
X49166293Y-48479417D01*
X49198640Y-48557510D01*
X49198640Y-49130350D01*
X49344690Y-49276400D01*
X51137044Y-49276400D01*
X51351762Y-49187461D01*
X51516101Y-49023123D01*
X51605040Y-48808405D01*
X51605040Y-48773894D01*
X53908374Y-48773894D01*
X53908374Y-48824049D01*
X53997313Y-49038767D01*
X54161652Y-49203105D01*
X54376370Y-49292044D01*
X55318724Y-49292044D01*
X55464774Y-49145994D01*
X55464774Y-48627844D01*
X55820374Y-48627844D01*
X55820374Y-49145994D01*
X55966424Y-49292044D01*
X56908778Y-49292044D01*
X57123496Y-49203105D01*
X57287835Y-49038767D01*
X57376774Y-48824049D01*
X57376774Y-48773894D01*
X57230724Y-48627844D01*
X55820374Y-48627844D01*
X55464774Y-48627844D01*
X54054424Y-48627844D01*
X53908374Y-48773894D01*
X51605040Y-48773894D01*
X51605040Y-48516050D01*
X51458990Y-48370000D01*
X50888760Y-48370000D01*
X50915432Y-48271639D01*
X53908374Y-48271639D01*
X53908374Y-48321794D01*
X54054424Y-48467844D01*
X55464774Y-48467844D01*
X55464774Y-48387844D01*
X55820374Y-48387844D01*
X55820374Y-48467844D01*
X57230724Y-48467844D01*
X57376774Y-48321794D01*
X57376774Y-48271639D01*
X57287835Y-48056921D01*
X57123496Y-47892583D01*
X56977506Y-47832112D01*
X57007289Y-47788524D01*
X57025652Y-47697844D01*
X57025652Y-46897844D01*
X57024290Y-46890606D01*
X57113325Y-46853818D01*
X57248074Y-46719303D01*
X57321090Y-46543461D01*
X57321257Y-46353062D01*
X57248548Y-46177093D01*
X57114033Y-46042344D01*
X56938191Y-45969328D01*
X56747792Y-45969161D01*
X56571823Y-46041870D01*
X56448713Y-46164766D01*
X54742574Y-46164766D01*
X54657860Y-46180706D01*
X54580056Y-46230772D01*
X54527859Y-46307164D01*
X54509496Y-46397844D01*
X54509496Y-46664766D01*
X54492574Y-46664766D01*
X54407860Y-46680706D01*
X54330056Y-46730772D01*
X54277859Y-46807164D01*
X54259496Y-46897844D01*
X54259496Y-47697844D01*
X54275436Y-47782558D01*
X54307391Y-47832216D01*
X54161652Y-47892583D01*
X53997313Y-48056921D01*
X53908374Y-48271639D01*
X50915432Y-48271639D01*
X50920252Y-48253867D01*
X50889458Y-48014400D01*
X51458990Y-48014400D01*
X51605040Y-47868350D01*
X51605040Y-47575995D01*
X51516101Y-47361277D01*
X51351762Y-47196939D01*
X51137044Y-47108000D01*
X49344690Y-47108000D01*
X49198640Y-47254050D01*
X49198640Y-47845802D01*
X49121428Y-48130533D01*
X48823040Y-48130533D01*
X48823040Y-48014400D01*
X48843040Y-48014400D01*
X48843040Y-47254050D01*
X48696990Y-47108000D01*
X46908600Y-47108000D01*
X46908600Y-46892184D01*
X46930160Y-46906915D01*
X47020840Y-46925278D01*
X51020840Y-46925278D01*
X51105554Y-46909338D01*
X51183358Y-46859272D01*
X51235555Y-46782880D01*
X51253918Y-46692200D01*
X51253918Y-45692200D01*
X51237978Y-45607486D01*
X51187912Y-45529682D01*
X51111520Y-45477485D01*
X51020840Y-45459122D01*
X47020840Y-45459122D01*
X46936126Y-45475062D01*
X46908600Y-45492775D01*
X46908600Y-45428600D01*
X51330000Y-45428600D01*
X51436616Y-45407393D01*
X51527000Y-45347000D01*
X51587393Y-45256616D01*
X51608600Y-45150000D01*
X51608600Y-42220015D01*
X53908374Y-42220015D01*
X53908374Y-42270170D01*
X53997313Y-42484888D01*
X54161652Y-42649226D01*
X54376370Y-42738165D01*
X55318724Y-42738165D01*
X55464774Y-42592115D01*
X55464774Y-42073965D01*
X55820374Y-42073965D01*
X55820374Y-42592115D01*
X55966424Y-42738165D01*
X56908778Y-42738165D01*
X57123496Y-42649226D01*
X57287835Y-42484888D01*
X57376774Y-42270170D01*
X57376774Y-42220015D01*
X57230724Y-42073965D01*
X55820374Y-42073965D01*
X55464774Y-42073965D01*
X54054424Y-42073965D01*
X53908374Y-42220015D01*
X51608600Y-42220015D01*
X51608600Y-41717760D01*
X53908374Y-41717760D01*
X53908374Y-41767915D01*
X54054424Y-41913965D01*
X55464774Y-41913965D01*
X55464774Y-41833965D01*
X55820374Y-41833965D01*
X55820374Y-41913965D01*
X57230724Y-41913965D01*
X57376774Y-41767915D01*
X57376774Y-41717760D01*
X57287835Y-41503042D01*
X57123496Y-41338704D01*
X56977506Y-41278233D01*
X57007289Y-41234645D01*
X57025652Y-41143965D01*
X57025652Y-40728156D01*
X68806338Y-40728156D01*
X69076898Y-41170058D01*
X70279707Y-40433622D01*
X70328002Y-40232802D01*
X70301813Y-40190027D01*
X70113844Y-40053347D01*
X69887877Y-39999005D01*
X69658315Y-40035272D01*
X69460106Y-40156628D01*
X68854633Y-40527336D01*
X68806338Y-40728156D01*
X57025652Y-40728156D01*
X57025652Y-40343965D01*
X57024290Y-40336727D01*
X57113325Y-40299939D01*
X57248074Y-40165424D01*
X57321090Y-39989582D01*
X57321257Y-39799183D01*
X57248548Y-39623214D01*
X57114033Y-39488465D01*
X56938191Y-39415449D01*
X56747792Y-39415282D01*
X56571823Y-39487991D01*
X56448713Y-39610887D01*
X54742574Y-39610887D01*
X54657860Y-39626827D01*
X54580056Y-39676893D01*
X54527859Y-39753285D01*
X54509496Y-39843965D01*
X54509496Y-40110887D01*
X54492574Y-40110887D01*
X54407860Y-40126827D01*
X54330056Y-40176893D01*
X54277859Y-40253285D01*
X54259496Y-40343965D01*
X54259496Y-41143965D01*
X54275436Y-41228679D01*
X54307391Y-41278337D01*
X54161652Y-41338704D01*
X53997313Y-41503042D01*
X53908374Y-41717760D01*
X51608600Y-41717760D01*
X51608600Y-36499297D01*
X53906080Y-36499297D01*
X53906080Y-36549452D01*
X53995019Y-36764170D01*
X54159358Y-36928508D01*
X54374076Y-37017447D01*
X55316430Y-37017447D01*
X55462480Y-36871397D01*
X55462480Y-36353247D01*
X55818080Y-36353247D01*
X55818080Y-36871397D01*
X55964130Y-37017447D01*
X56906484Y-37017447D01*
X57121202Y-36928508D01*
X57285541Y-36764170D01*
X57374480Y-36549452D01*
X57374480Y-36523132D01*
X59802697Y-36523132D01*
X59875406Y-36699101D01*
X59998302Y-36822211D01*
X59998302Y-38528350D01*
X60014242Y-38613064D01*
X60064308Y-38690868D01*
X60140700Y-38743065D01*
X60231380Y-38761428D01*
X60498302Y-38761428D01*
X60498302Y-38778350D01*
X60514242Y-38863064D01*
X60564308Y-38940868D01*
X60640700Y-38993065D01*
X60731380Y-39011428D01*
X61531380Y-39011428D01*
X61616094Y-38995488D01*
X61665752Y-38963533D01*
X61726119Y-39109272D01*
X61890457Y-39273611D01*
X62105175Y-39362550D01*
X62155330Y-39362550D01*
X62301380Y-39216500D01*
X62301380Y-37806150D01*
X62461380Y-37806150D01*
X62461380Y-39216500D01*
X62607430Y-39362550D01*
X62657585Y-39362550D01*
X62872303Y-39273611D01*
X63036641Y-39109272D01*
X63125580Y-38894554D01*
X63125580Y-37952200D01*
X62979530Y-37806150D01*
X62461380Y-37806150D01*
X62301380Y-37806150D01*
X62221380Y-37806150D01*
X62221380Y-37450550D01*
X62301380Y-37450550D01*
X62301380Y-36040200D01*
X62461380Y-36040200D01*
X62461380Y-37450550D01*
X62979530Y-37450550D01*
X63125580Y-37304500D01*
X63125580Y-36410427D01*
X65959382Y-36410427D01*
X66032091Y-36586396D01*
X66166606Y-36721145D01*
X66205014Y-36737093D01*
X66415211Y-38434515D01*
X66441441Y-38516628D01*
X66500689Y-38587690D01*
X66582916Y-38630102D01*
X66675166Y-38637182D01*
X66940065Y-38604379D01*
X66942145Y-38621173D01*
X66968375Y-38703286D01*
X67027623Y-38774348D01*
X67109850Y-38816760D01*
X67202100Y-38823840D01*
X67996036Y-38725525D01*
X68078149Y-38699295D01*
X68123504Y-38661480D01*
X68201323Y-38798695D01*
X68384612Y-38941592D01*
X68608632Y-39003469D01*
X68658407Y-38997306D01*
X68785401Y-38834414D01*
X68612077Y-37434755D01*
X68532684Y-37444587D01*
X68529032Y-37415092D01*
X68770864Y-37415092D01*
X68944188Y-38814751D01*
X69107080Y-38941745D01*
X69156855Y-38935581D01*
X69359015Y-38820929D01*
X69501911Y-38637639D01*
X69563788Y-38413619D01*
X69535226Y-38182971D01*
X69447978Y-37478408D01*
X69285087Y-37351414D01*
X68770864Y-37415092D01*
X68529032Y-37415092D01*
X68488982Y-37091682D01*
X68568376Y-37081850D01*
X68395052Y-35682191D01*
X68369831Y-35662528D01*
X68553839Y-35662528D01*
X68727163Y-37062187D01*
X69241385Y-36998509D01*
X69368379Y-36835618D01*
X69281131Y-36131054D01*
X69252569Y-35900407D01*
X69137917Y-35698247D01*
X68954628Y-35555350D01*
X68730608Y-35493473D01*
X68680833Y-35499636D01*
X68553839Y-35662528D01*
X68369831Y-35662528D01*
X68232160Y-35555197D01*
X68182385Y-35561361D01*
X67980225Y-35676013D01*
X67837329Y-35859303D01*
X67795258Y-36011618D01*
X67748340Y-35987418D01*
X67656090Y-35980338D01*
X66862154Y-36078653D01*
X66858474Y-36079829D01*
X66844039Y-36044894D01*
X66709524Y-35910145D01*
X66533682Y-35837129D01*
X66343283Y-35836962D01*
X66167314Y-35909671D01*
X66032565Y-36044186D01*
X65959549Y-36220028D01*
X65959382Y-36410427D01*
X63125580Y-36410427D01*
X63125580Y-36362146D01*
X63036641Y-36147428D01*
X62872303Y-35983089D01*
X62657585Y-35894150D01*
X62607430Y-35894150D01*
X62461380Y-36040200D01*
X62301380Y-36040200D01*
X62155330Y-35894150D01*
X62105175Y-35894150D01*
X61890457Y-35983089D01*
X61726119Y-36147428D01*
X61665648Y-36293418D01*
X61622060Y-36263635D01*
X61531380Y-36245272D01*
X60731380Y-36245272D01*
X60724142Y-36246634D01*
X60687354Y-36157599D01*
X60552839Y-36022850D01*
X60376997Y-35949834D01*
X60186598Y-35949667D01*
X60010629Y-36022376D01*
X59875880Y-36156891D01*
X59802864Y-36332733D01*
X59802697Y-36523132D01*
X57374480Y-36523132D01*
X57374480Y-36499297D01*
X57228430Y-36353247D01*
X55818080Y-36353247D01*
X55462480Y-36353247D01*
X54052130Y-36353247D01*
X53906080Y-36499297D01*
X51608600Y-36499297D01*
X51608600Y-35997042D01*
X53906080Y-35997042D01*
X53906080Y-36047197D01*
X54052130Y-36193247D01*
X55462480Y-36193247D01*
X55462480Y-36113247D01*
X55818080Y-36113247D01*
X55818080Y-36193247D01*
X57228430Y-36193247D01*
X57374480Y-36047197D01*
X57374480Y-35997042D01*
X57285541Y-35782324D01*
X57121202Y-35617986D01*
X56975212Y-35557515D01*
X57004995Y-35513927D01*
X57023358Y-35423247D01*
X57023358Y-34623247D01*
X57021996Y-34616009D01*
X57111031Y-34579221D01*
X57245780Y-34444706D01*
X57318796Y-34268864D01*
X57318963Y-34078465D01*
X57246254Y-33902496D01*
X57111739Y-33767747D01*
X56935897Y-33694731D01*
X56745498Y-33694564D01*
X56569529Y-33767273D01*
X56446419Y-33890169D01*
X54740280Y-33890169D01*
X54655566Y-33906109D01*
X54577762Y-33956175D01*
X54525565Y-34032567D01*
X54507202Y-34123247D01*
X54507202Y-34390169D01*
X54490280Y-34390169D01*
X54405566Y-34406109D01*
X54327762Y-34456175D01*
X54275565Y-34532567D01*
X54257202Y-34623247D01*
X54257202Y-35423247D01*
X54273142Y-35507961D01*
X54305097Y-35557619D01*
X54159358Y-35617986D01*
X53995019Y-35782324D01*
X53906080Y-35997042D01*
X51608600Y-35997042D01*
X51608600Y-30277990D01*
X53906080Y-30277990D01*
X53906080Y-30328145D01*
X53995019Y-30542863D01*
X54159358Y-30707201D01*
X54374076Y-30796140D01*
X55316430Y-30796140D01*
X55462480Y-30650090D01*
X55462480Y-30131940D01*
X55818080Y-30131940D01*
X55818080Y-30650090D01*
X55964130Y-30796140D01*
X56906484Y-30796140D01*
X57121202Y-30707201D01*
X57285541Y-30542863D01*
X57374480Y-30328145D01*
X57374480Y-30277990D01*
X57228430Y-30131940D01*
X55818080Y-30131940D01*
X55462480Y-30131940D01*
X54052130Y-30131940D01*
X53906080Y-30277990D01*
X51608600Y-30277990D01*
X51608600Y-29775735D01*
X53906080Y-29775735D01*
X53906080Y-29825890D01*
X54052130Y-29971940D01*
X55462480Y-29971940D01*
X55462480Y-29891940D01*
X55818080Y-29891940D01*
X55818080Y-29971940D01*
X57228430Y-29971940D01*
X57374480Y-29825890D01*
X57374480Y-29775735D01*
X57285541Y-29561017D01*
X57121202Y-29396679D01*
X56975212Y-29336208D01*
X57004995Y-29292620D01*
X57023358Y-29201940D01*
X57023358Y-28401940D01*
X57021996Y-28394702D01*
X57111031Y-28357914D01*
X57245780Y-28223399D01*
X57318796Y-28047557D01*
X57318963Y-27857158D01*
X57246254Y-27681189D01*
X57111739Y-27546440D01*
X56935897Y-27473424D01*
X56745498Y-27473257D01*
X56569529Y-27545966D01*
X56446419Y-27668862D01*
X54740280Y-27668862D01*
X54655566Y-27684802D01*
X54577762Y-27734868D01*
X54525565Y-27811260D01*
X54507202Y-27901940D01*
X54507202Y-28168862D01*
X54490280Y-28168862D01*
X54405566Y-28184802D01*
X54327762Y-28234868D01*
X54275565Y-28311260D01*
X54257202Y-28401940D01*
X54257202Y-29201940D01*
X54273142Y-29286654D01*
X54305097Y-29336312D01*
X54159358Y-29396679D01*
X53995019Y-29561017D01*
X53906080Y-29775735D01*
X51608600Y-29775735D01*
X51608600Y-26140000D01*
X59341400Y-26140000D01*
X59341400Y-34150000D01*
X59362607Y-34256616D01*
X59423000Y-34347000D01*
X59513384Y-34407393D01*
X59620000Y-34428600D01*
X65560000Y-34428600D01*
X65574106Y-34425794D01*
X65588425Y-34427146D01*
X66368425Y-34347146D01*
X66397707Y-34338135D01*
X66428101Y-34334303D01*
X67118101Y-34104303D01*
X67149825Y-34086219D01*
X67183629Y-34072413D01*
X67346151Y-33964983D01*
X70297780Y-33964983D01*
X70370489Y-34140952D01*
X70505004Y-34275701D01*
X70680846Y-34348717D01*
X70871245Y-34348884D01*
X71047214Y-34276175D01*
X71058138Y-34265270D01*
X72672866Y-34815606D01*
X72758193Y-34827847D01*
X72847989Y-34805557D01*
X72922039Y-34750088D01*
X72968674Y-34670180D01*
X73054783Y-34417530D01*
X73070800Y-34422989D01*
X73156127Y-34435230D01*
X73245923Y-34412940D01*
X73319972Y-34357471D01*
X73366607Y-34277563D01*
X73624688Y-33520335D01*
X73636930Y-33435008D01*
X73622704Y-33377696D01*
X73780124Y-33367572D01*
X73988692Y-33265036D01*
X74142144Y-33090490D01*
X74158324Y-33043016D01*
X74067199Y-32857659D01*
X72732253Y-32402679D01*
X72706445Y-32478402D01*
X72369857Y-32363686D01*
X72395665Y-32287962D01*
X72287903Y-32251234D01*
X72783869Y-32251234D01*
X74118815Y-32706213D01*
X74304172Y-32615088D01*
X74320352Y-32567614D01*
X74305436Y-32335684D01*
X74202899Y-32127117D01*
X74028353Y-31973665D01*
X73808370Y-31898689D01*
X73136382Y-31669661D01*
X72951024Y-31760786D01*
X72783869Y-32251234D01*
X72287903Y-32251234D01*
X71060719Y-31832983D01*
X70875362Y-31924108D01*
X70859182Y-31971582D01*
X70874098Y-32203512D01*
X70976635Y-32412079D01*
X71095311Y-32516413D01*
X71053060Y-32548063D01*
X71006425Y-32627971D01*
X70748344Y-33385199D01*
X70747429Y-33391576D01*
X70681681Y-33391518D01*
X70505712Y-33464227D01*
X70370963Y-33598742D01*
X70297947Y-33774584D01*
X70297780Y-33964983D01*
X67346151Y-33964983D01*
X67773629Y-33682414D01*
X67800246Y-33656061D01*
X67829904Y-33633189D01*
X68309904Y-33083189D01*
X68326885Y-33053613D01*
X68348041Y-33026861D01*
X69018041Y-31716861D01*
X69029701Y-31675759D01*
X69044809Y-31635802D01*
X69068079Y-31496180D01*
X71021210Y-31496180D01*
X71112335Y-31681537D01*
X72447281Y-32136517D01*
X72614437Y-31646070D01*
X72523311Y-31460712D01*
X71851323Y-31231684D01*
X71633790Y-31157543D01*
X75417965Y-31157543D01*
X75497181Y-31314343D01*
X75826025Y-31269661D01*
X76112737Y-31102535D01*
X76215718Y-30993876D01*
X76151988Y-30830169D01*
X75621289Y-30626844D01*
X75417965Y-31157543D01*
X71633790Y-31157543D01*
X71631340Y-31156708D01*
X71399410Y-31171624D01*
X71190842Y-31274160D01*
X71037390Y-31448706D01*
X71021210Y-31496180D01*
X69068079Y-31496180D01*
X69248560Y-30413294D01*
X74700338Y-30413294D01*
X74745020Y-30742138D01*
X74912146Y-31028850D01*
X75020805Y-31131831D01*
X75184512Y-31068101D01*
X75387837Y-30537402D01*
X75011955Y-30393392D01*
X75710731Y-30393392D01*
X76241430Y-30596716D01*
X76398230Y-30517500D01*
X76353548Y-30188656D01*
X76186422Y-29901944D01*
X76077763Y-29798963D01*
X75914056Y-29862693D01*
X75710731Y-30393392D01*
X75011955Y-30393392D01*
X74857138Y-30334078D01*
X74700338Y-30413294D01*
X69248560Y-30413294D01*
X69284809Y-30195802D01*
X69283500Y-30153846D01*
X69285987Y-30111933D01*
X69261847Y-29936918D01*
X74882850Y-29936918D01*
X74946580Y-30100625D01*
X75477279Y-30303950D01*
X75680603Y-29773251D01*
X75601387Y-29616451D01*
X75272543Y-29661133D01*
X74985831Y-29828259D01*
X74882850Y-29936918D01*
X69261847Y-29936918D01*
X69085987Y-28661933D01*
X69071567Y-28620297D01*
X69060323Y-28577705D01*
X68420323Y-27267705D01*
X68398140Y-27238572D01*
X68379904Y-27206811D01*
X68223679Y-27027803D01*
X70395032Y-27027803D01*
X70411649Y-27075126D01*
X70566702Y-27248252D01*
X70776205Y-27348863D01*
X70933984Y-27357552D01*
X70920325Y-27408545D01*
X70933041Y-27500188D01*
X71198083Y-28255008D01*
X71201359Y-28260680D01*
X71114407Y-28347481D01*
X71041391Y-28523323D01*
X71041224Y-28713722D01*
X71113933Y-28889691D01*
X71248448Y-29024440D01*
X71424290Y-29097456D01*
X71614689Y-29097623D01*
X71790658Y-29024914D01*
X71925407Y-28890399D01*
X71980737Y-28757149D01*
X73595093Y-28190296D01*
X73669742Y-28147190D01*
X73726566Y-28074175D01*
X73750505Y-27984805D01*
X73737789Y-27893162D01*
X73649357Y-27641314D01*
X73665323Y-27635708D01*
X73739972Y-27592602D01*
X73796796Y-27519587D01*
X73820735Y-27430217D01*
X73808019Y-27338574D01*
X73542977Y-26583754D01*
X73499871Y-26509105D01*
X73453270Y-26472838D01*
X73570778Y-26367597D01*
X73671390Y-26158094D01*
X73684170Y-25926037D01*
X73667553Y-25878714D01*
X73481365Y-25789299D01*
X72150665Y-26256551D01*
X72177169Y-26332034D01*
X71841652Y-26449844D01*
X71815148Y-26374363D01*
X70484448Y-26841615D01*
X70395032Y-27027803D01*
X68223679Y-27027803D01*
X67899904Y-26656811D01*
X67869407Y-26633293D01*
X67841834Y-26606410D01*
X67761070Y-26553913D01*
X70228634Y-26553913D01*
X70245251Y-26601236D01*
X70431439Y-26690651D01*
X71762139Y-26223399D01*
X71590475Y-25734511D01*
X71404286Y-25645096D01*
X70734436Y-25880303D01*
X70515152Y-25957300D01*
X70342026Y-26112353D01*
X70241414Y-26321856D01*
X70228634Y-26553913D01*
X67761070Y-26553913D01*
X67241834Y-26216410D01*
X67209444Y-26203472D01*
X67179215Y-26186071D01*
X66469215Y-25946071D01*
X66437587Y-25941948D01*
X66407052Y-25932716D01*
X65587052Y-25852716D01*
X65574364Y-25853978D01*
X65561876Y-25851406D01*
X62591876Y-25831406D01*
X62589532Y-25831856D01*
X62587186Y-25831414D01*
X59617186Y-25861414D01*
X59565332Y-25872274D01*
X59513384Y-25882607D01*
X59512192Y-25883403D01*
X59510790Y-25883697D01*
X59467052Y-25913565D01*
X59423000Y-25943000D01*
X59422204Y-25944192D01*
X59421020Y-25945000D01*
X59392024Y-25989358D01*
X59362607Y-26033384D01*
X59362328Y-26034789D01*
X59361543Y-26035989D01*
X59351729Y-26088071D01*
X59341400Y-26140000D01*
X51608600Y-26140000D01*
X51608600Y-25616700D01*
X71925992Y-25616700D01*
X72097656Y-26105587D01*
X73428356Y-25638335D01*
X73517772Y-25452147D01*
X73501155Y-25404824D01*
X73346102Y-25231698D01*
X73136599Y-25131087D01*
X72904542Y-25118308D01*
X72685258Y-25195305D01*
X72015407Y-25430512D01*
X71925992Y-25616700D01*
X51608600Y-25616700D01*
X51608600Y-24056693D01*
X53906080Y-24056693D01*
X53906080Y-24106848D01*
X53995019Y-24321566D01*
X54159358Y-24485904D01*
X54374076Y-24574843D01*
X55316430Y-24574843D01*
X55462480Y-24428793D01*
X55462480Y-23910643D01*
X55818080Y-23910643D01*
X55818080Y-24428793D01*
X55964130Y-24574843D01*
X56906484Y-24574843D01*
X57121202Y-24485904D01*
X57285541Y-24321566D01*
X57374480Y-24106848D01*
X57374480Y-24056693D01*
X57228430Y-23910643D01*
X55818080Y-23910643D01*
X55462480Y-23910643D01*
X54052130Y-23910643D01*
X53906080Y-24056693D01*
X51608600Y-24056693D01*
X51608600Y-23554438D01*
X53906080Y-23554438D01*
X53906080Y-23604593D01*
X54052130Y-23750643D01*
X55462480Y-23750643D01*
X55462480Y-23670643D01*
X55818080Y-23670643D01*
X55818080Y-23750643D01*
X57228430Y-23750643D01*
X57374480Y-23604593D01*
X57374480Y-23554438D01*
X57285541Y-23339720D01*
X57121202Y-23175382D01*
X56975212Y-23114911D01*
X57004995Y-23071323D01*
X57022435Y-22985200D01*
X59974825Y-22985200D01*
X59974825Y-23927554D01*
X60063764Y-24142272D01*
X60228102Y-24306611D01*
X60442820Y-24395550D01*
X60492975Y-24395550D01*
X60639025Y-24249500D01*
X60639025Y-22839150D01*
X60120875Y-22839150D01*
X59974825Y-22985200D01*
X57022435Y-22985200D01*
X57023358Y-22980643D01*
X57023358Y-22180643D01*
X57021996Y-22173405D01*
X57111031Y-22136617D01*
X57245780Y-22002102D01*
X57318796Y-21826260D01*
X57318963Y-21635861D01*
X57246254Y-21459892D01*
X57181621Y-21395146D01*
X59974825Y-21395146D01*
X59974825Y-22337500D01*
X60120875Y-22483550D01*
X60639025Y-22483550D01*
X60639025Y-21073200D01*
X60799025Y-21073200D01*
X60799025Y-22483550D01*
X60879025Y-22483550D01*
X60879025Y-22839150D01*
X60799025Y-22839150D01*
X60799025Y-24249500D01*
X60945075Y-24395550D01*
X60995230Y-24395550D01*
X61209948Y-24306611D01*
X61374286Y-24142272D01*
X61434757Y-23996282D01*
X61478345Y-24026065D01*
X61569025Y-24044428D01*
X62369025Y-24044428D01*
X62376263Y-24043066D01*
X62413051Y-24132101D01*
X62547566Y-24266850D01*
X62723408Y-24339866D01*
X62913807Y-24340033D01*
X63089776Y-24267324D01*
X63224525Y-24132809D01*
X63297541Y-23956967D01*
X63297708Y-23766568D01*
X63256065Y-23665783D01*
X65844035Y-23665783D01*
X65924958Y-23883649D01*
X66083094Y-24053963D01*
X66128689Y-24074860D01*
X66142831Y-24069607D01*
X66467760Y-24069607D01*
X66539678Y-24263228D01*
X66585272Y-24284125D01*
X66817522Y-24292735D01*
X67035388Y-24211812D01*
X67151187Y-24104292D01*
X67178403Y-24149528D01*
X67253186Y-24204003D01*
X67980439Y-24537323D01*
X67987215Y-24539008D01*
X67987115Y-24653167D01*
X68059824Y-24829136D01*
X68194339Y-24963885D01*
X68370181Y-25036901D01*
X68560580Y-25037068D01*
X68736549Y-24964359D01*
X68871298Y-24829844D01*
X68944314Y-24654002D01*
X68944481Y-24463603D01*
X68885765Y-24321499D01*
X69598101Y-22767289D01*
X69618906Y-22683637D01*
X69605810Y-22592047D01*
X69558112Y-22512769D01*
X69483329Y-22458293D01*
X69240680Y-22347080D01*
X69247730Y-22331698D01*
X69268535Y-22248046D01*
X69255439Y-22156456D01*
X69207741Y-22077178D01*
X69132958Y-22022703D01*
X68405705Y-21689383D01*
X68322053Y-21668577D01*
X68263596Y-21676935D01*
X68269441Y-21519297D01*
X68188518Y-21301431D01*
X68030382Y-21131117D01*
X67984787Y-21110220D01*
X67791166Y-21182137D01*
X67203544Y-22464240D01*
X67276269Y-22497572D01*
X67128108Y-22820836D01*
X67055383Y-22787504D01*
X66467760Y-24069607D01*
X66142831Y-24069607D01*
X66322310Y-24002943D01*
X66909932Y-22720840D01*
X66438899Y-22504953D01*
X66245278Y-22576870D01*
X65949480Y-23222258D01*
X65852646Y-23433533D01*
X65844035Y-23665783D01*
X63256065Y-23665783D01*
X63224999Y-23590599D01*
X63102103Y-23467489D01*
X63102103Y-21988068D01*
X66515143Y-21988068D01*
X66587060Y-22181689D01*
X67058093Y-22397576D01*
X67645716Y-21115473D01*
X67573798Y-20921852D01*
X67528204Y-20900955D01*
X67295954Y-20892345D01*
X67078088Y-20973268D01*
X66907775Y-21131405D01*
X66810941Y-21342680D01*
X66515143Y-21988068D01*
X63102103Y-21988068D01*
X63102103Y-21761350D01*
X63086163Y-21676636D01*
X63036097Y-21598832D01*
X62959705Y-21546635D01*
X62869025Y-21528272D01*
X62602103Y-21528272D01*
X62602103Y-21511350D01*
X62586163Y-21426636D01*
X62536097Y-21348832D01*
X62459705Y-21296635D01*
X62369025Y-21278272D01*
X61569025Y-21278272D01*
X61484311Y-21294212D01*
X61434653Y-21326167D01*
X61374286Y-21180428D01*
X61209948Y-21016089D01*
X60995230Y-20927150D01*
X60945075Y-20927150D01*
X60799025Y-21073200D01*
X60639025Y-21073200D01*
X60492975Y-20927150D01*
X60442820Y-20927150D01*
X60228102Y-21016089D01*
X60063764Y-21180428D01*
X59974825Y-21395146D01*
X57181621Y-21395146D01*
X57111739Y-21325143D01*
X56935897Y-21252127D01*
X56745498Y-21251960D01*
X56569529Y-21324669D01*
X56446419Y-21447565D01*
X54740280Y-21447565D01*
X54655566Y-21463505D01*
X54577762Y-21513571D01*
X54525565Y-21589963D01*
X54507202Y-21680643D01*
X54507202Y-21947565D01*
X54490280Y-21947565D01*
X54405566Y-21963505D01*
X54327762Y-22013571D01*
X54275565Y-22089963D01*
X54257202Y-22180643D01*
X54257202Y-22980643D01*
X54273142Y-23065357D01*
X54305097Y-23115015D01*
X54159358Y-23175382D01*
X53995019Y-23339720D01*
X53906080Y-23554438D01*
X51608600Y-23554438D01*
X51608600Y-18998600D01*
X65546433Y-18998600D01*
X68479714Y-19285014D01*
X68479714Y-19285014D01*
G37*
X68479714Y-19285014D02*
X69769088Y-19634018D01*
X70940037Y-20127558D01*
X72992729Y-21437371D01*
X74598822Y-23092134D01*
X75786894Y-25020316D01*
X76538383Y-27177189D01*
X76880595Y-29445566D01*
X76792609Y-31733220D01*
X76284267Y-33952328D01*
X75366690Y-36051040D01*
X74023298Y-37910373D01*
X72228022Y-39459045D01*
X72207876Y-39484861D01*
X72183919Y-39507194D01*
X72174746Y-39527314D01*
X72161145Y-39544743D01*
X72152411Y-39576306D01*
X72138826Y-39606104D01*
X72138051Y-39628199D01*
X72132154Y-39649510D01*
X72136164Y-39682014D01*
X72135016Y-39714742D01*
X72142756Y-39735453D01*
X72145463Y-39757396D01*
X72161605Y-39785889D01*
X72173070Y-39816568D01*
X75563070Y-45296568D01*
X75585073Y-45320170D01*
X75603000Y-45347000D01*
X75621787Y-45359553D01*
X75637194Y-45376080D01*
X75666553Y-45389465D01*
X75693384Y-45407393D01*
X75715545Y-45411801D01*
X75736104Y-45421174D01*
X75768352Y-45422305D01*
X75800000Y-45428600D01*
X83181400Y-45428600D01*
X83181400Y-45466082D01*
X83147030Y-45459122D01*
X79147030Y-45459122D01*
X79062316Y-45475062D01*
X78984512Y-45525128D01*
X78932315Y-45601520D01*
X78913952Y-45692200D01*
X78913952Y-46692200D01*
X78929892Y-46776914D01*
X78979958Y-46854718D01*
X79056350Y-46906915D01*
X79147030Y-46925278D01*
X83147030Y-46925278D01*
X83181400Y-46918811D01*
X83181400Y-47108000D01*
X81470880Y-47108000D01*
X81324830Y-47254050D01*
X81324830Y-48014400D01*
X81344830Y-48014400D01*
X81344830Y-48370000D01*
X81324830Y-48370000D01*
X81324830Y-49130350D01*
X81470880Y-49276400D01*
X83181400Y-49276400D01*
X83181400Y-49466082D01*
X83147030Y-49459122D01*
X79147030Y-49459122D01*
X79062316Y-49475062D01*
X78984512Y-49525128D01*
X78932315Y-49601520D01*
X78913952Y-49692200D01*
X78913952Y-50692200D01*
X78929892Y-50776914D01*
X78979958Y-50854718D01*
X79004373Y-50871400D01*
X78760000Y-50871400D01*
X78709726Y-50881400D01*
X69650176Y-50881400D01*
X67836299Y-47765835D01*
X70873338Y-47765835D01*
X70899527Y-47808610D01*
X71087496Y-47945290D01*
X71313463Y-47999632D01*
X71469546Y-47974974D01*
X71466906Y-48027698D01*
X71498595Y-48114623D01*
X71916327Y-48796899D01*
X71917449Y-48798139D01*
X71901938Y-48813623D01*
X71828922Y-48989465D01*
X71828755Y-49179864D01*
X71901464Y-49355833D01*
X72035979Y-49490582D01*
X72211821Y-49563598D01*
X72402220Y-49563765D01*
X72578189Y-49491056D01*
X72712938Y-49356541D01*
X72785954Y-49180699D01*
X72786004Y-49123996D01*
X74246225Y-48229957D01*
X74310149Y-48172129D01*
X74350362Y-48088803D01*
X74354988Y-47996398D01*
X74323299Y-47909473D01*
X74183921Y-47681829D01*
X74198353Y-47672993D01*
X74262278Y-47615164D01*
X74281180Y-47575995D01*
X78562830Y-47575995D01*
X78562830Y-47868350D01*
X78708880Y-48014400D01*
X79279110Y-48014400D01*
X79247618Y-48130533D01*
X79278412Y-48370000D01*
X78708880Y-48370000D01*
X78562830Y-48516050D01*
X78562830Y-48808405D01*
X78651769Y-49023123D01*
X78816108Y-49187461D01*
X79030826Y-49276400D01*
X80823180Y-49276400D01*
X80969230Y-49130350D01*
X80969230Y-48538598D01*
X81046442Y-48253867D01*
X81001577Y-47904983D01*
X80969230Y-47826890D01*
X80969230Y-47254050D01*
X80823180Y-47108000D01*
X79030826Y-47108000D01*
X78816108Y-47196939D01*
X78651769Y-47361277D01*
X78562830Y-47575995D01*
X74281180Y-47575995D01*
X74302490Y-47531839D01*
X74307116Y-47439434D01*
X74275427Y-47352509D01*
X73857695Y-46670233D01*
X73799866Y-46606308D01*
X73746685Y-46580643D01*
X73839456Y-46453061D01*
X73893800Y-46227094D01*
X73857532Y-45997532D01*
X73831343Y-45954758D01*
X73630523Y-45906462D01*
X72427714Y-46642898D01*
X72469487Y-46711125D01*
X72166215Y-46896807D01*
X72124442Y-46828579D01*
X70921633Y-47565015D01*
X70873338Y-47765835D01*
X67836299Y-47765835D01*
X67453266Y-47107928D01*
X70574810Y-47107928D01*
X70611078Y-47337490D01*
X70637267Y-47380264D01*
X70838087Y-47428560D01*
X72040896Y-46692124D01*
X71770336Y-46250223D01*
X71569516Y-46201927D01*
X70964043Y-46572636D01*
X70765835Y-46693992D01*
X70629154Y-46881961D01*
X70574810Y-47107928D01*
X67453266Y-47107928D01*
X66845808Y-46064541D01*
X72073608Y-46064541D01*
X72344168Y-46506443D01*
X73546977Y-45770007D01*
X73595272Y-45569187D01*
X73569083Y-45526412D01*
X73381114Y-45389732D01*
X73155147Y-45335390D01*
X72925585Y-45371657D01*
X72727376Y-45493013D01*
X72121903Y-45863721D01*
X72073608Y-46064541D01*
X66845808Y-46064541D01*
X64729461Y-42429450D01*
X67606068Y-42429450D01*
X67632257Y-42472225D01*
X67820226Y-42608905D01*
X68046193Y-42663247D01*
X68202276Y-42638589D01*
X68199636Y-42691313D01*
X68231325Y-42778238D01*
X68649057Y-43460514D01*
X68650179Y-43461754D01*
X68634668Y-43477238D01*
X68561652Y-43653080D01*
X68561485Y-43843479D01*
X68634194Y-44019448D01*
X68768709Y-44154197D01*
X68944551Y-44227213D01*
X69134950Y-44227380D01*
X69310919Y-44154671D01*
X69445668Y-44020156D01*
X69518684Y-43844314D01*
X69518734Y-43787611D01*
X70978955Y-42893572D01*
X71042879Y-42835744D01*
X71083092Y-42752418D01*
X71087718Y-42660013D01*
X71056029Y-42573088D01*
X70916651Y-42345444D01*
X70931083Y-42336608D01*
X70995008Y-42278779D01*
X71035220Y-42195454D01*
X71039846Y-42103049D01*
X71008157Y-42016124D01*
X70590425Y-41333848D01*
X70532596Y-41269923D01*
X70479415Y-41244258D01*
X70572186Y-41116676D01*
X70626530Y-40890709D01*
X70590262Y-40661147D01*
X70564073Y-40618373D01*
X70363253Y-40570077D01*
X69160444Y-41306513D01*
X69202217Y-41374740D01*
X68898945Y-41560422D01*
X68857172Y-41492194D01*
X67654363Y-42228630D01*
X67606068Y-42429450D01*
X64729461Y-42429450D01*
X64346428Y-41771543D01*
X67307540Y-41771543D01*
X67343808Y-42001105D01*
X67369997Y-42043879D01*
X67570817Y-42092175D01*
X68773626Y-41355739D01*
X68503066Y-40913838D01*
X68302246Y-40865542D01*
X67696773Y-41236251D01*
X67498565Y-41357607D01*
X67361884Y-41545576D01*
X67307540Y-41771543D01*
X64346428Y-41771543D01*
X64170768Y-41469825D01*
X64146968Y-41442884D01*
X64127000Y-41413000D01*
X64111301Y-41402510D01*
X64098798Y-41388357D01*
X64066501Y-41372575D01*
X64036616Y-41352607D01*
X64018096Y-41348923D01*
X64001130Y-41340633D01*
X63965253Y-41338412D01*
X63930000Y-41331400D01*
X59630000Y-41331400D01*
X59523384Y-41352607D01*
X59433000Y-41413000D01*
X59372607Y-41503384D01*
X59351400Y-41610000D01*
X59351400Y-50881400D01*
X51380274Y-50881400D01*
X51330000Y-50871400D01*
X51164511Y-50871400D01*
X51183358Y-50859272D01*
X51235555Y-50782880D01*
X51253918Y-50692200D01*
X51253918Y-49692200D01*
X51237978Y-49607486D01*
X51187912Y-49529682D01*
X51111520Y-49477485D01*
X51020840Y-49459122D01*
X47020840Y-49459122D01*
X46936126Y-49475062D01*
X46908600Y-49492775D01*
X46908600Y-49276400D01*
X48696990Y-49276400D01*
X48843040Y-49130350D01*
X48843040Y-48370000D01*
X48823040Y-48370000D01*
X48823040Y-48130533D01*
X49121428Y-48130533D01*
X49166293Y-48479417D01*
X49198640Y-48557510D01*
X49198640Y-49130350D01*
X49344690Y-49276400D01*
X51137044Y-49276400D01*
X51351762Y-49187461D01*
X51516101Y-49023123D01*
X51605040Y-48808405D01*
X51605040Y-48773894D01*
X53908374Y-48773894D01*
X53908374Y-48824049D01*
X53997313Y-49038767D01*
X54161652Y-49203105D01*
X54376370Y-49292044D01*
X55318724Y-49292044D01*
X55464774Y-49145994D01*
X55464774Y-48627844D01*
X55820374Y-48627844D01*
X55820374Y-49145994D01*
X55966424Y-49292044D01*
X56908778Y-49292044D01*
X57123496Y-49203105D01*
X57287835Y-49038767D01*
X57376774Y-48824049D01*
X57376774Y-48773894D01*
X57230724Y-48627844D01*
X55820374Y-48627844D01*
X55464774Y-48627844D01*
X54054424Y-48627844D01*
X53908374Y-48773894D01*
X51605040Y-48773894D01*
X51605040Y-48516050D01*
X51458990Y-48370000D01*
X50888760Y-48370000D01*
X50915432Y-48271639D01*
X53908374Y-48271639D01*
X53908374Y-48321794D01*
X54054424Y-48467844D01*
X55464774Y-48467844D01*
X55464774Y-48387844D01*
X55820374Y-48387844D01*
X55820374Y-48467844D01*
X57230724Y-48467844D01*
X57376774Y-48321794D01*
X57376774Y-48271639D01*
X57287835Y-48056921D01*
X57123496Y-47892583D01*
X56977506Y-47832112D01*
X57007289Y-47788524D01*
X57025652Y-47697844D01*
X57025652Y-46897844D01*
X57024290Y-46890606D01*
X57113325Y-46853818D01*
X57248074Y-46719303D01*
X57321090Y-46543461D01*
X57321257Y-46353062D01*
X57248548Y-46177093D01*
X57114033Y-46042344D01*
X56938191Y-45969328D01*
X56747792Y-45969161D01*
X56571823Y-46041870D01*
X56448713Y-46164766D01*
X54742574Y-46164766D01*
X54657860Y-46180706D01*
X54580056Y-46230772D01*
X54527859Y-46307164D01*
X54509496Y-46397844D01*
X54509496Y-46664766D01*
X54492574Y-46664766D01*
X54407860Y-46680706D01*
X54330056Y-46730772D01*
X54277859Y-46807164D01*
X54259496Y-46897844D01*
X54259496Y-47697844D01*
X54275436Y-47782558D01*
X54307391Y-47832216D01*
X54161652Y-47892583D01*
X53997313Y-48056921D01*
X53908374Y-48271639D01*
X50915432Y-48271639D01*
X50920252Y-48253867D01*
X50889458Y-48014400D01*
X51458990Y-48014400D01*
X51605040Y-47868350D01*
X51605040Y-47575995D01*
X51516101Y-47361277D01*
X51351762Y-47196939D01*
X51137044Y-47108000D01*
X49344690Y-47108000D01*
X49198640Y-47254050D01*
X49198640Y-47845802D01*
X49121428Y-48130533D01*
X48823040Y-48130533D01*
X48823040Y-48014400D01*
X48843040Y-48014400D01*
X48843040Y-47254050D01*
X48696990Y-47108000D01*
X46908600Y-47108000D01*
X46908600Y-46892184D01*
X46930160Y-46906915D01*
X47020840Y-46925278D01*
X51020840Y-46925278D01*
X51105554Y-46909338D01*
X51183358Y-46859272D01*
X51235555Y-46782880D01*
X51253918Y-46692200D01*
X51253918Y-45692200D01*
X51237978Y-45607486D01*
X51187912Y-45529682D01*
X51111520Y-45477485D01*
X51020840Y-45459122D01*
X47020840Y-45459122D01*
X46936126Y-45475062D01*
X46908600Y-45492775D01*
X46908600Y-45428600D01*
X51330000Y-45428600D01*
X51436616Y-45407393D01*
X51527000Y-45347000D01*
X51587393Y-45256616D01*
X51608600Y-45150000D01*
X51608600Y-42220015D01*
X53908374Y-42220015D01*
X53908374Y-42270170D01*
X53997313Y-42484888D01*
X54161652Y-42649226D01*
X54376370Y-42738165D01*
X55318724Y-42738165D01*
X55464774Y-42592115D01*
X55464774Y-42073965D01*
X55820374Y-42073965D01*
X55820374Y-42592115D01*
X55966424Y-42738165D01*
X56908778Y-42738165D01*
X57123496Y-42649226D01*
X57287835Y-42484888D01*
X57376774Y-42270170D01*
X57376774Y-42220015D01*
X57230724Y-42073965D01*
X55820374Y-42073965D01*
X55464774Y-42073965D01*
X54054424Y-42073965D01*
X53908374Y-42220015D01*
X51608600Y-42220015D01*
X51608600Y-41717760D01*
X53908374Y-41717760D01*
X53908374Y-41767915D01*
X54054424Y-41913965D01*
X55464774Y-41913965D01*
X55464774Y-41833965D01*
X55820374Y-41833965D01*
X55820374Y-41913965D01*
X57230724Y-41913965D01*
X57376774Y-41767915D01*
X57376774Y-41717760D01*
X57287835Y-41503042D01*
X57123496Y-41338704D01*
X56977506Y-41278233D01*
X57007289Y-41234645D01*
X57025652Y-41143965D01*
X57025652Y-40728156D01*
X68806338Y-40728156D01*
X69076898Y-41170058D01*
X70279707Y-40433622D01*
X70328002Y-40232802D01*
X70301813Y-40190027D01*
X70113844Y-40053347D01*
X69887877Y-39999005D01*
X69658315Y-40035272D01*
X69460106Y-40156628D01*
X68854633Y-40527336D01*
X68806338Y-40728156D01*
X57025652Y-40728156D01*
X57025652Y-40343965D01*
X57024290Y-40336727D01*
X57113325Y-40299939D01*
X57248074Y-40165424D01*
X57321090Y-39989582D01*
X57321257Y-39799183D01*
X57248548Y-39623214D01*
X57114033Y-39488465D01*
X56938191Y-39415449D01*
X56747792Y-39415282D01*
X56571823Y-39487991D01*
X56448713Y-39610887D01*
X54742574Y-39610887D01*
X54657860Y-39626827D01*
X54580056Y-39676893D01*
X54527859Y-39753285D01*
X54509496Y-39843965D01*
X54509496Y-40110887D01*
X54492574Y-40110887D01*
X54407860Y-40126827D01*
X54330056Y-40176893D01*
X54277859Y-40253285D01*
X54259496Y-40343965D01*
X54259496Y-41143965D01*
X54275436Y-41228679D01*
X54307391Y-41278337D01*
X54161652Y-41338704D01*
X53997313Y-41503042D01*
X53908374Y-41717760D01*
X51608600Y-41717760D01*
X51608600Y-36499297D01*
X53906080Y-36499297D01*
X53906080Y-36549452D01*
X53995019Y-36764170D01*
X54159358Y-36928508D01*
X54374076Y-37017447D01*
X55316430Y-37017447D01*
X55462480Y-36871397D01*
X55462480Y-36353247D01*
X55818080Y-36353247D01*
X55818080Y-36871397D01*
X55964130Y-37017447D01*
X56906484Y-37017447D01*
X57121202Y-36928508D01*
X57285541Y-36764170D01*
X57374480Y-36549452D01*
X57374480Y-36523132D01*
X59802697Y-36523132D01*
X59875406Y-36699101D01*
X59998302Y-36822211D01*
X59998302Y-38528350D01*
X60014242Y-38613064D01*
X60064308Y-38690868D01*
X60140700Y-38743065D01*
X60231380Y-38761428D01*
X60498302Y-38761428D01*
X60498302Y-38778350D01*
X60514242Y-38863064D01*
X60564308Y-38940868D01*
X60640700Y-38993065D01*
X60731380Y-39011428D01*
X61531380Y-39011428D01*
X61616094Y-38995488D01*
X61665752Y-38963533D01*
X61726119Y-39109272D01*
X61890457Y-39273611D01*
X62105175Y-39362550D01*
X62155330Y-39362550D01*
X62301380Y-39216500D01*
X62301380Y-37806150D01*
X62461380Y-37806150D01*
X62461380Y-39216500D01*
X62607430Y-39362550D01*
X62657585Y-39362550D01*
X62872303Y-39273611D01*
X63036641Y-39109272D01*
X63125580Y-38894554D01*
X63125580Y-37952200D01*
X62979530Y-37806150D01*
X62461380Y-37806150D01*
X62301380Y-37806150D01*
X62221380Y-37806150D01*
X62221380Y-37450550D01*
X62301380Y-37450550D01*
X62301380Y-36040200D01*
X62461380Y-36040200D01*
X62461380Y-37450550D01*
X62979530Y-37450550D01*
X63125580Y-37304500D01*
X63125580Y-36410427D01*
X65959382Y-36410427D01*
X66032091Y-36586396D01*
X66166606Y-36721145D01*
X66205014Y-36737093D01*
X66415211Y-38434515D01*
X66441441Y-38516628D01*
X66500689Y-38587690D01*
X66582916Y-38630102D01*
X66675166Y-38637182D01*
X66940065Y-38604379D01*
X66942145Y-38621173D01*
X66968375Y-38703286D01*
X67027623Y-38774348D01*
X67109850Y-38816760D01*
X67202100Y-38823840D01*
X67996036Y-38725525D01*
X68078149Y-38699295D01*
X68123504Y-38661480D01*
X68201323Y-38798695D01*
X68384612Y-38941592D01*
X68608632Y-39003469D01*
X68658407Y-38997306D01*
X68785401Y-38834414D01*
X68612077Y-37434755D01*
X68532684Y-37444587D01*
X68529032Y-37415092D01*
X68770864Y-37415092D01*
X68944188Y-38814751D01*
X69107080Y-38941745D01*
X69156855Y-38935581D01*
X69359015Y-38820929D01*
X69501911Y-38637639D01*
X69563788Y-38413619D01*
X69535226Y-38182971D01*
X69447978Y-37478408D01*
X69285087Y-37351414D01*
X68770864Y-37415092D01*
X68529032Y-37415092D01*
X68488982Y-37091682D01*
X68568376Y-37081850D01*
X68395052Y-35682191D01*
X68369831Y-35662528D01*
X68553839Y-35662528D01*
X68727163Y-37062187D01*
X69241385Y-36998509D01*
X69368379Y-36835618D01*
X69281131Y-36131054D01*
X69252569Y-35900407D01*
X69137917Y-35698247D01*
X68954628Y-35555350D01*
X68730608Y-35493473D01*
X68680833Y-35499636D01*
X68553839Y-35662528D01*
X68369831Y-35662528D01*
X68232160Y-35555197D01*
X68182385Y-35561361D01*
X67980225Y-35676013D01*
X67837329Y-35859303D01*
X67795258Y-36011618D01*
X67748340Y-35987418D01*
X67656090Y-35980338D01*
X66862154Y-36078653D01*
X66858474Y-36079829D01*
X66844039Y-36044894D01*
X66709524Y-35910145D01*
X66533682Y-35837129D01*
X66343283Y-35836962D01*
X66167314Y-35909671D01*
X66032565Y-36044186D01*
X65959549Y-36220028D01*
X65959382Y-36410427D01*
X63125580Y-36410427D01*
X63125580Y-36362146D01*
X63036641Y-36147428D01*
X62872303Y-35983089D01*
X62657585Y-35894150D01*
X62607430Y-35894150D01*
X62461380Y-36040200D01*
X62301380Y-36040200D01*
X62155330Y-35894150D01*
X62105175Y-35894150D01*
X61890457Y-35983089D01*
X61726119Y-36147428D01*
X61665648Y-36293418D01*
X61622060Y-36263635D01*
X61531380Y-36245272D01*
X60731380Y-36245272D01*
X60724142Y-36246634D01*
X60687354Y-36157599D01*
X60552839Y-36022850D01*
X60376997Y-35949834D01*
X60186598Y-35949667D01*
X60010629Y-36022376D01*
X59875880Y-36156891D01*
X59802864Y-36332733D01*
X59802697Y-36523132D01*
X57374480Y-36523132D01*
X57374480Y-36499297D01*
X57228430Y-36353247D01*
X55818080Y-36353247D01*
X55462480Y-36353247D01*
X54052130Y-36353247D01*
X53906080Y-36499297D01*
X51608600Y-36499297D01*
X51608600Y-35997042D01*
X53906080Y-35997042D01*
X53906080Y-36047197D01*
X54052130Y-36193247D01*
X55462480Y-36193247D01*
X55462480Y-36113247D01*
X55818080Y-36113247D01*
X55818080Y-36193247D01*
X57228430Y-36193247D01*
X57374480Y-36047197D01*
X57374480Y-35997042D01*
X57285541Y-35782324D01*
X57121202Y-35617986D01*
X56975212Y-35557515D01*
X57004995Y-35513927D01*
X57023358Y-35423247D01*
X57023358Y-34623247D01*
X57021996Y-34616009D01*
X57111031Y-34579221D01*
X57245780Y-34444706D01*
X57318796Y-34268864D01*
X57318963Y-34078465D01*
X57246254Y-33902496D01*
X57111739Y-33767747D01*
X56935897Y-33694731D01*
X56745498Y-33694564D01*
X56569529Y-33767273D01*
X56446419Y-33890169D01*
X54740280Y-33890169D01*
X54655566Y-33906109D01*
X54577762Y-33956175D01*
X54525565Y-34032567D01*
X54507202Y-34123247D01*
X54507202Y-34390169D01*
X54490280Y-34390169D01*
X54405566Y-34406109D01*
X54327762Y-34456175D01*
X54275565Y-34532567D01*
X54257202Y-34623247D01*
X54257202Y-35423247D01*
X54273142Y-35507961D01*
X54305097Y-35557619D01*
X54159358Y-35617986D01*
X53995019Y-35782324D01*
X53906080Y-35997042D01*
X51608600Y-35997042D01*
X51608600Y-30277990D01*
X53906080Y-30277990D01*
X53906080Y-30328145D01*
X53995019Y-30542863D01*
X54159358Y-30707201D01*
X54374076Y-30796140D01*
X55316430Y-30796140D01*
X55462480Y-30650090D01*
X55462480Y-30131940D01*
X55818080Y-30131940D01*
X55818080Y-30650090D01*
X55964130Y-30796140D01*
X56906484Y-30796140D01*
X57121202Y-30707201D01*
X57285541Y-30542863D01*
X57374480Y-30328145D01*
X57374480Y-30277990D01*
X57228430Y-30131940D01*
X55818080Y-30131940D01*
X55462480Y-30131940D01*
X54052130Y-30131940D01*
X53906080Y-30277990D01*
X51608600Y-30277990D01*
X51608600Y-29775735D01*
X53906080Y-29775735D01*
X53906080Y-29825890D01*
X54052130Y-29971940D01*
X55462480Y-29971940D01*
X55462480Y-29891940D01*
X55818080Y-29891940D01*
X55818080Y-29971940D01*
X57228430Y-29971940D01*
X57374480Y-29825890D01*
X57374480Y-29775735D01*
X57285541Y-29561017D01*
X57121202Y-29396679D01*
X56975212Y-29336208D01*
X57004995Y-29292620D01*
X57023358Y-29201940D01*
X57023358Y-28401940D01*
X57021996Y-28394702D01*
X57111031Y-28357914D01*
X57245780Y-28223399D01*
X57318796Y-28047557D01*
X57318963Y-27857158D01*
X57246254Y-27681189D01*
X57111739Y-27546440D01*
X56935897Y-27473424D01*
X56745498Y-27473257D01*
X56569529Y-27545966D01*
X56446419Y-27668862D01*
X54740280Y-27668862D01*
X54655566Y-27684802D01*
X54577762Y-27734868D01*
X54525565Y-27811260D01*
X54507202Y-27901940D01*
X54507202Y-28168862D01*
X54490280Y-28168862D01*
X54405566Y-28184802D01*
X54327762Y-28234868D01*
X54275565Y-28311260D01*
X54257202Y-28401940D01*
X54257202Y-29201940D01*
X54273142Y-29286654D01*
X54305097Y-29336312D01*
X54159358Y-29396679D01*
X53995019Y-29561017D01*
X53906080Y-29775735D01*
X51608600Y-29775735D01*
X51608600Y-26140000D01*
X59341400Y-26140000D01*
X59341400Y-34150000D01*
X59362607Y-34256616D01*
X59423000Y-34347000D01*
X59513384Y-34407393D01*
X59620000Y-34428600D01*
X65560000Y-34428600D01*
X65574106Y-34425794D01*
X65588425Y-34427146D01*
X66368425Y-34347146D01*
X66397707Y-34338135D01*
X66428101Y-34334303D01*
X67118101Y-34104303D01*
X67149825Y-34086219D01*
X67183629Y-34072413D01*
X67346151Y-33964983D01*
X70297780Y-33964983D01*
X70370489Y-34140952D01*
X70505004Y-34275701D01*
X70680846Y-34348717D01*
X70871245Y-34348884D01*
X71047214Y-34276175D01*
X71058138Y-34265270D01*
X72672866Y-34815606D01*
X72758193Y-34827847D01*
X72847989Y-34805557D01*
X72922039Y-34750088D01*
X72968674Y-34670180D01*
X73054783Y-34417530D01*
X73070800Y-34422989D01*
X73156127Y-34435230D01*
X73245923Y-34412940D01*
X73319972Y-34357471D01*
X73366607Y-34277563D01*
X73624688Y-33520335D01*
X73636930Y-33435008D01*
X73622704Y-33377696D01*
X73780124Y-33367572D01*
X73988692Y-33265036D01*
X74142144Y-33090490D01*
X74158324Y-33043016D01*
X74067199Y-32857659D01*
X72732253Y-32402679D01*
X72706445Y-32478402D01*
X72369857Y-32363686D01*
X72395665Y-32287962D01*
X72287903Y-32251234D01*
X72783869Y-32251234D01*
X74118815Y-32706213D01*
X74304172Y-32615088D01*
X74320352Y-32567614D01*
X74305436Y-32335684D01*
X74202899Y-32127117D01*
X74028353Y-31973665D01*
X73808370Y-31898689D01*
X73136382Y-31669661D01*
X72951024Y-31760786D01*
X72783869Y-32251234D01*
X72287903Y-32251234D01*
X71060719Y-31832983D01*
X70875362Y-31924108D01*
X70859182Y-31971582D01*
X70874098Y-32203512D01*
X70976635Y-32412079D01*
X71095311Y-32516413D01*
X71053060Y-32548063D01*
X71006425Y-32627971D01*
X70748344Y-33385199D01*
X70747429Y-33391576D01*
X70681681Y-33391518D01*
X70505712Y-33464227D01*
X70370963Y-33598742D01*
X70297947Y-33774584D01*
X70297780Y-33964983D01*
X67346151Y-33964983D01*
X67773629Y-33682414D01*
X67800246Y-33656061D01*
X67829904Y-33633189D01*
X68309904Y-33083189D01*
X68326885Y-33053613D01*
X68348041Y-33026861D01*
X69018041Y-31716861D01*
X69029701Y-31675759D01*
X69044809Y-31635802D01*
X69068079Y-31496180D01*
X71021210Y-31496180D01*
X71112335Y-31681537D01*
X72447281Y-32136517D01*
X72614437Y-31646070D01*
X72523311Y-31460712D01*
X71851323Y-31231684D01*
X71633790Y-31157543D01*
X75417965Y-31157543D01*
X75497181Y-31314343D01*
X75826025Y-31269661D01*
X76112737Y-31102535D01*
X76215718Y-30993876D01*
X76151988Y-30830169D01*
X75621289Y-30626844D01*
X75417965Y-31157543D01*
X71633790Y-31157543D01*
X71631340Y-31156708D01*
X71399410Y-31171624D01*
X71190842Y-31274160D01*
X71037390Y-31448706D01*
X71021210Y-31496180D01*
X69068079Y-31496180D01*
X69248560Y-30413294D01*
X74700338Y-30413294D01*
X74745020Y-30742138D01*
X74912146Y-31028850D01*
X75020805Y-31131831D01*
X75184512Y-31068101D01*
X75387837Y-30537402D01*
X75011955Y-30393392D01*
X75710731Y-30393392D01*
X76241430Y-30596716D01*
X76398230Y-30517500D01*
X76353548Y-30188656D01*
X76186422Y-29901944D01*
X76077763Y-29798963D01*
X75914056Y-29862693D01*
X75710731Y-30393392D01*
X75011955Y-30393392D01*
X74857138Y-30334078D01*
X74700338Y-30413294D01*
X69248560Y-30413294D01*
X69284809Y-30195802D01*
X69283500Y-30153846D01*
X69285987Y-30111933D01*
X69261847Y-29936918D01*
X74882850Y-29936918D01*
X74946580Y-30100625D01*
X75477279Y-30303950D01*
X75680603Y-29773251D01*
X75601387Y-29616451D01*
X75272543Y-29661133D01*
X74985831Y-29828259D01*
X74882850Y-29936918D01*
X69261847Y-29936918D01*
X69085987Y-28661933D01*
X69071567Y-28620297D01*
X69060323Y-28577705D01*
X68420323Y-27267705D01*
X68398140Y-27238572D01*
X68379904Y-27206811D01*
X68223679Y-27027803D01*
X70395032Y-27027803D01*
X70411649Y-27075126D01*
X70566702Y-27248252D01*
X70776205Y-27348863D01*
X70933984Y-27357552D01*
X70920325Y-27408545D01*
X70933041Y-27500188D01*
X71198083Y-28255008D01*
X71201359Y-28260680D01*
X71114407Y-28347481D01*
X71041391Y-28523323D01*
X71041224Y-28713722D01*
X71113933Y-28889691D01*
X71248448Y-29024440D01*
X71424290Y-29097456D01*
X71614689Y-29097623D01*
X71790658Y-29024914D01*
X71925407Y-28890399D01*
X71980737Y-28757149D01*
X73595093Y-28190296D01*
X73669742Y-28147190D01*
X73726566Y-28074175D01*
X73750505Y-27984805D01*
X73737789Y-27893162D01*
X73649357Y-27641314D01*
X73665323Y-27635708D01*
X73739972Y-27592602D01*
X73796796Y-27519587D01*
X73820735Y-27430217D01*
X73808019Y-27338574D01*
X73542977Y-26583754D01*
X73499871Y-26509105D01*
X73453270Y-26472838D01*
X73570778Y-26367597D01*
X73671390Y-26158094D01*
X73684170Y-25926037D01*
X73667553Y-25878714D01*
X73481365Y-25789299D01*
X72150665Y-26256551D01*
X72177169Y-26332034D01*
X71841652Y-26449844D01*
X71815148Y-26374363D01*
X70484448Y-26841615D01*
X70395032Y-27027803D01*
X68223679Y-27027803D01*
X67899904Y-26656811D01*
X67869407Y-26633293D01*
X67841834Y-26606410D01*
X67761070Y-26553913D01*
X70228634Y-26553913D01*
X70245251Y-26601236D01*
X70431439Y-26690651D01*
X71762139Y-26223399D01*
X71590475Y-25734511D01*
X71404286Y-25645096D01*
X70734436Y-25880303D01*
X70515152Y-25957300D01*
X70342026Y-26112353D01*
X70241414Y-26321856D01*
X70228634Y-26553913D01*
X67761070Y-26553913D01*
X67241834Y-26216410D01*
X67209444Y-26203472D01*
X67179215Y-26186071D01*
X66469215Y-25946071D01*
X66437587Y-25941948D01*
X66407052Y-25932716D01*
X65587052Y-25852716D01*
X65574364Y-25853978D01*
X65561876Y-25851406D01*
X62591876Y-25831406D01*
X62589532Y-25831856D01*
X62587186Y-25831414D01*
X59617186Y-25861414D01*
X59565332Y-25872274D01*
X59513384Y-25882607D01*
X59512192Y-25883403D01*
X59510790Y-25883697D01*
X59467052Y-25913565D01*
X59423000Y-25943000D01*
X59422204Y-25944192D01*
X59421020Y-25945000D01*
X59392024Y-25989358D01*
X59362607Y-26033384D01*
X59362328Y-26034789D01*
X59361543Y-26035989D01*
X59351729Y-26088071D01*
X59341400Y-26140000D01*
X51608600Y-26140000D01*
X51608600Y-25616700D01*
X71925992Y-25616700D01*
X72097656Y-26105587D01*
X73428356Y-25638335D01*
X73517772Y-25452147D01*
X73501155Y-25404824D01*
X73346102Y-25231698D01*
X73136599Y-25131087D01*
X72904542Y-25118308D01*
X72685258Y-25195305D01*
X72015407Y-25430512D01*
X71925992Y-25616700D01*
X51608600Y-25616700D01*
X51608600Y-24056693D01*
X53906080Y-24056693D01*
X53906080Y-24106848D01*
X53995019Y-24321566D01*
X54159358Y-24485904D01*
X54374076Y-24574843D01*
X55316430Y-24574843D01*
X55462480Y-24428793D01*
X55462480Y-23910643D01*
X55818080Y-23910643D01*
X55818080Y-24428793D01*
X55964130Y-24574843D01*
X56906484Y-24574843D01*
X57121202Y-24485904D01*
X57285541Y-24321566D01*
X57374480Y-24106848D01*
X57374480Y-24056693D01*
X57228430Y-23910643D01*
X55818080Y-23910643D01*
X55462480Y-23910643D01*
X54052130Y-23910643D01*
X53906080Y-24056693D01*
X51608600Y-24056693D01*
X51608600Y-23554438D01*
X53906080Y-23554438D01*
X53906080Y-23604593D01*
X54052130Y-23750643D01*
X55462480Y-23750643D01*
X55462480Y-23670643D01*
X55818080Y-23670643D01*
X55818080Y-23750643D01*
X57228430Y-23750643D01*
X57374480Y-23604593D01*
X57374480Y-23554438D01*
X57285541Y-23339720D01*
X57121202Y-23175382D01*
X56975212Y-23114911D01*
X57004995Y-23071323D01*
X57022435Y-22985200D01*
X59974825Y-22985200D01*
X59974825Y-23927554D01*
X60063764Y-24142272D01*
X60228102Y-24306611D01*
X60442820Y-24395550D01*
X60492975Y-24395550D01*
X60639025Y-24249500D01*
X60639025Y-22839150D01*
X60120875Y-22839150D01*
X59974825Y-22985200D01*
X57022435Y-22985200D01*
X57023358Y-22980643D01*
X57023358Y-22180643D01*
X57021996Y-22173405D01*
X57111031Y-22136617D01*
X57245780Y-22002102D01*
X57318796Y-21826260D01*
X57318963Y-21635861D01*
X57246254Y-21459892D01*
X57181621Y-21395146D01*
X59974825Y-21395146D01*
X59974825Y-22337500D01*
X60120875Y-22483550D01*
X60639025Y-22483550D01*
X60639025Y-21073200D01*
X60799025Y-21073200D01*
X60799025Y-22483550D01*
X60879025Y-22483550D01*
X60879025Y-22839150D01*
X60799025Y-22839150D01*
X60799025Y-24249500D01*
X60945075Y-24395550D01*
X60995230Y-24395550D01*
X61209948Y-24306611D01*
X61374286Y-24142272D01*
X61434757Y-23996282D01*
X61478345Y-24026065D01*
X61569025Y-24044428D01*
X62369025Y-24044428D01*
X62376263Y-24043066D01*
X62413051Y-24132101D01*
X62547566Y-24266850D01*
X62723408Y-24339866D01*
X62913807Y-24340033D01*
X63089776Y-24267324D01*
X63224525Y-24132809D01*
X63297541Y-23956967D01*
X63297708Y-23766568D01*
X63256065Y-23665783D01*
X65844035Y-23665783D01*
X65924958Y-23883649D01*
X66083094Y-24053963D01*
X66128689Y-24074860D01*
X66142831Y-24069607D01*
X66467760Y-24069607D01*
X66539678Y-24263228D01*
X66585272Y-24284125D01*
X66817522Y-24292735D01*
X67035388Y-24211812D01*
X67151187Y-24104292D01*
X67178403Y-24149528D01*
X67253186Y-24204003D01*
X67980439Y-24537323D01*
X67987215Y-24539008D01*
X67987115Y-24653167D01*
X68059824Y-24829136D01*
X68194339Y-24963885D01*
X68370181Y-25036901D01*
X68560580Y-25037068D01*
X68736549Y-24964359D01*
X68871298Y-24829844D01*
X68944314Y-24654002D01*
X68944481Y-24463603D01*
X68885765Y-24321499D01*
X69598101Y-22767289D01*
X69618906Y-22683637D01*
X69605810Y-22592047D01*
X69558112Y-22512769D01*
X69483329Y-22458293D01*
X69240680Y-22347080D01*
X69247730Y-22331698D01*
X69268535Y-22248046D01*
X69255439Y-22156456D01*
X69207741Y-22077178D01*
X69132958Y-22022703D01*
X68405705Y-21689383D01*
X68322053Y-21668577D01*
X68263596Y-21676935D01*
X68269441Y-21519297D01*
X68188518Y-21301431D01*
X68030382Y-21131117D01*
X67984787Y-21110220D01*
X67791166Y-21182137D01*
X67203544Y-22464240D01*
X67276269Y-22497572D01*
X67128108Y-22820836D01*
X67055383Y-22787504D01*
X66467760Y-24069607D01*
X66142831Y-24069607D01*
X66322310Y-24002943D01*
X66909932Y-22720840D01*
X66438899Y-22504953D01*
X66245278Y-22576870D01*
X65949480Y-23222258D01*
X65852646Y-23433533D01*
X65844035Y-23665783D01*
X63256065Y-23665783D01*
X63224999Y-23590599D01*
X63102103Y-23467489D01*
X63102103Y-21988068D01*
X66515143Y-21988068D01*
X66587060Y-22181689D01*
X67058093Y-22397576D01*
X67645716Y-21115473D01*
X67573798Y-20921852D01*
X67528204Y-20900955D01*
X67295954Y-20892345D01*
X67078088Y-20973268D01*
X66907775Y-21131405D01*
X66810941Y-21342680D01*
X66515143Y-21988068D01*
X63102103Y-21988068D01*
X63102103Y-21761350D01*
X63086163Y-21676636D01*
X63036097Y-21598832D01*
X62959705Y-21546635D01*
X62869025Y-21528272D01*
X62602103Y-21528272D01*
X62602103Y-21511350D01*
X62586163Y-21426636D01*
X62536097Y-21348832D01*
X62459705Y-21296635D01*
X62369025Y-21278272D01*
X61569025Y-21278272D01*
X61484311Y-21294212D01*
X61434653Y-21326167D01*
X61374286Y-21180428D01*
X61209948Y-21016089D01*
X60995230Y-20927150D01*
X60945075Y-20927150D01*
X60799025Y-21073200D01*
X60639025Y-21073200D01*
X60492975Y-20927150D01*
X60442820Y-20927150D01*
X60228102Y-21016089D01*
X60063764Y-21180428D01*
X59974825Y-21395146D01*
X57181621Y-21395146D01*
X57111739Y-21325143D01*
X56935897Y-21252127D01*
X56745498Y-21251960D01*
X56569529Y-21324669D01*
X56446419Y-21447565D01*
X54740280Y-21447565D01*
X54655566Y-21463505D01*
X54577762Y-21513571D01*
X54525565Y-21589963D01*
X54507202Y-21680643D01*
X54507202Y-21947565D01*
X54490280Y-21947565D01*
X54405566Y-21963505D01*
X54327762Y-22013571D01*
X54275565Y-22089963D01*
X54257202Y-22180643D01*
X54257202Y-22980643D01*
X54273142Y-23065357D01*
X54305097Y-23115015D01*
X54159358Y-23175382D01*
X53995019Y-23339720D01*
X53906080Y-23554438D01*
X51608600Y-23554438D01*
X51608600Y-18998600D01*
X65546433Y-18998600D01*
X68479714Y-19285014D01*
G36*
X50266772Y-48158400D02*
X50232972Y-48192200D01*
X50266772Y-48226000D01*
X50122772Y-48370000D01*
X49918908Y-48370000D01*
X49774908Y-48226000D01*
X49808708Y-48192200D01*
X49774908Y-48158400D01*
X49918908Y-48014400D01*
X50122772Y-48014400D01*
X50266772Y-48158400D01*
X50266772Y-48158400D01*
G37*
X50266772Y-48158400D02*
X50232972Y-48192200D01*
X50266772Y-48226000D01*
X50122772Y-48370000D01*
X49918908Y-48370000D01*
X49774908Y-48226000D01*
X49808708Y-48192200D01*
X49774908Y-48158400D01*
X49918908Y-48014400D01*
X50122772Y-48014400D01*
X50266772Y-48158400D01*
G36*
X80392962Y-48158400D02*
X80359162Y-48192200D01*
X80392962Y-48226000D01*
X80248962Y-48370000D01*
X80045098Y-48370000D01*
X79901098Y-48226000D01*
X79934898Y-48192200D01*
X79901098Y-48158400D01*
X80045098Y-48014400D01*
X80248962Y-48014400D01*
X80392962Y-48158400D01*
X80392962Y-48158400D01*
G37*
X80392962Y-48158400D02*
X80359162Y-48192200D01*
X80392962Y-48226000D01*
X80248962Y-48370000D01*
X80045098Y-48370000D01*
X79901098Y-48226000D01*
X79934898Y-48192200D01*
X79901098Y-48158400D01*
X80045098Y-48014400D01*
X80248962Y-48014400D01*
X80392962Y-48158400D01*
M02*
