G04 #@! TF.FileFunction,Soldermask,Bot*
%FSLAX46Y46*%
G04 Gerber Fmt 4.6, Leading zero omitted, Abs format (unit mm)*
G04 Created by KiCad (PCBNEW 4.0.0-rc2-stable) date 3/3/2016 3:43:09 PM*
%MOMM*%
G01*
G04 APERTURE LIST*
%ADD10C,0.150000*%
%ADD11R,4.000000X1.000000*%
%ADD12C,0.600000*%
%ADD13C,0.500000*%
%ADD14R,0.760000X2.000000*%
%ADD15R,0.740000X2.000000*%
%ADD16R,0.900000X0.600000*%
%ADD17R,0.900000X0.200000*%
G04 APERTURE END LIST*
D10*
D11*
X81795990Y-50192207D03*
X81795990Y-48192207D03*
X81795990Y-46192207D03*
D12*
X80795990Y-50192207D03*
X80795990Y-48192207D03*
X80795990Y-46192207D03*
D11*
X49020844Y-46192207D03*
X49020844Y-48192207D03*
X49020844Y-50192207D03*
D12*
X50020844Y-46192207D03*
X50020844Y-48192207D03*
X50020844Y-50192207D03*
D10*
G36*
X76078253Y-29451298D02*
X73342980Y-30683485D01*
X72275085Y-28312916D01*
X75010358Y-27080729D01*
X76078253Y-29451298D01*
X76078253Y-29451298D01*
G37*
G36*
X56772006Y-38696775D02*
X54036734Y-39928962D01*
X52558110Y-36646635D01*
X55293382Y-35414448D01*
X56772006Y-38696775D01*
X56772006Y-38696775D01*
G37*
D13*
X52932719Y-38452089D03*
D14*
X74684950Y-49755987D03*
X75954950Y-49755987D03*
X77224950Y-49755987D03*
X78494950Y-49755987D03*
X74684950Y-46555987D03*
X75954950Y-46555987D03*
X77224950Y-46555987D03*
D15*
X78494950Y-46555987D03*
D16*
X73489950Y-45855987D03*
X73489950Y-47355987D03*
X72239950Y-47355987D03*
X72239950Y-45855987D03*
X70989950Y-45855987D03*
X70989950Y-47355987D03*
D17*
X74139950Y-47305987D03*
M02*
