G04 #@! TF.FileFunction,Copper,L2,Bot,Signal*
%FSLAX46Y46*%
G04 Gerber Fmt 4.6, Leading zero omitted, Abs format (unit mm)*
G04 Created by KiCad (PCBNEW 4.0.0-rc2-stable) date 3/3/2016 3:49:09 PM*
%MOMM*%
G01*
G04 APERTURE LIST*
%ADD10C,0.150000*%
%ADD11C,0.500000*%
%ADD12R,4.000000X1.000000*%
%ADD13C,0.600000*%
%ADD14C,0.254000*%
%ADD15C,0.152400*%
G04 APERTURE END LIST*
D10*
D11*
X64522048Y-38625520D03*
X60962358Y-44118085D03*
X74779001Y-44661622D03*
X71328731Y-39309221D03*
X73039090Y-21197440D03*
X69469410Y-26638906D03*
X67739247Y-33524516D03*
X64147507Y-28083287D03*
X60555772Y-22642059D03*
D12*
X83741430Y-50192207D03*
X83741430Y-48192207D03*
X83741430Y-46192207D03*
D13*
X82741430Y-50192207D03*
X82741430Y-48192207D03*
X82741430Y-46192207D03*
D12*
X49020836Y-46192207D03*
X49020836Y-48192207D03*
X49020836Y-50192207D03*
D13*
X50020836Y-46192207D03*
X50020836Y-48192207D03*
X50020836Y-50192207D03*
D10*
G36*
X70568773Y-44329355D02*
X68845768Y-41873494D01*
X70974181Y-40380223D01*
X72697186Y-42836084D01*
X70568773Y-44329355D01*
X70568773Y-44329355D01*
G37*
G36*
X57868695Y-27098045D02*
X56145690Y-24642184D01*
X59092723Y-22574579D01*
X60815728Y-25030440D01*
X57868695Y-27098045D01*
X57868695Y-27098045D01*
G37*
D11*
X57389473Y-23280933D03*
D10*
G36*
X75178252Y-50754686D02*
X75181333Y-48754689D01*
X75941332Y-48755860D01*
X75938251Y-50755857D01*
X75178252Y-50754686D01*
X75178252Y-50754686D01*
G37*
G36*
X76448251Y-50756643D02*
X76451332Y-48756646D01*
X77211331Y-48757817D01*
X77208250Y-50757814D01*
X76448251Y-50756643D01*
X76448251Y-50756643D01*
G37*
G36*
X77718249Y-50758599D02*
X77721330Y-48758602D01*
X78481329Y-48759773D01*
X78478248Y-50759770D01*
X77718249Y-50758599D01*
X77718249Y-50758599D01*
G37*
G36*
X78988248Y-50760556D02*
X78991329Y-48760559D01*
X79751328Y-48761730D01*
X79748247Y-50761727D01*
X78988248Y-50760556D01*
X78988248Y-50760556D01*
G37*
G36*
X75183182Y-47554690D02*
X75186263Y-45554693D01*
X75946262Y-45555864D01*
X75943181Y-47555861D01*
X75183182Y-47554690D01*
X75183182Y-47554690D01*
G37*
G36*
X76453181Y-47556647D02*
X76456262Y-45556650D01*
X77216261Y-45557821D01*
X77213180Y-47557818D01*
X76453181Y-47556647D01*
X76453181Y-47556647D01*
G37*
G36*
X77723179Y-47558603D02*
X77726260Y-45558606D01*
X78486259Y-45559777D01*
X78483178Y-47559774D01*
X77723179Y-47558603D01*
X77723179Y-47558603D01*
G37*
G36*
X79003178Y-47560576D02*
X79006259Y-45560578D01*
X79746258Y-45561718D01*
X79743177Y-47561716D01*
X79003178Y-47560576D01*
X79003178Y-47560576D01*
G37*
G36*
X73920340Y-46152742D02*
X73921265Y-45552743D01*
X74821264Y-45554130D01*
X74820339Y-46154129D01*
X73920340Y-46152742D01*
X73920340Y-46152742D01*
G37*
G36*
X73918029Y-47652741D02*
X73918954Y-47052742D01*
X74818953Y-47054129D01*
X74818028Y-47654128D01*
X73918029Y-47652741D01*
X73918029Y-47652741D01*
G37*
G36*
X72668031Y-47650815D02*
X72668956Y-47050816D01*
X73568955Y-47052203D01*
X73568030Y-47652202D01*
X72668031Y-47650815D01*
X72668031Y-47650815D01*
G37*
G36*
X72670342Y-46150817D02*
X72671267Y-45550818D01*
X73571266Y-45552205D01*
X73570341Y-46152204D01*
X72670342Y-46150817D01*
X72670342Y-46150817D01*
G37*
G36*
X71420343Y-46148891D02*
X71421268Y-45548892D01*
X72321267Y-45550279D01*
X72320342Y-46150278D01*
X71420343Y-46148891D01*
X71420343Y-46148891D01*
G37*
G36*
X71418032Y-47648889D02*
X71418957Y-47048890D01*
X72318956Y-47050277D01*
X72318031Y-47650276D01*
X71418032Y-47648889D01*
X71418032Y-47648889D01*
G37*
G36*
X74568414Y-47403743D02*
X74568723Y-47203743D01*
X75468722Y-47205129D01*
X75468413Y-47405129D01*
X74568414Y-47403743D01*
X74568414Y-47403743D01*
G37*
G36*
X73117414Y-48051508D02*
X73117722Y-47851508D01*
X76917718Y-47857362D01*
X76917410Y-48057362D01*
X73117414Y-48051508D01*
X73117414Y-48051508D01*
G37*
G36*
X71766723Y-48499428D02*
X71767031Y-48299428D01*
X78267023Y-48309442D01*
X78266715Y-48509442D01*
X71766723Y-48499428D01*
X71766723Y-48499428D01*
G37*
G36*
X73117568Y-47951508D02*
X73118184Y-47551508D01*
X73318184Y-47551816D01*
X73317568Y-47951816D01*
X73117568Y-47951508D01*
X73117568Y-47951508D01*
G37*
G36*
X76717564Y-47957055D02*
X76718180Y-47557055D01*
X76918180Y-47557363D01*
X76917564Y-47957363D01*
X76717564Y-47957055D01*
X76717564Y-47957055D01*
G37*
G36*
X78066946Y-48359134D02*
X78068178Y-47559135D01*
X78268178Y-47559444D01*
X78266946Y-48359443D01*
X78066946Y-48359134D01*
X78066946Y-48359134D01*
G37*
G36*
X71766954Y-48349427D02*
X71768186Y-47549428D01*
X71968186Y-47549737D01*
X71966954Y-48349736D01*
X71766954Y-48349427D01*
X71766954Y-48349427D01*
G37*
G36*
X72170651Y-45950047D02*
X72170959Y-45750047D01*
X74170957Y-45753129D01*
X74170649Y-45953129D01*
X72170651Y-45950047D01*
X72170651Y-45950047D01*
G37*
D14*
X58480000Y-24840000D02*
X57390000Y-23280000D01*
X58480000Y-24840000D02*
X57390000Y-23280000D01*
X58480000Y-24840000D02*
X57390000Y-23280000D01*
X58480000Y-24840000D02*
X57390000Y-23280000D01*
X58480000Y-24840000D02*
X57390000Y-23280000D01*
X58480000Y-24840000D02*
X57390000Y-23280000D01*
X58480000Y-24840000D02*
X57390000Y-23280000D01*
X58480000Y-24840000D02*
X57390000Y-23280000D01*
X58480000Y-24840000D02*
X57390000Y-23280000D01*
X70770000Y-42350000D02*
X73170000Y-45850000D01*
X70770000Y-42350000D02*
X73170000Y-45850000D01*
X70770000Y-42350000D02*
X73170000Y-45850000D01*
X70770000Y-42350000D02*
X73170000Y-45850000D01*
X70770000Y-42350000D02*
X73170000Y-45850000D01*
X70770000Y-42350000D02*
X73170000Y-45850000D01*
X70770000Y-42350000D02*
X73170000Y-45850000D01*
X70770000Y-42350000D02*
X73170000Y-45850000D01*
X70770000Y-42350000D02*
X73170000Y-45850000D01*
D15*
G36*
X65962129Y-27295036D02*
X65984581Y-27319433D01*
X66003000Y-27347000D01*
X66021042Y-27359056D01*
X66035739Y-27375026D01*
X66065819Y-27388974D01*
X66093384Y-27407393D01*
X66114669Y-27411627D01*
X66134356Y-27420756D01*
X66167482Y-27422132D01*
X66200000Y-27428600D01*
X66440000Y-27428600D01*
X66472053Y-27422224D01*
X66504709Y-27420981D01*
X66524862Y-27411720D01*
X66546616Y-27407393D01*
X66573789Y-27389236D01*
X66603483Y-27375591D01*
X66618558Y-27359323D01*
X66637000Y-27347000D01*
X66655157Y-27319827D01*
X66677369Y-27295856D01*
X66826187Y-27053666D01*
X68726848Y-27053666D01*
X68942094Y-27306261D01*
X69237619Y-27457256D01*
X69384690Y-27485220D01*
X69488028Y-27343153D01*
X69372445Y-26786716D01*
X68816007Y-26902299D01*
X68726848Y-27053666D01*
X66826187Y-27053666D01*
X67021463Y-26735871D01*
X69617220Y-26735871D01*
X69732803Y-27292309D01*
X69884170Y-27381468D01*
X70136765Y-27166222D01*
X70287760Y-26870697D01*
X70315724Y-26723626D01*
X70173657Y-26620288D01*
X69617220Y-26735871D01*
X67021463Y-26735871D01*
X67133104Y-26554186D01*
X68623096Y-26554186D01*
X68765163Y-26657524D01*
X69321600Y-26541941D01*
X69206017Y-25985503D01*
X69119699Y-25934659D01*
X69450792Y-25934659D01*
X69566375Y-26491096D01*
X70122813Y-26375513D01*
X70211972Y-26224146D01*
X69996726Y-25971551D01*
X69701201Y-25820556D01*
X69554130Y-25792592D01*
X69450792Y-25934659D01*
X69119699Y-25934659D01*
X69054650Y-25896344D01*
X68802055Y-26111590D01*
X68651060Y-26407115D01*
X68623096Y-26554186D01*
X67133104Y-26554186D01*
X70169816Y-21612200D01*
X72296528Y-21612200D01*
X72511774Y-21864795D01*
X72807299Y-22015790D01*
X72954370Y-22043754D01*
X73057708Y-21901687D01*
X72942125Y-21345250D01*
X72385687Y-21460833D01*
X72296528Y-21612200D01*
X70169816Y-21612200D01*
X70365092Y-21294405D01*
X73186900Y-21294405D01*
X73302483Y-21850843D01*
X73453850Y-21940002D01*
X73706445Y-21724756D01*
X73857440Y-21429231D01*
X73885404Y-21282160D01*
X73743337Y-21178822D01*
X73186900Y-21294405D01*
X70365092Y-21294405D01*
X70476733Y-21112720D01*
X72192776Y-21112720D01*
X72334843Y-21216058D01*
X72891280Y-21100475D01*
X72775697Y-20544037D01*
X72689379Y-20493193D01*
X73020472Y-20493193D01*
X73136055Y-21049630D01*
X73692493Y-20934047D01*
X73781652Y-20782680D01*
X73566406Y-20530085D01*
X73270881Y-20379090D01*
X73123810Y-20351126D01*
X73020472Y-20493193D01*
X72689379Y-20493193D01*
X72624330Y-20454878D01*
X72371735Y-20670124D01*
X72220740Y-20965649D01*
X72192776Y-21112720D01*
X70476733Y-21112720D01*
X71775801Y-18998600D01*
X79921400Y-18998600D01*
X79921400Y-19895397D01*
X70608446Y-33815079D01*
X70587907Y-33864580D01*
X70567062Y-33914118D01*
X70567058Y-33914828D01*
X70566786Y-33915484D01*
X70566753Y-33969204D01*
X70566453Y-34022821D01*
X70566720Y-34023477D01*
X70566720Y-34024188D01*
X70587248Y-34073831D01*
X70607489Y-34123482D01*
X77987489Y-45303482D01*
X78007327Y-45323544D01*
X78008943Y-45325963D01*
X77726619Y-45325528D01*
X77641881Y-45341338D01*
X77563999Y-45391284D01*
X77511685Y-45467595D01*
X77493182Y-45558247D01*
X77490101Y-47558244D01*
X77505911Y-47642982D01*
X77555857Y-47720864D01*
X77632168Y-47773178D01*
X77722820Y-47791681D01*
X77834741Y-47791853D01*
X77834304Y-48075697D01*
X77147035Y-48074638D01*
X77150488Y-48057721D01*
X77150796Y-47857721D01*
X77150899Y-47790801D01*
X77212821Y-47790896D01*
X77297559Y-47775086D01*
X77375441Y-47725140D01*
X77427755Y-47648829D01*
X77446258Y-47558177D01*
X77449339Y-45558180D01*
X77433529Y-45473442D01*
X77383583Y-45395560D01*
X77307272Y-45343246D01*
X77216620Y-45324743D01*
X76456621Y-45323572D01*
X76371883Y-45339382D01*
X76294001Y-45389328D01*
X76241687Y-45465639D01*
X76223184Y-45556291D01*
X76220103Y-47556288D01*
X76232592Y-47623228D01*
X76162604Y-47623120D01*
X76176259Y-47556220D01*
X76179340Y-45556223D01*
X76163530Y-45471485D01*
X76113584Y-45393603D01*
X76037273Y-45341289D01*
X75946621Y-45322786D01*
X75289344Y-45321773D01*
X75433008Y-45205404D01*
X75518218Y-45082315D01*
X75430274Y-44930238D01*
X74874780Y-44810203D01*
X74764411Y-45320964D01*
X74497144Y-45320552D01*
X74510385Y-45312895D01*
X74630420Y-44757401D01*
X74074925Y-44637366D01*
X73932036Y-44739563D01*
X74026333Y-45057749D01*
X74235219Y-45315629D01*
X74241762Y-45320158D01*
X73921624Y-45319665D01*
X73836886Y-45335475D01*
X73759004Y-45385421D01*
X73746957Y-45402994D01*
X73738588Y-45389944D01*
X73662277Y-45337630D01*
X73571625Y-45319127D01*
X73236791Y-45318611D01*
X72720608Y-44565843D01*
X74927582Y-44565843D01*
X75483077Y-44685878D01*
X75625966Y-44583681D01*
X75531669Y-44265495D01*
X75322783Y-44007615D01*
X75199694Y-43922405D01*
X75047617Y-44010349D01*
X74927582Y-44565843D01*
X72720608Y-44565843D01*
X72497810Y-44240929D01*
X74039784Y-44240929D01*
X74127728Y-44393006D01*
X74683222Y-44513041D01*
X74803257Y-43957546D01*
X74701060Y-43814657D01*
X74382874Y-43908954D01*
X74124994Y-44117840D01*
X74039784Y-44240929D01*
X72497810Y-44240929D01*
X72043976Y-43579089D01*
X72831051Y-43026886D01*
X72891244Y-42965183D01*
X72926182Y-42879513D01*
X72925037Y-42786999D01*
X72887988Y-42702219D01*
X71164983Y-40246358D01*
X71103280Y-40186165D01*
X71017610Y-40151227D01*
X70925096Y-40152372D01*
X70840316Y-40189421D01*
X68711903Y-41682692D01*
X68651710Y-41744395D01*
X68616772Y-41830065D01*
X68617917Y-41922579D01*
X68654966Y-42007359D01*
X70377971Y-44463220D01*
X70439674Y-44523413D01*
X70525344Y-44558351D01*
X70617858Y-44557206D01*
X70702638Y-44520157D01*
X71461739Y-43987580D01*
X72381918Y-45329507D01*
X72321626Y-45317201D01*
X71421627Y-45315814D01*
X71336889Y-45331624D01*
X71259007Y-45381570D01*
X71206693Y-45457881D01*
X71188190Y-45548533D01*
X71187265Y-46148532D01*
X71203075Y-46233270D01*
X71253021Y-46311152D01*
X71329332Y-46363466D01*
X71419984Y-46381969D01*
X72319983Y-46383356D01*
X72404721Y-46367546D01*
X72482603Y-46317600D01*
X72494650Y-46300027D01*
X72503020Y-46313078D01*
X72579331Y-46365392D01*
X72669983Y-46383895D01*
X73569982Y-46385282D01*
X73654720Y-46369472D01*
X73732602Y-46319526D01*
X73744649Y-46301953D01*
X73753018Y-46315003D01*
X73829329Y-46367317D01*
X73919981Y-46385820D01*
X74819980Y-46387207D01*
X74904718Y-46371397D01*
X74951973Y-46341092D01*
X74951162Y-46867796D01*
X74909964Y-46839554D01*
X74819312Y-46821051D01*
X73919313Y-46819664D01*
X73834575Y-46835474D01*
X73756693Y-46885420D01*
X73744646Y-46902993D01*
X73736277Y-46889942D01*
X73659966Y-46837628D01*
X73569314Y-46819125D01*
X72669315Y-46817738D01*
X72584577Y-46833548D01*
X72506695Y-46883494D01*
X72494648Y-46901067D01*
X72486278Y-46888016D01*
X72409967Y-46835702D01*
X72319315Y-46817199D01*
X71419316Y-46815812D01*
X71334578Y-46831622D01*
X71256696Y-46881568D01*
X71204382Y-46957879D01*
X71185879Y-47048531D01*
X71184954Y-47648530D01*
X71200764Y-47733268D01*
X71250710Y-47811150D01*
X71327021Y-47863464D01*
X71417673Y-47881967D01*
X71534595Y-47882147D01*
X71533953Y-48299069D01*
X71533645Y-48499069D01*
X71549455Y-48583807D01*
X71599401Y-48661689D01*
X71675712Y-48714003D01*
X71766364Y-48732506D01*
X74597160Y-48736867D01*
X74596955Y-48869993D01*
X74596092Y-49429938D01*
X74741917Y-49576213D01*
X75382266Y-49577199D01*
X75382297Y-49557199D01*
X75737897Y-49557747D01*
X75737866Y-49577747D01*
X76011915Y-49578169D01*
X76011916Y-49578170D01*
X76652265Y-49579156D01*
X76652296Y-49559156D01*
X77007896Y-49559704D01*
X77007865Y-49579704D01*
X77648214Y-49580691D01*
X77648215Y-49580690D01*
X77922263Y-49581112D01*
X77922294Y-49561112D01*
X78277894Y-49561660D01*
X78277863Y-49581660D01*
X78551912Y-49582082D01*
X78551913Y-49582083D01*
X79192262Y-49583069D01*
X79194204Y-48322721D01*
X79048379Y-48176446D01*
X78876024Y-48176180D01*
X78737141Y-48233457D01*
X78598434Y-48175752D01*
X78500308Y-48175601D01*
X78500902Y-47789478D01*
X78567557Y-47777042D01*
X78645439Y-47727096D01*
X78697753Y-47650785D01*
X78716256Y-47560133D01*
X78719337Y-45560136D01*
X78703527Y-45475398D01*
X78673515Y-45428600D01*
X78819768Y-45428600D01*
X78791684Y-45469567D01*
X78773181Y-45560219D01*
X78770100Y-47560217D01*
X78785910Y-47644955D01*
X78835856Y-47722837D01*
X78912167Y-47775151D01*
X79002819Y-47793654D01*
X79742818Y-47794794D01*
X79827556Y-47778984D01*
X79905438Y-47729038D01*
X79957752Y-47652727D01*
X79976255Y-47562075D01*
X79979336Y-45562077D01*
X79963526Y-45477339D01*
X79932270Y-45428600D01*
X81218286Y-45428600D01*
X81157230Y-45576002D01*
X81157230Y-45868357D01*
X81303280Y-46014407D01*
X81873510Y-46014407D01*
X81842018Y-46130540D01*
X81872812Y-46370007D01*
X81303280Y-46370007D01*
X81157230Y-46516057D01*
X81157230Y-46808412D01*
X81246169Y-47023130D01*
X81410508Y-47187468D01*
X81625226Y-47276407D01*
X83417580Y-47276407D01*
X83563630Y-47130357D01*
X83563630Y-46538605D01*
X83640842Y-46253874D01*
X83607476Y-45994407D01*
X83919230Y-45994407D01*
X83919230Y-46014407D01*
X83939230Y-46014407D01*
X83939230Y-46370007D01*
X83919230Y-46370007D01*
X83919230Y-47130357D01*
X84065280Y-47276407D01*
X85771400Y-47276407D01*
X85771400Y-47465198D01*
X85741430Y-47459129D01*
X81741430Y-47459129D01*
X81656716Y-47475069D01*
X81578912Y-47525135D01*
X81526715Y-47601527D01*
X81508352Y-47692207D01*
X81508352Y-48692207D01*
X81524292Y-48776921D01*
X81574358Y-48854725D01*
X81650750Y-48906922D01*
X81741430Y-48925285D01*
X85741430Y-48925285D01*
X85771400Y-48919646D01*
X85771400Y-49108007D01*
X84065280Y-49108007D01*
X83919230Y-49254057D01*
X83919230Y-50014407D01*
X83939230Y-50014407D01*
X83939230Y-50370007D01*
X83919230Y-50370007D01*
X83919230Y-50390007D01*
X83603926Y-50390007D01*
X83640842Y-50253874D01*
X83595977Y-49904990D01*
X83563630Y-49826897D01*
X83563630Y-49254057D01*
X83417580Y-49108007D01*
X81625226Y-49108007D01*
X81410508Y-49196946D01*
X81246169Y-49361284D01*
X81157230Y-49576002D01*
X81157230Y-49868357D01*
X81303280Y-50014407D01*
X81873510Y-50014407D01*
X81842018Y-50130540D01*
X81872812Y-50370007D01*
X81303280Y-50370007D01*
X81157230Y-50516057D01*
X81157230Y-50808412D01*
X81187463Y-50881400D01*
X80331198Y-50881400D01*
X80332267Y-50878831D01*
X80332625Y-50646423D01*
X80333488Y-50086478D01*
X80187663Y-49940203D01*
X79547314Y-49939217D01*
X79547283Y-49959217D01*
X79191683Y-49958669D01*
X79191714Y-49938669D01*
X78917665Y-49938247D01*
X78917664Y-49938246D01*
X78277315Y-49937260D01*
X78277284Y-49957260D01*
X77921684Y-49956712D01*
X77921715Y-49936712D01*
X77281366Y-49935725D01*
X77281365Y-49935726D01*
X77007317Y-49935304D01*
X77007286Y-49955304D01*
X76651686Y-49954756D01*
X76651717Y-49934756D01*
X76377668Y-49934334D01*
X76377667Y-49934333D01*
X75737318Y-49933347D01*
X75737287Y-49953347D01*
X75381687Y-49952799D01*
X75381718Y-49932799D01*
X74741369Y-49931812D01*
X74595094Y-50077637D01*
X74594231Y-50637581D01*
X74593873Y-50869990D01*
X74598579Y-50881400D01*
X72570291Y-50881400D01*
X71815796Y-49583617D01*
X79547862Y-49583617D01*
X80188211Y-49584604D01*
X80334486Y-49438779D01*
X80335349Y-48878835D01*
X80335707Y-48646426D01*
X80247099Y-48431571D01*
X80083014Y-48266979D01*
X79868433Y-48177709D01*
X79696078Y-48177444D01*
X79549804Y-48323269D01*
X79547862Y-49583617D01*
X71815796Y-49583617D01*
X66720854Y-40819974D01*
X66697018Y-40792959D01*
X66677000Y-40763000D01*
X66661369Y-40752556D01*
X66648934Y-40738462D01*
X66616576Y-40722625D01*
X66586616Y-40702607D01*
X66568179Y-40698940D01*
X66551296Y-40690677D01*
X66515336Y-40688429D01*
X66480000Y-40681400D01*
X66200000Y-40681400D01*
X66164664Y-40688429D01*
X66128704Y-40690677D01*
X66111820Y-40698940D01*
X66093384Y-40702607D01*
X66063428Y-40722623D01*
X66031066Y-40738461D01*
X66018629Y-40752557D01*
X66003000Y-40763000D01*
X65982983Y-40792958D01*
X65959146Y-40819974D01*
X60109709Y-50881400D01*
X51574803Y-50881400D01*
X51605036Y-50808412D01*
X51605036Y-50516057D01*
X51458986Y-50370007D01*
X50888756Y-50370007D01*
X50920248Y-50253874D01*
X50889454Y-50014407D01*
X51458986Y-50014407D01*
X51605036Y-49868357D01*
X51605036Y-49576002D01*
X51516097Y-49361284D01*
X51351758Y-49196946D01*
X51137040Y-49108007D01*
X49344686Y-49108007D01*
X49198636Y-49254057D01*
X49198636Y-49845809D01*
X49121424Y-50130540D01*
X49154790Y-50390007D01*
X48843036Y-50390007D01*
X48843036Y-50370007D01*
X48823036Y-50370007D01*
X48823036Y-50014407D01*
X48843036Y-50014407D01*
X48843036Y-49254057D01*
X48696986Y-49108007D01*
X46908600Y-49108007D01*
X46908600Y-48892193D01*
X46930156Y-48906922D01*
X47020836Y-48925285D01*
X51020836Y-48925285D01*
X51105550Y-48909345D01*
X51183354Y-48859279D01*
X51235551Y-48782887D01*
X51253914Y-48692207D01*
X51253914Y-47692207D01*
X51237974Y-47607493D01*
X51187908Y-47529689D01*
X51111516Y-47477492D01*
X51020836Y-47459129D01*
X47020836Y-47459129D01*
X46936122Y-47475069D01*
X46908600Y-47492779D01*
X46908600Y-47276407D01*
X48696986Y-47276407D01*
X48843036Y-47130357D01*
X48843036Y-46370007D01*
X48823036Y-46370007D01*
X48823036Y-46014407D01*
X48843036Y-46014407D01*
X48843036Y-45994407D01*
X49158340Y-45994407D01*
X49121424Y-46130540D01*
X49166289Y-46479424D01*
X49198636Y-46557517D01*
X49198636Y-47130357D01*
X49344686Y-47276407D01*
X51137040Y-47276407D01*
X51351758Y-47187468D01*
X51516097Y-47023130D01*
X51605036Y-46808412D01*
X51605036Y-46516057D01*
X51458986Y-46370007D01*
X50888756Y-46370007D01*
X50920248Y-46253874D01*
X50889454Y-46014407D01*
X51458986Y-46014407D01*
X51605036Y-45868357D01*
X51605036Y-45576002D01*
X51543980Y-45428600D01*
X54450000Y-45428600D01*
X54477923Y-45423046D01*
X54506392Y-45422833D01*
X54530713Y-45412545D01*
X54556616Y-45407393D01*
X54580288Y-45391576D01*
X54606508Y-45380485D01*
X54625042Y-45361672D01*
X54647000Y-45347000D01*
X54662816Y-45323329D01*
X54682798Y-45303047D01*
X55186437Y-44536966D01*
X60222113Y-44536966D01*
X60438759Y-44788361D01*
X60735119Y-44937711D01*
X60882343Y-44964857D01*
X60984890Y-44822218D01*
X60866216Y-44266431D01*
X60310429Y-44385105D01*
X60222113Y-44536966D01*
X55186437Y-44536966D01*
X55398613Y-44214227D01*
X61110704Y-44214227D01*
X61229378Y-44770014D01*
X61381239Y-44858330D01*
X61632634Y-44641684D01*
X61781984Y-44345324D01*
X61809130Y-44198100D01*
X61666491Y-44095553D01*
X61110704Y-44214227D01*
X55398613Y-44214227D01*
X55514424Y-44038070D01*
X60115586Y-44038070D01*
X60258225Y-44140617D01*
X60814012Y-44021943D01*
X60695338Y-43466156D01*
X60605573Y-43413952D01*
X60939826Y-43413952D01*
X61058500Y-43969739D01*
X61614287Y-43851065D01*
X61702603Y-43699204D01*
X61485957Y-43447809D01*
X61189597Y-43298459D01*
X61042373Y-43271313D01*
X60939826Y-43413952D01*
X60605573Y-43413952D01*
X60543477Y-43377840D01*
X60292082Y-43594486D01*
X60142732Y-43890846D01*
X60115586Y-44038070D01*
X55514424Y-44038070D01*
X58797381Y-39044401D01*
X63781803Y-39044401D01*
X63998449Y-39295796D01*
X64294809Y-39445146D01*
X64442033Y-39472292D01*
X64503235Y-39387162D01*
X70481766Y-39387162D01*
X70576063Y-39705348D01*
X70784949Y-39963228D01*
X70908038Y-40048438D01*
X70968805Y-40013297D01*
X71304475Y-40013297D01*
X71406672Y-40156186D01*
X71724858Y-40061889D01*
X71982738Y-39853003D01*
X72067948Y-39729914D01*
X71980004Y-39577837D01*
X71424510Y-39457802D01*
X71304475Y-40013297D01*
X70968805Y-40013297D01*
X71060115Y-39960494D01*
X71180150Y-39405000D01*
X70624655Y-39284965D01*
X70481766Y-39387162D01*
X64503235Y-39387162D01*
X64544580Y-39329653D01*
X64425906Y-38773866D01*
X63870119Y-38892540D01*
X63781803Y-39044401D01*
X58797381Y-39044401D01*
X59009557Y-38721662D01*
X64670394Y-38721662D01*
X64789068Y-39277449D01*
X64940929Y-39365765D01*
X65117683Y-39213442D01*
X71477312Y-39213442D01*
X72032807Y-39333477D01*
X72175696Y-39231280D01*
X72081399Y-38913094D01*
X71872513Y-38655214D01*
X71749424Y-38570004D01*
X71597347Y-38657948D01*
X71477312Y-39213442D01*
X65117683Y-39213442D01*
X65192324Y-39149119D01*
X65323648Y-38888528D01*
X70589514Y-38888528D01*
X70677458Y-39040605D01*
X71232952Y-39160640D01*
X71352987Y-38605145D01*
X71250790Y-38462256D01*
X70932604Y-38556553D01*
X70674724Y-38765439D01*
X70589514Y-38888528D01*
X65323648Y-38888528D01*
X65341674Y-38852759D01*
X65368820Y-38705535D01*
X65226181Y-38602988D01*
X64670394Y-38721662D01*
X59009557Y-38721662D01*
X59125368Y-38545505D01*
X63675276Y-38545505D01*
X63817915Y-38648052D01*
X64373702Y-38529378D01*
X64255028Y-37973591D01*
X64165263Y-37921387D01*
X64499516Y-37921387D01*
X64618190Y-38477174D01*
X65173977Y-38358500D01*
X65262293Y-38206639D01*
X65045647Y-37955244D01*
X64749287Y-37805894D01*
X64602063Y-37778748D01*
X64499516Y-37921387D01*
X64165263Y-37921387D01*
X64103167Y-37885275D01*
X63851772Y-38101921D01*
X63702422Y-38398281D01*
X63675276Y-38545505D01*
X59125368Y-38545505D01*
X62032798Y-34123047D01*
X62052906Y-34073458D01*
X62073279Y-34024188D01*
X62073278Y-34023216D01*
X62073646Y-34022309D01*
X62073246Y-33968813D01*
X62073214Y-33915483D01*
X62072840Y-33914582D01*
X62072833Y-33913608D01*
X62052014Y-33864389D01*
X62031554Y-33815079D01*
X61895448Y-33611646D01*
X66893178Y-33611646D01*
X66990924Y-33928791D01*
X67202597Y-34184388D01*
X67326604Y-34268257D01*
X67393134Y-34228813D01*
X67722636Y-34228813D01*
X67826377Y-34370585D01*
X68143522Y-34272839D01*
X68399119Y-34061166D01*
X68482988Y-33937159D01*
X68393397Y-33786046D01*
X67836633Y-33672049D01*
X67722636Y-34228813D01*
X67393134Y-34228813D01*
X67477717Y-34178666D01*
X67591714Y-33621902D01*
X67034950Y-33507905D01*
X66893178Y-33611646D01*
X61895448Y-33611646D01*
X61771998Y-33427130D01*
X67886780Y-33427130D01*
X68443544Y-33541127D01*
X68585316Y-33437386D01*
X68487570Y-33120241D01*
X68275897Y-32864644D01*
X68151890Y-32780775D01*
X68000777Y-32870366D01*
X67886780Y-33427130D01*
X61771998Y-33427130D01*
X61561076Y-33111873D01*
X66995506Y-33111873D01*
X67085097Y-33262986D01*
X67641861Y-33376983D01*
X67755858Y-32820219D01*
X67652117Y-32678447D01*
X67334972Y-32776193D01*
X67079375Y-32987866D01*
X66995506Y-33111873D01*
X61561076Y-33111873D01*
X60511985Y-31543842D01*
X65314049Y-31543842D01*
X65322655Y-31585653D01*
X65412655Y-31755653D01*
X65419851Y-31766782D01*
X65489851Y-31856782D01*
X65523959Y-31881612D01*
X65743959Y-31961612D01*
X65777113Y-31965867D01*
X66097113Y-31935867D01*
X66115629Y-31931761D01*
X66535629Y-31781761D01*
X66544078Y-31778155D01*
X66784078Y-31658155D01*
X66792268Y-31653402D01*
X66822268Y-31633402D01*
X66828133Y-31629073D01*
X67098133Y-31409073D01*
X67105211Y-31402518D01*
X67495211Y-30992518D01*
X67507390Y-30975567D01*
X67697390Y-30615567D01*
X67706163Y-30582380D01*
X67716163Y-30262380D01*
X67706160Y-30222194D01*
X67626160Y-30082194D01*
X67613882Y-30066118D01*
X67573882Y-30026118D01*
X67549646Y-30009803D01*
X67520000Y-30003800D01*
X67420000Y-30003800D01*
X67390582Y-30009708D01*
X67365552Y-30026691D01*
X67349101Y-30052074D01*
X67343823Y-30081858D01*
X67353449Y-30476519D01*
X67273475Y-30680898D01*
X66957677Y-31063683D01*
X66726827Y-31227201D01*
X66611298Y-31304221D01*
X66291188Y-31469126D01*
X65948618Y-31573800D01*
X65814675Y-31573800D01*
X65801814Y-31568655D01*
X65718917Y-31433007D01*
X65733055Y-31319910D01*
X65973294Y-31005750D01*
X66192906Y-30852977D01*
X66225630Y-30831160D01*
X66384302Y-30864565D01*
X66414271Y-30864852D01*
X66442268Y-30853402D01*
X66472268Y-30833402D01*
X66490960Y-30815720D01*
X66520960Y-30775720D01*
X66530197Y-30759646D01*
X66536200Y-30730000D01*
X66536200Y-30630000D01*
X66534353Y-30613323D01*
X66522006Y-30585710D01*
X66372006Y-30375710D01*
X66341532Y-30350630D01*
X66231532Y-30300630D01*
X66209221Y-30294360D01*
X66179066Y-30296732D01*
X66109066Y-30316732D01*
X66094659Y-30322491D01*
X66071179Y-30341559D01*
X65934068Y-30508050D01*
X65487357Y-30934908D01*
X65475574Y-30949310D01*
X65355574Y-31139310D01*
X65344049Y-31173842D01*
X65314049Y-31543842D01*
X60511985Y-31543842D01*
X59523837Y-30066899D01*
X64654113Y-30066899D01*
X64674113Y-30286899D01*
X64690083Y-30327078D01*
X64800083Y-30467078D01*
X64817631Y-30483335D01*
X64845610Y-30494829D01*
X65105610Y-30544829D01*
X65126875Y-30545889D01*
X65155859Y-30537235D01*
X65305859Y-30457235D01*
X65306857Y-30456693D01*
X65686857Y-30246693D01*
X65691206Y-30244098D01*
X66111206Y-29974098D01*
X66111626Y-29973826D01*
X66801626Y-29523826D01*
X66819502Y-29507602D01*
X66859502Y-29457602D01*
X66875291Y-29421736D01*
X66873925Y-29391519D01*
X66863925Y-29351519D01*
X66853402Y-29327732D01*
X66833402Y-29297732D01*
X66809205Y-29274659D01*
X66759205Y-29244659D01*
X66718338Y-29233818D01*
X66688830Y-29240467D01*
X66398830Y-29370467D01*
X66389614Y-29375383D01*
X66149614Y-29525383D01*
X66148259Y-29526250D01*
X65311965Y-30073824D01*
X65072803Y-30193404D01*
X65055938Y-30170917D01*
X64959370Y-29958468D01*
X64944621Y-29936868D01*
X64919646Y-29919803D01*
X64890000Y-29913800D01*
X64760000Y-29913800D01*
X64732680Y-29918866D01*
X64707157Y-29935099D01*
X64689961Y-29959983D01*
X64659961Y-30029983D01*
X64654113Y-30066899D01*
X59523837Y-30066899D01*
X58195520Y-28081519D01*
X62796075Y-28081519D01*
X62797014Y-28121896D01*
X62827014Y-28221896D01*
X62831845Y-28234078D01*
X62851845Y-28274078D01*
X62862516Y-28290020D01*
X62886506Y-28308444D01*
X62915773Y-28316083D01*
X63068811Y-28324585D01*
X63009040Y-28404280D01*
X63000383Y-28419019D01*
X62993814Y-28448545D01*
X62999250Y-28478300D01*
X63019250Y-28528300D01*
X63026598Y-28542268D01*
X63066598Y-28602268D01*
X63076118Y-28613882D01*
X63106118Y-28643882D01*
X63134527Y-28661816D01*
X63164475Y-28666069D01*
X63334475Y-28656069D01*
X63356041Y-28651612D01*
X63493613Y-28601586D01*
X63610857Y-28743159D01*
X63734864Y-28827028D01*
X63885977Y-28737437D01*
X63954389Y-28403310D01*
X64242973Y-28240197D01*
X64235930Y-28274596D01*
X64161648Y-28348878D01*
X64210681Y-28397911D01*
X64130896Y-28787584D01*
X64203641Y-28886998D01*
X64072145Y-29040410D01*
X64060813Y-29058068D01*
X63940813Y-29318068D01*
X63933800Y-29350000D01*
X63933800Y-29470000D01*
X63936055Y-29488401D01*
X63949040Y-29515720D01*
X64009040Y-29595720D01*
X64011462Y-29598782D01*
X64061462Y-29658782D01*
X64097271Y-29682731D01*
X64257271Y-29732731D01*
X64280000Y-29736200D01*
X64380000Y-29736200D01*
X64418585Y-29725709D01*
X64441110Y-29705520D01*
X64450752Y-29685060D01*
X64475618Y-29708002D01*
X64504784Y-29716021D01*
X64534771Y-29712061D01*
X64854771Y-29602061D01*
X64864707Y-29597837D01*
X65294707Y-29377837D01*
X65303374Y-29372651D01*
X65693374Y-29102651D01*
X65706787Y-29090810D01*
X66046787Y-28710810D01*
X66060338Y-28689308D01*
X66160338Y-28449308D01*
X66165887Y-28426899D01*
X66175887Y-28316899D01*
X66175013Y-28296600D01*
X66163889Y-28268472D01*
X66033889Y-28068472D01*
X66019221Y-28051830D01*
X65889221Y-27941830D01*
X65848415Y-27924266D01*
X65578415Y-27894266D01*
X65560913Y-27894344D01*
X65532194Y-27903840D01*
X65392194Y-27983840D01*
X65388374Y-27986174D01*
X64928374Y-28286174D01*
X64927732Y-28286598D01*
X64812633Y-28363331D01*
X64801657Y-28344817D01*
X64624141Y-28308471D01*
X64433713Y-28118043D01*
X64554720Y-28039070D01*
X64851804Y-28099898D01*
X64993576Y-27996157D01*
X64931096Y-27793435D01*
X65221646Y-27603813D01*
X65228133Y-27599073D01*
X65498133Y-27379073D01*
X65511110Y-27365520D01*
X65524005Y-27338158D01*
X65525239Y-27307936D01*
X65514617Y-27279614D01*
X65464617Y-27199614D01*
X65448605Y-27181315D01*
X65421944Y-27167028D01*
X65391825Y-27164240D01*
X65362994Y-27173389D01*
X65285900Y-27216219D01*
X65220549Y-27224388D01*
X65184508Y-27238870D01*
X64780385Y-27539612D01*
X64684157Y-27423415D01*
X64560150Y-27339546D01*
X64409037Y-27429137D01*
X64324965Y-27839746D01*
X64033855Y-28012839D01*
X63780242Y-28135683D01*
X63773467Y-28134296D01*
X63861602Y-28048832D01*
X63881916Y-28069146D01*
X64021224Y-27929838D01*
X64050121Y-27935754D01*
X64059084Y-27891978D01*
X64133366Y-27817696D01*
X64114150Y-27798480D01*
X64120197Y-27789646D01*
X64126200Y-27760000D01*
X64126200Y-27700000D01*
X64113402Y-27657732D01*
X64108539Y-27650438D01*
X64164118Y-27378990D01*
X64126658Y-27327798D01*
X65019387Y-26568029D01*
X65038155Y-26544078D01*
X65088155Y-26444078D01*
X65094507Y-26425975D01*
X65094852Y-26395729D01*
X65083402Y-26367732D01*
X65043402Y-26307732D01*
X65025720Y-26289040D01*
X64985720Y-26259040D01*
X64955304Y-26245353D01*
X64925056Y-26245280D01*
X64875056Y-26255280D01*
X64842323Y-26270558D01*
X63882323Y-27040558D01*
X63880121Y-27042393D01*
X63060121Y-27752393D01*
X63053922Y-27758408D01*
X62823922Y-28008408D01*
X62806075Y-28041519D01*
X62796075Y-28081519D01*
X58195520Y-28081519D01*
X56582511Y-25670623D01*
X57677893Y-27231910D01*
X57739596Y-27292103D01*
X57825266Y-27327041D01*
X57917780Y-27325896D01*
X58002560Y-27288847D01*
X59962647Y-25913672D01*
X61644063Y-25913672D01*
X61651845Y-25954078D01*
X61741845Y-26134078D01*
X61749851Y-26146782D01*
X61819851Y-26236782D01*
X61853959Y-26261612D01*
X62073959Y-26341612D01*
X62109451Y-26345612D01*
X62429451Y-26305612D01*
X62444097Y-26302290D01*
X62864097Y-26162290D01*
X62874078Y-26158155D01*
X63114078Y-26038155D01*
X63122268Y-26033402D01*
X63152268Y-26013402D01*
X63158133Y-26009073D01*
X63428133Y-25789073D01*
X63435211Y-25782518D01*
X63825211Y-25372518D01*
X63837390Y-25355567D01*
X64027390Y-24995567D01*
X64036163Y-24962380D01*
X64046163Y-24642380D01*
X64037235Y-24604141D01*
X63957235Y-24454141D01*
X63935720Y-24429040D01*
X63895720Y-24399040D01*
X63879646Y-24389803D01*
X63850000Y-24383800D01*
X63750000Y-24383800D01*
X63720539Y-24389726D01*
X63695519Y-24406724D01*
X63679084Y-24432118D01*
X63673824Y-24461904D01*
X63683440Y-24846542D01*
X63603303Y-25051337D01*
X63287294Y-25443954D01*
X63058700Y-25605874D01*
X62942565Y-25673620D01*
X62620315Y-25849392D01*
X62278618Y-25953800D01*
X62151107Y-25953800D01*
X62134368Y-25943757D01*
X62048885Y-25811646D01*
X62063165Y-25690263D01*
X62302830Y-25386073D01*
X62522906Y-25232977D01*
X62555630Y-25211160D01*
X62714302Y-25244565D01*
X62744271Y-25244852D01*
X62772268Y-25233402D01*
X62802268Y-25213402D01*
X62820960Y-25195720D01*
X62850960Y-25155720D01*
X62860197Y-25139646D01*
X62866200Y-25110000D01*
X62866200Y-25010000D01*
X62853402Y-24967732D01*
X62753402Y-24817732D01*
X62748538Y-24811218D01*
X62698538Y-24751218D01*
X62671532Y-24730630D01*
X62561532Y-24680630D01*
X62535927Y-24674031D01*
X62505903Y-24677710D01*
X62445903Y-24697710D01*
X62411179Y-24721559D01*
X62274622Y-24887378D01*
X61818621Y-25303727D01*
X61804659Y-25320795D01*
X61684659Y-25520795D01*
X61674063Y-25553672D01*
X61644063Y-25913672D01*
X59962647Y-25913672D01*
X60949593Y-25221242D01*
X61009786Y-25159539D01*
X61044724Y-25073869D01*
X61043579Y-24981355D01*
X61006530Y-24896575D01*
X60691043Y-24446899D01*
X60984113Y-24446899D01*
X61004113Y-24666899D01*
X61020083Y-24707078D01*
X61130083Y-24847078D01*
X61147631Y-24863335D01*
X61175610Y-24874829D01*
X61435610Y-24924829D01*
X61456875Y-24925889D01*
X61485859Y-24917235D01*
X61635859Y-24837235D01*
X61636857Y-24836693D01*
X62016857Y-24626693D01*
X62021206Y-24624098D01*
X62441206Y-24354098D01*
X62441626Y-24353826D01*
X63131626Y-23903826D01*
X63149502Y-23887602D01*
X63189502Y-23837602D01*
X63204647Y-23805304D01*
X63204720Y-23775056D01*
X63194720Y-23725056D01*
X63183402Y-23697732D01*
X63163402Y-23667732D01*
X63153596Y-23655834D01*
X63128300Y-23639250D01*
X63078300Y-23619250D01*
X63050554Y-23613802D01*
X63020865Y-23619590D01*
X62730865Y-23739590D01*
X62717732Y-23746598D01*
X62478290Y-23906226D01*
X61641399Y-24444228D01*
X61401772Y-24572029D01*
X61385938Y-24550917D01*
X61289370Y-24338468D01*
X61278535Y-24321214D01*
X61254943Y-24302284D01*
X61225844Y-24294024D01*
X61095844Y-24284024D01*
X61059430Y-24290201D01*
X61034682Y-24307594D01*
X61018652Y-24333244D01*
X60988652Y-24413244D01*
X60984113Y-24446899D01*
X60691043Y-24446899D01*
X60390260Y-24018183D01*
X60464722Y-24018183D01*
X60466055Y-24048401D01*
X60479040Y-24075720D01*
X60539040Y-24155720D01*
X60557732Y-24173402D01*
X60617732Y-24213402D01*
X60650052Y-24225548D01*
X60680228Y-24223466D01*
X60707217Y-24209808D01*
X61465615Y-23611073D01*
X61774141Y-23393290D01*
X61809066Y-23403268D01*
X61850394Y-23403420D01*
X62390394Y-23253420D01*
X62395439Y-23251828D01*
X62875439Y-23081828D01*
X62889205Y-23075341D01*
X62939205Y-23045341D01*
X62956519Y-23031108D01*
X62971950Y-23005093D01*
X62976044Y-22975123D01*
X62968155Y-22945922D01*
X62938155Y-22885922D01*
X62927909Y-22870472D01*
X62904078Y-22851845D01*
X62844078Y-22821845D01*
X62824280Y-22815150D01*
X62794034Y-22815491D01*
X62374034Y-22905491D01*
X62367733Y-22907126D01*
X62174499Y-22966170D01*
X62301196Y-22795404D01*
X62303659Y-22791881D01*
X62553659Y-22411881D01*
X62565612Y-22379451D01*
X62575612Y-22299451D01*
X62575576Y-22280267D01*
X62565835Y-22251630D01*
X62545720Y-22229040D01*
X62505720Y-22199040D01*
X62489646Y-22189803D01*
X62460000Y-22183800D01*
X62360000Y-22183800D01*
X62319080Y-22195719D01*
X62297295Y-22216704D01*
X62009293Y-22633811D01*
X61557661Y-23173805D01*
X61386182Y-23297651D01*
X60787009Y-23707086D01*
X60779133Y-23713264D01*
X60489133Y-23973264D01*
X60475250Y-23989826D01*
X60464722Y-24018183D01*
X60390260Y-24018183D01*
X59485916Y-22729189D01*
X59709703Y-22729189D01*
X59807449Y-23046334D01*
X59849396Y-23096985D01*
X59829678Y-23116703D01*
X59927606Y-23214631D01*
X59926118Y-23216118D01*
X59910383Y-23239019D01*
X59903814Y-23268545D01*
X59909250Y-23298300D01*
X59929250Y-23348300D01*
X59936598Y-23362268D01*
X59996598Y-23452268D01*
X60012636Y-23469692D01*
X60039591Y-23483416D01*
X60069762Y-23485572D01*
X60098395Y-23475820D01*
X60568842Y-23201392D01*
X60539161Y-23346356D01*
X60642902Y-23488128D01*
X60960047Y-23390382D01*
X61215644Y-23178709D01*
X61299513Y-23054702D01*
X61209922Y-22903589D01*
X61100958Y-22881279D01*
X61166967Y-22820347D01*
X61591580Y-22543855D01*
X61595720Y-22540960D01*
X61675720Y-22480960D01*
X61691909Y-22464426D01*
X61704316Y-22436840D01*
X61704692Y-22420526D01*
X61725144Y-22426045D01*
X61755112Y-22421943D01*
X61781124Y-22406505D01*
X61991124Y-22216505D01*
X62009187Y-22191932D01*
X62129187Y-21931932D01*
X62135678Y-21891097D01*
X62115678Y-21721097D01*
X62108155Y-21695922D01*
X62068155Y-21615922D01*
X62059502Y-21602398D01*
X62019502Y-21552398D01*
X61996489Y-21533104D01*
X61886489Y-21473104D01*
X61843101Y-21464113D01*
X61623101Y-21484113D01*
X61599983Y-21489961D01*
X61389983Y-21579961D01*
X61368742Y-21593617D01*
X61258742Y-21693617D01*
X61235959Y-21731990D01*
X61156329Y-22059355D01*
X61092422Y-21982187D01*
X60968415Y-21898318D01*
X60817302Y-21987909D01*
X60703305Y-22544673D01*
X60881683Y-22581196D01*
X60867994Y-22595710D01*
X60831969Y-22646145D01*
X60684639Y-22698144D01*
X60667732Y-22706598D01*
X60471440Y-22837459D01*
X60402323Y-22768342D01*
X60408239Y-22739445D01*
X60364463Y-22730482D01*
X60290181Y-22656200D01*
X60241148Y-22705233D01*
X59851475Y-22625448D01*
X59709703Y-22729189D01*
X59485916Y-22729189D01*
X59283525Y-22440714D01*
X59221822Y-22380521D01*
X59136152Y-22345583D01*
X59043638Y-22346728D01*
X58958858Y-22383777D01*
X57856256Y-23157350D01*
X57795447Y-23010182D01*
X57660932Y-22875433D01*
X57485090Y-22802417D01*
X57294691Y-22802250D01*
X57118722Y-22874959D01*
X56983973Y-23009474D01*
X56910957Y-23185316D01*
X56910790Y-23375715D01*
X56983499Y-23551684D01*
X57111473Y-23679881D01*
X56011825Y-24451382D01*
X55951632Y-24513085D01*
X55916694Y-24598755D01*
X55917661Y-24676899D01*
X53993340Y-21800695D01*
X59264554Y-21800695D01*
X59274659Y-21829205D01*
X59303156Y-21876700D01*
X59331845Y-21934078D01*
X59346118Y-21953882D01*
X59386118Y-21993882D01*
X59404984Y-22007678D01*
X59434073Y-22015969D01*
X59464097Y-22012290D01*
X59524097Y-21992290D01*
X59544290Y-21982006D01*
X60033651Y-21632462D01*
X60340919Y-21422226D01*
X60411845Y-21564078D01*
X60416025Y-21571396D01*
X60486888Y-21680912D01*
X60227224Y-21870397D01*
X60151497Y-21893736D01*
X59895900Y-22105409D01*
X59821947Y-22214755D01*
X59790037Y-22242466D01*
X59774702Y-22260725D01*
X59764566Y-22289224D01*
X59754566Y-22359224D01*
X59756666Y-22390702D01*
X59770498Y-22417602D01*
X59810498Y-22467602D01*
X59816118Y-22473882D01*
X59856118Y-22513882D01*
X59884907Y-22531950D01*
X59914877Y-22536044D01*
X59944078Y-22528155D01*
X60024078Y-22488155D01*
X60035897Y-22480827D01*
X60111792Y-22423561D01*
X60458386Y-22494526D01*
X60538901Y-22101287D01*
X61135897Y-21650827D01*
X61139906Y-21647584D01*
X61589906Y-21257584D01*
X61613684Y-21219421D01*
X61615434Y-21189224D01*
X61605434Y-21119224D01*
X61593402Y-21087732D01*
X61573402Y-21057732D01*
X61538745Y-21029430D01*
X61509024Y-21023806D01*
X61479458Y-21030189D01*
X61319458Y-21100189D01*
X61309614Y-21105383D01*
X60989614Y-21305383D01*
X60981867Y-21310927D01*
X60780931Y-21474653D01*
X60755820Y-21431605D01*
X60755341Y-21430795D01*
X60700862Y-21339996D01*
X60669511Y-21222433D01*
X60674455Y-21207603D01*
X60864290Y-21072006D01*
X60869590Y-21067855D01*
X61219590Y-20767855D01*
X61243416Y-20730409D01*
X61245572Y-20700238D01*
X61235820Y-20671605D01*
X61165820Y-20551605D01*
X61142834Y-20526979D01*
X61114941Y-20515279D01*
X61084693Y-20515353D01*
X61056857Y-20527189D01*
X60067507Y-21206742D01*
X59428192Y-21626293D01*
X59424280Y-21629040D01*
X59344280Y-21689040D01*
X59342398Y-21690498D01*
X59292398Y-21730498D01*
X59279728Y-21743377D01*
X59266338Y-21770499D01*
X59264554Y-21800695D01*
X53993340Y-21800695D01*
X53608458Y-21225429D01*
X58473994Y-21225429D01*
X58483994Y-21365429D01*
X58494180Y-21398395D01*
X58564180Y-21518395D01*
X58576118Y-21533882D01*
X58616118Y-21573882D01*
X58634984Y-21587678D01*
X58664073Y-21595969D01*
X58694097Y-21592290D01*
X58754097Y-21572290D01*
X58777602Y-21559502D01*
X58827602Y-21519502D01*
X58850197Y-21489646D01*
X58856200Y-21460000D01*
X58856200Y-21181986D01*
X58948607Y-20895524D01*
X59052435Y-20757086D01*
X59120386Y-20714617D01*
X59124819Y-20711626D01*
X59227448Y-20636987D01*
X59376310Y-20575691D01*
X59945871Y-20556384D01*
X60359224Y-20615434D01*
X60396756Y-20611348D01*
X60556756Y-20551348D01*
X60569734Y-20545020D01*
X60749734Y-20435020D01*
X60770530Y-20416288D01*
X60900530Y-20246288D01*
X60914329Y-20216784D01*
X60984329Y-19906784D01*
X60986044Y-19885123D01*
X60978155Y-19855922D01*
X60908155Y-19715922D01*
X60903402Y-19707732D01*
X60883402Y-19677732D01*
X60865720Y-19659040D01*
X60825720Y-19629040D01*
X60809646Y-19619803D01*
X60780000Y-19613800D01*
X60670000Y-19613800D01*
X60649298Y-19616666D01*
X60622398Y-19630498D01*
X60572398Y-19670498D01*
X60558315Y-19685262D01*
X60545770Y-19712786D01*
X60544921Y-19743022D01*
X60555902Y-19771206D01*
X60632187Y-19889871D01*
X60624840Y-19992725D01*
X60556409Y-20163803D01*
X60520893Y-20193399D01*
X60416618Y-20233505D01*
X59958127Y-20223953D01*
X59604544Y-20155201D01*
X59575056Y-20155280D01*
X59275056Y-20215280D01*
X59257776Y-20220949D01*
X59107776Y-20290949D01*
X59100795Y-20294659D01*
X58950795Y-20384659D01*
X58941747Y-20391024D01*
X58831747Y-20481024D01*
X58824682Y-20487594D01*
X58644682Y-20677594D01*
X58631257Y-20697123D01*
X58521257Y-20927123D01*
X58514686Y-20948413D01*
X58474686Y-21208413D01*
X58473994Y-21225429D01*
X53608458Y-21225429D01*
X52718600Y-19895397D01*
X52718600Y-18998600D01*
X60903567Y-18998600D01*
X65962129Y-27295036D01*
X65962129Y-27295036D01*
G37*
X65962129Y-27295036D02*
X65984581Y-27319433D01*
X66003000Y-27347000D01*
X66021042Y-27359056D01*
X66035739Y-27375026D01*
X66065819Y-27388974D01*
X66093384Y-27407393D01*
X66114669Y-27411627D01*
X66134356Y-27420756D01*
X66167482Y-27422132D01*
X66200000Y-27428600D01*
X66440000Y-27428600D01*
X66472053Y-27422224D01*
X66504709Y-27420981D01*
X66524862Y-27411720D01*
X66546616Y-27407393D01*
X66573789Y-27389236D01*
X66603483Y-27375591D01*
X66618558Y-27359323D01*
X66637000Y-27347000D01*
X66655157Y-27319827D01*
X66677369Y-27295856D01*
X66826187Y-27053666D01*
X68726848Y-27053666D01*
X68942094Y-27306261D01*
X69237619Y-27457256D01*
X69384690Y-27485220D01*
X69488028Y-27343153D01*
X69372445Y-26786716D01*
X68816007Y-26902299D01*
X68726848Y-27053666D01*
X66826187Y-27053666D01*
X67021463Y-26735871D01*
X69617220Y-26735871D01*
X69732803Y-27292309D01*
X69884170Y-27381468D01*
X70136765Y-27166222D01*
X70287760Y-26870697D01*
X70315724Y-26723626D01*
X70173657Y-26620288D01*
X69617220Y-26735871D01*
X67021463Y-26735871D01*
X67133104Y-26554186D01*
X68623096Y-26554186D01*
X68765163Y-26657524D01*
X69321600Y-26541941D01*
X69206017Y-25985503D01*
X69119699Y-25934659D01*
X69450792Y-25934659D01*
X69566375Y-26491096D01*
X70122813Y-26375513D01*
X70211972Y-26224146D01*
X69996726Y-25971551D01*
X69701201Y-25820556D01*
X69554130Y-25792592D01*
X69450792Y-25934659D01*
X69119699Y-25934659D01*
X69054650Y-25896344D01*
X68802055Y-26111590D01*
X68651060Y-26407115D01*
X68623096Y-26554186D01*
X67133104Y-26554186D01*
X70169816Y-21612200D01*
X72296528Y-21612200D01*
X72511774Y-21864795D01*
X72807299Y-22015790D01*
X72954370Y-22043754D01*
X73057708Y-21901687D01*
X72942125Y-21345250D01*
X72385687Y-21460833D01*
X72296528Y-21612200D01*
X70169816Y-21612200D01*
X70365092Y-21294405D01*
X73186900Y-21294405D01*
X73302483Y-21850843D01*
X73453850Y-21940002D01*
X73706445Y-21724756D01*
X73857440Y-21429231D01*
X73885404Y-21282160D01*
X73743337Y-21178822D01*
X73186900Y-21294405D01*
X70365092Y-21294405D01*
X70476733Y-21112720D01*
X72192776Y-21112720D01*
X72334843Y-21216058D01*
X72891280Y-21100475D01*
X72775697Y-20544037D01*
X72689379Y-20493193D01*
X73020472Y-20493193D01*
X73136055Y-21049630D01*
X73692493Y-20934047D01*
X73781652Y-20782680D01*
X73566406Y-20530085D01*
X73270881Y-20379090D01*
X73123810Y-20351126D01*
X73020472Y-20493193D01*
X72689379Y-20493193D01*
X72624330Y-20454878D01*
X72371735Y-20670124D01*
X72220740Y-20965649D01*
X72192776Y-21112720D01*
X70476733Y-21112720D01*
X71775801Y-18998600D01*
X79921400Y-18998600D01*
X79921400Y-19895397D01*
X70608446Y-33815079D01*
X70587907Y-33864580D01*
X70567062Y-33914118D01*
X70567058Y-33914828D01*
X70566786Y-33915484D01*
X70566753Y-33969204D01*
X70566453Y-34022821D01*
X70566720Y-34023477D01*
X70566720Y-34024188D01*
X70587248Y-34073831D01*
X70607489Y-34123482D01*
X77987489Y-45303482D01*
X78007327Y-45323544D01*
X78008943Y-45325963D01*
X77726619Y-45325528D01*
X77641881Y-45341338D01*
X77563999Y-45391284D01*
X77511685Y-45467595D01*
X77493182Y-45558247D01*
X77490101Y-47558244D01*
X77505911Y-47642982D01*
X77555857Y-47720864D01*
X77632168Y-47773178D01*
X77722820Y-47791681D01*
X77834741Y-47791853D01*
X77834304Y-48075697D01*
X77147035Y-48074638D01*
X77150488Y-48057721D01*
X77150796Y-47857721D01*
X77150899Y-47790801D01*
X77212821Y-47790896D01*
X77297559Y-47775086D01*
X77375441Y-47725140D01*
X77427755Y-47648829D01*
X77446258Y-47558177D01*
X77449339Y-45558180D01*
X77433529Y-45473442D01*
X77383583Y-45395560D01*
X77307272Y-45343246D01*
X77216620Y-45324743D01*
X76456621Y-45323572D01*
X76371883Y-45339382D01*
X76294001Y-45389328D01*
X76241687Y-45465639D01*
X76223184Y-45556291D01*
X76220103Y-47556288D01*
X76232592Y-47623228D01*
X76162604Y-47623120D01*
X76176259Y-47556220D01*
X76179340Y-45556223D01*
X76163530Y-45471485D01*
X76113584Y-45393603D01*
X76037273Y-45341289D01*
X75946621Y-45322786D01*
X75289344Y-45321773D01*
X75433008Y-45205404D01*
X75518218Y-45082315D01*
X75430274Y-44930238D01*
X74874780Y-44810203D01*
X74764411Y-45320964D01*
X74497144Y-45320552D01*
X74510385Y-45312895D01*
X74630420Y-44757401D01*
X74074925Y-44637366D01*
X73932036Y-44739563D01*
X74026333Y-45057749D01*
X74235219Y-45315629D01*
X74241762Y-45320158D01*
X73921624Y-45319665D01*
X73836886Y-45335475D01*
X73759004Y-45385421D01*
X73746957Y-45402994D01*
X73738588Y-45389944D01*
X73662277Y-45337630D01*
X73571625Y-45319127D01*
X73236791Y-45318611D01*
X72720608Y-44565843D01*
X74927582Y-44565843D01*
X75483077Y-44685878D01*
X75625966Y-44583681D01*
X75531669Y-44265495D01*
X75322783Y-44007615D01*
X75199694Y-43922405D01*
X75047617Y-44010349D01*
X74927582Y-44565843D01*
X72720608Y-44565843D01*
X72497810Y-44240929D01*
X74039784Y-44240929D01*
X74127728Y-44393006D01*
X74683222Y-44513041D01*
X74803257Y-43957546D01*
X74701060Y-43814657D01*
X74382874Y-43908954D01*
X74124994Y-44117840D01*
X74039784Y-44240929D01*
X72497810Y-44240929D01*
X72043976Y-43579089D01*
X72831051Y-43026886D01*
X72891244Y-42965183D01*
X72926182Y-42879513D01*
X72925037Y-42786999D01*
X72887988Y-42702219D01*
X71164983Y-40246358D01*
X71103280Y-40186165D01*
X71017610Y-40151227D01*
X70925096Y-40152372D01*
X70840316Y-40189421D01*
X68711903Y-41682692D01*
X68651710Y-41744395D01*
X68616772Y-41830065D01*
X68617917Y-41922579D01*
X68654966Y-42007359D01*
X70377971Y-44463220D01*
X70439674Y-44523413D01*
X70525344Y-44558351D01*
X70617858Y-44557206D01*
X70702638Y-44520157D01*
X71461739Y-43987580D01*
X72381918Y-45329507D01*
X72321626Y-45317201D01*
X71421627Y-45315814D01*
X71336889Y-45331624D01*
X71259007Y-45381570D01*
X71206693Y-45457881D01*
X71188190Y-45548533D01*
X71187265Y-46148532D01*
X71203075Y-46233270D01*
X71253021Y-46311152D01*
X71329332Y-46363466D01*
X71419984Y-46381969D01*
X72319983Y-46383356D01*
X72404721Y-46367546D01*
X72482603Y-46317600D01*
X72494650Y-46300027D01*
X72503020Y-46313078D01*
X72579331Y-46365392D01*
X72669983Y-46383895D01*
X73569982Y-46385282D01*
X73654720Y-46369472D01*
X73732602Y-46319526D01*
X73744649Y-46301953D01*
X73753018Y-46315003D01*
X73829329Y-46367317D01*
X73919981Y-46385820D01*
X74819980Y-46387207D01*
X74904718Y-46371397D01*
X74951973Y-46341092D01*
X74951162Y-46867796D01*
X74909964Y-46839554D01*
X74819312Y-46821051D01*
X73919313Y-46819664D01*
X73834575Y-46835474D01*
X73756693Y-46885420D01*
X73744646Y-46902993D01*
X73736277Y-46889942D01*
X73659966Y-46837628D01*
X73569314Y-46819125D01*
X72669315Y-46817738D01*
X72584577Y-46833548D01*
X72506695Y-46883494D01*
X72494648Y-46901067D01*
X72486278Y-46888016D01*
X72409967Y-46835702D01*
X72319315Y-46817199D01*
X71419316Y-46815812D01*
X71334578Y-46831622D01*
X71256696Y-46881568D01*
X71204382Y-46957879D01*
X71185879Y-47048531D01*
X71184954Y-47648530D01*
X71200764Y-47733268D01*
X71250710Y-47811150D01*
X71327021Y-47863464D01*
X71417673Y-47881967D01*
X71534595Y-47882147D01*
X71533953Y-48299069D01*
X71533645Y-48499069D01*
X71549455Y-48583807D01*
X71599401Y-48661689D01*
X71675712Y-48714003D01*
X71766364Y-48732506D01*
X74597160Y-48736867D01*
X74596955Y-48869993D01*
X74596092Y-49429938D01*
X74741917Y-49576213D01*
X75382266Y-49577199D01*
X75382297Y-49557199D01*
X75737897Y-49557747D01*
X75737866Y-49577747D01*
X76011915Y-49578169D01*
X76011916Y-49578170D01*
X76652265Y-49579156D01*
X76652296Y-49559156D01*
X77007896Y-49559704D01*
X77007865Y-49579704D01*
X77648214Y-49580691D01*
X77648215Y-49580690D01*
X77922263Y-49581112D01*
X77922294Y-49561112D01*
X78277894Y-49561660D01*
X78277863Y-49581660D01*
X78551912Y-49582082D01*
X78551913Y-49582083D01*
X79192262Y-49583069D01*
X79194204Y-48322721D01*
X79048379Y-48176446D01*
X78876024Y-48176180D01*
X78737141Y-48233457D01*
X78598434Y-48175752D01*
X78500308Y-48175601D01*
X78500902Y-47789478D01*
X78567557Y-47777042D01*
X78645439Y-47727096D01*
X78697753Y-47650785D01*
X78716256Y-47560133D01*
X78719337Y-45560136D01*
X78703527Y-45475398D01*
X78673515Y-45428600D01*
X78819768Y-45428600D01*
X78791684Y-45469567D01*
X78773181Y-45560219D01*
X78770100Y-47560217D01*
X78785910Y-47644955D01*
X78835856Y-47722837D01*
X78912167Y-47775151D01*
X79002819Y-47793654D01*
X79742818Y-47794794D01*
X79827556Y-47778984D01*
X79905438Y-47729038D01*
X79957752Y-47652727D01*
X79976255Y-47562075D01*
X79979336Y-45562077D01*
X79963526Y-45477339D01*
X79932270Y-45428600D01*
X81218286Y-45428600D01*
X81157230Y-45576002D01*
X81157230Y-45868357D01*
X81303280Y-46014407D01*
X81873510Y-46014407D01*
X81842018Y-46130540D01*
X81872812Y-46370007D01*
X81303280Y-46370007D01*
X81157230Y-46516057D01*
X81157230Y-46808412D01*
X81246169Y-47023130D01*
X81410508Y-47187468D01*
X81625226Y-47276407D01*
X83417580Y-47276407D01*
X83563630Y-47130357D01*
X83563630Y-46538605D01*
X83640842Y-46253874D01*
X83607476Y-45994407D01*
X83919230Y-45994407D01*
X83919230Y-46014407D01*
X83939230Y-46014407D01*
X83939230Y-46370007D01*
X83919230Y-46370007D01*
X83919230Y-47130357D01*
X84065280Y-47276407D01*
X85771400Y-47276407D01*
X85771400Y-47465198D01*
X85741430Y-47459129D01*
X81741430Y-47459129D01*
X81656716Y-47475069D01*
X81578912Y-47525135D01*
X81526715Y-47601527D01*
X81508352Y-47692207D01*
X81508352Y-48692207D01*
X81524292Y-48776921D01*
X81574358Y-48854725D01*
X81650750Y-48906922D01*
X81741430Y-48925285D01*
X85741430Y-48925285D01*
X85771400Y-48919646D01*
X85771400Y-49108007D01*
X84065280Y-49108007D01*
X83919230Y-49254057D01*
X83919230Y-50014407D01*
X83939230Y-50014407D01*
X83939230Y-50370007D01*
X83919230Y-50370007D01*
X83919230Y-50390007D01*
X83603926Y-50390007D01*
X83640842Y-50253874D01*
X83595977Y-49904990D01*
X83563630Y-49826897D01*
X83563630Y-49254057D01*
X83417580Y-49108007D01*
X81625226Y-49108007D01*
X81410508Y-49196946D01*
X81246169Y-49361284D01*
X81157230Y-49576002D01*
X81157230Y-49868357D01*
X81303280Y-50014407D01*
X81873510Y-50014407D01*
X81842018Y-50130540D01*
X81872812Y-50370007D01*
X81303280Y-50370007D01*
X81157230Y-50516057D01*
X81157230Y-50808412D01*
X81187463Y-50881400D01*
X80331198Y-50881400D01*
X80332267Y-50878831D01*
X80332625Y-50646423D01*
X80333488Y-50086478D01*
X80187663Y-49940203D01*
X79547314Y-49939217D01*
X79547283Y-49959217D01*
X79191683Y-49958669D01*
X79191714Y-49938669D01*
X78917665Y-49938247D01*
X78917664Y-49938246D01*
X78277315Y-49937260D01*
X78277284Y-49957260D01*
X77921684Y-49956712D01*
X77921715Y-49936712D01*
X77281366Y-49935725D01*
X77281365Y-49935726D01*
X77007317Y-49935304D01*
X77007286Y-49955304D01*
X76651686Y-49954756D01*
X76651717Y-49934756D01*
X76377668Y-49934334D01*
X76377667Y-49934333D01*
X75737318Y-49933347D01*
X75737287Y-49953347D01*
X75381687Y-49952799D01*
X75381718Y-49932799D01*
X74741369Y-49931812D01*
X74595094Y-50077637D01*
X74594231Y-50637581D01*
X74593873Y-50869990D01*
X74598579Y-50881400D01*
X72570291Y-50881400D01*
X71815796Y-49583617D01*
X79547862Y-49583617D01*
X80188211Y-49584604D01*
X80334486Y-49438779D01*
X80335349Y-48878835D01*
X80335707Y-48646426D01*
X80247099Y-48431571D01*
X80083014Y-48266979D01*
X79868433Y-48177709D01*
X79696078Y-48177444D01*
X79549804Y-48323269D01*
X79547862Y-49583617D01*
X71815796Y-49583617D01*
X66720854Y-40819974D01*
X66697018Y-40792959D01*
X66677000Y-40763000D01*
X66661369Y-40752556D01*
X66648934Y-40738462D01*
X66616576Y-40722625D01*
X66586616Y-40702607D01*
X66568179Y-40698940D01*
X66551296Y-40690677D01*
X66515336Y-40688429D01*
X66480000Y-40681400D01*
X66200000Y-40681400D01*
X66164664Y-40688429D01*
X66128704Y-40690677D01*
X66111820Y-40698940D01*
X66093384Y-40702607D01*
X66063428Y-40722623D01*
X66031066Y-40738461D01*
X66018629Y-40752557D01*
X66003000Y-40763000D01*
X65982983Y-40792958D01*
X65959146Y-40819974D01*
X60109709Y-50881400D01*
X51574803Y-50881400D01*
X51605036Y-50808412D01*
X51605036Y-50516057D01*
X51458986Y-50370007D01*
X50888756Y-50370007D01*
X50920248Y-50253874D01*
X50889454Y-50014407D01*
X51458986Y-50014407D01*
X51605036Y-49868357D01*
X51605036Y-49576002D01*
X51516097Y-49361284D01*
X51351758Y-49196946D01*
X51137040Y-49108007D01*
X49344686Y-49108007D01*
X49198636Y-49254057D01*
X49198636Y-49845809D01*
X49121424Y-50130540D01*
X49154790Y-50390007D01*
X48843036Y-50390007D01*
X48843036Y-50370007D01*
X48823036Y-50370007D01*
X48823036Y-50014407D01*
X48843036Y-50014407D01*
X48843036Y-49254057D01*
X48696986Y-49108007D01*
X46908600Y-49108007D01*
X46908600Y-48892193D01*
X46930156Y-48906922D01*
X47020836Y-48925285D01*
X51020836Y-48925285D01*
X51105550Y-48909345D01*
X51183354Y-48859279D01*
X51235551Y-48782887D01*
X51253914Y-48692207D01*
X51253914Y-47692207D01*
X51237974Y-47607493D01*
X51187908Y-47529689D01*
X51111516Y-47477492D01*
X51020836Y-47459129D01*
X47020836Y-47459129D01*
X46936122Y-47475069D01*
X46908600Y-47492779D01*
X46908600Y-47276407D01*
X48696986Y-47276407D01*
X48843036Y-47130357D01*
X48843036Y-46370007D01*
X48823036Y-46370007D01*
X48823036Y-46014407D01*
X48843036Y-46014407D01*
X48843036Y-45994407D01*
X49158340Y-45994407D01*
X49121424Y-46130540D01*
X49166289Y-46479424D01*
X49198636Y-46557517D01*
X49198636Y-47130357D01*
X49344686Y-47276407D01*
X51137040Y-47276407D01*
X51351758Y-47187468D01*
X51516097Y-47023130D01*
X51605036Y-46808412D01*
X51605036Y-46516057D01*
X51458986Y-46370007D01*
X50888756Y-46370007D01*
X50920248Y-46253874D01*
X50889454Y-46014407D01*
X51458986Y-46014407D01*
X51605036Y-45868357D01*
X51605036Y-45576002D01*
X51543980Y-45428600D01*
X54450000Y-45428600D01*
X54477923Y-45423046D01*
X54506392Y-45422833D01*
X54530713Y-45412545D01*
X54556616Y-45407393D01*
X54580288Y-45391576D01*
X54606508Y-45380485D01*
X54625042Y-45361672D01*
X54647000Y-45347000D01*
X54662816Y-45323329D01*
X54682798Y-45303047D01*
X55186437Y-44536966D01*
X60222113Y-44536966D01*
X60438759Y-44788361D01*
X60735119Y-44937711D01*
X60882343Y-44964857D01*
X60984890Y-44822218D01*
X60866216Y-44266431D01*
X60310429Y-44385105D01*
X60222113Y-44536966D01*
X55186437Y-44536966D01*
X55398613Y-44214227D01*
X61110704Y-44214227D01*
X61229378Y-44770014D01*
X61381239Y-44858330D01*
X61632634Y-44641684D01*
X61781984Y-44345324D01*
X61809130Y-44198100D01*
X61666491Y-44095553D01*
X61110704Y-44214227D01*
X55398613Y-44214227D01*
X55514424Y-44038070D01*
X60115586Y-44038070D01*
X60258225Y-44140617D01*
X60814012Y-44021943D01*
X60695338Y-43466156D01*
X60605573Y-43413952D01*
X60939826Y-43413952D01*
X61058500Y-43969739D01*
X61614287Y-43851065D01*
X61702603Y-43699204D01*
X61485957Y-43447809D01*
X61189597Y-43298459D01*
X61042373Y-43271313D01*
X60939826Y-43413952D01*
X60605573Y-43413952D01*
X60543477Y-43377840D01*
X60292082Y-43594486D01*
X60142732Y-43890846D01*
X60115586Y-44038070D01*
X55514424Y-44038070D01*
X58797381Y-39044401D01*
X63781803Y-39044401D01*
X63998449Y-39295796D01*
X64294809Y-39445146D01*
X64442033Y-39472292D01*
X64503235Y-39387162D01*
X70481766Y-39387162D01*
X70576063Y-39705348D01*
X70784949Y-39963228D01*
X70908038Y-40048438D01*
X70968805Y-40013297D01*
X71304475Y-40013297D01*
X71406672Y-40156186D01*
X71724858Y-40061889D01*
X71982738Y-39853003D01*
X72067948Y-39729914D01*
X71980004Y-39577837D01*
X71424510Y-39457802D01*
X71304475Y-40013297D01*
X70968805Y-40013297D01*
X71060115Y-39960494D01*
X71180150Y-39405000D01*
X70624655Y-39284965D01*
X70481766Y-39387162D01*
X64503235Y-39387162D01*
X64544580Y-39329653D01*
X64425906Y-38773866D01*
X63870119Y-38892540D01*
X63781803Y-39044401D01*
X58797381Y-39044401D01*
X59009557Y-38721662D01*
X64670394Y-38721662D01*
X64789068Y-39277449D01*
X64940929Y-39365765D01*
X65117683Y-39213442D01*
X71477312Y-39213442D01*
X72032807Y-39333477D01*
X72175696Y-39231280D01*
X72081399Y-38913094D01*
X71872513Y-38655214D01*
X71749424Y-38570004D01*
X71597347Y-38657948D01*
X71477312Y-39213442D01*
X65117683Y-39213442D01*
X65192324Y-39149119D01*
X65323648Y-38888528D01*
X70589514Y-38888528D01*
X70677458Y-39040605D01*
X71232952Y-39160640D01*
X71352987Y-38605145D01*
X71250790Y-38462256D01*
X70932604Y-38556553D01*
X70674724Y-38765439D01*
X70589514Y-38888528D01*
X65323648Y-38888528D01*
X65341674Y-38852759D01*
X65368820Y-38705535D01*
X65226181Y-38602988D01*
X64670394Y-38721662D01*
X59009557Y-38721662D01*
X59125368Y-38545505D01*
X63675276Y-38545505D01*
X63817915Y-38648052D01*
X64373702Y-38529378D01*
X64255028Y-37973591D01*
X64165263Y-37921387D01*
X64499516Y-37921387D01*
X64618190Y-38477174D01*
X65173977Y-38358500D01*
X65262293Y-38206639D01*
X65045647Y-37955244D01*
X64749287Y-37805894D01*
X64602063Y-37778748D01*
X64499516Y-37921387D01*
X64165263Y-37921387D01*
X64103167Y-37885275D01*
X63851772Y-38101921D01*
X63702422Y-38398281D01*
X63675276Y-38545505D01*
X59125368Y-38545505D01*
X62032798Y-34123047D01*
X62052906Y-34073458D01*
X62073279Y-34024188D01*
X62073278Y-34023216D01*
X62073646Y-34022309D01*
X62073246Y-33968813D01*
X62073214Y-33915483D01*
X62072840Y-33914582D01*
X62072833Y-33913608D01*
X62052014Y-33864389D01*
X62031554Y-33815079D01*
X61895448Y-33611646D01*
X66893178Y-33611646D01*
X66990924Y-33928791D01*
X67202597Y-34184388D01*
X67326604Y-34268257D01*
X67393134Y-34228813D01*
X67722636Y-34228813D01*
X67826377Y-34370585D01*
X68143522Y-34272839D01*
X68399119Y-34061166D01*
X68482988Y-33937159D01*
X68393397Y-33786046D01*
X67836633Y-33672049D01*
X67722636Y-34228813D01*
X67393134Y-34228813D01*
X67477717Y-34178666D01*
X67591714Y-33621902D01*
X67034950Y-33507905D01*
X66893178Y-33611646D01*
X61895448Y-33611646D01*
X61771998Y-33427130D01*
X67886780Y-33427130D01*
X68443544Y-33541127D01*
X68585316Y-33437386D01*
X68487570Y-33120241D01*
X68275897Y-32864644D01*
X68151890Y-32780775D01*
X68000777Y-32870366D01*
X67886780Y-33427130D01*
X61771998Y-33427130D01*
X61561076Y-33111873D01*
X66995506Y-33111873D01*
X67085097Y-33262986D01*
X67641861Y-33376983D01*
X67755858Y-32820219D01*
X67652117Y-32678447D01*
X67334972Y-32776193D01*
X67079375Y-32987866D01*
X66995506Y-33111873D01*
X61561076Y-33111873D01*
X60511985Y-31543842D01*
X65314049Y-31543842D01*
X65322655Y-31585653D01*
X65412655Y-31755653D01*
X65419851Y-31766782D01*
X65489851Y-31856782D01*
X65523959Y-31881612D01*
X65743959Y-31961612D01*
X65777113Y-31965867D01*
X66097113Y-31935867D01*
X66115629Y-31931761D01*
X66535629Y-31781761D01*
X66544078Y-31778155D01*
X66784078Y-31658155D01*
X66792268Y-31653402D01*
X66822268Y-31633402D01*
X66828133Y-31629073D01*
X67098133Y-31409073D01*
X67105211Y-31402518D01*
X67495211Y-30992518D01*
X67507390Y-30975567D01*
X67697390Y-30615567D01*
X67706163Y-30582380D01*
X67716163Y-30262380D01*
X67706160Y-30222194D01*
X67626160Y-30082194D01*
X67613882Y-30066118D01*
X67573882Y-30026118D01*
X67549646Y-30009803D01*
X67520000Y-30003800D01*
X67420000Y-30003800D01*
X67390582Y-30009708D01*
X67365552Y-30026691D01*
X67349101Y-30052074D01*
X67343823Y-30081858D01*
X67353449Y-30476519D01*
X67273475Y-30680898D01*
X66957677Y-31063683D01*
X66726827Y-31227201D01*
X66611298Y-31304221D01*
X66291188Y-31469126D01*
X65948618Y-31573800D01*
X65814675Y-31573800D01*
X65801814Y-31568655D01*
X65718917Y-31433007D01*
X65733055Y-31319910D01*
X65973294Y-31005750D01*
X66192906Y-30852977D01*
X66225630Y-30831160D01*
X66384302Y-30864565D01*
X66414271Y-30864852D01*
X66442268Y-30853402D01*
X66472268Y-30833402D01*
X66490960Y-30815720D01*
X66520960Y-30775720D01*
X66530197Y-30759646D01*
X66536200Y-30730000D01*
X66536200Y-30630000D01*
X66534353Y-30613323D01*
X66522006Y-30585710D01*
X66372006Y-30375710D01*
X66341532Y-30350630D01*
X66231532Y-30300630D01*
X66209221Y-30294360D01*
X66179066Y-30296732D01*
X66109066Y-30316732D01*
X66094659Y-30322491D01*
X66071179Y-30341559D01*
X65934068Y-30508050D01*
X65487357Y-30934908D01*
X65475574Y-30949310D01*
X65355574Y-31139310D01*
X65344049Y-31173842D01*
X65314049Y-31543842D01*
X60511985Y-31543842D01*
X59523837Y-30066899D01*
X64654113Y-30066899D01*
X64674113Y-30286899D01*
X64690083Y-30327078D01*
X64800083Y-30467078D01*
X64817631Y-30483335D01*
X64845610Y-30494829D01*
X65105610Y-30544829D01*
X65126875Y-30545889D01*
X65155859Y-30537235D01*
X65305859Y-30457235D01*
X65306857Y-30456693D01*
X65686857Y-30246693D01*
X65691206Y-30244098D01*
X66111206Y-29974098D01*
X66111626Y-29973826D01*
X66801626Y-29523826D01*
X66819502Y-29507602D01*
X66859502Y-29457602D01*
X66875291Y-29421736D01*
X66873925Y-29391519D01*
X66863925Y-29351519D01*
X66853402Y-29327732D01*
X66833402Y-29297732D01*
X66809205Y-29274659D01*
X66759205Y-29244659D01*
X66718338Y-29233818D01*
X66688830Y-29240467D01*
X66398830Y-29370467D01*
X66389614Y-29375383D01*
X66149614Y-29525383D01*
X66148259Y-29526250D01*
X65311965Y-30073824D01*
X65072803Y-30193404D01*
X65055938Y-30170917D01*
X64959370Y-29958468D01*
X64944621Y-29936868D01*
X64919646Y-29919803D01*
X64890000Y-29913800D01*
X64760000Y-29913800D01*
X64732680Y-29918866D01*
X64707157Y-29935099D01*
X64689961Y-29959983D01*
X64659961Y-30029983D01*
X64654113Y-30066899D01*
X59523837Y-30066899D01*
X58195520Y-28081519D01*
X62796075Y-28081519D01*
X62797014Y-28121896D01*
X62827014Y-28221896D01*
X62831845Y-28234078D01*
X62851845Y-28274078D01*
X62862516Y-28290020D01*
X62886506Y-28308444D01*
X62915773Y-28316083D01*
X63068811Y-28324585D01*
X63009040Y-28404280D01*
X63000383Y-28419019D01*
X62993814Y-28448545D01*
X62999250Y-28478300D01*
X63019250Y-28528300D01*
X63026598Y-28542268D01*
X63066598Y-28602268D01*
X63076118Y-28613882D01*
X63106118Y-28643882D01*
X63134527Y-28661816D01*
X63164475Y-28666069D01*
X63334475Y-28656069D01*
X63356041Y-28651612D01*
X63493613Y-28601586D01*
X63610857Y-28743159D01*
X63734864Y-28827028D01*
X63885977Y-28737437D01*
X63954389Y-28403310D01*
X64242973Y-28240197D01*
X64235930Y-28274596D01*
X64161648Y-28348878D01*
X64210681Y-28397911D01*
X64130896Y-28787584D01*
X64203641Y-28886998D01*
X64072145Y-29040410D01*
X64060813Y-29058068D01*
X63940813Y-29318068D01*
X63933800Y-29350000D01*
X63933800Y-29470000D01*
X63936055Y-29488401D01*
X63949040Y-29515720D01*
X64009040Y-29595720D01*
X64011462Y-29598782D01*
X64061462Y-29658782D01*
X64097271Y-29682731D01*
X64257271Y-29732731D01*
X64280000Y-29736200D01*
X64380000Y-29736200D01*
X64418585Y-29725709D01*
X64441110Y-29705520D01*
X64450752Y-29685060D01*
X64475618Y-29708002D01*
X64504784Y-29716021D01*
X64534771Y-29712061D01*
X64854771Y-29602061D01*
X64864707Y-29597837D01*
X65294707Y-29377837D01*
X65303374Y-29372651D01*
X65693374Y-29102651D01*
X65706787Y-29090810D01*
X66046787Y-28710810D01*
X66060338Y-28689308D01*
X66160338Y-28449308D01*
X66165887Y-28426899D01*
X66175887Y-28316899D01*
X66175013Y-28296600D01*
X66163889Y-28268472D01*
X66033889Y-28068472D01*
X66019221Y-28051830D01*
X65889221Y-27941830D01*
X65848415Y-27924266D01*
X65578415Y-27894266D01*
X65560913Y-27894344D01*
X65532194Y-27903840D01*
X65392194Y-27983840D01*
X65388374Y-27986174D01*
X64928374Y-28286174D01*
X64927732Y-28286598D01*
X64812633Y-28363331D01*
X64801657Y-28344817D01*
X64624141Y-28308471D01*
X64433713Y-28118043D01*
X64554720Y-28039070D01*
X64851804Y-28099898D01*
X64993576Y-27996157D01*
X64931096Y-27793435D01*
X65221646Y-27603813D01*
X65228133Y-27599073D01*
X65498133Y-27379073D01*
X65511110Y-27365520D01*
X65524005Y-27338158D01*
X65525239Y-27307936D01*
X65514617Y-27279614D01*
X65464617Y-27199614D01*
X65448605Y-27181315D01*
X65421944Y-27167028D01*
X65391825Y-27164240D01*
X65362994Y-27173389D01*
X65285900Y-27216219D01*
X65220549Y-27224388D01*
X65184508Y-27238870D01*
X64780385Y-27539612D01*
X64684157Y-27423415D01*
X64560150Y-27339546D01*
X64409037Y-27429137D01*
X64324965Y-27839746D01*
X64033855Y-28012839D01*
X63780242Y-28135683D01*
X63773467Y-28134296D01*
X63861602Y-28048832D01*
X63881916Y-28069146D01*
X64021224Y-27929838D01*
X64050121Y-27935754D01*
X64059084Y-27891978D01*
X64133366Y-27817696D01*
X64114150Y-27798480D01*
X64120197Y-27789646D01*
X64126200Y-27760000D01*
X64126200Y-27700000D01*
X64113402Y-27657732D01*
X64108539Y-27650438D01*
X64164118Y-27378990D01*
X64126658Y-27327798D01*
X65019387Y-26568029D01*
X65038155Y-26544078D01*
X65088155Y-26444078D01*
X65094507Y-26425975D01*
X65094852Y-26395729D01*
X65083402Y-26367732D01*
X65043402Y-26307732D01*
X65025720Y-26289040D01*
X64985720Y-26259040D01*
X64955304Y-26245353D01*
X64925056Y-26245280D01*
X64875056Y-26255280D01*
X64842323Y-26270558D01*
X63882323Y-27040558D01*
X63880121Y-27042393D01*
X63060121Y-27752393D01*
X63053922Y-27758408D01*
X62823922Y-28008408D01*
X62806075Y-28041519D01*
X62796075Y-28081519D01*
X58195520Y-28081519D01*
X56582511Y-25670623D01*
X57677893Y-27231910D01*
X57739596Y-27292103D01*
X57825266Y-27327041D01*
X57917780Y-27325896D01*
X58002560Y-27288847D01*
X59962647Y-25913672D01*
X61644063Y-25913672D01*
X61651845Y-25954078D01*
X61741845Y-26134078D01*
X61749851Y-26146782D01*
X61819851Y-26236782D01*
X61853959Y-26261612D01*
X62073959Y-26341612D01*
X62109451Y-26345612D01*
X62429451Y-26305612D01*
X62444097Y-26302290D01*
X62864097Y-26162290D01*
X62874078Y-26158155D01*
X63114078Y-26038155D01*
X63122268Y-26033402D01*
X63152268Y-26013402D01*
X63158133Y-26009073D01*
X63428133Y-25789073D01*
X63435211Y-25782518D01*
X63825211Y-25372518D01*
X63837390Y-25355567D01*
X64027390Y-24995567D01*
X64036163Y-24962380D01*
X64046163Y-24642380D01*
X64037235Y-24604141D01*
X63957235Y-24454141D01*
X63935720Y-24429040D01*
X63895720Y-24399040D01*
X63879646Y-24389803D01*
X63850000Y-24383800D01*
X63750000Y-24383800D01*
X63720539Y-24389726D01*
X63695519Y-24406724D01*
X63679084Y-24432118D01*
X63673824Y-24461904D01*
X63683440Y-24846542D01*
X63603303Y-25051337D01*
X63287294Y-25443954D01*
X63058700Y-25605874D01*
X62942565Y-25673620D01*
X62620315Y-25849392D01*
X62278618Y-25953800D01*
X62151107Y-25953800D01*
X62134368Y-25943757D01*
X62048885Y-25811646D01*
X62063165Y-25690263D01*
X62302830Y-25386073D01*
X62522906Y-25232977D01*
X62555630Y-25211160D01*
X62714302Y-25244565D01*
X62744271Y-25244852D01*
X62772268Y-25233402D01*
X62802268Y-25213402D01*
X62820960Y-25195720D01*
X62850960Y-25155720D01*
X62860197Y-25139646D01*
X62866200Y-25110000D01*
X62866200Y-25010000D01*
X62853402Y-24967732D01*
X62753402Y-24817732D01*
X62748538Y-24811218D01*
X62698538Y-24751218D01*
X62671532Y-24730630D01*
X62561532Y-24680630D01*
X62535927Y-24674031D01*
X62505903Y-24677710D01*
X62445903Y-24697710D01*
X62411179Y-24721559D01*
X62274622Y-24887378D01*
X61818621Y-25303727D01*
X61804659Y-25320795D01*
X61684659Y-25520795D01*
X61674063Y-25553672D01*
X61644063Y-25913672D01*
X59962647Y-25913672D01*
X60949593Y-25221242D01*
X61009786Y-25159539D01*
X61044724Y-25073869D01*
X61043579Y-24981355D01*
X61006530Y-24896575D01*
X60691043Y-24446899D01*
X60984113Y-24446899D01*
X61004113Y-24666899D01*
X61020083Y-24707078D01*
X61130083Y-24847078D01*
X61147631Y-24863335D01*
X61175610Y-24874829D01*
X61435610Y-24924829D01*
X61456875Y-24925889D01*
X61485859Y-24917235D01*
X61635859Y-24837235D01*
X61636857Y-24836693D01*
X62016857Y-24626693D01*
X62021206Y-24624098D01*
X62441206Y-24354098D01*
X62441626Y-24353826D01*
X63131626Y-23903826D01*
X63149502Y-23887602D01*
X63189502Y-23837602D01*
X63204647Y-23805304D01*
X63204720Y-23775056D01*
X63194720Y-23725056D01*
X63183402Y-23697732D01*
X63163402Y-23667732D01*
X63153596Y-23655834D01*
X63128300Y-23639250D01*
X63078300Y-23619250D01*
X63050554Y-23613802D01*
X63020865Y-23619590D01*
X62730865Y-23739590D01*
X62717732Y-23746598D01*
X62478290Y-23906226D01*
X61641399Y-24444228D01*
X61401772Y-24572029D01*
X61385938Y-24550917D01*
X61289370Y-24338468D01*
X61278535Y-24321214D01*
X61254943Y-24302284D01*
X61225844Y-24294024D01*
X61095844Y-24284024D01*
X61059430Y-24290201D01*
X61034682Y-24307594D01*
X61018652Y-24333244D01*
X60988652Y-24413244D01*
X60984113Y-24446899D01*
X60691043Y-24446899D01*
X60390260Y-24018183D01*
X60464722Y-24018183D01*
X60466055Y-24048401D01*
X60479040Y-24075720D01*
X60539040Y-24155720D01*
X60557732Y-24173402D01*
X60617732Y-24213402D01*
X60650052Y-24225548D01*
X60680228Y-24223466D01*
X60707217Y-24209808D01*
X61465615Y-23611073D01*
X61774141Y-23393290D01*
X61809066Y-23403268D01*
X61850394Y-23403420D01*
X62390394Y-23253420D01*
X62395439Y-23251828D01*
X62875439Y-23081828D01*
X62889205Y-23075341D01*
X62939205Y-23045341D01*
X62956519Y-23031108D01*
X62971950Y-23005093D01*
X62976044Y-22975123D01*
X62968155Y-22945922D01*
X62938155Y-22885922D01*
X62927909Y-22870472D01*
X62904078Y-22851845D01*
X62844078Y-22821845D01*
X62824280Y-22815150D01*
X62794034Y-22815491D01*
X62374034Y-22905491D01*
X62367733Y-22907126D01*
X62174499Y-22966170D01*
X62301196Y-22795404D01*
X62303659Y-22791881D01*
X62553659Y-22411881D01*
X62565612Y-22379451D01*
X62575612Y-22299451D01*
X62575576Y-22280267D01*
X62565835Y-22251630D01*
X62545720Y-22229040D01*
X62505720Y-22199040D01*
X62489646Y-22189803D01*
X62460000Y-22183800D01*
X62360000Y-22183800D01*
X62319080Y-22195719D01*
X62297295Y-22216704D01*
X62009293Y-22633811D01*
X61557661Y-23173805D01*
X61386182Y-23297651D01*
X60787009Y-23707086D01*
X60779133Y-23713264D01*
X60489133Y-23973264D01*
X60475250Y-23989826D01*
X60464722Y-24018183D01*
X60390260Y-24018183D01*
X59485916Y-22729189D01*
X59709703Y-22729189D01*
X59807449Y-23046334D01*
X59849396Y-23096985D01*
X59829678Y-23116703D01*
X59927606Y-23214631D01*
X59926118Y-23216118D01*
X59910383Y-23239019D01*
X59903814Y-23268545D01*
X59909250Y-23298300D01*
X59929250Y-23348300D01*
X59936598Y-23362268D01*
X59996598Y-23452268D01*
X60012636Y-23469692D01*
X60039591Y-23483416D01*
X60069762Y-23485572D01*
X60098395Y-23475820D01*
X60568842Y-23201392D01*
X60539161Y-23346356D01*
X60642902Y-23488128D01*
X60960047Y-23390382D01*
X61215644Y-23178709D01*
X61299513Y-23054702D01*
X61209922Y-22903589D01*
X61100958Y-22881279D01*
X61166967Y-22820347D01*
X61591580Y-22543855D01*
X61595720Y-22540960D01*
X61675720Y-22480960D01*
X61691909Y-22464426D01*
X61704316Y-22436840D01*
X61704692Y-22420526D01*
X61725144Y-22426045D01*
X61755112Y-22421943D01*
X61781124Y-22406505D01*
X61991124Y-22216505D01*
X62009187Y-22191932D01*
X62129187Y-21931932D01*
X62135678Y-21891097D01*
X62115678Y-21721097D01*
X62108155Y-21695922D01*
X62068155Y-21615922D01*
X62059502Y-21602398D01*
X62019502Y-21552398D01*
X61996489Y-21533104D01*
X61886489Y-21473104D01*
X61843101Y-21464113D01*
X61623101Y-21484113D01*
X61599983Y-21489961D01*
X61389983Y-21579961D01*
X61368742Y-21593617D01*
X61258742Y-21693617D01*
X61235959Y-21731990D01*
X61156329Y-22059355D01*
X61092422Y-21982187D01*
X60968415Y-21898318D01*
X60817302Y-21987909D01*
X60703305Y-22544673D01*
X60881683Y-22581196D01*
X60867994Y-22595710D01*
X60831969Y-22646145D01*
X60684639Y-22698144D01*
X60667732Y-22706598D01*
X60471440Y-22837459D01*
X60402323Y-22768342D01*
X60408239Y-22739445D01*
X60364463Y-22730482D01*
X60290181Y-22656200D01*
X60241148Y-22705233D01*
X59851475Y-22625448D01*
X59709703Y-22729189D01*
X59485916Y-22729189D01*
X59283525Y-22440714D01*
X59221822Y-22380521D01*
X59136152Y-22345583D01*
X59043638Y-22346728D01*
X58958858Y-22383777D01*
X57856256Y-23157350D01*
X57795447Y-23010182D01*
X57660932Y-22875433D01*
X57485090Y-22802417D01*
X57294691Y-22802250D01*
X57118722Y-22874959D01*
X56983973Y-23009474D01*
X56910957Y-23185316D01*
X56910790Y-23375715D01*
X56983499Y-23551684D01*
X57111473Y-23679881D01*
X56011825Y-24451382D01*
X55951632Y-24513085D01*
X55916694Y-24598755D01*
X55917661Y-24676899D01*
X53993340Y-21800695D01*
X59264554Y-21800695D01*
X59274659Y-21829205D01*
X59303156Y-21876700D01*
X59331845Y-21934078D01*
X59346118Y-21953882D01*
X59386118Y-21993882D01*
X59404984Y-22007678D01*
X59434073Y-22015969D01*
X59464097Y-22012290D01*
X59524097Y-21992290D01*
X59544290Y-21982006D01*
X60033651Y-21632462D01*
X60340919Y-21422226D01*
X60411845Y-21564078D01*
X60416025Y-21571396D01*
X60486888Y-21680912D01*
X60227224Y-21870397D01*
X60151497Y-21893736D01*
X59895900Y-22105409D01*
X59821947Y-22214755D01*
X59790037Y-22242466D01*
X59774702Y-22260725D01*
X59764566Y-22289224D01*
X59754566Y-22359224D01*
X59756666Y-22390702D01*
X59770498Y-22417602D01*
X59810498Y-22467602D01*
X59816118Y-22473882D01*
X59856118Y-22513882D01*
X59884907Y-22531950D01*
X59914877Y-22536044D01*
X59944078Y-22528155D01*
X60024078Y-22488155D01*
X60035897Y-22480827D01*
X60111792Y-22423561D01*
X60458386Y-22494526D01*
X60538901Y-22101287D01*
X61135897Y-21650827D01*
X61139906Y-21647584D01*
X61589906Y-21257584D01*
X61613684Y-21219421D01*
X61615434Y-21189224D01*
X61605434Y-21119224D01*
X61593402Y-21087732D01*
X61573402Y-21057732D01*
X61538745Y-21029430D01*
X61509024Y-21023806D01*
X61479458Y-21030189D01*
X61319458Y-21100189D01*
X61309614Y-21105383D01*
X60989614Y-21305383D01*
X60981867Y-21310927D01*
X60780931Y-21474653D01*
X60755820Y-21431605D01*
X60755341Y-21430795D01*
X60700862Y-21339996D01*
X60669511Y-21222433D01*
X60674455Y-21207603D01*
X60864290Y-21072006D01*
X60869590Y-21067855D01*
X61219590Y-20767855D01*
X61243416Y-20730409D01*
X61245572Y-20700238D01*
X61235820Y-20671605D01*
X61165820Y-20551605D01*
X61142834Y-20526979D01*
X61114941Y-20515279D01*
X61084693Y-20515353D01*
X61056857Y-20527189D01*
X60067507Y-21206742D01*
X59428192Y-21626293D01*
X59424280Y-21629040D01*
X59344280Y-21689040D01*
X59342398Y-21690498D01*
X59292398Y-21730498D01*
X59279728Y-21743377D01*
X59266338Y-21770499D01*
X59264554Y-21800695D01*
X53993340Y-21800695D01*
X53608458Y-21225429D01*
X58473994Y-21225429D01*
X58483994Y-21365429D01*
X58494180Y-21398395D01*
X58564180Y-21518395D01*
X58576118Y-21533882D01*
X58616118Y-21573882D01*
X58634984Y-21587678D01*
X58664073Y-21595969D01*
X58694097Y-21592290D01*
X58754097Y-21572290D01*
X58777602Y-21559502D01*
X58827602Y-21519502D01*
X58850197Y-21489646D01*
X58856200Y-21460000D01*
X58856200Y-21181986D01*
X58948607Y-20895524D01*
X59052435Y-20757086D01*
X59120386Y-20714617D01*
X59124819Y-20711626D01*
X59227448Y-20636987D01*
X59376310Y-20575691D01*
X59945871Y-20556384D01*
X60359224Y-20615434D01*
X60396756Y-20611348D01*
X60556756Y-20551348D01*
X60569734Y-20545020D01*
X60749734Y-20435020D01*
X60770530Y-20416288D01*
X60900530Y-20246288D01*
X60914329Y-20216784D01*
X60984329Y-19906784D01*
X60986044Y-19885123D01*
X60978155Y-19855922D01*
X60908155Y-19715922D01*
X60903402Y-19707732D01*
X60883402Y-19677732D01*
X60865720Y-19659040D01*
X60825720Y-19629040D01*
X60809646Y-19619803D01*
X60780000Y-19613800D01*
X60670000Y-19613800D01*
X60649298Y-19616666D01*
X60622398Y-19630498D01*
X60572398Y-19670498D01*
X60558315Y-19685262D01*
X60545770Y-19712786D01*
X60544921Y-19743022D01*
X60555902Y-19771206D01*
X60632187Y-19889871D01*
X60624840Y-19992725D01*
X60556409Y-20163803D01*
X60520893Y-20193399D01*
X60416618Y-20233505D01*
X59958127Y-20223953D01*
X59604544Y-20155201D01*
X59575056Y-20155280D01*
X59275056Y-20215280D01*
X59257776Y-20220949D01*
X59107776Y-20290949D01*
X59100795Y-20294659D01*
X58950795Y-20384659D01*
X58941747Y-20391024D01*
X58831747Y-20481024D01*
X58824682Y-20487594D01*
X58644682Y-20677594D01*
X58631257Y-20697123D01*
X58521257Y-20927123D01*
X58514686Y-20948413D01*
X58474686Y-21208413D01*
X58473994Y-21225429D01*
X53608458Y-21225429D01*
X52718600Y-19895397D01*
X52718600Y-18998600D01*
X60903567Y-18998600D01*
X65962129Y-27295036D01*
G36*
X50266768Y-50158407D02*
X50232968Y-50192207D01*
X50266768Y-50226007D01*
X50122768Y-50370007D01*
X49918904Y-50370007D01*
X49774904Y-50226007D01*
X49808704Y-50192207D01*
X49774904Y-50158407D01*
X49918904Y-50014407D01*
X50122768Y-50014407D01*
X50266768Y-50158407D01*
X50266768Y-50158407D01*
G37*
X50266768Y-50158407D02*
X50232968Y-50192207D01*
X50266768Y-50226007D01*
X50122768Y-50370007D01*
X49918904Y-50370007D01*
X49774904Y-50226007D01*
X49808704Y-50192207D01*
X49774904Y-50158407D01*
X49918904Y-50014407D01*
X50122768Y-50014407D01*
X50266768Y-50158407D01*
G36*
X82987362Y-50158407D02*
X82953562Y-50192207D01*
X82987362Y-50226007D01*
X82843362Y-50370007D01*
X82639498Y-50370007D01*
X82495498Y-50226007D01*
X82529298Y-50192207D01*
X82495498Y-50158407D01*
X82639498Y-50014407D01*
X82843362Y-50014407D01*
X82987362Y-50158407D01*
X82987362Y-50158407D01*
G37*
X82987362Y-50158407D02*
X82953562Y-50192207D01*
X82987362Y-50226007D01*
X82843362Y-50370007D01*
X82639498Y-50370007D01*
X82495498Y-50226007D01*
X82529298Y-50192207D01*
X82495498Y-50158407D01*
X82639498Y-50014407D01*
X82843362Y-50014407D01*
X82987362Y-50158407D01*
G36*
X50266768Y-46158407D02*
X50232968Y-46192207D01*
X50266768Y-46226007D01*
X50122768Y-46370007D01*
X49918904Y-46370007D01*
X49774904Y-46226007D01*
X49808704Y-46192207D01*
X49774904Y-46158407D01*
X49918904Y-46014407D01*
X50122768Y-46014407D01*
X50266768Y-46158407D01*
X50266768Y-46158407D01*
G37*
X50266768Y-46158407D02*
X50232968Y-46192207D01*
X50266768Y-46226007D01*
X50122768Y-46370007D01*
X49918904Y-46370007D01*
X49774904Y-46226007D01*
X49808704Y-46192207D01*
X49774904Y-46158407D01*
X49918904Y-46014407D01*
X50122768Y-46014407D01*
X50266768Y-46158407D01*
G36*
X82987362Y-46158407D02*
X82953562Y-46192207D01*
X82987362Y-46226007D01*
X82843362Y-46370007D01*
X82639498Y-46370007D01*
X82495498Y-46226007D01*
X82529298Y-46192207D01*
X82495498Y-46158407D01*
X82639498Y-46014407D01*
X82843362Y-46014407D01*
X82987362Y-46158407D01*
X82987362Y-46158407D01*
G37*
X82987362Y-46158407D02*
X82953562Y-46192207D01*
X82987362Y-46226007D01*
X82843362Y-46370007D01*
X82639498Y-46370007D01*
X82495498Y-46226007D01*
X82529298Y-46192207D01*
X82495498Y-46158407D01*
X82639498Y-46014407D01*
X82843362Y-46014407D01*
X82987362Y-46158407D01*
M02*
