G04 #@! TF.FileFunction,Profile,NP*
%FSLAX46Y46*%
G04 Gerber Fmt 4.6, Leading zero omitted, Abs format (unit mm)*
G04 Created by KiCad (PCBNEW 4.0.0-rc2-stable) date 3/3/2016 3:47:50 PM*
%MOMM*%
G01*
G04 APERTURE LIST*
%ADD10C,0.150000*%
%ADD11C,0.100000*%
G04 APERTURE END LIST*
D10*
D11*
X67500000Y-51160000D02*
X59300000Y-51160000D01*
X59300000Y-51160000D02*
X59300000Y-51150000D01*
X59300000Y-51150000D02*
X46630000Y-51150000D01*
X46630000Y-51150000D02*
X46630000Y-45150000D01*
X46630000Y-45150000D02*
X59300000Y-45150000D01*
X59300000Y-45150000D02*
X59300000Y-26140000D01*
X59300000Y-26140000D02*
X51330000Y-26140000D01*
X51330000Y-26140000D02*
X51330000Y-26140000D01*
X51330000Y-26140000D02*
X51330000Y-18720000D01*
X51330000Y-18720000D02*
X51330000Y-18720000D01*
X51330000Y-18720000D02*
X75420000Y-18720000D01*
X75420000Y-18720000D02*
X75430000Y-18720000D01*
X75430000Y-18720000D02*
X75430000Y-26140000D01*
X75430000Y-26140000D02*
X75420000Y-26140000D01*
X75420000Y-26140000D02*
X67500000Y-26140000D01*
X67500000Y-26140000D02*
X67500000Y-45150000D01*
X67500000Y-45150000D02*
X80120000Y-45150000D01*
X80120000Y-45150000D02*
X80120000Y-51150000D01*
X80120000Y-51150000D02*
X67500000Y-51150000D01*
X67500000Y-51150000D02*
X67500000Y-51160000D01*
X67500000Y-51160000D02*
X67500000Y-51160000D01*
X67500000Y-51160000D02*
X67500000Y-51160000D01*
M02*
