G04 #@! TF.FileFunction,Legend,Top*
%FSLAX46Y46*%
G04 Gerber Fmt 4.6, Leading zero omitted, Abs format (unit mm)*
G04 Created by KiCad (PCBNEW 4.0.0-rc2-stable) date 3/3/2016 3:44:55 PM*
%MOMM*%
G01*
G04 APERTURE LIST*
%ADD10C,0.150000*%
%ADD11C,0.025400*%
G04 APERTURE END LIST*
D10*
D11*
G36*
X67317710Y-25811921D02*
X63606773Y-25811921D01*
X63601832Y-25812922D01*
X63597734Y-25815700D01*
X63523516Y-25890896D01*
X63520757Y-25895115D01*
X63519855Y-25899817D01*
X63519855Y-43932045D01*
X63520856Y-43936986D01*
X63523575Y-43941025D01*
X63597793Y-44015244D01*
X63601994Y-44018031D01*
X63606773Y-44018964D01*
X67641925Y-44018964D01*
X67641925Y-51016025D01*
X51472012Y-51016025D01*
X51472012Y-44018964D01*
X55510094Y-44018964D01*
X55515035Y-44017963D01*
X55519074Y-44015244D01*
X55593292Y-43941025D01*
X55596079Y-43936824D01*
X55597012Y-43932045D01*
X55597012Y-25899817D01*
X55596011Y-25894876D01*
X55593351Y-25890896D01*
X55519133Y-25815700D01*
X55514950Y-25812886D01*
X55510094Y-25811921D01*
X51797208Y-25811921D01*
X51797208Y-18862712D01*
X67317710Y-18862712D01*
X67317710Y-25811921D01*
X67317710Y-25811921D01*
G37*
X67317710Y-25811921D02*
X63606773Y-25811921D01*
X63601832Y-25812922D01*
X63597734Y-25815700D01*
X63523516Y-25890896D01*
X63520757Y-25895115D01*
X63519855Y-25899817D01*
X63519855Y-43932045D01*
X63520856Y-43936986D01*
X63523575Y-43941025D01*
X63597793Y-44015244D01*
X63601994Y-44018031D01*
X63606773Y-44018964D01*
X67641925Y-44018964D01*
X67641925Y-51016025D01*
X51472012Y-51016025D01*
X51472012Y-44018964D01*
X55510094Y-44018964D01*
X55515035Y-44017963D01*
X55519074Y-44015244D01*
X55593292Y-43941025D01*
X55596079Y-43936824D01*
X55597012Y-43932045D01*
X55597012Y-25899817D01*
X55596011Y-25894876D01*
X55593351Y-25890896D01*
X55519133Y-25815700D01*
X55514950Y-25812886D01*
X55510094Y-25811921D01*
X51797208Y-25811921D01*
X51797208Y-18862712D01*
X67317710Y-18862712D01*
X67317710Y-25811921D01*
M02*
