G04 #@! TF.FileFunction,Profile,NP*
%FSLAX46Y46*%
G04 Gerber Fmt 4.6, Leading zero omitted, Abs format (unit mm)*
G04 Created by KiCad (PCBNEW 4.0.0-rc2-stable) date 3/3/2016 3:48:47 PM*
%MOMM*%
G01*
G04 APERTURE LIST*
%ADD10C,0.150000*%
%ADD11C,0.100000*%
G04 APERTURE END LIST*
D10*
D11*
X78900000Y-51430000D02*
X73060000Y-36660000D01*
X73060000Y-36660000D02*
X72970000Y-36660000D01*
X72970000Y-36660000D02*
X67550000Y-51430000D01*
X67550000Y-51430000D02*
X62870000Y-51430000D01*
X62870000Y-51430000D02*
X62730000Y-51060000D01*
X62730000Y-51060000D02*
X62730000Y-51150000D01*
X62730000Y-51150000D02*
X46630000Y-51150000D01*
X46630000Y-51150000D02*
X46630000Y-45150000D01*
X46630000Y-45150000D02*
X60560000Y-45150000D01*
X60560000Y-45150000D02*
X51330000Y-20020000D01*
X51330000Y-20020000D02*
X51330000Y-18720000D01*
X51330000Y-18720000D02*
X51330000Y-18720000D01*
X51330000Y-18720000D02*
X60230000Y-18720000D01*
X60230000Y-18720000D02*
X63290000Y-27570000D01*
X63290000Y-27570000D02*
X65700000Y-37020000D01*
X65700000Y-37020000D02*
X65830000Y-37020000D01*
X65830000Y-37020000D02*
X71390000Y-19230000D01*
X71390000Y-19230000D02*
X74730000Y-19230000D01*
X74730000Y-19230000D02*
X80570000Y-37020000D01*
X80570000Y-37020000D02*
X80710000Y-37020000D01*
X80710000Y-37020000D02*
X82840000Y-27570000D01*
X82840000Y-27570000D02*
X85890000Y-18720000D01*
X85890000Y-18720000D02*
X94840000Y-18720000D01*
X94840000Y-18720000D02*
X94840000Y-18720000D01*
X94840000Y-18720000D02*
X94840000Y-20020000D01*
X94840000Y-20020000D02*
X85570000Y-45150000D01*
X85570000Y-45150000D02*
X99540000Y-45150000D01*
X99540000Y-45150000D02*
X99540000Y-51150000D01*
X99540000Y-51150000D02*
X83440000Y-51150000D01*
X83440000Y-51150000D02*
X83440000Y-50940000D01*
X83440000Y-50940000D02*
X83260000Y-51430000D01*
X83260000Y-51430000D02*
X78900000Y-51430000D01*
X78900000Y-51430000D02*
X78900000Y-51430000D01*
X78900000Y-51430000D02*
X78900000Y-51430000D01*
M02*
