G04 #@! TF.FileFunction,Copper,L1,Top,Signal*
%FSLAX46Y46*%
G04 Gerber Fmt 4.6, Leading zero omitted, Abs format (unit mm)*
G04 Created by KiCad (PCBNEW 4.0.0-rc2-stable) date 3/3/2016 3:47:34 PM*
%MOMM*%
G01*
G04 APERTURE LIST*
%ADD10C,0.150000*%
%ADD11C,0.500000*%
%ADD12R,4.000000X1.000000*%
%ADD13C,0.600000*%
%ADD14C,0.254000*%
%ADD15C,0.152400*%
G04 APERTURE END LIST*
D10*
G36*
X55044068Y-44379281D02*
X56526152Y-43357798D01*
X56809898Y-43769487D01*
X55327814Y-44790970D01*
X55044068Y-44379281D01*
X55044068Y-44379281D01*
G37*
G36*
X55967531Y-46159679D02*
X57861304Y-44854451D01*
X58042901Y-45117933D01*
X56149128Y-46423161D01*
X55967531Y-46159679D01*
X55967531Y-46159679D01*
G37*
G36*
X55121969Y-44932843D02*
X57015743Y-43627615D01*
X57469735Y-44286319D01*
X55575961Y-45591547D01*
X55121969Y-44932843D01*
X55121969Y-44932843D01*
G37*
D11*
X56801541Y-43228719D03*
D10*
G36*
X60666661Y-48644401D02*
X61135957Y-46906655D01*
X61618665Y-47037015D01*
X61149369Y-48774761D01*
X60666661Y-48644401D01*
X60666661Y-48644401D01*
G37*
G36*
X62522656Y-49404587D02*
X63122312Y-47184134D01*
X63431244Y-47267565D01*
X62831588Y-49488018D01*
X62522656Y-49404587D01*
X62522656Y-49404587D01*
G37*
G36*
X61084188Y-49016115D02*
X61683844Y-46795661D01*
X62456176Y-47004237D01*
X61856520Y-49224691D01*
X61084188Y-49016115D01*
X61084188Y-49016115D01*
G37*
D11*
X61262444Y-46630067D03*
D10*
G36*
X67968090Y-48723692D02*
X67302479Y-47051280D01*
X67767038Y-46866388D01*
X68432649Y-48538800D01*
X67968090Y-48723692D01*
X67968090Y-48723692D01*
G37*
G36*
X69909481Y-48220101D02*
X69058977Y-46083130D01*
X69356295Y-45964799D01*
X70206799Y-48101770D01*
X69909481Y-48220101D01*
X69909481Y-48220101D01*
G37*
G36*
X68525096Y-48771079D02*
X67674592Y-46634108D01*
X68417886Y-46338281D01*
X69268390Y-48475252D01*
X68525096Y-48771079D01*
X68525096Y-48771079D01*
G37*
D11*
X67237999Y-46754055D03*
D10*
G36*
X74159840Y-44422181D02*
X72379587Y-44156286D01*
X72453446Y-43661771D01*
X74233699Y-43927666D01*
X74159840Y-44422181D01*
X74159840Y-44422181D01*
G37*
G36*
X74701058Y-42490943D02*
X72426290Y-42151188D01*
X72473560Y-41834699D01*
X74748328Y-42174454D01*
X74701058Y-42490943D01*
X74701058Y-42490943D01*
G37*
G36*
X74480956Y-43964596D02*
X72206189Y-43624842D01*
X72324364Y-42833618D01*
X74599131Y-43173372D01*
X74480956Y-43964596D01*
X74480956Y-43964596D01*
G37*
D11*
X72090264Y-44062519D03*
D10*
G36*
X73513507Y-37306246D02*
X72156658Y-38489022D01*
X71828109Y-38112120D01*
X73184958Y-36929344D01*
X73513507Y-37306246D01*
X73513507Y-37306246D01*
G37*
G36*
X72394334Y-35641900D02*
X70660581Y-37153224D01*
X70450310Y-36912006D01*
X72184063Y-35400682D01*
X72394334Y-35641900D01*
X72394334Y-35641900D01*
G37*
G36*
X73373409Y-36765069D02*
X71639657Y-38276394D01*
X71113979Y-37673349D01*
X72847731Y-36162024D01*
X73373409Y-36765069D01*
X73373409Y-36765069D01*
G37*
D11*
X71897661Y-38648461D03*
D10*
G36*
X67093001Y-34314416D02*
X66912161Y-36105309D01*
X66414691Y-36055076D01*
X66595531Y-34264183D01*
X67093001Y-34314416D01*
X67093001Y-34314416D01*
G37*
G36*
X65138187Y-33865753D02*
X64907114Y-36154116D01*
X64588733Y-36121967D01*
X64819806Y-33833604D01*
X65138187Y-33865753D01*
X65138187Y-33865753D01*
G37*
G36*
X66620647Y-34015448D02*
X66389575Y-36303811D01*
X65593623Y-36223438D01*
X65824695Y-33935075D01*
X66620647Y-34015448D01*
X66620647Y-34015448D01*
G37*
D11*
X66832275Y-36398767D03*
D10*
G36*
X60783675Y-33701762D02*
X60047929Y-35344528D01*
X59591605Y-35140154D01*
X60327351Y-33497388D01*
X60783675Y-33701762D01*
X60783675Y-33701762D01*
G37*
G36*
X59069693Y-32660192D02*
X58129574Y-34759281D01*
X57837527Y-34628482D01*
X58777646Y-32529393D01*
X59069693Y-32660192D01*
X59069693Y-32660192D01*
G37*
G36*
X60429538Y-33269227D02*
X59489418Y-35368316D01*
X58759300Y-35041317D01*
X59699420Y-32942228D01*
X60429538Y-33269227D01*
X60429538Y-33269227D01*
G37*
D11*
X59879672Y-35597884D03*
D10*
G36*
X57032345Y-29923527D02*
X55239916Y-30088440D01*
X55194107Y-29590543D01*
X56986536Y-29425630D01*
X57032345Y-29923527D01*
X57032345Y-29923527D01*
G37*
G36*
X57098974Y-27918992D02*
X54808648Y-28129714D01*
X54779330Y-27811060D01*
X57069656Y-27600338D01*
X57098974Y-27918992D01*
X57098974Y-27918992D01*
G37*
G36*
X57235486Y-29402726D02*
X54945159Y-29613448D01*
X54871864Y-28816812D01*
X57162191Y-28606090D01*
X57235486Y-29402726D01*
X57235486Y-29402726D01*
G37*
D11*
X54936597Y-30066136D03*
D10*
G36*
X58572312Y-24670935D02*
X57838987Y-23027088D01*
X58295612Y-22823387D01*
X59028937Y-24467234D01*
X58572312Y-24670935D01*
X58572312Y-24670935D01*
G37*
G36*
X60491528Y-24088516D02*
X59554502Y-21988045D01*
X59846742Y-21857676D01*
X60783768Y-23958147D01*
X60491528Y-24088516D01*
X60491528Y-24088516D01*
G37*
G36*
X59130788Y-24695547D02*
X58193761Y-22595075D01*
X58924360Y-22269153D01*
X59861387Y-24369625D01*
X59130788Y-24695547D01*
X59130788Y-24695547D01*
G37*
D11*
X57762429Y-22732744D03*
D10*
G36*
X64556999Y-23084618D02*
X64700234Y-21290326D01*
X65198649Y-21330114D01*
X65055414Y-23124406D01*
X64556999Y-23084618D01*
X64556999Y-23084618D01*
G37*
G36*
X66520795Y-23492180D02*
X66703818Y-21199474D01*
X67022803Y-21224938D01*
X66839780Y-23517644D01*
X66520795Y-23492180D01*
X66520795Y-23492180D01*
G37*
G36*
X65035520Y-23373613D02*
X65218543Y-21080907D01*
X66016006Y-21144567D01*
X65832983Y-23437273D01*
X65035520Y-23373613D01*
X65035520Y-23373613D01*
G37*
D11*
X64773948Y-20995257D03*
D10*
G36*
X69997174Y-25240285D02*
X71403337Y-24116584D01*
X71715476Y-24507185D01*
X70309313Y-25630886D01*
X69997174Y-25240285D01*
X69997174Y-25240285D01*
G37*
G36*
X71044186Y-26950947D02*
X72840951Y-25515107D01*
X73040720Y-25765091D01*
X71243955Y-27200931D01*
X71044186Y-26950947D01*
X71044186Y-26950947D01*
G37*
G36*
X70114011Y-25786955D02*
X71910776Y-24351115D01*
X72410199Y-24976077D01*
X70613434Y-26411917D01*
X70114011Y-25786955D01*
X70114011Y-25786955D01*
G37*
D11*
X71668911Y-23968361D03*
D12*
X79943790Y-50192200D03*
X79943790Y-48192200D03*
X79943790Y-46192200D03*
D13*
X78943790Y-50192200D03*
X78943790Y-48192200D03*
X78943790Y-46192200D03*
D12*
X49020840Y-46192200D03*
X49020840Y-48192200D03*
X49020840Y-50192200D03*
D13*
X50020840Y-46192200D03*
X50020840Y-48192200D03*
X50020840Y-50192200D03*
D11*
X60855372Y-20780488D03*
D14*
X55930000Y-44070000D02*
X56300000Y-44610000D01*
X55930000Y-44070000D02*
X56300000Y-44610000D01*
X55930000Y-44070000D02*
X56300000Y-44610000D01*
X55930000Y-44070000D02*
X56300000Y-44610000D01*
X55930000Y-44070000D02*
X56300000Y-44610000D01*
X55930000Y-44070000D02*
X56300000Y-44610000D01*
X55930000Y-44070000D02*
X56300000Y-44610000D01*
X55930000Y-44070000D02*
X56300000Y-44610000D01*
X55930000Y-44070000D02*
X56300000Y-44610000D01*
X56300000Y-44610000D02*
X56800000Y-43230000D01*
X56300000Y-44610000D02*
X56800000Y-43230000D01*
X56300000Y-44610000D02*
X56800000Y-43230000D01*
X56300000Y-44610000D02*
X56800000Y-43230000D01*
X56300000Y-44610000D02*
X56800000Y-43230000D01*
X56300000Y-44610000D02*
X56800000Y-43230000D01*
X56300000Y-44610000D02*
X56800000Y-43230000D01*
X56300000Y-44610000D02*
X56800000Y-43230000D01*
X56300000Y-44610000D02*
X56800000Y-43230000D01*
X61140000Y-47840000D02*
X61770000Y-48010000D01*
X61140000Y-47840000D02*
X61770000Y-48010000D01*
X61140000Y-47840000D02*
X61770000Y-48010000D01*
X61140000Y-47840000D02*
X61770000Y-48010000D01*
X61140000Y-47840000D02*
X61770000Y-48010000D01*
X61140000Y-47840000D02*
X61770000Y-48010000D01*
X61140000Y-47840000D02*
X61770000Y-48010000D01*
X61140000Y-47840000D02*
X61770000Y-48010000D01*
X61140000Y-47840000D02*
X61770000Y-48010000D01*
X61770000Y-48010000D02*
X61260000Y-46630000D01*
X61770000Y-48010000D02*
X61260000Y-46630000D01*
X61770000Y-48010000D02*
X61260000Y-46630000D01*
X61770000Y-48010000D02*
X61260000Y-46630000D01*
X61770000Y-48010000D02*
X61260000Y-46630000D01*
X61770000Y-48010000D02*
X61260000Y-46630000D01*
X61770000Y-48010000D02*
X61260000Y-46630000D01*
X61770000Y-48010000D02*
X61260000Y-46630000D01*
X61770000Y-48010000D02*
X61260000Y-46630000D01*
X67870000Y-47800000D02*
X68470000Y-47550000D01*
X67870000Y-47800000D02*
X68470000Y-47550000D01*
X67870000Y-47800000D02*
X68470000Y-47550000D01*
X67870000Y-47800000D02*
X68470000Y-47550000D01*
X67870000Y-47800000D02*
X68470000Y-47550000D01*
X67870000Y-47800000D02*
X68470000Y-47550000D01*
X67870000Y-47800000D02*
X68470000Y-47550000D01*
X67870000Y-47800000D02*
X68470000Y-47550000D01*
X67870000Y-47800000D02*
X68470000Y-47550000D01*
X68470000Y-47550000D02*
X67240000Y-46750000D01*
X68470000Y-47550000D02*
X67240000Y-46750000D01*
X68470000Y-47550000D02*
X67240000Y-46750000D01*
X68470000Y-47550000D02*
X67240000Y-46750000D01*
X68470000Y-47550000D02*
X67240000Y-46750000D01*
X68470000Y-47550000D02*
X67240000Y-46750000D01*
X68470000Y-47550000D02*
X67240000Y-46750000D01*
X68470000Y-47550000D02*
X67240000Y-46750000D01*
X68470000Y-47550000D02*
X67240000Y-46750000D01*
X73310000Y-44040000D02*
X73400000Y-43400000D01*
X73310000Y-44040000D02*
X73400000Y-43400000D01*
X73310000Y-44040000D02*
X73400000Y-43400000D01*
X73310000Y-44040000D02*
X73400000Y-43400000D01*
X73310000Y-44040000D02*
X73400000Y-43400000D01*
X73310000Y-44040000D02*
X73400000Y-43400000D01*
X73310000Y-44040000D02*
X73400000Y-43400000D01*
X73310000Y-44040000D02*
X73400000Y-43400000D01*
X73310000Y-44040000D02*
X73400000Y-43400000D01*
X73400000Y-43400000D02*
X72090000Y-44060000D01*
X73400000Y-43400000D02*
X72090000Y-44060000D01*
X73400000Y-43400000D02*
X72090000Y-44060000D01*
X73400000Y-43400000D02*
X72090000Y-44060000D01*
X73400000Y-43400000D02*
X72090000Y-44060000D01*
X73400000Y-43400000D02*
X72090000Y-44060000D01*
X73400000Y-43400000D02*
X72090000Y-44060000D01*
X73400000Y-43400000D02*
X72090000Y-44060000D01*
X73400000Y-43400000D02*
X72090000Y-44060000D01*
X72670000Y-37710000D02*
X72240000Y-37220000D01*
X72670000Y-37710000D02*
X72240000Y-37220000D01*
X72670000Y-37710000D02*
X72240000Y-37220000D01*
X72670000Y-37710000D02*
X72240000Y-37220000D01*
X72670000Y-37710000D02*
X72240000Y-37220000D01*
X72670000Y-37710000D02*
X72240000Y-37220000D01*
X72670000Y-37710000D02*
X72240000Y-37220000D01*
X72670000Y-37710000D02*
X72240000Y-37220000D01*
X72670000Y-37710000D02*
X72240000Y-37220000D01*
X72240000Y-37220000D02*
X71900000Y-38650000D01*
X72240000Y-37220000D02*
X71900000Y-38650000D01*
X72240000Y-37220000D02*
X71900000Y-38650000D01*
X72240000Y-37220000D02*
X71900000Y-38650000D01*
X72240000Y-37220000D02*
X71900000Y-38650000D01*
X72240000Y-37220000D02*
X71900000Y-38650000D01*
X72240000Y-37220000D02*
X71900000Y-38650000D01*
X72240000Y-37220000D02*
X71900000Y-38650000D01*
X72240000Y-37220000D02*
X71900000Y-38650000D01*
X66750000Y-35180000D02*
X66110000Y-35120000D01*
X66750000Y-35180000D02*
X66110000Y-35120000D01*
X66750000Y-35180000D02*
X66110000Y-35120000D01*
X66750000Y-35180000D02*
X66110000Y-35120000D01*
X66750000Y-35180000D02*
X66110000Y-35120000D01*
X66750000Y-35180000D02*
X66110000Y-35120000D01*
X66750000Y-35180000D02*
X66110000Y-35120000D01*
X66750000Y-35180000D02*
X66110000Y-35120000D01*
X66750000Y-35180000D02*
X66110000Y-35120000D01*
X66110000Y-35120000D02*
X66830000Y-36400000D01*
X66110000Y-35120000D02*
X66830000Y-36400000D01*
X66110000Y-35120000D02*
X66830000Y-36400000D01*
X66110000Y-35120000D02*
X66830000Y-36400000D01*
X66110000Y-35120000D02*
X66830000Y-36400000D01*
X66110000Y-35120000D02*
X66830000Y-36400000D01*
X66110000Y-35120000D02*
X66830000Y-36400000D01*
X66110000Y-35120000D02*
X66830000Y-36400000D01*
X66110000Y-35120000D02*
X66830000Y-36400000D01*
X60190000Y-34420000D02*
X59590000Y-34160000D01*
X60190000Y-34420000D02*
X59590000Y-34160000D01*
X60190000Y-34420000D02*
X59590000Y-34160000D01*
X60190000Y-34420000D02*
X59590000Y-34160000D01*
X60190000Y-34420000D02*
X59590000Y-34160000D01*
X60190000Y-34420000D02*
X59590000Y-34160000D01*
X60190000Y-34420000D02*
X59590000Y-34160000D01*
X60190000Y-34420000D02*
X59590000Y-34160000D01*
X60190000Y-34420000D02*
X59590000Y-34160000D01*
X59590000Y-34160000D02*
X59880000Y-35600000D01*
X59590000Y-34160000D02*
X59880000Y-35600000D01*
X59590000Y-34160000D02*
X59880000Y-35600000D01*
X59590000Y-34160000D02*
X59880000Y-35600000D01*
X59590000Y-34160000D02*
X59880000Y-35600000D01*
X59590000Y-34160000D02*
X59880000Y-35600000D01*
X59590000Y-34160000D02*
X59880000Y-35600000D01*
X59590000Y-34160000D02*
X59880000Y-35600000D01*
X59590000Y-34160000D02*
X59880000Y-35600000D01*
X56110000Y-29760000D02*
X56050000Y-29110000D01*
X56110000Y-29760000D02*
X56050000Y-29110000D01*
X56110000Y-29760000D02*
X56050000Y-29110000D01*
X56110000Y-29760000D02*
X56050000Y-29110000D01*
X56110000Y-29760000D02*
X56050000Y-29110000D01*
X56110000Y-29760000D02*
X56050000Y-29110000D01*
X56110000Y-29760000D02*
X56050000Y-29110000D01*
X56110000Y-29760000D02*
X56050000Y-29110000D01*
X56110000Y-29760000D02*
X56050000Y-29110000D01*
X56050000Y-29110000D02*
X54940000Y-30070000D01*
X56050000Y-29110000D02*
X54940000Y-30070000D01*
X56050000Y-29110000D02*
X54940000Y-30070000D01*
X56050000Y-29110000D02*
X54940000Y-30070000D01*
X56050000Y-29110000D02*
X54940000Y-30070000D01*
X56050000Y-29110000D02*
X54940000Y-30070000D01*
X56050000Y-29110000D02*
X54940000Y-30070000D01*
X56050000Y-29110000D02*
X54940000Y-30070000D01*
X56050000Y-29110000D02*
X54940000Y-30070000D01*
X58430000Y-23750000D02*
X59030000Y-23480000D01*
X58430000Y-23750000D02*
X59030000Y-23480000D01*
X58430000Y-23750000D02*
X59030000Y-23480000D01*
X58430000Y-23750000D02*
X59030000Y-23480000D01*
X58430000Y-23750000D02*
X59030000Y-23480000D01*
X58430000Y-23750000D02*
X59030000Y-23480000D01*
X58430000Y-23750000D02*
X59030000Y-23480000D01*
X58430000Y-23750000D02*
X59030000Y-23480000D01*
X58430000Y-23750000D02*
X59030000Y-23480000D01*
X59030000Y-23480000D02*
X57760000Y-22730000D01*
X59030000Y-23480000D02*
X57760000Y-22730000D01*
X59030000Y-23480000D02*
X57760000Y-22730000D01*
X59030000Y-23480000D02*
X57760000Y-22730000D01*
X59030000Y-23480000D02*
X57760000Y-22730000D01*
X59030000Y-23480000D02*
X57760000Y-22730000D01*
X59030000Y-23480000D02*
X57760000Y-22730000D01*
X59030000Y-23480000D02*
X57760000Y-22730000D01*
X59030000Y-23480000D02*
X57760000Y-22730000D01*
X64880000Y-22210000D02*
X65530000Y-22260000D01*
X64880000Y-22210000D02*
X65530000Y-22260000D01*
X64880000Y-22210000D02*
X65530000Y-22260000D01*
X64880000Y-22210000D02*
X65530000Y-22260000D01*
X64880000Y-22210000D02*
X65530000Y-22260000D01*
X64880000Y-22210000D02*
X65530000Y-22260000D01*
X64880000Y-22210000D02*
X65530000Y-22260000D01*
X64880000Y-22210000D02*
X65530000Y-22260000D01*
X64880000Y-22210000D02*
X65530000Y-22260000D01*
X65530000Y-22260000D02*
X64770000Y-21000000D01*
X65530000Y-22260000D02*
X64770000Y-21000000D01*
X65530000Y-22260000D02*
X64770000Y-21000000D01*
X65530000Y-22260000D02*
X64770000Y-21000000D01*
X65530000Y-22260000D02*
X64770000Y-21000000D01*
X65530000Y-22260000D02*
X64770000Y-21000000D01*
X65530000Y-22260000D02*
X64770000Y-21000000D01*
X65530000Y-22260000D02*
X64770000Y-21000000D01*
X65530000Y-22260000D02*
X64770000Y-21000000D01*
X70860000Y-24870000D02*
X71260000Y-25380000D01*
X70860000Y-24870000D02*
X71260000Y-25380000D01*
X70860000Y-24870000D02*
X71260000Y-25380000D01*
X70860000Y-24870000D02*
X71260000Y-25380000D01*
X70860000Y-24870000D02*
X71260000Y-25380000D01*
X70860000Y-24870000D02*
X71260000Y-25380000D01*
X70860000Y-24870000D02*
X71260000Y-25380000D01*
X70860000Y-24870000D02*
X71260000Y-25380000D01*
X70860000Y-24870000D02*
X71260000Y-25380000D01*
X71260000Y-25380000D02*
X71670000Y-23970000D01*
X71260000Y-25380000D02*
X71670000Y-23970000D01*
X71260000Y-25380000D02*
X71670000Y-23970000D01*
X71260000Y-25380000D02*
X71670000Y-23970000D01*
X71260000Y-25380000D02*
X71670000Y-23970000D01*
X71260000Y-25380000D02*
X71670000Y-23970000D01*
X71260000Y-25380000D02*
X71670000Y-23970000D01*
X71260000Y-25380000D02*
X71670000Y-23970000D01*
X71260000Y-25380000D02*
X71670000Y-23970000D01*
D15*
G36*
X66410983Y-18696576D02*
X68650765Y-19177933D01*
X70737761Y-19971579D01*
X72571946Y-21074043D01*
X74107640Y-22493101D01*
X75290083Y-24227997D01*
X76035919Y-26281470D01*
X76234252Y-28411400D01*
X68906769Y-28411400D01*
X68846562Y-27916364D01*
X68833676Y-27877135D01*
X68824588Y-27836850D01*
X68726981Y-27617233D01*
X70828810Y-27617233D01*
X70860121Y-27656414D01*
X71063644Y-27768630D01*
X71294619Y-27794418D01*
X71517880Y-27729853D01*
X71699438Y-27584765D01*
X72254049Y-27141562D01*
X72276967Y-26936292D01*
X71953498Y-26531512D01*
X70851729Y-27411963D01*
X70828810Y-27617233D01*
X68726981Y-27617233D01*
X68544588Y-27206850D01*
X68515261Y-27165295D01*
X68487000Y-27123000D01*
X67517000Y-26153000D01*
X67472729Y-26123420D01*
X67428614Y-26093444D01*
X66058615Y-25513444D01*
X66020176Y-25505487D01*
X65982853Y-25493344D01*
X64382853Y-25303344D01*
X64350674Y-25305864D01*
X64318507Y-25303186D01*
X62648506Y-25493186D01*
X62616318Y-25503484D01*
X62582951Y-25508850D01*
X61102951Y-26058850D01*
X61058735Y-26086090D01*
X61014059Y-26112530D01*
X59954059Y-27062529D01*
X59924855Y-27101450D01*
X59894067Y-27139100D01*
X59564067Y-27759100D01*
X59552366Y-27797917D01*
X59536810Y-27835362D01*
X59396810Y-28535362D01*
X59396776Y-28567867D01*
X59391578Y-28599944D01*
X59421578Y-29439944D01*
X59433052Y-29488501D01*
X59442944Y-29537426D01*
X59722944Y-30207426D01*
X59749195Y-30246447D01*
X59773314Y-30286812D01*
X60243314Y-30806812D01*
X60274257Y-30829827D01*
X60302342Y-30856252D01*
X60942342Y-31256252D01*
X60974816Y-31268559D01*
X61005203Y-31285382D01*
X62695204Y-31825382D01*
X62716607Y-31827809D01*
X62736826Y-31835234D01*
X64776826Y-32155234D01*
X64779399Y-32155129D01*
X64781833Y-32155973D01*
X69468784Y-32804168D01*
X71592982Y-33305715D01*
X73453388Y-34094683D01*
X75017405Y-35204941D01*
X76234307Y-36711582D01*
X76689600Y-37622168D01*
X77005447Y-38703704D01*
X77279672Y-41377402D01*
X76997897Y-43699615D01*
X76451846Y-45045242D01*
X76441818Y-45097622D01*
X76431400Y-45150000D01*
X76431599Y-45151003D01*
X76431407Y-45152008D01*
X76442196Y-45204278D01*
X76452607Y-45256616D01*
X76453176Y-45257467D01*
X76453382Y-45258467D01*
X76483339Y-45302610D01*
X76513000Y-45347000D01*
X76513850Y-45347568D01*
X76514424Y-45348414D01*
X76558967Y-45377715D01*
X76603384Y-45407393D01*
X76604389Y-45407593D01*
X76605242Y-45408154D01*
X76657622Y-45418182D01*
X76710000Y-45428600D01*
X81981400Y-45428600D01*
X81981400Y-45466738D01*
X81943790Y-45459122D01*
X77943790Y-45459122D01*
X77859076Y-45475062D01*
X77781272Y-45525128D01*
X77729075Y-45601520D01*
X77710712Y-45692200D01*
X77710712Y-46692200D01*
X77726652Y-46776914D01*
X77776718Y-46854718D01*
X77853110Y-46906915D01*
X77943790Y-46925278D01*
X81943790Y-46925278D01*
X81981400Y-46918201D01*
X81981400Y-47108000D01*
X80267640Y-47108000D01*
X80121590Y-47254050D01*
X80121590Y-48014400D01*
X80141590Y-48014400D01*
X80141590Y-48370000D01*
X80121590Y-48370000D01*
X80121590Y-49130350D01*
X80267640Y-49276400D01*
X81981400Y-49276400D01*
X81981400Y-49466738D01*
X81943790Y-49459122D01*
X77943790Y-49459122D01*
X77859076Y-49475062D01*
X77781272Y-49525128D01*
X77729075Y-49601520D01*
X77710712Y-49692200D01*
X77710712Y-50692200D01*
X77726652Y-50776914D01*
X77776718Y-50854718D01*
X77801133Y-50871400D01*
X68270000Y-50871400D01*
X68242078Y-50876954D01*
X68213614Y-50877166D01*
X66732591Y-51183244D01*
X64310071Y-51340806D01*
X61907857Y-51183284D01*
X60447116Y-50877318D01*
X60418284Y-50877026D01*
X60390000Y-50871400D01*
X51164511Y-50871400D01*
X51183358Y-50859272D01*
X51235555Y-50782880D01*
X51253918Y-50692200D01*
X51253918Y-49692200D01*
X51237978Y-49607486D01*
X51187912Y-49529682D01*
X51111520Y-49477485D01*
X51020840Y-49459122D01*
X47020840Y-49459122D01*
X46936126Y-49475062D01*
X46908600Y-49492775D01*
X46908600Y-49276400D01*
X48696990Y-49276400D01*
X48843040Y-49130350D01*
X48843040Y-48370000D01*
X48823040Y-48370000D01*
X48823040Y-48130533D01*
X49121428Y-48130533D01*
X49166293Y-48479417D01*
X49198640Y-48557510D01*
X49198640Y-49130350D01*
X49344690Y-49276400D01*
X51137044Y-49276400D01*
X51351762Y-49187461D01*
X51516101Y-49023123D01*
X51605040Y-48808405D01*
X51605040Y-48669573D01*
X60434946Y-48669573D01*
X60462995Y-48757740D01*
X60523136Y-48828048D01*
X60605893Y-48869418D01*
X60863583Y-48939010D01*
X60859171Y-48955347D01*
X60852473Y-49041287D01*
X60880522Y-49129454D01*
X60940663Y-49199762D01*
X61023420Y-49241132D01*
X61795752Y-49449708D01*
X61881692Y-49456406D01*
X61937964Y-49438504D01*
X61958245Y-49594940D01*
X62074053Y-49796441D01*
X62258157Y-49938286D01*
X62306577Y-49951362D01*
X62413070Y-49890157D01*
X62640121Y-49890157D01*
X62743041Y-50069234D01*
X62791462Y-50082310D01*
X63021942Y-50052428D01*
X63223442Y-49936619D01*
X63365287Y-49752515D01*
X63425880Y-49528144D01*
X63610977Y-48842753D01*
X63508057Y-48663676D01*
X63007827Y-48528584D01*
X62640121Y-49890157D01*
X62413070Y-49890157D01*
X62485654Y-49848441D01*
X62853361Y-48486869D01*
X62776127Y-48466011D01*
X62851940Y-48185283D01*
X63100539Y-48185283D01*
X63600769Y-48320375D01*
X63779846Y-48217454D01*
X63964943Y-47532063D01*
X64025536Y-47307692D01*
X63995655Y-47077212D01*
X63879847Y-46875711D01*
X63844967Y-46848837D01*
X66759316Y-46848837D01*
X66832025Y-47024806D01*
X66966540Y-47159555D01*
X67120088Y-47223314D01*
X67751533Y-48809880D01*
X67797669Y-48882695D01*
X67872957Y-48936471D01*
X67963235Y-48956719D01*
X68054278Y-48940249D01*
X68302281Y-48841545D01*
X68308539Y-48857268D01*
X68354675Y-48930082D01*
X68429963Y-48983858D01*
X68520241Y-49004106D01*
X68611284Y-48987636D01*
X69354578Y-48691809D01*
X69427393Y-48645673D01*
X69461715Y-48597621D01*
X69571695Y-48710706D01*
X69785154Y-48802627D01*
X70017541Y-48805862D01*
X70064141Y-48787316D01*
X70145831Y-48597611D01*
X69624306Y-47287230D01*
X69549977Y-47316812D01*
X69514656Y-47228064D01*
X69772965Y-47228064D01*
X70294490Y-48538445D01*
X70484195Y-48620136D01*
X70530795Y-48601590D01*
X70697405Y-48439555D01*
X70789324Y-48226096D01*
X70792560Y-47993709D01*
X70706618Y-47777774D01*
X70626312Y-47575995D01*
X77359590Y-47575995D01*
X77359590Y-47868350D01*
X77505640Y-48014400D01*
X78075870Y-48014400D01*
X78044378Y-48130533D01*
X78075172Y-48370000D01*
X77505640Y-48370000D01*
X77359590Y-48516050D01*
X77359590Y-48808405D01*
X77448529Y-49023123D01*
X77612868Y-49187461D01*
X77827586Y-49276400D01*
X79619940Y-49276400D01*
X79765990Y-49130350D01*
X79765990Y-48538598D01*
X79843202Y-48253867D01*
X79798337Y-47904983D01*
X79765990Y-47826890D01*
X79765990Y-47254050D01*
X79619940Y-47108000D01*
X77827586Y-47108000D01*
X77612868Y-47196939D01*
X77448529Y-47361277D01*
X77359590Y-47575995D01*
X70626312Y-47575995D01*
X70444092Y-47118151D01*
X70254387Y-47036461D01*
X69772965Y-47228064D01*
X69514656Y-47228064D01*
X69418482Y-46986419D01*
X69492811Y-46956836D01*
X68971286Y-45646455D01*
X68833890Y-45587289D01*
X69119945Y-45587289D01*
X69641470Y-46897670D01*
X70122892Y-46706066D01*
X70204583Y-46516362D01*
X69942056Y-45856739D01*
X69856115Y-45640804D01*
X69694081Y-45474194D01*
X69480622Y-45382273D01*
X69248235Y-45379038D01*
X69201635Y-45397584D01*
X69119945Y-45587289D01*
X68833890Y-45587289D01*
X68781581Y-45564764D01*
X68734981Y-45583310D01*
X68568371Y-45745345D01*
X68476452Y-45958804D01*
X68474252Y-46116807D01*
X68422741Y-46105254D01*
X68331698Y-46121724D01*
X67588404Y-46417551D01*
X67582236Y-46421459D01*
X67509458Y-46348555D01*
X67333616Y-46275539D01*
X67143217Y-46275372D01*
X66967248Y-46348081D01*
X66832499Y-46482596D01*
X66759483Y-46658438D01*
X66759316Y-46848837D01*
X63844967Y-46848837D01*
X63695743Y-46733866D01*
X63647323Y-46720790D01*
X63468246Y-46823711D01*
X63100539Y-48185283D01*
X62851940Y-48185283D01*
X62868839Y-48122710D01*
X62946073Y-48143568D01*
X63313779Y-46781995D01*
X63210859Y-46602918D01*
X63162438Y-46589842D01*
X62931958Y-46619724D01*
X62730458Y-46735533D01*
X62634017Y-46860707D01*
X62599701Y-46820590D01*
X62516944Y-46779220D01*
X61744612Y-46570644D01*
X61741096Y-46570370D01*
X61741127Y-46535285D01*
X61668418Y-46359316D01*
X61533903Y-46224567D01*
X61358061Y-46151551D01*
X61167662Y-46151384D01*
X60991693Y-46224093D01*
X60856944Y-46358608D01*
X60783928Y-46534450D01*
X60783761Y-46724849D01*
X60856470Y-46900818D01*
X60887666Y-46932068D01*
X60441644Y-48583633D01*
X60434946Y-48669573D01*
X51605040Y-48669573D01*
X51605040Y-48516050D01*
X51458990Y-48370000D01*
X50888760Y-48370000D01*
X50920252Y-48253867D01*
X50889458Y-48014400D01*
X51458990Y-48014400D01*
X51605040Y-47868350D01*
X51605040Y-47575995D01*
X51516101Y-47361277D01*
X51351762Y-47196939D01*
X51137044Y-47108000D01*
X49344690Y-47108000D01*
X49198640Y-47254050D01*
X49198640Y-47845802D01*
X49121428Y-48130533D01*
X48823040Y-48130533D01*
X48823040Y-48014400D01*
X48843040Y-48014400D01*
X48843040Y-47254050D01*
X48696990Y-47108000D01*
X46908600Y-47108000D01*
X46908600Y-46892184D01*
X46930160Y-46906915D01*
X47020840Y-46925278D01*
X51020840Y-46925278D01*
X51105554Y-46909338D01*
X51183358Y-46859272D01*
X51217657Y-46809073D01*
X55705592Y-46809073D01*
X55734054Y-46850370D01*
X55929135Y-46976692D01*
X56157709Y-47018744D01*
X56384976Y-46970124D01*
X56576336Y-46838234D01*
X57160891Y-46435347D01*
X57198264Y-46232211D01*
X56904218Y-45805576D01*
X55742964Y-46605937D01*
X55705592Y-46809073D01*
X51217657Y-46809073D01*
X51235555Y-46782880D01*
X51253918Y-46692200D01*
X51253918Y-45692200D01*
X51237978Y-45607486D01*
X51187912Y-45529682D01*
X51111520Y-45477485D01*
X51020840Y-45459122D01*
X47020840Y-45459122D01*
X46936126Y-45475062D01*
X46908600Y-45492775D01*
X46908600Y-45428600D01*
X52170000Y-45428600D01*
X52220471Y-45418561D01*
X52271140Y-45409593D01*
X52273670Y-45407979D01*
X52276616Y-45407393D01*
X52319411Y-45378798D01*
X52362784Y-45351128D01*
X52364505Y-45348667D01*
X52367000Y-45347000D01*
X52395590Y-45304212D01*
X52425077Y-45262043D01*
X52425725Y-45259113D01*
X52427393Y-45256616D01*
X52437431Y-45206153D01*
X52448538Y-45155901D01*
X52448015Y-45152943D01*
X52448600Y-45150000D01*
X52438561Y-45099529D01*
X52429593Y-45048860D01*
X52151055Y-44333945D01*
X54815442Y-44333945D01*
X54815816Y-44426466D01*
X54852157Y-44511551D01*
X55003632Y-44731328D01*
X54989699Y-44740931D01*
X54928994Y-44802130D01*
X54893343Y-44887507D01*
X54893717Y-44980027D01*
X54930057Y-45065112D01*
X55384049Y-45723816D01*
X55445248Y-45784522D01*
X55499741Y-45807277D01*
X55414000Y-45939687D01*
X55371947Y-46168260D01*
X55420567Y-46395526D01*
X55449029Y-46436823D01*
X55652166Y-46474196D01*
X56813420Y-45673835D01*
X56768021Y-45607965D01*
X56774097Y-45603777D01*
X57197012Y-45603777D01*
X57491057Y-46030411D01*
X57694194Y-46067784D01*
X58278749Y-45664896D01*
X58470109Y-45533006D01*
X58596432Y-45337925D01*
X58638485Y-45109352D01*
X58589865Y-44882086D01*
X58561403Y-44840789D01*
X58358266Y-44803416D01*
X57197012Y-45603777D01*
X56774097Y-45603777D01*
X57060814Y-45406165D01*
X57106214Y-45472036D01*
X58267468Y-44671675D01*
X58304840Y-44468539D01*
X58276378Y-44427242D01*
X58081297Y-44300920D01*
X57852723Y-44258868D01*
X57698200Y-44291926D01*
X57697987Y-44239135D01*
X57661647Y-44154050D01*
X57208524Y-43496607D01*
X57280057Y-43324336D01*
X57280224Y-43133937D01*
X57207515Y-42957968D01*
X57073000Y-42823219D01*
X56897158Y-42750203D01*
X56706759Y-42750036D01*
X56530790Y-42822745D01*
X56396041Y-42957260D01*
X56323025Y-43133102D01*
X56322953Y-43214771D01*
X54911798Y-44187369D01*
X54851092Y-44248569D01*
X54815442Y-44333945D01*
X52151055Y-44333945D01*
X51843650Y-43544939D01*
X51636510Y-41378600D01*
X59109752Y-41378600D01*
X59184428Y-41880963D01*
X59200092Y-41924700D01*
X59213207Y-41969272D01*
X59543207Y-42599272D01*
X59543880Y-42600106D01*
X59544190Y-42601132D01*
X59577994Y-42642391D01*
X59611464Y-42683876D01*
X59612405Y-42684389D01*
X59613084Y-42685218D01*
X60793084Y-43655217D01*
X60836299Y-43678361D01*
X60878596Y-43703179D01*
X62548597Y-44283179D01*
X62581702Y-44287774D01*
X62613724Y-44297358D01*
X64513724Y-44477358D01*
X64540493Y-44474621D01*
X64567272Y-44477262D01*
X66397272Y-44297262D01*
X66429101Y-44287611D01*
X66462036Y-44282959D01*
X66821058Y-44157301D01*
X71611581Y-44157301D01*
X71684290Y-44333270D01*
X71818805Y-44468019D01*
X71994647Y-44541035D01*
X72185046Y-44541202D01*
X72361015Y-44468493D01*
X72430130Y-44399498D01*
X74125410Y-44652702D01*
X74211549Y-44649451D01*
X74295896Y-44611427D01*
X74358804Y-44543584D01*
X74390361Y-44456611D01*
X74429790Y-44192617D01*
X74446526Y-44195117D01*
X74532665Y-44191866D01*
X74617012Y-44153842D01*
X74679920Y-44085999D01*
X74711477Y-43999026D01*
X74829652Y-43207802D01*
X74826401Y-43121663D01*
X74802133Y-43067830D01*
X74955190Y-43029654D01*
X75142002Y-42891395D01*
X75261683Y-42692171D01*
X75269092Y-42642566D01*
X75146218Y-42476544D01*
X73751341Y-42268208D01*
X73739523Y-42347330D01*
X73387824Y-42294801D01*
X73399642Y-42215679D01*
X72691840Y-42109963D01*
X73774976Y-42109963D01*
X75169853Y-42318299D01*
X75335876Y-42195426D01*
X75343284Y-42145821D01*
X75287039Y-41920321D01*
X75148779Y-41733509D01*
X74949555Y-41613828D01*
X74719695Y-41579497D01*
X74017539Y-41474624D01*
X73851517Y-41597498D01*
X73774976Y-42109963D01*
X72691840Y-42109963D01*
X72004765Y-42007343D01*
X71838742Y-42130216D01*
X71831334Y-42179821D01*
X71887579Y-42405321D01*
X72025839Y-42592133D01*
X72161294Y-42673506D01*
X72125400Y-42712215D01*
X72093843Y-42799188D01*
X71975668Y-43590412D01*
X71975728Y-43591998D01*
X71819513Y-43656545D01*
X71684764Y-43791060D01*
X71611748Y-43966902D01*
X71611581Y-44157301D01*
X66821058Y-44157301D01*
X68062036Y-43722959D01*
X68103200Y-43698673D01*
X68145463Y-43676404D01*
X69255463Y-42776404D01*
X69289961Y-42734872D01*
X69324746Y-42693107D01*
X69634746Y-42123107D01*
X69649076Y-42077072D01*
X69665456Y-42031736D01*
X69718283Y-41683076D01*
X71905526Y-41683076D01*
X72028400Y-41849098D01*
X73423277Y-42057434D01*
X73499818Y-41544969D01*
X73376945Y-41378946D01*
X72674788Y-41274074D01*
X72444929Y-41239743D01*
X72219428Y-41295988D01*
X72032616Y-41434247D01*
X71912935Y-41633471D01*
X71905526Y-41683076D01*
X69718283Y-41683076D01*
X69765456Y-41371736D01*
X69763600Y-41331404D01*
X69765870Y-41291095D01*
X69655870Y-40511095D01*
X69655396Y-40509738D01*
X69655462Y-40508298D01*
X69637465Y-40458471D01*
X69619983Y-40408485D01*
X69619023Y-40407410D01*
X69618534Y-40406057D01*
X69268534Y-39826057D01*
X69235558Y-39789892D01*
X69204040Y-39752450D01*
X68654040Y-39312450D01*
X68623737Y-39296736D01*
X68596080Y-39276735D01*
X67876080Y-38946735D01*
X67843883Y-38939080D01*
X67813253Y-38926537D01*
X65913253Y-38556537D01*
X65897196Y-38556602D01*
X65881737Y-38552249D01*
X63586861Y-38372650D01*
X61095943Y-38084855D01*
X58848551Y-37592006D01*
X58834724Y-37586890D01*
X70263610Y-37586890D01*
X70296566Y-37624697D01*
X70504700Y-37728111D01*
X70736565Y-37744003D01*
X70886349Y-37693657D01*
X70892540Y-37746082D01*
X70938283Y-37826504D01*
X71463961Y-38429549D01*
X71468767Y-38433340D01*
X71419145Y-38552844D01*
X71418978Y-38743243D01*
X71491687Y-38919212D01*
X71626202Y-39053961D01*
X71802044Y-39126977D01*
X71992443Y-39127144D01*
X72168412Y-39054435D01*
X72303161Y-38919920D01*
X72376177Y-38744078D01*
X72376297Y-38606762D01*
X73666662Y-37481941D01*
X73720046Y-37414260D01*
X73745797Y-37325395D01*
X73734946Y-37233513D01*
X73689202Y-37153091D01*
X73513808Y-36951884D01*
X73526564Y-36940764D01*
X73579948Y-36873084D01*
X73605699Y-36784219D01*
X73594848Y-36692336D01*
X73549105Y-36611914D01*
X73023427Y-36008869D01*
X72955745Y-35955485D01*
X72899029Y-35939050D01*
X72969220Y-35797782D01*
X72985113Y-35565916D01*
X72911065Y-35345619D01*
X72878108Y-35307812D01*
X72672046Y-35293688D01*
X71608916Y-36220425D01*
X71661485Y-36280730D01*
X71393431Y-36514394D01*
X71340863Y-36454089D01*
X70277734Y-37380827D01*
X70263610Y-37586890D01*
X58834724Y-37586890D01*
X57216078Y-36987990D01*
X69859531Y-36987990D01*
X69933579Y-37208287D01*
X69966536Y-37246094D01*
X70172598Y-37260218D01*
X71235728Y-36333481D01*
X70895252Y-35942896D01*
X70689190Y-35928772D01*
X70154030Y-36395275D01*
X69978838Y-36547991D01*
X69875424Y-36756124D01*
X69859531Y-36987990D01*
X57216078Y-36987990D01*
X56891746Y-36867987D01*
X55756764Y-36178891D01*
X63995815Y-36178891D01*
X64062732Y-36401458D01*
X64209728Y-36581476D01*
X64414424Y-36691536D01*
X64464325Y-36696575D01*
X64604622Y-36582012D01*
X64783500Y-36582012D01*
X64914138Y-36741996D01*
X64964039Y-36747035D01*
X65186606Y-36680118D01*
X65366623Y-36533121D01*
X65441455Y-36393945D01*
X65481830Y-36427956D01*
X65570207Y-36455337D01*
X66366159Y-36535710D01*
X66370847Y-36535309D01*
X66426301Y-36669518D01*
X66560816Y-36804267D01*
X66736658Y-36877283D01*
X66927057Y-36877450D01*
X67103026Y-36804741D01*
X67237775Y-36670226D01*
X67310791Y-36494384D01*
X67310958Y-36303985D01*
X67238249Y-36128016D01*
X67152777Y-36042396D01*
X67186419Y-35709232D01*
X71163306Y-35709232D01*
X71503781Y-36099817D01*
X72566910Y-35173079D01*
X72581034Y-34967016D01*
X72548078Y-34929209D01*
X72339944Y-34825795D01*
X72108079Y-34809903D01*
X71887781Y-34883951D01*
X71712590Y-35036667D01*
X71177430Y-35503170D01*
X71163306Y-35709232D01*
X67186419Y-35709232D01*
X67324900Y-34337833D01*
X67317551Y-34251946D01*
X67275555Y-34169505D01*
X67204794Y-34109898D01*
X67116417Y-34082517D01*
X66850846Y-34055700D01*
X66852546Y-34038864D01*
X66845197Y-33952978D01*
X66803201Y-33870537D01*
X66732440Y-33810930D01*
X66644063Y-33783549D01*
X65848111Y-33703176D01*
X65762225Y-33710525D01*
X65709608Y-33737329D01*
X65664188Y-33586262D01*
X65517192Y-33406244D01*
X65312496Y-33296184D01*
X65262595Y-33291145D01*
X65102611Y-33421783D01*
X64960918Y-34824997D01*
X65040514Y-34833034D01*
X65004787Y-35186835D01*
X64925192Y-35178798D01*
X64783500Y-36582012D01*
X64604622Y-36582012D01*
X64624309Y-36565937D01*
X64766002Y-35162723D01*
X64250473Y-35110667D01*
X64090489Y-35241304D01*
X64019164Y-35947657D01*
X63995815Y-36178891D01*
X55756764Y-36178891D01*
X55261029Y-35877910D01*
X54067624Y-34728060D01*
X57250264Y-34728060D01*
X57333074Y-34945217D01*
X57492682Y-35114152D01*
X57538456Y-35134653D01*
X57559945Y-35126458D01*
X57877469Y-35126458D01*
X57951064Y-35319448D01*
X57996838Y-35339948D01*
X58229153Y-35346544D01*
X58446309Y-35263733D01*
X58561170Y-35155214D01*
X58588776Y-35200210D01*
X58664030Y-35254035D01*
X59394148Y-35581034D01*
X59401085Y-35582696D01*
X59400989Y-35692666D01*
X59473698Y-35868635D01*
X59608213Y-36003384D01*
X59784055Y-36076400D01*
X59974454Y-36076567D01*
X60150423Y-36003858D01*
X60285172Y-35869343D01*
X60358188Y-35693501D01*
X60358355Y-35503102D01*
X60297863Y-35356701D01*
X60638163Y-34596882D01*
X64155561Y-34596882D01*
X64286199Y-34756866D01*
X64801728Y-34808922D01*
X64943420Y-33405708D01*
X64812782Y-33245724D01*
X64762881Y-33240685D01*
X64540314Y-33307602D01*
X64360297Y-33454599D01*
X64250236Y-33659295D01*
X64226887Y-33890529D01*
X64155561Y-34596882D01*
X60638163Y-34596882D01*
X60996393Y-33797032D01*
X61016472Y-33713203D01*
X61002582Y-33621730D01*
X60954198Y-33542869D01*
X60878945Y-33489044D01*
X60635339Y-33379940D01*
X60642256Y-33364497D01*
X60662335Y-33280668D01*
X60648445Y-33189195D01*
X60600062Y-33110334D01*
X60524808Y-33056509D01*
X59794690Y-32729510D01*
X59710861Y-32709431D01*
X59652479Y-32718296D01*
X59656956Y-32560614D01*
X59574146Y-32343457D01*
X59414538Y-32174522D01*
X59368764Y-32154021D01*
X59175774Y-32227616D01*
X58599297Y-33514768D01*
X58672309Y-33547468D01*
X58526958Y-33872006D01*
X58453946Y-33839306D01*
X57877469Y-35126458D01*
X57559945Y-35126458D01*
X57731446Y-35061058D01*
X58307923Y-33773906D01*
X57835035Y-33562113D01*
X57642045Y-33635708D01*
X57351856Y-34283637D01*
X57256860Y-34495745D01*
X57250264Y-34728060D01*
X54067624Y-34728060D01*
X53938546Y-34603693D01*
X52974735Y-33044586D01*
X57906791Y-33044586D01*
X57980385Y-33237576D01*
X58453274Y-33449368D01*
X59029751Y-32162216D01*
X58956156Y-31969226D01*
X58910382Y-31948726D01*
X58678067Y-31942130D01*
X58460911Y-32024941D01*
X58291976Y-32184549D01*
X58196979Y-32396657D01*
X57906791Y-33044586D01*
X52974735Y-33044586D01*
X52954374Y-33011650D01*
X52314243Y-31062160D01*
X52079822Y-28688653D01*
X52118980Y-28249010D01*
X54232956Y-28249010D01*
X54237551Y-28298954D01*
X54345788Y-28504620D01*
X54524492Y-28653211D01*
X54675408Y-28700051D01*
X54649744Y-28746185D01*
X54639766Y-28838166D01*
X54713061Y-29634802D01*
X54714553Y-29640036D01*
X54665846Y-29660162D01*
X54531097Y-29794677D01*
X54458081Y-29970519D01*
X54457914Y-30160918D01*
X54530623Y-30336887D01*
X54665138Y-30471636D01*
X54840980Y-30544652D01*
X55031379Y-30544819D01*
X55207348Y-30472110D01*
X55342097Y-30337595D01*
X55352672Y-30312129D01*
X57053699Y-30155625D01*
X57136596Y-30131990D01*
X57209487Y-30075007D01*
X57254465Y-29994154D01*
X57264443Y-29902173D01*
X57239988Y-29636374D01*
X57256840Y-29634824D01*
X57339738Y-29611189D01*
X57412628Y-29554206D01*
X57457606Y-29473353D01*
X57467584Y-29381372D01*
X57394289Y-28584736D01*
X57370654Y-28501839D01*
X57334285Y-28455317D01*
X57473879Y-28381852D01*
X57622471Y-28203148D01*
X57691364Y-27981185D01*
X57686769Y-27931241D01*
X57527952Y-27799186D01*
X56123534Y-27928400D01*
X56130863Y-28008063D01*
X55776758Y-28040643D01*
X55769429Y-27960979D01*
X54365011Y-28090193D01*
X54232956Y-28249010D01*
X52118980Y-28249010D01*
X52163527Y-27748867D01*
X54186940Y-27748867D01*
X54191535Y-27798811D01*
X54350352Y-27930866D01*
X55754770Y-27801652D01*
X55707298Y-27285681D01*
X55668117Y-27253102D01*
X56061403Y-27253102D01*
X56108875Y-27769073D01*
X57513293Y-27639859D01*
X57645348Y-27481042D01*
X57640753Y-27431098D01*
X57532516Y-27225432D01*
X57353812Y-27076841D01*
X57131848Y-27007949D01*
X56900417Y-27029241D01*
X56193458Y-27094285D01*
X56061403Y-27253102D01*
X55668117Y-27253102D01*
X55548482Y-27153627D01*
X54841523Y-27218670D01*
X54610091Y-27239963D01*
X54404425Y-27348200D01*
X54255833Y-27526904D01*
X54186940Y-27748867D01*
X52163527Y-27748867D01*
X52294275Y-26280933D01*
X52682801Y-25211225D01*
X69765915Y-25211225D01*
X69772829Y-25303487D01*
X69815093Y-25385790D01*
X69981726Y-25594309D01*
X69968505Y-25604874D01*
X69912278Y-25670211D01*
X69882752Y-25757895D01*
X69889666Y-25850157D01*
X69931930Y-25932461D01*
X70431353Y-26557423D01*
X70496690Y-26613650D01*
X70552654Y-26632495D01*
X70476488Y-26770635D01*
X70450699Y-27001610D01*
X70515264Y-27224870D01*
X70546574Y-27264052D01*
X70751845Y-27286970D01*
X71853613Y-26406519D01*
X71803671Y-26344023D01*
X71846848Y-26309519D01*
X72231293Y-26309519D01*
X72554763Y-26714298D01*
X72760033Y-26737217D01*
X73314644Y-26294014D01*
X73496202Y-26148926D01*
X73608418Y-25945403D01*
X73634207Y-25714428D01*
X73569642Y-25491168D01*
X73538332Y-25451986D01*
X73333061Y-25429068D01*
X72231293Y-26309519D01*
X71846848Y-26309519D01*
X72081466Y-26122030D01*
X72131408Y-26184526D01*
X73233177Y-25304075D01*
X73256096Y-25098805D01*
X73224785Y-25059624D01*
X73021262Y-24947408D01*
X72790287Y-24921620D01*
X72638489Y-24965519D01*
X72634544Y-24912875D01*
X72592280Y-24830571D01*
X72092857Y-24205609D01*
X72089733Y-24202921D01*
X72147427Y-24063978D01*
X72147594Y-23873579D01*
X72074885Y-23697610D01*
X71940370Y-23562861D01*
X71764528Y-23489845D01*
X71574129Y-23489678D01*
X71398160Y-23562387D01*
X71263411Y-23696902D01*
X71190395Y-23872744D01*
X71190293Y-23988474D01*
X69851668Y-25058204D01*
X69795441Y-25123541D01*
X69765915Y-25211225D01*
X52682801Y-25211225D01*
X53039918Y-24227996D01*
X53994428Y-22827526D01*
X57283746Y-22827526D01*
X57356455Y-23003495D01*
X57490970Y-23138244D01*
X57665727Y-23210810D01*
X58359454Y-24765892D01*
X58408524Y-24836762D01*
X58485944Y-24887420D01*
X58576973Y-24903966D01*
X58667268Y-24883793D01*
X58911035Y-24775048D01*
X58917930Y-24790504D01*
X58967000Y-24861374D01*
X59044420Y-24912032D01*
X59135450Y-24928578D01*
X59225745Y-24908405D01*
X59956344Y-24582483D01*
X60027215Y-24533413D01*
X60059547Y-24484000D01*
X60174050Y-24592501D01*
X60391084Y-24675632D01*
X60623409Y-24669378D01*
X60669213Y-24648945D01*
X60743092Y-24456064D01*
X60168511Y-23168064D01*
X60095451Y-23200656D01*
X60051833Y-23102879D01*
X60314631Y-23102879D01*
X60889211Y-24390880D01*
X61082093Y-24464758D01*
X61127897Y-24444325D01*
X61287753Y-24275625D01*
X61370883Y-24058591D01*
X61364630Y-23826266D01*
X61269945Y-23614019D01*
X60980712Y-22965662D01*
X60787831Y-22891784D01*
X60314631Y-23102879D01*
X60051833Y-23102879D01*
X59950579Y-22875905D01*
X60023639Y-22843313D01*
X59449059Y-21555312D01*
X59278876Y-21490128D01*
X59595178Y-21490128D01*
X60169759Y-22778128D01*
X60642958Y-22567032D01*
X60716837Y-22374151D01*
X60427604Y-21725795D01*
X60332920Y-21513548D01*
X60164220Y-21353691D01*
X59947186Y-21270560D01*
X59714861Y-21276814D01*
X59669057Y-21297247D01*
X59595178Y-21490128D01*
X59278876Y-21490128D01*
X59256177Y-21481434D01*
X59210373Y-21501867D01*
X59050517Y-21670567D01*
X58967387Y-21887601D01*
X58971639Y-22045563D01*
X58919698Y-22036122D01*
X58829403Y-22056295D01*
X58098804Y-22382217D01*
X58092868Y-22386327D01*
X58033888Y-22327244D01*
X57858046Y-22254228D01*
X57667647Y-22254061D01*
X57491678Y-22326770D01*
X57356929Y-22461285D01*
X57283913Y-22637127D01*
X57283746Y-22827526D01*
X53994428Y-22827526D01*
X54222865Y-22492361D01*
X55739068Y-21073351D01*
X56208108Y-20789920D01*
X60004881Y-20789920D01*
X60073229Y-21114671D01*
X60260653Y-21388545D01*
X60376475Y-21483398D01*
X60382954Y-21480319D01*
X60774455Y-21480319D01*
X60864804Y-21630979D01*
X61189555Y-21562631D01*
X61463429Y-21375207D01*
X61558282Y-21259385D01*
X61482879Y-21100715D01*
X61447554Y-21090039D01*
X64295265Y-21090039D01*
X64367974Y-21266008D01*
X64460923Y-21359119D01*
X64324660Y-23066071D01*
X64333808Y-23151784D01*
X64377524Y-23233326D01*
X64449520Y-23291436D01*
X64538452Y-23316957D01*
X64804528Y-23338198D01*
X64803181Y-23355066D01*
X64812329Y-23440780D01*
X64856045Y-23522321D01*
X64928041Y-23580431D01*
X65016973Y-23605952D01*
X65814436Y-23669612D01*
X65900149Y-23660464D01*
X65952193Y-23632562D01*
X66000771Y-23782642D01*
X66151511Y-23959537D01*
X66358471Y-24065281D01*
X66408467Y-24069272D01*
X66550733Y-23948039D01*
X66725168Y-23948039D01*
X66859133Y-24105248D01*
X66909129Y-24109239D01*
X67130243Y-24037668D01*
X67307138Y-23886927D01*
X67412881Y-23679967D01*
X67431375Y-23448295D01*
X67487869Y-22740602D01*
X67353904Y-22583393D01*
X66837397Y-22542161D01*
X66725168Y-23948039D01*
X66550733Y-23948039D01*
X66565675Y-23935307D01*
X66677904Y-22529429D01*
X66598158Y-22523063D01*
X66624930Y-22187689D01*
X66865694Y-22187689D01*
X67382201Y-22228921D01*
X67539409Y-22094956D01*
X67595903Y-21387262D01*
X67614397Y-21155590D01*
X67542827Y-20934476D01*
X67392087Y-20757581D01*
X67185127Y-20651837D01*
X67135131Y-20647846D01*
X66977923Y-20781811D01*
X66865694Y-22187689D01*
X66624930Y-22187689D01*
X66626455Y-22168591D01*
X66706201Y-22174957D01*
X66818430Y-20769079D01*
X66684465Y-20611870D01*
X66634469Y-20607879D01*
X66413355Y-20679450D01*
X66236460Y-20830191D01*
X66164564Y-20970905D01*
X66123485Y-20937749D01*
X66034553Y-20912228D01*
X65237090Y-20848568D01*
X65231433Y-20849172D01*
X65179922Y-20724506D01*
X65045407Y-20589757D01*
X64869565Y-20516741D01*
X64679166Y-20516574D01*
X64503197Y-20589283D01*
X64368448Y-20723798D01*
X64295432Y-20899640D01*
X64295265Y-21090039D01*
X61447554Y-21090039D01*
X60938865Y-20936305D01*
X60774455Y-21480319D01*
X60382954Y-21480319D01*
X60535145Y-21407995D01*
X60699555Y-20863981D01*
X60155541Y-20699571D01*
X60004881Y-20789920D01*
X56208108Y-20789920D01*
X56361886Y-20696995D01*
X61011189Y-20696995D01*
X61555203Y-20861405D01*
X61705863Y-20771056D01*
X61637515Y-20446305D01*
X61450091Y-20172431D01*
X61334269Y-20077578D01*
X61175599Y-20152981D01*
X61011189Y-20696995D01*
X56361886Y-20696995D01*
X57016228Y-20301591D01*
X60152462Y-20301591D01*
X60227865Y-20460261D01*
X60771879Y-20624671D01*
X60936289Y-20080657D01*
X60845940Y-19929997D01*
X60521189Y-19998345D01*
X60247315Y-20185769D01*
X60152462Y-20301591D01*
X57016228Y-20301591D01*
X57562737Y-19971348D01*
X59639689Y-19177796D01*
X61859389Y-18696533D01*
X64120126Y-18539264D01*
X66410983Y-18696576D01*
X66410983Y-18696576D01*
G37*
X66410983Y-18696576D02*
X68650765Y-19177933D01*
X70737761Y-19971579D01*
X72571946Y-21074043D01*
X74107640Y-22493101D01*
X75290083Y-24227997D01*
X76035919Y-26281470D01*
X76234252Y-28411400D01*
X68906769Y-28411400D01*
X68846562Y-27916364D01*
X68833676Y-27877135D01*
X68824588Y-27836850D01*
X68726981Y-27617233D01*
X70828810Y-27617233D01*
X70860121Y-27656414D01*
X71063644Y-27768630D01*
X71294619Y-27794418D01*
X71517880Y-27729853D01*
X71699438Y-27584765D01*
X72254049Y-27141562D01*
X72276967Y-26936292D01*
X71953498Y-26531512D01*
X70851729Y-27411963D01*
X70828810Y-27617233D01*
X68726981Y-27617233D01*
X68544588Y-27206850D01*
X68515261Y-27165295D01*
X68487000Y-27123000D01*
X67517000Y-26153000D01*
X67472729Y-26123420D01*
X67428614Y-26093444D01*
X66058615Y-25513444D01*
X66020176Y-25505487D01*
X65982853Y-25493344D01*
X64382853Y-25303344D01*
X64350674Y-25305864D01*
X64318507Y-25303186D01*
X62648506Y-25493186D01*
X62616318Y-25503484D01*
X62582951Y-25508850D01*
X61102951Y-26058850D01*
X61058735Y-26086090D01*
X61014059Y-26112530D01*
X59954059Y-27062529D01*
X59924855Y-27101450D01*
X59894067Y-27139100D01*
X59564067Y-27759100D01*
X59552366Y-27797917D01*
X59536810Y-27835362D01*
X59396810Y-28535362D01*
X59396776Y-28567867D01*
X59391578Y-28599944D01*
X59421578Y-29439944D01*
X59433052Y-29488501D01*
X59442944Y-29537426D01*
X59722944Y-30207426D01*
X59749195Y-30246447D01*
X59773314Y-30286812D01*
X60243314Y-30806812D01*
X60274257Y-30829827D01*
X60302342Y-30856252D01*
X60942342Y-31256252D01*
X60974816Y-31268559D01*
X61005203Y-31285382D01*
X62695204Y-31825382D01*
X62716607Y-31827809D01*
X62736826Y-31835234D01*
X64776826Y-32155234D01*
X64779399Y-32155129D01*
X64781833Y-32155973D01*
X69468784Y-32804168D01*
X71592982Y-33305715D01*
X73453388Y-34094683D01*
X75017405Y-35204941D01*
X76234307Y-36711582D01*
X76689600Y-37622168D01*
X77005447Y-38703704D01*
X77279672Y-41377402D01*
X76997897Y-43699615D01*
X76451846Y-45045242D01*
X76441818Y-45097622D01*
X76431400Y-45150000D01*
X76431599Y-45151003D01*
X76431407Y-45152008D01*
X76442196Y-45204278D01*
X76452607Y-45256616D01*
X76453176Y-45257467D01*
X76453382Y-45258467D01*
X76483339Y-45302610D01*
X76513000Y-45347000D01*
X76513850Y-45347568D01*
X76514424Y-45348414D01*
X76558967Y-45377715D01*
X76603384Y-45407393D01*
X76604389Y-45407593D01*
X76605242Y-45408154D01*
X76657622Y-45418182D01*
X76710000Y-45428600D01*
X81981400Y-45428600D01*
X81981400Y-45466738D01*
X81943790Y-45459122D01*
X77943790Y-45459122D01*
X77859076Y-45475062D01*
X77781272Y-45525128D01*
X77729075Y-45601520D01*
X77710712Y-45692200D01*
X77710712Y-46692200D01*
X77726652Y-46776914D01*
X77776718Y-46854718D01*
X77853110Y-46906915D01*
X77943790Y-46925278D01*
X81943790Y-46925278D01*
X81981400Y-46918201D01*
X81981400Y-47108000D01*
X80267640Y-47108000D01*
X80121590Y-47254050D01*
X80121590Y-48014400D01*
X80141590Y-48014400D01*
X80141590Y-48370000D01*
X80121590Y-48370000D01*
X80121590Y-49130350D01*
X80267640Y-49276400D01*
X81981400Y-49276400D01*
X81981400Y-49466738D01*
X81943790Y-49459122D01*
X77943790Y-49459122D01*
X77859076Y-49475062D01*
X77781272Y-49525128D01*
X77729075Y-49601520D01*
X77710712Y-49692200D01*
X77710712Y-50692200D01*
X77726652Y-50776914D01*
X77776718Y-50854718D01*
X77801133Y-50871400D01*
X68270000Y-50871400D01*
X68242078Y-50876954D01*
X68213614Y-50877166D01*
X66732591Y-51183244D01*
X64310071Y-51340806D01*
X61907857Y-51183284D01*
X60447116Y-50877318D01*
X60418284Y-50877026D01*
X60390000Y-50871400D01*
X51164511Y-50871400D01*
X51183358Y-50859272D01*
X51235555Y-50782880D01*
X51253918Y-50692200D01*
X51253918Y-49692200D01*
X51237978Y-49607486D01*
X51187912Y-49529682D01*
X51111520Y-49477485D01*
X51020840Y-49459122D01*
X47020840Y-49459122D01*
X46936126Y-49475062D01*
X46908600Y-49492775D01*
X46908600Y-49276400D01*
X48696990Y-49276400D01*
X48843040Y-49130350D01*
X48843040Y-48370000D01*
X48823040Y-48370000D01*
X48823040Y-48130533D01*
X49121428Y-48130533D01*
X49166293Y-48479417D01*
X49198640Y-48557510D01*
X49198640Y-49130350D01*
X49344690Y-49276400D01*
X51137044Y-49276400D01*
X51351762Y-49187461D01*
X51516101Y-49023123D01*
X51605040Y-48808405D01*
X51605040Y-48669573D01*
X60434946Y-48669573D01*
X60462995Y-48757740D01*
X60523136Y-48828048D01*
X60605893Y-48869418D01*
X60863583Y-48939010D01*
X60859171Y-48955347D01*
X60852473Y-49041287D01*
X60880522Y-49129454D01*
X60940663Y-49199762D01*
X61023420Y-49241132D01*
X61795752Y-49449708D01*
X61881692Y-49456406D01*
X61937964Y-49438504D01*
X61958245Y-49594940D01*
X62074053Y-49796441D01*
X62258157Y-49938286D01*
X62306577Y-49951362D01*
X62413070Y-49890157D01*
X62640121Y-49890157D01*
X62743041Y-50069234D01*
X62791462Y-50082310D01*
X63021942Y-50052428D01*
X63223442Y-49936619D01*
X63365287Y-49752515D01*
X63425880Y-49528144D01*
X63610977Y-48842753D01*
X63508057Y-48663676D01*
X63007827Y-48528584D01*
X62640121Y-49890157D01*
X62413070Y-49890157D01*
X62485654Y-49848441D01*
X62853361Y-48486869D01*
X62776127Y-48466011D01*
X62851940Y-48185283D01*
X63100539Y-48185283D01*
X63600769Y-48320375D01*
X63779846Y-48217454D01*
X63964943Y-47532063D01*
X64025536Y-47307692D01*
X63995655Y-47077212D01*
X63879847Y-46875711D01*
X63844967Y-46848837D01*
X66759316Y-46848837D01*
X66832025Y-47024806D01*
X66966540Y-47159555D01*
X67120088Y-47223314D01*
X67751533Y-48809880D01*
X67797669Y-48882695D01*
X67872957Y-48936471D01*
X67963235Y-48956719D01*
X68054278Y-48940249D01*
X68302281Y-48841545D01*
X68308539Y-48857268D01*
X68354675Y-48930082D01*
X68429963Y-48983858D01*
X68520241Y-49004106D01*
X68611284Y-48987636D01*
X69354578Y-48691809D01*
X69427393Y-48645673D01*
X69461715Y-48597621D01*
X69571695Y-48710706D01*
X69785154Y-48802627D01*
X70017541Y-48805862D01*
X70064141Y-48787316D01*
X70145831Y-48597611D01*
X69624306Y-47287230D01*
X69549977Y-47316812D01*
X69514656Y-47228064D01*
X69772965Y-47228064D01*
X70294490Y-48538445D01*
X70484195Y-48620136D01*
X70530795Y-48601590D01*
X70697405Y-48439555D01*
X70789324Y-48226096D01*
X70792560Y-47993709D01*
X70706618Y-47777774D01*
X70626312Y-47575995D01*
X77359590Y-47575995D01*
X77359590Y-47868350D01*
X77505640Y-48014400D01*
X78075870Y-48014400D01*
X78044378Y-48130533D01*
X78075172Y-48370000D01*
X77505640Y-48370000D01*
X77359590Y-48516050D01*
X77359590Y-48808405D01*
X77448529Y-49023123D01*
X77612868Y-49187461D01*
X77827586Y-49276400D01*
X79619940Y-49276400D01*
X79765990Y-49130350D01*
X79765990Y-48538598D01*
X79843202Y-48253867D01*
X79798337Y-47904983D01*
X79765990Y-47826890D01*
X79765990Y-47254050D01*
X79619940Y-47108000D01*
X77827586Y-47108000D01*
X77612868Y-47196939D01*
X77448529Y-47361277D01*
X77359590Y-47575995D01*
X70626312Y-47575995D01*
X70444092Y-47118151D01*
X70254387Y-47036461D01*
X69772965Y-47228064D01*
X69514656Y-47228064D01*
X69418482Y-46986419D01*
X69492811Y-46956836D01*
X68971286Y-45646455D01*
X68833890Y-45587289D01*
X69119945Y-45587289D01*
X69641470Y-46897670D01*
X70122892Y-46706066D01*
X70204583Y-46516362D01*
X69942056Y-45856739D01*
X69856115Y-45640804D01*
X69694081Y-45474194D01*
X69480622Y-45382273D01*
X69248235Y-45379038D01*
X69201635Y-45397584D01*
X69119945Y-45587289D01*
X68833890Y-45587289D01*
X68781581Y-45564764D01*
X68734981Y-45583310D01*
X68568371Y-45745345D01*
X68476452Y-45958804D01*
X68474252Y-46116807D01*
X68422741Y-46105254D01*
X68331698Y-46121724D01*
X67588404Y-46417551D01*
X67582236Y-46421459D01*
X67509458Y-46348555D01*
X67333616Y-46275539D01*
X67143217Y-46275372D01*
X66967248Y-46348081D01*
X66832499Y-46482596D01*
X66759483Y-46658438D01*
X66759316Y-46848837D01*
X63844967Y-46848837D01*
X63695743Y-46733866D01*
X63647323Y-46720790D01*
X63468246Y-46823711D01*
X63100539Y-48185283D01*
X62851940Y-48185283D01*
X62868839Y-48122710D01*
X62946073Y-48143568D01*
X63313779Y-46781995D01*
X63210859Y-46602918D01*
X63162438Y-46589842D01*
X62931958Y-46619724D01*
X62730458Y-46735533D01*
X62634017Y-46860707D01*
X62599701Y-46820590D01*
X62516944Y-46779220D01*
X61744612Y-46570644D01*
X61741096Y-46570370D01*
X61741127Y-46535285D01*
X61668418Y-46359316D01*
X61533903Y-46224567D01*
X61358061Y-46151551D01*
X61167662Y-46151384D01*
X60991693Y-46224093D01*
X60856944Y-46358608D01*
X60783928Y-46534450D01*
X60783761Y-46724849D01*
X60856470Y-46900818D01*
X60887666Y-46932068D01*
X60441644Y-48583633D01*
X60434946Y-48669573D01*
X51605040Y-48669573D01*
X51605040Y-48516050D01*
X51458990Y-48370000D01*
X50888760Y-48370000D01*
X50920252Y-48253867D01*
X50889458Y-48014400D01*
X51458990Y-48014400D01*
X51605040Y-47868350D01*
X51605040Y-47575995D01*
X51516101Y-47361277D01*
X51351762Y-47196939D01*
X51137044Y-47108000D01*
X49344690Y-47108000D01*
X49198640Y-47254050D01*
X49198640Y-47845802D01*
X49121428Y-48130533D01*
X48823040Y-48130533D01*
X48823040Y-48014400D01*
X48843040Y-48014400D01*
X48843040Y-47254050D01*
X48696990Y-47108000D01*
X46908600Y-47108000D01*
X46908600Y-46892184D01*
X46930160Y-46906915D01*
X47020840Y-46925278D01*
X51020840Y-46925278D01*
X51105554Y-46909338D01*
X51183358Y-46859272D01*
X51217657Y-46809073D01*
X55705592Y-46809073D01*
X55734054Y-46850370D01*
X55929135Y-46976692D01*
X56157709Y-47018744D01*
X56384976Y-46970124D01*
X56576336Y-46838234D01*
X57160891Y-46435347D01*
X57198264Y-46232211D01*
X56904218Y-45805576D01*
X55742964Y-46605937D01*
X55705592Y-46809073D01*
X51217657Y-46809073D01*
X51235555Y-46782880D01*
X51253918Y-46692200D01*
X51253918Y-45692200D01*
X51237978Y-45607486D01*
X51187912Y-45529682D01*
X51111520Y-45477485D01*
X51020840Y-45459122D01*
X47020840Y-45459122D01*
X46936126Y-45475062D01*
X46908600Y-45492775D01*
X46908600Y-45428600D01*
X52170000Y-45428600D01*
X52220471Y-45418561D01*
X52271140Y-45409593D01*
X52273670Y-45407979D01*
X52276616Y-45407393D01*
X52319411Y-45378798D01*
X52362784Y-45351128D01*
X52364505Y-45348667D01*
X52367000Y-45347000D01*
X52395590Y-45304212D01*
X52425077Y-45262043D01*
X52425725Y-45259113D01*
X52427393Y-45256616D01*
X52437431Y-45206153D01*
X52448538Y-45155901D01*
X52448015Y-45152943D01*
X52448600Y-45150000D01*
X52438561Y-45099529D01*
X52429593Y-45048860D01*
X52151055Y-44333945D01*
X54815442Y-44333945D01*
X54815816Y-44426466D01*
X54852157Y-44511551D01*
X55003632Y-44731328D01*
X54989699Y-44740931D01*
X54928994Y-44802130D01*
X54893343Y-44887507D01*
X54893717Y-44980027D01*
X54930057Y-45065112D01*
X55384049Y-45723816D01*
X55445248Y-45784522D01*
X55499741Y-45807277D01*
X55414000Y-45939687D01*
X55371947Y-46168260D01*
X55420567Y-46395526D01*
X55449029Y-46436823D01*
X55652166Y-46474196D01*
X56813420Y-45673835D01*
X56768021Y-45607965D01*
X56774097Y-45603777D01*
X57197012Y-45603777D01*
X57491057Y-46030411D01*
X57694194Y-46067784D01*
X58278749Y-45664896D01*
X58470109Y-45533006D01*
X58596432Y-45337925D01*
X58638485Y-45109352D01*
X58589865Y-44882086D01*
X58561403Y-44840789D01*
X58358266Y-44803416D01*
X57197012Y-45603777D01*
X56774097Y-45603777D01*
X57060814Y-45406165D01*
X57106214Y-45472036D01*
X58267468Y-44671675D01*
X58304840Y-44468539D01*
X58276378Y-44427242D01*
X58081297Y-44300920D01*
X57852723Y-44258868D01*
X57698200Y-44291926D01*
X57697987Y-44239135D01*
X57661647Y-44154050D01*
X57208524Y-43496607D01*
X57280057Y-43324336D01*
X57280224Y-43133937D01*
X57207515Y-42957968D01*
X57073000Y-42823219D01*
X56897158Y-42750203D01*
X56706759Y-42750036D01*
X56530790Y-42822745D01*
X56396041Y-42957260D01*
X56323025Y-43133102D01*
X56322953Y-43214771D01*
X54911798Y-44187369D01*
X54851092Y-44248569D01*
X54815442Y-44333945D01*
X52151055Y-44333945D01*
X51843650Y-43544939D01*
X51636510Y-41378600D01*
X59109752Y-41378600D01*
X59184428Y-41880963D01*
X59200092Y-41924700D01*
X59213207Y-41969272D01*
X59543207Y-42599272D01*
X59543880Y-42600106D01*
X59544190Y-42601132D01*
X59577994Y-42642391D01*
X59611464Y-42683876D01*
X59612405Y-42684389D01*
X59613084Y-42685218D01*
X60793084Y-43655217D01*
X60836299Y-43678361D01*
X60878596Y-43703179D01*
X62548597Y-44283179D01*
X62581702Y-44287774D01*
X62613724Y-44297358D01*
X64513724Y-44477358D01*
X64540493Y-44474621D01*
X64567272Y-44477262D01*
X66397272Y-44297262D01*
X66429101Y-44287611D01*
X66462036Y-44282959D01*
X66821058Y-44157301D01*
X71611581Y-44157301D01*
X71684290Y-44333270D01*
X71818805Y-44468019D01*
X71994647Y-44541035D01*
X72185046Y-44541202D01*
X72361015Y-44468493D01*
X72430130Y-44399498D01*
X74125410Y-44652702D01*
X74211549Y-44649451D01*
X74295896Y-44611427D01*
X74358804Y-44543584D01*
X74390361Y-44456611D01*
X74429790Y-44192617D01*
X74446526Y-44195117D01*
X74532665Y-44191866D01*
X74617012Y-44153842D01*
X74679920Y-44085999D01*
X74711477Y-43999026D01*
X74829652Y-43207802D01*
X74826401Y-43121663D01*
X74802133Y-43067830D01*
X74955190Y-43029654D01*
X75142002Y-42891395D01*
X75261683Y-42692171D01*
X75269092Y-42642566D01*
X75146218Y-42476544D01*
X73751341Y-42268208D01*
X73739523Y-42347330D01*
X73387824Y-42294801D01*
X73399642Y-42215679D01*
X72691840Y-42109963D01*
X73774976Y-42109963D01*
X75169853Y-42318299D01*
X75335876Y-42195426D01*
X75343284Y-42145821D01*
X75287039Y-41920321D01*
X75148779Y-41733509D01*
X74949555Y-41613828D01*
X74719695Y-41579497D01*
X74017539Y-41474624D01*
X73851517Y-41597498D01*
X73774976Y-42109963D01*
X72691840Y-42109963D01*
X72004765Y-42007343D01*
X71838742Y-42130216D01*
X71831334Y-42179821D01*
X71887579Y-42405321D01*
X72025839Y-42592133D01*
X72161294Y-42673506D01*
X72125400Y-42712215D01*
X72093843Y-42799188D01*
X71975668Y-43590412D01*
X71975728Y-43591998D01*
X71819513Y-43656545D01*
X71684764Y-43791060D01*
X71611748Y-43966902D01*
X71611581Y-44157301D01*
X66821058Y-44157301D01*
X68062036Y-43722959D01*
X68103200Y-43698673D01*
X68145463Y-43676404D01*
X69255463Y-42776404D01*
X69289961Y-42734872D01*
X69324746Y-42693107D01*
X69634746Y-42123107D01*
X69649076Y-42077072D01*
X69665456Y-42031736D01*
X69718283Y-41683076D01*
X71905526Y-41683076D01*
X72028400Y-41849098D01*
X73423277Y-42057434D01*
X73499818Y-41544969D01*
X73376945Y-41378946D01*
X72674788Y-41274074D01*
X72444929Y-41239743D01*
X72219428Y-41295988D01*
X72032616Y-41434247D01*
X71912935Y-41633471D01*
X71905526Y-41683076D01*
X69718283Y-41683076D01*
X69765456Y-41371736D01*
X69763600Y-41331404D01*
X69765870Y-41291095D01*
X69655870Y-40511095D01*
X69655396Y-40509738D01*
X69655462Y-40508298D01*
X69637465Y-40458471D01*
X69619983Y-40408485D01*
X69619023Y-40407410D01*
X69618534Y-40406057D01*
X69268534Y-39826057D01*
X69235558Y-39789892D01*
X69204040Y-39752450D01*
X68654040Y-39312450D01*
X68623737Y-39296736D01*
X68596080Y-39276735D01*
X67876080Y-38946735D01*
X67843883Y-38939080D01*
X67813253Y-38926537D01*
X65913253Y-38556537D01*
X65897196Y-38556602D01*
X65881737Y-38552249D01*
X63586861Y-38372650D01*
X61095943Y-38084855D01*
X58848551Y-37592006D01*
X58834724Y-37586890D01*
X70263610Y-37586890D01*
X70296566Y-37624697D01*
X70504700Y-37728111D01*
X70736565Y-37744003D01*
X70886349Y-37693657D01*
X70892540Y-37746082D01*
X70938283Y-37826504D01*
X71463961Y-38429549D01*
X71468767Y-38433340D01*
X71419145Y-38552844D01*
X71418978Y-38743243D01*
X71491687Y-38919212D01*
X71626202Y-39053961D01*
X71802044Y-39126977D01*
X71992443Y-39127144D01*
X72168412Y-39054435D01*
X72303161Y-38919920D01*
X72376177Y-38744078D01*
X72376297Y-38606762D01*
X73666662Y-37481941D01*
X73720046Y-37414260D01*
X73745797Y-37325395D01*
X73734946Y-37233513D01*
X73689202Y-37153091D01*
X73513808Y-36951884D01*
X73526564Y-36940764D01*
X73579948Y-36873084D01*
X73605699Y-36784219D01*
X73594848Y-36692336D01*
X73549105Y-36611914D01*
X73023427Y-36008869D01*
X72955745Y-35955485D01*
X72899029Y-35939050D01*
X72969220Y-35797782D01*
X72985113Y-35565916D01*
X72911065Y-35345619D01*
X72878108Y-35307812D01*
X72672046Y-35293688D01*
X71608916Y-36220425D01*
X71661485Y-36280730D01*
X71393431Y-36514394D01*
X71340863Y-36454089D01*
X70277734Y-37380827D01*
X70263610Y-37586890D01*
X58834724Y-37586890D01*
X57216078Y-36987990D01*
X69859531Y-36987990D01*
X69933579Y-37208287D01*
X69966536Y-37246094D01*
X70172598Y-37260218D01*
X71235728Y-36333481D01*
X70895252Y-35942896D01*
X70689190Y-35928772D01*
X70154030Y-36395275D01*
X69978838Y-36547991D01*
X69875424Y-36756124D01*
X69859531Y-36987990D01*
X57216078Y-36987990D01*
X56891746Y-36867987D01*
X55756764Y-36178891D01*
X63995815Y-36178891D01*
X64062732Y-36401458D01*
X64209728Y-36581476D01*
X64414424Y-36691536D01*
X64464325Y-36696575D01*
X64604622Y-36582012D01*
X64783500Y-36582012D01*
X64914138Y-36741996D01*
X64964039Y-36747035D01*
X65186606Y-36680118D01*
X65366623Y-36533121D01*
X65441455Y-36393945D01*
X65481830Y-36427956D01*
X65570207Y-36455337D01*
X66366159Y-36535710D01*
X66370847Y-36535309D01*
X66426301Y-36669518D01*
X66560816Y-36804267D01*
X66736658Y-36877283D01*
X66927057Y-36877450D01*
X67103026Y-36804741D01*
X67237775Y-36670226D01*
X67310791Y-36494384D01*
X67310958Y-36303985D01*
X67238249Y-36128016D01*
X67152777Y-36042396D01*
X67186419Y-35709232D01*
X71163306Y-35709232D01*
X71503781Y-36099817D01*
X72566910Y-35173079D01*
X72581034Y-34967016D01*
X72548078Y-34929209D01*
X72339944Y-34825795D01*
X72108079Y-34809903D01*
X71887781Y-34883951D01*
X71712590Y-35036667D01*
X71177430Y-35503170D01*
X71163306Y-35709232D01*
X67186419Y-35709232D01*
X67324900Y-34337833D01*
X67317551Y-34251946D01*
X67275555Y-34169505D01*
X67204794Y-34109898D01*
X67116417Y-34082517D01*
X66850846Y-34055700D01*
X66852546Y-34038864D01*
X66845197Y-33952978D01*
X66803201Y-33870537D01*
X66732440Y-33810930D01*
X66644063Y-33783549D01*
X65848111Y-33703176D01*
X65762225Y-33710525D01*
X65709608Y-33737329D01*
X65664188Y-33586262D01*
X65517192Y-33406244D01*
X65312496Y-33296184D01*
X65262595Y-33291145D01*
X65102611Y-33421783D01*
X64960918Y-34824997D01*
X65040514Y-34833034D01*
X65004787Y-35186835D01*
X64925192Y-35178798D01*
X64783500Y-36582012D01*
X64604622Y-36582012D01*
X64624309Y-36565937D01*
X64766002Y-35162723D01*
X64250473Y-35110667D01*
X64090489Y-35241304D01*
X64019164Y-35947657D01*
X63995815Y-36178891D01*
X55756764Y-36178891D01*
X55261029Y-35877910D01*
X54067624Y-34728060D01*
X57250264Y-34728060D01*
X57333074Y-34945217D01*
X57492682Y-35114152D01*
X57538456Y-35134653D01*
X57559945Y-35126458D01*
X57877469Y-35126458D01*
X57951064Y-35319448D01*
X57996838Y-35339948D01*
X58229153Y-35346544D01*
X58446309Y-35263733D01*
X58561170Y-35155214D01*
X58588776Y-35200210D01*
X58664030Y-35254035D01*
X59394148Y-35581034D01*
X59401085Y-35582696D01*
X59400989Y-35692666D01*
X59473698Y-35868635D01*
X59608213Y-36003384D01*
X59784055Y-36076400D01*
X59974454Y-36076567D01*
X60150423Y-36003858D01*
X60285172Y-35869343D01*
X60358188Y-35693501D01*
X60358355Y-35503102D01*
X60297863Y-35356701D01*
X60638163Y-34596882D01*
X64155561Y-34596882D01*
X64286199Y-34756866D01*
X64801728Y-34808922D01*
X64943420Y-33405708D01*
X64812782Y-33245724D01*
X64762881Y-33240685D01*
X64540314Y-33307602D01*
X64360297Y-33454599D01*
X64250236Y-33659295D01*
X64226887Y-33890529D01*
X64155561Y-34596882D01*
X60638163Y-34596882D01*
X60996393Y-33797032D01*
X61016472Y-33713203D01*
X61002582Y-33621730D01*
X60954198Y-33542869D01*
X60878945Y-33489044D01*
X60635339Y-33379940D01*
X60642256Y-33364497D01*
X60662335Y-33280668D01*
X60648445Y-33189195D01*
X60600062Y-33110334D01*
X60524808Y-33056509D01*
X59794690Y-32729510D01*
X59710861Y-32709431D01*
X59652479Y-32718296D01*
X59656956Y-32560614D01*
X59574146Y-32343457D01*
X59414538Y-32174522D01*
X59368764Y-32154021D01*
X59175774Y-32227616D01*
X58599297Y-33514768D01*
X58672309Y-33547468D01*
X58526958Y-33872006D01*
X58453946Y-33839306D01*
X57877469Y-35126458D01*
X57559945Y-35126458D01*
X57731446Y-35061058D01*
X58307923Y-33773906D01*
X57835035Y-33562113D01*
X57642045Y-33635708D01*
X57351856Y-34283637D01*
X57256860Y-34495745D01*
X57250264Y-34728060D01*
X54067624Y-34728060D01*
X53938546Y-34603693D01*
X52974735Y-33044586D01*
X57906791Y-33044586D01*
X57980385Y-33237576D01*
X58453274Y-33449368D01*
X59029751Y-32162216D01*
X58956156Y-31969226D01*
X58910382Y-31948726D01*
X58678067Y-31942130D01*
X58460911Y-32024941D01*
X58291976Y-32184549D01*
X58196979Y-32396657D01*
X57906791Y-33044586D01*
X52974735Y-33044586D01*
X52954374Y-33011650D01*
X52314243Y-31062160D01*
X52079822Y-28688653D01*
X52118980Y-28249010D01*
X54232956Y-28249010D01*
X54237551Y-28298954D01*
X54345788Y-28504620D01*
X54524492Y-28653211D01*
X54675408Y-28700051D01*
X54649744Y-28746185D01*
X54639766Y-28838166D01*
X54713061Y-29634802D01*
X54714553Y-29640036D01*
X54665846Y-29660162D01*
X54531097Y-29794677D01*
X54458081Y-29970519D01*
X54457914Y-30160918D01*
X54530623Y-30336887D01*
X54665138Y-30471636D01*
X54840980Y-30544652D01*
X55031379Y-30544819D01*
X55207348Y-30472110D01*
X55342097Y-30337595D01*
X55352672Y-30312129D01*
X57053699Y-30155625D01*
X57136596Y-30131990D01*
X57209487Y-30075007D01*
X57254465Y-29994154D01*
X57264443Y-29902173D01*
X57239988Y-29636374D01*
X57256840Y-29634824D01*
X57339738Y-29611189D01*
X57412628Y-29554206D01*
X57457606Y-29473353D01*
X57467584Y-29381372D01*
X57394289Y-28584736D01*
X57370654Y-28501839D01*
X57334285Y-28455317D01*
X57473879Y-28381852D01*
X57622471Y-28203148D01*
X57691364Y-27981185D01*
X57686769Y-27931241D01*
X57527952Y-27799186D01*
X56123534Y-27928400D01*
X56130863Y-28008063D01*
X55776758Y-28040643D01*
X55769429Y-27960979D01*
X54365011Y-28090193D01*
X54232956Y-28249010D01*
X52118980Y-28249010D01*
X52163527Y-27748867D01*
X54186940Y-27748867D01*
X54191535Y-27798811D01*
X54350352Y-27930866D01*
X55754770Y-27801652D01*
X55707298Y-27285681D01*
X55668117Y-27253102D01*
X56061403Y-27253102D01*
X56108875Y-27769073D01*
X57513293Y-27639859D01*
X57645348Y-27481042D01*
X57640753Y-27431098D01*
X57532516Y-27225432D01*
X57353812Y-27076841D01*
X57131848Y-27007949D01*
X56900417Y-27029241D01*
X56193458Y-27094285D01*
X56061403Y-27253102D01*
X55668117Y-27253102D01*
X55548482Y-27153627D01*
X54841523Y-27218670D01*
X54610091Y-27239963D01*
X54404425Y-27348200D01*
X54255833Y-27526904D01*
X54186940Y-27748867D01*
X52163527Y-27748867D01*
X52294275Y-26280933D01*
X52682801Y-25211225D01*
X69765915Y-25211225D01*
X69772829Y-25303487D01*
X69815093Y-25385790D01*
X69981726Y-25594309D01*
X69968505Y-25604874D01*
X69912278Y-25670211D01*
X69882752Y-25757895D01*
X69889666Y-25850157D01*
X69931930Y-25932461D01*
X70431353Y-26557423D01*
X70496690Y-26613650D01*
X70552654Y-26632495D01*
X70476488Y-26770635D01*
X70450699Y-27001610D01*
X70515264Y-27224870D01*
X70546574Y-27264052D01*
X70751845Y-27286970D01*
X71853613Y-26406519D01*
X71803671Y-26344023D01*
X71846848Y-26309519D01*
X72231293Y-26309519D01*
X72554763Y-26714298D01*
X72760033Y-26737217D01*
X73314644Y-26294014D01*
X73496202Y-26148926D01*
X73608418Y-25945403D01*
X73634207Y-25714428D01*
X73569642Y-25491168D01*
X73538332Y-25451986D01*
X73333061Y-25429068D01*
X72231293Y-26309519D01*
X71846848Y-26309519D01*
X72081466Y-26122030D01*
X72131408Y-26184526D01*
X73233177Y-25304075D01*
X73256096Y-25098805D01*
X73224785Y-25059624D01*
X73021262Y-24947408D01*
X72790287Y-24921620D01*
X72638489Y-24965519D01*
X72634544Y-24912875D01*
X72592280Y-24830571D01*
X72092857Y-24205609D01*
X72089733Y-24202921D01*
X72147427Y-24063978D01*
X72147594Y-23873579D01*
X72074885Y-23697610D01*
X71940370Y-23562861D01*
X71764528Y-23489845D01*
X71574129Y-23489678D01*
X71398160Y-23562387D01*
X71263411Y-23696902D01*
X71190395Y-23872744D01*
X71190293Y-23988474D01*
X69851668Y-25058204D01*
X69795441Y-25123541D01*
X69765915Y-25211225D01*
X52682801Y-25211225D01*
X53039918Y-24227996D01*
X53994428Y-22827526D01*
X57283746Y-22827526D01*
X57356455Y-23003495D01*
X57490970Y-23138244D01*
X57665727Y-23210810D01*
X58359454Y-24765892D01*
X58408524Y-24836762D01*
X58485944Y-24887420D01*
X58576973Y-24903966D01*
X58667268Y-24883793D01*
X58911035Y-24775048D01*
X58917930Y-24790504D01*
X58967000Y-24861374D01*
X59044420Y-24912032D01*
X59135450Y-24928578D01*
X59225745Y-24908405D01*
X59956344Y-24582483D01*
X60027215Y-24533413D01*
X60059547Y-24484000D01*
X60174050Y-24592501D01*
X60391084Y-24675632D01*
X60623409Y-24669378D01*
X60669213Y-24648945D01*
X60743092Y-24456064D01*
X60168511Y-23168064D01*
X60095451Y-23200656D01*
X60051833Y-23102879D01*
X60314631Y-23102879D01*
X60889211Y-24390880D01*
X61082093Y-24464758D01*
X61127897Y-24444325D01*
X61287753Y-24275625D01*
X61370883Y-24058591D01*
X61364630Y-23826266D01*
X61269945Y-23614019D01*
X60980712Y-22965662D01*
X60787831Y-22891784D01*
X60314631Y-23102879D01*
X60051833Y-23102879D01*
X59950579Y-22875905D01*
X60023639Y-22843313D01*
X59449059Y-21555312D01*
X59278876Y-21490128D01*
X59595178Y-21490128D01*
X60169759Y-22778128D01*
X60642958Y-22567032D01*
X60716837Y-22374151D01*
X60427604Y-21725795D01*
X60332920Y-21513548D01*
X60164220Y-21353691D01*
X59947186Y-21270560D01*
X59714861Y-21276814D01*
X59669057Y-21297247D01*
X59595178Y-21490128D01*
X59278876Y-21490128D01*
X59256177Y-21481434D01*
X59210373Y-21501867D01*
X59050517Y-21670567D01*
X58967387Y-21887601D01*
X58971639Y-22045563D01*
X58919698Y-22036122D01*
X58829403Y-22056295D01*
X58098804Y-22382217D01*
X58092868Y-22386327D01*
X58033888Y-22327244D01*
X57858046Y-22254228D01*
X57667647Y-22254061D01*
X57491678Y-22326770D01*
X57356929Y-22461285D01*
X57283913Y-22637127D01*
X57283746Y-22827526D01*
X53994428Y-22827526D01*
X54222865Y-22492361D01*
X55739068Y-21073351D01*
X56208108Y-20789920D01*
X60004881Y-20789920D01*
X60073229Y-21114671D01*
X60260653Y-21388545D01*
X60376475Y-21483398D01*
X60382954Y-21480319D01*
X60774455Y-21480319D01*
X60864804Y-21630979D01*
X61189555Y-21562631D01*
X61463429Y-21375207D01*
X61558282Y-21259385D01*
X61482879Y-21100715D01*
X61447554Y-21090039D01*
X64295265Y-21090039D01*
X64367974Y-21266008D01*
X64460923Y-21359119D01*
X64324660Y-23066071D01*
X64333808Y-23151784D01*
X64377524Y-23233326D01*
X64449520Y-23291436D01*
X64538452Y-23316957D01*
X64804528Y-23338198D01*
X64803181Y-23355066D01*
X64812329Y-23440780D01*
X64856045Y-23522321D01*
X64928041Y-23580431D01*
X65016973Y-23605952D01*
X65814436Y-23669612D01*
X65900149Y-23660464D01*
X65952193Y-23632562D01*
X66000771Y-23782642D01*
X66151511Y-23959537D01*
X66358471Y-24065281D01*
X66408467Y-24069272D01*
X66550733Y-23948039D01*
X66725168Y-23948039D01*
X66859133Y-24105248D01*
X66909129Y-24109239D01*
X67130243Y-24037668D01*
X67307138Y-23886927D01*
X67412881Y-23679967D01*
X67431375Y-23448295D01*
X67487869Y-22740602D01*
X67353904Y-22583393D01*
X66837397Y-22542161D01*
X66725168Y-23948039D01*
X66550733Y-23948039D01*
X66565675Y-23935307D01*
X66677904Y-22529429D01*
X66598158Y-22523063D01*
X66624930Y-22187689D01*
X66865694Y-22187689D01*
X67382201Y-22228921D01*
X67539409Y-22094956D01*
X67595903Y-21387262D01*
X67614397Y-21155590D01*
X67542827Y-20934476D01*
X67392087Y-20757581D01*
X67185127Y-20651837D01*
X67135131Y-20647846D01*
X66977923Y-20781811D01*
X66865694Y-22187689D01*
X66624930Y-22187689D01*
X66626455Y-22168591D01*
X66706201Y-22174957D01*
X66818430Y-20769079D01*
X66684465Y-20611870D01*
X66634469Y-20607879D01*
X66413355Y-20679450D01*
X66236460Y-20830191D01*
X66164564Y-20970905D01*
X66123485Y-20937749D01*
X66034553Y-20912228D01*
X65237090Y-20848568D01*
X65231433Y-20849172D01*
X65179922Y-20724506D01*
X65045407Y-20589757D01*
X64869565Y-20516741D01*
X64679166Y-20516574D01*
X64503197Y-20589283D01*
X64368448Y-20723798D01*
X64295432Y-20899640D01*
X64295265Y-21090039D01*
X61447554Y-21090039D01*
X60938865Y-20936305D01*
X60774455Y-21480319D01*
X60382954Y-21480319D01*
X60535145Y-21407995D01*
X60699555Y-20863981D01*
X60155541Y-20699571D01*
X60004881Y-20789920D01*
X56208108Y-20789920D01*
X56361886Y-20696995D01*
X61011189Y-20696995D01*
X61555203Y-20861405D01*
X61705863Y-20771056D01*
X61637515Y-20446305D01*
X61450091Y-20172431D01*
X61334269Y-20077578D01*
X61175599Y-20152981D01*
X61011189Y-20696995D01*
X56361886Y-20696995D01*
X57016228Y-20301591D01*
X60152462Y-20301591D01*
X60227865Y-20460261D01*
X60771879Y-20624671D01*
X60936289Y-20080657D01*
X60845940Y-19929997D01*
X60521189Y-19998345D01*
X60247315Y-20185769D01*
X60152462Y-20301591D01*
X57016228Y-20301591D01*
X57562737Y-19971348D01*
X59639689Y-19177796D01*
X61859389Y-18696533D01*
X64120126Y-18539264D01*
X66410983Y-18696576D01*
G36*
X50266772Y-48158400D02*
X50232972Y-48192200D01*
X50266772Y-48226000D01*
X50122772Y-48370000D01*
X49918908Y-48370000D01*
X49774908Y-48226000D01*
X49808708Y-48192200D01*
X49774908Y-48158400D01*
X49918908Y-48014400D01*
X50122772Y-48014400D01*
X50266772Y-48158400D01*
X50266772Y-48158400D01*
G37*
X50266772Y-48158400D02*
X50232972Y-48192200D01*
X50266772Y-48226000D01*
X50122772Y-48370000D01*
X49918908Y-48370000D01*
X49774908Y-48226000D01*
X49808708Y-48192200D01*
X49774908Y-48158400D01*
X49918908Y-48014400D01*
X50122772Y-48014400D01*
X50266772Y-48158400D01*
G36*
X79189722Y-48158400D02*
X79155922Y-48192200D01*
X79189722Y-48226000D01*
X79045722Y-48370000D01*
X78841858Y-48370000D01*
X78697858Y-48226000D01*
X78731658Y-48192200D01*
X78697858Y-48158400D01*
X78841858Y-48014400D01*
X79045722Y-48014400D01*
X79189722Y-48158400D01*
X79189722Y-48158400D01*
G37*
X79189722Y-48158400D02*
X79155922Y-48192200D01*
X79189722Y-48226000D01*
X79045722Y-48370000D01*
X78841858Y-48370000D01*
X78697858Y-48226000D01*
X78731658Y-48192200D01*
X78697858Y-48158400D01*
X78841858Y-48014400D01*
X79045722Y-48014400D01*
X79189722Y-48158400D01*
M02*
