G04 #@! TF.FileFunction,Soldermask,Bot*
%FSLAX46Y46*%
G04 Gerber Fmt 4.6, Leading zero omitted, Abs format (unit mm)*
G04 Created by KiCad (PCBNEW 4.0.0-rc2-stable) date 3/3/2016 3:45:24 PM*
%MOMM*%
G01*
G04 APERTURE LIST*
%ADD10C,0.150000*%
%ADD11R,4.000000X1.000000*%
%ADD12C,0.600000*%
%ADD13C,0.500000*%
G04 APERTURE END LIST*
D10*
D11*
X82907290Y-50192207D03*
X82907290Y-48192207D03*
X82907290Y-46192207D03*
D12*
X81907290Y-50192207D03*
X81907290Y-48192207D03*
X81907290Y-46192207D03*
D11*
X49020840Y-46192207D03*
X49020840Y-48192207D03*
X49020840Y-50192207D03*
D12*
X50020840Y-46192207D03*
X50020840Y-48192207D03*
X50020840Y-50192207D03*
D10*
G36*
X68671608Y-43024696D02*
X66659718Y-40799319D01*
X68588378Y-39055682D01*
X70600268Y-41281059D01*
X68671608Y-43024696D01*
X68671608Y-43024696D01*
G37*
G36*
X53949235Y-27485658D02*
X51937345Y-25260281D01*
X54607797Y-22846014D01*
X56619687Y-25071391D01*
X53949235Y-27485658D01*
X53949235Y-27485658D01*
G37*
D13*
X53004319Y-23756430D03*
D10*
G36*
X73674782Y-50822597D02*
X73670850Y-48822601D01*
X74430848Y-48821107D01*
X74434780Y-50821103D01*
X73674782Y-50822597D01*
X73674782Y-50822597D01*
G37*
G36*
X74944780Y-50820100D02*
X74940848Y-48820104D01*
X75700846Y-48818610D01*
X75704778Y-50818606D01*
X74944780Y-50820100D01*
X74944780Y-50820100D01*
G37*
G36*
X76214777Y-50817604D02*
X76210845Y-48817608D01*
X76970843Y-48816114D01*
X76974775Y-50816110D01*
X76214777Y-50817604D01*
X76214777Y-50817604D01*
G37*
G36*
X77484775Y-50815107D02*
X77480843Y-48815111D01*
X78240841Y-48813617D01*
X78244773Y-50813613D01*
X77484775Y-50815107D01*
X77484775Y-50815107D01*
G37*
G36*
X73668491Y-47622603D02*
X73664559Y-45622607D01*
X74424557Y-45621113D01*
X74428489Y-47621109D01*
X73668491Y-47622603D01*
X73668491Y-47622603D01*
G37*
G36*
X74938489Y-47620106D02*
X74934557Y-45620110D01*
X75694555Y-45618616D01*
X75698487Y-47618612D01*
X74938489Y-47620106D01*
X74938489Y-47620106D01*
G37*
G36*
X76208486Y-47617610D02*
X76204554Y-45617614D01*
X76964552Y-45616120D01*
X76968484Y-47616116D01*
X76208486Y-47617610D01*
X76208486Y-47617610D01*
G37*
G36*
X77488484Y-47615093D02*
X77484552Y-45615097D01*
X78224550Y-45613643D01*
X78228482Y-47613639D01*
X77488484Y-47615093D01*
X77488484Y-47615093D01*
G37*
G36*
X72400741Y-46225093D02*
X72399561Y-45625094D01*
X73299559Y-45623325D01*
X73300739Y-46223324D01*
X72400741Y-46225093D01*
X72400741Y-46225093D01*
G37*
G36*
X72403690Y-47725090D02*
X72402510Y-47125091D01*
X73302508Y-47123322D01*
X73303688Y-47723321D01*
X72403690Y-47725090D01*
X72403690Y-47725090D01*
G37*
G36*
X71153693Y-47727547D02*
X71152513Y-47127548D01*
X72052511Y-47125779D01*
X72053691Y-47725778D01*
X71153693Y-47727547D01*
X71153693Y-47727547D01*
G37*
G36*
X71150744Y-46227550D02*
X71149564Y-45627551D01*
X72049562Y-45625782D01*
X72050742Y-46225781D01*
X71150744Y-46227550D01*
X71150744Y-46227550D01*
G37*
G36*
X69900746Y-46230007D02*
X69899566Y-45630008D01*
X70799564Y-45628239D01*
X70800744Y-46228238D01*
X69900746Y-46230007D01*
X69900746Y-46230007D01*
G37*
G36*
X69903695Y-47730004D02*
X69902515Y-47130005D01*
X70802513Y-47128236D01*
X70803693Y-47728235D01*
X69903695Y-47730004D01*
X69903695Y-47730004D01*
G37*
G36*
X73053197Y-47473812D02*
X73052804Y-47273813D01*
X73952803Y-47272044D01*
X73953196Y-47472043D01*
X73053197Y-47473812D01*
X73053197Y-47473812D01*
G37*
M02*
