G04 #@! TF.FileFunction,Copper,L1,Top,Signal*
%FSLAX46Y46*%
G04 Gerber Fmt 4.6, Leading zero omitted, Abs format (unit mm)*
G04 Created by KiCad (PCBNEW 4.0.0-rc2-stable) date 3/3/2016 3:47:02 PM*
%MOMM*%
G01*
G04 APERTURE LIST*
%ADD10C,0.150000*%
%ADD11C,0.500000*%
%ADD12R,4.000000X1.000000*%
%ADD13C,0.600000*%
%ADD14C,0.254000*%
%ADD15C,0.152400*%
G04 APERTURE END LIST*
D10*
G36*
X81258798Y-48102372D02*
X79790541Y-49143631D01*
X79501302Y-48735782D01*
X80969559Y-47694523D01*
X81258798Y-48102372D01*
X81258798Y-48102372D01*
G37*
G36*
X80311553Y-46334513D02*
X78435446Y-47665011D01*
X78250333Y-47403987D01*
X80126440Y-46073489D01*
X80311553Y-46334513D01*
X80311553Y-46334513D01*
G37*
G36*
X81173483Y-47549903D02*
X79297377Y-48880401D01*
X78834595Y-48227843D01*
X80710701Y-46897345D01*
X81173483Y-47549903D01*
X81173483Y-47549903D01*
G37*
D11*
X79516907Y-49276389D03*
D10*
G36*
X66866943Y-46334873D02*
X68660441Y-46487736D01*
X68617979Y-46985929D01*
X66824481Y-46833066D01*
X66866943Y-46334873D01*
X66866943Y-46334873D01*
G37*
G36*
X66448848Y-48296453D02*
X68740539Y-48491777D01*
X68713364Y-48810621D01*
X66421673Y-48615297D01*
X66448848Y-48296453D01*
X66448848Y-48296453D01*
G37*
G36*
X66575385Y-46811836D02*
X68867076Y-47007160D01*
X68799137Y-47804270D01*
X66507446Y-47608946D01*
X66575385Y-46811836D01*
X66575385Y-46811836D01*
G37*
D11*
X68955111Y-46563032D03*
D10*
G36*
X61333160Y-44290027D02*
X62773160Y-45370027D01*
X62473160Y-45770027D01*
X61033160Y-44690027D01*
X61333160Y-44290027D01*
X61333160Y-44290027D01*
G37*
G36*
X59939160Y-45732027D02*
X61779160Y-47112027D01*
X61587160Y-47368027D01*
X59747160Y-45988027D01*
X59939160Y-45732027D01*
X59939160Y-45732027D01*
G37*
G36*
X60833160Y-44540027D02*
X62673160Y-45920027D01*
X62193160Y-46560027D01*
X60353160Y-45180027D01*
X60833160Y-44540027D01*
X60833160Y-44540027D01*
G37*
D11*
X62983160Y-45590028D03*
D10*
G36*
X57653910Y-39507114D02*
X58532675Y-41078029D01*
X58096310Y-41322130D01*
X57217545Y-39751215D01*
X57653910Y-39507114D01*
X57653910Y-39507114D01*
G37*
G36*
X55795127Y-40260455D02*
X56917993Y-42267734D01*
X56638719Y-42423959D01*
X55515853Y-40416680D01*
X55795127Y-40260455D01*
X55795127Y-40260455D01*
G37*
G36*
X57095495Y-39533032D02*
X58218361Y-41540312D01*
X57520177Y-41930874D01*
X56397311Y-39923594D01*
X57095495Y-39533032D01*
X57095495Y-39533032D01*
G37*
D11*
X58635500Y-41364257D03*
D10*
G36*
X57145273Y-33668763D02*
X56987128Y-35461802D01*
X56489061Y-35417873D01*
X56647206Y-33624834D01*
X57145273Y-33668763D01*
X57145273Y-33668763D01*
G37*
G36*
X55184933Y-33244891D02*
X54982858Y-35535997D01*
X54664095Y-35507883D01*
X54866170Y-33216777D01*
X55184933Y-33244891D01*
X55184933Y-33244891D01*
G37*
G36*
X56669170Y-33375800D02*
X56467096Y-35666906D01*
X55670190Y-35596620D01*
X55872264Y-33305514D01*
X56669170Y-33375800D01*
X56669170Y-33375800D01*
G37*
D11*
X56910963Y-35756249D03*
D10*
G36*
X59051688Y-28010690D02*
X58173264Y-29581795D01*
X57736846Y-29337788D01*
X58615270Y-27766683D01*
X59051688Y-28010690D01*
X59051688Y-28010690D01*
G37*
G36*
X57436748Y-26821334D02*
X56314317Y-28828857D01*
X56035010Y-28672692D01*
X57157441Y-26665169D01*
X57436748Y-26821334D01*
X57436748Y-26821334D01*
G37*
G36*
X58737274Y-27548474D02*
X57614843Y-29555997D01*
X56916574Y-29165586D01*
X58039005Y-27158063D01*
X58737274Y-27548474D01*
X58737274Y-27548474D01*
G37*
D11*
X57983218Y-29819245D03*
D10*
G36*
X63600158Y-24449807D02*
X61970629Y-25214422D01*
X61758236Y-24761775D01*
X63387765Y-23997160D01*
X63600158Y-24449807D01*
X63600158Y-24449807D01*
G37*
G36*
X62981158Y-22542076D02*
X60898982Y-23519084D01*
X60763050Y-23229390D01*
X62845226Y-22252382D01*
X62981158Y-22542076D01*
X62981158Y-22542076D01*
G37*
G36*
X63614088Y-23890964D02*
X61531912Y-24867971D01*
X61192084Y-24143736D01*
X63274260Y-23166729D01*
X63614088Y-23890964D01*
X63614088Y-23890964D01*
G37*
D11*
X61677802Y-25296593D03*
D10*
G36*
X69317394Y-23734799D02*
X67525476Y-23564418D01*
X67572804Y-23066663D01*
X69364722Y-23237044D01*
X69317394Y-23734799D01*
X69317394Y-23734799D01*
G37*
G36*
X69754637Y-21777398D02*
X67464964Y-21559689D01*
X67495255Y-21241126D01*
X69784928Y-21458835D01*
X69754637Y-21777398D01*
X69754637Y-21777398D01*
G37*
G36*
X69613600Y-23260709D02*
X67323927Y-23042999D01*
X67399652Y-22246591D01*
X69689325Y-22464301D01*
X69613600Y-23260709D01*
X69613600Y-23260709D01*
G37*
D11*
X67231556Y-23486245D03*
D10*
G36*
X74688338Y-25815967D02*
X73250454Y-24733152D01*
X73551236Y-24333739D01*
X74989120Y-25416554D01*
X74688338Y-25815967D01*
X74688338Y-25815967D01*
G37*
G36*
X76085156Y-24376696D02*
X74247859Y-22993100D01*
X74440360Y-22737476D01*
X76277657Y-24121072D01*
X76085156Y-24376696D01*
X76085156Y-24376696D01*
G37*
G36*
X75188826Y-25566945D02*
X73351529Y-24183349D01*
X73832780Y-23544289D01*
X75670077Y-24927885D01*
X75188826Y-25566945D01*
X75188826Y-25566945D01*
G37*
D11*
X73040884Y-24512742D03*
D10*
G36*
X78373431Y-30584612D02*
X77490114Y-29016252D01*
X77925769Y-28770886D01*
X78809086Y-30339246D01*
X78373431Y-30584612D01*
X78373431Y-30584612D01*
G37*
G36*
X80230023Y-29825882D02*
X79101340Y-27821868D01*
X79380159Y-27664834D01*
X80508842Y-29668848D01*
X80230023Y-29825882D01*
X80230023Y-29825882D01*
G37*
G36*
X78931769Y-30557073D02*
X77803086Y-28553058D01*
X78500135Y-28160473D01*
X79628818Y-30164488D01*
X78931769Y-30557073D01*
X78931769Y-30557073D01*
G37*
D11*
X77386460Y-28730322D03*
D10*
G36*
X78878305Y-36294684D02*
X79038320Y-34501811D01*
X79536341Y-34546260D01*
X79376326Y-36339133D01*
X78878305Y-36294684D01*
X78878305Y-36294684D01*
G37*
G36*
X80838202Y-36720600D02*
X81042666Y-34429707D01*
X81361400Y-34458154D01*
X81156936Y-36749047D01*
X80838202Y-36720600D01*
X80838202Y-36720600D01*
G37*
G36*
X79354102Y-36588144D02*
X79558566Y-34297250D01*
X80355398Y-34368368D01*
X80150934Y-36659262D01*
X79354102Y-36588144D01*
X79354102Y-36588144D01*
G37*
D11*
X79114792Y-34207444D03*
D10*
G36*
X76972329Y-41915097D02*
X77850104Y-40343629D01*
X78286623Y-40587455D01*
X77408848Y-42158923D01*
X76972329Y-41915097D01*
X76972329Y-41915097D01*
G37*
G36*
X78587762Y-43103784D02*
X79709362Y-41095797D01*
X79988734Y-41251846D01*
X78867134Y-43259833D01*
X78587762Y-43103784D01*
X78587762Y-43103784D01*
G37*
G36*
X77286936Y-42377183D02*
X78408536Y-40369195D01*
X79106966Y-40759317D01*
X77985366Y-42767305D01*
X77286936Y-42377183D01*
X77286936Y-42377183D01*
G37*
D11*
X78040051Y-40106100D03*
D10*
G36*
X72415309Y-45517607D02*
X74034259Y-44730842D01*
X74252805Y-45180551D01*
X72633855Y-45967316D01*
X72415309Y-45517607D01*
X72415309Y-45517607D01*
G37*
G36*
X73060268Y-47416720D02*
X75128927Y-46411409D01*
X75268796Y-46699222D01*
X73200137Y-47704533D01*
X73060268Y-47416720D01*
X73060268Y-47416720D01*
G37*
G36*
X72409001Y-46076589D02*
X74477660Y-45071278D01*
X74827333Y-45790811D01*
X72758674Y-46796122D01*
X72409001Y-46076589D01*
X72409001Y-46076589D01*
G37*
D11*
X74325939Y-44644685D03*
D12*
X49020836Y-46192207D03*
X49020836Y-48192207D03*
X49020836Y-50192207D03*
D13*
X50020836Y-46192207D03*
X50020836Y-48192207D03*
X50020836Y-50192207D03*
D12*
X87710130Y-50184090D03*
X87710130Y-48184090D03*
X87710130Y-46184090D03*
D13*
X86710130Y-50184090D03*
X86710130Y-48184090D03*
X86710130Y-46184090D03*
D11*
X81032457Y-31312642D03*
D14*
X80380000Y-48420000D02*
X80000000Y-47890000D01*
X80380000Y-48420000D02*
X80000000Y-47890000D01*
X80380000Y-48420000D02*
X80000000Y-47890000D01*
X80380000Y-48420000D02*
X80000000Y-47890000D01*
X80380000Y-48420000D02*
X80000000Y-47890000D01*
X80380000Y-48420000D02*
X80000000Y-47890000D01*
X80380000Y-48420000D02*
X80000000Y-47890000D01*
X80380000Y-48420000D02*
X80000000Y-47890000D01*
X80380000Y-48420000D02*
X80000000Y-47890000D01*
X80000000Y-47890000D02*
X79520000Y-49280000D01*
X80000000Y-47890000D02*
X79520000Y-49280000D01*
X80000000Y-47890000D02*
X79520000Y-49280000D01*
X80000000Y-47890000D02*
X79520000Y-49280000D01*
X80000000Y-47890000D02*
X79520000Y-49280000D01*
X80000000Y-47890000D02*
X79520000Y-49280000D01*
X80000000Y-47890000D02*
X79520000Y-49280000D01*
X80000000Y-47890000D02*
X79520000Y-49280000D01*
X80000000Y-47890000D02*
X79520000Y-49280000D01*
X67740000Y-46660000D02*
X67690000Y-47310000D01*
X67740000Y-46660000D02*
X67690000Y-47310000D01*
X67740000Y-46660000D02*
X67690000Y-47310000D01*
X67740000Y-46660000D02*
X67690000Y-47310000D01*
X67740000Y-46660000D02*
X67690000Y-47310000D01*
X67740000Y-46660000D02*
X67690000Y-47310000D01*
X67740000Y-46660000D02*
X67690000Y-47310000D01*
X67740000Y-46660000D02*
X67690000Y-47310000D01*
X67740000Y-46660000D02*
X67690000Y-47310000D01*
X67690000Y-47310000D02*
X68960000Y-46560000D01*
X67690000Y-47310000D02*
X68960000Y-46560000D01*
X67690000Y-47310000D02*
X68960000Y-46560000D01*
X67690000Y-47310000D02*
X68960000Y-46560000D01*
X67690000Y-47310000D02*
X68960000Y-46560000D01*
X67690000Y-47310000D02*
X68960000Y-46560000D01*
X67690000Y-47310000D02*
X68960000Y-46560000D01*
X67690000Y-47310000D02*
X68960000Y-46560000D01*
X67690000Y-47310000D02*
X68960000Y-46560000D01*
X61900000Y-45030000D02*
X61510000Y-45550000D01*
X61900000Y-45030000D02*
X61510000Y-45550000D01*
X61900000Y-45030000D02*
X61510000Y-45550000D01*
X61900000Y-45030000D02*
X61510000Y-45550000D01*
X61900000Y-45030000D02*
X61510000Y-45550000D01*
X61900000Y-45030000D02*
X61510000Y-45550000D01*
X61900000Y-45030000D02*
X61510000Y-45550000D01*
X61900000Y-45030000D02*
X61510000Y-45550000D01*
X61900000Y-45030000D02*
X61510000Y-45550000D01*
X61510000Y-45550000D02*
X62980000Y-45590000D01*
X61510000Y-45550000D02*
X62980000Y-45590000D01*
X61510000Y-45550000D02*
X62980000Y-45590000D01*
X61510000Y-45550000D02*
X62980000Y-45590000D01*
X61510000Y-45550000D02*
X62980000Y-45590000D01*
X61510000Y-45550000D02*
X62980000Y-45590000D01*
X61510000Y-45550000D02*
X62980000Y-45590000D01*
X61510000Y-45550000D02*
X62980000Y-45590000D01*
X61510000Y-45550000D02*
X62980000Y-45590000D01*
X57880000Y-40410000D02*
X57310000Y-40730000D01*
X57880000Y-40410000D02*
X57310000Y-40730000D01*
X57880000Y-40410000D02*
X57310000Y-40730000D01*
X57880000Y-40410000D02*
X57310000Y-40730000D01*
X57880000Y-40410000D02*
X57310000Y-40730000D01*
X57880000Y-40410000D02*
X57310000Y-40730000D01*
X57880000Y-40410000D02*
X57310000Y-40730000D01*
X57880000Y-40410000D02*
X57310000Y-40730000D01*
X57880000Y-40410000D02*
X57310000Y-40730000D01*
X57310000Y-40730000D02*
X58640000Y-41360000D01*
X57310000Y-40730000D02*
X58640000Y-41360000D01*
X57310000Y-40730000D02*
X58640000Y-41360000D01*
X57310000Y-40730000D02*
X58640000Y-41360000D01*
X57310000Y-40730000D02*
X58640000Y-41360000D01*
X57310000Y-40730000D02*
X58640000Y-41360000D01*
X57310000Y-40730000D02*
X58640000Y-41360000D01*
X57310000Y-40730000D02*
X58640000Y-41360000D01*
X57310000Y-40730000D02*
X58640000Y-41360000D01*
X56820000Y-34540000D02*
X56170000Y-34490000D01*
X56820000Y-34540000D02*
X56170000Y-34490000D01*
X56820000Y-34540000D02*
X56170000Y-34490000D01*
X56820000Y-34540000D02*
X56170000Y-34490000D01*
X56820000Y-34540000D02*
X56170000Y-34490000D01*
X56820000Y-34540000D02*
X56170000Y-34490000D01*
X56820000Y-34540000D02*
X56170000Y-34490000D01*
X56820000Y-34540000D02*
X56170000Y-34490000D01*
X56820000Y-34540000D02*
X56170000Y-34490000D01*
X56170000Y-34490000D02*
X56910000Y-35760000D01*
X56170000Y-34490000D02*
X56910000Y-35760000D01*
X56170000Y-34490000D02*
X56910000Y-35760000D01*
X56170000Y-34490000D02*
X56910000Y-35760000D01*
X56170000Y-34490000D02*
X56910000Y-35760000D01*
X56170000Y-34490000D02*
X56910000Y-35760000D01*
X56170000Y-34490000D02*
X56910000Y-35760000D01*
X56170000Y-34490000D02*
X56910000Y-35760000D01*
X56170000Y-34490000D02*
X56910000Y-35760000D01*
X58390000Y-28670000D02*
X57830000Y-28360000D01*
X58390000Y-28670000D02*
X57830000Y-28360000D01*
X58390000Y-28670000D02*
X57830000Y-28360000D01*
X58390000Y-28670000D02*
X57830000Y-28360000D01*
X58390000Y-28670000D02*
X57830000Y-28360000D01*
X58390000Y-28670000D02*
X57830000Y-28360000D01*
X58390000Y-28670000D02*
X57830000Y-28360000D01*
X58390000Y-28670000D02*
X57830000Y-28360000D01*
X58390000Y-28670000D02*
X57830000Y-28360000D01*
X57830000Y-28360000D02*
X57980000Y-29820000D01*
X57830000Y-28360000D02*
X57980000Y-29820000D01*
X57830000Y-28360000D02*
X57980000Y-29820000D01*
X57830000Y-28360000D02*
X57980000Y-29820000D01*
X57830000Y-28360000D02*
X57980000Y-29820000D01*
X57830000Y-28360000D02*
X57980000Y-29820000D01*
X57830000Y-28360000D02*
X57980000Y-29820000D01*
X57830000Y-28360000D02*
X57980000Y-29820000D01*
X57830000Y-28360000D02*
X57980000Y-29820000D01*
X62680000Y-24610000D02*
X62400000Y-24020000D01*
X62680000Y-24610000D02*
X62400000Y-24020000D01*
X62680000Y-24610000D02*
X62400000Y-24020000D01*
X62680000Y-24610000D02*
X62400000Y-24020000D01*
X62680000Y-24610000D02*
X62400000Y-24020000D01*
X62680000Y-24610000D02*
X62400000Y-24020000D01*
X62680000Y-24610000D02*
X62400000Y-24020000D01*
X62680000Y-24610000D02*
X62400000Y-24020000D01*
X62680000Y-24610000D02*
X62400000Y-24020000D01*
X62400000Y-24020000D02*
X61680000Y-25300000D01*
X62400000Y-24020000D02*
X61680000Y-25300000D01*
X62400000Y-24020000D02*
X61680000Y-25300000D01*
X62400000Y-24020000D02*
X61680000Y-25300000D01*
X62400000Y-24020000D02*
X61680000Y-25300000D01*
X62400000Y-24020000D02*
X61680000Y-25300000D01*
X62400000Y-24020000D02*
X61680000Y-25300000D01*
X62400000Y-24020000D02*
X61680000Y-25300000D01*
X62400000Y-24020000D02*
X61680000Y-25300000D01*
X68450000Y-23400000D02*
X68510000Y-22750000D01*
X68450000Y-23400000D02*
X68510000Y-22750000D01*
X68450000Y-23400000D02*
X68510000Y-22750000D01*
X68450000Y-23400000D02*
X68510000Y-22750000D01*
X68450000Y-23400000D02*
X68510000Y-22750000D01*
X68450000Y-23400000D02*
X68510000Y-22750000D01*
X68450000Y-23400000D02*
X68510000Y-22750000D01*
X68450000Y-23400000D02*
X68510000Y-22750000D01*
X68450000Y-23400000D02*
X68510000Y-22750000D01*
X68510000Y-22750000D02*
X67230000Y-23490000D01*
X68510000Y-22750000D02*
X67230000Y-23490000D01*
X68510000Y-22750000D02*
X67230000Y-23490000D01*
X68510000Y-22750000D02*
X67230000Y-23490000D01*
X68510000Y-22750000D02*
X67230000Y-23490000D01*
X68510000Y-22750000D02*
X67230000Y-23490000D01*
X68510000Y-22750000D02*
X67230000Y-23490000D01*
X68510000Y-22750000D02*
X67230000Y-23490000D01*
X68510000Y-22750000D02*
X67230000Y-23490000D01*
X74120000Y-25070000D02*
X74510000Y-24560000D01*
X74120000Y-25070000D02*
X74510000Y-24560000D01*
X74120000Y-25070000D02*
X74510000Y-24560000D01*
X74120000Y-25070000D02*
X74510000Y-24560000D01*
X74120000Y-25070000D02*
X74510000Y-24560000D01*
X74120000Y-25070000D02*
X74510000Y-24560000D01*
X74120000Y-25070000D02*
X74510000Y-24560000D01*
X74120000Y-25070000D02*
X74510000Y-24560000D01*
X74120000Y-25070000D02*
X74510000Y-24560000D01*
X74510000Y-24560000D02*
X73040000Y-24510000D01*
X74510000Y-24560000D02*
X73040000Y-24510000D01*
X74510000Y-24560000D02*
X73040000Y-24510000D01*
X74510000Y-24560000D02*
X73040000Y-24510000D01*
X74510000Y-24560000D02*
X73040000Y-24510000D01*
X74510000Y-24560000D02*
X73040000Y-24510000D01*
X74510000Y-24560000D02*
X73040000Y-24510000D01*
X74510000Y-24560000D02*
X73040000Y-24510000D01*
X74510000Y-24560000D02*
X73040000Y-24510000D01*
X78150000Y-29680000D02*
X78720000Y-29360000D01*
X78150000Y-29680000D02*
X78720000Y-29360000D01*
X78150000Y-29680000D02*
X78720000Y-29360000D01*
X78150000Y-29680000D02*
X78720000Y-29360000D01*
X78150000Y-29680000D02*
X78720000Y-29360000D01*
X78150000Y-29680000D02*
X78720000Y-29360000D01*
X78150000Y-29680000D02*
X78720000Y-29360000D01*
X78150000Y-29680000D02*
X78720000Y-29360000D01*
X78150000Y-29680000D02*
X78720000Y-29360000D01*
X78720000Y-29360000D02*
X77390000Y-28730000D01*
X78720000Y-29360000D02*
X77390000Y-28730000D01*
X78720000Y-29360000D02*
X77390000Y-28730000D01*
X78720000Y-29360000D02*
X77390000Y-28730000D01*
X78720000Y-29360000D02*
X77390000Y-28730000D01*
X78720000Y-29360000D02*
X77390000Y-28730000D01*
X78720000Y-29360000D02*
X77390000Y-28730000D01*
X78720000Y-29360000D02*
X77390000Y-28730000D01*
X78720000Y-29360000D02*
X77390000Y-28730000D01*
X79210000Y-35420000D02*
X79850000Y-35480000D01*
X79210000Y-35420000D02*
X79850000Y-35480000D01*
X79210000Y-35420000D02*
X79850000Y-35480000D01*
X79210000Y-35420000D02*
X79850000Y-35480000D01*
X79210000Y-35420000D02*
X79850000Y-35480000D01*
X79210000Y-35420000D02*
X79850000Y-35480000D01*
X79210000Y-35420000D02*
X79850000Y-35480000D01*
X79210000Y-35420000D02*
X79850000Y-35480000D01*
X79210000Y-35420000D02*
X79850000Y-35480000D01*
X79850000Y-35480000D02*
X79110000Y-34210000D01*
X79850000Y-35480000D02*
X79110000Y-34210000D01*
X79850000Y-35480000D02*
X79110000Y-34210000D01*
X79850000Y-35480000D02*
X79110000Y-34210000D01*
X79850000Y-35480000D02*
X79110000Y-34210000D01*
X79850000Y-35480000D02*
X79110000Y-34210000D01*
X79850000Y-35480000D02*
X79110000Y-34210000D01*
X79850000Y-35480000D02*
X79110000Y-34210000D01*
X79850000Y-35480000D02*
X79110000Y-34210000D01*
X77630000Y-41250000D02*
X78200000Y-41570000D01*
X77630000Y-41250000D02*
X78200000Y-41570000D01*
X77630000Y-41250000D02*
X78200000Y-41570000D01*
X77630000Y-41250000D02*
X78200000Y-41570000D01*
X77630000Y-41250000D02*
X78200000Y-41570000D01*
X77630000Y-41250000D02*
X78200000Y-41570000D01*
X77630000Y-41250000D02*
X78200000Y-41570000D01*
X77630000Y-41250000D02*
X78200000Y-41570000D01*
X77630000Y-41250000D02*
X78200000Y-41570000D01*
X78200000Y-41570000D02*
X78040000Y-40110000D01*
X78200000Y-41570000D02*
X78040000Y-40110000D01*
X78200000Y-41570000D02*
X78040000Y-40110000D01*
X78200000Y-41570000D02*
X78040000Y-40110000D01*
X78200000Y-41570000D02*
X78040000Y-40110000D01*
X78200000Y-41570000D02*
X78040000Y-40110000D01*
X78200000Y-41570000D02*
X78040000Y-40110000D01*
X78200000Y-41570000D02*
X78040000Y-40110000D01*
X78200000Y-41570000D02*
X78040000Y-40110000D01*
X73330000Y-45350000D02*
X73620000Y-45930000D01*
X73330000Y-45350000D02*
X73620000Y-45930000D01*
X73330000Y-45350000D02*
X73620000Y-45930000D01*
X73330000Y-45350000D02*
X73620000Y-45930000D01*
X73330000Y-45350000D02*
X73620000Y-45930000D01*
X73330000Y-45350000D02*
X73620000Y-45930000D01*
X73330000Y-45350000D02*
X73620000Y-45930000D01*
X73330000Y-45350000D02*
X73620000Y-45930000D01*
X73330000Y-45350000D02*
X73620000Y-45930000D01*
X73620000Y-45930000D02*
X74330000Y-44640000D01*
X73620000Y-45930000D02*
X74330000Y-44640000D01*
X73620000Y-45930000D02*
X74330000Y-44640000D01*
X73620000Y-45930000D02*
X74330000Y-44640000D01*
X73620000Y-45930000D02*
X74330000Y-44640000D01*
X73620000Y-45930000D02*
X74330000Y-44640000D01*
X73620000Y-45930000D02*
X74330000Y-44640000D01*
X73620000Y-45930000D02*
X74330000Y-44640000D01*
X73620000Y-45930000D02*
X74330000Y-44640000D01*
D15*
G36*
X70993118Y-18705634D02*
X73965699Y-19473386D01*
X76737567Y-20761027D01*
X79201515Y-22567268D01*
X81272764Y-24893742D01*
X82907667Y-27740049D01*
X83523972Y-29344399D01*
X83966259Y-31093889D01*
X84232263Y-32965768D01*
X84321026Y-34987598D01*
X84153178Y-37732404D01*
X83631483Y-40193231D01*
X82824433Y-42417537D01*
X81763019Y-44451088D01*
X81753380Y-44484024D01*
X81739039Y-44515205D01*
X81738252Y-44535716D01*
X81732486Y-44555417D01*
X81736185Y-44589538D01*
X81734869Y-44623829D01*
X81741990Y-44643079D01*
X81744203Y-44663487D01*
X81760678Y-44693594D01*
X81772585Y-44725781D01*
X82122585Y-45295781D01*
X82144820Y-45319792D01*
X82163000Y-45347000D01*
X82181403Y-45359296D01*
X82196445Y-45375540D01*
X82226179Y-45389215D01*
X82253384Y-45407393D01*
X82275093Y-45411711D01*
X82295205Y-45420961D01*
X82327907Y-45422216D01*
X82360000Y-45428600D01*
X89761400Y-45428600D01*
X89761400Y-45461394D01*
X89710130Y-45451012D01*
X85710130Y-45451012D01*
X85625416Y-45466952D01*
X85547612Y-45517018D01*
X85495415Y-45593410D01*
X85477052Y-45684090D01*
X85477052Y-46684090D01*
X85492992Y-46768804D01*
X85543058Y-46846608D01*
X85619450Y-46898805D01*
X85710130Y-46917168D01*
X89710130Y-46917168D01*
X89761400Y-46907521D01*
X89761400Y-47099890D01*
X88033980Y-47099890D01*
X87887930Y-47245940D01*
X87887930Y-48006290D01*
X87907930Y-48006290D01*
X87907930Y-48361890D01*
X87887930Y-48361890D01*
X87887930Y-49122240D01*
X88033980Y-49268290D01*
X89761400Y-49268290D01*
X89761400Y-49461394D01*
X89710130Y-49451012D01*
X85710130Y-49451012D01*
X85625416Y-49466952D01*
X85547612Y-49517018D01*
X85495415Y-49593410D01*
X85477052Y-49684090D01*
X85477052Y-50684090D01*
X85492992Y-50768804D01*
X85543058Y-50846608D01*
X85579342Y-50871400D01*
X85340000Y-50871400D01*
X85289726Y-50881400D01*
X77077623Y-50881400D01*
X76366143Y-49539495D01*
X76338903Y-49506075D01*
X76314489Y-49470520D01*
X76304779Y-49464208D01*
X76297464Y-49455234D01*
X76259506Y-49434781D01*
X76223347Y-49411277D01*
X76211962Y-49409162D01*
X76201768Y-49403669D01*
X76158867Y-49399298D01*
X76116471Y-49391422D01*
X76105144Y-49393825D01*
X76093624Y-49392651D01*
X76052317Y-49405030D01*
X76010133Y-49413978D01*
X73490929Y-50495053D01*
X70833657Y-51154450D01*
X68106522Y-51400582D01*
X65389425Y-51223380D01*
X63830255Y-50877994D01*
X63799839Y-50877335D01*
X63770000Y-50871400D01*
X51164518Y-50871400D01*
X51183354Y-50859279D01*
X51235551Y-50782887D01*
X51253914Y-50692207D01*
X51253914Y-49692207D01*
X51237974Y-49607493D01*
X51187908Y-49529689D01*
X51111516Y-49477492D01*
X51020836Y-49459129D01*
X47020836Y-49459129D01*
X46936122Y-49475069D01*
X46908600Y-49492779D01*
X46908600Y-49276407D01*
X48696986Y-49276407D01*
X48843036Y-49130357D01*
X48843036Y-48370007D01*
X48823036Y-48370007D01*
X48823036Y-48130540D01*
X49121424Y-48130540D01*
X49166289Y-48479424D01*
X49198636Y-48557517D01*
X49198636Y-49130357D01*
X49344686Y-49276407D01*
X51137040Y-49276407D01*
X51351758Y-49187468D01*
X51516097Y-49023130D01*
X51605036Y-48808412D01*
X51605036Y-48681469D01*
X65829715Y-48681469D01*
X65900098Y-48902965D01*
X66049887Y-49080665D01*
X66256276Y-49187518D01*
X66487845Y-49207255D01*
X67195226Y-49267546D01*
X67317324Y-49164626D01*
X67707467Y-49164626D01*
X67840586Y-49322551D01*
X68547966Y-49382842D01*
X68779536Y-49402579D01*
X69001031Y-49332196D01*
X69178732Y-49182408D01*
X69285585Y-48976019D01*
X69289844Y-48926045D01*
X69156725Y-48768120D01*
X67751470Y-48648347D01*
X67707467Y-49164626D01*
X67317324Y-49164626D01*
X67353151Y-49134427D01*
X67397154Y-48618149D01*
X65991899Y-48498376D01*
X65833974Y-48631496D01*
X65829715Y-48681469D01*
X51605036Y-48681469D01*
X51605036Y-48516057D01*
X51458986Y-48370007D01*
X50888756Y-48370007D01*
X50920248Y-48253874D01*
X50910881Y-48181029D01*
X65872368Y-48181029D01*
X66005487Y-48338954D01*
X67410742Y-48458727D01*
X67417536Y-48379015D01*
X67771852Y-48409215D01*
X67765058Y-48488925D01*
X69170313Y-48608698D01*
X69328238Y-48475578D01*
X69332497Y-48425605D01*
X69262114Y-48204109D01*
X69112325Y-48026409D01*
X69098573Y-48019289D01*
X72703568Y-48019289D01*
X72725490Y-48064399D01*
X72899335Y-48218645D01*
X73118975Y-48294623D01*
X73350970Y-48280764D01*
X73560003Y-48179180D01*
X73811758Y-48056834D01*
X77997124Y-48056834D01*
X78026137Y-48097745D01*
X78222894Y-48221441D01*
X78452011Y-48260425D01*
X78606074Y-48225299D01*
X78606996Y-48278083D01*
X78644474Y-48362673D01*
X79107176Y-49015119D01*
X79038391Y-49180772D01*
X79038224Y-49371171D01*
X79110933Y-49547140D01*
X79245448Y-49681889D01*
X79421290Y-49754905D01*
X79611689Y-49755072D01*
X79787658Y-49682363D01*
X79922407Y-49547848D01*
X79995423Y-49372006D01*
X79995500Y-49284018D01*
X81393628Y-48292493D01*
X81453509Y-48230486D01*
X81488012Y-48144639D01*
X81486397Y-48052132D01*
X81448919Y-47967542D01*
X81294510Y-47749813D01*
X81308313Y-47740024D01*
X81368194Y-47678017D01*
X81402697Y-47592170D01*
X81402274Y-47567885D01*
X85125930Y-47567885D01*
X85125930Y-47860240D01*
X85271980Y-48006290D01*
X85842210Y-48006290D01*
X85810718Y-48122423D01*
X85841512Y-48361890D01*
X85271980Y-48361890D01*
X85125930Y-48507940D01*
X85125930Y-48800295D01*
X85214869Y-49015013D01*
X85379208Y-49179351D01*
X85593926Y-49268290D01*
X87386280Y-49268290D01*
X87532330Y-49122240D01*
X87532330Y-48530488D01*
X87609542Y-48245757D01*
X87564677Y-47896873D01*
X87532330Y-47818780D01*
X87532330Y-47245940D01*
X87386280Y-47099890D01*
X85593926Y-47099890D01*
X85379208Y-47188829D01*
X85214869Y-47353167D01*
X85125930Y-47567885D01*
X81402274Y-47567885D01*
X81401082Y-47499663D01*
X81363604Y-47415073D01*
X80900822Y-46762515D01*
X80838815Y-46702635D01*
X80784024Y-46680613D01*
X80867982Y-46547066D01*
X80906968Y-46317949D01*
X80855306Y-46091355D01*
X80826292Y-46050443D01*
X80622673Y-46015797D01*
X79472252Y-46831653D01*
X79518530Y-46896908D01*
X79228468Y-47102615D01*
X79182190Y-47037359D01*
X78031770Y-47853215D01*
X77997124Y-48056834D01*
X73811758Y-48056834D01*
X74198540Y-47868869D01*
X74266062Y-47673672D01*
X74039583Y-47207639D01*
X72771090Y-47824092D01*
X72703568Y-48019289D01*
X69098573Y-48019289D01*
X68971999Y-47953758D01*
X69005375Y-47912857D01*
X69031373Y-47824064D01*
X69099312Y-47026954D01*
X69098762Y-47021523D01*
X69225862Y-46969006D01*
X69360611Y-46834491D01*
X69433627Y-46658649D01*
X69433794Y-46468250D01*
X69361085Y-46292281D01*
X69226570Y-46157532D01*
X69061238Y-46088880D01*
X72176247Y-46088880D01*
X72199367Y-46178465D01*
X72549040Y-46897998D01*
X72600404Y-46967224D01*
X72650850Y-46997921D01*
X72546157Y-47115917D01*
X72470178Y-47335557D01*
X72484036Y-47567552D01*
X72505959Y-47612662D01*
X72701156Y-47680185D01*
X73969648Y-47063733D01*
X73964048Y-47052209D01*
X74359416Y-47052209D01*
X74585895Y-47518242D01*
X74781092Y-47585765D01*
X75121057Y-47420551D01*
X77654918Y-47420551D01*
X77706580Y-47647145D01*
X77735594Y-47688057D01*
X77939213Y-47722703D01*
X79089634Y-46906847D01*
X78789896Y-46484193D01*
X78586276Y-46449547D01*
X78007175Y-46860234D01*
X77817600Y-46994678D01*
X77693904Y-47191434D01*
X77654918Y-47420551D01*
X75121057Y-47420551D01*
X75419628Y-47275454D01*
X75628661Y-47173870D01*
X75782907Y-47000025D01*
X75858886Y-46780385D01*
X75845028Y-46548390D01*
X75823105Y-46503280D01*
X75627908Y-46435757D01*
X74359416Y-47052209D01*
X73964048Y-47052209D01*
X73934681Y-46991779D01*
X74254514Y-46836350D01*
X74289481Y-46908303D01*
X75557974Y-46291850D01*
X75562596Y-46278487D01*
X79079958Y-46278487D01*
X79379696Y-46701141D01*
X80530116Y-45885285D01*
X80564762Y-45681666D01*
X80535749Y-45640755D01*
X80338992Y-45517059D01*
X80109875Y-45478075D01*
X79883281Y-45529737D01*
X79693705Y-45664180D01*
X79114604Y-46074867D01*
X79079958Y-46278487D01*
X75562596Y-46278487D01*
X75625496Y-46096653D01*
X75603574Y-46051543D01*
X75429729Y-45897297D01*
X75210089Y-45821319D01*
X75052352Y-45830742D01*
X75060087Y-45778520D01*
X75036967Y-45688935D01*
X74687294Y-44969402D01*
X74683377Y-44964123D01*
X74731439Y-44916144D01*
X74804455Y-44740302D01*
X74804622Y-44549903D01*
X74731913Y-44373934D01*
X74597398Y-44239185D01*
X74421556Y-44166169D01*
X74231157Y-44166002D01*
X74055188Y-44238711D01*
X73920439Y-44373226D01*
X73847423Y-44549068D01*
X73847411Y-44562502D01*
X72313433Y-45307973D01*
X72244207Y-45359337D01*
X72196111Y-45438375D01*
X72182555Y-45529898D01*
X72205675Y-45619483D01*
X72322345Y-45859559D01*
X72307125Y-45866955D01*
X72237899Y-45918319D01*
X72189803Y-45997357D01*
X72176247Y-46088880D01*
X69061238Y-46088880D01*
X69050728Y-46084516D01*
X68860329Y-46084349D01*
X68684360Y-46157058D01*
X68593180Y-46248080D01*
X66886737Y-46102637D01*
X66800975Y-46111325D01*
X66719200Y-46154603D01*
X66660705Y-46226286D01*
X66634707Y-46315079D01*
X66612039Y-46581037D01*
X66595179Y-46579600D01*
X66509417Y-46588288D01*
X66427642Y-46631566D01*
X66369147Y-46703249D01*
X66343149Y-46792042D01*
X66275210Y-47589152D01*
X66283898Y-47674914D01*
X66311520Y-47727106D01*
X66161181Y-47774878D01*
X65983480Y-47924666D01*
X65876627Y-48131055D01*
X65872368Y-48181029D01*
X50910881Y-48181029D01*
X50889454Y-48014407D01*
X51458986Y-48014407D01*
X51605036Y-47868357D01*
X51605036Y-47576002D01*
X51516097Y-47361284D01*
X51351758Y-47196946D01*
X51202755Y-47135227D01*
X60546510Y-47135227D01*
X60575720Y-47339697D01*
X61143676Y-47765664D01*
X61329603Y-47905110D01*
X61554740Y-47962789D01*
X61784814Y-47929922D01*
X61984797Y-47811511D01*
X62014890Y-47771387D01*
X61985680Y-47566917D01*
X60857400Y-46720707D01*
X60546510Y-47135227D01*
X51202755Y-47135227D01*
X51137040Y-47108007D01*
X49344686Y-47108007D01*
X49198636Y-47254057D01*
X49198636Y-47845809D01*
X49121424Y-48130540D01*
X48823036Y-48130540D01*
X48823036Y-48014407D01*
X48843036Y-48014407D01*
X48843036Y-47254057D01*
X48696986Y-47108007D01*
X46908600Y-47108007D01*
X46908600Y-46892193D01*
X46930156Y-46906922D01*
X47020836Y-46925285D01*
X51020836Y-46925285D01*
X51105550Y-46909345D01*
X51183354Y-46859279D01*
X51235551Y-46782887D01*
X51253914Y-46692207D01*
X51253914Y-45955608D01*
X59152398Y-45955608D01*
X59185266Y-46185682D01*
X59303677Y-46385664D01*
X59489604Y-46525110D01*
X60057560Y-46951077D01*
X60262030Y-46921867D01*
X60572920Y-46507347D01*
X59444640Y-45661136D01*
X59240170Y-45690346D01*
X59210077Y-45730470D01*
X59152398Y-45955608D01*
X51253914Y-45955608D01*
X51253914Y-45692207D01*
X51237974Y-45607493D01*
X51187908Y-45529689D01*
X51111516Y-45477492D01*
X51020836Y-45459129D01*
X47020836Y-45459129D01*
X46936122Y-45475069D01*
X46908600Y-45492779D01*
X46908600Y-45428600D01*
X54440000Y-45428600D01*
X54475075Y-45421623D01*
X54510774Y-45419461D01*
X54527916Y-45411113D01*
X54546616Y-45407393D01*
X54576352Y-45387524D01*
X54608505Y-45371865D01*
X54621147Y-45357593D01*
X54637000Y-45347000D01*
X54649249Y-45328667D01*
X59511430Y-45328667D01*
X59540640Y-45533137D01*
X60668920Y-46379347D01*
X60716920Y-46315347D01*
X61001400Y-46528707D01*
X60953400Y-46592707D01*
X62081680Y-47438918D01*
X62286150Y-47409708D01*
X62316243Y-47369584D01*
X62373922Y-47144446D01*
X62341054Y-46914372D01*
X62260545Y-46778401D01*
X62310524Y-46761400D01*
X62379622Y-46699874D01*
X62859622Y-46059874D01*
X62860817Y-46057446D01*
X62887543Y-46068544D01*
X63077942Y-46068711D01*
X63253911Y-45996002D01*
X63388660Y-45861487D01*
X63461676Y-45685645D01*
X63461843Y-45495246D01*
X63389134Y-45319277D01*
X63254619Y-45184528D01*
X63078777Y-45111512D01*
X62888378Y-45111345D01*
X62842170Y-45130438D01*
X61473007Y-44103565D01*
X61395672Y-44065488D01*
X61303388Y-44058858D01*
X61215796Y-44088654D01*
X61146698Y-44150180D01*
X60986544Y-44363718D01*
X60973007Y-44353565D01*
X60895672Y-44315488D01*
X60803388Y-44308858D01*
X60715796Y-44338654D01*
X60646698Y-44400180D01*
X60166698Y-45040180D01*
X60128621Y-45117515D01*
X60124389Y-45176414D01*
X59971580Y-45137265D01*
X59741506Y-45170132D01*
X59541523Y-45288543D01*
X59511430Y-45328667D01*
X54649249Y-45328667D01*
X54656869Y-45317264D01*
X54680583Y-45290492D01*
X54686801Y-45272468D01*
X54697393Y-45256616D01*
X54704370Y-45221538D01*
X54716033Y-45187731D01*
X54714880Y-45168700D01*
X54718600Y-45150000D01*
X54711623Y-45114925D01*
X54709461Y-45079226D01*
X54701113Y-45062084D01*
X54697393Y-45043384D01*
X54677524Y-45013648D01*
X54661865Y-44981495D01*
X54077575Y-44212179D01*
X52965565Y-41988161D01*
X55725542Y-41988161D01*
X56072139Y-42607752D01*
X56185601Y-42810582D01*
X56368047Y-42954553D01*
X56591701Y-43017746D01*
X56822512Y-42990540D01*
X56866283Y-42966054D01*
X56922444Y-42767290D01*
X56233907Y-41536435D01*
X55781702Y-41789397D01*
X55725542Y-41988161D01*
X52965565Y-41988161D01*
X52751220Y-41559472D01*
X52420507Y-40369662D01*
X54922067Y-40369662D01*
X54949273Y-40600473D01*
X55062736Y-40803303D01*
X55409333Y-41422894D01*
X55608097Y-41479054D01*
X56060302Y-41226092D01*
X55371765Y-39995237D01*
X55173001Y-39939076D01*
X55129229Y-39963562D01*
X54985259Y-40146008D01*
X54922067Y-40369662D01*
X52420507Y-40369662D01*
X52294722Y-39917124D01*
X55511402Y-39917124D01*
X56199939Y-41147979D01*
X56269757Y-41108923D01*
X56443362Y-41419266D01*
X56373544Y-41458322D01*
X57062081Y-42689177D01*
X57260845Y-42745338D01*
X57304617Y-42720852D01*
X57448587Y-42538406D01*
X57511779Y-42314752D01*
X57493281Y-42157820D01*
X57545862Y-42162532D01*
X57633966Y-42134288D01*
X58332150Y-41743726D01*
X58335370Y-41741036D01*
X58364041Y-41769757D01*
X58539883Y-41842773D01*
X58730282Y-41842940D01*
X58906251Y-41770231D01*
X59041000Y-41635716D01*
X59114016Y-41459874D01*
X59114183Y-41269475D01*
X59041474Y-41093506D01*
X58906959Y-40958757D01*
X58731117Y-40885741D01*
X58692158Y-40885707D01*
X57857324Y-39393325D01*
X57802055Y-39327174D01*
X57720377Y-39283714D01*
X57628225Y-39275456D01*
X57540121Y-39303700D01*
X57307171Y-39434012D01*
X57298909Y-39419243D01*
X57243640Y-39353092D01*
X57161962Y-39309632D01*
X57069810Y-39301374D01*
X56981706Y-39329618D01*
X56283522Y-39720180D01*
X56217371Y-39775449D01*
X56189633Y-39827580D01*
X56065799Y-39729861D01*
X55842145Y-39666668D01*
X55611334Y-39693874D01*
X55567563Y-39718360D01*
X55511402Y-39917124D01*
X52294722Y-39917124D01*
X51895510Y-38480882D01*
X51657237Y-35572310D01*
X54071945Y-35572310D01*
X54141675Y-35794012D01*
X54290939Y-35972154D01*
X54497013Y-36079614D01*
X54546974Y-36084020D01*
X54688514Y-35965424D01*
X54864672Y-35965424D01*
X54997326Y-36123741D01*
X55047287Y-36128148D01*
X55268988Y-36058417D01*
X55447129Y-35909152D01*
X55520193Y-35769040D01*
X55560996Y-35802537D01*
X55649712Y-35828797D01*
X56446618Y-35899083D01*
X56451919Y-35898562D01*
X56504989Y-36027000D01*
X56639504Y-36161749D01*
X56815346Y-36234765D01*
X57005745Y-36234932D01*
X57181714Y-36162223D01*
X57316463Y-36027708D01*
X57389479Y-35851866D01*
X57389646Y-35661467D01*
X57316937Y-35485498D01*
X57226970Y-35395375D01*
X57260020Y-35020654D01*
X59583092Y-35020654D01*
X59883092Y-37730654D01*
X59891360Y-37756770D01*
X59894366Y-37784004D01*
X60264366Y-38954003D01*
X60275242Y-38973787D01*
X60281288Y-38995540D01*
X60811288Y-40045540D01*
X60828640Y-40067723D01*
X60841462Y-40092798D01*
X62201462Y-41812797D01*
X62229545Y-41836712D01*
X62254364Y-41864015D01*
X63904365Y-43084015D01*
X63937890Y-43099812D01*
X63969156Y-43119708D01*
X65849156Y-43849708D01*
X65883076Y-43855672D01*
X65915781Y-43866491D01*
X67935781Y-44116491D01*
X67970084Y-44113975D01*
X68004387Y-44116470D01*
X70014387Y-43866470D01*
X70048208Y-43855259D01*
X70083232Y-43848768D01*
X70698433Y-43603342D01*
X78583626Y-43603342D01*
X78639911Y-43802071D01*
X78683699Y-43826529D01*
X78914527Y-43853590D01*
X79138140Y-43790256D01*
X79320495Y-43646170D01*
X79433830Y-43443268D01*
X79780037Y-42823459D01*
X79723751Y-42624730D01*
X79271386Y-42372053D01*
X78583626Y-43603342D01*
X70698433Y-43603342D01*
X71963232Y-43098768D01*
X71993706Y-43078979D01*
X72026509Y-43063366D01*
X73609702Y-41883168D01*
X76741448Y-41883168D01*
X76747216Y-41975509D01*
X76788455Y-42058331D01*
X76858668Y-42118583D01*
X77091702Y-42248749D01*
X77083450Y-42263522D01*
X77056055Y-42345254D01*
X77061823Y-42437595D01*
X77103062Y-42520417D01*
X77173275Y-42580669D01*
X77871705Y-42970791D01*
X77953437Y-42998186D01*
X78012372Y-42994505D01*
X77994005Y-43151176D01*
X78057338Y-43374790D01*
X78201424Y-43557145D01*
X78245211Y-43581603D01*
X78443940Y-43525318D01*
X79131700Y-42294029D01*
X79061857Y-42255017D01*
X79169893Y-42061601D01*
X79444796Y-42061601D01*
X79897160Y-42314278D01*
X80095889Y-42257993D01*
X80442095Y-41638184D01*
X80555430Y-41435282D01*
X80582491Y-41204454D01*
X80519158Y-40980840D01*
X80375072Y-40798485D01*
X80331285Y-40774027D01*
X80132556Y-40830312D01*
X79444796Y-42061601D01*
X79169893Y-42061601D01*
X79235267Y-41944565D01*
X79305110Y-41983577D01*
X79992870Y-40752288D01*
X79936585Y-40553559D01*
X79892797Y-40529101D01*
X79661969Y-40502040D01*
X79438356Y-40565374D01*
X79314370Y-40663340D01*
X79290840Y-40616083D01*
X79220627Y-40555831D01*
X78522197Y-40165709D01*
X78518600Y-40164503D01*
X78518734Y-40011318D01*
X78446025Y-39835349D01*
X78311510Y-39700600D01*
X78135668Y-39627584D01*
X77945269Y-39627417D01*
X77769300Y-39700126D01*
X77634551Y-39834641D01*
X77561535Y-40010483D01*
X77561368Y-40200882D01*
X77604524Y-40305328D01*
X76768843Y-41801436D01*
X76741448Y-41883168D01*
X73609702Y-41883168D01*
X73676510Y-41833366D01*
X73700599Y-41806657D01*
X73728047Y-41783417D01*
X75088047Y-40073417D01*
X75100877Y-40048502D01*
X75118225Y-40026499D01*
X75648225Y-38986499D01*
X75654407Y-38964587D01*
X75665425Y-38944661D01*
X76035425Y-37784661D01*
X76038537Y-37757096D01*
X76046908Y-37730654D01*
X76346908Y-35020654D01*
X76344248Y-34989836D01*
X76346871Y-34959007D01*
X76273351Y-34302226D01*
X78636109Y-34302226D01*
X78708818Y-34478195D01*
X78798413Y-34567946D01*
X78646150Y-36273964D01*
X78654496Y-36359759D01*
X78697447Y-36441707D01*
X78768896Y-36500487D01*
X78857585Y-36526839D01*
X79123451Y-36550568D01*
X79121947Y-36567424D01*
X79130293Y-36653219D01*
X79173244Y-36735167D01*
X79244693Y-36793947D01*
X79333382Y-36820299D01*
X80130214Y-36891417D01*
X80216010Y-36883071D01*
X80268312Y-36855658D01*
X80315484Y-37006185D01*
X80464562Y-37184482D01*
X80670524Y-37292157D01*
X80720480Y-37296616D01*
X80861923Y-37178351D01*
X81038302Y-37178351D01*
X81170790Y-37336806D01*
X81220747Y-37341265D01*
X81442521Y-37271766D01*
X81620818Y-37122687D01*
X81728492Y-36916725D01*
X81749153Y-36685236D01*
X81812265Y-35978102D01*
X81679777Y-35819647D01*
X81163678Y-35773585D01*
X81038302Y-37178351D01*
X80861923Y-37178351D01*
X80878935Y-37164127D01*
X81004312Y-35759361D01*
X80924628Y-35752249D01*
X80954336Y-35419393D01*
X81195290Y-35419393D01*
X81711389Y-35465455D01*
X81869844Y-35332967D01*
X81932956Y-34625832D01*
X81953617Y-34394344D01*
X81884118Y-34172569D01*
X81735040Y-33994272D01*
X81529078Y-33886597D01*
X81479122Y-33882138D01*
X81320667Y-34014627D01*
X81195290Y-35419393D01*
X80954336Y-35419393D01*
X80956241Y-35398057D01*
X81035924Y-35405169D01*
X81161300Y-34000403D01*
X81028812Y-33841948D01*
X80978855Y-33837489D01*
X80757081Y-33906988D01*
X80578784Y-34056067D01*
X80505575Y-34196104D01*
X80464807Y-34162565D01*
X80376118Y-34136213D01*
X79579286Y-34065095D01*
X79574032Y-34065606D01*
X79520766Y-33936693D01*
X79386251Y-33801944D01*
X79210409Y-33728928D01*
X79020010Y-33728761D01*
X78844041Y-33801470D01*
X78709292Y-33935985D01*
X78636276Y-34111827D01*
X78636109Y-34302226D01*
X76273351Y-34302226D01*
X76046871Y-32279007D01*
X76038518Y-32252733D01*
X76035425Y-32225339D01*
X75941642Y-31931315D01*
X80695478Y-31931315D01*
X80722868Y-32104841D01*
X81049595Y-32163013D01*
X81373714Y-32091724D01*
X81505023Y-32019824D01*
X81494491Y-31844465D01*
X81051559Y-31488384D01*
X80695478Y-31931315D01*
X75941642Y-31931315D01*
X75749773Y-31329780D01*
X80182086Y-31329780D01*
X80253375Y-31653899D01*
X80325275Y-31785208D01*
X80500634Y-31774676D01*
X80856715Y-31331744D01*
X80809193Y-31293540D01*
X81208199Y-31293540D01*
X81651130Y-31649621D01*
X81824656Y-31622231D01*
X81882828Y-31295504D01*
X81811539Y-30971385D01*
X81739639Y-30840076D01*
X81564280Y-30850608D01*
X81208199Y-31293540D01*
X80809193Y-31293540D01*
X80413784Y-30975663D01*
X80240258Y-31003053D01*
X80182086Y-31329780D01*
X75749773Y-31329780D01*
X75665425Y-31065339D01*
X75654145Y-31044940D01*
X75647728Y-31022529D01*
X75117728Y-29992529D01*
X75100383Y-29970707D01*
X75087550Y-29945960D01*
X74190866Y-28825104D01*
X76907777Y-28825104D01*
X76980486Y-29001073D01*
X77115001Y-29135822D01*
X77290843Y-29208838D01*
X77331098Y-29208873D01*
X78170348Y-30698991D01*
X78225808Y-30764981D01*
X78307612Y-30808204D01*
X78399788Y-30816195D01*
X78487810Y-30787695D01*
X78720382Y-30656708D01*
X78728686Y-30671452D01*
X78784146Y-30737442D01*
X78865950Y-30780665D01*
X78958125Y-30788656D01*
X79046148Y-30760156D01*
X79320816Y-30605460D01*
X80559891Y-30605460D01*
X80570423Y-30780819D01*
X81013355Y-31136900D01*
X81369436Y-30693969D01*
X81342046Y-30520443D01*
X81015319Y-30462271D01*
X80691200Y-30533560D01*
X80559891Y-30605460D01*
X79320816Y-30605460D01*
X79743197Y-30367571D01*
X79809187Y-30312111D01*
X79836774Y-30259900D01*
X79960890Y-30357259D01*
X80184726Y-30419803D01*
X80415458Y-30391928D01*
X80459158Y-30367315D01*
X80514742Y-30168389D01*
X79822638Y-28939536D01*
X79752933Y-28978794D01*
X79686601Y-28861019D01*
X79962048Y-28861019D01*
X80654151Y-30089872D01*
X80853078Y-30145455D01*
X80896778Y-30120843D01*
X81040219Y-29937980D01*
X81102762Y-29714144D01*
X81074887Y-29483413D01*
X80960836Y-29280912D01*
X80612444Y-28662329D01*
X80413518Y-28606746D01*
X79962048Y-28861019D01*
X79686601Y-28861019D01*
X79578429Y-28668956D01*
X79648134Y-28629697D01*
X78956031Y-27400844D01*
X78757104Y-27345261D01*
X78713404Y-27369873D01*
X78569963Y-27552736D01*
X78507420Y-27776572D01*
X78526373Y-27933450D01*
X78473779Y-27928890D01*
X78385756Y-27957390D01*
X77688707Y-28349975D01*
X77685619Y-28352570D01*
X77657919Y-28324822D01*
X77482077Y-28251806D01*
X77291678Y-28251639D01*
X77115709Y-28324348D01*
X76980960Y-28458863D01*
X76907944Y-28634705D01*
X76907777Y-28825104D01*
X74190866Y-28825104D01*
X73727550Y-28245960D01*
X73699926Y-28222706D01*
X73675636Y-28195985D01*
X72494050Y-27322327D01*
X79095440Y-27322327D01*
X79787544Y-28551180D01*
X80239013Y-28296908D01*
X80294597Y-28097981D01*
X79946204Y-27479399D01*
X79832154Y-27276898D01*
X79649292Y-27133457D01*
X79425456Y-27070913D01*
X79194724Y-27098788D01*
X79151024Y-27123401D01*
X79095440Y-27322327D01*
X72494050Y-27322327D01*
X72025636Y-26975985D01*
X71992111Y-26960189D01*
X71960844Y-26940292D01*
X70080844Y-26210292D01*
X70046341Y-26204226D01*
X70013031Y-26193365D01*
X68003031Y-25953365D01*
X67970079Y-25955924D01*
X67937130Y-25953346D01*
X65917130Y-26193346D01*
X65883738Y-26204212D01*
X65849156Y-26210292D01*
X63969156Y-26940292D01*
X63937890Y-26960188D01*
X63904365Y-26975985D01*
X62254364Y-28195985D01*
X62230074Y-28222706D01*
X62202450Y-28245960D01*
X60842450Y-29945960D01*
X60829618Y-29970704D01*
X60812272Y-29992528D01*
X60282272Y-31022529D01*
X60275855Y-31044938D01*
X60264575Y-31065338D01*
X59894575Y-32225339D01*
X59891483Y-32252732D01*
X59883129Y-32279007D01*
X59583129Y-34959007D01*
X59585752Y-34989835D01*
X59583092Y-35020654D01*
X57260020Y-35020654D01*
X57377450Y-33689241D01*
X57369014Y-33603454D01*
X57325978Y-33521552D01*
X57254467Y-33462846D01*
X57165751Y-33436586D01*
X56899860Y-33413135D01*
X56901347Y-33396278D01*
X56892911Y-33310491D01*
X56849875Y-33228589D01*
X56778364Y-33169883D01*
X56689648Y-33143623D01*
X55892742Y-33073337D01*
X55806955Y-33081773D01*
X55754682Y-33109240D01*
X55707353Y-32958762D01*
X55558089Y-32780620D01*
X55352015Y-32673160D01*
X55302054Y-32668754D01*
X55143737Y-32801407D01*
X55019826Y-34206303D01*
X55099517Y-34213332D01*
X55068274Y-34567557D01*
X54988583Y-34560528D01*
X54864672Y-35965424D01*
X54688514Y-35965424D01*
X54705291Y-35951367D01*
X54829202Y-34546471D01*
X54313056Y-34500947D01*
X54154739Y-34633600D01*
X54092364Y-35340800D01*
X54071945Y-35572310D01*
X51657237Y-35572310D01*
X51609100Y-34984715D01*
X51652840Y-33988405D01*
X54211645Y-33988405D01*
X54344298Y-34146722D01*
X54860445Y-34192246D01*
X54984356Y-32787350D01*
X54851702Y-32629033D01*
X54801741Y-32624626D01*
X54580040Y-32694357D01*
X54401899Y-32843622D01*
X54294439Y-33049695D01*
X54274020Y-33281205D01*
X54211645Y-33988405D01*
X51652840Y-33988405D01*
X51697737Y-32965770D01*
X51963741Y-31093889D01*
X52406029Y-29344396D01*
X52472158Y-29172249D01*
X56030667Y-29172249D01*
X56086870Y-29371001D01*
X56130647Y-29395477D01*
X56361464Y-29422633D01*
X56585104Y-29359391D01*
X56709130Y-29261477D01*
X56732641Y-29308743D01*
X56802829Y-29369025D01*
X57501098Y-29759436D01*
X57504670Y-29760635D01*
X57504535Y-29914027D01*
X57577244Y-30089996D01*
X57711759Y-30224745D01*
X57887601Y-30297761D01*
X58078000Y-30297928D01*
X58253969Y-30225219D01*
X58388718Y-30090704D01*
X58461734Y-29914862D01*
X58461901Y-29724463D01*
X58418823Y-29620206D01*
X59255127Y-28124435D01*
X59282555Y-28042715D01*
X59276826Y-27950372D01*
X59235621Y-27867533D01*
X59165433Y-27807251D01*
X58932455Y-27676990D01*
X58940713Y-27662219D01*
X58968141Y-27580499D01*
X58962412Y-27488155D01*
X58921207Y-27405317D01*
X58851019Y-27345035D01*
X58152750Y-26954624D01*
X58071030Y-26927196D01*
X58012092Y-26930852D01*
X58030525Y-26774187D01*
X57967284Y-26550547D01*
X57823274Y-26368133D01*
X57779497Y-26343656D01*
X57580745Y-26399860D01*
X56892475Y-27630864D01*
X56962302Y-27669905D01*
X56788764Y-27980285D01*
X56718937Y-27941244D01*
X56030667Y-29172249D01*
X52472158Y-29172249D01*
X52645950Y-28719839D01*
X55441233Y-28719839D01*
X55504474Y-28943479D01*
X55648484Y-29125893D01*
X55692261Y-29150370D01*
X55891013Y-29094166D01*
X56579283Y-27863162D01*
X56127023Y-27610298D01*
X55928271Y-27666501D01*
X55581808Y-28286167D01*
X55468390Y-28489022D01*
X55441233Y-28719839D01*
X52645950Y-28719839D01*
X53022333Y-27740049D01*
X53389304Y-27101165D01*
X56244358Y-27101165D01*
X56300561Y-27299917D01*
X56752821Y-27552782D01*
X57441091Y-26321777D01*
X57384888Y-26123025D01*
X57341111Y-26098549D01*
X57110294Y-26071393D01*
X56886654Y-26134635D01*
X56704239Y-26278645D01*
X56590821Y-26481500D01*
X56244358Y-27101165D01*
X53389304Y-27101165D01*
X54657072Y-24894028D01*
X55611509Y-23827038D01*
X60398166Y-23827038D01*
X60419471Y-23872443D01*
X60591196Y-24029046D01*
X60809780Y-24108011D01*
X60967630Y-24100741D01*
X60959184Y-24152851D01*
X60981080Y-24242744D01*
X61320908Y-24966979D01*
X61324947Y-24972580D01*
X61272302Y-25025134D01*
X61199286Y-25200976D01*
X61199119Y-25391375D01*
X61271828Y-25567344D01*
X61406343Y-25702093D01*
X61582185Y-25775109D01*
X61772584Y-25775276D01*
X61948553Y-25702567D01*
X62083302Y-25568052D01*
X62156318Y-25392210D01*
X62156325Y-25384750D01*
X63699166Y-24660811D01*
X63769086Y-24610395D01*
X63770887Y-24607524D01*
X72562201Y-24607524D01*
X72634910Y-24783493D01*
X72769425Y-24918242D01*
X72945267Y-24991258D01*
X73135666Y-24991425D01*
X73181059Y-24972669D01*
X74548127Y-26002155D01*
X74625387Y-26040383D01*
X74717657Y-26047194D01*
X74805308Y-26017569D01*
X74874527Y-25956178D01*
X75035097Y-25742954D01*
X75048615Y-25753134D01*
X75125875Y-25791361D01*
X75218145Y-25798172D01*
X75305795Y-25768547D01*
X75375015Y-25707156D01*
X75856266Y-25068096D01*
X75894493Y-24990836D01*
X75898840Y-24931945D01*
X76051574Y-24971394D01*
X76281712Y-24938977D01*
X76481925Y-24820957D01*
X76512097Y-24780892D01*
X76483287Y-24576365D01*
X75356664Y-23727950D01*
X75308539Y-23791856D01*
X75053955Y-23600138D01*
X75452914Y-23600138D01*
X76579537Y-24448553D01*
X76784064Y-24419743D01*
X76814235Y-24379678D01*
X76872355Y-24154654D01*
X76839937Y-23924516D01*
X76721917Y-23724303D01*
X76536263Y-23584494D01*
X75969141Y-23157417D01*
X75764614Y-23186227D01*
X75452914Y-23600138D01*
X75053955Y-23600138D01*
X75024477Y-23577940D01*
X75072602Y-23514034D01*
X73945979Y-22665619D01*
X73741452Y-22694429D01*
X73711281Y-22734494D01*
X73653161Y-22959518D01*
X73685579Y-23189656D01*
X73765822Y-23325784D01*
X73715811Y-23342687D01*
X73646591Y-23404078D01*
X73165340Y-24043138D01*
X73164083Y-24045679D01*
X73136501Y-24034226D01*
X72946102Y-24034059D01*
X72770133Y-24106768D01*
X72635384Y-24241283D01*
X72562368Y-24417125D01*
X72562201Y-24607524D01*
X63770887Y-24607524D01*
X63818255Y-24532021D01*
X63833058Y-24440692D01*
X63811162Y-24350799D01*
X63697777Y-24109156D01*
X63713096Y-24101968D01*
X63783016Y-24051553D01*
X63832185Y-23973178D01*
X63846988Y-23881849D01*
X63825092Y-23791956D01*
X63726120Y-23581027D01*
X66752873Y-23581027D01*
X66825582Y-23756996D01*
X66960097Y-23891745D01*
X67135939Y-23964761D01*
X67326338Y-23964928D01*
X67502307Y-23892219D01*
X67589997Y-23804682D01*
X69295332Y-23966830D01*
X69381174Y-23958981D01*
X69463368Y-23916504D01*
X69522561Y-23845396D01*
X69549425Y-23756861D01*
X69574691Y-23491138D01*
X69591538Y-23492740D01*
X69677380Y-23484891D01*
X69759574Y-23442414D01*
X69818767Y-23371306D01*
X69845631Y-23282771D01*
X69921356Y-22486363D01*
X69913507Y-22400521D01*
X69886396Y-22348061D01*
X69934536Y-22333280D01*
X74013419Y-22333280D01*
X74042229Y-22537807D01*
X75168852Y-23386222D01*
X75480552Y-22972311D01*
X75451742Y-22767784D01*
X74884621Y-22340707D01*
X74698966Y-22200898D01*
X74473942Y-22142778D01*
X74243804Y-22175195D01*
X74043591Y-22293215D01*
X74013419Y-22333280D01*
X69934536Y-22333280D01*
X70037194Y-22301760D01*
X70216351Y-22153715D01*
X70325215Y-21948380D01*
X70329962Y-21898450D01*
X70198393Y-21739231D01*
X68794375Y-21605733D01*
X68786803Y-21685374D01*
X68432799Y-21651714D01*
X68440372Y-21572073D01*
X67119197Y-21446451D01*
X68809520Y-21446451D01*
X70213538Y-21579950D01*
X70372757Y-21448380D01*
X70377504Y-21398450D01*
X70309289Y-21176278D01*
X70161243Y-20997122D01*
X69955908Y-20888258D01*
X69724543Y-20866259D01*
X69017785Y-20799058D01*
X68858566Y-20930628D01*
X68809520Y-21446451D01*
X67119197Y-21446451D01*
X67036354Y-21438574D01*
X66877135Y-21570144D01*
X66872388Y-21620074D01*
X66940603Y-21842246D01*
X67088649Y-22021402D01*
X67228260Y-22095421D01*
X67194485Y-22135994D01*
X67167621Y-22224529D01*
X67091896Y-23020937D01*
X67092351Y-23025917D01*
X66960805Y-23080271D01*
X66826056Y-23214786D01*
X66753040Y-23390628D01*
X66752873Y-23581027D01*
X63726120Y-23581027D01*
X63485264Y-23067721D01*
X63434848Y-22997801D01*
X63384826Y-22966419D01*
X63491119Y-22849862D01*
X63570086Y-22631279D01*
X63559393Y-22399116D01*
X63538087Y-22353711D01*
X63343829Y-22283533D01*
X62067048Y-22882630D01*
X62101031Y-22955053D01*
X61779109Y-23106107D01*
X61745126Y-23033683D01*
X60468344Y-23632780D01*
X60398166Y-23827038D01*
X55611509Y-23827038D01*
X56225907Y-23140187D01*
X60174122Y-23140187D01*
X60184815Y-23372350D01*
X60206121Y-23417755D01*
X60400379Y-23487933D01*
X61677160Y-22888836D01*
X61457057Y-22419758D01*
X61262799Y-22349580D01*
X60620090Y-22651155D01*
X60409692Y-22749879D01*
X60253089Y-22921604D01*
X60174122Y-23140187D01*
X56225907Y-23140187D01*
X56738394Y-22567266D01*
X57144047Y-22268705D01*
X61778980Y-22268705D01*
X61999082Y-22737783D01*
X63275864Y-22138686D01*
X63346042Y-21944428D01*
X63324737Y-21899023D01*
X63153012Y-21742420D01*
X62934428Y-21663455D01*
X62702265Y-21674148D01*
X62491867Y-21772872D01*
X61849158Y-22074446D01*
X61778980Y-22268705D01*
X57144047Y-22268705D01*
X58704687Y-21120074D01*
X66919930Y-21120074D01*
X67051499Y-21279293D01*
X68455517Y-21412791D01*
X68504563Y-20896968D01*
X68372993Y-20737749D01*
X67666236Y-20670548D01*
X67434870Y-20648549D01*
X67212698Y-20716764D01*
X67033541Y-20864809D01*
X66924677Y-21070144D01*
X66919930Y-21120074D01*
X58704687Y-21120074D01*
X59192678Y-20760913D01*
X61964301Y-19473386D01*
X64936922Y-18705623D01*
X67960035Y-18449594D01*
X70993118Y-18705634D01*
X70993118Y-18705634D01*
G37*
X70993118Y-18705634D02*
X73965699Y-19473386D01*
X76737567Y-20761027D01*
X79201515Y-22567268D01*
X81272764Y-24893742D01*
X82907667Y-27740049D01*
X83523972Y-29344399D01*
X83966259Y-31093889D01*
X84232263Y-32965768D01*
X84321026Y-34987598D01*
X84153178Y-37732404D01*
X83631483Y-40193231D01*
X82824433Y-42417537D01*
X81763019Y-44451088D01*
X81753380Y-44484024D01*
X81739039Y-44515205D01*
X81738252Y-44535716D01*
X81732486Y-44555417D01*
X81736185Y-44589538D01*
X81734869Y-44623829D01*
X81741990Y-44643079D01*
X81744203Y-44663487D01*
X81760678Y-44693594D01*
X81772585Y-44725781D01*
X82122585Y-45295781D01*
X82144820Y-45319792D01*
X82163000Y-45347000D01*
X82181403Y-45359296D01*
X82196445Y-45375540D01*
X82226179Y-45389215D01*
X82253384Y-45407393D01*
X82275093Y-45411711D01*
X82295205Y-45420961D01*
X82327907Y-45422216D01*
X82360000Y-45428600D01*
X89761400Y-45428600D01*
X89761400Y-45461394D01*
X89710130Y-45451012D01*
X85710130Y-45451012D01*
X85625416Y-45466952D01*
X85547612Y-45517018D01*
X85495415Y-45593410D01*
X85477052Y-45684090D01*
X85477052Y-46684090D01*
X85492992Y-46768804D01*
X85543058Y-46846608D01*
X85619450Y-46898805D01*
X85710130Y-46917168D01*
X89710130Y-46917168D01*
X89761400Y-46907521D01*
X89761400Y-47099890D01*
X88033980Y-47099890D01*
X87887930Y-47245940D01*
X87887930Y-48006290D01*
X87907930Y-48006290D01*
X87907930Y-48361890D01*
X87887930Y-48361890D01*
X87887930Y-49122240D01*
X88033980Y-49268290D01*
X89761400Y-49268290D01*
X89761400Y-49461394D01*
X89710130Y-49451012D01*
X85710130Y-49451012D01*
X85625416Y-49466952D01*
X85547612Y-49517018D01*
X85495415Y-49593410D01*
X85477052Y-49684090D01*
X85477052Y-50684090D01*
X85492992Y-50768804D01*
X85543058Y-50846608D01*
X85579342Y-50871400D01*
X85340000Y-50871400D01*
X85289726Y-50881400D01*
X77077623Y-50881400D01*
X76366143Y-49539495D01*
X76338903Y-49506075D01*
X76314489Y-49470520D01*
X76304779Y-49464208D01*
X76297464Y-49455234D01*
X76259506Y-49434781D01*
X76223347Y-49411277D01*
X76211962Y-49409162D01*
X76201768Y-49403669D01*
X76158867Y-49399298D01*
X76116471Y-49391422D01*
X76105144Y-49393825D01*
X76093624Y-49392651D01*
X76052317Y-49405030D01*
X76010133Y-49413978D01*
X73490929Y-50495053D01*
X70833657Y-51154450D01*
X68106522Y-51400582D01*
X65389425Y-51223380D01*
X63830255Y-50877994D01*
X63799839Y-50877335D01*
X63770000Y-50871400D01*
X51164518Y-50871400D01*
X51183354Y-50859279D01*
X51235551Y-50782887D01*
X51253914Y-50692207D01*
X51253914Y-49692207D01*
X51237974Y-49607493D01*
X51187908Y-49529689D01*
X51111516Y-49477492D01*
X51020836Y-49459129D01*
X47020836Y-49459129D01*
X46936122Y-49475069D01*
X46908600Y-49492779D01*
X46908600Y-49276407D01*
X48696986Y-49276407D01*
X48843036Y-49130357D01*
X48843036Y-48370007D01*
X48823036Y-48370007D01*
X48823036Y-48130540D01*
X49121424Y-48130540D01*
X49166289Y-48479424D01*
X49198636Y-48557517D01*
X49198636Y-49130357D01*
X49344686Y-49276407D01*
X51137040Y-49276407D01*
X51351758Y-49187468D01*
X51516097Y-49023130D01*
X51605036Y-48808412D01*
X51605036Y-48681469D01*
X65829715Y-48681469D01*
X65900098Y-48902965D01*
X66049887Y-49080665D01*
X66256276Y-49187518D01*
X66487845Y-49207255D01*
X67195226Y-49267546D01*
X67317324Y-49164626D01*
X67707467Y-49164626D01*
X67840586Y-49322551D01*
X68547966Y-49382842D01*
X68779536Y-49402579D01*
X69001031Y-49332196D01*
X69178732Y-49182408D01*
X69285585Y-48976019D01*
X69289844Y-48926045D01*
X69156725Y-48768120D01*
X67751470Y-48648347D01*
X67707467Y-49164626D01*
X67317324Y-49164626D01*
X67353151Y-49134427D01*
X67397154Y-48618149D01*
X65991899Y-48498376D01*
X65833974Y-48631496D01*
X65829715Y-48681469D01*
X51605036Y-48681469D01*
X51605036Y-48516057D01*
X51458986Y-48370007D01*
X50888756Y-48370007D01*
X50920248Y-48253874D01*
X50910881Y-48181029D01*
X65872368Y-48181029D01*
X66005487Y-48338954D01*
X67410742Y-48458727D01*
X67417536Y-48379015D01*
X67771852Y-48409215D01*
X67765058Y-48488925D01*
X69170313Y-48608698D01*
X69328238Y-48475578D01*
X69332497Y-48425605D01*
X69262114Y-48204109D01*
X69112325Y-48026409D01*
X69098573Y-48019289D01*
X72703568Y-48019289D01*
X72725490Y-48064399D01*
X72899335Y-48218645D01*
X73118975Y-48294623D01*
X73350970Y-48280764D01*
X73560003Y-48179180D01*
X73811758Y-48056834D01*
X77997124Y-48056834D01*
X78026137Y-48097745D01*
X78222894Y-48221441D01*
X78452011Y-48260425D01*
X78606074Y-48225299D01*
X78606996Y-48278083D01*
X78644474Y-48362673D01*
X79107176Y-49015119D01*
X79038391Y-49180772D01*
X79038224Y-49371171D01*
X79110933Y-49547140D01*
X79245448Y-49681889D01*
X79421290Y-49754905D01*
X79611689Y-49755072D01*
X79787658Y-49682363D01*
X79922407Y-49547848D01*
X79995423Y-49372006D01*
X79995500Y-49284018D01*
X81393628Y-48292493D01*
X81453509Y-48230486D01*
X81488012Y-48144639D01*
X81486397Y-48052132D01*
X81448919Y-47967542D01*
X81294510Y-47749813D01*
X81308313Y-47740024D01*
X81368194Y-47678017D01*
X81402697Y-47592170D01*
X81402274Y-47567885D01*
X85125930Y-47567885D01*
X85125930Y-47860240D01*
X85271980Y-48006290D01*
X85842210Y-48006290D01*
X85810718Y-48122423D01*
X85841512Y-48361890D01*
X85271980Y-48361890D01*
X85125930Y-48507940D01*
X85125930Y-48800295D01*
X85214869Y-49015013D01*
X85379208Y-49179351D01*
X85593926Y-49268290D01*
X87386280Y-49268290D01*
X87532330Y-49122240D01*
X87532330Y-48530488D01*
X87609542Y-48245757D01*
X87564677Y-47896873D01*
X87532330Y-47818780D01*
X87532330Y-47245940D01*
X87386280Y-47099890D01*
X85593926Y-47099890D01*
X85379208Y-47188829D01*
X85214869Y-47353167D01*
X85125930Y-47567885D01*
X81402274Y-47567885D01*
X81401082Y-47499663D01*
X81363604Y-47415073D01*
X80900822Y-46762515D01*
X80838815Y-46702635D01*
X80784024Y-46680613D01*
X80867982Y-46547066D01*
X80906968Y-46317949D01*
X80855306Y-46091355D01*
X80826292Y-46050443D01*
X80622673Y-46015797D01*
X79472252Y-46831653D01*
X79518530Y-46896908D01*
X79228468Y-47102615D01*
X79182190Y-47037359D01*
X78031770Y-47853215D01*
X77997124Y-48056834D01*
X73811758Y-48056834D01*
X74198540Y-47868869D01*
X74266062Y-47673672D01*
X74039583Y-47207639D01*
X72771090Y-47824092D01*
X72703568Y-48019289D01*
X69098573Y-48019289D01*
X68971999Y-47953758D01*
X69005375Y-47912857D01*
X69031373Y-47824064D01*
X69099312Y-47026954D01*
X69098762Y-47021523D01*
X69225862Y-46969006D01*
X69360611Y-46834491D01*
X69433627Y-46658649D01*
X69433794Y-46468250D01*
X69361085Y-46292281D01*
X69226570Y-46157532D01*
X69061238Y-46088880D01*
X72176247Y-46088880D01*
X72199367Y-46178465D01*
X72549040Y-46897998D01*
X72600404Y-46967224D01*
X72650850Y-46997921D01*
X72546157Y-47115917D01*
X72470178Y-47335557D01*
X72484036Y-47567552D01*
X72505959Y-47612662D01*
X72701156Y-47680185D01*
X73969648Y-47063733D01*
X73964048Y-47052209D01*
X74359416Y-47052209D01*
X74585895Y-47518242D01*
X74781092Y-47585765D01*
X75121057Y-47420551D01*
X77654918Y-47420551D01*
X77706580Y-47647145D01*
X77735594Y-47688057D01*
X77939213Y-47722703D01*
X79089634Y-46906847D01*
X78789896Y-46484193D01*
X78586276Y-46449547D01*
X78007175Y-46860234D01*
X77817600Y-46994678D01*
X77693904Y-47191434D01*
X77654918Y-47420551D01*
X75121057Y-47420551D01*
X75419628Y-47275454D01*
X75628661Y-47173870D01*
X75782907Y-47000025D01*
X75858886Y-46780385D01*
X75845028Y-46548390D01*
X75823105Y-46503280D01*
X75627908Y-46435757D01*
X74359416Y-47052209D01*
X73964048Y-47052209D01*
X73934681Y-46991779D01*
X74254514Y-46836350D01*
X74289481Y-46908303D01*
X75557974Y-46291850D01*
X75562596Y-46278487D01*
X79079958Y-46278487D01*
X79379696Y-46701141D01*
X80530116Y-45885285D01*
X80564762Y-45681666D01*
X80535749Y-45640755D01*
X80338992Y-45517059D01*
X80109875Y-45478075D01*
X79883281Y-45529737D01*
X79693705Y-45664180D01*
X79114604Y-46074867D01*
X79079958Y-46278487D01*
X75562596Y-46278487D01*
X75625496Y-46096653D01*
X75603574Y-46051543D01*
X75429729Y-45897297D01*
X75210089Y-45821319D01*
X75052352Y-45830742D01*
X75060087Y-45778520D01*
X75036967Y-45688935D01*
X74687294Y-44969402D01*
X74683377Y-44964123D01*
X74731439Y-44916144D01*
X74804455Y-44740302D01*
X74804622Y-44549903D01*
X74731913Y-44373934D01*
X74597398Y-44239185D01*
X74421556Y-44166169D01*
X74231157Y-44166002D01*
X74055188Y-44238711D01*
X73920439Y-44373226D01*
X73847423Y-44549068D01*
X73847411Y-44562502D01*
X72313433Y-45307973D01*
X72244207Y-45359337D01*
X72196111Y-45438375D01*
X72182555Y-45529898D01*
X72205675Y-45619483D01*
X72322345Y-45859559D01*
X72307125Y-45866955D01*
X72237899Y-45918319D01*
X72189803Y-45997357D01*
X72176247Y-46088880D01*
X69061238Y-46088880D01*
X69050728Y-46084516D01*
X68860329Y-46084349D01*
X68684360Y-46157058D01*
X68593180Y-46248080D01*
X66886737Y-46102637D01*
X66800975Y-46111325D01*
X66719200Y-46154603D01*
X66660705Y-46226286D01*
X66634707Y-46315079D01*
X66612039Y-46581037D01*
X66595179Y-46579600D01*
X66509417Y-46588288D01*
X66427642Y-46631566D01*
X66369147Y-46703249D01*
X66343149Y-46792042D01*
X66275210Y-47589152D01*
X66283898Y-47674914D01*
X66311520Y-47727106D01*
X66161181Y-47774878D01*
X65983480Y-47924666D01*
X65876627Y-48131055D01*
X65872368Y-48181029D01*
X50910881Y-48181029D01*
X50889454Y-48014407D01*
X51458986Y-48014407D01*
X51605036Y-47868357D01*
X51605036Y-47576002D01*
X51516097Y-47361284D01*
X51351758Y-47196946D01*
X51202755Y-47135227D01*
X60546510Y-47135227D01*
X60575720Y-47339697D01*
X61143676Y-47765664D01*
X61329603Y-47905110D01*
X61554740Y-47962789D01*
X61784814Y-47929922D01*
X61984797Y-47811511D01*
X62014890Y-47771387D01*
X61985680Y-47566917D01*
X60857400Y-46720707D01*
X60546510Y-47135227D01*
X51202755Y-47135227D01*
X51137040Y-47108007D01*
X49344686Y-47108007D01*
X49198636Y-47254057D01*
X49198636Y-47845809D01*
X49121424Y-48130540D01*
X48823036Y-48130540D01*
X48823036Y-48014407D01*
X48843036Y-48014407D01*
X48843036Y-47254057D01*
X48696986Y-47108007D01*
X46908600Y-47108007D01*
X46908600Y-46892193D01*
X46930156Y-46906922D01*
X47020836Y-46925285D01*
X51020836Y-46925285D01*
X51105550Y-46909345D01*
X51183354Y-46859279D01*
X51235551Y-46782887D01*
X51253914Y-46692207D01*
X51253914Y-45955608D01*
X59152398Y-45955608D01*
X59185266Y-46185682D01*
X59303677Y-46385664D01*
X59489604Y-46525110D01*
X60057560Y-46951077D01*
X60262030Y-46921867D01*
X60572920Y-46507347D01*
X59444640Y-45661136D01*
X59240170Y-45690346D01*
X59210077Y-45730470D01*
X59152398Y-45955608D01*
X51253914Y-45955608D01*
X51253914Y-45692207D01*
X51237974Y-45607493D01*
X51187908Y-45529689D01*
X51111516Y-45477492D01*
X51020836Y-45459129D01*
X47020836Y-45459129D01*
X46936122Y-45475069D01*
X46908600Y-45492779D01*
X46908600Y-45428600D01*
X54440000Y-45428600D01*
X54475075Y-45421623D01*
X54510774Y-45419461D01*
X54527916Y-45411113D01*
X54546616Y-45407393D01*
X54576352Y-45387524D01*
X54608505Y-45371865D01*
X54621147Y-45357593D01*
X54637000Y-45347000D01*
X54649249Y-45328667D01*
X59511430Y-45328667D01*
X59540640Y-45533137D01*
X60668920Y-46379347D01*
X60716920Y-46315347D01*
X61001400Y-46528707D01*
X60953400Y-46592707D01*
X62081680Y-47438918D01*
X62286150Y-47409708D01*
X62316243Y-47369584D01*
X62373922Y-47144446D01*
X62341054Y-46914372D01*
X62260545Y-46778401D01*
X62310524Y-46761400D01*
X62379622Y-46699874D01*
X62859622Y-46059874D01*
X62860817Y-46057446D01*
X62887543Y-46068544D01*
X63077942Y-46068711D01*
X63253911Y-45996002D01*
X63388660Y-45861487D01*
X63461676Y-45685645D01*
X63461843Y-45495246D01*
X63389134Y-45319277D01*
X63254619Y-45184528D01*
X63078777Y-45111512D01*
X62888378Y-45111345D01*
X62842170Y-45130438D01*
X61473007Y-44103565D01*
X61395672Y-44065488D01*
X61303388Y-44058858D01*
X61215796Y-44088654D01*
X61146698Y-44150180D01*
X60986544Y-44363718D01*
X60973007Y-44353565D01*
X60895672Y-44315488D01*
X60803388Y-44308858D01*
X60715796Y-44338654D01*
X60646698Y-44400180D01*
X60166698Y-45040180D01*
X60128621Y-45117515D01*
X60124389Y-45176414D01*
X59971580Y-45137265D01*
X59741506Y-45170132D01*
X59541523Y-45288543D01*
X59511430Y-45328667D01*
X54649249Y-45328667D01*
X54656869Y-45317264D01*
X54680583Y-45290492D01*
X54686801Y-45272468D01*
X54697393Y-45256616D01*
X54704370Y-45221538D01*
X54716033Y-45187731D01*
X54714880Y-45168700D01*
X54718600Y-45150000D01*
X54711623Y-45114925D01*
X54709461Y-45079226D01*
X54701113Y-45062084D01*
X54697393Y-45043384D01*
X54677524Y-45013648D01*
X54661865Y-44981495D01*
X54077575Y-44212179D01*
X52965565Y-41988161D01*
X55725542Y-41988161D01*
X56072139Y-42607752D01*
X56185601Y-42810582D01*
X56368047Y-42954553D01*
X56591701Y-43017746D01*
X56822512Y-42990540D01*
X56866283Y-42966054D01*
X56922444Y-42767290D01*
X56233907Y-41536435D01*
X55781702Y-41789397D01*
X55725542Y-41988161D01*
X52965565Y-41988161D01*
X52751220Y-41559472D01*
X52420507Y-40369662D01*
X54922067Y-40369662D01*
X54949273Y-40600473D01*
X55062736Y-40803303D01*
X55409333Y-41422894D01*
X55608097Y-41479054D01*
X56060302Y-41226092D01*
X55371765Y-39995237D01*
X55173001Y-39939076D01*
X55129229Y-39963562D01*
X54985259Y-40146008D01*
X54922067Y-40369662D01*
X52420507Y-40369662D01*
X52294722Y-39917124D01*
X55511402Y-39917124D01*
X56199939Y-41147979D01*
X56269757Y-41108923D01*
X56443362Y-41419266D01*
X56373544Y-41458322D01*
X57062081Y-42689177D01*
X57260845Y-42745338D01*
X57304617Y-42720852D01*
X57448587Y-42538406D01*
X57511779Y-42314752D01*
X57493281Y-42157820D01*
X57545862Y-42162532D01*
X57633966Y-42134288D01*
X58332150Y-41743726D01*
X58335370Y-41741036D01*
X58364041Y-41769757D01*
X58539883Y-41842773D01*
X58730282Y-41842940D01*
X58906251Y-41770231D01*
X59041000Y-41635716D01*
X59114016Y-41459874D01*
X59114183Y-41269475D01*
X59041474Y-41093506D01*
X58906959Y-40958757D01*
X58731117Y-40885741D01*
X58692158Y-40885707D01*
X57857324Y-39393325D01*
X57802055Y-39327174D01*
X57720377Y-39283714D01*
X57628225Y-39275456D01*
X57540121Y-39303700D01*
X57307171Y-39434012D01*
X57298909Y-39419243D01*
X57243640Y-39353092D01*
X57161962Y-39309632D01*
X57069810Y-39301374D01*
X56981706Y-39329618D01*
X56283522Y-39720180D01*
X56217371Y-39775449D01*
X56189633Y-39827580D01*
X56065799Y-39729861D01*
X55842145Y-39666668D01*
X55611334Y-39693874D01*
X55567563Y-39718360D01*
X55511402Y-39917124D01*
X52294722Y-39917124D01*
X51895510Y-38480882D01*
X51657237Y-35572310D01*
X54071945Y-35572310D01*
X54141675Y-35794012D01*
X54290939Y-35972154D01*
X54497013Y-36079614D01*
X54546974Y-36084020D01*
X54688514Y-35965424D01*
X54864672Y-35965424D01*
X54997326Y-36123741D01*
X55047287Y-36128148D01*
X55268988Y-36058417D01*
X55447129Y-35909152D01*
X55520193Y-35769040D01*
X55560996Y-35802537D01*
X55649712Y-35828797D01*
X56446618Y-35899083D01*
X56451919Y-35898562D01*
X56504989Y-36027000D01*
X56639504Y-36161749D01*
X56815346Y-36234765D01*
X57005745Y-36234932D01*
X57181714Y-36162223D01*
X57316463Y-36027708D01*
X57389479Y-35851866D01*
X57389646Y-35661467D01*
X57316937Y-35485498D01*
X57226970Y-35395375D01*
X57260020Y-35020654D01*
X59583092Y-35020654D01*
X59883092Y-37730654D01*
X59891360Y-37756770D01*
X59894366Y-37784004D01*
X60264366Y-38954003D01*
X60275242Y-38973787D01*
X60281288Y-38995540D01*
X60811288Y-40045540D01*
X60828640Y-40067723D01*
X60841462Y-40092798D01*
X62201462Y-41812797D01*
X62229545Y-41836712D01*
X62254364Y-41864015D01*
X63904365Y-43084015D01*
X63937890Y-43099812D01*
X63969156Y-43119708D01*
X65849156Y-43849708D01*
X65883076Y-43855672D01*
X65915781Y-43866491D01*
X67935781Y-44116491D01*
X67970084Y-44113975D01*
X68004387Y-44116470D01*
X70014387Y-43866470D01*
X70048208Y-43855259D01*
X70083232Y-43848768D01*
X70698433Y-43603342D01*
X78583626Y-43603342D01*
X78639911Y-43802071D01*
X78683699Y-43826529D01*
X78914527Y-43853590D01*
X79138140Y-43790256D01*
X79320495Y-43646170D01*
X79433830Y-43443268D01*
X79780037Y-42823459D01*
X79723751Y-42624730D01*
X79271386Y-42372053D01*
X78583626Y-43603342D01*
X70698433Y-43603342D01*
X71963232Y-43098768D01*
X71993706Y-43078979D01*
X72026509Y-43063366D01*
X73609702Y-41883168D01*
X76741448Y-41883168D01*
X76747216Y-41975509D01*
X76788455Y-42058331D01*
X76858668Y-42118583D01*
X77091702Y-42248749D01*
X77083450Y-42263522D01*
X77056055Y-42345254D01*
X77061823Y-42437595D01*
X77103062Y-42520417D01*
X77173275Y-42580669D01*
X77871705Y-42970791D01*
X77953437Y-42998186D01*
X78012372Y-42994505D01*
X77994005Y-43151176D01*
X78057338Y-43374790D01*
X78201424Y-43557145D01*
X78245211Y-43581603D01*
X78443940Y-43525318D01*
X79131700Y-42294029D01*
X79061857Y-42255017D01*
X79169893Y-42061601D01*
X79444796Y-42061601D01*
X79897160Y-42314278D01*
X80095889Y-42257993D01*
X80442095Y-41638184D01*
X80555430Y-41435282D01*
X80582491Y-41204454D01*
X80519158Y-40980840D01*
X80375072Y-40798485D01*
X80331285Y-40774027D01*
X80132556Y-40830312D01*
X79444796Y-42061601D01*
X79169893Y-42061601D01*
X79235267Y-41944565D01*
X79305110Y-41983577D01*
X79992870Y-40752288D01*
X79936585Y-40553559D01*
X79892797Y-40529101D01*
X79661969Y-40502040D01*
X79438356Y-40565374D01*
X79314370Y-40663340D01*
X79290840Y-40616083D01*
X79220627Y-40555831D01*
X78522197Y-40165709D01*
X78518600Y-40164503D01*
X78518734Y-40011318D01*
X78446025Y-39835349D01*
X78311510Y-39700600D01*
X78135668Y-39627584D01*
X77945269Y-39627417D01*
X77769300Y-39700126D01*
X77634551Y-39834641D01*
X77561535Y-40010483D01*
X77561368Y-40200882D01*
X77604524Y-40305328D01*
X76768843Y-41801436D01*
X76741448Y-41883168D01*
X73609702Y-41883168D01*
X73676510Y-41833366D01*
X73700599Y-41806657D01*
X73728047Y-41783417D01*
X75088047Y-40073417D01*
X75100877Y-40048502D01*
X75118225Y-40026499D01*
X75648225Y-38986499D01*
X75654407Y-38964587D01*
X75665425Y-38944661D01*
X76035425Y-37784661D01*
X76038537Y-37757096D01*
X76046908Y-37730654D01*
X76346908Y-35020654D01*
X76344248Y-34989836D01*
X76346871Y-34959007D01*
X76273351Y-34302226D01*
X78636109Y-34302226D01*
X78708818Y-34478195D01*
X78798413Y-34567946D01*
X78646150Y-36273964D01*
X78654496Y-36359759D01*
X78697447Y-36441707D01*
X78768896Y-36500487D01*
X78857585Y-36526839D01*
X79123451Y-36550568D01*
X79121947Y-36567424D01*
X79130293Y-36653219D01*
X79173244Y-36735167D01*
X79244693Y-36793947D01*
X79333382Y-36820299D01*
X80130214Y-36891417D01*
X80216010Y-36883071D01*
X80268312Y-36855658D01*
X80315484Y-37006185D01*
X80464562Y-37184482D01*
X80670524Y-37292157D01*
X80720480Y-37296616D01*
X80861923Y-37178351D01*
X81038302Y-37178351D01*
X81170790Y-37336806D01*
X81220747Y-37341265D01*
X81442521Y-37271766D01*
X81620818Y-37122687D01*
X81728492Y-36916725D01*
X81749153Y-36685236D01*
X81812265Y-35978102D01*
X81679777Y-35819647D01*
X81163678Y-35773585D01*
X81038302Y-37178351D01*
X80861923Y-37178351D01*
X80878935Y-37164127D01*
X81004312Y-35759361D01*
X80924628Y-35752249D01*
X80954336Y-35419393D01*
X81195290Y-35419393D01*
X81711389Y-35465455D01*
X81869844Y-35332967D01*
X81932956Y-34625832D01*
X81953617Y-34394344D01*
X81884118Y-34172569D01*
X81735040Y-33994272D01*
X81529078Y-33886597D01*
X81479122Y-33882138D01*
X81320667Y-34014627D01*
X81195290Y-35419393D01*
X80954336Y-35419393D01*
X80956241Y-35398057D01*
X81035924Y-35405169D01*
X81161300Y-34000403D01*
X81028812Y-33841948D01*
X80978855Y-33837489D01*
X80757081Y-33906988D01*
X80578784Y-34056067D01*
X80505575Y-34196104D01*
X80464807Y-34162565D01*
X80376118Y-34136213D01*
X79579286Y-34065095D01*
X79574032Y-34065606D01*
X79520766Y-33936693D01*
X79386251Y-33801944D01*
X79210409Y-33728928D01*
X79020010Y-33728761D01*
X78844041Y-33801470D01*
X78709292Y-33935985D01*
X78636276Y-34111827D01*
X78636109Y-34302226D01*
X76273351Y-34302226D01*
X76046871Y-32279007D01*
X76038518Y-32252733D01*
X76035425Y-32225339D01*
X75941642Y-31931315D01*
X80695478Y-31931315D01*
X80722868Y-32104841D01*
X81049595Y-32163013D01*
X81373714Y-32091724D01*
X81505023Y-32019824D01*
X81494491Y-31844465D01*
X81051559Y-31488384D01*
X80695478Y-31931315D01*
X75941642Y-31931315D01*
X75749773Y-31329780D01*
X80182086Y-31329780D01*
X80253375Y-31653899D01*
X80325275Y-31785208D01*
X80500634Y-31774676D01*
X80856715Y-31331744D01*
X80809193Y-31293540D01*
X81208199Y-31293540D01*
X81651130Y-31649621D01*
X81824656Y-31622231D01*
X81882828Y-31295504D01*
X81811539Y-30971385D01*
X81739639Y-30840076D01*
X81564280Y-30850608D01*
X81208199Y-31293540D01*
X80809193Y-31293540D01*
X80413784Y-30975663D01*
X80240258Y-31003053D01*
X80182086Y-31329780D01*
X75749773Y-31329780D01*
X75665425Y-31065339D01*
X75654145Y-31044940D01*
X75647728Y-31022529D01*
X75117728Y-29992529D01*
X75100383Y-29970707D01*
X75087550Y-29945960D01*
X74190866Y-28825104D01*
X76907777Y-28825104D01*
X76980486Y-29001073D01*
X77115001Y-29135822D01*
X77290843Y-29208838D01*
X77331098Y-29208873D01*
X78170348Y-30698991D01*
X78225808Y-30764981D01*
X78307612Y-30808204D01*
X78399788Y-30816195D01*
X78487810Y-30787695D01*
X78720382Y-30656708D01*
X78728686Y-30671452D01*
X78784146Y-30737442D01*
X78865950Y-30780665D01*
X78958125Y-30788656D01*
X79046148Y-30760156D01*
X79320816Y-30605460D01*
X80559891Y-30605460D01*
X80570423Y-30780819D01*
X81013355Y-31136900D01*
X81369436Y-30693969D01*
X81342046Y-30520443D01*
X81015319Y-30462271D01*
X80691200Y-30533560D01*
X80559891Y-30605460D01*
X79320816Y-30605460D01*
X79743197Y-30367571D01*
X79809187Y-30312111D01*
X79836774Y-30259900D01*
X79960890Y-30357259D01*
X80184726Y-30419803D01*
X80415458Y-30391928D01*
X80459158Y-30367315D01*
X80514742Y-30168389D01*
X79822638Y-28939536D01*
X79752933Y-28978794D01*
X79686601Y-28861019D01*
X79962048Y-28861019D01*
X80654151Y-30089872D01*
X80853078Y-30145455D01*
X80896778Y-30120843D01*
X81040219Y-29937980D01*
X81102762Y-29714144D01*
X81074887Y-29483413D01*
X80960836Y-29280912D01*
X80612444Y-28662329D01*
X80413518Y-28606746D01*
X79962048Y-28861019D01*
X79686601Y-28861019D01*
X79578429Y-28668956D01*
X79648134Y-28629697D01*
X78956031Y-27400844D01*
X78757104Y-27345261D01*
X78713404Y-27369873D01*
X78569963Y-27552736D01*
X78507420Y-27776572D01*
X78526373Y-27933450D01*
X78473779Y-27928890D01*
X78385756Y-27957390D01*
X77688707Y-28349975D01*
X77685619Y-28352570D01*
X77657919Y-28324822D01*
X77482077Y-28251806D01*
X77291678Y-28251639D01*
X77115709Y-28324348D01*
X76980960Y-28458863D01*
X76907944Y-28634705D01*
X76907777Y-28825104D01*
X74190866Y-28825104D01*
X73727550Y-28245960D01*
X73699926Y-28222706D01*
X73675636Y-28195985D01*
X72494050Y-27322327D01*
X79095440Y-27322327D01*
X79787544Y-28551180D01*
X80239013Y-28296908D01*
X80294597Y-28097981D01*
X79946204Y-27479399D01*
X79832154Y-27276898D01*
X79649292Y-27133457D01*
X79425456Y-27070913D01*
X79194724Y-27098788D01*
X79151024Y-27123401D01*
X79095440Y-27322327D01*
X72494050Y-27322327D01*
X72025636Y-26975985D01*
X71992111Y-26960189D01*
X71960844Y-26940292D01*
X70080844Y-26210292D01*
X70046341Y-26204226D01*
X70013031Y-26193365D01*
X68003031Y-25953365D01*
X67970079Y-25955924D01*
X67937130Y-25953346D01*
X65917130Y-26193346D01*
X65883738Y-26204212D01*
X65849156Y-26210292D01*
X63969156Y-26940292D01*
X63937890Y-26960188D01*
X63904365Y-26975985D01*
X62254364Y-28195985D01*
X62230074Y-28222706D01*
X62202450Y-28245960D01*
X60842450Y-29945960D01*
X60829618Y-29970704D01*
X60812272Y-29992528D01*
X60282272Y-31022529D01*
X60275855Y-31044938D01*
X60264575Y-31065338D01*
X59894575Y-32225339D01*
X59891483Y-32252732D01*
X59883129Y-32279007D01*
X59583129Y-34959007D01*
X59585752Y-34989835D01*
X59583092Y-35020654D01*
X57260020Y-35020654D01*
X57377450Y-33689241D01*
X57369014Y-33603454D01*
X57325978Y-33521552D01*
X57254467Y-33462846D01*
X57165751Y-33436586D01*
X56899860Y-33413135D01*
X56901347Y-33396278D01*
X56892911Y-33310491D01*
X56849875Y-33228589D01*
X56778364Y-33169883D01*
X56689648Y-33143623D01*
X55892742Y-33073337D01*
X55806955Y-33081773D01*
X55754682Y-33109240D01*
X55707353Y-32958762D01*
X55558089Y-32780620D01*
X55352015Y-32673160D01*
X55302054Y-32668754D01*
X55143737Y-32801407D01*
X55019826Y-34206303D01*
X55099517Y-34213332D01*
X55068274Y-34567557D01*
X54988583Y-34560528D01*
X54864672Y-35965424D01*
X54688514Y-35965424D01*
X54705291Y-35951367D01*
X54829202Y-34546471D01*
X54313056Y-34500947D01*
X54154739Y-34633600D01*
X54092364Y-35340800D01*
X54071945Y-35572310D01*
X51657237Y-35572310D01*
X51609100Y-34984715D01*
X51652840Y-33988405D01*
X54211645Y-33988405D01*
X54344298Y-34146722D01*
X54860445Y-34192246D01*
X54984356Y-32787350D01*
X54851702Y-32629033D01*
X54801741Y-32624626D01*
X54580040Y-32694357D01*
X54401899Y-32843622D01*
X54294439Y-33049695D01*
X54274020Y-33281205D01*
X54211645Y-33988405D01*
X51652840Y-33988405D01*
X51697737Y-32965770D01*
X51963741Y-31093889D01*
X52406029Y-29344396D01*
X52472158Y-29172249D01*
X56030667Y-29172249D01*
X56086870Y-29371001D01*
X56130647Y-29395477D01*
X56361464Y-29422633D01*
X56585104Y-29359391D01*
X56709130Y-29261477D01*
X56732641Y-29308743D01*
X56802829Y-29369025D01*
X57501098Y-29759436D01*
X57504670Y-29760635D01*
X57504535Y-29914027D01*
X57577244Y-30089996D01*
X57711759Y-30224745D01*
X57887601Y-30297761D01*
X58078000Y-30297928D01*
X58253969Y-30225219D01*
X58388718Y-30090704D01*
X58461734Y-29914862D01*
X58461901Y-29724463D01*
X58418823Y-29620206D01*
X59255127Y-28124435D01*
X59282555Y-28042715D01*
X59276826Y-27950372D01*
X59235621Y-27867533D01*
X59165433Y-27807251D01*
X58932455Y-27676990D01*
X58940713Y-27662219D01*
X58968141Y-27580499D01*
X58962412Y-27488155D01*
X58921207Y-27405317D01*
X58851019Y-27345035D01*
X58152750Y-26954624D01*
X58071030Y-26927196D01*
X58012092Y-26930852D01*
X58030525Y-26774187D01*
X57967284Y-26550547D01*
X57823274Y-26368133D01*
X57779497Y-26343656D01*
X57580745Y-26399860D01*
X56892475Y-27630864D01*
X56962302Y-27669905D01*
X56788764Y-27980285D01*
X56718937Y-27941244D01*
X56030667Y-29172249D01*
X52472158Y-29172249D01*
X52645950Y-28719839D01*
X55441233Y-28719839D01*
X55504474Y-28943479D01*
X55648484Y-29125893D01*
X55692261Y-29150370D01*
X55891013Y-29094166D01*
X56579283Y-27863162D01*
X56127023Y-27610298D01*
X55928271Y-27666501D01*
X55581808Y-28286167D01*
X55468390Y-28489022D01*
X55441233Y-28719839D01*
X52645950Y-28719839D01*
X53022333Y-27740049D01*
X53389304Y-27101165D01*
X56244358Y-27101165D01*
X56300561Y-27299917D01*
X56752821Y-27552782D01*
X57441091Y-26321777D01*
X57384888Y-26123025D01*
X57341111Y-26098549D01*
X57110294Y-26071393D01*
X56886654Y-26134635D01*
X56704239Y-26278645D01*
X56590821Y-26481500D01*
X56244358Y-27101165D01*
X53389304Y-27101165D01*
X54657072Y-24894028D01*
X55611509Y-23827038D01*
X60398166Y-23827038D01*
X60419471Y-23872443D01*
X60591196Y-24029046D01*
X60809780Y-24108011D01*
X60967630Y-24100741D01*
X60959184Y-24152851D01*
X60981080Y-24242744D01*
X61320908Y-24966979D01*
X61324947Y-24972580D01*
X61272302Y-25025134D01*
X61199286Y-25200976D01*
X61199119Y-25391375D01*
X61271828Y-25567344D01*
X61406343Y-25702093D01*
X61582185Y-25775109D01*
X61772584Y-25775276D01*
X61948553Y-25702567D01*
X62083302Y-25568052D01*
X62156318Y-25392210D01*
X62156325Y-25384750D01*
X63699166Y-24660811D01*
X63769086Y-24610395D01*
X63770887Y-24607524D01*
X72562201Y-24607524D01*
X72634910Y-24783493D01*
X72769425Y-24918242D01*
X72945267Y-24991258D01*
X73135666Y-24991425D01*
X73181059Y-24972669D01*
X74548127Y-26002155D01*
X74625387Y-26040383D01*
X74717657Y-26047194D01*
X74805308Y-26017569D01*
X74874527Y-25956178D01*
X75035097Y-25742954D01*
X75048615Y-25753134D01*
X75125875Y-25791361D01*
X75218145Y-25798172D01*
X75305795Y-25768547D01*
X75375015Y-25707156D01*
X75856266Y-25068096D01*
X75894493Y-24990836D01*
X75898840Y-24931945D01*
X76051574Y-24971394D01*
X76281712Y-24938977D01*
X76481925Y-24820957D01*
X76512097Y-24780892D01*
X76483287Y-24576365D01*
X75356664Y-23727950D01*
X75308539Y-23791856D01*
X75053955Y-23600138D01*
X75452914Y-23600138D01*
X76579537Y-24448553D01*
X76784064Y-24419743D01*
X76814235Y-24379678D01*
X76872355Y-24154654D01*
X76839937Y-23924516D01*
X76721917Y-23724303D01*
X76536263Y-23584494D01*
X75969141Y-23157417D01*
X75764614Y-23186227D01*
X75452914Y-23600138D01*
X75053955Y-23600138D01*
X75024477Y-23577940D01*
X75072602Y-23514034D01*
X73945979Y-22665619D01*
X73741452Y-22694429D01*
X73711281Y-22734494D01*
X73653161Y-22959518D01*
X73685579Y-23189656D01*
X73765822Y-23325784D01*
X73715811Y-23342687D01*
X73646591Y-23404078D01*
X73165340Y-24043138D01*
X73164083Y-24045679D01*
X73136501Y-24034226D01*
X72946102Y-24034059D01*
X72770133Y-24106768D01*
X72635384Y-24241283D01*
X72562368Y-24417125D01*
X72562201Y-24607524D01*
X63770887Y-24607524D01*
X63818255Y-24532021D01*
X63833058Y-24440692D01*
X63811162Y-24350799D01*
X63697777Y-24109156D01*
X63713096Y-24101968D01*
X63783016Y-24051553D01*
X63832185Y-23973178D01*
X63846988Y-23881849D01*
X63825092Y-23791956D01*
X63726120Y-23581027D01*
X66752873Y-23581027D01*
X66825582Y-23756996D01*
X66960097Y-23891745D01*
X67135939Y-23964761D01*
X67326338Y-23964928D01*
X67502307Y-23892219D01*
X67589997Y-23804682D01*
X69295332Y-23966830D01*
X69381174Y-23958981D01*
X69463368Y-23916504D01*
X69522561Y-23845396D01*
X69549425Y-23756861D01*
X69574691Y-23491138D01*
X69591538Y-23492740D01*
X69677380Y-23484891D01*
X69759574Y-23442414D01*
X69818767Y-23371306D01*
X69845631Y-23282771D01*
X69921356Y-22486363D01*
X69913507Y-22400521D01*
X69886396Y-22348061D01*
X69934536Y-22333280D01*
X74013419Y-22333280D01*
X74042229Y-22537807D01*
X75168852Y-23386222D01*
X75480552Y-22972311D01*
X75451742Y-22767784D01*
X74884621Y-22340707D01*
X74698966Y-22200898D01*
X74473942Y-22142778D01*
X74243804Y-22175195D01*
X74043591Y-22293215D01*
X74013419Y-22333280D01*
X69934536Y-22333280D01*
X70037194Y-22301760D01*
X70216351Y-22153715D01*
X70325215Y-21948380D01*
X70329962Y-21898450D01*
X70198393Y-21739231D01*
X68794375Y-21605733D01*
X68786803Y-21685374D01*
X68432799Y-21651714D01*
X68440372Y-21572073D01*
X67119197Y-21446451D01*
X68809520Y-21446451D01*
X70213538Y-21579950D01*
X70372757Y-21448380D01*
X70377504Y-21398450D01*
X70309289Y-21176278D01*
X70161243Y-20997122D01*
X69955908Y-20888258D01*
X69724543Y-20866259D01*
X69017785Y-20799058D01*
X68858566Y-20930628D01*
X68809520Y-21446451D01*
X67119197Y-21446451D01*
X67036354Y-21438574D01*
X66877135Y-21570144D01*
X66872388Y-21620074D01*
X66940603Y-21842246D01*
X67088649Y-22021402D01*
X67228260Y-22095421D01*
X67194485Y-22135994D01*
X67167621Y-22224529D01*
X67091896Y-23020937D01*
X67092351Y-23025917D01*
X66960805Y-23080271D01*
X66826056Y-23214786D01*
X66753040Y-23390628D01*
X66752873Y-23581027D01*
X63726120Y-23581027D01*
X63485264Y-23067721D01*
X63434848Y-22997801D01*
X63384826Y-22966419D01*
X63491119Y-22849862D01*
X63570086Y-22631279D01*
X63559393Y-22399116D01*
X63538087Y-22353711D01*
X63343829Y-22283533D01*
X62067048Y-22882630D01*
X62101031Y-22955053D01*
X61779109Y-23106107D01*
X61745126Y-23033683D01*
X60468344Y-23632780D01*
X60398166Y-23827038D01*
X55611509Y-23827038D01*
X56225907Y-23140187D01*
X60174122Y-23140187D01*
X60184815Y-23372350D01*
X60206121Y-23417755D01*
X60400379Y-23487933D01*
X61677160Y-22888836D01*
X61457057Y-22419758D01*
X61262799Y-22349580D01*
X60620090Y-22651155D01*
X60409692Y-22749879D01*
X60253089Y-22921604D01*
X60174122Y-23140187D01*
X56225907Y-23140187D01*
X56738394Y-22567266D01*
X57144047Y-22268705D01*
X61778980Y-22268705D01*
X61999082Y-22737783D01*
X63275864Y-22138686D01*
X63346042Y-21944428D01*
X63324737Y-21899023D01*
X63153012Y-21742420D01*
X62934428Y-21663455D01*
X62702265Y-21674148D01*
X62491867Y-21772872D01*
X61849158Y-22074446D01*
X61778980Y-22268705D01*
X57144047Y-22268705D01*
X58704687Y-21120074D01*
X66919930Y-21120074D01*
X67051499Y-21279293D01*
X68455517Y-21412791D01*
X68504563Y-20896968D01*
X68372993Y-20737749D01*
X67666236Y-20670548D01*
X67434870Y-20648549D01*
X67212698Y-20716764D01*
X67033541Y-20864809D01*
X66924677Y-21070144D01*
X66919930Y-21120074D01*
X58704687Y-21120074D01*
X59192678Y-20760913D01*
X61964301Y-19473386D01*
X64936922Y-18705623D01*
X67960035Y-18449594D01*
X70993118Y-18705634D01*
G36*
X50266768Y-48158407D02*
X50232968Y-48192207D01*
X50266768Y-48226007D01*
X50122768Y-48370007D01*
X49918904Y-48370007D01*
X49774904Y-48226007D01*
X49808704Y-48192207D01*
X49774904Y-48158407D01*
X49918904Y-48014407D01*
X50122768Y-48014407D01*
X50266768Y-48158407D01*
X50266768Y-48158407D01*
G37*
X50266768Y-48158407D02*
X50232968Y-48192207D01*
X50266768Y-48226007D01*
X50122768Y-48370007D01*
X49918904Y-48370007D01*
X49774904Y-48226007D01*
X49808704Y-48192207D01*
X49774904Y-48158407D01*
X49918904Y-48014407D01*
X50122768Y-48014407D01*
X50266768Y-48158407D01*
G36*
X86956062Y-48150290D02*
X86922262Y-48184090D01*
X86956062Y-48217890D01*
X86812062Y-48361890D01*
X86608198Y-48361890D01*
X86464198Y-48217890D01*
X86497998Y-48184090D01*
X86464198Y-48150290D01*
X86608198Y-48006290D01*
X86812062Y-48006290D01*
X86956062Y-48150290D01*
X86956062Y-48150290D01*
G37*
X86956062Y-48150290D02*
X86922262Y-48184090D01*
X86956062Y-48217890D01*
X86812062Y-48361890D01*
X86608198Y-48361890D01*
X86464198Y-48217890D01*
X86497998Y-48184090D01*
X86464198Y-48150290D01*
X86608198Y-48006290D01*
X86812062Y-48006290D01*
X86956062Y-48150290D01*
M02*
