G04 #@! TF.FileFunction,Soldermask,Top*
%FSLAX46Y46*%
G04 Gerber Fmt 4.6, Leading zero omitted, Abs format (unit mm)*
G04 Created by KiCad (PCBNEW 4.0.0-rc2-stable) date 3/3/2016 3:45:24 PM*
%MOMM*%
G01*
G04 APERTURE LIST*
%ADD10C,0.150000*%
%ADD11R,0.500000X1.800000*%
%ADD12R,0.320000X2.300000*%
%ADD13R,0.800000X2.300000*%
%ADD14R,1.800000X0.500000*%
%ADD15R,2.300000X0.320000*%
%ADD16R,2.300000X0.800000*%
%ADD17R,4.000000X1.000000*%
%ADD18C,0.600000*%
G04 APERTURE END LIST*
D10*
G36*
X73424681Y-20819821D02*
X74766943Y-22019126D01*
X74433803Y-22391977D01*
X73091541Y-21192672D01*
X73424681Y-20819821D01*
X73424681Y-20819821D01*
G37*
G36*
X71912358Y-22137198D02*
X73627472Y-23669642D01*
X73414262Y-23908266D01*
X71699148Y-22375822D01*
X71912358Y-22137198D01*
X71912358Y-22137198D01*
G37*
G36*
X72905115Y-21026102D02*
X74620229Y-22558547D01*
X74087205Y-23155108D01*
X72372091Y-21622663D01*
X72905115Y-21026102D01*
X72905115Y-21026102D01*
G37*
G36*
X70181161Y-26699874D02*
X71873546Y-27312928D01*
X71703253Y-27783034D01*
X70010868Y-27169980D01*
X70181161Y-26699874D01*
X70181161Y-26699874D01*
G37*
G36*
X69268342Y-28485751D02*
X71430833Y-29269098D01*
X71321846Y-29569967D01*
X69159355Y-28786620D01*
X69268342Y-28485751D01*
X69268342Y-28485751D01*
G37*
G36*
X69775815Y-27084834D02*
X71938306Y-27868181D01*
X71665837Y-28620352D01*
X69503346Y-27837005D01*
X69775815Y-27084834D01*
X69775815Y-27084834D01*
G37*
G36*
X67732383Y-32335368D02*
X68585517Y-33920348D01*
X68145245Y-34157330D01*
X67292111Y-32572350D01*
X67732383Y-32335368D01*
X67732383Y-32335368D01*
G37*
G36*
X65861609Y-33058420D02*
X66951725Y-35083672D01*
X66669951Y-35235340D01*
X65579835Y-33210088D01*
X65861609Y-33058420D01*
X65861609Y-33058420D01*
G37*
G36*
X67173620Y-32352213D02*
X68263736Y-34377466D01*
X67559300Y-34756637D01*
X66469184Y-32731384D01*
X67173620Y-32352213D01*
X67173620Y-32352213D01*
G37*
D11*
X61641817Y-34972622D03*
D12*
X59741817Y-34972622D03*
D13*
X60991817Y-34972622D03*
D10*
G36*
X67963062Y-39731308D02*
X69487671Y-38774454D01*
X69753464Y-39197956D01*
X68228855Y-40154810D01*
X67963062Y-39731308D01*
X67963062Y-39731308D01*
G37*
G36*
X68809166Y-41549743D02*
X70757277Y-40327097D01*
X70927384Y-40598139D01*
X68979273Y-41820785D01*
X68809166Y-41549743D01*
X68809166Y-41549743D01*
G37*
G36*
X68017104Y-40287706D02*
X69965215Y-39065060D01*
X70390484Y-39742664D01*
X68442373Y-40965310D01*
X68017104Y-40287706D01*
X68017104Y-40287706D01*
G37*
G36*
X71335662Y-45105062D02*
X72860271Y-44148208D01*
X73126064Y-44571710D01*
X71601455Y-45528564D01*
X71335662Y-45105062D01*
X71335662Y-45105062D01*
G37*
G36*
X72181766Y-46923497D02*
X74129877Y-45700851D01*
X74299984Y-45971893D01*
X72351873Y-47194539D01*
X72181766Y-46923497D01*
X72181766Y-46923497D01*
G37*
G36*
X71389704Y-45661460D02*
X73337815Y-44438814D01*
X73763084Y-45116418D01*
X71814973Y-46339064D01*
X71389704Y-45661460D01*
X71389704Y-45661460D01*
G37*
D14*
X55316643Y-21477876D03*
D15*
X55316643Y-23377876D03*
D16*
X55316643Y-22127876D03*
D14*
X55316643Y-27842567D03*
D15*
X55316643Y-29742567D03*
D16*
X55316643Y-28492567D03*
D14*
X55316643Y-34207254D03*
D15*
X55316643Y-36107254D03*
D16*
X55316643Y-34857254D03*
D14*
X55316643Y-40571947D03*
D15*
X55316643Y-42471947D03*
D16*
X55316643Y-41221947D03*
D14*
X55316643Y-46936636D03*
D15*
X55316643Y-48836636D03*
D16*
X55316643Y-47586636D03*
D17*
X82907290Y-50192207D03*
X82907290Y-48192207D03*
X82907290Y-46192207D03*
D18*
X81907290Y-50192207D03*
X81907290Y-48192207D03*
X81907290Y-46192207D03*
D17*
X49020840Y-46192207D03*
X49020840Y-48192207D03*
X49020840Y-50192207D03*
D18*
X50020840Y-46192207D03*
X50020840Y-48192207D03*
X50020840Y-50192207D03*
M02*
