G04 #@! TF.FileFunction,Legend,Bot*
%FSLAX46Y46*%
G04 Gerber Fmt 4.6, Leading zero omitted, Abs format (unit mm)*
G04 Created by KiCad (PCBNEW 4.0.0-rc2-stable) date 3/3/2016 3:44:06 PM*
%MOMM*%
G01*
G04 APERTURE LIST*
%ADD10C,0.150000*%
%ADD11C,0.025400*%
G04 APERTURE END LIST*
D10*
D11*
G36*
X70408545Y-18488064D02*
X72826781Y-18991998D01*
X75140570Y-19842964D01*
X77270365Y-21051883D01*
X79167615Y-22637729D01*
X80788011Y-24615119D01*
X82049164Y-26999558D01*
X82865172Y-29782556D01*
X74737449Y-29782556D01*
X73571509Y-27999805D01*
X73568905Y-27996913D01*
X72098015Y-26797612D01*
X72094378Y-26795537D01*
X70252668Y-26117385D01*
X70249532Y-26116665D01*
X67967042Y-25890617D01*
X67964555Y-25890615D01*
X66129655Y-26069864D01*
X66126874Y-26070456D01*
X64510124Y-26609305D01*
X64507515Y-26610518D01*
X63123510Y-27456721D01*
X63121322Y-27458412D01*
X61979972Y-28558512D01*
X61978251Y-28560562D01*
X61080801Y-29893312D01*
X61079648Y-29895437D01*
X60424951Y-31435283D01*
X60424276Y-31437340D01*
X60024528Y-33134196D01*
X60024225Y-33136169D01*
X59890621Y-34937614D01*
X59890621Y-34939500D01*
X60035320Y-36874551D01*
X60035669Y-36876703D01*
X60469869Y-38602502D01*
X60470645Y-38604706D01*
X61165443Y-40116761D01*
X61166667Y-40118866D01*
X62094114Y-41410416D01*
X62095911Y-41412427D01*
X63248317Y-42454674D01*
X63250655Y-42456349D01*
X64623549Y-43221299D01*
X64626100Y-43222375D01*
X66201600Y-43692277D01*
X66204110Y-43692757D01*
X67964470Y-43848656D01*
X67966738Y-43848654D01*
X70260288Y-43640501D01*
X70263156Y-43639901D01*
X72140396Y-43014154D01*
X72143209Y-43012813D01*
X72942819Y-42502811D01*
X72944750Y-42501299D01*
X73674100Y-41806497D01*
X73676025Y-41804167D01*
X74926415Y-39857920D01*
X74928244Y-39853222D01*
X74928101Y-39848183D01*
X74926009Y-39843596D01*
X74922297Y-39840185D01*
X74915733Y-39838355D01*
X68026280Y-39836607D01*
X68026280Y-32683656D01*
X83334098Y-32683656D01*
X83356286Y-37487282D01*
X83061553Y-39813192D01*
X82408598Y-42162410D01*
X81366364Y-44517212D01*
X80000704Y-46488968D01*
X78374911Y-48103624D01*
X76551989Y-49381566D01*
X74556839Y-50342442D01*
X72410040Y-51002055D01*
X70188388Y-51383629D01*
X67965921Y-51511569D01*
X64927642Y-51251223D01*
X61924159Y-50470347D01*
X59095290Y-49174387D01*
X56578017Y-47367886D01*
X55455982Y-46273657D01*
X54449588Y-45048169D01*
X52781881Y-42206752D01*
X52154675Y-40589820D01*
X51706451Y-38839175D01*
X51437229Y-36955670D01*
X51347102Y-34938606D01*
X51437229Y-32922739D01*
X51706450Y-31038144D01*
X52154676Y-29288585D01*
X52781885Y-27671644D01*
X54449629Y-24823477D01*
X55455911Y-23592576D01*
X56578014Y-22487128D01*
X59095378Y-20663920D01*
X61924170Y-19362461D01*
X64927644Y-18580418D01*
X67965850Y-18320091D01*
X70408545Y-18488064D01*
X70408545Y-18488064D01*
G37*
X70408545Y-18488064D02*
X72826781Y-18991998D01*
X75140570Y-19842964D01*
X77270365Y-21051883D01*
X79167615Y-22637729D01*
X80788011Y-24615119D01*
X82049164Y-26999558D01*
X82865172Y-29782556D01*
X74737449Y-29782556D01*
X73571509Y-27999805D01*
X73568905Y-27996913D01*
X72098015Y-26797612D01*
X72094378Y-26795537D01*
X70252668Y-26117385D01*
X70249532Y-26116665D01*
X67967042Y-25890617D01*
X67964555Y-25890615D01*
X66129655Y-26069864D01*
X66126874Y-26070456D01*
X64510124Y-26609305D01*
X64507515Y-26610518D01*
X63123510Y-27456721D01*
X63121322Y-27458412D01*
X61979972Y-28558512D01*
X61978251Y-28560562D01*
X61080801Y-29893312D01*
X61079648Y-29895437D01*
X60424951Y-31435283D01*
X60424276Y-31437340D01*
X60024528Y-33134196D01*
X60024225Y-33136169D01*
X59890621Y-34937614D01*
X59890621Y-34939500D01*
X60035320Y-36874551D01*
X60035669Y-36876703D01*
X60469869Y-38602502D01*
X60470645Y-38604706D01*
X61165443Y-40116761D01*
X61166667Y-40118866D01*
X62094114Y-41410416D01*
X62095911Y-41412427D01*
X63248317Y-42454674D01*
X63250655Y-42456349D01*
X64623549Y-43221299D01*
X64626100Y-43222375D01*
X66201600Y-43692277D01*
X66204110Y-43692757D01*
X67964470Y-43848656D01*
X67966738Y-43848654D01*
X70260288Y-43640501D01*
X70263156Y-43639901D01*
X72140396Y-43014154D01*
X72143209Y-43012813D01*
X72942819Y-42502811D01*
X72944750Y-42501299D01*
X73674100Y-41806497D01*
X73676025Y-41804167D01*
X74926415Y-39857920D01*
X74928244Y-39853222D01*
X74928101Y-39848183D01*
X74926009Y-39843596D01*
X74922297Y-39840185D01*
X74915733Y-39838355D01*
X68026280Y-39836607D01*
X68026280Y-32683656D01*
X83334098Y-32683656D01*
X83356286Y-37487282D01*
X83061553Y-39813192D01*
X82408598Y-42162410D01*
X81366364Y-44517212D01*
X80000704Y-46488968D01*
X78374911Y-48103624D01*
X76551989Y-49381566D01*
X74556839Y-50342442D01*
X72410040Y-51002055D01*
X70188388Y-51383629D01*
X67965921Y-51511569D01*
X64927642Y-51251223D01*
X61924159Y-50470347D01*
X59095290Y-49174387D01*
X56578017Y-47367886D01*
X55455982Y-46273657D01*
X54449588Y-45048169D01*
X52781881Y-42206752D01*
X52154675Y-40589820D01*
X51706451Y-38839175D01*
X51437229Y-36955670D01*
X51347102Y-34938606D01*
X51437229Y-32922739D01*
X51706450Y-31038144D01*
X52154676Y-29288585D01*
X52781885Y-27671644D01*
X54449629Y-24823477D01*
X55455911Y-23592576D01*
X56578014Y-22487128D01*
X59095378Y-20663920D01*
X61924170Y-19362461D01*
X64927644Y-18580418D01*
X67965850Y-18320091D01*
X70408545Y-18488064D01*
M02*
