G04 #@! TF.FileFunction,Soldermask,Bot*
%FSLAX46Y46*%
G04 Gerber Fmt 4.6, Leading zero omitted, Abs format (unit mm)*
G04 Created by KiCad (PCBNEW 4.0.0-rc2-stable) date 3/3/2016 3:07:13 PM*
%MOMM*%
G01*
G04 APERTURE LIST*
%ADD10C,0.150000*%
%ADD11R,4.000000X1.000000*%
%ADD12C,0.600000*%
%ADD13R,2.600000X3.000000*%
%ADD14R,3.600000X3.000000*%
%ADD15C,0.500000*%
G04 APERTURE END LIST*
D10*
D11*
X86521140Y-50192207D03*
X86521140Y-48192207D03*
X86521140Y-46192207D03*
D12*
X85521140Y-50192207D03*
X85521140Y-48192207D03*
X85521140Y-46192207D03*
D11*
X49020840Y-46192207D03*
X49020840Y-48192207D03*
X49020840Y-50192207D03*
D12*
X50020840Y-46192207D03*
X50020840Y-48192207D03*
X50020840Y-50192207D03*
D13*
X68524475Y-23148397D03*
D14*
X68524475Y-44548397D03*
D15*
X68524475Y-46448397D03*
D10*
G36*
X55042138Y-44759312D02*
X56891209Y-45521503D01*
X56601576Y-46224150D01*
X54752505Y-45461959D01*
X55042138Y-44759312D01*
X55042138Y-44759312D01*
G37*
G36*
X54558146Y-45933472D02*
X56407217Y-46695663D01*
X56117584Y-47398310D01*
X54268513Y-46636119D01*
X54558146Y-45933472D01*
X54558146Y-45933472D01*
G37*
G36*
X54074155Y-47107633D02*
X55923226Y-47869824D01*
X55633593Y-48572471D01*
X53784522Y-47810280D01*
X54074155Y-47107633D01*
X54074155Y-47107633D01*
G37*
G36*
X53590164Y-48281793D02*
X55439235Y-49043984D01*
X55149602Y-49746631D01*
X53300531Y-48984440D01*
X53590164Y-48281793D01*
X53590164Y-48281793D01*
G37*
G36*
X58000652Y-45978817D02*
X59849723Y-46741008D01*
X59560090Y-47443655D01*
X57711019Y-46681464D01*
X58000652Y-45978817D01*
X58000652Y-45978817D01*
G37*
G36*
X57516661Y-47152977D02*
X59365732Y-47915168D01*
X59076099Y-48617815D01*
X57227028Y-47855624D01*
X57516661Y-47152977D01*
X57516661Y-47152977D01*
G37*
G36*
X57032670Y-48327138D02*
X58881741Y-49089329D01*
X58592108Y-49791976D01*
X56743037Y-49029785D01*
X57032670Y-48327138D01*
X57032670Y-48327138D01*
G37*
G36*
X56544867Y-49510543D02*
X58393938Y-50272734D01*
X58111927Y-50956891D01*
X56262856Y-50194700D01*
X56544867Y-49510543D01*
X56544867Y-49510543D01*
G37*
G36*
X59777087Y-45342813D02*
X60331809Y-45571471D01*
X59988823Y-46403553D01*
X59434101Y-46174895D01*
X59777087Y-45342813D01*
X59777087Y-45342813D01*
G37*
G36*
X58390283Y-44771170D02*
X58945005Y-44999828D01*
X58602019Y-45831910D01*
X58047297Y-45603252D01*
X58390283Y-44771170D01*
X58390283Y-44771170D01*
G37*
G36*
X58866653Y-43615500D02*
X59421375Y-43844158D01*
X59078389Y-44676240D01*
X58523667Y-44447582D01*
X58866653Y-43615500D01*
X58866653Y-43615500D01*
G37*
G36*
X60253456Y-44187143D02*
X60808178Y-44415801D01*
X60465192Y-45247883D01*
X59910470Y-45019225D01*
X60253456Y-44187143D01*
X60253456Y-44187143D01*
G37*
G36*
X60729825Y-43031473D02*
X61284547Y-43260131D01*
X60941561Y-44092213D01*
X60386839Y-43863555D01*
X60729825Y-43031473D01*
X60729825Y-43031473D01*
G37*
G36*
X59343022Y-42459830D02*
X59897744Y-42688488D01*
X59554758Y-43520570D01*
X59000036Y-43291912D01*
X59343022Y-42459830D01*
X59343022Y-42459830D01*
G37*
G36*
X58373705Y-45467392D02*
X58558612Y-45543611D01*
X58215627Y-46375694D01*
X58030720Y-46299475D01*
X58373705Y-45467392D01*
X58373705Y-45467392D01*
G37*
M02*
