G04 #@! TF.FileFunction,Copper,L2,Bot,Signal*
%FSLAX46Y46*%
G04 Gerber Fmt 4.6, Leading zero omitted, Abs format (unit mm)*
G04 Created by KiCad (PCBNEW 4.0.0-rc2-stable) date 3/3/2016 3:44:06 PM*
%MOMM*%
G01*
G04 APERTURE LIST*
%ADD10C,0.150000*%
%ADD11C,0.500000*%
%ADD12R,4.000000X1.000000*%
%ADD13C,0.600000*%
%ADD14C,0.254000*%
%ADD15C,0.152400*%
G04 APERTURE END LIST*
D10*
D11*
X71910120Y-35177056D03*
X80530949Y-35407843D03*
X79220894Y-41773904D03*
X74754607Y-46844849D03*
X68275811Y-48680752D03*
X61877070Y-47225427D03*
X56816458Y-42709335D03*
X54803297Y-36487400D03*
X55519672Y-29791433D03*
X59282743Y-24392169D03*
X65406297Y-21419374D03*
X72037030Y-21739019D03*
X77612412Y-25460056D03*
D12*
X85757630Y-50192207D03*
X85757630Y-48192207D03*
X85757630Y-46192207D03*
D13*
X84757630Y-50192207D03*
X84757630Y-48192207D03*
X84757630Y-46192207D03*
D12*
X49020840Y-46192207D03*
X49020840Y-48192207D03*
X49020840Y-50192207D03*
D13*
X50020840Y-46192207D03*
X50020840Y-48192207D03*
X50020840Y-50192207D03*
D10*
G36*
X53461950Y-32520598D02*
X56247904Y-31407738D01*
X57212382Y-33822232D01*
X54426428Y-34935092D01*
X53461950Y-32520598D01*
X53461950Y-32520598D01*
G37*
G36*
X73149618Y-24117876D02*
X75935573Y-23005016D01*
X77271004Y-26348162D01*
X74485049Y-27461022D01*
X73149618Y-24117876D01*
X73149618Y-24117876D01*
G37*
D11*
X76974749Y-24528208D03*
D10*
G36*
X62275507Y-48495097D02*
X63190759Y-46716807D01*
X63866509Y-47064603D01*
X62951257Y-48842893D01*
X62275507Y-48495097D01*
X62275507Y-48495097D01*
G37*
G36*
X63404721Y-49076282D02*
X64319973Y-47297992D01*
X64995723Y-47645788D01*
X64080471Y-49424078D01*
X63404721Y-49076282D01*
X63404721Y-49076282D01*
G37*
G36*
X64533934Y-49657467D02*
X65449186Y-47879177D01*
X66124936Y-48226973D01*
X65209684Y-50005263D01*
X64533934Y-49657467D01*
X64533934Y-49657467D01*
G37*
G36*
X65663148Y-50238652D02*
X66578400Y-48460362D01*
X67254150Y-48808158D01*
X66338898Y-50586448D01*
X65663148Y-50238652D01*
X65663148Y-50238652D01*
G37*
G36*
X63739910Y-45649834D02*
X64655162Y-43871544D01*
X65330912Y-44219340D01*
X64415660Y-45997630D01*
X63739910Y-45649834D01*
X63739910Y-45649834D01*
G37*
G36*
X64869124Y-46231019D02*
X65784376Y-44452729D01*
X66460126Y-44800525D01*
X65544874Y-46578815D01*
X64869124Y-46231019D01*
X64869124Y-46231019D01*
G37*
G36*
X65998337Y-46812204D02*
X66913589Y-45033914D01*
X67589339Y-45381710D01*
X66674087Y-47160000D01*
X65998337Y-46812204D01*
X65998337Y-46812204D01*
G37*
G36*
X67136442Y-47397965D02*
X68051694Y-45619676D01*
X68709662Y-45958319D01*
X67794410Y-47736608D01*
X67136442Y-47397965D01*
X67136442Y-47397965D01*
G37*
G36*
X63255818Y-43826135D02*
X63530394Y-43292648D01*
X64330624Y-43704511D01*
X64056048Y-44237998D01*
X63255818Y-43826135D01*
X63255818Y-43826135D01*
G37*
G36*
X62569379Y-45159852D02*
X62843955Y-44626365D01*
X63644185Y-45038228D01*
X63369609Y-45571715D01*
X62569379Y-45159852D01*
X62569379Y-45159852D01*
G37*
G36*
X61457948Y-44587819D02*
X61732524Y-44054332D01*
X62532754Y-44466195D01*
X62258178Y-44999682D01*
X61457948Y-44587819D01*
X61457948Y-44587819D01*
G37*
G36*
X62144387Y-43254102D02*
X62418963Y-42720615D01*
X63219193Y-43132478D01*
X62944617Y-43665965D01*
X62144387Y-43254102D01*
X62144387Y-43254102D01*
G37*
G36*
X61032956Y-42682070D02*
X61307532Y-42148583D01*
X62107762Y-42560446D01*
X61833186Y-43093933D01*
X61032956Y-42682070D01*
X61032956Y-42682070D01*
G37*
G36*
X60346517Y-44015787D02*
X60621093Y-43482300D01*
X61421323Y-43894163D01*
X61146747Y-44427650D01*
X60346517Y-44015787D01*
X60346517Y-44015787D01*
G37*
G36*
X63261729Y-45235022D02*
X63353254Y-45057193D01*
X64153485Y-45469056D01*
X64061960Y-45646885D01*
X63261729Y-45235022D01*
X63261729Y-45235022D01*
G37*
G36*
X61675012Y-45149409D02*
X61766537Y-44971580D01*
X65145288Y-46710559D01*
X65053763Y-46888388D01*
X61675012Y-45149409D01*
X61675012Y-45149409D01*
G37*
G36*
X60268736Y-44931729D02*
X60360261Y-44753900D01*
X66139702Y-47728469D01*
X66048177Y-47906298D01*
X60268736Y-44931729D01*
X60268736Y-44931729D01*
G37*
G36*
X61720775Y-45060494D02*
X61903826Y-44704836D01*
X62081655Y-44796362D01*
X61898604Y-45152020D01*
X61720775Y-45060494D01*
X61720775Y-45060494D01*
G37*
G36*
X64921696Y-46707947D02*
X65104747Y-46352289D01*
X65282576Y-46443815D01*
X65099525Y-46799473D01*
X64921696Y-46707947D01*
X64921696Y-46707947D01*
G37*
G36*
X65938992Y-47681400D02*
X66305093Y-46970084D01*
X66482922Y-47061610D01*
X66116821Y-47772926D01*
X65938992Y-47681400D01*
X65938992Y-47681400D01*
G37*
G36*
X60337379Y-44798357D02*
X60703480Y-44087041D01*
X60881309Y-44178567D01*
X60515208Y-44889883D01*
X60337379Y-44798357D01*
X60337379Y-44798357D01*
G37*
G36*
X61791340Y-42847460D02*
X61882865Y-42669631D01*
X63661154Y-43584882D01*
X63569629Y-43762711D01*
X61791340Y-42847460D01*
X61791340Y-42847460D01*
G37*
D14*
X75210000Y-25230000D02*
X76970000Y-24530000D01*
X75210000Y-25230000D02*
X76970000Y-24530000D01*
X75210000Y-25230000D02*
X76970000Y-24530000D01*
X75210000Y-25230000D02*
X76970000Y-24530000D01*
X75210000Y-25230000D02*
X76970000Y-24530000D01*
X75210000Y-25230000D02*
X76970000Y-24530000D01*
X75210000Y-25230000D02*
X76970000Y-24530000D01*
X75210000Y-25230000D02*
X76970000Y-24530000D01*
X75210000Y-25230000D02*
X76970000Y-24530000D01*
X55340000Y-33170000D02*
X62730000Y-43220000D01*
X55340000Y-33170000D02*
X62730000Y-43220000D01*
X55340000Y-33170000D02*
X62730000Y-43220000D01*
X55340000Y-33170000D02*
X62730000Y-43220000D01*
X55340000Y-33170000D02*
X62730000Y-43220000D01*
X55340000Y-33170000D02*
X62730000Y-43220000D01*
X55340000Y-33170000D02*
X62730000Y-43220000D01*
X55340000Y-33170000D02*
X62730000Y-43220000D01*
X55340000Y-33170000D02*
X62730000Y-43220000D01*
D15*
G36*
X70371969Y-18746705D02*
X72752958Y-19248483D01*
X75032469Y-20083649D01*
X77120507Y-21269811D01*
X78981028Y-22826774D01*
X80566778Y-24764911D01*
X81800503Y-27095280D01*
X82508481Y-29521400D01*
X74880733Y-29521400D01*
X73793203Y-27857571D01*
X73763333Y-27827090D01*
X73736180Y-27794180D01*
X72266180Y-26594179D01*
X72225671Y-26572662D01*
X72186577Y-26548675D01*
X70346577Y-25868675D01*
X70311127Y-25863039D01*
X70276758Y-25852688D01*
X67996758Y-25632688D01*
X67970560Y-25635321D01*
X67944369Y-25632581D01*
X66104369Y-25802582D01*
X66073670Y-25811692D01*
X66041899Y-25815697D01*
X64421899Y-26355697D01*
X64393997Y-26371602D01*
X64363890Y-26382787D01*
X62983891Y-27232787D01*
X62961853Y-27253252D01*
X62936549Y-27269514D01*
X61796549Y-28369514D01*
X61779955Y-28393413D01*
X61759264Y-28413863D01*
X60859264Y-29743863D01*
X60848659Y-29769047D01*
X60833327Y-29791664D01*
X60183327Y-31331664D01*
X60178575Y-31354744D01*
X60168806Y-31376190D01*
X59768806Y-33076190D01*
X59768032Y-33098453D01*
X59762124Y-33119931D01*
X59632124Y-34919931D01*
X59634636Y-34940042D01*
X59632130Y-34960156D01*
X59772130Y-36890156D01*
X59778494Y-36913264D01*
X59779627Y-36937203D01*
X60209626Y-38667202D01*
X60220968Y-38691296D01*
X60227239Y-38717174D01*
X60853110Y-40067268D01*
X56619647Y-34309987D01*
X57298843Y-34038680D01*
X57371600Y-33992453D01*
X57425281Y-33917097D01*
X57445415Y-33826793D01*
X57428830Y-33735771D01*
X56464352Y-31321277D01*
X56418125Y-31248520D01*
X56342769Y-31194839D01*
X56252465Y-31174705D01*
X56161443Y-31191290D01*
X53375489Y-32304150D01*
X53302732Y-32350377D01*
X53249051Y-32425733D01*
X53228917Y-32516037D01*
X53245502Y-32607059D01*
X54209980Y-35021553D01*
X54256207Y-35094310D01*
X54331563Y-35147991D01*
X54421867Y-35168125D01*
X54512889Y-35151540D01*
X55937297Y-34582555D01*
X61330385Y-41916864D01*
X61239486Y-41925659D01*
X61158117Y-41969696D01*
X61100292Y-42041920D01*
X60825716Y-42575407D01*
X60801122Y-42658025D01*
X60810032Y-42750116D01*
X60854069Y-42831485D01*
X60926293Y-42889310D01*
X61726523Y-43301173D01*
X61809141Y-43325767D01*
X61901232Y-43316857D01*
X61919970Y-43306716D01*
X61921463Y-43322148D01*
X61965500Y-43403517D01*
X62037724Y-43461342D01*
X62837954Y-43873205D01*
X62920572Y-43897799D01*
X63012663Y-43888889D01*
X63031401Y-43878748D01*
X63032894Y-43894181D01*
X63076931Y-43975550D01*
X63149155Y-44033375D01*
X63949385Y-44445238D01*
X64032003Y-44469832D01*
X64087880Y-44464426D01*
X63846846Y-44932742D01*
X63823072Y-44888813D01*
X63750848Y-44830988D01*
X62950618Y-44419125D01*
X62868000Y-44394531D01*
X62775909Y-44403441D01*
X62757171Y-44413582D01*
X62755678Y-44398149D01*
X62711641Y-44316780D01*
X62639417Y-44258955D01*
X61839187Y-43847092D01*
X61756569Y-43822498D01*
X61664478Y-43831408D01*
X61645740Y-43841549D01*
X61644247Y-43826117D01*
X61600210Y-43744748D01*
X61527986Y-43686923D01*
X60727756Y-43275060D01*
X60645138Y-43250466D01*
X60553047Y-43259376D01*
X60471678Y-43303413D01*
X60413853Y-43375637D01*
X60139277Y-43909124D01*
X60114683Y-43991742D01*
X60123593Y-44083833D01*
X60167630Y-44165202D01*
X60239854Y-44223027D01*
X60343814Y-44276533D01*
X60130139Y-44691694D01*
X60130137Y-44691700D01*
X60061496Y-44825067D01*
X60036902Y-44907684D01*
X60045812Y-44999775D01*
X60089849Y-45081144D01*
X60162073Y-45138969D01*
X62679064Y-46434417D01*
X62618142Y-46552785D01*
X62539008Y-46706540D01*
X62344379Y-46514760D01*
X62036846Y-46390025D01*
X61887901Y-46374952D01*
X61797304Y-46525464D01*
X61960819Y-47069748D01*
X62423633Y-46930709D01*
X62361897Y-47050658D01*
X62408554Y-47196276D01*
X62356227Y-47211996D01*
X62295061Y-47180515D01*
X62264708Y-47239491D01*
X62170797Y-47267704D01*
X62142661Y-47239568D01*
X62090361Y-47291868D01*
X62032749Y-47309176D01*
X62042060Y-47340169D01*
X61891211Y-47491018D01*
X62052328Y-47652135D01*
X61940196Y-47870001D01*
X61793321Y-47381106D01*
X61249037Y-47544621D01*
X61173373Y-47703166D01*
X61409761Y-47936094D01*
X61717294Y-48060829D01*
X61835808Y-48072822D01*
X61809247Y-48124429D01*
X61702891Y-48331074D01*
X61683710Y-48562690D01*
X61754624Y-48784017D01*
X61904839Y-48961357D01*
X62058087Y-49040231D01*
X62254783Y-48977208D01*
X62831552Y-47856574D01*
X62813769Y-47847421D01*
X62976501Y-47531242D01*
X62994284Y-47540394D01*
X63003437Y-47522611D01*
X63319616Y-47685343D01*
X63310464Y-47703126D01*
X63879828Y-47996167D01*
X64123498Y-48121579D01*
X64132651Y-48103796D01*
X64448830Y-48266528D01*
X64439678Y-48284311D01*
X64683347Y-48409723D01*
X65252711Y-48702764D01*
X65261864Y-48684981D01*
X65578043Y-48847713D01*
X65568891Y-48865496D01*
X66138255Y-49158537D01*
X66381925Y-49283949D01*
X66958694Y-48163315D01*
X66895670Y-47966620D01*
X66742422Y-47887745D01*
X66592704Y-47875347D01*
X66495604Y-47760713D01*
X66408356Y-47715808D01*
X66585056Y-47372489D01*
X66650042Y-47391834D01*
X66742133Y-47382924D01*
X66823502Y-47338887D01*
X66881327Y-47266663D01*
X66933413Y-47165463D01*
X66978239Y-47196026D01*
X66929202Y-47291302D01*
X66904608Y-47373920D01*
X66913518Y-47466011D01*
X66957555Y-47547380D01*
X67029780Y-47605205D01*
X67687748Y-47943848D01*
X67770365Y-47968442D01*
X67862456Y-47959532D01*
X67943825Y-47915495D01*
X67950838Y-47906735D01*
X67928227Y-48067975D01*
X68291884Y-48504708D01*
X68728617Y-48141051D01*
X68736128Y-47965537D01*
X68427387Y-47843823D01*
X68095570Y-47849525D01*
X67963823Y-47890518D01*
X68001650Y-47843271D01*
X68523643Y-46829063D01*
X73904210Y-46829063D01*
X73962901Y-47155698D01*
X74052567Y-47295439D01*
X74028513Y-47319493D01*
X74138710Y-47429690D01*
X74142123Y-47435009D01*
X74156753Y-47447733D01*
X74279963Y-47570943D01*
X74308933Y-47541973D01*
X74652979Y-47541973D01*
X74738821Y-47695246D01*
X75065456Y-47636555D01*
X75205197Y-47546889D01*
X75229251Y-47570943D01*
X75339448Y-47460746D01*
X75344767Y-47457333D01*
X75357491Y-47442703D01*
X75480701Y-47319493D01*
X75393975Y-47232767D01*
X75372345Y-47183538D01*
X75330850Y-47169642D01*
X75020198Y-46858990D01*
X74865410Y-47013778D01*
X74833444Y-47003073D01*
X74811960Y-47067228D01*
X74768748Y-47110440D01*
X74790279Y-47131971D01*
X74652979Y-47541973D01*
X74308933Y-47541973D01*
X74366689Y-47484217D01*
X74415918Y-47462587D01*
X74429814Y-47421092D01*
X74740466Y-47110440D01*
X74585678Y-46955652D01*
X74596383Y-46923686D01*
X74532228Y-46902202D01*
X74489016Y-46858990D01*
X74467485Y-46880521D01*
X74057483Y-46743221D01*
X73904210Y-46829063D01*
X68523643Y-46829063D01*
X68659872Y-46564378D01*
X68682527Y-46565163D01*
X68742527Y-46555163D01*
X68764078Y-46548155D01*
X68824078Y-46518155D01*
X68843132Y-46504621D01*
X68860197Y-46479646D01*
X68866200Y-46450000D01*
X68866200Y-46360000D01*
X68864239Y-46342825D01*
X68836225Y-46221733D01*
X68916902Y-46064982D01*
X68941496Y-45982364D01*
X68932586Y-45890273D01*
X68888549Y-45808904D01*
X68816324Y-45751079D01*
X68715316Y-45699092D01*
X68554239Y-45002825D01*
X68553364Y-44999406D01*
X68418794Y-44520000D01*
X68603800Y-44520000D01*
X68603800Y-44740000D01*
X68606373Y-44759634D01*
X68646373Y-44909634D01*
X68653763Y-44927671D01*
X68673638Y-44950473D01*
X68973638Y-45180473D01*
X68994190Y-45191696D01*
X69206213Y-45268024D01*
X69296188Y-45618926D01*
X69301845Y-45634078D01*
X69332735Y-45695858D01*
X69323931Y-45845525D01*
X69324740Y-45861931D01*
X69454740Y-46681931D01*
X69457710Y-46694097D01*
X69477710Y-46754097D01*
X69495379Y-46783132D01*
X69520354Y-46800197D01*
X69550000Y-46806200D01*
X69610000Y-46806200D01*
X69624944Y-46804720D01*
X69724944Y-46784720D01*
X69744719Y-46777831D01*
X69768374Y-46758979D01*
X69782830Y-46732410D01*
X69785811Y-46702309D01*
X69716058Y-46014740D01*
X69706148Y-45747180D01*
X69693402Y-45707732D01*
X69678199Y-45684928D01*
X69688928Y-45672487D01*
X69696136Y-45643111D01*
X69691348Y-45613244D01*
X69634075Y-45460516D01*
X69555279Y-44958191D01*
X69554720Y-44955056D01*
X69534720Y-44855056D01*
X69526810Y-44833356D01*
X69507290Y-44810250D01*
X69485987Y-44799437D01*
X69496460Y-44787276D01*
X69505726Y-44758483D01*
X69503060Y-44728352D01*
X69423060Y-44458352D01*
X69407670Y-44430194D01*
X69217670Y-44210194D01*
X69182729Y-44187269D01*
X69022729Y-44137269D01*
X68991585Y-44134266D01*
X68901585Y-44144266D01*
X68897473Y-44144837D01*
X68837473Y-44154837D01*
X68802398Y-44170498D01*
X68702398Y-44250498D01*
X68677710Y-44285903D01*
X68607710Y-44495903D01*
X68603800Y-44520000D01*
X68418794Y-44520000D01*
X68393364Y-44429406D01*
X68374901Y-44397157D01*
X68350017Y-44379961D01*
X68280017Y-44349961D01*
X68261736Y-44344709D01*
X68231519Y-44346075D01*
X68191519Y-44356075D01*
X68159980Y-44372516D01*
X68141556Y-44396506D01*
X68133917Y-44425773D01*
X68123917Y-44605773D01*
X68124783Y-44622197D01*
X68184783Y-44992197D01*
X68186337Y-44999499D01*
X68254415Y-45256682D01*
X68201447Y-45264248D01*
X68093928Y-45273208D01*
X67967213Y-45249449D01*
X67960414Y-45242650D01*
X67914829Y-45005610D01*
X67913077Y-44998409D01*
X67783077Y-44558409D01*
X67776359Y-44542544D01*
X67756558Y-44519677D01*
X67729421Y-44506316D01*
X67699224Y-44504566D01*
X67559224Y-44524566D01*
X67530199Y-44535021D01*
X67508054Y-44555625D01*
X67495670Y-44583221D01*
X67494999Y-44613462D01*
X67585483Y-45117588D01*
X67303956Y-44972691D01*
X67285357Y-44848696D01*
X67277431Y-44824510D01*
X67177431Y-44634510D01*
X67156107Y-44609332D01*
X66906107Y-44419332D01*
X66889646Y-44409803D01*
X66860000Y-44403800D01*
X66700000Y-44403800D01*
X66681519Y-44406075D01*
X66641519Y-44416075D01*
X66625922Y-44421845D01*
X66585922Y-44441845D01*
X66565834Y-44456404D01*
X66549250Y-44481700D01*
X66515230Y-44566749D01*
X65891039Y-44245489D01*
X65808421Y-44220895D01*
X65716330Y-44229805D01*
X65634961Y-44273842D01*
X65577136Y-44346066D01*
X64661884Y-46124356D01*
X64642455Y-46189623D01*
X64580225Y-46157594D01*
X64622900Y-46104293D01*
X65538152Y-44326003D01*
X65562746Y-44243385D01*
X65553836Y-44151294D01*
X65509799Y-44069925D01*
X65437575Y-44012100D01*
X64761825Y-43664304D01*
X64679207Y-43639710D01*
X64587116Y-43648620D01*
X64556336Y-43665278D01*
X64553548Y-43636465D01*
X64509511Y-43555096D01*
X64437287Y-43497271D01*
X63637057Y-43085408D01*
X63554439Y-43060814D01*
X63462348Y-43069724D01*
X63443610Y-43079865D01*
X63442117Y-43064432D01*
X63398080Y-42983063D01*
X63325856Y-42925238D01*
X62728612Y-42617848D01*
X62107935Y-41773761D01*
X63073131Y-42646634D01*
X63099851Y-42662610D01*
X63123497Y-42682868D01*
X64493498Y-43452868D01*
X64523056Y-43462522D01*
X64550565Y-43477036D01*
X66130565Y-43947036D01*
X66158952Y-43949677D01*
X66186341Y-43957594D01*
X67946341Y-44107594D01*
X67970287Y-44104917D01*
X67994240Y-44107544D01*
X69678765Y-43960424D01*
X69631700Y-43979250D01*
X69605834Y-43996404D01*
X69589250Y-44021700D01*
X69549250Y-44121700D01*
X69544591Y-44160952D01*
X69554793Y-44189427D01*
X69812593Y-44615788D01*
X70107466Y-45254680D01*
X70155337Y-45465311D01*
X70285046Y-46173724D01*
X70286960Y-46181715D01*
X70396960Y-46551715D01*
X70405821Y-46571080D01*
X70426860Y-46592812D01*
X70454696Y-46604647D01*
X70484944Y-46604720D01*
X70584944Y-46584720D01*
X70612268Y-46573402D01*
X70672268Y-46533402D01*
X70694181Y-46511076D01*
X70705105Y-46482869D01*
X70704195Y-46452635D01*
X70636187Y-46162053D01*
X70934215Y-46162053D01*
X70937095Y-46192164D01*
X70951462Y-46218782D01*
X71001462Y-46278782D01*
X71035903Y-46302290D01*
X71245903Y-46372290D01*
X71287453Y-46374174D01*
X71304321Y-46370205D01*
X74028513Y-46370205D01*
X74115239Y-46456931D01*
X74136869Y-46506160D01*
X74178364Y-46520056D01*
X74489016Y-46830708D01*
X74643804Y-46675920D01*
X74675770Y-46686625D01*
X74697254Y-46622470D01*
X74740466Y-46579258D01*
X74718935Y-46557727D01*
X74856235Y-46147725D01*
X74770393Y-45994452D01*
X74443758Y-46053143D01*
X74304017Y-46142809D01*
X74279963Y-46118755D01*
X74169766Y-46228952D01*
X74164447Y-46232365D01*
X74151723Y-46246995D01*
X74028513Y-46370205D01*
X71304321Y-46370205D01*
X71457453Y-46334174D01*
X71479333Y-46325263D01*
X71501626Y-46304819D01*
X71661626Y-46084819D01*
X71671816Y-46065473D01*
X71676069Y-46035525D01*
X71666069Y-45865525D01*
X71665872Y-45862942D01*
X71625872Y-45432942D01*
X71625464Y-45429435D01*
X71577226Y-45084877D01*
X71863956Y-45084877D01*
X71871845Y-45114078D01*
X71969511Y-45309410D01*
X72167834Y-45894463D01*
X72175574Y-45910690D01*
X72295574Y-46100690D01*
X72323511Y-46126896D01*
X72653511Y-46306896D01*
X72694005Y-46316095D01*
X72884005Y-46306095D01*
X72900050Y-46303515D01*
X73010050Y-46273515D01*
X73043882Y-46253882D01*
X73213882Y-46083882D01*
X73232290Y-46054097D01*
X73332290Y-45754097D01*
X73335887Y-45736899D01*
X73375887Y-45296899D01*
X73376148Y-45287180D01*
X73366200Y-45018584D01*
X73366200Y-44980000D01*
X73363663Y-44960501D01*
X73273663Y-44620501D01*
X73270460Y-44610987D01*
X73060460Y-44100987D01*
X73050738Y-44083986D01*
X72800738Y-43753986D01*
X72773128Y-43731378D01*
X72483128Y-43591378D01*
X72445247Y-43583948D01*
X72285247Y-43593948D01*
X72261700Y-43599250D01*
X72211700Y-43619250D01*
X72185834Y-43636404D01*
X72169250Y-43661700D01*
X72129250Y-43761700D01*
X72123807Y-43788996D01*
X72129419Y-43818718D01*
X72146153Y-43843916D01*
X72171371Y-43860618D01*
X72525995Y-44004385D01*
X72676648Y-44163899D01*
X72897328Y-44614854D01*
X72954902Y-44893130D01*
X72973946Y-45026439D01*
X72983689Y-45386916D01*
X72945365Y-45741412D01*
X72896711Y-45863048D01*
X72878414Y-45877685D01*
X72727789Y-45900279D01*
X72618742Y-45827581D01*
X72442395Y-45484168D01*
X72384873Y-45215731D01*
X72380523Y-45189635D01*
X72480960Y-45055720D01*
X72495969Y-45015927D01*
X72492290Y-44985903D01*
X72482290Y-44955903D01*
X72480750Y-44951700D01*
X72460750Y-44901700D01*
X72445600Y-44877894D01*
X72420948Y-44860368D01*
X72330948Y-44820368D01*
X72286758Y-44814959D01*
X72118645Y-44844626D01*
X72040549Y-44854388D01*
X72025077Y-44857991D01*
X71999025Y-44873361D01*
X71899025Y-44963361D01*
X71885632Y-44979217D01*
X71874837Y-45007473D01*
X71864837Y-45067473D01*
X71863956Y-45084877D01*
X71577226Y-45084877D01*
X71555464Y-44929435D01*
X71555377Y-44928833D01*
X71435377Y-44118833D01*
X71428155Y-44095922D01*
X71398155Y-44035922D01*
X71384621Y-44016868D01*
X71359646Y-43999803D01*
X71330000Y-43993800D01*
X71250000Y-43993800D01*
X71210795Y-44004659D01*
X71160795Y-44034659D01*
X71146868Y-44045379D01*
X71129803Y-44070354D01*
X71123800Y-44100000D01*
X71123800Y-44420000D01*
X71124566Y-44430776D01*
X71164566Y-44710776D01*
X71164660Y-44711415D01*
X71314127Y-45697896D01*
X71329720Y-45970784D01*
X71296544Y-45973800D01*
X71060000Y-45973800D01*
X71031963Y-45979145D01*
X71006606Y-45995636D01*
X70989662Y-46020692D01*
X70939662Y-46140692D01*
X70934215Y-46162053D01*
X70636187Y-46162053D01*
X70484520Y-45514026D01*
X70411548Y-45140044D01*
X70429502Y-45117602D01*
X70445235Y-45082091D01*
X70535235Y-44522091D01*
X70535822Y-44517582D01*
X70585822Y-44017582D01*
X70583268Y-43989066D01*
X70563268Y-43919066D01*
X70555470Y-43901011D01*
X70535143Y-43878611D01*
X70507702Y-43865885D01*
X70477473Y-43864837D01*
X70417473Y-43874837D01*
X70382398Y-43890498D01*
X70332398Y-43930498D01*
X70317573Y-43946304D01*
X70305491Y-43974034D01*
X70215491Y-44394034D01*
X70214486Y-44399795D01*
X70188148Y-44594693D01*
X70086518Y-44412828D01*
X70083659Y-44408119D01*
X69833659Y-44028119D01*
X69812268Y-44006598D01*
X69752268Y-43966598D01*
X69720829Y-43956750D01*
X70284240Y-43907544D01*
X70315860Y-43898333D01*
X70348522Y-43894162D01*
X71472610Y-43517473D01*
X74294837Y-43517473D01*
X74296149Y-43548776D01*
X74596149Y-44728776D01*
X74596919Y-44731576D01*
X74906919Y-45781576D01*
X74909729Y-45789469D01*
X75039729Y-46099469D01*
X75052091Y-46119528D01*
X75075922Y-46138155D01*
X75115922Y-46158155D01*
X75135056Y-46164720D01*
X75175248Y-46172758D01*
X75142524Y-46205482D01*
X75093296Y-46227111D01*
X75079400Y-46268606D01*
X74768748Y-46579258D01*
X74923536Y-46734046D01*
X74912831Y-46766012D01*
X74976986Y-46787496D01*
X75020198Y-46830708D01*
X75041729Y-46809177D01*
X75451731Y-46946477D01*
X75605004Y-46860635D01*
X75546313Y-46534000D01*
X75456647Y-46394259D01*
X75480701Y-46370205D01*
X75370504Y-46260008D01*
X75367091Y-46254689D01*
X75352461Y-46241965D01*
X75295924Y-46185428D01*
X75309530Y-46183655D01*
X75336647Y-46170253D01*
X75356414Y-46147358D01*
X75435136Y-46007407D01*
X75482908Y-46096126D01*
X75495379Y-46113132D01*
X75520354Y-46130197D01*
X75550000Y-46136200D01*
X75600000Y-46136200D01*
X75612527Y-46135163D01*
X75672527Y-46125163D01*
X75688300Y-46120750D01*
X75738300Y-46100750D01*
X75761074Y-46086550D01*
X75779051Y-46062224D01*
X75849051Y-45912224D01*
X75856131Y-45883240D01*
X75876131Y-45413240D01*
X75876078Y-45405694D01*
X75846078Y-44875694D01*
X75845235Y-44867909D01*
X75665235Y-43747909D01*
X75664174Y-43742547D01*
X75629474Y-43595069D01*
X76073969Y-43595069D01*
X76083969Y-43745069D01*
X76084594Y-43750968D01*
X76091520Y-43798579D01*
X76164594Y-44300968D01*
X76164987Y-44303395D01*
X76214987Y-44583395D01*
X76216268Y-44589235D01*
X76336268Y-45049235D01*
X76340630Y-45061532D01*
X76490630Y-45391532D01*
X76503495Y-45411124D01*
X76693495Y-45621124D01*
X76718468Y-45639370D01*
X76828468Y-45689370D01*
X76867582Y-45695822D01*
X76967582Y-45685822D01*
X76978481Y-45683925D01*
X77058481Y-45663925D01*
X77074437Y-45657974D01*
X77098170Y-45639221D01*
X77208170Y-45509221D01*
X77220750Y-45488300D01*
X77260750Y-45388300D01*
X77265567Y-45350200D01*
X77255801Y-45321572D01*
X77245049Y-45309518D01*
X77266386Y-45300455D01*
X77286252Y-45277645D01*
X77295678Y-45248903D01*
X77307072Y-45152053D01*
X77574215Y-45152053D01*
X77577095Y-45182164D01*
X77591462Y-45208782D01*
X77641462Y-45268782D01*
X77675903Y-45292290D01*
X77885903Y-45362290D01*
X77927453Y-45364174D01*
X78097453Y-45324174D01*
X78119333Y-45315263D01*
X78141626Y-45294819D01*
X78301626Y-45074819D01*
X78311816Y-45055473D01*
X78316069Y-45025525D01*
X78306069Y-44855525D01*
X78305872Y-44852942D01*
X78265872Y-44422942D01*
X78265464Y-44419435D01*
X78217226Y-44074877D01*
X78503956Y-44074877D01*
X78511845Y-44104078D01*
X78609247Y-44298882D01*
X78797468Y-44883358D01*
X78807112Y-44903029D01*
X78937112Y-45093029D01*
X78962642Y-45116414D01*
X79282642Y-45296414D01*
X79323805Y-45306105D01*
X79523805Y-45296105D01*
X79540050Y-45293515D01*
X79650050Y-45263515D01*
X79683882Y-45243882D01*
X79853882Y-45073882D01*
X79872290Y-45044097D01*
X79972290Y-44744097D01*
X79975887Y-44726899D01*
X80015887Y-44286899D01*
X80016148Y-44277180D01*
X80006148Y-44007180D01*
X80003925Y-43991519D01*
X79994046Y-43952003D01*
X79914174Y-43612547D01*
X79909968Y-43599818D01*
X79689968Y-43089818D01*
X79680738Y-43073986D01*
X79430738Y-42743986D01*
X79403128Y-42721378D01*
X79199729Y-42623185D01*
X79212036Y-42624402D01*
X79302283Y-42473680D01*
X79137506Y-41929777D01*
X78593603Y-42094554D01*
X78518307Y-42253274D01*
X78755235Y-42485653D01*
X78987929Y-42579405D01*
X78915247Y-42583948D01*
X78885922Y-42591845D01*
X78845922Y-42611845D01*
X78825834Y-42626404D01*
X78809250Y-42651700D01*
X78769250Y-42751700D01*
X78763807Y-42778996D01*
X78769419Y-42808718D01*
X78786153Y-42833916D01*
X78811371Y-42850618D01*
X79165995Y-42994385D01*
X79316648Y-43153899D01*
X79536761Y-43603696D01*
X79584722Y-43881869D01*
X79604092Y-44017456D01*
X79623578Y-44377946D01*
X79585600Y-44729238D01*
X79529017Y-44850487D01*
X79518401Y-44858449D01*
X79357764Y-44889047D01*
X79258646Y-44818248D01*
X79072859Y-44474542D01*
X79025093Y-44207053D01*
X79020523Y-44179635D01*
X79120960Y-44045720D01*
X79135969Y-44005927D01*
X79132290Y-43975903D01*
X79122290Y-43945903D01*
X79120750Y-43941700D01*
X79100750Y-43891700D01*
X79083596Y-43865834D01*
X79058300Y-43849250D01*
X78958300Y-43809250D01*
X78916758Y-43804959D01*
X78748645Y-43834626D01*
X78670549Y-43844388D01*
X78651327Y-43849401D01*
X78626118Y-43866118D01*
X78536118Y-43956118D01*
X78525632Y-43969217D01*
X78514837Y-43997473D01*
X78504837Y-44057473D01*
X78503956Y-44074877D01*
X78217226Y-44074877D01*
X78195464Y-43919435D01*
X78195377Y-43918833D01*
X78075377Y-43108833D01*
X78068155Y-43085922D01*
X78038155Y-43025922D01*
X78024621Y-43006868D01*
X77999646Y-42989803D01*
X77970000Y-42983800D01*
X77880000Y-42983800D01*
X77861599Y-42986055D01*
X77834280Y-42999040D01*
X77794280Y-43029040D01*
X77769803Y-43060354D01*
X77763800Y-43090000D01*
X77763800Y-43410000D01*
X77764566Y-43420776D01*
X77804566Y-43700776D01*
X77804660Y-43701415D01*
X77953964Y-44686819D01*
X77961804Y-44961239D01*
X77936198Y-44963800D01*
X77700000Y-44963800D01*
X77671963Y-44969145D01*
X77646606Y-44985636D01*
X77629662Y-45010692D01*
X77579662Y-45130692D01*
X77574215Y-45152053D01*
X77307072Y-45152053D01*
X77335678Y-44908903D01*
X77336052Y-44895247D01*
X77306052Y-44415247D01*
X77305073Y-44406944D01*
X77225073Y-43946944D01*
X77220116Y-43930163D01*
X77020116Y-43460163D01*
X77005318Y-43437594D01*
X76825318Y-43247594D01*
X76804078Y-43231845D01*
X76704078Y-43181845D01*
X76660549Y-43174388D01*
X76420549Y-43204388D01*
X76392194Y-43213840D01*
X76252194Y-43293840D01*
X76224910Y-43320380D01*
X76084910Y-43550380D01*
X76077987Y-43565089D01*
X76073969Y-43595069D01*
X75629474Y-43595069D01*
X75584174Y-43402547D01*
X75574179Y-43378920D01*
X75553140Y-43357188D01*
X75525304Y-43345353D01*
X75495056Y-43345280D01*
X75395056Y-43365280D01*
X75375378Y-43372119D01*
X75351697Y-43390937D01*
X75337202Y-43417486D01*
X75334178Y-43447582D01*
X75342728Y-43533081D01*
X75326732Y-43589066D01*
X75325390Y-43625485D01*
X75435085Y-44154017D01*
X75504527Y-44570667D01*
X75553924Y-44995481D01*
X75563322Y-45329106D01*
X75553925Y-45291519D01*
X75551416Y-45283426D01*
X75391416Y-44853426D01*
X75381537Y-44835060D01*
X75359205Y-44814659D01*
X75309205Y-44784659D01*
X75275927Y-44774031D01*
X75245903Y-44777710D01*
X75215903Y-44787710D01*
X75200795Y-44794659D01*
X75150795Y-44824659D01*
X75129090Y-44844214D01*
X75116075Y-44871519D01*
X75086075Y-44991519D01*
X75086075Y-45028481D01*
X75096075Y-45068481D01*
X75106598Y-45092268D01*
X75133800Y-45133071D01*
X75133800Y-45329820D01*
X74984121Y-44702320D01*
X74983268Y-44699066D01*
X74643268Y-43509066D01*
X74630149Y-43483218D01*
X74560149Y-43393218D01*
X74546558Y-43379677D01*
X74519421Y-43366316D01*
X74489224Y-43364566D01*
X74419224Y-43374566D01*
X74401700Y-43379250D01*
X74351700Y-43399250D01*
X74336570Y-43407388D01*
X74315632Y-43429217D01*
X74304837Y-43457473D01*
X74294837Y-43517473D01*
X71472610Y-43517473D01*
X72228523Y-43264162D01*
X72258738Y-43246875D01*
X72291104Y-43234063D01*
X73081104Y-42724063D01*
X73099584Y-42706158D01*
X73121375Y-42692469D01*
X73851375Y-42002469D01*
X73871014Y-41974798D01*
X73894548Y-41950351D01*
X73954201Y-41857292D01*
X79376767Y-41857292D01*
X79541544Y-42401195D01*
X79700264Y-42476491D01*
X79932643Y-42239563D01*
X80056664Y-41931742D01*
X80071392Y-41782762D01*
X79920670Y-41692515D01*
X79376767Y-41857292D01*
X73954201Y-41857292D01*
X74013333Y-41765046D01*
X78370396Y-41765046D01*
X78521118Y-41855293D01*
X79065021Y-41690516D01*
X78900244Y-41146613D01*
X78747450Y-41074128D01*
X79139505Y-41074128D01*
X79304282Y-41618031D01*
X79848185Y-41453254D01*
X79923481Y-41294534D01*
X79686553Y-41062155D01*
X79378732Y-40938134D01*
X79229752Y-40923406D01*
X79139505Y-41074128D01*
X78747450Y-41074128D01*
X78741524Y-41071317D01*
X78509145Y-41308245D01*
X78385124Y-41616066D01*
X78370396Y-41765046D01*
X74013333Y-41765046D01*
X75144548Y-40000351D01*
X75153607Y-39977248D01*
X75167393Y-39956616D01*
X75173257Y-39927134D01*
X75184231Y-39899148D01*
X75183759Y-39874337D01*
X75188600Y-39850000D01*
X75182736Y-39820517D01*
X75182164Y-39790464D01*
X75172234Y-39767724D01*
X75167393Y-39743384D01*
X75150693Y-39718390D01*
X75138664Y-39690843D01*
X75120786Y-39673632D01*
X75107000Y-39653000D01*
X75082007Y-39636300D01*
X75060351Y-39615452D01*
X75037248Y-39606393D01*
X75016616Y-39592607D01*
X74987136Y-39586743D01*
X74959149Y-39575769D01*
X74934337Y-39576241D01*
X74910000Y-39571400D01*
X68288600Y-39571400D01*
X68288600Y-36116940D01*
X80061262Y-36116940D01*
X80368375Y-36242705D01*
X80700238Y-36241369D01*
X80843757Y-36198777D01*
X80870441Y-36025140D01*
X80512561Y-35583661D01*
X80071082Y-35941540D01*
X80061262Y-36116940D01*
X68288600Y-36116940D01*
X68288600Y-35755692D01*
X71508261Y-35755692D01*
X71516739Y-35931162D01*
X71835267Y-36024300D01*
X72165191Y-35988452D01*
X72303501Y-35931162D01*
X72311979Y-35755692D01*
X71910120Y-35353833D01*
X71508261Y-35755692D01*
X68288600Y-35755692D01*
X68288600Y-35102203D01*
X71062876Y-35102203D01*
X71098724Y-35432127D01*
X71156014Y-35570437D01*
X71331484Y-35578915D01*
X71733343Y-35177056D01*
X72086897Y-35177056D01*
X72488756Y-35578915D01*
X72664226Y-35570437D01*
X72757364Y-35251909D01*
X72756643Y-35245269D01*
X79696087Y-35245269D01*
X79697423Y-35577132D01*
X79740015Y-35720651D01*
X79913652Y-35747335D01*
X80309764Y-35426231D01*
X80706767Y-35426231D01*
X81064646Y-35867710D01*
X81240046Y-35877530D01*
X81365811Y-35570417D01*
X81364475Y-35238554D01*
X81321883Y-35095035D01*
X81148246Y-35068351D01*
X80706767Y-35426231D01*
X80309764Y-35426231D01*
X80355131Y-35389455D01*
X79997252Y-34947976D01*
X79821852Y-34938156D01*
X79696087Y-35245269D01*
X72756643Y-35245269D01*
X72721516Y-34921985D01*
X72667073Y-34790546D01*
X80191457Y-34790546D01*
X80549337Y-35232025D01*
X80990816Y-34874146D01*
X81000636Y-34698746D01*
X80693523Y-34572981D01*
X80361660Y-34574317D01*
X80218141Y-34616909D01*
X80191457Y-34790546D01*
X72667073Y-34790546D01*
X72664226Y-34783675D01*
X72488756Y-34775197D01*
X72086897Y-35177056D01*
X71733343Y-35177056D01*
X71331484Y-34775197D01*
X71156014Y-34783675D01*
X71062876Y-35102203D01*
X68288600Y-35102203D01*
X68288600Y-34598420D01*
X71508261Y-34598420D01*
X71910120Y-35000279D01*
X72311979Y-34598420D01*
X72303501Y-34422950D01*
X71984973Y-34329812D01*
X71655049Y-34365660D01*
X71516739Y-34422950D01*
X71508261Y-34598420D01*
X68288600Y-34598420D01*
X68288600Y-32948600D01*
X83072553Y-32948600D01*
X83091328Y-37473307D01*
X82806118Y-39764823D01*
X82157168Y-42075476D01*
X81136149Y-44382589D01*
X80711592Y-44990477D01*
X80699431Y-45018205D01*
X80682607Y-45043384D01*
X80677809Y-45067505D01*
X80667931Y-45090028D01*
X80667307Y-45120303D01*
X80661400Y-45150000D01*
X80666198Y-45174120D01*
X80665691Y-45198709D01*
X80676700Y-45226918D01*
X80682607Y-45256616D01*
X80696269Y-45277063D01*
X80705211Y-45299975D01*
X80726178Y-45321824D01*
X80743000Y-45347000D01*
X80763449Y-45360664D01*
X80780477Y-45378408D01*
X80808205Y-45390569D01*
X80833384Y-45407393D01*
X80857505Y-45412191D01*
X80880028Y-45422069D01*
X80910303Y-45422693D01*
X80940000Y-45428600D01*
X83234486Y-45428600D01*
X83173430Y-45576002D01*
X83173430Y-45868357D01*
X83319480Y-46014407D01*
X83889710Y-46014407D01*
X83858218Y-46130540D01*
X83889012Y-46370007D01*
X83319480Y-46370007D01*
X83173430Y-46516057D01*
X83173430Y-46808412D01*
X83262369Y-47023130D01*
X83426708Y-47187468D01*
X83641426Y-47276407D01*
X85433780Y-47276407D01*
X85579830Y-47130357D01*
X85579830Y-46538605D01*
X85657042Y-46253874D01*
X85623676Y-45994407D01*
X85935430Y-45994407D01*
X85935430Y-46014407D01*
X85955430Y-46014407D01*
X85955430Y-46370007D01*
X85935430Y-46370007D01*
X85935430Y-47130357D01*
X86081480Y-47276407D01*
X87791400Y-47276407D01*
X87791400Y-47465968D01*
X87757630Y-47459129D01*
X83757630Y-47459129D01*
X83672916Y-47475069D01*
X83595112Y-47525135D01*
X83542915Y-47601527D01*
X83524552Y-47692207D01*
X83524552Y-48692207D01*
X83540492Y-48776921D01*
X83590558Y-48854725D01*
X83666950Y-48906922D01*
X83757630Y-48925285D01*
X87757630Y-48925285D01*
X87791400Y-48918931D01*
X87791400Y-49108007D01*
X86081480Y-49108007D01*
X85935430Y-49254057D01*
X85935430Y-50014407D01*
X85955430Y-50014407D01*
X85955430Y-50370007D01*
X85935430Y-50370007D01*
X85935430Y-50390007D01*
X85620126Y-50390007D01*
X85657042Y-50253874D01*
X85612177Y-49904990D01*
X85579830Y-49826897D01*
X85579830Y-49254057D01*
X85433780Y-49108007D01*
X83641426Y-49108007D01*
X83426708Y-49196946D01*
X83262369Y-49361284D01*
X83173430Y-49576002D01*
X83173430Y-49868357D01*
X83319480Y-50014407D01*
X83889710Y-50014407D01*
X83858218Y-50130540D01*
X83889012Y-50370007D01*
X83319480Y-50370007D01*
X83173430Y-50516057D01*
X83173430Y-50808412D01*
X83199520Y-50871400D01*
X71610000Y-50871400D01*
X71586077Y-50876158D01*
X71561694Y-50875620D01*
X70157601Y-51122820D01*
X67973746Y-51250703D01*
X66558200Y-51129636D01*
X66627818Y-51107330D01*
X66805159Y-50957115D01*
X66911515Y-50750470D01*
X67167760Y-50252597D01*
X67104737Y-50055902D01*
X66535373Y-49762861D01*
X65958604Y-50883495D01*
X66021628Y-51080190D01*
X66029913Y-51084454D01*
X64979747Y-50994637D01*
X64574887Y-50881654D01*
X64537138Y-50878787D01*
X64500000Y-50871400D01*
X51578950Y-50871400D01*
X51605040Y-50808412D01*
X51605040Y-50516057D01*
X51458990Y-50370007D01*
X50888760Y-50370007D01*
X50907117Y-50302310D01*
X64829390Y-50302310D01*
X64892414Y-50499005D01*
X65045662Y-50577880D01*
X65195380Y-50590278D01*
X65292480Y-50704912D01*
X65445728Y-50783786D01*
X65642424Y-50720763D01*
X66219193Y-49600129D01*
X65921052Y-49446681D01*
X66698105Y-49446681D01*
X67267469Y-49739722D01*
X67464165Y-49676698D01*
X67608651Y-49395967D01*
X67815494Y-49395967D01*
X68124235Y-49517681D01*
X68456052Y-49511979D01*
X68598998Y-49467502D01*
X68623395Y-49293529D01*
X68259738Y-48856796D01*
X67823005Y-49220453D01*
X67815494Y-49395967D01*
X67608651Y-49395967D01*
X67720410Y-49178826D01*
X67826766Y-48972181D01*
X67833898Y-48886062D01*
X68061161Y-48696825D01*
X68451855Y-48696825D01*
X68815512Y-49133558D01*
X68991026Y-49141069D01*
X69112740Y-48832328D01*
X69107038Y-48500511D01*
X69062561Y-48357565D01*
X68888588Y-48333168D01*
X68451855Y-48696825D01*
X68061161Y-48696825D01*
X68099767Y-48664679D01*
X67736110Y-48227946D01*
X67560596Y-48220435D01*
X67531622Y-48293932D01*
X67471570Y-48263024D01*
X67274874Y-48326047D01*
X66698105Y-49446681D01*
X65921052Y-49446681D01*
X65649829Y-49307088D01*
X65406159Y-49181676D01*
X64829390Y-50302310D01*
X50907117Y-50302310D01*
X50920252Y-50253874D01*
X50889458Y-50014407D01*
X51458990Y-50014407D01*
X51605040Y-49868357D01*
X51605040Y-49721125D01*
X63700177Y-49721125D01*
X63763201Y-49917820D01*
X63916449Y-49996695D01*
X64066166Y-50009093D01*
X64163266Y-50123727D01*
X64316514Y-50202601D01*
X64513210Y-50139578D01*
X65089979Y-49018944D01*
X64770910Y-48854725D01*
X64276946Y-48600491D01*
X63700177Y-49721125D01*
X51605040Y-49721125D01*
X51605040Y-49576002D01*
X51516101Y-49361284D01*
X51351762Y-49196946D01*
X51214138Y-49139940D01*
X62570963Y-49139940D01*
X62633987Y-49336635D01*
X62787235Y-49415510D01*
X62936953Y-49427908D01*
X63034053Y-49542542D01*
X63187301Y-49621416D01*
X63383997Y-49558393D01*
X63960766Y-48437759D01*
X63391402Y-48144718D01*
X63147732Y-48019306D01*
X62570963Y-49139940D01*
X51214138Y-49139940D01*
X51137044Y-49108007D01*
X49344690Y-49108007D01*
X49198640Y-49254057D01*
X49198640Y-49845809D01*
X49121428Y-50130540D01*
X49154794Y-50390007D01*
X48843040Y-50390007D01*
X48843040Y-50370007D01*
X48823040Y-50370007D01*
X48823040Y-50014407D01*
X48843040Y-50014407D01*
X48843040Y-49254057D01*
X48696990Y-49108007D01*
X46908600Y-49108007D01*
X46908600Y-48892191D01*
X46930160Y-48906922D01*
X47020840Y-48925285D01*
X51020840Y-48925285D01*
X51105554Y-48909345D01*
X51183358Y-48859279D01*
X51235555Y-48782887D01*
X51253918Y-48692207D01*
X51253918Y-47692207D01*
X51237978Y-47607493D01*
X51187912Y-47529689D01*
X51111520Y-47477492D01*
X51020840Y-47459129D01*
X47020840Y-47459129D01*
X46936126Y-47475069D01*
X46908600Y-47492782D01*
X46908600Y-47276407D01*
X48696990Y-47276407D01*
X48843040Y-47130357D01*
X48843040Y-46370007D01*
X48823040Y-46370007D01*
X48823040Y-46014407D01*
X48843040Y-46014407D01*
X48843040Y-45994407D01*
X49158344Y-45994407D01*
X49121428Y-46130540D01*
X49166293Y-46479424D01*
X49198640Y-46557517D01*
X49198640Y-47130357D01*
X49344690Y-47276407D01*
X51137044Y-47276407D01*
X51286269Y-47214596D01*
X61026595Y-47214596D01*
X61177107Y-47305193D01*
X61721391Y-47141678D01*
X61557876Y-46597394D01*
X61399331Y-46521730D01*
X61166403Y-46758118D01*
X61041668Y-47065651D01*
X61026595Y-47214596D01*
X51286269Y-47214596D01*
X51351762Y-47187468D01*
X51516101Y-47023130D01*
X51605040Y-46808412D01*
X51605040Y-46516057D01*
X51458990Y-46370007D01*
X50888760Y-46370007D01*
X50920252Y-46253874D01*
X50889458Y-46014407D01*
X51458990Y-46014407D01*
X51605040Y-45868357D01*
X51605040Y-45576002D01*
X51543984Y-45428600D01*
X54520000Y-45428600D01*
X54565430Y-45419564D01*
X54611317Y-45413210D01*
X54618477Y-45409012D01*
X54626616Y-45407393D01*
X54665132Y-45381657D01*
X54705092Y-45358228D01*
X54710100Y-45351611D01*
X54717000Y-45347000D01*
X54742738Y-45308481D01*
X54770688Y-45271546D01*
X54772782Y-45263517D01*
X54777393Y-45256616D01*
X54786431Y-45211179D01*
X54798119Y-45166360D01*
X54796981Y-45158140D01*
X54798600Y-45150000D01*
X54789564Y-45104570D01*
X54783210Y-45058683D01*
X54779012Y-45051523D01*
X54777393Y-45043384D01*
X54751657Y-45004868D01*
X54728228Y-44964908D01*
X54666482Y-44895444D01*
X53378395Y-42697210D01*
X55966001Y-42697210D01*
X56026097Y-43023589D01*
X56114413Y-43159930D01*
X56090364Y-43183979D01*
X56202861Y-43296476D01*
X56206520Y-43302125D01*
X56220961Y-43314576D01*
X56341814Y-43435429D01*
X56370353Y-43406890D01*
X56717831Y-43406890D01*
X56804333Y-43559792D01*
X57130712Y-43499696D01*
X57267053Y-43411380D01*
X57291102Y-43435429D01*
X57403599Y-43322932D01*
X57409248Y-43319273D01*
X57421699Y-43304832D01*
X57542552Y-43183979D01*
X57461026Y-43102453D01*
X57435648Y-43045362D01*
X57388308Y-43029735D01*
X57082049Y-42723476D01*
X56927802Y-42877723D01*
X56895976Y-42867218D01*
X56875117Y-42930408D01*
X56830599Y-42974926D01*
X56853020Y-42997347D01*
X56717831Y-43406890D01*
X56370353Y-43406890D01*
X56423340Y-43353903D01*
X56480431Y-43328525D01*
X56496058Y-43281185D01*
X56802317Y-42974926D01*
X56648070Y-42820679D01*
X56658575Y-42788853D01*
X56595385Y-42767994D01*
X56550867Y-42723476D01*
X56528446Y-42745897D01*
X56118903Y-42610708D01*
X55966001Y-42697210D01*
X53378395Y-42697210D01*
X53107375Y-42234691D01*
X56090364Y-42234691D01*
X56171890Y-42316217D01*
X56197268Y-42373308D01*
X56244608Y-42388935D01*
X56550867Y-42695194D01*
X56705114Y-42540947D01*
X56736940Y-42551452D01*
X56757799Y-42488262D01*
X56802317Y-42443744D01*
X56830599Y-42443744D01*
X56984846Y-42597991D01*
X56974341Y-42629817D01*
X57037531Y-42650676D01*
X57082049Y-42695194D01*
X57104470Y-42672773D01*
X57514013Y-42807962D01*
X57666915Y-42721460D01*
X57606819Y-42395081D01*
X57518503Y-42258740D01*
X57542552Y-42234691D01*
X57430055Y-42122194D01*
X57426396Y-42116545D01*
X57411955Y-42104094D01*
X57291102Y-41983241D01*
X57209576Y-42064767D01*
X57152485Y-42090145D01*
X57136858Y-42137485D01*
X56830599Y-42443744D01*
X56802317Y-42443744D01*
X56779896Y-42421323D01*
X56915085Y-42011780D01*
X56828583Y-41858878D01*
X56502204Y-41918974D01*
X56365863Y-42007290D01*
X56341814Y-41983241D01*
X56229317Y-42095738D01*
X56223668Y-42099397D01*
X56211217Y-42113838D01*
X56090364Y-42234691D01*
X53107375Y-42234691D01*
X53021606Y-42088319D01*
X52405680Y-40504511D01*
X51963608Y-38785341D01*
X51721333Y-37098382D01*
X54452568Y-37098382D01*
X54476070Y-37272478D01*
X54801415Y-37337942D01*
X55127047Y-37273918D01*
X55259931Y-37204972D01*
X55253322Y-37029422D01*
X54818465Y-36663525D01*
X54452568Y-37098382D01*
X51721333Y-37098382D01*
X51697715Y-36933931D01*
X51677737Y-36485518D01*
X53952755Y-36485518D01*
X54016779Y-36811150D01*
X54085725Y-36944034D01*
X54261275Y-36937425D01*
X54627172Y-36502568D01*
X54591119Y-36472232D01*
X54979422Y-36472232D01*
X55414279Y-36838129D01*
X55588375Y-36814627D01*
X55653839Y-36489282D01*
X55589815Y-36163650D01*
X55520869Y-36030766D01*
X55345319Y-36037375D01*
X54979422Y-36472232D01*
X54591119Y-36472232D01*
X54192315Y-36136671D01*
X54018219Y-36160173D01*
X53952755Y-36485518D01*
X51677737Y-36485518D01*
X51645850Y-35769828D01*
X54346663Y-35769828D01*
X54353272Y-35945378D01*
X54788129Y-36311275D01*
X55154026Y-35876418D01*
X55130524Y-35702322D01*
X54805179Y-35636858D01*
X54479547Y-35700882D01*
X54346663Y-35769828D01*
X51645850Y-35769828D01*
X51608877Y-34940000D01*
X51697715Y-32946069D01*
X51963635Y-31094471D01*
X52169688Y-30288572D01*
X54829544Y-30288572D01*
X55072323Y-30514831D01*
X55383208Y-30630958D01*
X55532515Y-30641880D01*
X55618888Y-30488905D01*
X55440288Y-29949383D01*
X54900766Y-30127983D01*
X54829544Y-30288572D01*
X52169688Y-30288572D01*
X52293514Y-29804276D01*
X54669225Y-29804276D01*
X54822200Y-29890649D01*
X54882109Y-29870817D01*
X55677622Y-29870817D01*
X55856222Y-30410339D01*
X56016811Y-30481561D01*
X56243070Y-30238782D01*
X56359197Y-29927897D01*
X56370119Y-29778590D01*
X56217144Y-29692217D01*
X55677622Y-29870817D01*
X54882109Y-29870817D01*
X55361722Y-29712049D01*
X55183122Y-29172527D01*
X55022533Y-29101305D01*
X54796274Y-29344084D01*
X54680147Y-29654969D01*
X54669225Y-29804276D01*
X52293514Y-29804276D01*
X52405679Y-29365588D01*
X52511967Y-29093961D01*
X55420456Y-29093961D01*
X55599056Y-29633483D01*
X56138578Y-29454883D01*
X56209800Y-29294294D01*
X55967021Y-29068035D01*
X55656136Y-28951908D01*
X55506829Y-28940986D01*
X55420456Y-29093961D01*
X52511967Y-29093961D01*
X53021456Y-27791936D01*
X54669886Y-24978748D01*
X54987489Y-24584919D01*
X58454327Y-24584919D01*
X58591149Y-24887268D01*
X58833260Y-25114242D01*
X58966822Y-25181864D01*
X59081087Y-25092972D01*
X59354759Y-25092972D01*
X59475493Y-25220585D01*
X59777842Y-25083763D01*
X60004816Y-24841652D01*
X60072438Y-24708090D01*
X59964570Y-24569432D01*
X59397895Y-24526296D01*
X59354759Y-25092972D01*
X59081087Y-25092972D01*
X59105480Y-25073996D01*
X59148616Y-24507321D01*
X58581940Y-24464185D01*
X58454327Y-24584919D01*
X54987489Y-24584919D01*
X55235796Y-24277017D01*
X59416870Y-24277017D01*
X59983546Y-24320153D01*
X60111159Y-24199419D01*
X60072195Y-24113315D01*
X72916585Y-24113315D01*
X72933170Y-24204337D01*
X74268601Y-27547483D01*
X74314828Y-27620240D01*
X74390184Y-27673921D01*
X74480488Y-27694055D01*
X74571510Y-27677470D01*
X77357465Y-26564610D01*
X77430222Y-26518383D01*
X77483903Y-26443027D01*
X77504037Y-26352723D01*
X77487452Y-26261701D01*
X77448644Y-26164547D01*
X77614125Y-26164547D01*
X77721519Y-26303573D01*
X78036014Y-26197610D01*
X78286019Y-25979361D01*
X78366634Y-25853215D01*
X78273143Y-25704483D01*
X77713602Y-25605006D01*
X77614125Y-26164547D01*
X77448644Y-26164547D01*
X77387443Y-26011337D01*
X77403630Y-25920288D01*
X77598271Y-25725647D01*
X77462391Y-25589767D01*
X77467462Y-25561246D01*
X77426607Y-25553983D01*
X77346821Y-25474197D01*
X77291122Y-25529896D01*
X77187792Y-25511525D01*
X77078609Y-25238195D01*
X77152181Y-25251275D01*
X77346821Y-25445915D01*
X77433870Y-25358866D01*
X77757362Y-25358866D01*
X78316903Y-25458343D01*
X78455929Y-25350949D01*
X78349966Y-25036454D01*
X78131717Y-24786449D01*
X78005571Y-24705834D01*
X77856839Y-24799325D01*
X77757362Y-25358866D01*
X77433870Y-25358866D01*
X77482701Y-25310035D01*
X77511222Y-25315106D01*
X77518485Y-25274251D01*
X77598271Y-25194465D01*
X77542572Y-25138766D01*
X77610699Y-24755565D01*
X77503305Y-24616539D01*
X77448643Y-24634956D01*
X77453265Y-24623825D01*
X77453432Y-24433426D01*
X77380723Y-24257457D01*
X77246208Y-24122708D01*
X77070366Y-24049692D01*
X76879967Y-24049525D01*
X76703998Y-24122234D01*
X76653122Y-24173022D01*
X76152021Y-22918555D01*
X76105794Y-22845798D01*
X76030438Y-22792117D01*
X75940134Y-22771983D01*
X75849112Y-22788568D01*
X73063157Y-23901428D01*
X72990400Y-23947655D01*
X72936719Y-24023011D01*
X72916585Y-24113315D01*
X60072195Y-24113315D01*
X59974337Y-23897070D01*
X59732226Y-23670096D01*
X59598664Y-23602474D01*
X59460006Y-23710342D01*
X59416870Y-24277017D01*
X55235796Y-24277017D01*
X55397707Y-24076248D01*
X58493048Y-24076248D01*
X58600916Y-24214906D01*
X59167591Y-24258042D01*
X59210727Y-23691366D01*
X59089993Y-23563753D01*
X58787644Y-23700575D01*
X58560670Y-23942686D01*
X58493048Y-24076248D01*
X55397707Y-24076248D01*
X55646345Y-23767938D01*
X56749947Y-22693636D01*
X57319422Y-22280088D01*
X71380776Y-22280088D01*
X71637789Y-22490040D01*
X71955583Y-22585654D01*
X72105284Y-22586820D01*
X72181501Y-22428540D01*
X71968111Y-21901808D01*
X71441379Y-22115198D01*
X71380776Y-22280088D01*
X57319422Y-22280088D01*
X57659800Y-22032909D01*
X65060052Y-22032909D01*
X65084829Y-22206827D01*
X65410645Y-22269907D01*
X65735798Y-22203500D01*
X65868174Y-22133583D01*
X65860280Y-21958085D01*
X65678357Y-21807273D01*
X71189229Y-21807273D01*
X71347509Y-21883490D01*
X71534001Y-21807938D01*
X72199819Y-21807938D01*
X72413209Y-22334670D01*
X72578099Y-22395273D01*
X72788051Y-22138260D01*
X72883665Y-21820466D01*
X72884831Y-21670765D01*
X72726551Y-21594548D01*
X72199819Y-21807938D01*
X71534001Y-21807938D01*
X71874241Y-21670100D01*
X71660851Y-21143368D01*
X71495961Y-21082765D01*
X71286009Y-21339778D01*
X71190395Y-21657572D01*
X71189229Y-21807273D01*
X65678357Y-21807273D01*
X65422754Y-21595383D01*
X65060052Y-22032909D01*
X57659800Y-22032909D01*
X58498680Y-21423722D01*
X64555764Y-21423722D01*
X64622171Y-21748875D01*
X64692088Y-21881251D01*
X64867586Y-21873357D01*
X65230288Y-21435831D01*
X65190584Y-21402917D01*
X65582306Y-21402917D01*
X66019832Y-21765619D01*
X66193750Y-21740842D01*
X66256830Y-21415026D01*
X66190423Y-21089873D01*
X66169099Y-21049498D01*
X71892559Y-21049498D01*
X72105949Y-21576230D01*
X72632681Y-21362840D01*
X72693284Y-21197950D01*
X72436271Y-20987998D01*
X72118477Y-20892384D01*
X71968776Y-20891218D01*
X71892559Y-21049498D01*
X66169099Y-21049498D01*
X66120506Y-20957497D01*
X65945008Y-20965391D01*
X65582306Y-21402917D01*
X65190584Y-21402917D01*
X64792762Y-21073129D01*
X64618844Y-21097906D01*
X64555764Y-21423722D01*
X58498680Y-21423722D01*
X59231372Y-20891648D01*
X59637330Y-20705165D01*
X64944420Y-20705165D01*
X64952314Y-20880663D01*
X65389840Y-21243365D01*
X65752542Y-20805839D01*
X65727765Y-20631921D01*
X65401949Y-20568841D01*
X65076796Y-20635248D01*
X64944420Y-20705165D01*
X59637330Y-20705165D01*
X62013928Y-19613441D01*
X64967221Y-18845585D01*
X67972731Y-18589377D01*
X70371969Y-18746705D01*
X70371969Y-18746705D01*
G37*
X70371969Y-18746705D02*
X72752958Y-19248483D01*
X75032469Y-20083649D01*
X77120507Y-21269811D01*
X78981028Y-22826774D01*
X80566778Y-24764911D01*
X81800503Y-27095280D01*
X82508481Y-29521400D01*
X74880733Y-29521400D01*
X73793203Y-27857571D01*
X73763333Y-27827090D01*
X73736180Y-27794180D01*
X72266180Y-26594179D01*
X72225671Y-26572662D01*
X72186577Y-26548675D01*
X70346577Y-25868675D01*
X70311127Y-25863039D01*
X70276758Y-25852688D01*
X67996758Y-25632688D01*
X67970560Y-25635321D01*
X67944369Y-25632581D01*
X66104369Y-25802582D01*
X66073670Y-25811692D01*
X66041899Y-25815697D01*
X64421899Y-26355697D01*
X64393997Y-26371602D01*
X64363890Y-26382787D01*
X62983891Y-27232787D01*
X62961853Y-27253252D01*
X62936549Y-27269514D01*
X61796549Y-28369514D01*
X61779955Y-28393413D01*
X61759264Y-28413863D01*
X60859264Y-29743863D01*
X60848659Y-29769047D01*
X60833327Y-29791664D01*
X60183327Y-31331664D01*
X60178575Y-31354744D01*
X60168806Y-31376190D01*
X59768806Y-33076190D01*
X59768032Y-33098453D01*
X59762124Y-33119931D01*
X59632124Y-34919931D01*
X59634636Y-34940042D01*
X59632130Y-34960156D01*
X59772130Y-36890156D01*
X59778494Y-36913264D01*
X59779627Y-36937203D01*
X60209626Y-38667202D01*
X60220968Y-38691296D01*
X60227239Y-38717174D01*
X60853110Y-40067268D01*
X56619647Y-34309987D01*
X57298843Y-34038680D01*
X57371600Y-33992453D01*
X57425281Y-33917097D01*
X57445415Y-33826793D01*
X57428830Y-33735771D01*
X56464352Y-31321277D01*
X56418125Y-31248520D01*
X56342769Y-31194839D01*
X56252465Y-31174705D01*
X56161443Y-31191290D01*
X53375489Y-32304150D01*
X53302732Y-32350377D01*
X53249051Y-32425733D01*
X53228917Y-32516037D01*
X53245502Y-32607059D01*
X54209980Y-35021553D01*
X54256207Y-35094310D01*
X54331563Y-35147991D01*
X54421867Y-35168125D01*
X54512889Y-35151540D01*
X55937297Y-34582555D01*
X61330385Y-41916864D01*
X61239486Y-41925659D01*
X61158117Y-41969696D01*
X61100292Y-42041920D01*
X60825716Y-42575407D01*
X60801122Y-42658025D01*
X60810032Y-42750116D01*
X60854069Y-42831485D01*
X60926293Y-42889310D01*
X61726523Y-43301173D01*
X61809141Y-43325767D01*
X61901232Y-43316857D01*
X61919970Y-43306716D01*
X61921463Y-43322148D01*
X61965500Y-43403517D01*
X62037724Y-43461342D01*
X62837954Y-43873205D01*
X62920572Y-43897799D01*
X63012663Y-43888889D01*
X63031401Y-43878748D01*
X63032894Y-43894181D01*
X63076931Y-43975550D01*
X63149155Y-44033375D01*
X63949385Y-44445238D01*
X64032003Y-44469832D01*
X64087880Y-44464426D01*
X63846846Y-44932742D01*
X63823072Y-44888813D01*
X63750848Y-44830988D01*
X62950618Y-44419125D01*
X62868000Y-44394531D01*
X62775909Y-44403441D01*
X62757171Y-44413582D01*
X62755678Y-44398149D01*
X62711641Y-44316780D01*
X62639417Y-44258955D01*
X61839187Y-43847092D01*
X61756569Y-43822498D01*
X61664478Y-43831408D01*
X61645740Y-43841549D01*
X61644247Y-43826117D01*
X61600210Y-43744748D01*
X61527986Y-43686923D01*
X60727756Y-43275060D01*
X60645138Y-43250466D01*
X60553047Y-43259376D01*
X60471678Y-43303413D01*
X60413853Y-43375637D01*
X60139277Y-43909124D01*
X60114683Y-43991742D01*
X60123593Y-44083833D01*
X60167630Y-44165202D01*
X60239854Y-44223027D01*
X60343814Y-44276533D01*
X60130139Y-44691694D01*
X60130137Y-44691700D01*
X60061496Y-44825067D01*
X60036902Y-44907684D01*
X60045812Y-44999775D01*
X60089849Y-45081144D01*
X60162073Y-45138969D01*
X62679064Y-46434417D01*
X62618142Y-46552785D01*
X62539008Y-46706540D01*
X62344379Y-46514760D01*
X62036846Y-46390025D01*
X61887901Y-46374952D01*
X61797304Y-46525464D01*
X61960819Y-47069748D01*
X62423633Y-46930709D01*
X62361897Y-47050658D01*
X62408554Y-47196276D01*
X62356227Y-47211996D01*
X62295061Y-47180515D01*
X62264708Y-47239491D01*
X62170797Y-47267704D01*
X62142661Y-47239568D01*
X62090361Y-47291868D01*
X62032749Y-47309176D01*
X62042060Y-47340169D01*
X61891211Y-47491018D01*
X62052328Y-47652135D01*
X61940196Y-47870001D01*
X61793321Y-47381106D01*
X61249037Y-47544621D01*
X61173373Y-47703166D01*
X61409761Y-47936094D01*
X61717294Y-48060829D01*
X61835808Y-48072822D01*
X61809247Y-48124429D01*
X61702891Y-48331074D01*
X61683710Y-48562690D01*
X61754624Y-48784017D01*
X61904839Y-48961357D01*
X62058087Y-49040231D01*
X62254783Y-48977208D01*
X62831552Y-47856574D01*
X62813769Y-47847421D01*
X62976501Y-47531242D01*
X62994284Y-47540394D01*
X63003437Y-47522611D01*
X63319616Y-47685343D01*
X63310464Y-47703126D01*
X63879828Y-47996167D01*
X64123498Y-48121579D01*
X64132651Y-48103796D01*
X64448830Y-48266528D01*
X64439678Y-48284311D01*
X64683347Y-48409723D01*
X65252711Y-48702764D01*
X65261864Y-48684981D01*
X65578043Y-48847713D01*
X65568891Y-48865496D01*
X66138255Y-49158537D01*
X66381925Y-49283949D01*
X66958694Y-48163315D01*
X66895670Y-47966620D01*
X66742422Y-47887745D01*
X66592704Y-47875347D01*
X66495604Y-47760713D01*
X66408356Y-47715808D01*
X66585056Y-47372489D01*
X66650042Y-47391834D01*
X66742133Y-47382924D01*
X66823502Y-47338887D01*
X66881327Y-47266663D01*
X66933413Y-47165463D01*
X66978239Y-47196026D01*
X66929202Y-47291302D01*
X66904608Y-47373920D01*
X66913518Y-47466011D01*
X66957555Y-47547380D01*
X67029780Y-47605205D01*
X67687748Y-47943848D01*
X67770365Y-47968442D01*
X67862456Y-47959532D01*
X67943825Y-47915495D01*
X67950838Y-47906735D01*
X67928227Y-48067975D01*
X68291884Y-48504708D01*
X68728617Y-48141051D01*
X68736128Y-47965537D01*
X68427387Y-47843823D01*
X68095570Y-47849525D01*
X67963823Y-47890518D01*
X68001650Y-47843271D01*
X68523643Y-46829063D01*
X73904210Y-46829063D01*
X73962901Y-47155698D01*
X74052567Y-47295439D01*
X74028513Y-47319493D01*
X74138710Y-47429690D01*
X74142123Y-47435009D01*
X74156753Y-47447733D01*
X74279963Y-47570943D01*
X74308933Y-47541973D01*
X74652979Y-47541973D01*
X74738821Y-47695246D01*
X75065456Y-47636555D01*
X75205197Y-47546889D01*
X75229251Y-47570943D01*
X75339448Y-47460746D01*
X75344767Y-47457333D01*
X75357491Y-47442703D01*
X75480701Y-47319493D01*
X75393975Y-47232767D01*
X75372345Y-47183538D01*
X75330850Y-47169642D01*
X75020198Y-46858990D01*
X74865410Y-47013778D01*
X74833444Y-47003073D01*
X74811960Y-47067228D01*
X74768748Y-47110440D01*
X74790279Y-47131971D01*
X74652979Y-47541973D01*
X74308933Y-47541973D01*
X74366689Y-47484217D01*
X74415918Y-47462587D01*
X74429814Y-47421092D01*
X74740466Y-47110440D01*
X74585678Y-46955652D01*
X74596383Y-46923686D01*
X74532228Y-46902202D01*
X74489016Y-46858990D01*
X74467485Y-46880521D01*
X74057483Y-46743221D01*
X73904210Y-46829063D01*
X68523643Y-46829063D01*
X68659872Y-46564378D01*
X68682527Y-46565163D01*
X68742527Y-46555163D01*
X68764078Y-46548155D01*
X68824078Y-46518155D01*
X68843132Y-46504621D01*
X68860197Y-46479646D01*
X68866200Y-46450000D01*
X68866200Y-46360000D01*
X68864239Y-46342825D01*
X68836225Y-46221733D01*
X68916902Y-46064982D01*
X68941496Y-45982364D01*
X68932586Y-45890273D01*
X68888549Y-45808904D01*
X68816324Y-45751079D01*
X68715316Y-45699092D01*
X68554239Y-45002825D01*
X68553364Y-44999406D01*
X68418794Y-44520000D01*
X68603800Y-44520000D01*
X68603800Y-44740000D01*
X68606373Y-44759634D01*
X68646373Y-44909634D01*
X68653763Y-44927671D01*
X68673638Y-44950473D01*
X68973638Y-45180473D01*
X68994190Y-45191696D01*
X69206213Y-45268024D01*
X69296188Y-45618926D01*
X69301845Y-45634078D01*
X69332735Y-45695858D01*
X69323931Y-45845525D01*
X69324740Y-45861931D01*
X69454740Y-46681931D01*
X69457710Y-46694097D01*
X69477710Y-46754097D01*
X69495379Y-46783132D01*
X69520354Y-46800197D01*
X69550000Y-46806200D01*
X69610000Y-46806200D01*
X69624944Y-46804720D01*
X69724944Y-46784720D01*
X69744719Y-46777831D01*
X69768374Y-46758979D01*
X69782830Y-46732410D01*
X69785811Y-46702309D01*
X69716058Y-46014740D01*
X69706148Y-45747180D01*
X69693402Y-45707732D01*
X69678199Y-45684928D01*
X69688928Y-45672487D01*
X69696136Y-45643111D01*
X69691348Y-45613244D01*
X69634075Y-45460516D01*
X69555279Y-44958191D01*
X69554720Y-44955056D01*
X69534720Y-44855056D01*
X69526810Y-44833356D01*
X69507290Y-44810250D01*
X69485987Y-44799437D01*
X69496460Y-44787276D01*
X69505726Y-44758483D01*
X69503060Y-44728352D01*
X69423060Y-44458352D01*
X69407670Y-44430194D01*
X69217670Y-44210194D01*
X69182729Y-44187269D01*
X69022729Y-44137269D01*
X68991585Y-44134266D01*
X68901585Y-44144266D01*
X68897473Y-44144837D01*
X68837473Y-44154837D01*
X68802398Y-44170498D01*
X68702398Y-44250498D01*
X68677710Y-44285903D01*
X68607710Y-44495903D01*
X68603800Y-44520000D01*
X68418794Y-44520000D01*
X68393364Y-44429406D01*
X68374901Y-44397157D01*
X68350017Y-44379961D01*
X68280017Y-44349961D01*
X68261736Y-44344709D01*
X68231519Y-44346075D01*
X68191519Y-44356075D01*
X68159980Y-44372516D01*
X68141556Y-44396506D01*
X68133917Y-44425773D01*
X68123917Y-44605773D01*
X68124783Y-44622197D01*
X68184783Y-44992197D01*
X68186337Y-44999499D01*
X68254415Y-45256682D01*
X68201447Y-45264248D01*
X68093928Y-45273208D01*
X67967213Y-45249449D01*
X67960414Y-45242650D01*
X67914829Y-45005610D01*
X67913077Y-44998409D01*
X67783077Y-44558409D01*
X67776359Y-44542544D01*
X67756558Y-44519677D01*
X67729421Y-44506316D01*
X67699224Y-44504566D01*
X67559224Y-44524566D01*
X67530199Y-44535021D01*
X67508054Y-44555625D01*
X67495670Y-44583221D01*
X67494999Y-44613462D01*
X67585483Y-45117588D01*
X67303956Y-44972691D01*
X67285357Y-44848696D01*
X67277431Y-44824510D01*
X67177431Y-44634510D01*
X67156107Y-44609332D01*
X66906107Y-44419332D01*
X66889646Y-44409803D01*
X66860000Y-44403800D01*
X66700000Y-44403800D01*
X66681519Y-44406075D01*
X66641519Y-44416075D01*
X66625922Y-44421845D01*
X66585922Y-44441845D01*
X66565834Y-44456404D01*
X66549250Y-44481700D01*
X66515230Y-44566749D01*
X65891039Y-44245489D01*
X65808421Y-44220895D01*
X65716330Y-44229805D01*
X65634961Y-44273842D01*
X65577136Y-44346066D01*
X64661884Y-46124356D01*
X64642455Y-46189623D01*
X64580225Y-46157594D01*
X64622900Y-46104293D01*
X65538152Y-44326003D01*
X65562746Y-44243385D01*
X65553836Y-44151294D01*
X65509799Y-44069925D01*
X65437575Y-44012100D01*
X64761825Y-43664304D01*
X64679207Y-43639710D01*
X64587116Y-43648620D01*
X64556336Y-43665278D01*
X64553548Y-43636465D01*
X64509511Y-43555096D01*
X64437287Y-43497271D01*
X63637057Y-43085408D01*
X63554439Y-43060814D01*
X63462348Y-43069724D01*
X63443610Y-43079865D01*
X63442117Y-43064432D01*
X63398080Y-42983063D01*
X63325856Y-42925238D01*
X62728612Y-42617848D01*
X62107935Y-41773761D01*
X63073131Y-42646634D01*
X63099851Y-42662610D01*
X63123497Y-42682868D01*
X64493498Y-43452868D01*
X64523056Y-43462522D01*
X64550565Y-43477036D01*
X66130565Y-43947036D01*
X66158952Y-43949677D01*
X66186341Y-43957594D01*
X67946341Y-44107594D01*
X67970287Y-44104917D01*
X67994240Y-44107544D01*
X69678765Y-43960424D01*
X69631700Y-43979250D01*
X69605834Y-43996404D01*
X69589250Y-44021700D01*
X69549250Y-44121700D01*
X69544591Y-44160952D01*
X69554793Y-44189427D01*
X69812593Y-44615788D01*
X70107466Y-45254680D01*
X70155337Y-45465311D01*
X70285046Y-46173724D01*
X70286960Y-46181715D01*
X70396960Y-46551715D01*
X70405821Y-46571080D01*
X70426860Y-46592812D01*
X70454696Y-46604647D01*
X70484944Y-46604720D01*
X70584944Y-46584720D01*
X70612268Y-46573402D01*
X70672268Y-46533402D01*
X70694181Y-46511076D01*
X70705105Y-46482869D01*
X70704195Y-46452635D01*
X70636187Y-46162053D01*
X70934215Y-46162053D01*
X70937095Y-46192164D01*
X70951462Y-46218782D01*
X71001462Y-46278782D01*
X71035903Y-46302290D01*
X71245903Y-46372290D01*
X71287453Y-46374174D01*
X71304321Y-46370205D01*
X74028513Y-46370205D01*
X74115239Y-46456931D01*
X74136869Y-46506160D01*
X74178364Y-46520056D01*
X74489016Y-46830708D01*
X74643804Y-46675920D01*
X74675770Y-46686625D01*
X74697254Y-46622470D01*
X74740466Y-46579258D01*
X74718935Y-46557727D01*
X74856235Y-46147725D01*
X74770393Y-45994452D01*
X74443758Y-46053143D01*
X74304017Y-46142809D01*
X74279963Y-46118755D01*
X74169766Y-46228952D01*
X74164447Y-46232365D01*
X74151723Y-46246995D01*
X74028513Y-46370205D01*
X71304321Y-46370205D01*
X71457453Y-46334174D01*
X71479333Y-46325263D01*
X71501626Y-46304819D01*
X71661626Y-46084819D01*
X71671816Y-46065473D01*
X71676069Y-46035525D01*
X71666069Y-45865525D01*
X71665872Y-45862942D01*
X71625872Y-45432942D01*
X71625464Y-45429435D01*
X71577226Y-45084877D01*
X71863956Y-45084877D01*
X71871845Y-45114078D01*
X71969511Y-45309410D01*
X72167834Y-45894463D01*
X72175574Y-45910690D01*
X72295574Y-46100690D01*
X72323511Y-46126896D01*
X72653511Y-46306896D01*
X72694005Y-46316095D01*
X72884005Y-46306095D01*
X72900050Y-46303515D01*
X73010050Y-46273515D01*
X73043882Y-46253882D01*
X73213882Y-46083882D01*
X73232290Y-46054097D01*
X73332290Y-45754097D01*
X73335887Y-45736899D01*
X73375887Y-45296899D01*
X73376148Y-45287180D01*
X73366200Y-45018584D01*
X73366200Y-44980000D01*
X73363663Y-44960501D01*
X73273663Y-44620501D01*
X73270460Y-44610987D01*
X73060460Y-44100987D01*
X73050738Y-44083986D01*
X72800738Y-43753986D01*
X72773128Y-43731378D01*
X72483128Y-43591378D01*
X72445247Y-43583948D01*
X72285247Y-43593948D01*
X72261700Y-43599250D01*
X72211700Y-43619250D01*
X72185834Y-43636404D01*
X72169250Y-43661700D01*
X72129250Y-43761700D01*
X72123807Y-43788996D01*
X72129419Y-43818718D01*
X72146153Y-43843916D01*
X72171371Y-43860618D01*
X72525995Y-44004385D01*
X72676648Y-44163899D01*
X72897328Y-44614854D01*
X72954902Y-44893130D01*
X72973946Y-45026439D01*
X72983689Y-45386916D01*
X72945365Y-45741412D01*
X72896711Y-45863048D01*
X72878414Y-45877685D01*
X72727789Y-45900279D01*
X72618742Y-45827581D01*
X72442395Y-45484168D01*
X72384873Y-45215731D01*
X72380523Y-45189635D01*
X72480960Y-45055720D01*
X72495969Y-45015927D01*
X72492290Y-44985903D01*
X72482290Y-44955903D01*
X72480750Y-44951700D01*
X72460750Y-44901700D01*
X72445600Y-44877894D01*
X72420948Y-44860368D01*
X72330948Y-44820368D01*
X72286758Y-44814959D01*
X72118645Y-44844626D01*
X72040549Y-44854388D01*
X72025077Y-44857991D01*
X71999025Y-44873361D01*
X71899025Y-44963361D01*
X71885632Y-44979217D01*
X71874837Y-45007473D01*
X71864837Y-45067473D01*
X71863956Y-45084877D01*
X71577226Y-45084877D01*
X71555464Y-44929435D01*
X71555377Y-44928833D01*
X71435377Y-44118833D01*
X71428155Y-44095922D01*
X71398155Y-44035922D01*
X71384621Y-44016868D01*
X71359646Y-43999803D01*
X71330000Y-43993800D01*
X71250000Y-43993800D01*
X71210795Y-44004659D01*
X71160795Y-44034659D01*
X71146868Y-44045379D01*
X71129803Y-44070354D01*
X71123800Y-44100000D01*
X71123800Y-44420000D01*
X71124566Y-44430776D01*
X71164566Y-44710776D01*
X71164660Y-44711415D01*
X71314127Y-45697896D01*
X71329720Y-45970784D01*
X71296544Y-45973800D01*
X71060000Y-45973800D01*
X71031963Y-45979145D01*
X71006606Y-45995636D01*
X70989662Y-46020692D01*
X70939662Y-46140692D01*
X70934215Y-46162053D01*
X70636187Y-46162053D01*
X70484520Y-45514026D01*
X70411548Y-45140044D01*
X70429502Y-45117602D01*
X70445235Y-45082091D01*
X70535235Y-44522091D01*
X70535822Y-44517582D01*
X70585822Y-44017582D01*
X70583268Y-43989066D01*
X70563268Y-43919066D01*
X70555470Y-43901011D01*
X70535143Y-43878611D01*
X70507702Y-43865885D01*
X70477473Y-43864837D01*
X70417473Y-43874837D01*
X70382398Y-43890498D01*
X70332398Y-43930498D01*
X70317573Y-43946304D01*
X70305491Y-43974034D01*
X70215491Y-44394034D01*
X70214486Y-44399795D01*
X70188148Y-44594693D01*
X70086518Y-44412828D01*
X70083659Y-44408119D01*
X69833659Y-44028119D01*
X69812268Y-44006598D01*
X69752268Y-43966598D01*
X69720829Y-43956750D01*
X70284240Y-43907544D01*
X70315860Y-43898333D01*
X70348522Y-43894162D01*
X71472610Y-43517473D01*
X74294837Y-43517473D01*
X74296149Y-43548776D01*
X74596149Y-44728776D01*
X74596919Y-44731576D01*
X74906919Y-45781576D01*
X74909729Y-45789469D01*
X75039729Y-46099469D01*
X75052091Y-46119528D01*
X75075922Y-46138155D01*
X75115922Y-46158155D01*
X75135056Y-46164720D01*
X75175248Y-46172758D01*
X75142524Y-46205482D01*
X75093296Y-46227111D01*
X75079400Y-46268606D01*
X74768748Y-46579258D01*
X74923536Y-46734046D01*
X74912831Y-46766012D01*
X74976986Y-46787496D01*
X75020198Y-46830708D01*
X75041729Y-46809177D01*
X75451731Y-46946477D01*
X75605004Y-46860635D01*
X75546313Y-46534000D01*
X75456647Y-46394259D01*
X75480701Y-46370205D01*
X75370504Y-46260008D01*
X75367091Y-46254689D01*
X75352461Y-46241965D01*
X75295924Y-46185428D01*
X75309530Y-46183655D01*
X75336647Y-46170253D01*
X75356414Y-46147358D01*
X75435136Y-46007407D01*
X75482908Y-46096126D01*
X75495379Y-46113132D01*
X75520354Y-46130197D01*
X75550000Y-46136200D01*
X75600000Y-46136200D01*
X75612527Y-46135163D01*
X75672527Y-46125163D01*
X75688300Y-46120750D01*
X75738300Y-46100750D01*
X75761074Y-46086550D01*
X75779051Y-46062224D01*
X75849051Y-45912224D01*
X75856131Y-45883240D01*
X75876131Y-45413240D01*
X75876078Y-45405694D01*
X75846078Y-44875694D01*
X75845235Y-44867909D01*
X75665235Y-43747909D01*
X75664174Y-43742547D01*
X75629474Y-43595069D01*
X76073969Y-43595069D01*
X76083969Y-43745069D01*
X76084594Y-43750968D01*
X76091520Y-43798579D01*
X76164594Y-44300968D01*
X76164987Y-44303395D01*
X76214987Y-44583395D01*
X76216268Y-44589235D01*
X76336268Y-45049235D01*
X76340630Y-45061532D01*
X76490630Y-45391532D01*
X76503495Y-45411124D01*
X76693495Y-45621124D01*
X76718468Y-45639370D01*
X76828468Y-45689370D01*
X76867582Y-45695822D01*
X76967582Y-45685822D01*
X76978481Y-45683925D01*
X77058481Y-45663925D01*
X77074437Y-45657974D01*
X77098170Y-45639221D01*
X77208170Y-45509221D01*
X77220750Y-45488300D01*
X77260750Y-45388300D01*
X77265567Y-45350200D01*
X77255801Y-45321572D01*
X77245049Y-45309518D01*
X77266386Y-45300455D01*
X77286252Y-45277645D01*
X77295678Y-45248903D01*
X77307072Y-45152053D01*
X77574215Y-45152053D01*
X77577095Y-45182164D01*
X77591462Y-45208782D01*
X77641462Y-45268782D01*
X77675903Y-45292290D01*
X77885903Y-45362290D01*
X77927453Y-45364174D01*
X78097453Y-45324174D01*
X78119333Y-45315263D01*
X78141626Y-45294819D01*
X78301626Y-45074819D01*
X78311816Y-45055473D01*
X78316069Y-45025525D01*
X78306069Y-44855525D01*
X78305872Y-44852942D01*
X78265872Y-44422942D01*
X78265464Y-44419435D01*
X78217226Y-44074877D01*
X78503956Y-44074877D01*
X78511845Y-44104078D01*
X78609247Y-44298882D01*
X78797468Y-44883358D01*
X78807112Y-44903029D01*
X78937112Y-45093029D01*
X78962642Y-45116414D01*
X79282642Y-45296414D01*
X79323805Y-45306105D01*
X79523805Y-45296105D01*
X79540050Y-45293515D01*
X79650050Y-45263515D01*
X79683882Y-45243882D01*
X79853882Y-45073882D01*
X79872290Y-45044097D01*
X79972290Y-44744097D01*
X79975887Y-44726899D01*
X80015887Y-44286899D01*
X80016148Y-44277180D01*
X80006148Y-44007180D01*
X80003925Y-43991519D01*
X79994046Y-43952003D01*
X79914174Y-43612547D01*
X79909968Y-43599818D01*
X79689968Y-43089818D01*
X79680738Y-43073986D01*
X79430738Y-42743986D01*
X79403128Y-42721378D01*
X79199729Y-42623185D01*
X79212036Y-42624402D01*
X79302283Y-42473680D01*
X79137506Y-41929777D01*
X78593603Y-42094554D01*
X78518307Y-42253274D01*
X78755235Y-42485653D01*
X78987929Y-42579405D01*
X78915247Y-42583948D01*
X78885922Y-42591845D01*
X78845922Y-42611845D01*
X78825834Y-42626404D01*
X78809250Y-42651700D01*
X78769250Y-42751700D01*
X78763807Y-42778996D01*
X78769419Y-42808718D01*
X78786153Y-42833916D01*
X78811371Y-42850618D01*
X79165995Y-42994385D01*
X79316648Y-43153899D01*
X79536761Y-43603696D01*
X79584722Y-43881869D01*
X79604092Y-44017456D01*
X79623578Y-44377946D01*
X79585600Y-44729238D01*
X79529017Y-44850487D01*
X79518401Y-44858449D01*
X79357764Y-44889047D01*
X79258646Y-44818248D01*
X79072859Y-44474542D01*
X79025093Y-44207053D01*
X79020523Y-44179635D01*
X79120960Y-44045720D01*
X79135969Y-44005927D01*
X79132290Y-43975903D01*
X79122290Y-43945903D01*
X79120750Y-43941700D01*
X79100750Y-43891700D01*
X79083596Y-43865834D01*
X79058300Y-43849250D01*
X78958300Y-43809250D01*
X78916758Y-43804959D01*
X78748645Y-43834626D01*
X78670549Y-43844388D01*
X78651327Y-43849401D01*
X78626118Y-43866118D01*
X78536118Y-43956118D01*
X78525632Y-43969217D01*
X78514837Y-43997473D01*
X78504837Y-44057473D01*
X78503956Y-44074877D01*
X78217226Y-44074877D01*
X78195464Y-43919435D01*
X78195377Y-43918833D01*
X78075377Y-43108833D01*
X78068155Y-43085922D01*
X78038155Y-43025922D01*
X78024621Y-43006868D01*
X77999646Y-42989803D01*
X77970000Y-42983800D01*
X77880000Y-42983800D01*
X77861599Y-42986055D01*
X77834280Y-42999040D01*
X77794280Y-43029040D01*
X77769803Y-43060354D01*
X77763800Y-43090000D01*
X77763800Y-43410000D01*
X77764566Y-43420776D01*
X77804566Y-43700776D01*
X77804660Y-43701415D01*
X77953964Y-44686819D01*
X77961804Y-44961239D01*
X77936198Y-44963800D01*
X77700000Y-44963800D01*
X77671963Y-44969145D01*
X77646606Y-44985636D01*
X77629662Y-45010692D01*
X77579662Y-45130692D01*
X77574215Y-45152053D01*
X77307072Y-45152053D01*
X77335678Y-44908903D01*
X77336052Y-44895247D01*
X77306052Y-44415247D01*
X77305073Y-44406944D01*
X77225073Y-43946944D01*
X77220116Y-43930163D01*
X77020116Y-43460163D01*
X77005318Y-43437594D01*
X76825318Y-43247594D01*
X76804078Y-43231845D01*
X76704078Y-43181845D01*
X76660549Y-43174388D01*
X76420549Y-43204388D01*
X76392194Y-43213840D01*
X76252194Y-43293840D01*
X76224910Y-43320380D01*
X76084910Y-43550380D01*
X76077987Y-43565089D01*
X76073969Y-43595069D01*
X75629474Y-43595069D01*
X75584174Y-43402547D01*
X75574179Y-43378920D01*
X75553140Y-43357188D01*
X75525304Y-43345353D01*
X75495056Y-43345280D01*
X75395056Y-43365280D01*
X75375378Y-43372119D01*
X75351697Y-43390937D01*
X75337202Y-43417486D01*
X75334178Y-43447582D01*
X75342728Y-43533081D01*
X75326732Y-43589066D01*
X75325390Y-43625485D01*
X75435085Y-44154017D01*
X75504527Y-44570667D01*
X75553924Y-44995481D01*
X75563322Y-45329106D01*
X75553925Y-45291519D01*
X75551416Y-45283426D01*
X75391416Y-44853426D01*
X75381537Y-44835060D01*
X75359205Y-44814659D01*
X75309205Y-44784659D01*
X75275927Y-44774031D01*
X75245903Y-44777710D01*
X75215903Y-44787710D01*
X75200795Y-44794659D01*
X75150795Y-44824659D01*
X75129090Y-44844214D01*
X75116075Y-44871519D01*
X75086075Y-44991519D01*
X75086075Y-45028481D01*
X75096075Y-45068481D01*
X75106598Y-45092268D01*
X75133800Y-45133071D01*
X75133800Y-45329820D01*
X74984121Y-44702320D01*
X74983268Y-44699066D01*
X74643268Y-43509066D01*
X74630149Y-43483218D01*
X74560149Y-43393218D01*
X74546558Y-43379677D01*
X74519421Y-43366316D01*
X74489224Y-43364566D01*
X74419224Y-43374566D01*
X74401700Y-43379250D01*
X74351700Y-43399250D01*
X74336570Y-43407388D01*
X74315632Y-43429217D01*
X74304837Y-43457473D01*
X74294837Y-43517473D01*
X71472610Y-43517473D01*
X72228523Y-43264162D01*
X72258738Y-43246875D01*
X72291104Y-43234063D01*
X73081104Y-42724063D01*
X73099584Y-42706158D01*
X73121375Y-42692469D01*
X73851375Y-42002469D01*
X73871014Y-41974798D01*
X73894548Y-41950351D01*
X73954201Y-41857292D01*
X79376767Y-41857292D01*
X79541544Y-42401195D01*
X79700264Y-42476491D01*
X79932643Y-42239563D01*
X80056664Y-41931742D01*
X80071392Y-41782762D01*
X79920670Y-41692515D01*
X79376767Y-41857292D01*
X73954201Y-41857292D01*
X74013333Y-41765046D01*
X78370396Y-41765046D01*
X78521118Y-41855293D01*
X79065021Y-41690516D01*
X78900244Y-41146613D01*
X78747450Y-41074128D01*
X79139505Y-41074128D01*
X79304282Y-41618031D01*
X79848185Y-41453254D01*
X79923481Y-41294534D01*
X79686553Y-41062155D01*
X79378732Y-40938134D01*
X79229752Y-40923406D01*
X79139505Y-41074128D01*
X78747450Y-41074128D01*
X78741524Y-41071317D01*
X78509145Y-41308245D01*
X78385124Y-41616066D01*
X78370396Y-41765046D01*
X74013333Y-41765046D01*
X75144548Y-40000351D01*
X75153607Y-39977248D01*
X75167393Y-39956616D01*
X75173257Y-39927134D01*
X75184231Y-39899148D01*
X75183759Y-39874337D01*
X75188600Y-39850000D01*
X75182736Y-39820517D01*
X75182164Y-39790464D01*
X75172234Y-39767724D01*
X75167393Y-39743384D01*
X75150693Y-39718390D01*
X75138664Y-39690843D01*
X75120786Y-39673632D01*
X75107000Y-39653000D01*
X75082007Y-39636300D01*
X75060351Y-39615452D01*
X75037248Y-39606393D01*
X75016616Y-39592607D01*
X74987136Y-39586743D01*
X74959149Y-39575769D01*
X74934337Y-39576241D01*
X74910000Y-39571400D01*
X68288600Y-39571400D01*
X68288600Y-36116940D01*
X80061262Y-36116940D01*
X80368375Y-36242705D01*
X80700238Y-36241369D01*
X80843757Y-36198777D01*
X80870441Y-36025140D01*
X80512561Y-35583661D01*
X80071082Y-35941540D01*
X80061262Y-36116940D01*
X68288600Y-36116940D01*
X68288600Y-35755692D01*
X71508261Y-35755692D01*
X71516739Y-35931162D01*
X71835267Y-36024300D01*
X72165191Y-35988452D01*
X72303501Y-35931162D01*
X72311979Y-35755692D01*
X71910120Y-35353833D01*
X71508261Y-35755692D01*
X68288600Y-35755692D01*
X68288600Y-35102203D01*
X71062876Y-35102203D01*
X71098724Y-35432127D01*
X71156014Y-35570437D01*
X71331484Y-35578915D01*
X71733343Y-35177056D01*
X72086897Y-35177056D01*
X72488756Y-35578915D01*
X72664226Y-35570437D01*
X72757364Y-35251909D01*
X72756643Y-35245269D01*
X79696087Y-35245269D01*
X79697423Y-35577132D01*
X79740015Y-35720651D01*
X79913652Y-35747335D01*
X80309764Y-35426231D01*
X80706767Y-35426231D01*
X81064646Y-35867710D01*
X81240046Y-35877530D01*
X81365811Y-35570417D01*
X81364475Y-35238554D01*
X81321883Y-35095035D01*
X81148246Y-35068351D01*
X80706767Y-35426231D01*
X80309764Y-35426231D01*
X80355131Y-35389455D01*
X79997252Y-34947976D01*
X79821852Y-34938156D01*
X79696087Y-35245269D01*
X72756643Y-35245269D01*
X72721516Y-34921985D01*
X72667073Y-34790546D01*
X80191457Y-34790546D01*
X80549337Y-35232025D01*
X80990816Y-34874146D01*
X81000636Y-34698746D01*
X80693523Y-34572981D01*
X80361660Y-34574317D01*
X80218141Y-34616909D01*
X80191457Y-34790546D01*
X72667073Y-34790546D01*
X72664226Y-34783675D01*
X72488756Y-34775197D01*
X72086897Y-35177056D01*
X71733343Y-35177056D01*
X71331484Y-34775197D01*
X71156014Y-34783675D01*
X71062876Y-35102203D01*
X68288600Y-35102203D01*
X68288600Y-34598420D01*
X71508261Y-34598420D01*
X71910120Y-35000279D01*
X72311979Y-34598420D01*
X72303501Y-34422950D01*
X71984973Y-34329812D01*
X71655049Y-34365660D01*
X71516739Y-34422950D01*
X71508261Y-34598420D01*
X68288600Y-34598420D01*
X68288600Y-32948600D01*
X83072553Y-32948600D01*
X83091328Y-37473307D01*
X82806118Y-39764823D01*
X82157168Y-42075476D01*
X81136149Y-44382589D01*
X80711592Y-44990477D01*
X80699431Y-45018205D01*
X80682607Y-45043384D01*
X80677809Y-45067505D01*
X80667931Y-45090028D01*
X80667307Y-45120303D01*
X80661400Y-45150000D01*
X80666198Y-45174120D01*
X80665691Y-45198709D01*
X80676700Y-45226918D01*
X80682607Y-45256616D01*
X80696269Y-45277063D01*
X80705211Y-45299975D01*
X80726178Y-45321824D01*
X80743000Y-45347000D01*
X80763449Y-45360664D01*
X80780477Y-45378408D01*
X80808205Y-45390569D01*
X80833384Y-45407393D01*
X80857505Y-45412191D01*
X80880028Y-45422069D01*
X80910303Y-45422693D01*
X80940000Y-45428600D01*
X83234486Y-45428600D01*
X83173430Y-45576002D01*
X83173430Y-45868357D01*
X83319480Y-46014407D01*
X83889710Y-46014407D01*
X83858218Y-46130540D01*
X83889012Y-46370007D01*
X83319480Y-46370007D01*
X83173430Y-46516057D01*
X83173430Y-46808412D01*
X83262369Y-47023130D01*
X83426708Y-47187468D01*
X83641426Y-47276407D01*
X85433780Y-47276407D01*
X85579830Y-47130357D01*
X85579830Y-46538605D01*
X85657042Y-46253874D01*
X85623676Y-45994407D01*
X85935430Y-45994407D01*
X85935430Y-46014407D01*
X85955430Y-46014407D01*
X85955430Y-46370007D01*
X85935430Y-46370007D01*
X85935430Y-47130357D01*
X86081480Y-47276407D01*
X87791400Y-47276407D01*
X87791400Y-47465968D01*
X87757630Y-47459129D01*
X83757630Y-47459129D01*
X83672916Y-47475069D01*
X83595112Y-47525135D01*
X83542915Y-47601527D01*
X83524552Y-47692207D01*
X83524552Y-48692207D01*
X83540492Y-48776921D01*
X83590558Y-48854725D01*
X83666950Y-48906922D01*
X83757630Y-48925285D01*
X87757630Y-48925285D01*
X87791400Y-48918931D01*
X87791400Y-49108007D01*
X86081480Y-49108007D01*
X85935430Y-49254057D01*
X85935430Y-50014407D01*
X85955430Y-50014407D01*
X85955430Y-50370007D01*
X85935430Y-50370007D01*
X85935430Y-50390007D01*
X85620126Y-50390007D01*
X85657042Y-50253874D01*
X85612177Y-49904990D01*
X85579830Y-49826897D01*
X85579830Y-49254057D01*
X85433780Y-49108007D01*
X83641426Y-49108007D01*
X83426708Y-49196946D01*
X83262369Y-49361284D01*
X83173430Y-49576002D01*
X83173430Y-49868357D01*
X83319480Y-50014407D01*
X83889710Y-50014407D01*
X83858218Y-50130540D01*
X83889012Y-50370007D01*
X83319480Y-50370007D01*
X83173430Y-50516057D01*
X83173430Y-50808412D01*
X83199520Y-50871400D01*
X71610000Y-50871400D01*
X71586077Y-50876158D01*
X71561694Y-50875620D01*
X70157601Y-51122820D01*
X67973746Y-51250703D01*
X66558200Y-51129636D01*
X66627818Y-51107330D01*
X66805159Y-50957115D01*
X66911515Y-50750470D01*
X67167760Y-50252597D01*
X67104737Y-50055902D01*
X66535373Y-49762861D01*
X65958604Y-50883495D01*
X66021628Y-51080190D01*
X66029913Y-51084454D01*
X64979747Y-50994637D01*
X64574887Y-50881654D01*
X64537138Y-50878787D01*
X64500000Y-50871400D01*
X51578950Y-50871400D01*
X51605040Y-50808412D01*
X51605040Y-50516057D01*
X51458990Y-50370007D01*
X50888760Y-50370007D01*
X50907117Y-50302310D01*
X64829390Y-50302310D01*
X64892414Y-50499005D01*
X65045662Y-50577880D01*
X65195380Y-50590278D01*
X65292480Y-50704912D01*
X65445728Y-50783786D01*
X65642424Y-50720763D01*
X66219193Y-49600129D01*
X65921052Y-49446681D01*
X66698105Y-49446681D01*
X67267469Y-49739722D01*
X67464165Y-49676698D01*
X67608651Y-49395967D01*
X67815494Y-49395967D01*
X68124235Y-49517681D01*
X68456052Y-49511979D01*
X68598998Y-49467502D01*
X68623395Y-49293529D01*
X68259738Y-48856796D01*
X67823005Y-49220453D01*
X67815494Y-49395967D01*
X67608651Y-49395967D01*
X67720410Y-49178826D01*
X67826766Y-48972181D01*
X67833898Y-48886062D01*
X68061161Y-48696825D01*
X68451855Y-48696825D01*
X68815512Y-49133558D01*
X68991026Y-49141069D01*
X69112740Y-48832328D01*
X69107038Y-48500511D01*
X69062561Y-48357565D01*
X68888588Y-48333168D01*
X68451855Y-48696825D01*
X68061161Y-48696825D01*
X68099767Y-48664679D01*
X67736110Y-48227946D01*
X67560596Y-48220435D01*
X67531622Y-48293932D01*
X67471570Y-48263024D01*
X67274874Y-48326047D01*
X66698105Y-49446681D01*
X65921052Y-49446681D01*
X65649829Y-49307088D01*
X65406159Y-49181676D01*
X64829390Y-50302310D01*
X50907117Y-50302310D01*
X50920252Y-50253874D01*
X50889458Y-50014407D01*
X51458990Y-50014407D01*
X51605040Y-49868357D01*
X51605040Y-49721125D01*
X63700177Y-49721125D01*
X63763201Y-49917820D01*
X63916449Y-49996695D01*
X64066166Y-50009093D01*
X64163266Y-50123727D01*
X64316514Y-50202601D01*
X64513210Y-50139578D01*
X65089979Y-49018944D01*
X64770910Y-48854725D01*
X64276946Y-48600491D01*
X63700177Y-49721125D01*
X51605040Y-49721125D01*
X51605040Y-49576002D01*
X51516101Y-49361284D01*
X51351762Y-49196946D01*
X51214138Y-49139940D01*
X62570963Y-49139940D01*
X62633987Y-49336635D01*
X62787235Y-49415510D01*
X62936953Y-49427908D01*
X63034053Y-49542542D01*
X63187301Y-49621416D01*
X63383997Y-49558393D01*
X63960766Y-48437759D01*
X63391402Y-48144718D01*
X63147732Y-48019306D01*
X62570963Y-49139940D01*
X51214138Y-49139940D01*
X51137044Y-49108007D01*
X49344690Y-49108007D01*
X49198640Y-49254057D01*
X49198640Y-49845809D01*
X49121428Y-50130540D01*
X49154794Y-50390007D01*
X48843040Y-50390007D01*
X48843040Y-50370007D01*
X48823040Y-50370007D01*
X48823040Y-50014407D01*
X48843040Y-50014407D01*
X48843040Y-49254057D01*
X48696990Y-49108007D01*
X46908600Y-49108007D01*
X46908600Y-48892191D01*
X46930160Y-48906922D01*
X47020840Y-48925285D01*
X51020840Y-48925285D01*
X51105554Y-48909345D01*
X51183358Y-48859279D01*
X51235555Y-48782887D01*
X51253918Y-48692207D01*
X51253918Y-47692207D01*
X51237978Y-47607493D01*
X51187912Y-47529689D01*
X51111520Y-47477492D01*
X51020840Y-47459129D01*
X47020840Y-47459129D01*
X46936126Y-47475069D01*
X46908600Y-47492782D01*
X46908600Y-47276407D01*
X48696990Y-47276407D01*
X48843040Y-47130357D01*
X48843040Y-46370007D01*
X48823040Y-46370007D01*
X48823040Y-46014407D01*
X48843040Y-46014407D01*
X48843040Y-45994407D01*
X49158344Y-45994407D01*
X49121428Y-46130540D01*
X49166293Y-46479424D01*
X49198640Y-46557517D01*
X49198640Y-47130357D01*
X49344690Y-47276407D01*
X51137044Y-47276407D01*
X51286269Y-47214596D01*
X61026595Y-47214596D01*
X61177107Y-47305193D01*
X61721391Y-47141678D01*
X61557876Y-46597394D01*
X61399331Y-46521730D01*
X61166403Y-46758118D01*
X61041668Y-47065651D01*
X61026595Y-47214596D01*
X51286269Y-47214596D01*
X51351762Y-47187468D01*
X51516101Y-47023130D01*
X51605040Y-46808412D01*
X51605040Y-46516057D01*
X51458990Y-46370007D01*
X50888760Y-46370007D01*
X50920252Y-46253874D01*
X50889458Y-46014407D01*
X51458990Y-46014407D01*
X51605040Y-45868357D01*
X51605040Y-45576002D01*
X51543984Y-45428600D01*
X54520000Y-45428600D01*
X54565430Y-45419564D01*
X54611317Y-45413210D01*
X54618477Y-45409012D01*
X54626616Y-45407393D01*
X54665132Y-45381657D01*
X54705092Y-45358228D01*
X54710100Y-45351611D01*
X54717000Y-45347000D01*
X54742738Y-45308481D01*
X54770688Y-45271546D01*
X54772782Y-45263517D01*
X54777393Y-45256616D01*
X54786431Y-45211179D01*
X54798119Y-45166360D01*
X54796981Y-45158140D01*
X54798600Y-45150000D01*
X54789564Y-45104570D01*
X54783210Y-45058683D01*
X54779012Y-45051523D01*
X54777393Y-45043384D01*
X54751657Y-45004868D01*
X54728228Y-44964908D01*
X54666482Y-44895444D01*
X53378395Y-42697210D01*
X55966001Y-42697210D01*
X56026097Y-43023589D01*
X56114413Y-43159930D01*
X56090364Y-43183979D01*
X56202861Y-43296476D01*
X56206520Y-43302125D01*
X56220961Y-43314576D01*
X56341814Y-43435429D01*
X56370353Y-43406890D01*
X56717831Y-43406890D01*
X56804333Y-43559792D01*
X57130712Y-43499696D01*
X57267053Y-43411380D01*
X57291102Y-43435429D01*
X57403599Y-43322932D01*
X57409248Y-43319273D01*
X57421699Y-43304832D01*
X57542552Y-43183979D01*
X57461026Y-43102453D01*
X57435648Y-43045362D01*
X57388308Y-43029735D01*
X57082049Y-42723476D01*
X56927802Y-42877723D01*
X56895976Y-42867218D01*
X56875117Y-42930408D01*
X56830599Y-42974926D01*
X56853020Y-42997347D01*
X56717831Y-43406890D01*
X56370353Y-43406890D01*
X56423340Y-43353903D01*
X56480431Y-43328525D01*
X56496058Y-43281185D01*
X56802317Y-42974926D01*
X56648070Y-42820679D01*
X56658575Y-42788853D01*
X56595385Y-42767994D01*
X56550867Y-42723476D01*
X56528446Y-42745897D01*
X56118903Y-42610708D01*
X55966001Y-42697210D01*
X53378395Y-42697210D01*
X53107375Y-42234691D01*
X56090364Y-42234691D01*
X56171890Y-42316217D01*
X56197268Y-42373308D01*
X56244608Y-42388935D01*
X56550867Y-42695194D01*
X56705114Y-42540947D01*
X56736940Y-42551452D01*
X56757799Y-42488262D01*
X56802317Y-42443744D01*
X56830599Y-42443744D01*
X56984846Y-42597991D01*
X56974341Y-42629817D01*
X57037531Y-42650676D01*
X57082049Y-42695194D01*
X57104470Y-42672773D01*
X57514013Y-42807962D01*
X57666915Y-42721460D01*
X57606819Y-42395081D01*
X57518503Y-42258740D01*
X57542552Y-42234691D01*
X57430055Y-42122194D01*
X57426396Y-42116545D01*
X57411955Y-42104094D01*
X57291102Y-41983241D01*
X57209576Y-42064767D01*
X57152485Y-42090145D01*
X57136858Y-42137485D01*
X56830599Y-42443744D01*
X56802317Y-42443744D01*
X56779896Y-42421323D01*
X56915085Y-42011780D01*
X56828583Y-41858878D01*
X56502204Y-41918974D01*
X56365863Y-42007290D01*
X56341814Y-41983241D01*
X56229317Y-42095738D01*
X56223668Y-42099397D01*
X56211217Y-42113838D01*
X56090364Y-42234691D01*
X53107375Y-42234691D01*
X53021606Y-42088319D01*
X52405680Y-40504511D01*
X51963608Y-38785341D01*
X51721333Y-37098382D01*
X54452568Y-37098382D01*
X54476070Y-37272478D01*
X54801415Y-37337942D01*
X55127047Y-37273918D01*
X55259931Y-37204972D01*
X55253322Y-37029422D01*
X54818465Y-36663525D01*
X54452568Y-37098382D01*
X51721333Y-37098382D01*
X51697715Y-36933931D01*
X51677737Y-36485518D01*
X53952755Y-36485518D01*
X54016779Y-36811150D01*
X54085725Y-36944034D01*
X54261275Y-36937425D01*
X54627172Y-36502568D01*
X54591119Y-36472232D01*
X54979422Y-36472232D01*
X55414279Y-36838129D01*
X55588375Y-36814627D01*
X55653839Y-36489282D01*
X55589815Y-36163650D01*
X55520869Y-36030766D01*
X55345319Y-36037375D01*
X54979422Y-36472232D01*
X54591119Y-36472232D01*
X54192315Y-36136671D01*
X54018219Y-36160173D01*
X53952755Y-36485518D01*
X51677737Y-36485518D01*
X51645850Y-35769828D01*
X54346663Y-35769828D01*
X54353272Y-35945378D01*
X54788129Y-36311275D01*
X55154026Y-35876418D01*
X55130524Y-35702322D01*
X54805179Y-35636858D01*
X54479547Y-35700882D01*
X54346663Y-35769828D01*
X51645850Y-35769828D01*
X51608877Y-34940000D01*
X51697715Y-32946069D01*
X51963635Y-31094471D01*
X52169688Y-30288572D01*
X54829544Y-30288572D01*
X55072323Y-30514831D01*
X55383208Y-30630958D01*
X55532515Y-30641880D01*
X55618888Y-30488905D01*
X55440288Y-29949383D01*
X54900766Y-30127983D01*
X54829544Y-30288572D01*
X52169688Y-30288572D01*
X52293514Y-29804276D01*
X54669225Y-29804276D01*
X54822200Y-29890649D01*
X54882109Y-29870817D01*
X55677622Y-29870817D01*
X55856222Y-30410339D01*
X56016811Y-30481561D01*
X56243070Y-30238782D01*
X56359197Y-29927897D01*
X56370119Y-29778590D01*
X56217144Y-29692217D01*
X55677622Y-29870817D01*
X54882109Y-29870817D01*
X55361722Y-29712049D01*
X55183122Y-29172527D01*
X55022533Y-29101305D01*
X54796274Y-29344084D01*
X54680147Y-29654969D01*
X54669225Y-29804276D01*
X52293514Y-29804276D01*
X52405679Y-29365588D01*
X52511967Y-29093961D01*
X55420456Y-29093961D01*
X55599056Y-29633483D01*
X56138578Y-29454883D01*
X56209800Y-29294294D01*
X55967021Y-29068035D01*
X55656136Y-28951908D01*
X55506829Y-28940986D01*
X55420456Y-29093961D01*
X52511967Y-29093961D01*
X53021456Y-27791936D01*
X54669886Y-24978748D01*
X54987489Y-24584919D01*
X58454327Y-24584919D01*
X58591149Y-24887268D01*
X58833260Y-25114242D01*
X58966822Y-25181864D01*
X59081087Y-25092972D01*
X59354759Y-25092972D01*
X59475493Y-25220585D01*
X59777842Y-25083763D01*
X60004816Y-24841652D01*
X60072438Y-24708090D01*
X59964570Y-24569432D01*
X59397895Y-24526296D01*
X59354759Y-25092972D01*
X59081087Y-25092972D01*
X59105480Y-25073996D01*
X59148616Y-24507321D01*
X58581940Y-24464185D01*
X58454327Y-24584919D01*
X54987489Y-24584919D01*
X55235796Y-24277017D01*
X59416870Y-24277017D01*
X59983546Y-24320153D01*
X60111159Y-24199419D01*
X60072195Y-24113315D01*
X72916585Y-24113315D01*
X72933170Y-24204337D01*
X74268601Y-27547483D01*
X74314828Y-27620240D01*
X74390184Y-27673921D01*
X74480488Y-27694055D01*
X74571510Y-27677470D01*
X77357465Y-26564610D01*
X77430222Y-26518383D01*
X77483903Y-26443027D01*
X77504037Y-26352723D01*
X77487452Y-26261701D01*
X77448644Y-26164547D01*
X77614125Y-26164547D01*
X77721519Y-26303573D01*
X78036014Y-26197610D01*
X78286019Y-25979361D01*
X78366634Y-25853215D01*
X78273143Y-25704483D01*
X77713602Y-25605006D01*
X77614125Y-26164547D01*
X77448644Y-26164547D01*
X77387443Y-26011337D01*
X77403630Y-25920288D01*
X77598271Y-25725647D01*
X77462391Y-25589767D01*
X77467462Y-25561246D01*
X77426607Y-25553983D01*
X77346821Y-25474197D01*
X77291122Y-25529896D01*
X77187792Y-25511525D01*
X77078609Y-25238195D01*
X77152181Y-25251275D01*
X77346821Y-25445915D01*
X77433870Y-25358866D01*
X77757362Y-25358866D01*
X78316903Y-25458343D01*
X78455929Y-25350949D01*
X78349966Y-25036454D01*
X78131717Y-24786449D01*
X78005571Y-24705834D01*
X77856839Y-24799325D01*
X77757362Y-25358866D01*
X77433870Y-25358866D01*
X77482701Y-25310035D01*
X77511222Y-25315106D01*
X77518485Y-25274251D01*
X77598271Y-25194465D01*
X77542572Y-25138766D01*
X77610699Y-24755565D01*
X77503305Y-24616539D01*
X77448643Y-24634956D01*
X77453265Y-24623825D01*
X77453432Y-24433426D01*
X77380723Y-24257457D01*
X77246208Y-24122708D01*
X77070366Y-24049692D01*
X76879967Y-24049525D01*
X76703998Y-24122234D01*
X76653122Y-24173022D01*
X76152021Y-22918555D01*
X76105794Y-22845798D01*
X76030438Y-22792117D01*
X75940134Y-22771983D01*
X75849112Y-22788568D01*
X73063157Y-23901428D01*
X72990400Y-23947655D01*
X72936719Y-24023011D01*
X72916585Y-24113315D01*
X60072195Y-24113315D01*
X59974337Y-23897070D01*
X59732226Y-23670096D01*
X59598664Y-23602474D01*
X59460006Y-23710342D01*
X59416870Y-24277017D01*
X55235796Y-24277017D01*
X55397707Y-24076248D01*
X58493048Y-24076248D01*
X58600916Y-24214906D01*
X59167591Y-24258042D01*
X59210727Y-23691366D01*
X59089993Y-23563753D01*
X58787644Y-23700575D01*
X58560670Y-23942686D01*
X58493048Y-24076248D01*
X55397707Y-24076248D01*
X55646345Y-23767938D01*
X56749947Y-22693636D01*
X57319422Y-22280088D01*
X71380776Y-22280088D01*
X71637789Y-22490040D01*
X71955583Y-22585654D01*
X72105284Y-22586820D01*
X72181501Y-22428540D01*
X71968111Y-21901808D01*
X71441379Y-22115198D01*
X71380776Y-22280088D01*
X57319422Y-22280088D01*
X57659800Y-22032909D01*
X65060052Y-22032909D01*
X65084829Y-22206827D01*
X65410645Y-22269907D01*
X65735798Y-22203500D01*
X65868174Y-22133583D01*
X65860280Y-21958085D01*
X65678357Y-21807273D01*
X71189229Y-21807273D01*
X71347509Y-21883490D01*
X71534001Y-21807938D01*
X72199819Y-21807938D01*
X72413209Y-22334670D01*
X72578099Y-22395273D01*
X72788051Y-22138260D01*
X72883665Y-21820466D01*
X72884831Y-21670765D01*
X72726551Y-21594548D01*
X72199819Y-21807938D01*
X71534001Y-21807938D01*
X71874241Y-21670100D01*
X71660851Y-21143368D01*
X71495961Y-21082765D01*
X71286009Y-21339778D01*
X71190395Y-21657572D01*
X71189229Y-21807273D01*
X65678357Y-21807273D01*
X65422754Y-21595383D01*
X65060052Y-22032909D01*
X57659800Y-22032909D01*
X58498680Y-21423722D01*
X64555764Y-21423722D01*
X64622171Y-21748875D01*
X64692088Y-21881251D01*
X64867586Y-21873357D01*
X65230288Y-21435831D01*
X65190584Y-21402917D01*
X65582306Y-21402917D01*
X66019832Y-21765619D01*
X66193750Y-21740842D01*
X66256830Y-21415026D01*
X66190423Y-21089873D01*
X66169099Y-21049498D01*
X71892559Y-21049498D01*
X72105949Y-21576230D01*
X72632681Y-21362840D01*
X72693284Y-21197950D01*
X72436271Y-20987998D01*
X72118477Y-20892384D01*
X71968776Y-20891218D01*
X71892559Y-21049498D01*
X66169099Y-21049498D01*
X66120506Y-20957497D01*
X65945008Y-20965391D01*
X65582306Y-21402917D01*
X65190584Y-21402917D01*
X64792762Y-21073129D01*
X64618844Y-21097906D01*
X64555764Y-21423722D01*
X58498680Y-21423722D01*
X59231372Y-20891648D01*
X59637330Y-20705165D01*
X64944420Y-20705165D01*
X64952314Y-20880663D01*
X65389840Y-21243365D01*
X65752542Y-20805839D01*
X65727765Y-20631921D01*
X65401949Y-20568841D01*
X65076796Y-20635248D01*
X64944420Y-20705165D01*
X59637330Y-20705165D01*
X62013928Y-19613441D01*
X64967221Y-18845585D01*
X67972731Y-18589377D01*
X70371969Y-18746705D01*
G36*
X85003562Y-50158407D02*
X84969762Y-50192207D01*
X85003562Y-50226007D01*
X84859562Y-50370007D01*
X84655698Y-50370007D01*
X84511698Y-50226007D01*
X84545498Y-50192207D01*
X84511698Y-50158407D01*
X84655698Y-50014407D01*
X84859562Y-50014407D01*
X85003562Y-50158407D01*
X85003562Y-50158407D01*
G37*
X85003562Y-50158407D02*
X84969762Y-50192207D01*
X85003562Y-50226007D01*
X84859562Y-50370007D01*
X84655698Y-50370007D01*
X84511698Y-50226007D01*
X84545498Y-50192207D01*
X84511698Y-50158407D01*
X84655698Y-50014407D01*
X84859562Y-50014407D01*
X85003562Y-50158407D01*
G36*
X50266772Y-50158407D02*
X50232972Y-50192207D01*
X50266772Y-50226007D01*
X50122772Y-50370007D01*
X49918908Y-50370007D01*
X49774908Y-50226007D01*
X49808708Y-50192207D01*
X49774908Y-50158407D01*
X49918908Y-50014407D01*
X50122772Y-50014407D01*
X50266772Y-50158407D01*
X50266772Y-50158407D01*
G37*
X50266772Y-50158407D02*
X50232972Y-50192207D01*
X50266772Y-50226007D01*
X50122772Y-50370007D01*
X49918908Y-50370007D01*
X49774908Y-50226007D01*
X49808708Y-50192207D01*
X49774908Y-50158407D01*
X49918908Y-50014407D01*
X50122772Y-50014407D01*
X50266772Y-50158407D01*
G36*
X85003562Y-46158407D02*
X84969762Y-46192207D01*
X85003562Y-46226007D01*
X84859562Y-46370007D01*
X84655698Y-46370007D01*
X84511698Y-46226007D01*
X84545498Y-46192207D01*
X84511698Y-46158407D01*
X84655698Y-46014407D01*
X84859562Y-46014407D01*
X85003562Y-46158407D01*
X85003562Y-46158407D01*
G37*
X85003562Y-46158407D02*
X84969762Y-46192207D01*
X85003562Y-46226007D01*
X84859562Y-46370007D01*
X84655698Y-46370007D01*
X84511698Y-46226007D01*
X84545498Y-46192207D01*
X84511698Y-46158407D01*
X84655698Y-46014407D01*
X84859562Y-46014407D01*
X85003562Y-46158407D01*
G36*
X50266772Y-46158407D02*
X50232972Y-46192207D01*
X50266772Y-46226007D01*
X50122772Y-46370007D01*
X49918908Y-46370007D01*
X49774908Y-46226007D01*
X49808708Y-46192207D01*
X49774908Y-46158407D01*
X49918908Y-46014407D01*
X50122772Y-46014407D01*
X50266772Y-46158407D01*
X50266772Y-46158407D01*
G37*
X50266772Y-46158407D02*
X50232972Y-46192207D01*
X50266772Y-46226007D01*
X50122772Y-46370007D01*
X49918908Y-46370007D01*
X49774908Y-46226007D01*
X49808708Y-46192207D01*
X49774908Y-46158407D01*
X49918908Y-46014407D01*
X50122772Y-46014407D01*
X50266772Y-46158407D01*
M02*
