G04 #@! TF.FileFunction,Copper,L2,Bot,Signal*
%FSLAX46Y46*%
G04 Gerber Fmt 4.6, Leading zero omitted, Abs format (unit mm)*
G04 Created by KiCad (PCBNEW 4.0.0-rc2-stable) date 3/3/2016 3:43:09 PM*
%MOMM*%
G01*
G04 APERTURE LIST*
%ADD10C,0.150000*%
%ADD11C,0.500000*%
%ADD12R,4.000000X1.000000*%
%ADD13C,0.600000*%
%ADD14R,0.760000X2.000000*%
%ADD15R,0.740000X2.000000*%
%ADD16R,0.900000X0.600000*%
%ADD17R,0.900000X0.200000*%
%ADD18R,3.800000X0.200000*%
%ADD19R,6.500000X0.200000*%
%ADD20R,0.200000X0.400000*%
%ADD21R,0.200000X0.800000*%
%ADD22R,2.000000X0.200000*%
%ADD23C,0.254000*%
%ADD24C,0.152400*%
G04 APERTURE END LIST*
D10*
D11*
X60344450Y-46480200D03*
X66358564Y-46230177D03*
X71127285Y-43574162D03*
X73924188Y-38667619D03*
X74320387Y-32974128D03*
X72328099Y-27694959D03*
X67945792Y-24231112D03*
X62206598Y-23397147D03*
X56561446Y-21601164D03*
X56561446Y-27803728D03*
X56561446Y-34006285D03*
X56561446Y-40208850D03*
X56561446Y-46411410D03*
D12*
X81795990Y-50192207D03*
X81795990Y-48192207D03*
X81795990Y-46192207D03*
D13*
X80795990Y-50192207D03*
X80795990Y-48192207D03*
X80795990Y-46192207D03*
D12*
X49020844Y-46192207D03*
X49020844Y-48192207D03*
X49020844Y-50192207D03*
D13*
X50020844Y-46192207D03*
X50020844Y-48192207D03*
X50020844Y-50192207D03*
D10*
G36*
X76078253Y-29451298D02*
X73342980Y-30683485D01*
X72275085Y-28312916D01*
X75010358Y-27080729D01*
X76078253Y-29451298D01*
X76078253Y-29451298D01*
G37*
G36*
X56772006Y-38696775D02*
X54036734Y-39928962D01*
X52558110Y-36646635D01*
X55293382Y-35414448D01*
X56772006Y-38696775D01*
X56772006Y-38696775D01*
G37*
D11*
X52932719Y-38452089D03*
D14*
X74684950Y-49755987D03*
X75954950Y-49755987D03*
X77224950Y-49755987D03*
X78494950Y-49755987D03*
X74684950Y-46555987D03*
X75954950Y-46555987D03*
X77224950Y-46555987D03*
D15*
X78494950Y-46555987D03*
D16*
X73489950Y-45855987D03*
X73489950Y-47355987D03*
X72239950Y-47355987D03*
X72239950Y-45855987D03*
X70989950Y-45855987D03*
X70989950Y-47355987D03*
D17*
X74139950Y-47305987D03*
D18*
X74139950Y-47955987D03*
D19*
X74139950Y-48405987D03*
D20*
X72339950Y-47755987D03*
X75939950Y-47755987D03*
D21*
X77289950Y-47955987D03*
X70989950Y-47955987D03*
D22*
X72289950Y-45855987D03*
D23*
X54670000Y-37670000D02*
X52930000Y-38450000D01*
X54670000Y-37670000D02*
X52930000Y-38450000D01*
X54670000Y-37670000D02*
X52930000Y-38450000D01*
X54670000Y-37670000D02*
X52930000Y-38450000D01*
X54670000Y-37670000D02*
X52930000Y-38450000D01*
X54670000Y-37670000D02*
X52930000Y-38450000D01*
X54670000Y-37670000D02*
X52930000Y-38450000D01*
X54670000Y-37670000D02*
X52930000Y-38450000D01*
X54670000Y-37670000D02*
X52930000Y-38450000D01*
X74180000Y-28880000D02*
X72290000Y-45860000D01*
X74180000Y-28880000D02*
X72290000Y-45860000D01*
X74180000Y-28880000D02*
X72290000Y-45860000D01*
X74180000Y-28880000D02*
X72290000Y-45860000D01*
X74180000Y-28880000D02*
X72290000Y-45860000D01*
X74180000Y-28880000D02*
X72290000Y-45860000D01*
X74180000Y-28880000D02*
X72290000Y-45860000D01*
X74180000Y-28880000D02*
X72290000Y-45860000D01*
X74180000Y-28880000D02*
X72290000Y-45860000D01*
D24*
G36*
X65443352Y-19087653D02*
X67205289Y-19343577D01*
X68854113Y-19765597D01*
X70367106Y-20361033D01*
X73052252Y-21954416D01*
X75239091Y-23984352D01*
X76926960Y-26378772D01*
X78146093Y-29082493D01*
X78884285Y-31966363D01*
X79130447Y-34940000D01*
X78884285Y-37913637D01*
X78146093Y-40797507D01*
X76927103Y-43500911D01*
X75872685Y-44988923D01*
X75859952Y-45017426D01*
X75842607Y-45043384D01*
X75837993Y-45066579D01*
X75828346Y-45088174D01*
X75827490Y-45119384D01*
X75821400Y-45150000D01*
X75826014Y-45173194D01*
X75825365Y-45196837D01*
X75836517Y-45225997D01*
X75842607Y-45256616D01*
X75855746Y-45276280D01*
X75864194Y-45298370D01*
X75885656Y-45321042D01*
X75886903Y-45322909D01*
X75574950Y-45322909D01*
X75490236Y-45338849D01*
X75412432Y-45388915D01*
X75360235Y-45465307D01*
X75341872Y-45555987D01*
X75341872Y-47555987D01*
X75354464Y-47622909D01*
X75284476Y-47622909D01*
X75298028Y-47555987D01*
X75298028Y-45555987D01*
X75282088Y-45471273D01*
X75232022Y-45393469D01*
X75155630Y-45341272D01*
X75064950Y-45322909D01*
X74304950Y-45322909D01*
X74220236Y-45338849D01*
X74142432Y-45388915D01*
X74122687Y-45417813D01*
X74107022Y-45393469D01*
X74030630Y-45341272D01*
X73939950Y-45322909D01*
X73039950Y-45322909D01*
X72955236Y-45338849D01*
X72877432Y-45388915D01*
X72865412Y-45406507D01*
X72857022Y-45393469D01*
X72780630Y-45341272D01*
X72707189Y-45326400D01*
X73375755Y-39319924D01*
X73449544Y-39393713D01*
X73468604Y-39374653D01*
X73715532Y-39492172D01*
X74046958Y-39509256D01*
X74192619Y-39474694D01*
X74228899Y-39302806D01*
X73896071Y-38842145D01*
X73851317Y-38874480D01*
X73672573Y-38695736D01*
X74098714Y-38695736D01*
X74431542Y-39156396D01*
X74606126Y-39175935D01*
X74748741Y-38876275D01*
X74765825Y-38544849D01*
X74731263Y-38399188D01*
X74559375Y-38362908D01*
X74098714Y-38695736D01*
X73672573Y-38695736D01*
X73672261Y-38695424D01*
X73749662Y-38639502D01*
X73717327Y-38594748D01*
X73896383Y-38415692D01*
X73952305Y-38493093D01*
X74412965Y-38160265D01*
X74432504Y-37985681D01*
X74132844Y-37843066D01*
X73801418Y-37825982D01*
X73655757Y-37860544D01*
X73619477Y-38032432D01*
X73825230Y-38317211D01*
X73521204Y-38013185D01*
X74008043Y-33639352D01*
X74088466Y-33639352D01*
X74143701Y-33806118D01*
X74475539Y-33810401D01*
X74783757Y-33687369D01*
X74901631Y-33595079D01*
X74862731Y-33423765D01*
X74367805Y-33144426D01*
X74088466Y-33639352D01*
X74008043Y-33639352D01*
X74020748Y-33525217D01*
X74306246Y-33239719D01*
X74127715Y-33061188D01*
X74150089Y-33021546D01*
X74081142Y-32982632D01*
X74087278Y-32927505D01*
X74088073Y-32926710D01*
X74490685Y-32926710D01*
X74985611Y-33206049D01*
X75152377Y-33150814D01*
X75156660Y-32818976D01*
X75033628Y-32510758D01*
X74941338Y-32392884D01*
X74770024Y-32431784D01*
X74490685Y-32926710D01*
X74088073Y-32926710D01*
X74233327Y-32781456D01*
X74272969Y-32803830D01*
X74552308Y-32308904D01*
X74497073Y-32142138D01*
X74175158Y-32137983D01*
X74359574Y-30481166D01*
X76173985Y-29663809D01*
X76244676Y-29614481D01*
X76295052Y-29536876D01*
X76311266Y-29445787D01*
X76290764Y-29355566D01*
X75222869Y-26984997D01*
X75173541Y-26914306D01*
X75095936Y-26863930D01*
X75004847Y-26847716D01*
X74914626Y-26868218D01*
X72788510Y-27825992D01*
X72709549Y-27824959D01*
X72593690Y-27709100D01*
X72480823Y-27821967D01*
X72451453Y-27821583D01*
X72451059Y-27851731D01*
X72342240Y-27960550D01*
X72388071Y-28006381D01*
X72197894Y-28092052D01*
X72201475Y-27818313D01*
X71633208Y-27810881D01*
X71513436Y-27939396D01*
X71668991Y-28232548D01*
X71924889Y-28443856D01*
X72062438Y-28502950D01*
X72092915Y-28476001D01*
X73130469Y-30779217D01*
X73179797Y-30849908D01*
X73257402Y-30900284D01*
X73348491Y-30916498D01*
X73438712Y-30895996D01*
X73606208Y-30820543D01*
X71991987Y-45322909D01*
X71789950Y-45322909D01*
X71705236Y-45338849D01*
X71627432Y-45388915D01*
X71615412Y-45406507D01*
X71607022Y-45393469D01*
X71530630Y-45341272D01*
X71439950Y-45322909D01*
X70539950Y-45322909D01*
X70455236Y-45338849D01*
X70377432Y-45388915D01*
X70325235Y-45465307D01*
X70306872Y-45555987D01*
X70306872Y-46155987D01*
X70322812Y-46240701D01*
X70372878Y-46318505D01*
X70449270Y-46370702D01*
X70539950Y-46389065D01*
X71439950Y-46389065D01*
X71524664Y-46373125D01*
X71602468Y-46323059D01*
X71614488Y-46305467D01*
X71622878Y-46318505D01*
X71699270Y-46370702D01*
X71789950Y-46389065D01*
X72689950Y-46389065D01*
X72774664Y-46373125D01*
X72852468Y-46323059D01*
X72864488Y-46305467D01*
X72872878Y-46318505D01*
X72949270Y-46370702D01*
X73039950Y-46389065D01*
X73939950Y-46389065D01*
X74024664Y-46373125D01*
X74071872Y-46342747D01*
X74071872Y-46869452D01*
X74030630Y-46841272D01*
X73939950Y-46822909D01*
X73039950Y-46822909D01*
X72955236Y-46838849D01*
X72877432Y-46888915D01*
X72865412Y-46906507D01*
X72857022Y-46893469D01*
X72780630Y-46841272D01*
X72689950Y-46822909D01*
X71789950Y-46822909D01*
X71705236Y-46838849D01*
X71627432Y-46888915D01*
X71615412Y-46906507D01*
X71607022Y-46893469D01*
X71530630Y-46841272D01*
X71439950Y-46822909D01*
X70539950Y-46822909D01*
X70455236Y-46838849D01*
X70377432Y-46888915D01*
X70325235Y-46965307D01*
X70306872Y-47055987D01*
X70306872Y-47655987D01*
X70322812Y-47740701D01*
X70372878Y-47818505D01*
X70449270Y-47870702D01*
X70539950Y-47889065D01*
X70656872Y-47889065D01*
X70656872Y-48505987D01*
X70672812Y-48590701D01*
X70722878Y-48668505D01*
X70799270Y-48720702D01*
X70889950Y-48739065D01*
X73720750Y-48739065D01*
X73720750Y-49432137D01*
X73866800Y-49578187D01*
X74507150Y-49578187D01*
X74507150Y-49558187D01*
X74862750Y-49558187D01*
X74862750Y-49578187D01*
X75777150Y-49578187D01*
X75777150Y-49558187D01*
X76132750Y-49558187D01*
X76132750Y-49578187D01*
X77047150Y-49578187D01*
X77047150Y-49558187D01*
X77402750Y-49558187D01*
X77402750Y-49578187D01*
X78317150Y-49578187D01*
X78317150Y-48317837D01*
X78171100Y-48171787D01*
X77998745Y-48171787D01*
X77859950Y-48229278D01*
X77721155Y-48171787D01*
X77623028Y-48171787D01*
X77623028Y-47785663D01*
X77689664Y-47773125D01*
X77767468Y-47723059D01*
X77819665Y-47646667D01*
X77838028Y-47555987D01*
X77838028Y-45555987D01*
X77822088Y-45471273D01*
X77794628Y-45428600D01*
X77935316Y-45428600D01*
X77910235Y-45465307D01*
X77891872Y-45555987D01*
X77891872Y-47555987D01*
X77907812Y-47640701D01*
X77957878Y-47718505D01*
X78034270Y-47770702D01*
X78124950Y-47789065D01*
X78864950Y-47789065D01*
X78949664Y-47773125D01*
X79027468Y-47723059D01*
X79079665Y-47646667D01*
X79098028Y-47555987D01*
X79098028Y-45555987D01*
X79082088Y-45471273D01*
X79054628Y-45428600D01*
X79272846Y-45428600D01*
X79211790Y-45576002D01*
X79211790Y-45868357D01*
X79357840Y-46014407D01*
X79928070Y-46014407D01*
X79896578Y-46130540D01*
X79927372Y-46370007D01*
X79357840Y-46370007D01*
X79211790Y-46516057D01*
X79211790Y-46808412D01*
X79300729Y-47023130D01*
X79465068Y-47187468D01*
X79679786Y-47276407D01*
X81472140Y-47276407D01*
X81618190Y-47130357D01*
X81618190Y-46538605D01*
X81695402Y-46253874D01*
X81662036Y-45994407D01*
X81973790Y-45994407D01*
X81973790Y-46014407D01*
X81993790Y-46014407D01*
X81993790Y-46370007D01*
X81973790Y-46370007D01*
X81973790Y-47130357D01*
X82119840Y-47276407D01*
X83831400Y-47276407D01*
X83831400Y-47466300D01*
X83795990Y-47459129D01*
X79795990Y-47459129D01*
X79711276Y-47475069D01*
X79633472Y-47525135D01*
X79581275Y-47601527D01*
X79562912Y-47692207D01*
X79562912Y-48692207D01*
X79578852Y-48776921D01*
X79628918Y-48854725D01*
X79705310Y-48906922D01*
X79795990Y-48925285D01*
X83795990Y-48925285D01*
X83831400Y-48918622D01*
X83831400Y-49108007D01*
X82119840Y-49108007D01*
X81973790Y-49254057D01*
X81973790Y-50014407D01*
X81993790Y-50014407D01*
X81993790Y-50370007D01*
X81973790Y-50370007D01*
X81973790Y-50390007D01*
X81658486Y-50390007D01*
X81695402Y-50253874D01*
X81650537Y-49904990D01*
X81618190Y-49826897D01*
X81618190Y-49254057D01*
X81472140Y-49108007D01*
X79679786Y-49108007D01*
X79465068Y-49196946D01*
X79459150Y-49202864D01*
X79459150Y-48639783D01*
X79370211Y-48425065D01*
X79205873Y-48260726D01*
X78991155Y-48171787D01*
X78818800Y-48171787D01*
X78672750Y-48317837D01*
X78672750Y-49578187D01*
X78692750Y-49578187D01*
X78692750Y-49933787D01*
X78672750Y-49933787D01*
X78672750Y-49953787D01*
X78317150Y-49953787D01*
X78317150Y-49933787D01*
X77402750Y-49933787D01*
X77402750Y-49953787D01*
X77047150Y-49953787D01*
X77047150Y-49933787D01*
X76132750Y-49933787D01*
X76132750Y-49953787D01*
X75777150Y-49953787D01*
X75777150Y-49933787D01*
X74862750Y-49933787D01*
X74862750Y-49953787D01*
X74507150Y-49953787D01*
X74507150Y-49933787D01*
X73866800Y-49933787D01*
X73720750Y-50079837D01*
X73720750Y-50871400D01*
X63590000Y-50871400D01*
X63546200Y-50880112D01*
X63535985Y-50881400D01*
X51574811Y-50881400D01*
X51605044Y-50808412D01*
X51605044Y-50516057D01*
X51458994Y-50370007D01*
X50888764Y-50370007D01*
X50920256Y-50253874D01*
X50889462Y-50014407D01*
X51458994Y-50014407D01*
X51605044Y-49868357D01*
X51605044Y-49650000D01*
X52403800Y-49650000D01*
X52403800Y-49970000D01*
X52406622Y-49990546D01*
X52476622Y-50240546D01*
X52485210Y-50260108D01*
X52615210Y-50470108D01*
X52627594Y-50485318D01*
X52817594Y-50665318D01*
X52830064Y-50674896D01*
X52960064Y-50754896D01*
X53000000Y-50766200D01*
X53140000Y-50766200D01*
X53168300Y-50760750D01*
X53218300Y-50740750D01*
X53253019Y-50712837D01*
X53264720Y-50684944D01*
X53274720Y-50634944D01*
X53276200Y-50620000D01*
X53276200Y-50550000D01*
X53264423Y-50509305D01*
X53243515Y-50487447D01*
X53021831Y-50333232D01*
X52826903Y-50101175D01*
X52766200Y-49936409D01*
X52766200Y-49724221D01*
X52783833Y-49565524D01*
X53081115Y-49086037D01*
X53366463Y-48771170D01*
X53385041Y-48733242D01*
X53415041Y-48563242D01*
X53416200Y-48550000D01*
X53416200Y-48340000D01*
X53412290Y-48315903D01*
X53350957Y-48131904D01*
X53663824Y-48131904D01*
X53693811Y-49331394D01*
X53703800Y-50100528D01*
X53703800Y-50200000D01*
X53704837Y-50212527D01*
X53714837Y-50272527D01*
X53727388Y-50303430D01*
X53749217Y-50324368D01*
X53777473Y-50335163D01*
X53837473Y-50345163D01*
X53850000Y-50346200D01*
X53910000Y-50346200D01*
X53922527Y-50345163D01*
X53982527Y-50335163D01*
X54013430Y-50322612D01*
X54034368Y-50300783D01*
X54045163Y-50272527D01*
X54055163Y-50212527D01*
X54056158Y-50197461D01*
X54036173Y-49597915D01*
X54028138Y-49220274D01*
X54177473Y-49245163D01*
X54190000Y-49246200D01*
X54327041Y-49246200D01*
X54343872Y-49633310D01*
X54344536Y-49640565D01*
X54414536Y-50140565D01*
X54422999Y-50166295D01*
X54442398Y-50189502D01*
X54492398Y-50229502D01*
X54510354Y-50240197D01*
X54540000Y-50246200D01*
X54600000Y-50246200D01*
X54624097Y-50242290D01*
X54684097Y-50222290D01*
X54706775Y-50210154D01*
X54726493Y-50187217D01*
X54735734Y-50158415D01*
X54745734Y-50068415D01*
X54746036Y-50055005D01*
X54656036Y-48685005D01*
X54655509Y-48679761D01*
X54624365Y-48450071D01*
X54734468Y-48450071D01*
X54754468Y-48600071D01*
X54758388Y-48616041D01*
X54774161Y-48641850D01*
X55034161Y-48921850D01*
X55055922Y-48938155D01*
X55257165Y-49038777D01*
X55284003Y-49405561D01*
X55291845Y-49434078D01*
X55319507Y-49489402D01*
X55285826Y-49632547D01*
X55283800Y-49650000D01*
X55283800Y-50480000D01*
X55284837Y-50492527D01*
X55294837Y-50552527D01*
X55307388Y-50583430D01*
X55329217Y-50604368D01*
X55357473Y-50615163D01*
X55417473Y-50625163D01*
X55430000Y-50626200D01*
X55530000Y-50626200D01*
X55553600Y-50622453D01*
X55579929Y-50607563D01*
X55598391Y-50583602D01*
X55606076Y-50554347D01*
X55645960Y-49856385D01*
X55675734Y-49588415D01*
X55670039Y-49549983D01*
X55659901Y-49526327D01*
X55661816Y-49524556D01*
X55674280Y-49496996D01*
X55675041Y-49466758D01*
X55646200Y-49303326D01*
X55646200Y-48730000D01*
X55644720Y-48715056D01*
X55634720Y-48665056D01*
X55614621Y-48626868D01*
X55611153Y-48624498D01*
X55620323Y-48616558D01*
X55633684Y-48589421D01*
X55635434Y-48559224D01*
X55595434Y-48279224D01*
X55584181Y-48248924D01*
X55424485Y-47999398D01*
X55753802Y-47999398D01*
X55759571Y-48029090D01*
X55948168Y-48485694D01*
X56154314Y-49163030D01*
X56163848Y-49372774D01*
X56183829Y-50102087D01*
X56184732Y-50111884D01*
X56244732Y-50491884D01*
X56249011Y-50507695D01*
X56265379Y-50533132D01*
X56290354Y-50550197D01*
X56320000Y-50556200D01*
X56420000Y-50556200D01*
X56457806Y-50546160D01*
X56527806Y-50506160D01*
X56548047Y-50489366D01*
X56562680Y-50462893D01*
X56565860Y-50432813D01*
X56544666Y-50209087D01*
X56824344Y-50209087D01*
X56833840Y-50237806D01*
X56873840Y-50307806D01*
X56905922Y-50338155D01*
X57105922Y-50438155D01*
X57144227Y-50446083D01*
X57324227Y-50436083D01*
X57350570Y-50429799D01*
X57375318Y-50412406D01*
X57555318Y-50222406D01*
X57566252Y-50207645D01*
X57575678Y-50178903D01*
X57595678Y-50008903D01*
X57596023Y-50005183D01*
X57626023Y-49565183D01*
X57626184Y-49561555D01*
X57632255Y-49264073D01*
X57914031Y-49264073D01*
X57917710Y-49294097D01*
X57985756Y-49498235D01*
X58084772Y-50112134D01*
X58091845Y-50134078D01*
X58191845Y-50334078D01*
X58212650Y-50359703D01*
X58502650Y-50589703D01*
X58542418Y-50605822D01*
X58742418Y-50625822D01*
X58756899Y-50625887D01*
X58866899Y-50615887D01*
X58907217Y-50599808D01*
X59097217Y-50449808D01*
X59118155Y-50424078D01*
X59258155Y-50144078D01*
X59263823Y-50128885D01*
X59373823Y-49698885D01*
X59375734Y-49688415D01*
X59405734Y-49418415D01*
X59406200Y-49410000D01*
X59406200Y-49370000D01*
X59405678Y-49361097D01*
X59365678Y-49021097D01*
X59364083Y-49012165D01*
X59234083Y-48472165D01*
X59227785Y-48455191D01*
X59048904Y-48106843D01*
X60554108Y-48106843D01*
X60664108Y-49326843D01*
X60664538Y-49330579D01*
X60814538Y-50400579D01*
X60815826Y-50407453D01*
X60895826Y-50747453D01*
X60906395Y-50771962D01*
X60927732Y-50793402D01*
X60957732Y-50813402D01*
X60979950Y-50823515D01*
X61087904Y-50852957D01*
X61115903Y-50862290D01*
X61144794Y-50866049D01*
X61174004Y-50858192D01*
X61197855Y-50839590D01*
X61301042Y-50719205D01*
X61339961Y-50810017D01*
X61364214Y-50840910D01*
X61391519Y-50853925D01*
X61431519Y-50863925D01*
X61450000Y-50866200D01*
X61520000Y-50866200D01*
X61534944Y-50864720D01*
X61584944Y-50854720D01*
X61613016Y-50842897D01*
X61634098Y-50821206D01*
X61724098Y-50681206D01*
X61734532Y-50655858D01*
X61834532Y-50185858D01*
X61835976Y-50175844D01*
X61875976Y-49655844D01*
X61876200Y-49650000D01*
X61876200Y-48580000D01*
X62273800Y-48580000D01*
X62273800Y-49130000D01*
X62273845Y-49132626D01*
X62283845Y-49422626D01*
X62284228Y-49428061D01*
X62334228Y-49898061D01*
X62336732Y-49910934D01*
X62436732Y-50260934D01*
X62446598Y-50282268D01*
X62606598Y-50522268D01*
X62626302Y-50542425D01*
X62726302Y-50612425D01*
X62740354Y-50620197D01*
X62770000Y-50626200D01*
X62870000Y-50626200D01*
X62879451Y-50625612D01*
X62959451Y-50615612D01*
X62999221Y-50598170D01*
X63129221Y-50488170D01*
X63146611Y-50467006D01*
X63196611Y-50377006D01*
X63206171Y-50342105D01*
X63200989Y-50312305D01*
X63189133Y-50293880D01*
X63216359Y-50286966D01*
X63239548Y-50267544D01*
X63253354Y-50240631D01*
X63268596Y-50186436D01*
X63535017Y-50186436D01*
X63535647Y-50216677D01*
X63547994Y-50244290D01*
X63597994Y-50314290D01*
X63625922Y-50338155D01*
X63825922Y-50438155D01*
X63864475Y-50446069D01*
X64034475Y-50436069D01*
X64058673Y-50430599D01*
X64083882Y-50413882D01*
X64273882Y-50223882D01*
X64288335Y-50203717D01*
X64296069Y-50174475D01*
X64306055Y-50004718D01*
X64336023Y-49565183D01*
X64336184Y-49561555D01*
X64342255Y-49264073D01*
X64624031Y-49264073D01*
X64627710Y-49294097D01*
X64695756Y-49498235D01*
X64794772Y-50112134D01*
X64801845Y-50134078D01*
X64901845Y-50334078D01*
X64922650Y-50359703D01*
X65212650Y-50589703D01*
X65252418Y-50605822D01*
X65452418Y-50625822D01*
X65466899Y-50625887D01*
X65576899Y-50615887D01*
X65617217Y-50599808D01*
X65807217Y-50449808D01*
X65827169Y-50425983D01*
X65977169Y-50145983D01*
X65984219Y-50127260D01*
X66084219Y-49697260D01*
X66085734Y-49688415D01*
X66115734Y-49418415D01*
X66116200Y-49410000D01*
X66116200Y-49370000D01*
X66115905Y-49363302D01*
X66085905Y-49023302D01*
X66084083Y-49012165D01*
X65954083Y-48472165D01*
X65947034Y-48453766D01*
X65747034Y-48083766D01*
X65722268Y-48056598D01*
X65452268Y-47876598D01*
X65414753Y-47863948D01*
X65254753Y-47853948D01*
X65235056Y-47855280D01*
X65185056Y-47865280D01*
X65153035Y-47879994D01*
X65133389Y-47902994D01*
X65083389Y-47992994D01*
X65075049Y-48016259D01*
X65075608Y-48046502D01*
X65087889Y-48074144D01*
X65109957Y-48094831D01*
X65437691Y-48297255D01*
X65570909Y-48474878D01*
X65714171Y-48952421D01*
X65723800Y-49241279D01*
X65723800Y-49366004D01*
X65684883Y-49735715D01*
X65589461Y-50079233D01*
X65524851Y-50184226D01*
X65508893Y-50193800D01*
X65347913Y-50193800D01*
X65255769Y-50115832D01*
X65135343Y-49745292D01*
X65116200Y-49477287D01*
X65116200Y-49441564D01*
X65233882Y-49323882D01*
X65250197Y-49299646D01*
X65256200Y-49270000D01*
X65256200Y-49240000D01*
X65254720Y-49225056D01*
X65244720Y-49175056D01*
X65233605Y-49148038D01*
X65212268Y-49126598D01*
X65122268Y-49066598D01*
X65080000Y-49053800D01*
X64910000Y-49053800D01*
X64900549Y-49054388D01*
X64820549Y-49064388D01*
X64789090Y-49075713D01*
X64679090Y-49145713D01*
X64662781Y-49159677D01*
X64647710Y-49185903D01*
X64627710Y-49245903D01*
X64624031Y-49264073D01*
X64342255Y-49264073D01*
X64346184Y-49071555D01*
X64346200Y-49070000D01*
X64346200Y-48240000D01*
X64342290Y-48215903D01*
X64322290Y-48155903D01*
X64313980Y-48138612D01*
X64292837Y-48116981D01*
X64264944Y-48105280D01*
X64214944Y-48095280D01*
X64200000Y-48093800D01*
X64170000Y-48093800D01*
X64141700Y-48099250D01*
X64091700Y-48119250D01*
X64076243Y-48127616D01*
X64055420Y-48149555D01*
X64044772Y-48177866D01*
X63994772Y-48487866D01*
X63993845Y-48497374D01*
X63983845Y-48787374D01*
X63983800Y-48790000D01*
X63983800Y-49786645D01*
X63960228Y-50053800D01*
X63924747Y-50053800D01*
X63689451Y-50024388D01*
X63667795Y-50024784D01*
X63639494Y-50035458D01*
X63617575Y-50056302D01*
X63547575Y-50156302D01*
X63535017Y-50186436D01*
X63268596Y-50186436D01*
X63343354Y-49920631D01*
X63345806Y-49907735D01*
X63395806Y-49417735D01*
X63396131Y-49406760D01*
X63376131Y-48936760D01*
X63373652Y-48920460D01*
X63243652Y-48430460D01*
X63233402Y-48407732D01*
X63093402Y-48197732D01*
X63076782Y-48179851D01*
X62986782Y-48109851D01*
X62969646Y-48099803D01*
X62940000Y-48093800D01*
X62700000Y-48093800D01*
X62677271Y-48097269D01*
X62517271Y-48147269D01*
X62480774Y-48172055D01*
X62310774Y-48382055D01*
X62294468Y-48419929D01*
X62274468Y-48569929D01*
X62273800Y-48580000D01*
X61876200Y-48580000D01*
X61876200Y-48510000D01*
X61875678Y-48501097D01*
X61835678Y-48161097D01*
X61830989Y-48142305D01*
X61814621Y-48116868D01*
X61789646Y-48099803D01*
X61760000Y-48093800D01*
X61660000Y-48093800D01*
X61639506Y-48096608D01*
X61612567Y-48110363D01*
X61593102Y-48133516D01*
X61584178Y-48162418D01*
X61575344Y-48250755D01*
X61549961Y-48309983D01*
X61543917Y-48344227D01*
X61573858Y-48883170D01*
X61583800Y-49241072D01*
X61583800Y-49308223D01*
X61564001Y-49733904D01*
X61528220Y-50046991D01*
X61525840Y-50022601D01*
X61524720Y-50015056D01*
X61434720Y-49565056D01*
X61421537Y-49535060D01*
X61399205Y-49514659D01*
X61349205Y-49484659D01*
X61310000Y-49473800D01*
X61280000Y-49473800D01*
X61251700Y-49479250D01*
X61201700Y-49499250D01*
X61178363Y-49513964D01*
X61160630Y-49538468D01*
X61110630Y-49648468D01*
X61103800Y-49680000D01*
X61103800Y-49730000D01*
X61111845Y-49764078D01*
X61131162Y-49802712D01*
X61103236Y-49995403D01*
X61045898Y-49353223D01*
X61045640Y-49350776D01*
X60895640Y-48120776D01*
X60885341Y-48090795D01*
X60825341Y-47990795D01*
X60814621Y-47976868D01*
X60789646Y-47959803D01*
X60760000Y-47953800D01*
X60690000Y-47953800D01*
X60661700Y-47959250D01*
X60611700Y-47979250D01*
X60576981Y-48007163D01*
X60565280Y-48035056D01*
X60555280Y-48085056D01*
X60554108Y-48106843D01*
X59048904Y-48106843D01*
X59037785Y-48085191D01*
X59012268Y-48056598D01*
X58742268Y-47876598D01*
X58704753Y-47863948D01*
X58544753Y-47853948D01*
X58525056Y-47855280D01*
X58475056Y-47865280D01*
X58448038Y-47876395D01*
X58426598Y-47897732D01*
X58366598Y-47987732D01*
X58354878Y-48017225D01*
X58355827Y-48047458D01*
X58368463Y-48074940D01*
X58390795Y-48095341D01*
X58726881Y-48296993D01*
X58850947Y-48474229D01*
X59004195Y-48953130D01*
X59013800Y-49241279D01*
X59013800Y-49366004D01*
X58974883Y-49735715D01*
X58880024Y-50077206D01*
X58806704Y-50183114D01*
X58788893Y-50193800D01*
X58637913Y-50193800D01*
X58545065Y-50115237D01*
X58415739Y-49745731D01*
X58406200Y-49478652D01*
X58406200Y-49441564D01*
X58523882Y-49323882D01*
X58540197Y-49299646D01*
X58546200Y-49270000D01*
X58546200Y-49240000D01*
X58540750Y-49211700D01*
X58520750Y-49161700D01*
X58495720Y-49129040D01*
X58415720Y-49069040D01*
X58399646Y-49059803D01*
X58370000Y-49053800D01*
X58190000Y-49053800D01*
X58180549Y-49054388D01*
X58100549Y-49064388D01*
X58066302Y-49077575D01*
X57966302Y-49147575D01*
X57952781Y-49159677D01*
X57937710Y-49185903D01*
X57917710Y-49245903D01*
X57914031Y-49264073D01*
X57632255Y-49264073D01*
X57636184Y-49071555D01*
X57636200Y-49070000D01*
X57636200Y-48240000D01*
X57632290Y-48215903D01*
X57612290Y-48155903D01*
X57603980Y-48138612D01*
X57582837Y-48116981D01*
X57554944Y-48105280D01*
X57504944Y-48095280D01*
X57490000Y-48093800D01*
X57450000Y-48093800D01*
X57421700Y-48099250D01*
X57371700Y-48119250D01*
X57356243Y-48127616D01*
X57335420Y-48149555D01*
X57324772Y-48177866D01*
X57274772Y-48487866D01*
X57273800Y-48500000D01*
X57273800Y-49785534D01*
X57242239Y-50053800D01*
X57214747Y-50053800D01*
X56979451Y-50024388D01*
X56957795Y-50024784D01*
X56929494Y-50035458D01*
X56907575Y-50056302D01*
X56837575Y-50156302D01*
X56826769Y-50178937D01*
X56824344Y-50209087D01*
X56544666Y-50209087D01*
X56476030Y-49484603D01*
X56457717Y-49100047D01*
X56483882Y-49073882D01*
X56502559Y-49043274D01*
X56672559Y-48513274D01*
X56673652Y-48509540D01*
X56803652Y-48019540D01*
X56806200Y-48000000D01*
X56806200Y-47930000D01*
X56800989Y-47902305D01*
X56784621Y-47876868D01*
X56759646Y-47859803D01*
X56730000Y-47853800D01*
X56660000Y-47853800D01*
X56620795Y-47864659D01*
X56570795Y-47894659D01*
X56555834Y-47906404D01*
X56539250Y-47931700D01*
X56379250Y-48331700D01*
X56376580Y-48339606D01*
X56325433Y-48523733D01*
X56251019Y-48332382D01*
X56249426Y-48328593D01*
X56059426Y-47908593D01*
X56043882Y-47886118D01*
X55993882Y-47836118D01*
X55975016Y-47822322D01*
X55945927Y-47814031D01*
X55915903Y-47817710D01*
X55855903Y-47837710D01*
X55833035Y-47849994D01*
X55813389Y-47872994D01*
X55763389Y-47962994D01*
X55753802Y-47999398D01*
X55424485Y-47999398D01*
X55424181Y-47998924D01*
X55392224Y-47970949D01*
X55242224Y-47900949D01*
X55218415Y-47894266D01*
X55128415Y-47884266D01*
X55107473Y-47884837D01*
X55047473Y-47894837D01*
X55023511Y-47903104D01*
X54913511Y-47963104D01*
X54884055Y-47991821D01*
X54774055Y-48181821D01*
X54764499Y-48209704D01*
X54748821Y-48324675D01*
X54734499Y-48429704D01*
X54734468Y-48450071D01*
X54624365Y-48450071D01*
X54575509Y-48089761D01*
X54571134Y-48072680D01*
X54554901Y-48047157D01*
X54530017Y-48029961D01*
X54460017Y-47999961D01*
X54430000Y-47993800D01*
X54400000Y-47993800D01*
X54360791Y-48004662D01*
X54338460Y-48025064D01*
X54325826Y-48052547D01*
X54285826Y-48222547D01*
X54283800Y-48240000D01*
X54283800Y-48620000D01*
X54284322Y-48628903D01*
X54314310Y-48883800D01*
X54154675Y-48883800D01*
X54032823Y-48835059D01*
X54024996Y-48827232D01*
X54016144Y-48597071D01*
X54015587Y-48590351D01*
X53955587Y-48120351D01*
X53950989Y-48102305D01*
X53934621Y-48076868D01*
X53909646Y-48059803D01*
X53880000Y-48053800D01*
X53740000Y-48053800D01*
X53710539Y-48059726D01*
X53685519Y-48076724D01*
X53669084Y-48102118D01*
X53663824Y-48131904D01*
X53350957Y-48131904D01*
X53342290Y-48105903D01*
X53323882Y-48076118D01*
X53103882Y-47856118D01*
X53088124Y-47844023D01*
X53059451Y-47834388D01*
X52899451Y-47814388D01*
X52890000Y-47813800D01*
X52860000Y-47813800D01*
X52831700Y-47819250D01*
X52781700Y-47839250D01*
X52763035Y-47849994D01*
X52743389Y-47872994D01*
X52693389Y-47962994D01*
X52683800Y-48000000D01*
X52683800Y-48070000D01*
X52689011Y-48097695D01*
X52705379Y-48123132D01*
X52730354Y-48140197D01*
X52760000Y-48146200D01*
X52905220Y-48146200D01*
X52985005Y-48204225D01*
X53086433Y-48347914D01*
X53093152Y-48408386D01*
X53077387Y-48510856D01*
X52810970Y-48891452D01*
X52565073Y-49147185D01*
X52549590Y-49170865D01*
X52429590Y-49460865D01*
X52424388Y-49480549D01*
X52404388Y-49640549D01*
X52403800Y-49650000D01*
X51605044Y-49650000D01*
X51605044Y-49576002D01*
X51516105Y-49361284D01*
X51351766Y-49196946D01*
X51137048Y-49108007D01*
X49344694Y-49108007D01*
X49198644Y-49254057D01*
X49198644Y-49845809D01*
X49121432Y-50130540D01*
X49154798Y-50390007D01*
X48843044Y-50390007D01*
X48843044Y-50370007D01*
X48823044Y-50370007D01*
X48823044Y-50014407D01*
X48843044Y-50014407D01*
X48843044Y-49254057D01*
X48696994Y-49108007D01*
X46908600Y-49108007D01*
X46908600Y-48892188D01*
X46930164Y-48906922D01*
X47020844Y-48925285D01*
X51020844Y-48925285D01*
X51105558Y-48909345D01*
X51183362Y-48859279D01*
X51235559Y-48782887D01*
X51253922Y-48692207D01*
X51253922Y-47692207D01*
X51237982Y-47607493D01*
X51187916Y-47529689D01*
X51111524Y-47477492D01*
X51020844Y-47459129D01*
X47020844Y-47459129D01*
X46936130Y-47475069D01*
X46908600Y-47492784D01*
X46908600Y-47276407D01*
X48696994Y-47276407D01*
X48843044Y-47130357D01*
X48843044Y-46370007D01*
X48823044Y-46370007D01*
X48823044Y-46014407D01*
X48843044Y-46014407D01*
X48843044Y-45994407D01*
X49158348Y-45994407D01*
X49121432Y-46130540D01*
X49166297Y-46479424D01*
X49198644Y-46557517D01*
X49198644Y-47130357D01*
X49344694Y-47276407D01*
X51137048Y-47276407D01*
X51351766Y-47187468D01*
X51516105Y-47023130D01*
X51529808Y-46990046D01*
X56159587Y-46990046D01*
X56168065Y-47165516D01*
X56486593Y-47258654D01*
X56816517Y-47222806D01*
X56954827Y-47165516D01*
X56959981Y-47058836D01*
X59942591Y-47058836D01*
X59951069Y-47234306D01*
X60269597Y-47327444D01*
X60599521Y-47291596D01*
X60737831Y-47234306D01*
X60746309Y-47058836D01*
X60599429Y-46911956D01*
X66181115Y-46911956D01*
X66249635Y-47073717D01*
X66580736Y-47051192D01*
X66878012Y-46903674D01*
X66988050Y-46802167D01*
X66935444Y-46634554D01*
X66419578Y-46396090D01*
X66181115Y-46911956D01*
X60599429Y-46911956D01*
X60344450Y-46656977D01*
X59942591Y-47058836D01*
X56959981Y-47058836D01*
X56963305Y-46990046D01*
X56561446Y-46588187D01*
X56159587Y-46990046D01*
X51529808Y-46990046D01*
X51605044Y-46808412D01*
X51605044Y-46516057D01*
X51458994Y-46370007D01*
X50888764Y-46370007D01*
X50897834Y-46336557D01*
X55714202Y-46336557D01*
X55750050Y-46666481D01*
X55807340Y-46804791D01*
X55982810Y-46813269D01*
X56384669Y-46411410D01*
X56738223Y-46411410D01*
X57140082Y-46813269D01*
X57315552Y-46804791D01*
X57408690Y-46486263D01*
X57399899Y-46405347D01*
X59497206Y-46405347D01*
X59533054Y-46735271D01*
X59590344Y-46873581D01*
X59765814Y-46882059D01*
X60167673Y-46480200D01*
X60521227Y-46480200D01*
X60923086Y-46882059D01*
X61098556Y-46873581D01*
X61191694Y-46555053D01*
X61155846Y-46225129D01*
X61112817Y-46121248D01*
X65515024Y-46121248D01*
X65537549Y-46452349D01*
X65685067Y-46749625D01*
X65786574Y-46859663D01*
X65954187Y-46807057D01*
X66192651Y-46291191D01*
X65928669Y-46169163D01*
X66524477Y-46169163D01*
X67040343Y-46407626D01*
X67202104Y-46339106D01*
X67179579Y-46008005D01*
X67032061Y-45710729D01*
X66930554Y-45600691D01*
X66762941Y-45653297D01*
X66524477Y-46169163D01*
X65928669Y-46169163D01*
X65676785Y-46052728D01*
X65515024Y-46121248D01*
X61112817Y-46121248D01*
X61098556Y-46086819D01*
X60923086Y-46078341D01*
X60521227Y-46480200D01*
X60167673Y-46480200D01*
X59765814Y-46078341D01*
X59590344Y-46086819D01*
X59497206Y-46405347D01*
X57399899Y-46405347D01*
X57372842Y-46156339D01*
X57315552Y-46018029D01*
X57140082Y-46009551D01*
X56738223Y-46411410D01*
X56384669Y-46411410D01*
X55982810Y-46009551D01*
X55807340Y-46018029D01*
X55714202Y-46336557D01*
X50897834Y-46336557D01*
X50920256Y-46253874D01*
X50889462Y-46014407D01*
X51458994Y-46014407D01*
X51605044Y-45868357D01*
X51605044Y-45832774D01*
X56159587Y-45832774D01*
X56561446Y-46234633D01*
X56894515Y-45901564D01*
X59942591Y-45901564D01*
X60344450Y-46303423D01*
X60746309Y-45901564D01*
X60737831Y-45726094D01*
X60505592Y-45658187D01*
X65729078Y-45658187D01*
X65781684Y-45825800D01*
X66297550Y-46064264D01*
X66536013Y-45548398D01*
X66467493Y-45386637D01*
X66136392Y-45409162D01*
X65839116Y-45556680D01*
X65729078Y-45658187D01*
X60505592Y-45658187D01*
X60419303Y-45632956D01*
X60089379Y-45668804D01*
X59951069Y-45726094D01*
X59942591Y-45901564D01*
X56894515Y-45901564D01*
X56963305Y-45832774D01*
X56954827Y-45657304D01*
X56636299Y-45564166D01*
X56306375Y-45600014D01*
X56168065Y-45657304D01*
X56159587Y-45832774D01*
X51605044Y-45832774D01*
X51605044Y-45576002D01*
X51516105Y-45361284D01*
X51511906Y-45357085D01*
X51527000Y-45347000D01*
X51587393Y-45256616D01*
X51608600Y-45150000D01*
X51608600Y-43944152D01*
X70361431Y-43944152D01*
X70561317Y-44209068D01*
X70847367Y-44377325D01*
X70992520Y-44413962D01*
X71104102Y-44278274D01*
X71021724Y-43715961D01*
X70459411Y-43798339D01*
X70361431Y-43944152D01*
X51608600Y-43944152D01*
X51608600Y-40787486D01*
X56159587Y-40787486D01*
X56168065Y-40962956D01*
X56486593Y-41056094D01*
X56816517Y-41020246D01*
X56954827Y-40962956D01*
X56963305Y-40787486D01*
X56561446Y-40385627D01*
X56159587Y-40787486D01*
X51608600Y-40787486D01*
X51608600Y-36652146D01*
X52325097Y-36652146D01*
X52345599Y-36742367D01*
X52900183Y-37973461D01*
X52837937Y-37973406D01*
X52661968Y-38046115D01*
X52527219Y-38180630D01*
X52454203Y-38356472D01*
X52454036Y-38546871D01*
X52526745Y-38722840D01*
X52661260Y-38857589D01*
X52837102Y-38930605D01*
X53027501Y-38930772D01*
X53203470Y-38858063D01*
X53269145Y-38792502D01*
X53824223Y-40024694D01*
X53873551Y-40095385D01*
X53951156Y-40145761D01*
X54042245Y-40161975D01*
X54132466Y-40141473D01*
X54149061Y-40133997D01*
X55714202Y-40133997D01*
X55750050Y-40463921D01*
X55807340Y-40602231D01*
X55982810Y-40610709D01*
X56384669Y-40208850D01*
X56738223Y-40208850D01*
X57140082Y-40610709D01*
X57315552Y-40602231D01*
X57408690Y-40283703D01*
X57372842Y-39953779D01*
X57315552Y-39815469D01*
X57140082Y-39806991D01*
X56738223Y-40208850D01*
X56384669Y-40208850D01*
X55982810Y-39806991D01*
X55807340Y-39815469D01*
X55714202Y-40133997D01*
X54149061Y-40133997D01*
X55267384Y-39630214D01*
X56159587Y-39630214D01*
X56561446Y-40032073D01*
X56963305Y-39630214D01*
X56954827Y-39454744D01*
X56636299Y-39361606D01*
X56306375Y-39397454D01*
X56168065Y-39454744D01*
X56159587Y-39630214D01*
X55267384Y-39630214D01*
X56867738Y-38909286D01*
X56938429Y-38859958D01*
X56988805Y-38782353D01*
X57005019Y-38691264D01*
X56984517Y-38601043D01*
X55505893Y-35318716D01*
X55456565Y-35248025D01*
X55378960Y-35197649D01*
X55287871Y-35181435D01*
X55197650Y-35201937D01*
X52462378Y-36434124D01*
X52391687Y-36483452D01*
X52341311Y-36561057D01*
X52325097Y-36652146D01*
X51608600Y-36652146D01*
X51608600Y-34584921D01*
X56159587Y-34584921D01*
X56168065Y-34760391D01*
X56486593Y-34853529D01*
X56816517Y-34817681D01*
X56954827Y-34760391D01*
X56963305Y-34584921D01*
X56561446Y-34183062D01*
X56159587Y-34584921D01*
X51608600Y-34584921D01*
X51608600Y-33931432D01*
X55714202Y-33931432D01*
X55750050Y-34261356D01*
X55807340Y-34399666D01*
X55982810Y-34408144D01*
X56384669Y-34006285D01*
X56738223Y-34006285D01*
X57140082Y-34408144D01*
X57315552Y-34399666D01*
X57408690Y-34081138D01*
X57372842Y-33751214D01*
X57315552Y-33612904D01*
X57140082Y-33604426D01*
X56738223Y-34006285D01*
X56384669Y-34006285D01*
X55982810Y-33604426D01*
X55807340Y-33612904D01*
X55714202Y-33931432D01*
X51608600Y-33931432D01*
X51608600Y-33427649D01*
X56159587Y-33427649D01*
X56561446Y-33829508D01*
X56963305Y-33427649D01*
X56954827Y-33252179D01*
X56636299Y-33159041D01*
X56306375Y-33194889D01*
X56168065Y-33252179D01*
X56159587Y-33427649D01*
X51608600Y-33427649D01*
X51608600Y-28382364D01*
X56159587Y-28382364D01*
X56168065Y-28557834D01*
X56486593Y-28650972D01*
X56816517Y-28615124D01*
X56954827Y-28557834D01*
X56963305Y-28382364D01*
X56561446Y-27980505D01*
X56159587Y-28382364D01*
X51608600Y-28382364D01*
X51608600Y-27728875D01*
X55714202Y-27728875D01*
X55750050Y-28058799D01*
X55807340Y-28197109D01*
X55982810Y-28205587D01*
X56384669Y-27803728D01*
X56738223Y-27803728D01*
X57140082Y-28205587D01*
X57315552Y-28197109D01*
X57408690Y-27878581D01*
X57372842Y-27548657D01*
X57315552Y-27410347D01*
X57140082Y-27401869D01*
X56738223Y-27803728D01*
X56384669Y-27803728D01*
X55982810Y-27401869D01*
X55807340Y-27410347D01*
X55714202Y-27728875D01*
X51608600Y-27728875D01*
X51608600Y-27225092D01*
X56159587Y-27225092D01*
X56561446Y-27626951D01*
X56963305Y-27225092D01*
X56954827Y-27049622D01*
X56636299Y-26956484D01*
X56306375Y-26992332D01*
X56168065Y-27049622D01*
X56159587Y-27225092D01*
X51608600Y-27225092D01*
X51608600Y-26280000D01*
X59341400Y-26280000D01*
X59341400Y-43600000D01*
X59362607Y-43706616D01*
X59423000Y-43797000D01*
X59513384Y-43857393D01*
X59620000Y-43878600D01*
X63560000Y-43878600D01*
X63568850Y-43876840D01*
X63577794Y-43878031D01*
X64827794Y-43798031D01*
X64846358Y-43793088D01*
X64865567Y-43793002D01*
X65422111Y-43679723D01*
X71269084Y-43679723D01*
X71351462Y-44242036D01*
X71497275Y-44340016D01*
X71762191Y-44140130D01*
X71930448Y-43854080D01*
X71967085Y-43708927D01*
X71831397Y-43597345D01*
X71269084Y-43679723D01*
X65422111Y-43679723D01*
X65995567Y-43563002D01*
X66017888Y-43553640D01*
X66041713Y-43549369D01*
X66322141Y-43439397D01*
X70287485Y-43439397D01*
X70423173Y-43550979D01*
X70985486Y-43468601D01*
X70903108Y-42906288D01*
X70849179Y-42870050D01*
X71150468Y-42870050D01*
X71232846Y-43432363D01*
X71795159Y-43349985D01*
X71893139Y-43204172D01*
X71693253Y-42939256D01*
X71407203Y-42770999D01*
X71262050Y-42734362D01*
X71150468Y-42870050D01*
X70849179Y-42870050D01*
X70757295Y-42808308D01*
X70492379Y-43008194D01*
X70324122Y-43294244D01*
X70287485Y-43439397D01*
X66322141Y-43439397D01*
X67061714Y-43149369D01*
X67082673Y-43135933D01*
X67106014Y-43127272D01*
X68016014Y-42567272D01*
X68037846Y-42547015D01*
X68062939Y-42530979D01*
X69562940Y-41090978D01*
X69583695Y-41061248D01*
X69608186Y-41034517D01*
X70688186Y-39254518D01*
X70699556Y-39223275D01*
X70715589Y-39194147D01*
X71355589Y-37174147D01*
X71358814Y-37145074D01*
X71367280Y-37117083D01*
X71577280Y-34967084D01*
X71574597Y-34940066D01*
X71577293Y-34913041D01*
X71367293Y-32753041D01*
X71358763Y-32724795D01*
X71355468Y-32695473D01*
X70715468Y-30685473D01*
X70699489Y-30656541D01*
X70688186Y-30625482D01*
X69608186Y-28845483D01*
X69583695Y-28818752D01*
X69562940Y-28789022D01*
X68294798Y-27571605D01*
X72454723Y-27571605D01*
X73022990Y-27579037D01*
X73142762Y-27450522D01*
X72987207Y-27157370D01*
X72731309Y-26946062D01*
X72593760Y-26886968D01*
X72462156Y-27003338D01*
X72454723Y-27571605D01*
X68294798Y-27571605D01*
X68146561Y-27429298D01*
X71520108Y-27429298D01*
X71636478Y-27560902D01*
X72204745Y-27568335D01*
X72212177Y-27000068D01*
X72083662Y-26880296D01*
X71790510Y-27035851D01*
X71579202Y-27291749D01*
X71520108Y-27429298D01*
X68146561Y-27429298D01*
X68062939Y-27349021D01*
X68037846Y-27332985D01*
X68016014Y-27312728D01*
X67106014Y-26752728D01*
X67082673Y-26744067D01*
X67061714Y-26730631D01*
X66041713Y-26330631D01*
X66017888Y-26326360D01*
X65995567Y-26316998D01*
X64865567Y-26086998D01*
X64846358Y-26086912D01*
X64827794Y-26081969D01*
X63577794Y-26001969D01*
X63568850Y-26003160D01*
X63560000Y-26001400D01*
X59620000Y-26001400D01*
X59513384Y-26022607D01*
X59423000Y-26083000D01*
X59362607Y-26173384D01*
X59341400Y-26280000D01*
X51608600Y-26280000D01*
X51608600Y-24803487D01*
X67316657Y-24803487D01*
X67583585Y-25000678D01*
X67905657Y-25080708D01*
X68055237Y-25074585D01*
X68123659Y-24912782D01*
X67884879Y-24397063D01*
X67369160Y-24635842D01*
X67316657Y-24803487D01*
X51608600Y-24803487D01*
X51608600Y-23975780D01*
X61804735Y-23975780D01*
X61813212Y-24151251D01*
X62131740Y-24244391D01*
X62461664Y-24208544D01*
X62504075Y-24190977D01*
X67096196Y-24190977D01*
X67102319Y-24340557D01*
X67264122Y-24408979D01*
X67516720Y-24292025D01*
X68111743Y-24292025D01*
X68350522Y-24807744D01*
X68518167Y-24860247D01*
X68715358Y-24593319D01*
X68795388Y-24271247D01*
X68789265Y-24121667D01*
X68627462Y-24053245D01*
X68111743Y-24292025D01*
X67516720Y-24292025D01*
X67779841Y-24170199D01*
X67541062Y-23654480D01*
X67373417Y-23601977D01*
X67176226Y-23868905D01*
X67096196Y-24190977D01*
X62504075Y-24190977D01*
X62599974Y-24151256D01*
X62608454Y-23975786D01*
X62206597Y-23573924D01*
X61804735Y-23975780D01*
X51608600Y-23975780D01*
X51608600Y-23322289D01*
X61359354Y-23322289D01*
X61395201Y-23652213D01*
X61452489Y-23790523D01*
X61627959Y-23799003D01*
X62029818Y-23397148D01*
X62383375Y-23397148D01*
X62785231Y-23799010D01*
X62960702Y-23790533D01*
X63031198Y-23549442D01*
X67767925Y-23549442D01*
X68006705Y-24065161D01*
X68522424Y-23826382D01*
X68574927Y-23658737D01*
X68307999Y-23461546D01*
X67985927Y-23381516D01*
X67836347Y-23387639D01*
X67767925Y-23549442D01*
X63031198Y-23549442D01*
X63053842Y-23472005D01*
X63017995Y-23142081D01*
X62960707Y-23003771D01*
X62785237Y-22995291D01*
X62383375Y-23397148D01*
X62029818Y-23397148D01*
X62029821Y-23397146D01*
X61627965Y-22995284D01*
X61452494Y-23003761D01*
X61359354Y-23322289D01*
X51608600Y-23322289D01*
X51608600Y-22818508D01*
X61804742Y-22818508D01*
X62206599Y-23220370D01*
X62608461Y-22818514D01*
X62599984Y-22643043D01*
X62281456Y-22549903D01*
X61951532Y-22585750D01*
X61813222Y-22643038D01*
X61804742Y-22818508D01*
X51608600Y-22818508D01*
X51608600Y-22179800D01*
X56159587Y-22179800D01*
X56168065Y-22355270D01*
X56486593Y-22448408D01*
X56816517Y-22412560D01*
X56954827Y-22355270D01*
X56963305Y-22179800D01*
X56561446Y-21777941D01*
X56159587Y-22179800D01*
X51608600Y-22179800D01*
X51608600Y-21526311D01*
X55714202Y-21526311D01*
X55750050Y-21856235D01*
X55807340Y-21994545D01*
X55982810Y-22003023D01*
X56384669Y-21601164D01*
X56738223Y-21601164D01*
X57140082Y-22003023D01*
X57315552Y-21994545D01*
X57408690Y-21676017D01*
X57372842Y-21346093D01*
X57315552Y-21207783D01*
X57140082Y-21199305D01*
X56738223Y-21601164D01*
X56384669Y-21601164D01*
X55982810Y-21199305D01*
X55807340Y-21207783D01*
X55714202Y-21526311D01*
X51608600Y-21526311D01*
X51608600Y-21022528D01*
X56159587Y-21022528D01*
X56561446Y-21424387D01*
X56963305Y-21022528D01*
X56954827Y-20847058D01*
X56636299Y-20753920D01*
X56306375Y-20789768D01*
X56168065Y-20847058D01*
X56159587Y-21022528D01*
X51608600Y-21022528D01*
X51608600Y-18998600D01*
X63553445Y-18998600D01*
X65443352Y-19087653D01*
X65443352Y-19087653D01*
G37*
X65443352Y-19087653D02*
X67205289Y-19343577D01*
X68854113Y-19765597D01*
X70367106Y-20361033D01*
X73052252Y-21954416D01*
X75239091Y-23984352D01*
X76926960Y-26378772D01*
X78146093Y-29082493D01*
X78884285Y-31966363D01*
X79130447Y-34940000D01*
X78884285Y-37913637D01*
X78146093Y-40797507D01*
X76927103Y-43500911D01*
X75872685Y-44988923D01*
X75859952Y-45017426D01*
X75842607Y-45043384D01*
X75837993Y-45066579D01*
X75828346Y-45088174D01*
X75827490Y-45119384D01*
X75821400Y-45150000D01*
X75826014Y-45173194D01*
X75825365Y-45196837D01*
X75836517Y-45225997D01*
X75842607Y-45256616D01*
X75855746Y-45276280D01*
X75864194Y-45298370D01*
X75885656Y-45321042D01*
X75886903Y-45322909D01*
X75574950Y-45322909D01*
X75490236Y-45338849D01*
X75412432Y-45388915D01*
X75360235Y-45465307D01*
X75341872Y-45555987D01*
X75341872Y-47555987D01*
X75354464Y-47622909D01*
X75284476Y-47622909D01*
X75298028Y-47555987D01*
X75298028Y-45555987D01*
X75282088Y-45471273D01*
X75232022Y-45393469D01*
X75155630Y-45341272D01*
X75064950Y-45322909D01*
X74304950Y-45322909D01*
X74220236Y-45338849D01*
X74142432Y-45388915D01*
X74122687Y-45417813D01*
X74107022Y-45393469D01*
X74030630Y-45341272D01*
X73939950Y-45322909D01*
X73039950Y-45322909D01*
X72955236Y-45338849D01*
X72877432Y-45388915D01*
X72865412Y-45406507D01*
X72857022Y-45393469D01*
X72780630Y-45341272D01*
X72707189Y-45326400D01*
X73375755Y-39319924D01*
X73449544Y-39393713D01*
X73468604Y-39374653D01*
X73715532Y-39492172D01*
X74046958Y-39509256D01*
X74192619Y-39474694D01*
X74228899Y-39302806D01*
X73896071Y-38842145D01*
X73851317Y-38874480D01*
X73672573Y-38695736D01*
X74098714Y-38695736D01*
X74431542Y-39156396D01*
X74606126Y-39175935D01*
X74748741Y-38876275D01*
X74765825Y-38544849D01*
X74731263Y-38399188D01*
X74559375Y-38362908D01*
X74098714Y-38695736D01*
X73672573Y-38695736D01*
X73672261Y-38695424D01*
X73749662Y-38639502D01*
X73717327Y-38594748D01*
X73896383Y-38415692D01*
X73952305Y-38493093D01*
X74412965Y-38160265D01*
X74432504Y-37985681D01*
X74132844Y-37843066D01*
X73801418Y-37825982D01*
X73655757Y-37860544D01*
X73619477Y-38032432D01*
X73825230Y-38317211D01*
X73521204Y-38013185D01*
X74008043Y-33639352D01*
X74088466Y-33639352D01*
X74143701Y-33806118D01*
X74475539Y-33810401D01*
X74783757Y-33687369D01*
X74901631Y-33595079D01*
X74862731Y-33423765D01*
X74367805Y-33144426D01*
X74088466Y-33639352D01*
X74008043Y-33639352D01*
X74020748Y-33525217D01*
X74306246Y-33239719D01*
X74127715Y-33061188D01*
X74150089Y-33021546D01*
X74081142Y-32982632D01*
X74087278Y-32927505D01*
X74088073Y-32926710D01*
X74490685Y-32926710D01*
X74985611Y-33206049D01*
X75152377Y-33150814D01*
X75156660Y-32818976D01*
X75033628Y-32510758D01*
X74941338Y-32392884D01*
X74770024Y-32431784D01*
X74490685Y-32926710D01*
X74088073Y-32926710D01*
X74233327Y-32781456D01*
X74272969Y-32803830D01*
X74552308Y-32308904D01*
X74497073Y-32142138D01*
X74175158Y-32137983D01*
X74359574Y-30481166D01*
X76173985Y-29663809D01*
X76244676Y-29614481D01*
X76295052Y-29536876D01*
X76311266Y-29445787D01*
X76290764Y-29355566D01*
X75222869Y-26984997D01*
X75173541Y-26914306D01*
X75095936Y-26863930D01*
X75004847Y-26847716D01*
X74914626Y-26868218D01*
X72788510Y-27825992D01*
X72709549Y-27824959D01*
X72593690Y-27709100D01*
X72480823Y-27821967D01*
X72451453Y-27821583D01*
X72451059Y-27851731D01*
X72342240Y-27960550D01*
X72388071Y-28006381D01*
X72197894Y-28092052D01*
X72201475Y-27818313D01*
X71633208Y-27810881D01*
X71513436Y-27939396D01*
X71668991Y-28232548D01*
X71924889Y-28443856D01*
X72062438Y-28502950D01*
X72092915Y-28476001D01*
X73130469Y-30779217D01*
X73179797Y-30849908D01*
X73257402Y-30900284D01*
X73348491Y-30916498D01*
X73438712Y-30895996D01*
X73606208Y-30820543D01*
X71991987Y-45322909D01*
X71789950Y-45322909D01*
X71705236Y-45338849D01*
X71627432Y-45388915D01*
X71615412Y-45406507D01*
X71607022Y-45393469D01*
X71530630Y-45341272D01*
X71439950Y-45322909D01*
X70539950Y-45322909D01*
X70455236Y-45338849D01*
X70377432Y-45388915D01*
X70325235Y-45465307D01*
X70306872Y-45555987D01*
X70306872Y-46155987D01*
X70322812Y-46240701D01*
X70372878Y-46318505D01*
X70449270Y-46370702D01*
X70539950Y-46389065D01*
X71439950Y-46389065D01*
X71524664Y-46373125D01*
X71602468Y-46323059D01*
X71614488Y-46305467D01*
X71622878Y-46318505D01*
X71699270Y-46370702D01*
X71789950Y-46389065D01*
X72689950Y-46389065D01*
X72774664Y-46373125D01*
X72852468Y-46323059D01*
X72864488Y-46305467D01*
X72872878Y-46318505D01*
X72949270Y-46370702D01*
X73039950Y-46389065D01*
X73939950Y-46389065D01*
X74024664Y-46373125D01*
X74071872Y-46342747D01*
X74071872Y-46869452D01*
X74030630Y-46841272D01*
X73939950Y-46822909D01*
X73039950Y-46822909D01*
X72955236Y-46838849D01*
X72877432Y-46888915D01*
X72865412Y-46906507D01*
X72857022Y-46893469D01*
X72780630Y-46841272D01*
X72689950Y-46822909D01*
X71789950Y-46822909D01*
X71705236Y-46838849D01*
X71627432Y-46888915D01*
X71615412Y-46906507D01*
X71607022Y-46893469D01*
X71530630Y-46841272D01*
X71439950Y-46822909D01*
X70539950Y-46822909D01*
X70455236Y-46838849D01*
X70377432Y-46888915D01*
X70325235Y-46965307D01*
X70306872Y-47055987D01*
X70306872Y-47655987D01*
X70322812Y-47740701D01*
X70372878Y-47818505D01*
X70449270Y-47870702D01*
X70539950Y-47889065D01*
X70656872Y-47889065D01*
X70656872Y-48505987D01*
X70672812Y-48590701D01*
X70722878Y-48668505D01*
X70799270Y-48720702D01*
X70889950Y-48739065D01*
X73720750Y-48739065D01*
X73720750Y-49432137D01*
X73866800Y-49578187D01*
X74507150Y-49578187D01*
X74507150Y-49558187D01*
X74862750Y-49558187D01*
X74862750Y-49578187D01*
X75777150Y-49578187D01*
X75777150Y-49558187D01*
X76132750Y-49558187D01*
X76132750Y-49578187D01*
X77047150Y-49578187D01*
X77047150Y-49558187D01*
X77402750Y-49558187D01*
X77402750Y-49578187D01*
X78317150Y-49578187D01*
X78317150Y-48317837D01*
X78171100Y-48171787D01*
X77998745Y-48171787D01*
X77859950Y-48229278D01*
X77721155Y-48171787D01*
X77623028Y-48171787D01*
X77623028Y-47785663D01*
X77689664Y-47773125D01*
X77767468Y-47723059D01*
X77819665Y-47646667D01*
X77838028Y-47555987D01*
X77838028Y-45555987D01*
X77822088Y-45471273D01*
X77794628Y-45428600D01*
X77935316Y-45428600D01*
X77910235Y-45465307D01*
X77891872Y-45555987D01*
X77891872Y-47555987D01*
X77907812Y-47640701D01*
X77957878Y-47718505D01*
X78034270Y-47770702D01*
X78124950Y-47789065D01*
X78864950Y-47789065D01*
X78949664Y-47773125D01*
X79027468Y-47723059D01*
X79079665Y-47646667D01*
X79098028Y-47555987D01*
X79098028Y-45555987D01*
X79082088Y-45471273D01*
X79054628Y-45428600D01*
X79272846Y-45428600D01*
X79211790Y-45576002D01*
X79211790Y-45868357D01*
X79357840Y-46014407D01*
X79928070Y-46014407D01*
X79896578Y-46130540D01*
X79927372Y-46370007D01*
X79357840Y-46370007D01*
X79211790Y-46516057D01*
X79211790Y-46808412D01*
X79300729Y-47023130D01*
X79465068Y-47187468D01*
X79679786Y-47276407D01*
X81472140Y-47276407D01*
X81618190Y-47130357D01*
X81618190Y-46538605D01*
X81695402Y-46253874D01*
X81662036Y-45994407D01*
X81973790Y-45994407D01*
X81973790Y-46014407D01*
X81993790Y-46014407D01*
X81993790Y-46370007D01*
X81973790Y-46370007D01*
X81973790Y-47130357D01*
X82119840Y-47276407D01*
X83831400Y-47276407D01*
X83831400Y-47466300D01*
X83795990Y-47459129D01*
X79795990Y-47459129D01*
X79711276Y-47475069D01*
X79633472Y-47525135D01*
X79581275Y-47601527D01*
X79562912Y-47692207D01*
X79562912Y-48692207D01*
X79578852Y-48776921D01*
X79628918Y-48854725D01*
X79705310Y-48906922D01*
X79795990Y-48925285D01*
X83795990Y-48925285D01*
X83831400Y-48918622D01*
X83831400Y-49108007D01*
X82119840Y-49108007D01*
X81973790Y-49254057D01*
X81973790Y-50014407D01*
X81993790Y-50014407D01*
X81993790Y-50370007D01*
X81973790Y-50370007D01*
X81973790Y-50390007D01*
X81658486Y-50390007D01*
X81695402Y-50253874D01*
X81650537Y-49904990D01*
X81618190Y-49826897D01*
X81618190Y-49254057D01*
X81472140Y-49108007D01*
X79679786Y-49108007D01*
X79465068Y-49196946D01*
X79459150Y-49202864D01*
X79459150Y-48639783D01*
X79370211Y-48425065D01*
X79205873Y-48260726D01*
X78991155Y-48171787D01*
X78818800Y-48171787D01*
X78672750Y-48317837D01*
X78672750Y-49578187D01*
X78692750Y-49578187D01*
X78692750Y-49933787D01*
X78672750Y-49933787D01*
X78672750Y-49953787D01*
X78317150Y-49953787D01*
X78317150Y-49933787D01*
X77402750Y-49933787D01*
X77402750Y-49953787D01*
X77047150Y-49953787D01*
X77047150Y-49933787D01*
X76132750Y-49933787D01*
X76132750Y-49953787D01*
X75777150Y-49953787D01*
X75777150Y-49933787D01*
X74862750Y-49933787D01*
X74862750Y-49953787D01*
X74507150Y-49953787D01*
X74507150Y-49933787D01*
X73866800Y-49933787D01*
X73720750Y-50079837D01*
X73720750Y-50871400D01*
X63590000Y-50871400D01*
X63546200Y-50880112D01*
X63535985Y-50881400D01*
X51574811Y-50881400D01*
X51605044Y-50808412D01*
X51605044Y-50516057D01*
X51458994Y-50370007D01*
X50888764Y-50370007D01*
X50920256Y-50253874D01*
X50889462Y-50014407D01*
X51458994Y-50014407D01*
X51605044Y-49868357D01*
X51605044Y-49650000D01*
X52403800Y-49650000D01*
X52403800Y-49970000D01*
X52406622Y-49990546D01*
X52476622Y-50240546D01*
X52485210Y-50260108D01*
X52615210Y-50470108D01*
X52627594Y-50485318D01*
X52817594Y-50665318D01*
X52830064Y-50674896D01*
X52960064Y-50754896D01*
X53000000Y-50766200D01*
X53140000Y-50766200D01*
X53168300Y-50760750D01*
X53218300Y-50740750D01*
X53253019Y-50712837D01*
X53264720Y-50684944D01*
X53274720Y-50634944D01*
X53276200Y-50620000D01*
X53276200Y-50550000D01*
X53264423Y-50509305D01*
X53243515Y-50487447D01*
X53021831Y-50333232D01*
X52826903Y-50101175D01*
X52766200Y-49936409D01*
X52766200Y-49724221D01*
X52783833Y-49565524D01*
X53081115Y-49086037D01*
X53366463Y-48771170D01*
X53385041Y-48733242D01*
X53415041Y-48563242D01*
X53416200Y-48550000D01*
X53416200Y-48340000D01*
X53412290Y-48315903D01*
X53350957Y-48131904D01*
X53663824Y-48131904D01*
X53693811Y-49331394D01*
X53703800Y-50100528D01*
X53703800Y-50200000D01*
X53704837Y-50212527D01*
X53714837Y-50272527D01*
X53727388Y-50303430D01*
X53749217Y-50324368D01*
X53777473Y-50335163D01*
X53837473Y-50345163D01*
X53850000Y-50346200D01*
X53910000Y-50346200D01*
X53922527Y-50345163D01*
X53982527Y-50335163D01*
X54013430Y-50322612D01*
X54034368Y-50300783D01*
X54045163Y-50272527D01*
X54055163Y-50212527D01*
X54056158Y-50197461D01*
X54036173Y-49597915D01*
X54028138Y-49220274D01*
X54177473Y-49245163D01*
X54190000Y-49246200D01*
X54327041Y-49246200D01*
X54343872Y-49633310D01*
X54344536Y-49640565D01*
X54414536Y-50140565D01*
X54422999Y-50166295D01*
X54442398Y-50189502D01*
X54492398Y-50229502D01*
X54510354Y-50240197D01*
X54540000Y-50246200D01*
X54600000Y-50246200D01*
X54624097Y-50242290D01*
X54684097Y-50222290D01*
X54706775Y-50210154D01*
X54726493Y-50187217D01*
X54735734Y-50158415D01*
X54745734Y-50068415D01*
X54746036Y-50055005D01*
X54656036Y-48685005D01*
X54655509Y-48679761D01*
X54624365Y-48450071D01*
X54734468Y-48450071D01*
X54754468Y-48600071D01*
X54758388Y-48616041D01*
X54774161Y-48641850D01*
X55034161Y-48921850D01*
X55055922Y-48938155D01*
X55257165Y-49038777D01*
X55284003Y-49405561D01*
X55291845Y-49434078D01*
X55319507Y-49489402D01*
X55285826Y-49632547D01*
X55283800Y-49650000D01*
X55283800Y-50480000D01*
X55284837Y-50492527D01*
X55294837Y-50552527D01*
X55307388Y-50583430D01*
X55329217Y-50604368D01*
X55357473Y-50615163D01*
X55417473Y-50625163D01*
X55430000Y-50626200D01*
X55530000Y-50626200D01*
X55553600Y-50622453D01*
X55579929Y-50607563D01*
X55598391Y-50583602D01*
X55606076Y-50554347D01*
X55645960Y-49856385D01*
X55675734Y-49588415D01*
X55670039Y-49549983D01*
X55659901Y-49526327D01*
X55661816Y-49524556D01*
X55674280Y-49496996D01*
X55675041Y-49466758D01*
X55646200Y-49303326D01*
X55646200Y-48730000D01*
X55644720Y-48715056D01*
X55634720Y-48665056D01*
X55614621Y-48626868D01*
X55611153Y-48624498D01*
X55620323Y-48616558D01*
X55633684Y-48589421D01*
X55635434Y-48559224D01*
X55595434Y-48279224D01*
X55584181Y-48248924D01*
X55424485Y-47999398D01*
X55753802Y-47999398D01*
X55759571Y-48029090D01*
X55948168Y-48485694D01*
X56154314Y-49163030D01*
X56163848Y-49372774D01*
X56183829Y-50102087D01*
X56184732Y-50111884D01*
X56244732Y-50491884D01*
X56249011Y-50507695D01*
X56265379Y-50533132D01*
X56290354Y-50550197D01*
X56320000Y-50556200D01*
X56420000Y-50556200D01*
X56457806Y-50546160D01*
X56527806Y-50506160D01*
X56548047Y-50489366D01*
X56562680Y-50462893D01*
X56565860Y-50432813D01*
X56544666Y-50209087D01*
X56824344Y-50209087D01*
X56833840Y-50237806D01*
X56873840Y-50307806D01*
X56905922Y-50338155D01*
X57105922Y-50438155D01*
X57144227Y-50446083D01*
X57324227Y-50436083D01*
X57350570Y-50429799D01*
X57375318Y-50412406D01*
X57555318Y-50222406D01*
X57566252Y-50207645D01*
X57575678Y-50178903D01*
X57595678Y-50008903D01*
X57596023Y-50005183D01*
X57626023Y-49565183D01*
X57626184Y-49561555D01*
X57632255Y-49264073D01*
X57914031Y-49264073D01*
X57917710Y-49294097D01*
X57985756Y-49498235D01*
X58084772Y-50112134D01*
X58091845Y-50134078D01*
X58191845Y-50334078D01*
X58212650Y-50359703D01*
X58502650Y-50589703D01*
X58542418Y-50605822D01*
X58742418Y-50625822D01*
X58756899Y-50625887D01*
X58866899Y-50615887D01*
X58907217Y-50599808D01*
X59097217Y-50449808D01*
X59118155Y-50424078D01*
X59258155Y-50144078D01*
X59263823Y-50128885D01*
X59373823Y-49698885D01*
X59375734Y-49688415D01*
X59405734Y-49418415D01*
X59406200Y-49410000D01*
X59406200Y-49370000D01*
X59405678Y-49361097D01*
X59365678Y-49021097D01*
X59364083Y-49012165D01*
X59234083Y-48472165D01*
X59227785Y-48455191D01*
X59048904Y-48106843D01*
X60554108Y-48106843D01*
X60664108Y-49326843D01*
X60664538Y-49330579D01*
X60814538Y-50400579D01*
X60815826Y-50407453D01*
X60895826Y-50747453D01*
X60906395Y-50771962D01*
X60927732Y-50793402D01*
X60957732Y-50813402D01*
X60979950Y-50823515D01*
X61087904Y-50852957D01*
X61115903Y-50862290D01*
X61144794Y-50866049D01*
X61174004Y-50858192D01*
X61197855Y-50839590D01*
X61301042Y-50719205D01*
X61339961Y-50810017D01*
X61364214Y-50840910D01*
X61391519Y-50853925D01*
X61431519Y-50863925D01*
X61450000Y-50866200D01*
X61520000Y-50866200D01*
X61534944Y-50864720D01*
X61584944Y-50854720D01*
X61613016Y-50842897D01*
X61634098Y-50821206D01*
X61724098Y-50681206D01*
X61734532Y-50655858D01*
X61834532Y-50185858D01*
X61835976Y-50175844D01*
X61875976Y-49655844D01*
X61876200Y-49650000D01*
X61876200Y-48580000D01*
X62273800Y-48580000D01*
X62273800Y-49130000D01*
X62273845Y-49132626D01*
X62283845Y-49422626D01*
X62284228Y-49428061D01*
X62334228Y-49898061D01*
X62336732Y-49910934D01*
X62436732Y-50260934D01*
X62446598Y-50282268D01*
X62606598Y-50522268D01*
X62626302Y-50542425D01*
X62726302Y-50612425D01*
X62740354Y-50620197D01*
X62770000Y-50626200D01*
X62870000Y-50626200D01*
X62879451Y-50625612D01*
X62959451Y-50615612D01*
X62999221Y-50598170D01*
X63129221Y-50488170D01*
X63146611Y-50467006D01*
X63196611Y-50377006D01*
X63206171Y-50342105D01*
X63200989Y-50312305D01*
X63189133Y-50293880D01*
X63216359Y-50286966D01*
X63239548Y-50267544D01*
X63253354Y-50240631D01*
X63268596Y-50186436D01*
X63535017Y-50186436D01*
X63535647Y-50216677D01*
X63547994Y-50244290D01*
X63597994Y-50314290D01*
X63625922Y-50338155D01*
X63825922Y-50438155D01*
X63864475Y-50446069D01*
X64034475Y-50436069D01*
X64058673Y-50430599D01*
X64083882Y-50413882D01*
X64273882Y-50223882D01*
X64288335Y-50203717D01*
X64296069Y-50174475D01*
X64306055Y-50004718D01*
X64336023Y-49565183D01*
X64336184Y-49561555D01*
X64342255Y-49264073D01*
X64624031Y-49264073D01*
X64627710Y-49294097D01*
X64695756Y-49498235D01*
X64794772Y-50112134D01*
X64801845Y-50134078D01*
X64901845Y-50334078D01*
X64922650Y-50359703D01*
X65212650Y-50589703D01*
X65252418Y-50605822D01*
X65452418Y-50625822D01*
X65466899Y-50625887D01*
X65576899Y-50615887D01*
X65617217Y-50599808D01*
X65807217Y-50449808D01*
X65827169Y-50425983D01*
X65977169Y-50145983D01*
X65984219Y-50127260D01*
X66084219Y-49697260D01*
X66085734Y-49688415D01*
X66115734Y-49418415D01*
X66116200Y-49410000D01*
X66116200Y-49370000D01*
X66115905Y-49363302D01*
X66085905Y-49023302D01*
X66084083Y-49012165D01*
X65954083Y-48472165D01*
X65947034Y-48453766D01*
X65747034Y-48083766D01*
X65722268Y-48056598D01*
X65452268Y-47876598D01*
X65414753Y-47863948D01*
X65254753Y-47853948D01*
X65235056Y-47855280D01*
X65185056Y-47865280D01*
X65153035Y-47879994D01*
X65133389Y-47902994D01*
X65083389Y-47992994D01*
X65075049Y-48016259D01*
X65075608Y-48046502D01*
X65087889Y-48074144D01*
X65109957Y-48094831D01*
X65437691Y-48297255D01*
X65570909Y-48474878D01*
X65714171Y-48952421D01*
X65723800Y-49241279D01*
X65723800Y-49366004D01*
X65684883Y-49735715D01*
X65589461Y-50079233D01*
X65524851Y-50184226D01*
X65508893Y-50193800D01*
X65347913Y-50193800D01*
X65255769Y-50115832D01*
X65135343Y-49745292D01*
X65116200Y-49477287D01*
X65116200Y-49441564D01*
X65233882Y-49323882D01*
X65250197Y-49299646D01*
X65256200Y-49270000D01*
X65256200Y-49240000D01*
X65254720Y-49225056D01*
X65244720Y-49175056D01*
X65233605Y-49148038D01*
X65212268Y-49126598D01*
X65122268Y-49066598D01*
X65080000Y-49053800D01*
X64910000Y-49053800D01*
X64900549Y-49054388D01*
X64820549Y-49064388D01*
X64789090Y-49075713D01*
X64679090Y-49145713D01*
X64662781Y-49159677D01*
X64647710Y-49185903D01*
X64627710Y-49245903D01*
X64624031Y-49264073D01*
X64342255Y-49264073D01*
X64346184Y-49071555D01*
X64346200Y-49070000D01*
X64346200Y-48240000D01*
X64342290Y-48215903D01*
X64322290Y-48155903D01*
X64313980Y-48138612D01*
X64292837Y-48116981D01*
X64264944Y-48105280D01*
X64214944Y-48095280D01*
X64200000Y-48093800D01*
X64170000Y-48093800D01*
X64141700Y-48099250D01*
X64091700Y-48119250D01*
X64076243Y-48127616D01*
X64055420Y-48149555D01*
X64044772Y-48177866D01*
X63994772Y-48487866D01*
X63993845Y-48497374D01*
X63983845Y-48787374D01*
X63983800Y-48790000D01*
X63983800Y-49786645D01*
X63960228Y-50053800D01*
X63924747Y-50053800D01*
X63689451Y-50024388D01*
X63667795Y-50024784D01*
X63639494Y-50035458D01*
X63617575Y-50056302D01*
X63547575Y-50156302D01*
X63535017Y-50186436D01*
X63268596Y-50186436D01*
X63343354Y-49920631D01*
X63345806Y-49907735D01*
X63395806Y-49417735D01*
X63396131Y-49406760D01*
X63376131Y-48936760D01*
X63373652Y-48920460D01*
X63243652Y-48430460D01*
X63233402Y-48407732D01*
X63093402Y-48197732D01*
X63076782Y-48179851D01*
X62986782Y-48109851D01*
X62969646Y-48099803D01*
X62940000Y-48093800D01*
X62700000Y-48093800D01*
X62677271Y-48097269D01*
X62517271Y-48147269D01*
X62480774Y-48172055D01*
X62310774Y-48382055D01*
X62294468Y-48419929D01*
X62274468Y-48569929D01*
X62273800Y-48580000D01*
X61876200Y-48580000D01*
X61876200Y-48510000D01*
X61875678Y-48501097D01*
X61835678Y-48161097D01*
X61830989Y-48142305D01*
X61814621Y-48116868D01*
X61789646Y-48099803D01*
X61760000Y-48093800D01*
X61660000Y-48093800D01*
X61639506Y-48096608D01*
X61612567Y-48110363D01*
X61593102Y-48133516D01*
X61584178Y-48162418D01*
X61575344Y-48250755D01*
X61549961Y-48309983D01*
X61543917Y-48344227D01*
X61573858Y-48883170D01*
X61583800Y-49241072D01*
X61583800Y-49308223D01*
X61564001Y-49733904D01*
X61528220Y-50046991D01*
X61525840Y-50022601D01*
X61524720Y-50015056D01*
X61434720Y-49565056D01*
X61421537Y-49535060D01*
X61399205Y-49514659D01*
X61349205Y-49484659D01*
X61310000Y-49473800D01*
X61280000Y-49473800D01*
X61251700Y-49479250D01*
X61201700Y-49499250D01*
X61178363Y-49513964D01*
X61160630Y-49538468D01*
X61110630Y-49648468D01*
X61103800Y-49680000D01*
X61103800Y-49730000D01*
X61111845Y-49764078D01*
X61131162Y-49802712D01*
X61103236Y-49995403D01*
X61045898Y-49353223D01*
X61045640Y-49350776D01*
X60895640Y-48120776D01*
X60885341Y-48090795D01*
X60825341Y-47990795D01*
X60814621Y-47976868D01*
X60789646Y-47959803D01*
X60760000Y-47953800D01*
X60690000Y-47953800D01*
X60661700Y-47959250D01*
X60611700Y-47979250D01*
X60576981Y-48007163D01*
X60565280Y-48035056D01*
X60555280Y-48085056D01*
X60554108Y-48106843D01*
X59048904Y-48106843D01*
X59037785Y-48085191D01*
X59012268Y-48056598D01*
X58742268Y-47876598D01*
X58704753Y-47863948D01*
X58544753Y-47853948D01*
X58525056Y-47855280D01*
X58475056Y-47865280D01*
X58448038Y-47876395D01*
X58426598Y-47897732D01*
X58366598Y-47987732D01*
X58354878Y-48017225D01*
X58355827Y-48047458D01*
X58368463Y-48074940D01*
X58390795Y-48095341D01*
X58726881Y-48296993D01*
X58850947Y-48474229D01*
X59004195Y-48953130D01*
X59013800Y-49241279D01*
X59013800Y-49366004D01*
X58974883Y-49735715D01*
X58880024Y-50077206D01*
X58806704Y-50183114D01*
X58788893Y-50193800D01*
X58637913Y-50193800D01*
X58545065Y-50115237D01*
X58415739Y-49745731D01*
X58406200Y-49478652D01*
X58406200Y-49441564D01*
X58523882Y-49323882D01*
X58540197Y-49299646D01*
X58546200Y-49270000D01*
X58546200Y-49240000D01*
X58540750Y-49211700D01*
X58520750Y-49161700D01*
X58495720Y-49129040D01*
X58415720Y-49069040D01*
X58399646Y-49059803D01*
X58370000Y-49053800D01*
X58190000Y-49053800D01*
X58180549Y-49054388D01*
X58100549Y-49064388D01*
X58066302Y-49077575D01*
X57966302Y-49147575D01*
X57952781Y-49159677D01*
X57937710Y-49185903D01*
X57917710Y-49245903D01*
X57914031Y-49264073D01*
X57632255Y-49264073D01*
X57636184Y-49071555D01*
X57636200Y-49070000D01*
X57636200Y-48240000D01*
X57632290Y-48215903D01*
X57612290Y-48155903D01*
X57603980Y-48138612D01*
X57582837Y-48116981D01*
X57554944Y-48105280D01*
X57504944Y-48095280D01*
X57490000Y-48093800D01*
X57450000Y-48093800D01*
X57421700Y-48099250D01*
X57371700Y-48119250D01*
X57356243Y-48127616D01*
X57335420Y-48149555D01*
X57324772Y-48177866D01*
X57274772Y-48487866D01*
X57273800Y-48500000D01*
X57273800Y-49785534D01*
X57242239Y-50053800D01*
X57214747Y-50053800D01*
X56979451Y-50024388D01*
X56957795Y-50024784D01*
X56929494Y-50035458D01*
X56907575Y-50056302D01*
X56837575Y-50156302D01*
X56826769Y-50178937D01*
X56824344Y-50209087D01*
X56544666Y-50209087D01*
X56476030Y-49484603D01*
X56457717Y-49100047D01*
X56483882Y-49073882D01*
X56502559Y-49043274D01*
X56672559Y-48513274D01*
X56673652Y-48509540D01*
X56803652Y-48019540D01*
X56806200Y-48000000D01*
X56806200Y-47930000D01*
X56800989Y-47902305D01*
X56784621Y-47876868D01*
X56759646Y-47859803D01*
X56730000Y-47853800D01*
X56660000Y-47853800D01*
X56620795Y-47864659D01*
X56570795Y-47894659D01*
X56555834Y-47906404D01*
X56539250Y-47931700D01*
X56379250Y-48331700D01*
X56376580Y-48339606D01*
X56325433Y-48523733D01*
X56251019Y-48332382D01*
X56249426Y-48328593D01*
X56059426Y-47908593D01*
X56043882Y-47886118D01*
X55993882Y-47836118D01*
X55975016Y-47822322D01*
X55945927Y-47814031D01*
X55915903Y-47817710D01*
X55855903Y-47837710D01*
X55833035Y-47849994D01*
X55813389Y-47872994D01*
X55763389Y-47962994D01*
X55753802Y-47999398D01*
X55424485Y-47999398D01*
X55424181Y-47998924D01*
X55392224Y-47970949D01*
X55242224Y-47900949D01*
X55218415Y-47894266D01*
X55128415Y-47884266D01*
X55107473Y-47884837D01*
X55047473Y-47894837D01*
X55023511Y-47903104D01*
X54913511Y-47963104D01*
X54884055Y-47991821D01*
X54774055Y-48181821D01*
X54764499Y-48209704D01*
X54748821Y-48324675D01*
X54734499Y-48429704D01*
X54734468Y-48450071D01*
X54624365Y-48450071D01*
X54575509Y-48089761D01*
X54571134Y-48072680D01*
X54554901Y-48047157D01*
X54530017Y-48029961D01*
X54460017Y-47999961D01*
X54430000Y-47993800D01*
X54400000Y-47993800D01*
X54360791Y-48004662D01*
X54338460Y-48025064D01*
X54325826Y-48052547D01*
X54285826Y-48222547D01*
X54283800Y-48240000D01*
X54283800Y-48620000D01*
X54284322Y-48628903D01*
X54314310Y-48883800D01*
X54154675Y-48883800D01*
X54032823Y-48835059D01*
X54024996Y-48827232D01*
X54016144Y-48597071D01*
X54015587Y-48590351D01*
X53955587Y-48120351D01*
X53950989Y-48102305D01*
X53934621Y-48076868D01*
X53909646Y-48059803D01*
X53880000Y-48053800D01*
X53740000Y-48053800D01*
X53710539Y-48059726D01*
X53685519Y-48076724D01*
X53669084Y-48102118D01*
X53663824Y-48131904D01*
X53350957Y-48131904D01*
X53342290Y-48105903D01*
X53323882Y-48076118D01*
X53103882Y-47856118D01*
X53088124Y-47844023D01*
X53059451Y-47834388D01*
X52899451Y-47814388D01*
X52890000Y-47813800D01*
X52860000Y-47813800D01*
X52831700Y-47819250D01*
X52781700Y-47839250D01*
X52763035Y-47849994D01*
X52743389Y-47872994D01*
X52693389Y-47962994D01*
X52683800Y-48000000D01*
X52683800Y-48070000D01*
X52689011Y-48097695D01*
X52705379Y-48123132D01*
X52730354Y-48140197D01*
X52760000Y-48146200D01*
X52905220Y-48146200D01*
X52985005Y-48204225D01*
X53086433Y-48347914D01*
X53093152Y-48408386D01*
X53077387Y-48510856D01*
X52810970Y-48891452D01*
X52565073Y-49147185D01*
X52549590Y-49170865D01*
X52429590Y-49460865D01*
X52424388Y-49480549D01*
X52404388Y-49640549D01*
X52403800Y-49650000D01*
X51605044Y-49650000D01*
X51605044Y-49576002D01*
X51516105Y-49361284D01*
X51351766Y-49196946D01*
X51137048Y-49108007D01*
X49344694Y-49108007D01*
X49198644Y-49254057D01*
X49198644Y-49845809D01*
X49121432Y-50130540D01*
X49154798Y-50390007D01*
X48843044Y-50390007D01*
X48843044Y-50370007D01*
X48823044Y-50370007D01*
X48823044Y-50014407D01*
X48843044Y-50014407D01*
X48843044Y-49254057D01*
X48696994Y-49108007D01*
X46908600Y-49108007D01*
X46908600Y-48892188D01*
X46930164Y-48906922D01*
X47020844Y-48925285D01*
X51020844Y-48925285D01*
X51105558Y-48909345D01*
X51183362Y-48859279D01*
X51235559Y-48782887D01*
X51253922Y-48692207D01*
X51253922Y-47692207D01*
X51237982Y-47607493D01*
X51187916Y-47529689D01*
X51111524Y-47477492D01*
X51020844Y-47459129D01*
X47020844Y-47459129D01*
X46936130Y-47475069D01*
X46908600Y-47492784D01*
X46908600Y-47276407D01*
X48696994Y-47276407D01*
X48843044Y-47130357D01*
X48843044Y-46370007D01*
X48823044Y-46370007D01*
X48823044Y-46014407D01*
X48843044Y-46014407D01*
X48843044Y-45994407D01*
X49158348Y-45994407D01*
X49121432Y-46130540D01*
X49166297Y-46479424D01*
X49198644Y-46557517D01*
X49198644Y-47130357D01*
X49344694Y-47276407D01*
X51137048Y-47276407D01*
X51351766Y-47187468D01*
X51516105Y-47023130D01*
X51529808Y-46990046D01*
X56159587Y-46990046D01*
X56168065Y-47165516D01*
X56486593Y-47258654D01*
X56816517Y-47222806D01*
X56954827Y-47165516D01*
X56959981Y-47058836D01*
X59942591Y-47058836D01*
X59951069Y-47234306D01*
X60269597Y-47327444D01*
X60599521Y-47291596D01*
X60737831Y-47234306D01*
X60746309Y-47058836D01*
X60599429Y-46911956D01*
X66181115Y-46911956D01*
X66249635Y-47073717D01*
X66580736Y-47051192D01*
X66878012Y-46903674D01*
X66988050Y-46802167D01*
X66935444Y-46634554D01*
X66419578Y-46396090D01*
X66181115Y-46911956D01*
X60599429Y-46911956D01*
X60344450Y-46656977D01*
X59942591Y-47058836D01*
X56959981Y-47058836D01*
X56963305Y-46990046D01*
X56561446Y-46588187D01*
X56159587Y-46990046D01*
X51529808Y-46990046D01*
X51605044Y-46808412D01*
X51605044Y-46516057D01*
X51458994Y-46370007D01*
X50888764Y-46370007D01*
X50897834Y-46336557D01*
X55714202Y-46336557D01*
X55750050Y-46666481D01*
X55807340Y-46804791D01*
X55982810Y-46813269D01*
X56384669Y-46411410D01*
X56738223Y-46411410D01*
X57140082Y-46813269D01*
X57315552Y-46804791D01*
X57408690Y-46486263D01*
X57399899Y-46405347D01*
X59497206Y-46405347D01*
X59533054Y-46735271D01*
X59590344Y-46873581D01*
X59765814Y-46882059D01*
X60167673Y-46480200D01*
X60521227Y-46480200D01*
X60923086Y-46882059D01*
X61098556Y-46873581D01*
X61191694Y-46555053D01*
X61155846Y-46225129D01*
X61112817Y-46121248D01*
X65515024Y-46121248D01*
X65537549Y-46452349D01*
X65685067Y-46749625D01*
X65786574Y-46859663D01*
X65954187Y-46807057D01*
X66192651Y-46291191D01*
X65928669Y-46169163D01*
X66524477Y-46169163D01*
X67040343Y-46407626D01*
X67202104Y-46339106D01*
X67179579Y-46008005D01*
X67032061Y-45710729D01*
X66930554Y-45600691D01*
X66762941Y-45653297D01*
X66524477Y-46169163D01*
X65928669Y-46169163D01*
X65676785Y-46052728D01*
X65515024Y-46121248D01*
X61112817Y-46121248D01*
X61098556Y-46086819D01*
X60923086Y-46078341D01*
X60521227Y-46480200D01*
X60167673Y-46480200D01*
X59765814Y-46078341D01*
X59590344Y-46086819D01*
X59497206Y-46405347D01*
X57399899Y-46405347D01*
X57372842Y-46156339D01*
X57315552Y-46018029D01*
X57140082Y-46009551D01*
X56738223Y-46411410D01*
X56384669Y-46411410D01*
X55982810Y-46009551D01*
X55807340Y-46018029D01*
X55714202Y-46336557D01*
X50897834Y-46336557D01*
X50920256Y-46253874D01*
X50889462Y-46014407D01*
X51458994Y-46014407D01*
X51605044Y-45868357D01*
X51605044Y-45832774D01*
X56159587Y-45832774D01*
X56561446Y-46234633D01*
X56894515Y-45901564D01*
X59942591Y-45901564D01*
X60344450Y-46303423D01*
X60746309Y-45901564D01*
X60737831Y-45726094D01*
X60505592Y-45658187D01*
X65729078Y-45658187D01*
X65781684Y-45825800D01*
X66297550Y-46064264D01*
X66536013Y-45548398D01*
X66467493Y-45386637D01*
X66136392Y-45409162D01*
X65839116Y-45556680D01*
X65729078Y-45658187D01*
X60505592Y-45658187D01*
X60419303Y-45632956D01*
X60089379Y-45668804D01*
X59951069Y-45726094D01*
X59942591Y-45901564D01*
X56894515Y-45901564D01*
X56963305Y-45832774D01*
X56954827Y-45657304D01*
X56636299Y-45564166D01*
X56306375Y-45600014D01*
X56168065Y-45657304D01*
X56159587Y-45832774D01*
X51605044Y-45832774D01*
X51605044Y-45576002D01*
X51516105Y-45361284D01*
X51511906Y-45357085D01*
X51527000Y-45347000D01*
X51587393Y-45256616D01*
X51608600Y-45150000D01*
X51608600Y-43944152D01*
X70361431Y-43944152D01*
X70561317Y-44209068D01*
X70847367Y-44377325D01*
X70992520Y-44413962D01*
X71104102Y-44278274D01*
X71021724Y-43715961D01*
X70459411Y-43798339D01*
X70361431Y-43944152D01*
X51608600Y-43944152D01*
X51608600Y-40787486D01*
X56159587Y-40787486D01*
X56168065Y-40962956D01*
X56486593Y-41056094D01*
X56816517Y-41020246D01*
X56954827Y-40962956D01*
X56963305Y-40787486D01*
X56561446Y-40385627D01*
X56159587Y-40787486D01*
X51608600Y-40787486D01*
X51608600Y-36652146D01*
X52325097Y-36652146D01*
X52345599Y-36742367D01*
X52900183Y-37973461D01*
X52837937Y-37973406D01*
X52661968Y-38046115D01*
X52527219Y-38180630D01*
X52454203Y-38356472D01*
X52454036Y-38546871D01*
X52526745Y-38722840D01*
X52661260Y-38857589D01*
X52837102Y-38930605D01*
X53027501Y-38930772D01*
X53203470Y-38858063D01*
X53269145Y-38792502D01*
X53824223Y-40024694D01*
X53873551Y-40095385D01*
X53951156Y-40145761D01*
X54042245Y-40161975D01*
X54132466Y-40141473D01*
X54149061Y-40133997D01*
X55714202Y-40133997D01*
X55750050Y-40463921D01*
X55807340Y-40602231D01*
X55982810Y-40610709D01*
X56384669Y-40208850D01*
X56738223Y-40208850D01*
X57140082Y-40610709D01*
X57315552Y-40602231D01*
X57408690Y-40283703D01*
X57372842Y-39953779D01*
X57315552Y-39815469D01*
X57140082Y-39806991D01*
X56738223Y-40208850D01*
X56384669Y-40208850D01*
X55982810Y-39806991D01*
X55807340Y-39815469D01*
X55714202Y-40133997D01*
X54149061Y-40133997D01*
X55267384Y-39630214D01*
X56159587Y-39630214D01*
X56561446Y-40032073D01*
X56963305Y-39630214D01*
X56954827Y-39454744D01*
X56636299Y-39361606D01*
X56306375Y-39397454D01*
X56168065Y-39454744D01*
X56159587Y-39630214D01*
X55267384Y-39630214D01*
X56867738Y-38909286D01*
X56938429Y-38859958D01*
X56988805Y-38782353D01*
X57005019Y-38691264D01*
X56984517Y-38601043D01*
X55505893Y-35318716D01*
X55456565Y-35248025D01*
X55378960Y-35197649D01*
X55287871Y-35181435D01*
X55197650Y-35201937D01*
X52462378Y-36434124D01*
X52391687Y-36483452D01*
X52341311Y-36561057D01*
X52325097Y-36652146D01*
X51608600Y-36652146D01*
X51608600Y-34584921D01*
X56159587Y-34584921D01*
X56168065Y-34760391D01*
X56486593Y-34853529D01*
X56816517Y-34817681D01*
X56954827Y-34760391D01*
X56963305Y-34584921D01*
X56561446Y-34183062D01*
X56159587Y-34584921D01*
X51608600Y-34584921D01*
X51608600Y-33931432D01*
X55714202Y-33931432D01*
X55750050Y-34261356D01*
X55807340Y-34399666D01*
X55982810Y-34408144D01*
X56384669Y-34006285D01*
X56738223Y-34006285D01*
X57140082Y-34408144D01*
X57315552Y-34399666D01*
X57408690Y-34081138D01*
X57372842Y-33751214D01*
X57315552Y-33612904D01*
X57140082Y-33604426D01*
X56738223Y-34006285D01*
X56384669Y-34006285D01*
X55982810Y-33604426D01*
X55807340Y-33612904D01*
X55714202Y-33931432D01*
X51608600Y-33931432D01*
X51608600Y-33427649D01*
X56159587Y-33427649D01*
X56561446Y-33829508D01*
X56963305Y-33427649D01*
X56954827Y-33252179D01*
X56636299Y-33159041D01*
X56306375Y-33194889D01*
X56168065Y-33252179D01*
X56159587Y-33427649D01*
X51608600Y-33427649D01*
X51608600Y-28382364D01*
X56159587Y-28382364D01*
X56168065Y-28557834D01*
X56486593Y-28650972D01*
X56816517Y-28615124D01*
X56954827Y-28557834D01*
X56963305Y-28382364D01*
X56561446Y-27980505D01*
X56159587Y-28382364D01*
X51608600Y-28382364D01*
X51608600Y-27728875D01*
X55714202Y-27728875D01*
X55750050Y-28058799D01*
X55807340Y-28197109D01*
X55982810Y-28205587D01*
X56384669Y-27803728D01*
X56738223Y-27803728D01*
X57140082Y-28205587D01*
X57315552Y-28197109D01*
X57408690Y-27878581D01*
X57372842Y-27548657D01*
X57315552Y-27410347D01*
X57140082Y-27401869D01*
X56738223Y-27803728D01*
X56384669Y-27803728D01*
X55982810Y-27401869D01*
X55807340Y-27410347D01*
X55714202Y-27728875D01*
X51608600Y-27728875D01*
X51608600Y-27225092D01*
X56159587Y-27225092D01*
X56561446Y-27626951D01*
X56963305Y-27225092D01*
X56954827Y-27049622D01*
X56636299Y-26956484D01*
X56306375Y-26992332D01*
X56168065Y-27049622D01*
X56159587Y-27225092D01*
X51608600Y-27225092D01*
X51608600Y-26280000D01*
X59341400Y-26280000D01*
X59341400Y-43600000D01*
X59362607Y-43706616D01*
X59423000Y-43797000D01*
X59513384Y-43857393D01*
X59620000Y-43878600D01*
X63560000Y-43878600D01*
X63568850Y-43876840D01*
X63577794Y-43878031D01*
X64827794Y-43798031D01*
X64846358Y-43793088D01*
X64865567Y-43793002D01*
X65422111Y-43679723D01*
X71269084Y-43679723D01*
X71351462Y-44242036D01*
X71497275Y-44340016D01*
X71762191Y-44140130D01*
X71930448Y-43854080D01*
X71967085Y-43708927D01*
X71831397Y-43597345D01*
X71269084Y-43679723D01*
X65422111Y-43679723D01*
X65995567Y-43563002D01*
X66017888Y-43553640D01*
X66041713Y-43549369D01*
X66322141Y-43439397D01*
X70287485Y-43439397D01*
X70423173Y-43550979D01*
X70985486Y-43468601D01*
X70903108Y-42906288D01*
X70849179Y-42870050D01*
X71150468Y-42870050D01*
X71232846Y-43432363D01*
X71795159Y-43349985D01*
X71893139Y-43204172D01*
X71693253Y-42939256D01*
X71407203Y-42770999D01*
X71262050Y-42734362D01*
X71150468Y-42870050D01*
X70849179Y-42870050D01*
X70757295Y-42808308D01*
X70492379Y-43008194D01*
X70324122Y-43294244D01*
X70287485Y-43439397D01*
X66322141Y-43439397D01*
X67061714Y-43149369D01*
X67082673Y-43135933D01*
X67106014Y-43127272D01*
X68016014Y-42567272D01*
X68037846Y-42547015D01*
X68062939Y-42530979D01*
X69562940Y-41090978D01*
X69583695Y-41061248D01*
X69608186Y-41034517D01*
X70688186Y-39254518D01*
X70699556Y-39223275D01*
X70715589Y-39194147D01*
X71355589Y-37174147D01*
X71358814Y-37145074D01*
X71367280Y-37117083D01*
X71577280Y-34967084D01*
X71574597Y-34940066D01*
X71577293Y-34913041D01*
X71367293Y-32753041D01*
X71358763Y-32724795D01*
X71355468Y-32695473D01*
X70715468Y-30685473D01*
X70699489Y-30656541D01*
X70688186Y-30625482D01*
X69608186Y-28845483D01*
X69583695Y-28818752D01*
X69562940Y-28789022D01*
X68294798Y-27571605D01*
X72454723Y-27571605D01*
X73022990Y-27579037D01*
X73142762Y-27450522D01*
X72987207Y-27157370D01*
X72731309Y-26946062D01*
X72593760Y-26886968D01*
X72462156Y-27003338D01*
X72454723Y-27571605D01*
X68294798Y-27571605D01*
X68146561Y-27429298D01*
X71520108Y-27429298D01*
X71636478Y-27560902D01*
X72204745Y-27568335D01*
X72212177Y-27000068D01*
X72083662Y-26880296D01*
X71790510Y-27035851D01*
X71579202Y-27291749D01*
X71520108Y-27429298D01*
X68146561Y-27429298D01*
X68062939Y-27349021D01*
X68037846Y-27332985D01*
X68016014Y-27312728D01*
X67106014Y-26752728D01*
X67082673Y-26744067D01*
X67061714Y-26730631D01*
X66041713Y-26330631D01*
X66017888Y-26326360D01*
X65995567Y-26316998D01*
X64865567Y-26086998D01*
X64846358Y-26086912D01*
X64827794Y-26081969D01*
X63577794Y-26001969D01*
X63568850Y-26003160D01*
X63560000Y-26001400D01*
X59620000Y-26001400D01*
X59513384Y-26022607D01*
X59423000Y-26083000D01*
X59362607Y-26173384D01*
X59341400Y-26280000D01*
X51608600Y-26280000D01*
X51608600Y-24803487D01*
X67316657Y-24803487D01*
X67583585Y-25000678D01*
X67905657Y-25080708D01*
X68055237Y-25074585D01*
X68123659Y-24912782D01*
X67884879Y-24397063D01*
X67369160Y-24635842D01*
X67316657Y-24803487D01*
X51608600Y-24803487D01*
X51608600Y-23975780D01*
X61804735Y-23975780D01*
X61813212Y-24151251D01*
X62131740Y-24244391D01*
X62461664Y-24208544D01*
X62504075Y-24190977D01*
X67096196Y-24190977D01*
X67102319Y-24340557D01*
X67264122Y-24408979D01*
X67516720Y-24292025D01*
X68111743Y-24292025D01*
X68350522Y-24807744D01*
X68518167Y-24860247D01*
X68715358Y-24593319D01*
X68795388Y-24271247D01*
X68789265Y-24121667D01*
X68627462Y-24053245D01*
X68111743Y-24292025D01*
X67516720Y-24292025D01*
X67779841Y-24170199D01*
X67541062Y-23654480D01*
X67373417Y-23601977D01*
X67176226Y-23868905D01*
X67096196Y-24190977D01*
X62504075Y-24190977D01*
X62599974Y-24151256D01*
X62608454Y-23975786D01*
X62206597Y-23573924D01*
X61804735Y-23975780D01*
X51608600Y-23975780D01*
X51608600Y-23322289D01*
X61359354Y-23322289D01*
X61395201Y-23652213D01*
X61452489Y-23790523D01*
X61627959Y-23799003D01*
X62029818Y-23397148D01*
X62383375Y-23397148D01*
X62785231Y-23799010D01*
X62960702Y-23790533D01*
X63031198Y-23549442D01*
X67767925Y-23549442D01*
X68006705Y-24065161D01*
X68522424Y-23826382D01*
X68574927Y-23658737D01*
X68307999Y-23461546D01*
X67985927Y-23381516D01*
X67836347Y-23387639D01*
X67767925Y-23549442D01*
X63031198Y-23549442D01*
X63053842Y-23472005D01*
X63017995Y-23142081D01*
X62960707Y-23003771D01*
X62785237Y-22995291D01*
X62383375Y-23397148D01*
X62029818Y-23397148D01*
X62029821Y-23397146D01*
X61627965Y-22995284D01*
X61452494Y-23003761D01*
X61359354Y-23322289D01*
X51608600Y-23322289D01*
X51608600Y-22818508D01*
X61804742Y-22818508D01*
X62206599Y-23220370D01*
X62608461Y-22818514D01*
X62599984Y-22643043D01*
X62281456Y-22549903D01*
X61951532Y-22585750D01*
X61813222Y-22643038D01*
X61804742Y-22818508D01*
X51608600Y-22818508D01*
X51608600Y-22179800D01*
X56159587Y-22179800D01*
X56168065Y-22355270D01*
X56486593Y-22448408D01*
X56816517Y-22412560D01*
X56954827Y-22355270D01*
X56963305Y-22179800D01*
X56561446Y-21777941D01*
X56159587Y-22179800D01*
X51608600Y-22179800D01*
X51608600Y-21526311D01*
X55714202Y-21526311D01*
X55750050Y-21856235D01*
X55807340Y-21994545D01*
X55982810Y-22003023D01*
X56384669Y-21601164D01*
X56738223Y-21601164D01*
X57140082Y-22003023D01*
X57315552Y-21994545D01*
X57408690Y-21676017D01*
X57372842Y-21346093D01*
X57315552Y-21207783D01*
X57140082Y-21199305D01*
X56738223Y-21601164D01*
X56384669Y-21601164D01*
X55982810Y-21199305D01*
X55807340Y-21207783D01*
X55714202Y-21526311D01*
X51608600Y-21526311D01*
X51608600Y-21022528D01*
X56159587Y-21022528D01*
X56561446Y-21424387D01*
X56963305Y-21022528D01*
X56954827Y-20847058D01*
X56636299Y-20753920D01*
X56306375Y-20789768D01*
X56168065Y-20847058D01*
X56159587Y-21022528D01*
X51608600Y-21022528D01*
X51608600Y-18998600D01*
X63553445Y-18998600D01*
X65443352Y-19087653D01*
G36*
X50266776Y-50158407D02*
X50232976Y-50192207D01*
X50266776Y-50226007D01*
X50122776Y-50370007D01*
X49918912Y-50370007D01*
X49774912Y-50226007D01*
X49808712Y-50192207D01*
X49774912Y-50158407D01*
X49918912Y-50014407D01*
X50122776Y-50014407D01*
X50266776Y-50158407D01*
X50266776Y-50158407D01*
G37*
X50266776Y-50158407D02*
X50232976Y-50192207D01*
X50266776Y-50226007D01*
X50122776Y-50370007D01*
X49918912Y-50370007D01*
X49774912Y-50226007D01*
X49808712Y-50192207D01*
X49774912Y-50158407D01*
X49918912Y-50014407D01*
X50122776Y-50014407D01*
X50266776Y-50158407D01*
G36*
X50266776Y-46158407D02*
X50232976Y-46192207D01*
X50266776Y-46226007D01*
X50122776Y-46370007D01*
X49918912Y-46370007D01*
X49774912Y-46226007D01*
X49808712Y-46192207D01*
X49774912Y-46158407D01*
X49918912Y-46014407D01*
X50122776Y-46014407D01*
X50266776Y-46158407D01*
X50266776Y-46158407D01*
G37*
X50266776Y-46158407D02*
X50232976Y-46192207D01*
X50266776Y-46226007D01*
X50122776Y-46370007D01*
X49918912Y-46370007D01*
X49774912Y-46226007D01*
X49808712Y-46192207D01*
X49774912Y-46158407D01*
X49918912Y-46014407D01*
X50122776Y-46014407D01*
X50266776Y-46158407D01*
G36*
X81041922Y-46158407D02*
X81008122Y-46192207D01*
X81041922Y-46226007D01*
X80897922Y-46370007D01*
X80694058Y-46370007D01*
X80550058Y-46226007D01*
X80583858Y-46192207D01*
X80550058Y-46158407D01*
X80694058Y-46014407D01*
X80897922Y-46014407D01*
X81041922Y-46158407D01*
X81041922Y-46158407D01*
G37*
X81041922Y-46158407D02*
X81008122Y-46192207D01*
X81041922Y-46226007D01*
X80897922Y-46370007D01*
X80694058Y-46370007D01*
X80550058Y-46226007D01*
X80583858Y-46192207D01*
X80550058Y-46158407D01*
X80694058Y-46014407D01*
X80897922Y-46014407D01*
X81041922Y-46158407D01*
M02*
