G04 #@! TF.FileFunction,Soldermask,Bot*
%FSLAX46Y46*%
G04 Gerber Fmt 4.6, Leading zero omitted, Abs format (unit mm)*
G04 Created by KiCad (PCBNEW 4.0.0-rc2-stable) date 3/3/2016 3:42:14 PM*
%MOMM*%
G01*
G04 APERTURE LIST*
%ADD10C,0.150000*%
%ADD11R,4.000000X1.000000*%
%ADD12C,0.600000*%
%ADD13C,0.500000*%
G04 APERTURE END LIST*
D10*
D11*
X79016340Y-50192207D03*
X79016340Y-48192207D03*
X79016340Y-46192207D03*
D12*
X78016340Y-50192207D03*
X78016340Y-48192207D03*
X78016340Y-46192207D03*
D11*
X49020840Y-46192207D03*
X49020840Y-48192207D03*
X49020840Y-50192207D03*
D12*
X50020840Y-46192207D03*
X50020840Y-48192207D03*
X50020840Y-50192207D03*
D10*
G36*
X56773230Y-24206381D02*
X58932558Y-26288999D01*
X57127622Y-28160417D01*
X54968294Y-26077799D01*
X56773230Y-24206381D01*
X56773230Y-24206381D01*
G37*
G36*
X72523542Y-38702507D02*
X74682870Y-40785125D01*
X72183728Y-43376319D01*
X70024400Y-41293701D01*
X72523542Y-38702507D01*
X72523542Y-38702507D01*
G37*
D13*
X73721210Y-42358405D03*
D10*
G36*
X55609755Y-48580312D02*
X56358968Y-46725945D01*
X57063627Y-47010646D01*
X56314414Y-48865013D01*
X55609755Y-48580312D01*
X55609755Y-48580312D01*
G37*
G36*
X56787279Y-49056062D02*
X57536492Y-47201695D01*
X58241151Y-47486396D01*
X57491938Y-49340763D01*
X56787279Y-49056062D01*
X56787279Y-49056062D01*
G37*
G36*
X57964802Y-49531812D02*
X58714015Y-47677445D01*
X59418674Y-47962146D01*
X58669461Y-49816513D01*
X57964802Y-49531812D01*
X57964802Y-49531812D01*
G37*
G36*
X59142326Y-50007563D02*
X59891539Y-48153196D01*
X60596198Y-48437897D01*
X59846985Y-50292264D01*
X59142326Y-50007563D01*
X59142326Y-50007563D01*
G37*
G36*
X56808496Y-45613323D02*
X57557709Y-43758956D01*
X58262368Y-44043657D01*
X57513155Y-45898024D01*
X56808496Y-45613323D01*
X56808496Y-45613323D01*
G37*
G36*
X57986020Y-46089074D02*
X58735233Y-44234707D01*
X59439892Y-44519408D01*
X58690679Y-46373775D01*
X57986020Y-46089074D01*
X57986020Y-46089074D01*
G37*
G36*
X59163543Y-46564824D02*
X59912756Y-44710457D01*
X60617415Y-44995158D01*
X59868202Y-46849525D01*
X59163543Y-46564824D01*
X59163543Y-46564824D01*
G37*
G36*
X60350338Y-47044320D02*
X61099552Y-45189953D01*
X61785668Y-45467162D01*
X61036454Y-47321529D01*
X60350338Y-47044320D01*
X60350338Y-47044320D01*
G37*
G36*
X56160057Y-43841389D02*
X56384821Y-43285079D01*
X57219287Y-43622225D01*
X56994523Y-44178535D01*
X56160057Y-43841389D01*
X56160057Y-43841389D01*
G37*
G36*
X55598147Y-45232165D02*
X55822911Y-44675855D01*
X56657377Y-45013001D01*
X56432613Y-45569311D01*
X55598147Y-45232165D01*
X55598147Y-45232165D01*
G37*
G36*
X54439167Y-44763906D02*
X54663931Y-44207596D01*
X55498397Y-44544742D01*
X55273633Y-45101052D01*
X54439167Y-44763906D01*
X54439167Y-44763906D01*
G37*
G36*
X55001077Y-43373131D02*
X55225841Y-42816821D01*
X56060307Y-43153967D01*
X55835543Y-43710277D01*
X55001077Y-43373131D01*
X55001077Y-43373131D01*
G37*
G36*
X53842097Y-42904872D02*
X54066861Y-42348562D01*
X54901327Y-42685708D01*
X54676563Y-43242018D01*
X53842097Y-42904872D01*
X53842097Y-42904872D01*
G37*
G36*
X53280188Y-44295648D02*
X53504952Y-43739338D01*
X54339418Y-44076484D01*
X54114654Y-44632794D01*
X53280188Y-44295648D01*
X53280188Y-44295648D01*
G37*
G36*
X56294469Y-45243863D02*
X56369390Y-45058427D01*
X57203855Y-45395573D01*
X57128934Y-45581009D01*
X56294469Y-45243863D01*
X56294469Y-45243863D01*
G37*
M02*
