G04 #@! TF.FileFunction,Legend,Bot*
%FSLAX46Y46*%
G04 Gerber Fmt 4.6, Leading zero omitted, Abs format (unit mm)*
G04 Created by KiCad (PCBNEW 4.0.0-rc2-stable) date 3/3/2016 3:48:12 PM*
%MOMM*%
G01*
G04 APERTURE LIST*
%ADD10C,0.150000*%
%ADD11C,0.025400*%
G04 APERTURE END LIST*
D10*
D11*
G36*
X59024737Y-40228924D02*
X59024827Y-40230431D01*
X59137132Y-41169884D01*
X59138005Y-41173229D01*
X59480779Y-42002332D01*
X59482319Y-42005050D01*
X60002826Y-42706220D01*
X60004685Y-42708230D01*
X60659959Y-43278543D01*
X60662890Y-43280454D01*
X62271288Y-44037291D01*
X62274917Y-44038375D01*
X64118667Y-44299115D01*
X64122269Y-44299108D01*
X65919144Y-44038368D01*
X65922727Y-44037291D01*
X67531127Y-43280454D01*
X67534058Y-43278543D01*
X68189328Y-42708230D01*
X68191187Y-42706220D01*
X68711697Y-42005050D01*
X68713241Y-42002320D01*
X69055041Y-41173217D01*
X69055909Y-41169897D01*
X69169189Y-40230444D01*
X69169280Y-40228924D01*
X69169280Y-18862718D01*
X76767900Y-18862718D01*
X76767900Y-40353258D01*
X76504458Y-42865732D01*
X75716402Y-45069954D01*
X74494283Y-46967014D01*
X72926786Y-48545243D01*
X71049911Y-49798768D01*
X68894744Y-50720738D01*
X66553007Y-51289585D01*
X64120448Y-51479857D01*
X61692776Y-51290561D01*
X59368636Y-50720746D01*
X57225145Y-49798764D01*
X55335547Y-48545209D01*
X53752441Y-46966980D01*
X52523509Y-45069938D01*
X51736431Y-42865732D01*
X51472012Y-40353260D01*
X51472012Y-18862718D01*
X59024737Y-18862718D01*
X59024737Y-40228924D01*
X59024737Y-40228924D01*
G37*
X59024737Y-40228924D02*
X59024827Y-40230431D01*
X59137132Y-41169884D01*
X59138005Y-41173229D01*
X59480779Y-42002332D01*
X59482319Y-42005050D01*
X60002826Y-42706220D01*
X60004685Y-42708230D01*
X60659959Y-43278543D01*
X60662890Y-43280454D01*
X62271288Y-44037291D01*
X62274917Y-44038375D01*
X64118667Y-44299115D01*
X64122269Y-44299108D01*
X65919144Y-44038368D01*
X65922727Y-44037291D01*
X67531127Y-43280454D01*
X67534058Y-43278543D01*
X68189328Y-42708230D01*
X68191187Y-42706220D01*
X68711697Y-42005050D01*
X68713241Y-42002320D01*
X69055041Y-41173217D01*
X69055909Y-41169897D01*
X69169189Y-40230444D01*
X69169280Y-40228924D01*
X69169280Y-18862718D01*
X76767900Y-18862718D01*
X76767900Y-40353258D01*
X76504458Y-42865732D01*
X75716402Y-45069954D01*
X74494283Y-46967014D01*
X72926786Y-48545243D01*
X71049911Y-49798768D01*
X68894744Y-50720738D01*
X66553007Y-51289585D01*
X64120448Y-51479857D01*
X61692776Y-51290561D01*
X59368636Y-50720746D01*
X57225145Y-49798764D01*
X55335547Y-48545209D01*
X53752441Y-46966980D01*
X52523509Y-45069938D01*
X51736431Y-42865732D01*
X51472012Y-40353260D01*
X51472012Y-18862718D01*
X59024737Y-18862718D01*
X59024737Y-40228924D01*
M02*
