G04 #@! TF.FileFunction,Legend,Top*
%FSLAX46Y46*%
G04 Gerber Fmt 4.6, Leading zero omitted, Abs format (unit mm)*
G04 Created by KiCad (PCBNEW 4.0.0-rc2-stable) date 3/3/2016 3:47:02 PM*
%MOMM*%
G01*
G04 APERTURE LIST*
%ADD10C,0.150000*%
%ADD11C,0.025400*%
G04 APERTURE END LIST*
D10*
D11*
G36*
X71038589Y-18442371D02*
X74053138Y-19223260D01*
X76876244Y-20531392D01*
X79376633Y-22371095D01*
X81488878Y-24738027D01*
X83149775Y-27625974D01*
X83778053Y-29265052D01*
X84226350Y-31039355D01*
X84495569Y-32946068D01*
X84584563Y-34985339D01*
X84411012Y-37763352D01*
X83890383Y-40262972D01*
X83068286Y-42520102D01*
X81992235Y-44569903D01*
X81990825Y-44574743D01*
X81991408Y-44579750D01*
X81992614Y-44582380D01*
X85326030Y-50092023D01*
X85326030Y-51140860D01*
X76916162Y-51140860D01*
X76131894Y-49665315D01*
X76128692Y-49661422D01*
X76124227Y-49659081D01*
X76119203Y-49658662D01*
X76115676Y-49659603D01*
X73578118Y-50747415D01*
X70881514Y-51419349D01*
X68110525Y-51667417D01*
X65350673Y-51488320D01*
X62647398Y-50892040D01*
X60049891Y-49890874D01*
X57659711Y-48473886D01*
X55583144Y-46627538D01*
X53853600Y-44354116D01*
X52505469Y-41652276D01*
X51636698Y-38527616D01*
X51347423Y-34985065D01*
X51436428Y-32946068D01*
X51705639Y-31039356D01*
X52155058Y-29265046D01*
X52782204Y-27625976D01*
X54443122Y-24738027D01*
X56555325Y-22371097D01*
X59054627Y-20531389D01*
X61877726Y-19223260D01*
X64892271Y-18442370D01*
X67964880Y-18182099D01*
X71038589Y-18442371D01*
X71038589Y-18442371D01*
G37*
X71038589Y-18442371D02*
X74053138Y-19223260D01*
X76876244Y-20531392D01*
X79376633Y-22371095D01*
X81488878Y-24738027D01*
X83149775Y-27625974D01*
X83778053Y-29265052D01*
X84226350Y-31039355D01*
X84495569Y-32946068D01*
X84584563Y-34985339D01*
X84411012Y-37763352D01*
X83890383Y-40262972D01*
X83068286Y-42520102D01*
X81992235Y-44569903D01*
X81990825Y-44574743D01*
X81991408Y-44579750D01*
X81992614Y-44582380D01*
X85326030Y-50092023D01*
X85326030Y-51140860D01*
X76916162Y-51140860D01*
X76131894Y-49665315D01*
X76128692Y-49661422D01*
X76124227Y-49659081D01*
X76119203Y-49658662D01*
X76115676Y-49659603D01*
X73578118Y-50747415D01*
X70881514Y-51419349D01*
X68110525Y-51667417D01*
X65350673Y-51488320D01*
X62647398Y-50892040D01*
X60049891Y-49890874D01*
X57659711Y-48473886D01*
X55583144Y-46627538D01*
X53853600Y-44354116D01*
X52505469Y-41652276D01*
X51636698Y-38527616D01*
X51347423Y-34985065D01*
X51436428Y-32946068D01*
X51705639Y-31039356D01*
X52155058Y-29265046D01*
X52782204Y-27625976D01*
X54443122Y-24738027D01*
X56555325Y-22371097D01*
X59054627Y-20531389D01*
X61877726Y-19223260D01*
X64892271Y-18442370D01*
X67964880Y-18182099D01*
X71038589Y-18442371D01*
M02*
