G04 #@! TF.FileFunction,Legend,Bot*
%FSLAX46Y46*%
G04 Gerber Fmt 4.6, Leading zero omitted, Abs format (unit mm)*
G04 Created by KiCad (PCBNEW 4.0.0-rc2-stable) date 3/3/2016 3:47:18 PM*
%MOMM*%
G01*
G04 APERTURE LIST*
%ADD10C,0.150000*%
%ADD11C,0.025400*%
G04 APERTURE END LIST*
D10*
D11*
G36*
X68529569Y-19026785D02*
X69851350Y-19388085D01*
X71062834Y-19893797D01*
X73156773Y-21230466D01*
X74811203Y-22925997D01*
X76025300Y-24909482D01*
X76800293Y-27113408D01*
X77141700Y-29433246D01*
X77054993Y-31763946D01*
X76540068Y-34037006D01*
X75597153Y-36183062D01*
X74220768Y-38092000D01*
X72404002Y-39655123D01*
X72400909Y-39659104D01*
X72399609Y-39663975D01*
X72400306Y-39668968D01*
X72401477Y-39671419D01*
X78745980Y-49954050D01*
X78745980Y-51140857D01*
X69501938Y-51140857D01*
X63945108Y-41603557D01*
X63941756Y-41599791D01*
X63937203Y-41597626D01*
X63934137Y-41597250D01*
X59625887Y-41596700D01*
X59620945Y-41597700D01*
X59617090Y-41600238D01*
X59615892Y-41601388D01*
X59613021Y-41605532D01*
X59611987Y-41610550D01*
X59611987Y-51140857D01*
X51346875Y-51140857D01*
X51346875Y-18737550D01*
X65554578Y-18737550D01*
X68529569Y-19026785D01*
X68529569Y-19026785D01*
G37*
X68529569Y-19026785D02*
X69851350Y-19388085D01*
X71062834Y-19893797D01*
X73156773Y-21230466D01*
X74811203Y-22925997D01*
X76025300Y-24909482D01*
X76800293Y-27113408D01*
X77141700Y-29433246D01*
X77054993Y-31763946D01*
X76540068Y-34037006D01*
X75597153Y-36183062D01*
X74220768Y-38092000D01*
X72404002Y-39655123D01*
X72400909Y-39659104D01*
X72399609Y-39663975D01*
X72400306Y-39668968D01*
X72401477Y-39671419D01*
X78745980Y-49954050D01*
X78745980Y-51140857D01*
X69501938Y-51140857D01*
X63945108Y-41603557D01*
X63941756Y-41599791D01*
X63937203Y-41597626D01*
X63934137Y-41597250D01*
X59625887Y-41596700D01*
X59620945Y-41597700D01*
X59617090Y-41600238D01*
X59615892Y-41601388D01*
X59613021Y-41605532D01*
X59611987Y-41610550D01*
X59611987Y-51140857D01*
X51346875Y-51140857D01*
X51346875Y-18737550D01*
X65554578Y-18737550D01*
X68529569Y-19026785D01*
M02*
