G04 #@! TF.FileFunction,Copper,L2,Bot,Signal*
%FSLAX46Y46*%
G04 Gerber Fmt 4.6, Leading zero omitted, Abs format (unit mm)*
G04 Created by KiCad (PCBNEW 4.0.0-rc2-stable) date 3/3/2016 3:43:28 PM*
%MOMM*%
G01*
G04 APERTURE LIST*
%ADD10C,0.150000*%
%ADD11C,0.500000*%
%ADD12R,4.000000X1.000000*%
%ADD13C,0.600000*%
%ADD14R,0.760000X2.000000*%
%ADD15R,0.740000X2.000000*%
%ADD16R,0.900000X0.600000*%
%ADD17R,0.900000X0.200000*%
%ADD18R,3.800000X0.200000*%
%ADD19R,6.500000X0.200000*%
%ADD20R,0.200000X0.400000*%
%ADD21R,0.200000X0.800000*%
%ADD22R,2.000000X0.200000*%
%ADD23C,0.254000*%
%ADD24C,0.152400*%
G04 APERTURE END LIST*
D10*
D11*
X68458100Y-21050349D03*
X62274165Y-21050349D03*
X54123350Y-21285806D03*
X54123350Y-27470439D03*
X54123350Y-33655072D03*
X54123350Y-39839710D03*
X54123350Y-46024346D03*
X67930470Y-35350402D03*
X61710577Y-35350402D03*
X68096640Y-48461528D03*
X61877817Y-48461528D03*
D12*
X74383090Y-50192200D03*
X74383090Y-48192200D03*
X74383090Y-46192200D03*
D13*
X73383090Y-50192200D03*
X73383090Y-48192200D03*
X73383090Y-46192200D03*
D12*
X49020840Y-46192200D03*
X49020840Y-48192200D03*
X49020840Y-50192200D03*
D13*
X50020840Y-46192200D03*
X50020840Y-48192200D03*
X50020840Y-50192200D03*
D10*
G36*
X57108998Y-26325484D02*
X58281191Y-29086999D01*
X55887878Y-30102900D01*
X54715685Y-27341385D01*
X57108998Y-26325484D01*
X57108998Y-26325484D01*
G37*
G36*
X65930897Y-45828923D02*
X67103090Y-48590437D01*
X63789273Y-49997069D01*
X62617080Y-47235555D01*
X65930897Y-45828923D01*
X65930897Y-45828923D01*
G37*
D11*
X65602474Y-49661955D03*
D14*
X58800830Y-20383680D03*
X57530830Y-20383680D03*
X56260830Y-20383680D03*
X54990830Y-20383680D03*
X58800830Y-23583680D03*
X57530830Y-23583680D03*
X56260830Y-23583680D03*
D15*
X54990830Y-23583680D03*
D16*
X59995830Y-24283680D03*
X59995830Y-22783680D03*
X61245830Y-22783680D03*
X61245830Y-24283680D03*
X62495830Y-24283680D03*
X62495830Y-22783680D03*
D17*
X59345830Y-22833680D03*
D18*
X59345830Y-22183680D03*
D19*
X59345830Y-21733680D03*
D20*
X61145830Y-22383680D03*
X57545830Y-22383680D03*
D21*
X56195830Y-22183680D03*
X62495830Y-22183680D03*
D22*
X61195830Y-24283680D03*
D23*
X64860000Y-47910000D02*
X65600000Y-49660000D01*
X64860000Y-47910000D02*
X65600000Y-49660000D01*
X64860000Y-47910000D02*
X65600000Y-49660000D01*
X64860000Y-47910000D02*
X65600000Y-49660000D01*
X64860000Y-47910000D02*
X65600000Y-49660000D01*
X64860000Y-47910000D02*
X65600000Y-49660000D01*
X64860000Y-47910000D02*
X65600000Y-49660000D01*
X64860000Y-47910000D02*
X65600000Y-49660000D01*
X64860000Y-47910000D02*
X65600000Y-49660000D01*
X56500000Y-28210000D02*
X61200000Y-24280000D01*
X56500000Y-28210000D02*
X61200000Y-24280000D01*
X56500000Y-28210000D02*
X61200000Y-24280000D01*
X56500000Y-28210000D02*
X61200000Y-24280000D01*
X56500000Y-28210000D02*
X61200000Y-24280000D01*
X56500000Y-28210000D02*
X61200000Y-24280000D01*
X56500000Y-28210000D02*
X61200000Y-24280000D01*
X56500000Y-28210000D02*
X61200000Y-24280000D01*
X56500000Y-28210000D02*
X61200000Y-24280000D01*
D24*
G36*
X54115569Y-19052758D02*
X54026630Y-19267476D01*
X54026630Y-20059830D01*
X54172680Y-20205880D01*
X54813030Y-20205880D01*
X54813030Y-20185880D01*
X55168630Y-20185880D01*
X55168630Y-20205880D01*
X56083030Y-20205880D01*
X56083030Y-20185880D01*
X56438630Y-20185880D01*
X56438630Y-20205880D01*
X57353030Y-20205880D01*
X57353030Y-20185880D01*
X57708630Y-20185880D01*
X57708630Y-20205880D01*
X58623030Y-20205880D01*
X58623030Y-20185880D01*
X58978630Y-20185880D01*
X58978630Y-20205880D01*
X59618980Y-20205880D01*
X59765030Y-20059830D01*
X59765030Y-19267476D01*
X59676091Y-19052758D01*
X59621933Y-18998600D01*
X71301400Y-18998600D01*
X71301400Y-25861400D01*
X59863112Y-25861400D01*
X61112430Y-24816758D01*
X61695830Y-24816758D01*
X61780544Y-24800818D01*
X61858348Y-24750752D01*
X61870368Y-24733160D01*
X61878758Y-24746198D01*
X61955150Y-24798395D01*
X62045830Y-24816758D01*
X62945830Y-24816758D01*
X63030544Y-24800818D01*
X63108348Y-24750752D01*
X63160545Y-24674360D01*
X63178908Y-24583680D01*
X63178908Y-23983680D01*
X63162968Y-23898966D01*
X63112902Y-23821162D01*
X63036510Y-23768965D01*
X62945830Y-23750602D01*
X62045830Y-23750602D01*
X61961116Y-23766542D01*
X61883312Y-23816608D01*
X61871292Y-23834200D01*
X61862902Y-23821162D01*
X61786510Y-23768965D01*
X61695830Y-23750602D01*
X60795830Y-23750602D01*
X60711116Y-23766542D01*
X60633312Y-23816608D01*
X60621292Y-23834200D01*
X60612902Y-23821162D01*
X60536510Y-23768965D01*
X60445830Y-23750602D01*
X59545830Y-23750602D01*
X59461116Y-23766542D01*
X59413908Y-23796920D01*
X59413908Y-23270215D01*
X59455150Y-23298395D01*
X59545830Y-23316758D01*
X60445830Y-23316758D01*
X60530544Y-23300818D01*
X60608348Y-23250752D01*
X60620368Y-23233160D01*
X60628758Y-23246198D01*
X60705150Y-23298395D01*
X60795830Y-23316758D01*
X61695830Y-23316758D01*
X61780544Y-23300818D01*
X61858348Y-23250752D01*
X61870368Y-23233160D01*
X61878758Y-23246198D01*
X61955150Y-23298395D01*
X62045830Y-23316758D01*
X62945830Y-23316758D01*
X63030544Y-23300818D01*
X63108348Y-23250752D01*
X63160545Y-23174360D01*
X63178908Y-23083680D01*
X63178908Y-22483680D01*
X63162968Y-22398966D01*
X63112902Y-22321162D01*
X63036510Y-22268965D01*
X62945830Y-22250602D01*
X62828908Y-22250602D01*
X62828908Y-21633680D01*
X62828025Y-21628985D01*
X68056241Y-21628985D01*
X68064719Y-21804455D01*
X68383247Y-21897593D01*
X68713171Y-21861745D01*
X68851481Y-21804455D01*
X68859959Y-21628985D01*
X68458100Y-21227126D01*
X68056241Y-21628985D01*
X62828025Y-21628985D01*
X62812968Y-21548966D01*
X62762902Y-21471162D01*
X62686510Y-21418965D01*
X62595830Y-21400602D01*
X62447641Y-21400602D01*
X62274165Y-21227126D01*
X62222688Y-21278604D01*
X62045911Y-21101827D01*
X62097388Y-21050349D01*
X62450942Y-21050349D01*
X62852801Y-21452208D01*
X63028271Y-21443730D01*
X63121409Y-21125202D01*
X63105143Y-20975496D01*
X67610856Y-20975496D01*
X67646704Y-21305420D01*
X67703994Y-21443730D01*
X67879464Y-21452208D01*
X68281323Y-21050349D01*
X68634877Y-21050349D01*
X69036736Y-21452208D01*
X69212206Y-21443730D01*
X69305344Y-21125202D01*
X69269496Y-20795278D01*
X69212206Y-20656968D01*
X69036736Y-20648490D01*
X68634877Y-21050349D01*
X68281323Y-21050349D01*
X67879464Y-20648490D01*
X67703994Y-20656968D01*
X67610856Y-20975496D01*
X63105143Y-20975496D01*
X63085561Y-20795278D01*
X63028271Y-20656968D01*
X62852801Y-20648490D01*
X62450942Y-21050349D01*
X62097388Y-21050349D01*
X61695529Y-20648490D01*
X61520059Y-20656968D01*
X61426921Y-20975496D01*
X61462769Y-21305420D01*
X61502195Y-21400602D01*
X59765030Y-21400602D01*
X59765030Y-20707530D01*
X59618980Y-20561480D01*
X58978630Y-20561480D01*
X58978630Y-20581480D01*
X58623030Y-20581480D01*
X58623030Y-20561480D01*
X57708630Y-20561480D01*
X57708630Y-20581480D01*
X57353030Y-20581480D01*
X57353030Y-20561480D01*
X56438630Y-20561480D01*
X56438630Y-20581480D01*
X56083030Y-20581480D01*
X56083030Y-20561480D01*
X55168630Y-20561480D01*
X55168630Y-21821830D01*
X55314680Y-21967880D01*
X55487035Y-21967880D01*
X55625830Y-21910389D01*
X55764625Y-21967880D01*
X55862752Y-21967880D01*
X55862752Y-22354004D01*
X55796116Y-22366542D01*
X55718312Y-22416608D01*
X55666115Y-22493000D01*
X55647752Y-22583680D01*
X55647752Y-24583680D01*
X55663692Y-24668394D01*
X55713758Y-24746198D01*
X55790150Y-24798395D01*
X55880830Y-24816758D01*
X56640830Y-24816758D01*
X56725544Y-24800818D01*
X56803348Y-24750752D01*
X56855545Y-24674360D01*
X56873908Y-24583680D01*
X56873908Y-22583680D01*
X56857968Y-22498966D01*
X56807902Y-22421162D01*
X56731510Y-22368965D01*
X56640830Y-22350602D01*
X56528908Y-22350602D01*
X56528908Y-22066758D01*
X57216179Y-22066758D01*
X57212752Y-22083680D01*
X57212752Y-22350602D01*
X57150830Y-22350602D01*
X57066116Y-22366542D01*
X56988312Y-22416608D01*
X56936115Y-22493000D01*
X56917752Y-22583680D01*
X56917752Y-24583680D01*
X56933692Y-24668394D01*
X56983758Y-24746198D01*
X57060150Y-24798395D01*
X57150830Y-24816758D01*
X57910830Y-24816758D01*
X57995544Y-24800818D01*
X58073348Y-24750752D01*
X58125545Y-24674360D01*
X58143908Y-24583680D01*
X58143908Y-22583680D01*
X58131316Y-22516758D01*
X58201304Y-22516758D01*
X58187752Y-22583680D01*
X58187752Y-24583680D01*
X58203692Y-24668394D01*
X58253758Y-24746198D01*
X58330150Y-24798395D01*
X58420830Y-24816758D01*
X59180830Y-24816758D01*
X59265544Y-24800818D01*
X59343348Y-24750752D01*
X59363093Y-24721854D01*
X59378758Y-24746198D01*
X59455150Y-24798395D01*
X59545830Y-24816758D01*
X60003722Y-24816758D01*
X57581511Y-26842139D01*
X57323547Y-26234413D01*
X57275774Y-26162662D01*
X57199288Y-26110605D01*
X57108574Y-26092406D01*
X57017927Y-26110935D01*
X54755738Y-27071177D01*
X54701986Y-27068580D01*
X54657829Y-27112737D01*
X54624614Y-27126836D01*
X54552863Y-27174609D01*
X54500806Y-27251095D01*
X54496122Y-27274444D01*
X54300127Y-27470439D01*
X54677403Y-27847715D01*
X55673329Y-30193971D01*
X55721102Y-30265722D01*
X55797588Y-30317779D01*
X55888302Y-30335978D01*
X55978949Y-30317449D01*
X58372262Y-29301548D01*
X58444013Y-29253775D01*
X58496070Y-29177289D01*
X58514269Y-29086575D01*
X58495740Y-28995928D01*
X57871944Y-27526356D01*
X59301400Y-26331087D01*
X59301400Y-30720000D01*
X59322607Y-30826616D01*
X59383000Y-30917000D01*
X59473384Y-30977393D01*
X59580000Y-30998600D01*
X70331400Y-30998600D01*
X70331400Y-37811400D01*
X59580000Y-37811400D01*
X59473384Y-37832607D01*
X59383000Y-37893000D01*
X59322607Y-37983384D01*
X59301400Y-38090000D01*
X59301400Y-43790000D01*
X59322607Y-43896616D01*
X59383000Y-43987000D01*
X59473384Y-44047393D01*
X59580000Y-44068600D01*
X71721400Y-44068600D01*
X71721400Y-45150000D01*
X71742607Y-45256616D01*
X71803000Y-45347000D01*
X71874072Y-45394489D01*
X71798890Y-45575995D01*
X71798890Y-45868350D01*
X71944940Y-46014400D01*
X72515170Y-46014400D01*
X72483678Y-46130533D01*
X72514472Y-46370000D01*
X71944940Y-46370000D01*
X71798890Y-46516050D01*
X71798890Y-46808405D01*
X71887829Y-47023123D01*
X72052168Y-47187461D01*
X72266886Y-47276400D01*
X74059240Y-47276400D01*
X74205290Y-47130350D01*
X74205290Y-46538598D01*
X74282502Y-46253867D01*
X74249136Y-45994400D01*
X74560890Y-45994400D01*
X74560890Y-46014400D01*
X74580890Y-46014400D01*
X74580890Y-46370000D01*
X74560890Y-46370000D01*
X74560890Y-47130350D01*
X74706940Y-47276400D01*
X76421400Y-47276400D01*
X76421400Y-47466880D01*
X76383090Y-47459122D01*
X72383090Y-47459122D01*
X72298376Y-47475062D01*
X72220572Y-47525128D01*
X72168375Y-47601520D01*
X72150012Y-47692200D01*
X72150012Y-48692200D01*
X72165952Y-48776914D01*
X72216018Y-48854718D01*
X72292410Y-48906915D01*
X72383090Y-48925278D01*
X76383090Y-48925278D01*
X76421400Y-48918069D01*
X76421400Y-49108000D01*
X74706940Y-49108000D01*
X74560890Y-49254050D01*
X74560890Y-50014400D01*
X74580890Y-50014400D01*
X74580890Y-50370000D01*
X74560890Y-50370000D01*
X74560890Y-50390000D01*
X74245586Y-50390000D01*
X74282502Y-50253867D01*
X74237637Y-49904983D01*
X74205290Y-49826890D01*
X74205290Y-49254050D01*
X74059240Y-49108000D01*
X72266886Y-49108000D01*
X72052168Y-49196939D01*
X71887829Y-49361277D01*
X71798890Y-49575995D01*
X71798890Y-49868350D01*
X71944940Y-50014400D01*
X72515170Y-50014400D01*
X72483678Y-50130533D01*
X72514472Y-50370000D01*
X71944940Y-50370000D01*
X71798890Y-50516050D01*
X71798890Y-50808405D01*
X71829125Y-50881400D01*
X51574805Y-50881400D01*
X51605040Y-50808405D01*
X51605040Y-50516050D01*
X51458990Y-50370000D01*
X50888760Y-50370000D01*
X50920252Y-50253867D01*
X50889458Y-50014400D01*
X51458990Y-50014400D01*
X51605040Y-49868350D01*
X51605040Y-49575995D01*
X51516101Y-49361277D01*
X51351762Y-49196939D01*
X51137044Y-49108000D01*
X49344690Y-49108000D01*
X49198640Y-49254050D01*
X49198640Y-49845802D01*
X49121428Y-50130533D01*
X49154794Y-50390000D01*
X48843040Y-50390000D01*
X48843040Y-50370000D01*
X48823040Y-50370000D01*
X48823040Y-50014400D01*
X48843040Y-50014400D01*
X48843040Y-49254050D01*
X48696990Y-49108000D01*
X46908600Y-49108000D01*
X46908600Y-49040164D01*
X61475958Y-49040164D01*
X61484436Y-49215634D01*
X61802964Y-49308772D01*
X62132888Y-49272924D01*
X62271198Y-49215634D01*
X62279676Y-49040164D01*
X61877817Y-48638305D01*
X61475958Y-49040164D01*
X46908600Y-49040164D01*
X46908600Y-48892184D01*
X46930160Y-48906915D01*
X47020840Y-48925278D01*
X51020840Y-48925278D01*
X51105554Y-48909338D01*
X51183358Y-48859272D01*
X51235555Y-48782880D01*
X51253918Y-48692200D01*
X51253918Y-48386675D01*
X61030573Y-48386675D01*
X61066421Y-48716599D01*
X61123711Y-48854909D01*
X61299181Y-48863387D01*
X61701040Y-48461528D01*
X62054594Y-48461528D01*
X62456453Y-48863387D01*
X62631923Y-48854909D01*
X62725061Y-48536381D01*
X62689213Y-48206457D01*
X62631923Y-48068147D01*
X62456453Y-48059669D01*
X62054594Y-48461528D01*
X61701040Y-48461528D01*
X61299181Y-48059669D01*
X61123711Y-48068147D01*
X61030573Y-48386675D01*
X51253918Y-48386675D01*
X51253918Y-47882892D01*
X61475958Y-47882892D01*
X61877817Y-48284751D01*
X62279676Y-47882892D01*
X62271198Y-47707422D01*
X61952670Y-47614284D01*
X61622746Y-47650132D01*
X61484436Y-47707422D01*
X61475958Y-47882892D01*
X51253918Y-47882892D01*
X51253918Y-47692200D01*
X51237978Y-47607486D01*
X51187912Y-47529682D01*
X51111520Y-47477485D01*
X51020840Y-47459122D01*
X47020840Y-47459122D01*
X46936126Y-47475062D01*
X46908600Y-47492775D01*
X46908600Y-47276400D01*
X48696990Y-47276400D01*
X48843040Y-47130350D01*
X48843040Y-46370000D01*
X48823040Y-46370000D01*
X48823040Y-46014400D01*
X48843040Y-46014400D01*
X48843040Y-45994400D01*
X49158344Y-45994400D01*
X49121428Y-46130533D01*
X49166293Y-46479417D01*
X49198640Y-46557510D01*
X49198640Y-47130350D01*
X49344690Y-47276400D01*
X51137044Y-47276400D01*
X51234629Y-47235979D01*
X62384002Y-47235979D01*
X62402531Y-47326626D01*
X63574724Y-50088140D01*
X63622497Y-50159891D01*
X63698983Y-50211948D01*
X63789697Y-50230147D01*
X63880344Y-50211618D01*
X65123855Y-49683779D01*
X65123791Y-49756737D01*
X65196500Y-49932706D01*
X65331015Y-50067455D01*
X65506857Y-50140471D01*
X65697256Y-50140638D01*
X65873225Y-50067929D01*
X66007974Y-49933414D01*
X66080990Y-49757572D01*
X66081157Y-49567173D01*
X66008448Y-49391204D01*
X65950313Y-49332968D01*
X66640116Y-49040164D01*
X67694781Y-49040164D01*
X67703259Y-49215634D01*
X68021787Y-49308772D01*
X68351711Y-49272924D01*
X68490021Y-49215634D01*
X68498499Y-49040164D01*
X68096640Y-48638305D01*
X67694781Y-49040164D01*
X66640116Y-49040164D01*
X67194161Y-48804986D01*
X67265912Y-48757213D01*
X67288388Y-48724189D01*
X67342534Y-48854909D01*
X67518004Y-48863387D01*
X67919863Y-48461528D01*
X68273417Y-48461528D01*
X68675276Y-48863387D01*
X68850746Y-48854909D01*
X68943884Y-48536381D01*
X68908036Y-48206457D01*
X68850746Y-48068147D01*
X68675276Y-48059669D01*
X68273417Y-48461528D01*
X67919863Y-48461528D01*
X67518004Y-48059669D01*
X67342534Y-48068147D01*
X67257720Y-48358206D01*
X67055962Y-47882892D01*
X67694781Y-47882892D01*
X68096640Y-48284751D01*
X68498499Y-47882892D01*
X68490021Y-47707422D01*
X68171493Y-47614284D01*
X67841569Y-47650132D01*
X67703259Y-47707422D01*
X67694781Y-47882892D01*
X67055962Y-47882892D01*
X66145446Y-45737852D01*
X66097673Y-45666101D01*
X66021187Y-45614044D01*
X65930473Y-45595845D01*
X65839826Y-45614374D01*
X62526009Y-47021006D01*
X62454258Y-47068779D01*
X62402201Y-47145265D01*
X62384002Y-47235979D01*
X51234629Y-47235979D01*
X51351762Y-47187461D01*
X51516101Y-47023123D01*
X51605040Y-46808405D01*
X51605040Y-46602982D01*
X53721491Y-46602982D01*
X53729969Y-46778452D01*
X54048497Y-46871590D01*
X54378421Y-46835742D01*
X54516731Y-46778452D01*
X54525209Y-46602982D01*
X54123350Y-46201123D01*
X53721491Y-46602982D01*
X51605040Y-46602982D01*
X51605040Y-46516050D01*
X51458990Y-46370000D01*
X50888760Y-46370000D01*
X50920252Y-46253867D01*
X50889458Y-46014400D01*
X51458990Y-46014400D01*
X51523897Y-45949493D01*
X53276106Y-45949493D01*
X53311954Y-46279417D01*
X53369244Y-46417727D01*
X53544714Y-46426205D01*
X53946573Y-46024346D01*
X54300127Y-46024346D01*
X54701986Y-46426205D01*
X54877456Y-46417727D01*
X54970594Y-46099199D01*
X54934746Y-45769275D01*
X54877456Y-45630965D01*
X54701986Y-45622487D01*
X54300127Y-46024346D01*
X53946573Y-46024346D01*
X53544714Y-45622487D01*
X53369244Y-45630965D01*
X53276106Y-45949493D01*
X51523897Y-45949493D01*
X51605040Y-45868350D01*
X51605040Y-45575995D01*
X51551075Y-45445710D01*
X53721491Y-45445710D01*
X54123350Y-45847569D01*
X54525209Y-45445710D01*
X54516731Y-45270240D01*
X54198203Y-45177102D01*
X53868279Y-45212950D01*
X53729969Y-45270240D01*
X53721491Y-45445710D01*
X51551075Y-45445710D01*
X51516101Y-45361277D01*
X51511908Y-45357084D01*
X51527000Y-45347000D01*
X51587393Y-45256616D01*
X51608600Y-45150000D01*
X51608600Y-40418346D01*
X53721491Y-40418346D01*
X53729969Y-40593816D01*
X54048497Y-40686954D01*
X54378421Y-40651106D01*
X54516731Y-40593816D01*
X54525209Y-40418346D01*
X54123350Y-40016487D01*
X53721491Y-40418346D01*
X51608600Y-40418346D01*
X51608600Y-39764857D01*
X53276106Y-39764857D01*
X53311954Y-40094781D01*
X53369244Y-40233091D01*
X53544714Y-40241569D01*
X53946573Y-39839710D01*
X54300127Y-39839710D01*
X54701986Y-40241569D01*
X54877456Y-40233091D01*
X54970594Y-39914563D01*
X54934746Y-39584639D01*
X54877456Y-39446329D01*
X54701986Y-39437851D01*
X54300127Y-39839710D01*
X53946573Y-39839710D01*
X53544714Y-39437851D01*
X53369244Y-39446329D01*
X53276106Y-39764857D01*
X51608600Y-39764857D01*
X51608600Y-39261074D01*
X53721491Y-39261074D01*
X54123350Y-39662933D01*
X54525209Y-39261074D01*
X54516731Y-39085604D01*
X54198203Y-38992466D01*
X53868279Y-39028314D01*
X53729969Y-39085604D01*
X53721491Y-39261074D01*
X51608600Y-39261074D01*
X51608600Y-35929038D01*
X61308718Y-35929038D01*
X61317196Y-36104508D01*
X61635724Y-36197646D01*
X61965648Y-36161798D01*
X62103958Y-36104508D01*
X62112436Y-35929038D01*
X67528611Y-35929038D01*
X67537089Y-36104508D01*
X67855617Y-36197646D01*
X68185541Y-36161798D01*
X68323851Y-36104508D01*
X68332329Y-35929038D01*
X67930470Y-35527179D01*
X67528611Y-35929038D01*
X62112436Y-35929038D01*
X61710577Y-35527179D01*
X61308718Y-35929038D01*
X51608600Y-35929038D01*
X51608600Y-35275549D01*
X60863333Y-35275549D01*
X60899181Y-35605473D01*
X60956471Y-35743783D01*
X61131941Y-35752261D01*
X61533800Y-35350402D01*
X61887354Y-35350402D01*
X62289213Y-35752261D01*
X62464683Y-35743783D01*
X62557821Y-35425255D01*
X62541555Y-35275549D01*
X67083226Y-35275549D01*
X67119074Y-35605473D01*
X67176364Y-35743783D01*
X67351834Y-35752261D01*
X67753693Y-35350402D01*
X68107247Y-35350402D01*
X68509106Y-35752261D01*
X68684576Y-35743783D01*
X68777714Y-35425255D01*
X68741866Y-35095331D01*
X68684576Y-34957021D01*
X68509106Y-34948543D01*
X68107247Y-35350402D01*
X67753693Y-35350402D01*
X67351834Y-34948543D01*
X67176364Y-34957021D01*
X67083226Y-35275549D01*
X62541555Y-35275549D01*
X62521973Y-35095331D01*
X62464683Y-34957021D01*
X62289213Y-34948543D01*
X61887354Y-35350402D01*
X61533800Y-35350402D01*
X61131941Y-34948543D01*
X60956471Y-34957021D01*
X60863333Y-35275549D01*
X51608600Y-35275549D01*
X51608600Y-34771766D01*
X61308718Y-34771766D01*
X61710577Y-35173625D01*
X62112436Y-34771766D01*
X67528611Y-34771766D01*
X67930470Y-35173625D01*
X68332329Y-34771766D01*
X68323851Y-34596296D01*
X68005323Y-34503158D01*
X67675399Y-34539006D01*
X67537089Y-34596296D01*
X67528611Y-34771766D01*
X62112436Y-34771766D01*
X62103958Y-34596296D01*
X61785430Y-34503158D01*
X61455506Y-34539006D01*
X61317196Y-34596296D01*
X61308718Y-34771766D01*
X51608600Y-34771766D01*
X51608600Y-34233708D01*
X53721491Y-34233708D01*
X53729969Y-34409178D01*
X54048497Y-34502316D01*
X54378421Y-34466468D01*
X54516731Y-34409178D01*
X54525209Y-34233708D01*
X54123350Y-33831849D01*
X53721491Y-34233708D01*
X51608600Y-34233708D01*
X51608600Y-32850000D01*
X51893800Y-32850000D01*
X51893800Y-33030000D01*
X51893994Y-33035429D01*
X51903994Y-33175429D01*
X51905904Y-33187783D01*
X51965904Y-33437783D01*
X51974397Y-33458765D01*
X52104397Y-33678765D01*
X52119025Y-33696639D01*
X52319025Y-33876639D01*
X52331605Y-33885820D01*
X52451605Y-33955820D01*
X52490000Y-33966200D01*
X52630000Y-33966200D01*
X52642527Y-33965163D01*
X52702527Y-33955163D01*
X52733430Y-33942612D01*
X52754368Y-33920783D01*
X52765163Y-33892527D01*
X52775163Y-33832527D01*
X52776200Y-33820000D01*
X52776200Y-33750000D01*
X52774478Y-33733893D01*
X52762344Y-33706186D01*
X52740386Y-33685383D01*
X52511238Y-33542166D01*
X52317935Y-33302838D01*
X52264976Y-33143962D01*
X52256200Y-33056198D01*
X52256200Y-32926674D01*
X52282492Y-32777687D01*
X52581775Y-32294972D01*
X52858103Y-31969300D01*
X52874174Y-31937453D01*
X52914174Y-31767453D01*
X52916200Y-31750000D01*
X52916200Y-31540000D01*
X52911922Y-31514827D01*
X52851405Y-31341920D01*
X53153824Y-31341920D01*
X53183812Y-32531436D01*
X53193800Y-33300528D01*
X53193800Y-33410000D01*
X53195280Y-33424944D01*
X53205280Y-33474944D01*
X53217388Y-33503430D01*
X53239217Y-33524368D01*
X53267473Y-33535163D01*
X53288267Y-33538629D01*
X53276106Y-33580219D01*
X53311954Y-33910143D01*
X53369244Y-34048453D01*
X53544714Y-34056931D01*
X53946573Y-33655072D01*
X53895096Y-33603595D01*
X54052490Y-33446200D01*
X54091255Y-33446200D01*
X54123350Y-33478295D01*
X54176984Y-33424661D01*
X54184097Y-33422290D01*
X54205947Y-33410789D01*
X54225977Y-33388124D01*
X54232281Y-33369364D01*
X54525209Y-33076436D01*
X54516731Y-32900966D01*
X54213228Y-32812221D01*
X54146001Y-31884493D01*
X54145509Y-31879761D01*
X54112507Y-31636369D01*
X54225029Y-31636369D01*
X54225280Y-31664944D01*
X54255280Y-31814944D01*
X54274087Y-31851771D01*
X54524087Y-32121771D01*
X54543707Y-32137002D01*
X54748197Y-32247767D01*
X54784178Y-32607582D01*
X54788652Y-32626756D01*
X54810524Y-32685081D01*
X54775826Y-32832547D01*
X54773800Y-32850000D01*
X54773800Y-33256683D01*
X54701986Y-33253213D01*
X54300127Y-33655072D01*
X54701986Y-34056931D01*
X54877456Y-34048453D01*
X54942443Y-33826200D01*
X55030000Y-33826200D01*
X55053600Y-33822453D01*
X55079929Y-33807563D01*
X55098391Y-33783602D01*
X55106076Y-33754347D01*
X55145950Y-33056548D01*
X55175698Y-32798734D01*
X55175656Y-32780913D01*
X55166160Y-32752194D01*
X55154244Y-32731340D01*
X55164230Y-32720999D01*
X55175121Y-32692780D01*
X55174174Y-32662547D01*
X55136200Y-32501158D01*
X55136200Y-31890000D01*
X55130989Y-31862305D01*
X55114621Y-31836868D01*
X55099109Y-31826269D01*
X55110323Y-31816558D01*
X55123684Y-31789421D01*
X55125434Y-31759224D01*
X55085434Y-31479224D01*
X55074617Y-31449614D01*
X54924617Y-31209614D01*
X54913675Y-31199398D01*
X55243802Y-31199398D01*
X55249571Y-31229090D01*
X55438168Y-31685694D01*
X55644777Y-32364552D01*
X55663846Y-32583836D01*
X55673807Y-33301058D01*
X55674732Y-33311884D01*
X55734732Y-33691884D01*
X55739011Y-33707695D01*
X55755379Y-33733132D01*
X55780354Y-33750197D01*
X55810000Y-33756200D01*
X55910000Y-33756200D01*
X55940017Y-33750039D01*
X56010017Y-33720039D01*
X56037998Y-33699423D01*
X56052657Y-33672964D01*
X56055867Y-33642887D01*
X56034886Y-33419087D01*
X56314344Y-33419087D01*
X56323840Y-33447806D01*
X56363840Y-33517806D01*
X56373054Y-33530632D01*
X56397239Y-33548798D01*
X56607239Y-33648798D01*
X56648903Y-33655678D01*
X56818903Y-33635678D01*
X56838673Y-33630599D01*
X56863882Y-33613882D01*
X57053882Y-33423882D01*
X57068335Y-33403717D01*
X57076069Y-33374475D01*
X57086049Y-33204819D01*
X57116015Y-32775303D01*
X57116185Y-32771524D01*
X57122134Y-32474073D01*
X57404031Y-32474073D01*
X57407710Y-32504097D01*
X57475789Y-32708333D01*
X57574804Y-33312327D01*
X57581202Y-33332761D01*
X57681202Y-33542761D01*
X57703946Y-33570708D01*
X57993946Y-33790708D01*
X58032418Y-33805822D01*
X58232418Y-33825822D01*
X58246899Y-33825887D01*
X58356899Y-33815887D01*
X58395202Y-33801345D01*
X58585202Y-33661345D01*
X58607682Y-33635008D01*
X58757682Y-33345008D01*
X58764128Y-33327649D01*
X58864128Y-32907649D01*
X58865766Y-32898118D01*
X58895766Y-32618118D01*
X58896200Y-32610000D01*
X58896200Y-32580000D01*
X58895922Y-32573492D01*
X58865922Y-32223492D01*
X58864083Y-32212165D01*
X58734083Y-31672165D01*
X58726611Y-31652994D01*
X58534305Y-31306843D01*
X60044108Y-31306843D01*
X60154108Y-32526843D01*
X60154524Y-32530483D01*
X60304524Y-33610483D01*
X60305945Y-33617953D01*
X60385945Y-33947953D01*
X60394165Y-33968370D01*
X60414280Y-33990960D01*
X60454280Y-34020960D01*
X60478104Y-34032986D01*
X60578104Y-34062986D01*
X60600000Y-34066200D01*
X60640000Y-34066200D01*
X60676881Y-34056680D01*
X60699917Y-34037078D01*
X60795860Y-33914968D01*
X60828239Y-34005629D01*
X60836020Y-34021388D01*
X60857163Y-34043019D01*
X60885056Y-34054720D01*
X60935056Y-34064720D01*
X60950000Y-34066200D01*
X61010000Y-34066200D01*
X61024944Y-34064720D01*
X61074944Y-34054720D01*
X61103016Y-34042897D01*
X61124098Y-34021206D01*
X61214098Y-33881206D01*
X61224461Y-33856187D01*
X61324461Y-33396187D01*
X61325984Y-33385735D01*
X61365984Y-32855735D01*
X61366200Y-32850000D01*
X61366200Y-31790000D01*
X61773800Y-31790000D01*
X61773800Y-32620000D01*
X61774228Y-32628061D01*
X61824228Y-33098061D01*
X61827126Y-33112267D01*
X61937126Y-33472267D01*
X61946174Y-33491626D01*
X62096174Y-33721626D01*
X62116302Y-33742425D01*
X62216302Y-33812425D01*
X62230354Y-33820197D01*
X62260000Y-33826200D01*
X62360000Y-33826200D01*
X62369451Y-33825612D01*
X62449451Y-33815612D01*
X62486460Y-33800398D01*
X62616460Y-33700398D01*
X62635341Y-33679205D01*
X62695341Y-33579205D01*
X62706171Y-33542105D01*
X62700989Y-33512305D01*
X62689133Y-33493880D01*
X62716359Y-33486966D01*
X62739548Y-33467544D01*
X62753354Y-33440631D01*
X62759413Y-33419087D01*
X63034344Y-33419087D01*
X63043840Y-33447806D01*
X63083840Y-33517806D01*
X63115922Y-33548155D01*
X63315922Y-33648155D01*
X63358903Y-33655678D01*
X63528903Y-33635678D01*
X63548673Y-33630599D01*
X63573882Y-33613882D01*
X63763882Y-33423882D01*
X63776252Y-33407645D01*
X63785678Y-33378903D01*
X63805678Y-33208903D01*
X63806015Y-33205303D01*
X63836015Y-32775303D01*
X63836200Y-32770000D01*
X63836200Y-32474073D01*
X64114031Y-32474073D01*
X64117710Y-32504097D01*
X64185982Y-32708913D01*
X64295010Y-33313523D01*
X64299961Y-33330017D01*
X64389961Y-33540017D01*
X64414938Y-33571448D01*
X64714938Y-33791448D01*
X64752023Y-33805781D01*
X64942023Y-33825781D01*
X64956899Y-33825887D01*
X65066899Y-33815887D01*
X65105202Y-33801345D01*
X65295202Y-33661345D01*
X65317682Y-33635008D01*
X65467682Y-33345008D01*
X65474128Y-33327649D01*
X65574128Y-32907649D01*
X65575434Y-32900776D01*
X65615434Y-32620776D01*
X65616200Y-32610000D01*
X65616200Y-32580000D01*
X65615707Y-32571348D01*
X65575707Y-32221348D01*
X65574083Y-32212165D01*
X65444083Y-31672165D01*
X65436611Y-31652994D01*
X65236611Y-31292994D01*
X65213374Y-31267349D01*
X64953374Y-31087349D01*
X64919451Y-31074388D01*
X64759451Y-31054388D01*
X64721700Y-31059250D01*
X64671700Y-31079250D01*
X64639040Y-31104280D01*
X64579040Y-31184280D01*
X64564878Y-31217225D01*
X64565827Y-31247458D01*
X64578463Y-31274940D01*
X64600795Y-31295341D01*
X64936881Y-31496993D01*
X65060539Y-31673647D01*
X65204541Y-32153654D01*
X65223800Y-32442534D01*
X65223800Y-32575889D01*
X65184911Y-32935616D01*
X65090024Y-33277206D01*
X65016704Y-33383114D01*
X64998893Y-33393800D01*
X64839640Y-33393800D01*
X64755361Y-33316544D01*
X64625744Y-32955469D01*
X64616200Y-32678679D01*
X64616200Y-32643228D01*
X64731850Y-32535839D01*
X64750197Y-32509646D01*
X64756200Y-32480000D01*
X64756200Y-32440000D01*
X64750750Y-32411700D01*
X64730750Y-32361700D01*
X64720006Y-32343035D01*
X64697006Y-32323389D01*
X64607006Y-32273389D01*
X64570000Y-32263800D01*
X64320000Y-32263800D01*
X64304032Y-32265492D01*
X64276302Y-32277575D01*
X64176302Y-32347575D01*
X64149961Y-32379983D01*
X64119961Y-32449983D01*
X64114031Y-32474073D01*
X63836200Y-32474073D01*
X63836200Y-31440000D01*
X63832290Y-31415903D01*
X63812290Y-31355903D01*
X63803980Y-31338612D01*
X63782837Y-31316981D01*
X63754944Y-31305280D01*
X63704944Y-31295280D01*
X63690000Y-31293800D01*
X63660000Y-31293800D01*
X63620795Y-31304659D01*
X63570795Y-31334659D01*
X63545420Y-31359555D01*
X63534772Y-31387866D01*
X63484772Y-31697866D01*
X63483800Y-31710000D01*
X63483800Y-32985662D01*
X63452013Y-33263800D01*
X63426305Y-33263800D01*
X63192527Y-33224837D01*
X63164499Y-33225393D01*
X63136694Y-33237302D01*
X63115713Y-33259090D01*
X63045713Y-33369090D01*
X63036769Y-33388937D01*
X63034344Y-33419087D01*
X62759413Y-33419087D01*
X62843354Y-33120631D01*
X62845947Y-33106200D01*
X62885947Y-32616200D01*
X62886183Y-32608379D01*
X62876183Y-32138379D01*
X62873652Y-32120460D01*
X62743652Y-31630460D01*
X62732006Y-31605710D01*
X62582006Y-31395710D01*
X62566782Y-31379851D01*
X62476782Y-31309851D01*
X62459646Y-31299803D01*
X62430000Y-31293800D01*
X62190000Y-31293800D01*
X62167271Y-31297269D01*
X62007271Y-31347269D01*
X61970774Y-31372055D01*
X61800774Y-31582055D01*
X61791789Y-31596033D01*
X61783948Y-31625247D01*
X61773948Y-31785247D01*
X61773800Y-31790000D01*
X61366200Y-31790000D01*
X61366200Y-31720000D01*
X61365707Y-31711348D01*
X61325707Y-31361348D01*
X61320989Y-31342305D01*
X61304621Y-31316868D01*
X61279646Y-31299803D01*
X61250000Y-31293800D01*
X61150000Y-31293800D01*
X61122305Y-31299011D01*
X61096868Y-31315379D01*
X61079803Y-31340354D01*
X61073800Y-31370000D01*
X61073800Y-31462012D01*
X61051845Y-31505922D01*
X61043917Y-31544227D01*
X61073800Y-32082121D01*
X61073800Y-32509131D01*
X61063912Y-32934305D01*
X61020302Y-33278339D01*
X61015840Y-33232601D01*
X61014720Y-33225056D01*
X60924720Y-32775056D01*
X60903882Y-32736118D01*
X60863882Y-32696118D01*
X60839646Y-32679803D01*
X60810000Y-32673800D01*
X60770000Y-32673800D01*
X60741700Y-32679250D01*
X60691700Y-32699250D01*
X60666606Y-32715636D01*
X60649662Y-32740692D01*
X60599662Y-32860692D01*
X60593800Y-32890000D01*
X60593800Y-32930000D01*
X60601845Y-32964078D01*
X60621162Y-33002712D01*
X60599423Y-33152707D01*
X60545898Y-32553223D01*
X60545553Y-32550091D01*
X60385553Y-31330091D01*
X60379370Y-31308468D01*
X60329370Y-31198468D01*
X60314621Y-31176868D01*
X60289646Y-31159803D01*
X60260000Y-31153800D01*
X60190000Y-31153800D01*
X60165903Y-31157710D01*
X60105903Y-31177710D01*
X60088612Y-31186020D01*
X60066981Y-31207163D01*
X60055280Y-31235056D01*
X60045280Y-31285056D01*
X60044108Y-31306843D01*
X58534305Y-31306843D01*
X58526611Y-31292994D01*
X58502268Y-31266598D01*
X58232268Y-31086598D01*
X58199451Y-31074388D01*
X58039451Y-31054388D01*
X58001700Y-31059250D01*
X57951700Y-31079250D01*
X57936186Y-31087656D01*
X57915383Y-31109614D01*
X57865383Y-31189614D01*
X57855049Y-31216259D01*
X57855608Y-31246502D01*
X57867889Y-31274144D01*
X57889957Y-31294831D01*
X58216588Y-31496574D01*
X58340947Y-31674229D01*
X58494195Y-32153130D01*
X58503800Y-32441279D01*
X58503800Y-32575889D01*
X58464911Y-32935616D01*
X58369461Y-33279233D01*
X58304851Y-33384226D01*
X58288893Y-33393800D01*
X58127913Y-33393800D01*
X58035533Y-33315633D01*
X57915352Y-32955090D01*
X57896200Y-32677382D01*
X57896200Y-32643228D01*
X58011850Y-32535839D01*
X58030197Y-32509646D01*
X58036200Y-32480000D01*
X58036200Y-32440000D01*
X58030750Y-32411700D01*
X58010750Y-32361700D01*
X58002344Y-32346186D01*
X57980386Y-32325383D01*
X57900386Y-32275383D01*
X57860000Y-32263800D01*
X57610000Y-32263800D01*
X57569090Y-32275713D01*
X57459090Y-32345713D01*
X57440649Y-32362210D01*
X57426732Y-32389066D01*
X57406732Y-32459066D01*
X57404031Y-32474073D01*
X57122134Y-32474073D01*
X57126185Y-32271524D01*
X57126200Y-32270000D01*
X57126200Y-31440000D01*
X57122290Y-31415903D01*
X57102290Y-31355903D01*
X57093980Y-31338612D01*
X57072837Y-31316981D01*
X57044944Y-31305280D01*
X56994944Y-31295280D01*
X56980000Y-31293800D01*
X56940000Y-31293800D01*
X56921599Y-31296055D01*
X56894280Y-31309040D01*
X56854280Y-31339040D01*
X56835420Y-31359555D01*
X56824772Y-31387866D01*
X56774772Y-31697866D01*
X56773849Y-31707280D01*
X56763849Y-31987280D01*
X56763800Y-31990000D01*
X56763800Y-32986735D01*
X56740052Y-33263800D01*
X56706305Y-33263800D01*
X56472527Y-33224837D01*
X56444499Y-33225393D01*
X56416694Y-33237302D01*
X56395713Y-33259090D01*
X56325713Y-33369090D01*
X56316769Y-33388937D01*
X56314344Y-33419087D01*
X56034886Y-33419087D01*
X55966115Y-32685530D01*
X55956839Y-32295931D01*
X55979502Y-32267602D01*
X55992152Y-32244505D01*
X56172152Y-31714505D01*
X56174013Y-31708126D01*
X56294013Y-31218126D01*
X56296200Y-31200000D01*
X56296200Y-31130000D01*
X56290989Y-31102305D01*
X56274621Y-31076868D01*
X56249646Y-31059803D01*
X56220000Y-31053800D01*
X56150000Y-31053800D01*
X56110795Y-31064659D01*
X56060795Y-31094659D01*
X56044682Y-31107594D01*
X56028652Y-31133244D01*
X55878652Y-31533244D01*
X55877126Y-31537733D01*
X55818155Y-31730731D01*
X55741019Y-31532382D01*
X55739137Y-31527961D01*
X55549137Y-31117961D01*
X55533882Y-31096118D01*
X55483882Y-31046118D01*
X55445304Y-31025353D01*
X55415056Y-31025280D01*
X55365056Y-31035280D01*
X55338038Y-31046395D01*
X55316598Y-31067732D01*
X55256598Y-31157732D01*
X55243802Y-31199398D01*
X54913675Y-31199398D01*
X54895859Y-31182765D01*
X54745859Y-31102765D01*
X54717582Y-31094178D01*
X54617582Y-31084178D01*
X54597473Y-31084837D01*
X54537473Y-31094837D01*
X54510795Y-31104659D01*
X54410795Y-31164659D01*
X54383232Y-31193278D01*
X54273232Y-31393278D01*
X54265029Y-31416369D01*
X54225029Y-31636369D01*
X54112507Y-31636369D01*
X54065509Y-31289761D01*
X54061134Y-31272680D01*
X54044901Y-31247157D01*
X54020017Y-31229961D01*
X53950017Y-31199961D01*
X53920000Y-31193800D01*
X53890000Y-31193800D01*
X53847169Y-31206977D01*
X53826024Y-31228606D01*
X53814959Y-31256758D01*
X53784959Y-31426758D01*
X53783800Y-31440000D01*
X53783800Y-31820000D01*
X53784095Y-31826698D01*
X53806780Y-32083800D01*
X53651628Y-32083800D01*
X53524955Y-32044215D01*
X53515180Y-32031995D01*
X53506144Y-31797071D01*
X53505560Y-31790144D01*
X53445560Y-31330144D01*
X53440989Y-31312305D01*
X53424621Y-31286868D01*
X53399646Y-31269803D01*
X53370000Y-31263800D01*
X53230000Y-31263800D01*
X53200524Y-31269732D01*
X53175508Y-31286736D01*
X53159079Y-31312132D01*
X53153824Y-31341920D01*
X52851405Y-31341920D01*
X52841922Y-31314827D01*
X52823882Y-31286118D01*
X52593882Y-31056118D01*
X52574250Y-31041931D01*
X52545069Y-31033969D01*
X52395069Y-31023969D01*
X52390000Y-31023800D01*
X52350000Y-31023800D01*
X52335056Y-31025280D01*
X52285056Y-31035280D01*
X52253035Y-31049994D01*
X52233389Y-31072994D01*
X52183389Y-31162994D01*
X52173800Y-31200000D01*
X52173800Y-31270000D01*
X52179011Y-31297695D01*
X52195379Y-31323132D01*
X52220354Y-31340197D01*
X52250000Y-31346200D01*
X52392799Y-31346200D01*
X52473726Y-31412414D01*
X52576753Y-31558368D01*
X52583123Y-31609328D01*
X52567208Y-31720733D01*
X52300869Y-32091704D01*
X52054087Y-32358229D01*
X52039077Y-32382137D01*
X51929077Y-32662137D01*
X51925105Y-32675957D01*
X51895105Y-32835957D01*
X51893800Y-32850000D01*
X51608600Y-32850000D01*
X51608600Y-28049075D01*
X53721491Y-28049075D01*
X53729969Y-28224545D01*
X54048497Y-28317683D01*
X54378421Y-28281835D01*
X54516731Y-28224545D01*
X54525209Y-28049075D01*
X54123350Y-27647216D01*
X53721491Y-28049075D01*
X51608600Y-28049075D01*
X51608600Y-27395586D01*
X53276106Y-27395586D01*
X53311954Y-27725510D01*
X53369244Y-27863820D01*
X53544714Y-27872298D01*
X53946573Y-27470439D01*
X53544714Y-27068580D01*
X53369244Y-27077058D01*
X53276106Y-27395586D01*
X51608600Y-27395586D01*
X51608600Y-26891803D01*
X53721491Y-26891803D01*
X54123350Y-27293662D01*
X54525209Y-26891803D01*
X54516731Y-26716333D01*
X54198203Y-26623195D01*
X53868279Y-26659043D01*
X53729969Y-26716333D01*
X53721491Y-26891803D01*
X51608600Y-26891803D01*
X51608600Y-22583680D01*
X54387752Y-22583680D01*
X54387752Y-24583680D01*
X54403692Y-24668394D01*
X54453758Y-24746198D01*
X54530150Y-24798395D01*
X54620830Y-24816758D01*
X55360830Y-24816758D01*
X55445544Y-24800818D01*
X55523348Y-24750752D01*
X55575545Y-24674360D01*
X55593908Y-24583680D01*
X55593908Y-22583680D01*
X55577968Y-22498966D01*
X55527902Y-22421162D01*
X55451510Y-22368965D01*
X55360830Y-22350602D01*
X54620830Y-22350602D01*
X54536116Y-22366542D01*
X54458312Y-22416608D01*
X54406115Y-22493000D01*
X54387752Y-22583680D01*
X51608600Y-22583680D01*
X51608600Y-21210953D01*
X53276106Y-21210953D01*
X53311954Y-21540877D01*
X53369244Y-21679187D01*
X53544714Y-21687665D01*
X53946573Y-21285806D01*
X53544714Y-20883947D01*
X53369244Y-20892425D01*
X53276106Y-21210953D01*
X51608600Y-21210953D01*
X51608600Y-20707170D01*
X53721491Y-20707170D01*
X54026630Y-21012309D01*
X54026630Y-21499884D01*
X54044033Y-21541900D01*
X53721491Y-21864442D01*
X53729969Y-22039912D01*
X54048497Y-22133050D01*
X54378421Y-22097202D01*
X54516731Y-22039912D01*
X54520211Y-21967880D01*
X54553974Y-21967880D01*
X54597994Y-22011900D01*
X54642014Y-21967880D01*
X54666980Y-21967880D01*
X54813030Y-21821830D01*
X54813030Y-21796864D01*
X54849444Y-21760450D01*
X54813030Y-21724036D01*
X54813030Y-21682300D01*
X54877456Y-21679187D01*
X54970594Y-21360659D01*
X54934746Y-21030735D01*
X54877456Y-20892425D01*
X54813030Y-20889312D01*
X54813030Y-20847576D01*
X54849444Y-20811162D01*
X54813030Y-20774748D01*
X54813030Y-20561480D01*
X54599762Y-20561480D01*
X54597994Y-20559712D01*
X54596226Y-20561480D01*
X54518170Y-20561480D01*
X54516731Y-20531700D01*
X54311579Y-20471713D01*
X61872306Y-20471713D01*
X62274165Y-20873572D01*
X62676024Y-20471713D01*
X68056241Y-20471713D01*
X68458100Y-20873572D01*
X68859959Y-20471713D01*
X68851481Y-20296243D01*
X68532953Y-20203105D01*
X68203029Y-20238953D01*
X68064719Y-20296243D01*
X68056241Y-20471713D01*
X62676024Y-20471713D01*
X62667546Y-20296243D01*
X62349018Y-20203105D01*
X62019094Y-20238953D01*
X61880784Y-20296243D01*
X61872306Y-20471713D01*
X54311579Y-20471713D01*
X54198203Y-20438562D01*
X53868279Y-20474410D01*
X53729969Y-20531700D01*
X53721491Y-20707170D01*
X51608600Y-20707170D01*
X51608600Y-18998600D01*
X54169727Y-18998600D01*
X54115569Y-19052758D01*
X54115569Y-19052758D01*
G37*
X54115569Y-19052758D02*
X54026630Y-19267476D01*
X54026630Y-20059830D01*
X54172680Y-20205880D01*
X54813030Y-20205880D01*
X54813030Y-20185880D01*
X55168630Y-20185880D01*
X55168630Y-20205880D01*
X56083030Y-20205880D01*
X56083030Y-20185880D01*
X56438630Y-20185880D01*
X56438630Y-20205880D01*
X57353030Y-20205880D01*
X57353030Y-20185880D01*
X57708630Y-20185880D01*
X57708630Y-20205880D01*
X58623030Y-20205880D01*
X58623030Y-20185880D01*
X58978630Y-20185880D01*
X58978630Y-20205880D01*
X59618980Y-20205880D01*
X59765030Y-20059830D01*
X59765030Y-19267476D01*
X59676091Y-19052758D01*
X59621933Y-18998600D01*
X71301400Y-18998600D01*
X71301400Y-25861400D01*
X59863112Y-25861400D01*
X61112430Y-24816758D01*
X61695830Y-24816758D01*
X61780544Y-24800818D01*
X61858348Y-24750752D01*
X61870368Y-24733160D01*
X61878758Y-24746198D01*
X61955150Y-24798395D01*
X62045830Y-24816758D01*
X62945830Y-24816758D01*
X63030544Y-24800818D01*
X63108348Y-24750752D01*
X63160545Y-24674360D01*
X63178908Y-24583680D01*
X63178908Y-23983680D01*
X63162968Y-23898966D01*
X63112902Y-23821162D01*
X63036510Y-23768965D01*
X62945830Y-23750602D01*
X62045830Y-23750602D01*
X61961116Y-23766542D01*
X61883312Y-23816608D01*
X61871292Y-23834200D01*
X61862902Y-23821162D01*
X61786510Y-23768965D01*
X61695830Y-23750602D01*
X60795830Y-23750602D01*
X60711116Y-23766542D01*
X60633312Y-23816608D01*
X60621292Y-23834200D01*
X60612902Y-23821162D01*
X60536510Y-23768965D01*
X60445830Y-23750602D01*
X59545830Y-23750602D01*
X59461116Y-23766542D01*
X59413908Y-23796920D01*
X59413908Y-23270215D01*
X59455150Y-23298395D01*
X59545830Y-23316758D01*
X60445830Y-23316758D01*
X60530544Y-23300818D01*
X60608348Y-23250752D01*
X60620368Y-23233160D01*
X60628758Y-23246198D01*
X60705150Y-23298395D01*
X60795830Y-23316758D01*
X61695830Y-23316758D01*
X61780544Y-23300818D01*
X61858348Y-23250752D01*
X61870368Y-23233160D01*
X61878758Y-23246198D01*
X61955150Y-23298395D01*
X62045830Y-23316758D01*
X62945830Y-23316758D01*
X63030544Y-23300818D01*
X63108348Y-23250752D01*
X63160545Y-23174360D01*
X63178908Y-23083680D01*
X63178908Y-22483680D01*
X63162968Y-22398966D01*
X63112902Y-22321162D01*
X63036510Y-22268965D01*
X62945830Y-22250602D01*
X62828908Y-22250602D01*
X62828908Y-21633680D01*
X62828025Y-21628985D01*
X68056241Y-21628985D01*
X68064719Y-21804455D01*
X68383247Y-21897593D01*
X68713171Y-21861745D01*
X68851481Y-21804455D01*
X68859959Y-21628985D01*
X68458100Y-21227126D01*
X68056241Y-21628985D01*
X62828025Y-21628985D01*
X62812968Y-21548966D01*
X62762902Y-21471162D01*
X62686510Y-21418965D01*
X62595830Y-21400602D01*
X62447641Y-21400602D01*
X62274165Y-21227126D01*
X62222688Y-21278604D01*
X62045911Y-21101827D01*
X62097388Y-21050349D01*
X62450942Y-21050349D01*
X62852801Y-21452208D01*
X63028271Y-21443730D01*
X63121409Y-21125202D01*
X63105143Y-20975496D01*
X67610856Y-20975496D01*
X67646704Y-21305420D01*
X67703994Y-21443730D01*
X67879464Y-21452208D01*
X68281323Y-21050349D01*
X68634877Y-21050349D01*
X69036736Y-21452208D01*
X69212206Y-21443730D01*
X69305344Y-21125202D01*
X69269496Y-20795278D01*
X69212206Y-20656968D01*
X69036736Y-20648490D01*
X68634877Y-21050349D01*
X68281323Y-21050349D01*
X67879464Y-20648490D01*
X67703994Y-20656968D01*
X67610856Y-20975496D01*
X63105143Y-20975496D01*
X63085561Y-20795278D01*
X63028271Y-20656968D01*
X62852801Y-20648490D01*
X62450942Y-21050349D01*
X62097388Y-21050349D01*
X61695529Y-20648490D01*
X61520059Y-20656968D01*
X61426921Y-20975496D01*
X61462769Y-21305420D01*
X61502195Y-21400602D01*
X59765030Y-21400602D01*
X59765030Y-20707530D01*
X59618980Y-20561480D01*
X58978630Y-20561480D01*
X58978630Y-20581480D01*
X58623030Y-20581480D01*
X58623030Y-20561480D01*
X57708630Y-20561480D01*
X57708630Y-20581480D01*
X57353030Y-20581480D01*
X57353030Y-20561480D01*
X56438630Y-20561480D01*
X56438630Y-20581480D01*
X56083030Y-20581480D01*
X56083030Y-20561480D01*
X55168630Y-20561480D01*
X55168630Y-21821830D01*
X55314680Y-21967880D01*
X55487035Y-21967880D01*
X55625830Y-21910389D01*
X55764625Y-21967880D01*
X55862752Y-21967880D01*
X55862752Y-22354004D01*
X55796116Y-22366542D01*
X55718312Y-22416608D01*
X55666115Y-22493000D01*
X55647752Y-22583680D01*
X55647752Y-24583680D01*
X55663692Y-24668394D01*
X55713758Y-24746198D01*
X55790150Y-24798395D01*
X55880830Y-24816758D01*
X56640830Y-24816758D01*
X56725544Y-24800818D01*
X56803348Y-24750752D01*
X56855545Y-24674360D01*
X56873908Y-24583680D01*
X56873908Y-22583680D01*
X56857968Y-22498966D01*
X56807902Y-22421162D01*
X56731510Y-22368965D01*
X56640830Y-22350602D01*
X56528908Y-22350602D01*
X56528908Y-22066758D01*
X57216179Y-22066758D01*
X57212752Y-22083680D01*
X57212752Y-22350602D01*
X57150830Y-22350602D01*
X57066116Y-22366542D01*
X56988312Y-22416608D01*
X56936115Y-22493000D01*
X56917752Y-22583680D01*
X56917752Y-24583680D01*
X56933692Y-24668394D01*
X56983758Y-24746198D01*
X57060150Y-24798395D01*
X57150830Y-24816758D01*
X57910830Y-24816758D01*
X57995544Y-24800818D01*
X58073348Y-24750752D01*
X58125545Y-24674360D01*
X58143908Y-24583680D01*
X58143908Y-22583680D01*
X58131316Y-22516758D01*
X58201304Y-22516758D01*
X58187752Y-22583680D01*
X58187752Y-24583680D01*
X58203692Y-24668394D01*
X58253758Y-24746198D01*
X58330150Y-24798395D01*
X58420830Y-24816758D01*
X59180830Y-24816758D01*
X59265544Y-24800818D01*
X59343348Y-24750752D01*
X59363093Y-24721854D01*
X59378758Y-24746198D01*
X59455150Y-24798395D01*
X59545830Y-24816758D01*
X60003722Y-24816758D01*
X57581511Y-26842139D01*
X57323547Y-26234413D01*
X57275774Y-26162662D01*
X57199288Y-26110605D01*
X57108574Y-26092406D01*
X57017927Y-26110935D01*
X54755738Y-27071177D01*
X54701986Y-27068580D01*
X54657829Y-27112737D01*
X54624614Y-27126836D01*
X54552863Y-27174609D01*
X54500806Y-27251095D01*
X54496122Y-27274444D01*
X54300127Y-27470439D01*
X54677403Y-27847715D01*
X55673329Y-30193971D01*
X55721102Y-30265722D01*
X55797588Y-30317779D01*
X55888302Y-30335978D01*
X55978949Y-30317449D01*
X58372262Y-29301548D01*
X58444013Y-29253775D01*
X58496070Y-29177289D01*
X58514269Y-29086575D01*
X58495740Y-28995928D01*
X57871944Y-27526356D01*
X59301400Y-26331087D01*
X59301400Y-30720000D01*
X59322607Y-30826616D01*
X59383000Y-30917000D01*
X59473384Y-30977393D01*
X59580000Y-30998600D01*
X70331400Y-30998600D01*
X70331400Y-37811400D01*
X59580000Y-37811400D01*
X59473384Y-37832607D01*
X59383000Y-37893000D01*
X59322607Y-37983384D01*
X59301400Y-38090000D01*
X59301400Y-43790000D01*
X59322607Y-43896616D01*
X59383000Y-43987000D01*
X59473384Y-44047393D01*
X59580000Y-44068600D01*
X71721400Y-44068600D01*
X71721400Y-45150000D01*
X71742607Y-45256616D01*
X71803000Y-45347000D01*
X71874072Y-45394489D01*
X71798890Y-45575995D01*
X71798890Y-45868350D01*
X71944940Y-46014400D01*
X72515170Y-46014400D01*
X72483678Y-46130533D01*
X72514472Y-46370000D01*
X71944940Y-46370000D01*
X71798890Y-46516050D01*
X71798890Y-46808405D01*
X71887829Y-47023123D01*
X72052168Y-47187461D01*
X72266886Y-47276400D01*
X74059240Y-47276400D01*
X74205290Y-47130350D01*
X74205290Y-46538598D01*
X74282502Y-46253867D01*
X74249136Y-45994400D01*
X74560890Y-45994400D01*
X74560890Y-46014400D01*
X74580890Y-46014400D01*
X74580890Y-46370000D01*
X74560890Y-46370000D01*
X74560890Y-47130350D01*
X74706940Y-47276400D01*
X76421400Y-47276400D01*
X76421400Y-47466880D01*
X76383090Y-47459122D01*
X72383090Y-47459122D01*
X72298376Y-47475062D01*
X72220572Y-47525128D01*
X72168375Y-47601520D01*
X72150012Y-47692200D01*
X72150012Y-48692200D01*
X72165952Y-48776914D01*
X72216018Y-48854718D01*
X72292410Y-48906915D01*
X72383090Y-48925278D01*
X76383090Y-48925278D01*
X76421400Y-48918069D01*
X76421400Y-49108000D01*
X74706940Y-49108000D01*
X74560890Y-49254050D01*
X74560890Y-50014400D01*
X74580890Y-50014400D01*
X74580890Y-50370000D01*
X74560890Y-50370000D01*
X74560890Y-50390000D01*
X74245586Y-50390000D01*
X74282502Y-50253867D01*
X74237637Y-49904983D01*
X74205290Y-49826890D01*
X74205290Y-49254050D01*
X74059240Y-49108000D01*
X72266886Y-49108000D01*
X72052168Y-49196939D01*
X71887829Y-49361277D01*
X71798890Y-49575995D01*
X71798890Y-49868350D01*
X71944940Y-50014400D01*
X72515170Y-50014400D01*
X72483678Y-50130533D01*
X72514472Y-50370000D01*
X71944940Y-50370000D01*
X71798890Y-50516050D01*
X71798890Y-50808405D01*
X71829125Y-50881400D01*
X51574805Y-50881400D01*
X51605040Y-50808405D01*
X51605040Y-50516050D01*
X51458990Y-50370000D01*
X50888760Y-50370000D01*
X50920252Y-50253867D01*
X50889458Y-50014400D01*
X51458990Y-50014400D01*
X51605040Y-49868350D01*
X51605040Y-49575995D01*
X51516101Y-49361277D01*
X51351762Y-49196939D01*
X51137044Y-49108000D01*
X49344690Y-49108000D01*
X49198640Y-49254050D01*
X49198640Y-49845802D01*
X49121428Y-50130533D01*
X49154794Y-50390000D01*
X48843040Y-50390000D01*
X48843040Y-50370000D01*
X48823040Y-50370000D01*
X48823040Y-50014400D01*
X48843040Y-50014400D01*
X48843040Y-49254050D01*
X48696990Y-49108000D01*
X46908600Y-49108000D01*
X46908600Y-49040164D01*
X61475958Y-49040164D01*
X61484436Y-49215634D01*
X61802964Y-49308772D01*
X62132888Y-49272924D01*
X62271198Y-49215634D01*
X62279676Y-49040164D01*
X61877817Y-48638305D01*
X61475958Y-49040164D01*
X46908600Y-49040164D01*
X46908600Y-48892184D01*
X46930160Y-48906915D01*
X47020840Y-48925278D01*
X51020840Y-48925278D01*
X51105554Y-48909338D01*
X51183358Y-48859272D01*
X51235555Y-48782880D01*
X51253918Y-48692200D01*
X51253918Y-48386675D01*
X61030573Y-48386675D01*
X61066421Y-48716599D01*
X61123711Y-48854909D01*
X61299181Y-48863387D01*
X61701040Y-48461528D01*
X62054594Y-48461528D01*
X62456453Y-48863387D01*
X62631923Y-48854909D01*
X62725061Y-48536381D01*
X62689213Y-48206457D01*
X62631923Y-48068147D01*
X62456453Y-48059669D01*
X62054594Y-48461528D01*
X61701040Y-48461528D01*
X61299181Y-48059669D01*
X61123711Y-48068147D01*
X61030573Y-48386675D01*
X51253918Y-48386675D01*
X51253918Y-47882892D01*
X61475958Y-47882892D01*
X61877817Y-48284751D01*
X62279676Y-47882892D01*
X62271198Y-47707422D01*
X61952670Y-47614284D01*
X61622746Y-47650132D01*
X61484436Y-47707422D01*
X61475958Y-47882892D01*
X51253918Y-47882892D01*
X51253918Y-47692200D01*
X51237978Y-47607486D01*
X51187912Y-47529682D01*
X51111520Y-47477485D01*
X51020840Y-47459122D01*
X47020840Y-47459122D01*
X46936126Y-47475062D01*
X46908600Y-47492775D01*
X46908600Y-47276400D01*
X48696990Y-47276400D01*
X48843040Y-47130350D01*
X48843040Y-46370000D01*
X48823040Y-46370000D01*
X48823040Y-46014400D01*
X48843040Y-46014400D01*
X48843040Y-45994400D01*
X49158344Y-45994400D01*
X49121428Y-46130533D01*
X49166293Y-46479417D01*
X49198640Y-46557510D01*
X49198640Y-47130350D01*
X49344690Y-47276400D01*
X51137044Y-47276400D01*
X51234629Y-47235979D01*
X62384002Y-47235979D01*
X62402531Y-47326626D01*
X63574724Y-50088140D01*
X63622497Y-50159891D01*
X63698983Y-50211948D01*
X63789697Y-50230147D01*
X63880344Y-50211618D01*
X65123855Y-49683779D01*
X65123791Y-49756737D01*
X65196500Y-49932706D01*
X65331015Y-50067455D01*
X65506857Y-50140471D01*
X65697256Y-50140638D01*
X65873225Y-50067929D01*
X66007974Y-49933414D01*
X66080990Y-49757572D01*
X66081157Y-49567173D01*
X66008448Y-49391204D01*
X65950313Y-49332968D01*
X66640116Y-49040164D01*
X67694781Y-49040164D01*
X67703259Y-49215634D01*
X68021787Y-49308772D01*
X68351711Y-49272924D01*
X68490021Y-49215634D01*
X68498499Y-49040164D01*
X68096640Y-48638305D01*
X67694781Y-49040164D01*
X66640116Y-49040164D01*
X67194161Y-48804986D01*
X67265912Y-48757213D01*
X67288388Y-48724189D01*
X67342534Y-48854909D01*
X67518004Y-48863387D01*
X67919863Y-48461528D01*
X68273417Y-48461528D01*
X68675276Y-48863387D01*
X68850746Y-48854909D01*
X68943884Y-48536381D01*
X68908036Y-48206457D01*
X68850746Y-48068147D01*
X68675276Y-48059669D01*
X68273417Y-48461528D01*
X67919863Y-48461528D01*
X67518004Y-48059669D01*
X67342534Y-48068147D01*
X67257720Y-48358206D01*
X67055962Y-47882892D01*
X67694781Y-47882892D01*
X68096640Y-48284751D01*
X68498499Y-47882892D01*
X68490021Y-47707422D01*
X68171493Y-47614284D01*
X67841569Y-47650132D01*
X67703259Y-47707422D01*
X67694781Y-47882892D01*
X67055962Y-47882892D01*
X66145446Y-45737852D01*
X66097673Y-45666101D01*
X66021187Y-45614044D01*
X65930473Y-45595845D01*
X65839826Y-45614374D01*
X62526009Y-47021006D01*
X62454258Y-47068779D01*
X62402201Y-47145265D01*
X62384002Y-47235979D01*
X51234629Y-47235979D01*
X51351762Y-47187461D01*
X51516101Y-47023123D01*
X51605040Y-46808405D01*
X51605040Y-46602982D01*
X53721491Y-46602982D01*
X53729969Y-46778452D01*
X54048497Y-46871590D01*
X54378421Y-46835742D01*
X54516731Y-46778452D01*
X54525209Y-46602982D01*
X54123350Y-46201123D01*
X53721491Y-46602982D01*
X51605040Y-46602982D01*
X51605040Y-46516050D01*
X51458990Y-46370000D01*
X50888760Y-46370000D01*
X50920252Y-46253867D01*
X50889458Y-46014400D01*
X51458990Y-46014400D01*
X51523897Y-45949493D01*
X53276106Y-45949493D01*
X53311954Y-46279417D01*
X53369244Y-46417727D01*
X53544714Y-46426205D01*
X53946573Y-46024346D01*
X54300127Y-46024346D01*
X54701986Y-46426205D01*
X54877456Y-46417727D01*
X54970594Y-46099199D01*
X54934746Y-45769275D01*
X54877456Y-45630965D01*
X54701986Y-45622487D01*
X54300127Y-46024346D01*
X53946573Y-46024346D01*
X53544714Y-45622487D01*
X53369244Y-45630965D01*
X53276106Y-45949493D01*
X51523897Y-45949493D01*
X51605040Y-45868350D01*
X51605040Y-45575995D01*
X51551075Y-45445710D01*
X53721491Y-45445710D01*
X54123350Y-45847569D01*
X54525209Y-45445710D01*
X54516731Y-45270240D01*
X54198203Y-45177102D01*
X53868279Y-45212950D01*
X53729969Y-45270240D01*
X53721491Y-45445710D01*
X51551075Y-45445710D01*
X51516101Y-45361277D01*
X51511908Y-45357084D01*
X51527000Y-45347000D01*
X51587393Y-45256616D01*
X51608600Y-45150000D01*
X51608600Y-40418346D01*
X53721491Y-40418346D01*
X53729969Y-40593816D01*
X54048497Y-40686954D01*
X54378421Y-40651106D01*
X54516731Y-40593816D01*
X54525209Y-40418346D01*
X54123350Y-40016487D01*
X53721491Y-40418346D01*
X51608600Y-40418346D01*
X51608600Y-39764857D01*
X53276106Y-39764857D01*
X53311954Y-40094781D01*
X53369244Y-40233091D01*
X53544714Y-40241569D01*
X53946573Y-39839710D01*
X54300127Y-39839710D01*
X54701986Y-40241569D01*
X54877456Y-40233091D01*
X54970594Y-39914563D01*
X54934746Y-39584639D01*
X54877456Y-39446329D01*
X54701986Y-39437851D01*
X54300127Y-39839710D01*
X53946573Y-39839710D01*
X53544714Y-39437851D01*
X53369244Y-39446329D01*
X53276106Y-39764857D01*
X51608600Y-39764857D01*
X51608600Y-39261074D01*
X53721491Y-39261074D01*
X54123350Y-39662933D01*
X54525209Y-39261074D01*
X54516731Y-39085604D01*
X54198203Y-38992466D01*
X53868279Y-39028314D01*
X53729969Y-39085604D01*
X53721491Y-39261074D01*
X51608600Y-39261074D01*
X51608600Y-35929038D01*
X61308718Y-35929038D01*
X61317196Y-36104508D01*
X61635724Y-36197646D01*
X61965648Y-36161798D01*
X62103958Y-36104508D01*
X62112436Y-35929038D01*
X67528611Y-35929038D01*
X67537089Y-36104508D01*
X67855617Y-36197646D01*
X68185541Y-36161798D01*
X68323851Y-36104508D01*
X68332329Y-35929038D01*
X67930470Y-35527179D01*
X67528611Y-35929038D01*
X62112436Y-35929038D01*
X61710577Y-35527179D01*
X61308718Y-35929038D01*
X51608600Y-35929038D01*
X51608600Y-35275549D01*
X60863333Y-35275549D01*
X60899181Y-35605473D01*
X60956471Y-35743783D01*
X61131941Y-35752261D01*
X61533800Y-35350402D01*
X61887354Y-35350402D01*
X62289213Y-35752261D01*
X62464683Y-35743783D01*
X62557821Y-35425255D01*
X62541555Y-35275549D01*
X67083226Y-35275549D01*
X67119074Y-35605473D01*
X67176364Y-35743783D01*
X67351834Y-35752261D01*
X67753693Y-35350402D01*
X68107247Y-35350402D01*
X68509106Y-35752261D01*
X68684576Y-35743783D01*
X68777714Y-35425255D01*
X68741866Y-35095331D01*
X68684576Y-34957021D01*
X68509106Y-34948543D01*
X68107247Y-35350402D01*
X67753693Y-35350402D01*
X67351834Y-34948543D01*
X67176364Y-34957021D01*
X67083226Y-35275549D01*
X62541555Y-35275549D01*
X62521973Y-35095331D01*
X62464683Y-34957021D01*
X62289213Y-34948543D01*
X61887354Y-35350402D01*
X61533800Y-35350402D01*
X61131941Y-34948543D01*
X60956471Y-34957021D01*
X60863333Y-35275549D01*
X51608600Y-35275549D01*
X51608600Y-34771766D01*
X61308718Y-34771766D01*
X61710577Y-35173625D01*
X62112436Y-34771766D01*
X67528611Y-34771766D01*
X67930470Y-35173625D01*
X68332329Y-34771766D01*
X68323851Y-34596296D01*
X68005323Y-34503158D01*
X67675399Y-34539006D01*
X67537089Y-34596296D01*
X67528611Y-34771766D01*
X62112436Y-34771766D01*
X62103958Y-34596296D01*
X61785430Y-34503158D01*
X61455506Y-34539006D01*
X61317196Y-34596296D01*
X61308718Y-34771766D01*
X51608600Y-34771766D01*
X51608600Y-34233708D01*
X53721491Y-34233708D01*
X53729969Y-34409178D01*
X54048497Y-34502316D01*
X54378421Y-34466468D01*
X54516731Y-34409178D01*
X54525209Y-34233708D01*
X54123350Y-33831849D01*
X53721491Y-34233708D01*
X51608600Y-34233708D01*
X51608600Y-32850000D01*
X51893800Y-32850000D01*
X51893800Y-33030000D01*
X51893994Y-33035429D01*
X51903994Y-33175429D01*
X51905904Y-33187783D01*
X51965904Y-33437783D01*
X51974397Y-33458765D01*
X52104397Y-33678765D01*
X52119025Y-33696639D01*
X52319025Y-33876639D01*
X52331605Y-33885820D01*
X52451605Y-33955820D01*
X52490000Y-33966200D01*
X52630000Y-33966200D01*
X52642527Y-33965163D01*
X52702527Y-33955163D01*
X52733430Y-33942612D01*
X52754368Y-33920783D01*
X52765163Y-33892527D01*
X52775163Y-33832527D01*
X52776200Y-33820000D01*
X52776200Y-33750000D01*
X52774478Y-33733893D01*
X52762344Y-33706186D01*
X52740386Y-33685383D01*
X52511238Y-33542166D01*
X52317935Y-33302838D01*
X52264976Y-33143962D01*
X52256200Y-33056198D01*
X52256200Y-32926674D01*
X52282492Y-32777687D01*
X52581775Y-32294972D01*
X52858103Y-31969300D01*
X52874174Y-31937453D01*
X52914174Y-31767453D01*
X52916200Y-31750000D01*
X52916200Y-31540000D01*
X52911922Y-31514827D01*
X52851405Y-31341920D01*
X53153824Y-31341920D01*
X53183812Y-32531436D01*
X53193800Y-33300528D01*
X53193800Y-33410000D01*
X53195280Y-33424944D01*
X53205280Y-33474944D01*
X53217388Y-33503430D01*
X53239217Y-33524368D01*
X53267473Y-33535163D01*
X53288267Y-33538629D01*
X53276106Y-33580219D01*
X53311954Y-33910143D01*
X53369244Y-34048453D01*
X53544714Y-34056931D01*
X53946573Y-33655072D01*
X53895096Y-33603595D01*
X54052490Y-33446200D01*
X54091255Y-33446200D01*
X54123350Y-33478295D01*
X54176984Y-33424661D01*
X54184097Y-33422290D01*
X54205947Y-33410789D01*
X54225977Y-33388124D01*
X54232281Y-33369364D01*
X54525209Y-33076436D01*
X54516731Y-32900966D01*
X54213228Y-32812221D01*
X54146001Y-31884493D01*
X54145509Y-31879761D01*
X54112507Y-31636369D01*
X54225029Y-31636369D01*
X54225280Y-31664944D01*
X54255280Y-31814944D01*
X54274087Y-31851771D01*
X54524087Y-32121771D01*
X54543707Y-32137002D01*
X54748197Y-32247767D01*
X54784178Y-32607582D01*
X54788652Y-32626756D01*
X54810524Y-32685081D01*
X54775826Y-32832547D01*
X54773800Y-32850000D01*
X54773800Y-33256683D01*
X54701986Y-33253213D01*
X54300127Y-33655072D01*
X54701986Y-34056931D01*
X54877456Y-34048453D01*
X54942443Y-33826200D01*
X55030000Y-33826200D01*
X55053600Y-33822453D01*
X55079929Y-33807563D01*
X55098391Y-33783602D01*
X55106076Y-33754347D01*
X55145950Y-33056548D01*
X55175698Y-32798734D01*
X55175656Y-32780913D01*
X55166160Y-32752194D01*
X55154244Y-32731340D01*
X55164230Y-32720999D01*
X55175121Y-32692780D01*
X55174174Y-32662547D01*
X55136200Y-32501158D01*
X55136200Y-31890000D01*
X55130989Y-31862305D01*
X55114621Y-31836868D01*
X55099109Y-31826269D01*
X55110323Y-31816558D01*
X55123684Y-31789421D01*
X55125434Y-31759224D01*
X55085434Y-31479224D01*
X55074617Y-31449614D01*
X54924617Y-31209614D01*
X54913675Y-31199398D01*
X55243802Y-31199398D01*
X55249571Y-31229090D01*
X55438168Y-31685694D01*
X55644777Y-32364552D01*
X55663846Y-32583836D01*
X55673807Y-33301058D01*
X55674732Y-33311884D01*
X55734732Y-33691884D01*
X55739011Y-33707695D01*
X55755379Y-33733132D01*
X55780354Y-33750197D01*
X55810000Y-33756200D01*
X55910000Y-33756200D01*
X55940017Y-33750039D01*
X56010017Y-33720039D01*
X56037998Y-33699423D01*
X56052657Y-33672964D01*
X56055867Y-33642887D01*
X56034886Y-33419087D01*
X56314344Y-33419087D01*
X56323840Y-33447806D01*
X56363840Y-33517806D01*
X56373054Y-33530632D01*
X56397239Y-33548798D01*
X56607239Y-33648798D01*
X56648903Y-33655678D01*
X56818903Y-33635678D01*
X56838673Y-33630599D01*
X56863882Y-33613882D01*
X57053882Y-33423882D01*
X57068335Y-33403717D01*
X57076069Y-33374475D01*
X57086049Y-33204819D01*
X57116015Y-32775303D01*
X57116185Y-32771524D01*
X57122134Y-32474073D01*
X57404031Y-32474073D01*
X57407710Y-32504097D01*
X57475789Y-32708333D01*
X57574804Y-33312327D01*
X57581202Y-33332761D01*
X57681202Y-33542761D01*
X57703946Y-33570708D01*
X57993946Y-33790708D01*
X58032418Y-33805822D01*
X58232418Y-33825822D01*
X58246899Y-33825887D01*
X58356899Y-33815887D01*
X58395202Y-33801345D01*
X58585202Y-33661345D01*
X58607682Y-33635008D01*
X58757682Y-33345008D01*
X58764128Y-33327649D01*
X58864128Y-32907649D01*
X58865766Y-32898118D01*
X58895766Y-32618118D01*
X58896200Y-32610000D01*
X58896200Y-32580000D01*
X58895922Y-32573492D01*
X58865922Y-32223492D01*
X58864083Y-32212165D01*
X58734083Y-31672165D01*
X58726611Y-31652994D01*
X58534305Y-31306843D01*
X60044108Y-31306843D01*
X60154108Y-32526843D01*
X60154524Y-32530483D01*
X60304524Y-33610483D01*
X60305945Y-33617953D01*
X60385945Y-33947953D01*
X60394165Y-33968370D01*
X60414280Y-33990960D01*
X60454280Y-34020960D01*
X60478104Y-34032986D01*
X60578104Y-34062986D01*
X60600000Y-34066200D01*
X60640000Y-34066200D01*
X60676881Y-34056680D01*
X60699917Y-34037078D01*
X60795860Y-33914968D01*
X60828239Y-34005629D01*
X60836020Y-34021388D01*
X60857163Y-34043019D01*
X60885056Y-34054720D01*
X60935056Y-34064720D01*
X60950000Y-34066200D01*
X61010000Y-34066200D01*
X61024944Y-34064720D01*
X61074944Y-34054720D01*
X61103016Y-34042897D01*
X61124098Y-34021206D01*
X61214098Y-33881206D01*
X61224461Y-33856187D01*
X61324461Y-33396187D01*
X61325984Y-33385735D01*
X61365984Y-32855735D01*
X61366200Y-32850000D01*
X61366200Y-31790000D01*
X61773800Y-31790000D01*
X61773800Y-32620000D01*
X61774228Y-32628061D01*
X61824228Y-33098061D01*
X61827126Y-33112267D01*
X61937126Y-33472267D01*
X61946174Y-33491626D01*
X62096174Y-33721626D01*
X62116302Y-33742425D01*
X62216302Y-33812425D01*
X62230354Y-33820197D01*
X62260000Y-33826200D01*
X62360000Y-33826200D01*
X62369451Y-33825612D01*
X62449451Y-33815612D01*
X62486460Y-33800398D01*
X62616460Y-33700398D01*
X62635341Y-33679205D01*
X62695341Y-33579205D01*
X62706171Y-33542105D01*
X62700989Y-33512305D01*
X62689133Y-33493880D01*
X62716359Y-33486966D01*
X62739548Y-33467544D01*
X62753354Y-33440631D01*
X62759413Y-33419087D01*
X63034344Y-33419087D01*
X63043840Y-33447806D01*
X63083840Y-33517806D01*
X63115922Y-33548155D01*
X63315922Y-33648155D01*
X63358903Y-33655678D01*
X63528903Y-33635678D01*
X63548673Y-33630599D01*
X63573882Y-33613882D01*
X63763882Y-33423882D01*
X63776252Y-33407645D01*
X63785678Y-33378903D01*
X63805678Y-33208903D01*
X63806015Y-33205303D01*
X63836015Y-32775303D01*
X63836200Y-32770000D01*
X63836200Y-32474073D01*
X64114031Y-32474073D01*
X64117710Y-32504097D01*
X64185982Y-32708913D01*
X64295010Y-33313523D01*
X64299961Y-33330017D01*
X64389961Y-33540017D01*
X64414938Y-33571448D01*
X64714938Y-33791448D01*
X64752023Y-33805781D01*
X64942023Y-33825781D01*
X64956899Y-33825887D01*
X65066899Y-33815887D01*
X65105202Y-33801345D01*
X65295202Y-33661345D01*
X65317682Y-33635008D01*
X65467682Y-33345008D01*
X65474128Y-33327649D01*
X65574128Y-32907649D01*
X65575434Y-32900776D01*
X65615434Y-32620776D01*
X65616200Y-32610000D01*
X65616200Y-32580000D01*
X65615707Y-32571348D01*
X65575707Y-32221348D01*
X65574083Y-32212165D01*
X65444083Y-31672165D01*
X65436611Y-31652994D01*
X65236611Y-31292994D01*
X65213374Y-31267349D01*
X64953374Y-31087349D01*
X64919451Y-31074388D01*
X64759451Y-31054388D01*
X64721700Y-31059250D01*
X64671700Y-31079250D01*
X64639040Y-31104280D01*
X64579040Y-31184280D01*
X64564878Y-31217225D01*
X64565827Y-31247458D01*
X64578463Y-31274940D01*
X64600795Y-31295341D01*
X64936881Y-31496993D01*
X65060539Y-31673647D01*
X65204541Y-32153654D01*
X65223800Y-32442534D01*
X65223800Y-32575889D01*
X65184911Y-32935616D01*
X65090024Y-33277206D01*
X65016704Y-33383114D01*
X64998893Y-33393800D01*
X64839640Y-33393800D01*
X64755361Y-33316544D01*
X64625744Y-32955469D01*
X64616200Y-32678679D01*
X64616200Y-32643228D01*
X64731850Y-32535839D01*
X64750197Y-32509646D01*
X64756200Y-32480000D01*
X64756200Y-32440000D01*
X64750750Y-32411700D01*
X64730750Y-32361700D01*
X64720006Y-32343035D01*
X64697006Y-32323389D01*
X64607006Y-32273389D01*
X64570000Y-32263800D01*
X64320000Y-32263800D01*
X64304032Y-32265492D01*
X64276302Y-32277575D01*
X64176302Y-32347575D01*
X64149961Y-32379983D01*
X64119961Y-32449983D01*
X64114031Y-32474073D01*
X63836200Y-32474073D01*
X63836200Y-31440000D01*
X63832290Y-31415903D01*
X63812290Y-31355903D01*
X63803980Y-31338612D01*
X63782837Y-31316981D01*
X63754944Y-31305280D01*
X63704944Y-31295280D01*
X63690000Y-31293800D01*
X63660000Y-31293800D01*
X63620795Y-31304659D01*
X63570795Y-31334659D01*
X63545420Y-31359555D01*
X63534772Y-31387866D01*
X63484772Y-31697866D01*
X63483800Y-31710000D01*
X63483800Y-32985662D01*
X63452013Y-33263800D01*
X63426305Y-33263800D01*
X63192527Y-33224837D01*
X63164499Y-33225393D01*
X63136694Y-33237302D01*
X63115713Y-33259090D01*
X63045713Y-33369090D01*
X63036769Y-33388937D01*
X63034344Y-33419087D01*
X62759413Y-33419087D01*
X62843354Y-33120631D01*
X62845947Y-33106200D01*
X62885947Y-32616200D01*
X62886183Y-32608379D01*
X62876183Y-32138379D01*
X62873652Y-32120460D01*
X62743652Y-31630460D01*
X62732006Y-31605710D01*
X62582006Y-31395710D01*
X62566782Y-31379851D01*
X62476782Y-31309851D01*
X62459646Y-31299803D01*
X62430000Y-31293800D01*
X62190000Y-31293800D01*
X62167271Y-31297269D01*
X62007271Y-31347269D01*
X61970774Y-31372055D01*
X61800774Y-31582055D01*
X61791789Y-31596033D01*
X61783948Y-31625247D01*
X61773948Y-31785247D01*
X61773800Y-31790000D01*
X61366200Y-31790000D01*
X61366200Y-31720000D01*
X61365707Y-31711348D01*
X61325707Y-31361348D01*
X61320989Y-31342305D01*
X61304621Y-31316868D01*
X61279646Y-31299803D01*
X61250000Y-31293800D01*
X61150000Y-31293800D01*
X61122305Y-31299011D01*
X61096868Y-31315379D01*
X61079803Y-31340354D01*
X61073800Y-31370000D01*
X61073800Y-31462012D01*
X61051845Y-31505922D01*
X61043917Y-31544227D01*
X61073800Y-32082121D01*
X61073800Y-32509131D01*
X61063912Y-32934305D01*
X61020302Y-33278339D01*
X61015840Y-33232601D01*
X61014720Y-33225056D01*
X60924720Y-32775056D01*
X60903882Y-32736118D01*
X60863882Y-32696118D01*
X60839646Y-32679803D01*
X60810000Y-32673800D01*
X60770000Y-32673800D01*
X60741700Y-32679250D01*
X60691700Y-32699250D01*
X60666606Y-32715636D01*
X60649662Y-32740692D01*
X60599662Y-32860692D01*
X60593800Y-32890000D01*
X60593800Y-32930000D01*
X60601845Y-32964078D01*
X60621162Y-33002712D01*
X60599423Y-33152707D01*
X60545898Y-32553223D01*
X60545553Y-32550091D01*
X60385553Y-31330091D01*
X60379370Y-31308468D01*
X60329370Y-31198468D01*
X60314621Y-31176868D01*
X60289646Y-31159803D01*
X60260000Y-31153800D01*
X60190000Y-31153800D01*
X60165903Y-31157710D01*
X60105903Y-31177710D01*
X60088612Y-31186020D01*
X60066981Y-31207163D01*
X60055280Y-31235056D01*
X60045280Y-31285056D01*
X60044108Y-31306843D01*
X58534305Y-31306843D01*
X58526611Y-31292994D01*
X58502268Y-31266598D01*
X58232268Y-31086598D01*
X58199451Y-31074388D01*
X58039451Y-31054388D01*
X58001700Y-31059250D01*
X57951700Y-31079250D01*
X57936186Y-31087656D01*
X57915383Y-31109614D01*
X57865383Y-31189614D01*
X57855049Y-31216259D01*
X57855608Y-31246502D01*
X57867889Y-31274144D01*
X57889957Y-31294831D01*
X58216588Y-31496574D01*
X58340947Y-31674229D01*
X58494195Y-32153130D01*
X58503800Y-32441279D01*
X58503800Y-32575889D01*
X58464911Y-32935616D01*
X58369461Y-33279233D01*
X58304851Y-33384226D01*
X58288893Y-33393800D01*
X58127913Y-33393800D01*
X58035533Y-33315633D01*
X57915352Y-32955090D01*
X57896200Y-32677382D01*
X57896200Y-32643228D01*
X58011850Y-32535839D01*
X58030197Y-32509646D01*
X58036200Y-32480000D01*
X58036200Y-32440000D01*
X58030750Y-32411700D01*
X58010750Y-32361700D01*
X58002344Y-32346186D01*
X57980386Y-32325383D01*
X57900386Y-32275383D01*
X57860000Y-32263800D01*
X57610000Y-32263800D01*
X57569090Y-32275713D01*
X57459090Y-32345713D01*
X57440649Y-32362210D01*
X57426732Y-32389066D01*
X57406732Y-32459066D01*
X57404031Y-32474073D01*
X57122134Y-32474073D01*
X57126185Y-32271524D01*
X57126200Y-32270000D01*
X57126200Y-31440000D01*
X57122290Y-31415903D01*
X57102290Y-31355903D01*
X57093980Y-31338612D01*
X57072837Y-31316981D01*
X57044944Y-31305280D01*
X56994944Y-31295280D01*
X56980000Y-31293800D01*
X56940000Y-31293800D01*
X56921599Y-31296055D01*
X56894280Y-31309040D01*
X56854280Y-31339040D01*
X56835420Y-31359555D01*
X56824772Y-31387866D01*
X56774772Y-31697866D01*
X56773849Y-31707280D01*
X56763849Y-31987280D01*
X56763800Y-31990000D01*
X56763800Y-32986735D01*
X56740052Y-33263800D01*
X56706305Y-33263800D01*
X56472527Y-33224837D01*
X56444499Y-33225393D01*
X56416694Y-33237302D01*
X56395713Y-33259090D01*
X56325713Y-33369090D01*
X56316769Y-33388937D01*
X56314344Y-33419087D01*
X56034886Y-33419087D01*
X55966115Y-32685530D01*
X55956839Y-32295931D01*
X55979502Y-32267602D01*
X55992152Y-32244505D01*
X56172152Y-31714505D01*
X56174013Y-31708126D01*
X56294013Y-31218126D01*
X56296200Y-31200000D01*
X56296200Y-31130000D01*
X56290989Y-31102305D01*
X56274621Y-31076868D01*
X56249646Y-31059803D01*
X56220000Y-31053800D01*
X56150000Y-31053800D01*
X56110795Y-31064659D01*
X56060795Y-31094659D01*
X56044682Y-31107594D01*
X56028652Y-31133244D01*
X55878652Y-31533244D01*
X55877126Y-31537733D01*
X55818155Y-31730731D01*
X55741019Y-31532382D01*
X55739137Y-31527961D01*
X55549137Y-31117961D01*
X55533882Y-31096118D01*
X55483882Y-31046118D01*
X55445304Y-31025353D01*
X55415056Y-31025280D01*
X55365056Y-31035280D01*
X55338038Y-31046395D01*
X55316598Y-31067732D01*
X55256598Y-31157732D01*
X55243802Y-31199398D01*
X54913675Y-31199398D01*
X54895859Y-31182765D01*
X54745859Y-31102765D01*
X54717582Y-31094178D01*
X54617582Y-31084178D01*
X54597473Y-31084837D01*
X54537473Y-31094837D01*
X54510795Y-31104659D01*
X54410795Y-31164659D01*
X54383232Y-31193278D01*
X54273232Y-31393278D01*
X54265029Y-31416369D01*
X54225029Y-31636369D01*
X54112507Y-31636369D01*
X54065509Y-31289761D01*
X54061134Y-31272680D01*
X54044901Y-31247157D01*
X54020017Y-31229961D01*
X53950017Y-31199961D01*
X53920000Y-31193800D01*
X53890000Y-31193800D01*
X53847169Y-31206977D01*
X53826024Y-31228606D01*
X53814959Y-31256758D01*
X53784959Y-31426758D01*
X53783800Y-31440000D01*
X53783800Y-31820000D01*
X53784095Y-31826698D01*
X53806780Y-32083800D01*
X53651628Y-32083800D01*
X53524955Y-32044215D01*
X53515180Y-32031995D01*
X53506144Y-31797071D01*
X53505560Y-31790144D01*
X53445560Y-31330144D01*
X53440989Y-31312305D01*
X53424621Y-31286868D01*
X53399646Y-31269803D01*
X53370000Y-31263800D01*
X53230000Y-31263800D01*
X53200524Y-31269732D01*
X53175508Y-31286736D01*
X53159079Y-31312132D01*
X53153824Y-31341920D01*
X52851405Y-31341920D01*
X52841922Y-31314827D01*
X52823882Y-31286118D01*
X52593882Y-31056118D01*
X52574250Y-31041931D01*
X52545069Y-31033969D01*
X52395069Y-31023969D01*
X52390000Y-31023800D01*
X52350000Y-31023800D01*
X52335056Y-31025280D01*
X52285056Y-31035280D01*
X52253035Y-31049994D01*
X52233389Y-31072994D01*
X52183389Y-31162994D01*
X52173800Y-31200000D01*
X52173800Y-31270000D01*
X52179011Y-31297695D01*
X52195379Y-31323132D01*
X52220354Y-31340197D01*
X52250000Y-31346200D01*
X52392799Y-31346200D01*
X52473726Y-31412414D01*
X52576753Y-31558368D01*
X52583123Y-31609328D01*
X52567208Y-31720733D01*
X52300869Y-32091704D01*
X52054087Y-32358229D01*
X52039077Y-32382137D01*
X51929077Y-32662137D01*
X51925105Y-32675957D01*
X51895105Y-32835957D01*
X51893800Y-32850000D01*
X51608600Y-32850000D01*
X51608600Y-28049075D01*
X53721491Y-28049075D01*
X53729969Y-28224545D01*
X54048497Y-28317683D01*
X54378421Y-28281835D01*
X54516731Y-28224545D01*
X54525209Y-28049075D01*
X54123350Y-27647216D01*
X53721491Y-28049075D01*
X51608600Y-28049075D01*
X51608600Y-27395586D01*
X53276106Y-27395586D01*
X53311954Y-27725510D01*
X53369244Y-27863820D01*
X53544714Y-27872298D01*
X53946573Y-27470439D01*
X53544714Y-27068580D01*
X53369244Y-27077058D01*
X53276106Y-27395586D01*
X51608600Y-27395586D01*
X51608600Y-26891803D01*
X53721491Y-26891803D01*
X54123350Y-27293662D01*
X54525209Y-26891803D01*
X54516731Y-26716333D01*
X54198203Y-26623195D01*
X53868279Y-26659043D01*
X53729969Y-26716333D01*
X53721491Y-26891803D01*
X51608600Y-26891803D01*
X51608600Y-22583680D01*
X54387752Y-22583680D01*
X54387752Y-24583680D01*
X54403692Y-24668394D01*
X54453758Y-24746198D01*
X54530150Y-24798395D01*
X54620830Y-24816758D01*
X55360830Y-24816758D01*
X55445544Y-24800818D01*
X55523348Y-24750752D01*
X55575545Y-24674360D01*
X55593908Y-24583680D01*
X55593908Y-22583680D01*
X55577968Y-22498966D01*
X55527902Y-22421162D01*
X55451510Y-22368965D01*
X55360830Y-22350602D01*
X54620830Y-22350602D01*
X54536116Y-22366542D01*
X54458312Y-22416608D01*
X54406115Y-22493000D01*
X54387752Y-22583680D01*
X51608600Y-22583680D01*
X51608600Y-21210953D01*
X53276106Y-21210953D01*
X53311954Y-21540877D01*
X53369244Y-21679187D01*
X53544714Y-21687665D01*
X53946573Y-21285806D01*
X53544714Y-20883947D01*
X53369244Y-20892425D01*
X53276106Y-21210953D01*
X51608600Y-21210953D01*
X51608600Y-20707170D01*
X53721491Y-20707170D01*
X54026630Y-21012309D01*
X54026630Y-21499884D01*
X54044033Y-21541900D01*
X53721491Y-21864442D01*
X53729969Y-22039912D01*
X54048497Y-22133050D01*
X54378421Y-22097202D01*
X54516731Y-22039912D01*
X54520211Y-21967880D01*
X54553974Y-21967880D01*
X54597994Y-22011900D01*
X54642014Y-21967880D01*
X54666980Y-21967880D01*
X54813030Y-21821830D01*
X54813030Y-21796864D01*
X54849444Y-21760450D01*
X54813030Y-21724036D01*
X54813030Y-21682300D01*
X54877456Y-21679187D01*
X54970594Y-21360659D01*
X54934746Y-21030735D01*
X54877456Y-20892425D01*
X54813030Y-20889312D01*
X54813030Y-20847576D01*
X54849444Y-20811162D01*
X54813030Y-20774748D01*
X54813030Y-20561480D01*
X54599762Y-20561480D01*
X54597994Y-20559712D01*
X54596226Y-20561480D01*
X54518170Y-20561480D01*
X54516731Y-20531700D01*
X54311579Y-20471713D01*
X61872306Y-20471713D01*
X62274165Y-20873572D01*
X62676024Y-20471713D01*
X68056241Y-20471713D01*
X68458100Y-20873572D01*
X68859959Y-20471713D01*
X68851481Y-20296243D01*
X68532953Y-20203105D01*
X68203029Y-20238953D01*
X68064719Y-20296243D01*
X68056241Y-20471713D01*
X62676024Y-20471713D01*
X62667546Y-20296243D01*
X62349018Y-20203105D01*
X62019094Y-20238953D01*
X61880784Y-20296243D01*
X61872306Y-20471713D01*
X54311579Y-20471713D01*
X54198203Y-20438562D01*
X53868279Y-20474410D01*
X53729969Y-20531700D01*
X53721491Y-20707170D01*
X51608600Y-20707170D01*
X51608600Y-18998600D01*
X54169727Y-18998600D01*
X54115569Y-19052758D01*
G36*
X50266772Y-50158400D02*
X50232972Y-50192200D01*
X50266772Y-50226000D01*
X50122772Y-50370000D01*
X49918908Y-50370000D01*
X49774908Y-50226000D01*
X49808708Y-50192200D01*
X49774908Y-50158400D01*
X49918908Y-50014400D01*
X50122772Y-50014400D01*
X50266772Y-50158400D01*
X50266772Y-50158400D01*
G37*
X50266772Y-50158400D02*
X50232972Y-50192200D01*
X50266772Y-50226000D01*
X50122772Y-50370000D01*
X49918908Y-50370000D01*
X49774908Y-50226000D01*
X49808708Y-50192200D01*
X49774908Y-50158400D01*
X49918908Y-50014400D01*
X50122772Y-50014400D01*
X50266772Y-50158400D01*
G36*
X73629022Y-50158400D02*
X73595222Y-50192200D01*
X73629022Y-50226000D01*
X73485022Y-50370000D01*
X73281158Y-50370000D01*
X73137158Y-50226000D01*
X73170958Y-50192200D01*
X73137158Y-50158400D01*
X73281158Y-50014400D01*
X73485022Y-50014400D01*
X73629022Y-50158400D01*
X73629022Y-50158400D01*
G37*
X73629022Y-50158400D02*
X73595222Y-50192200D01*
X73629022Y-50226000D01*
X73485022Y-50370000D01*
X73281158Y-50370000D01*
X73137158Y-50226000D01*
X73170958Y-50192200D01*
X73137158Y-50158400D01*
X73281158Y-50014400D01*
X73485022Y-50014400D01*
X73629022Y-50158400D01*
G36*
X50266772Y-46158400D02*
X50232972Y-46192200D01*
X50266772Y-46226000D01*
X50122772Y-46370000D01*
X49918908Y-46370000D01*
X49774908Y-46226000D01*
X49808708Y-46192200D01*
X49774908Y-46158400D01*
X49918908Y-46014400D01*
X50122772Y-46014400D01*
X50266772Y-46158400D01*
X50266772Y-46158400D01*
G37*
X50266772Y-46158400D02*
X50232972Y-46192200D01*
X50266772Y-46226000D01*
X50122772Y-46370000D01*
X49918908Y-46370000D01*
X49774908Y-46226000D01*
X49808708Y-46192200D01*
X49774908Y-46158400D01*
X49918908Y-46014400D01*
X50122772Y-46014400D01*
X50266772Y-46158400D01*
G36*
X73629022Y-46158400D02*
X73595222Y-46192200D01*
X73629022Y-46226000D01*
X73485022Y-46370000D01*
X73281158Y-46370000D01*
X73137158Y-46226000D01*
X73170958Y-46192200D01*
X73137158Y-46158400D01*
X73281158Y-46014400D01*
X73485022Y-46014400D01*
X73629022Y-46158400D01*
X73629022Y-46158400D01*
G37*
X73629022Y-46158400D02*
X73595222Y-46192200D01*
X73629022Y-46226000D01*
X73485022Y-46370000D01*
X73281158Y-46370000D01*
X73137158Y-46226000D01*
X73170958Y-46192200D01*
X73137158Y-46158400D01*
X73281158Y-46014400D01*
X73485022Y-46014400D01*
X73629022Y-46158400D01*
M02*
