G04 #@! TF.FileFunction,Soldermask,Top*
%FSLAX46Y46*%
G04 Gerber Fmt 4.6, Leading zero omitted, Abs format (unit mm)*
G04 Created by KiCad (PCBNEW 4.0.0-rc2-stable) date 3/3/2016 3:42:14 PM*
%MOMM*%
G01*
G04 APERTURE LIST*
%ADD10C,0.150000*%
%ADD11R,1.800000X0.500000*%
%ADD12R,2.300000X0.320000*%
%ADD13R,2.300000X0.800000*%
%ADD14R,0.500000X1.800000*%
%ADD15R,0.320000X2.300000*%
%ADD16R,0.800000X2.300000*%
%ADD17R,4.000000X1.000000*%
%ADD18C,0.600000*%
G04 APERTURE END LIST*
D10*
D11*
X55225180Y-47957323D03*
D12*
X55225180Y-46057323D03*
D13*
X55225180Y-47307323D03*
D11*
X55225180Y-41450888D03*
D12*
X55225180Y-39550888D03*
D13*
X55225180Y-40800888D03*
D11*
X55225180Y-34944456D03*
D12*
X55225180Y-33044456D03*
D13*
X55225180Y-34294456D03*
D11*
X55225180Y-28438021D03*
D12*
X55225180Y-26538021D03*
D13*
X55225180Y-27788021D03*
D14*
X55501253Y-22199406D03*
D15*
X57401253Y-22199406D03*
D16*
X56151253Y-22199406D03*
D14*
X62053650Y-22199406D03*
D15*
X63953650Y-22199406D03*
D16*
X62703650Y-22199406D03*
D10*
G36*
X67617365Y-23593113D02*
X68793211Y-22230253D01*
X69171783Y-22556877D01*
X67995937Y-23919737D01*
X67617365Y-23593113D01*
X67617365Y-23593113D01*
G37*
G36*
X68960771Y-25082362D02*
X70463240Y-23340929D01*
X70705527Y-23549968D01*
X69203058Y-25291401D01*
X68960771Y-25082362D01*
X68960771Y-25082362D01*
G37*
G36*
X67832626Y-24109023D02*
X69335095Y-22367591D01*
X69940810Y-22890189D01*
X68438341Y-24631621D01*
X67832626Y-24109023D01*
X67832626Y-24109023D01*
G37*
G36*
X70598367Y-28247501D02*
X72374963Y-28536824D01*
X72294595Y-29030323D01*
X70517999Y-28741000D01*
X70598367Y-28247501D01*
X70598367Y-28247501D01*
G37*
G36*
X70031755Y-30171444D02*
X72301850Y-30541133D01*
X72250415Y-30856972D01*
X69980320Y-30487283D01*
X70031755Y-30171444D01*
X70031755Y-30171444D01*
G37*
G36*
X70271251Y-28700817D02*
X72541345Y-29070507D01*
X72412757Y-29860105D01*
X70142663Y-29490415D01*
X70271251Y-28700817D01*
X70271251Y-28700817D01*
G37*
G36*
X68447437Y-33315204D02*
X69038741Y-35015309D01*
X68566489Y-35179560D01*
X67975185Y-33479455D01*
X68447437Y-33315204D01*
X68447437Y-33315204D01*
G37*
G36*
X66485750Y-33732797D02*
X67241305Y-35905154D01*
X66939064Y-36010275D01*
X66183509Y-33837918D01*
X66485750Y-33732797D01*
X66485750Y-33732797D01*
G37*
G36*
X67893060Y-33243328D02*
X68648615Y-35415686D01*
X67893012Y-35678488D01*
X67137457Y-33506130D01*
X67893060Y-33243328D01*
X67893060Y-33243328D01*
G37*
D14*
X61369180Y-34708256D03*
D15*
X63269180Y-34708256D03*
D16*
X62019180Y-34708256D03*
D11*
X63315650Y-46363832D03*
D12*
X63315650Y-48263832D03*
D13*
X63315650Y-47013832D03*
D10*
G36*
X68448461Y-45701141D02*
X69782465Y-44492658D01*
X70118155Y-44863215D01*
X68784151Y-46071698D01*
X68448461Y-45701141D01*
X68448461Y-45701141D01*
G37*
G36*
X69599228Y-47343802D02*
X71303790Y-45799629D01*
X71518632Y-46036786D01*
X69814070Y-47580959D01*
X69599228Y-47343802D01*
X69599228Y-47343802D01*
G37*
G36*
X68598872Y-46239543D02*
X70303434Y-44695370D01*
X70840538Y-45288261D01*
X69135976Y-46832434D01*
X68598872Y-46239543D01*
X68598872Y-46239543D01*
G37*
G36*
X71455327Y-41152836D02*
X70910793Y-39437178D01*
X71387365Y-39285918D01*
X71931899Y-41001576D01*
X71455327Y-41152836D01*
X71455327Y-41152836D01*
G37*
G36*
X73427712Y-40789109D02*
X72731918Y-38596879D01*
X73036924Y-38500073D01*
X73732718Y-40692303D01*
X73427712Y-40789109D01*
X73427712Y-40789109D01*
G37*
G36*
X72007529Y-41239862D02*
X71311735Y-39047633D01*
X72074249Y-38805618D01*
X72770043Y-40997847D01*
X72007529Y-41239862D01*
X72007529Y-41239862D01*
G37*
D17*
X79016340Y-50192207D03*
X79016340Y-48192207D03*
X79016340Y-46192207D03*
D18*
X78016340Y-50192207D03*
X78016340Y-48192207D03*
X78016340Y-46192207D03*
D17*
X49020840Y-46192207D03*
X49020840Y-48192207D03*
X49020840Y-50192207D03*
D18*
X50020840Y-46192207D03*
X50020840Y-48192207D03*
X50020840Y-50192207D03*
M02*
