G04 #@! TF.FileFunction,Copper,L2,Bot,Signal*
%FSLAX46Y46*%
G04 Gerber Fmt 4.6, Leading zero omitted, Abs format (unit mm)*
G04 Created by KiCad (PCBNEW 4.0.0-rc2-stable) date 3/3/2016 3:42:14 PM*
%MOMM*%
G01*
G04 APERTURE LIST*
%ADD10C,0.150000*%
%ADD11C,0.500000*%
%ADD12R,4.000000X1.000000*%
%ADD13C,0.600000*%
%ADD14C,0.254000*%
%ADD15C,0.152400*%
G04 APERTURE END LIST*
D10*
D11*
X54025180Y-48157323D03*
X54025180Y-41650888D03*
X54025180Y-35144456D03*
X54025180Y-28638021D03*
X55301253Y-20999406D03*
X61853650Y-20999406D03*
X69027042Y-22035772D03*
X72663025Y-28634394D03*
X69090066Y-35315085D03*
X61169180Y-33508256D03*
X64515650Y-46163832D03*
X70038369Y-44328299D03*
X70867694Y-39136109D03*
D12*
X79016340Y-50192207D03*
X79016340Y-48192207D03*
X79016340Y-46192207D03*
D13*
X78016340Y-50192207D03*
X78016340Y-48192207D03*
X78016340Y-46192207D03*
D12*
X49020840Y-46192207D03*
X49020840Y-48192207D03*
X49020840Y-50192207D03*
D13*
X50020840Y-46192207D03*
X50020840Y-48192207D03*
X50020840Y-50192207D03*
D10*
G36*
X56773230Y-24206381D02*
X58932558Y-26288999D01*
X57127622Y-28160417D01*
X54968294Y-26077799D01*
X56773230Y-24206381D01*
X56773230Y-24206381D01*
G37*
G36*
X72523542Y-38702507D02*
X74682870Y-40785125D01*
X72183728Y-43376319D01*
X70024400Y-41293701D01*
X72523542Y-38702507D01*
X72523542Y-38702507D01*
G37*
D11*
X73721210Y-42358405D03*
D10*
G36*
X55609755Y-48580312D02*
X56358968Y-46725945D01*
X57063627Y-47010646D01*
X56314414Y-48865013D01*
X55609755Y-48580312D01*
X55609755Y-48580312D01*
G37*
G36*
X56787279Y-49056062D02*
X57536492Y-47201695D01*
X58241151Y-47486396D01*
X57491938Y-49340763D01*
X56787279Y-49056062D01*
X56787279Y-49056062D01*
G37*
G36*
X57964802Y-49531812D02*
X58714015Y-47677445D01*
X59418674Y-47962146D01*
X58669461Y-49816513D01*
X57964802Y-49531812D01*
X57964802Y-49531812D01*
G37*
G36*
X59142326Y-50007563D02*
X59891539Y-48153196D01*
X60596198Y-48437897D01*
X59846985Y-50292264D01*
X59142326Y-50007563D01*
X59142326Y-50007563D01*
G37*
G36*
X56808496Y-45613323D02*
X57557709Y-43758956D01*
X58262368Y-44043657D01*
X57513155Y-45898024D01*
X56808496Y-45613323D01*
X56808496Y-45613323D01*
G37*
G36*
X57986020Y-46089074D02*
X58735233Y-44234707D01*
X59439892Y-44519408D01*
X58690679Y-46373775D01*
X57986020Y-46089074D01*
X57986020Y-46089074D01*
G37*
G36*
X59163543Y-46564824D02*
X59912756Y-44710457D01*
X60617415Y-44995158D01*
X59868202Y-46849525D01*
X59163543Y-46564824D01*
X59163543Y-46564824D01*
G37*
G36*
X60350338Y-47044320D02*
X61099552Y-45189953D01*
X61785668Y-45467162D01*
X61036454Y-47321529D01*
X60350338Y-47044320D01*
X60350338Y-47044320D01*
G37*
G36*
X56160057Y-43841389D02*
X56384821Y-43285079D01*
X57219287Y-43622225D01*
X56994523Y-44178535D01*
X56160057Y-43841389D01*
X56160057Y-43841389D01*
G37*
G36*
X55598147Y-45232165D02*
X55822911Y-44675855D01*
X56657377Y-45013001D01*
X56432613Y-45569311D01*
X55598147Y-45232165D01*
X55598147Y-45232165D01*
G37*
G36*
X54439167Y-44763906D02*
X54663931Y-44207596D01*
X55498397Y-44544742D01*
X55273633Y-45101052D01*
X54439167Y-44763906D01*
X54439167Y-44763906D01*
G37*
G36*
X55001077Y-43373131D02*
X55225841Y-42816821D01*
X56060307Y-43153967D01*
X55835543Y-43710277D01*
X55001077Y-43373131D01*
X55001077Y-43373131D01*
G37*
G36*
X53842097Y-42904872D02*
X54066861Y-42348562D01*
X54901327Y-42685708D01*
X54676563Y-43242018D01*
X53842097Y-42904872D01*
X53842097Y-42904872D01*
G37*
G36*
X53280188Y-44295648D02*
X53504952Y-43739338D01*
X54339418Y-44076484D01*
X54114654Y-44632794D01*
X53280188Y-44295648D01*
X53280188Y-44295648D01*
G37*
G36*
X56294469Y-45243863D02*
X56369390Y-45058427D01*
X57203855Y-45395573D01*
X57128934Y-45581009D01*
X56294469Y-45243863D01*
X56294469Y-45243863D01*
G37*
G36*
X54706558Y-45303353D02*
X54781479Y-45117916D01*
X58304778Y-46541421D01*
X58229857Y-46726858D01*
X54706558Y-45303353D01*
X54706558Y-45303353D01*
G37*
G36*
X53286287Y-45214867D02*
X53361208Y-45029430D01*
X59387903Y-47464373D01*
X59312982Y-47649810D01*
X53286287Y-45214867D01*
X53286287Y-45214867D01*
G37*
G36*
X54744018Y-45210635D02*
X54893861Y-44839762D01*
X55079298Y-44914683D01*
X54929455Y-45285556D01*
X54744018Y-45210635D01*
X54744018Y-45210635D01*
G37*
G36*
X58081880Y-46559218D02*
X58231723Y-46188345D01*
X58417160Y-46263266D01*
X58267317Y-46634139D01*
X58081880Y-46559218D01*
X58081880Y-46559218D01*
G37*
G36*
X59183736Y-47435811D02*
X59483421Y-46694064D01*
X59668858Y-46768985D01*
X59369173Y-47510732D01*
X59183736Y-47435811D01*
X59183736Y-47435811D01*
G37*
G36*
X53342478Y-45075789D02*
X53642163Y-44334042D01*
X53827600Y-44408963D01*
X53527915Y-45150710D01*
X53342478Y-45075789D01*
X53342478Y-45075789D01*
G37*
G36*
X54612406Y-43000391D02*
X54687328Y-42814954D01*
X56541696Y-43564167D01*
X56466774Y-43749604D01*
X54612406Y-43000391D01*
X54612406Y-43000391D01*
G37*
D14*
X72350000Y-41040000D02*
X73720000Y-42360000D01*
X72350000Y-41040000D02*
X73720000Y-42360000D01*
X72350000Y-41040000D02*
X73720000Y-42360000D01*
X72350000Y-41040000D02*
X73720000Y-42360000D01*
X72350000Y-41040000D02*
X73720000Y-42360000D01*
X72350000Y-41040000D02*
X73720000Y-42360000D01*
X72350000Y-41040000D02*
X73720000Y-42360000D01*
X72350000Y-41040000D02*
X73720000Y-42360000D01*
X72350000Y-41040000D02*
X73720000Y-42360000D01*
X56950000Y-26180000D02*
X55580000Y-43280000D01*
X56950000Y-26180000D02*
X55580000Y-43280000D01*
X56950000Y-26180000D02*
X55580000Y-43280000D01*
X56950000Y-26180000D02*
X55580000Y-43280000D01*
X56950000Y-26180000D02*
X55580000Y-43280000D01*
X56950000Y-26180000D02*
X55580000Y-43280000D01*
X56950000Y-26180000D02*
X55580000Y-43280000D01*
X56950000Y-26180000D02*
X55580000Y-43280000D01*
X56950000Y-26180000D02*
X55580000Y-43280000D01*
D15*
G36*
X67155999Y-19184764D02*
X69014044Y-19748987D01*
X70706187Y-20633958D01*
X72143984Y-21799740D01*
X73338743Y-23217910D01*
X74242200Y-24879105D01*
X74815543Y-26715745D01*
X75009849Y-28687949D01*
X74846400Y-30130148D01*
X74353749Y-31627418D01*
X73584127Y-33003117D01*
X72538555Y-34097548D01*
X72526526Y-34116471D01*
X72510461Y-34132109D01*
X72497646Y-34161905D01*
X72480240Y-34189287D01*
X72476369Y-34211375D01*
X72467511Y-34231969D01*
X72467074Y-34264406D01*
X72461473Y-34296359D01*
X72466347Y-34318242D01*
X72466045Y-34340663D01*
X72478054Y-34370798D01*
X72485107Y-34402463D01*
X72497986Y-34420817D01*
X72506286Y-34441644D01*
X72528914Y-34464890D01*
X72547548Y-34491445D01*
X72566471Y-34503474D01*
X72582109Y-34519539D01*
X74277894Y-35686004D01*
X75435773Y-37140530D01*
X76117308Y-38887562D01*
X76350167Y-40925078D01*
X76194101Y-42934424D01*
X75716882Y-44804344D01*
X75608836Y-45029441D01*
X75606911Y-45036942D01*
X75602607Y-45043384D01*
X75593465Y-45089345D01*
X75581818Y-45134735D01*
X75582911Y-45142405D01*
X75581400Y-45150000D01*
X75590541Y-45195957D01*
X75597152Y-45242352D01*
X75601096Y-45249018D01*
X75602607Y-45256616D01*
X75628639Y-45295576D01*
X75652501Y-45335910D01*
X75658697Y-45340561D01*
X75663000Y-45347000D01*
X75701963Y-45373035D01*
X75739441Y-45401164D01*
X75746942Y-45403089D01*
X75753384Y-45407393D01*
X75799345Y-45416535D01*
X75844735Y-45428182D01*
X75852405Y-45427089D01*
X75860000Y-45428600D01*
X76493196Y-45428600D01*
X76432140Y-45576002D01*
X76432140Y-45868357D01*
X76578190Y-46014407D01*
X77148420Y-46014407D01*
X77116928Y-46130540D01*
X77147722Y-46370007D01*
X76578190Y-46370007D01*
X76432140Y-46516057D01*
X76432140Y-46808412D01*
X76521079Y-47023130D01*
X76685418Y-47187468D01*
X76900136Y-47276407D01*
X78692490Y-47276407D01*
X78838540Y-47130357D01*
X78838540Y-46538605D01*
X78915752Y-46253874D01*
X78882386Y-45994407D01*
X79194140Y-45994407D01*
X79194140Y-46014407D01*
X79214140Y-46014407D01*
X79214140Y-46370007D01*
X79194140Y-46370007D01*
X79194140Y-47130357D01*
X79340190Y-47276407D01*
X81051400Y-47276407D01*
X81051400Y-47466229D01*
X81016340Y-47459129D01*
X77016340Y-47459129D01*
X76931626Y-47475069D01*
X76853822Y-47525135D01*
X76801625Y-47601527D01*
X76783262Y-47692207D01*
X76783262Y-48692207D01*
X76799202Y-48776921D01*
X76849268Y-48854725D01*
X76925660Y-48906922D01*
X77016340Y-48925285D01*
X81016340Y-48925285D01*
X81051400Y-48918688D01*
X81051400Y-49108007D01*
X79340190Y-49108007D01*
X79194140Y-49254057D01*
X79194140Y-50014407D01*
X79214140Y-50014407D01*
X79214140Y-50370007D01*
X79194140Y-50370007D01*
X79194140Y-50390007D01*
X78878836Y-50390007D01*
X78915752Y-50253874D01*
X78870887Y-49904990D01*
X78838540Y-49826897D01*
X78838540Y-49254057D01*
X78692490Y-49108007D01*
X76900136Y-49108007D01*
X76685418Y-49196946D01*
X76521079Y-49361284D01*
X76432140Y-49576002D01*
X76432140Y-49868357D01*
X76578190Y-50014407D01*
X77148420Y-50014407D01*
X77116928Y-50130540D01*
X77147722Y-50370007D01*
X76578190Y-50370007D01*
X76432140Y-50516057D01*
X76432140Y-50808412D01*
X76458230Y-50871400D01*
X66540000Y-50871400D01*
X66489726Y-50881400D01*
X51574807Y-50881400D01*
X51605040Y-50808412D01*
X51605040Y-50622765D01*
X59495375Y-50622765D01*
X59576079Y-50812891D01*
X59735884Y-50877456D01*
X59968284Y-50875428D01*
X60182218Y-50784618D01*
X60345115Y-50618852D01*
X60432177Y-50403366D01*
X60641936Y-49884194D01*
X60561232Y-49694068D01*
X59967510Y-49454188D01*
X59495375Y-50622765D01*
X51605040Y-50622765D01*
X51605040Y-50516057D01*
X51458990Y-50370007D01*
X50888760Y-50370007D01*
X50920252Y-50253874D01*
X50906511Y-50147014D01*
X58317851Y-50147014D01*
X58398555Y-50337140D01*
X58558360Y-50401705D01*
X58708584Y-50400394D01*
X58815737Y-50505693D01*
X58975542Y-50570258D01*
X59165668Y-50489554D01*
X59637804Y-49320978D01*
X59243831Y-49161803D01*
X59151459Y-49124482D01*
X60100720Y-49124482D01*
X60694443Y-49364361D01*
X60884569Y-49283657D01*
X61094328Y-48764485D01*
X61181390Y-48548999D01*
X61179362Y-48316599D01*
X61088553Y-48102665D01*
X60922787Y-47939767D01*
X60762982Y-47875202D01*
X60572856Y-47955906D01*
X60100720Y-49124482D01*
X59151459Y-49124482D01*
X58789986Y-48978437D01*
X58317851Y-50147014D01*
X50906511Y-50147014D01*
X50889458Y-50014407D01*
X51458990Y-50014407D01*
X51605040Y-49868357D01*
X51605040Y-49671264D01*
X57140328Y-49671264D01*
X57221032Y-49861390D01*
X57380837Y-49925955D01*
X57531061Y-49924644D01*
X57638213Y-50029942D01*
X57798018Y-50094507D01*
X57988144Y-50013803D01*
X58460280Y-48845227D01*
X57866557Y-48605348D01*
X57612463Y-48502687D01*
X57140328Y-49671264D01*
X51605040Y-49671264D01*
X51605040Y-49576002D01*
X51516101Y-49361284D01*
X51351762Y-49196946D01*
X51348305Y-49195514D01*
X55962804Y-49195514D01*
X56043508Y-49385640D01*
X56203313Y-49450205D01*
X56353538Y-49448894D01*
X56460690Y-49554192D01*
X56620495Y-49618757D01*
X56810621Y-49538053D01*
X57282757Y-48369477D01*
X56689034Y-48129598D01*
X56434939Y-48026937D01*
X55962804Y-49195514D01*
X51348305Y-49195514D01*
X51137044Y-49108007D01*
X49344690Y-49108007D01*
X49198640Y-49254057D01*
X49198640Y-49845809D01*
X49121428Y-50130540D01*
X49154794Y-50390007D01*
X48843040Y-50390007D01*
X48843040Y-50370007D01*
X48823040Y-50370007D01*
X48823040Y-50014407D01*
X48843040Y-50014407D01*
X48843040Y-49254057D01*
X48696990Y-49108007D01*
X46908600Y-49108007D01*
X46908600Y-48892191D01*
X46930160Y-48906922D01*
X47020840Y-48925285D01*
X51020840Y-48925285D01*
X51105554Y-48909345D01*
X51183358Y-48859279D01*
X51235555Y-48782887D01*
X51245058Y-48735959D01*
X53623321Y-48735959D01*
X53631799Y-48911429D01*
X53950327Y-49004567D01*
X54280251Y-48968719D01*
X54418561Y-48911429D01*
X54427039Y-48735959D01*
X54025180Y-48334100D01*
X53623321Y-48735959D01*
X51245058Y-48735959D01*
X51253918Y-48692207D01*
X51253918Y-48082470D01*
X53177936Y-48082470D01*
X53213784Y-48412394D01*
X53271074Y-48550704D01*
X53446544Y-48559182D01*
X53848403Y-48157323D01*
X54201957Y-48157323D01*
X54603816Y-48559182D01*
X54779286Y-48550704D01*
X54803114Y-48469210D01*
X55024563Y-48469210D01*
X55026591Y-48701610D01*
X55117400Y-48915544D01*
X55283166Y-49078442D01*
X55442971Y-49143007D01*
X55633097Y-49062303D01*
X56105233Y-47893727D01*
X55511510Y-47653848D01*
X55321384Y-47734552D01*
X55111625Y-48253724D01*
X55024563Y-48469210D01*
X54803114Y-48469210D01*
X54872424Y-48232176D01*
X54836576Y-47902252D01*
X54779286Y-47763942D01*
X54603816Y-47755464D01*
X54201957Y-48157323D01*
X53848403Y-48157323D01*
X53446544Y-47755464D01*
X53271074Y-47763942D01*
X53177936Y-48082470D01*
X51253918Y-48082470D01*
X51253918Y-47692207D01*
X51237978Y-47607493D01*
X51219442Y-47578687D01*
X53623321Y-47578687D01*
X54025180Y-47980546D01*
X54427039Y-47578687D01*
X54418561Y-47403217D01*
X54100033Y-47310079D01*
X53770109Y-47345927D01*
X53631799Y-47403217D01*
X53623321Y-47578687D01*
X51219442Y-47578687D01*
X51187912Y-47529689D01*
X51111520Y-47477492D01*
X51020840Y-47459129D01*
X47020840Y-47459129D01*
X46936126Y-47475069D01*
X46908600Y-47492782D01*
X46908600Y-47276407D01*
X48696990Y-47276407D01*
X48843040Y-47130357D01*
X48843040Y-46370007D01*
X48823040Y-46370007D01*
X48823040Y-46014407D01*
X48843040Y-46014407D01*
X48843040Y-45994407D01*
X49158344Y-45994407D01*
X49121428Y-46130540D01*
X49166293Y-46479424D01*
X49198640Y-46557517D01*
X49198640Y-47130357D01*
X49344690Y-47276407D01*
X51137044Y-47276407D01*
X51351762Y-47187468D01*
X51516101Y-47023130D01*
X51605040Y-46808412D01*
X51605040Y-46516057D01*
X51458990Y-46370007D01*
X50888760Y-46370007D01*
X50920252Y-46253874D01*
X50889458Y-46014407D01*
X51458990Y-46014407D01*
X51605040Y-45868357D01*
X51605040Y-45576002D01*
X51516101Y-45361284D01*
X51511904Y-45357087D01*
X51527000Y-45347000D01*
X51587393Y-45256616D01*
X51608600Y-45150000D01*
X51608600Y-44292852D01*
X53047127Y-44292852D01*
X53064401Y-44383746D01*
X53115677Y-44460759D01*
X53192875Y-44511754D01*
X53301284Y-44555554D01*
X53145103Y-44942117D01*
X53145102Y-44942118D01*
X53070181Y-45127555D01*
X53053226Y-45212071D01*
X53070500Y-45302965D01*
X53121776Y-45379978D01*
X53198974Y-45430973D01*
X55823646Y-46491410D01*
X55773776Y-46614843D01*
X55564017Y-47134015D01*
X55644721Y-47324141D01*
X56238443Y-47564021D01*
X56245935Y-47545477D01*
X56575641Y-47678687D01*
X56568149Y-47697231D01*
X57161872Y-47937110D01*
X57415967Y-48039771D01*
X57423459Y-48021227D01*
X57753165Y-48154437D01*
X57745673Y-48172981D01*
X58339396Y-48412860D01*
X58593490Y-48515521D01*
X58600982Y-48496977D01*
X58930688Y-48630187D01*
X58923196Y-48648731D01*
X59177292Y-48751392D01*
X59771014Y-48991272D01*
X60243149Y-47822695D01*
X60162445Y-47632569D01*
X60002640Y-47568004D01*
X59852416Y-47569315D01*
X59745263Y-47464016D01*
X59654281Y-47427257D01*
X59798926Y-47069249D01*
X59865406Y-47082586D01*
X59956300Y-47065312D01*
X59992027Y-47041524D01*
X60117277Y-47041524D01*
X60134551Y-47132418D01*
X60185827Y-47209431D01*
X60263025Y-47260426D01*
X60949141Y-47537635D01*
X61033658Y-47554590D01*
X61124552Y-47537316D01*
X61201564Y-47486040D01*
X61252560Y-47408842D01*
X61521792Y-46742468D01*
X64113791Y-46742468D01*
X64122269Y-46917938D01*
X64440797Y-47011076D01*
X64770721Y-46975228D01*
X64909031Y-46917938D01*
X64917509Y-46742468D01*
X64515650Y-46340609D01*
X64113791Y-46742468D01*
X61521792Y-46742468D01*
X61785820Y-46088979D01*
X63668406Y-46088979D01*
X63704254Y-46418903D01*
X63761544Y-46557213D01*
X63937014Y-46565691D01*
X64338873Y-46163832D01*
X64692427Y-46163832D01*
X65094286Y-46565691D01*
X65269756Y-46557213D01*
X65362894Y-46238685D01*
X65327046Y-45908761D01*
X65269756Y-45770451D01*
X65094286Y-45761973D01*
X64692427Y-46163832D01*
X64338873Y-46163832D01*
X63937014Y-45761973D01*
X63761544Y-45770451D01*
X63668406Y-46088979D01*
X61785820Y-46088979D01*
X61989361Y-45585196D01*
X64113791Y-45585196D01*
X64515650Y-45987055D01*
X64917509Y-45585196D01*
X64909031Y-45409726D01*
X64590503Y-45316588D01*
X64260579Y-45352436D01*
X64122269Y-45409726D01*
X64113791Y-45585196D01*
X61989361Y-45585196D01*
X62001774Y-45554475D01*
X62018729Y-45469958D01*
X62001455Y-45379064D01*
X61950179Y-45302051D01*
X61872981Y-45251056D01*
X61186865Y-44973847D01*
X61102348Y-44956892D01*
X61011454Y-44974166D01*
X60934442Y-45025442D01*
X60883446Y-45102640D01*
X60134232Y-46957007D01*
X60117277Y-47041524D01*
X59992027Y-47041524D01*
X60033313Y-47014036D01*
X60084308Y-46936838D01*
X60833521Y-45082471D01*
X60850476Y-44997954D01*
X60833202Y-44907060D01*
X60781926Y-44830047D01*
X60704728Y-44779052D01*
X60120604Y-44543050D01*
X69215383Y-44543050D01*
X69360210Y-44841647D01*
X69608282Y-45062090D01*
X69743599Y-45126131D01*
X69864330Y-45026934D01*
X70129030Y-45026934D01*
X70253120Y-45151285D01*
X70551717Y-45006458D01*
X70772160Y-44758386D01*
X70836201Y-44623069D01*
X70724677Y-44487334D01*
X70157053Y-44459311D01*
X70129030Y-45026934D01*
X69864330Y-45026934D01*
X69879334Y-45014607D01*
X69907357Y-44446983D01*
X69339734Y-44418960D01*
X69215383Y-44543050D01*
X60120604Y-44543050D01*
X60000069Y-44494351D01*
X59915552Y-44477396D01*
X59824658Y-44494670D01*
X59747645Y-44545946D01*
X59696650Y-44623144D01*
X58947437Y-46477511D01*
X58930482Y-46562028D01*
X58947756Y-46652922D01*
X58999032Y-46729935D01*
X59076230Y-46780930D01*
X59180003Y-46822857D01*
X59073673Y-47086033D01*
X58436446Y-46828577D01*
X58445963Y-46814170D01*
X58520884Y-46628733D01*
X58545953Y-46566685D01*
X58603366Y-46589881D01*
X58687883Y-46606836D01*
X58778777Y-46589562D01*
X58855790Y-46538286D01*
X58906785Y-46461088D01*
X59655998Y-44606721D01*
X59672953Y-44522204D01*
X59655679Y-44431310D01*
X59604403Y-44354297D01*
X59527205Y-44303302D01*
X59295322Y-44209615D01*
X70169381Y-44209615D01*
X70737004Y-44237638D01*
X70861355Y-44113548D01*
X70716528Y-43814951D01*
X70468456Y-43594508D01*
X70333139Y-43530467D01*
X70197404Y-43641991D01*
X70169381Y-44209615D01*
X59295322Y-44209615D01*
X58822546Y-44018601D01*
X58738029Y-44001646D01*
X58647135Y-44018920D01*
X58570122Y-44070196D01*
X58519127Y-44147394D01*
X57769914Y-46001761D01*
X57756520Y-46068528D01*
X57691627Y-46042309D01*
X57729261Y-45985337D01*
X58478474Y-44130970D01*
X58495429Y-44046453D01*
X58478155Y-43955559D01*
X58426879Y-43878546D01*
X58349681Y-43827551D01*
X57645022Y-43542850D01*
X57560505Y-43525895D01*
X57469611Y-43543169D01*
X57440479Y-43562566D01*
X57435074Y-43534127D01*
X57383798Y-43457114D01*
X57306600Y-43406119D01*
X56472134Y-43068973D01*
X56387617Y-43052018D01*
X56296723Y-43069292D01*
X56278989Y-43081100D01*
X56276094Y-43065869D01*
X56224818Y-42988856D01*
X56147620Y-42937861D01*
X55969903Y-42866059D01*
X56322902Y-38460000D01*
X59071400Y-38460000D01*
X59071400Y-43790000D01*
X59092607Y-43896616D01*
X59153000Y-43987000D01*
X59243384Y-44047393D01*
X59350000Y-44068600D01*
X65970000Y-44068600D01*
X65995868Y-44063455D01*
X66022244Y-44063658D01*
X66180062Y-44033529D01*
X69240537Y-44033529D01*
X69352061Y-44169264D01*
X69919685Y-44197287D01*
X69947708Y-43629664D01*
X69823618Y-43505313D01*
X69525021Y-43650140D01*
X69304578Y-43898212D01*
X69240537Y-44033529D01*
X66180062Y-44033529D01*
X67122244Y-43853658D01*
X67134029Y-43848882D01*
X67146700Y-43847834D01*
X67160924Y-43840514D01*
X67176616Y-43837393D01*
X67198546Y-43822740D01*
X67222992Y-43812834D01*
X67232052Y-43803912D01*
X67243357Y-43798095D01*
X68023357Y-43178095D01*
X68025631Y-43175411D01*
X68028718Y-43173724D01*
X68060688Y-43134029D01*
X68093622Y-43095152D01*
X68094695Y-43091803D01*
X68096902Y-43089063D01*
X68556902Y-42209063D01*
X68570051Y-42164236D01*
X68585684Y-42120204D01*
X68706070Y-41294695D01*
X69791324Y-41294695D01*
X69810074Y-41385297D01*
X69862596Y-41461465D01*
X72021924Y-43544083D01*
X72093965Y-43591419D01*
X72184722Y-43609395D01*
X72275324Y-43590645D01*
X72351492Y-43538123D01*
X73289122Y-42565956D01*
X73315236Y-42629156D01*
X73449751Y-42763905D01*
X73625593Y-42836921D01*
X73815992Y-42837088D01*
X73991961Y-42764379D01*
X74126710Y-42629864D01*
X74199726Y-42454022D01*
X74199893Y-42263623D01*
X74127184Y-42087654D01*
X73992669Y-41952905D01*
X73912501Y-41919616D01*
X74850634Y-40946929D01*
X74897970Y-40874888D01*
X74915946Y-40784131D01*
X74897196Y-40693529D01*
X74844674Y-40617361D01*
X72685346Y-38534743D01*
X72613305Y-38487407D01*
X72522548Y-38469431D01*
X72431946Y-38488181D01*
X72355778Y-38540703D01*
X71703952Y-39216538D01*
X71697883Y-38951147D01*
X71577323Y-38677930D01*
X71593788Y-38661465D01*
X71478723Y-38546400D01*
X71467460Y-38533029D01*
X71465794Y-38533471D01*
X71342338Y-38410015D01*
X70881835Y-38870518D01*
X71055902Y-39044585D01*
X71036188Y-39082631D01*
X71540787Y-39344090D01*
X71603338Y-39320858D01*
X71456323Y-39473288D01*
X71133285Y-39150250D01*
X70959218Y-39324317D01*
X70921172Y-39304603D01*
X70659713Y-39809202D01*
X70720877Y-39973885D01*
X70979207Y-39967978D01*
X69856636Y-41131897D01*
X69809300Y-41203938D01*
X69791324Y-41294695D01*
X68706070Y-41294695D01*
X68725684Y-41160204D01*
X68723383Y-41115596D01*
X68724244Y-41070925D01*
X68554244Y-40120925D01*
X68537927Y-40079280D01*
X68524582Y-40036592D01*
X68044582Y-39156592D01*
X68043931Y-39155812D01*
X68043622Y-39154848D01*
X68009155Y-39114162D01*
X67974911Y-39073149D01*
X67974012Y-39072678D01*
X67973357Y-39071905D01*
X67869425Y-38989292D01*
X70029918Y-38989292D01*
X70037505Y-39321071D01*
X70158065Y-39594288D01*
X70141600Y-39610753D01*
X70256665Y-39725818D01*
X70267928Y-39739189D01*
X70269594Y-39738747D01*
X70393050Y-39862203D01*
X70853553Y-39401700D01*
X70679486Y-39227633D01*
X70699200Y-39189587D01*
X70194601Y-38928128D01*
X70029918Y-38989292D01*
X67869425Y-38989292D01*
X67456998Y-38661465D01*
X70141600Y-38661465D01*
X70602103Y-39121968D01*
X70776170Y-38947901D01*
X70814216Y-38967615D01*
X71075675Y-38463016D01*
X71014511Y-38298333D01*
X70682732Y-38305920D01*
X70409515Y-38426480D01*
X70393050Y-38410015D01*
X70277985Y-38525080D01*
X70264614Y-38536343D01*
X70265056Y-38538009D01*
X70141600Y-38661465D01*
X67456998Y-38661465D01*
X67193357Y-38451905D01*
X67182262Y-38446195D01*
X67173385Y-38437425D01*
X67134261Y-38421495D01*
X67096700Y-38402166D01*
X67084264Y-38401137D01*
X67072706Y-38396431D01*
X65982706Y-38186431D01*
X65956098Y-38186591D01*
X65930000Y-38181400D01*
X59350000Y-38181400D01*
X59243384Y-38202607D01*
X59153000Y-38263000D01*
X59092607Y-38353384D01*
X59071400Y-38460000D01*
X56322902Y-38460000D01*
X56475926Y-36550000D01*
X56763800Y-36550000D01*
X56763800Y-36720000D01*
X56763994Y-36725429D01*
X56773994Y-36865429D01*
X56775904Y-36877783D01*
X56835904Y-37127783D01*
X56844397Y-37148765D01*
X56974397Y-37368765D01*
X56989025Y-37386639D01*
X57189025Y-37566639D01*
X57201605Y-37575820D01*
X57321605Y-37645820D01*
X57360000Y-37656200D01*
X57500000Y-37656200D01*
X57512527Y-37655163D01*
X57572527Y-37645163D01*
X57603430Y-37632612D01*
X57624368Y-37610783D01*
X57635163Y-37582527D01*
X57645163Y-37522527D01*
X57646200Y-37510000D01*
X57646200Y-37440000D01*
X57644478Y-37423893D01*
X57632344Y-37396186D01*
X57610386Y-37375383D01*
X57381238Y-37232166D01*
X57186725Y-36991339D01*
X57126200Y-36835705D01*
X57126200Y-36624221D01*
X57143833Y-36465524D01*
X57441775Y-35984972D01*
X57718103Y-35659300D01*
X57734174Y-35627453D01*
X57774174Y-35457453D01*
X57776200Y-35440000D01*
X57776200Y-35230000D01*
X57771922Y-35204827D01*
X57711405Y-35031920D01*
X58023824Y-35031920D01*
X58053812Y-36221435D01*
X58063800Y-36990528D01*
X58063800Y-37090000D01*
X58064837Y-37102527D01*
X58074837Y-37162527D01*
X58087388Y-37193430D01*
X58109217Y-37214368D01*
X58137473Y-37225163D01*
X58197473Y-37235163D01*
X58210000Y-37236200D01*
X58280000Y-37236200D01*
X58294944Y-37234720D01*
X58344944Y-37224720D01*
X58363133Y-37218620D01*
X58387219Y-37200323D01*
X58402290Y-37174097D01*
X58422290Y-37114097D01*
X58426105Y-37086195D01*
X58396159Y-36487267D01*
X58388100Y-36116556D01*
X58540549Y-36135612D01*
X58550000Y-36136200D01*
X58687041Y-36136200D01*
X58703872Y-36523310D01*
X58704536Y-36530565D01*
X58774536Y-37030565D01*
X58782999Y-37056295D01*
X58802398Y-37079502D01*
X58852398Y-37119502D01*
X58870354Y-37130197D01*
X58900000Y-37136200D01*
X58970000Y-37136200D01*
X58998300Y-37130750D01*
X59048300Y-37110750D01*
X59066775Y-37100154D01*
X59086493Y-37077217D01*
X59095734Y-37048415D01*
X59105734Y-36958415D01*
X59105998Y-36944453D01*
X59005998Y-35574453D01*
X59005669Y-35571022D01*
X58978269Y-35340071D01*
X59094468Y-35340071D01*
X59114468Y-35490071D01*
X59118388Y-35506041D01*
X59134161Y-35531850D01*
X59394161Y-35811850D01*
X59415922Y-35828155D01*
X59617247Y-35928817D01*
X59644013Y-36285699D01*
X59650368Y-36310948D01*
X59679952Y-36377512D01*
X59645826Y-36522547D01*
X59643800Y-36540000D01*
X59643800Y-37370000D01*
X59649250Y-37398300D01*
X59669250Y-37448300D01*
X59697163Y-37483019D01*
X59725056Y-37494720D01*
X59775056Y-37504720D01*
X59790000Y-37506200D01*
X59900000Y-37506200D01*
X59924586Y-37502125D01*
X59950709Y-37486877D01*
X59968843Y-37462667D01*
X59976128Y-37433310D01*
X60006017Y-36745871D01*
X60035734Y-36478415D01*
X60030039Y-36439983D01*
X60016832Y-36409166D01*
X60021816Y-36404556D01*
X60034280Y-36376996D01*
X60035041Y-36346758D01*
X60006200Y-36183326D01*
X60006200Y-35680000D01*
X60005163Y-35667473D01*
X59996200Y-35613695D01*
X59996200Y-35570000D01*
X59990989Y-35542305D01*
X59974621Y-35516868D01*
X59959108Y-35506268D01*
X59970563Y-35496245D01*
X59983783Y-35469039D01*
X59985377Y-35438833D01*
X59945377Y-35168833D01*
X59935341Y-35140795D01*
X59785341Y-34890795D01*
X59772059Y-34878824D01*
X60113809Y-34878824D01*
X60119354Y-34908559D01*
X60308146Y-35375570D01*
X60514298Y-36043111D01*
X60523845Y-36262684D01*
X60543829Y-36982116D01*
X60544732Y-36991884D01*
X60604732Y-37371884D01*
X60609011Y-37387695D01*
X60625379Y-37413132D01*
X60650354Y-37430197D01*
X60680000Y-37436200D01*
X60780000Y-37436200D01*
X60810017Y-37430039D01*
X60880017Y-37400039D01*
X60907998Y-37379423D01*
X60922657Y-37352964D01*
X60925867Y-37322887D01*
X60903949Y-37089087D01*
X61184344Y-37089087D01*
X61193840Y-37117806D01*
X61233840Y-37187806D01*
X61264643Y-37217500D01*
X61474643Y-37327500D01*
X61488759Y-37333180D01*
X61518903Y-37335678D01*
X61688903Y-37315678D01*
X61708673Y-37310599D01*
X61733882Y-37293882D01*
X61923882Y-37103882D01*
X61938335Y-37083717D01*
X61946069Y-37054475D01*
X61956055Y-36884718D01*
X61986023Y-36445183D01*
X61986200Y-36440000D01*
X61986200Y-36144073D01*
X62274031Y-36144073D01*
X62277710Y-36174097D01*
X62345756Y-36378235D01*
X62444772Y-36992134D01*
X62451845Y-37014078D01*
X62551845Y-37214078D01*
X62572650Y-37239703D01*
X62862650Y-37469703D01*
X62876885Y-37478628D01*
X62906195Y-37486105D01*
X63106195Y-37496105D01*
X63116899Y-37495887D01*
X63226899Y-37485887D01*
X63265202Y-37471345D01*
X63455202Y-37331345D01*
X63478622Y-37303128D01*
X63618622Y-37013128D01*
X63623714Y-36999306D01*
X63733714Y-36579306D01*
X63735766Y-36568118D01*
X63765766Y-36288118D01*
X63766200Y-36280000D01*
X63766200Y-36250000D01*
X63765707Y-36241348D01*
X63725707Y-35891348D01*
X63724083Y-35882165D01*
X63594083Y-35342165D01*
X63586611Y-35322994D01*
X63394648Y-34977459D01*
X64904166Y-34977459D01*
X65024166Y-36197459D01*
X65024538Y-36200579D01*
X65174538Y-37270579D01*
X65175826Y-37277453D01*
X65255826Y-37617453D01*
X65272091Y-37649528D01*
X65295922Y-37668155D01*
X65335922Y-37688155D01*
X65348104Y-37692986D01*
X65448104Y-37722986D01*
X65451519Y-37723925D01*
X65491519Y-37733925D01*
X65520545Y-37735467D01*
X65549075Y-37725418D01*
X65571448Y-37705062D01*
X65663783Y-37579151D01*
X65698239Y-37675629D01*
X65706020Y-37691388D01*
X65727163Y-37713019D01*
X65755056Y-37724720D01*
X65805056Y-37734720D01*
X65820000Y-37736200D01*
X65890000Y-37736200D01*
X65904944Y-37734720D01*
X65954944Y-37724720D01*
X65987987Y-37709192D01*
X66007235Y-37685859D01*
X66087235Y-37535859D01*
X66094461Y-37516187D01*
X66194461Y-37056187D01*
X66195976Y-37045844D01*
X66235976Y-36525844D01*
X66236197Y-36519332D01*
X66226817Y-35450000D01*
X66633800Y-35450000D01*
X66633800Y-36000000D01*
X66633849Y-36002720D01*
X66643849Y-36282720D01*
X66644228Y-36288061D01*
X66694228Y-36758061D01*
X66697126Y-36772267D01*
X66807126Y-37132267D01*
X66816174Y-37151626D01*
X66966174Y-37381626D01*
X66986302Y-37402425D01*
X67086302Y-37472425D01*
X67100354Y-37480197D01*
X67130000Y-37486200D01*
X67230000Y-37486200D01*
X67239451Y-37485612D01*
X67319451Y-37475612D01*
X67356460Y-37460398D01*
X67486460Y-37360398D01*
X67505341Y-37339205D01*
X67565341Y-37239205D01*
X67576171Y-37202105D01*
X67570989Y-37172305D01*
X67559055Y-37153759D01*
X67588298Y-37145876D01*
X67610910Y-37125786D01*
X67623925Y-37098481D01*
X67631273Y-37069087D01*
X67904344Y-37069087D01*
X67913840Y-37097806D01*
X67953840Y-37167806D01*
X67983278Y-37196768D01*
X68183278Y-37306768D01*
X68198759Y-37313180D01*
X68228903Y-37315678D01*
X68398903Y-37295678D01*
X68418673Y-37290599D01*
X68443882Y-37273882D01*
X68633882Y-37083882D01*
X68646252Y-37067645D01*
X68655678Y-37038903D01*
X68675678Y-36868903D01*
X68676121Y-36863460D01*
X68696121Y-36423460D01*
X68696184Y-36421555D01*
X68704917Y-35993620D01*
X68900592Y-35993620D01*
X68966242Y-36156567D01*
X68988166Y-36155464D01*
X69055948Y-36358810D01*
X69164972Y-36973311D01*
X69170512Y-36991270D01*
X69260512Y-37191270D01*
X69283638Y-37220473D01*
X69583638Y-37450473D01*
X69596705Y-37458541D01*
X69625995Y-37466095D01*
X69815995Y-37476095D01*
X69826899Y-37475887D01*
X69936899Y-37465887D01*
X69975202Y-37451345D01*
X70165202Y-37311345D01*
X70187682Y-37285008D01*
X70337682Y-36995008D01*
X70344128Y-36977649D01*
X70444128Y-36557649D01*
X70445766Y-36548118D01*
X70475766Y-36268118D01*
X70476200Y-36260000D01*
X70476200Y-36230000D01*
X70475922Y-36223492D01*
X70445922Y-35873492D01*
X70443761Y-35860877D01*
X70303761Y-35320877D01*
X70296611Y-35302994D01*
X70096611Y-34942994D01*
X70073374Y-34917349D01*
X69813374Y-34737349D01*
X69779451Y-34724388D01*
X69688772Y-34713053D01*
X69685801Y-34710082D01*
X69673095Y-34695810D01*
X69671885Y-34696166D01*
X69564710Y-34588991D01*
X69104207Y-35049494D01*
X69274868Y-35220155D01*
X69257032Y-35257013D01*
X69768601Y-35504559D01*
X69931548Y-35438909D01*
X69927242Y-35353293D01*
X70074203Y-35803359D01*
X70083800Y-36091279D01*
X70083800Y-36225889D01*
X70044804Y-36586604D01*
X69959118Y-36929347D01*
X69885529Y-37043819D01*
X69868893Y-37053800D01*
X69709640Y-37053800D01*
X69625599Y-36976763D01*
X69495281Y-36604425D01*
X69476200Y-36337287D01*
X69476200Y-36301564D01*
X69593882Y-36183882D01*
X69610197Y-36159646D01*
X69616200Y-36130000D01*
X69616200Y-36090000D01*
X69610750Y-36061700D01*
X69590750Y-36011700D01*
X69586084Y-36003088D01*
X69597527Y-35997659D01*
X69709341Y-35898114D01*
X69659707Y-35729597D01*
X69148138Y-35482051D01*
X68900592Y-35993620D01*
X68704917Y-35993620D01*
X68705791Y-35950810D01*
X69075925Y-35580676D01*
X68905264Y-35410015D01*
X68923100Y-35373157D01*
X68698185Y-35264322D01*
X68696194Y-35099082D01*
X68695163Y-35087473D01*
X68685163Y-35027473D01*
X68673980Y-34998612D01*
X68652837Y-34976981D01*
X68624944Y-34965280D01*
X68574944Y-34955280D01*
X68560000Y-34953800D01*
X68520000Y-34953800D01*
X68491700Y-34959250D01*
X68441700Y-34979250D01*
X68426243Y-34987616D01*
X68405420Y-35009555D01*
X68394772Y-35037866D01*
X68378471Y-35138930D01*
X68248584Y-35191261D01*
X68265252Y-35522708D01*
X68343800Y-35688285D01*
X68343800Y-36646645D01*
X68320228Y-36913800D01*
X68294554Y-36913800D01*
X68049079Y-36884343D01*
X68022542Y-36885827D01*
X67995060Y-36898463D01*
X67974659Y-36920795D01*
X67914659Y-37020795D01*
X67906769Y-37038937D01*
X67904344Y-37069087D01*
X67631273Y-37069087D01*
X67703925Y-36778481D01*
X67705806Y-36767735D01*
X67755806Y-36277735D01*
X67756131Y-36266760D01*
X67736131Y-35796760D01*
X67733652Y-35780460D01*
X67603652Y-35290460D01*
X67593402Y-35267732D01*
X67453402Y-35057732D01*
X67436782Y-35039851D01*
X67346782Y-34969851D01*
X67329646Y-34959803D01*
X67300000Y-34953800D01*
X67050000Y-34953800D01*
X67025903Y-34957710D01*
X66875903Y-35007710D01*
X66842145Y-35030410D01*
X66662145Y-35240410D01*
X66651789Y-35256033D01*
X66643948Y-35285247D01*
X66633948Y-35445247D01*
X66633800Y-35450000D01*
X66226817Y-35450000D01*
X66226197Y-35379332D01*
X66225922Y-35373492D01*
X66195922Y-35023492D01*
X66188190Y-34995991D01*
X66169586Y-34972141D01*
X66143169Y-34957408D01*
X66113101Y-34954113D01*
X66003101Y-34964113D01*
X65982305Y-34969011D01*
X65956868Y-34985379D01*
X65939803Y-35010354D01*
X65933800Y-35040000D01*
X65933800Y-35124359D01*
X65909961Y-35179983D01*
X65903922Y-35214306D01*
X65933859Y-35743190D01*
X65943800Y-36101072D01*
X65943800Y-36168278D01*
X65923997Y-36603934D01*
X65888220Y-36916991D01*
X65885840Y-36892601D01*
X65884720Y-36885056D01*
X65794720Y-36435056D01*
X65781537Y-36405060D01*
X65759205Y-36384659D01*
X65709205Y-36354659D01*
X65670000Y-36343800D01*
X65640000Y-36343800D01*
X65611700Y-36349250D01*
X65561700Y-36369250D01*
X65538363Y-36383964D01*
X65520630Y-36408468D01*
X65470630Y-36518468D01*
X65463800Y-36550000D01*
X65463800Y-36600000D01*
X65471845Y-36634078D01*
X65491162Y-36672712D01*
X65466655Y-36841809D01*
X65405835Y-36222552D01*
X65405563Y-36220171D01*
X65245563Y-34990171D01*
X65238155Y-34965922D01*
X65188155Y-34865922D01*
X65174621Y-34846868D01*
X65149646Y-34829803D01*
X65120000Y-34823800D01*
X65050000Y-34823800D01*
X65025903Y-34827710D01*
X64965903Y-34847710D01*
X64948612Y-34856020D01*
X64926981Y-34877163D01*
X64915280Y-34905056D01*
X64905280Y-34955056D01*
X64904166Y-34977459D01*
X63394648Y-34977459D01*
X63386611Y-34962994D01*
X63363374Y-34937349D01*
X63103374Y-34757349D01*
X63064475Y-34743931D01*
X62894475Y-34733931D01*
X62875056Y-34735280D01*
X62825056Y-34745280D01*
X62793035Y-34759994D01*
X62773389Y-34782994D01*
X62723389Y-34872994D01*
X62715049Y-34896259D01*
X62715608Y-34926502D01*
X62727889Y-34954144D01*
X62749957Y-34974831D01*
X63077691Y-35177255D01*
X63210909Y-35354878D01*
X63354567Y-35833739D01*
X63373800Y-36112619D01*
X63373800Y-36245889D01*
X63334911Y-36605616D01*
X63239124Y-36950446D01*
X63173720Y-37064904D01*
X63158893Y-37073800D01*
X62997913Y-37073800D01*
X62905065Y-36995237D01*
X62775739Y-36625731D01*
X62766200Y-36358652D01*
X62766200Y-36321564D01*
X62883882Y-36203882D01*
X62900197Y-36179646D01*
X62906200Y-36150000D01*
X62906200Y-36110000D01*
X62900750Y-36081700D01*
X62880750Y-36031700D01*
X62870006Y-36013035D01*
X62847006Y-35993389D01*
X62757006Y-35943389D01*
X62720000Y-35933800D01*
X62550000Y-35933800D01*
X62540549Y-35934388D01*
X62460549Y-35944388D01*
X62426302Y-35957575D01*
X62326302Y-36027575D01*
X62312781Y-36039677D01*
X62297710Y-36065903D01*
X62277710Y-36125903D01*
X62274031Y-36144073D01*
X61986200Y-36144073D01*
X61986200Y-35120000D01*
X61982290Y-35095903D01*
X61962290Y-35035903D01*
X61953980Y-35018612D01*
X61932837Y-34996981D01*
X61904944Y-34985280D01*
X61854944Y-34975280D01*
X61840000Y-34973800D01*
X61810000Y-34973800D01*
X61781700Y-34979250D01*
X61731700Y-34999250D01*
X61715937Y-35007832D01*
X61695222Y-35029873D01*
X61684713Y-35058236D01*
X61634713Y-35378236D01*
X61633800Y-35390000D01*
X61633800Y-36666645D01*
X61610228Y-36933800D01*
X61574747Y-36933800D01*
X61339451Y-36904388D01*
X61317795Y-36904784D01*
X61289494Y-36915458D01*
X61267575Y-36936302D01*
X61197575Y-37036302D01*
X61186769Y-37058937D01*
X61184344Y-37089087D01*
X60903949Y-37089087D01*
X60836031Y-36364640D01*
X60817717Y-35980047D01*
X60843882Y-35953882D01*
X60862559Y-35923274D01*
X61032559Y-35393274D01*
X61034013Y-35388126D01*
X61154013Y-34898126D01*
X61156200Y-34880000D01*
X61156200Y-34810000D01*
X61150989Y-34782305D01*
X61134621Y-34756868D01*
X61109646Y-34739803D01*
X61080000Y-34733800D01*
X61010000Y-34733800D01*
X60970795Y-34744659D01*
X60920795Y-34774659D01*
X60904682Y-34787594D01*
X60888652Y-34813244D01*
X60738652Y-35213244D01*
X60736580Y-35219606D01*
X60683133Y-35412016D01*
X60611670Y-35214119D01*
X60608486Y-35206592D01*
X60408486Y-34796592D01*
X60393882Y-34776118D01*
X60349820Y-34732056D01*
X68470791Y-34732056D01*
X68520425Y-34900573D01*
X69031994Y-35148119D01*
X69279540Y-34636550D01*
X69213890Y-34473603D01*
X68882443Y-34490271D01*
X68582605Y-34632511D01*
X68470791Y-34732056D01*
X60349820Y-34732056D01*
X60343882Y-34726118D01*
X60320981Y-34710383D01*
X60291455Y-34703814D01*
X60261700Y-34709250D01*
X60211700Y-34729250D01*
X60196186Y-34737656D01*
X60175383Y-34759614D01*
X60125383Y-34839614D01*
X60113809Y-34878824D01*
X59772059Y-34878824D01*
X59752224Y-34860949D01*
X59602224Y-34790949D01*
X59577582Y-34784178D01*
X59477582Y-34774178D01*
X59470000Y-34773800D01*
X59410000Y-34773800D01*
X59394032Y-34775492D01*
X59366302Y-34787575D01*
X59266302Y-34857575D01*
X59244055Y-34881821D01*
X59134055Y-35071821D01*
X59124499Y-35099704D01*
X59111157Y-35197544D01*
X59094499Y-35319704D01*
X59094468Y-35340071D01*
X58978269Y-35340071D01*
X58935669Y-34981022D01*
X58931134Y-34962680D01*
X58914901Y-34937157D01*
X58890017Y-34919961D01*
X58820017Y-34889961D01*
X58790000Y-34883800D01*
X58750000Y-34883800D01*
X58707169Y-34896977D01*
X58686024Y-34918606D01*
X58674959Y-34946758D01*
X58644959Y-35116758D01*
X58643800Y-35130000D01*
X58643800Y-35510000D01*
X58644322Y-35518903D01*
X58674310Y-35773800D01*
X58512367Y-35773800D01*
X58395444Y-35734826D01*
X58385180Y-35721995D01*
X58376144Y-35487071D01*
X58375560Y-35480144D01*
X58315560Y-35020144D01*
X58310989Y-35002305D01*
X58294621Y-34976868D01*
X58269646Y-34959803D01*
X58240000Y-34953800D01*
X58100000Y-34953800D01*
X58070524Y-34959732D01*
X58045508Y-34976736D01*
X58029079Y-35002132D01*
X58023824Y-35031920D01*
X57711405Y-35031920D01*
X57701922Y-35004827D01*
X57683882Y-34976118D01*
X57463882Y-34756118D01*
X57448124Y-34744023D01*
X57419451Y-34734388D01*
X57259451Y-34714388D01*
X57250000Y-34713800D01*
X57210000Y-34713800D01*
X57181700Y-34719250D01*
X57131700Y-34739250D01*
X57116186Y-34747656D01*
X57095383Y-34769614D01*
X57045383Y-34849614D01*
X57033800Y-34890000D01*
X57033800Y-34960000D01*
X57039011Y-34987695D01*
X57055379Y-35013132D01*
X57080354Y-35030197D01*
X57110000Y-35036200D01*
X57252799Y-35036200D01*
X57334870Y-35103349D01*
X57446945Y-35249910D01*
X57452788Y-35296649D01*
X57428583Y-35409603D01*
X57170518Y-35791922D01*
X56925073Y-36047185D01*
X56909590Y-36070865D01*
X56789590Y-36360865D01*
X56784388Y-36380549D01*
X56764388Y-36540549D01*
X56763800Y-36550000D01*
X56475926Y-36550000D01*
X56673262Y-34086892D01*
X60767321Y-34086892D01*
X60775799Y-34262362D01*
X61094327Y-34355500D01*
X61424251Y-34319652D01*
X61562561Y-34262362D01*
X61571039Y-34086892D01*
X61169180Y-33685033D01*
X60767321Y-34086892D01*
X56673262Y-34086892D01*
X56725618Y-33433403D01*
X60321936Y-33433403D01*
X60357784Y-33763327D01*
X60415074Y-33901637D01*
X60590544Y-33910115D01*
X60992403Y-33508256D01*
X61345957Y-33508256D01*
X61747816Y-33910115D01*
X61923286Y-33901637D01*
X62016424Y-33583109D01*
X61980576Y-33253185D01*
X61923286Y-33114875D01*
X61747816Y-33106397D01*
X61345957Y-33508256D01*
X60992403Y-33508256D01*
X60590544Y-33106397D01*
X60415074Y-33114875D01*
X60321936Y-33433403D01*
X56725618Y-33433403D01*
X56765979Y-32929620D01*
X60767321Y-32929620D01*
X61169180Y-33331479D01*
X61571039Y-32929620D01*
X61562561Y-32754150D01*
X61244033Y-32661012D01*
X60914109Y-32696860D01*
X60775799Y-32754150D01*
X60767321Y-32929620D01*
X56765979Y-32929620D01*
X57129414Y-28393328D01*
X57219218Y-28374743D01*
X57295386Y-28322221D01*
X59071400Y-26480790D01*
X59071400Y-31280000D01*
X59092607Y-31386616D01*
X59153000Y-31477000D01*
X59243384Y-31537393D01*
X59350000Y-31558600D01*
X64580000Y-31558600D01*
X64604899Y-31553647D01*
X64630280Y-31554025D01*
X65720280Y-31354025D01*
X65732817Y-31349049D01*
X65746262Y-31347959D01*
X65760701Y-31340559D01*
X65776616Y-31337393D01*
X65797724Y-31323289D01*
X65821318Y-31313925D01*
X65830997Y-31304530D01*
X65843000Y-31298378D01*
X66613000Y-30688378D01*
X66614948Y-30686087D01*
X66617597Y-30684657D01*
X66650096Y-30644734D01*
X66683401Y-30605550D01*
X66684324Y-30602687D01*
X66686223Y-30600354D01*
X67136223Y-29750354D01*
X67149084Y-29707344D01*
X67164891Y-29665312D01*
X67222557Y-29315465D01*
X72153548Y-29315465D01*
X72452964Y-29458590D01*
X72784360Y-29476239D01*
X72930080Y-29441925D01*
X72966652Y-29270099D01*
X72634611Y-28808872D01*
X72173384Y-29140914D01*
X72153548Y-29315465D01*
X67222557Y-29315465D01*
X67314822Y-28755729D01*
X71821180Y-28755729D01*
X71855494Y-28901449D01*
X72027320Y-28938021D01*
X72409609Y-28662808D01*
X72837503Y-28662808D01*
X73169545Y-29124035D01*
X73344096Y-29143871D01*
X73487221Y-28844455D01*
X73504870Y-28513059D01*
X73470556Y-28367339D01*
X73298730Y-28330767D01*
X72837503Y-28662808D01*
X72409609Y-28662808D01*
X72488547Y-28605980D01*
X72156505Y-28144753D01*
X71981954Y-28124917D01*
X71838829Y-28424333D01*
X71821180Y-28755729D01*
X67314822Y-28755729D01*
X67314891Y-28755311D01*
X67313356Y-28708787D01*
X67314480Y-28662264D01*
X67199076Y-27998689D01*
X72359398Y-27998689D01*
X72691439Y-28459916D01*
X73152666Y-28127874D01*
X73172502Y-27953323D01*
X72873086Y-27810198D01*
X72541690Y-27792549D01*
X72395970Y-27826863D01*
X72359398Y-27998689D01*
X67199076Y-27998689D01*
X67154480Y-27742264D01*
X67137596Y-27698545D01*
X67123130Y-27653964D01*
X66653130Y-26813963D01*
X66652737Y-26813502D01*
X66652547Y-26812926D01*
X66617470Y-26772178D01*
X66582563Y-26731276D01*
X66582023Y-26731000D01*
X66581628Y-26730542D01*
X65801628Y-26120542D01*
X65791475Y-26115419D01*
X65783385Y-26107425D01*
X65743257Y-26091086D01*
X65704580Y-26071568D01*
X65693239Y-26070720D01*
X65682706Y-26066431D01*
X64592706Y-25856431D01*
X64566098Y-25856591D01*
X64540000Y-25851400D01*
X59350000Y-25851400D01*
X59243384Y-25872607D01*
X59153000Y-25933000D01*
X59092607Y-26023384D01*
X59076559Y-26104064D01*
X56935034Y-24038617D01*
X56862993Y-23991281D01*
X56772236Y-23973305D01*
X56681634Y-23992055D01*
X56605466Y-24044577D01*
X54800530Y-25915995D01*
X54753194Y-25988036D01*
X54735218Y-26078793D01*
X54753968Y-26169395D01*
X54806490Y-26245563D01*
X56460223Y-27840547D01*
X55278244Y-42593712D01*
X55228637Y-42583760D01*
X55137743Y-42601034D01*
X55120009Y-42612842D01*
X55117114Y-42597610D01*
X55065838Y-42520597D01*
X54988640Y-42469602D01*
X54426415Y-42242448D01*
X54427039Y-42229524D01*
X54025180Y-41827665D01*
X53623321Y-42229524D01*
X53631799Y-42404994D01*
X53775680Y-42447065D01*
X53625991Y-42817559D01*
X53609036Y-42902076D01*
X53626310Y-42992970D01*
X53677586Y-43069983D01*
X53754784Y-43120978D01*
X54589250Y-43458124D01*
X54673767Y-43475079D01*
X54764661Y-43457805D01*
X54782395Y-43445997D01*
X54785290Y-43461229D01*
X54836566Y-43538242D01*
X54913764Y-43589237D01*
X55748230Y-43926383D01*
X55832747Y-43943338D01*
X55923641Y-43926064D01*
X55941375Y-43914256D01*
X55944270Y-43929487D01*
X55995546Y-44006500D01*
X56072744Y-44057495D01*
X56907210Y-44394641D01*
X56991727Y-44411596D01*
X57046877Y-44401115D01*
X56849570Y-44889467D01*
X56821888Y-44847890D01*
X56744690Y-44796895D01*
X55910224Y-44459749D01*
X55825707Y-44442794D01*
X55734813Y-44460068D01*
X55717079Y-44471876D01*
X55714184Y-44456644D01*
X55662908Y-44379631D01*
X55585710Y-44328636D01*
X54751244Y-43991490D01*
X54666727Y-43974535D01*
X54575833Y-43991809D01*
X54558099Y-44003616D01*
X54555205Y-43988386D01*
X54503929Y-43911373D01*
X54426731Y-43860378D01*
X53592265Y-43523232D01*
X53507748Y-43506277D01*
X53416854Y-43523551D01*
X53339841Y-43574827D01*
X53288846Y-43652025D01*
X53064082Y-44208335D01*
X53047127Y-44292852D01*
X51608600Y-44292852D01*
X51608600Y-41576035D01*
X53177936Y-41576035D01*
X53213784Y-41905959D01*
X53271074Y-42044269D01*
X53446544Y-42052747D01*
X53848403Y-41650888D01*
X54201957Y-41650888D01*
X54603816Y-42052747D01*
X54779286Y-42044269D01*
X54872424Y-41725741D01*
X54836576Y-41395817D01*
X54779286Y-41257507D01*
X54603816Y-41249029D01*
X54201957Y-41650888D01*
X53848403Y-41650888D01*
X53446544Y-41249029D01*
X53271074Y-41257507D01*
X53177936Y-41576035D01*
X51608600Y-41576035D01*
X51608600Y-41072252D01*
X53623321Y-41072252D01*
X54025180Y-41474111D01*
X54427039Y-41072252D01*
X54418561Y-40896782D01*
X54100033Y-40803644D01*
X53770109Y-40839492D01*
X53631799Y-40896782D01*
X53623321Y-41072252D01*
X51608600Y-41072252D01*
X51608600Y-35723092D01*
X53623321Y-35723092D01*
X53631799Y-35898562D01*
X53950327Y-35991700D01*
X54280251Y-35955852D01*
X54418561Y-35898562D01*
X54427039Y-35723092D01*
X54025180Y-35321233D01*
X53623321Y-35723092D01*
X51608600Y-35723092D01*
X51608600Y-35069603D01*
X53177936Y-35069603D01*
X53213784Y-35399527D01*
X53271074Y-35537837D01*
X53446544Y-35546315D01*
X53848403Y-35144456D01*
X54201957Y-35144456D01*
X54603816Y-35546315D01*
X54779286Y-35537837D01*
X54872424Y-35219309D01*
X54836576Y-34889385D01*
X54779286Y-34751075D01*
X54603816Y-34742597D01*
X54201957Y-35144456D01*
X53848403Y-35144456D01*
X53446544Y-34742597D01*
X53271074Y-34751075D01*
X53177936Y-35069603D01*
X51608600Y-35069603D01*
X51608600Y-34565820D01*
X53623321Y-34565820D01*
X54025180Y-34967679D01*
X54427039Y-34565820D01*
X54418561Y-34390350D01*
X54100033Y-34297212D01*
X53770109Y-34333060D01*
X53631799Y-34390350D01*
X53623321Y-34565820D01*
X51608600Y-34565820D01*
X51608600Y-29216657D01*
X53623321Y-29216657D01*
X53631799Y-29392127D01*
X53950327Y-29485265D01*
X54280251Y-29449417D01*
X54418561Y-29392127D01*
X54427039Y-29216657D01*
X54025180Y-28814798D01*
X53623321Y-29216657D01*
X51608600Y-29216657D01*
X51608600Y-28563168D01*
X53177936Y-28563168D01*
X53213784Y-28893092D01*
X53271074Y-29031402D01*
X53446544Y-29039880D01*
X53848403Y-28638021D01*
X54201957Y-28638021D01*
X54603816Y-29039880D01*
X54779286Y-29031402D01*
X54872424Y-28712874D01*
X54836576Y-28382950D01*
X54779286Y-28244640D01*
X54603816Y-28236162D01*
X54201957Y-28638021D01*
X53848403Y-28638021D01*
X53446544Y-28236162D01*
X53271074Y-28244640D01*
X53177936Y-28563168D01*
X51608600Y-28563168D01*
X51608600Y-28059385D01*
X53623321Y-28059385D01*
X54025180Y-28461244D01*
X54427039Y-28059385D01*
X54418561Y-27883915D01*
X54100033Y-27790777D01*
X53770109Y-27826625D01*
X53631799Y-27883915D01*
X53623321Y-28059385D01*
X51608600Y-28059385D01*
X51608600Y-22349764D01*
X68236578Y-22349764D01*
X68416908Y-22628361D01*
X68690125Y-22816740D01*
X68832271Y-22863714D01*
X68953315Y-22736397D01*
X68911563Y-22169618D01*
X68344784Y-22211370D01*
X68236578Y-22349764D01*
X51608600Y-22349764D01*
X51608600Y-22151251D01*
X69160888Y-22151251D01*
X69202640Y-22718030D01*
X69341034Y-22826236D01*
X69619631Y-22645906D01*
X69808010Y-22372689D01*
X69854984Y-22230543D01*
X69727667Y-22109499D01*
X69160888Y-22151251D01*
X51608600Y-22151251D01*
X51608600Y-21578042D01*
X54899394Y-21578042D01*
X54907872Y-21753512D01*
X55226400Y-21846650D01*
X55556324Y-21810802D01*
X55694634Y-21753512D01*
X55703112Y-21578042D01*
X61451791Y-21578042D01*
X61460269Y-21753512D01*
X61778797Y-21846650D01*
X61830787Y-21841001D01*
X68199100Y-21841001D01*
X68326417Y-21962045D01*
X68893196Y-21920293D01*
X68851444Y-21353514D01*
X68827953Y-21335147D01*
X69100769Y-21335147D01*
X69142521Y-21901926D01*
X69709300Y-21860174D01*
X69817506Y-21721780D01*
X69637176Y-21443183D01*
X69363959Y-21254804D01*
X69221813Y-21207830D01*
X69100769Y-21335147D01*
X68827953Y-21335147D01*
X68713050Y-21245308D01*
X68434453Y-21425638D01*
X68246074Y-21698855D01*
X68199100Y-21841001D01*
X61830787Y-21841001D01*
X62108721Y-21810802D01*
X62247031Y-21753512D01*
X62255509Y-21578042D01*
X61853650Y-21176183D01*
X61451791Y-21578042D01*
X55703112Y-21578042D01*
X55301253Y-21176183D01*
X54899394Y-21578042D01*
X51608600Y-21578042D01*
X51608600Y-20924553D01*
X54454009Y-20924553D01*
X54489857Y-21254477D01*
X54547147Y-21392787D01*
X54722617Y-21401265D01*
X55124476Y-20999406D01*
X55478030Y-20999406D01*
X55879889Y-21401265D01*
X56055359Y-21392787D01*
X56148497Y-21074259D01*
X56132231Y-20924553D01*
X61006406Y-20924553D01*
X61042254Y-21254477D01*
X61099544Y-21392787D01*
X61275014Y-21401265D01*
X61676873Y-20999406D01*
X62030427Y-20999406D01*
X62432286Y-21401265D01*
X62607756Y-21392787D01*
X62700894Y-21074259D01*
X62665046Y-20744335D01*
X62607756Y-20606025D01*
X62432286Y-20597547D01*
X62030427Y-20999406D01*
X61676873Y-20999406D01*
X61275014Y-20597547D01*
X61099544Y-20606025D01*
X61006406Y-20924553D01*
X56132231Y-20924553D01*
X56112649Y-20744335D01*
X56055359Y-20606025D01*
X55879889Y-20597547D01*
X55478030Y-20999406D01*
X55124476Y-20999406D01*
X54722617Y-20597547D01*
X54547147Y-20606025D01*
X54454009Y-20924553D01*
X51608600Y-20924553D01*
X51608600Y-20420770D01*
X54899394Y-20420770D01*
X55301253Y-20822629D01*
X55703112Y-20420770D01*
X61451791Y-20420770D01*
X61853650Y-20822629D01*
X62255509Y-20420770D01*
X62247031Y-20245300D01*
X61928503Y-20152162D01*
X61598579Y-20188010D01*
X61460269Y-20245300D01*
X61451791Y-20420770D01*
X55703112Y-20420770D01*
X55694634Y-20245300D01*
X55376106Y-20152162D01*
X55046182Y-20188010D01*
X54907872Y-20245300D01*
X54899394Y-20420770D01*
X51608600Y-20420770D01*
X51608600Y-18998600D01*
X65166987Y-18998600D01*
X67155999Y-19184764D01*
X67155999Y-19184764D01*
G37*
X67155999Y-19184764D02*
X69014044Y-19748987D01*
X70706187Y-20633958D01*
X72143984Y-21799740D01*
X73338743Y-23217910D01*
X74242200Y-24879105D01*
X74815543Y-26715745D01*
X75009849Y-28687949D01*
X74846400Y-30130148D01*
X74353749Y-31627418D01*
X73584127Y-33003117D01*
X72538555Y-34097548D01*
X72526526Y-34116471D01*
X72510461Y-34132109D01*
X72497646Y-34161905D01*
X72480240Y-34189287D01*
X72476369Y-34211375D01*
X72467511Y-34231969D01*
X72467074Y-34264406D01*
X72461473Y-34296359D01*
X72466347Y-34318242D01*
X72466045Y-34340663D01*
X72478054Y-34370798D01*
X72485107Y-34402463D01*
X72497986Y-34420817D01*
X72506286Y-34441644D01*
X72528914Y-34464890D01*
X72547548Y-34491445D01*
X72566471Y-34503474D01*
X72582109Y-34519539D01*
X74277894Y-35686004D01*
X75435773Y-37140530D01*
X76117308Y-38887562D01*
X76350167Y-40925078D01*
X76194101Y-42934424D01*
X75716882Y-44804344D01*
X75608836Y-45029441D01*
X75606911Y-45036942D01*
X75602607Y-45043384D01*
X75593465Y-45089345D01*
X75581818Y-45134735D01*
X75582911Y-45142405D01*
X75581400Y-45150000D01*
X75590541Y-45195957D01*
X75597152Y-45242352D01*
X75601096Y-45249018D01*
X75602607Y-45256616D01*
X75628639Y-45295576D01*
X75652501Y-45335910D01*
X75658697Y-45340561D01*
X75663000Y-45347000D01*
X75701963Y-45373035D01*
X75739441Y-45401164D01*
X75746942Y-45403089D01*
X75753384Y-45407393D01*
X75799345Y-45416535D01*
X75844735Y-45428182D01*
X75852405Y-45427089D01*
X75860000Y-45428600D01*
X76493196Y-45428600D01*
X76432140Y-45576002D01*
X76432140Y-45868357D01*
X76578190Y-46014407D01*
X77148420Y-46014407D01*
X77116928Y-46130540D01*
X77147722Y-46370007D01*
X76578190Y-46370007D01*
X76432140Y-46516057D01*
X76432140Y-46808412D01*
X76521079Y-47023130D01*
X76685418Y-47187468D01*
X76900136Y-47276407D01*
X78692490Y-47276407D01*
X78838540Y-47130357D01*
X78838540Y-46538605D01*
X78915752Y-46253874D01*
X78882386Y-45994407D01*
X79194140Y-45994407D01*
X79194140Y-46014407D01*
X79214140Y-46014407D01*
X79214140Y-46370007D01*
X79194140Y-46370007D01*
X79194140Y-47130357D01*
X79340190Y-47276407D01*
X81051400Y-47276407D01*
X81051400Y-47466229D01*
X81016340Y-47459129D01*
X77016340Y-47459129D01*
X76931626Y-47475069D01*
X76853822Y-47525135D01*
X76801625Y-47601527D01*
X76783262Y-47692207D01*
X76783262Y-48692207D01*
X76799202Y-48776921D01*
X76849268Y-48854725D01*
X76925660Y-48906922D01*
X77016340Y-48925285D01*
X81016340Y-48925285D01*
X81051400Y-48918688D01*
X81051400Y-49108007D01*
X79340190Y-49108007D01*
X79194140Y-49254057D01*
X79194140Y-50014407D01*
X79214140Y-50014407D01*
X79214140Y-50370007D01*
X79194140Y-50370007D01*
X79194140Y-50390007D01*
X78878836Y-50390007D01*
X78915752Y-50253874D01*
X78870887Y-49904990D01*
X78838540Y-49826897D01*
X78838540Y-49254057D01*
X78692490Y-49108007D01*
X76900136Y-49108007D01*
X76685418Y-49196946D01*
X76521079Y-49361284D01*
X76432140Y-49576002D01*
X76432140Y-49868357D01*
X76578190Y-50014407D01*
X77148420Y-50014407D01*
X77116928Y-50130540D01*
X77147722Y-50370007D01*
X76578190Y-50370007D01*
X76432140Y-50516057D01*
X76432140Y-50808412D01*
X76458230Y-50871400D01*
X66540000Y-50871400D01*
X66489726Y-50881400D01*
X51574807Y-50881400D01*
X51605040Y-50808412D01*
X51605040Y-50622765D01*
X59495375Y-50622765D01*
X59576079Y-50812891D01*
X59735884Y-50877456D01*
X59968284Y-50875428D01*
X60182218Y-50784618D01*
X60345115Y-50618852D01*
X60432177Y-50403366D01*
X60641936Y-49884194D01*
X60561232Y-49694068D01*
X59967510Y-49454188D01*
X59495375Y-50622765D01*
X51605040Y-50622765D01*
X51605040Y-50516057D01*
X51458990Y-50370007D01*
X50888760Y-50370007D01*
X50920252Y-50253874D01*
X50906511Y-50147014D01*
X58317851Y-50147014D01*
X58398555Y-50337140D01*
X58558360Y-50401705D01*
X58708584Y-50400394D01*
X58815737Y-50505693D01*
X58975542Y-50570258D01*
X59165668Y-50489554D01*
X59637804Y-49320978D01*
X59243831Y-49161803D01*
X59151459Y-49124482D01*
X60100720Y-49124482D01*
X60694443Y-49364361D01*
X60884569Y-49283657D01*
X61094328Y-48764485D01*
X61181390Y-48548999D01*
X61179362Y-48316599D01*
X61088553Y-48102665D01*
X60922787Y-47939767D01*
X60762982Y-47875202D01*
X60572856Y-47955906D01*
X60100720Y-49124482D01*
X59151459Y-49124482D01*
X58789986Y-48978437D01*
X58317851Y-50147014D01*
X50906511Y-50147014D01*
X50889458Y-50014407D01*
X51458990Y-50014407D01*
X51605040Y-49868357D01*
X51605040Y-49671264D01*
X57140328Y-49671264D01*
X57221032Y-49861390D01*
X57380837Y-49925955D01*
X57531061Y-49924644D01*
X57638213Y-50029942D01*
X57798018Y-50094507D01*
X57988144Y-50013803D01*
X58460280Y-48845227D01*
X57866557Y-48605348D01*
X57612463Y-48502687D01*
X57140328Y-49671264D01*
X51605040Y-49671264D01*
X51605040Y-49576002D01*
X51516101Y-49361284D01*
X51351762Y-49196946D01*
X51348305Y-49195514D01*
X55962804Y-49195514D01*
X56043508Y-49385640D01*
X56203313Y-49450205D01*
X56353538Y-49448894D01*
X56460690Y-49554192D01*
X56620495Y-49618757D01*
X56810621Y-49538053D01*
X57282757Y-48369477D01*
X56689034Y-48129598D01*
X56434939Y-48026937D01*
X55962804Y-49195514D01*
X51348305Y-49195514D01*
X51137044Y-49108007D01*
X49344690Y-49108007D01*
X49198640Y-49254057D01*
X49198640Y-49845809D01*
X49121428Y-50130540D01*
X49154794Y-50390007D01*
X48843040Y-50390007D01*
X48843040Y-50370007D01*
X48823040Y-50370007D01*
X48823040Y-50014407D01*
X48843040Y-50014407D01*
X48843040Y-49254057D01*
X48696990Y-49108007D01*
X46908600Y-49108007D01*
X46908600Y-48892191D01*
X46930160Y-48906922D01*
X47020840Y-48925285D01*
X51020840Y-48925285D01*
X51105554Y-48909345D01*
X51183358Y-48859279D01*
X51235555Y-48782887D01*
X51245058Y-48735959D01*
X53623321Y-48735959D01*
X53631799Y-48911429D01*
X53950327Y-49004567D01*
X54280251Y-48968719D01*
X54418561Y-48911429D01*
X54427039Y-48735959D01*
X54025180Y-48334100D01*
X53623321Y-48735959D01*
X51245058Y-48735959D01*
X51253918Y-48692207D01*
X51253918Y-48082470D01*
X53177936Y-48082470D01*
X53213784Y-48412394D01*
X53271074Y-48550704D01*
X53446544Y-48559182D01*
X53848403Y-48157323D01*
X54201957Y-48157323D01*
X54603816Y-48559182D01*
X54779286Y-48550704D01*
X54803114Y-48469210D01*
X55024563Y-48469210D01*
X55026591Y-48701610D01*
X55117400Y-48915544D01*
X55283166Y-49078442D01*
X55442971Y-49143007D01*
X55633097Y-49062303D01*
X56105233Y-47893727D01*
X55511510Y-47653848D01*
X55321384Y-47734552D01*
X55111625Y-48253724D01*
X55024563Y-48469210D01*
X54803114Y-48469210D01*
X54872424Y-48232176D01*
X54836576Y-47902252D01*
X54779286Y-47763942D01*
X54603816Y-47755464D01*
X54201957Y-48157323D01*
X53848403Y-48157323D01*
X53446544Y-47755464D01*
X53271074Y-47763942D01*
X53177936Y-48082470D01*
X51253918Y-48082470D01*
X51253918Y-47692207D01*
X51237978Y-47607493D01*
X51219442Y-47578687D01*
X53623321Y-47578687D01*
X54025180Y-47980546D01*
X54427039Y-47578687D01*
X54418561Y-47403217D01*
X54100033Y-47310079D01*
X53770109Y-47345927D01*
X53631799Y-47403217D01*
X53623321Y-47578687D01*
X51219442Y-47578687D01*
X51187912Y-47529689D01*
X51111520Y-47477492D01*
X51020840Y-47459129D01*
X47020840Y-47459129D01*
X46936126Y-47475069D01*
X46908600Y-47492782D01*
X46908600Y-47276407D01*
X48696990Y-47276407D01*
X48843040Y-47130357D01*
X48843040Y-46370007D01*
X48823040Y-46370007D01*
X48823040Y-46014407D01*
X48843040Y-46014407D01*
X48843040Y-45994407D01*
X49158344Y-45994407D01*
X49121428Y-46130540D01*
X49166293Y-46479424D01*
X49198640Y-46557517D01*
X49198640Y-47130357D01*
X49344690Y-47276407D01*
X51137044Y-47276407D01*
X51351762Y-47187468D01*
X51516101Y-47023130D01*
X51605040Y-46808412D01*
X51605040Y-46516057D01*
X51458990Y-46370007D01*
X50888760Y-46370007D01*
X50920252Y-46253874D01*
X50889458Y-46014407D01*
X51458990Y-46014407D01*
X51605040Y-45868357D01*
X51605040Y-45576002D01*
X51516101Y-45361284D01*
X51511904Y-45357087D01*
X51527000Y-45347000D01*
X51587393Y-45256616D01*
X51608600Y-45150000D01*
X51608600Y-44292852D01*
X53047127Y-44292852D01*
X53064401Y-44383746D01*
X53115677Y-44460759D01*
X53192875Y-44511754D01*
X53301284Y-44555554D01*
X53145103Y-44942117D01*
X53145102Y-44942118D01*
X53070181Y-45127555D01*
X53053226Y-45212071D01*
X53070500Y-45302965D01*
X53121776Y-45379978D01*
X53198974Y-45430973D01*
X55823646Y-46491410D01*
X55773776Y-46614843D01*
X55564017Y-47134015D01*
X55644721Y-47324141D01*
X56238443Y-47564021D01*
X56245935Y-47545477D01*
X56575641Y-47678687D01*
X56568149Y-47697231D01*
X57161872Y-47937110D01*
X57415967Y-48039771D01*
X57423459Y-48021227D01*
X57753165Y-48154437D01*
X57745673Y-48172981D01*
X58339396Y-48412860D01*
X58593490Y-48515521D01*
X58600982Y-48496977D01*
X58930688Y-48630187D01*
X58923196Y-48648731D01*
X59177292Y-48751392D01*
X59771014Y-48991272D01*
X60243149Y-47822695D01*
X60162445Y-47632569D01*
X60002640Y-47568004D01*
X59852416Y-47569315D01*
X59745263Y-47464016D01*
X59654281Y-47427257D01*
X59798926Y-47069249D01*
X59865406Y-47082586D01*
X59956300Y-47065312D01*
X59992027Y-47041524D01*
X60117277Y-47041524D01*
X60134551Y-47132418D01*
X60185827Y-47209431D01*
X60263025Y-47260426D01*
X60949141Y-47537635D01*
X61033658Y-47554590D01*
X61124552Y-47537316D01*
X61201564Y-47486040D01*
X61252560Y-47408842D01*
X61521792Y-46742468D01*
X64113791Y-46742468D01*
X64122269Y-46917938D01*
X64440797Y-47011076D01*
X64770721Y-46975228D01*
X64909031Y-46917938D01*
X64917509Y-46742468D01*
X64515650Y-46340609D01*
X64113791Y-46742468D01*
X61521792Y-46742468D01*
X61785820Y-46088979D01*
X63668406Y-46088979D01*
X63704254Y-46418903D01*
X63761544Y-46557213D01*
X63937014Y-46565691D01*
X64338873Y-46163832D01*
X64692427Y-46163832D01*
X65094286Y-46565691D01*
X65269756Y-46557213D01*
X65362894Y-46238685D01*
X65327046Y-45908761D01*
X65269756Y-45770451D01*
X65094286Y-45761973D01*
X64692427Y-46163832D01*
X64338873Y-46163832D01*
X63937014Y-45761973D01*
X63761544Y-45770451D01*
X63668406Y-46088979D01*
X61785820Y-46088979D01*
X61989361Y-45585196D01*
X64113791Y-45585196D01*
X64515650Y-45987055D01*
X64917509Y-45585196D01*
X64909031Y-45409726D01*
X64590503Y-45316588D01*
X64260579Y-45352436D01*
X64122269Y-45409726D01*
X64113791Y-45585196D01*
X61989361Y-45585196D01*
X62001774Y-45554475D01*
X62018729Y-45469958D01*
X62001455Y-45379064D01*
X61950179Y-45302051D01*
X61872981Y-45251056D01*
X61186865Y-44973847D01*
X61102348Y-44956892D01*
X61011454Y-44974166D01*
X60934442Y-45025442D01*
X60883446Y-45102640D01*
X60134232Y-46957007D01*
X60117277Y-47041524D01*
X59992027Y-47041524D01*
X60033313Y-47014036D01*
X60084308Y-46936838D01*
X60833521Y-45082471D01*
X60850476Y-44997954D01*
X60833202Y-44907060D01*
X60781926Y-44830047D01*
X60704728Y-44779052D01*
X60120604Y-44543050D01*
X69215383Y-44543050D01*
X69360210Y-44841647D01*
X69608282Y-45062090D01*
X69743599Y-45126131D01*
X69864330Y-45026934D01*
X70129030Y-45026934D01*
X70253120Y-45151285D01*
X70551717Y-45006458D01*
X70772160Y-44758386D01*
X70836201Y-44623069D01*
X70724677Y-44487334D01*
X70157053Y-44459311D01*
X70129030Y-45026934D01*
X69864330Y-45026934D01*
X69879334Y-45014607D01*
X69907357Y-44446983D01*
X69339734Y-44418960D01*
X69215383Y-44543050D01*
X60120604Y-44543050D01*
X60000069Y-44494351D01*
X59915552Y-44477396D01*
X59824658Y-44494670D01*
X59747645Y-44545946D01*
X59696650Y-44623144D01*
X58947437Y-46477511D01*
X58930482Y-46562028D01*
X58947756Y-46652922D01*
X58999032Y-46729935D01*
X59076230Y-46780930D01*
X59180003Y-46822857D01*
X59073673Y-47086033D01*
X58436446Y-46828577D01*
X58445963Y-46814170D01*
X58520884Y-46628733D01*
X58545953Y-46566685D01*
X58603366Y-46589881D01*
X58687883Y-46606836D01*
X58778777Y-46589562D01*
X58855790Y-46538286D01*
X58906785Y-46461088D01*
X59655998Y-44606721D01*
X59672953Y-44522204D01*
X59655679Y-44431310D01*
X59604403Y-44354297D01*
X59527205Y-44303302D01*
X59295322Y-44209615D01*
X70169381Y-44209615D01*
X70737004Y-44237638D01*
X70861355Y-44113548D01*
X70716528Y-43814951D01*
X70468456Y-43594508D01*
X70333139Y-43530467D01*
X70197404Y-43641991D01*
X70169381Y-44209615D01*
X59295322Y-44209615D01*
X58822546Y-44018601D01*
X58738029Y-44001646D01*
X58647135Y-44018920D01*
X58570122Y-44070196D01*
X58519127Y-44147394D01*
X57769914Y-46001761D01*
X57756520Y-46068528D01*
X57691627Y-46042309D01*
X57729261Y-45985337D01*
X58478474Y-44130970D01*
X58495429Y-44046453D01*
X58478155Y-43955559D01*
X58426879Y-43878546D01*
X58349681Y-43827551D01*
X57645022Y-43542850D01*
X57560505Y-43525895D01*
X57469611Y-43543169D01*
X57440479Y-43562566D01*
X57435074Y-43534127D01*
X57383798Y-43457114D01*
X57306600Y-43406119D01*
X56472134Y-43068973D01*
X56387617Y-43052018D01*
X56296723Y-43069292D01*
X56278989Y-43081100D01*
X56276094Y-43065869D01*
X56224818Y-42988856D01*
X56147620Y-42937861D01*
X55969903Y-42866059D01*
X56322902Y-38460000D01*
X59071400Y-38460000D01*
X59071400Y-43790000D01*
X59092607Y-43896616D01*
X59153000Y-43987000D01*
X59243384Y-44047393D01*
X59350000Y-44068600D01*
X65970000Y-44068600D01*
X65995868Y-44063455D01*
X66022244Y-44063658D01*
X66180062Y-44033529D01*
X69240537Y-44033529D01*
X69352061Y-44169264D01*
X69919685Y-44197287D01*
X69947708Y-43629664D01*
X69823618Y-43505313D01*
X69525021Y-43650140D01*
X69304578Y-43898212D01*
X69240537Y-44033529D01*
X66180062Y-44033529D01*
X67122244Y-43853658D01*
X67134029Y-43848882D01*
X67146700Y-43847834D01*
X67160924Y-43840514D01*
X67176616Y-43837393D01*
X67198546Y-43822740D01*
X67222992Y-43812834D01*
X67232052Y-43803912D01*
X67243357Y-43798095D01*
X68023357Y-43178095D01*
X68025631Y-43175411D01*
X68028718Y-43173724D01*
X68060688Y-43134029D01*
X68093622Y-43095152D01*
X68094695Y-43091803D01*
X68096902Y-43089063D01*
X68556902Y-42209063D01*
X68570051Y-42164236D01*
X68585684Y-42120204D01*
X68706070Y-41294695D01*
X69791324Y-41294695D01*
X69810074Y-41385297D01*
X69862596Y-41461465D01*
X72021924Y-43544083D01*
X72093965Y-43591419D01*
X72184722Y-43609395D01*
X72275324Y-43590645D01*
X72351492Y-43538123D01*
X73289122Y-42565956D01*
X73315236Y-42629156D01*
X73449751Y-42763905D01*
X73625593Y-42836921D01*
X73815992Y-42837088D01*
X73991961Y-42764379D01*
X74126710Y-42629864D01*
X74199726Y-42454022D01*
X74199893Y-42263623D01*
X74127184Y-42087654D01*
X73992669Y-41952905D01*
X73912501Y-41919616D01*
X74850634Y-40946929D01*
X74897970Y-40874888D01*
X74915946Y-40784131D01*
X74897196Y-40693529D01*
X74844674Y-40617361D01*
X72685346Y-38534743D01*
X72613305Y-38487407D01*
X72522548Y-38469431D01*
X72431946Y-38488181D01*
X72355778Y-38540703D01*
X71703952Y-39216538D01*
X71697883Y-38951147D01*
X71577323Y-38677930D01*
X71593788Y-38661465D01*
X71478723Y-38546400D01*
X71467460Y-38533029D01*
X71465794Y-38533471D01*
X71342338Y-38410015D01*
X70881835Y-38870518D01*
X71055902Y-39044585D01*
X71036188Y-39082631D01*
X71540787Y-39344090D01*
X71603338Y-39320858D01*
X71456323Y-39473288D01*
X71133285Y-39150250D01*
X70959218Y-39324317D01*
X70921172Y-39304603D01*
X70659713Y-39809202D01*
X70720877Y-39973885D01*
X70979207Y-39967978D01*
X69856636Y-41131897D01*
X69809300Y-41203938D01*
X69791324Y-41294695D01*
X68706070Y-41294695D01*
X68725684Y-41160204D01*
X68723383Y-41115596D01*
X68724244Y-41070925D01*
X68554244Y-40120925D01*
X68537927Y-40079280D01*
X68524582Y-40036592D01*
X68044582Y-39156592D01*
X68043931Y-39155812D01*
X68043622Y-39154848D01*
X68009155Y-39114162D01*
X67974911Y-39073149D01*
X67974012Y-39072678D01*
X67973357Y-39071905D01*
X67869425Y-38989292D01*
X70029918Y-38989292D01*
X70037505Y-39321071D01*
X70158065Y-39594288D01*
X70141600Y-39610753D01*
X70256665Y-39725818D01*
X70267928Y-39739189D01*
X70269594Y-39738747D01*
X70393050Y-39862203D01*
X70853553Y-39401700D01*
X70679486Y-39227633D01*
X70699200Y-39189587D01*
X70194601Y-38928128D01*
X70029918Y-38989292D01*
X67869425Y-38989292D01*
X67456998Y-38661465D01*
X70141600Y-38661465D01*
X70602103Y-39121968D01*
X70776170Y-38947901D01*
X70814216Y-38967615D01*
X71075675Y-38463016D01*
X71014511Y-38298333D01*
X70682732Y-38305920D01*
X70409515Y-38426480D01*
X70393050Y-38410015D01*
X70277985Y-38525080D01*
X70264614Y-38536343D01*
X70265056Y-38538009D01*
X70141600Y-38661465D01*
X67456998Y-38661465D01*
X67193357Y-38451905D01*
X67182262Y-38446195D01*
X67173385Y-38437425D01*
X67134261Y-38421495D01*
X67096700Y-38402166D01*
X67084264Y-38401137D01*
X67072706Y-38396431D01*
X65982706Y-38186431D01*
X65956098Y-38186591D01*
X65930000Y-38181400D01*
X59350000Y-38181400D01*
X59243384Y-38202607D01*
X59153000Y-38263000D01*
X59092607Y-38353384D01*
X59071400Y-38460000D01*
X56322902Y-38460000D01*
X56475926Y-36550000D01*
X56763800Y-36550000D01*
X56763800Y-36720000D01*
X56763994Y-36725429D01*
X56773994Y-36865429D01*
X56775904Y-36877783D01*
X56835904Y-37127783D01*
X56844397Y-37148765D01*
X56974397Y-37368765D01*
X56989025Y-37386639D01*
X57189025Y-37566639D01*
X57201605Y-37575820D01*
X57321605Y-37645820D01*
X57360000Y-37656200D01*
X57500000Y-37656200D01*
X57512527Y-37655163D01*
X57572527Y-37645163D01*
X57603430Y-37632612D01*
X57624368Y-37610783D01*
X57635163Y-37582527D01*
X57645163Y-37522527D01*
X57646200Y-37510000D01*
X57646200Y-37440000D01*
X57644478Y-37423893D01*
X57632344Y-37396186D01*
X57610386Y-37375383D01*
X57381238Y-37232166D01*
X57186725Y-36991339D01*
X57126200Y-36835705D01*
X57126200Y-36624221D01*
X57143833Y-36465524D01*
X57441775Y-35984972D01*
X57718103Y-35659300D01*
X57734174Y-35627453D01*
X57774174Y-35457453D01*
X57776200Y-35440000D01*
X57776200Y-35230000D01*
X57771922Y-35204827D01*
X57711405Y-35031920D01*
X58023824Y-35031920D01*
X58053812Y-36221435D01*
X58063800Y-36990528D01*
X58063800Y-37090000D01*
X58064837Y-37102527D01*
X58074837Y-37162527D01*
X58087388Y-37193430D01*
X58109217Y-37214368D01*
X58137473Y-37225163D01*
X58197473Y-37235163D01*
X58210000Y-37236200D01*
X58280000Y-37236200D01*
X58294944Y-37234720D01*
X58344944Y-37224720D01*
X58363133Y-37218620D01*
X58387219Y-37200323D01*
X58402290Y-37174097D01*
X58422290Y-37114097D01*
X58426105Y-37086195D01*
X58396159Y-36487267D01*
X58388100Y-36116556D01*
X58540549Y-36135612D01*
X58550000Y-36136200D01*
X58687041Y-36136200D01*
X58703872Y-36523310D01*
X58704536Y-36530565D01*
X58774536Y-37030565D01*
X58782999Y-37056295D01*
X58802398Y-37079502D01*
X58852398Y-37119502D01*
X58870354Y-37130197D01*
X58900000Y-37136200D01*
X58970000Y-37136200D01*
X58998300Y-37130750D01*
X59048300Y-37110750D01*
X59066775Y-37100154D01*
X59086493Y-37077217D01*
X59095734Y-37048415D01*
X59105734Y-36958415D01*
X59105998Y-36944453D01*
X59005998Y-35574453D01*
X59005669Y-35571022D01*
X58978269Y-35340071D01*
X59094468Y-35340071D01*
X59114468Y-35490071D01*
X59118388Y-35506041D01*
X59134161Y-35531850D01*
X59394161Y-35811850D01*
X59415922Y-35828155D01*
X59617247Y-35928817D01*
X59644013Y-36285699D01*
X59650368Y-36310948D01*
X59679952Y-36377512D01*
X59645826Y-36522547D01*
X59643800Y-36540000D01*
X59643800Y-37370000D01*
X59649250Y-37398300D01*
X59669250Y-37448300D01*
X59697163Y-37483019D01*
X59725056Y-37494720D01*
X59775056Y-37504720D01*
X59790000Y-37506200D01*
X59900000Y-37506200D01*
X59924586Y-37502125D01*
X59950709Y-37486877D01*
X59968843Y-37462667D01*
X59976128Y-37433310D01*
X60006017Y-36745871D01*
X60035734Y-36478415D01*
X60030039Y-36439983D01*
X60016832Y-36409166D01*
X60021816Y-36404556D01*
X60034280Y-36376996D01*
X60035041Y-36346758D01*
X60006200Y-36183326D01*
X60006200Y-35680000D01*
X60005163Y-35667473D01*
X59996200Y-35613695D01*
X59996200Y-35570000D01*
X59990989Y-35542305D01*
X59974621Y-35516868D01*
X59959108Y-35506268D01*
X59970563Y-35496245D01*
X59983783Y-35469039D01*
X59985377Y-35438833D01*
X59945377Y-35168833D01*
X59935341Y-35140795D01*
X59785341Y-34890795D01*
X59772059Y-34878824D01*
X60113809Y-34878824D01*
X60119354Y-34908559D01*
X60308146Y-35375570D01*
X60514298Y-36043111D01*
X60523845Y-36262684D01*
X60543829Y-36982116D01*
X60544732Y-36991884D01*
X60604732Y-37371884D01*
X60609011Y-37387695D01*
X60625379Y-37413132D01*
X60650354Y-37430197D01*
X60680000Y-37436200D01*
X60780000Y-37436200D01*
X60810017Y-37430039D01*
X60880017Y-37400039D01*
X60907998Y-37379423D01*
X60922657Y-37352964D01*
X60925867Y-37322887D01*
X60903949Y-37089087D01*
X61184344Y-37089087D01*
X61193840Y-37117806D01*
X61233840Y-37187806D01*
X61264643Y-37217500D01*
X61474643Y-37327500D01*
X61488759Y-37333180D01*
X61518903Y-37335678D01*
X61688903Y-37315678D01*
X61708673Y-37310599D01*
X61733882Y-37293882D01*
X61923882Y-37103882D01*
X61938335Y-37083717D01*
X61946069Y-37054475D01*
X61956055Y-36884718D01*
X61986023Y-36445183D01*
X61986200Y-36440000D01*
X61986200Y-36144073D01*
X62274031Y-36144073D01*
X62277710Y-36174097D01*
X62345756Y-36378235D01*
X62444772Y-36992134D01*
X62451845Y-37014078D01*
X62551845Y-37214078D01*
X62572650Y-37239703D01*
X62862650Y-37469703D01*
X62876885Y-37478628D01*
X62906195Y-37486105D01*
X63106195Y-37496105D01*
X63116899Y-37495887D01*
X63226899Y-37485887D01*
X63265202Y-37471345D01*
X63455202Y-37331345D01*
X63478622Y-37303128D01*
X63618622Y-37013128D01*
X63623714Y-36999306D01*
X63733714Y-36579306D01*
X63735766Y-36568118D01*
X63765766Y-36288118D01*
X63766200Y-36280000D01*
X63766200Y-36250000D01*
X63765707Y-36241348D01*
X63725707Y-35891348D01*
X63724083Y-35882165D01*
X63594083Y-35342165D01*
X63586611Y-35322994D01*
X63394648Y-34977459D01*
X64904166Y-34977459D01*
X65024166Y-36197459D01*
X65024538Y-36200579D01*
X65174538Y-37270579D01*
X65175826Y-37277453D01*
X65255826Y-37617453D01*
X65272091Y-37649528D01*
X65295922Y-37668155D01*
X65335922Y-37688155D01*
X65348104Y-37692986D01*
X65448104Y-37722986D01*
X65451519Y-37723925D01*
X65491519Y-37733925D01*
X65520545Y-37735467D01*
X65549075Y-37725418D01*
X65571448Y-37705062D01*
X65663783Y-37579151D01*
X65698239Y-37675629D01*
X65706020Y-37691388D01*
X65727163Y-37713019D01*
X65755056Y-37724720D01*
X65805056Y-37734720D01*
X65820000Y-37736200D01*
X65890000Y-37736200D01*
X65904944Y-37734720D01*
X65954944Y-37724720D01*
X65987987Y-37709192D01*
X66007235Y-37685859D01*
X66087235Y-37535859D01*
X66094461Y-37516187D01*
X66194461Y-37056187D01*
X66195976Y-37045844D01*
X66235976Y-36525844D01*
X66236197Y-36519332D01*
X66226817Y-35450000D01*
X66633800Y-35450000D01*
X66633800Y-36000000D01*
X66633849Y-36002720D01*
X66643849Y-36282720D01*
X66644228Y-36288061D01*
X66694228Y-36758061D01*
X66697126Y-36772267D01*
X66807126Y-37132267D01*
X66816174Y-37151626D01*
X66966174Y-37381626D01*
X66986302Y-37402425D01*
X67086302Y-37472425D01*
X67100354Y-37480197D01*
X67130000Y-37486200D01*
X67230000Y-37486200D01*
X67239451Y-37485612D01*
X67319451Y-37475612D01*
X67356460Y-37460398D01*
X67486460Y-37360398D01*
X67505341Y-37339205D01*
X67565341Y-37239205D01*
X67576171Y-37202105D01*
X67570989Y-37172305D01*
X67559055Y-37153759D01*
X67588298Y-37145876D01*
X67610910Y-37125786D01*
X67623925Y-37098481D01*
X67631273Y-37069087D01*
X67904344Y-37069087D01*
X67913840Y-37097806D01*
X67953840Y-37167806D01*
X67983278Y-37196768D01*
X68183278Y-37306768D01*
X68198759Y-37313180D01*
X68228903Y-37315678D01*
X68398903Y-37295678D01*
X68418673Y-37290599D01*
X68443882Y-37273882D01*
X68633882Y-37083882D01*
X68646252Y-37067645D01*
X68655678Y-37038903D01*
X68675678Y-36868903D01*
X68676121Y-36863460D01*
X68696121Y-36423460D01*
X68696184Y-36421555D01*
X68704917Y-35993620D01*
X68900592Y-35993620D01*
X68966242Y-36156567D01*
X68988166Y-36155464D01*
X69055948Y-36358810D01*
X69164972Y-36973311D01*
X69170512Y-36991270D01*
X69260512Y-37191270D01*
X69283638Y-37220473D01*
X69583638Y-37450473D01*
X69596705Y-37458541D01*
X69625995Y-37466095D01*
X69815995Y-37476095D01*
X69826899Y-37475887D01*
X69936899Y-37465887D01*
X69975202Y-37451345D01*
X70165202Y-37311345D01*
X70187682Y-37285008D01*
X70337682Y-36995008D01*
X70344128Y-36977649D01*
X70444128Y-36557649D01*
X70445766Y-36548118D01*
X70475766Y-36268118D01*
X70476200Y-36260000D01*
X70476200Y-36230000D01*
X70475922Y-36223492D01*
X70445922Y-35873492D01*
X70443761Y-35860877D01*
X70303761Y-35320877D01*
X70296611Y-35302994D01*
X70096611Y-34942994D01*
X70073374Y-34917349D01*
X69813374Y-34737349D01*
X69779451Y-34724388D01*
X69688772Y-34713053D01*
X69685801Y-34710082D01*
X69673095Y-34695810D01*
X69671885Y-34696166D01*
X69564710Y-34588991D01*
X69104207Y-35049494D01*
X69274868Y-35220155D01*
X69257032Y-35257013D01*
X69768601Y-35504559D01*
X69931548Y-35438909D01*
X69927242Y-35353293D01*
X70074203Y-35803359D01*
X70083800Y-36091279D01*
X70083800Y-36225889D01*
X70044804Y-36586604D01*
X69959118Y-36929347D01*
X69885529Y-37043819D01*
X69868893Y-37053800D01*
X69709640Y-37053800D01*
X69625599Y-36976763D01*
X69495281Y-36604425D01*
X69476200Y-36337287D01*
X69476200Y-36301564D01*
X69593882Y-36183882D01*
X69610197Y-36159646D01*
X69616200Y-36130000D01*
X69616200Y-36090000D01*
X69610750Y-36061700D01*
X69590750Y-36011700D01*
X69586084Y-36003088D01*
X69597527Y-35997659D01*
X69709341Y-35898114D01*
X69659707Y-35729597D01*
X69148138Y-35482051D01*
X68900592Y-35993620D01*
X68704917Y-35993620D01*
X68705791Y-35950810D01*
X69075925Y-35580676D01*
X68905264Y-35410015D01*
X68923100Y-35373157D01*
X68698185Y-35264322D01*
X68696194Y-35099082D01*
X68695163Y-35087473D01*
X68685163Y-35027473D01*
X68673980Y-34998612D01*
X68652837Y-34976981D01*
X68624944Y-34965280D01*
X68574944Y-34955280D01*
X68560000Y-34953800D01*
X68520000Y-34953800D01*
X68491700Y-34959250D01*
X68441700Y-34979250D01*
X68426243Y-34987616D01*
X68405420Y-35009555D01*
X68394772Y-35037866D01*
X68378471Y-35138930D01*
X68248584Y-35191261D01*
X68265252Y-35522708D01*
X68343800Y-35688285D01*
X68343800Y-36646645D01*
X68320228Y-36913800D01*
X68294554Y-36913800D01*
X68049079Y-36884343D01*
X68022542Y-36885827D01*
X67995060Y-36898463D01*
X67974659Y-36920795D01*
X67914659Y-37020795D01*
X67906769Y-37038937D01*
X67904344Y-37069087D01*
X67631273Y-37069087D01*
X67703925Y-36778481D01*
X67705806Y-36767735D01*
X67755806Y-36277735D01*
X67756131Y-36266760D01*
X67736131Y-35796760D01*
X67733652Y-35780460D01*
X67603652Y-35290460D01*
X67593402Y-35267732D01*
X67453402Y-35057732D01*
X67436782Y-35039851D01*
X67346782Y-34969851D01*
X67329646Y-34959803D01*
X67300000Y-34953800D01*
X67050000Y-34953800D01*
X67025903Y-34957710D01*
X66875903Y-35007710D01*
X66842145Y-35030410D01*
X66662145Y-35240410D01*
X66651789Y-35256033D01*
X66643948Y-35285247D01*
X66633948Y-35445247D01*
X66633800Y-35450000D01*
X66226817Y-35450000D01*
X66226197Y-35379332D01*
X66225922Y-35373492D01*
X66195922Y-35023492D01*
X66188190Y-34995991D01*
X66169586Y-34972141D01*
X66143169Y-34957408D01*
X66113101Y-34954113D01*
X66003101Y-34964113D01*
X65982305Y-34969011D01*
X65956868Y-34985379D01*
X65939803Y-35010354D01*
X65933800Y-35040000D01*
X65933800Y-35124359D01*
X65909961Y-35179983D01*
X65903922Y-35214306D01*
X65933859Y-35743190D01*
X65943800Y-36101072D01*
X65943800Y-36168278D01*
X65923997Y-36603934D01*
X65888220Y-36916991D01*
X65885840Y-36892601D01*
X65884720Y-36885056D01*
X65794720Y-36435056D01*
X65781537Y-36405060D01*
X65759205Y-36384659D01*
X65709205Y-36354659D01*
X65670000Y-36343800D01*
X65640000Y-36343800D01*
X65611700Y-36349250D01*
X65561700Y-36369250D01*
X65538363Y-36383964D01*
X65520630Y-36408468D01*
X65470630Y-36518468D01*
X65463800Y-36550000D01*
X65463800Y-36600000D01*
X65471845Y-36634078D01*
X65491162Y-36672712D01*
X65466655Y-36841809D01*
X65405835Y-36222552D01*
X65405563Y-36220171D01*
X65245563Y-34990171D01*
X65238155Y-34965922D01*
X65188155Y-34865922D01*
X65174621Y-34846868D01*
X65149646Y-34829803D01*
X65120000Y-34823800D01*
X65050000Y-34823800D01*
X65025903Y-34827710D01*
X64965903Y-34847710D01*
X64948612Y-34856020D01*
X64926981Y-34877163D01*
X64915280Y-34905056D01*
X64905280Y-34955056D01*
X64904166Y-34977459D01*
X63394648Y-34977459D01*
X63386611Y-34962994D01*
X63363374Y-34937349D01*
X63103374Y-34757349D01*
X63064475Y-34743931D01*
X62894475Y-34733931D01*
X62875056Y-34735280D01*
X62825056Y-34745280D01*
X62793035Y-34759994D01*
X62773389Y-34782994D01*
X62723389Y-34872994D01*
X62715049Y-34896259D01*
X62715608Y-34926502D01*
X62727889Y-34954144D01*
X62749957Y-34974831D01*
X63077691Y-35177255D01*
X63210909Y-35354878D01*
X63354567Y-35833739D01*
X63373800Y-36112619D01*
X63373800Y-36245889D01*
X63334911Y-36605616D01*
X63239124Y-36950446D01*
X63173720Y-37064904D01*
X63158893Y-37073800D01*
X62997913Y-37073800D01*
X62905065Y-36995237D01*
X62775739Y-36625731D01*
X62766200Y-36358652D01*
X62766200Y-36321564D01*
X62883882Y-36203882D01*
X62900197Y-36179646D01*
X62906200Y-36150000D01*
X62906200Y-36110000D01*
X62900750Y-36081700D01*
X62880750Y-36031700D01*
X62870006Y-36013035D01*
X62847006Y-35993389D01*
X62757006Y-35943389D01*
X62720000Y-35933800D01*
X62550000Y-35933800D01*
X62540549Y-35934388D01*
X62460549Y-35944388D01*
X62426302Y-35957575D01*
X62326302Y-36027575D01*
X62312781Y-36039677D01*
X62297710Y-36065903D01*
X62277710Y-36125903D01*
X62274031Y-36144073D01*
X61986200Y-36144073D01*
X61986200Y-35120000D01*
X61982290Y-35095903D01*
X61962290Y-35035903D01*
X61953980Y-35018612D01*
X61932837Y-34996981D01*
X61904944Y-34985280D01*
X61854944Y-34975280D01*
X61840000Y-34973800D01*
X61810000Y-34973800D01*
X61781700Y-34979250D01*
X61731700Y-34999250D01*
X61715937Y-35007832D01*
X61695222Y-35029873D01*
X61684713Y-35058236D01*
X61634713Y-35378236D01*
X61633800Y-35390000D01*
X61633800Y-36666645D01*
X61610228Y-36933800D01*
X61574747Y-36933800D01*
X61339451Y-36904388D01*
X61317795Y-36904784D01*
X61289494Y-36915458D01*
X61267575Y-36936302D01*
X61197575Y-37036302D01*
X61186769Y-37058937D01*
X61184344Y-37089087D01*
X60903949Y-37089087D01*
X60836031Y-36364640D01*
X60817717Y-35980047D01*
X60843882Y-35953882D01*
X60862559Y-35923274D01*
X61032559Y-35393274D01*
X61034013Y-35388126D01*
X61154013Y-34898126D01*
X61156200Y-34880000D01*
X61156200Y-34810000D01*
X61150989Y-34782305D01*
X61134621Y-34756868D01*
X61109646Y-34739803D01*
X61080000Y-34733800D01*
X61010000Y-34733800D01*
X60970795Y-34744659D01*
X60920795Y-34774659D01*
X60904682Y-34787594D01*
X60888652Y-34813244D01*
X60738652Y-35213244D01*
X60736580Y-35219606D01*
X60683133Y-35412016D01*
X60611670Y-35214119D01*
X60608486Y-35206592D01*
X60408486Y-34796592D01*
X60393882Y-34776118D01*
X60349820Y-34732056D01*
X68470791Y-34732056D01*
X68520425Y-34900573D01*
X69031994Y-35148119D01*
X69279540Y-34636550D01*
X69213890Y-34473603D01*
X68882443Y-34490271D01*
X68582605Y-34632511D01*
X68470791Y-34732056D01*
X60349820Y-34732056D01*
X60343882Y-34726118D01*
X60320981Y-34710383D01*
X60291455Y-34703814D01*
X60261700Y-34709250D01*
X60211700Y-34729250D01*
X60196186Y-34737656D01*
X60175383Y-34759614D01*
X60125383Y-34839614D01*
X60113809Y-34878824D01*
X59772059Y-34878824D01*
X59752224Y-34860949D01*
X59602224Y-34790949D01*
X59577582Y-34784178D01*
X59477582Y-34774178D01*
X59470000Y-34773800D01*
X59410000Y-34773800D01*
X59394032Y-34775492D01*
X59366302Y-34787575D01*
X59266302Y-34857575D01*
X59244055Y-34881821D01*
X59134055Y-35071821D01*
X59124499Y-35099704D01*
X59111157Y-35197544D01*
X59094499Y-35319704D01*
X59094468Y-35340071D01*
X58978269Y-35340071D01*
X58935669Y-34981022D01*
X58931134Y-34962680D01*
X58914901Y-34937157D01*
X58890017Y-34919961D01*
X58820017Y-34889961D01*
X58790000Y-34883800D01*
X58750000Y-34883800D01*
X58707169Y-34896977D01*
X58686024Y-34918606D01*
X58674959Y-34946758D01*
X58644959Y-35116758D01*
X58643800Y-35130000D01*
X58643800Y-35510000D01*
X58644322Y-35518903D01*
X58674310Y-35773800D01*
X58512367Y-35773800D01*
X58395444Y-35734826D01*
X58385180Y-35721995D01*
X58376144Y-35487071D01*
X58375560Y-35480144D01*
X58315560Y-35020144D01*
X58310989Y-35002305D01*
X58294621Y-34976868D01*
X58269646Y-34959803D01*
X58240000Y-34953800D01*
X58100000Y-34953800D01*
X58070524Y-34959732D01*
X58045508Y-34976736D01*
X58029079Y-35002132D01*
X58023824Y-35031920D01*
X57711405Y-35031920D01*
X57701922Y-35004827D01*
X57683882Y-34976118D01*
X57463882Y-34756118D01*
X57448124Y-34744023D01*
X57419451Y-34734388D01*
X57259451Y-34714388D01*
X57250000Y-34713800D01*
X57210000Y-34713800D01*
X57181700Y-34719250D01*
X57131700Y-34739250D01*
X57116186Y-34747656D01*
X57095383Y-34769614D01*
X57045383Y-34849614D01*
X57033800Y-34890000D01*
X57033800Y-34960000D01*
X57039011Y-34987695D01*
X57055379Y-35013132D01*
X57080354Y-35030197D01*
X57110000Y-35036200D01*
X57252799Y-35036200D01*
X57334870Y-35103349D01*
X57446945Y-35249910D01*
X57452788Y-35296649D01*
X57428583Y-35409603D01*
X57170518Y-35791922D01*
X56925073Y-36047185D01*
X56909590Y-36070865D01*
X56789590Y-36360865D01*
X56784388Y-36380549D01*
X56764388Y-36540549D01*
X56763800Y-36550000D01*
X56475926Y-36550000D01*
X56673262Y-34086892D01*
X60767321Y-34086892D01*
X60775799Y-34262362D01*
X61094327Y-34355500D01*
X61424251Y-34319652D01*
X61562561Y-34262362D01*
X61571039Y-34086892D01*
X61169180Y-33685033D01*
X60767321Y-34086892D01*
X56673262Y-34086892D01*
X56725618Y-33433403D01*
X60321936Y-33433403D01*
X60357784Y-33763327D01*
X60415074Y-33901637D01*
X60590544Y-33910115D01*
X60992403Y-33508256D01*
X61345957Y-33508256D01*
X61747816Y-33910115D01*
X61923286Y-33901637D01*
X62016424Y-33583109D01*
X61980576Y-33253185D01*
X61923286Y-33114875D01*
X61747816Y-33106397D01*
X61345957Y-33508256D01*
X60992403Y-33508256D01*
X60590544Y-33106397D01*
X60415074Y-33114875D01*
X60321936Y-33433403D01*
X56725618Y-33433403D01*
X56765979Y-32929620D01*
X60767321Y-32929620D01*
X61169180Y-33331479D01*
X61571039Y-32929620D01*
X61562561Y-32754150D01*
X61244033Y-32661012D01*
X60914109Y-32696860D01*
X60775799Y-32754150D01*
X60767321Y-32929620D01*
X56765979Y-32929620D01*
X57129414Y-28393328D01*
X57219218Y-28374743D01*
X57295386Y-28322221D01*
X59071400Y-26480790D01*
X59071400Y-31280000D01*
X59092607Y-31386616D01*
X59153000Y-31477000D01*
X59243384Y-31537393D01*
X59350000Y-31558600D01*
X64580000Y-31558600D01*
X64604899Y-31553647D01*
X64630280Y-31554025D01*
X65720280Y-31354025D01*
X65732817Y-31349049D01*
X65746262Y-31347959D01*
X65760701Y-31340559D01*
X65776616Y-31337393D01*
X65797724Y-31323289D01*
X65821318Y-31313925D01*
X65830997Y-31304530D01*
X65843000Y-31298378D01*
X66613000Y-30688378D01*
X66614948Y-30686087D01*
X66617597Y-30684657D01*
X66650096Y-30644734D01*
X66683401Y-30605550D01*
X66684324Y-30602687D01*
X66686223Y-30600354D01*
X67136223Y-29750354D01*
X67149084Y-29707344D01*
X67164891Y-29665312D01*
X67222557Y-29315465D01*
X72153548Y-29315465D01*
X72452964Y-29458590D01*
X72784360Y-29476239D01*
X72930080Y-29441925D01*
X72966652Y-29270099D01*
X72634611Y-28808872D01*
X72173384Y-29140914D01*
X72153548Y-29315465D01*
X67222557Y-29315465D01*
X67314822Y-28755729D01*
X71821180Y-28755729D01*
X71855494Y-28901449D01*
X72027320Y-28938021D01*
X72409609Y-28662808D01*
X72837503Y-28662808D01*
X73169545Y-29124035D01*
X73344096Y-29143871D01*
X73487221Y-28844455D01*
X73504870Y-28513059D01*
X73470556Y-28367339D01*
X73298730Y-28330767D01*
X72837503Y-28662808D01*
X72409609Y-28662808D01*
X72488547Y-28605980D01*
X72156505Y-28144753D01*
X71981954Y-28124917D01*
X71838829Y-28424333D01*
X71821180Y-28755729D01*
X67314822Y-28755729D01*
X67314891Y-28755311D01*
X67313356Y-28708787D01*
X67314480Y-28662264D01*
X67199076Y-27998689D01*
X72359398Y-27998689D01*
X72691439Y-28459916D01*
X73152666Y-28127874D01*
X73172502Y-27953323D01*
X72873086Y-27810198D01*
X72541690Y-27792549D01*
X72395970Y-27826863D01*
X72359398Y-27998689D01*
X67199076Y-27998689D01*
X67154480Y-27742264D01*
X67137596Y-27698545D01*
X67123130Y-27653964D01*
X66653130Y-26813963D01*
X66652737Y-26813502D01*
X66652547Y-26812926D01*
X66617470Y-26772178D01*
X66582563Y-26731276D01*
X66582023Y-26731000D01*
X66581628Y-26730542D01*
X65801628Y-26120542D01*
X65791475Y-26115419D01*
X65783385Y-26107425D01*
X65743257Y-26091086D01*
X65704580Y-26071568D01*
X65693239Y-26070720D01*
X65682706Y-26066431D01*
X64592706Y-25856431D01*
X64566098Y-25856591D01*
X64540000Y-25851400D01*
X59350000Y-25851400D01*
X59243384Y-25872607D01*
X59153000Y-25933000D01*
X59092607Y-26023384D01*
X59076559Y-26104064D01*
X56935034Y-24038617D01*
X56862993Y-23991281D01*
X56772236Y-23973305D01*
X56681634Y-23992055D01*
X56605466Y-24044577D01*
X54800530Y-25915995D01*
X54753194Y-25988036D01*
X54735218Y-26078793D01*
X54753968Y-26169395D01*
X54806490Y-26245563D01*
X56460223Y-27840547D01*
X55278244Y-42593712D01*
X55228637Y-42583760D01*
X55137743Y-42601034D01*
X55120009Y-42612842D01*
X55117114Y-42597610D01*
X55065838Y-42520597D01*
X54988640Y-42469602D01*
X54426415Y-42242448D01*
X54427039Y-42229524D01*
X54025180Y-41827665D01*
X53623321Y-42229524D01*
X53631799Y-42404994D01*
X53775680Y-42447065D01*
X53625991Y-42817559D01*
X53609036Y-42902076D01*
X53626310Y-42992970D01*
X53677586Y-43069983D01*
X53754784Y-43120978D01*
X54589250Y-43458124D01*
X54673767Y-43475079D01*
X54764661Y-43457805D01*
X54782395Y-43445997D01*
X54785290Y-43461229D01*
X54836566Y-43538242D01*
X54913764Y-43589237D01*
X55748230Y-43926383D01*
X55832747Y-43943338D01*
X55923641Y-43926064D01*
X55941375Y-43914256D01*
X55944270Y-43929487D01*
X55995546Y-44006500D01*
X56072744Y-44057495D01*
X56907210Y-44394641D01*
X56991727Y-44411596D01*
X57046877Y-44401115D01*
X56849570Y-44889467D01*
X56821888Y-44847890D01*
X56744690Y-44796895D01*
X55910224Y-44459749D01*
X55825707Y-44442794D01*
X55734813Y-44460068D01*
X55717079Y-44471876D01*
X55714184Y-44456644D01*
X55662908Y-44379631D01*
X55585710Y-44328636D01*
X54751244Y-43991490D01*
X54666727Y-43974535D01*
X54575833Y-43991809D01*
X54558099Y-44003616D01*
X54555205Y-43988386D01*
X54503929Y-43911373D01*
X54426731Y-43860378D01*
X53592265Y-43523232D01*
X53507748Y-43506277D01*
X53416854Y-43523551D01*
X53339841Y-43574827D01*
X53288846Y-43652025D01*
X53064082Y-44208335D01*
X53047127Y-44292852D01*
X51608600Y-44292852D01*
X51608600Y-41576035D01*
X53177936Y-41576035D01*
X53213784Y-41905959D01*
X53271074Y-42044269D01*
X53446544Y-42052747D01*
X53848403Y-41650888D01*
X54201957Y-41650888D01*
X54603816Y-42052747D01*
X54779286Y-42044269D01*
X54872424Y-41725741D01*
X54836576Y-41395817D01*
X54779286Y-41257507D01*
X54603816Y-41249029D01*
X54201957Y-41650888D01*
X53848403Y-41650888D01*
X53446544Y-41249029D01*
X53271074Y-41257507D01*
X53177936Y-41576035D01*
X51608600Y-41576035D01*
X51608600Y-41072252D01*
X53623321Y-41072252D01*
X54025180Y-41474111D01*
X54427039Y-41072252D01*
X54418561Y-40896782D01*
X54100033Y-40803644D01*
X53770109Y-40839492D01*
X53631799Y-40896782D01*
X53623321Y-41072252D01*
X51608600Y-41072252D01*
X51608600Y-35723092D01*
X53623321Y-35723092D01*
X53631799Y-35898562D01*
X53950327Y-35991700D01*
X54280251Y-35955852D01*
X54418561Y-35898562D01*
X54427039Y-35723092D01*
X54025180Y-35321233D01*
X53623321Y-35723092D01*
X51608600Y-35723092D01*
X51608600Y-35069603D01*
X53177936Y-35069603D01*
X53213784Y-35399527D01*
X53271074Y-35537837D01*
X53446544Y-35546315D01*
X53848403Y-35144456D01*
X54201957Y-35144456D01*
X54603816Y-35546315D01*
X54779286Y-35537837D01*
X54872424Y-35219309D01*
X54836576Y-34889385D01*
X54779286Y-34751075D01*
X54603816Y-34742597D01*
X54201957Y-35144456D01*
X53848403Y-35144456D01*
X53446544Y-34742597D01*
X53271074Y-34751075D01*
X53177936Y-35069603D01*
X51608600Y-35069603D01*
X51608600Y-34565820D01*
X53623321Y-34565820D01*
X54025180Y-34967679D01*
X54427039Y-34565820D01*
X54418561Y-34390350D01*
X54100033Y-34297212D01*
X53770109Y-34333060D01*
X53631799Y-34390350D01*
X53623321Y-34565820D01*
X51608600Y-34565820D01*
X51608600Y-29216657D01*
X53623321Y-29216657D01*
X53631799Y-29392127D01*
X53950327Y-29485265D01*
X54280251Y-29449417D01*
X54418561Y-29392127D01*
X54427039Y-29216657D01*
X54025180Y-28814798D01*
X53623321Y-29216657D01*
X51608600Y-29216657D01*
X51608600Y-28563168D01*
X53177936Y-28563168D01*
X53213784Y-28893092D01*
X53271074Y-29031402D01*
X53446544Y-29039880D01*
X53848403Y-28638021D01*
X54201957Y-28638021D01*
X54603816Y-29039880D01*
X54779286Y-29031402D01*
X54872424Y-28712874D01*
X54836576Y-28382950D01*
X54779286Y-28244640D01*
X54603816Y-28236162D01*
X54201957Y-28638021D01*
X53848403Y-28638021D01*
X53446544Y-28236162D01*
X53271074Y-28244640D01*
X53177936Y-28563168D01*
X51608600Y-28563168D01*
X51608600Y-28059385D01*
X53623321Y-28059385D01*
X54025180Y-28461244D01*
X54427039Y-28059385D01*
X54418561Y-27883915D01*
X54100033Y-27790777D01*
X53770109Y-27826625D01*
X53631799Y-27883915D01*
X53623321Y-28059385D01*
X51608600Y-28059385D01*
X51608600Y-22349764D01*
X68236578Y-22349764D01*
X68416908Y-22628361D01*
X68690125Y-22816740D01*
X68832271Y-22863714D01*
X68953315Y-22736397D01*
X68911563Y-22169618D01*
X68344784Y-22211370D01*
X68236578Y-22349764D01*
X51608600Y-22349764D01*
X51608600Y-22151251D01*
X69160888Y-22151251D01*
X69202640Y-22718030D01*
X69341034Y-22826236D01*
X69619631Y-22645906D01*
X69808010Y-22372689D01*
X69854984Y-22230543D01*
X69727667Y-22109499D01*
X69160888Y-22151251D01*
X51608600Y-22151251D01*
X51608600Y-21578042D01*
X54899394Y-21578042D01*
X54907872Y-21753512D01*
X55226400Y-21846650D01*
X55556324Y-21810802D01*
X55694634Y-21753512D01*
X55703112Y-21578042D01*
X61451791Y-21578042D01*
X61460269Y-21753512D01*
X61778797Y-21846650D01*
X61830787Y-21841001D01*
X68199100Y-21841001D01*
X68326417Y-21962045D01*
X68893196Y-21920293D01*
X68851444Y-21353514D01*
X68827953Y-21335147D01*
X69100769Y-21335147D01*
X69142521Y-21901926D01*
X69709300Y-21860174D01*
X69817506Y-21721780D01*
X69637176Y-21443183D01*
X69363959Y-21254804D01*
X69221813Y-21207830D01*
X69100769Y-21335147D01*
X68827953Y-21335147D01*
X68713050Y-21245308D01*
X68434453Y-21425638D01*
X68246074Y-21698855D01*
X68199100Y-21841001D01*
X61830787Y-21841001D01*
X62108721Y-21810802D01*
X62247031Y-21753512D01*
X62255509Y-21578042D01*
X61853650Y-21176183D01*
X61451791Y-21578042D01*
X55703112Y-21578042D01*
X55301253Y-21176183D01*
X54899394Y-21578042D01*
X51608600Y-21578042D01*
X51608600Y-20924553D01*
X54454009Y-20924553D01*
X54489857Y-21254477D01*
X54547147Y-21392787D01*
X54722617Y-21401265D01*
X55124476Y-20999406D01*
X55478030Y-20999406D01*
X55879889Y-21401265D01*
X56055359Y-21392787D01*
X56148497Y-21074259D01*
X56132231Y-20924553D01*
X61006406Y-20924553D01*
X61042254Y-21254477D01*
X61099544Y-21392787D01*
X61275014Y-21401265D01*
X61676873Y-20999406D01*
X62030427Y-20999406D01*
X62432286Y-21401265D01*
X62607756Y-21392787D01*
X62700894Y-21074259D01*
X62665046Y-20744335D01*
X62607756Y-20606025D01*
X62432286Y-20597547D01*
X62030427Y-20999406D01*
X61676873Y-20999406D01*
X61275014Y-20597547D01*
X61099544Y-20606025D01*
X61006406Y-20924553D01*
X56132231Y-20924553D01*
X56112649Y-20744335D01*
X56055359Y-20606025D01*
X55879889Y-20597547D01*
X55478030Y-20999406D01*
X55124476Y-20999406D01*
X54722617Y-20597547D01*
X54547147Y-20606025D01*
X54454009Y-20924553D01*
X51608600Y-20924553D01*
X51608600Y-20420770D01*
X54899394Y-20420770D01*
X55301253Y-20822629D01*
X55703112Y-20420770D01*
X61451791Y-20420770D01*
X61853650Y-20822629D01*
X62255509Y-20420770D01*
X62247031Y-20245300D01*
X61928503Y-20152162D01*
X61598579Y-20188010D01*
X61460269Y-20245300D01*
X61451791Y-20420770D01*
X55703112Y-20420770D01*
X55694634Y-20245300D01*
X55376106Y-20152162D01*
X55046182Y-20188010D01*
X54907872Y-20245300D01*
X54899394Y-20420770D01*
X51608600Y-20420770D01*
X51608600Y-18998600D01*
X65166987Y-18998600D01*
X67155999Y-19184764D01*
G36*
X50266772Y-50158407D02*
X50232972Y-50192207D01*
X50266772Y-50226007D01*
X50122772Y-50370007D01*
X49918908Y-50370007D01*
X49774908Y-50226007D01*
X49808708Y-50192207D01*
X49774908Y-50158407D01*
X49918908Y-50014407D01*
X50122772Y-50014407D01*
X50266772Y-50158407D01*
X50266772Y-50158407D01*
G37*
X50266772Y-50158407D02*
X50232972Y-50192207D01*
X50266772Y-50226007D01*
X50122772Y-50370007D01*
X49918908Y-50370007D01*
X49774908Y-50226007D01*
X49808708Y-50192207D01*
X49774908Y-50158407D01*
X49918908Y-50014407D01*
X50122772Y-50014407D01*
X50266772Y-50158407D01*
G36*
X78262272Y-50158407D02*
X78228472Y-50192207D01*
X78262272Y-50226007D01*
X78118272Y-50370007D01*
X77914408Y-50370007D01*
X77770408Y-50226007D01*
X77804208Y-50192207D01*
X77770408Y-50158407D01*
X77914408Y-50014407D01*
X78118272Y-50014407D01*
X78262272Y-50158407D01*
X78262272Y-50158407D01*
G37*
X78262272Y-50158407D02*
X78228472Y-50192207D01*
X78262272Y-50226007D01*
X78118272Y-50370007D01*
X77914408Y-50370007D01*
X77770408Y-50226007D01*
X77804208Y-50192207D01*
X77770408Y-50158407D01*
X77914408Y-50014407D01*
X78118272Y-50014407D01*
X78262272Y-50158407D01*
G36*
X50266772Y-46158407D02*
X50232972Y-46192207D01*
X50266772Y-46226007D01*
X50122772Y-46370007D01*
X49918908Y-46370007D01*
X49774908Y-46226007D01*
X49808708Y-46192207D01*
X49774908Y-46158407D01*
X49918908Y-46014407D01*
X50122772Y-46014407D01*
X50266772Y-46158407D01*
X50266772Y-46158407D01*
G37*
X50266772Y-46158407D02*
X50232972Y-46192207D01*
X50266772Y-46226007D01*
X50122772Y-46370007D01*
X49918908Y-46370007D01*
X49774908Y-46226007D01*
X49808708Y-46192207D01*
X49774908Y-46158407D01*
X49918908Y-46014407D01*
X50122772Y-46014407D01*
X50266772Y-46158407D01*
G36*
X78262272Y-46158407D02*
X78228472Y-46192207D01*
X78262272Y-46226007D01*
X78118272Y-46370007D01*
X77914408Y-46370007D01*
X77770408Y-46226007D01*
X77804208Y-46192207D01*
X77770408Y-46158407D01*
X77914408Y-46014407D01*
X78118272Y-46014407D01*
X78262272Y-46158407D01*
X78262272Y-46158407D01*
G37*
X78262272Y-46158407D02*
X78228472Y-46192207D01*
X78262272Y-46226007D01*
X78118272Y-46370007D01*
X77914408Y-46370007D01*
X77770408Y-46226007D01*
X77804208Y-46192207D01*
X77770408Y-46158407D01*
X77914408Y-46014407D01*
X78118272Y-46014407D01*
X78262272Y-46158407D01*
M02*
