G04 #@! TF.FileFunction,Copper,L1,Top,Signal*
%FSLAX46Y46*%
G04 Gerber Fmt 4.6, Leading zero omitted, Abs format (unit mm)*
G04 Created by KiCad (PCBNEW 4.0.0-rc2-stable) date 3/3/2016 3:46:29 PM*
%MOMM*%
G01*
G04 APERTURE LIST*
%ADD10C,0.150000*%
%ADD11C,0.500000*%
%ADD12R,4.000000X1.000000*%
%ADD13C,0.600000*%
%ADD14C,0.254000*%
%ADD15C,0.152400*%
G04 APERTURE END LIST*
D10*
G36*
X74879413Y-47032668D02*
X73950500Y-45490877D01*
X74378775Y-45232846D01*
X75307688Y-46774637D01*
X74879413Y-47032668D01*
X74879413Y-47032668D01*
G37*
G36*
X76712965Y-46219840D02*
X75526021Y-44249774D01*
X75800117Y-44084634D01*
X76987061Y-46054700D01*
X76712965Y-46219840D01*
X76712965Y-46219840D01*
G37*
G36*
X75436704Y-46988774D02*
X74249759Y-45018708D01*
X74935000Y-44605858D01*
X76121945Y-46575924D01*
X75436704Y-46988774D01*
X75436704Y-46988774D01*
G37*
D11*
X73838509Y-45208108D03*
D10*
G36*
X80066724Y-41849097D02*
X78362249Y-41270510D01*
X78522968Y-40797045D01*
X80227443Y-41375632D01*
X80066724Y-41849097D01*
X80066724Y-41849097D01*
G37*
G36*
X80943118Y-40045064D02*
X78765177Y-39305758D01*
X78868036Y-39002740D01*
X81045977Y-39742046D01*
X80943118Y-40045064D01*
X80943118Y-40045064D01*
G37*
G36*
X80464177Y-41455991D02*
X78286236Y-40716685D01*
X78543385Y-39959141D01*
X80721326Y-40698447D01*
X80464177Y-41455991D01*
X80464177Y-41455991D01*
G37*
D11*
X78094242Y-41126732D03*
D10*
G36*
X81464222Y-34866255D02*
X79667040Y-34966948D01*
X79639070Y-34467731D01*
X81436252Y-34367038D01*
X81464222Y-34866255D01*
X81464222Y-34866255D01*
G37*
G36*
X81602509Y-32865386D02*
X79306110Y-32994049D01*
X79288209Y-32674550D01*
X81584608Y-32545887D01*
X81602509Y-32865386D01*
X81602509Y-32865386D01*
G37*
G36*
X81685860Y-34353053D02*
X79389462Y-34481716D01*
X79344710Y-33682969D01*
X81641108Y-33554306D01*
X81685860Y-34353053D01*
X81685860Y-34353053D01*
G37*
D11*
X79364714Y-34933808D03*
D10*
G36*
X79922471Y-27865197D02*
X78466012Y-28922895D01*
X78172207Y-28518323D01*
X79628666Y-27460625D01*
X79922471Y-27865197D01*
X79922471Y-27865197D01*
G37*
G36*
X78955413Y-26108097D02*
X77094382Y-27459601D01*
X76906347Y-27200675D01*
X78767378Y-25849171D01*
X78955413Y-26108097D01*
X78955413Y-26108097D01*
G37*
G36*
X79830953Y-27313722D02*
X77969921Y-28665225D01*
X77499833Y-28017910D01*
X79360865Y-26666407D01*
X79830953Y-27313722D01*
X79830953Y-27313722D01*
G37*
D11*
X78193888Y-29058721D03*
D10*
G36*
X74839469Y-22741338D02*
X74106371Y-24385287D01*
X73649719Y-24181648D01*
X74382817Y-22537699D01*
X74839469Y-22741338D01*
X74839469Y-22741338D01*
G37*
G36*
X73123812Y-21702532D02*
X72187076Y-23803133D01*
X71894818Y-23672804D01*
X72831554Y-21572203D01*
X73123812Y-21702532D01*
X73123812Y-21702532D01*
G37*
G36*
X74484636Y-22309373D02*
X73547900Y-24409974D01*
X72817256Y-24084153D01*
X73753992Y-21983552D01*
X74484636Y-22309373D01*
X74484636Y-22309373D01*
G37*
D11*
X73938524Y-24638914D03*
D10*
G36*
X68015794Y-21015783D02*
X68118060Y-22812876D01*
X67618868Y-22841283D01*
X67516602Y-21044190D01*
X68015794Y-21015783D01*
X68015794Y-21015783D01*
G37*
G36*
X66014805Y-20879248D02*
X66145479Y-23175533D01*
X65825995Y-23193714D01*
X65695321Y-20897429D01*
X66014805Y-20879248D01*
X66014805Y-20879248D01*
G37*
G36*
X67502398Y-20794594D02*
X67633072Y-23090879D01*
X66834364Y-23136330D01*
X66703690Y-20840045D01*
X67502398Y-20794594D01*
X67502398Y-20794594D01*
G37*
D11*
X68085186Y-23115231D03*
D10*
G36*
X61088566Y-22831334D02*
X62027161Y-24367251D01*
X61600518Y-24627972D01*
X60661923Y-23092055D01*
X61088566Y-22831334D01*
X61088566Y-22831334D01*
G37*
G36*
X59260165Y-23655681D02*
X60459481Y-25618241D01*
X60186429Y-25785103D01*
X58987113Y-23822543D01*
X59260165Y-23655681D01*
X59260165Y-23655681D01*
G37*
G36*
X60531563Y-22878733D02*
X61730879Y-24841293D01*
X61048249Y-25258447D01*
X59848933Y-23295887D01*
X60531563Y-22878733D01*
X60531563Y-22878733D01*
G37*
D11*
X62140930Y-24649309D03*
D10*
G36*
X55908279Y-28068956D02*
X57614352Y-28642815D01*
X57454947Y-29116724D01*
X55748874Y-28542865D01*
X55908279Y-28068956D01*
X55908279Y-28068956D01*
G37*
G36*
X55036892Y-29875413D02*
X57216875Y-30608677D01*
X57114856Y-30911979D01*
X54934873Y-30178715D01*
X55036892Y-29875413D01*
X55036892Y-29875413D01*
G37*
G36*
X55511920Y-28463163D02*
X57691902Y-29196426D01*
X57436854Y-29954681D01*
X55256872Y-29221418D01*
X55511920Y-28463163D01*
X55511920Y-28463163D01*
G37*
D11*
X57882758Y-28785849D03*
D10*
G36*
X54504242Y-34920154D02*
X56301420Y-34819402D01*
X56329406Y-35318618D01*
X54532228Y-35419370D01*
X54504242Y-34920154D01*
X54504242Y-34920154D01*
G37*
G36*
X54366020Y-36921027D02*
X56662414Y-36792289D01*
X56680326Y-37111787D01*
X54383932Y-37240525D01*
X54366020Y-36921027D01*
X54366020Y-36921027D01*
G37*
G36*
X54282621Y-35433363D02*
X56579015Y-35304625D01*
X56623793Y-36103371D01*
X54327399Y-36232109D01*
X54282621Y-35433363D01*
X54282621Y-35433363D01*
G37*
D11*
X56603748Y-34852532D03*
D10*
G36*
X56054616Y-42040565D02*
X57507066Y-40977367D01*
X57802398Y-41380825D01*
X56349948Y-42444023D01*
X56054616Y-42040565D01*
X56054616Y-42040565D01*
G37*
G36*
X57028310Y-43793996D02*
X58884219Y-42435465D01*
X59073232Y-42693678D01*
X57217323Y-44052209D01*
X57028310Y-43793996D01*
X57028310Y-43793996D01*
G37*
G36*
X56148220Y-42591690D02*
X58004128Y-41233159D01*
X58476660Y-41878692D01*
X56620752Y-43237223D01*
X56148220Y-42591690D01*
X56148220Y-42591690D01*
G37*
D11*
X57778674Y-40840513D03*
D10*
G36*
X61140332Y-47117581D02*
X61863746Y-45469348D01*
X62321588Y-45670297D01*
X61598174Y-47318530D01*
X61140332Y-47117581D01*
X61140332Y-47117581D01*
G37*
G36*
X62862071Y-48146277D02*
X63786434Y-46040202D01*
X64079453Y-46168809D01*
X63155090Y-48274884D01*
X62862071Y-48146277D01*
X62862071Y-48146277D01*
G37*
G36*
X61497701Y-47547451D02*
X62422063Y-45441376D01*
X63154611Y-45762893D01*
X62230249Y-47868968D01*
X61497701Y-47547451D01*
X61497701Y-47547451D01*
G37*
D11*
X62030100Y-45214738D03*
D10*
G36*
X67960177Y-48815857D02*
X67859149Y-47018694D01*
X68358361Y-46990631D01*
X68459389Y-48787794D01*
X67960177Y-48815857D01*
X67960177Y-48815857D01*
G37*
G36*
X69961071Y-48953771D02*
X69831981Y-46657397D01*
X70151477Y-46639437D01*
X70280567Y-48935811D01*
X69961071Y-48953771D01*
X69961071Y-48953771D01*
G37*
G36*
X68473420Y-49037400D02*
X68344329Y-46741025D01*
X69143068Y-46696124D01*
X69272159Y-48992499D01*
X68473420Y-49037400D01*
X68473420Y-49037400D01*
G37*
D11*
X67892232Y-46716361D03*
D12*
X86986290Y-50192200D03*
X86986290Y-48192200D03*
X86986290Y-46192200D03*
D13*
X85986290Y-50192200D03*
X85986290Y-48192200D03*
X85986290Y-46192200D03*
D12*
X49020840Y-46192200D03*
X49020840Y-48192200D03*
X49020840Y-50192200D03*
D13*
X50020840Y-46192200D03*
X50020840Y-48192200D03*
X50020840Y-50192200D03*
D11*
X55602462Y-31072320D03*
D14*
X74630000Y-46130000D02*
X75190000Y-45800000D01*
X74630000Y-46130000D02*
X75190000Y-45800000D01*
X74630000Y-46130000D02*
X75190000Y-45800000D01*
X74630000Y-46130000D02*
X75190000Y-45800000D01*
X74630000Y-46130000D02*
X75190000Y-45800000D01*
X74630000Y-46130000D02*
X75190000Y-45800000D01*
X74630000Y-46130000D02*
X75190000Y-45800000D01*
X74630000Y-46130000D02*
X75190000Y-45800000D01*
X74630000Y-46130000D02*
X75190000Y-45800000D01*
X75190000Y-45800000D02*
X73840000Y-45210000D01*
X75190000Y-45800000D02*
X73840000Y-45210000D01*
X75190000Y-45800000D02*
X73840000Y-45210000D01*
X75190000Y-45800000D02*
X73840000Y-45210000D01*
X75190000Y-45800000D02*
X73840000Y-45210000D01*
X75190000Y-45800000D02*
X73840000Y-45210000D01*
X75190000Y-45800000D02*
X73840000Y-45210000D01*
X75190000Y-45800000D02*
X73840000Y-45210000D01*
X75190000Y-45800000D02*
X73840000Y-45210000D01*
X79290000Y-41320000D02*
X79500000Y-40710000D01*
X79290000Y-41320000D02*
X79500000Y-40710000D01*
X79290000Y-41320000D02*
X79500000Y-40710000D01*
X79290000Y-41320000D02*
X79500000Y-40710000D01*
X79290000Y-41320000D02*
X79500000Y-40710000D01*
X79290000Y-41320000D02*
X79500000Y-40710000D01*
X79290000Y-41320000D02*
X79500000Y-40710000D01*
X79290000Y-41320000D02*
X79500000Y-40710000D01*
X79290000Y-41320000D02*
X79500000Y-40710000D01*
X79500000Y-40710000D02*
X78090000Y-41130000D01*
X79500000Y-40710000D02*
X78090000Y-41130000D01*
X79500000Y-40710000D02*
X78090000Y-41130000D01*
X79500000Y-40710000D02*
X78090000Y-41130000D01*
X79500000Y-40710000D02*
X78090000Y-41130000D01*
X79500000Y-40710000D02*
X78090000Y-41130000D01*
X79500000Y-40710000D02*
X78090000Y-41130000D01*
X79500000Y-40710000D02*
X78090000Y-41130000D01*
X79500000Y-40710000D02*
X78090000Y-41130000D01*
X80550000Y-34670000D02*
X80520000Y-34020000D01*
X80550000Y-34670000D02*
X80520000Y-34020000D01*
X80550000Y-34670000D02*
X80520000Y-34020000D01*
X80550000Y-34670000D02*
X80520000Y-34020000D01*
X80550000Y-34670000D02*
X80520000Y-34020000D01*
X80550000Y-34670000D02*
X80520000Y-34020000D01*
X80550000Y-34670000D02*
X80520000Y-34020000D01*
X80550000Y-34670000D02*
X80520000Y-34020000D01*
X80550000Y-34670000D02*
X80520000Y-34020000D01*
X80520000Y-34020000D02*
X79360000Y-34930000D01*
X80520000Y-34020000D02*
X79360000Y-34930000D01*
X80520000Y-34020000D02*
X79360000Y-34930000D01*
X80520000Y-34020000D02*
X79360000Y-34930000D01*
X80520000Y-34020000D02*
X79360000Y-34930000D01*
X80520000Y-34020000D02*
X79360000Y-34930000D01*
X80520000Y-34020000D02*
X79360000Y-34930000D01*
X80520000Y-34020000D02*
X79360000Y-34930000D01*
X80520000Y-34020000D02*
X79360000Y-34930000D01*
X79050000Y-28190000D02*
X78670000Y-27670000D01*
X79050000Y-28190000D02*
X78670000Y-27670000D01*
X79050000Y-28190000D02*
X78670000Y-27670000D01*
X79050000Y-28190000D02*
X78670000Y-27670000D01*
X79050000Y-28190000D02*
X78670000Y-27670000D01*
X79050000Y-28190000D02*
X78670000Y-27670000D01*
X79050000Y-28190000D02*
X78670000Y-27670000D01*
X79050000Y-28190000D02*
X78670000Y-27670000D01*
X79050000Y-28190000D02*
X78670000Y-27670000D01*
X78670000Y-27670000D02*
X78190000Y-29060000D01*
X78670000Y-27670000D02*
X78190000Y-29060000D01*
X78670000Y-27670000D02*
X78190000Y-29060000D01*
X78670000Y-27670000D02*
X78190000Y-29060000D01*
X78670000Y-27670000D02*
X78190000Y-29060000D01*
X78670000Y-27670000D02*
X78190000Y-29060000D01*
X78670000Y-27670000D02*
X78190000Y-29060000D01*
X78670000Y-27670000D02*
X78190000Y-29060000D01*
X78670000Y-27670000D02*
X78190000Y-29060000D01*
X74240000Y-23460000D02*
X73650000Y-23200000D01*
X74240000Y-23460000D02*
X73650000Y-23200000D01*
X74240000Y-23460000D02*
X73650000Y-23200000D01*
X74240000Y-23460000D02*
X73650000Y-23200000D01*
X74240000Y-23460000D02*
X73650000Y-23200000D01*
X74240000Y-23460000D02*
X73650000Y-23200000D01*
X74240000Y-23460000D02*
X73650000Y-23200000D01*
X74240000Y-23460000D02*
X73650000Y-23200000D01*
X74240000Y-23460000D02*
X73650000Y-23200000D01*
X73650000Y-23200000D02*
X73940000Y-24640000D01*
X73650000Y-23200000D02*
X73940000Y-24640000D01*
X73650000Y-23200000D02*
X73940000Y-24640000D01*
X73650000Y-23200000D02*
X73940000Y-24640000D01*
X73650000Y-23200000D02*
X73940000Y-24640000D01*
X73650000Y-23200000D02*
X73940000Y-24640000D01*
X73650000Y-23200000D02*
X73940000Y-24640000D01*
X73650000Y-23200000D02*
X73940000Y-24640000D01*
X73650000Y-23200000D02*
X73940000Y-24640000D01*
X67820000Y-21930000D02*
X67170000Y-21970000D01*
X67820000Y-21930000D02*
X67170000Y-21970000D01*
X67820000Y-21930000D02*
X67170000Y-21970000D01*
X67820000Y-21930000D02*
X67170000Y-21970000D01*
X67820000Y-21930000D02*
X67170000Y-21970000D01*
X67820000Y-21930000D02*
X67170000Y-21970000D01*
X67820000Y-21930000D02*
X67170000Y-21970000D01*
X67820000Y-21930000D02*
X67170000Y-21970000D01*
X67820000Y-21930000D02*
X67170000Y-21970000D01*
X67170000Y-21970000D02*
X68090000Y-23120000D01*
X67170000Y-21970000D02*
X68090000Y-23120000D01*
X67170000Y-21970000D02*
X68090000Y-23120000D01*
X67170000Y-21970000D02*
X68090000Y-23120000D01*
X67170000Y-21970000D02*
X68090000Y-23120000D01*
X67170000Y-21970000D02*
X68090000Y-23120000D01*
X67170000Y-21970000D02*
X68090000Y-23120000D01*
X67170000Y-21970000D02*
X68090000Y-23120000D01*
X67170000Y-21970000D02*
X68090000Y-23120000D01*
X61340000Y-23730000D02*
X60790000Y-24070000D01*
X61340000Y-23730000D02*
X60790000Y-24070000D01*
X61340000Y-23730000D02*
X60790000Y-24070000D01*
X61340000Y-23730000D02*
X60790000Y-24070000D01*
X61340000Y-23730000D02*
X60790000Y-24070000D01*
X61340000Y-23730000D02*
X60790000Y-24070000D01*
X61340000Y-23730000D02*
X60790000Y-24070000D01*
X61340000Y-23730000D02*
X60790000Y-24070000D01*
X61340000Y-23730000D02*
X60790000Y-24070000D01*
X60790000Y-24070000D02*
X62140000Y-24650000D01*
X60790000Y-24070000D02*
X62140000Y-24650000D01*
X60790000Y-24070000D02*
X62140000Y-24650000D01*
X60790000Y-24070000D02*
X62140000Y-24650000D01*
X60790000Y-24070000D02*
X62140000Y-24650000D01*
X60790000Y-24070000D02*
X62140000Y-24650000D01*
X60790000Y-24070000D02*
X62140000Y-24650000D01*
X60790000Y-24070000D02*
X62140000Y-24650000D01*
X60790000Y-24070000D02*
X62140000Y-24650000D01*
X56680000Y-28590000D02*
X56470000Y-29210000D01*
X56680000Y-28590000D02*
X56470000Y-29210000D01*
X56680000Y-28590000D02*
X56470000Y-29210000D01*
X56680000Y-28590000D02*
X56470000Y-29210000D01*
X56680000Y-28590000D02*
X56470000Y-29210000D01*
X56680000Y-28590000D02*
X56470000Y-29210000D01*
X56680000Y-28590000D02*
X56470000Y-29210000D01*
X56680000Y-28590000D02*
X56470000Y-29210000D01*
X56680000Y-28590000D02*
X56470000Y-29210000D01*
X56470000Y-29210000D02*
X57880000Y-28790000D01*
X56470000Y-29210000D02*
X57880000Y-28790000D01*
X56470000Y-29210000D02*
X57880000Y-28790000D01*
X56470000Y-29210000D02*
X57880000Y-28790000D01*
X56470000Y-29210000D02*
X57880000Y-28790000D01*
X56470000Y-29210000D02*
X57880000Y-28790000D01*
X56470000Y-29210000D02*
X57880000Y-28790000D01*
X56470000Y-29210000D02*
X57880000Y-28790000D01*
X56470000Y-29210000D02*
X57880000Y-28790000D01*
X55420000Y-35120000D02*
X55450000Y-35770000D01*
X55420000Y-35120000D02*
X55450000Y-35770000D01*
X55420000Y-35120000D02*
X55450000Y-35770000D01*
X55420000Y-35120000D02*
X55450000Y-35770000D01*
X55420000Y-35120000D02*
X55450000Y-35770000D01*
X55420000Y-35120000D02*
X55450000Y-35770000D01*
X55420000Y-35120000D02*
X55450000Y-35770000D01*
X55420000Y-35120000D02*
X55450000Y-35770000D01*
X55420000Y-35120000D02*
X55450000Y-35770000D01*
X55450000Y-35770000D02*
X56600000Y-34850000D01*
X55450000Y-35770000D02*
X56600000Y-34850000D01*
X55450000Y-35770000D02*
X56600000Y-34850000D01*
X55450000Y-35770000D02*
X56600000Y-34850000D01*
X55450000Y-35770000D02*
X56600000Y-34850000D01*
X55450000Y-35770000D02*
X56600000Y-34850000D01*
X55450000Y-35770000D02*
X56600000Y-34850000D01*
X55450000Y-35770000D02*
X56600000Y-34850000D01*
X55450000Y-35770000D02*
X56600000Y-34850000D01*
X56930000Y-41710000D02*
X57310000Y-42240000D01*
X56930000Y-41710000D02*
X57310000Y-42240000D01*
X56930000Y-41710000D02*
X57310000Y-42240000D01*
X56930000Y-41710000D02*
X57310000Y-42240000D01*
X56930000Y-41710000D02*
X57310000Y-42240000D01*
X56930000Y-41710000D02*
X57310000Y-42240000D01*
X56930000Y-41710000D02*
X57310000Y-42240000D01*
X56930000Y-41710000D02*
X57310000Y-42240000D01*
X56930000Y-41710000D02*
X57310000Y-42240000D01*
X57310000Y-42240000D02*
X57780000Y-40840000D01*
X57310000Y-42240000D02*
X57780000Y-40840000D01*
X57310000Y-42240000D02*
X57780000Y-40840000D01*
X57310000Y-42240000D02*
X57780000Y-40840000D01*
X57310000Y-42240000D02*
X57780000Y-40840000D01*
X57310000Y-42240000D02*
X57780000Y-40840000D01*
X57310000Y-42240000D02*
X57780000Y-40840000D01*
X57310000Y-42240000D02*
X57780000Y-40840000D01*
X57310000Y-42240000D02*
X57780000Y-40840000D01*
X61730000Y-46390000D02*
X62330000Y-46660000D01*
X61730000Y-46390000D02*
X62330000Y-46660000D01*
X61730000Y-46390000D02*
X62330000Y-46660000D01*
X61730000Y-46390000D02*
X62330000Y-46660000D01*
X61730000Y-46390000D02*
X62330000Y-46660000D01*
X61730000Y-46390000D02*
X62330000Y-46660000D01*
X61730000Y-46390000D02*
X62330000Y-46660000D01*
X61730000Y-46390000D02*
X62330000Y-46660000D01*
X61730000Y-46390000D02*
X62330000Y-46660000D01*
X62330000Y-46660000D02*
X62030000Y-45210000D01*
X62330000Y-46660000D02*
X62030000Y-45210000D01*
X62330000Y-46660000D02*
X62030000Y-45210000D01*
X62330000Y-46660000D02*
X62030000Y-45210000D01*
X62330000Y-46660000D02*
X62030000Y-45210000D01*
X62330000Y-46660000D02*
X62030000Y-45210000D01*
X62330000Y-46660000D02*
X62030000Y-45210000D01*
X62330000Y-46660000D02*
X62030000Y-45210000D01*
X62330000Y-46660000D02*
X62030000Y-45210000D01*
X68160000Y-47900000D02*
X68810000Y-47870000D01*
X68160000Y-47900000D02*
X68810000Y-47870000D01*
X68160000Y-47900000D02*
X68810000Y-47870000D01*
X68160000Y-47900000D02*
X68810000Y-47870000D01*
X68160000Y-47900000D02*
X68810000Y-47870000D01*
X68160000Y-47900000D02*
X68810000Y-47870000D01*
X68160000Y-47900000D02*
X68810000Y-47870000D01*
X68160000Y-47900000D02*
X68810000Y-47870000D01*
X68160000Y-47900000D02*
X68810000Y-47870000D01*
X68810000Y-47870000D02*
X67890000Y-46720000D01*
X68810000Y-47870000D02*
X67890000Y-46720000D01*
X68810000Y-47870000D02*
X67890000Y-46720000D01*
X68810000Y-47870000D02*
X67890000Y-46720000D01*
X68810000Y-47870000D02*
X67890000Y-46720000D01*
X68810000Y-47870000D02*
X67890000Y-46720000D01*
X68810000Y-47870000D02*
X67890000Y-46720000D01*
X68810000Y-47870000D02*
X67890000Y-46720000D01*
X68810000Y-47870000D02*
X67890000Y-46720000D01*
D15*
G36*
X71081981Y-18805452D02*
X74034116Y-19582848D01*
X76796601Y-20890359D01*
X79248980Y-22692710D01*
X80342778Y-23766977D01*
X81309044Y-24977249D01*
X82937081Y-27809046D01*
X83533805Y-29403570D01*
X83976158Y-31133661D01*
X84232248Y-32995241D01*
X84321126Y-34990065D01*
X84232268Y-37004198D01*
X83966285Y-38875925D01*
X83524109Y-40615153D01*
X82907949Y-42209345D01*
X81288795Y-45010580D01*
X81282857Y-45028044D01*
X81272607Y-45043384D01*
X81265511Y-45079059D01*
X81253801Y-45113498D01*
X81254999Y-45131909D01*
X81251400Y-45150000D01*
X81258496Y-45185673D01*
X81260857Y-45221973D01*
X81269008Y-45238522D01*
X81272607Y-45256616D01*
X81292815Y-45286860D01*
X81308887Y-45319491D01*
X81322751Y-45331662D01*
X81333000Y-45347000D01*
X81363246Y-45367210D01*
X81390580Y-45391205D01*
X81408044Y-45397143D01*
X81423384Y-45407393D01*
X81459059Y-45414489D01*
X81493498Y-45426199D01*
X81511909Y-45425001D01*
X81530000Y-45428600D01*
X89021400Y-45428600D01*
X89021400Y-45466232D01*
X88986290Y-45459122D01*
X84986290Y-45459122D01*
X84901576Y-45475062D01*
X84823772Y-45525128D01*
X84771575Y-45601520D01*
X84753212Y-45692200D01*
X84753212Y-46692200D01*
X84769152Y-46776914D01*
X84819218Y-46854718D01*
X84895610Y-46906915D01*
X84986290Y-46925278D01*
X88986290Y-46925278D01*
X89021400Y-46918672D01*
X89021400Y-47108000D01*
X87310140Y-47108000D01*
X87164090Y-47254050D01*
X87164090Y-48014400D01*
X87184090Y-48014400D01*
X87184090Y-48370000D01*
X87164090Y-48370000D01*
X87164090Y-49130350D01*
X87310140Y-49276400D01*
X89021400Y-49276400D01*
X89021400Y-49466232D01*
X88986290Y-49459122D01*
X84986290Y-49459122D01*
X84901576Y-49475062D01*
X84823772Y-49525128D01*
X84771575Y-49601520D01*
X84753212Y-49692200D01*
X84753212Y-50692200D01*
X84769152Y-50776914D01*
X84819218Y-50854718D01*
X84843633Y-50871400D01*
X71920000Y-50871400D01*
X71884624Y-50878437D01*
X71848619Y-50880699D01*
X71042669Y-51094325D01*
X68009888Y-51340493D01*
X64947228Y-51094298D01*
X64141381Y-50880700D01*
X64105381Y-50878438D01*
X64070000Y-50871400D01*
X51164511Y-50871400D01*
X51183358Y-50859272D01*
X51235555Y-50782880D01*
X51253918Y-50692200D01*
X51253918Y-49692200D01*
X51237978Y-49607486D01*
X51187912Y-49529682D01*
X51111520Y-49477485D01*
X51020840Y-49459122D01*
X47020840Y-49459122D01*
X46936126Y-49475062D01*
X46908600Y-49492775D01*
X46908600Y-49276400D01*
X48696990Y-49276400D01*
X48843040Y-49130350D01*
X48843040Y-48370000D01*
X48823040Y-48370000D01*
X48823040Y-48130533D01*
X49121428Y-48130533D01*
X49166293Y-48479417D01*
X49198640Y-48557510D01*
X49198640Y-49130350D01*
X49344690Y-49276400D01*
X51137044Y-49276400D01*
X51351762Y-49187461D01*
X51516101Y-49023123D01*
X51605040Y-48808405D01*
X51605040Y-48516050D01*
X51458990Y-48370000D01*
X50888760Y-48370000D01*
X50920252Y-48253867D01*
X50889458Y-48014400D01*
X51458990Y-48014400D01*
X51605040Y-47868350D01*
X51605040Y-47575995D01*
X51516101Y-47361277D01*
X51351762Y-47196939D01*
X51137044Y-47108000D01*
X49344690Y-47108000D01*
X49198640Y-47254050D01*
X49198640Y-47845802D01*
X49121428Y-48130533D01*
X48823040Y-48130533D01*
X48823040Y-48014400D01*
X48843040Y-48014400D01*
X48843040Y-47254050D01*
X48696990Y-47108000D01*
X46908600Y-47108000D01*
X46908600Y-47107885D01*
X60907456Y-47107885D01*
X60922031Y-47199251D01*
X60971004Y-47277748D01*
X61046658Y-47331007D01*
X61291076Y-47438283D01*
X61284275Y-47453778D01*
X61264825Y-47537755D01*
X61279400Y-47629121D01*
X61328373Y-47707618D01*
X61404028Y-47760877D01*
X62136576Y-48082394D01*
X62220553Y-48101844D01*
X62278867Y-48092542D01*
X62275572Y-48250254D01*
X62360006Y-48466784D01*
X62520876Y-48634518D01*
X62566802Y-48654675D01*
X62594331Y-48643940D01*
X62905745Y-48643940D01*
X62980783Y-48836373D01*
X63026710Y-48856530D01*
X63259068Y-48861384D01*
X63475597Y-48776948D01*
X63643332Y-48616079D01*
X63736736Y-48403265D01*
X64022061Y-47753179D01*
X63947022Y-47560746D01*
X63472560Y-47352504D01*
X62905745Y-48643940D01*
X62594331Y-48643940D01*
X62759235Y-48579636D01*
X63326050Y-47288200D01*
X63252795Y-47256048D01*
X63353374Y-47026886D01*
X63615474Y-47026886D01*
X64089936Y-47235129D01*
X64282369Y-47160090D01*
X64435523Y-46811143D01*
X67413549Y-46811143D01*
X67486258Y-46987112D01*
X67620773Y-47121861D01*
X67631759Y-47126423D01*
X67727466Y-48828939D01*
X67748136Y-48912624D01*
X67802490Y-48987496D01*
X67881691Y-49035323D01*
X67973259Y-49048568D01*
X68239759Y-49033587D01*
X68240709Y-49050482D01*
X68261379Y-49134168D01*
X68315733Y-49209039D01*
X68394934Y-49256866D01*
X68486502Y-49270111D01*
X69285241Y-49225210D01*
X69368927Y-49204540D01*
X69416713Y-49169849D01*
X69485165Y-49311969D01*
X69658467Y-49466825D01*
X69877839Y-49543573D01*
X69927915Y-49540758D01*
X70065537Y-49386741D01*
X69986379Y-47978614D01*
X69906506Y-47983104D01*
X69905749Y-47969634D01*
X70146127Y-47969634D01*
X70225285Y-49377760D01*
X70379302Y-49515383D01*
X70429378Y-49512568D01*
X70638766Y-49411718D01*
X70793621Y-49238414D01*
X70870368Y-49019043D01*
X70857324Y-48787000D01*
X70817477Y-48078174D01*
X70663460Y-47940552D01*
X70146127Y-47969634D01*
X69905749Y-47969634D01*
X69886547Y-47628064D01*
X69966421Y-47623574D01*
X69887263Y-46215448D01*
X69877213Y-46206467D01*
X70047011Y-46206467D01*
X70126169Y-47614594D01*
X70643502Y-47585512D01*
X70652005Y-47575995D01*
X84402090Y-47575995D01*
X84402090Y-47868350D01*
X84548140Y-48014400D01*
X85118370Y-48014400D01*
X85086878Y-48130533D01*
X85117672Y-48370000D01*
X84548140Y-48370000D01*
X84402090Y-48516050D01*
X84402090Y-48808405D01*
X84491029Y-49023123D01*
X84655368Y-49187461D01*
X84870086Y-49276400D01*
X86662440Y-49276400D01*
X86808490Y-49130350D01*
X86808490Y-48538598D01*
X86885702Y-48253867D01*
X86840837Y-47904983D01*
X86808490Y-47826890D01*
X86808490Y-47254050D01*
X86662440Y-47108000D01*
X84870086Y-47108000D01*
X84655368Y-47196939D01*
X84491029Y-47361277D01*
X84402090Y-47575995D01*
X70652005Y-47575995D01*
X70781124Y-47431495D01*
X70741278Y-46722669D01*
X70728234Y-46490627D01*
X70627383Y-46281239D01*
X70454081Y-46126383D01*
X70234709Y-46049635D01*
X70184633Y-46052450D01*
X70047011Y-46206467D01*
X69877213Y-46206467D01*
X69733246Y-46077825D01*
X69683170Y-46080640D01*
X69473782Y-46181490D01*
X69318927Y-46354794D01*
X69266746Y-46503948D01*
X69221554Y-46476658D01*
X69129986Y-46463413D01*
X68331247Y-46508314D01*
X68324775Y-46509912D01*
X68298206Y-46445610D01*
X68163691Y-46310861D01*
X67987849Y-46237845D01*
X67797450Y-46237678D01*
X67621481Y-46310387D01*
X67486732Y-46444902D01*
X67413716Y-46620744D01*
X67413549Y-46811143D01*
X64435523Y-46811143D01*
X64567694Y-46510004D01*
X64661098Y-46297190D01*
X64665952Y-46064832D01*
X64581518Y-45848302D01*
X64420648Y-45680568D01*
X64374722Y-45660411D01*
X64182289Y-45735450D01*
X63615474Y-47026886D01*
X63353374Y-47026886D01*
X63395709Y-46930430D01*
X63468964Y-46962582D01*
X64035779Y-45671146D01*
X63960741Y-45478713D01*
X63914814Y-45458556D01*
X63682456Y-45453702D01*
X63465927Y-45538138D01*
X63351882Y-45647515D01*
X63323939Y-45602726D01*
X63248284Y-45549467D01*
X62686481Y-45302890D01*
X73359826Y-45302890D01*
X73432535Y-45478859D01*
X73567050Y-45613608D01*
X73742892Y-45686624D01*
X73796352Y-45686671D01*
X74679770Y-47152951D01*
X74737141Y-47217287D01*
X74820177Y-47258093D01*
X74912547Y-47263379D01*
X74999696Y-47232311D01*
X75228328Y-47094563D01*
X75237061Y-47109057D01*
X75294432Y-47173393D01*
X75377468Y-47214199D01*
X75469838Y-47219485D01*
X75556987Y-47188417D01*
X76242228Y-46775567D01*
X76306564Y-46718196D01*
X76332608Y-46665198D01*
X76459526Y-46758878D01*
X76685099Y-46814834D01*
X76914914Y-46780206D01*
X76957874Y-46754323D01*
X77007602Y-46553853D01*
X76279773Y-45345817D01*
X76211249Y-45387102D01*
X76136628Y-45263247D01*
X76416821Y-45263247D01*
X77144650Y-46471283D01*
X77345121Y-46521011D01*
X77388081Y-46495128D01*
X77526100Y-46308139D01*
X77582054Y-46082566D01*
X77547427Y-45852751D01*
X77427489Y-45653681D01*
X77061113Y-45045577D01*
X76860643Y-44995849D01*
X76416821Y-45263247D01*
X76136628Y-45263247D01*
X76027737Y-45082512D01*
X76096261Y-45041227D01*
X75368432Y-43833191D01*
X75167961Y-43783463D01*
X75125001Y-43809346D01*
X74986982Y-43996335D01*
X74931028Y-44221908D01*
X74954571Y-44378163D01*
X74901866Y-44375147D01*
X74814717Y-44406215D01*
X74129476Y-44819065D01*
X74127847Y-44820518D01*
X74109968Y-44802608D01*
X73934126Y-44729592D01*
X73743727Y-44729425D01*
X73567758Y-44802134D01*
X73433009Y-44936649D01*
X73359993Y-45112491D01*
X73359826Y-45302890D01*
X62686481Y-45302890D01*
X62515736Y-45227950D01*
X62508690Y-45226318D01*
X62508783Y-45119956D01*
X62436074Y-44943987D01*
X62301559Y-44809238D01*
X62125717Y-44736222D01*
X61935318Y-44736055D01*
X61759349Y-44808764D01*
X61624600Y-44943279D01*
X61551584Y-45119121D01*
X61551417Y-45309520D01*
X61613456Y-45459666D01*
X60926906Y-47023908D01*
X60907456Y-47107885D01*
X46908600Y-47107885D01*
X46908600Y-46892184D01*
X46930160Y-46906915D01*
X47020840Y-46925278D01*
X51020840Y-46925278D01*
X51105554Y-46909338D01*
X51183358Y-46859272D01*
X51235555Y-46782880D01*
X51253918Y-46692200D01*
X51253918Y-45692200D01*
X51237978Y-45607486D01*
X51187912Y-45529682D01*
X51111520Y-45477485D01*
X51020840Y-45459122D01*
X47020840Y-45459122D01*
X46936126Y-45475062D01*
X46908600Y-45492775D01*
X46908600Y-45428600D01*
X54410000Y-45428600D01*
X54428454Y-45424929D01*
X54447235Y-45426101D01*
X54481300Y-45414418D01*
X54516616Y-45407393D01*
X54532260Y-45396940D01*
X54550060Y-45390835D01*
X54577061Y-45367004D01*
X54607000Y-45347000D01*
X54617453Y-45331356D01*
X54631562Y-45318904D01*
X54647388Y-45286556D01*
X54667393Y-45256616D01*
X54671064Y-45238161D01*
X54679333Y-45221259D01*
X54681575Y-45185317D01*
X54688600Y-45150000D01*
X54684929Y-45131546D01*
X54686101Y-45112765D01*
X54674418Y-45078700D01*
X54667393Y-45043384D01*
X54656940Y-45027740D01*
X54650835Y-45009940D01*
X54325529Y-44450572D01*
X56784936Y-44450572D01*
X56814561Y-44491043D01*
X57013154Y-44611770D01*
X57242831Y-44647307D01*
X57468623Y-44592247D01*
X57656158Y-44454971D01*
X58229024Y-44035631D01*
X58260608Y-43831514D01*
X57954554Y-43413411D01*
X56816520Y-44246456D01*
X56784936Y-44450572D01*
X54325529Y-44450572D01*
X53021919Y-42209001D01*
X52941815Y-42001746D01*
X55824793Y-42001746D01*
X55827797Y-42094218D01*
X55866541Y-42178236D01*
X56024203Y-42393621D01*
X56010549Y-42403616D01*
X55951607Y-42466515D01*
X55918397Y-42552871D01*
X55921401Y-42645343D01*
X55960145Y-42729361D01*
X56432677Y-43374894D01*
X56495577Y-43433836D01*
X56550693Y-43455032D01*
X56468750Y-43589825D01*
X56433211Y-43819502D01*
X56488272Y-44045295D01*
X56517896Y-44085765D01*
X56722013Y-44117349D01*
X57860048Y-43284304D01*
X57812795Y-43219751D01*
X57835173Y-43203370D01*
X58241494Y-43203370D01*
X58547547Y-43621474D01*
X58751664Y-43653057D01*
X59324531Y-43233717D01*
X59512065Y-43096441D01*
X59632792Y-42897849D01*
X59668331Y-42668172D01*
X59613270Y-42442379D01*
X59583646Y-42401909D01*
X59379529Y-42370325D01*
X58241494Y-43203370D01*
X57835173Y-43203370D01*
X58099735Y-43009710D01*
X58146988Y-43074263D01*
X59285022Y-42241218D01*
X59316606Y-42037102D01*
X59286981Y-41996631D01*
X59088388Y-41875904D01*
X58858711Y-41840367D01*
X58705193Y-41877803D01*
X58703479Y-41825039D01*
X58664735Y-41741021D01*
X58192203Y-41095488D01*
X58191350Y-41094689D01*
X58257190Y-40936130D01*
X58257357Y-40745731D01*
X58184648Y-40569762D01*
X58050133Y-40435013D01*
X57874291Y-40361997D01*
X57683892Y-40361830D01*
X57507923Y-40434539D01*
X57373174Y-40569054D01*
X57300158Y-40744896D01*
X57300075Y-40840036D01*
X55916945Y-41852491D01*
X55858003Y-41915390D01*
X55824793Y-42001746D01*
X52941815Y-42001746D01*
X52405891Y-40615151D01*
X51963715Y-38875925D01*
X51745334Y-37339171D01*
X53804344Y-37339171D01*
X53807152Y-37389247D01*
X53907970Y-37598651D01*
X54081250Y-37753532D01*
X54300609Y-37830314D01*
X54532654Y-37817305D01*
X55241486Y-37777567D01*
X55379132Y-37623571D01*
X55350130Y-37106234D01*
X53941991Y-37185175D01*
X53804344Y-37339171D01*
X51745334Y-37339171D01*
X51709404Y-37086330D01*
X55705172Y-37086330D01*
X55734175Y-37603667D01*
X55888170Y-37741313D01*
X56597002Y-37701576D01*
X56829047Y-37688567D01*
X57038450Y-37587749D01*
X57193333Y-37414470D01*
X57270114Y-37195111D01*
X57267307Y-37145034D01*
X57113311Y-37007388D01*
X55705172Y-37086330D01*
X51709404Y-37086330D01*
X51697732Y-37004197D01*
X51690387Y-36837703D01*
X53776232Y-36837703D01*
X53779039Y-36887780D01*
X53933035Y-37025426D01*
X55341174Y-36946484D01*
X55336696Y-36866610D01*
X55691738Y-36846706D01*
X55696216Y-36926580D01*
X57104355Y-36847639D01*
X57242002Y-36693643D01*
X57239194Y-36643567D01*
X57138376Y-36434163D01*
X56965096Y-36279282D01*
X56815951Y-36227077D01*
X56843247Y-36181891D01*
X56856506Y-36090325D01*
X56811728Y-35291579D01*
X56810130Y-35285103D01*
X56874499Y-35258506D01*
X57009248Y-35123991D01*
X57055231Y-35013250D01*
X59582372Y-35013250D01*
X59752372Y-37043250D01*
X59760175Y-37070398D01*
X59762697Y-37098530D01*
X60282697Y-38868530D01*
X60296460Y-38894831D01*
X60305291Y-38923175D01*
X61105291Y-40393175D01*
X61123656Y-40415213D01*
X61137592Y-40440279D01*
X62147592Y-41630279D01*
X62171012Y-41648860D01*
X62190764Y-41671308D01*
X63380764Y-42581308D01*
X63405976Y-42593689D01*
X63428364Y-42610644D01*
X64788364Y-43270644D01*
X64811374Y-43276654D01*
X64832488Y-43287600D01*
X66282489Y-43707600D01*
X66306686Y-43709676D01*
X66329854Y-43716964D01*
X67799854Y-43876964D01*
X67823224Y-43874904D01*
X67846467Y-43878113D01*
X69366467Y-43788113D01*
X69390987Y-43781708D01*
X69416305Y-43780595D01*
X69538631Y-43750621D01*
X75505480Y-43750621D01*
X76233309Y-44958657D01*
X76677131Y-44691259D01*
X76726859Y-44490789D01*
X76360483Y-43882685D01*
X76240545Y-43683615D01*
X76053556Y-43545596D01*
X75827983Y-43489640D01*
X75598168Y-43524268D01*
X75555208Y-43550151D01*
X75505480Y-43750621D01*
X69538631Y-43750621D01*
X70926304Y-43410595D01*
X70950247Y-43399421D01*
X70975957Y-43393322D01*
X72395957Y-42743322D01*
X72419189Y-42726539D01*
X72445143Y-42714379D01*
X73695143Y-41794379D01*
X73716807Y-41770651D01*
X73742019Y-41750737D01*
X74193159Y-41221514D01*
X77615559Y-41221514D01*
X77688268Y-41397483D01*
X77822783Y-41532232D01*
X77998625Y-41605248D01*
X78189024Y-41605415D01*
X78364993Y-41532706D01*
X78376299Y-41521420D01*
X79991804Y-42069806D01*
X80077146Y-42081942D01*
X80166914Y-42059542D01*
X80240896Y-42003983D01*
X80287433Y-41924017D01*
X80373232Y-41671260D01*
X80389257Y-41676700D01*
X80474599Y-41688836D01*
X80564368Y-41666436D01*
X80638349Y-41610876D01*
X80684886Y-41530911D01*
X80942035Y-40773367D01*
X80954171Y-40688025D01*
X80939874Y-40630730D01*
X81097282Y-40620412D01*
X81305724Y-40517620D01*
X81458962Y-40342886D01*
X81475084Y-40295392D01*
X81383730Y-40110147D01*
X80048226Y-39656808D01*
X80022511Y-39732562D01*
X79685783Y-39618260D01*
X79711498Y-39542505D01*
X79601892Y-39505299D01*
X80099656Y-39505299D01*
X81435160Y-39958638D01*
X81620405Y-39867285D01*
X81636527Y-39819792D01*
X81621326Y-39587880D01*
X81518533Y-39379439D01*
X81343798Y-39226201D01*
X81123723Y-39151496D01*
X80451454Y-38923294D01*
X80266209Y-39014647D01*
X80099656Y-39505299D01*
X79601892Y-39505299D01*
X78375994Y-39089166D01*
X78190749Y-39180519D01*
X78174627Y-39228012D01*
X78189828Y-39459924D01*
X78292621Y-39668365D01*
X78411426Y-39772554D01*
X78369213Y-39804256D01*
X78322676Y-39884221D01*
X78065527Y-40641765D01*
X78064625Y-40648106D01*
X77999460Y-40648049D01*
X77823491Y-40720758D01*
X77688742Y-40855273D01*
X77615726Y-41031115D01*
X77615559Y-41221514D01*
X74193159Y-41221514D01*
X74782019Y-40530737D01*
X74795684Y-40506282D01*
X74813770Y-40484886D01*
X75643770Y-38984886D01*
X75652724Y-38956842D01*
X75666602Y-38930879D01*
X75720743Y-38752412D01*
X78336070Y-38752412D01*
X78427424Y-38937657D01*
X79762928Y-39390996D01*
X79929480Y-38900344D01*
X79838127Y-38715099D01*
X79165858Y-38486896D01*
X78945783Y-38412191D01*
X78713872Y-38427392D01*
X78505430Y-38530184D01*
X78352192Y-38704918D01*
X78336070Y-38752412D01*
X75720743Y-38752412D01*
X76206602Y-37150879D01*
X76209452Y-37121944D01*
X76217563Y-37094020D01*
X76397563Y-35014020D01*
X76394939Y-34990266D01*
X76397609Y-34966520D01*
X76239125Y-33092676D01*
X78726520Y-33092676D01*
X78729326Y-33142753D01*
X78830137Y-33352159D01*
X79003412Y-33507046D01*
X79152556Y-33559256D01*
X79125259Y-33604442D01*
X79111997Y-33696007D01*
X79156749Y-34494754D01*
X79158347Y-34501231D01*
X79093963Y-34527834D01*
X78959214Y-34662349D01*
X78886198Y-34838191D01*
X78886031Y-35028590D01*
X78958740Y-35204559D01*
X79093255Y-35339308D01*
X79269097Y-35412324D01*
X79459496Y-35412491D01*
X79635465Y-35339782D01*
X79770214Y-35205267D01*
X79774744Y-35194357D01*
X81477261Y-35098968D01*
X81560950Y-35078314D01*
X81635832Y-35023974D01*
X81683673Y-34944782D01*
X81696935Y-34853217D01*
X81682003Y-34586713D01*
X81698898Y-34585766D01*
X81782588Y-34565112D01*
X81857470Y-34510772D01*
X81905311Y-34431580D01*
X81918573Y-34340015D01*
X81873821Y-33541268D01*
X81853167Y-33457578D01*
X81818484Y-33409784D01*
X81960618Y-33341359D01*
X82115506Y-33168086D01*
X82192294Y-32948728D01*
X82189489Y-32898652D01*
X82035497Y-32761001D01*
X80627356Y-32839897D01*
X80631831Y-32919771D01*
X80276788Y-32939664D01*
X80272313Y-32859789D01*
X78864171Y-32938685D01*
X78726520Y-33092676D01*
X76239125Y-33092676D01*
X76227609Y-32956521D01*
X76219696Y-32929079D01*
X76217059Y-32900645D01*
X76125113Y-32591208D01*
X78698424Y-32591208D01*
X78701229Y-32641284D01*
X78855221Y-32778935D01*
X80263362Y-32700039D01*
X80234377Y-32182701D01*
X80212123Y-32162808D01*
X80589420Y-32162808D01*
X80618405Y-32680147D01*
X82026547Y-32601251D01*
X82164198Y-32447260D01*
X82161392Y-32397183D01*
X82060581Y-32187777D01*
X81887306Y-32032890D01*
X81667949Y-31956101D01*
X81435904Y-31969102D01*
X80727071Y-32008817D01*
X80589420Y-32162808D01*
X80212123Y-32162808D01*
X80080385Y-32045050D01*
X79371552Y-32084764D01*
X79139507Y-32097765D01*
X78930100Y-32198577D01*
X78775212Y-32371850D01*
X78698424Y-32591208D01*
X76125113Y-32591208D01*
X75697059Y-31150645D01*
X75683596Y-31125108D01*
X75675086Y-31097521D01*
X74875086Y-29617521D01*
X74856900Y-29595571D01*
X74843151Y-29570599D01*
X73833150Y-28370598D01*
X73811049Y-28352915D01*
X73792692Y-28331379D01*
X73191297Y-27856327D01*
X76660491Y-27856327D01*
X76689963Y-27896909D01*
X76888098Y-28018386D01*
X77117639Y-28054791D01*
X77271299Y-28017936D01*
X77272813Y-28070705D01*
X77311239Y-28154869D01*
X77781327Y-28802184D01*
X77781948Y-28802771D01*
X77715372Y-28963104D01*
X77715205Y-29153503D01*
X77787914Y-29329472D01*
X77922429Y-29464221D01*
X78098271Y-29537237D01*
X78288670Y-29537404D01*
X78464639Y-29464695D01*
X78599388Y-29330180D01*
X78672404Y-29154338D01*
X78672486Y-29061006D01*
X80059430Y-28053791D01*
X80118609Y-27991114D01*
X80152145Y-27904885D01*
X80149491Y-27812402D01*
X80111065Y-27728238D01*
X79954219Y-27512260D01*
X79967912Y-27502316D01*
X80027091Y-27439639D01*
X80060627Y-27353410D01*
X80057973Y-27260927D01*
X80019547Y-27176763D01*
X79549459Y-26529448D01*
X79486782Y-26470269D01*
X79431746Y-26448865D01*
X79514197Y-26314382D01*
X79550605Y-26084841D01*
X79496399Y-25858842D01*
X79466927Y-25818260D01*
X79262931Y-25785904D01*
X78121755Y-26614640D01*
X78168764Y-26679372D01*
X77881031Y-26888326D01*
X77834023Y-26823595D01*
X76692846Y-27652331D01*
X76660491Y-27856327D01*
X73191297Y-27856327D01*
X72602692Y-27391379D01*
X72577924Y-27378728D01*
X72556053Y-27361548D01*
X72284808Y-27223931D01*
X76311155Y-27223931D01*
X76365361Y-27449930D01*
X76394833Y-27490512D01*
X76598829Y-27522868D01*
X77740005Y-26694132D01*
X77435535Y-26274873D01*
X77231539Y-26242518D01*
X76657091Y-26659689D01*
X76469039Y-26796255D01*
X76347563Y-26994390D01*
X76311155Y-27223931D01*
X72284808Y-27223931D01*
X71196053Y-26671548D01*
X71171642Y-26664709D01*
X71149209Y-26652897D01*
X69699210Y-26222897D01*
X69675075Y-26220672D01*
X69652005Y-26213244D01*
X68378071Y-26065919D01*
X77723267Y-26065919D01*
X78027737Y-26485177D01*
X79168914Y-25656441D01*
X79201269Y-25452445D01*
X79171797Y-25411863D01*
X78973662Y-25290386D01*
X78744121Y-25253981D01*
X78518122Y-25308187D01*
X78330070Y-25444752D01*
X77755622Y-25861923D01*
X77723267Y-26065919D01*
X68378071Y-26065919D01*
X68182006Y-26043245D01*
X68156794Y-26045297D01*
X68131711Y-26042001D01*
X66611711Y-26142001D01*
X66586446Y-26148777D01*
X66560330Y-26150252D01*
X65050330Y-26540252D01*
X65027355Y-26551325D01*
X65002574Y-26557356D01*
X63582574Y-27217356D01*
X63558940Y-27234640D01*
X63532555Y-27247334D01*
X62282555Y-28187334D01*
X62262889Y-28209324D01*
X62239580Y-28227404D01*
X61189580Y-29437404D01*
X61174750Y-29463404D01*
X61155543Y-29486363D01*
X60335543Y-30986363D01*
X60326879Y-31013986D01*
X60313273Y-31039535D01*
X59773273Y-32829535D01*
X59770488Y-32858261D01*
X59762437Y-32885980D01*
X59582437Y-34965980D01*
X59585049Y-34989622D01*
X59582372Y-35013250D01*
X57055231Y-35013250D01*
X57082264Y-34948149D01*
X57082431Y-34757750D01*
X57009722Y-34581781D01*
X56875207Y-34447032D01*
X56699365Y-34374016D01*
X56508966Y-34373849D01*
X56332997Y-34446558D01*
X56198248Y-34581073D01*
X56193712Y-34591996D01*
X54491196Y-34687441D01*
X54407507Y-34708098D01*
X54332627Y-34762440D01*
X54284788Y-34841634D01*
X54271529Y-34933200D01*
X54286469Y-35199703D01*
X54269575Y-35200650D01*
X54185886Y-35221307D01*
X54111006Y-35275649D01*
X54063167Y-35354843D01*
X54049908Y-35446409D01*
X54094686Y-36245155D01*
X54115343Y-36328844D01*
X54150026Y-36376636D01*
X54007896Y-36445065D01*
X53853013Y-36618344D01*
X53776232Y-36837703D01*
X51690387Y-36837703D01*
X51608870Y-34989974D01*
X51697737Y-32965770D01*
X51876306Y-31709169D01*
X55038682Y-31709169D01*
X55325309Y-31876442D01*
X55654130Y-31921293D01*
X55802179Y-31899083D01*
X55852763Y-31730849D01*
X55559790Y-31243869D01*
X55072811Y-31536842D01*
X55038682Y-31709169D01*
X51876306Y-31709169D01*
X51963741Y-31093889D01*
X52214346Y-30102607D01*
X54344110Y-30102607D01*
X54359954Y-30334476D01*
X54463325Y-30542631D01*
X54638484Y-30695384D01*
X54820787Y-30756704D01*
X54798340Y-30795167D01*
X54753489Y-31123988D01*
X54775699Y-31272037D01*
X54943933Y-31322621D01*
X55430913Y-31029648D01*
X55406305Y-30988745D01*
X55432567Y-30962483D01*
X55531664Y-30995816D01*
X55716652Y-30903951D01*
X55670091Y-31042377D01*
X55814161Y-31090837D01*
X55774011Y-31114992D01*
X56066984Y-31601971D01*
X56239311Y-31636100D01*
X56406584Y-31349473D01*
X56414326Y-31292710D01*
X56818465Y-31428647D01*
X57038747Y-31502741D01*
X57270615Y-31486898D01*
X57478772Y-31383528D01*
X57631524Y-31208369D01*
X57647514Y-31160831D01*
X57555647Y-30975840D01*
X56218891Y-30526206D01*
X56193386Y-30602031D01*
X56137011Y-30583069D01*
X56166242Y-30435471D01*
X55879615Y-30268198D01*
X55550794Y-30223347D01*
X55402745Y-30245557D01*
X55401072Y-30251122D01*
X54545091Y-29963203D01*
X54360100Y-30055070D01*
X54344110Y-30102607D01*
X52214346Y-30102607D01*
X52334694Y-29626561D01*
X54504234Y-29626561D01*
X54596101Y-29811552D01*
X55932857Y-30261186D01*
X55958362Y-30185361D01*
X56295406Y-30298729D01*
X56269901Y-30374555D01*
X57606657Y-30824189D01*
X57791648Y-30732322D01*
X57807638Y-30684785D01*
X57791794Y-30452916D01*
X57688423Y-30244761D01*
X57569330Y-30140902D01*
X57611455Y-30109083D01*
X57657770Y-30028989D01*
X57912818Y-29270734D01*
X57913690Y-29264476D01*
X57977540Y-29264532D01*
X58153509Y-29191823D01*
X58288258Y-29057308D01*
X58361274Y-28881466D01*
X58361441Y-28691067D01*
X58288732Y-28515098D01*
X58154217Y-28380349D01*
X57978375Y-28307333D01*
X57787976Y-28307166D01*
X57612007Y-28379875D01*
X57599838Y-28392023D01*
X55982587Y-27848040D01*
X55897211Y-27836141D01*
X55807505Y-27858789D01*
X55733678Y-27914554D01*
X55687363Y-27994648D01*
X55602266Y-28247641D01*
X55586228Y-28242247D01*
X55500852Y-28230348D01*
X55411146Y-28252996D01*
X55337319Y-28308761D01*
X55291004Y-28388855D01*
X55035956Y-29147110D01*
X55024057Y-29232486D01*
X55038512Y-29289741D01*
X54881133Y-29300494D01*
X54672976Y-29403864D01*
X54520224Y-29579023D01*
X54504234Y-29626561D01*
X52334694Y-29626561D01*
X52406029Y-29344396D01*
X53022202Y-27740390D01*
X54383398Y-25384786D01*
X59257150Y-25384786D01*
X59627345Y-25990573D01*
X59748532Y-26188884D01*
X59936386Y-26325724D01*
X60162306Y-26380259D01*
X60391899Y-26344187D01*
X60434695Y-26318034D01*
X60483161Y-26117255D01*
X59747746Y-24913822D01*
X59305616Y-25184007D01*
X59257150Y-25384786D01*
X54383398Y-25384786D01*
X54670418Y-24888087D01*
X55549180Y-23798421D01*
X58391957Y-23798421D01*
X58428029Y-24028013D01*
X58549217Y-24226325D01*
X58919412Y-24832112D01*
X59120191Y-24880578D01*
X59562322Y-24610393D01*
X58826907Y-23406960D01*
X58626127Y-23358494D01*
X58583331Y-23384646D01*
X58446491Y-23572500D01*
X58391957Y-23798421D01*
X55549180Y-23798421D01*
X55646742Y-23677445D01*
X56007035Y-23323529D01*
X58963433Y-23323529D01*
X59698848Y-24526962D01*
X59767111Y-24485247D01*
X59952535Y-24788676D01*
X59884272Y-24830391D01*
X60619687Y-26033824D01*
X60820467Y-26082290D01*
X60863263Y-26056138D01*
X61000103Y-25868284D01*
X61054637Y-25642363D01*
X61030111Y-25486260D01*
X61082834Y-25488945D01*
X61169786Y-25457329D01*
X61852416Y-25040175D01*
X61853703Y-25039013D01*
X61869471Y-25054809D01*
X62045313Y-25127825D01*
X62235712Y-25127992D01*
X62411681Y-25055283D01*
X62546430Y-24920768D01*
X62619446Y-24744926D01*
X62619613Y-24554527D01*
X62546904Y-24378558D01*
X62412389Y-24243809D01*
X62236547Y-24170793D01*
X62180229Y-24170744D01*
X61287448Y-22709797D01*
X61229674Y-22645824D01*
X61146382Y-22605541D01*
X61053981Y-22600836D01*
X60967029Y-22632452D01*
X60739269Y-22771636D01*
X60730445Y-22757196D01*
X60672671Y-22693223D01*
X60589379Y-22652940D01*
X60496978Y-22648235D01*
X60410026Y-22679851D01*
X59727396Y-23097005D01*
X59663423Y-23154779D01*
X59637713Y-23207939D01*
X59510208Y-23115060D01*
X59284288Y-23060525D01*
X59054695Y-23096597D01*
X59011899Y-23122750D01*
X58963433Y-23323529D01*
X56007035Y-23323529D01*
X56749937Y-22593776D01*
X57016816Y-22402089D01*
X65195802Y-22402089D01*
X65236137Y-23110888D01*
X65249341Y-23342921D01*
X65350336Y-23552239D01*
X65523745Y-23706976D01*
X65743169Y-23783572D01*
X65793243Y-23780723D01*
X65799840Y-23773329D01*
X71307717Y-23773329D01*
X71390877Y-23990352D01*
X71550757Y-24159030D01*
X71596564Y-24179457D01*
X71619377Y-24170715D01*
X71935563Y-24170715D01*
X72009469Y-24363586D01*
X72055276Y-24384013D01*
X72287601Y-24390234D01*
X72504623Y-24307074D01*
X72619310Y-24198369D01*
X72646989Y-24243321D01*
X72722329Y-24297024D01*
X73452973Y-24622845D01*
X73459937Y-24624501D01*
X73459841Y-24733696D01*
X73532550Y-24909665D01*
X73667065Y-25044414D01*
X73842907Y-25117430D01*
X74033306Y-25117597D01*
X74209275Y-25044888D01*
X74344024Y-24910373D01*
X74417040Y-24734531D01*
X74417207Y-24544132D01*
X74356383Y-24396927D01*
X75052340Y-22836265D01*
X75072284Y-22752404D01*
X75058247Y-22660954D01*
X75009736Y-22582170D01*
X74934397Y-22528467D01*
X74690615Y-22419755D01*
X74697507Y-22404300D01*
X74717451Y-22320439D01*
X74703414Y-22228989D01*
X74654903Y-22150205D01*
X74579563Y-22096502D01*
X73848919Y-21770681D01*
X73765058Y-21750737D01*
X73706691Y-21759696D01*
X73710913Y-21602007D01*
X73627753Y-21384984D01*
X73467873Y-21216306D01*
X73422066Y-21195879D01*
X73229195Y-21269785D01*
X72654793Y-22557864D01*
X72727857Y-22590446D01*
X72583030Y-22915218D01*
X72509966Y-22882636D01*
X71935563Y-24170715D01*
X71619377Y-24170715D01*
X71789435Y-24105551D01*
X72363837Y-22817472D01*
X71890608Y-22606441D01*
X71697737Y-22680347D01*
X71408593Y-23328743D01*
X71313938Y-23541003D01*
X71307717Y-23773329D01*
X65799840Y-23773329D01*
X65930760Y-23626611D01*
X65850631Y-22218539D01*
X65333318Y-22247978D01*
X65195802Y-22402089D01*
X57016816Y-22402089D01*
X59227016Y-20814604D01*
X65105463Y-20814604D01*
X65118667Y-21046637D01*
X65159003Y-21755436D01*
X65313115Y-21892952D01*
X65830428Y-21863513D01*
X65750299Y-20455441D01*
X65740112Y-20446351D01*
X65910040Y-20446351D01*
X65990169Y-21854423D01*
X66070040Y-21849878D01*
X66090243Y-22204904D01*
X66010372Y-22209449D01*
X66090501Y-23617521D01*
X66244613Y-23755037D01*
X66294687Y-23752187D01*
X66504005Y-23651193D01*
X66658741Y-23477782D01*
X66710820Y-23328592D01*
X66756029Y-23355850D01*
X66847606Y-23369032D01*
X67646314Y-23323581D01*
X67652768Y-23321982D01*
X67679212Y-23385982D01*
X67813727Y-23520731D01*
X67989569Y-23593747D01*
X68179968Y-23593914D01*
X68355937Y-23521205D01*
X68490686Y-23386690D01*
X68563702Y-23210848D01*
X68563869Y-23020449D01*
X68491160Y-22844480D01*
X68356645Y-22709731D01*
X68345380Y-22705053D01*
X68310312Y-22088799D01*
X71961530Y-22088799D01*
X72035435Y-22281670D01*
X72508664Y-22492700D01*
X73083067Y-21204621D01*
X73009161Y-21011750D01*
X72963354Y-20991323D01*
X72731029Y-20985102D01*
X72514007Y-21068262D01*
X72345329Y-21228143D01*
X72250674Y-21440403D01*
X71961530Y-22088799D01*
X68310312Y-22088799D01*
X68248496Y-21002541D01*
X68227768Y-20918869D01*
X68173363Y-20844035D01*
X68094129Y-20796263D01*
X68002552Y-20783081D01*
X67736061Y-20798246D01*
X67735100Y-20781352D01*
X67714372Y-20697680D01*
X67659967Y-20622846D01*
X67580733Y-20575074D01*
X67489156Y-20561892D01*
X66690448Y-20607343D01*
X66606776Y-20628071D01*
X66559013Y-20662795D01*
X66490464Y-20520723D01*
X66317055Y-20365986D01*
X66097631Y-20289390D01*
X66047557Y-20292239D01*
X65910040Y-20446351D01*
X65740112Y-20446351D01*
X65596187Y-20317925D01*
X65546113Y-20320775D01*
X65336795Y-20421769D01*
X65182059Y-20595180D01*
X65105463Y-20814604D01*
X59227016Y-20814604D01*
X59230377Y-20812190D01*
X62012825Y-19543866D01*
X64995795Y-18785817D01*
X68058947Y-18539583D01*
X71081981Y-18805452D01*
X71081981Y-18805452D01*
G37*
X71081981Y-18805452D02*
X74034116Y-19582848D01*
X76796601Y-20890359D01*
X79248980Y-22692710D01*
X80342778Y-23766977D01*
X81309044Y-24977249D01*
X82937081Y-27809046D01*
X83533805Y-29403570D01*
X83976158Y-31133661D01*
X84232248Y-32995241D01*
X84321126Y-34990065D01*
X84232268Y-37004198D01*
X83966285Y-38875925D01*
X83524109Y-40615153D01*
X82907949Y-42209345D01*
X81288795Y-45010580D01*
X81282857Y-45028044D01*
X81272607Y-45043384D01*
X81265511Y-45079059D01*
X81253801Y-45113498D01*
X81254999Y-45131909D01*
X81251400Y-45150000D01*
X81258496Y-45185673D01*
X81260857Y-45221973D01*
X81269008Y-45238522D01*
X81272607Y-45256616D01*
X81292815Y-45286860D01*
X81308887Y-45319491D01*
X81322751Y-45331662D01*
X81333000Y-45347000D01*
X81363246Y-45367210D01*
X81390580Y-45391205D01*
X81408044Y-45397143D01*
X81423384Y-45407393D01*
X81459059Y-45414489D01*
X81493498Y-45426199D01*
X81511909Y-45425001D01*
X81530000Y-45428600D01*
X89021400Y-45428600D01*
X89021400Y-45466232D01*
X88986290Y-45459122D01*
X84986290Y-45459122D01*
X84901576Y-45475062D01*
X84823772Y-45525128D01*
X84771575Y-45601520D01*
X84753212Y-45692200D01*
X84753212Y-46692200D01*
X84769152Y-46776914D01*
X84819218Y-46854718D01*
X84895610Y-46906915D01*
X84986290Y-46925278D01*
X88986290Y-46925278D01*
X89021400Y-46918672D01*
X89021400Y-47108000D01*
X87310140Y-47108000D01*
X87164090Y-47254050D01*
X87164090Y-48014400D01*
X87184090Y-48014400D01*
X87184090Y-48370000D01*
X87164090Y-48370000D01*
X87164090Y-49130350D01*
X87310140Y-49276400D01*
X89021400Y-49276400D01*
X89021400Y-49466232D01*
X88986290Y-49459122D01*
X84986290Y-49459122D01*
X84901576Y-49475062D01*
X84823772Y-49525128D01*
X84771575Y-49601520D01*
X84753212Y-49692200D01*
X84753212Y-50692200D01*
X84769152Y-50776914D01*
X84819218Y-50854718D01*
X84843633Y-50871400D01*
X71920000Y-50871400D01*
X71884624Y-50878437D01*
X71848619Y-50880699D01*
X71042669Y-51094325D01*
X68009888Y-51340493D01*
X64947228Y-51094298D01*
X64141381Y-50880700D01*
X64105381Y-50878438D01*
X64070000Y-50871400D01*
X51164511Y-50871400D01*
X51183358Y-50859272D01*
X51235555Y-50782880D01*
X51253918Y-50692200D01*
X51253918Y-49692200D01*
X51237978Y-49607486D01*
X51187912Y-49529682D01*
X51111520Y-49477485D01*
X51020840Y-49459122D01*
X47020840Y-49459122D01*
X46936126Y-49475062D01*
X46908600Y-49492775D01*
X46908600Y-49276400D01*
X48696990Y-49276400D01*
X48843040Y-49130350D01*
X48843040Y-48370000D01*
X48823040Y-48370000D01*
X48823040Y-48130533D01*
X49121428Y-48130533D01*
X49166293Y-48479417D01*
X49198640Y-48557510D01*
X49198640Y-49130350D01*
X49344690Y-49276400D01*
X51137044Y-49276400D01*
X51351762Y-49187461D01*
X51516101Y-49023123D01*
X51605040Y-48808405D01*
X51605040Y-48516050D01*
X51458990Y-48370000D01*
X50888760Y-48370000D01*
X50920252Y-48253867D01*
X50889458Y-48014400D01*
X51458990Y-48014400D01*
X51605040Y-47868350D01*
X51605040Y-47575995D01*
X51516101Y-47361277D01*
X51351762Y-47196939D01*
X51137044Y-47108000D01*
X49344690Y-47108000D01*
X49198640Y-47254050D01*
X49198640Y-47845802D01*
X49121428Y-48130533D01*
X48823040Y-48130533D01*
X48823040Y-48014400D01*
X48843040Y-48014400D01*
X48843040Y-47254050D01*
X48696990Y-47108000D01*
X46908600Y-47108000D01*
X46908600Y-47107885D01*
X60907456Y-47107885D01*
X60922031Y-47199251D01*
X60971004Y-47277748D01*
X61046658Y-47331007D01*
X61291076Y-47438283D01*
X61284275Y-47453778D01*
X61264825Y-47537755D01*
X61279400Y-47629121D01*
X61328373Y-47707618D01*
X61404028Y-47760877D01*
X62136576Y-48082394D01*
X62220553Y-48101844D01*
X62278867Y-48092542D01*
X62275572Y-48250254D01*
X62360006Y-48466784D01*
X62520876Y-48634518D01*
X62566802Y-48654675D01*
X62594331Y-48643940D01*
X62905745Y-48643940D01*
X62980783Y-48836373D01*
X63026710Y-48856530D01*
X63259068Y-48861384D01*
X63475597Y-48776948D01*
X63643332Y-48616079D01*
X63736736Y-48403265D01*
X64022061Y-47753179D01*
X63947022Y-47560746D01*
X63472560Y-47352504D01*
X62905745Y-48643940D01*
X62594331Y-48643940D01*
X62759235Y-48579636D01*
X63326050Y-47288200D01*
X63252795Y-47256048D01*
X63353374Y-47026886D01*
X63615474Y-47026886D01*
X64089936Y-47235129D01*
X64282369Y-47160090D01*
X64435523Y-46811143D01*
X67413549Y-46811143D01*
X67486258Y-46987112D01*
X67620773Y-47121861D01*
X67631759Y-47126423D01*
X67727466Y-48828939D01*
X67748136Y-48912624D01*
X67802490Y-48987496D01*
X67881691Y-49035323D01*
X67973259Y-49048568D01*
X68239759Y-49033587D01*
X68240709Y-49050482D01*
X68261379Y-49134168D01*
X68315733Y-49209039D01*
X68394934Y-49256866D01*
X68486502Y-49270111D01*
X69285241Y-49225210D01*
X69368927Y-49204540D01*
X69416713Y-49169849D01*
X69485165Y-49311969D01*
X69658467Y-49466825D01*
X69877839Y-49543573D01*
X69927915Y-49540758D01*
X70065537Y-49386741D01*
X69986379Y-47978614D01*
X69906506Y-47983104D01*
X69905749Y-47969634D01*
X70146127Y-47969634D01*
X70225285Y-49377760D01*
X70379302Y-49515383D01*
X70429378Y-49512568D01*
X70638766Y-49411718D01*
X70793621Y-49238414D01*
X70870368Y-49019043D01*
X70857324Y-48787000D01*
X70817477Y-48078174D01*
X70663460Y-47940552D01*
X70146127Y-47969634D01*
X69905749Y-47969634D01*
X69886547Y-47628064D01*
X69966421Y-47623574D01*
X69887263Y-46215448D01*
X69877213Y-46206467D01*
X70047011Y-46206467D01*
X70126169Y-47614594D01*
X70643502Y-47585512D01*
X70652005Y-47575995D01*
X84402090Y-47575995D01*
X84402090Y-47868350D01*
X84548140Y-48014400D01*
X85118370Y-48014400D01*
X85086878Y-48130533D01*
X85117672Y-48370000D01*
X84548140Y-48370000D01*
X84402090Y-48516050D01*
X84402090Y-48808405D01*
X84491029Y-49023123D01*
X84655368Y-49187461D01*
X84870086Y-49276400D01*
X86662440Y-49276400D01*
X86808490Y-49130350D01*
X86808490Y-48538598D01*
X86885702Y-48253867D01*
X86840837Y-47904983D01*
X86808490Y-47826890D01*
X86808490Y-47254050D01*
X86662440Y-47108000D01*
X84870086Y-47108000D01*
X84655368Y-47196939D01*
X84491029Y-47361277D01*
X84402090Y-47575995D01*
X70652005Y-47575995D01*
X70781124Y-47431495D01*
X70741278Y-46722669D01*
X70728234Y-46490627D01*
X70627383Y-46281239D01*
X70454081Y-46126383D01*
X70234709Y-46049635D01*
X70184633Y-46052450D01*
X70047011Y-46206467D01*
X69877213Y-46206467D01*
X69733246Y-46077825D01*
X69683170Y-46080640D01*
X69473782Y-46181490D01*
X69318927Y-46354794D01*
X69266746Y-46503948D01*
X69221554Y-46476658D01*
X69129986Y-46463413D01*
X68331247Y-46508314D01*
X68324775Y-46509912D01*
X68298206Y-46445610D01*
X68163691Y-46310861D01*
X67987849Y-46237845D01*
X67797450Y-46237678D01*
X67621481Y-46310387D01*
X67486732Y-46444902D01*
X67413716Y-46620744D01*
X67413549Y-46811143D01*
X64435523Y-46811143D01*
X64567694Y-46510004D01*
X64661098Y-46297190D01*
X64665952Y-46064832D01*
X64581518Y-45848302D01*
X64420648Y-45680568D01*
X64374722Y-45660411D01*
X64182289Y-45735450D01*
X63615474Y-47026886D01*
X63353374Y-47026886D01*
X63395709Y-46930430D01*
X63468964Y-46962582D01*
X64035779Y-45671146D01*
X63960741Y-45478713D01*
X63914814Y-45458556D01*
X63682456Y-45453702D01*
X63465927Y-45538138D01*
X63351882Y-45647515D01*
X63323939Y-45602726D01*
X63248284Y-45549467D01*
X62686481Y-45302890D01*
X73359826Y-45302890D01*
X73432535Y-45478859D01*
X73567050Y-45613608D01*
X73742892Y-45686624D01*
X73796352Y-45686671D01*
X74679770Y-47152951D01*
X74737141Y-47217287D01*
X74820177Y-47258093D01*
X74912547Y-47263379D01*
X74999696Y-47232311D01*
X75228328Y-47094563D01*
X75237061Y-47109057D01*
X75294432Y-47173393D01*
X75377468Y-47214199D01*
X75469838Y-47219485D01*
X75556987Y-47188417D01*
X76242228Y-46775567D01*
X76306564Y-46718196D01*
X76332608Y-46665198D01*
X76459526Y-46758878D01*
X76685099Y-46814834D01*
X76914914Y-46780206D01*
X76957874Y-46754323D01*
X77007602Y-46553853D01*
X76279773Y-45345817D01*
X76211249Y-45387102D01*
X76136628Y-45263247D01*
X76416821Y-45263247D01*
X77144650Y-46471283D01*
X77345121Y-46521011D01*
X77388081Y-46495128D01*
X77526100Y-46308139D01*
X77582054Y-46082566D01*
X77547427Y-45852751D01*
X77427489Y-45653681D01*
X77061113Y-45045577D01*
X76860643Y-44995849D01*
X76416821Y-45263247D01*
X76136628Y-45263247D01*
X76027737Y-45082512D01*
X76096261Y-45041227D01*
X75368432Y-43833191D01*
X75167961Y-43783463D01*
X75125001Y-43809346D01*
X74986982Y-43996335D01*
X74931028Y-44221908D01*
X74954571Y-44378163D01*
X74901866Y-44375147D01*
X74814717Y-44406215D01*
X74129476Y-44819065D01*
X74127847Y-44820518D01*
X74109968Y-44802608D01*
X73934126Y-44729592D01*
X73743727Y-44729425D01*
X73567758Y-44802134D01*
X73433009Y-44936649D01*
X73359993Y-45112491D01*
X73359826Y-45302890D01*
X62686481Y-45302890D01*
X62515736Y-45227950D01*
X62508690Y-45226318D01*
X62508783Y-45119956D01*
X62436074Y-44943987D01*
X62301559Y-44809238D01*
X62125717Y-44736222D01*
X61935318Y-44736055D01*
X61759349Y-44808764D01*
X61624600Y-44943279D01*
X61551584Y-45119121D01*
X61551417Y-45309520D01*
X61613456Y-45459666D01*
X60926906Y-47023908D01*
X60907456Y-47107885D01*
X46908600Y-47107885D01*
X46908600Y-46892184D01*
X46930160Y-46906915D01*
X47020840Y-46925278D01*
X51020840Y-46925278D01*
X51105554Y-46909338D01*
X51183358Y-46859272D01*
X51235555Y-46782880D01*
X51253918Y-46692200D01*
X51253918Y-45692200D01*
X51237978Y-45607486D01*
X51187912Y-45529682D01*
X51111520Y-45477485D01*
X51020840Y-45459122D01*
X47020840Y-45459122D01*
X46936126Y-45475062D01*
X46908600Y-45492775D01*
X46908600Y-45428600D01*
X54410000Y-45428600D01*
X54428454Y-45424929D01*
X54447235Y-45426101D01*
X54481300Y-45414418D01*
X54516616Y-45407393D01*
X54532260Y-45396940D01*
X54550060Y-45390835D01*
X54577061Y-45367004D01*
X54607000Y-45347000D01*
X54617453Y-45331356D01*
X54631562Y-45318904D01*
X54647388Y-45286556D01*
X54667393Y-45256616D01*
X54671064Y-45238161D01*
X54679333Y-45221259D01*
X54681575Y-45185317D01*
X54688600Y-45150000D01*
X54684929Y-45131546D01*
X54686101Y-45112765D01*
X54674418Y-45078700D01*
X54667393Y-45043384D01*
X54656940Y-45027740D01*
X54650835Y-45009940D01*
X54325529Y-44450572D01*
X56784936Y-44450572D01*
X56814561Y-44491043D01*
X57013154Y-44611770D01*
X57242831Y-44647307D01*
X57468623Y-44592247D01*
X57656158Y-44454971D01*
X58229024Y-44035631D01*
X58260608Y-43831514D01*
X57954554Y-43413411D01*
X56816520Y-44246456D01*
X56784936Y-44450572D01*
X54325529Y-44450572D01*
X53021919Y-42209001D01*
X52941815Y-42001746D01*
X55824793Y-42001746D01*
X55827797Y-42094218D01*
X55866541Y-42178236D01*
X56024203Y-42393621D01*
X56010549Y-42403616D01*
X55951607Y-42466515D01*
X55918397Y-42552871D01*
X55921401Y-42645343D01*
X55960145Y-42729361D01*
X56432677Y-43374894D01*
X56495577Y-43433836D01*
X56550693Y-43455032D01*
X56468750Y-43589825D01*
X56433211Y-43819502D01*
X56488272Y-44045295D01*
X56517896Y-44085765D01*
X56722013Y-44117349D01*
X57860048Y-43284304D01*
X57812795Y-43219751D01*
X57835173Y-43203370D01*
X58241494Y-43203370D01*
X58547547Y-43621474D01*
X58751664Y-43653057D01*
X59324531Y-43233717D01*
X59512065Y-43096441D01*
X59632792Y-42897849D01*
X59668331Y-42668172D01*
X59613270Y-42442379D01*
X59583646Y-42401909D01*
X59379529Y-42370325D01*
X58241494Y-43203370D01*
X57835173Y-43203370D01*
X58099735Y-43009710D01*
X58146988Y-43074263D01*
X59285022Y-42241218D01*
X59316606Y-42037102D01*
X59286981Y-41996631D01*
X59088388Y-41875904D01*
X58858711Y-41840367D01*
X58705193Y-41877803D01*
X58703479Y-41825039D01*
X58664735Y-41741021D01*
X58192203Y-41095488D01*
X58191350Y-41094689D01*
X58257190Y-40936130D01*
X58257357Y-40745731D01*
X58184648Y-40569762D01*
X58050133Y-40435013D01*
X57874291Y-40361997D01*
X57683892Y-40361830D01*
X57507923Y-40434539D01*
X57373174Y-40569054D01*
X57300158Y-40744896D01*
X57300075Y-40840036D01*
X55916945Y-41852491D01*
X55858003Y-41915390D01*
X55824793Y-42001746D01*
X52941815Y-42001746D01*
X52405891Y-40615151D01*
X51963715Y-38875925D01*
X51745334Y-37339171D01*
X53804344Y-37339171D01*
X53807152Y-37389247D01*
X53907970Y-37598651D01*
X54081250Y-37753532D01*
X54300609Y-37830314D01*
X54532654Y-37817305D01*
X55241486Y-37777567D01*
X55379132Y-37623571D01*
X55350130Y-37106234D01*
X53941991Y-37185175D01*
X53804344Y-37339171D01*
X51745334Y-37339171D01*
X51709404Y-37086330D01*
X55705172Y-37086330D01*
X55734175Y-37603667D01*
X55888170Y-37741313D01*
X56597002Y-37701576D01*
X56829047Y-37688567D01*
X57038450Y-37587749D01*
X57193333Y-37414470D01*
X57270114Y-37195111D01*
X57267307Y-37145034D01*
X57113311Y-37007388D01*
X55705172Y-37086330D01*
X51709404Y-37086330D01*
X51697732Y-37004197D01*
X51690387Y-36837703D01*
X53776232Y-36837703D01*
X53779039Y-36887780D01*
X53933035Y-37025426D01*
X55341174Y-36946484D01*
X55336696Y-36866610D01*
X55691738Y-36846706D01*
X55696216Y-36926580D01*
X57104355Y-36847639D01*
X57242002Y-36693643D01*
X57239194Y-36643567D01*
X57138376Y-36434163D01*
X56965096Y-36279282D01*
X56815951Y-36227077D01*
X56843247Y-36181891D01*
X56856506Y-36090325D01*
X56811728Y-35291579D01*
X56810130Y-35285103D01*
X56874499Y-35258506D01*
X57009248Y-35123991D01*
X57055231Y-35013250D01*
X59582372Y-35013250D01*
X59752372Y-37043250D01*
X59760175Y-37070398D01*
X59762697Y-37098530D01*
X60282697Y-38868530D01*
X60296460Y-38894831D01*
X60305291Y-38923175D01*
X61105291Y-40393175D01*
X61123656Y-40415213D01*
X61137592Y-40440279D01*
X62147592Y-41630279D01*
X62171012Y-41648860D01*
X62190764Y-41671308D01*
X63380764Y-42581308D01*
X63405976Y-42593689D01*
X63428364Y-42610644D01*
X64788364Y-43270644D01*
X64811374Y-43276654D01*
X64832488Y-43287600D01*
X66282489Y-43707600D01*
X66306686Y-43709676D01*
X66329854Y-43716964D01*
X67799854Y-43876964D01*
X67823224Y-43874904D01*
X67846467Y-43878113D01*
X69366467Y-43788113D01*
X69390987Y-43781708D01*
X69416305Y-43780595D01*
X69538631Y-43750621D01*
X75505480Y-43750621D01*
X76233309Y-44958657D01*
X76677131Y-44691259D01*
X76726859Y-44490789D01*
X76360483Y-43882685D01*
X76240545Y-43683615D01*
X76053556Y-43545596D01*
X75827983Y-43489640D01*
X75598168Y-43524268D01*
X75555208Y-43550151D01*
X75505480Y-43750621D01*
X69538631Y-43750621D01*
X70926304Y-43410595D01*
X70950247Y-43399421D01*
X70975957Y-43393322D01*
X72395957Y-42743322D01*
X72419189Y-42726539D01*
X72445143Y-42714379D01*
X73695143Y-41794379D01*
X73716807Y-41770651D01*
X73742019Y-41750737D01*
X74193159Y-41221514D01*
X77615559Y-41221514D01*
X77688268Y-41397483D01*
X77822783Y-41532232D01*
X77998625Y-41605248D01*
X78189024Y-41605415D01*
X78364993Y-41532706D01*
X78376299Y-41521420D01*
X79991804Y-42069806D01*
X80077146Y-42081942D01*
X80166914Y-42059542D01*
X80240896Y-42003983D01*
X80287433Y-41924017D01*
X80373232Y-41671260D01*
X80389257Y-41676700D01*
X80474599Y-41688836D01*
X80564368Y-41666436D01*
X80638349Y-41610876D01*
X80684886Y-41530911D01*
X80942035Y-40773367D01*
X80954171Y-40688025D01*
X80939874Y-40630730D01*
X81097282Y-40620412D01*
X81305724Y-40517620D01*
X81458962Y-40342886D01*
X81475084Y-40295392D01*
X81383730Y-40110147D01*
X80048226Y-39656808D01*
X80022511Y-39732562D01*
X79685783Y-39618260D01*
X79711498Y-39542505D01*
X79601892Y-39505299D01*
X80099656Y-39505299D01*
X81435160Y-39958638D01*
X81620405Y-39867285D01*
X81636527Y-39819792D01*
X81621326Y-39587880D01*
X81518533Y-39379439D01*
X81343798Y-39226201D01*
X81123723Y-39151496D01*
X80451454Y-38923294D01*
X80266209Y-39014647D01*
X80099656Y-39505299D01*
X79601892Y-39505299D01*
X78375994Y-39089166D01*
X78190749Y-39180519D01*
X78174627Y-39228012D01*
X78189828Y-39459924D01*
X78292621Y-39668365D01*
X78411426Y-39772554D01*
X78369213Y-39804256D01*
X78322676Y-39884221D01*
X78065527Y-40641765D01*
X78064625Y-40648106D01*
X77999460Y-40648049D01*
X77823491Y-40720758D01*
X77688742Y-40855273D01*
X77615726Y-41031115D01*
X77615559Y-41221514D01*
X74193159Y-41221514D01*
X74782019Y-40530737D01*
X74795684Y-40506282D01*
X74813770Y-40484886D01*
X75643770Y-38984886D01*
X75652724Y-38956842D01*
X75666602Y-38930879D01*
X75720743Y-38752412D01*
X78336070Y-38752412D01*
X78427424Y-38937657D01*
X79762928Y-39390996D01*
X79929480Y-38900344D01*
X79838127Y-38715099D01*
X79165858Y-38486896D01*
X78945783Y-38412191D01*
X78713872Y-38427392D01*
X78505430Y-38530184D01*
X78352192Y-38704918D01*
X78336070Y-38752412D01*
X75720743Y-38752412D01*
X76206602Y-37150879D01*
X76209452Y-37121944D01*
X76217563Y-37094020D01*
X76397563Y-35014020D01*
X76394939Y-34990266D01*
X76397609Y-34966520D01*
X76239125Y-33092676D01*
X78726520Y-33092676D01*
X78729326Y-33142753D01*
X78830137Y-33352159D01*
X79003412Y-33507046D01*
X79152556Y-33559256D01*
X79125259Y-33604442D01*
X79111997Y-33696007D01*
X79156749Y-34494754D01*
X79158347Y-34501231D01*
X79093963Y-34527834D01*
X78959214Y-34662349D01*
X78886198Y-34838191D01*
X78886031Y-35028590D01*
X78958740Y-35204559D01*
X79093255Y-35339308D01*
X79269097Y-35412324D01*
X79459496Y-35412491D01*
X79635465Y-35339782D01*
X79770214Y-35205267D01*
X79774744Y-35194357D01*
X81477261Y-35098968D01*
X81560950Y-35078314D01*
X81635832Y-35023974D01*
X81683673Y-34944782D01*
X81696935Y-34853217D01*
X81682003Y-34586713D01*
X81698898Y-34585766D01*
X81782588Y-34565112D01*
X81857470Y-34510772D01*
X81905311Y-34431580D01*
X81918573Y-34340015D01*
X81873821Y-33541268D01*
X81853167Y-33457578D01*
X81818484Y-33409784D01*
X81960618Y-33341359D01*
X82115506Y-33168086D01*
X82192294Y-32948728D01*
X82189489Y-32898652D01*
X82035497Y-32761001D01*
X80627356Y-32839897D01*
X80631831Y-32919771D01*
X80276788Y-32939664D01*
X80272313Y-32859789D01*
X78864171Y-32938685D01*
X78726520Y-33092676D01*
X76239125Y-33092676D01*
X76227609Y-32956521D01*
X76219696Y-32929079D01*
X76217059Y-32900645D01*
X76125113Y-32591208D01*
X78698424Y-32591208D01*
X78701229Y-32641284D01*
X78855221Y-32778935D01*
X80263362Y-32700039D01*
X80234377Y-32182701D01*
X80212123Y-32162808D01*
X80589420Y-32162808D01*
X80618405Y-32680147D01*
X82026547Y-32601251D01*
X82164198Y-32447260D01*
X82161392Y-32397183D01*
X82060581Y-32187777D01*
X81887306Y-32032890D01*
X81667949Y-31956101D01*
X81435904Y-31969102D01*
X80727071Y-32008817D01*
X80589420Y-32162808D01*
X80212123Y-32162808D01*
X80080385Y-32045050D01*
X79371552Y-32084764D01*
X79139507Y-32097765D01*
X78930100Y-32198577D01*
X78775212Y-32371850D01*
X78698424Y-32591208D01*
X76125113Y-32591208D01*
X75697059Y-31150645D01*
X75683596Y-31125108D01*
X75675086Y-31097521D01*
X74875086Y-29617521D01*
X74856900Y-29595571D01*
X74843151Y-29570599D01*
X73833150Y-28370598D01*
X73811049Y-28352915D01*
X73792692Y-28331379D01*
X73191297Y-27856327D01*
X76660491Y-27856327D01*
X76689963Y-27896909D01*
X76888098Y-28018386D01*
X77117639Y-28054791D01*
X77271299Y-28017936D01*
X77272813Y-28070705D01*
X77311239Y-28154869D01*
X77781327Y-28802184D01*
X77781948Y-28802771D01*
X77715372Y-28963104D01*
X77715205Y-29153503D01*
X77787914Y-29329472D01*
X77922429Y-29464221D01*
X78098271Y-29537237D01*
X78288670Y-29537404D01*
X78464639Y-29464695D01*
X78599388Y-29330180D01*
X78672404Y-29154338D01*
X78672486Y-29061006D01*
X80059430Y-28053791D01*
X80118609Y-27991114D01*
X80152145Y-27904885D01*
X80149491Y-27812402D01*
X80111065Y-27728238D01*
X79954219Y-27512260D01*
X79967912Y-27502316D01*
X80027091Y-27439639D01*
X80060627Y-27353410D01*
X80057973Y-27260927D01*
X80019547Y-27176763D01*
X79549459Y-26529448D01*
X79486782Y-26470269D01*
X79431746Y-26448865D01*
X79514197Y-26314382D01*
X79550605Y-26084841D01*
X79496399Y-25858842D01*
X79466927Y-25818260D01*
X79262931Y-25785904D01*
X78121755Y-26614640D01*
X78168764Y-26679372D01*
X77881031Y-26888326D01*
X77834023Y-26823595D01*
X76692846Y-27652331D01*
X76660491Y-27856327D01*
X73191297Y-27856327D01*
X72602692Y-27391379D01*
X72577924Y-27378728D01*
X72556053Y-27361548D01*
X72284808Y-27223931D01*
X76311155Y-27223931D01*
X76365361Y-27449930D01*
X76394833Y-27490512D01*
X76598829Y-27522868D01*
X77740005Y-26694132D01*
X77435535Y-26274873D01*
X77231539Y-26242518D01*
X76657091Y-26659689D01*
X76469039Y-26796255D01*
X76347563Y-26994390D01*
X76311155Y-27223931D01*
X72284808Y-27223931D01*
X71196053Y-26671548D01*
X71171642Y-26664709D01*
X71149209Y-26652897D01*
X69699210Y-26222897D01*
X69675075Y-26220672D01*
X69652005Y-26213244D01*
X68378071Y-26065919D01*
X77723267Y-26065919D01*
X78027737Y-26485177D01*
X79168914Y-25656441D01*
X79201269Y-25452445D01*
X79171797Y-25411863D01*
X78973662Y-25290386D01*
X78744121Y-25253981D01*
X78518122Y-25308187D01*
X78330070Y-25444752D01*
X77755622Y-25861923D01*
X77723267Y-26065919D01*
X68378071Y-26065919D01*
X68182006Y-26043245D01*
X68156794Y-26045297D01*
X68131711Y-26042001D01*
X66611711Y-26142001D01*
X66586446Y-26148777D01*
X66560330Y-26150252D01*
X65050330Y-26540252D01*
X65027355Y-26551325D01*
X65002574Y-26557356D01*
X63582574Y-27217356D01*
X63558940Y-27234640D01*
X63532555Y-27247334D01*
X62282555Y-28187334D01*
X62262889Y-28209324D01*
X62239580Y-28227404D01*
X61189580Y-29437404D01*
X61174750Y-29463404D01*
X61155543Y-29486363D01*
X60335543Y-30986363D01*
X60326879Y-31013986D01*
X60313273Y-31039535D01*
X59773273Y-32829535D01*
X59770488Y-32858261D01*
X59762437Y-32885980D01*
X59582437Y-34965980D01*
X59585049Y-34989622D01*
X59582372Y-35013250D01*
X57055231Y-35013250D01*
X57082264Y-34948149D01*
X57082431Y-34757750D01*
X57009722Y-34581781D01*
X56875207Y-34447032D01*
X56699365Y-34374016D01*
X56508966Y-34373849D01*
X56332997Y-34446558D01*
X56198248Y-34581073D01*
X56193712Y-34591996D01*
X54491196Y-34687441D01*
X54407507Y-34708098D01*
X54332627Y-34762440D01*
X54284788Y-34841634D01*
X54271529Y-34933200D01*
X54286469Y-35199703D01*
X54269575Y-35200650D01*
X54185886Y-35221307D01*
X54111006Y-35275649D01*
X54063167Y-35354843D01*
X54049908Y-35446409D01*
X54094686Y-36245155D01*
X54115343Y-36328844D01*
X54150026Y-36376636D01*
X54007896Y-36445065D01*
X53853013Y-36618344D01*
X53776232Y-36837703D01*
X51690387Y-36837703D01*
X51608870Y-34989974D01*
X51697737Y-32965770D01*
X51876306Y-31709169D01*
X55038682Y-31709169D01*
X55325309Y-31876442D01*
X55654130Y-31921293D01*
X55802179Y-31899083D01*
X55852763Y-31730849D01*
X55559790Y-31243869D01*
X55072811Y-31536842D01*
X55038682Y-31709169D01*
X51876306Y-31709169D01*
X51963741Y-31093889D01*
X52214346Y-30102607D01*
X54344110Y-30102607D01*
X54359954Y-30334476D01*
X54463325Y-30542631D01*
X54638484Y-30695384D01*
X54820787Y-30756704D01*
X54798340Y-30795167D01*
X54753489Y-31123988D01*
X54775699Y-31272037D01*
X54943933Y-31322621D01*
X55430913Y-31029648D01*
X55406305Y-30988745D01*
X55432567Y-30962483D01*
X55531664Y-30995816D01*
X55716652Y-30903951D01*
X55670091Y-31042377D01*
X55814161Y-31090837D01*
X55774011Y-31114992D01*
X56066984Y-31601971D01*
X56239311Y-31636100D01*
X56406584Y-31349473D01*
X56414326Y-31292710D01*
X56818465Y-31428647D01*
X57038747Y-31502741D01*
X57270615Y-31486898D01*
X57478772Y-31383528D01*
X57631524Y-31208369D01*
X57647514Y-31160831D01*
X57555647Y-30975840D01*
X56218891Y-30526206D01*
X56193386Y-30602031D01*
X56137011Y-30583069D01*
X56166242Y-30435471D01*
X55879615Y-30268198D01*
X55550794Y-30223347D01*
X55402745Y-30245557D01*
X55401072Y-30251122D01*
X54545091Y-29963203D01*
X54360100Y-30055070D01*
X54344110Y-30102607D01*
X52214346Y-30102607D01*
X52334694Y-29626561D01*
X54504234Y-29626561D01*
X54596101Y-29811552D01*
X55932857Y-30261186D01*
X55958362Y-30185361D01*
X56295406Y-30298729D01*
X56269901Y-30374555D01*
X57606657Y-30824189D01*
X57791648Y-30732322D01*
X57807638Y-30684785D01*
X57791794Y-30452916D01*
X57688423Y-30244761D01*
X57569330Y-30140902D01*
X57611455Y-30109083D01*
X57657770Y-30028989D01*
X57912818Y-29270734D01*
X57913690Y-29264476D01*
X57977540Y-29264532D01*
X58153509Y-29191823D01*
X58288258Y-29057308D01*
X58361274Y-28881466D01*
X58361441Y-28691067D01*
X58288732Y-28515098D01*
X58154217Y-28380349D01*
X57978375Y-28307333D01*
X57787976Y-28307166D01*
X57612007Y-28379875D01*
X57599838Y-28392023D01*
X55982587Y-27848040D01*
X55897211Y-27836141D01*
X55807505Y-27858789D01*
X55733678Y-27914554D01*
X55687363Y-27994648D01*
X55602266Y-28247641D01*
X55586228Y-28242247D01*
X55500852Y-28230348D01*
X55411146Y-28252996D01*
X55337319Y-28308761D01*
X55291004Y-28388855D01*
X55035956Y-29147110D01*
X55024057Y-29232486D01*
X55038512Y-29289741D01*
X54881133Y-29300494D01*
X54672976Y-29403864D01*
X54520224Y-29579023D01*
X54504234Y-29626561D01*
X52334694Y-29626561D01*
X52406029Y-29344396D01*
X53022202Y-27740390D01*
X54383398Y-25384786D01*
X59257150Y-25384786D01*
X59627345Y-25990573D01*
X59748532Y-26188884D01*
X59936386Y-26325724D01*
X60162306Y-26380259D01*
X60391899Y-26344187D01*
X60434695Y-26318034D01*
X60483161Y-26117255D01*
X59747746Y-24913822D01*
X59305616Y-25184007D01*
X59257150Y-25384786D01*
X54383398Y-25384786D01*
X54670418Y-24888087D01*
X55549180Y-23798421D01*
X58391957Y-23798421D01*
X58428029Y-24028013D01*
X58549217Y-24226325D01*
X58919412Y-24832112D01*
X59120191Y-24880578D01*
X59562322Y-24610393D01*
X58826907Y-23406960D01*
X58626127Y-23358494D01*
X58583331Y-23384646D01*
X58446491Y-23572500D01*
X58391957Y-23798421D01*
X55549180Y-23798421D01*
X55646742Y-23677445D01*
X56007035Y-23323529D01*
X58963433Y-23323529D01*
X59698848Y-24526962D01*
X59767111Y-24485247D01*
X59952535Y-24788676D01*
X59884272Y-24830391D01*
X60619687Y-26033824D01*
X60820467Y-26082290D01*
X60863263Y-26056138D01*
X61000103Y-25868284D01*
X61054637Y-25642363D01*
X61030111Y-25486260D01*
X61082834Y-25488945D01*
X61169786Y-25457329D01*
X61852416Y-25040175D01*
X61853703Y-25039013D01*
X61869471Y-25054809D01*
X62045313Y-25127825D01*
X62235712Y-25127992D01*
X62411681Y-25055283D01*
X62546430Y-24920768D01*
X62619446Y-24744926D01*
X62619613Y-24554527D01*
X62546904Y-24378558D01*
X62412389Y-24243809D01*
X62236547Y-24170793D01*
X62180229Y-24170744D01*
X61287448Y-22709797D01*
X61229674Y-22645824D01*
X61146382Y-22605541D01*
X61053981Y-22600836D01*
X60967029Y-22632452D01*
X60739269Y-22771636D01*
X60730445Y-22757196D01*
X60672671Y-22693223D01*
X60589379Y-22652940D01*
X60496978Y-22648235D01*
X60410026Y-22679851D01*
X59727396Y-23097005D01*
X59663423Y-23154779D01*
X59637713Y-23207939D01*
X59510208Y-23115060D01*
X59284288Y-23060525D01*
X59054695Y-23096597D01*
X59011899Y-23122750D01*
X58963433Y-23323529D01*
X56007035Y-23323529D01*
X56749937Y-22593776D01*
X57016816Y-22402089D01*
X65195802Y-22402089D01*
X65236137Y-23110888D01*
X65249341Y-23342921D01*
X65350336Y-23552239D01*
X65523745Y-23706976D01*
X65743169Y-23783572D01*
X65793243Y-23780723D01*
X65799840Y-23773329D01*
X71307717Y-23773329D01*
X71390877Y-23990352D01*
X71550757Y-24159030D01*
X71596564Y-24179457D01*
X71619377Y-24170715D01*
X71935563Y-24170715D01*
X72009469Y-24363586D01*
X72055276Y-24384013D01*
X72287601Y-24390234D01*
X72504623Y-24307074D01*
X72619310Y-24198369D01*
X72646989Y-24243321D01*
X72722329Y-24297024D01*
X73452973Y-24622845D01*
X73459937Y-24624501D01*
X73459841Y-24733696D01*
X73532550Y-24909665D01*
X73667065Y-25044414D01*
X73842907Y-25117430D01*
X74033306Y-25117597D01*
X74209275Y-25044888D01*
X74344024Y-24910373D01*
X74417040Y-24734531D01*
X74417207Y-24544132D01*
X74356383Y-24396927D01*
X75052340Y-22836265D01*
X75072284Y-22752404D01*
X75058247Y-22660954D01*
X75009736Y-22582170D01*
X74934397Y-22528467D01*
X74690615Y-22419755D01*
X74697507Y-22404300D01*
X74717451Y-22320439D01*
X74703414Y-22228989D01*
X74654903Y-22150205D01*
X74579563Y-22096502D01*
X73848919Y-21770681D01*
X73765058Y-21750737D01*
X73706691Y-21759696D01*
X73710913Y-21602007D01*
X73627753Y-21384984D01*
X73467873Y-21216306D01*
X73422066Y-21195879D01*
X73229195Y-21269785D01*
X72654793Y-22557864D01*
X72727857Y-22590446D01*
X72583030Y-22915218D01*
X72509966Y-22882636D01*
X71935563Y-24170715D01*
X71619377Y-24170715D01*
X71789435Y-24105551D01*
X72363837Y-22817472D01*
X71890608Y-22606441D01*
X71697737Y-22680347D01*
X71408593Y-23328743D01*
X71313938Y-23541003D01*
X71307717Y-23773329D01*
X65799840Y-23773329D01*
X65930760Y-23626611D01*
X65850631Y-22218539D01*
X65333318Y-22247978D01*
X65195802Y-22402089D01*
X57016816Y-22402089D01*
X59227016Y-20814604D01*
X65105463Y-20814604D01*
X65118667Y-21046637D01*
X65159003Y-21755436D01*
X65313115Y-21892952D01*
X65830428Y-21863513D01*
X65750299Y-20455441D01*
X65740112Y-20446351D01*
X65910040Y-20446351D01*
X65990169Y-21854423D01*
X66070040Y-21849878D01*
X66090243Y-22204904D01*
X66010372Y-22209449D01*
X66090501Y-23617521D01*
X66244613Y-23755037D01*
X66294687Y-23752187D01*
X66504005Y-23651193D01*
X66658741Y-23477782D01*
X66710820Y-23328592D01*
X66756029Y-23355850D01*
X66847606Y-23369032D01*
X67646314Y-23323581D01*
X67652768Y-23321982D01*
X67679212Y-23385982D01*
X67813727Y-23520731D01*
X67989569Y-23593747D01*
X68179968Y-23593914D01*
X68355937Y-23521205D01*
X68490686Y-23386690D01*
X68563702Y-23210848D01*
X68563869Y-23020449D01*
X68491160Y-22844480D01*
X68356645Y-22709731D01*
X68345380Y-22705053D01*
X68310312Y-22088799D01*
X71961530Y-22088799D01*
X72035435Y-22281670D01*
X72508664Y-22492700D01*
X73083067Y-21204621D01*
X73009161Y-21011750D01*
X72963354Y-20991323D01*
X72731029Y-20985102D01*
X72514007Y-21068262D01*
X72345329Y-21228143D01*
X72250674Y-21440403D01*
X71961530Y-22088799D01*
X68310312Y-22088799D01*
X68248496Y-21002541D01*
X68227768Y-20918869D01*
X68173363Y-20844035D01*
X68094129Y-20796263D01*
X68002552Y-20783081D01*
X67736061Y-20798246D01*
X67735100Y-20781352D01*
X67714372Y-20697680D01*
X67659967Y-20622846D01*
X67580733Y-20575074D01*
X67489156Y-20561892D01*
X66690448Y-20607343D01*
X66606776Y-20628071D01*
X66559013Y-20662795D01*
X66490464Y-20520723D01*
X66317055Y-20365986D01*
X66097631Y-20289390D01*
X66047557Y-20292239D01*
X65910040Y-20446351D01*
X65740112Y-20446351D01*
X65596187Y-20317925D01*
X65546113Y-20320775D01*
X65336795Y-20421769D01*
X65182059Y-20595180D01*
X65105463Y-20814604D01*
X59227016Y-20814604D01*
X59230377Y-20812190D01*
X62012825Y-19543866D01*
X64995795Y-18785817D01*
X68058947Y-18539583D01*
X71081981Y-18805452D01*
G36*
X86232222Y-48158400D02*
X86198422Y-48192200D01*
X86232222Y-48226000D01*
X86088222Y-48370000D01*
X85884358Y-48370000D01*
X85740358Y-48226000D01*
X85774158Y-48192200D01*
X85740358Y-48158400D01*
X85884358Y-48014400D01*
X86088222Y-48014400D01*
X86232222Y-48158400D01*
X86232222Y-48158400D01*
G37*
X86232222Y-48158400D02*
X86198422Y-48192200D01*
X86232222Y-48226000D01*
X86088222Y-48370000D01*
X85884358Y-48370000D01*
X85740358Y-48226000D01*
X85774158Y-48192200D01*
X85740358Y-48158400D01*
X85884358Y-48014400D01*
X86088222Y-48014400D01*
X86232222Y-48158400D01*
G36*
X50266772Y-48158400D02*
X50232972Y-48192200D01*
X50266772Y-48226000D01*
X50122772Y-48370000D01*
X49918908Y-48370000D01*
X49774908Y-48226000D01*
X49808708Y-48192200D01*
X49774908Y-48158400D01*
X49918908Y-48014400D01*
X50122772Y-48014400D01*
X50266772Y-48158400D01*
X50266772Y-48158400D01*
G37*
X50266772Y-48158400D02*
X50232972Y-48192200D01*
X50266772Y-48226000D01*
X50122772Y-48370000D01*
X49918908Y-48370000D01*
X49774908Y-48226000D01*
X49808708Y-48192200D01*
X49774908Y-48158400D01*
X49918908Y-48014400D01*
X50122772Y-48014400D01*
X50266772Y-48158400D01*
M02*
